<svg width="626" height="599" viewBox="0 0 626 599" fill="none" xmlns="http://www.w3.org/2000/svg">
<ellipse cx="313" cy="299.5" rx="313" ry="299.5" fill="#B0A2D7"/>
<g clip-path="url(#clip0_243_4445)">
<path d="M214.834 546.012C166.986 573.447 121.547 548.403 114.658 510.453C113.296 503.001 113.454 495.055 115.349 486.911C116.455 482.128 118.192 477.285 120.56 472.423C122.653 468.133 124.824 463.825 126.916 459.516C134.22 444.474 140.773 429.451 141.938 415.437C142.49 408.796 141.819 402.352 139.431 396.264C138.167 393.042 136.115 390.275 133.608 388.061C130.627 385.452 127.015 383.634 123.265 382.843C121.587 382.487 119.909 382.329 118.231 382.408C107.454 382.863 97.6828 392.627 101.631 416.959C107.158 451.154 70.0285 461.848 56.3889 432.535C55.777 431.23 55.244 429.866 54.7308 428.424C54.5729 427.929 54.3953 427.415 54.2373 426.902C45.7101 399.585 56.0336 352.304 98.1566 342.402C100.091 341.927 102.085 341.571 104.177 341.275C107.019 340.88 109.822 340.642 112.566 340.563C117.639 340.425 122.554 340.84 127.212 341.749C161.44 348.45 182.975 382.191 172.178 424.51C166.374 447.221 142.925 490.034 152.853 510.729C155.992 517.292 165.644 522.372 177.073 521.838C177.369 521.838 177.665 521.818 177.961 521.798C186.212 521.205 195.312 517.667 203.503 509.662L214.834 546.012Z" fill="#8E8FB3"/>
<g opacity="0.15">
<path d="M214.834 546.012C166.987 573.447 121.548 548.403 114.659 510.453C120.442 529.606 151.709 541.979 177.073 521.818C177.369 521.818 177.666 521.798 177.962 521.778C186.212 521.185 195.312 517.647 203.504 509.642L214.834 546.012Z" fill="#000072"/>
</g>
<path d="M476.04 303.067C468.559 377.842 379.734 387.389 337.847 395.71H285.006C257.944 390.314 211.261 384.444 179.6 360.744C171.961 355.032 165.191 348.272 159.782 340.227C155.933 334.495 152.775 328.13 150.485 320.995C148.945 316.172 147.781 311.013 147.09 305.459C146.833 303.363 146.616 301.209 146.498 298.995C146.103 292.512 146.32 285.574 147.189 278.122C147.939 271.679 152.874 249.6 159.605 227.956C161.894 220.583 164.381 213.27 167.007 206.648C157.453 164.171 153.564 110.684 167.915 92.2621C177.251 80.2839 202.517 92.3016 240.83 125.173C268.189 113.115 305.693 112.404 311.437 112.423C317.181 112.404 354.685 113.115 382.043 125.173C420.356 92.3411 445.622 80.3234 454.959 92.3016C469.309 110.724 465.42 164.211 455.867 206.688C466.131 232.779 474.658 269.504 475.665 278.162C476.731 287.195 476.81 295.477 476.04 303.067Z" fill="#8E8FB3"/>
<g opacity="0.5">
<path d="M464.354 141.974C463.881 124.995 461.078 110.803 454.978 102.975C445.642 90.9971 420.376 103.015 382.063 135.886C354.704 123.828 317.22 123.117 311.456 123.137C305.712 123.117 268.208 123.828 240.85 135.886C202.537 103.015 177.251 90.9971 167.914 102.975C161.815 110.803 159.012 124.995 158.538 141.974C158.005 120.35 160.572 101.73 167.914 92.3016C177.251 80.3234 202.517 92.3412 240.83 125.212C268.188 113.155 305.692 112.443 311.437 112.463C317.181 112.443 354.685 113.155 382.043 125.212C420.356 92.3412 445.622 80.3234 454.959 92.3016C462.301 101.73 464.887 120.35 464.354 141.974Z" fill="white"/>
</g>
<path d="M476.04 303.067C468.559 377.842 379.733 387.389 337.847 395.711H285.006C257.944 390.315 211.261 384.444 179.6 360.745C171.961 355.032 165.19 348.272 159.782 340.228C155.933 334.495 152.775 328.131 150.485 320.995C148.945 316.172 147.781 311.013 147.09 305.459C211.774 361.101 258.477 336.136 279.361 293.639C287.414 277.233 303.304 275.652 310.193 275.652C317.082 275.652 332.952 277.233 341.006 293.639C362.185 336.788 409.934 361.852 476.04 303.067Z" fill="white"/>
<g opacity="0.15">
<path d="M468.736 330.285C445.128 380.451 374.009 388.536 337.867 395.731H285.026C257.964 390.334 211.281 384.464 179.62 360.764C171.981 355.052 165.21 348.292 159.802 340.247C157.709 337.124 155.814 333.823 154.156 330.305C157.571 333.705 161.243 336.847 165.111 339.733C189.213 357.76 273.024 366.833 311.436 366.833C349.848 366.833 444.063 354.874 468.736 330.285Z" fill="#000072"/>
</g>
<path d="M214.893 199.968C212.959 196.943 225.809 169.824 250.068 177.83C258.813 180.716 259.622 189.235 252.851 191.073C246.397 192.812 243.495 191.409 233.488 194.927C227.842 196.924 216.828 202.992 214.893 199.968Z" fill="#000072"/>
<path d="M407.98 199.968C409.915 196.943 397.064 169.824 372.805 177.83C364.061 180.716 363.252 189.235 370.022 191.073C376.477 192.812 379.378 191.409 389.386 194.927C395.051 196.924 406.046 202.992 407.98 199.968Z" fill="#000072"/>
<path d="M201.352 157.253C189.568 169.824 182.146 187.436 181.1 185.38C181.001 185.182 180.903 184.945 180.804 184.668C178.574 178.897 174.882 156.047 174.942 135.688C174.961 132.407 175.04 129.501 175.218 126.952C175.672 120.053 176.659 115.626 177.863 112.799C179.363 109.34 182.719 108.292 185.68 109.459C193.555 112.562 215.959 127.367 223.243 136.835C224.546 138.515 213.137 144.682 201.352 157.253Z" fill="#F27E80"/>
<path d="M201.352 157.253C189.568 169.824 182.146 187.436 181.1 185.38C181.001 185.182 180.903 184.945 180.804 184.668C183.449 173.995 190.674 159.249 196.22 148.576C203.8 134.008 193.398 122.405 184.377 118.927C181.278 117.741 177.587 122.821 175.198 126.952C175.652 120.053 176.639 115.626 177.843 112.799C179.343 109.34 182.699 108.292 185.66 109.459C193.536 112.562 215.939 127.367 223.223 136.835C224.546 138.515 213.137 144.682 201.352 157.253Z" fill="#FF5C64"/>
<path d="M181.396 189.452C181.337 189.452 181.258 189.452 181.199 189.452C179.699 189.393 178.317 188.523 177.626 187.159C174.981 181.961 170.974 156.838 171.033 135.688C171.073 124.283 172.119 116.298 174.271 111.258C176.521 106.059 181.91 103.766 187.101 105.822C195.45 109.103 218.387 124.105 226.342 134.443C227.309 135.688 228.375 138.278 224.862 141.677C223.736 142.745 222.138 144.03 220.124 145.65C215.92 149.011 210.136 153.616 204.215 159.941C197.701 166.899 192.509 175.576 189.055 181.328C185.463 187.337 184.199 189.452 181.396 189.452ZM178.85 135.708C178.811 150.928 180.923 167.373 182.739 176.624C186.351 170.595 191.661 161.859 198.49 154.585C204.807 147.844 211.064 142.844 215.229 139.523C216.275 138.693 217.38 137.803 218.269 137.052C209.959 128.157 190.772 115.685 184.239 113.116C183.528 112.839 182.206 112.621 181.456 114.361C180.291 117.089 178.889 123.018 178.85 135.708Z" fill="#000072"/>
<path d="M421.935 157.253C433.72 169.824 441.141 187.436 442.188 185.38C442.286 185.182 442.385 184.945 442.484 184.668C444.714 178.897 448.405 156.047 448.346 135.688C448.326 132.407 448.247 129.501 448.07 126.952C447.616 120.053 446.629 115.626 445.425 112.799C443.925 109.34 440.569 108.292 437.608 109.459C429.732 112.562 407.329 127.367 400.045 136.835C398.762 138.515 410.151 144.682 421.935 157.253Z" fill="#F27E80"/>
<path d="M421.935 157.253C433.719 169.824 441.141 187.436 442.187 185.38C442.286 185.182 442.385 184.945 442.483 184.668C439.838 173.995 432.614 159.249 427.067 148.576C419.488 134.008 429.89 122.405 438.911 118.927C442.01 117.741 445.701 122.821 448.089 126.952C447.635 120.053 446.648 115.626 445.444 112.799C443.944 109.34 440.589 108.292 437.628 109.459C429.752 112.562 407.348 127.367 400.064 136.835C398.762 138.515 410.151 144.682 421.935 157.253Z" fill="#FF5C64"/>
<path d="M441.892 189.452C439.089 189.452 437.825 187.337 434.213 181.308C430.779 175.556 425.568 166.879 419.054 159.921C413.132 153.596 407.368 148.991 403.144 145.63C401.111 144.01 399.512 142.725 398.407 141.657C394.893 138.258 395.979 135.668 396.926 134.423C404.881 124.085 427.818 109.083 436.148 105.802C441.339 103.766 446.728 106.039 448.978 111.238C451.129 116.278 452.195 124.263 452.235 135.668C452.294 156.818 448.287 181.941 445.642 187.139C444.951 188.503 443.569 189.392 442.069 189.432C442.03 189.452 441.971 189.452 441.892 189.452ZM405.019 137.052C405.907 137.803 407.013 138.693 408.059 139.523C412.204 142.843 418.481 147.844 424.798 154.584C431.627 161.878 436.937 170.615 440.549 176.624C442.385 167.373 444.497 150.928 444.438 135.708C444.398 123.018 442.997 117.088 441.832 114.361C441.082 112.621 439.76 112.839 439.049 113.115C432.516 115.685 413.329 128.157 405.019 137.052Z" fill="#000072"/>
<path d="M337.532 394.09C348.862 391.026 360.271 388.773 371.502 386.045C382.754 383.377 393.906 380.491 404.723 376.696C407.408 375.727 410.112 374.759 412.737 373.652C415.402 372.624 417.988 371.398 420.573 370.252C421.876 369.659 423.12 368.987 424.403 368.354C425.666 367.722 426.949 367.089 428.173 366.378L431.864 364.283C433.068 363.551 434.253 362.761 435.437 362.01L437.233 360.863C437.806 360.468 438.378 360.033 438.95 359.638L442.365 357.167L445.603 354.479C446.135 354.024 446.708 353.609 447.221 353.115L448.741 351.672C452.906 347.916 456.459 343.568 459.676 339.041L461.946 335.543C462.124 335.246 462.321 334.97 462.499 334.673L462.993 333.744L463.979 331.906L464.966 330.068C465.124 329.751 465.302 329.455 465.46 329.139L465.874 328.17L467.493 324.335L467.908 323.367L468.223 322.379L468.875 320.382C469.289 319.058 469.783 317.753 470.118 316.389L471.066 312.298L471.539 310.262L471.836 308.187L472.428 304.016C472.467 303.66 472.546 303.324 472.566 302.968L472.625 301.921L472.763 299.806L473.02 295.596C473.02 294.192 472.98 292.769 472.98 291.366L472.921 287.136L472.566 282.886L472.211 278.636L471.915 276.62L471.539 274.545C470.474 268.951 469.171 263.278 467.809 257.665C466.427 252.051 464.947 246.437 463.368 240.863C460.209 229.735 456.716 218.686 452.531 207.992L452.136 206.965L452.373 205.878C455.985 189.571 458.61 173.007 459.933 156.383C460.565 148.082 460.9 139.76 460.663 131.498C460.426 123.255 459.676 114.993 457.683 107.265C456.696 103.41 455.294 99.7338 453.399 96.591C453.182 96.1759 452.906 95.8202 452.649 95.4644L452.255 94.9109C452.116 94.7133 451.998 94.5354 451.879 94.4168C451.623 94.1598 451.426 93.8435 451.129 93.6261L450.735 93.2703C450.596 93.1517 450.439 93.0727 450.3 92.9738C449.156 92.1832 447.774 91.7088 446.155 91.5507C444.537 91.3926 442.76 91.5507 440.944 91.9065C439.128 92.282 437.273 92.7959 435.437 93.468C431.746 94.8121 428.114 96.6108 424.561 98.5874C417.435 102.58 410.625 107.344 403.973 112.325C397.321 117.326 390.866 122.643 384.51 128.098L382.714 129.64L380.503 128.691C375.194 126.418 369.647 124.56 364.002 123.018C358.336 121.476 352.553 120.33 346.73 119.362C340.907 118.393 335.025 117.681 329.123 117.187C323.241 116.693 317.279 116.377 311.437 116.337C305.594 116.377 299.653 116.693 293.751 117.187C287.849 117.681 281.966 118.413 276.143 119.362C270.32 120.33 264.537 121.476 258.872 123.018C253.226 124.56 247.68 126.398 242.37 128.691L240.139 129.64L238.324 128.078C231.968 122.643 225.513 117.326 218.861 112.325C212.229 107.383 205.419 102.62 198.293 98.6269C194.74 96.6503 191.108 94.8516 187.417 93.5075C185.581 92.8355 183.726 92.3018 181.91 91.946C180.094 91.5902 178.317 91.4321 176.698 91.5902C175.08 91.7483 173.698 92.2227 172.573 93.0134C172.435 93.1122 172.277 93.211 172.139 93.3099L171.744 93.6657C171.468 93.8831 171.25 94.1796 171.014 94.4365C170.895 94.5551 170.757 94.733 170.639 94.9307L170.244 95.4841C169.987 95.8399 169.711 96.1957 169.494 96.6108C167.599 99.7536 166.197 103.43 165.21 107.284C163.217 115.013 162.467 123.255 162.23 131.498C161.993 139.76 162.328 148.082 162.96 156.383C164.302 173.007 166.908 189.571 170.52 205.858L170.757 206.965L170.342 208.012C166.158 218.686 162.684 229.755 159.506 240.883C157.927 246.457 156.446 252.051 155.084 257.684C153.703 263.298 152.4 268.951 151.354 274.565C151.077 275.968 150.86 277.352 150.702 278.656C150.544 280.059 150.386 281.483 150.268 282.886C150.031 285.713 149.893 288.539 149.853 291.366C149.774 297.019 150.13 302.652 151.038 308.187C152.795 319.236 156.841 329.87 163.177 339.022C169.474 348.193 177.922 355.843 187.397 361.97C196.891 368.097 207.353 372.782 218.131 376.597C228.928 380.431 240.1 383.278 251.351 385.867L255.575 386.855L259.819 387.804L268.307 389.761C273.972 391.085 279.657 392.429 285.302 394.09C286.191 394.347 286.704 395.276 286.447 396.185C286.21 396.976 285.46 397.47 284.651 397.391C273.084 396.165 261.497 394.643 249.97 392.37C238.462 390.097 227.033 387.073 215.841 383.159C204.669 379.226 193.713 374.344 183.607 367.86C173.52 361.377 164.302 353.115 157.374 343.054C150.386 333.032 145.925 321.311 144.011 309.353C143.043 303.364 142.649 297.315 142.708 291.306C142.747 288.302 142.886 285.297 143.142 282.313C143.261 280.811 143.419 279.328 143.576 277.846C143.774 276.264 144.03 274.762 144.287 273.299C145.373 267.429 146.695 261.717 148.077 256.004C149.478 250.292 150.959 244.619 152.538 238.966C155.736 227.66 159.229 216.433 163.533 205.383L163.375 207.518C159.644 190.895 156.959 174.054 155.558 157.016C154.887 148.497 154.532 139.938 154.749 131.34C154.986 122.742 155.736 114.064 157.927 105.426C159.032 101.117 160.591 96.8085 163.059 92.7169C163.335 92.203 163.71 91.7088 164.046 91.2147L164.579 90.4636C164.756 90.2264 164.914 89.9694 165.171 89.7124C165.625 89.1985 166.059 88.6451 166.592 88.1905L167.382 87.4789C167.658 87.2615 167.954 87.0638 168.23 86.8661C170.56 85.2255 173.323 84.3756 175.889 84.1384C178.475 83.8815 180.942 84.1384 183.252 84.5733C185.561 85.0279 187.772 85.6604 189.904 86.4313C194.148 87.973 198.076 89.9299 201.905 92.0251C209.505 96.2748 216.551 101.177 223.381 106.276C230.211 111.396 236.784 116.792 243.258 122.307L239.231 121.714C244.976 119.223 250.877 117.266 256.819 115.626C262.78 114.005 268.8 112.799 274.841 111.771C280.881 110.763 286.941 110.012 293.04 109.478C299.139 108.945 305.199 108.609 311.397 108.569C317.595 108.609 323.655 108.945 329.754 109.478C335.834 110.012 341.914 110.763 347.954 111.771C353.994 112.799 360.014 114.005 365.975 115.626C371.917 117.266 377.819 119.223 383.563 121.714L379.556 122.307C386.011 116.792 392.603 111.396 399.433 106.276C406.282 101.177 413.31 96.2748 420.909 92.0251C424.719 89.9299 428.666 87.973 432.891 86.4313C435.003 85.6604 437.213 85.0279 439.543 84.5733C441.852 84.1187 444.3 83.8815 446.886 84.1384C449.452 84.3756 452.215 85.2453 454.525 86.8661C454.821 87.0638 455.117 87.2615 455.373 87.4789L456.163 88.1707C456.716 88.6253 457.13 89.159 457.584 89.6729C457.821 89.9496 457.999 90.1868 458.176 90.424L458.709 91.1751C459.064 91.6693 459.42 92.1634 459.696 92.6773C462.144 96.7689 463.703 101.078 464.828 105.387C467.019 114.025 467.75 122.682 467.986 131.3C468.223 139.898 467.848 148.457 467.177 156.976C465.776 173.995 463.091 190.836 459.361 207.459L459.203 205.344C463.486 216.393 467.019 227.62 470.197 238.926C471.796 244.579 473.277 250.252 474.658 255.965C476.04 261.677 477.343 267.389 478.448 273.24L478.843 275.474L479.178 277.786L479.554 282.254L479.929 286.721L479.988 291.227C480.008 292.73 480.027 294.232 480.027 295.734L479.731 300.241L479.593 302.494L479.514 303.621C479.475 303.996 479.415 304.372 479.356 304.747L478.705 309.234L478.369 311.487L477.856 313.701L476.83 318.129C476.474 319.611 475.922 321.034 475.468 322.477L474.757 324.652L474.402 325.739L473.948 326.786L472.151 330.997L471.697 332.044C471.54 332.38 471.342 332.716 471.164 333.052L470.099 335.068L469.013 337.085L468.48 338.093C468.283 338.429 468.065 338.725 467.868 339.061L465.381 342.896C461.848 347.837 457.939 352.561 453.439 356.613L451.781 358.175C451.228 358.689 450.616 359.143 450.044 359.638L446.55 362.504L442.898 365.152C442.286 365.587 441.674 366.042 441.063 366.457L439.168 367.663C437.904 368.453 436.641 369.283 435.358 370.054L431.45 372.248C430.167 372.999 428.824 373.652 427.482 374.324C426.14 374.976 424.817 375.688 423.475 376.3C420.751 377.506 418.067 378.771 415.283 379.838C412.54 380.985 409.757 381.973 406.954 382.981C401.348 384.899 395.722 386.697 390.018 388.16C387.175 388.931 384.313 389.583 381.451 390.295C378.589 390.907 375.707 391.54 372.825 392.093C361.297 394.347 349.73 395.908 338.183 397.312H338.163C337.236 397.43 336.406 396.758 336.288 395.849C336.209 395.078 336.742 394.287 337.532 394.09Z" fill="#000072"/>
<path d="M340.078 305.558C340.078 305.558 340.078 323.031 324.465 322.122C313.411 321.469 311.101 312.357 310.943 311.626C310.766 312.357 308.476 321.469 297.422 322.122C281.809 323.051 281.809 305.558 281.809 305.558L310.805 282.906H311.062L340.078 305.558Z" fill="#E8E8E8"/>
<path d="M339.92 305.676C339.92 305.676 334.827 318.979 322.964 315.876C309.463 312.357 311.121 296.228 311.121 296.228H310.627C310.627 296.228 312.226 312.357 298.705 315.816C286.842 318.86 281.789 305.538 281.789 305.538C281.789 305.538 278.472 275.671 310.785 275.671C343.098 275.671 339.92 305.676 339.92 305.676Z" fill="white"/>
<path d="M338.4 308.641C336.11 312.357 331.136 318.01 322.984 315.876C309.482 312.357 311.14 296.228 311.14 296.228H310.647C310.647 296.228 312.246 312.357 298.725 315.836C290.553 317.931 285.618 312.278 283.328 308.542C285.618 308.76 288.085 308.582 290.789 307.89C313.095 302.158 310.469 280.277 310.469 280.277H311.298C311.298 280.277 308.574 302.158 330.86 307.989C333.584 308.661 336.09 308.859 338.4 308.641Z" fill="#E8E8E8"/>
<path d="M283.644 304.866C284.039 305.518 284.552 306.329 285.085 307.021C285.598 307.732 286.171 308.404 286.743 309.037C287.908 310.302 289.171 311.349 290.533 312.081C291.875 312.832 293.297 313.188 294.738 313.306C295.488 313.247 296.218 313.326 296.988 313.108C297.363 313.01 297.758 312.99 298.133 312.891L299.277 312.515C302.317 311.527 304.627 309.392 306.206 306.467C306.995 305.024 307.568 303.384 307.963 301.664C308.18 300.814 308.318 299.925 308.456 299.035C308.575 298.165 308.673 297.197 308.713 296.426V296.268C308.752 295.181 309.68 294.35 310.746 294.39C311.693 294.43 312.443 295.141 312.582 296.031C312.779 297.197 312.858 298.185 312.878 299.252C312.897 300.32 312.858 301.367 312.739 302.435C312.503 304.55 312.049 306.724 311.121 308.78C309.423 312.931 305.693 316.647 301.311 318.109L299.672 318.663C299.12 318.821 298.527 318.9 297.955 319.019C296.81 319.275 295.586 319.216 294.382 319.236C291.954 319.058 289.566 318.188 287.592 316.923C285.618 315.619 284.019 313.958 282.776 312.16C282.164 311.25 281.611 310.321 281.157 309.353C280.683 308.365 280.308 307.436 279.973 306.289C279.677 305.242 280.269 304.154 281.295 303.858C282.164 303.601 283.052 303.977 283.506 304.708L283.644 304.866Z" fill="#000072"/>
<path d="M341.736 306.368C341.4 307.514 341.025 308.443 340.552 309.432C340.078 310.4 339.525 311.329 338.913 312.239C337.67 314.037 336.071 315.698 334.077 316.982C332.084 318.247 329.715 319.097 327.287 319.275C326.103 319.256 324.859 319.315 323.714 319.058C323.142 318.959 322.55 318.88 321.997 318.702L320.378 318.149C315.996 316.686 312.285 312.93 310.608 308.799C309.68 306.744 309.246 304.569 309.009 302.454C308.89 301.387 308.851 300.32 308.89 299.272C308.91 298.185 308.989 297.216 309.186 296.05C309.364 294.983 310.371 294.271 311.437 294.449C312.364 294.607 313.035 295.398 313.055 296.307V296.465C313.095 297.236 313.193 298.205 313.312 299.074C313.45 299.964 313.588 300.834 313.805 301.703C314.2 303.423 314.773 305.063 315.542 306.506C317.102 309.412 319.391 311.567 322.431 312.575L323.576 312.95C323.951 313.069 324.346 313.089 324.721 313.168C325.491 313.385 326.221 313.306 326.971 313.365C328.432 313.266 329.833 312.911 331.195 312.16C332.557 311.448 333.84 310.4 335.005 309.135C335.577 308.503 336.15 307.831 336.663 307.119C337.196 306.427 337.709 305.617 338.104 304.965L338.222 304.767C338.795 303.858 339.999 303.561 340.907 304.134C341.677 304.629 341.993 305.538 341.736 306.368Z" fill="#000072"/>
<path d="M327.169 287.808C327.169 291.623 322.195 294.983 317.615 297.256C312.838 299.648 307.489 299.628 302.732 297.236C298.172 294.944 293.218 291.564 293.218 287.749C293.238 276.245 327.189 276.304 327.169 287.808Z" fill="#000072"/>
<g opacity="0.5">
<path d="M316.924 285.535C316.924 286.642 314.95 287.61 313.135 288.262C311.24 288.954 309.128 288.954 307.233 288.243C305.417 287.571 303.462 286.602 303.462 285.495C303.462 282.194 316.924 282.214 316.924 285.535Z" fill="white"/>
</g>
<path d="M166.908 297.355C166.256 296.979 165.506 296.584 164.796 296.208C164.085 295.813 163.335 295.457 162.585 295.101C161.855 294.726 161.105 294.39 160.335 294.074C159.565 293.757 158.835 293.382 158.065 293.085C155.005 291.84 151.926 290.634 148.787 289.646C142.51 287.63 136.095 285.989 129.562 284.981C127.943 284.685 126.285 284.566 124.647 284.329L122.179 284.013C121.35 283.914 120.521 283.894 119.712 283.835C118.054 283.736 116.416 283.617 114.757 283.499L109.783 283.439C106.467 283.301 103.151 283.696 99.8348 283.775L98.5912 283.835L97.3477 283.973L94.8606 284.25L89.8863 284.764L89.7679 284.783C88.8204 284.882 87.9716 284.191 87.873 283.242C87.7743 282.332 88.4059 281.522 89.2744 281.364L94.3276 280.435L96.8542 279.98L98.1175 279.763L99.4005 279.625C101.098 279.427 102.815 279.269 104.533 279.111C105.381 279.051 106.25 278.913 107.099 278.893L109.685 278.814C111.402 278.775 113.119 278.696 114.856 278.676L120.028 278.873C120.896 278.913 121.745 278.933 122.614 279.012L125.18 279.289C126.897 279.486 128.614 279.605 130.312 279.901L135.424 280.771C137.122 281.107 138.8 281.522 140.477 281.917C142.175 282.273 143.813 282.827 145.471 283.301C147.129 283.775 148.768 284.368 150.386 284.961C156.9 287.353 163.118 290.318 168.862 294.548C169.632 295.101 169.79 296.189 169.237 296.959C168.704 297.671 167.737 297.869 166.987 297.434L166.908 297.355Z" fill="#000072"/>
<path d="M171.27 323.169C168.447 322.833 165.486 322.596 162.585 322.477C159.663 322.359 156.742 322.3 153.84 322.379C148.017 322.517 142.214 322.991 136.529 324.098C133.687 324.652 130.884 325.324 128.121 326.174C126.739 326.569 125.397 327.083 124.035 327.557C122.712 328.091 121.35 328.585 120.047 329.218C114.777 331.53 109.882 334.653 105.401 338.33L105.381 338.35C104.651 338.962 103.565 338.844 102.953 338.112C102.381 337.421 102.44 336.412 103.072 335.8C107.434 331.451 112.507 327.755 118.054 325.007C120.817 323.624 123.679 322.418 126.62 321.45C129.542 320.461 132.522 319.651 135.542 319.058C141.583 317.832 147.721 317.279 153.84 317.398C159.979 317.516 166 318.188 172.02 319.769C172.948 320.007 173.481 320.955 173.244 321.884C173.027 322.734 172.217 323.268 171.369 323.169H171.27Z" fill="#000072"/>
<path d="M453.991 294.528C459.735 290.318 465.953 287.353 472.467 284.942C474.086 284.349 475.724 283.756 477.382 283.282C479.04 282.807 480.698 282.254 482.376 281.898C484.054 281.503 485.732 281.087 487.429 280.751L492.542 279.882C494.239 279.585 495.976 279.467 497.674 279.269L500.24 278.992C501.089 278.913 501.957 278.913 502.826 278.854L507.997 278.656C509.715 278.676 511.452 278.755 513.169 278.795L515.755 278.874C516.623 278.893 517.472 279.012 518.321 279.091C520.038 279.249 521.736 279.407 523.453 279.605L524.736 279.743L525.999 279.961L528.526 280.415L533.579 281.344C534.507 281.522 535.138 282.412 534.961 283.341C534.803 284.23 533.974 284.843 533.105 284.744L532.987 284.724L528.013 284.211L525.525 283.934L524.282 283.795L523.038 283.736C519.702 283.657 516.406 283.262 513.09 283.4L508.116 283.459C506.458 283.578 504.819 283.697 503.161 283.795C502.332 283.855 501.503 283.874 500.694 283.973L498.226 284.29C496.588 284.527 494.93 284.626 493.311 284.942C486.778 285.95 480.363 287.59 474.086 289.607C470.927 290.595 467.868 291.801 464.808 293.046C464.039 293.362 463.308 293.718 462.538 294.034C461.769 294.35 461.038 294.706 460.288 295.062C459.538 295.418 458.808 295.774 458.077 296.169C457.347 296.545 456.617 296.94 455.965 297.315L455.867 297.375C455.038 297.849 453.991 297.572 453.518 296.742C453.083 296.011 453.301 295.042 453.991 294.528Z" fill="#000072"/>
<path d="M450.873 319.809C456.893 318.228 462.933 317.556 469.052 317.437C475.171 317.318 481.31 317.872 487.35 319.097C490.37 319.69 493.351 320.501 496.272 321.489C499.213 322.438 502.075 323.644 504.839 325.047C510.386 327.794 515.478 331.491 519.821 335.839C520.492 336.511 520.492 337.598 519.821 338.271C519.189 338.903 518.182 338.943 517.511 338.389L517.472 338.369C512.991 334.673 508.096 331.57 502.826 329.257C501.523 328.625 500.181 328.15 498.838 327.597C497.476 327.142 496.134 326.628 494.752 326.213C492.009 325.344 489.186 324.671 486.343 324.138C480.659 323.031 474.855 322.556 469.032 322.418C466.111 322.359 463.209 322.398 460.288 322.517C457.386 322.636 454.406 322.873 451.603 323.209L451.504 323.229C450.557 323.347 449.708 322.675 449.59 321.726C449.491 320.817 450.044 320.026 450.873 319.809Z" fill="#000072"/>
<g opacity="0.15">
<path d="M154.452 403.933C152.36 429.412 134.832 450.996 126.936 459.535C134.24 444.493 140.793 429.471 141.958 415.457C142.51 408.796 141.839 402.372 139.451 396.284C138.187 393.062 136.154 390.295 133.647 388.081C129.344 384.286 123.679 382.171 118.271 382.408C107.493 382.863 97.7225 392.627 101.67 416.979C107.197 451.174 70.0682 461.868 56.4286 432.555C55.8167 431.25 55.2837 429.886 54.7705 428.443C61.6397 433.602 78.7928 442.457 88.2873 431.882C101.67 416.979 83.4512 392.133 101.019 373.81C114.402 359.835 157.176 370.884 154.452 403.933Z" fill="#000072"/>
</g>
<path d="M127.568 370.351C127.232 370.706 122.89 369.58 123.008 370.054C123.521 372.13 124.449 376.34 123.284 382.843C123.265 382.843 123.245 382.843 123.225 382.843C122.89 382.764 122.574 382.704 122.258 382.665C121.982 382.606 121.686 382.586 121.409 382.546C121.192 382.527 120.955 382.487 120.718 382.487C120.521 382.467 120.304 382.448 120.087 382.448C119.475 382.408 118.883 382.408 118.271 382.448C107.493 382.902 97.7225 392.667 101.67 416.999C107.197 451.194 70.0682 461.887 56.4286 432.574C55.8167 431.27 55.2837 429.906 54.7705 428.463C61.6397 433.622 78.7928 442.477 88.2873 431.902C101.67 416.999 83.4315 392.133 100.999 373.83C106.585 367.999 117.284 366.536 127.667 369.204C127.805 369.698 127.805 370.113 127.568 370.351Z" fill="#686868"/>
<path d="M123.285 382.843C121.607 382.487 119.929 382.329 118.251 382.408C107.474 382.863 97.7029 392.627 101.651 416.959C107.178 451.154 70.0485 461.848 56.4089 432.535C55.797 431.23 55.2641 429.866 54.7508 428.423C54.5929 427.929 54.4153 427.415 54.2574 426.901C45.7301 399.585 56.0536 352.304 98.1766 342.401C100.111 341.927 102.105 341.571 104.197 341.275C107.039 340.879 109.842 340.642 112.586 340.563C115.369 342.303 122.317 349.082 124.232 356.178C124.469 357.048 120.028 355.348 120.383 356.277C121.548 359.42 129.029 368.809 127.568 370.331C127.232 370.687 122.89 369.56 123.008 370.034C123.521 372.13 124.469 376.32 123.285 382.843Z" fill="white"/>
<g opacity="0.15">
<path d="M127.568 370.351C127.232 370.706 122.89 369.58 123.008 370.054C123.521 372.13 124.449 376.34 123.284 382.843C123.265 382.843 123.245 382.843 123.225 382.843C122.89 382.784 122.574 382.704 122.258 382.665C121.982 382.606 121.686 382.586 121.409 382.546C121.192 382.527 120.955 382.487 120.718 382.487C120.501 382.467 120.284 382.448 120.087 382.448C119.475 382.408 118.883 382.408 118.271 382.448C107.493 382.902 97.7225 392.667 101.67 416.999C107.197 451.194 70.0682 461.887 56.4286 432.574C55.8167 431.27 55.2837 429.906 54.7705 428.463C61.6397 433.622 78.7928 442.477 88.2873 431.902C101.67 416.999 83.4315 392.133 100.999 373.83C106.585 367.999 117.284 366.536 127.667 369.204C127.805 369.698 127.805 370.113 127.568 370.351Z" fill="#000072"/>
</g>
<path d="M173.974 560.994C157.117 560.994 141.326 555.203 129.147 543.758C109.428 525.238 104.868 496.656 117.481 470.94C118.271 469.319 119.08 467.699 119.889 466.078C131.733 442.121 143.971 417.335 136.233 397.549C133.055 389.405 123.245 384.167 115.27 386.361C106.23 388.832 102.4 400.079 105.045 416.445C108.243 436.172 98.2947 448.486 87.0238 451.965C75.9502 455.365 61.2447 451.135 53.2701 434.017C44.9205 416.07 46.5786 389.702 57.3166 369.916C64.1463 357.325 77.7267 341.552 103.703 337.895C126.66 334.653 147.919 341.848 162.012 357.602C177.251 374.64 182.166 399.348 175.514 425.399C173.816 432.08 170.638 440.402 167.282 449.217C159.367 469.991 149.517 495.826 155.952 509.247C157.946 513.378 163.512 516.817 170.125 517.983C180.843 519.881 192.134 515.948 201.095 507.211C202.457 505.887 204.648 505.906 205.971 507.27C207.293 508.634 207.274 510.828 205.912 512.152C195.332 522.47 181.85 527.076 168.921 524.783C160.038 523.221 152.695 518.398 149.735 512.231C141.997 496.142 152.004 469.893 160.828 446.747C164.104 438.129 167.223 429.985 168.822 423.68C174.882 399.901 170.52 377.486 156.86 362.187C144.326 348.173 125.298 341.789 104.651 344.694C81.5561 347.956 69.4758 361.97 63.3962 373.177C52.52 393.24 53.2109 417.493 59.5471 431.072C65.7649 444.434 76.8187 447.853 85.0301 445.343C92.827 442.951 100.979 434.215 98.275 417.532C93.4389 387.607 108.677 380.985 113.474 379.68C124.844 376.577 138.207 383.594 142.668 395.019C151.511 417.651 138.582 443.821 126.067 469.122C125.258 470.743 124.469 472.363 123.679 473.984C112.25 497.269 116.158 522.075 133.884 538.718C153.88 557.496 184.988 559.196 213.156 543.027C214.814 542.078 216.906 542.651 217.854 544.312C218.801 545.972 218.229 548.067 216.571 549.016C202.595 557.021 187.929 560.994 173.974 560.994Z" fill="#000072"/>
<path d="M485.415 540.003C485.337 555.144 479.533 566.331 472.309 574.376C461.808 586.097 446.609 592.541 430.896 592.541H191.996C176.264 592.541 161.084 586.097 150.583 574.376C143.359 566.311 137.575 555.144 137.477 540.003C137.477 538.975 137.477 537.967 137.536 536.979C138.74 507.33 159.999 505.294 173.145 514.05C173.54 514.307 173.915 514.564 174.29 514.841L175.375 513.121C184.061 498.751 195.095 496.597 205.319 499.285C221.269 503.475 235.224 519.486 235.224 519.486H387.668C387.668 519.486 400.538 504.72 415.678 499.838C426.416 496.379 438.299 497.881 447.517 513.121L448.602 514.841C449.333 514.307 450.083 513.813 450.853 513.338C464.117 505.393 484.35 508.14 485.376 537.275C485.396 538.184 485.415 539.094 485.415 540.003Z" fill="#8E8FB3"/>
<g opacity="0.5">
<path d="M181.593 515.473C182.501 511.045 190.91 503.119 198.411 504.028C204.668 504.799 201.53 508.634 196.733 509.958C189.43 511.994 180.666 519.901 181.593 515.473Z" fill="white"/>
</g>
<g opacity="0.5">
<path d="M441.181 515.473C440.273 511.045 431.864 503.119 424.363 504.028C418.106 504.799 421.244 508.634 426.041 509.958C433.344 511.994 442.109 519.901 441.181 515.473Z" fill="white"/>
</g>
<g opacity="0.15">
<path d="M485.415 540.003C485.337 555.143 479.533 566.331 472.309 574.376C461.808 586.097 446.609 592.541 430.896 592.541H191.996C176.264 592.541 161.084 586.097 150.583 574.376C143.359 566.311 137.575 555.143 137.477 540.003C137.477 538.975 137.477 537.967 137.536 536.978L184.515 529.645C184.515 529.645 203.918 557.674 206.109 545.419C206.721 542.019 199.042 523.874 205.3 499.285C206.306 495.371 207.649 491.279 209.445 487.089C217.104 469.102 310.41 487.089 310.41 487.089C310.41 487.089 403.716 469.102 411.375 487.089C413.25 491.497 414.651 495.766 415.658 499.838C421.678 524.15 414.118 542.039 414.71 545.419C416.921 557.674 436.305 529.645 436.305 529.645L485.337 537.295C485.396 538.184 485.415 539.093 485.415 540.003Z" fill="#000072"/>
</g>
<path d="M485.416 540.003C485.337 555.144 479.534 566.331 472.309 574.376C461.808 586.097 446.609 592.541 430.897 592.541H191.996C176.264 592.541 161.085 586.097 150.584 574.376C143.359 566.311 137.576 555.144 137.477 540.003C137.319 507.488 159.545 505.017 173.145 514.05C187.338 526.957 187.278 542.217 194.799 549.332C216.255 569.593 243.831 555.717 247.226 519.486C247.739 514.05 247.699 508.1 247.008 501.696C241.738 452.162 311.614 475.407 311.614 475.407C311.614 475.407 381.49 452.162 376.2 501.696C375.529 508.1 375.489 514.05 375.983 519.486C379.378 555.737 406.953 569.593 428.41 549.332C436.088 542.078 435.891 526.424 450.873 513.358C464.493 505.175 485.574 508.338 485.416 540.003Z" fill="white"/>
<path d="M485.416 540.003C485.356 549.075 483.264 556.725 480.027 563.129C477.856 567.418 475.211 571.154 472.309 574.376C461.808 586.097 446.609 592.541 430.897 592.541H191.996C176.264 592.541 161.085 586.097 150.583 574.376C148.392 571.945 146.34 569.217 144.543 566.173C140.378 559.196 137.556 550.558 137.496 540.003C137.339 507.488 159.565 505.017 173.165 514.05C187.357 526.957 187.298 542.217 194.818 549.332C195.193 549.668 195.569 550.024 195.924 550.34H195.944C214.478 566.667 237.099 558.148 244.837 532.156C245.982 528.301 246.811 524.071 247.245 519.466C247.758 514.03 247.719 508.081 247.028 501.676C241.758 452.143 311.634 475.388 311.634 475.388C311.634 475.388 381.51 452.143 376.22 501.676C375.548 508.081 375.509 514.03 376.002 519.466C376.437 524.071 377.266 528.321 378.411 532.175C385.714 556.626 406.164 565.6 423.988 552.969C425.488 551.922 426.969 550.696 428.429 549.313C436.108 542.058 435.91 526.404 450.892 513.338C464.492 505.175 485.574 508.338 485.416 540.003Z" fill="white"/>
<g opacity="0.15">
<path d="M480.027 563.149C477.856 567.438 475.211 571.174 472.309 574.396C461.808 586.117 446.609 592.561 430.897 592.561H191.996C176.264 592.561 161.085 586.117 150.584 574.396C148.393 571.964 146.34 569.237 144.543 566.193C156.841 576.293 175.869 587.639 193.062 580.049C208.557 573.21 195.707 550.222 195.707 550.222C195.707 550.222 195.786 550.281 195.944 550.38H195.963C214.498 566.707 237.119 558.187 244.857 532.195C273.735 531.997 310.548 537.216 310.548 537.216C310.548 537.216 349.256 531.721 378.431 532.195C385.734 556.646 406.184 565.619 424.008 552.989C421.165 559.334 415.856 574.653 428.015 580.029C446.885 588.41 468.085 573.743 480.027 563.149Z" fill="#000072"/>
</g>
<path d="M426.949 547.988C429.061 546.012 430.442 543.165 431.627 540.121C432.791 537.058 433.838 533.816 435.081 530.574C436.325 527.333 437.766 524.091 439.621 520.988C441.457 517.885 443.687 514.979 446.253 512.33C447.576 510.966 449.767 510.927 451.129 512.251C452.491 513.576 452.53 515.77 451.208 517.133C451.149 517.193 451.07 517.272 451.01 517.331L450.951 517.371C448.622 519.407 446.51 521.699 444.674 524.269C442.819 526.819 441.259 529.645 439.818 532.63C438.377 535.595 437.075 538.698 435.575 541.841C434.785 543.403 433.976 544.984 432.93 546.506L432.14 547.632C431.844 547.988 431.528 548.344 431.212 548.7L430.738 549.234C430.581 549.411 430.383 549.55 430.206 549.728L429.1 550.676C428.39 551.289 427.304 551.21 426.672 550.499C426.06 549.787 426.12 548.739 426.791 548.127L426.949 547.988Z" fill="#000072"/>
<path d="M193.713 550.696L192.608 549.747C192.43 549.589 192.233 549.431 192.075 549.253L191.601 548.72C191.285 548.364 190.969 548.008 190.673 547.652L189.884 546.525C188.837 545.004 188.028 543.422 187.239 541.861C185.719 538.718 184.436 535.615 182.995 532.65C181.573 529.685 179.994 526.858 178.139 524.289C176.303 521.719 174.191 519.426 171.862 517.39L171.822 517.351C170.381 516.106 170.243 513.912 171.487 512.469C172.73 511.026 174.921 510.887 176.362 512.133C176.441 512.192 176.501 512.271 176.58 512.33C179.146 514.979 181.376 517.885 183.212 520.988C185.067 524.071 186.508 527.333 187.752 530.574C188.995 533.816 190.042 537.058 191.206 540.121C192.39 543.165 193.772 546.031 195.884 547.988L196.022 548.127C196.713 548.779 196.753 549.866 196.101 550.558C195.47 551.23 194.424 551.289 193.713 550.696Z" fill="#000072"/>
<path d="M430.897 596H191.996C175.04 596 159.012 588.963 148.018 576.689C138.819 566.43 134.121 554.096 134.042 540.023C133.944 520.019 141.78 511.836 148.373 508.476C155.736 504.74 165.151 505.412 173.224 510.057C179.166 500.827 186.706 495.727 195.628 494.956C214.104 493.335 232.185 511.164 236.744 516.046H386.129C390.708 511.184 408.789 493.335 427.245 494.956C436.147 495.727 443.668 500.807 449.649 510.057C457.722 505.412 467.138 504.74 474.5 508.476C481.093 511.836 488.949 520.019 488.831 540.023C488.752 554.096 484.054 566.43 474.856 576.689C463.881 588.963 447.833 596 430.897 596ZM158.775 512.983C156.17 512.983 153.663 513.516 151.492 514.623C144.504 518.161 140.852 526.938 140.931 539.983C140.991 552.317 145.096 563.109 153.15 572.083C162.842 582.895 177.014 589.102 192.016 589.102H430.917C445.918 589.102 460.071 582.895 469.783 572.083C477.816 563.109 481.942 552.317 482.001 539.983C482.06 526.938 478.409 518.161 471.441 514.623C465.519 511.619 457.169 512.825 450.695 517.628L447.695 519.842L444.635 514.959C439.72 506.835 433.7 502.428 426.712 501.815C409.283 500.273 390.471 521.541 390.274 521.759L389.248 522.925H387.688H233.665L232.639 521.739C232.461 521.522 213.63 500.273 196.22 501.795C189.233 502.408 183.212 506.816 178.317 514.9L175.198 519.802L172.237 517.608C168.112 514.584 163.276 512.983 158.775 512.983Z" fill="#000072"/>
<path d="M223.697 470.505C168.743 469.458 154.531 433.009 153.051 402.609C152.498 391.184 153.722 380.609 155.281 373.078L219.473 362.998C220.183 365.172 221.111 367.287 222.216 369.303C233.941 390.927 265.247 403.261 265.247 403.261C265.247 403.261 299.317 471.968 223.697 470.505Z" fill="#8E8FB3"/>
<g opacity="0.15">
<path d="M223.697 470.505C177.547 469.616 160.117 443.762 154.847 417.493C165.072 432.673 182.995 444.019 213.314 444.592C258.319 445.462 264.477 421.466 262.069 401.897C264.063 402.807 265.247 403.261 265.247 403.261C265.247 403.261 299.317 471.968 223.697 470.505Z" fill="#000072"/>
</g>
<path d="M222.216 369.303C216.63 380.866 206.958 390.058 195.529 396.027C182.462 402.846 167.145 405.475 153.051 402.609C152.498 391.184 153.722 380.609 155.281 373.078L219.473 362.998C219.966 364.5 220.558 365.982 221.229 367.406C221.565 368.038 221.881 368.671 222.216 369.303Z" fill="white"/>
<g opacity="0.15">
<path d="M222.216 369.303C216.63 380.866 206.958 390.058 195.529 396.027C195.509 396.047 195.47 396.047 195.45 396.067C187.772 399.486 175.415 399.427 171.98 392.192C169.316 386.559 204.964 373.177 221.229 367.406C221.565 368.038 221.881 368.671 222.216 369.303Z" fill="#000072"/>
</g>
<path d="M226.026 473.984C225.236 473.984 224.447 473.984 223.637 473.964C197.582 473.47 177.942 465.168 165.289 449.296C143.162 421.545 150.268 380.352 151.906 372.387C152.301 370.529 154.117 369.323 155.972 369.698C157.828 370.094 159.032 371.912 158.657 373.77C157.117 381.222 150.465 419.647 170.678 444.987C181.988 459.179 199.852 466.611 223.776 467.066C244.64 467.481 258.496 462.441 265.01 452.143C274.801 436.666 265.839 413.203 262.977 406.602C254.312 405.831 223.677 400.514 216.117 363.709C215.742 361.851 216.926 360.013 218.801 359.637C220.657 359.262 222.493 360.448 222.868 362.326C230.487 399.367 263.629 399.842 265.227 399.842C265.227 399.842 265.227 399.842 265.247 399.842H267.379L268.346 401.759C268.998 403.083 284.315 434.531 270.833 455.839C263.214 467.876 248.133 473.984 226.026 473.984Z" fill="#000072"/>
<path d="M228.414 370.489C221.466 375.727 211.044 375.984 203.582 362.998C205.517 370.054 204.53 392.153 175.178 392.271C174.152 392.271 173.086 392.252 172 392.212L152.932 395.058C151.59 342.817 187.278 323.92 217.281 339.773C222.394 342.481 227.289 348.667 229.835 354.953C232.342 361.1 232.559 367.366 228.414 370.489Z" fill="white"/>
<g opacity="0.15">
<path d="M228.414 370.489C221.466 375.727 211.044 375.984 203.583 362.998C205.517 370.054 204.53 392.153 175.178 392.271C180.212 390.097 189.765 385.017 195.253 375.885C199.378 369.027 199.832 361.891 201.036 361.179C203.681 359.578 226.677 369.323 229.835 354.933C232.342 361.1 232.559 367.366 228.414 370.489Z" fill="#000072"/>
</g>
<path d="M149.498 395.138C149.32 387.725 149.853 380.254 151.373 372.881C152.932 365.548 155.557 358.294 159.683 351.791C163.808 345.327 169.434 339.595 176.362 335.879C183.251 332.123 191.226 330.463 198.983 330.977C202.872 331.214 206.701 331.965 210.373 333.131C211.281 333.448 212.208 333.744 213.097 334.08L215.761 335.187L218.347 336.452C218.762 336.65 219.235 336.907 219.709 337.184C220.183 337.44 220.617 337.757 221.051 338.033C224.486 340.445 227.111 343.469 229.322 346.731C231.493 350.012 233.25 353.57 234.296 357.543C234.79 359.539 235.125 361.634 235.027 363.887C234.908 366.121 234.375 368.612 232.836 370.786C232.48 371.339 232.026 371.814 231.572 372.288C231.335 372.525 231.079 372.723 230.842 372.94L230.467 373.257L230.131 373.494L228.809 374.403L227.407 375.194C225.493 376.182 223.381 376.874 221.17 377.19C216.748 377.823 212.011 376.498 208.576 373.948C205.063 371.458 202.517 368.157 200.562 364.757L206.879 362.128C207.274 363.433 207.51 364.639 207.649 365.884C207.787 367.109 207.846 368.315 207.807 369.541C207.767 371.972 207.353 374.383 206.662 376.755C205.951 379.107 204.885 381.4 203.503 383.476C202.102 385.551 200.385 387.409 198.431 388.951C196.476 390.473 194.325 391.679 192.114 392.608C189.884 393.497 187.594 394.09 185.324 394.446C180.744 395.118 176.224 394.92 171.901 393.971C170.954 393.754 170.362 392.825 170.579 391.876C170.737 391.145 171.349 390.611 172.04 390.512H172.059C176.224 389.939 180.251 389.326 183.982 388.259C187.712 387.172 191.167 385.63 193.831 383.278C196.516 380.985 198.431 377.961 199.477 374.541C200.01 372.841 200.345 371.023 200.464 369.205C200.582 367.406 200.523 365.489 200.227 363.947L200.187 363.808C199.753 361.95 200.918 360.112 202.753 359.677C204.273 359.321 205.793 360.033 206.524 361.338C208.122 364.164 210.156 366.635 212.524 368.315C213.097 368.789 213.728 369.046 214.34 369.422C214.992 369.659 215.603 369.975 216.255 370.114C217.558 370.45 218.9 370.588 220.262 370.371C221.604 370.173 222.946 369.738 224.229 369.086L225.177 368.552L226.085 367.939L226.302 367.781L226.44 367.663C226.539 367.584 226.638 367.505 226.717 367.426C226.874 367.228 227.052 367.09 227.171 366.872C227.743 366.101 228.059 364.935 228.118 363.611C228.157 362.267 227.98 360.784 227.585 359.282C226.815 356.297 225.355 353.293 223.558 350.605C221.762 347.916 219.532 345.465 217.084 343.746C216.768 343.548 216.472 343.331 216.156 343.153C215.86 342.975 215.544 342.797 215.149 342.619L212.899 341.532L210.59 340.583C209.82 340.287 209.011 340.05 208.241 339.773C205.083 338.765 201.806 338.132 198.529 337.935C191.956 337.52 185.344 338.903 179.6 342.026C173.816 345.11 169.039 349.952 165.447 355.566C161.854 361.219 159.505 367.702 158.064 374.403C156.683 381.123 156.169 388.081 156.327 395.039V395.059C156.367 396.956 154.867 398.537 152.972 398.597C151.116 398.537 149.537 397.035 149.498 395.138Z" fill="#000072"/>
<path d="M407.447 550.953C418.046 524.071 409.835 476.929 402.65 426.585H218.189C211.004 476.929 202.793 524.091 213.393 550.953" fill="#8E8FB3"/>
<g opacity="0.15">
<path d="M406.242 550.953C416.842 524.071 408.631 476.929 401.446 426.585H216.985C209.8 476.929 201.589 524.091 212.189 550.953" fill="#000072"/>
</g>
<path d="M405.848 550.321C408.414 540.477 409.125 530.317 409.125 520.059L408.967 512.35C408.829 509.78 408.75 507.211 408.572 504.621C408.375 502.052 408.217 499.462 407.98 496.893L407.25 489.145C406.164 478.827 404.762 468.489 403.361 458.151L401.249 442.615C400.558 437.437 399.847 432.238 399.216 427.04L402.631 430.005H218.19L221.604 427.04C220.973 432.238 220.262 437.437 219.571 442.615L217.459 458.151C216.058 468.489 214.637 478.827 213.551 489.145C212.446 499.462 211.695 509.78 211.636 520.059C211.597 530.317 212.288 540.517 214.992 550.321L215.031 550.439C215.288 551.348 214.755 552.297 213.827 552.554C212.998 552.791 212.13 552.356 211.794 551.566C211.261 550.321 210.709 549.095 210.195 547.83C209.939 547.198 209.643 546.585 209.445 545.932L208.853 543.995C208.478 542.691 208.044 541.406 207.728 540.101L206.899 536.148L206.504 534.172L206.228 532.175L205.695 528.183C205.438 525.514 205.261 522.846 205.083 520.177C205.043 517.509 204.945 514.86 204.964 512.192C205.024 509.543 205.063 506.875 205.182 504.246C205.32 501.597 205.438 498.949 205.616 496.32C205.813 493.691 205.991 491.062 206.248 488.433C207.195 477.917 208.537 467.501 210.018 457.124C210.748 451.925 211.518 446.746 212.347 441.587C213.156 436.409 213.946 431.25 214.814 426.091L215.248 423.126H218.229H402.69H405.67L406.105 426.091C406.973 431.25 407.763 436.409 408.572 441.587C409.381 446.746 410.171 451.925 410.901 457.124C412.382 467.501 413.744 477.917 414.691 488.433L415.343 496.32C415.52 498.949 415.639 501.597 415.777 504.246C415.895 506.895 415.915 509.543 415.994 512.212C416.033 514.86 415.935 517.548 415.895 520.197C415.737 522.865 415.599 525.534 415.303 528.202L414.79 532.195L414.513 534.191L414.099 536.188C413.842 537.512 413.546 538.836 413.25 540.141C412.915 541.446 412.5 542.75 412.105 544.035L411.493 545.972C411.296 546.624 410.98 547.237 410.724 547.87C410.191 549.135 409.638 550.36 409.085 551.586C408.69 552.455 407.684 552.851 406.815 552.455C406.045 552.099 405.651 551.25 405.848 550.439V550.321Z" fill="#000072"/>
<path d="M403.4 397.588C403.4 397.588 484.271 496.517 398.347 510.176L403.4 397.588Z" fill="#8E8FB3"/>
<path d="M394.715 514.248L400.361 388.437L406.065 395.414C407.96 397.727 452.175 452.4 438.832 487.504C433.522 501.439 420.1 510.215 398.9 513.595L394.715 514.248ZM406.401 407.333L401.979 506.025C418.126 502.685 428.351 495.648 432.377 485.073C441.615 460.741 417.81 423.225 406.401 407.333Z" fill="#000072"/>
<path d="M342.289 592.561H278.69C251.766 592.561 228.73 573.17 224.111 546.585L204.471 433.345L202.675 415.773C200.819 397.509 215.13 381.617 233.468 381.617H387.333C405.73 381.617 420.06 397.569 418.126 415.892L416.033 435.737L396.847 546.565C392.248 573.15 369.213 592.561 342.289 592.561Z" fill="#00BDFF"/>
<g opacity="0.4">
<path d="M418.145 415.892L418.066 416.584C416.152 401.482 403.262 389.524 387.352 389.524H373.042C367.811 389.524 363.567 393.774 363.567 399.012V416.584H335.399V399.012C335.399 393.774 331.156 389.524 325.925 389.524H268.307C262.898 389.524 258.536 393.912 258.536 399.308V416.584H243.258V399.308C243.258 393.892 238.876 389.524 233.487 389.524C217.578 389.524 204.688 401.482 202.773 416.584L202.694 415.773C200.839 397.49 215.15 381.617 233.487 381.617H387.352C405.749 381.617 420.08 397.588 418.145 415.892Z" fill="white"/>
</g>
<path d="M342.288 596H278.689C250.008 596 225.631 575.463 220.716 547.158L201.076 433.918C201.056 433.839 201.056 433.76 201.036 433.681L199.24 416.109C198.253 406.424 201.431 396.739 207.945 389.524C214.459 382.309 223.756 378.158 233.467 378.158H387.333C397.064 378.158 406.4 382.309 412.914 389.563C419.428 396.818 422.586 406.543 421.54 416.228L419.448 436.073C419.448 436.152 419.428 436.231 419.408 436.29L400.222 547.119C395.347 575.463 370.969 596 342.288 596ZM207.885 432.871L227.506 545.992C231.849 570.976 253.364 589.102 278.689 589.102H342.288C367.613 589.102 389.148 570.957 393.471 545.972L412.638 435.263L414.73 415.536C415.559 407.788 413.033 400 407.822 394.208C402.61 388.417 395.149 385.077 387.372 385.077H233.487C225.71 385.077 218.268 388.397 213.077 394.169C207.866 399.941 205.339 407.689 206.129 415.437L207.885 432.871Z" fill="#000072"/>
<path d="M416.053 435.737L414.494 444.79L411.316 463.093L403.42 508.654L400.222 527.135L393.827 564.058C390.984 580.523 376.713 592.541 360.014 592.541H260.984C244.284 592.541 230.013 580.523 227.171 564.058L225.374 553.641L222.947 539.548L221.663 532.195L217.617 508.871L216.393 501.894L204.945 435.737C201.964 420.339 213.748 406.048 229.421 406.048H391.596C402.038 406.048 410.743 412.413 414.533 421.209C415.303 423.027 415.875 424.945 416.191 426.921C416.645 429.748 416.625 432.713 416.053 435.737Z" fill="#00BDFF"/>
<g opacity="0.15">
<path d="M411.316 463.093L403.42 508.654L400.222 527.135L393.827 564.058C390.985 580.523 376.713 592.541 360.014 592.541H260.984C244.285 592.541 230.013 580.523 227.171 564.058L217.617 508.891C229.836 534.745 255.713 563.564 310.43 563.603H310.489C351.941 563.584 376.851 547.039 391.794 527.768C373.831 527.352 362.837 514.821 367.732 479.38C370.555 458.962 401.979 461.828 411.316 463.093Z" fill="#000072"/>
</g>
<g opacity="0.4">
<path d="M416.053 435.737L414.493 444.79L225.374 553.661L222.946 539.568L416.191 426.921C416.645 429.748 416.625 432.713 416.053 435.737Z" fill="white"/>
</g>
<g opacity="0.4">
<path d="M414.513 421.209L221.663 532.215L217.617 508.891L216.393 501.914L380.819 406.068H391.576C402.018 406.048 410.743 412.413 414.513 421.209Z" fill="white"/>
</g>
<path d="M360.014 596H260.983C242.567 596 226.914 582.816 223.775 564.651L201.549 436.33C199.951 428.048 202.122 419.489 207.53 412.927C212.939 406.364 220.913 402.609 229.401 402.609H391.577C400.064 402.609 408.039 406.364 413.447 412.927C418.856 419.489 421.027 428.048 419.428 436.389L397.222 564.651C394.083 582.816 378.43 596 360.014 596ZM229.401 409.507C222.966 409.507 216.926 412.354 212.84 417.315C208.754 422.276 207.096 428.759 208.32 435.084L230.546 563.465C233.112 578.329 245.903 589.102 260.964 589.102H359.994C375.055 589.102 387.846 578.329 390.412 563.465L412.638 435.144C413.862 428.759 412.223 422.276 408.138 417.315C404.052 412.354 398.011 409.507 391.577 409.507H229.401Z" fill="#000072"/>
<path d="M418.994 495.114C414.77 503.218 407.763 509.089 398.347 510.196C376.615 512.726 364.278 500.392 372.173 469.557C374.345 461.037 380.405 455.641 387.254 452.222C399.393 446.134 414.02 446.272 414.02 446.272C425.291 460.504 426.278 481.14 418.994 495.114Z" fill="white"/>
<g opacity="0.15">
<path d="M418.994 495.114C414.77 503.218 407.763 509.089 398.347 510.195C376.615 512.726 364.278 500.392 372.173 469.556C374.345 461.037 380.405 455.641 387.254 452.222C382.793 462.836 378.411 479.084 385.458 492.465C391.754 504.424 408.473 503.653 418.994 495.114Z" fill="#000072"/>
</g>
<path d="M413.981 449.711C404.091 450.067 393.472 452.242 385.418 457.42C381.411 460.029 378.253 463.548 376.575 467.758C376.378 468.292 376.18 468.825 376.003 469.359C375.845 469.912 375.687 470.426 375.549 471.079C375.253 472.324 374.937 473.569 374.7 474.834C374.187 477.344 373.772 479.855 373.575 482.345C373.141 487.307 373.397 492.307 375.036 496.537C375.825 498.652 377.029 500.49 378.51 502.012C380.03 503.515 381.885 504.681 383.977 505.491C388.182 507.092 393.195 507.389 398.13 506.954C399.216 506.835 400.558 506.578 401.802 506.321C403.065 506.064 404.348 505.808 405.631 505.531C406.894 505.254 408.177 504.938 409.421 504.622L411.237 504.127C411.829 503.969 412.401 503.772 412.777 503.613L412.994 503.534C414.415 502.981 416.014 503.673 416.566 505.096C417.08 506.42 416.487 507.922 415.244 508.555C414.395 508.99 413.724 509.227 413.053 509.484C412.382 509.741 411.711 509.958 411.059 510.176C409.737 510.591 408.434 510.986 407.111 511.362C405.789 511.737 404.486 512.093 403.144 512.409C401.782 512.726 400.499 513.022 398.959 513.279C396.117 513.674 393.274 513.931 390.333 513.773C387.412 513.635 384.412 513.101 381.51 512.054C378.608 511.006 375.825 509.286 373.535 507.033C371.285 504.76 369.509 502.012 368.403 499.127C366.153 493.335 365.956 487.346 366.37 481.713C366.587 478.866 367.022 476.099 367.555 473.371C367.811 472.008 368.127 470.644 368.463 469.3C368.62 468.647 368.818 467.896 369.055 467.165C369.292 466.434 369.548 465.702 369.825 464.991C370.989 462.144 372.647 459.476 374.641 457.183C376.654 454.87 378.983 452.933 381.451 451.313C386.405 448.071 391.853 446.094 397.321 444.79C400.065 444.137 402.828 443.643 405.592 443.307C406.973 443.129 408.375 443.011 409.756 442.912C411.178 442.833 412.5 442.754 414.04 442.774C415.935 442.793 417.474 444.335 417.455 446.233C417.435 448.091 415.974 449.593 414.139 449.652L413.981 449.711Z" fill="#000072"/>
<path d="M391.162 470.545C389.188 470.861 387.096 471.415 385.161 472.106C383.207 472.798 381.332 473.648 379.674 474.696C377.996 475.743 376.536 476.989 375.43 478.372C374.897 479.084 374.443 479.815 374.068 480.566C373.713 481.337 373.476 482.128 373.298 482.938V482.958C372.884 484.816 371.048 486.002 369.173 485.587C367.317 485.172 366.133 483.334 366.548 481.456C366.587 481.317 366.627 481.159 366.666 481.021C367.14 479.736 367.732 478.491 368.462 477.344C369.212 476.218 370.061 475.17 371.009 474.261C372.904 472.442 375.055 471.098 377.266 470.11C379.477 469.102 381.747 468.43 384.017 467.936C386.306 467.461 388.537 467.165 390.925 467.086C391.873 467.066 392.662 467.797 392.702 468.766C392.721 469.636 392.09 470.387 391.261 470.525L391.162 470.545Z" fill="#000072"/>
<path d="M393.471 499.996C391.162 500.767 388.971 501.202 386.622 501.459C384.293 501.696 381.885 501.676 379.437 501.241C377.009 500.787 374.522 499.897 372.331 498.395C370.12 496.913 368.304 494.817 366.962 492.544L366.942 492.525C365.975 490.884 366.528 488.749 368.186 487.801C369.844 486.852 371.956 487.385 372.903 489.046C372.982 489.164 373.042 489.323 373.101 489.441C373.772 491.022 374.7 492.465 375.963 493.612C377.226 494.778 378.825 495.628 380.621 496.241C382.418 496.814 384.391 497.11 386.425 497.189C388.418 497.249 390.57 497.091 392.465 496.735L392.583 496.715C393.511 496.537 394.419 497.15 394.597 498.079C394.794 498.889 394.281 499.72 393.471 499.996Z" fill="#000072"/>
<path d="M220.124 436.211L223.262 453.961C224.269 459.673 229.243 463.844 235.046 463.844C242.468 463.844 248.094 457.163 246.831 449.85L243.791 432.1C242.804 426.348 237.83 422.138 232.007 422.138H231.908C224.447 422.138 218.821 428.878 220.124 436.211Z" fill="#000072"/>
<path d="M235.027 467.303C227.545 467.303 221.17 461.947 219.847 454.574L216.709 436.824C215.919 432.317 217.143 427.732 220.064 424.213C223.006 420.715 227.309 418.698 231.868 418.698H231.967C239.488 418.698 245.883 424.095 247.146 431.527L250.186 449.277C250.956 453.763 249.712 458.349 246.771 461.828C243.889 465.287 239.586 467.303 235.027 467.303ZM223.519 435.598L226.657 453.348C227.388 457.42 230.901 460.385 235.046 460.385C237.553 460.385 239.942 459.278 241.56 457.361C243.179 455.444 243.87 452.914 243.435 450.423L240.396 432.673C239.685 428.562 236.152 425.577 232.006 425.577H231.908C229.381 425.577 227.013 426.684 225.374 428.621C223.756 430.578 223.065 433.108 223.519 435.598Z" fill="#000072"/>
<path d="M231.632 439.433C235.295 439.433 238.264 436.46 238.264 432.792C238.264 429.124 235.295 426.15 231.632 426.15C227.969 426.15 225 429.124 225 432.792C225 436.46 227.969 439.433 231.632 439.433Z" fill="#000072"/>
<path d="M233.414 433.249C233.647 432.261 233.036 431.271 232.049 431.038C231.062 430.804 230.074 431.416 229.841 432.404C229.608 433.392 230.219 434.382 231.205 434.616C232.192 434.849 233.181 434.237 233.414 433.249Z" fill="#000072"/>
<path d="M231.632 441.173C227.013 441.173 223.262 437.417 223.262 432.792C223.262 428.166 227.013 424.411 231.632 424.411C236.25 424.411 240.001 428.166 240.001 432.792C240.001 437.417 236.25 441.173 231.632 441.173ZM231.632 427.87C228.927 427.87 226.717 430.084 226.717 432.792C226.717 435.5 228.927 437.713 231.632 437.713C234.336 437.713 236.547 435.5 236.547 432.792C236.547 430.084 234.356 427.87 231.632 427.87Z" fill="#61619B"/>
<path d="M241.647 453.243C242.234 449.622 239.779 446.211 236.163 445.623C232.547 445.035 229.141 447.494 228.554 451.115C227.967 454.735 230.422 458.147 234.038 458.734C237.654 459.322 241.06 456.863 241.647 453.243Z" fill="#000072"/>
<path d="M235.086 460.543C230.467 460.543 226.717 456.788 226.717 452.163C226.717 447.537 230.467 443.782 235.086 443.782C239.705 443.782 243.455 447.537 243.455 452.163C243.436 456.788 239.685 460.543 235.086 460.543ZM235.086 447.261C232.382 447.261 230.171 449.474 230.171 452.182C230.171 454.89 232.382 457.104 235.086 457.104C237.79 457.104 240.001 454.89 240.001 452.182C240.001 449.455 237.79 447.261 235.086 447.261Z" fill="#61619B"/>
<path d="M266.478 273.679C267.758 256.227 258.378 241.313 245.527 240.368C232.677 239.422 221.221 252.804 219.941 270.256C218.66 287.707 228.04 302.621 240.891 303.567C253.742 304.512 265.197 291.131 266.478 273.679Z" fill="#000072"/>
<path d="M259.433 267.185C259.942 260.25 256.856 254.37 252.539 254.053C248.223 253.735 244.312 259.1 243.803 266.035C243.294 272.97 246.381 278.849 250.697 279.167C255.013 279.484 258.925 274.12 259.433 267.185Z" fill="white"/>
<g opacity="0.35">
<path d="M235.774 291.849C237.795 291.09 238.171 287.102 236.612 282.942C235.054 278.782 232.153 276.025 230.132 276.784C228.111 277.543 227.735 281.531 229.294 285.691C230.852 289.851 233.753 292.608 235.774 291.849Z" fill="white"/>
</g>
<path d="M379.48 303.552C392.331 302.607 401.711 287.693 400.431 270.241C399.151 252.789 387.695 239.408 374.844 240.353C361.993 241.299 352.614 256.212 353.894 273.664C355.174 291.116 366.63 304.497 379.48 303.552Z" fill="#000072"/>
<path d="M369.676 279.174C373.992 278.856 377.078 272.977 376.57 266.042C376.061 259.107 372.149 253.742 367.833 254.06C363.517 254.377 360.431 260.257 360.939 267.192C361.448 274.127 365.359 279.491 369.676 279.174Z" fill="white"/>
<g opacity="0.35">
<path d="M391.09 285.668C392.649 281.508 392.273 277.52 390.252 276.761C388.231 276.002 385.33 278.759 383.772 282.919C382.213 287.079 382.589 291.067 384.61 291.826C386.631 292.585 389.532 289.828 391.09 285.668Z" fill="white"/>
</g>
<path d="M164.158 565.985C169.535 565.089 172.915 558.479 171.709 551.221C170.502 543.963 165.166 538.806 159.789 539.703C154.412 540.599 151.032 547.209 152.238 554.467C153.445 561.724 158.781 566.881 164.158 565.985Z" fill="#FF9499"/>
<path d="M171.628 533.87C171.688 531.414 170.262 529.388 168.442 529.343C166.622 529.298 165.098 531.253 165.038 533.708C164.977 536.163 166.404 538.19 168.224 538.235C170.044 538.28 171.568 536.325 171.628 533.87Z" fill="#FF9499"/>
<path d="M158.145 537.26C160.686 537.034 162.499 534.065 162.194 530.629C161.89 527.193 159.583 524.591 157.042 524.816C154.501 525.042 152.688 528.011 152.993 531.447C153.297 534.883 155.604 537.486 158.145 537.26Z" fill="#FF9499"/>
<path d="M150.891 543.31C152.662 542.803 153.545 540.452 152.862 538.059C152.179 535.666 150.189 534.137 148.417 534.644C146.646 535.151 145.764 537.502 146.447 539.895C147.13 542.288 149.119 543.817 150.891 543.31Z" fill="#FF9499"/>
<path d="M470.392 554.455C471.599 547.197 468.218 540.587 462.842 539.691C457.465 538.795 452.128 543.952 450.922 551.209C449.715 558.467 453.096 565.077 458.473 565.973C463.849 566.87 469.186 561.713 470.392 554.455Z" fill="#FF9499"/>
<path d="M454.436 538.243C456.256 538.198 457.683 536.171 457.622 533.716C457.562 531.26 456.038 529.306 454.218 529.351C452.398 529.395 450.972 531.422 451.032 533.878C451.092 536.333 452.616 538.287 454.436 538.243Z" fill="#FF9499"/>
<path d="M469.682 531.424C469.986 527.987 468.174 525.019 465.633 524.793C463.091 524.567 460.785 527.169 460.48 530.605C460.175 534.042 461.988 537.01 464.529 537.236C467.07 537.462 469.377 534.86 469.682 531.424Z" fill="#FF9499"/>
<path d="M476.202 539.895C476.885 537.502 476.003 535.151 474.232 534.644C472.46 534.137 470.471 535.666 469.788 538.059C469.104 540.452 469.987 542.803 471.758 543.31C473.53 543.817 475.519 542.288 476.202 539.895Z" fill="#FF9499"/>
</g>
<defs>
<clipPath id="clip0_243_4445">
<rect width="487" height="512" fill="white" transform="translate(48 84)"/>
</clipPath>
</defs>
</svg>
