<svg width="626" height="656" viewBox="0 0 626 656" fill="none" xmlns="http://www.w3.org/2000/svg">
<ellipse cx="313" cy="345.5" rx="313" ry="299.5" fill="#B0A2D7"/>
<path d="M423.739 384.987L299.387 385.496L180.692 385.983C140.632 359.845 126.834 324.683 149.838 276.838C129.694 243.16 116.292 211.168 122.116 183.973C123.431 177.896 128.859 173.221 135.581 172.429C181.777 166.961 213.382 180.416 213.382 180.416L358.567 172.957C358.567 172.957 390.11 153.445 436.64 152.286C439.604 152.205 442.422 152.957 444.865 154.339C444.865 154.339 444.865 154.339 444.865 154.36C447.996 156.128 450.459 158.973 451.691 162.469C461.481 190.376 452.964 226.249 438.039 264.907C467.911 312.021 459.498 351.309 423.739 384.987Z" fill="white"/>
<path d="M444.134 275.415C442.318 271.94 440.314 268.444 438.06 264.887C453.006 226.229 461.502 190.355 451.712 162.449C451.691 162.368 451.649 162.307 451.628 162.225C447.349 158.262 442.61 154.969 437.559 152.266C437.266 152.266 436.974 152.246 436.661 152.266C390.131 153.425 358.589 172.937 358.589 172.937L333.685 174.217C303.938 206.005 300.848 251.981 327.777 280.09C356.355 309.927 407.874 308.362 442.861 276.594C443.299 276.208 443.717 275.801 444.134 275.415Z" fill="#FFAD40"/>
<path d="M367.898 168.12L359.715 168.445C358.359 173.059 357.691 177.774 357.064 181.209C355.874 187.733 354.121 194.38 349.946 199.623C345.771 204.847 338.632 208.343 332.077 206.595C328.82 205.721 325.94 203.628 324.186 200.823C322.349 197.896 321.806 194.461 321.326 191.026C321.138 189.725 320.971 188.445 320.742 187.185C320.116 183.648 318.717 179.888 316.087 177.571C315.252 176.839 314.312 176.25 313.206 175.864C308.968 174.359 304.23 176.433 300.806 179.278C297.383 182.124 294.648 185.762 290.953 188.262C287.237 190.762 281.935 191.88 278.345 189.217C275.568 187.185 274.358 183.323 271.581 181.534C271.205 181.27 270.788 181.087 270.329 180.924C269.723 180.721 269.097 180.599 268.492 180.599C265.423 180.579 262.438 183.018 260.538 185.599C256.781 190.701 256.05 196.941 254.965 203.14C250.372 229.156 226.992 238.302 217.181 202.327C215.386 195.741 214.029 187.611 213.34 177.815L195.179 175.071C167.039 163.608 164.743 128.953 195.179 118.628C185.388 111.393 178.792 84.4823 215.845 76.8198C205.7 66.576 206.514 43.6088 235.05 39.4218C276.57 43.8933 281.351 23.8935 298.74 4.56445C306.672 10.479 310.096 17.0643 310.096 24.1578V24.1984C310.075 29.0561 308.467 34.1577 305.587 39.4218C334.457 39.0966 339.049 61.637 330.72 73.3239C368.546 75.1125 366.479 102.694 358.004 111.372C389.817 116.779 393.804 152.408 367.898 168.12Z" fill="#FC3AF3"/>
<g opacity="0.6">
<path d="M305.357 10.8042C289.931 29.1577 283.626 46.9624 244.214 42.7145C215.657 46.9014 214.864 69.8687 225.009 80.1125C187.977 87.7953 194.574 114.706 204.343 121.921C176.058 131.514 176.037 162.124 198.77 175.599L195.242 175.071C167.102 163.608 164.806 128.953 195.242 118.628C185.451 111.393 178.855 84.4824 215.908 76.8198C205.763 66.576 206.577 43.6088 235.113 39.4218C276.633 43.8933 281.414 23.8935 298.803 4.56445C301.475 6.57663 303.646 8.64977 305.357 10.8042Z" fill="white"/>
</g>
<path d="M423.739 388.687C422.737 388.687 421.756 388.3 421.005 387.548C419.543 386.085 419.585 383.727 421.088 382.304C457.703 347.813 462.191 310.029 434.803 266.818C434.177 265.842 434.072 264.643 434.49 263.566C452.129 217.896 456.325 187.083 448.1 163.648C446.451 158.933 441.9 155.864 436.744 155.965C391.926 157.083 360.926 175.863 360.613 176.067C358.839 177.164 356.48 176.656 355.374 174.928C354.246 173.201 354.768 170.924 356.543 169.827C357.858 169.014 389.504 149.746 436.556 148.587C445.053 148.404 452.568 153.486 455.302 161.29C464.049 186.168 460.02 218.058 442.255 264.521C470.291 309.907 464.967 351.329 426.369 387.67C425.639 388.341 424.699 388.687 423.739 388.687Z" fill="#000072"/>
<path d="M433.613 177.896C433.613 177.896 415.035 175.681 397.938 192.225C394.995 195.071 394.431 199.522 396.644 202.936L417.06 234.318C418.75 236.94 422.758 236.737 424.178 233.973C433.196 216.473 437.35 197.997 433.613 177.896Z" fill="#FF5C9E"/>
<g opacity="0.3">
<path d="M403.72 213.18L418.249 235.497C417.811 235.192 417.394 234.806 417.08 234.318L396.644 202.936C394.431 199.522 394.995 195.071 397.938 192.225C415.035 175.701 433.593 177.896 433.593 177.896C434.24 181.372 434.657 184.827 434.845 188.201C428.019 188.831 416.183 191.615 404.994 202.449C402.071 205.314 401.508 209.766 403.72 213.18Z" fill="#000072"/>
</g>
<path d="M142.177 195.721C142.177 195.721 160.255 191.067 179.46 203.953C182.779 206.168 183.948 210.213 182.215 213.688L166.371 245.619C165.056 248.282 161.069 248.668 159.295 246.29C147.939 231.351 141.259 214.827 142.177 195.721Z" fill="#FF5C9E"/>
<g opacity="0.3">
<path d="M164.284 247.509C162.593 248.2 160.464 247.834 159.274 246.289C147.939 231.351 141.238 214.847 142.177 195.701C142.177 195.701 160.255 191.046 179.46 203.953C181.443 205.274 182.654 207.245 182.946 209.359C175.869 206.026 169.273 204.806 164.075 204.501C157.708 204.115 152.531 209.44 153.137 215.619C154.264 227.143 158.251 237.672 164.284 247.509Z" fill="#000072"/>
</g>
<path d="M420.524 239.359C417.998 239.359 415.702 238.139 414.324 236.025L393.909 204.644C390.861 199.949 391.571 193.932 395.641 189.989C413.656 172.571 433.175 174.664 434.01 174.766C435.429 174.928 436.577 175.985 436.828 177.347C440.439 196.676 437.266 215.68 427.121 235.416C425.931 237.753 423.614 239.216 420.921 239.359C420.775 239.359 420.65 239.359 420.524 239.359ZM430.837 180.965C425.576 181.026 412.613 182.51 400.255 194.481C398.376 196.31 398.021 199.095 399.42 201.249L419.835 232.631C420.044 232.956 420.357 233.017 420.587 232.997C420.796 232.977 421.109 232.895 421.276 232.55C430.315 214.948 433.446 198.058 430.837 180.965Z" fill="#000072"/>
<path d="M180.692 389.682C179.961 389.682 179.23 389.479 178.583 389.052C135.247 360.78 124.162 323.098 145.58 277.041C121.574 236.534 113.203 207.53 118.401 183.221C120.05 175.559 126.771 169.746 135.142 168.75C181.84 163.221 213.591 176.453 214.927 177.022C216.847 177.835 217.724 180.03 216.889 181.9C216.054 183.77 213.799 184.623 211.879 183.81C211.566 183.689 180.566 170.823 136.061 176.107C130.926 176.717 126.834 180.172 125.853 184.725C120.989 207.448 129.402 235.294 153.137 274.968C153.763 276.025 153.825 277.305 153.304 278.403C132.303 322.061 141.968 356.227 182.821 382.894C184.574 384.032 185.034 386.329 183.865 388.036C183.113 389.113 181.923 389.682 180.692 389.682Z" fill="#000072"/>
<path d="M162.551 251.025C160.192 251.025 158.042 249.989 156.664 248.18C143.847 231.269 138.044 214.074 138.921 195.579C138.983 194.197 139.964 193.018 141.342 192.652C142.135 192.449 161.09 187.774 181.318 201.351C185.952 204.461 187.559 210.233 185.159 215.07L169.315 247.001C168.187 249.277 165.933 250.761 163.282 251.005C163.031 251.025 162.781 251.025 162.551 251.025ZM145.35 198.384C145.162 214.42 150.59 229.481 161.904 244.399C162.113 244.684 162.509 244.684 162.676 244.664C162.802 244.643 163.261 244.582 163.428 244.216L179.272 212.286C180.274 210.253 179.585 207.896 177.602 206.554C163.845 197.327 150.59 197.733 145.35 198.384Z" fill="#000072"/>
<path d="M237.743 228.363C237.451 228.363 237.138 228.363 236.845 228.342C221.669 227.469 211.482 206.148 209.603 171.311C209.499 169.258 211.106 167.53 213.215 167.408C215.323 167.286 217.098 168.872 217.223 170.924C219.31 209.623 230.833 220.558 237.305 220.944C243.504 221.269 249.349 213.546 251.291 202.509C251.395 201.879 251.5 201.249 251.625 200.619C252.627 194.766 253.65 188.729 257.532 183.445C260.643 179.237 265.987 175.437 271.707 177.428C275.026 178.587 276.842 181.229 278.303 183.343C279.117 184.522 279.89 185.64 280.725 186.249C282.791 187.774 286.382 186.879 288.866 185.193C290.724 183.932 292.373 182.266 294.126 180.497C295.462 179.136 296.861 177.733 298.427 176.432C303.624 172.124 309.678 170.599 314.605 172.367C319.719 174.197 323.268 179.237 324.562 186.534C324.771 187.672 324.917 188.81 325.084 189.969C325.543 193.302 325.982 196.453 327.505 198.871C328.758 200.883 330.825 202.387 333.142 203.018C338.423 204.42 344.018 201.066 346.982 197.347C350.76 192.611 352.326 186.188 353.349 180.558C353.474 179.867 353.599 179.115 353.745 178.323C354.914 171.473 356.689 161.148 362.805 154.746C364.245 153.242 366.646 153.16 368.191 154.563C369.736 155.965 369.819 158.303 368.379 159.807C363.828 164.563 362.346 173.221 361.26 179.542C361.114 180.355 360.989 181.148 360.864 181.859C359.674 188.384 357.816 195.883 353.015 201.9C348.401 207.692 339.843 212.489 331.138 210.172C326.963 209.054 323.268 206.351 321.013 202.733C318.675 198.993 318.091 194.725 317.569 190.965C317.423 189.908 317.277 188.851 317.089 187.814C316.713 185.68 315.44 180.579 311.995 179.339C309.261 178.363 305.754 180.111 303.374 182.083C302.101 183.14 300.89 184.359 299.616 185.66C297.696 187.611 295.692 189.644 293.229 191.31C288.49 194.522 281.372 196.026 276.153 192.184C274.316 190.823 273.084 189.054 272.02 187.51C270.997 186.046 270.12 184.766 269.16 184.44C267.636 183.912 265.235 185.762 263.753 187.794C260.893 191.656 260.058 196.615 259.161 201.859C259.056 202.509 258.931 203.16 258.827 203.81C256.155 218.607 247.763 228.363 237.743 228.363Z" fill="#000072"/>
<path d="M195.221 178.77C194.741 178.77 194.24 178.668 193.76 178.485C178.542 172.286 169.002 159.075 169.461 144.807C169.837 132.937 176.934 122.937 188.75 117.246C184.971 112.043 182.612 104.34 184.387 96.596C185.785 90.4781 190.942 79.9904 209.499 74.5637C206.034 68.5271 205.178 60.9866 207.475 54.3809C209.479 48.6086 215.658 38.5071 234.529 35.7429C234.863 35.7023 235.197 35.6819 235.51 35.7226C266.927 39.1169 275.256 28.304 286.8 13.3244C289.597 9.68626 292.498 5.92614 295.922 2.12537C297.237 0.661967 299.512 0.438387 301.099 1.63756C313.436 10.8448 316.901 22.3691 311.453 35.9665C326.316 37.4299 332.766 45.0924 335.376 49.8891C338.737 56.0679 339.133 63.6288 336.712 70.1328C355.917 72.5718 362.743 82.1246 365.123 87.9375C368.17 95.3155 367.106 103.283 364.225 109.015C376.938 112.836 385.684 121.84 388.085 133.852C390.945 148.14 383.806 162.835 369.903 171.27C368.108 172.347 365.77 171.819 364.663 170.091C363.557 168.364 364.1 166.067 365.874 164.99C377.084 158.201 382.866 146.534 380.612 135.274C378.503 124.726 369.819 117.145 357.378 115.031C356 114.787 354.852 113.832 354.414 112.551C353.975 111.25 354.309 109.828 355.27 108.832C358.797 105.214 360.801 97.4496 358.025 90.7017C354.622 82.4498 345.124 77.714 330.554 77.0433C329.176 76.9823 327.944 76.1897 327.318 74.9905C326.713 73.7913 326.817 72.3482 327.61 71.2304C331.263 66.1085 331.66 58.9337 328.633 53.3647C325.022 46.7591 317.089 43.1412 306.213 43.1412C306.025 43.1412 305.838 43.1412 305.65 43.1412C304.293 43.1412 303.061 42.4908 302.351 41.3729C301.663 40.2551 301.6 38.873 302.247 37.7144C308.53 26.1698 307.633 17.4301 299.22 9.80821C296.966 12.4911 294.899 15.174 292.874 17.7959C281.372 32.7348 270.496 46.8404 235.176 43.1615C224.404 44.8485 217.14 49.6859 214.676 56.7793C212.589 62.7548 214.196 69.767 218.622 74.2588C219.582 75.2344 219.937 76.6368 219.519 77.9173C219.123 79.1978 218.016 80.1734 216.68 80.4579C202.402 83.405 193.801 89.5635 191.818 98.2423C190.19 105.315 193.447 112.673 197.538 115.701C198.644 116.535 199.208 117.876 198.999 119.238C198.791 120.579 197.809 121.718 196.494 122.165C184.658 126.169 177.394 134.746 177.081 145.091C176.726 156.27 184.429 166.697 196.724 171.697C198.665 172.489 199.584 174.664 198.77 176.554C198.143 177.916 196.724 178.77 195.221 178.77Z" fill="#000072"/>
<path d="M215.887 73.1003L264.087 75.58C264.797 75.6206 265.319 76.1897 265.298 76.8808C265.256 77.5109 264.734 78.019 264.087 78.0596L215.887 80.5393C213.778 80.6409 211.983 79.0759 211.879 77.0231C211.774 74.9702 213.382 73.2223 215.49 73.1207C215.615 73.1003 215.762 73.1003 215.887 73.1003Z" fill="#000072"/>
<path d="M331.221 77.0027L299.763 78.0393C299.053 78.0596 298.468 77.5311 298.447 76.8401C298.427 76.2303 298.865 75.7019 299.47 75.5799L330.345 69.6451C332.411 69.2386 334.415 70.5597 334.833 72.5718C335.25 74.584 333.893 76.5352 331.827 76.9417C331.618 76.962 331.409 76.9824 331.221 77.0027Z" fill="#000072"/>
<path d="M194.845 114.929H196.243L197.329 114.95L199.5 115.01L203.821 115.153L212.442 115.458L229.664 116.088L264.087 117.389C264.797 117.409 265.34 117.998 265.298 118.669C265.277 119.319 264.734 119.828 264.066 119.848L229.643 121.006L212.442 121.616L203.842 121.941L199.542 122.104L197.412 122.206L196.348 122.246L195.596 122.287L195.116 122.327C193.029 122.47 191.213 120.925 191.066 118.872C190.92 116.84 192.507 115.051 194.615 114.929C194.699 114.929 194.782 114.929 194.845 114.929Z" fill="#000072"/>
<path d="M358.442 115.051L301.913 117.917C301.203 117.958 300.618 117.429 300.577 116.738C300.535 116.088 301.015 115.539 301.662 115.458L357.712 107.673C359.799 107.389 361.72 108.791 362.012 110.824C362.304 112.856 360.864 114.726 358.776 115.01C358.672 115.031 358.547 115.031 358.442 115.051Z" fill="#000072"/>
<g opacity="0.6">
<path d="M306.255 340.11C304.084 341.289 301.579 341.98 298.886 341.98C289.909 341.98 282.937 334.338 284.023 325.638L286.235 307.874C290.223 304.053 294.21 302.082 298.239 301.919C296.402 302.895 294.585 304.277 292.748 306.025L290.536 323.789C289.45 332.488 296.422 340.13 305.399 340.13C305.691 340.13 305.983 340.13 306.255 340.11Z" fill="white"/>
</g>
<g opacity="0.3">
<path d="M268.575 180.599C265.507 180.579 262.522 183.018 260.622 185.599C256.865 190.701 256.134 196.94 255.048 203.14C250.456 229.156 227.076 238.302 217.265 202.327C217.724 202.57 218.183 202.855 218.642 203.16C235.76 214.664 237.117 193.526 242.022 182.936C246.886 172.347 257.47 175.782 268.575 180.599Z" fill="#000072"/>
</g>
<g opacity="0.3">
<path d="M316.129 177.55C315.294 176.819 314.354 176.229 313.248 175.843C309.01 174.339 304.272 176.412 300.848 179.258C297.425 182.103 294.69 185.741 290.995 188.241C287.279 190.741 281.977 191.859 278.387 189.197C275.61 187.164 274.399 183.302 271.623 181.514C281.33 183.221 289.471 172.774 299.324 166.758C305.837 162.835 311.974 169.847 316.129 177.55Z" fill="#000072"/>
</g>
<g opacity="0.3">
<path d="M367.899 168.12L359.716 168.445C358.359 173.059 357.691 177.774 357.065 181.209C355.875 187.733 354.121 194.38 349.946 199.623C345.771 204.847 338.632 208.343 332.077 206.595C328.821 205.721 325.94 203.627 324.187 200.823C322.35 197.896 321.807 194.461 321.327 191.026C322.579 197.713 336.545 198.566 336.545 185.863C336.545 173.16 342.515 164.156 342.515 164.156C365.081 129.218 330.72 114.035 330.72 114.035L309.804 116.697H293.96C320.492 114.949 314.375 81.779 275.381 75.0718C310.513 75.0718 310.513 47.8769 275.381 47.8769C303.061 45.9054 309.365 26.7796 310.096 24.178C310.075 29.0357 308.468 34.1372 305.587 39.4014C334.457 39.0762 339.05 61.6166 330.72 73.3035C368.546 75.0921 366.479 102.673 358.004 111.352C389.818 116.779 393.805 152.408 367.899 168.12Z" fill="#000072"/>
</g>
<g opacity="0.35">
<path d="M245.237 138.567C245.237 143.831 236.741 144.563 226.262 144.563C215.783 144.563 207.287 143.831 207.287 138.567C207.287 133.303 215.783 129.035 226.262 129.035C236.741 129.035 245.237 133.303 245.237 138.567Z" fill="white"/>
</g>
<g opacity="0.35">
<path d="M265.903 91.9822C265.903 97.2464 257.407 97.9781 246.928 97.9781C236.449 97.9781 227.953 97.2464 227.953 91.9822C227.953 86.718 236.449 86.6367 246.928 86.6367C257.407 86.6367 265.903 86.718 265.903 91.9822Z" fill="white"/>
</g>
<g opacity="0.35">
<path d="M261.123 142.978C265.239 142.978 268.576 140.211 268.576 136.799C268.576 133.386 265.239 130.62 261.123 130.62C257.007 130.62 253.671 133.386 253.671 136.799C253.671 140.211 257.007 142.978 261.123 142.978Z" fill="white"/>
</g>
<g opacity="0.3">
<path d="M127.565 179.847C127.565 179.847 196.223 174.197 197.768 219.725C202.485 202.875 208.414 190.477 217.244 188.668C217.244 188.668 214.551 180.782 201.859 178.201C189.167 175.62 137.71 160.437 127.565 179.847Z" fill="#000072"/>
</g>
<g opacity="0.3">
<path d="M354.205 192.042C354.205 192.042 366.75 203.892 377.981 192.042C389.212 180.193 385.225 161.738 429.083 152.266C429.083 152.266 386.31 154.116 358.776 172.103C358.776 172.103 361.594 185.193 354.205 192.042Z" fill="#000072"/>
</g>
<g opacity="0.3">
<path d="M423.739 384.987L299.387 385.496C368.399 378.097 406.35 346.533 397.437 278.484C396.831 273.85 399.169 269.359 403.323 267.021C457.327 236.798 445.053 155.539 444.865 154.339C447.996 156.108 450.459 158.953 451.691 162.449C461.481 190.355 452.964 226.229 438.038 264.887C467.911 312.021 459.498 351.309 423.739 384.987Z" fill="#000072"/>
</g>
<g opacity="0.3">
<path d="M248.598 218.302C248.598 218.302 268.221 230.66 271.623 213.018C275.047 195.375 283.021 205.64 292.081 201.046C301.141 196.432 303.165 185.152 309.574 187.977C316.004 190.802 322.976 201.737 322.976 201.737C322.976 201.737 320.638 176.189 313.248 175.863C305.858 175.538 299.366 180.579 299.366 180.579C299.366 180.579 284.315 196.249 278.387 189.217C272.458 182.185 266.989 178.424 261.958 183.993C256.927 189.563 254.485 204.644 254.485 204.644C254.485 204.644 254.13 214.522 248.598 218.302Z" fill="#000072"/>
</g>
<path d="M463.402 420.028L455.24 458.036L422.007 612.81C412.05 665.737 192.424 665.046 180.838 612.81L139.443 420.028H463.402Z" fill="#FFB133"/>
<g opacity="0.3">
<path d="M291.392 652.078C349.403 652.363 407.624 639.314 412.634 612.648L445.867 457.873L453.987 420.028H463.423H149.943C151.884 426.776 156.999 431.918 164.2 431.776C189.48 431.247 194.908 445.007 194.908 445.007C217.473 482.852 256.343 494.499 280.808 477.568C305.274 460.637 307.716 445.536 321.577 444.479C335.438 443.422 342.515 474.905 366.145 452.954C375.205 444.54 384.265 441.979 392.009 442.04L360.947 586.713C354.309 622.038 254.318 633.481 185.055 621.652C200.836 642.404 253.775 652.668 305.649 652.241C300.911 652.282 296.13 652.221 291.392 652.078Z" fill="#000072"/>
</g>
<g opacity="0.6">
<path d="M308.823 652.2C249.057 653.176 186.871 639.965 180.838 612.81L139.443 420.028H151.884L193.279 612.81C198.895 638.074 253.149 651.265 308.823 652.2Z" fill="white"/>
</g>
<path d="M302.748 655.96C245.696 655.96 183.635 642.973 177.122 613.603L135.727 420.78C135.289 418.767 136.625 416.816 138.67 416.389C140.737 415.963 142.741 417.263 143.179 419.255L184.574 612.038C187.017 623.034 201.588 632.769 225.594 639.436C248.348 645.757 277.76 648.968 308.426 648.481C369.256 647.546 414.429 632.586 418.27 612.14L459.686 419.255C460.124 417.243 462.128 415.963 464.195 416.389C466.262 416.816 467.577 418.767 467.138 420.78L425.743 613.562C420.107 643.521 359.089 655.107 308.551 655.899C306.61 655.94 304.689 655.96 302.748 655.96Z" fill="#000072"/>
<path d="M187.309 385.557H413.866C420.796 385.557 427.601 384.032 433.968 381.349C465.886 367.935 495.863 390.231 475.823 415.231C469.831 422.711 461.168 427.772 451.628 429.784C449.666 430.19 447.558 430.556 445.324 430.8C442.068 431.166 439.02 432.751 437.037 435.292C424.783 450.901 404.889 449.784 379.526 436.715C379.526 436.715 355.875 418.727 332.223 440.678C308.572 462.649 301.516 431.146 287.655 432.202C273.794 433.259 271.352 448.341 246.886 465.292C222.421 482.222 183.552 470.576 160.986 432.731C160.986 432.731 155.558 418.971 130.279 419.499C105.897 420.007 105.458 359.764 170.547 382.691C175.911 384.601 181.589 385.557 187.309 385.557Z" fill="#FC3AF3"/>
<g opacity="0.3">
<path d="M475.822 415.251C469.831 422.731 461.168 427.771 451.649 429.804C449.687 430.21 447.579 430.576 445.324 430.841C442.068 431.206 439.02 432.792 437.037 435.332C424.783 450.942 404.868 449.824 379.526 436.755C379.526 436.755 355.875 418.768 332.223 440.719C308.572 462.69 301.516 431.186 287.655 432.243C273.794 433.3 271.352 448.381 246.886 465.332C222.421 482.263 183.552 470.617 160.986 432.771C160.986 432.771 155.558 419.011 130.279 419.54C119.194 419.763 113.057 407.446 115.791 396.064C118.38 399.256 122.117 401.288 126.646 401.186C151.926 400.658 157.354 414.418 157.354 414.418C179.919 452.263 218.789 463.909 243.254 446.979C267.72 430.048 270.162 414.946 284.023 413.89C297.884 412.833 304.961 444.316 328.591 422.365C352.243 400.394 375.894 418.402 375.894 418.402C401.257 431.471 421.151 432.568 433.404 416.979C435.388 414.438 438.435 412.853 441.692 412.487C443.925 412.223 446.034 411.877 447.996 411.451C457.536 409.438 466.178 404.377 472.19 396.898C474.883 393.544 476.657 390.231 477.659 387.061C483.797 394.174 484.465 404.459 475.822 415.251Z" fill="#000072"/>
</g>
<g opacity="0.6">
<path d="M481.229 393.097C472.482 385.272 456.304 382.508 439.604 389.52C433.237 392.182 426.432 393.727 419.502 393.727H192.945C187.246 393.727 181.547 392.772 176.183 390.882C129.423 374.418 116.501 400.841 121.949 416.857C106.919 405.536 114.079 362.813 170.546 382.711C175.911 384.601 181.589 385.557 187.309 385.557H413.865C420.796 385.557 427.601 384.012 433.968 381.349C455.636 372.264 476.407 379.601 481.229 393.097Z" fill="white"/>
</g>
<path d="M221.753 476.613C217.912 476.613 213.987 476.206 210.042 475.373C189.647 471.064 170.567 456.227 157.687 434.641C157.583 434.479 157.5 434.296 157.416 434.113C157.228 433.686 152.281 422.772 130.341 423.259C123.118 423.381 116.856 419.276 113.579 412.182C109.237 402.792 111.282 390.902 118.526 383.301C124.601 376.918 139.61 367.914 171.82 379.256C176.767 381.004 181.986 381.878 187.288 381.878H413.845C420.024 381.878 426.265 380.557 432.444 377.975C453.549 369.114 472.942 375.008 481.208 385.414C488.473 394.581 487.596 406.593 478.828 417.528C472.42 425.536 463.047 431.166 452.442 433.422C450.209 433.889 447.954 434.255 445.762 434.499C443.466 434.763 441.379 435.861 440.064 437.548C427.246 453.869 406.288 454.702 377.752 440.007C377.564 439.906 377.355 439.784 377.188 439.641C376.332 438.991 355.77 423.95 334.854 443.381C317.089 459.865 305.879 449.377 298.448 442.426C294.732 438.95 291.225 435.698 287.947 435.922C282.269 436.349 279.013 439.743 272.792 446.735C267.406 452.771 260.706 460.292 249.099 468.34C241.208 473.787 231.773 476.613 221.753 476.613ZM164.388 431.085C176.183 450.779 193.405 464.255 211.649 468.117C223.819 470.678 235.551 468.625 244.674 462.304C255.549 454.763 261.916 447.629 267.031 441.877C273.335 434.804 278.303 429.235 287.342 428.544C294.043 428.056 298.969 432.629 303.729 437.08C311.494 444.357 317.11 449.621 329.593 438.015C353.766 415.556 378.42 431.41 381.53 433.564C406.497 446.369 423.677 446.206 434.01 433.036C436.577 429.763 440.544 427.609 444.886 427.121C446.848 426.898 448.831 426.572 450.814 426.166C459.686 424.296 467.493 419.601 472.816 412.955C479.413 404.743 480.269 396.349 475.175 389.926C468.704 381.776 452.985 377.386 435.45 384.744C428.332 387.731 421.046 389.256 413.845 389.256H187.309C181.109 389.256 175.035 388.219 169.252 386.187C148.44 378.849 132.408 379.601 124.141 388.3C118.025 394.703 118.004 403.585 120.551 409.113C121.72 411.634 124.475 415.821 129.986 415.821C130.07 415.821 130.132 415.821 130.216 415.821C155.871 415.272 163.282 428.686 164.388 431.085Z" fill="#000072"/>
<path d="M443.946 413.016C444.239 415.455 444.28 417.812 444.155 420.211C444.03 422.609 443.717 425.007 443.174 427.406C442.673 429.804 441.859 432.182 440.815 434.499C439.813 436.837 438.373 439.032 436.766 441.166C435.513 442.832 433.112 443.178 431.421 441.958C429.71 440.739 429.355 438.402 430.607 436.755C430.733 436.593 430.879 436.43 431.025 436.288L431.171 436.166C432.632 434.804 434.094 433.32 435.263 431.572C436.452 429.845 437.517 427.975 438.331 425.963C439.166 423.971 439.876 421.857 440.377 419.703C440.878 417.568 441.254 415.292 441.4 413.158V413.077C441.441 412.386 442.047 411.877 442.736 411.918C443.383 411.959 443.884 412.426 443.946 413.016Z" fill="#000072"/>
<path d="M289.576 421.207C288.678 423.097 287.739 424.906 286.757 426.715C285.776 428.524 284.733 430.312 283.668 432.081C281.518 435.617 279.201 439.072 276.696 442.467C275.464 444.133 273.063 444.519 271.352 443.32C269.64 442.121 269.243 439.784 270.475 438.117C270.621 437.914 270.809 437.711 270.997 437.548C273.961 434.906 276.821 432.101 279.576 429.154C280.954 427.69 282.29 426.186 283.605 424.662C284.9 423.138 286.194 421.552 287.384 419.987L287.405 419.967C287.822 419.418 288.615 419.296 289.179 419.703C289.659 420.048 289.826 420.678 289.576 421.207Z" fill="#000072"/>
<path d="M156.185 402.833C156.122 405.678 156.435 408.707 156.936 411.573C157.437 414.479 158.147 417.325 159.107 420.089C160.067 422.853 161.174 425.536 162.551 428.097C163.846 430.678 165.474 433.076 167.144 435.393L167.227 435.515C168.438 437.202 168 439.519 166.267 440.698C164.535 441.877 162.155 441.45 160.944 439.763C160.861 439.641 160.756 439.479 160.673 439.337C159.149 436.45 157.729 433.544 156.686 430.515C155.558 427.507 154.765 424.418 154.16 421.308C153.554 418.199 153.22 415.069 153.116 411.938C153.012 408.788 153.116 405.719 153.638 402.528C153.742 401.857 154.389 401.39 155.078 401.491C155.704 401.593 156.164 402.121 156.143 402.731L156.185 402.833Z" fill="#000072"/>
<path d="M301.955 491.938C304.084 502.425 304.627 512.913 304.814 523.38C304.898 528.624 304.794 533.868 304.689 539.112C304.606 544.356 304.543 549.6 304.585 554.843C304.627 565.331 305.002 575.819 304.856 586.286C304.814 588.908 304.773 591.53 304.668 594.152C304.585 596.774 304.501 599.396 304.313 602.018C303.917 607.262 303.291 612.505 301.955 617.749C301.892 618.034 301.6 618.196 301.307 618.135C301.099 618.095 300.953 617.932 300.911 617.749C299.575 612.505 298.949 607.262 298.552 602.018C298.364 599.396 298.281 596.774 298.197 594.152C298.093 591.53 298.051 588.908 298.009 586.286C297.863 575.798 298.239 565.311 298.281 554.843C298.322 549.6 298.281 544.356 298.176 539.112C298.072 533.868 297.967 528.624 298.051 523.38C298.239 512.893 298.782 502.405 300.911 491.938C300.973 491.653 301.245 491.47 301.537 491.531C301.746 491.572 301.913 491.734 301.955 491.938Z" fill="#000072"/>
<path d="M224.884 490.129C228.391 500.068 230.291 510.23 231.877 520.413C232.649 525.514 233.234 530.636 233.818 535.758C234.424 540.88 235.05 546.002 235.802 551.104C237.221 561.327 238.975 571.49 240.206 581.733C240.519 584.294 240.812 586.855 241.062 589.416C241.333 591.977 241.605 594.538 241.751 597.119C242.043 602.282 242.127 607.465 241.48 612.749C241.438 613.034 241.187 613.237 240.874 613.217C240.665 613.197 240.498 613.054 240.436 612.892C238.432 607.953 237.117 602.932 236.031 597.871C235.488 595.351 235.071 592.79 234.633 590.25C234.194 587.709 233.798 585.168 233.422 582.607C231.877 572.404 230.875 562.14 229.539 551.917C228.892 546.795 228.14 541.693 227.368 536.612C226.575 531.51 225.782 526.429 225.176 521.307C223.986 511.063 223.13 500.779 223.861 490.291C223.882 490.007 224.132 489.783 224.425 489.803C224.633 489.783 224.821 489.925 224.884 490.129Z" fill="#000072"/>
<path d="M379.004 490.251C379.735 500.738 378.879 511.023 377.689 521.267C377.084 526.388 376.27 531.49 375.497 536.571C374.704 541.673 373.973 546.774 373.326 551.876C371.969 562.1 370.967 572.364 369.443 582.567C369.068 585.107 368.671 587.668 368.233 590.209C367.815 592.75 367.377 595.29 366.834 597.831C365.749 602.892 364.433 607.912 362.429 612.851C362.325 613.115 362.012 613.258 361.741 613.136C361.553 613.054 361.427 612.892 361.407 612.709C360.78 607.424 360.843 602.241 361.135 597.079C361.281 594.498 361.553 591.937 361.824 589.376C362.075 586.815 362.367 584.254 362.68 581.693C363.912 571.449 365.686 561.287 367.085 551.063C367.815 545.961 368.462 540.84 369.068 535.718C369.673 530.596 370.237 525.474 371.009 520.372C372.575 510.169 374.495 500.027 378.002 490.088C378.107 489.824 378.399 489.682 378.67 489.763C378.837 489.864 378.983 490.047 379.004 490.251Z" fill="#000072"/>
<path d="M321.932 308.403C321.66 314.622 318.383 319.256 313.665 322.224C305.691 327.285 293.625 327.65 285.15 323.24C280.036 320.598 276.236 316.187 275.401 310.049C282.019 310.496 290.223 308.24 295.713 303.85C297.299 302.59 299.575 302.508 301.245 303.647C307.027 307.63 315.377 309.297 321.932 308.403Z" fill="#000072"/>
<path d="M209.875 262.61C210.501 261.513 211.232 260.476 212.004 259.46C212.818 258.484 213.758 257.611 214.718 256.757C215.177 256.289 215.72 255.944 216.263 255.578C216.806 255.192 217.348 254.846 217.912 254.48C218.455 254.094 219.081 253.85 219.686 253.545C220.292 253.241 220.918 252.997 221.523 252.712C222.129 252.407 222.818 252.285 223.465 252.082C224.133 251.899 224.78 251.696 225.448 251.554C226.805 251.35 228.182 251.147 229.56 251.086C232.316 251.005 235.092 251.249 237.701 251.879C242.962 253.098 247.596 255.558 251.562 258.484C255.529 261.432 258.931 264.867 261.77 268.667C262.313 269.399 262.146 270.436 261.395 270.964C260.852 271.35 260.142 271.371 259.599 271.086L259.578 271.066C255.445 268.871 251.521 266.655 247.554 264.846C243.609 263.037 239.643 261.635 235.781 261.025C233.84 260.659 231.94 260.639 230.061 260.7C229.581 260.7 229.122 260.822 228.663 260.862C228.203 260.923 227.723 260.944 227.243 261.005C226.325 261.228 225.364 261.33 224.425 261.533C223.486 261.818 222.504 261.94 221.544 262.245C220.584 262.57 219.561 262.753 218.538 263.119C217.536 263.484 216.451 263.749 215.386 264.114C214.321 264.48 213.194 264.826 211.983 265.11L211.816 265.151C210.877 265.375 209.917 264.785 209.687 263.871C209.604 263.403 209.687 262.976 209.875 262.61Z" fill="#000072"/>
<path d="M381.822 259.074C380.591 258.891 379.443 258.606 378.357 258.322C377.272 258.037 376.165 257.854 375.142 257.55C374.119 257.265 373.076 257.143 372.095 256.899C371.113 256.655 370.111 256.615 369.172 256.391C368.212 256.249 367.252 256.208 366.312 256.045C365.832 256.025 365.373 256.025 364.893 256.005C364.413 255.985 363.953 255.903 363.473 255.944C361.594 256.025 359.695 256.188 357.795 256.676C353.975 257.57 350.155 259.237 346.335 261.33C342.515 263.423 338.757 265.903 334.812 268.383L334.791 268.403C333.998 268.891 332.954 268.667 332.453 267.915C332.098 267.367 332.098 266.675 332.432 266.167C334.979 262.163 338.11 258.505 341.868 255.293C345.604 252.102 350.03 249.318 355.186 247.733C357.753 246.92 360.488 246.493 363.264 246.371C364.642 246.35 366.041 246.432 367.398 246.554C368.087 246.655 368.755 246.798 369.423 246.94C370.091 247.102 370.779 247.184 371.406 247.428C372.053 247.651 372.679 247.875 373.305 248.119C373.932 248.383 374.579 248.586 375.142 248.932C375.727 249.257 376.311 249.562 376.854 249.907C377.418 250.253 377.981 250.558 378.482 250.985C379.505 251.777 380.507 252.59 381.384 253.505C382.24 254.46 383.054 255.436 383.743 256.493C384.265 257.285 384.035 258.363 383.221 258.871C382.845 259.115 382.407 259.196 381.989 259.135L381.822 259.074Z" fill="#000072"/>
<path d="M314.396 279.074C312.518 287.204 306.756 291.086 298.009 291.614V291.635C289.221 291.696 283.209 288.24 280.725 280.273C279.556 276.492 282.499 272.671 286.549 272.529L308.029 271.777C312.058 271.635 315.273 275.232 314.396 279.074Z" fill="#000072"/>
<path d="M266.655 298.342C266.488 299.968 266.53 301.512 267.01 302.712C267.511 303.89 268.221 304.764 269.327 305.374C271.519 306.675 274.776 307 277.969 306.777C281.184 306.553 284.441 305.862 287.488 304.683C289.012 304.094 290.474 303.403 291.81 302.569C292.144 302.346 292.478 302.142 292.791 301.919L293.897 301.106C295.191 300.191 296.736 299.683 298.302 299.622C299.867 299.561 301.454 299.947 302.811 300.781L303.98 301.512C304.314 301.716 304.669 301.899 305.003 302.102C306.401 302.854 307.925 303.443 309.47 303.911C312.58 304.866 315.899 305.334 319.114 305.334C322.308 305.334 325.544 304.764 327.631 303.321C328.696 302.63 329.343 301.716 329.76 300.496C330.157 299.277 330.073 297.712 329.781 296.106L329.76 296.025C329.614 295.151 330.22 294.297 331.117 294.155C331.848 294.033 332.537 294.399 332.871 294.988C333.831 296.716 334.562 298.769 334.415 301.106C334.311 303.423 333.142 305.862 331.389 307.468C329.635 309.094 327.589 310.13 325.544 310.781C323.498 311.451 321.41 311.777 319.365 311.898C315.252 312.122 311.202 311.472 307.361 310.232C305.441 309.602 303.562 308.768 301.767 307.773C301.329 307.508 300.869 307.264 300.431 306.98L299.304 306.248C299.116 306.126 298.844 306.045 298.573 306.045C298.302 306.065 298.051 306.167 297.863 306.309L296.778 307.142C296.36 307.447 295.922 307.732 295.504 308.016C293.772 309.134 291.977 310.09 290.098 310.862C286.361 312.386 282.374 313.301 278.241 313.382C276.174 313.423 274.087 313.24 271.978 312.711C269.891 312.203 267.762 311.309 265.904 309.805C264.025 308.321 262.689 305.964 262.418 303.667C262.125 301.35 262.689 299.256 263.503 297.468C263.879 296.655 264.86 296.289 265.695 296.655C266.363 296.939 266.739 297.61 266.676 298.281L266.655 298.342Z" fill="#000072"/>
<path d="M313.624 321.065C305.649 326.126 293.584 326.492 285.108 322.081C291.246 311.756 309.031 312.021 313.624 321.065Z" fill="#FF0000"/>
<path d="M301.245 289.683L301.725 302.712C301.788 304.48 300.368 305.984 298.552 306.045C296.736 306.106 295.191 304.724 295.129 302.956L294.648 289.927C294.586 288.159 296.005 286.655 297.821 286.594C299.638 286.533 301.161 287.915 301.245 289.683Z" fill="#000072"/>
<path d="M298.51 329.52C286.758 329.52 273.919 323.707 272.103 310.456C271.874 308.687 273.126 307.082 274.942 306.858C276.738 306.634 278.408 307.854 278.637 309.622C279.973 319.439 290.536 323.484 299.763 323.077C308.864 322.671 318.216 317.935 318.634 308.26C318.717 306.492 320.262 305.11 322.057 305.191C323.873 305.273 325.293 306.756 325.209 308.525C324.625 322.183 311.766 328.972 300.055 329.48C299.554 329.5 299.032 329.52 298.51 329.52Z" fill="#000072"/>
<path d="M286.361 337.711C288.783 338.362 291.037 339.012 293.25 339.398C295.463 339.805 297.613 339.988 299.763 339.907C301.913 339.825 304.063 339.48 306.276 338.911C308.488 338.362 310.701 337.549 313.081 336.756L313.123 336.736C314.02 336.431 314.981 336.898 315.294 337.752C315.502 338.341 315.356 338.951 314.96 339.378C313.165 341.37 310.91 342.996 308.384 344.215C305.837 345.415 302.998 346.187 300.055 346.309C297.133 346.451 294.189 345.943 291.538 344.906C288.887 343.87 286.507 342.366 284.628 340.415C283.981 339.744 284.002 338.707 284.691 338.057C285.129 337.65 285.756 337.508 286.319 337.65L286.361 337.711Z" fill="#000072"/>
<path d="M211.712 311.39C209.144 311.37 206.66 311.106 204.176 310.781C201.692 310.456 199.229 309.988 196.807 309.46C194.365 308.931 191.943 308.321 189.564 307.569C187.163 306.838 184.804 306.004 182.508 304.907C181.798 304.582 181.527 303.748 181.861 303.057C182.111 302.569 182.591 302.285 183.113 302.285C185.681 302.265 188.186 302.508 190.67 302.874C193.154 303.2 195.596 303.687 198.039 304.236C200.46 304.785 202.882 305.415 205.282 306.167C207.662 306.899 210.042 307.712 212.359 308.789C213.069 309.114 213.361 309.927 213.027 310.618C212.756 311.086 212.234 311.39 211.712 311.39Z" fill="#000072"/>
<path d="M212.985 323.362C210.835 324.846 208.56 326.086 206.263 327.203C203.967 328.362 201.608 329.378 199.229 330.313C196.849 331.248 194.427 332.142 191.964 332.894C189.501 333.667 187.017 334.358 184.428 334.805C183.656 334.947 182.925 334.439 182.8 333.707C182.696 333.159 182.946 332.63 183.384 332.325C185.555 330.882 187.831 329.663 190.127 328.525C192.423 327.366 194.761 326.35 197.141 325.374C199.521 324.419 201.921 323.525 204.385 322.752C206.848 321.98 209.332 321.289 211.941 320.882C212.714 320.76 213.444 321.268 213.57 322.021C213.653 322.549 213.424 323.057 212.985 323.362Z" fill="#000072"/>
<path d="M215.365 338.748C214.259 340.923 212.902 342.854 211.482 344.744C210.042 346.614 208.497 348.402 206.869 350.13C206.055 351.004 205.241 351.837 204.406 352.671C203.571 353.524 202.715 354.337 201.859 355.15C200.105 356.756 198.31 358.341 196.348 359.764C195.722 360.211 194.845 360.089 194.386 359.479C194.052 359.032 194.031 358.443 194.281 357.996C195.471 355.902 196.87 353.992 198.289 352.101C198.999 351.167 199.73 350.232 200.481 349.317C201.233 348.402 201.984 347.488 202.777 346.614C204.322 344.825 205.95 343.118 207.683 341.492C209.437 339.886 211.232 338.321 213.298 336.98C213.946 336.553 214.843 336.736 215.282 337.366C215.574 337.793 215.574 338.321 215.365 338.748Z" fill="#000072"/>
<path d="M384.745 302.691C386.978 301.472 389.275 300.476 391.613 299.582C393.93 298.667 396.309 297.874 398.689 297.163C401.069 296.452 403.491 295.801 405.933 295.293C408.375 294.765 410.859 294.338 413.427 294.175C414.199 294.134 414.867 294.704 414.93 295.456C414.972 295.984 414.679 296.472 414.241 296.736C412.028 297.996 409.732 298.992 407.394 299.886C405.077 300.801 402.697 301.573 400.317 302.285C397.917 302.976 395.516 303.606 393.053 304.114C390.611 304.622 388.127 305.069 385.58 305.273C384.807 305.334 384.118 304.764 384.077 304.012C383.993 303.443 384.286 302.935 384.745 302.691Z" fill="#000072"/>
<path d="M386.018 314.724C388.649 314.968 391.195 315.455 393.7 316.065C396.205 316.655 398.669 317.366 401.111 318.159C403.553 318.951 405.975 319.825 408.334 320.801C410.713 321.776 413.072 322.833 415.348 324.114C416.016 324.5 416.245 325.333 415.849 325.984C415.556 326.471 415.014 326.715 414.492 326.654C411.882 326.37 409.336 325.862 406.831 325.272C404.326 324.703 401.842 323.992 399.399 323.219C396.957 322.447 394.535 321.593 392.156 320.618C389.776 319.642 387.417 318.585 385.162 317.244C384.494 316.858 384.286 316.004 384.682 315.354C384.975 314.927 385.496 314.683 386.018 314.724Z" fill="#000072"/>
<path d="M385.851 330.882C388.022 332.061 389.922 333.504 391.801 334.988C393.638 336.492 395.391 338.098 397.082 339.764C397.917 340.597 398.752 341.431 399.566 342.305C400.401 343.158 401.194 344.032 401.967 344.927C403.532 346.715 405.056 348.545 406.392 350.536C406.81 351.166 406.643 352.02 405.996 352.427C405.515 352.731 404.931 352.711 404.472 352.447C402.405 351.166 400.505 349.723 398.627 348.24C397.708 347.488 396.79 346.736 395.892 345.943C394.994 345.171 394.097 344.378 393.241 343.565C391.508 341.959 389.817 340.293 388.252 338.504C386.707 336.715 385.183 334.886 383.931 332.793C383.534 332.122 383.764 331.289 384.432 330.902C384.891 330.638 385.434 330.638 385.851 330.882Z" fill="#000072"/>
</svg>
