<svg width="626" height="622" viewBox="0 0 626 622" fill="none" xmlns="http://www.w3.org/2000/svg">
<ellipse cx="313" cy="299.5" rx="313" ry="299.5" fill="#B0A2D7"/>
<path d="M255.085 562.766C246.912 569.638 186.339 604.281 134.7 571.979C59.4714 522.607 140.05 419.181 122.032 373.951C111.593 347.741 85.4207 350.156 67.3472 360.075C48.215 370.589 34.711 365.053 29.157 357.865C14.7057 336.801 40.2835 299.409 84.9563 297.013C120.676 295.1 145.139 314.975 156.712 345.698C181.862 412.42 110.163 498.905 148.111 536.166C167.485 555.187 205.527 549.132 224.064 535.646" fill="white"/>
<path d="M29.1761 357.883C34.73 365.072 48.234 370.607 67.3663 360.093C78.7899 353.815 93.4641 350.546 105.352 355.617C112.243 358.57 118.206 364.329 122.051 373.95C140.069 419.181 59.4905 522.588 134.719 571.979C186.339 604.28 246.931 569.638 255.104 562.765L224.084 535.664C205.546 549.15 167.504 555.205 148.13 536.184C110.182 498.923 181.881 412.438 156.731 345.716C152.013 333.197 145.158 322.461 136.261 314.288C123.333 302.4 106.132 295.898 84.9754 297.031C40.3025 299.428 14.7247 336.819 29.1761 357.883Z" fill="white"/>
<path d="M29.1761 357.883C34.73 365.072 48.234 370.607 67.3663 360.093C78.7899 353.815 93.4641 350.546 105.352 355.617C112.243 358.57 118.206 364.329 122.051 373.95C140.069 419.181 59.4905 522.588 134.719 571.979C186.339 604.28 246.931 569.638 255.104 562.765L224.084 535.664C205.546 549.15 167.504 555.205 148.13 536.184C110.182 498.923 181.881 412.438 156.731 345.716C152.013 333.197 145.158 322.461 136.261 314.288C123.333 302.4 106.132 295.898 84.9754 297.031C40.3025 299.428 14.7247 336.819 29.1761 357.883Z" fill="white"/>
<path d="M25.1265 344.676C25.1636 349.413 26.4639 353.945 29.1758 357.865C34.7297 365.053 48.2338 370.589 67.366 360.075C78.7896 353.797 93.4639 350.528 105.352 355.599C112.243 358.552 118.206 364.31 122.051 373.932C124.651 380.489 125.19 388.253 124.447 396.891C124.651 395.776 132.62 351.141 107.785 341.11C76.1706 328.368 49.2554 378.13 25.1265 344.676Z" fill="#EFEFEF"/>
<path d="M25.1265 344.676C25.1636 349.413 26.4639 353.945 29.1758 357.865C34.7297 365.053 48.2338 370.588 67.366 360.075C78.7896 353.797 93.4639 350.528 105.352 355.598C106.782 351.828 105.222 347.463 106.411 343.413C106.671 342.54 107.154 341.797 107.804 341.129C76.1706 328.368 49.2554 378.13 25.1265 344.676Z" fill="#FF9343"/>
<g opacity="0.15">
<path d="M134.719 571.978C186.339 604.28 246.93 569.638 255.103 562.765L224.083 535.664C217.526 540.438 208.517 544.283 198.766 546.401C192.32 556.747 179.057 566.35 151.771 562.728C115.717 557.936 104.85 516.755 104.089 485.902C98.7392 518.668 101.934 550.45 134.719 571.978Z" fill="#000072"/>
</g>
<path d="M29.1756 357.883C34.7295 365.072 48.2335 370.607 67.3658 360.094C78.7894 353.815 93.4637 350.546 105.352 355.617C106.782 351.846 105.222 347.481 106.41 343.432C107.692 338.974 115.029 337.878 117.648 333.828C120.323 329.668 118.874 321.327 124.242 317.724C127.363 315.625 131.654 316.851 136.26 314.269C123.332 302.381 106.132 295.88 84.9749 297.013C40.302 299.428 14.7242 336.819 29.1756 357.883Z" fill="#FFAD40"/>
<g opacity="0.5">
<path d="M25.4232 348.261C27.6337 332.547 42.6794 315.365 65.9167 308.158C65.8239 308.585 65.7867 309.031 65.8053 309.477C66.0468 315.031 75.5386 319.117 87.0179 318.597C98.4787 318.095 107.58 313.173 107.339 307.638C107.32 307.303 107.283 306.969 107.19 306.635C115.289 308.548 122.589 311.836 129.035 316.275C131.264 315.978 133.715 315.718 136.279 314.288C123.351 302.4 106.15 295.898 84.9933 297.031C46.5244 299.093 22.2283 327.067 25.4232 348.261Z" fill="white"/>
</g>
<path d="M25.1265 344.676C25.1636 349.413 26.4639 353.945 29.1758 357.865C34.7297 365.053 48.2338 370.588 67.366 360.075C78.7896 353.797 93.4639 350.528 105.352 355.598C106.782 351.828 105.222 347.463 106.411 343.413C106.671 342.54 107.154 341.797 107.804 341.129C76.1706 328.368 49.2554 378.13 25.1265 344.676Z" fill="#FF9343"/>
<path d="M183.2 588.436C166.872 588.436 149.56 584.74 133.158 574.468C111.073 559.979 99.9649 539.807 99.1105 512.762C98.3861 489.524 105.129 465.08 111.63 441.452C118.819 415.41 125.598 390.817 119.302 375.028C115.791 366.242 110.237 360.428 102.751 357.735C93.2594 354.335 80.5541 356.156 68.7589 362.638C48.2336 373.913 33.355 368.081 26.8352 359.648C26.798 359.611 26.7609 359.555 26.7423 359.518C20.8726 350.955 20.6683 339.624 26.185 328.405C33.4664 313.619 53.1931 295.768 84.7892 294.06C119.413 292.183 146.644 310.628 159.442 344.639C172.073 378.149 160.928 416.543 151.102 450.405C140.849 485.716 131.988 516.235 150.155 534.067C168.618 552.196 205.229 545.714 222.318 533.268C223.637 532.321 225.458 532.6 226.424 533.919C227.371 535.237 227.092 537.058 225.773 538.024C206.585 551.992 166.984 558.828 146.031 538.265C125.376 517.981 135.127 484.36 145.455 448.789C155.021 415.8 165.888 378.427 153.944 346.738C141.926 314.826 117.481 298.202 85.0864 299.948C56.0165 301.508 38.0173 317.668 31.4418 331.024C26.8909 340.237 26.928 349.394 31.5161 356.156C36.6428 362.713 48.6979 366.985 65.917 357.512C79.1609 350.23 93.668 348.261 104.72 352.218C113.859 355.506 120.583 362.434 124.744 372.855C131.765 390.482 124.725 415.986 117.277 443.012C104.794 488.261 90.6403 539.547 136.298 569.527C162.637 586.003 191.187 583.885 210.486 579.204C234.132 573.483 250.422 562.84 253.19 560.518C254.435 559.478 256.274 559.626 257.332 560.871C258.373 562.115 258.224 563.954 256.979 565.013C250.645 570.344 219.291 588.436 183.2 588.436Z" fill="#000072"/>
<path d="M433.126 590.275C425.659 591.167 399.115 586.114 392.298 585.78C382.175 585.278 362.652 586.932 341.551 590.498C341.551 590.498 365.364 508.564 365.309 499.09C404.799 489.617 443.064 515.436 443.064 515.436C443.064 515.436 443.379 589.068 433.126 590.275Z" fill="#777782"/>
<path d="M441.671 556.06C440.389 573.334 437.918 589.718 433.126 590.275C425.659 591.166 399.115 586.114 392.298 585.78C382.175 585.278 362.652 586.931 341.551 590.498C341.551 590.498 365.383 508.563 365.309 499.09C372.237 497.437 379.129 496.843 385.797 497.028C417.059 497.883 443.064 515.418 443.064 515.418C443.064 515.418 443.138 536.333 441.671 556.06Z" fill="white"/>
<g opacity="0.15">
<path d="M441.671 556.06C440.389 573.334 437.918 589.718 433.126 590.275C425.659 591.166 399.115 586.114 392.298 585.78C382.175 585.278 362.652 586.931 341.551 590.498C341.551 590.498 365.383 508.563 365.309 499.09C372.237 497.437 379.129 496.843 385.797 497.028C387.339 505.944 389.735 521.715 391.444 541.85C393.078 561.205 412.582 551.657 415.127 538.989C417.765 525.875 424.34 522.067 424.34 522.067C424.34 522.067 433.275 539.249 441.671 556.06Z" fill="#000072"/>
</g>
<path d="M341.551 593.414C340.716 593.414 339.917 593.061 339.36 592.43C338.691 591.668 338.449 590.628 338.728 589.662C348.257 556.896 362.411 505.74 362.374 499.091C362.374 497.735 363.303 496.527 364.622 496.211C404.911 486.552 443.101 511.889 444.698 512.966C445.497 513.505 445.98 514.415 445.999 515.381C445.999 515.567 446.073 534.104 444.884 552.549C442.637 587.322 438.086 592.616 433.498 593.154C428.39 593.749 416.204 591.966 405.468 590.387C399.858 589.569 394.546 588.789 392.187 588.659C381.655 588.139 361.965 589.978 342.072 593.34C341.867 593.414 341.7 593.414 341.551 593.414ZM388.36 582.752C389.828 582.752 391.202 582.789 392.447 582.845C395.103 582.975 400.286 583.737 406.304 584.628C415.554 585.984 428.185 587.842 432.643 587.377C433.331 586.876 437.176 582.622 439.107 550.469C439.98 535.943 440.092 521.715 440.11 517.034C433.331 512.873 401.084 494.595 368.021 501.468C366.015 515.659 350.597 569.694 345.657 586.839C362.04 584.275 377.884 582.752 388.36 582.752Z" fill="#000072"/>
<path d="M414.217 573.521C417.969 582.864 424.303 591.724 440.296 590.071C463.571 587.675 484.133 549.503 478.728 519.987C474.716 498.088 449.676 493.221 433.256 506.13C425.51 512.204 418.173 526.359 414.217 545.064V573.521Z" fill="#777782"/>
<path d="M471.948 561.929C464.629 577.087 452.853 588.789 440.296 590.071C424.303 591.705 417.969 582.845 414.217 573.52V545.082C414.421 544.116 414.644 543.169 414.848 542.221C418.916 524.947 425.9 511.926 433.238 506.149C449.658 493.258 474.716 498.124 478.709 520.006C481.217 533.603 478.189 549.02 471.948 561.929Z" fill="white"/>
<g opacity="0.3">
<path d="M479.489 533.398C479.378 531.169 479.118 528.959 478.728 526.786C474.734 504.886 449.676 500.038 433.256 512.929C425.919 518.687 418.285 527.807 414.217 545.082C414.421 544.116 414.644 543.169 414.848 542.221C418.916 524.947 425.9 511.926 433.238 506.149C449.658 493.258 474.716 498.124 478.709 520.006C479.526 524.334 479.749 528.847 479.489 533.398Z" fill="white"/>
</g>
<g opacity="0.15">
<path d="M471.948 561.93C464.629 577.087 452.853 588.789 440.296 590.071C424.303 591.705 417.969 582.845 414.217 573.52V545.082C414.421 544.116 414.644 543.169 414.848 542.221L416.594 537.503C415.22 544.673 423.653 578.777 445.256 579.836C455.528 580.356 464.759 571.979 471.948 561.93Z" fill="#000072"/>
</g>
<path d="M464.179 561.221C467.653 549.508 464.004 538.094 456.028 535.728C448.052 533.362 438.769 540.939 435.294 552.653C431.819 564.366 435.468 575.78 443.445 578.146C451.421 580.512 460.704 572.935 464.179 561.221Z" fill="#FF999E"/>
<path d="M476.732 534.795C478.01 530.487 476.67 526.29 473.74 525.421C470.809 524.551 467.397 527.339 466.119 531.646C464.841 535.954 466.181 540.151 469.112 541.021C472.043 541.89 475.455 539.103 476.732 534.795Z" fill="#FF999E"/>
<path d="M447.892 529.67C449.17 525.363 447.83 521.166 444.899 520.296C441.968 519.427 438.556 522.214 437.278 526.522C436 530.83 437.34 535.027 440.271 535.896C443.202 536.765 446.614 533.978 447.892 529.67Z" fill="#FF999E"/>
<path d="M464.228 525.108C465.646 520.328 464.164 515.673 460.919 514.71C457.673 513.747 453.893 516.841 452.475 521.621C451.057 526.401 452.538 531.056 455.784 532.019C459.029 532.982 462.81 529.888 464.228 525.108Z" fill="#FF999E"/>
<path d="M414.217 573.52C417.226 577.291 419.994 580.876 423.374 583.235C429.968 588.065 439.274 588.12 446.649 584.944C468.79 574.282 481.551 540.048 474.678 516.904C469.607 501.877 451.311 498.83 438.643 506.186C425.863 513.337 419.343 531.671 414.235 545.064C415.461 529.535 421.275 509.288 435.559 500.892C446.463 494.168 461.62 493.722 471.892 502.044C487.551 514.508 483.409 541.46 476.963 557.843C471.483 571.291 463.032 584.703 449.324 591.018C442.191 594.12 433.813 594.343 426.551 591.464C419.306 588.529 414.811 581.062 414.217 573.52Z" fill="#000072"/>
<path d="M387.06 515.046C387.116 459.637 358.046 439.781 355.316 385.337C353.96 358.478 275.87 345.717 248.379 383.35C236.863 399.12 185.689 474.07 195.236 544.228C200.586 583.551 219.495 602.553 254.955 608.404C262.459 609.649 270.446 607.42 284.935 606.343C304.179 604.931 362.931 600.343 376.175 571.143C376.175 571.143 383.067 560.537 385.426 547.2C388.175 531.727 387.06 515.046 387.06 515.046Z" fill="white"/>
<path d="M385.389 492.849C372.07 494.799 349.167 506.427 311.757 500.799C273.381 495.022 253.748 457.352 253.748 457.352L279.753 434.356C279.753 434.356 336.072 445.557 374.708 456.033C379.166 467.29 383.215 478.936 385.389 492.849Z" fill="#EFEFEF"/>
<g opacity="0.15">
<path d="M387.06 515.046C387.06 510.365 386.856 505.945 386.484 501.728C388.156 524.947 369.135 544.673 334.753 542.853C306.593 541.367 275.127 506.372 251.017 505.796C239.24 505.517 228.522 531.764 220.665 558.679C219.439 558.27 218.362 558.14 217.507 558.289C211.786 559.329 207.57 558.289 203.595 556.339C200.084 554.611 197.298 549.447 195.125 543.057C195.162 543.447 195.217 543.819 195.273 544.209C197.892 563.36 203.706 577.681 213.087 588.009C213.179 588.12 213.291 588.213 213.384 588.325C213.83 588.808 214.294 589.291 214.758 589.755C214.963 589.959 215.167 590.164 215.371 590.368C215.761 590.758 216.17 591.148 216.579 591.52C216.783 591.705 217.006 591.91 217.21 592.095C217.805 592.616 218.38 593.136 218.993 593.619C219.736 594.232 220.498 594.807 221.26 595.383C221.612 595.643 221.984 595.903 222.355 596.163C222.671 596.386 223.006 596.609 223.321 596.832C223.451 596.906 223.563 596.999 223.693 597.074C224.009 597.278 224.343 597.501 224.659 597.705C224.826 597.817 224.993 597.909 225.16 598.002C225.606 598.281 226.052 598.541 226.516 598.82C226.702 598.931 226.888 599.042 227.074 599.154C227.371 599.321 227.686 599.488 227.984 599.655C228.225 599.785 228.467 599.915 228.708 600.046C229.005 600.194 229.303 600.361 229.6 600.51C229.953 600.696 230.324 600.863 230.677 601.049C230.826 601.123 230.974 601.197 231.123 601.271C231.476 601.439 231.847 601.606 232.2 601.773C232.553 601.94 232.906 602.089 233.278 602.256C233.463 602.33 233.63 602.405 233.816 602.479C234.188 602.627 234.541 602.795 234.931 602.943C235.358 603.129 235.804 603.296 236.25 603.463C236.881 603.705 237.55 603.946 238.2 604.169C238.479 604.262 238.757 604.373 239.054 604.466C239.054 604.466 239.054 604.466 239.073 604.466C239.203 604.522 239.352 604.559 239.482 604.596C239.89 604.726 240.299 604.875 240.708 605.005C241.153 605.154 241.599 605.284 242.045 605.414C242.138 605.432 242.212 605.469 242.305 605.488C242.751 605.618 243.197 605.748 243.661 605.878C244.163 606.027 244.683 606.157 245.203 606.305C245.463 606.38 245.704 606.435 245.964 606.51C246.299 606.602 246.633 606.677 246.967 606.751C247.135 606.788 247.283 606.825 247.45 606.863C248.342 607.067 249.234 607.271 250.144 607.457C250.497 607.531 250.831 607.606 251.184 607.68C252.428 607.921 253.673 608.163 254.955 608.367C255.382 608.441 255.809 608.497 256.236 608.534C256.366 608.553 256.496 608.553 256.608 608.571C256.905 608.609 257.221 608.627 257.518 608.646C257.667 608.664 257.815 608.664 257.964 608.683C258.317 608.701 258.688 608.72 259.041 608.72C259.227 608.72 259.413 608.72 259.617 608.72C259.914 608.72 260.211 608.72 260.509 608.72C260.731 608.72 260.954 608.701 261.177 608.701C261.4 608.701 261.623 608.683 261.846 608.683C262.087 608.664 262.347 608.664 262.589 608.646C262.738 608.627 262.905 608.627 263.053 608.609C263.666 608.571 264.298 608.516 264.948 608.46C265.004 608.46 265.059 608.441 265.134 608.441C265.542 608.404 265.951 608.367 266.36 608.311C271.301 607.791 277.17 606.881 284.916 606.324C304.16 604.912 362.913 600.324 376.138 571.124C376.138 571.124 383.029 560.518 385.388 547.181C388.174 531.727 387.06 515.046 387.06 515.046Z" fill="#000072"/>
</g>
<g opacity="0.15">
<path d="M369.042 441.954C353.662 443.792 337.669 444.777 330.09 443.941C282.538 438.759 285.659 402.426 270.799 396.389C265.561 394.253 254.657 393.547 243.828 389.795C245.667 387.102 247.209 384.928 248.36 383.349C275.851 345.735 353.959 358.477 355.297 385.337C356.485 408.76 362.541 425.756 369.042 441.954Z" fill="#000072"/>
</g>
<path d="M387.06 515.046C384.237 501.338 382.212 488.206 378.33 475.259C372.441 455.811 362.244 437.143 356.987 417.175C354.238 407.014 352.529 396.538 351.99 386.024C351.786 379.988 347.179 375.66 342.22 372.52C328.121 364.162 310.68 362.267 294.519 363.679C277.653 365.332 260.118 371.982 250.199 386.303C219.031 430.549 190.908 489.227 198.431 544.525C201.05 563.88 208.759 583.941 225.922 594.622C234.151 599.916 243.847 603.018 253.543 604.764C256.719 605.432 259.691 605.581 262.96 605.302C269.629 604.726 276.632 603.668 283.43 603.203C290.321 602.72 297.046 602.182 303.807 601.383C325.707 598.597 352.585 593.47 369.637 578.907C372.126 576.66 374.318 574.078 376.212 571.18C365.996 602.182 311.831 607.457 283.95 609.742C275.238 610.336 266.75 612.361 257.871 612.101C252.466 611.674 247.209 610.392 241.989 608.943C201.923 597.872 190.889 562.171 191.057 524.39C192.524 472.974 216.783 423.007 245.797 381.529C266.248 353.072 317.218 349.877 345.805 366.818C352.306 370.737 358.584 377.536 358.752 385.671C359.309 395.739 360.813 405.714 363.395 415.466C371.847 448.102 394.267 479.847 387.06 515.046Z" fill="#000072"/>
<path d="M294.538 619.029C291.51 619.419 257.964 618.1 238.274 595.624C238.274 595.624 221.427 580.003 217.489 558.326C211.081 523.015 232.386 508.359 232.386 508.359C268.589 495.412 289.114 532.99 289.114 532.99C289.114 532.99 289.727 539.119 290.544 548.091C292.811 572.666 296.767 618.732 294.538 619.029Z" fill="white"/>
<g opacity="0.15">
<path d="M294.538 619.029C291.51 619.419 257.964 618.1 238.274 595.625C238.274 595.625 221.427 580.003 217.489 558.326C217.489 558.326 224.603 556.933 233.259 565.347C240.057 571.96 246.28 577.904 250.422 568.097C254.583 558.289 253.729 552.809 258.632 544.265C260.583 540.884 274.477 543.577 290.544 548.091C292.81 572.666 296.767 618.732 294.538 619.029Z" fill="#000072"/>
</g>
<path d="M238.275 595.606C248.194 603.092 258.837 608.33 270.539 611.896C278.118 614.181 286.049 616.113 294 616.113H294.111H294.13C294.204 616.113 294.037 616.113 293.814 616.169C293.034 616.354 292.365 616.893 292.049 617.599C292.031 617.655 292.012 617.673 292.012 617.71C292.012 617.729 292.012 617.748 292.012 617.692C292.086 617.302 292.123 616.875 292.161 616.429C291.956 588.752 288.538 560.889 286.161 533.268L286.514 534.383C285.845 533.398 285.028 532.265 284.229 531.207C275.555 519.69 263.611 509.641 248.825 507.839C243.383 507.078 237.866 507.505 232.368 508.341C242.435 502.285 255.846 501.97 266.49 507.078C277.319 512.093 286.179 520.99 291.659 531.541C293.554 544.153 294.092 557.082 295.393 569.824C296.526 585.464 298.272 600.956 298.03 616.744C297.956 617.748 297.882 618.862 297.473 619.865C297.046 620.812 296.377 621.537 295.263 621.815C294.78 621.927 294.761 621.89 294.371 621.927C273.381 621.89 249.531 614.59 238.275 595.606Z" fill="#000072"/>
<path d="M300.166 617.729C330.964 608.572 319.41 553.422 311.85 539.175C301.838 518.111 278.601 514.675 264.261 523.275C258.447 526.767 241.841 540.791 246.652 569.118C251.741 598.931 274.161 625.308 300.166 617.729Z" fill="white"/>
<g opacity="0.3">
<path d="M317.571 556.283C316.308 551.992 314.915 548.444 313.652 546.048C303.64 524.965 280.402 521.548 266.063 530.129C260.249 533.621 243.643 547.664 248.453 575.972C248.621 577.013 248.825 578.034 249.048 579.056C248.045 575.805 247.246 572.48 246.67 569.1C241.859 540.791 258.465 526.749 264.279 523.257C278.601 514.656 301.857 518.093 311.869 539.157C313.763 542.76 315.918 548.909 317.571 556.283Z" fill="white"/>
</g>
<g opacity="0.15">
<path d="M300.166 617.729C278.842 623.933 259.914 607.327 251.017 584.702C261.549 602.367 278.563 612.918 297.083 607.011C315.75 601.048 320.116 578.034 317.682 556.821C322.549 578.721 323.05 610.93 300.166 617.729Z" fill="#000072"/>
</g>
<path d="M291.157 621.964C284.526 621.964 277.969 620.014 271.821 616.168C257.927 607.457 247.172 589.625 243.772 569.601C238.163 536.556 260.23 522.272 262.756 520.749C271.003 515.808 281.721 514.6 291.417 517.535C301.504 520.582 309.677 527.789 314.469 537.856C320.784 549.8 327.991 582.752 319.336 603.389C315.621 612.249 309.454 618.026 300.983 620.534H300.965C297.714 621.5 294.426 621.964 291.157 621.964ZM280.662 521.826C275.35 521.826 270.149 523.182 265.784 525.783C263.592 527.083 244.59 539.417 249.568 568.616C252.707 587.043 262.422 603.352 274.96 611.19C282.78 616.094 290.99 617.339 299.367 614.905C306.054 612.918 310.958 608.274 313.967 601.123C321.806 582.399 314.989 551.286 309.305 540.55C309.286 540.513 309.268 540.475 309.249 540.438C304.03 529.46 295.782 524.984 289.764 523.163C286.774 522.272 283.69 521.826 280.662 521.826Z" fill="#000072"/>
<path d="M293.192 603.189C303.483 600.933 309.556 588.754 306.757 575.988C303.957 563.221 293.345 554.701 283.054 556.958C272.763 559.215 266.689 571.394 269.489 584.16C272.288 596.926 282.901 605.446 293.192 603.189Z" fill="#FF999E"/>
<path d="M300.742 554.552C304.519 553.724 306.748 549.25 305.72 544.561C304.692 539.871 300.795 536.741 297.018 537.569C293.24 538.398 291.011 542.871 292.039 547.561C293.068 552.25 296.964 555.381 300.742 554.552Z" fill="#FF999E"/>
<path d="M265.486 565.903C269.264 565.075 271.493 560.602 270.465 555.912C269.436 551.222 265.54 548.092 261.762 548.92C257.984 549.749 255.756 554.222 256.784 558.912C257.812 563.602 261.709 566.732 265.486 565.903Z" fill="#FF999E"/>
<path d="M280.662 553.679C284.861 552.758 287.34 547.795 286.199 542.595C285.059 537.394 280.731 533.924 276.532 534.845C272.333 535.766 269.854 540.728 270.995 545.929C272.135 551.13 276.463 554.599 280.662 553.679Z" fill="#FF999E"/>
<path d="M422.798 301.638C434.241 287.112 454.933 279.868 473.044 280.37C475.328 280.537 477.632 280.723 479.898 281.057C476.239 281.856 472.152 282.45 468.474 283.286C452.277 286.629 436.73 292.573 422.798 301.638Z" fill="#000072"/>
<path d="M423.542 321.346C439.312 312.504 462.103 311.408 476.406 323.668C459.596 316.275 441.095 317.594 423.542 321.346Z" fill="#000072"/>
<path d="M407.511 223.53L364.343 185.006L314.469 140.5C344.375 112.136 402.292 82.2489 419.232 93.5053C422.446 95.6414 424.823 100.322 426.346 106.879C432.123 131.491 426.068 182.405 407.511 223.53Z" fill="white"/>
<g opacity="0.15">
<path d="M407.511 223.53L364.343 185.006C377.327 156.289 409.517 90.7562 426.346 106.879C432.123 131.491 426.067 182.405 407.511 223.53Z" fill="#000072"/>
</g>
<g opacity="0.5">
<path d="M426.959 109.796C425.548 106.062 423.709 103.331 421.48 101.845C405.171 90.9791 350.951 118.284 320.227 145.627L314.488 140.5C344.394 112.136 402.31 82.2489 419.251 93.5053C422.891 95.9572 425.473 101.715 426.959 109.796Z" fill="white"/>
</g>
<path d="M407.511 226.465C407.103 226.465 406.694 226.372 406.304 226.205C404.818 225.536 404.168 223.809 404.836 222.323C428.965 168.845 430.396 104.483 417.616 95.9571C410.873 91.462 394.193 94.7683 372.98 104.799C352.585 114.439 330.945 128.928 316.512 142.636C315.342 143.751 313.485 143.695 312.37 142.525C311.256 141.354 311.311 139.497 312.482 138.382C327.342 124.284 349.576 109.387 370.491 99.505C384.255 93.0037 409.109 83.2518 420.885 91.0905C438.717 102.96 433.033 174.158 410.205 224.756C409.703 225.834 408.626 226.465 407.511 226.465Z" fill="#000072"/>
<path d="M406.006 180.585C397.258 167.601 389.846 158.685 383.326 151.979C377.605 146.11 372.571 141.967 367.928 138.29C369.395 132.494 407.344 101.697 412.693 112.136C414.291 115.257 415.313 119.956 415.777 125.491C417.226 142.673 413.492 168.084 406.006 180.585Z" fill="#F27E80"/>
<path d="M415.758 125.491C413.492 122.371 409.963 118.656 406.601 119.343C400.861 120.513 388.119 138.94 383.326 151.979C377.605 146.11 372.571 141.967 367.928 138.29C369.395 132.494 407.344 101.697 412.693 112.136C414.272 115.257 415.294 119.938 415.758 125.491Z" fill="#FF5C64"/>
<path d="M406.137 186.046L403.555 182.219C387.525 158.443 376.25 148.617 366.089 140.593L364.603 139.423L365.067 137.584C366.776 130.841 394.509 108.588 407.158 107.158C412.304 106.582 414.458 109.201 415.294 110.817C422.594 125.046 418.786 165.019 408.514 182.108L406.137 186.046ZM371.717 137.565C381.116 145.125 391.592 154.728 405.635 174.882C413.678 156.957 415.443 123.968 410.056 113.473C409.963 113.288 409.74 112.86 408.254 112.935C398.8 113.455 376.788 131.175 371.717 137.565Z" fill="#000072"/>
<path d="M288.539 146.648L217.099 201.853L186.227 225.704C168.581 181.625 165.999 127.33 175.064 104.687C176.921 100.025 179.28 96.7188 182.104 95.1028C200.493 84.5522 259.079 116.966 288.539 146.648Z" fill="#FFAD40"/>
<path d="M217.099 201.853L186.227 225.703C168.581 181.625 165.999 127.33 175.064 104.687C181.435 98.316 191.038 94.2852 197.224 117.578C203.632 141.689 212.232 179.86 217.099 201.853Z" fill="#FF9343"/>
<g opacity="0.5">
<path d="M288.538 146.648L284.043 150.122C253.339 121.999 195.533 94.2483 182.642 99.4864C172.166 103.759 169.974 138.773 171.627 167.118C167.373 131.863 171.423 101.233 182.122 95.1028C200.493 84.5521 259.078 116.966 288.538 146.648Z" fill="white"/>
</g>
<path d="M186.227 228.638C185.057 228.638 183.961 227.932 183.497 226.799C162.823 175.161 161.3 103.647 180.636 92.5578C193.304 85.295 218.566 96.0871 232.498 103.183C253.71 113.975 275.982 129.838 290.619 144.586C291.752 145.738 291.752 147.596 290.6 148.729C289.449 149.862 287.591 149.862 286.458 148.71C257.332 119.38 200.066 88.1741 183.571 97.6474C169.658 105.635 167.114 170.09 188.958 224.608C189.552 226.112 188.828 227.821 187.323 228.415C186.952 228.564 186.58 228.638 186.227 228.638Z" fill="#000072"/>
<path d="M297.956 119.733C317.311 119.436 353.365 118.972 384.85 140.073C434.092 170.48 444.401 219.091 442.228 286.444C465.688 341.333 409.109 386.34 317.868 388.903H297.937C250.088 386.582 183.868 373.375 166.631 314.473C155.356 275.949 169.937 216.007 183.775 189.296L228.448 150.419L297.956 119.733Z" fill="white"/>
<g opacity="0.15">
<path d="M384.627 368.675C382.509 363.437 376.547 352.645 363.711 354.15C350.783 355.673 340.53 367.97 335.44 375.4C276.762 378.464 218.213 365.351 184.853 347.556C212.641 378.725 260.824 387.083 297.956 388.885H317.887C369.915 387.492 404.818 372.799 425.083 355.227C412.266 361.023 398.669 365.443 384.627 368.675Z" fill="#000072"/>
</g>
<path d="M238.442 325.86C250.229 325.86 259.784 322.275 259.784 317.854C259.784 313.432 250.229 309.848 238.442 309.848C226.655 309.848 217.099 313.432 217.099 317.854C217.099 322.275 226.655 325.86 238.442 325.86Z" fill="#FF999E"/>
<path d="M447.261 316.368C446.556 316.424 446.166 316.461 446.166 316.461C436.525 316.461 428.724 312.876 428.724 308.455C428.724 304.034 436.525 300.449 446.166 300.449C446.184 300.449 446.314 300.431 446.556 300.394C447.577 305.873 447.8 311.204 447.261 316.368Z" fill="#FF999E"/>
<path d="M256.292 213.815C222.43 228.861 194.029 215.747 177.441 203.766C179.503 198.287 181.639 193.401 183.775 189.296C183.775 189.296 203.781 167.118 222.579 149.583C246.763 127.033 280.273 121.46 292.885 120.142C292.959 120.253 293.015 120.383 293.089 120.495C298.606 149.211 298.067 195.277 256.292 213.815Z" fill="#FFAD40"/>
<path d="M248.435 130.767L295.467 140.741C295.17 133.311 294.241 126.271 293.034 120.067C279.01 121.461 264.744 123.987 248.435 130.767Z" fill="#FFAD40"/>
<path d="M199.044 298.462C180.321 289.453 159.702 285.515 139.066 285.125C137.617 285.014 136.038 285.107 134.589 285.088C133.084 285.069 131.58 285.051 130.057 284.977C132.601 284.271 135.202 283.676 137.784 283.138C158.439 279.664 183.144 284.252 199.044 298.462Z" fill="#000072"/>
<path d="M200.233 325.786C179.466 324.69 158.105 326.417 140.124 337.766C154.148 321.16 180.729 318.318 200.233 325.786Z" fill="#000072"/>
<path d="M375.005 297.663C375.153 301.768 370.695 305.557 367.259 307.842C364.881 309.44 361.798 309.551 359.309 308.121C355.724 306.059 351.024 302.585 350.876 298.499C350.634 291.83 374.782 290.995 375.005 297.663Z" fill="#000072"/>
<g opacity="0.35">
<path d="M369.228 296.418C369.247 297.18 367.594 297.904 366.293 298.35C365.402 298.666 364.269 298.703 363.358 298.443C362.04 298.09 360.331 297.477 360.294 296.716C360.256 295.49 369.191 295.174 369.228 296.418Z" fill="white"/>
</g>
<path d="M232.888 142.116C222.003 149.546 209.167 159.131 190.499 182.795C189.738 181.421 189.032 179.897 188.4 178.244C183.887 166.765 182.029 149.397 182.939 135.057C183.497 126.141 185.113 118.414 187.806 113.993C194.01 103.777 231.717 136.246 232.888 142.116Z" fill="#F27E80"/>
<path d="M232.888 142.116C222.003 149.546 209.167 159.131 190.499 182.795C189.738 181.421 189.032 179.898 188.401 178.244C190.574 168.102 199.713 157.682 203.651 149.305C211.805 131.9 199.044 119.51 193.713 120.922C190.555 121.758 185.168 131.008 182.939 135.076C183.497 126.16 185.113 118.433 187.806 114.012C194.01 103.777 231.717 136.246 232.888 142.116Z" fill="#FF5C64"/>
<path d="M190.481 185.712C190.406 185.712 190.314 185.712 190.239 185.693C189.255 185.619 188.382 185.043 187.917 184.188C178.258 166.616 176.772 126.402 185.28 112.47C186.246 110.873 188.698 108.347 194.177 109.313C207.198 111.634 234.448 134.965 235.767 141.54C235.989 142.692 235.507 143.881 234.541 144.531C223.414 152.128 211.043 161.49 192.803 184.597C192.227 185.303 191.372 185.712 190.481 185.712ZM190.276 115.535C183.998 125.826 183.794 159.056 191.131 177.278C207.18 157.552 218.733 148.357 229.08 141.169C224.194 134.686 202.332 116.092 192.543 115.015C190.722 114.811 190.388 115.349 190.276 115.535Z" fill="#000072"/>
<path d="M297.956 388.903C262.162 391.002 222.021 382.829 193.304 360.372C173.058 344.509 161.504 320.807 159.739 295.322C157.919 264.655 163.417 233.709 175.287 205.457C177.701 199.866 180.469 194.386 183.794 189.296C181.621 194.98 179.726 200.683 178.017 206.46C173.021 223.697 169.268 241.399 167.169 259.194C160.928 312.783 176.104 351.308 228.095 372.52C250.423 381.343 274.254 384.965 297.956 388.903Z" fill="#000072"/>
<path d="M297.919 116.798C324.89 116 353.068 118.99 377.216 132.049C402.162 145.738 421.498 163.96 432.569 190.56C445.182 220.781 446.036 254.272 445.163 286.5L444.921 285.255C450.085 296.53 452.351 309.756 449.751 322.127C443.658 351.549 415.722 369.827 389.104 379.022C366.293 386.898 341.812 389.721 317.868 388.885C341.589 386.6 365.049 382.477 387.209 373.858C424.192 359.741 456.717 329.909 439.535 287.558L439.275 286.927L439.293 286.295C439.609 275.67 439.702 265.027 439.219 254.439C438.049 228.323 433.739 201.575 420.105 178.895C414.737 169.979 407.994 161.936 400.211 155.026C392.521 148.209 383.42 142.19 374.448 137.194C351.118 124.619 324.221 121.888 298.012 122.631C298.012 122.668 297.919 116.798 297.919 116.798Z" fill="#000072"/>
<path d="M248.435 130.767C284.823 115.609 310.94 121.739 347.105 114.049C356.133 112.136 372.423 105.245 372.423 105.245C372.423 105.245 373.166 121.869 369.154 130.897C389.159 133.497 394.732 143.305 422.278 148.153C415.982 155.23 403.685 164.053 388.621 160.487L248.435 130.767Z" fill="white"/>
<path d="M248.435 130.767L295.467 140.741C295.17 133.311 294.241 126.271 293.034 120.067C279.01 121.461 264.744 123.987 248.435 130.767Z" fill="#FFAD40"/>
<path d="M248.435 130.766C277.876 113.77 313.28 117.578 345.397 110.891C354.238 109.034 362.746 105.597 371.272 102.551C372.795 101.882 374.596 102.588 375.172 104.167C375.637 106.712 375.339 109.331 375.358 111.857C375.061 118.748 374.559 125.603 371.829 132.104L369.525 127.999C376.788 128.537 384.033 130.804 390.627 133.831L397.016 136.692C405.338 140.537 413.864 143.193 422.836 144.995C425.306 145.311 426.439 148.543 424.675 150.307C415.907 160.004 401.14 166.635 388.602 160.505C400.694 160.821 412.118 155.1 419.864 146.017L421.703 151.329C412.248 149.954 402.756 147.131 394.1 143.137C385.667 139.181 377.903 135.299 368.764 133.813C367.148 133.59 366.015 132.085 366.238 130.469C366.906 128.407 367.761 126.401 368.151 124.098C369.377 118.024 369.637 111.578 369.47 105.393L373.538 107.956C368.634 110.223 363.711 112.247 358.641 114.105C343.465 119.751 326.729 120.847 310.81 121.832C289.542 122.742 268.886 124.414 248.435 130.766Z" fill="#000072"/>
<path d="M369.135 130.915C362.133 130.655 353.495 132.977 348.016 132.104Z" fill="white"/>
<path d="M369.024 133.85C362.411 132.55 354.721 133.85 348.016 132.104C351.582 132.086 354.963 131.082 358.399 130.209C361.854 129.318 365.328 128.352 369.247 127.98L369.024 133.85Z" fill="#000072"/>
<path d="M366.405 307.601C365.829 311.037 362.374 317.501 361.984 317.464C361.724 317.445 361.538 311.539 360.646 307.898" fill="#000072"/>
<path d="M263.629 272.308C266.935 280.128 271.356 287.521 278.08 292.388C289.801 301.118 308.729 300.245 317.85 288.598C320.134 285.719 321.936 282.171 323.348 278.252C324.815 274.184 325.781 269.912 326.803 265.603C330.072 274.556 330.202 284.661 325.67 293.502C319.596 305.502 305.181 310.498 292.476 308.604C274.607 306.263 262.273 289.917 263.629 272.308Z" fill="#000072"/>
<path d="M426.253 273.386C428.649 279.831 427.665 287.336 423.523 293.112C418.99 299.558 410.242 301.973 402.775 299.985C391.537 297.255 386.317 285.051 386.429 274.575C386.41 271.305 386.744 268.073 387.543 264.934C389.512 271.064 391.332 276.952 394.1 281.912C396.088 285.478 398.372 288.394 401.734 290.27C406.972 292.927 413.715 292.481 418.21 288.45C422.353 284.772 424.916 278.884 426.253 273.386Z" fill="#000072"/>
<path d="M364.399 449.792C360.368 417.509 340.734 394.829 351.434 373.542C356.876 362.731 368.485 361.914 373.278 362.657C396.701 366.242 412.471 399.584 409.945 425.961C407.084 455.811 381.191 455.792 364.399 449.792Z" fill="#777782"/>
<path d="M409.926 425.961C409.74 427.855 409.48 429.601 409.127 431.255C403.852 455.774 380.132 455.421 364.399 449.792C363.061 439.13 360.034 429.509 356.95 420.648C350.709 402.668 344.282 387.789 351.452 373.523C356.894 362.713 368.504 361.895 373.296 362.638C396.682 366.242 412.452 399.566 409.926 425.961Z" fill="white"/>
<g opacity="0.3">
<path d="M392.707 373.653C388.138 370.199 383.048 367.839 377.587 367.004C372.46 366.223 360.015 367.078 354.182 378.687C346.492 393.975 353.384 409.93 360.071 429.193C362.374 435.843 364.659 442.901 366.331 450.443C365.662 450.238 365.03 450.015 364.399 449.792C363.061 439.13 360.034 429.509 356.95 420.648C350.709 402.668 344.282 387.789 351.452 373.523C356.894 362.713 368.504 361.895 373.296 362.638C380.615 363.772 387.19 367.821 392.707 373.653Z" fill="white"/>
</g>
<path d="M409.127 431.254C403.852 455.773 380.132 455.42 364.399 449.792C363.061 439.13 360.034 429.508 356.95 420.648C363.804 420.704 373.891 421.892 382.825 427.298C393.84 434.003 402.886 438.851 409.127 431.254Z" fill="#EFEFEF"/>
<path d="M381.803 455.866C373.63 455.866 366.386 453.619 363.396 452.56C362.355 452.188 361.612 451.26 361.464 450.164C359.941 437.923 356.003 426.815 352.529 416.989C346.715 400.55 341.681 386.359 348.796 372.223C354.814 360.261 367.724 358.83 373.705 359.741C398.948 363.623 415.48 398.674 412.842 426.239C411.728 437.867 407.233 446.263 399.487 451.185C393.952 454.715 387.636 455.866 381.803 455.866ZM367.055 447.6C372.925 449.458 386.391 452.579 396.366 446.244C402.515 442.344 406.1 435.434 407.028 425.682C409.369 401.181 394.639 368.898 372.832 365.555C368.299 364.867 358.566 365.908 354.071 374.861C348.09 386.767 352.511 399.231 358.083 415.038C361.482 424.642 365.309 435.471 367.055 447.6Z" fill="#000072"/>
<path d="M391.388 480.237C388.119 484.305 383.921 485.085 375.99 485.363C361.984 485.865 342.257 494.168 315.844 490.602C289.523 487.072 264.038 469.37 254.751 458.541C254.398 458.132 254.063 457.724 253.748 457.334L270.799 396.371C272.973 397.355 275.982 399.435 279.66 402.11C291.696 410.841 310.866 425.775 330.982 428.598C346.325 430.772 365.198 424.103 380.931 433.149C386.726 436.493 390.59 442.678 392.8 449.588C392.8 449.588 392.8 449.588 392.8 449.607C396.571 461.29 395.642 474.943 391.388 480.237Z" fill="white"/>
<g opacity="0.3">
<path d="M392.819 449.625C375.599 425.868 354.591 437.31 328.122 433.409C302.061 429.583 280.18 402.76 279.678 402.129C291.715 410.859 310.884 425.793 331.001 428.617C346.344 430.79 365.216 424.122 380.949 433.168C386.745 436.53 390.608 442.734 392.819 449.625Z" fill="white"/>
</g>
<path d="M391.388 480.237C388.119 484.305 383.921 485.085 375.99 485.363C361.984 485.865 342.257 494.168 315.844 490.601C289.523 487.072 264.038 469.37 254.75 458.541C264.317 459.878 293.034 480.59 317.924 482.651C343.112 484.732 358.306 477.692 377.364 478.546C391.462 479.178 393.952 461.532 392.818 449.644C396.571 461.29 395.642 474.943 391.388 480.237Z" fill="#EFEFEF"/>
<path d="M270.799 396.389C277.171 398.674 282.725 402.742 288.501 406.104C299.684 412.902 311.051 419.664 323.385 423.843C329.589 425.849 335.719 426.406 342.257 426.053C358.678 425.032 380.708 422.71 391.165 438.963C398.373 449.718 401.642 471.042 393.952 482.131C389.679 487.964 382.027 488.503 375.507 488.707C371.94 488.911 368.43 489.543 364.77 490.23C348.257 493.722 330.815 496.527 313.856 493.629C296.897 490.694 280.7 483.302 267.252 472.64C262.032 468.293 256.98 463.371 253.729 457.334C258.8 461.643 264.354 465.302 269.982 468.795C293.758 483.766 315.602 491.103 343.911 487.109C355.427 485.698 366.981 482.094 378.832 481.908C384.999 481.667 389.401 480.181 390.924 473.661C394.156 460.25 390.162 439.335 375.915 434.115C361.947 428.394 346.771 433.279 331.985 431.7C314.562 429.787 299.201 420.37 286.161 409.317C280.96 405.101 276.298 400.271 270.799 396.389Z" fill="#000072"/>
<path d="M365.383 360.02C374.169 360.967 380.726 368.304 383.977 376.013C379.686 370.422 373.185 365.258 365.811 365.852C365.736 365.871 365.625 365.871 365.662 365.889L365.383 360.02Z" fill="#000072"/>
<path d="M357.284 364.552C364.38 368.397 369.878 375.158 371.977 382.904C368.559 376.941 362.913 372.428 356.411 370.366C356.021 370.236 355.557 370.124 355.297 370.069L357.284 364.552Z" fill="#000072"/>
<path d="M378.553 349.413C373.667 340.126 355.91 337.154 337.186 360.725L378.553 349.413Z" fill="white"/>
<path d="M378.553 349.413C370.844 342.002 359.959 344.379 351.786 349.32C346.455 352.496 341.867 356.509 337.186 360.725C339.248 357.01 341.83 353.592 344.82 350.509C349.371 345.884 355.241 341.964 361.835 340.738C368.373 339.215 377.159 342.206 378.553 349.413Z" fill="#000072"/>
<path d="M301.894 218.589C306.556 216.825 313.503 212.33 322.456 215.097C332.877 218.329 331.242 231.425 325.521 232.576C314.859 234.731 311.905 223.029 301.894 218.589Z" fill="#000072"/>
<path d="M407.288 223.92C402.533 219.648 395.085 217.122 389.456 219.704C383.345 222.509 382.175 231.332 387.06 233.431C395.772 237.164 397.667 226.465 407.288 223.92Z" fill="#000072"/>
</svg>
