<svg width="626" height="612" viewBox="0 0 626 612" fill="none" xmlns="http://www.w3.org/2000/svg">
<ellipse cx="313" cy="299.5" rx="313" ry="299.5" fill="#B0A2D7"/>
<g clip-path="url(#clip0_243_4792)">
<path d="M494.029 415.878C494.37 415.77 494.64 415.716 494.927 415.644C495.215 415.572 495.484 415.501 495.754 415.447C496.293 415.339 496.832 415.213 497.371 415.124C498.449 414.926 499.527 414.782 500.587 414.657C501.665 414.531 502.725 414.459 503.803 414.387C504.881 414.351 505.941 414.298 507.019 414.298C511.295 414.28 515.553 414.764 519.667 415.752L521.212 416.111C521.716 416.255 522.219 416.416 522.722 416.578C523.728 416.901 524.752 417.17 525.722 417.547C527.68 418.355 529.639 419.074 531.471 420.097L532.855 420.815C533.322 421.049 533.789 421.3 534.22 421.587L536.843 423.275C537.742 423.796 538.532 424.478 539.341 425.106L541.766 427.01C542 427.207 542.054 427.548 541.856 427.8C541.676 428.033 541.371 428.069 541.119 427.925L541.066 427.89L538.496 426.309C537.634 425.789 536.807 425.232 535.891 424.819L533.196 423.509C532.765 423.275 532.298 423.096 531.831 422.916L530.429 422.395C528.597 421.623 526.656 421.156 524.77 420.618C523.818 420.384 522.829 420.241 521.877 420.043C521.392 419.953 520.907 419.846 520.422 419.774L518.949 419.612C515.05 419.145 511.133 419.145 507.27 419.612C506.3 419.72 505.348 419.882 504.396 420.025C503.444 420.205 502.491 420.384 501.557 420.6C500.623 420.833 499.689 421.049 498.79 421.336C498.323 421.462 497.892 421.623 497.443 421.767C497.227 421.839 497.011 421.911 496.796 422C496.58 422.072 496.365 422.162 496.239 422.216C494.55 422.988 492.556 422.252 491.783 420.564C491.011 418.876 491.747 416.883 493.436 416.111C493.58 416.057 493.706 416.003 493.849 415.949L494.029 415.878Z" fill="#000072"/>
<path d="M490.615 433.833C491.316 434.192 491.783 434.461 492.34 434.802C492.879 435.125 493.382 435.448 493.903 435.79C494.927 436.472 495.916 437.154 496.868 437.908C498.79 439.363 500.605 440.943 502.312 442.631C505.743 445.97 508.726 449.741 511.169 453.798C513.631 457.856 515.499 462.237 516.793 466.726C518.05 471.233 518.733 475.865 518.877 480.48C518.895 480.785 518.643 481.054 518.338 481.054C518.05 481.072 517.799 480.839 517.763 480.569C517.152 476.081 516.038 471.7 514.403 467.534C512.732 463.404 510.576 459.49 507.917 455.971C505.276 452.452 502.186 449.292 498.79 446.581C497.083 445.216 495.305 443.959 493.472 442.846C492.556 442.271 491.622 441.751 490.669 441.248C490.202 440.997 489.717 440.763 489.25 440.548C488.801 440.332 488.262 440.099 487.921 439.973C486.178 439.327 485.297 437.388 485.944 435.664C486.591 433.922 488.531 433.043 490.256 433.689C490.382 433.725 490.49 433.779 490.598 433.833H490.615Z" fill="#000072"/>
<path d="M124.385 364.544C124.385 364.544 115.51 378.944 125.553 389.52C126.092 390.094 126.685 390.651 127.35 391.208L113.39 462.327C75.193 446.114 68.9945 413.4 70.5576 388.676C71.438 374.922 74.9954 361.456 80.7267 348.906C96.3037 314.863 103.347 284.663 99.0346 259.615C97.3458 249.722 93.8782 240.655 88.4883 232.45C78.427 202.249 99.4479 186.97 118.546 189.699C125.859 190.74 132.884 194.421 137.789 200.903C137.789 200.903 157.875 218.229 158.612 254.983C158.863 266.69 157.121 280.389 152.144 296.136L124.385 364.544Z" fill="#8E8FB3"/>
<path d="M158.63 254.965C134.195 235.179 111.504 248.573 99.0347 259.615C97.3458 249.722 93.8783 240.655 88.4883 232.45C74.6002 190.686 120.074 177.453 137.807 200.903C137.807 200.903 157.893 218.229 158.63 254.965Z" fill="white"/>
<g opacity="0.6">
<path d="M124.385 364.544C124.385 364.544 114.522 380.542 127.35 391.208L127.08 392.608C112.366 383.667 112.959 375.389 114.36 371.565C114.36 371.547 114.378 371.547 114.378 371.547C114.953 370.29 115.42 369.5 115.492 369.356C115.51 369.338 115.51 369.32 115.51 369.32L143.286 300.912C148.263 285.165 150.006 271.466 149.754 259.759C149.018 223.023 128.931 205.679 128.931 205.679C120.882 195.031 107.12 191.961 95.7827 195.66C107.713 186.036 127.476 187.239 137.807 200.903C137.807 200.903 157.893 218.229 158.63 254.983C158.881 266.69 157.139 280.389 152.162 296.136L124.385 364.544Z" fill="white"/>
</g>
<g opacity="0.2">
<path d="M127.368 391.208L113.408 462.327C75.2111 446.114 69.0126 413.4 70.5757 388.676C71.4561 374.922 75.0134 361.456 80.7448 348.906C96.3038 314.863 103.347 284.663 99.0347 259.615C97.3459 249.722 93.8783 240.655 88.4884 232.45C78.4271 202.249 99.448 186.97 118.546 189.699L118.564 189.717C118.564 189.717 95.5851 191.62 104.748 220.527C113.929 249.435 133.962 275.685 106.671 325.869C82.8828 369.608 97.7771 394.673 125.553 389.538C126.092 390.094 126.703 390.669 127.368 391.208Z" fill="#000072"/>
</g>
<path d="M202.288 550.522C162.618 559.446 137.77 550.863 134.734 516.587C134.68 515.995 134.644 515.42 134.608 514.828C134.429 512.242 134.393 509.513 134.447 506.658C133.674 505.886 132.937 505.096 132.219 504.288C124.242 495.364 118.852 484.107 115.959 471.61L115.941 471.592C103.724 419.002 135.507 344.83 202.27 333.895L209.134 486.944C208.918 487.769 208.72 488.577 208.505 489.35C205.828 499.692 203.636 507.017 202.001 512.063C199.791 518.885 198.605 521.453 198.605 521.453C219.68 530.107 202.288 550.522 202.288 550.522Z" fill="#8E8FB3"/>
<g opacity="0.6">
<path d="M132.722 503.211C132.614 503.642 132.506 504.072 132.398 504.485C90.5541 458.072 119.588 347.469 202.288 333.913L202.54 339.551C126.847 355.854 98.8367 454.948 132.722 503.211Z" fill="white"/>
</g>
<path d="M202.288 550.522C161.936 559.589 136.944 550.576 134.608 514.828C134.608 514.828 163.768 492.635 202.019 512.098C199.809 518.921 198.623 521.489 198.623 521.489C219.68 530.107 202.288 550.522 202.288 550.522Z" fill="white"/>
<path d="M176.147 557.201C163.211 557.201 153.132 554.149 145.64 548.009C135.776 539.911 130.871 526.463 131.087 508.005C109.868 485.687 104.101 447.03 116.408 408.983C130.189 366.43 162.097 337.127 201.767 330.628C203.6 330.34 205.325 331.561 205.612 333.393C205.918 335.224 204.678 336.948 202.845 337.235C165.708 343.322 135.776 370.919 122.786 411.03C111.036 447.317 116.552 483.927 136.836 504.306C137.483 504.953 137.824 505.832 137.806 506.748C137.393 523.769 141.454 535.907 149.898 542.82C159.941 551.043 176.938 552.623 200.42 547.524C202.738 544.453 206.744 537.666 205.433 532.28C204.642 529.066 201.929 526.481 197.366 524.613C196.521 524.272 195.856 523.59 195.515 522.746C195.174 521.902 195.21 520.95 195.587 520.107C195.623 520.035 199.414 511.596 205.918 486.154C206.367 484.358 208.199 483.281 209.996 483.73C211.793 484.179 212.871 486.01 212.422 487.805C207.84 505.743 204.57 515.402 202.917 519.837C207.822 522.512 210.858 526.157 211.954 530.718C214.524 541.24 205.253 552.264 204.858 552.731C204.391 553.287 203.744 553.664 203.043 553.826C192.964 556.052 184.016 557.201 176.147 557.201Z" fill="#000072"/>
<path d="M171.979 460.101C172.572 457.551 173.29 455.002 174.189 452.506C175.087 450.01 176.147 447.532 177.458 445.162C178.752 442.774 180.279 440.476 182.112 438.321C183.028 437.244 184.016 436.221 185.112 435.251C185.669 434.766 186.244 434.3 186.855 433.851C187.16 433.635 187.484 433.402 187.825 433.186C187.987 433.079 188.167 432.971 188.364 432.863L188.652 432.702C188.777 432.648 188.831 432.612 189.047 432.504L187.34 437.352C185.777 434.264 183.729 431.445 181.106 429.2C178.501 426.956 175.338 425.286 171.889 424.335C168.439 423.365 164.72 423.042 161.001 423.239C157.282 423.437 153.509 424.101 149.952 425.268L149.916 425.286C149.664 425.376 149.395 425.232 149.305 424.981C149.233 424.747 149.341 424.496 149.556 424.406C153.096 422.737 156.833 421.587 160.714 420.869C164.594 420.169 168.619 419.989 172.661 420.6C176.686 421.192 180.71 422.665 184.232 424.999C187.771 427.315 190.736 430.475 193.071 433.94L191.365 438.788C191.436 438.752 191.347 438.788 191.311 438.788C191.275 438.788 191.221 438.824 191.167 438.824C191.059 438.86 190.951 438.896 190.826 438.95C190.592 439.04 190.341 439.147 190.107 439.255C189.622 439.489 189.119 439.758 188.634 440.045C187.646 440.638 186.693 441.32 185.759 442.056C183.891 443.564 182.166 445.324 180.603 447.263C179.022 449.202 177.62 451.303 176.327 453.511C175.033 455.72 173.883 458.018 172.859 460.388C172.751 460.639 172.464 460.747 172.23 460.639C172.033 460.55 171.925 460.316 171.979 460.101Z" fill="#000072"/>
<path d="M131.284 505.545L142.298 483.227C142.424 482.993 142.711 482.886 142.945 483.011C143.142 483.119 143.25 483.335 143.196 483.55L137.609 507.789C137.195 509.603 135.381 510.734 133.566 510.321C131.751 509.908 130.62 508.094 131.033 506.281C131.087 506.03 131.177 505.76 131.284 505.545Z" fill="#000072"/>
<path d="M197.599 524.685C197.509 524.685 197.329 524.649 197.186 524.631L196.701 524.559L195.677 524.416L193.61 524.111C192.209 523.931 190.808 523.733 189.406 523.59C186.585 523.285 183.711 522.997 180.8 523.069C180.064 523.033 179.345 523.087 178.626 523.123C177.908 523.159 177.153 523.159 176.434 523.249L174.242 523.428C173.506 523.482 172.787 523.644 172.051 523.716C170.559 523.877 169.122 524.218 167.631 524.47C166.157 524.757 164.702 525.17 163.193 525.493H163.157C162.888 525.547 162.636 525.385 162.582 525.116C162.546 524.919 162.636 524.721 162.78 524.613C165.367 522.89 168.116 521.328 171.062 520.16C171.799 519.873 172.536 519.55 173.29 519.299L175.554 518.544C176.309 518.293 177.099 518.132 177.872 517.934C178.644 517.737 179.435 517.539 180.225 517.395C183.387 516.767 186.621 516.426 189.873 516.48C191.49 516.516 193.125 516.659 194.742 516.929C195.551 517.09 196.359 517.216 197.168 517.449C197.563 517.539 197.976 517.665 198.372 517.808C198.569 517.88 198.767 517.934 198.982 518.024L199.665 518.275C201.372 518.922 202.216 520.843 201.57 522.531C201.067 523.823 199.845 524.631 198.533 524.649L197.599 524.685Z" fill="#000072"/>
<path d="M183.334 533.752C184.915 534.812 186.334 535.997 187.682 537.379C189.011 538.762 190.233 540.324 191.149 542.191C192.065 544.041 192.64 546.303 192.407 548.691C192.191 551.079 191.095 553.341 189.73 555.173L189.622 555.316C188.49 556.806 186.37 557.112 184.879 555.999C183.388 554.867 183.082 552.749 184.196 551.258C184.376 551.007 184.609 550.792 184.825 550.612C185.903 549.786 186.765 548.834 187.232 547.649C187.718 546.482 187.825 545.01 187.52 543.466C187.232 541.922 186.586 540.324 185.741 538.816C184.897 537.307 183.873 535.817 182.705 534.488L182.687 534.471C182.507 534.273 182.525 533.968 182.741 533.788C182.903 533.627 183.154 533.627 183.334 533.752Z" fill="#000072"/>
<path d="M197.869 531.921C199.378 532.172 200.743 532.819 201.965 533.788C203.187 534.758 204.175 536.068 204.875 537.523C205.63 538.977 205.953 540.539 206.241 542.119C206.331 542.891 206.403 543.681 206.457 544.471L206.439 546.806C206.421 548.691 204.893 550.217 203.007 550.199C201.12 550.181 199.593 548.655 199.611 546.77C199.611 546.357 199.683 545.962 199.827 545.585L199.881 545.441L200.51 543.771C200.671 543.215 200.833 542.658 200.977 542.083C201.174 540.97 201.372 539.785 201.228 538.69C201.12 537.577 200.815 536.445 200.204 535.422C199.611 534.417 198.677 533.465 197.617 532.855L197.545 532.819C197.312 532.693 197.24 532.388 197.365 532.172C197.473 531.975 197.671 531.885 197.869 531.921Z" fill="#000072"/>
<g opacity="0.2">
<path d="M193.772 390.112C193.772 390.112 175.123 397.671 170.002 421.785L189.281 433.599L200.725 415.662" fill="#000072"/>
</g>
<g opacity="0.2">
<path d="M202.001 549.606C162.331 558.53 137.483 549.948 134.447 515.671C135.076 516.318 135.722 517 136.387 517.7C188.418 572.571 189.694 473.747 189.694 473.747L197.438 485.381L208.217 488.452C205.54 498.794 203.349 506.119 201.714 511.165C199.504 517.988 198.318 520.555 198.318 520.555C219.393 529.192 202.001 549.606 202.001 549.606Z" fill="#000072"/>
</g>
<g opacity="0.2">
<path d="M150.185 460.245L135.794 504.073L132.668 504.252C124.691 495.329 119.301 484.071 116.408 471.574C135.758 490.624 149.539 461.645 150.185 460.245Z" fill="#000072"/>
</g>
<path d="M113.389 465.685C112.958 465.685 112.509 465.595 112.078 465.416C72.0663 448.412 65.5984 414.19 67.2154 388.479C68.0957 374.599 71.6172 360.828 77.6899 347.541C100.436 297.734 103.059 260.693 85.685 234.299C85.5233 234.048 85.3975 233.796 85.3077 233.509C77.6539 210.473 87.1942 195.804 98.6748 189.789C112.832 182.355 130.655 186.162 140.285 198.623C141.92 200.131 149.987 208.031 155.826 222.88C161.648 237.675 166.301 262.578 155.359 297.124C155.341 297.213 155.305 297.285 155.269 297.375L127.493 365.801C127.421 365.981 127.331 366.143 127.242 366.304C126.9 366.843 119.103 379.986 129.505 388.64C130.925 389.825 131.122 391.926 129.937 393.362C128.751 394.781 126.631 394.978 125.211 393.793C113.443 384.008 117.486 369.572 121.385 363.054L148.999 295.005C159.222 262.614 155.036 239.452 149.718 225.735C143.969 210.868 135.668 203.524 135.596 203.452C135.416 203.309 135.255 203.129 135.111 202.95C126.433 191.459 111.449 190.668 101.765 195.75C90.1407 201.854 86.3138 215.015 91.5062 231.031C109.976 259.472 107.442 298.506 83.7805 350.36C78.0492 362.911 74.7254 375.892 73.8989 388.945C72.4077 412.502 78.2828 443.816 114.701 459.293C116.408 460.011 117.198 461.986 116.48 463.692C115.941 464.931 114.701 465.685 113.389 465.685Z" fill="#000072"/>
<path d="M508.78 561.062C508.78 587.348 438.89 608.66 352.686 608.66C309.045 608.66 269.591 603.202 241.276 594.404C213.625 585.804 196.593 574.043 196.593 561.062C196.593 559.805 196.754 558.566 197.06 557.345L208.774 502.528L209.367 499.817C209.367 475.686 273.544 456.115 352.704 456.115C429.385 456.115 491.999 474.483 495.844 497.573V497.609L508.331 557.327C508.618 558.548 508.78 559.787 508.78 561.062Z" fill="#00A8FF"/>
<g opacity="0.35">
<path d="M331.809 542.281C349.919 544.723 368.82 544.83 388.637 542.281L394.71 607.421H327.335L331.809 542.281Z" fill="white"/>
</g>
<path d="M327.335 560.038C326.221 572.553 325.664 578.819 324.569 591.334C321.101 591.029 319.376 590.849 315.909 590.472C316.591 584.242 316.933 581.135 317.598 574.905C314.435 578.873 312.818 580.848 309.531 584.762C307.536 584.511 306.548 584.385 304.572 584.116C302.398 579.484 301.338 577.167 299.308 572.517C298.355 578.711 297.87 581.8 296.918 587.994C293.468 587.473 291.762 587.186 288.312 586.576C290.468 574.187 291.564 568.01 293.72 555.621C295.553 555.945 296.451 556.088 298.283 556.393C302.038 564.06 304.033 567.885 308.219 575.444C314.22 569.213 317.13 566.035 322.736 559.589C324.586 559.787 325.503 559.877 327.335 560.038Z" fill="#000072"/>
<path d="M351.77 592.878C348.302 592.788 346.559 592.734 343.092 592.573C343.667 580.022 343.954 573.738 344.511 561.188C347.727 561.331 349.344 561.385 352.56 561.475C352.255 574.025 352.093 580.31 351.77 592.878Z" fill="#000072"/>
<path d="M393.219 591.944C384.074 592.591 379.492 592.788 370.329 592.95C370.114 580.381 370.006 574.097 369.772 561.528C372.988 561.475 374.605 561.421 377.821 561.313C378.217 571.906 378.414 577.185 378.828 587.779C384.451 587.563 387.254 587.42 392.859 587.025C393.003 588.982 393.075 589.969 393.219 591.944Z" fill="#000072"/>
<path d="M437.093 586.576C433.41 587.222 431.56 587.527 427.858 588.084C424.589 584.511 422.99 582.715 419.845 579.088C418.893 580.794 418.408 581.656 417.438 583.344C417.761 585.786 417.905 587.007 418.228 589.449C414.779 589.897 413.054 590.095 409.586 590.472C408.221 577.975 407.538 571.727 406.173 559.23C409.389 558.889 410.988 558.692 414.186 558.279C414.833 563.342 415.174 565.856 415.821 570.919C418.839 565.389 420.277 562.606 423.043 557.022C426.493 556.501 428.218 556.214 431.667 555.621C428.613 562.211 426.996 565.479 423.618 572.014C428.865 577.921 431.56 580.848 437.093 586.576Z" fill="#000072"/>
<path d="M352.686 612C310.662 612 271.118 606.991 241.329 597.923C210.319 588.461 193.233 575.372 193.233 561.062C193.233 559.553 193.413 558.045 193.79 556.591L206.007 499.458C206.295 486.153 221.602 474.483 250.349 465.721C277.73 457.372 314.076 452.775 352.668 452.775C389.985 452.775 425.433 457.102 452.49 464.985C472.29 470.748 496.437 480.964 499.114 497.034C499.114 497.052 499.114 497.07 499.132 497.088L511.564 556.573C511.942 558.063 512.121 559.571 512.121 561.062C512.121 575.372 495.035 588.461 464.025 597.923C434.254 607.008 394.71 612 352.686 612ZM352.686 459.454C314.723 459.454 279.077 463.943 252.307 472.113C227.136 479.797 212.709 489.888 212.709 499.817C212.709 500.051 212.691 500.284 212.637 500.517L200.348 558.045C200.33 558.099 200.33 558.135 200.312 558.189C200.06 559.14 199.952 560.074 199.952 561.062C199.952 582.428 261.326 605.303 352.704 605.303C444.082 605.303 505.456 582.428 505.456 561.062C505.456 560.092 505.33 559.14 505.079 558.153C505.061 558.099 505.061 558.063 505.043 558.009L492.556 498.291C492.538 498.201 492.52 498.094 492.502 498.004C489.178 479.438 434.901 459.454 352.686 459.454Z" fill="#000072"/>
<path d="M495.826 500.912C494.28 500.912 492.879 499.835 492.556 498.255L492.412 497.573C492.035 495.759 493.185 493.982 494.999 493.605C496.814 493.228 498.592 494.377 498.97 496.19L499.113 496.873C499.491 498.686 498.341 500.464 496.526 500.841C496.275 500.895 496.059 500.912 495.826 500.912Z" fill="#462B5B"/>
<path d="M352.686 546.859C314.076 546.859 277.748 542.263 250.367 533.914C221.351 525.062 206.007 513.265 206.007 499.817C206.007 486.351 221.351 474.555 250.367 465.721C277.748 457.372 314.094 452.775 352.686 452.775C391.279 452.775 427.625 457.372 455.006 465.721C484.022 474.572 499.365 486.369 499.365 499.817C499.365 513.283 484.022 525.08 455.006 533.914C427.625 542.263 391.296 546.859 352.686 546.859ZM352.686 459.472C314.723 459.472 279.077 463.961 252.325 472.131C227.154 479.797 212.727 489.906 212.727 499.835C212.727 509.764 227.154 519.855 252.325 527.54C279.095 535.691 314.741 540.198 352.686 540.198C390.65 540.198 426.295 535.709 453.048 527.54C478.219 519.873 492.646 509.764 492.646 499.835C492.646 489.906 478.219 479.815 453.048 472.131C426.295 463.961 390.65 459.472 352.686 459.472Z" fill="#000072"/>
<path d="M356.387 532.657C306.494 532.657 261.685 524.792 242.192 512.619C235.041 508.148 231.43 503.193 231.43 497.86C231.43 475.273 295.804 463.063 356.387 463.063C416.952 463.063 481.327 475.255 481.327 497.86C481.327 503.175 477.697 508.148 470.565 512.619C451.089 524.792 406.262 532.657 356.387 532.657ZM356.387 468.827C286.138 468.827 237.179 484.142 237.179 497.878C237.179 501.882 241.563 505.455 245.246 507.753C263.877 519.388 307.5 526.911 356.387 526.911C405.274 526.911 448.897 519.388 467.528 507.753C471.211 505.455 475.595 501.864 475.595 497.878C475.577 484.142 426.636 468.827 356.387 468.827Z" fill="#000072"/>
<g opacity="0.2">
<path d="M477.841 497.878C477.841 502.241 474.482 506.407 468.427 510.195C449.993 521.704 406.496 529.802 355.777 529.802C305.039 529.802 261.542 521.722 243.108 510.195C237.054 506.407 233.694 502.241 233.694 497.878C233.694 480.246 288.348 465.954 355.777 465.954C423.187 465.954 477.841 480.246 477.841 497.878Z" fill="#000072"/>
</g>
<path d="M469.038 510.195C459.048 516.444 441.675 521.686 419.773 525.17C401.304 528.114 379.6 529.802 356.369 529.802C330.785 529.802 307.033 527.737 287.414 524.236C268.136 520.789 252.846 515.923 243.701 510.213C262.135 498.686 305.632 490.606 356.369 490.606C407.107 490.57 450.604 498.668 469.038 510.195Z" fill="white"/>
<g opacity="0.2">
<path d="M287.414 524.218C268.136 520.771 252.846 515.905 243.701 510.195C262.135 498.668 305.632 490.588 356.369 490.588C407.089 490.588 450.604 498.668 469.02 510.195C459.03 516.444 441.657 521.686 419.756 525.17C447.496 500.14 298.409 486.477 287.414 524.218Z" fill="#000072"/>
</g>
<path d="M356.387 532.657C306.494 532.657 261.685 524.793 242.192 512.619C241.347 512.098 240.844 511.183 240.844 510.177C240.844 509.19 241.347 508.274 242.192 507.735C261.667 495.562 306.494 487.68 356.387 487.68C406.28 487.68 451.089 495.544 470.565 507.735C471.409 508.256 471.912 509.172 471.912 510.177C471.912 511.165 471.409 512.081 470.565 512.619C451.089 524.793 406.262 532.657 356.387 532.657ZM249.612 510.195C270.13 520.448 310.986 526.929 356.387 526.929C401.771 526.929 442.627 520.448 463.145 510.195C442.627 499.943 401.771 493.461 356.387 493.461C310.986 493.461 270.13 499.943 249.612 510.195Z" fill="#000072"/>
<g opacity="0.3">
<path d="M327.156 504.557C321.909 504.952 316.681 505.563 311.489 506.335C306.296 507.125 301.14 508.077 296.073 509.316C293.54 509.926 291.025 510.608 288.563 511.38C286.102 512.152 283.659 512.996 281.305 514.002C278.951 514.989 276.687 516.102 274.585 517.395C272.501 518.688 270.597 520.196 269.177 521.884C268.153 523.105 266.339 523.249 265.135 522.225C263.913 521.202 263.77 519.388 264.794 518.185C264.848 518.131 264.901 518.078 264.955 518.024C267.111 515.833 269.573 514.235 272.07 512.942C274.567 511.65 277.137 510.644 279.724 509.764C282.311 508.885 284.916 508.202 287.539 507.592C290.162 506.981 292.786 506.479 295.427 506.066C300.691 505.204 305.973 504.629 311.273 504.234C316.555 503.857 321.855 503.624 327.156 503.624C327.425 503.624 327.641 503.839 327.641 504.109C327.605 504.324 327.425 504.539 327.156 504.557Z" fill="#000072"/>
<path d="M381.738 506.622C386.75 506.604 391.727 506.838 396.722 507.179C401.717 507.538 406.693 508.041 411.67 508.795C416.647 509.567 421.624 510.447 426.528 511.847C431.433 513.23 436.32 514.918 441.009 517.485C442.411 518.257 442.914 519.999 442.141 521.381C441.369 522.764 439.626 523.285 438.243 522.512C438.171 522.477 438.117 522.441 438.045 522.405L438.009 522.369C434.128 519.819 429.709 517.844 425.163 516.174C420.617 514.469 415.838 513.23 411.059 512.081C406.262 510.949 401.393 510.07 396.488 509.316C391.601 508.579 386.661 507.951 381.72 507.574C381.45 507.556 381.253 507.323 381.271 507.053C381.289 506.82 381.504 506.64 381.738 506.622Z" fill="#000072"/>
<path d="M359.657 517.826C354.914 517.629 350.117 517.826 345.392 518.221C340.649 518.634 335.941 519.317 331.306 520.25C328.97 520.681 326.689 521.274 324.407 521.83C323.275 522.135 322.143 522.477 321.011 522.8L319.322 523.285L317.651 523.859L314.328 525.008L311.076 526.319L309.459 526.983L307.878 527.737L304.733 529.228L304.572 529.3C303.134 529.982 301.428 529.371 300.745 527.935C300.062 526.499 300.673 524.793 302.11 524.111C302.182 524.075 302.254 524.039 302.326 524.021L305.793 522.71L307.518 522.064L309.279 521.507L312.8 520.412L316.358 519.496L318.136 519.047L319.933 518.688C321.137 518.455 322.323 518.185 323.526 517.97C325.934 517.593 328.341 517.18 330.767 516.929C335.6 516.372 340.433 516.067 345.284 516.067C350.117 516.049 354.95 516.264 359.747 516.875C360.017 516.911 360.196 517.144 360.16 517.413C360.124 517.665 359.909 517.844 359.675 517.826H359.657Z" fill="#000072"/>
</g>
<g opacity="0.2">
<path d="M252.038 529.784L243.719 591.837C243.719 591.837 242.839 592.788 241.276 594.386C213.625 585.786 196.593 574.025 196.593 561.044C196.593 559.787 196.754 558.548 197.06 557.327L208.774 502.51C210.732 512.386 219.698 525.439 252.038 529.784Z" fill="#000072"/>
</g>
<g opacity="0.2">
<path d="M450.729 529.784L459.048 591.837C459.048 591.837 459.928 592.788 461.491 594.386C489.142 585.786 506.174 574.025 506.174 561.044C506.174 559.787 506.013 558.548 505.707 557.327L493.993 502.51C492.035 512.386 483.069 525.439 450.729 529.784Z" fill="#000072"/>
</g>
<path d="M481.794 452.057C497.335 466.098 497.551 491.037 469.307 496.927C454.88 498.848 444.675 493.479 440.723 477.302" fill="white"/>
<g opacity="0.2">
<path d="M490.849 481.521C488.1 488.559 481.237 494.449 469.307 496.944C454.88 498.866 444.675 493.515 440.723 477.32L454.144 469.06C458.743 482.06 468.391 486.333 481.507 484.591C485.064 483.855 488.172 482.814 490.849 481.521Z" fill="#000072"/>
</g>
<path d="M284.323 225.303C335.079 196.109 408.347 201.369 444.244 232.485C536.179 213.83 533.789 232.001 501.216 315.743C525.974 416.237 494.981 477.014 393.488 487.536C252.559 500.122 156.653 448.556 211.056 290.857C189.981 211.747 204.031 186.862 284.323 225.303Z" fill="#8E8FB3"/>
<g opacity="0.6">
<path d="M521.518 251.302C519.075 231.839 497.479 230.295 444.244 241.086C408.329 209.988 335.079 204.727 284.323 233.904C227.873 206.864 204.175 211.137 202.414 243.582C200.474 203.47 223.201 196.037 284.323 225.303C335.079 196.109 408.347 201.369 444.244 232.485C504.468 220.258 524.213 223.831 521.518 251.302Z" fill="white"/>
</g>
<path d="M332.061 489.35C306.279 466.744 315.298 441.015 340.235 431.032C355.004 425.125 371.857 426.597 385.439 434.874C406.316 447.604 414.761 471.107 385.996 488.021" fill="white"/>
<path d="M264.686 246.832C217.758 221.318 215.53 227.692 230.209 282.885C240.27 268.593 251.553 256.258 264.686 246.832Z" fill="#FF699D"/>
<g opacity="0.2">
<path d="M264.686 246.831C261.129 249.381 257.715 252.146 254.427 255.127C234.843 245.162 225.429 243.133 222.914 251.015C219.266 226.47 229.184 227.53 264.686 246.831Z" fill="#000072"/>
</g>
<path d="M354.429 492.707C288.402 492.707 240.449 475.632 214.542 442.541C187.322 407.798 184.987 356.716 207.553 290.731C195.641 245.646 196.126 220.725 209.08 209.988C221.656 199.574 245.534 203.237 284.18 221.533C334.109 193.739 406.928 197.06 445.178 228.877C490.831 219.719 511.241 220.312 520.243 230.977C530.987 243.725 523.423 267.857 504.738 315.976C518.105 370.918 514.439 413.615 493.832 442.882C474.877 469.814 441.244 485.956 393.83 490.858C380.068 492.097 366.934 492.707 354.429 492.707ZM227.801 210.868C221.602 210.868 216.805 212.286 213.374 215.141C202.756 223.939 203.043 247.729 214.308 289.995C214.488 290.642 214.452 291.324 214.236 291.952C192.101 356.123 193.988 405.392 219.842 438.411C249.181 475.883 309.136 491.72 393.201 484.196C438.531 479.492 470.565 464.302 488.352 439.022C507.918 411.227 511.152 370.021 497.982 316.551C497.82 315.886 497.856 315.186 498.108 314.54C514.08 273.441 523.908 245.718 515.122 235.304C508.079 226.937 487.741 227.081 444.927 235.771C443.903 235.987 442.843 235.699 442.07 235.017C425.236 220.438 398.861 211.191 369.683 209.629C339.373 208.013 309.657 214.602 286.013 228.212C285.06 228.769 283.893 228.805 282.886 228.338C258.524 216.667 240.306 210.868 227.801 210.868Z" fill="#000072"/>
<g opacity="0.2">
<path d="M508.942 363.575C513.38 435.485 477.698 478.792 393.489 487.518C271.478 498.435 183.208 461.232 197.006 348.726C203.025 435.718 285.24 464.536 394.531 454.768C465.067 447.461 501.558 415.896 508.942 363.575Z" fill="#000072"/>
</g>
<path d="M230.208 286.225C230.011 286.225 229.813 286.207 229.616 286.171C228.34 285.937 227.298 284.986 226.957 283.729C218.333 251.284 215.871 236.831 223.04 231.193C229.921 225.788 243.001 231.229 266.267 243.887C267.273 244.443 267.938 245.467 268.01 246.616C268.082 247.765 267.561 248.878 266.627 249.543C254.571 258.197 243.558 269.724 232.939 284.788C232.311 285.704 231.286 286.225 230.208 286.225ZM229.831 235.789C228.699 235.789 227.801 236.005 227.208 236.471C222.986 239.793 227.496 259.274 231.664 275.218C240.18 263.943 249.037 254.732 258.506 247.298C249.54 242.522 236.137 235.789 229.831 235.789Z" fill="#000072"/>
<path d="M286.084 222.467L300.691 234.945C300.889 235.125 300.925 235.43 300.745 235.628C300.601 235.789 300.368 235.843 300.188 235.753L282.545 228.14C280.82 227.404 280.029 225.411 280.784 223.687C281.521 221.964 283.515 221.174 285.24 221.928C285.545 222.054 285.851 222.251 286.084 222.467Z" fill="#000072"/>
<path d="M462.606 251.302C474.733 264.804 484.094 278.307 490.706 291.809C509.355 246.113 515.823 243.959 462.606 251.302Z" fill="#FF699D"/>
<g opacity="0.2">
<path d="M502.617 262.416C498.377 260.136 489.053 260.854 472.434 263.045C469.397 259.131 466.109 255.216 462.588 251.302C500.551 246.077 508.151 245.664 502.617 262.416Z" fill="#000072"/>
</g>
<path d="M214.236 289.816L216.284 305.383C216.32 305.652 216.141 305.885 215.871 305.921C215.674 305.957 215.476 305.849 215.386 305.67L207.858 291.881C206.96 290.229 207.571 288.164 209.224 287.266C210.877 286.368 212.943 286.979 213.841 288.631C214.057 289.008 214.182 289.421 214.236 289.816Z" fill="#000072"/>
<path d="M490.687 295.166C489.412 295.166 488.244 294.448 487.669 293.281C481.237 280.12 471.966 266.744 460.09 253.529C459.264 252.613 459.012 251.302 459.444 250.135C459.875 248.968 460.899 248.142 462.139 247.963C489.771 244.156 501.18 242.845 505.797 248.878C510.037 254.408 506.336 263.188 498.952 280.695C497.407 284.357 495.646 288.523 493.796 293.066C493.293 294.286 492.125 295.094 490.795 295.148C490.759 295.166 490.723 295.166 490.687 295.166ZM469.217 253.78C477.716 263.781 484.794 273.872 490.346 283.891C491.209 281.844 492.017 279.922 492.79 278.109C497.928 265.936 502.366 255.414 500.497 252.972C498.323 250.153 484.776 251.679 469.217 253.78Z" fill="#000072"/>
<path d="M260.787 406.002C264.021 400.724 268.082 395.912 273.292 392.016C275.897 390.094 278.808 388.389 282.096 387.275C283.749 386.737 285.455 386.252 287.252 386.054C288.132 385.911 289.049 385.893 289.965 385.857C290.881 385.857 291.798 385.911 292.714 386.001C296.361 386.414 299.901 387.778 302.811 389.735C305.74 391.692 308.147 394.116 310.141 396.72C314.112 401.945 316.573 407.816 317.921 413.885C318.047 414.423 317.705 414.944 317.166 415.052C316.807 415.124 316.43 414.998 316.214 414.729L316.196 414.711C314.184 412.376 312.351 410.042 310.465 407.816C308.56 405.607 306.638 403.489 304.644 401.603C302.631 399.736 300.547 398.084 298.391 396.845C296.235 395.589 293.99 394.852 291.69 394.511C287.072 393.901 281.988 395.373 277.029 397.941C272.034 400.454 267.255 403.902 262.207 407.295L262.189 407.313C261.74 407.618 261.129 407.493 260.823 407.044C260.608 406.739 260.608 406.326 260.787 406.002Z" fill="#000072"/>
<path d="M376.851 456.582C374.857 463.028 371.641 467.822 368.425 472.616C364.598 467.588 359.963 471.251 359.963 471.251C355.812 467.427 351.033 470.138 351.033 470.138C351.033 470.138 350.656 470.21 349.991 470.335C350.009 470.281 350.009 470.228 350.027 470.174L349.111 456.582C353.944 456.977 358.957 455.504 364.185 452.057C367.167 455.307 371.353 456.851 376.851 456.582Z" fill="#000072"/>
<path d="M406.622 421.39C409.299 415.752 412.784 410.509 417.222 405.841C419.468 403.525 421.947 401.352 424.858 399.557C427.769 397.761 431.146 396.325 434.901 395.822C435.854 395.75 436.788 395.642 437.758 395.696C438.243 395.714 438.728 395.714 439.195 395.768L440.633 395.966C441.118 396.019 441.567 396.145 442.034 396.271C442.501 396.396 442.968 396.504 443.417 396.666C444.298 397.025 445.214 397.294 446.023 397.743C449.346 399.431 452.041 401.783 454.161 404.368C458.42 409.575 460.971 415.447 462.498 421.533C462.624 422.054 462.3 422.593 461.779 422.718C461.402 422.808 461.043 422.683 460.809 422.413L460.791 422.377C458.761 420.043 456.928 417.655 454.97 415.465C453.03 413.256 451.071 411.173 448.987 409.396C446.921 407.618 444.765 406.164 442.573 405.284C442.034 405.015 441.477 404.907 440.938 404.71C440.381 404.602 439.842 404.44 439.285 404.386C438.189 404.189 437.075 404.261 435.943 404.35C433.68 404.62 431.308 405.482 428.954 406.667C426.601 407.87 424.265 409.432 421.965 411.155C417.348 414.567 412.928 418.643 408.149 422.539H408.131C407.718 422.88 407.089 422.826 406.748 422.395C406.496 422.126 406.46 421.713 406.622 421.39Z" fill="#000072"/>
<path d="M377.391 433.976C373.186 428.751 361.634 427.746 354.465 431.391C352.669 432.306 352.13 434.605 353.315 436.239C356.136 440.099 359.46 442.918 363.305 444.57C368.282 443.636 372.935 441.876 376.906 438.447C378.235 437.316 378.487 435.341 377.391 433.976Z" fill="#000072"/>
<path d="M365.712 443.349V450.998C365.712 451.572 365.515 452.111 365.173 452.506L365.084 452.614C363.107 454.984 360.322 456.761 357.268 457.749C354.214 458.736 350.782 458.7 347.818 457.551C344.835 456.42 342.464 454.194 340.883 451.68C339.301 449.13 338.511 446.258 338.259 443.421C338.241 443.151 338.439 442.918 338.691 442.9C338.924 442.882 339.14 443.044 339.194 443.259V443.277C339.823 445.934 340.99 448.412 342.643 450.405C344.296 452.38 346.47 453.888 348.824 454.409C351.177 454.984 353.603 454.678 355.741 453.691C357.915 452.721 359.676 451.034 361.526 449.364L360.897 450.98V443.331C360.897 442.002 361.975 440.943 363.287 440.943C364.652 440.943 365.712 442.02 365.712 443.349Z" fill="#000072"/>
<path d="M365.029 498.453C362.442 499.656 359.46 499.853 356.819 498.758C349.021 495.49 346.973 485.776 350.009 470.335C350.674 470.209 351.051 470.138 351.051 470.138C351.051 470.138 355.848 467.426 359.981 471.251C359.981 471.251 364.598 467.588 368.443 472.615C375.773 488.829 372.036 495.203 365.029 498.453Z" fill="#F43737"/>
<g opacity="0.3">
<path d="M365.03 498.453C362.442 499.656 359.46 499.853 356.819 498.758C349.219 495.58 347.081 486.261 349.776 471.52C349.812 479.941 352.453 485.417 357.933 487.698C360.574 488.793 363.538 488.613 366.143 487.392C368.551 486.279 370.581 484.771 371.893 482.652C373.797 491.702 370.348 495.993 365.03 498.453Z" fill="#462B5B"/>
</g>
<path d="M365.245 449.579C366.772 451.249 368.515 452.578 370.599 453.404C372.665 454.247 375.072 454.553 377.408 454.194C379.744 453.834 382.044 452.865 383.84 451.213C384.721 450.387 385.457 449.382 386.032 448.268C386.589 447.155 386.93 445.898 387.11 444.588C387.146 444.318 387.38 444.139 387.649 444.175C387.865 444.211 388.044 444.39 388.062 444.588C388.386 447.389 387.649 450.513 385.781 452.919C383.948 455.343 381.253 457.102 378.306 457.982C375.36 458.862 372.108 458.952 369.036 458.054C365.963 457.156 363.125 455.145 361.4 452.434C360.681 451.321 361.023 449.831 362.137 449.13C363.143 448.502 364.418 448.699 365.191 449.525L365.245 449.579Z" fill="#000072"/>
<path d="M360.502 501.864C358.921 501.864 357.358 501.559 355.902 500.948C347.135 497.286 344.35 486.872 347.62 470.012L346.721 456.725L351.501 456.402L352.417 469.994C352.435 470.209 352.417 470.407 352.381 470.622C349.506 485.112 351.321 493.838 357.753 496.514C359.657 497.304 361.939 497.214 364.023 496.262C369.144 493.892 373.402 489.349 366.251 473.567C365.91 472.813 365.982 471.933 366.449 471.251C369.647 466.457 372.665 461.95 374.57 455.845L379.133 457.264C377.175 463.53 374.156 468.288 371.156 472.813C377.39 487.249 375.755 496.101 366.036 500.589C364.257 501.451 362.37 501.864 360.502 501.864Z" fill="#000072"/>
<path d="M366.521 474.07C364.437 471.341 362.263 472.526 361.436 473.154C360.52 473.854 359.19 473.8 358.346 473.028C355.507 470.407 352.237 472.22 352.219 472.238L349.866 468.073C351.806 466.978 356.208 465.828 360.179 468.396C361.292 467.893 362.874 467.408 364.67 467.642C366.179 467.821 368.371 468.593 370.348 471.179L366.521 474.07Z" fill="#000072"/>
<path d="M361.886 471.251L360.448 483.371C360.412 483.64 360.179 483.819 359.909 483.801C359.676 483.783 359.514 483.604 359.496 483.371L358.059 471.251C357.933 470.192 358.687 469.24 359.747 469.114C360.808 468.989 361.76 469.743 361.886 470.802C361.903 470.946 361.903 471.107 361.886 471.251Z" fill="#000072"/>
<path d="M276.275 494.574C271.298 498.309 264.758 499.458 258.829 497.537C252.289 495.4 245.803 491.63 239.335 486.477C236.389 484.125 232.508 483.245 228.825 484.125C228.556 484.196 228.268 484.25 227.963 484.34C225.429 485.004 222.339 486.118 218.728 487.913C212.709 490.912 205.54 490.768 199.665 487.5C177.602 475.147 182.094 440.71 202.72 414.316C204.211 418.284 205.882 422.09 207.768 425.735C212.134 434.228 217.632 441.859 224.333 448.592C227.675 447.137 231.268 446.114 234.988 445.521C251.247 442.846 269.879 447.82 280.73 456.743C292.391 466.331 295.086 480.462 276.275 494.574Z" fill="#8E8FB3"/>
<path d="M276.275 494.574C271.298 498.309 264.758 499.458 258.829 497.537C252.289 495.4 245.804 491.63 239.336 486.477C236.389 484.125 232.508 483.245 228.825 484.125C228.556 484.196 228.268 484.25 227.963 484.34C212.943 468.558 228.304 448.592 228.304 448.592C228.304 448.592 230.837 447.317 235.006 445.521C268.711 439.955 312.603 467.319 276.275 494.574Z" fill="white"/>
<path d="M264.668 501.81C262.351 501.81 260.033 501.451 257.787 500.715C251.086 498.525 244.169 494.61 237.233 489.08C235.095 487.375 232.239 486.728 229.598 487.375C226.651 488.075 223.489 489.26 220.201 490.912C213.14 494.431 204.84 494.251 198.012 490.427C189.856 485.866 184.502 478.289 182.543 468.522C179.201 451.913 185.921 430.367 200.061 412.269C200.815 411.317 202.019 410.832 203.205 411.012C204.409 411.192 205.415 412.017 205.828 413.149C210.391 425.322 216.877 435.916 225.142 444.642C235.652 440.728 248.696 440.368 261.363 443.69C274.568 447.155 285.366 454.212 290.235 462.579C293.361 467.947 298.463 482.096 278.269 497.232C274.298 500.248 269.501 501.81 264.668 501.81ZM231.628 480.444C235.149 480.444 238.635 481.629 241.42 483.855C247.726 488.883 253.924 492.42 259.871 494.341C264.722 495.921 270.112 495.005 274.263 491.881C282.294 485.848 290.576 476.458 284.468 465.954C276.383 452.075 246.414 442.631 225.681 451.644C224.423 452.201 222.95 451.913 221.962 450.944C213.625 442.577 206.888 432.576 201.875 421.139C191.293 436.598 186.442 453.835 189.137 467.193C190.736 475.093 194.832 480.947 201.318 484.592C206.223 487.339 212.17 487.464 217.255 484.933C220.992 483.065 224.639 481.701 228.07 480.875C229.22 480.588 230.424 480.444 231.628 480.444Z" fill="#000072"/>
<path d="M225.896 451.554L209.367 457.013C209.116 457.102 208.846 456.959 208.756 456.707C208.685 456.51 208.756 456.294 208.918 456.169L222.77 445.629C224.262 444.498 226.4 444.785 227.531 446.275C228.663 447.766 228.376 449.902 226.885 451.034C226.579 451.267 226.238 451.429 225.896 451.554Z" fill="#000072"/>
<path d="M266.716 480.121C267.992 480.731 269.178 481.413 270.364 482.203C271.531 482.993 272.681 483.855 273.759 484.897C274.819 485.938 275.861 487.087 276.688 488.541C277.496 489.978 278.125 491.719 278.269 493.659L278.305 494.125C278.431 496.029 276.993 497.681 275.089 497.824C273.184 497.95 271.531 496.513 271.388 494.61C271.352 494.125 271.424 493.641 271.585 493.192C271.855 492.456 271.945 491.522 271.801 490.481C271.657 489.421 271.226 488.308 270.723 487.195C270.202 486.082 269.501 484.986 268.747 483.927C267.974 482.886 267.13 481.844 266.213 480.893L266.195 480.875C266.016 480.677 266.016 480.372 266.195 480.192C266.321 480.049 266.537 480.031 266.716 480.121Z" fill="#000072"/>
<path d="M273.993 468.073C275.502 468.037 276.975 468.198 278.484 468.504C279.976 468.809 281.467 469.276 282.922 469.958C284.395 470.622 285.779 471.556 287.054 472.705C288.366 473.836 289.39 475.309 290.306 476.853C291.259 478.469 290.737 480.552 289.121 481.503C287.504 482.455 285.419 481.934 284.467 480.318C284.27 479.995 284.144 479.636 284.072 479.295L284.054 479.241C283.838 478.199 283.587 477.068 283.012 476.063C282.455 475.039 281.736 474.016 280.802 473.154C279.886 472.256 278.826 471.448 277.64 470.766C276.472 470.084 275.178 469.473 273.885 469.042L273.849 469.024C273.597 468.935 273.454 468.665 273.543 468.414C273.615 468.198 273.795 468.073 273.993 468.073Z" fill="#000072"/>
<path d="M464.133 500.643C450.263 500.643 441.082 492.941 437.471 478.11C437.04 476.314 438.135 474.501 439.932 474.07C441.729 473.639 443.543 474.734 443.975 476.53C447.263 489.96 455.132 495.4 468.733 493.641C479.333 491.396 486.286 486.028 488.316 478.523C490.436 470.694 486.987 461.286 479.53 454.535C478.165 453.296 478.057 451.177 479.297 449.795C480.537 448.43 482.657 448.322 484.04 449.561C493.347 457.964 497.569 470.03 494.784 480.264C492.053 490.355 483.232 497.429 469.99 500.212C469.9 500.23 469.829 500.248 469.739 500.248C467.798 500.518 465.93 500.643 464.133 500.643Z" fill="#000072"/>
<path d="M458.761 483.747L460.665 494.538C461.007 496.424 459.731 498.219 457.845 498.56C455.958 498.901 454.161 497.627 453.82 495.741C453.712 495.113 453.784 494.485 453.982 493.928L457.809 483.658C457.898 483.406 458.186 483.263 458.437 483.37C458.617 483.424 458.743 483.568 458.761 483.747Z" fill="#000072"/>
<path d="M477.428 480.911L482.01 490.965C482.8 492.707 482.028 494.772 480.285 495.562C478.542 496.352 476.476 495.58 475.686 493.838C475.416 493.264 475.326 492.653 475.38 492.061L476.458 481.054C476.476 480.785 476.728 480.587 476.997 480.605C477.213 480.641 477.356 480.749 477.428 480.911Z" fill="#000072"/>
<g opacity="0.2">
<path d="M275.592 494.305C270.615 498.04 264.076 499.189 258.147 497.268C251.607 495.131 245.121 491.361 238.653 486.207C235.706 483.855 231.826 482.976 228.142 483.855C227.873 483.927 227.585 483.981 227.28 484.071C224.747 484.735 221.656 485.848 218.045 487.644C212.026 490.642 204.858 490.499 198.983 487.231C176.92 474.878 181.411 440.44 202.037 414.046C203.528 418.014 205.199 421.821 207.086 425.466L208.469 428.967C208.469 428.967 189.191 472.382 220.704 470.658C252.218 468.935 254.086 474.501 264.165 474.429C274.137 474.357 285.132 467.373 280.066 456.492C291.708 466.044 294.421 480.193 275.592 494.305Z" fill="#000072"/>
</g>
<path d="M209.295 410.419C209.17 410.365 208.936 410.276 208.738 410.204C208.541 410.132 208.325 410.042 208.092 409.97C207.642 409.827 207.211 409.665 206.744 409.54C205.846 409.252 204.911 409.037 203.977 408.803C203.043 408.588 202.091 408.408 201.138 408.229C200.186 408.103 199.234 407.924 198.264 407.816C194.401 407.349 190.484 407.349 186.586 407.816L185.112 407.977C184.627 408.049 184.142 408.157 183.657 408.247C182.687 408.444 181.717 408.588 180.764 408.821C178.878 409.36 176.937 409.827 175.105 410.599L173.704 411.12C173.236 411.281 172.769 411.479 172.338 411.712L169.643 413.023C168.727 413.436 167.9 413.992 167.038 414.513L164.469 416.093L164.415 416.129C164.145 416.291 163.804 416.201 163.642 415.949C163.499 415.698 163.552 415.393 163.768 415.213L166.193 413.31C167.02 412.682 167.793 411.999 168.691 411.479L171.314 409.791C171.745 409.486 172.212 409.252 172.679 409.019L174.063 408.301C175.895 407.277 177.854 406.559 179.812 405.751C180.8 405.374 181.806 405.105 182.813 404.781C183.316 404.638 183.819 404.458 184.322 404.315L185.867 403.956C189.981 402.968 194.239 402.483 198.515 402.501C199.575 402.501 200.653 402.555 201.731 402.591C202.791 402.681 203.869 402.753 204.947 402.86C206.025 402.986 207.085 403.13 208.163 403.327C208.702 403.417 209.241 403.525 209.78 403.65C210.05 403.704 210.319 403.758 210.607 403.848C210.876 403.92 211.146 403.974 211.505 404.081L211.649 404.117C213.428 404.656 214.434 406.523 213.895 408.301C213.356 410.078 211.487 411.084 209.708 410.545C209.583 410.527 209.421 410.473 209.295 410.419Z" fill="#000072"/>
<path d="M217.668 428.177C217.327 428.303 216.788 428.536 216.338 428.751C215.871 428.967 215.386 429.218 214.919 429.452C213.985 429.954 213.033 430.475 212.116 431.05C210.266 432.181 208.487 433.438 206.798 434.784C203.384 437.495 200.312 440.656 197.671 444.175C195.012 447.694 192.856 451.59 191.185 455.738C189.55 459.885 188.436 464.284 187.825 468.773C187.789 469.078 187.502 469.294 187.197 469.258C186.909 469.222 186.694 468.971 186.711 468.683C186.855 464.069 187.538 459.454 188.796 454.93C190.089 450.441 191.958 446.06 194.419 442.002C196.863 437.944 199.845 434.174 203.277 430.834C204.983 429.164 206.798 427.566 208.721 426.112C209.673 425.376 210.661 424.676 211.685 423.993C212.188 423.652 212.709 423.329 213.248 423.006C213.805 422.683 214.272 422.395 214.973 422.036L214.991 422.018C216.644 421.174 218.674 421.839 219.5 423.491C220.327 425.142 219.68 427.171 218.027 427.997C217.901 428.087 217.794 428.141 217.668 428.177Z" fill="#000072"/>
</g>
<defs>
<clipPath id="clip0_243_4792">
<rect width="475" height="426" fill="white" transform="translate(67 186)"/>
</clipPath>
</defs>
</svg>
