<svg width="699" height="745" viewBox="0 0 699 745" fill="none" xmlns="http://www.w3.org/2000/svg">
<ellipse cx="386" cy="392.5" rx="313" ry="299.5" fill="#B0A2D7"/>
<path d="M275.951 405.144C258.318 404.849 243.599 414.814 235.726 448.693L284.37 456.275L275.951 405.144Z" fill="white"/>
<path d="M284.859 459.245C284.518 459.301 284.188 459.292 283.852 459.242L235.208 451.659C234.355 451.524 233.624 451.073 233.14 450.39C232.656 449.707 232.495 448.865 232.689 448.049C239.961 416.769 254.153 401.743 276.04 402.1C277.532 402.13 278.797 403.172 279.035 404.615L287.454 455.746C287.613 456.716 287.291 457.68 286.573 458.37C286.106 458.849 285.497 459.14 284.859 459.245ZM239.54 446.222L280.617 452.614L273.302 408.186C262.143 408.689 247.756 414.299 239.54 446.222Z" fill="#390075"/>
<path d="M632.872 610.91C559.503 597.95 548.393 647.636 501.853 639.41C455.312 631.185 455.251 581.136 455.251 581.136C455.251 581.136 474.449 534.482 520.986 542.687C567.524 550.892 559.503 597.95 632.872 610.91Z" fill="url(#paint0_linear_261_2103)"/>
<g opacity="0.5">
<path d="M599.935 609.194C563.046 590.248 560.705 558.899 523.515 552.333C476.977 544.128 457.779 590.782 457.779 590.782C457.779 590.782 457.789 595.356 459.071 601.945C455.257 590.604 455.233 581.159 455.233 581.159C455.233 581.159 474.431 534.506 520.968 542.711C567.505 550.915 559.484 597.974 632.854 610.934C620.211 608.672 609.392 608.314 599.935 609.194Z" fill="white"/>
</g>
<g opacity="0.3">
<path d="M463.031 611.25C469.719 617.733 478.873 622.984 491.42 625.197C529.896 631.997 544.155 599.185 589.456 594.967C599.957 601.754 613.612 607.514 632.893 610.906C559.524 597.947 548.415 647.632 501.874 639.407C480.905 635.721 469.383 623.53 463.031 611.25Z" fill="#390075"/>
</g>
<path d="M575.005 601.647C532.295 594.105 511.94 626.162 484.861 621.363C457.781 616.564 458.983 581.093 458.983 581.093C458.983 581.093 471.401 547.589 498.502 552.385C525.578 557.163 532.292 594.084 575.005 601.647Z" fill="#FFD553"/>
<path d="M521.429 642.606C515.296 643.616 508.681 643.688 501.271 642.387C481.177 638.832 466.295 627.088 458.227 608.376C452.216 594.452 452.127 581.692 452.128 581.162C452.131 580.781 452.197 580.388 452.356 580.023C452.558 579.524 457.517 567.67 468.443 556.719C483.108 542.038 501.47 536.134 521.564 539.689C543.235 543.514 554.19 555.587 565.785 568.358C579.866 583.877 595.837 601.437 635.619 608.466C636.947 608.692 637.903 609.721 638.104 610.938C638.158 611.268 638.152 611.629 638.079 611.98C637.758 613.622 636.123 614.717 634.435 614.423C594.677 607.411 572.927 619.17 553.727 629.555C543.332 635.228 533.29 640.653 521.429 642.606ZM458.384 581.7C458.482 584.289 459.168 594.96 464.056 606.188C471.386 623.073 484.301 633.233 502.438 636.454C521.969 639.911 535.322 632.671 550.766 624.323C565.506 616.345 581.673 607.603 605.751 606.393C583.725 597.351 571.887 584.301 561.094 572.414C549.742 559.92 539.961 549.138 520.387 545.688C502.253 542.487 486.315 547.569 473.033 560.815C464.2 569.599 459.457 579.32 458.384 581.7Z" fill="#390075"/>
<path d="M422.635 622.542L439.723 622.185C447.459 622.013 454.523 617.757 458.102 611.067C468.78 591.174 473.68 568.865 472.264 546.579C471.796 539.093 467.104 532.514 460.08 529.434L444.57 522.645L422.635 622.542Z" fill="#3CAFD6"/>
<path d="M442.894 622.447C441.851 622.619 440.794 622.708 439.726 622.736L422.638 623.092C422.464 623.099 422.298 623.021 422.189 622.89C422.08 622.76 422.028 622.578 422.068 622.423L444.007 522.547C444.044 522.372 444.152 522.227 444.315 522.157C444.479 522.088 444.652 522.081 444.815 522.139L460.324 528.927C467.558 532.079 472.344 538.833 472.827 546.549C474.261 568.939 469.332 591.338 458.603 611.323C455.427 617.269 449.58 621.346 442.894 622.447ZM423.348 621.958L439.717 621.614C447.236 621.457 454.101 617.318 457.579 610.814C468.207 591.014 473.082 568.815 471.682 546.632C471.224 539.335 466.676 532.966 459.838 529.961L444.986 523.445L423.348 621.958Z" fill="#102770"/>
<path d="M422.634 622.542L439.723 622.185C447.459 622.013 454.522 617.757 458.101 611.067C468.78 591.174 473.68 568.865 472.263 546.579C471.796 539.093 467.104 532.514 460.079 529.434L444.57 522.645L422.634 622.542Z" fill="#20A7D1"/>
<g opacity="0.3">
<path d="M461.427 595.796C457.848 602.486 450.784 606.742 443.048 606.915L425.981 607.267L422.635 622.542L439.723 622.186C447.459 622.013 454.523 617.757 458.102 611.067C464.727 598.706 469.144 585.416 471.188 571.796C468.807 580.048 465.562 588.103 461.427 595.796Z" fill="#390075"/>
</g>
<g opacity="0.5">
<path d="M464.443 593.795C467.065 583.682 468.348 573.281 468.264 562.808C468.237 560.652 468.164 558.482 468.028 556.322C467.782 552.57 466.502 549.053 464.397 546.094C462.291 543.136 459.356 540.717 455.844 539.177L441.536 532.911L444.519 519.285L460.032 526.094C463.544 527.635 466.476 530.033 468.585 533.012C470.691 535.97 471.991 539.484 472.216 543.239C472.353 545.399 472.426 547.569 472.449 549.705C472.607 564.741 469.862 579.683 464.443 593.795Z" fill="white"/>
</g>
<path d="M519.707 454.557C506.465 459.279 444.109 480.923 437.934 515.285L384.463 478.648C385.003 477.012 385.642 475.318 386.413 473.624C397.526 449.063 434.388 418.567 517.898 451.275C518.528 451.51 519.139 451.769 519.768 452.005C520.977 452.441 520.923 454.103 519.707 454.557Z" fill="#EC1C24"/>
<g opacity="0.3">
<path d="M519.707 454.556C506.466 459.279 444.109 480.923 437.934 515.284L384.463 478.647C385.003 477.012 385.642 475.318 386.413 473.623L385.167 475.883C389.858 474.751 397.166 473.971 403.625 475.873C427.296 482.822 440.079 484.743 454.383 474.782C472.321 462.316 503.456 451.364 517.898 451.274C518.528 451.509 519.139 451.769 519.768 452.004C520.978 452.441 520.923 454.102 519.707 454.556Z" fill="#390075"/>
</g>
<g opacity="0.5">
<path d="M515.163 453.928C518.455 452.666 517.061 453.234 519.687 452.314C520.906 451.881 520.961 450.219 519.766 449.738C429.043 413.473 392.628 451.203 384.461 476.381L390.253 480.342C402.58 457.975 444.794 430.496 515.163 453.928Z" fill="white"/>
</g>
<path d="M438.423 518.255C438.082 518.311 437.753 518.302 437.395 518.255C435.71 517.981 434.558 516.434 434.854 514.775C437.719 498.838 453.954 475.362 514.517 453.187C475.097 438.133 441.735 435.957 417.839 446.904C396.83 456.528 389.576 472.912 387.423 479.495C386.898 481.086 385.144 481.989 383.513 481.516C381.879 481.022 380.966 479.329 381.47 477.742C383.866 470.378 391.924 452.103 415.212 441.447C433.578 433.042 466.858 427.541 520.965 449.181C522.697 449.87 523.799 451.51 523.729 453.344C523.68 455.174 522.499 456.767 520.722 457.398L520.103 457.627C459.478 479.155 443.609 501.131 440.99 515.777C440.764 517.064 439.701 518.044 438.423 518.255Z" fill="#390075"/>
<path d="M349.036 639.935C345.933 666.122 363.121 715.915 461.563 716.971C462.857 716.991 463.52 715.441 462.569 714.581C452.417 705.258 404.681 660.283 413.503 626.46" fill="#D25658"/>
<path d="M461.584 716.968C462.875 716.967 463.542 715.438 462.591 714.578C457.386 709.799 442.33 695.67 430.072 678.473C418.474 662.228 409.376 643.24 413.451 626.808C413.476 626.698 413.52 626.563 413.545 626.453L413.165 626.537L349.078 639.928C348.21 647.274 348.941 656.496 352.62 665.953C361.998 690.233 390.751 716.217 461.584 716.968Z" fill="#EC1C24"/>
<g opacity="0.3">
<path d="M430.051 678.477C418.452 662.231 409.355 643.243 413.429 626.811C413.327 626.722 413.222 626.612 413.12 626.523L349.032 639.914C348.164 647.26 348.895 656.482 352.574 665.939C370.144 675.948 395.199 681.864 430.051 678.477Z" fill="#390075"/>
</g>
<path d="M462.336 719.937C462.059 719.982 461.8 720.004 461.516 720.008C403.542 719.385 375.435 701.706 362.075 686.979C344.733 667.866 345.032 647.5 345.943 639.618C346.129 637.956 347.68 636.747 349.394 636.931C351.105 637.094 352.335 638.587 352.128 640.252C351.482 645.76 350.584 665.144 366.751 682.968C384.142 702.115 415.38 712.775 457.293 713.882C438.249 695.854 402.369 656.871 410.477 625.751C410.911 624.133 412.605 623.133 414.265 623.517C415.928 623.921 416.941 625.555 416.528 627.169C408.544 657.846 451.401 700.15 464.744 712.38C466.107 713.617 466.511 715.542 465.804 717.226C465.191 718.683 463.869 719.684 462.336 719.937Z" fill="#390075"/>
<path d="M446.146 542.448C446.401 570.56 438.324 598.413 422.634 622.542C422.634 622.542 352.789 659.676 237.101 628.665C101.297 592.239 69.797 500.823 69.797 500.823C69.797 500.823 127.111 439.652 245.754 444.246C255.747 444.634 266.167 445.482 277.025 446.872C313.513 451.562 343.371 460.48 367.239 470.616C421.277 493.559 444.57 522.645 444.57 522.645C445.547 529.242 446.088 535.848 446.146 542.448Z" fill="white"/>
<g opacity="0.3">
<path d="M237.148 622.302C352.839 653.333 422.681 616.178 422.681 616.178C430.183 604.626 435.948 592.216 439.887 579.344C443.64 567.074 445.746 554.356 446.107 541.543C446.011 535.246 445.496 528.933 444.57 522.645C444.57 522.645 432.155 507.148 404.439 489.849C413.153 497.481 417.253 502.59 417.253 502.59C420.44 523.801 418.757 545.326 412.524 565.652C412.48 565.786 412.437 565.92 412.411 566.03C404.888 590.339 384.254 608.884 358.8 614.621C327.104 621.768 274.593 624.97 209.343 604.466C191.536 598.861 173.626 577.363 170.446 555.261C163.729 508.49 184.977 466.18 176.631 464.377C165.316 461.94 139.997 550.72 128.024 568.729C153.237 589.152 188.501 609.254 237.148 622.302Z" fill="#390075"/>
</g>
<path d="M152.877 592.812C152.874 542.986 163.726 493.597 184.701 447.901C107.395 460.715 69.7794 500.846 69.7794 500.846C69.7794 500.846 87.3593 551.825 152.877 592.812Z" fill="#EC1C24"/>
<g opacity="0.3">
<path d="M152.967 584.726C154.076 537.661 164.829 491.127 184.701 447.901C183.296 448.132 181.89 448.364 180.492 448.636C162.091 480.075 149.432 503.747 142.457 534.045C139.574 546.553 123.95 551.689 114.142 543.262C95.6858 527.341 81.6881 511.003 72.8927 497.834C72.8177 497.91 72.7606 497.962 72.6856 498.038C78.7351 511.532 100.075 551.341 152.967 584.726Z" fill="#390075"/>
</g>
<g opacity="0.5">
<path d="M150.546 590.612C150.538 589.766 150.554 588.937 150.55 588.111C123.612 568.502 106.509 547.782 96.1614 532.093C86.452 517.358 90.7028 497.613 105.811 487.753C121.553 477.492 145.281 465.26 177.234 457.414C178.861 453.481 180.577 449.555 182.366 445.68C132.077 454.003 98.5872 473.902 81.3304 486.785C72.4489 493.416 69.8537 505.283 75.1881 514.701C85.605 533.069 107.927 563.967 150.546 590.612Z" fill="white"/>
</g>
<path d="M153.366 595.782C152.62 595.905 151.831 595.759 151.171 595.338C103.33 565.401 80.6726 530.342 71.4352 512.098C67.8039 504.921 69.7025 496.262 76.0639 491.062C92.2136 477.832 127.743 454.25 184.226 444.886C185.355 444.7 186.496 445.126 187.188 446.008C187.88 446.89 188.028 448.052 187.563 449.082C166.618 494.688 155.99 543.045 155.996 592.764C156.003 593.865 155.364 594.902 154.361 595.449C154.04 595.629 153.706 595.726 153.366 595.782ZM179.514 451.869C127.786 461.551 95.1483 483.301 80.0185 495.686C75.875 499.08 74.6396 504.728 77.0092 509.422C85.6595 526.492 106.437 558.767 149.79 587.219C150.535 540.469 160.526 495.013 179.514 451.869Z" fill="#390075"/>
<path d="M372.623 640.394C343.088 645.257 295.784 647.538 236.247 631.58C204.625 623.102 176.003 610.93 151.156 595.383C150.232 594.815 149.714 593.799 149.761 592.753C149.771 542.205 160.575 493.056 181.855 446.696C182.291 445.755 183.168 445.103 184.211 444.931C184.318 444.913 184.424 444.896 184.509 444.882C213.746 440.068 245.013 439.749 277.454 443.899C339.569 451.869 382.275 472.271 407.17 487.98C434.285 505.081 446.523 520.162 447.022 520.8C447.352 521.212 447.561 521.686 447.646 522.202C450.281 539.796 449.685 557.562 445.844 575.015C442.003 592.468 435.078 608.989 425.26 624.143C424.984 624.591 424.584 624.953 424.1 625.202C423.378 625.596 405.8 634.804 373.734 640.232C373.368 640.271 373.006 640.331 372.623 640.394ZM155.994 591.155C179.974 605.955 207.546 617.6 237.955 625.749C296.441 641.434 342.809 639.18 371.62 634.436C371.876 634.394 372.153 634.349 372.408 634.307C400.077 629.666 416.917 621.957 420.46 620.23C429.649 605.9 436.152 590.275 439.759 573.793C443.388 557.307 443.994 540.535 441.608 523.916C439.091 520.983 426.887 507.57 403.466 492.848C379.142 477.553 337.375 457.674 276.578 449.869C245.253 445.853 215.089 446.096 186.85 450.597C166.582 495.266 156.213 542.542 155.994 591.155Z" fill="#390075"/>
<path d="M443.294 624.881C442.123 625.074 440.959 625.18 439.761 625.208L422.672 625.565C420.949 625.594 419.552 624.278 419.518 622.61C419.505 620.938 420.873 619.548 422.596 619.518L439.684 619.162C446.289 619.028 452.274 615.394 455.339 609.699C465.769 590.293 470.545 568.555 469.152 546.815C468.737 540.443 464.776 534.846 458.786 532.21L443.277 525.421C441.722 524.745 441.033 522.952 441.746 521.436C442.459 519.921 444.314 519.234 445.869 519.91L461.378 526.699C469.463 530.24 474.815 537.769 475.359 546.387C476.821 569.216 471.793 592.076 460.845 612.458C457.299 619.079 450.747 623.654 443.294 624.881Z" fill="#390075"/>
<path d="M419.661 596.381C452.687 602.891 490.807 583.882 490.807 583.882C490.807 583.882 490.698 583.752 490.511 583.549C487.516 580.102 461.855 551.64 430.839 545.519C401.066 539.638 372.549 555.858 367.518 558.911C367.001 559.229 366.724 559.402 366.724 559.402C366.724 559.402 386.84 589.921 419.661 596.381Z" fill="#EC1C24"/>
<g opacity="0.5">
<path d="M490.807 583.882C490.807 583.882 489.192 584.699 486.33 585.912C473.725 574.45 452.794 558.64 429.191 553.967C405.839 549.36 383.165 556.44 369.093 562.634C367.538 560.624 366.724 559.402 366.724 559.402C366.724 559.402 367.002 559.229 367.497 558.914C372.545 555.837 401.063 539.617 430.836 545.498C461.855 551.64 487.516 580.102 490.508 583.529C490.698 583.752 490.807 583.882 490.807 583.882Z" fill="white"/>
</g>
<g opacity="0.3">
<path d="M419.661 596.38C452.687 602.891 490.807 583.882 490.807 583.882C490.807 583.882 490.698 583.752 490.511 583.549L367.518 558.911C367.001 559.229 366.724 559.401 366.724 559.401C366.724 559.401 386.84 589.921 419.661 596.38Z" fill="#390075"/>
</g>
<path d="M452.065 599.243C441.546 600.976 430.064 601.51 419.009 599.327C385.307 592.695 364.952 562.32 364.107 561.04C363.202 559.664 363.598 557.819 365.019 556.886C366.344 556.032 397.779 535.878 431.485 542.531C465.191 549.183 492.103 580.597 493.221 581.938C493.818 582.645 494.06 583.579 493.855 584.461C493.654 585.362 493.056 586.117 492.209 586.553C491.138 587.09 473.657 595.688 452.065 599.243ZM371.198 560.275C376.772 567.556 394.633 588.363 420.31 593.414C446.034 598.478 475.508 587.27 485.717 582.856C478.227 574.958 455.911 553.529 430.188 548.464C404.464 543.4 379.37 555.709 371.198 560.275Z" fill="#390075"/>
<g opacity="0.3">
<path d="M247.48 591.81C277.057 586.94 297.211 559.768 292.493 531.119C287.776 502.47 259.975 483.194 230.397 488.064C200.82 492.934 180.667 520.106 185.384 548.755C190.101 577.404 217.903 596.68 247.48 591.81Z" fill="#390075"/>
</g>
<path d="M244.334 580.401C270.936 576.021 289.061 551.582 284.819 525.815C280.576 500.048 255.571 482.711 228.969 487.091C202.367 491.472 184.242 515.911 188.484 541.677C192.727 567.444 217.732 584.782 244.334 580.401Z" fill="#EC1C24"/>
<g opacity="0.3">
<path d="M226.463 580.124C252.798 585.321 278.727 568.785 284.35 543.158C286.109 535.115 285.667 527.116 283.387 519.78C283.437 523.268 283.082 526.822 282.315 530.401C276.689 556.007 250.785 572.56 224.428 567.367C206.364 563.795 192.785 550.926 187.877 534.935C188.193 556.512 203.787 575.638 226.463 580.124Z" fill="#390075"/>
</g>
<path d="M244.759 583.382C238.626 584.392 232.232 584.343 225.811 583.07C197.825 577.552 179.924 550.925 185.899 523.715C188.801 510.526 196.798 499.189 208.415 491.768C220.053 484.344 233.925 481.721 247.468 484.406C261.032 487.087 272.636 494.731 280.166 505.926C287.699 517.143 290.261 530.576 287.355 543.744C282.78 564.707 265.329 579.995 244.759 583.382ZM227.112 577.157C251.731 582.022 276.032 566.496 281.299 542.559C286.565 518.622 270.811 495.201 246.192 490.336C234.256 487.979 222.059 490.284 211.828 496.82C201.596 503.356 194.559 513.349 192.005 524.934C186.738 548.871 202.493 572.292 227.112 577.157Z" fill="#390075"/>
<path d="M241.078 562.761C258.002 559.974 269.533 544.427 266.834 528.035C264.134 511.643 248.227 500.614 231.304 503.4C214.381 506.187 202.85 521.734 205.549 538.126C208.248 554.518 224.155 565.547 241.078 562.761Z" fill="#6BD6F0"/>
<g opacity="0.3">
<path d="M229.72 562.576C246.47 565.877 262.955 555.345 266.549 539.055C267.326 535.538 267.423 532.005 266.936 528.654C266.881 528.981 266.804 529.311 266.748 529.638C263.175 545.924 246.69 556.456 229.919 553.158C216.786 550.575 207.389 540.259 205.647 528.089C202.718 544.037 213.309 559.346 229.72 562.576Z" fill="white"/>
</g>
<g opacity="0.3">
<path d="M205.519 539.932C205.611 539.43 205.7 538.907 205.813 538.401C209.387 522.114 225.872 511.583 242.643 514.88C255.255 517.358 264.431 526.991 266.659 538.53C269.271 522.783 258.731 507.782 242.498 504.566C225.748 501.265 209.259 511.776 205.689 528.083C204.802 532.127 204.784 536.134 205.519 539.932Z" fill="#390075"/>
</g>
<path d="M241.444 565.243C237.483 565.896 233.322 565.861 229.163 565.041C220.37 563.311 212.862 558.362 207.97 551.096C203.077 543.83 201.424 535.12 203.3 526.591C205.173 518.042 210.352 510.707 217.891 505.885C225.43 501.063 234.425 499.371 243.197 501.104C251.989 502.834 259.497 507.784 264.39 515.049C269.282 522.315 270.935 531.025 269.059 539.554C266.093 553.156 254.774 563.049 241.444 565.243ZM231.712 505.876C227.858 506.511 224.112 507.933 220.75 510.096C214.379 514.175 209.999 520.383 208.412 527.614C205.135 542.517 214.952 557.107 230.279 560.133C237.716 561.599 245.309 560.158 251.683 556.1C258.055 552.022 262.435 545.814 264.022 538.583C265.609 531.352 264.201 523.999 260.084 517.856C255.966 511.712 249.591 507.529 242.154 506.063C238.646 505.349 235.12 505.315 231.712 505.876Z" fill="#390075"/>
<path d="M382.572 315.476L381.759 328.999L381.34 335.89L374.242 454.697C374.242 454.697 382.608 454.633 393.841 453.652C396.041 453.46 398.343 453.229 400.706 452.967C418.383 451.009 439.842 446.777 447.872 437.765C459.887 424.262 460.987 359.743 449.712 334.44C444.543 322.835 419.109 318.337 401.061 316.584C399.038 316.388 397.108 316.218 395.315 316.09C387.786 315.529 382.572 315.476 382.572 315.476Z" fill="white"/>
<g opacity="0.2">
<path d="M381.758 328.999L381.34 335.889L375.701 430.221L374.241 454.697C374.241 454.697 374.415 454.69 374.745 454.699C374.833 454.706 374.94 454.688 375.071 454.688C375.16 454.694 375.266 454.677 375.376 454.68C375.464 454.686 375.528 454.676 375.617 454.683C375.638 454.679 375.684 454.693 375.727 454.686C375.879 454.682 376.053 454.674 376.227 454.667C376.269 454.66 376.294 454.677 376.337 454.67C376.489 454.666 376.642 454.662 376.794 454.658C377.014 454.664 377.23 454.65 377.468 454.632C377.641 454.625 377.815 454.617 378.01 454.606C378.205 454.595 378.379 454.588 378.577 454.598C378.818 454.6 379.077 454.579 379.34 454.578C379.882 454.552 380.446 454.523 381.035 454.511C381.556 454.489 382.12 454.459 382.684 454.43C383.357 454.404 384.049 454.353 384.765 454.32C387.432 454.178 390.503 453.969 393.823 453.676C394.469 453.612 395.118 453.569 395.785 453.501C396.239 453.469 396.711 453.413 397.186 453.377C398.328 453.273 399.509 453.142 400.691 453.011C418.39 451.05 439.827 446.822 447.858 437.809C457.753 426.71 460.241 380.986 454.527 351.061C455.809 377.183 452.57 405.193 445.111 413.56C441.42 417.706 426.806 403.206 427.111 394.831C427.93 373.236 424.578 345.442 404.215 328.966C403.722 328.497 391.723 330.006 381.758 328.999Z" fill="#390075"/>
</g>
<path d="M412.538 454.429C393.841 457.507 375.595 457.737 374.237 457.727C373.386 457.74 372.566 457.409 371.986 456.806C371.405 456.202 371.099 455.405 371.137 454.573L379.467 315.352C379.571 313.725 380.959 312.458 382.646 312.477C388.892 312.55 443.906 313.66 452.62 333.241C464.424 359.769 462.973 425.469 450.257 439.765C443.328 447.495 427.784 451.919 412.538 454.429ZM377.539 451.612C395.61 451.115 435.015 447.614 445.536 435.798C456.682 423.264 457.534 359.633 446.871 335.649C441.174 322.838 403.134 319.081 385.506 318.552L377.539 451.612Z" fill="#390075"/>
<path d="M452.767 388.996L428.707 390.712C426.568 390.874 424.764 392.4 424.359 394.458C422.862 401.971 420.329 419.526 427.802 425.329C433.999 430.156 444.166 429.605 450.185 424.715C456.92 419.264 457.781 402.047 457.779 393.531C457.777 390.862 455.491 388.802 452.767 388.996Z" fill="white"/>
<g opacity="0.2">
<path d="M424.356 394.437C422.859 401.95 420.322 419.485 427.795 425.288C433.992 430.114 444.159 429.563 450.178 424.674C454.307 421.325 456.235 413.508 457.104 406.035C455.971 409.781 454.237 412.799 452.096 414.804C439.845 426.206 430.952 412.714 430.952 412.714C430.952 412.714 429.348 415.986 428.088 416.173C422.854 416.928 424.131 401.041 424.991 392.85C424.697 393.322 424.481 393.866 424.356 394.437Z" fill="#390075"/>
</g>
<path d="M442.122 430.873C436.479 431.802 430.469 430.631 426.179 427.291C417.902 420.858 419.904 403.665 421.814 394.008C422.45 390.832 425.207 388.45 428.538 388.219L452.598 386.503C454.609 386.363 456.6 387.03 458.065 388.357C459.53 389.683 460.363 391.559 460.378 393.505C460.377 405.454 458.897 420.908 451.837 426.646C449.095 428.856 445.678 430.287 442.122 430.873ZM428.664 393.24C427.791 393.384 427.092 394.05 426.905 394.907C424.04 409.255 425.005 419.9 429.444 423.343C434.537 427.313 443.284 427.038 448.554 422.78C452.722 419.404 455.208 408.466 455.202 393.552C455.196 392.982 454.955 392.449 454.539 392.052C454.103 391.657 453.547 391.473 452.941 391.51L428.881 393.226C428.792 393.219 428.728 393.23 428.664 393.24Z" fill="#390075"/>
<path d="M439.05 430.68C431.205 425.807 429.004 415.895 429.671 407.459C429.862 404.631 430.065 402.013 431.053 399.245C431.208 398.859 431.656 398.658 432.049 398.784C432.466 398.928 432.647 399.364 432.517 399.767C431.968 402.145 432.033 404.931 432.16 407.431C432.502 414.556 434.695 422.563 441.436 426.177C445.447 427.423 442.624 432.994 439.05 430.68Z" fill="#390075"/>
<path d="M413.258 330.889C422.2 329.671 431.132 328.793 440.167 328.809C443.212 328.838 446.295 328.966 449.503 329.454C451.366 329.741 452.63 331.439 452.319 333.27C452.003 335.207 449.981 336.473 448.038 335.966C439.81 334.08 430.899 334.022 422.374 334.048C419.449 334.085 416.488 334.17 413.581 334.31C411.361 334.379 411.061 331.229 413.258 330.889Z" fill="#371A45"/>
<path d="M283.002 346.086C287.996 349.056 293.326 351.801 298.983 354.28L322.977 301.816L309.029 290.83C299.202 283.085 290.426 274.149 282.865 264.23C267.649 244.343 252.508 232.218 236.933 236.986C231.519 238.64 227.805 242.917 225.914 248.969C218.787 271.433 236.393 318.319 283.002 346.086Z" fill="white"/>
<path d="M299.475 357.271C298.879 357.37 298.256 357.303 297.69 357.057C241.894 332.603 219.472 283.566 221.389 256.557C222.219 244.727 227.424 236.752 236.046 234.124C256.161 227.973 273.848 247.326 285.391 262.437C292.857 272.181 301.475 280.952 311.027 288.489L324.975 299.475C326.057 300.335 326.404 301.782 325.846 303.039L301.852 355.503C301.514 356.237 300.889 356.827 300.107 357.125C299.876 357.184 299.667 357.24 299.475 357.271ZM240.5 239.259C239.606 239.406 238.722 239.615 237.826 239.89C229.787 242.337 227.944 251.601 227.573 256.916C226.579 270.807 232.62 288.9 243.721 305.312C252.827 318.77 269.457 337.28 297.424 350.258L319.152 302.764L307.037 293.213C297.083 285.362 288.102 276.248 280.328 266.088C264.961 245.951 252.212 237.331 240.5 239.259Z" fill="#390075"/>
<path d="M250.047 320.223C249.621 320.293 249.175 320.239 248.769 320.031C247.745 319.522 247.349 318.316 247.885 317.317C259.6 295.22 278.08 283.258 292.87 275.315C293.873 274.768 295.136 275.132 295.689 276.1C296.242 277.069 295.854 278.298 294.851 278.844C280.584 286.511 262.774 298.023 251.576 319.145C251.256 319.727 250.686 320.118 250.047 320.223Z" fill="#390075"/>
<g opacity="0.2">
<path d="M283.001 346.086C287.439 339.826 293.054 334.347 299.47 330.007L296.878 329.014C276.962 321.892 257.616 311.858 243.733 296.349C232.125 283.367 224.834 266.052 225.896 248.993C218.787 271.433 236.393 318.318 283.001 346.086Z" fill="#390075"/>
</g>
<path d="M394.452 332.755L395.054 335.22L407.173 385.444C457.036 364.566 486.697 340.277 494.272 314.286C497.368 303.734 496.787 292.899 492.463 281.916L437.977 309.255L411.864 323.342L395.171 332.34L394.452 332.755Z" fill="white"/>
<path d="M407.666 388.435C407.027 388.541 406.354 388.439 405.761 388.156C404.952 387.759 404.351 387.032 404.144 386.176L391.419 333.467C391.092 332.144 391.74 330.766 392.967 330.119L436.497 306.639L491.064 279.266C491.85 278.861 492.762 278.817 493.6 279.124C494.416 279.434 495.064 280.048 495.392 280.841C503.27 300.792 499.506 320.309 484.187 338.847C469.361 356.795 443.86 373.409 408.401 388.251C408.152 388.334 407.921 388.393 407.666 388.435ZM398.024 334.265L409.369 381.249C442.093 367.196 465.608 351.672 479.322 335.072C492.328 319.351 496.14 302.92 490.699 286.211L439.404 311.944L398.024 334.265Z" fill="#390075"/>
<path d="M452.736 364.088C452.246 364.169 451.75 364.081 451.291 363.817C435.307 354.141 424.088 339.273 417.902 319.637C417.573 318.568 418.198 317.448 419.278 317.101C420.362 316.774 421.531 317.366 421.878 318.41C427.845 337.384 438.175 351.105 453.503 360.381C454.474 360.963 454.766 362.207 454.136 363.158C453.848 363.672 453.311 363.993 452.736 364.088Z" fill="#390075"/>
<g opacity="0.3">
<path d="M439.057 311.832C438.713 313.329 438.355 314.871 438.149 316.409C438.881 316.077 439.596 315.769 440.304 315.419L439.057 311.832Z" fill="#390075"/>
</g>
<g opacity="0.2">
<path d="M395.054 335.22L407.173 385.445C457.036 364.566 486.697 340.277 494.271 314.286C485.438 325.591 472.732 334.103 458.428 334.233C449.54 334.32 439.5 329.66 438.118 321.138C437.857 319.55 437.925 317.971 438.145 316.388C429.824 320.046 420.917 322.403 411.864 323.343C407.692 323.775 403.491 323.895 399.309 323.736C398.161 323.671 396.785 323.686 396.056 324.569C395.58 325.134 395.529 325.884 395.474 326.613C395.35 328.519 395.251 330.442 395.17 332.341C395.135 333.321 395.093 334.26 395.054 335.22Z" fill="#390075"/>
</g>
<path d="M569.969 406.876C566.423 408.053 562.583 408.113 558.912 407.468C552.04 406.248 545.981 406.907 540.626 409.187C536.619 410.885 533.183 413.526 530.437 416.775C528.882 418.62 527.531 420.643 526.441 422.793C495.16 484.528 438.167 493.319 370.304 455.09L399.728 436.136C446.477 457.843 478.457 445.12 497.72 402.714C498.632 400.679 499.642 398.712 500.769 396.789C502.269 394.212 503.964 391.751 505.93 389.478C516.997 376.597 531.033 370.981 546.663 369.34C554.897 368.471 563.295 369.8 570.517 373.674C589.631 383.894 584.527 402.043 569.969 406.876Z" fill="white"/>
<path d="M569.969 406.877C566.423 408.054 562.583 408.114 558.912 407.469C552.04 406.249 545.981 406.907 540.626 409.187C536.619 410.885 533.183 413.527 530.437 416.776C524.971 407.888 516.206 400.879 505.944 397.929C504.267 397.443 502.543 397.07 500.794 396.807C502.294 394.229 503.989 391.768 505.955 389.496C517.022 376.615 531.058 370.999 546.688 369.358C554.922 368.489 563.32 369.818 570.541 373.692C589.631 383.895 584.527 402.043 569.969 406.877Z" fill="#FFAD40"/>
<g opacity="0.2">
<path d="M566.934 394.814C563.387 395.991 559.548 396.051 555.877 395.406C549.005 394.185 542.946 394.844 537.591 397.124C533.584 398.822 530.147 401.464 527.402 404.712C525.846 406.557 524.495 408.581 523.406 410.73C493.926 468.927 441.563 480.07 378.813 449.113L369.283 455.259C437.146 493.487 494.135 484.676 525.42 422.961C526.509 420.812 527.857 418.768 529.415 416.943C532.165 413.716 535.619 411.05 539.605 409.355C544.96 407.075 551.015 406.396 557.891 407.636C561.562 408.282 565.405 408.242 568.947 407.045C579.941 403.413 585.527 392.176 579.404 382.486C577.922 387.962 573.34 392.678 566.934 394.814Z" fill="#390075"/>
</g>
<path d="M460.096 479.858C433.351 484.262 402.668 476.836 368.701 457.706C367.783 457.18 367.191 456.239 367.17 455.183C367.149 454.127 367.688 453.149 368.578 452.579L398.023 433.621C398.953 433.023 400.099 432.941 401.095 433.412C423.473 443.794 442.743 446.193 458.342 440.51C473.301 435.06 485.6 421.955 494.879 401.531C497.386 396.033 500.219 391.457 503.558 387.56C514.186 375.197 528.178 368.253 546.366 366.339C555.632 365.364 564.514 366.973 572.046 371.008C581.739 376.212 586.826 383.997 586 392.395C585.221 400.15 579.32 406.947 570.962 409.722C567.125 410.989 562.876 411.222 558.327 410.425C552.199 409.337 546.814 409.842 541.847 411.952C536.531 414.205 532.037 418.525 529.218 424.116C515.024 452.15 495.402 470.062 470.908 477.379C467.384 478.425 463.78 479.251 460.096 479.858ZM376.219 454.88C411.096 473.563 443.131 479.368 469.124 471.592C491.888 464.793 510.22 447.941 523.622 421.478C527.103 414.592 532.696 409.243 539.381 406.405C545.45 403.817 552.211 403.17 559.49 404.471C562.981 405.083 566.172 404.939 568.972 404.012C575.006 402.001 579.233 397.259 579.768 391.875C580.35 385.974 576.417 380.287 568.98 376.301C562.575 372.864 554.956 371.492 546.96 372.342C530.472 374.083 517.828 380.317 508.302 391.397C505.327 394.853 502.788 398.957 500.544 403.924C490.559 425.905 477.068 440.138 460.456 446.178C443.578 452.326 423.222 450.106 399.93 439.62L376.219 454.88Z" fill="#390075"/>
<path d="M287.86 492.477C296.548 506.32 321.35 519.735 350.97 514.858C360.631 511.234 363.508 496.693 364.834 482.302C401.859 479.489 415.597 450.683 415.297 401.308C415.225 389.181 414.293 375.819 412.668 361.299L404.667 312.705L322.185 296.204L314.397 306.956L297.666 330.07C256.53 384.022 253.892 447.968 303.736 453.277C301.841 457.974 301.441 462.849 301.916 467.855C284.092 470.79 281.153 481.76 287.86 492.477Z" fill="white"/>
<path d="M414.104 361.127C417.301 372.973 417.659 385.37 418.159 397.575C419.389 435.06 413.128 482.316 365.046 485.319C365.046 485.319 367.952 482.51 367.937 482.555C366.605 494.256 365.093 512.3 352.066 517.665C342.734 519.435 332.991 519.239 323.684 517.445C310.018 514.674 296.675 508.292 287.738 497.582C275.468 482.57 281.696 467.795 301.401 464.868L298.793 468.158C298.247 462.846 298.727 457.259 300.801 452.193C300.795 452.152 303.331 456.267 303.331 456.267C261.933 451.644 258.057 411.099 268.797 379.1C273.678 363.976 281.221 349.747 290.397 336.669C292.238 334.036 294.354 331.611 296.879 329.543C297.662 328.991 298.714 329.665 298.342 330.595C295.929 336.394 291.902 341.294 288.793 346.721C274.78 370.404 261.299 407.282 275.244 432.865C280.863 443.21 292.153 449.083 304.048 450.26C306.05 450.46 307.332 452.537 306.578 454.335C304.911 458.422 304.52 462.957 304.966 467.523C305.118 469.108 303.976 470.546 302.379 470.809C287.468 473.094 283.23 482.16 292.625 493.79C300.572 503.265 312.671 509.005 324.957 511.494C332.519 513.321 344.536 512.846 349.845 512.015C359.457 507.826 360.601 491.262 361.709 482.055C361.833 480.551 363.107 479.388 364.597 479.27C376.383 478.325 387.903 474.035 395.701 465.209C414.148 444.143 412.977 405.949 411.553 379.639C411.214 373.594 410.857 367.572 411.199 361.415C411.244 360.624 411.932 360.023 412.726 360.062C413.413 360.118 413.945 360.56 414.104 361.127Z" fill="#390075"/>
<path d="M362.315 424.502C349.167 422.62 334.835 423.645 323.454 430.773C312.161 437.632 305.681 449.948 304.859 462.625C304.741 464.297 303.243 465.561 301.517 465.442C299.749 465.331 298.424 463.791 298.667 462.077C301.211 439.541 318.477 422.992 341.73 421.154C348.817 420.496 355.867 421.072 362.727 422.358C364.136 422.676 363.77 424.707 362.315 424.502Z" fill="#390075"/>
<path d="M363.772 486.482C363.602 486.51 363.428 486.517 363.272 486.5C362.121 486.414 361.284 485.451 361.384 484.333C361.824 479.43 357.941 473.121 351.017 467.461C340.459 458.861 320.993 450.626 300.885 455.759C299.774 456.048 298.641 455.408 298.354 454.333C298.068 453.257 298.738 452.151 299.85 451.862C321.488 446.329 342.382 455.133 353.698 464.35C361.782 470.942 366.082 478.326 365.522 484.626C365.441 485.592 364.709 486.327 363.772 486.482Z" fill="#390075"/>
<path d="M301.575 464.861C311.619 464.097 321.888 466.155 328.648 474.004C329.608 475.053 328.044 476.581 326.97 475.636C320.133 469.58 311.109 468.968 302.258 470.871C297.876 471.486 297.152 465.229 301.575 464.861Z" fill="#390075"/>
<g opacity="0.3">
<path d="M361.267 423.317C360.917 423.184 360.574 423.093 360.207 422.984C360.553 423.096 360.902 423.229 361.252 423.362C361.249 423.341 361.27 423.338 361.267 423.317Z" fill="#390075"/>
</g>
<g opacity="0.3">
<path d="M325.144 426.025C320.468 428.575 316.328 431.989 312.921 436.003C317.832 433.818 322.163 430.372 325.144 426.025Z" fill="#390075"/>
</g>
<g opacity="0.2">
<path d="M286.918 447.042C291.757 450.927 297.494 454.156 303.785 454.37C305.195 447.656 308.413 441.3 312.921 436.003C309.966 437.316 306.801 438.154 303.591 438.45C294.766 439.31 285.724 436.202 279.24 430.427C272.752 424.631 268.942 416.636 265.294 408.827C267.226 423.613 275.122 437.566 286.918 447.042Z" fill="#390075"/>
</g>
<g opacity="0.2">
<path d="M287.859 492.477C296.547 506.32 321.349 519.735 350.969 514.858C360.63 511.234 363.507 496.693 364.834 482.302C401.858 479.489 415.596 450.683 415.296 401.308C395.7 399.451 376.103 397.593 356.507 395.735C356.627 396.33 356.746 396.924 356.87 397.54C352.077 396.592 347.263 395.647 342.47 394.699C338.919 393.992 335.177 393.316 331.699 394.375C325.83 396.189 322.559 403.549 325.228 408.872L320.473 410.545C323.84 409.736 327.279 412.56 328.014 415.828C328.753 419.117 327.416 422.557 325.588 425.401C325.448 425.614 325.326 425.804 325.165 426.021C325.186 426.017 325.226 425.99 325.247 425.986C334.368 421.074 345.321 419.588 355.448 421.713C357.055 422.041 358.636 422.48 360.21 423.005C360.556 423.117 360.921 423.205 361.271 423.338C370.408 426.495 377.437 435.315 377.383 444.815C377.311 456.33 366.66 466.96 354.819 467.173C353.138 467.195 351.285 467.098 349.998 468.178C349.17 468.866 348.78 469.947 348.467 470.973C346.745 476.849 346.736 483.037 345.491 489.025C344.246 495.013 341.433 501.175 335.956 504.174C332.045 506.322 327.357 506.544 322.914 506.258C310.066 505.408 297.674 500.415 287.859 492.477Z" fill="#390075"/>
</g>
<g opacity="0.3">
<path d="M422.983 402.034C422.493 402.115 422.017 402.278 421.573 402.499L424.581 402.174C424.049 402.134 423.518 402.094 422.983 402.034Z" fill="#390075"/>
</g>
<g opacity="0.3">
<path d="M355.322 422.136C356.998 422.22 358.623 422.525 360.208 422.984C358.655 422.456 357.053 422.021 355.446 421.692C355.405 421.847 355.362 421.981 355.322 422.136Z" fill="#390075"/>
</g>
<g opacity="0.2">
<path d="M314.396 306.956C317.694 313.171 322.511 318.649 328.04 323.14C336.115 329.671 345.699 334.215 355.542 337.806C358.589 338.914 361.814 340.035 363.952 342.395C365.612 344.24 366.428 346.669 367.059 349.044C369.853 359.769 369.306 371.32 365.547 381.833C365.214 382.735 364.877 383.744 365.2 384.644C365.548 385.561 366.509 386.081 367.388 386.508C380.688 393.025 395.899 395.88 410.814 394.674C411.59 394.61 412.428 394.514 413.023 394.014C413.58 393.541 413.783 392.787 413.927 392.064C415.627 383.395 412.238 374.632 412.124 365.838C412.088 363.895 412.23 361.965 412.46 360.041L404.666 312.706L322.184 296.205L314.396 306.956Z" fill="#390075"/>
</g>
<path d="M281.164 400.41L345.087 413.654C352.651 415.226 360.225 410.483 361.923 403.128L369.535 370.055C371.01 363.605 367.529 357.209 361.532 354.658C360.683 354.289 359.785 354.014 358.833 353.81L294.931 340.563C287.367 338.991 279.771 343.737 278.095 351.089L272.064 377.292L270.483 384.161C268.789 391.537 273.6 398.838 281.164 400.41Z" fill="white"/>
<path d="M281.164 400.41L345.087 413.654C352.651 415.226 360.225 410.483 361.923 403.128L369.535 370.055C371.01 363.605 367.529 357.209 361.532 354.658C360.683 354.289 359.785 354.014 358.833 353.81L294.931 340.563C287.367 338.991 279.771 343.737 278.095 351.089L272.064 377.292L270.483 384.161C268.789 391.537 273.6 398.838 281.164 400.41Z" fill="white"/>
<path d="M281.164 400.41L345.087 413.654C352.651 415.226 360.225 410.483 361.923 403.128L369.535 370.055C371.01 363.605 367.529 357.209 361.532 354.658C360.683 354.289 359.785 354.014 358.833 353.81L294.931 340.563C287.367 338.991 279.771 343.737 278.095 351.089L272.064 377.292L270.483 384.161C268.789 391.537 273.6 398.838 281.164 400.41Z" fill="white"/>
<g opacity="0.2">
<path d="M281.075 400.403L344.999 413.647C352.563 415.219 360.137 410.476 361.834 403.121L369.446 370.048C370.921 363.598 367.44 357.202 361.443 354.651C357.266 356.25 354.632 357.256 354.632 357.256C345.403 383.159 334.589 394.79 300.56 388.297C285.88 385.482 277.139 381.413 271.976 377.285L270.395 384.154C268.7 391.53 273.511 398.831 281.075 400.403Z" fill="#390075"/>
</g>
<path d="M349.173 415.756C346.789 416.149 344.354 416.105 341.929 415.593L283.166 403.406C272.749 401.244 266.185 391.267 268.52 381.137L274.989 353.083C277.324 342.953 287.675 336.482 298.092 338.644L356.855 350.831C367.272 352.993 373.836 362.97 371.501 373.1L365.032 401.154C363.912 406.042 360.883 410.227 356.499 412.961C354.242 414.392 351.75 415.332 349.173 415.756ZM291.666 343.452C286.108 344.367 281.382 348.471 280.062 354.133L273.592 382.188C271.88 389.588 276.694 396.909 284.301 398.474L343.064 410.661C350.673 412.247 358.269 407.501 359.96 400.104L366.429 372.049C368.141 364.649 363.327 357.328 355.721 355.763L296.958 343.576C295.167 343.193 293.37 343.171 291.666 343.452Z" fill="#390075"/>
<path d="M303.836 404.875L303.902 405.14L345.091 413.674C350.637 414.816 356.176 412.591 359.422 408.391C360.595 406.885 361.484 405.107 361.923 403.128L365.322 388.438L366.449 383.592L368.393 375.073L369.556 370.052C371.251 362.676 366.44 355.375 358.876 353.803L345.065 350.951C351.161 353.442 354.741 359.907 353.252 366.402L350.997 376.222L349.131 384.283L345.622 399.499C343.924 406.854 336.347 411.576 328.765 410.028L303.836 404.875Z" fill="white"/>
<g opacity="0.2">
<path d="M297.313 403.513L297.378 403.778L345.091 413.674C350.637 414.816 356.176 412.591 359.421 408.391C360.595 406.885 361.483 405.107 361.923 403.128L365.322 388.438L366.449 383.592L368.392 375.073C365.698 374.119 361.94 373.742 359.028 377.314C354.987 382.259 352.485 379.811 350.979 376.246L349.113 384.307L345.604 399.523C343.906 406.878 336.329 411.6 328.747 410.052L297.313 403.513Z" fill="#390075"/>
</g>
<path d="M350.765 416.256C348.721 416.593 346.594 416.562 344.509 416.121L286.652 404.124C285.251 403.846 284.374 402.508 284.675 401.145C285.063 399.386 286.306 399.097 287.751 399.24L287.762 399.175L288.714 399.378C288.983 399.418 289.277 399.476 289.55 399.537L329.339 407.539C332.33 408.17 335.407 407.599 338.028 405.981C340.624 404.346 342.446 401.864 343.105 398.96L350.717 365.887C351.931 360.645 349.112 355.347 344.044 353.258C342.825 352.759 342.189 351.423 342.599 350.191C343.008 348.958 344.329 348.211 345.642 348.482L359.453 351.335C363.8 352.229 367.493 354.735 369.888 358.387C372.283 362.039 373.06 366.36 372.09 370.566L364.478 403.639C363.512 407.865 360.891 411.475 357.127 413.853C355.144 415.09 353.001 415.888 350.765 416.256ZM340.844 410.2L345.644 411.189C348.631 411.799 351.712 411.249 354.308 409.614C356.904 407.979 358.726 405.497 359.385 402.592L366.997 369.519C367.656 366.614 367.121 363.631 365.483 361.125C363.846 358.619 361.285 356.88 358.297 356.27L353.972 355.373C355.997 358.768 356.715 362.865 355.789 366.937L348.177 400.01C347.19 404.24 344.611 407.842 340.844 410.2Z" fill="#390075"/>
<path d="M324.171 378.012C323.893 379.244 323.457 389.485 323.457 389.485C323.457 389.485 326.671 390.142 330.629 390.931C335.56 391.92 340.691 387.749 342.068 381.633C343.441 375.496 340.544 369.723 335.61 368.714C332.283 368.033 328.439 367.268 328.439 367.268C328.439 367.268 324.629 376.009 324.171 378.012Z" fill="#22A7F0"/>
<path d="M324.171 378.012C323.893 379.244 323.457 389.485 323.457 389.485C323.457 389.485 326.671 390.142 330.629 390.931C335.56 391.92 340.691 387.749 342.068 381.633C343.441 375.496 340.544 369.723 335.61 368.714C332.283 368.033 328.439 367.268 328.439 367.268C328.439 367.268 324.629 376.009 324.171 378.012Z" fill="#1C7AEA"/>
<path d="M333.613 392.451C332.506 392.634 331.39 392.627 330.303 392.403L325.326 391.401C323.312 390.991 321.91 389.252 322.017 387.243C322.422 378.808 322.612 377.972 322.678 377.707C322.927 376.564 324.111 373.53 326.16 368.702C326.949 366.856 328.967 365.825 330.956 366.217L335.957 367.237C341.727 368.405 345.153 375.002 343.604 381.93C342.857 385.231 341.124 388.122 338.696 390.11C337.109 391.367 335.381 392.16 333.613 392.451ZM325.708 378.309C325.667 378.464 325.485 379.617 325.118 387.346C325.093 387.859 325.455 388.329 325.996 388.431L330.973 389.433C332.874 389.819 334.92 389.228 336.692 387.771C338.582 386.231 339.953 383.929 340.546 381.289C341.729 375.989 339.376 370.996 335.281 370.166L330.279 369.146C329.759 369.041 329.236 369.318 329.03 369.797C327.155 374.215 325.906 377.387 325.708 378.309Z" fill="#390075"/>
<path d="M334.86 380.163C336.234 374.031 333.339 368.252 328.394 367.256C323.449 366.26 318.326 370.423 316.952 376.555C315.578 382.687 318.473 388.466 323.418 389.462C328.363 390.458 333.486 386.295 334.86 380.163Z" fill="#22A7F0"/>
<g opacity="0.7">
<path d="M334.892 380.165C334.793 380.626 334.67 381.07 334.521 381.497C334.671 376.43 331.948 372.112 327.739 371.259C323.17 370.337 318.451 373.826 316.672 379.225C316.681 378.354 316.794 377.446 316.996 376.544C318.369 370.408 323.479 366.24 328.435 367.246C333.39 368.252 336.266 374.028 334.892 380.165Z" fill="white"/>
</g>
<path d="M334.893 380.165C333.519 386.302 328.41 390.47 323.454 389.464C318.52 388.454 315.623 382.682 316.997 376.545C317.209 375.578 317.517 374.659 317.902 373.811C318.278 378.219 320.858 381.799 324.656 382.55C328.819 383.39 333.1 380.567 335.168 375.989C335.3 377.323 335.205 378.737 334.893 380.165Z" fill="#1C7AEA"/>
<path d="M326.399 391.013C325.313 391.192 324.218 391.181 323.11 390.961C320.236 390.375 317.871 388.498 316.434 385.62C315.065 382.88 314.713 379.548 315.46 376.248C316.207 372.947 317.94 370.056 320.368 368.067C322.914 365.995 325.887 365.188 328.758 365.754C331.632 366.34 333.997 368.217 335.433 371.095C336.803 373.835 337.155 377.167 336.408 380.467C335.148 386.098 330.999 390.255 326.399 391.013ZM325.94 368.696C324.704 368.9 323.485 369.461 322.368 370.386C320.479 371.926 319.108 374.227 318.515 376.867C317.921 379.507 318.179 382.134 319.252 384.267C320.262 386.282 321.858 387.608 323.78 387.991C327.875 388.821 332.173 385.168 333.353 379.847C333.946 377.208 333.689 374.581 332.616 372.448C331.606 370.432 330.01 369.106 328.087 368.724C327.387 368.585 326.664 368.577 325.94 368.696Z" fill="#390075"/>
<path d="M301.505 406.785C301.206 406.834 300.902 406.842 300.583 406.767C299.185 406.51 298.269 405.199 298.545 403.819L301.987 387.004C302.619 383.934 301.621 380.793 299.336 378.606C295.728 375.154 294.214 370.213 295.323 365.391L300.665 341.78C300.966 340.417 302.354 339.553 303.756 339.831C305.158 340.108 306.034 341.447 305.734 342.81L300.392 366.421C299.685 369.566 300.651 372.776 303.006 374.994C306.534 378.353 308.052 383.188 307.085 387.944L303.642 404.759C303.426 405.833 302.548 406.613 301.505 406.785Z" fill="#390075"/>
<path d="M365.266 383.575C365.266 383.575 356.834 382.442 355.287 389.921C353.738 397.379 362.282 400.124 362.282 400.124C362.282 400.124 392.251 407.858 414.61 402.715C424.308 396.394 416.219 386.985 416.219 386.985C416.219 386.985 389.902 390.005 365.266 383.575Z" fill="white"/>
<g opacity="0.2">
<path d="M362.282 400.124C362.282 400.124 392.251 407.858 414.609 402.715C418.937 399.905 419.727 396.47 419.266 393.538C418.555 394.396 417.62 395.228 416.416 396.02C394.057 401.163 364.089 393.429 364.089 393.429C364.089 393.429 357.924 391.457 357.029 386.287C356.236 387.18 355.621 388.362 355.309 389.917C353.738 397.379 362.282 400.124 362.282 400.124Z" fill="#390075"/>
</g>
<path d="M411.247 405.938C389.165 409.574 362.755 402.864 361.588 402.548C361.542 402.534 361.496 402.521 361.45 402.507C357.754 401.315 351.17 397.06 352.756 389.427C354.365 381.663 361.906 380.569 365.66 381.053C365.773 381.076 365.883 381.08 365.975 381.107C389.815 387.35 415.677 384.49 415.936 384.468C416.794 384.369 417.657 384.693 418.223 385.342C418.413 385.565 422.757 390.696 421.861 396.543C421.373 399.822 419.4 402.583 416.041 404.767C415.785 404.937 415.5 405.068 415.181 405.121C413.881 405.462 412.567 405.72 411.247 405.938ZM363.044 397.711C364.753 398.129 392.697 404.988 413.545 400.369C415.409 399.067 416.437 397.605 416.704 395.909C417.087 393.452 415.807 390.993 414.952 389.651C408.897 390.203 386.416 391.681 364.755 386.053C363.487 385.923 358.805 385.783 357.836 390.391C356.801 395.392 362.326 397.469 363.044 397.711Z" fill="#390075"/>
<path d="M411.753 323.34C385.995 350.609 314.413 332.165 314.285 307.611C342.371 321.312 373.9 328.429 411.753 323.34Z" fill="white"/>
<g opacity="0.2">
<path d="M372.318 330.638C351.34 328.626 333.007 323.15 316.602 315.174C315.109 312.751 314.298 310.215 314.285 307.611C342.392 321.308 373.9 328.428 411.753 323.34C402.737 332.874 388.143 336.824 372.95 336.868C372.992 336.861 373.032 336.833 373.074 336.826C376.414 335.726 375.828 330.971 372.318 330.638Z" fill="#390075"/>
</g>
<path d="M385.867 338.406C370.578 340.923 353.175 338.705 338.814 333.443C321.889 327.226 311.75 317.583 311.69 307.657C311.675 306.77 312.153 305.949 312.929 305.483C313.705 305.016 314.659 304.965 315.468 305.361C346.193 320.343 377.581 325.407 411.431 320.85C412.524 320.713 413.573 321.239 414.076 322.173C414.58 323.107 414.419 324.256 413.673 325.036C406.761 332.339 396.855 336.597 385.867 338.406ZM317.939 312.136C320.731 318.328 328.95 324.411 340.705 328.725C360.376 335.951 387.248 337.098 403.572 326.784C373.61 329.45 345.477 324.634 317.939 312.136Z" fill="#390075"/>
<path d="M417.676 322.386C500.799 308.699 557.436 232.335 544.179 151.823C530.922 71.3096 452.791 17.1363 369.668 30.823C286.546 44.5097 229.909 120.874 243.166 201.386C256.423 281.899 334.554 336.073 417.676 322.386Z" fill="#6BD6F0"/>
<g opacity="0.3">
<path d="M447.203 308.307C524.181 274.511 558.978 186.839 524.931 112.494C522.613 107.452 520.046 102.621 517.247 97.9764C529.572 163.526 494.608 231.588 428.91 260.434C363.539 289.141 288.763 269.761 246.859 217.704C248.827 224.477 251.289 231.189 254.321 237.787C270.881 273.934 300.652 300.259 335.729 313.909C370.839 325.373 410.491 324.436 447.203 308.307Z" fill="#390075"/>
</g>
<path d="M409.861 133.2L311.231 171.515C312.035 167.23 312.967 162.797 314.06 158.275C316.019 149.986 318.448 141.494 321.368 133.323C327.959 114.909 337.019 98.3334 348.838 90.286C352.597 87.7394 357.388 86.9505 361.699 88.2955C365.597 89.518 369.728 91.7613 373.935 94.7334C384.199 101.941 395.009 113.529 404.311 125.661C406.254 128.159 408.089 130.674 409.861 133.2Z" fill="#FFAD40"/>
<path d="M311.721 174.485C310.848 174.629 309.938 174.418 309.255 173.853C308.377 173.171 307.977 172.072 308.169 170.981C311.841 151.437 323 104.18 347.092 87.7772C351.694 84.6467 357.539 83.7479 362.731 85.3928C383.425 91.9211 406.031 122.285 412.462 131.458C413.003 132.217 413.138 133.169 412.865 134.04C412.572 134.915 411.904 135.639 411.019 135.975L312.349 174.318C312.143 174.394 311.934 174.45 311.721 174.485ZM355.443 90.8086C353.739 91.0891 352.097 91.7408 350.622 92.7463C335.953 102.746 322.926 130.164 315.354 166.663L405.083 131.805C392.482 114.517 374.866 95.5971 360.75 91.1634C359.021 90.6219 357.21 90.5176 355.443 90.8086Z" fill="#390075"/>
<path d="M327.818 165.055C330.447 140.641 338.444 119.602 349.503 107.336C351.554 105.05 354.987 104.379 357.692 105.797C366.666 110.485 377.371 124.759 386.529 142.254L327.818 165.055Z" fill="#FF67A0"/>
<path d="M328.229 167.55C327.526 167.666 326.822 167.507 326.251 167.092C325.531 166.575 325.148 165.706 325.246 164.843C327.899 140.043 336.052 118.491 347.572 105.705C350.438 102.521 355.216 101.65 358.97 103.595C367.943 108.282 378.834 121.954 388.876 141.104C389.198 141.729 389.256 142.482 388.993 143.139C388.729 143.797 388.183 144.332 387.504 144.592L328.794 167.394C328.588 167.47 328.421 167.519 328.229 167.55ZM353.928 107.645C352.991 107.799 352.105 108.263 351.437 108.987C341.249 120.304 333.854 139.147 330.895 161.158L382.904 140.964C373.847 124.215 364.049 111.995 356.439 108.016C355.672 107.612 354.78 107.505 353.928 107.645Z" fill="#390075"/>
<g opacity="0.3">
<path d="M404.333 125.658C396.189 129.859 387.656 133.297 379.142 136.712C357.726 145.322 336.289 153.937 314.848 162.53C314.55 161.117 314.294 159.698 314.057 158.254C316.016 149.966 318.445 141.473 321.365 133.302C322.961 134.226 324.807 134.812 326.67 134.971C331.152 135.356 335.583 133.843 339.84 132.336C347.385 129.675 354.933 127.034 362.499 124.369C366.86 122.824 371.463 121.156 374.455 117.676C377.922 113.631 378.503 107.857 377.252 102.788C376.567 99.9564 375.385 97.2912 373.975 94.7057C384.221 101.938 395.03 113.525 404.333 125.658Z" fill="#390075"/>
</g>
<path d="M452.239 151.071L482.822 256.98C486.08 253.52 489.389 249.84 492.692 245.991C498.73 238.959 504.683 231.412 509.971 223.677C521.95 206.24 530.706 187.956 530.084 173.018C529.895 168.282 527.456 163.833 523.431 161.169C519.8 158.78 515.131 156.858 509.74 155.331C496.644 151.64 479.326 150.34 462.515 150.65C459.051 150.733 455.615 150.854 452.239 151.071Z" fill="white"/>
<path d="M483.315 259.971C482.91 260.038 482.492 260.022 482.085 259.941C480.995 259.696 480.118 258.888 479.814 257.836L449.227 151.907C448.971 151.017 449.144 150.077 449.699 149.329C450.254 148.581 451.119 148.121 452.069 148.049C464.353 147.34 505.954 146.019 525.186 158.678C529.97 161.83 532.966 167.141 533.19 172.888C534.432 203.274 499.961 243.248 485.083 259.023C484.619 259.523 483.975 259.863 483.315 259.971ZM456.288 153.879L484.291 250.892C511.86 220.676 527.74 191.856 526.985 173.189C526.832 169.338 524.847 165.788 521.661 163.707C508.389 154.961 479.921 152.89 456.288 153.879Z" fill="#390075"/>
<path d="M477.658 239.166C497.555 221.061 510.919 200.747 514.556 183.646C515.238 180.483 513.585 177.217 510.549 175.916C500.545 171.611 480.91 172.175 459.446 176.111L477.658 239.166Z" fill="#FF67A0"/>
<path d="M478.066 241.643C477.704 241.702 477.328 241.679 476.942 241.595C476.072 241.357 475.396 240.705 475.147 239.856L456.938 176.822C456.737 176.135 456.859 175.415 457.24 174.802C457.62 174.189 458.254 173.788 458.974 173.648C482.433 169.34 501.614 169.338 511.593 173.627C515.689 175.389 517.99 179.798 517.065 184.145C513.3 201.924 499.564 222.638 479.382 241.002C479.043 241.334 478.577 241.559 478.066 241.643ZM462.746 178.09L479.022 234.431C496.711 217.536 508.663 199.002 512.046 183.149C512.475 181.108 511.413 179.038 509.526 178.204C500.966 174.572 483.594 174.53 462.746 178.09Z" fill="#390075"/>
<g opacity="0.3">
<path d="M462.519 150.671C464.113 160.09 466.663 169.33 469.209 178.55C475.607 201.732 481.987 224.938 488.388 248.141C489.828 247.459 491.266 246.756 492.675 246.015C498.713 238.984 504.665 231.436 509.953 223.701C508.087 222.992 506.369 221.855 505 220.45C501.724 217.027 500.177 212.41 498.72 207.947C496.147 200.023 493.549 192.083 490.955 184.164C489.456 179.58 487.932 174.705 489.079 169.982C490.387 164.513 495.133 160.257 500.417 157.947C503.375 156.654 506.507 155.884 509.702 155.359C496.644 151.64 479.33 150.36 462.519 150.671Z" fill="#390075"/>
</g>
<path d="M482.952 270.116C476.503 289.397 461.936 305.332 442.889 313.722C396.031 334.382 334.783 331.946 286.462 286.475C276.473 277.082 269.354 265.056 266.936 251.705C264.993 240.967 265.963 229.855 270.827 219.415C273.456 213.728 277.257 208.251 282.345 203.155C290.278 195.281 295.04 186.214 300.045 176.895C308.801 160.603 321.505 146.499 337.317 136.396C353.705 125.944 371.036 120.951 387.926 120.585C452.935 119.032 511.207 185.491 482.952 270.116Z" fill="white"/>
<g opacity="0.3">
<path d="M402.372 121.85C450.947 135.651 486.907 190 464.374 256.651C458.344 274.485 444.718 289.228 426.93 297.029C383.173 316.204 326.036 314.024 281.025 272.053C276.582 267.912 272.769 263.223 269.74 258.108C273.155 267.29 278.87 275.565 286.123 282.421C333.172 326.809 392.774 329.219 438.382 309.062C456.916 300.884 471.09 285.352 477.352 266.526C502.233 191.693 457.968 131.402 402.372 121.85Z" fill="#390075"/>
</g>
<path d="M392.892 144.235C391.9 165.308 384.158 186.56 369.044 202.099C353.927 217.616 331.058 226.699 309.363 223.386C301.286 222.153 293.554 219.295 285.429 218.303C280.609 217.719 275.439 217.935 270.849 219.411C273.477 213.724 277.278 208.247 282.366 203.151C290.299 195.278 295.062 186.21 300.067 176.891C308.823 160.599 321.526 146.496 337.338 136.393C353.726 125.94 371.057 120.947 387.948 120.581C388.673 121.669 389.296 122.795 389.862 123.973C392.837 130.22 393.222 137.338 392.892 144.235Z" fill="#FFAD40"/>
<g opacity="0.6">
<path d="M277.724 218.13C279.976 214.539 282.727 211.057 286.051 207.734C293.985 199.861 298.747 190.793 303.752 181.474C312.508 165.182 325.211 151.078 341.023 140.975C357.016 130.779 373.911 125.794 390.392 125.199C390.214 124.783 390.036 124.368 389.841 123.976C389.296 122.795 388.652 121.672 387.926 120.584C371.039 120.971 353.705 125.943 337.316 136.396C321.48 146.481 308.801 160.602 300.045 176.894C295.04 186.213 290.281 195.301 282.345 203.154C277.239 208.274 273.459 213.748 270.827 219.414C273.051 218.709 275.369 218.306 277.724 218.13Z" fill="white"/>
</g>
<path d="M329.106 252.04C330.519 258.226 330.363 263.527 328.623 267.965C327.962 269.663 328.104 271.589 328.936 273.189C336.682 287.823 351.598 274.669 358.586 263.71C347.725 265.095 342.376 260.638 340.071 253.009C336.607 255.486 332.262 254.867 329.106 252.04Z" fill="#390075"/>
<path d="M351.797 272.157C347.29 265.379 336.077 263.56 328.205 270.343C331.083 281.712 341.037 283.06 351.797 272.157Z" fill="#FF67A0"/>
<g opacity="0.3">
<path d="M335.026 266.742C334.98 266.728 334.938 266.735 334.892 266.722C341.474 264.854 348.458 267.157 351.797 272.158C345.93 278.102 340.295 280.407 335.931 279.41C336.24 279.295 336.571 279.177 336.895 279.018C342.979 276.385 341.615 267.436 335.026 266.742Z" fill="#390075"/>
</g>
<path d="M364.747 233.651C360.631 225.791 347.285 218.985 336.266 226.053C333.891 227.567 332.98 230.535 333.968 233.084L336.032 238.442C338.22 244.162 344.557 247.313 350.658 245.716L360.158 243.24C364.438 242.133 366.754 237.472 364.747 233.651Z" fill="#390075"/>
<path d="M355.514 229.879C355.738 228.672 352.558 227.136 348.409 226.449C344.261 225.762 340.716 226.184 340.491 227.391C340.266 228.599 343.447 230.135 347.595 230.822C351.744 231.509 355.289 231.087 355.514 229.879Z" fill="white"/>
<path d="M347.229 240.963C344.503 244.992 342.446 249.504 342.663 254.278C342.609 255.409 341.752 256.313 340.645 256.495C333.256 257.712 325.277 253.624 322.813 246.763C322.195 245.53 321.399 238.84 323.594 239.283C324.047 239.378 324.335 239.797 324.296 240.227C323.205 248.076 332.422 253.845 339.531 251.594L337.482 254.156C337.372 251.23 337.96 248.294 338.965 245.629C339.969 242.964 341.362 240.531 342.871 238.27C344.798 235.495 349.033 238.103 347.229 240.963Z" fill="#390075"/>
<path d="M342.571 253.318C344.822 262.735 357.802 264.263 365.302 259.469C368.005 257.816 370.178 255.34 371.202 252.396C371.427 251.766 372.117 251.44 372.76 251.631C373.383 251.825 373.708 252.471 373.544 253.07C371.559 260.409 363.967 265.175 356.441 265.821C348.486 266.792 339.871 262.554 337.556 254.737C336.598 251.442 341.61 250.002 342.571 253.318Z" fill="#390075"/>
<path d="M339.915 281.021C339.149 281.147 338.393 281.208 337.667 281.179C333.467 281.044 330.068 278.596 327.563 273.881C326.49 271.876 326.365 269.524 327.181 267.441C328.799 263.319 328.949 258.252 327.591 252.396C327.439 251.743 327.746 251.078 328.347 250.746C328.948 250.414 329.682 250.484 330.171 250.933C332.918 253.404 336.45 253.733 339.148 251.785C339.557 251.484 340.09 251.397 340.574 251.55C341.059 251.703 341.425 252.067 341.57 252.551C343.918 260.3 349.255 263.361 358.402 262.194C359.002 262.116 359.571 262.383 359.911 262.856C360.252 263.33 360.226 263.97 359.914 264.466C355.013 272.158 347.177 279.825 339.915 281.021ZM331.292 255.218C331.983 260.21 331.579 264.662 330.084 268.467C329.575 269.758 329.681 271.202 330.349 272.469C332.29 276.154 334.811 278.048 337.802 278.148C343.628 278.333 350.692 272.086 355.547 265.439C347.442 265.63 341.958 262.211 339.211 255.227C336.704 256.339 333.879 256.317 331.292 255.218Z" fill="#390075"/>
<g opacity="0.3">
<path d="M343.272 248.012C343.334 249.188 343.636 251.151 344.991 253.004C347.258 256.148 350.961 256.851 353.375 257.301C354.911 257.599 358.044 258.164 361.583 257.073C361.977 256.944 367.3 255.263 370.457 251.989C370.792 251.637 371.796 250.561 372.227 250.786C372.563 250.964 372.404 251.859 372.341 252.145C371.954 254.306 367.918 261.94 359.398 263.597C356.09 264.227 352.689 263.897 349.397 263.295C346.285 262.727 345.074 262.142 344.439 261.739C343.634 261.236 340.324 259.196 339.944 255.297C339.577 251.078 342.965 248.275 343.272 248.012Z" fill="#390075"/>
</g>
<g opacity="0.3">
<path d="M340.968 244.917C338.253 247.419 334.211 248.509 330.598 247.684C326.963 246.863 323.874 244.173 322.636 240.775C323.274 244.251 324.995 247.526 327.529 250.033C328.236 250.742 329.018 251.376 329.923 251.82C331.805 252.76 334.035 252.753 336.152 252.723C337.286 252.705 338.399 252.691 339.534 252.674C339.707 252.667 339.902 252.656 340.01 252.511C340.099 252.39 340.072 252.225 340.03 252.105C339.766 250.899 339.523 249.689 339.262 248.503C339.077 247.644 339.121 246.45 339.987 246.265" fill="#390075"/>
</g>
<path d="M408.004 327.262C393.694 329.618 379.123 329.857 364.781 327.897C335.112 323.842 307.29 310.289 284.309 288.672C273.409 278.392 266.353 265.826 263.884 252.293C261.733 240.423 263.161 228.642 268.008 218.226C270.845 212.082 274.924 206.305 280.123 201.084C287.514 193.766 292.066 185.284 296.87 176.337L297.305 175.524C306.517 158.415 319.761 144.011 335.655 133.873C351.983 123.452 369.583 117.97 387.909 117.558C419.694 116.794 450.626 131.975 470.686 158.161C494.095 188.753 499.665 229.888 485.923 271.025C479.181 291.18 463.971 307.73 444.171 316.456C432.489 321.62 420.333 325.232 408.004 327.262ZM375.273 124.765C362.688 126.837 350.542 131.57 339.043 138.908C324.061 148.472 311.538 162.08 302.829 178.258L302.391 179.051C297.59 188.018 292.618 197.269 284.57 205.246C279.896 209.935 276.222 215.116 273.673 220.62C269.276 230.05 268.036 240.317 269.996 251.159C272.216 263.441 278.673 274.898 288.641 284.294C338.852 331.551 400.578 329.057 441.605 310.968C459.795 302.952 473.779 287.726 479.959 269.21C493.071 229.957 487.848 190.799 465.64 161.788C446.778 137.163 417.743 122.878 387.983 123.584C383.714 123.693 379.468 124.075 375.273 124.765Z" fill="#390075"/>
<path d="M420.309 214.312C428.112 218.133 430.33 229.08 425.262 238.813C420.19 248.524 409.737 253.317 401.934 249.496C394.131 245.676 391.913 234.728 396.982 224.996C402.053 215.285 412.506 210.492 420.309 214.312Z" fill="#390075"/>
<path d="M413.51 220.176C415.887 221.861 415.906 225.692 413.566 228.747C411.225 231.801 407.407 232.917 405.051 231.229C402.674 229.545 402.655 225.713 404.996 222.659C407.336 219.604 411.133 218.491 413.51 220.176Z" fill="white"/>
<g opacity="0.35">
<path d="M415.378 236.966C416.961 238.082 416.967 240.644 415.421 242.678C413.854 244.716 411.307 245.453 409.745 244.333C408.161 243.217 408.155 240.655 409.701 238.621C411.25 236.607 413.794 235.849 415.378 236.966Z" fill="white"/>
</g>
<path d="M335.712 183.5C343.745 186.859 346.62 197.677 342.138 207.652C337.656 217.626 327.519 223.003 319.485 219.644C311.452 216.285 308.577 205.467 313.059 195.492C317.541 185.518 327.679 180.141 335.712 183.5Z" fill="#390075"/>
<path d="M329.262 189.752C331.725 191.296 331.985 195.13 329.838 198.301C327.692 201.472 323.953 202.808 321.49 201.264C319.027 199.721 318.768 195.887 320.914 192.716C323.057 189.524 326.799 188.209 329.262 189.752Z" fill="white"/>
<g opacity="0.35">
<path d="M332.154 206.393C333.788 207.416 333.968 209.971 332.524 212.094C331.08 214.217 328.6 215.092 326.945 214.072C325.311 213.049 325.131 210.494 326.575 208.371C328.018 206.247 330.499 205.373 332.154 206.393Z" fill="white"/>
</g>
<path d="M417.94 325.583C391.131 329.998 363.556 327.505 337.539 317.997C298.769 303.832 268.152 275.825 251.323 239.107C216.599 163.306 252.197 73.5952 330.686 39.1477C409.172 4.67954 501.275 38.3026 535.979 114.107C552.807 150.825 553.809 191.843 538.815 229.627C523.818 267.39 494.637 297.384 456.619 314.088C444.113 319.558 431.121 323.413 417.94 325.583ZM370.132 33.9026C357.717 35.9468 345.341 39.5522 333.308 44.8385C296.879 60.8359 268.895 89.5943 254.536 125.791C240.178 161.987 241.142 201.317 257.259 236.499C273.378 271.702 302.731 298.54 339.896 312.122C377.057 325.684 417.605 324.346 454.034 308.349C529.255 275.308 563.391 189.333 530.104 116.685C502.143 55.6584 435.377 23.1596 370.132 33.9026Z" fill="#390075"/>
<g opacity="0.6">
<path d="M514.032 186.894C518.183 168.218 513.962 151.562 504.603 149.692C495.244 147.822 484.291 161.446 480.139 180.122C475.987 198.798 480.209 215.454 489.568 217.324C498.927 219.194 509.88 205.57 514.032 186.894Z" fill="white"/>
</g>
<g opacity="0.6">
<path d="M487.369 242.885C492.509 242.039 496.01 237.318 495.191 232.34C494.371 227.362 489.54 224.012 484.401 224.858C479.262 225.705 475.76 230.426 476.58 235.404C477.399 240.382 482.23 243.731 487.369 242.885Z" fill="white"/>
</g>
<g opacity="0.6">
<path d="M345.975 54.2983C330.73 57.6136 318.826 64.6157 317.672 65.3141C306.824 71.8245 300.099 78.8 295.567 83.5502C286.616 92.9472 276.325 103.772 270.86 120.794C265.069 138.886 267.629 154.967 269.981 164.071C273.972 150.448 283.443 124.95 306.307 100.297C330.49 74.2196 357.378 62.3141 371.179 57.2665C368.12 55.694 362.96 53.5778 356.344 53.2477C352.623 53.0977 349.48 53.5307 345.975 54.2983Z" fill="white"/>
</g>
<path d="M496.09 304.348C496.642 301.058 497.625 292.549 493.007 283.628C491.374 280.486 487.811 273.595 480.035 270.469C466.473 265.012 452.48 276.065 451.785 276.624C437.761 288.022 440.295 306.734 440.506 308.013C440.024 310.931 439.521 313.853 439.036 316.75C448.926 319.698 473.478 311.27 496.09 304.348Z" fill="white"/>
<path d="M439.525 319.72C439.205 319.773 438.879 319.784 438.543 319.734C436.839 319.484 435.688 317.937 435.962 316.282L437.351 307.981C436.954 304.636 435.457 285.986 449.806 274.302C450.462 273.77 465.846 261.471 481.257 267.661C490.065 271.211 494.072 278.94 495.796 282.237C500.512 291.353 499.948 300.28 499.181 304.792C498.907 306.447 497.3 307.58 495.597 307.331C493.894 307.082 492.742 305.534 493.017 303.879C493.661 300.087 494.154 292.591 490.214 284.999C488.7 282.049 485.529 275.94 478.81 273.255C466.842 268.446 453.896 278.819 453.782 278.922C440.974 289.336 443.475 306.783 443.576 307.529C443.627 307.838 443.614 308.158 443.576 308.461L442.106 317.198C441.887 318.526 440.824 319.506 439.525 319.72Z" fill="#390075"/>
<defs>
<linearGradient id="paint0_linear_261_2103" x1="629.854" y1="621.571" x2="457.636" y2="572.749" gradientUnits="userSpaceOnUse">
<stop stop-color="#EC1C24"/>
<stop offset="0.1253" stop-color="#ED2124"/>
<stop offset="0.2806" stop-color="#EE3124"/>
<stop offset="0.4518" stop-color="#F14A25"/>
<stop offset="0.6344" stop-color="#F56D26"/>
<stop offset="0.824" stop-color="#FA9A27"/>
<stop offset="1" stop-color="#FFCA28"/>
</linearGradient>
</defs>
</svg>
