<svg width="626" height="609" viewBox="0 0 626 609" fill="none" xmlns="http://www.w3.org/2000/svg">
<ellipse cx="313" cy="299.5" rx="313" ry="299.5" fill="#B0A2D7"/>
<path d="M169.888 66.9532C131.666 79.6771 106.393 103.606 93.42 138.117C83.2857 89.4379 85.203 59.5579 87.3195 45.9127C88.0914 40.8829 92.8473 37.3969 97.8522 38.2435C135.476 44.5432 169.888 66.9532 169.888 66.9532Z" fill="white"/>
<g opacity="0.7">
<path d="M169.888 66.9532C169.141 67.2022 168.419 67.4512 167.697 67.7251C155.247 60.7531 130.421 48.4027 104.002 43.9705C98.9727 43.1239 94.2417 46.6099 93.4698 51.6397C91.5774 63.9403 89.8095 89.3632 96.8811 129.826C95.6361 132.515 94.4907 135.279 93.42 138.117C83.2857 89.4379 85.203 59.5579 87.3195 45.9127C88.0914 40.8829 92.8473 37.3969 97.8522 38.2435C135.476 44.5432 169.888 66.9532 169.888 66.9532Z" fill="white"/>
</g>
<path d="M140.531 588.334C140.531 588.334 140.157 588.359 139.46 588.409C134.007 588.633 109.157 588.957 100.317 575.81C99.3709 574.366 98.5741 572.772 98.0512 571.004C92.0254 550.935 117.672 541.647 117.672 541.647L140.531 588.334Z" fill="#FFAD40"/>
<g opacity="0.7">
<path d="M101.612 577.453C101.612 577.478 101.637 577.478 101.637 577.503C100.068 575.66 98.8231 573.494 98.0512 570.979C92.0254 550.91 117.672 541.622 117.672 541.622L120.909 548.221C117.946 549.366 95.9845 558.728 101.612 577.453Z" fill="white"/>
</g>
<path d="M573.766 158.66C572.72 163.765 570.23 168.496 566.719 172.38C551.928 188.739 545.081 211.946 543.686 239.859C542.865 255.895 543.861 273.499 546.176 292.249C567.765 406.863 551.903 490.328 492.741 537.738C466.696 587.861 417.767 596.776 360.597 590.849C360.597 590.849 329.073 595.132 281.141 592.468C233.208 589.779 204.274 609.226 164.982 602.752C156.964 601.432 149.196 596.776 142.323 590.152C115.431 564.231 102.284 508.132 143.294 502.454C143.294 502.454 153.752 438.661 155.695 421.604C157.637 404.548 157.213 360.3 168.219 339.559C125.217 334.255 89.8341 321.655 85.5264 279.325C83.4846 251.139 82.2396 224.172 83.0364 200.193C83.2605 176.713 86.6718 156.021 93.3948 138.142C106.368 103.631 131.641 79.7022 169.863 66.9783C190.455 60.1059 214.807 56.4705 243.044 56.1966C249.219 56.1219 255.593 56.2215 262.142 56.4705C355.642 -30.804 371.603 7.24322 361.244 135.503C361.244 135.503 361.767 136.424 362.663 138.142L362.688 138.167C366 144.517 374.391 161.847 380.218 184.058C389.406 219.142 392.12 266.427 358.007 301.984C358.007 301.984 379.82 315.804 395.805 344.514C395.805 344.514 465.052 355.744 484.524 445.433C484.549 445.483 484.549 445.508 484.549 445.558C496.75 407.038 499.215 362.292 489.504 309.753C484.275 281.965 481.063 255.496 481.362 231.368C481.885 188.714 493.413 153.356 524.289 130.797C533.179 124.273 544.732 122.207 555.14 125.842C555.24 125.867 555.315 125.892 555.414 125.942C568.586 130.648 576.953 143.073 573.766 158.66Z" fill="white"/>
<g opacity="0.7">
<path d="M177.084 532.235C207.138 488.535 247.675 461.32 309.427 467.47C309.427 467.47 278.377 455.966 246.082 467.271C213.787 478.575 203.428 491.424 202.333 492.868C201.262 494.337 188.09 507.285 188.09 507.285" fill="white"/>
</g>
<g opacity="0.7">
<path d="M167.373 341.252C170.884 341.824 174.469 342.322 178.105 342.771C167.099 363.487 167.522 407.76 165.58 424.816C163.638 441.873 153.18 505.666 153.18 505.666C105.969 512.19 130.521 585.57 165.182 602.751C165.107 602.751 165.057 602.727 164.982 602.727C125.69 596.253 91.8014 509.551 143.295 502.429C143.295 502.429 153.753 438.636 155.695 421.579C157.587 404.971 157.239 362.616 167.373 341.252Z" fill="white"/>
</g>
<path d="M380.218 184.033C373.918 187.694 367.096 190.557 360.099 192.524C324.915 202.409 284.353 189.511 261.57 160.926C238.736 132.241 235.101 92.2269 243.069 56.1966C249.244 56.1219 255.618 56.2215 262.167 56.4705C355.667 -30.804 371.627 7.24322 361.269 135.503C361.269 135.503 361.792 136.424 362.688 138.142L362.713 138.167C366 144.492 374.391 161.822 380.218 184.033Z" fill="#FFAD40"/>
<g opacity="0.7">
<path d="M405.292 347.078C406.537 347.502 407.907 347.975 409.326 348.547C406.986 347.95 405.666 347.726 405.666 347.726C405.566 347.502 405.417 347.302 405.292 347.078Z" fill="white"/>
</g>
<g opacity="0.7">
<path d="M559.398 127.684C550.608 126.315 541.495 128.705 534.174 134.034C503.298 156.593 491.77 191.951 491.247 234.605C490.948 258.733 494.16 285.202 499.389 312.99C509.1 365.529 506.635 410.274 494.434 448.795C494.434 448.795 486.093 464.382 467.94 469.761C467.94 469.761 484.25 453.999 490.276 433.008C489.877 431.713 489.454 430.468 489.056 429.248C497.223 394.538 497.895 355.046 489.529 309.778C484.3 281.99 481.088 255.521 481.386 231.393C481.909 188.739 493.438 153.381 524.314 130.822C533.303 124.248 544.956 122.181 555.439 125.941C556.784 126.414 558.128 126.987 559.398 127.684Z" fill="white"/>
</g>
<g opacity="0.2">
<path d="M484.524 445.408C483.901 448.496 482.906 451.309 481.511 453.725C465.749 481.14 433.081 469.711 433.081 469.711C471.427 367.795 358.032 342.745 358.032 342.745C353.276 312.094 320.533 320.933 320.533 320.933C289.507 330.221 226.311 336.247 226.311 336.247C367.594 279.724 356.488 188.116 326.309 92.127L342.345 109.582L362.663 138.092L362.688 138.117C371.229 154.551 413.708 243.892 358.007 301.934C358.007 301.934 379.82 315.754 395.805 344.464C395.805 344.489 465.052 355.718 484.524 445.408Z" fill="#00046A"/>
</g>
<g opacity="0.6">
<path d="M359.526 32.6162C347.574 5.22617 319.412 13.493 264.906 64.3886C228.427 62.9693 197.751 66.5051 172.651 74.8715C134.43 87.5954 109.181 111.524 96.1836 146.036C89.4606 163.889 86.0244 184.606 85.8252 208.062C85.0284 232.015 86.2734 259.032 88.2903 287.194C88.6887 291.153 89.3859 294.888 90.3072 298.324C87.8919 292.747 86.2734 286.422 85.5513 279.251C83.5095 251.064 82.2645 224.097 83.0613 200.118C83.2854 176.638 86.6967 155.946 93.4197 138.068C106.393 103.556 131.666 79.6274 169.888 66.9035C194.987 58.5122 225.688 54.9764 262.167 56.4206C321.404 1.16749 349.541 -3.81254 359.526 32.6162Z" fill="white"/>
</g>
<path d="M105.147 114.712C105.147 114.712 97.6276 78.6565 102.633 60.1807C102.633 60.1807 121.283 63.2931 137.941 82.0428" fill="#FC9AE9"/>
<g opacity="0.2">
<path d="M111.97 107.939L105.148 114.712C105.148 114.712 97.6279 78.6565 102.658 60.2056C102.658 60.2056 117.772 62.7205 132.961 76.9384C121.407 69.1198 111.821 67.5262 111.821 67.5262C108.833 78.532 110.302 95.7877 111.97 107.939Z" fill="#00046A"/>
</g>
<path d="M295.832 66.4055C313.536 78.482 329.572 92.8991 342.046 112.396C350.886 32.2676 345.906 5.37559 295.832 66.4055Z" fill="#FC9AE9"/>
<g opacity="0.2">
<path d="M345.532 58.5372C339.507 38.0196 328.078 40.634 306.116 73.9004C302.754 71.2859 299.318 68.8208 295.807 66.4304C331.962 22.3823 344.611 24.1005 345.532 58.5372Z" fill="#00046A"/>
</g>
<path d="M573.766 158.66C572.72 163.764 570.23 168.495 566.719 172.38C551.928 188.739 545.081 211.946 543.687 239.859C518.214 212.095 481.362 231.368 481.362 231.368C481.885 188.714 493.413 153.356 524.289 130.797C533.278 124.223 544.932 122.157 555.414 125.916C568.587 130.647 576.953 143.097 573.766 158.66Z" fill="#FFAD40"/>
<path d="M179.948 234.381C169.614 228.779 149.47 231.319 142.473 237.842C140.73 239.461 140.381 242.125 141.552 244.217C143.718 248.076 149.072 254.55 160.949 256.468C161.696 256.592 162.468 256.517 163.215 256.318C166.726 255.322 177.059 251.637 182.189 241.328C183.458 238.813 182.413 235.751 179.948 234.381Z" fill="#00046A"/>
<path d="M249.817 183.461C231.989 180.771 218.344 175.742 214.808 158.61C214.808 158.61 212.592 168.869 219.887 180.049C214.534 193.371 216.028 217.474 235.45 224.197C237.043 224.745 238.762 224.844 240.405 224.496C256.142 221.109 260.4 204.053 256.739 189.785C255.918 186.449 253.179 183.959 249.817 183.461Z" fill="#00046A"/>
<path d="M250.041 199.073C250.041 204.451 246.729 208.784 242.646 208.784C238.562 208.784 235.25 204.451 235.25 199.073C235.25 196.01 236.321 193.296 238.014 191.528C240.504 192.649 244.264 194.018 249.419 195.189C249.817 196.384 250.041 197.704 250.041 199.073Z" fill="white"/>
<path d="M114.685 172.853C106.99 183.162 99.1968 192.424 91.2786 199.72C88.5894 202.21 87.2946 205.87 87.8424 209.506C90.4071 225.865 96.8562 235.477 109.929 233.659C125.317 229.276 122.404 199.023 109.431 187.843C109.456 187.793 113.265 180.97 114.685 172.853Z" fill="#00046A"/>
<path d="M106.891 212.195C109.614 212.195 111.821 208.751 111.821 204.501C111.821 200.252 109.614 196.807 106.891 196.807C104.168 196.807 101.96 200.252 101.96 204.501C101.96 208.751 104.168 212.195 106.891 212.195Z" fill="white"/>
<g opacity="0.6">
<path d="M160.197 242.67C165.646 242.022 169.86 239.793 169.61 237.69C169.36 235.587 164.741 234.407 159.292 235.054C153.844 235.702 149.629 237.931 149.879 240.034C150.129 242.137 154.749 243.317 160.197 242.67Z" fill="white"/>
</g>
<path d="M120.362 251.438C129.201 225.019 163.289 216.827 187.318 226.015C195.56 229.028 203.154 233.883 208.707 240.432C201.411 235.975 193.767 232.788 185.849 230.895C162.343 225.193 134.953 230.696 120.362 251.438Z" fill="#00046A"/>
<path d="M143.618 285.327C143.344 272.802 156.815 264.934 168.12 264.958C173.971 264.784 179.823 266.079 184.952 268.668C190.082 271.258 194.564 275.118 197.377 279.923C188.364 274.371 178.653 271.159 168.294 271.432C158.16 271.731 148.449 275.566 143.618 285.327Z" fill="#00046A"/>
<path d="M160.7 267.822C160.028 262.468 159.106 256.069 158.808 255.023C158.808 255.073 158.932 255.422 159.256 255.82L164.36 251.836C164.983 252.608 165.406 253.181 167.149 267.025L160.7 267.822Z" fill="#00046A"/>
<path d="M181.466 608.603C175.913 608.603 170.211 608.18 164.26 607.209C135.999 602.552 112.244 562.687 112.618 533.33C112.867 514.655 122.553 502.131 139.335 498.52C141.477 485.423 149.544 435.623 151.188 421.056C151.636 417.147 151.96 411.669 152.333 405.319C153.479 386.047 154.973 360.4 161.596 343.244C123.449 337.84 85.651 325.166 81.0196 279.774C81.0196 279.724 81.0196 279.674 81.0196 279.649C78.6043 246.557 77.8324 221.259 78.5296 200.044C78.9778 152.983 92.349 116.529 118.32 91.8284C148.474 63.0938 196.282 49.6727 260.449 51.9137C302.903 12.5219 329.696 -1.27271 347.176 7.1684C367.145 16.8296 372.424 52.5611 365.876 134.532C368.913 140.159 380.965 163.665 387.14 193.794C396.029 237.195 388.31 274.221 364.805 301.262C372.001 306.765 386.717 319.639 398.719 340.48C404.172 341.725 419.012 345.933 435.496 357.661C451.905 369.314 472.771 390.703 484.599 428.153C492.816 392.994 492.965 353.527 485.022 310.6C479.22 279.724 476.531 253.803 476.805 231.343C477.403 182.813 492.044 148.75 521.575 127.162C532.008 119.517 545.23 117.475 556.908 121.684C573.068 127.485 581.634 142.724 578.173 159.606C576.978 165.408 574.164 170.886 570.056 175.443C556.784 190.109 549.638 211.274 548.193 240.108C547.421 255.197 548.218 272.03 550.634 291.576C561.59 349.867 562.785 400.19 554.144 441.15C545.28 483.256 525.808 516.747 496.277 540.701C483.428 565.003 464.928 581.014 439.754 589.629C418.738 596.825 392.842 598.743 360.622 595.456C356.09 596.029 325.811 599.539 280.867 597.025C258.382 595.755 240.28 599.49 222.75 603.075C208.981 605.864 195.709 608.603 181.466 608.603ZM90.0582 278.902C93.4944 312.293 116.303 328.553 168.792 335.027C170.261 335.201 171.581 336.122 172.253 337.442C172.95 338.762 172.925 340.355 172.228 341.65C164.285 356.59 162.542 386.221 161.397 405.842C161.023 412.316 160.675 417.919 160.202 422.077C158.259 439.059 148.2 500.562 147.752 503.151C147.428 505.119 145.859 506.638 143.892 506.911C125.765 509.426 121.806 522.723 121.656 533.43C121.333 558.504 142.622 594.435 165.704 598.22C185.251 601.432 202.581 597.896 220.933 594.111C239.01 590.401 257.71 586.567 281.39 587.886C328.252 590.501 359.675 586.367 359.974 586.318C360.323 586.268 360.696 586.268 361.045 586.293C427.528 593.19 466.895 577.553 488.682 535.596C488.981 535.048 489.38 534.55 489.878 534.152C545.927 489.232 563.357 408.108 541.694 293.045C541.67 292.946 541.67 292.846 541.645 292.771C539.155 272.652 538.333 255.247 539.13 239.585C540.674 208.585 548.592 185.577 563.333 169.292C566.37 165.931 568.412 161.922 569.284 157.714C571.823 145.239 565.773 134.432 553.846 130.15C545.006 126.962 534.947 128.556 526.929 134.407C499.862 154.178 486.441 185.901 485.869 231.368C485.595 253.205 488.234 278.554 493.936 308.857C503.373 359.927 501.68 406.365 488.832 446.853C488.209 448.82 486.342 450.115 484.3 450.015C482.258 449.915 480.515 448.446 480.092 446.454C461.541 360.649 395.731 349.045 395.058 348.921C393.689 348.697 392.494 347.875 391.821 346.655C376.632 319.389 355.766 305.869 355.567 305.744C354.422 305.022 353.65 303.802 353.5 302.457C353.351 301.113 353.799 299.768 354.72 298.772C379.097 273.374 387.041 238.714 378.301 195.761C371.677 163.217 357.434 137.918 357.31 137.669C356.862 136.873 356.663 135.976 356.737 135.055C360.846 84.2837 363.012 24.7727 343.241 15.2111C329.795 8.71219 304.298 23.2787 265.255 59.7074C264.358 60.5291 263.188 60.9773 261.993 60.9275C199.419 58.4624 153.205 71.0369 124.595 98.2775C100.491 121.235 88.0414 155.498 87.6181 200.119C86.896 221.184 87.6927 246.159 90.0582 278.902Z" fill="#00046A"/>
<path d="M93.4197 142.649C91.3281 142.649 89.4357 141.18 88.9875 139.039C78.6789 89.5378 80.6958 59.0104 82.8372 45.2158C83.4099 41.5555 85.377 38.3434 88.3899 36.1522C91.3779 33.9859 95.0133 33.1393 98.6238 33.7369C136.721 40.1113 170.933 62.1976 172.378 63.1189C174.469 64.4884 175.067 67.3021 173.697 69.3937C172.328 71.4853 169.514 72.0829 167.422 70.7134C167.074 70.4893 133.309 48.7267 97.1298 42.676C95.9097 42.4768 94.6896 42.7507 93.6936 43.4977C92.6727 44.2447 92.0004 45.3403 91.8012 46.5853C89.7594 59.7823 87.8421 89.0896 97.8519 137.171C98.3748 139.612 96.7812 142.027 94.341 142.525C94.0422 142.625 93.7185 142.649 93.4197 142.649Z" fill="#00046A"/>
<path d="M105.148 118.621C103.355 118.621 101.737 117.351 101.338 115.533C101.014 114.014 93.6939 78.3326 98.898 59.1845C99.4209 57.2672 101.313 56.0471 103.28 56.3708C104.102 56.4953 123.474 59.9315 140.854 79.5029C142.274 81.0965 142.124 83.5616 140.531 84.9809C138.937 86.4002 136.472 86.2508 135.053 84.6572C123.798 71.9831 111.522 66.8537 105.596 64.9862C102.633 83.1632 108.883 113.616 108.958 113.94C109.406 116.031 108.036 118.098 105.945 118.546C105.671 118.596 105.422 118.621 105.148 118.621Z" fill="#00046A"/>
<path d="M342.046 116.28C340.751 116.28 339.506 115.633 338.784 114.488C327.853 97.4063 313.511 83.1635 293.665 69.6179C292.769 68.9954 292.171 68.0491 291.997 66.9535C291.848 65.8828 292.146 64.7872 292.844 63.9406C315.702 36.1024 329.546 25.9432 339.133 29.977C350.363 34.708 352.155 56.396 345.906 112.819C345.731 114.463 344.536 115.807 342.918 116.181C342.619 116.256 342.32 116.28 342.046 116.28ZM301.534 65.6339C317.146 76.7144 329.397 88.3426 339.282 101.589C341.548 79.1794 344.461 40.6592 336.095 37.1483C333.68 36.1274 325.537 36.9989 301.534 65.6339Z" fill="#00046A"/>
<path d="M360.97 305.396C339.233 320.336 312.067 326.86 286.196 329.798C282.511 330.146 278.8 330.395 275.115 330.694C289.632 328.279 304.049 324.768 317.769 319.489C329.596 314.883 341.001 309.28 351.16 301.736C352.455 300.764 353.974 299.569 355.069 298.548C359.775 294.315 365.851 301.337 360.97 305.396Z" fill="#00046A"/>
<path d="M168.319 335.002C183.981 336.67 199.743 337.741 215.529 337.815C207.735 339.309 199.892 340.505 191.999 341.526C184.056 342.547 176.187 343.418 168.169 344.065C161.546 344.29 161.695 334.554 168.319 335.002Z" fill="#00046A"/>
<path d="M394.909 348.946C372.748 343.816 349.093 344.464 327.355 351.411C332.634 349.02 338.038 346.73 343.69 345.111C360.771 340.007 378.898 338.214 396.702 340.056C403.027 341.102 401.184 350.415 394.909 348.946Z" fill="#00046A"/>
<path d="M489.006 446.33C485.669 456.365 478.15 464.706 469.236 470.134C466.447 471.902 463.384 473.222 460.371 474.467C463.01 472.574 465.6 470.657 467.841 468.341C474.166 462.141 478.947 453.924 480.067 445.085C480.067 444.935 480.092 444.736 480.067 444.736C475.361 438.835 483.752 431.738 488.807 437.366C490.027 438.81 490.4 440.702 490.002 442.421L489.006 446.33Z" fill="#00046A"/>
<path d="M494.708 541.821C486.217 544.66 477.004 544.436 468.314 543.34C464.206 542.767 459.948 541.846 455.939 540.726C453.922 540.178 451.955 539.481 449.963 538.858L444.136 536.667C452.054 538.236 460.471 539.207 468.513 538.808C476.158 538.36 483.976 537.24 490.749 533.654C497.049 529.197 502.128 539.431 494.708 541.821Z" fill="#00046A"/>
<path d="M142.722 497.923C156.018 497.051 168.792 504.023 177.706 513.485C179.698 515.477 181.591 517.942 183.334 520.158L175.44 521.254C180.371 509.402 187.99 498.869 196.929 489.731C210.176 476.036 227.357 465.876 246.206 462.49C264.483 458.83 283.73 460.1 301.484 464.955C260.524 462.166 216.351 474.317 192.273 509.476C189.409 513.635 186.845 517.992 184.753 522.574C184.479 523.196 184.18 523.893 183.981 524.391C182.811 527.628 178.229 528.301 176.162 525.587C170.062 517.37 161.77 510.248 151.686 507.733C149.046 507.111 146.282 506.712 143.568 506.936C137.692 507.136 136.97 498.769 142.722 497.923Z" fill="#00046A"/>
<path d="M194.862 499.068C177.308 485.747 169.614 458.506 168.369 437.341C168.244 434.154 168.219 430.967 168.219 427.829C169.016 430.917 169.663 433.979 170.46 437.017C174.992 453.974 182.338 470.259 193.468 483.904C195.808 486.817 198.323 489.706 200.863 492.395C204.499 496.429 199.27 502.255 194.862 499.068Z" fill="#00046A"/>
<path d="M184.081 523.893C181.292 529.546 178.404 535.372 177.134 541.597C175.366 535.123 175.316 528.326 175.266 521.627C175.316 519.038 177.432 516.971 180.022 517.021C183.433 517.021 185.724 520.93 184.081 523.893Z" fill="#00046A"/>
<path d="M120.91 513.51C130.795 516.672 136.348 527.08 139.41 536.269L137.294 533.579C133.808 529.496 129.6 525.636 124.669 523.57C123.051 522.972 121.358 522.325 119.714 522.499L119.814 522.524L120.91 513.51Z" fill="#00046A"/>
<path d="M142.398 499.74C142.273 499.616 142.124 499.541 141.975 499.466L141.999 499.491C143.792 500.985 145.61 502.604 147.129 504.372C151.835 509.75 155.047 516.149 157.388 522.822C154.649 519.361 151.461 515.95 148.05 513.211C144.913 510.721 141.626 508.679 137.891 507.384C137.692 507.285 137.293 507.16 137.094 507.036C136.845 506.886 136.621 506.737 136.397 506.563L142.398 499.74Z" fill="#00046A"/>
<path d="M136.123 592.991C125.267 592.991 99.3459 590.974 93.7185 572.274C87.9666 553.151 105.845 541.049 116.129 537.339C118.494 536.493 121.084 537.713 121.93 540.053C122.777 542.394 121.557 545.008 119.216 545.855C118.295 546.179 97.6776 553.972 102.409 569.659C106.492 583.23 131.068 584.45 140.207 583.778C142.672 583.578 144.888 585.471 145.062 587.961C145.237 590.451 143.369 592.642 140.879 592.816C140.555 592.866 138.787 592.991 136.123 592.991Z" fill="#00046A"/>
<path d="M422.125 566.622C420.058 566.622 418.34 564.978 418.24 562.887C418.14 560.745 419.809 558.927 421.95 558.828C439.306 558.106 446.352 548.644 446.651 548.245C447.896 546.527 450.336 546.104 452.054 547.349C453.797 548.594 454.221 550.984 452.976 552.727C452.602 553.25 443.638 565.675 422.274 566.572C422.249 566.622 422.199 566.622 422.125 566.622Z" fill="#00046A"/>
<path d="M438.982 574.49C438.783 574.49 438.583 574.465 438.359 574.44C436.243 574.092 434.799 572.1 435.122 569.983C437.089 557.658 430.018 548.096 429.943 547.996C428.648 546.278 428.997 543.863 430.69 542.568C432.408 541.273 434.824 541.597 436.118 543.29C436.492 543.788 445.282 555.491 442.792 571.203C442.518 573.121 440.849 574.49 438.982 574.49Z" fill="#00046A"/>
<g opacity="0.2">
<path d="M118.37 43.5225C118.37 43.5225 137.368 56.9187 126.562 69.6426L134.779 78.7062L162.517 64.9116C162.517 64.9116 157.488 62.4963 155.695 60.2055C153.902 57.9147 137.941 48.9257 137.941 48.9257" fill="#00046A"/>
</g>
<g opacity="0.2">
<path d="M139.485 588.409C134.031 588.633 109.181 588.957 100.342 575.81C101.064 575.735 102.035 575.785 103.255 575.959C119.664 578.449 118.843 560.969 118.843 560.969L130.247 576.407C131.741 578.15 136.746 584.101 136.746 584.101C136.746 584.101 138.09 585.645 139.485 588.409Z" fill="#00046A"/>
</g>
<g opacity="0.2">
<path d="M573.766 158.66C572.72 163.765 570.23 168.496 566.719 172.38C551.928 188.739 545.081 211.946 543.686 239.859C542.865 255.895 543.861 273.499 546.176 292.248C567.765 406.863 551.903 490.328 492.741 537.738C466.695 587.861 417.767 596.776 360.597 590.849C360.597 590.849 329.073 595.132 281.141 592.468C233.208 589.779 204.274 609.225 164.982 602.751C156.964 601.432 149.196 596.776 142.323 590.152L145.909 586.467C145.909 586.467 175.042 593.314 197.651 577.528C220.26 561.716 266.475 564.854 309.203 570.63C344.312 575.361 396.876 569.51 424.963 546.702C436.865 537.04 450.162 529.321 464.629 524.267C487.039 516.423 517.741 496.428 527.9 445.583C544.558 362.242 509.299 273.723 527.9 208.834C546.102 145.314 577.55 153.082 555.14 125.867C568.487 130.473 576.978 142.973 573.766 158.66Z" fill="#00046A"/>
</g>
<g opacity="0.2">
<path d="M263.885 462.913C228.079 464.756 193.219 464.656 170.087 441.101C170.087 441.101 185.749 501.707 163.389 507.733L181.864 518.017C181.864 518.017 195.659 475.861 263.885 462.913Z" fill="#00046A"/>
</g>
</svg>
