<svg width="637" height="620" viewBox="0 0 637 620" fill="none" xmlns="http://www.w3.org/2000/svg">
<ellipse cx="324" cy="299.5" rx="313" ry="299.5" fill="#B0A2D7"/>
<path d="M237.125 485.098C237.125 485.098 176.082 509.533 122.6 473.443C69.6573 437.735 91.6623 363.328 101.36 337.115C112.362 307.37 107.187 264.238 76.7673 269.233C46.1448 274.273 75.6873 321.185 43.7598 331.76C29.7423 336.395 0.132308 322.018 4.92481 273.35C11.4048 207.74 102.642 195.883 135.65 259.94C168.657 323.998 112.07 366.5 122.577 415.078C131.442 456.118 168.5 470.878 225.515 450.83" fill="white"/>
<path d="M189.537 493.625C169.197 493.625 144.987 489.215 122.262 473.893C70.175 438.77 89.9075 366.388 100.82 336.89C108.987 314.84 107.593 289.078 97.6025 276.973C92.4725 270.763 85.4975 268.333 76.835 269.75C62.12 272.158 61.715 284.735 61.31 298.033C60.86 312.185 60.41 326.788 43.9175 332.255C37.0775 334.528 27.92 332.21 20.63 326.383C13.1825 320.42 1.16749 305.593 4.36249 273.26C7.17499 244.73 26.57 223.648 54.9875 218.225C82.1 213.05 117.695 223.85 136.122 259.648C155.54 297.335 144.313 327.103 133.468 355.903C125.908 375.973 118.775 394.918 123.095 414.92C126.807 432.065 135.312 444.463 148.385 451.775C166.722 462.035 193.317 461.518 225.29 450.268L225.672 451.325C193.407 462.688 166.497 463.183 147.845 452.765C134.48 445.295 125.773 432.65 121.993 415.168C117.605 394.85 124.782 375.748 132.41 355.52C143.165 326.945 154.302 297.425 135.11 260.188C116.93 224.908 81.875 214.265 55.19 219.35C27.29 224.683 8.2325 245.383 5.465 273.395C2.3375 305.21 14.06 319.723 21.3275 325.528C28.325 331.13 37.055 333.358 43.5575 331.22C59.285 326.023 59.735 311.78 60.1625 298.033C60.59 284.263 60.995 271.258 76.6325 268.693C85.5875 267.23 93.125 269.863 98.435 276.298C110.067 290.405 108.875 318.283 101.832 337.34C91.01 366.568 71.435 438.32 122.847 473.015C175.475 508.498 236.248 484.85 236.855 484.603L237.282 485.638C236.967 485.75 216.74 493.625 189.537 493.625Z" fill="#390075"/>
<path d="M237.125 485.098C237.125 485.098 176.082 509.533 122.6 473.443C69.6573 437.735 91.6623 363.328 101.36 337.115C112.362 307.37 107.187 264.238 76.7673 269.233C46.1448 274.273 75.6873 321.185 43.7598 331.76C29.7423 336.395 0.132308 322.018 4.92481 273.35C11.4048 207.74 102.642 195.883 135.65 259.94C168.657 323.998 112.07 366.5 122.577 415.078C131.442 456.118 168.5 470.878 225.515 450.83" fill="white"/>
<path d="M189.537 493.625C169.197 493.625 144.987 489.215 122.262 473.893C70.175 438.77 89.9075 366.388 100.82 336.89C108.987 314.84 107.593 289.078 97.6025 276.973C92.4725 270.763 85.4975 268.333 76.835 269.75C62.12 272.158 61.715 284.735 61.31 298.033C60.86 312.185 60.41 326.788 43.9175 332.255C37.0775 334.528 27.92 332.21 20.63 326.383C13.1825 320.42 1.16749 305.593 4.36249 273.26C7.17499 244.73 26.57 223.648 54.9875 218.225C82.1 213.05 117.695 223.85 136.122 259.648C155.54 297.335 144.313 327.103 133.468 355.903C125.908 375.973 118.775 394.918 123.095 414.92C126.807 432.065 135.312 444.463 148.385 451.775C166.722 462.035 193.317 461.518 225.29 450.268L225.672 451.325C193.407 462.688 166.497 463.183 147.845 452.765C134.48 445.295 125.773 432.65 121.993 415.168C117.605 394.85 124.782 375.748 132.41 355.52C143.165 326.945 154.302 297.425 135.11 260.188C116.93 224.908 81.875 214.265 55.19 219.35C27.29 224.683 8.2325 245.383 5.465 273.395C2.3375 305.21 14.06 319.723 21.3275 325.528C28.325 331.13 37.055 333.358 43.5575 331.22C59.285 326.023 59.735 311.78 60.1625 298.033C60.59 284.263 60.995 271.258 76.6325 268.693C85.5875 267.23 93.125 269.863 98.435 276.298C110.067 290.405 108.875 318.283 101.832 337.34C91.01 366.568 71.435 438.32 122.847 473.015C175.475 508.498 236.248 484.85 236.855 484.603L237.282 485.638C236.967 485.75 216.74 493.625 189.537 493.625Z" fill="#390075"/>
<path d="M237.125 485.098C237.125 485.098 176.083 509.533 122.6 473.443C69.6576 437.735 91.6626 363.327 101.36 337.115C110.99 311.082 108.223 274.813 87.0052 269.503C83.9677 268.738 80.5701 268.602 76.7676 269.232C46.1226 274.272 75.6876 321.185 43.7601 331.76C29.7651 336.395 0.132641 322.04 4.94764 273.35C8.61514 236.248 39.3726 216.335 71.3676 217.618C95.9826 218.585 121.318 232.085 135.65 259.94C168.635 323.998 112.093 366.522 122.578 415.077C131.465 456.117 168.5 470.878 225.515 450.83L237.125 485.098Z" fill="white"/>
<path d="M189.537 493.648C169.197 493.648 144.987 489.238 122.285 473.915C70.1974 438.793 89.93 366.41 100.842 336.913C107.885 317.855 107.885 295.198 100.82 281.81C97.4674 275.465 92.7875 271.505 86.8925 270.02C83.855 269.255 80.4799 269.165 76.8799 269.75C62.1649 272.158 61.7599 284.735 61.3549 298.033C60.9049 312.185 60.4549 326.788 43.9624 332.255C37.1224 334.528 27.9874 332.21 20.6974 326.383C13.2499 320.42 1.23495 305.615 4.40745 273.26C6.13995 255.62 14.0374 240.86 27.1999 230.623C39.3049 221.195 54.9875 216.358 71.4125 217.033C98.7724 218.113 122.982 234.043 136.167 259.648C155.585 297.335 144.357 327.103 133.512 355.903C125.952 375.973 118.82 394.918 123.14 414.92C126.852 432.065 135.357 444.463 148.43 451.775C166.767 462.035 193.362 461.518 225.335 450.268L225.875 450.088L237.822 485.413L237.327 485.615C236.967 485.75 216.74 493.648 189.537 493.648ZM81.4249 268.265C83.4274 268.265 85.34 268.49 87.14 268.94C93.35 270.493 98.2999 274.655 101.787 281.293C108.987 294.928 109.032 317.968 101.877 337.295C91.0775 366.545 71.48 438.275 122.892 472.97C173 506.765 230.465 486.943 236.405 484.738L225.155 451.505C193.115 462.665 166.407 463.115 147.867 452.743C134.502 445.273 125.795 432.628 122.015 415.145C117.627 394.828 124.805 375.725 132.432 355.498C143.187 326.923 154.325 297.38 135.132 260.143C122.127 234.898 98.2774 219.193 71.3224 218.135C41.4199 216.92 9.19995 235.528 5.46495 273.35C2.33745 305.165 14.06 319.678 21.3275 325.483C28.325 331.085 37.0549 333.313 43.5349 331.153C59.2624 325.933 59.7125 311.713 60.14 297.965C60.5675 284.195 60.9724 271.19 76.6099 268.625C78.2974 268.4 79.8724 268.265 81.4249 268.265Z" fill="#390075"/>
<path d="M87.0052 269.48C83.9677 268.715 80.5701 268.58 76.7676 269.21C46.1226 274.25 75.6876 321.163 43.7601 331.738C29.7651 336.373 0.132641 322.018 4.94764 273.328C8.61514 236.225 39.3726 216.313 71.3676 217.595L68.3301 224.93C66.6201 229.048 68.5551 233.75 72.6501 235.505C77.3751 237.508 79.0626 243.335 76.1601 247.543L75.2601 248.848C73.0101 252.133 73.4602 256.543 76.3402 259.288L87.0052 269.48Z" fill="#FFAD40"/>
<path d="M189.808 497.135C170.008 497.135 144.47 492.995 120.373 476.727C66.2827 440.255 86.4652 365.982 97.6477 335.742C105.298 315.065 104.128 290.225 95.0152 279.155C90.7177 273.957 84.8002 271.932 77.4202 273.125C66.0127 274.992 65.2027 283.43 64.7302 298.145C64.3027 312.027 63.7402 329.285 45.0202 335.495C37.1002 338.105 26.7052 335.585 18.5377 329.037C10.5502 322.647 -2.34232 306.875 1.01018 272.922C3.98018 242.84 24.4327 220.61 54.3802 214.872C82.7302 209.45 119.945 220.722 139.183 258.072C159.275 297.11 147.283 328.97 136.685 357.073C129.305 376.648 122.353 395.142 126.448 414.177C129.935 430.332 137.9 441.965 150.073 448.782C167.533 458.547 193.16 457.94 224.188 447.027C226.258 446.307 228.508 447.387 229.25 449.457C229.97 451.527 228.89 453.777 226.82 454.52C193.588 466.22 165.733 466.625 146.203 455.712C132.14 447.86 122.623 434.067 118.685 415.865C114.073 394.557 121.453 375.005 129.238 354.305C139.745 326.427 150.59 297.605 132.095 261.717C114.725 227.99 81.2677 217.797 55.8202 222.68C29.4502 227.72 11.4502 247.272 8.84019 273.71C5.87019 303.927 16.7152 317.472 23.4427 322.85C30.4177 328.43 38.0227 329.442 42.4777 327.957C55.0552 323.795 56.2477 313.827 56.7652 297.897C57.1927 284.037 57.6877 268.31 76.0927 265.295C86.3077 263.607 94.9477 266.667 101.068 274.092C113.51 289.19 112.408 318.53 105.028 338.465C94.4977 366.95 75.3277 436.813 124.76 470.135C175.813 504.56 235.01 481.61 235.618 481.385C237.643 480.575 239.96 481.565 240.77 483.59C241.58 485.615 240.59 487.933 238.565 488.743C237.913 488.99 222.478 495.088 200.18 496.73C196.963 496.978 193.475 497.135 189.808 497.135Z" fill="#390075"/>
<g opacity="0.3">
<path d="M237.125 485.098C237.125 485.098 176.083 509.533 122.6 473.443C69.6576 437.735 91.6626 363.328 101.36 337.115C110.99 311.083 108.223 274.813 87.0052 269.503C83.9677 268.738 80.5701 268.603 76.7676 269.233C46.1226 274.273 75.6876 321.185 43.7601 331.76C29.7651 336.395 0.132641 322.04 4.94764 273.35C5.93764 263.45 8.84014 254.788 13.1601 247.43C12.5751 250.018 12.1477 252.695 11.8777 255.485C7.08515 304.175 29.9001 314.728 41.8251 306.043C60.9951 292.07 45.6726 253.415 83.6976 251.368C112.745 249.793 124.423 295.94 115.895 322.94C107.48 349.58 76.5651 419.893 129.508 455.6C168.703 482.038 211.948 475.985 232.265 470.855L237.125 485.098Z" fill="#390075"/>
</g>
<path d="M187.22 146.675C186.77 144.65 184.633 143.503 182.698 144.223C174.53 147.283 153.425 153.11 127.055 144.763C97.4 135.358 69.545 150.973 74 153.718C74 153.718 92.8775 160.603 98.5475 171.133C102.058 177.635 103.048 186.838 103.205 194.24C103.273 197.413 107.278 198.785 109.258 196.31C114.455 189.853 122.758 182.45 134.233 181.235C161.278 178.31 177.41 173.945 188.098 154.415C188.48 153.695 188.593 152.863 188.413 152.053L187.22 146.675Z" fill="#F22525"/>
<g opacity="0.35">
<path d="M188.075 154.415C186.748 156.845 185.33 159.05 183.823 161.03C184.003 160.468 184.025 159.883 183.89 159.298L182.698 153.92C182.248 151.895 180.11 150.748 178.153 151.468C169.985 154.528 148.88 160.378 122.51 152.008C103.768 146.045 85.7453 150.095 76.1378 154.595C74.7878 154.01 73.9553 153.718 73.9553 153.718C69.5003 150.95 97.3778 135.358 127.01 144.763C153.38 153.11 174.485 147.283 182.653 144.223C184.61 143.48 186.748 144.65 187.198 146.675L188.39 152.053C188.57 152.863 188.458 153.695 188.075 154.415Z" fill="white"/>
</g>
<g opacity="0.3">
<path d="M188.075 154.415C177.41 173.945 161.255 178.333 134.21 181.235C122.758 182.473 114.455 189.853 109.258 196.31C107.255 198.785 103.273 197.435 103.205 194.24C103.048 186.86 102.035 177.635 98.5478 171.132C95.7128 165.867 89.5703 161.503 84.1478 158.465C78.7253 155.428 74.0003 153.718 74.0003 153.718C72.8753 153.02 73.7978 151.513 76.2953 149.803C84.5978 144.065 96.0727 146.315 101.833 154.618C101.923 154.753 102.013 154.888 102.125 155.023C102.148 155.068 102.193 155.112 102.215 155.157C108.875 165.44 121.565 169.85 133.22 166.115C134.75 165.62 136.28 165.283 137.788 165.103C161.03 162.605 176.24 159.005 186.838 145.64C187.018 145.955 187.175 146.293 187.243 146.653L188.435 152.03C188.57 152.863 188.458 153.695 188.075 154.415Z" fill="#390075"/>
</g>
<path d="M106.648 201.553C105.838 201.553 105.028 201.418 104.24 201.148C101.27 200.135 99.3126 197.458 99.2451 194.33C99.0426 185.128 97.6026 177.748 95.0601 173.023C91.2576 165.958 79.1751 159.905 72.6276 157.453L71.7051 157.093L71.3226 156.665C69.6126 155.225 69.0726 152.885 70.0851 150.725C73.4601 143.39 101.203 132.41 128.27 140.983C153.56 149.015 173.788 143.323 181.325 140.51C183.328 139.768 185.555 139.925 187.445 140.938C189.313 141.95 190.663 143.728 191.113 145.82L192.305 151.198C192.688 152.953 192.44 154.753 191.585 156.305C179.368 178.67 159.433 182.495 134.683 185.173C124.4 186.275 116.885 193.205 112.385 198.808C110.9 200.585 108.83 201.553 106.648 201.553ZM80.1201 152.008C86.6901 155 97.5801 160.985 102.035 169.265C105.073 174.913 106.783 182.788 107.12 192.688C112.655 186.14 121.543 178.625 133.805 177.298C161.075 174.35 174.913 170.098 184.498 152.728L183.485 148.16C174.755 151.333 152.863 157.115 125.84 148.543C105.883 142.22 87.3201 147.958 80.1201 152.008Z" fill="#390075"/>
<path d="M185.083 138.395C186.163 136.393 185.24 133.895 183.103 133.085C174.125 129.733 152.39 119.338 136.55 93.395C118.73 64.19 84.3502 57.0575 86.0377 62.5475C86.0377 62.57 96.7477 81.875 93.8452 94.7225C92.0677 102.643 86.2402 111.013 81.0427 117.268C78.8152 119.945 81.1327 123.973 84.5752 123.365C93.5527 121.745 105.77 121.61 116.188 128.855C140.735 145.955 157.273 153.965 180.245 145.46C181.078 145.145 181.798 144.515 182.225 143.728L185.083 138.395Z" fill="#F22525"/>
<g opacity="0.35">
<path d="M180.223 145.438C177.365 146.495 174.62 147.305 171.92 147.868C172.46 147.53 172.91 147.058 173.225 146.495L176.128 141.185C177.208 139.183 176.285 136.685 174.125 135.875C165.148 132.523 143.413 122.15 127.573 96.1851C116.3 77.7126 98.4354 68.0826 87.2304 64.8876C86.5104 63.4251 86.0604 62.5926 86.0604 62.5926C84.3729 57.0801 118.753 64.2351 136.55 93.4401C152.39 119.405 174.148 129.778 183.103 133.13C185.24 133.94 186.185 136.438 185.105 138.44L182.225 143.75C181.775 144.515 181.078 145.123 180.223 145.438Z" fill="white"/>
</g>
<g opacity="0.3">
<path d="M180.223 145.438C157.273 153.943 140.735 145.933 116.165 128.855C105.77 121.61 93.5527 121.745 84.5752 123.365C81.1327 123.995 78.7927 119.968 81.0427 117.29C86.2402 111.035 92.0452 102.665 93.8452 94.745C95.2852 88.3325 93.3502 80.2775 91.0327 73.8425C88.7152 67.4075 86.0377 62.57 86.0377 62.57C85.6102 61.1975 87.4552 60.6125 90.7627 60.9725C101.788 62.1875 109.685 72.3575 108.47 83.3825C108.448 83.5625 108.425 83.7425 108.403 83.9225C108.403 83.99 108.38 84.035 108.38 84.1025C106.49 97.445 113.825 110.27 126.2 115.58C127.82 116.278 129.35 117.088 130.723 118.055C151.828 132.748 167.015 140.735 185.465 137.27C185.398 137.652 185.263 138.035 185.06 138.418L182.18 143.728C181.775 144.515 181.078 145.123 180.223 145.438Z" fill="#390075"/>
</g>
<path d="M162.56 152.773C145.348 152.773 130.52 143.66 113.915 132.095C104.465 125.525 93.1251 125.84 85.2726 127.258C82.0551 127.843 78.9051 126.38 77.2626 123.545C75.6201 120.71 75.8901 117.245 78.0051 114.725C84.5301 106.895 88.6701 99.6725 89.9751 93.845C91.9326 85.1375 86.2401 71.2776 82.5726 64.4826L82.0101 63.4251L82.0551 62.7725C81.8076 60.59 82.9776 58.5426 85.1151 57.5751C93.1026 53.9751 123.77 64.8426 139.925 91.3251C155.18 116.345 176.173 126.268 184.498 129.373C186.59 130.16 188.255 131.803 189.02 133.895C189.808 135.988 189.628 138.305 188.57 140.263L185.69 145.573C184.79 147.215 183.35 148.475 181.618 149.128C174.868 151.648 168.568 152.773 162.56 152.773ZM94.2951 118.483C101.968 118.483 110.63 120.148 118.46 125.593C143.39 142.94 158.015 149.42 178.76 141.77L181.505 136.73C172.28 133.243 149.578 122.375 133.175 95.4651C120.778 75.1476 100.303 66.6875 91.7301 65.0675C94.9926 72.1325 100.033 85.3176 97.7151 95.5776C96.1401 102.598 91.6626 110.585 84.4626 119.338C87.4101 118.843 90.7401 118.483 94.2951 118.483Z" fill="#390075"/>
<path d="M449.795 474.5C446.668 530.323 409.408 570.328 409.408 570.328C409.408 570.328 423.808 573.568 432.178 580.655C435.193 583.198 437.42 586.258 437.915 589.835C439.738 603.043 424.798 615.643 387.133 615.643C353.833 615.643 336.913 600.118 336.08 586.393C335.248 572.668 344.158 545.915 342.29 520.94C336.508 522.628 330.545 523.46 324.583 523.46C318.62 523.46 312.658 522.628 306.875 520.94C306.695 523.325 306.628 525.71 306.628 528.118C306.628 550.888 313.85 573.95 313.108 586.37C312.275 600.118 295.333 615.62 262.055 615.62C224.39 615.62 209.45 603.02 211.273 589.813C211.768 586.235 213.995 583.198 216.988 580.633C225.335 573.523 239.758 570.283 239.758 570.283C239.758 570.283 202.475 530.323 199.37 474.5C197.84 447.05 200.225 420.59 204.59 396.493C209.9 367.108 218.135 341.278 225.763 321.455C229.16 312.59 232.423 304.94 235.258 298.708C240.635 286.873 244.415 280.168 244.415 280.168H404.75C404.75 280.168 409.34 288.29 415.595 302.488C417.665 307.19 419.915 312.545 422.255 318.485C430.108 338.51 438.86 365.263 444.44 395.84C448.895 420.118 451.348 446.825 449.795 474.5Z" fill="white"/>
<path d="M387.133 616.205C354.418 616.205 336.395 601.22 335.518 586.415C335.158 580.61 336.53 572.577 338.105 563.307C340.288 550.46 342.74 535.902 341.795 521.682C330.59 524.81 318.575 524.81 307.393 521.682C307.258 523.73 307.19 525.912 307.19 528.14C307.19 540.335 309.26 552.53 311.083 563.307C312.658 572.6 314.008 580.61 313.67 586.437C312.77 601.242 294.748 616.227 262.055 616.227C239.15 616.227 222.365 611.458 214.828 602.773C211.498 598.948 210.08 594.47 210.733 589.79C211.205 586.415 213.185 583.198 216.65 580.273C223.895 574.13 235.393 570.89 238.745 570.035C233.795 564.41 201.71 525.935 198.853 474.568C197.458 449.593 199.213 423.29 204.095 396.425C208.618 371.383 215.75 346.093 225.29 321.275C228.283 313.445 231.5 305.773 234.808 298.505C240.14 286.783 243.943 279.988 243.988 279.943L244.145 279.65H405.133L405.29 279.943C405.335 280.033 409.97 288.245 416.158 302.308C418.475 307.55 420.703 312.927 422.84 318.327C432.875 343.865 440.345 369.943 445.048 395.795C449.998 422.863 451.82 449.368 450.403 474.568C447.523 525.935 415.438 564.41 410.51 570.035C413.863 570.89 425.36 574.107 432.605 580.25L432.808 580.43C436.16 583.31 438.073 586.46 438.545 589.79C439.198 594.47 437.78 598.948 434.45 602.773C426.8 611.435 410.038 616.205 387.133 616.205ZM342.808 520.198L342.853 520.895C343.955 535.475 341.435 550.37 339.208 563.487C337.655 572.712 336.305 580.678 336.643 586.348C337.498 600.613 355.138 615.08 387.133 615.08C409.7 615.08 426.17 610.445 433.505 602.007C436.61 598.43 437.938 594.245 437.353 589.902C436.925 586.797 435.058 583.827 431.818 581.082L431.615 580.902C423.425 574.085 409.408 570.89 409.273 570.868L408.305 570.643L408.98 569.923C409.363 569.518 446.15 529.4 449.21 474.455C450.605 449.345 448.805 422.93 443.878 395.952C439.175 370.167 431.728 344.18 421.715 318.71C419.6 313.333 417.35 307.955 415.055 302.735C409.52 290.203 405.245 282.328 404.39 280.753H244.73C243.965 282.148 240.433 288.605 235.753 298.955C232.445 306.223 229.273 313.85 226.28 321.658C216.763 346.408 209.653 371.608 205.153 396.605C200.293 423.403 198.538 449.592 199.933 474.477C203.015 529.445 239.803 569.562 240.163 569.945L240.838 570.665L239.893 570.89C239.758 570.912 225.515 574.175 217.348 581.105C214.108 583.85 212.24 586.82 211.813 589.925C211.205 594.267 212.533 598.452 215.638 602.007C222.973 610.445 239.443 615.08 262.033 615.08C294.028 615.08 311.668 600.635 312.545 586.348C312.883 580.655 311.533 572.69 309.98 563.487C308.158 552.665 306.065 540.403 306.065 528.118C306.065 525.62 306.155 523.19 306.335 520.895L306.38 520.198L307.055 520.4C318.485 523.73 330.77 523.73 342.155 520.4L342.808 520.198Z" fill="#390075"/>
<g opacity="0.3">
<path d="M387.133 615.643C353.833 615.643 336.913 600.118 336.08 586.393C335.248 572.668 344.158 545.915 342.29 520.94C336.823 522.538 330.32 523.37 324.583 523.46C324.47 523.46 324.358 523.46 324.245 523.46C324.02 523.46 323.818 523.46 323.593 523.46C317.968 523.37 312.343 522.56 306.875 520.963C306.695 523.348 306.628 525.733 306.628 528.14C306.628 550.91 313.85 573.973 313.108 586.393C312.275 600.14 295.333 615.643 262.055 615.643C224.39 615.643 209.45 603.043 211.273 589.835C211.768 586.258 213.995 583.22 216.988 580.655C216.673 585.11 218.518 593.143 234.11 598.07C256.498 605.158 297.92 595.978 297.088 576.02C296.255 556.063 274.543 528.86 271.685 506.788C271.685 506.788 306.853 508.295 324.268 508.385C341.683 508.295 377.525 506.788 377.525 506.788C374.668 528.86 352.955 556.04 352.123 576.02C351.29 595.978 392.735 605.158 415.1 598.07C430.67 593.143 432.515 585.088 432.223 580.655C435.238 583.198 437.465 586.258 437.96 589.835C439.738 603.043 424.798 615.643 387.133 615.643Z" fill="#390075"/>
</g>
<g opacity="0.3">
<path d="M325.123 524.023H324.56C324.425 524.023 324.313 524.023 324.178 524L324.223 523.46L324.268 522.898C324.313 522.898 324.358 522.898 324.425 522.898H325.123V524.023Z" fill="#390075"/>
</g>
<g opacity="0.3">
<path d="M324.245 523.46C324.02 523.46 323.818 523.46 323.593 523.46V523.438C323.818 523.46 324.02 523.46 324.245 523.46Z" fill="#6B184E"/>
<path d="M323.593 524.023H323.03V522.853L323.638 522.898C323.818 522.92 324.02 522.92 324.2 522.898L324.245 524.023C324.043 524.023 323.818 524.023 323.593 524.023Z" fill="#390075"/>
</g>
<path d="M387.133 619.602C352.325 619.602 333.11 603.02 332.12 586.618C331.738 580.408 333.133 572.218 334.73 562.723C336.665 551.293 338.825 538.512 338.555 525.957C329.33 527.915 319.813 527.915 310.588 525.957C310.318 538.512 312.478 551.293 314.413 562.723C316.01 572.218 317.405 580.408 317.023 586.618C316.033 602.998 296.818 619.602 262.01 619.602C231.388 619.602 218.023 611.66 212.218 604.977C208.213 600.387 206.525 594.965 207.313 589.295C208.933 577.572 223.895 571.047 232.715 568.19C222.703 555.77 197.975 520.715 195.41 474.725C189.583 370.482 240.455 279.155 240.973 278.232C242.053 276.32 244.46 275.645 246.373 276.725C248.285 277.805 248.96 280.212 247.88 282.125C247.385 283.025 197.638 372.417 203.33 474.275C206.345 528.05 242.3 567.245 242.66 567.627L247.363 572.69L240.635 574.198C234.425 575.593 216.403 581.6 215.188 590.375C214.715 593.75 215.728 596.923 218.225 599.78C222.095 604.235 232.94 611.682 262.055 611.682C291.643 611.682 308.405 598.52 309.17 586.145C309.485 580.857 308.18 573.073 306.65 564.05C304.513 551.405 301.835 535.655 302.96 520.648L303.32 515.765L308.023 517.138C318.89 520.31 330.365 520.31 341.233 517.138L345.935 515.765L346.295 520.648C347.42 535.655 344.743 551.405 342.605 564.05C341.075 573.05 339.77 580.835 340.085 586.145C340.828 598.52 357.59 611.682 387.2 611.682C416.315 611.682 427.138 604.235 431.03 599.78C433.505 596.923 434.54 593.773 434.068 590.375C432.853 581.578 414.83 575.593 408.62 574.198L401.893 572.668L406.595 567.627C406.955 567.245 442.933 527.937 445.925 474.275C451.618 372.417 401.893 283.025 401.375 282.125C400.295 280.212 400.97 277.805 402.883 276.725C404.795 275.645 407.203 276.32 408.283 278.232C408.8 279.132 459.673 370.482 453.845 474.725C451.28 520.715 426.553 555.77 416.54 568.19C425.36 571.047 440.323 577.572 441.943 589.295C442.73 594.965 441.043 600.387 437.038 604.977C431.12 611.66 417.755 619.602 387.133 619.602Z" fill="#390075"/>
<path d="M271.663 506.81C275.015 507.26 278.098 508.048 281.18 508.835C284.24 509.668 287.233 510.635 290.203 511.558C293.173 512.503 296.143 513.403 299.09 514.325C302.038 515.27 304.963 516.103 307.865 517.115L307.955 517.138C310.025 517.858 311.128 520.108 310.408 522.178C309.755 524.068 307.775 525.148 305.863 524.765C302.645 524.113 299.495 523.123 296.458 521.998C293.42 520.828 290.45 519.523 287.57 518.06C284.69 516.598 281.855 515.045 279.178 513.2C276.523 511.31 273.913 509.33 271.663 506.81Z" fill="#390075"/>
<path d="M377.525 506.81C375.275 509.33 372.665 511.31 370.01 513.2C367.333 515.045 364.498 516.598 361.618 518.06C358.738 519.523 355.768 520.828 352.73 521.998C349.693 523.145 346.543 524.113 343.325 524.765C341.188 525.215 339.073 523.82 338.645 521.683C338.24 519.703 339.365 517.79 341.233 517.138L341.323 517.115C344.203 516.103 347.15 515.27 350.098 514.325C353.045 513.403 356.015 512.525 358.985 511.558C361.955 510.635 364.948 509.668 368.008 508.835C371.068 508.048 374.173 507.26 377.525 506.81Z" fill="#390075"/>
<path d="M163.73 380.63C163.73 380.63 202.205 410.352 247.137 390.012Z" fill="white"/>
<path d="M214.738 397.617C185.263 397.617 163.685 381.282 163.393 381.057L164.09 380.157C164.473 380.45 202.813 409.43 246.935 389.473L247.408 390.507C235.933 395.682 224.863 397.617 214.738 397.617Z" fill="#390075"/>
<path d="M247.137 389.99C231.77 396.943 217.145 398.045 204.59 396.493C180.402 393.478 163.73 380.608 163.73 380.608C168.545 350.66 192.35 328.34 213.185 313.265C221.465 307.28 229.272 302.42 235.257 298.708C235.865 298.348 236.427 297.965 236.99 297.628L240.477 329.33L247.137 389.99Z" fill="white"/>
<path d="M214.378 401.15C184.295 401.15 162.538 384.703 161.323 383.758L159.455 382.318L159.838 380C166.79 336.755 211.205 309.058 232.558 295.738L234.875 294.275C236.72 293.105 239.173 293.668 240.343 295.535C241.513 297.38 240.95 299.833 239.083 301.003L236.743 302.465C216.808 314.908 175.745 340.513 168.073 378.83C176.195 384.185 208.843 402.995 245.495 386.39C247.475 385.49 249.838 386.368 250.738 388.37C251.638 390.373 250.76 392.713 248.758 393.613C236.63 399.103 224.998 401.15 214.378 401.15Z" fill="#390075"/>
<path d="M481.093 380.63C481.093 380.63 442.618 410.352 397.685 390.012Z" fill="white"/>
<path d="M430.085 397.617C419.96 397.617 408.89 395.682 397.438 390.507L397.91 389.473C442.033 409.453 480.373 380.45 480.755 380.157L481.452 381.057C481.137 381.282 459.538 397.617 430.085 397.617Z" fill="#390075"/>
<path d="M481.093 380.63C481.093 380.63 466.355 392.015 444.44 395.863C430.963 398.248 414.785 397.753 397.663 389.99L404.39 328.835L407.833 297.628C410.128 299.045 412.738 300.688 415.595 302.488C420.118 305.345 425.203 308.675 430.535 312.478C451.64 327.575 476.188 350.143 481.093 380.63Z" fill="white"/>
<path d="M430.445 401.15C419.825 401.15 408.193 399.103 396.043 393.613C394.04 392.713 393.163 390.373 394.063 388.37C394.963 386.368 397.325 385.49 399.305 386.39C435.958 402.995 468.605 384.185 476.728 378.83C469.055 340.49 428.015 314.908 408.058 302.465L405.718 301.003C403.873 299.833 403.31 297.403 404.458 295.535C405.628 293.69 408.058 293.128 409.925 294.275L412.243 295.738C433.595 309.058 478.033 336.755 484.963 380L485.345 382.318L483.478 383.758C482.285 384.703 460.528 401.15 430.445 401.15Z" fill="#390075"/>
<g opacity="0.3">
<path d="M430.535 312.478C427.88 314.548 425.113 316.55 422.255 318.508C416.72 322.243 410.78 325.73 404.39 328.858C403.603 329.24 402.815 329.623 402.005 330.005C383.893 338.488 312.478 363.688 240.455 329.353C235.55 327.013 230.623 324.403 225.74 321.478C221.533 318.98 217.348 316.258 213.163 313.288C221.443 307.303 229.25 302.443 235.235 298.73C240.613 286.895 244.393 280.19 244.393 280.19H404.75C404.75 280.19 409.34 288.313 415.595 302.51C420.118 305.345 425.203 308.675 430.535 312.478Z" fill="#390075"/>
</g>
<path d="M487.978 208.73C490.138 220.925 496.37 232.85 495.943 236.788C495.02 244.753 477.2 235.258 477.2 235.258C477.2 235.258 476.143 237.755 479.698 244.888C482.33 250.198 484.67 254.09 483.568 256.925C482.398 259.963 477.223 260.57 471.17 259.873C466.94 259.378 463.34 259.918 458.66 264.98C457.715 265.948 456.77 267.118 455.78 268.468H455.758C441.718 284.668 424.663 299.585 402.028 310.16C381.035 319.97 288.605 352.213 206.458 288.448C195.995 280.325 186.613 270.965 179.413 259.49C177.635 258.973 175.903 258.995 174.013 259.198C167.983 259.873 162.785 259.243 161.638 256.205C160.558 253.37 162.538 249.14 164.945 243.695C166.903 239.308 167.668 236.54 167.96 235.303C168.028 234.988 167.78 234.74 167.51 234.853C164.405 236.405 150.163 243.11 149.353 236C148.903 232.063 155.225 220.16 157.43 207.965C161.053 188.075 163.888 174.08 165.71 165.643C165.755 165.418 165.8 165.193 165.868 164.945C165.913 164.72 165.958 164.495 166.003 164.293C166.048 164.068 166.115 163.865 166.138 163.663C166.678 161.21 167.285 158.78 167.96 156.35C171.065 145.145 175.498 134.03 181.168 121.453C173 107.3 138.575 44.3225 157.363 20.405C168.095 6.74755 241.49 34.0176 257.533 40.2276C275.105 31.7901 295.04 26.5925 317.18 25.6475C321.658 25.445 326.045 25.445 330.32 25.625C330.433 25.6025 330.545 25.625 330.658 25.625C345.08 26.165 357.995 29.8776 370.393 34.2201C371.855 34.7376 373.295 35.255 374.735 35.7725C380.63 37.91 386.188 40.4301 391.475 43.2201C407.743 37.5501 483.815 11.8326 494.098 25.8276C512.053 50.2401 475.895 111.733 467.143 125.908C469.258 130.543 471.148 135.11 472.813 139.723C474.815 145.235 476.458 150.815 477.785 156.575C477.785 156.575 477.808 156.665 477.853 156.89C478.213 158.488 479.99 166.273 482.78 180.695C484.243 188.21 485.998 197.548 487.978 208.73Z" fill="white"/>
<g opacity="0.3">
<path d="M479.698 244.888C482.353 250.198 484.67 254.09 483.568 256.925C482.398 259.963 477.223 260.57 471.17 259.873C466.94 259.378 463.363 259.918 458.683 264.98C457.76 265.948 456.793 267.118 455.803 268.445H455.78C441.74 284.645 424.663 299.563 402.05 310.138C381.08 319.97 288.628 352.19 206.503 288.425C196.04 280.303 186.635 270.943 179.435 259.468C177.658 258.973 175.925 258.973 174.035 259.175C168.005 259.85 162.808 259.22 161.66 256.183C160.58 253.325 162.56 249.118 164.968 243.673C165.305 242.885 165.62 242.143 165.89 241.445C168.095 241.94 170.953 241.918 174.035 241.58C175.925 241.378 177.658 241.378 179.435 241.873C186.635 253.37 196.04 262.73 206.503 270.83C288.65 334.595 381.08 302.353 402.05 292.543C424.663 281.945 441.74 267.05 455.78 250.85H455.803C456.793 249.5 457.76 248.353 458.683 247.363C463.363 242.323 466.963 241.76 471.17 242.255C473.893 242.57 476.435 242.615 478.528 242.3C478.843 243.11 479.225 243.965 479.698 244.888Z" fill="#390075"/>
</g>
<path d="M477.853 156.89C478.213 158.488 479.99 166.273 482.78 180.695C446.758 187.963 406.73 187.22 379.213 161.075C330.883 115.153 354.823 59.7575 370.393 34.2425C371.855 34.76 373.295 35.2775 374.735 35.795C380.63 37.9325 386.188 40.4525 391.475 43.2425C407.743 37.5725 483.815 11.855 494.098 25.85C512.053 50.2625 475.895 111.755 467.143 125.93C469.258 130.565 471.148 135.133 472.813 139.745C474.815 145.258 476.458 150.838 477.785 156.598C477.785 156.598 477.808 156.688 477.853 156.89Z" fill="#FFAD40"/>
<path d="M247.813 314.255C240.68 312.028 233.773 309.103 227.068 305.728C223.738 304.018 220.453 302.195 217.213 300.26C213.995 298.303 210.845 296.255 207.763 294.118C204.703 291.935 201.665 289.685 198.74 287.278C195.815 284.87 192.98 282.328 190.258 279.628C184.813 274.273 179.93 268.265 175.768 261.763L178.198 263.585C177.388 263.36 176.51 263.27 175.408 263.338C175.138 263.36 174.845 263.383 174.553 263.405L173.45 263.518C172.685 263.585 171.898 263.63 171.11 263.675C169.513 263.72 167.87 263.698 166.115 263.428C165.215 263.27 164.315 263.113 163.325 262.753C162.335 262.415 161.278 261.965 160.198 261.11C159.14 260.3 158.083 258.95 157.588 257.51C157.115 256.16 157.025 254.855 157.093 253.798C157.25 251.615 157.79 249.995 158.308 248.488C158.848 246.98 159.455 245.63 160.04 244.303L161.728 240.5C162.245 239.285 162.74 238.048 163.145 236.833C163.348 236.225 163.55 235.618 163.708 235.055L163.82 234.628L163.865 234.448C163.91 234.245 163.775 234.785 163.775 235.123C163.775 235.483 163.798 235.865 163.91 236.225C164.135 236.99 164.585 237.755 165.485 238.34C166.34 238.948 167.78 239.15 168.838 238.768C168.973 238.723 169.108 238.678 169.243 238.61C169.333 238.565 169.243 238.61 169.265 238.61L169.22 238.633L169.108 238.678L168.86 238.79C166.138 240.095 163.393 241.243 160.378 242.143C158.87 242.593 157.295 242.975 155.518 243.178C154.64 243.268 153.673 243.313 152.593 243.223C151.513 243.11 150.275 242.885 148.925 242.12C147.575 241.4 146.338 239.915 145.82 238.475C145.528 237.755 145.415 237.103 145.325 236.45C145.303 236.113 145.303 235.775 145.303 235.438V234.943C145.303 234.785 145.325 234.695 145.348 234.56C145.595 232.49 146.09 231.073 146.54 229.633C147.485 226.775 148.475 224.165 149.42 221.533C150.365 218.923 151.243 216.313 151.985 213.725C152.345 212.42 152.683 211.138 152.975 209.833C153.268 208.528 153.493 207.268 153.785 205.85L155.405 197.525L161.975 163.978L161.908 164.248C162.313 162.223 162.853 160.355 163.325 158.398L164.045 155.495L164.855 152.66C165.98 148.88 167.218 145.145 168.568 141.455C171.268 134.075 174.328 126.92 177.5 119.833L177.68 123.433C173.203 115.625 169.063 107.705 165.238 99.5825C161.413 91.46 157.903 83.18 154.933 74.63C151.963 66.1025 149.533 57.2825 148.363 48.035C147.8 43.4225 147.62 38.6751 148.16 33.8376C148.7 29.0226 150.14 24.0276 153.043 19.6401L154.168 18.0201C154.393 17.7276 154.753 17.345 155.045 17.03C155.36 16.715 155.698 16.4451 156.013 16.1751C157.363 15.1401 158.758 14.4876 160.085 14.0151C162.785 13.0926 165.283 12.845 167.735 12.71C172.595 12.5075 177.208 13.0026 181.73 13.6326C190.775 14.9826 199.505 17.12 208.145 19.505C225.403 24.32 242.255 30.1476 258.928 36.5151L255.778 36.6501C261.583 33.8826 267.545 31.4751 273.62 29.4501C279.718 27.4476 285.928 25.8276 292.228 24.5901C298.528 23.3526 304.873 22.5201 311.263 22.0251C317.63 21.5526 324.043 21.3726 330.455 21.6651L329.78 21.6876C330.253 21.6426 330.77 21.6425 331.243 21.71L330.77 21.6651C336.305 21.8901 341.795 22.5426 347.195 23.5776C352.595 24.6351 357.883 26.0076 363.058 27.6276C365.645 28.4376 368.21 29.2701 370.753 30.1701C373.295 31.0701 375.77 31.9251 378.38 32.9151C383.488 34.8726 388.483 37.1675 393.298 39.71L390.148 39.485C407.135 33.6125 424.28 28.2351 441.808 23.8701C450.583 21.7101 459.425 19.7975 468.56 18.605C473.128 18.0425 477.763 17.6375 482.6 17.8175C485.03 17.9525 487.505 18.1775 490.16 18.9425C491.465 19.325 492.838 19.8425 494.21 20.6975C494.885 21.125 495.583 21.6425 496.213 22.2725C496.528 22.565 496.82 22.9475 497.113 23.285C497.27 23.4875 497.36 23.6 497.45 23.735L497.72 24.1401C500.713 28.5501 502.175 33.6351 502.693 38.4951C503.233 43.4001 502.918 48.1926 502.265 52.8501C500.893 62.1426 498.17 70.9626 494.93 79.4901C491.69 88.0176 487.888 96.2751 483.77 104.33C479.653 112.385 475.22 120.26 470.473 127.978L470.698 124.243C475.31 134.278 479.113 144.808 481.588 155.675L481.655 156.013L486.853 181.19L491.578 206.728L492.163 209.788C492.365 210.778 492.613 211.768 492.86 212.758C493.355 214.738 493.985 216.74 494.615 218.743C495.92 222.77 497.45 226.663 498.845 231.073C499.183 232.22 499.52 233.323 499.723 234.853C499.835 235.505 499.903 236.63 499.723 237.62C499.633 238.115 499.543 238.61 499.318 239.173C499.138 239.713 498.823 240.253 498.485 240.77C497.765 241.783 496.685 242.66 495.695 243.065C495.178 243.335 494.728 243.448 494.233 243.583C493.783 243.695 493.333 243.763 492.905 243.83C491.24 244.01 489.845 243.853 488.563 243.628C485.998 243.178 483.77 242.413 481.588 241.58C479.405 240.725 477.403 239.825 475.265 238.723L480.778 236.765L480.845 236.563L480.868 236.495L480.89 236.405L480.913 236.315L480.935 236.248C480.935 236.225 480.935 236.27 480.935 236.293C480.935 236.383 480.935 236.518 480.935 236.675C480.958 236.99 481.025 237.395 481.115 237.8C481.295 238.633 481.61 239.578 481.97 240.5C482.33 241.445 482.78 242.368 483.253 243.335L484.805 246.418C485.323 247.475 485.863 248.578 486.38 249.793C486.875 251.03 487.393 252.358 487.64 254.135C487.73 255.058 487.753 256.048 487.528 257.173C487.303 258.23 486.763 259.468 485.998 260.413C484.423 262.28 482.578 262.978 481.093 263.45C478.033 264.283 475.423 264.215 472.858 264.103C472.228 264.058 471.598 264.013 470.968 263.945L470.158 263.878C469.91 263.855 469.685 263.855 469.46 263.833C468.56 263.788 467.795 263.855 467.12 264.013C465.77 264.328 464.443 265.138 463.048 266.42C462.395 267.028 461.63 267.838 461 268.558C460.37 269.3 459.718 270.133 459.065 270.988L458.93 271.168L458.75 271.348C458.413 271.708 457.94 272.068 457.423 272.315C456.883 272.563 456.32 272.675 455.825 272.698L458.75 271.348C456.973 273.395 454.97 275.623 452.99 277.738C451.978 278.795 450.988 279.853 449.953 280.888C448.895 281.9 447.883 282.935 446.803 283.948C444.688 285.973 442.505 287.908 440.255 289.798C438.028 291.688 435.733 293.51 433.37 295.22C431.008 296.953 428.6 298.618 426.125 300.17C423.673 301.745 421.13 303.208 418.543 304.558C413.368 307.28 408.013 309.62 402.478 311.375C401.78 311.6 401.038 311.218 400.813 310.498C400.633 309.913 400.858 309.305 401.353 308.99C406.145 305.885 410.848 302.78 415.415 299.495C417.688 297.853 419.938 296.165 422.143 294.455C424.348 292.723 426.508 290.99 428.645 289.19C430.76 287.39 432.875 285.545 434.923 283.678C436.97 281.788 438.995 279.853 440.975 277.918C442.955 275.938 444.89 273.935 446.825 271.933C448.76 269.885 450.56 267.883 452.563 265.61L455.488 264.26C454.993 264.283 454.43 264.395 453.913 264.643C453.395 264.89 452.945 265.228 452.608 265.588L452.293 265.948C453.035 264.958 453.8 263.968 454.678 262.978C455.578 261.988 456.433 261.133 457.468 260.188C458.503 259.288 459.65 258.41 460.978 257.668C462.283 256.925 463.79 256.318 465.365 255.98C468.47 255.26 471.643 255.913 473.375 256.003C475.378 256.138 477.47 256.093 478.865 255.71C479.54 255.53 479.923 255.238 479.81 255.328C479.788 255.373 479.698 255.53 479.743 255.463C479.743 255.44 479.765 255.283 479.743 255.058C479.675 254.54 479.428 253.685 479.045 252.808C478.663 251.908 478.19 250.94 477.695 249.928L476.143 246.845C475.603 245.743 475.063 244.595 474.59 243.38C474.118 242.165 473.668 240.905 473.353 239.51C473.195 238.79 473.06 238.07 473.015 237.238C472.993 236.81 472.97 236.383 472.993 235.888C473.015 235.64 473.015 235.393 473.083 235.078C473.105 234.92 473.128 234.785 473.173 234.583L473.24 234.268L473.308 234.065L473.353 233.93L473.443 233.683L474.973 229.7L478.955 231.725C482.42 233.48 486.448 235.19 489.845 235.82C490.678 235.955 491.465 236 491.96 235.955C492.185 235.933 492.343 235.888 492.275 235.888C492.275 235.888 492.05 236 491.96 236.18C491.893 236.248 491.893 236.338 491.87 236.338C491.87 236.405 491.87 236.36 491.87 236.338C491.87 236.27 491.893 236.293 491.825 235.888C491.825 235.618 491.668 235.123 491.6 234.74L491.218 233.368C490.025 229.543 488.405 225.38 487.055 221.195C486.38 219.08 485.728 216.943 485.165 214.738C484.873 213.635 484.625 212.533 484.378 211.408L483.748 208.1L479.045 182.675L473.78 157.093L473.848 157.43C471.508 147.148 467.908 137.18 463.475 127.528L462.598 125.593L463.7 123.793C468.313 116.278 472.655 108.56 476.683 100.708C480.688 92.855 484.378 84.845 487.483 76.655C490.588 68.4875 493.153 60.1176 494.368 51.7251C494.953 47.5401 495.2 43.3326 494.75 39.3501C494.323 35.3676 493.175 31.6325 491.128 28.6175C490.318 26.7275 486.2 25.8725 482.195 25.6925C478.1 25.5125 473.803 25.8726 469.505 26.4126C460.888 27.5376 452.248 29.4051 443.675 31.5201C426.508 35.8176 409.498 41.1276 392.713 46.9326L391.093 47.4951L389.563 46.685C384.995 44.2775 380.293 42.14 375.478 40.2725C373.115 39.3725 370.55 38.4725 368.098 37.6175C365.623 36.7625 363.148 35.9301 360.65 35.1651C355.678 33.6126 350.683 32.3076 345.62 31.3401C340.58 30.3726 335.495 29.7651 330.41 29.5626L329.938 29.5175C330.208 29.585 330.478 29.585 330.748 29.5175L330.073 29.5401C323.998 29.2701 317.9 29.4276 311.803 29.9001C305.728 30.3726 299.675 31.16 293.69 32.33C287.728 33.5225 281.833 35.0525 276.05 36.9425C270.268 38.855 264.643 41.1275 259.153 43.76L257.6 44.5026L256.003 43.8951C239.578 37.6176 222.86 31.8351 205.963 27.1326C197.525 24.8151 188.998 22.7226 180.515 21.4626C176.285 20.8551 172.033 20.4501 168.028 20.6076C166.07 20.7201 164.113 20.945 162.605 21.485C161.863 21.7325 161.233 22.07 160.828 22.385C160.738 22.475 160.648 22.5426 160.558 22.6326C160.49 22.7226 160.445 22.7676 160.333 22.9026L159.568 24.0276C157.565 27.0426 156.395 30.7775 155.945 34.76C155.495 38.7425 155.63 42.9051 156.148 47.0901C157.205 55.4601 159.5 63.8301 162.335 72.0201C165.193 80.2101 168.59 88.2875 172.325 96.185C176.06 104.105 180.133 111.89 184.475 119.473L185.488 121.228L184.655 123.073C181.528 130.048 178.535 137.045 175.925 144.155C174.62 147.71 173.428 151.288 172.37 154.888L171.605 157.61L170.93 160.31C170.503 162.11 169.963 163.933 169.625 165.688L169.558 165.958L163.1 198.92L161.48 207.223C161.21 208.573 160.918 210.08 160.603 211.543C160.265 213.005 159.883 214.423 159.5 215.863C158.69 218.698 157.79 221.465 156.845 224.165C155.9 226.865 154.91 229.543 154.1 232.063C153.695 233.3 153.358 234.605 153.268 235.348C153.268 235.393 153.245 235.46 153.245 235.483C153.245 235.483 153.245 235.505 153.268 235.505C153.268 235.528 153.268 235.55 153.245 235.55C153.268 235.595 153.268 235.64 153.245 235.573C153.223 235.46 152.953 235.123 152.84 235.078C152.728 235.01 152.885 235.1 153.223 235.123C153.538 235.145 154.01 235.145 154.528 235.078C155.54 234.965 156.733 234.673 157.925 234.313C160.31 233.57 162.785 232.513 165.148 231.343L165.373 231.23L165.508 231.163L165.575 231.14L165.665 231.095C165.823 231.028 165.958 230.96 166.115 230.915C167.33 230.465 168.973 230.69 169.963 231.41C170.998 232.108 171.56 233.03 171.83 233.953C171.965 234.403 172.01 234.898 172.01 235.325C172.01 235.73 171.875 236.36 171.898 236.248L171.83 236.585L171.673 237.193C171.47 237.98 171.245 238.723 170.998 239.465C170.525 240.928 169.985 242.345 169.423 243.718L167.713 247.678C167.173 248.938 166.655 250.175 166.228 251.345C165.8 252.493 165.53 253.595 165.508 254.248C165.485 254.585 165.53 254.72 165.53 254.698C165.508 254.585 165.35 254.405 165.395 254.45C165.44 254.54 166.34 254.9 167.33 255.035C168.365 255.193 169.558 255.215 170.773 255.17C171.38 255.148 172.01 255.103 172.64 255.058L173.653 254.945C174.058 254.9 174.485 254.878 174.913 254.833C176.623 254.72 178.603 254.833 180.515 255.373L182.113 255.823L182.968 257.195C186.68 263.18 191.135 268.693 196.04 273.845C198.493 276.41 201.103 278.863 203.803 281.225C206.48 283.61 209.27 285.883 212.128 288.11C214.985 290.338 217.865 292.543 220.835 294.613C223.783 296.705 226.798 298.753 229.858 300.71C235.955 304.67 242.3 308.293 248.758 311.78C249.41 312.118 249.658 312.928 249.298 313.58C249.05 314.188 248.398 314.435 247.813 314.255Z" fill="#390075"/>
<path d="M480.575 169.603C375.568 159.545 269.818 159.59 164.81 169.738C165.125 168.253 165.395 166.903 165.665 165.665C165.71 165.44 165.755 165.215 165.823 164.99C165.868 164.765 165.913 164.54 165.958 164.338C166.003 164.113 166.048 163.91 166.093 163.708C166.633 161.233 167.263 158.825 167.915 156.395C170.323 147.665 173.563 138.98 177.545 129.62C274.43 121.025 371.855 121.025 468.74 129.598C470.203 132.995 471.553 136.37 472.79 139.768C474.77 145.28 476.435 150.86 477.763 156.62C477.763 156.62 477.763 156.71 477.83 156.935C478.123 158.015 479.068 162.2 480.575 169.603Z" fill="#F22525"/>
<g opacity="0.35">
<path d="M480.575 169.603C479.563 169.513 478.528 169.4 477.515 169.31C477.178 167.825 476.975 166.858 476.863 166.385C476.818 166.183 476.795 166.07 476.795 166.07C475.468 160.288 473.825 154.73 471.823 149.218C471.8 149.173 471.8 149.15 471.778 149.105C469.573 142.985 463.813 138.845 457.31 138.553C418.025 136.865 277.738 131.465 202.205 136.978C185.645 138.193 171.47 149.533 167.015 165.53C166.993 165.62 166.97 165.733 166.925 165.823C166.588 167.06 166.25 168.32 165.935 169.58C165.553 169.625 165.17 169.648 164.788 169.693C165.103 168.208 165.373 166.858 165.643 165.62C165.688 165.395 165.733 165.17 165.8 164.945C165.845 164.72 165.89 164.495 165.935 164.293C165.98 164.068 166.025 163.865 166.07 163.663C166.61 161.188 167.24 158.78 167.893 156.35C170.3 147.62 173.54 138.935 177.523 129.575C274.408 120.98 371.833 120.98 468.718 129.553C470.18 132.95 471.53 136.325 472.768 139.723C474.748 145.235 476.413 150.815 477.74 156.575C477.74 156.575 477.74 156.665 477.808 156.89C478.123 158.015 479.068 162.2 480.575 169.603Z" fill="white"/>
</g>
<g opacity="0.3">
<path d="M480.575 169.603C375.568 159.545 269.818 159.59 164.81 169.738C165.125 168.253 165.395 166.903 165.665 165.665C165.71 165.44 165.755 165.215 165.823 164.99C165.868 164.765 165.913 164.54 165.958 164.338C166.003 164.113 166.048 163.91 166.093 163.708C166.633 161.233 167.263 158.825 167.915 156.395C168.14 155.563 168.388 154.73 168.635 153.898C271.235 144.223 374.488 144.2 477.088 153.808C477.335 154.753 477.56 155.698 477.763 156.643C477.763 156.643 477.763 156.733 477.83 156.958C478.123 158.015 479.068 162.2 480.575 169.603Z" fill="#390075"/>
</g>
<path d="M159.86 174.193L160.963 168.928C161.255 167.465 161.548 166.115 161.818 164.878C161.863 164.585 161.93 164.315 161.998 164.023C162.043 163.865 162.065 163.685 162.11 163.528C162.133 163.393 162.178 163.213 162.223 163.033L162.268 162.785C162.808 160.355 163.415 157.903 164.158 155.27C166.453 146.968 169.58 138.305 173.968 128L174.89 125.818L177.253 125.615C274.093 117.043 372.238 117.02 468.965 125.57H471.395L472.43 127.955C473.983 131.533 475.333 134.953 476.57 138.373C478.663 144.155 480.328 149.825 481.678 155.675L481.79 156.125V156.148C482.105 157.543 483.05 161.683 484.49 168.793L485.57 174.035L480.238 173.518C375.703 163.505 269.728 163.55 165.238 173.653L159.86 174.193ZM169.985 164.495C169.963 164.63 169.94 164.765 169.895 164.878L169.873 165.013C169.85 165.103 169.828 165.193 169.828 165.283C271.303 155.81 374.128 155.788 475.625 165.17C474.748 161.008 474.185 158.578 474.005 157.79C473.96 157.588 473.938 157.43 473.915 157.318C472.655 151.828 471.08 146.518 469.123 141.095C468.2 138.53 467.21 135.965 466.085 133.31C371.315 125.053 275.195 125.075 180.313 133.333C176.533 142.355 173.81 150.073 171.763 157.43C171.065 159.905 170.503 162.2 169.985 164.495Z" fill="#390075"/>
<path d="M225.132 66.305C221.6 68.8475 212.915 82.1 206.255 92.6975C196.445 77.735 191.585 54.9425 190.775 44.39C190.775 44.2775 190.752 44.165 190.752 44.0525C200.247 46.8875 211.025 50.9375 213.32 53.5925C217.437 58.34 231.185 61.94 225.132 66.305Z" fill="#FC7E81"/>
<path d="M206.255 93.7325L205.783 92.99C196.04 78.1175 191.068 55.3025 190.213 44.435L190.123 43.265L190.91 43.49C199.888 46.1675 211.228 50.33 213.748 53.21C215.143 54.83 217.775 56.3375 220.318 57.7775C223.963 59.87 227.113 61.6925 227.225 63.92C227.27 64.91 226.685 65.855 225.47 66.7325C222.77 68.69 216.133 78.005 206.75 92.9675L206.255 93.7325ZM191.36 44.84C192.305 55.64 197.053 77.1725 206.233 91.6625C212.848 81.1325 221.263 68.3975 224.795 65.855C225.673 65.225 226.1 64.595 226.078 64.01C225.988 62.39 222.815 60.5675 219.733 58.79C217.123 57.2825 214.4 55.73 212.893 53.975C210.755 51.5225 200.675 47.6525 191.36 44.84Z" fill="#390075"/>
<path d="M201.552 101.653C209.022 87.6351 216.83 77.5326 222.432 71.2101C226.595 66.5076 225.492 59.1951 220.115 55.9326C207.695 48.4176 193.88 43.8726 185.037 41.4876C180.11 40.1601 175.295 43.8951 175.317 49.0026C175.362 57.7101 176.622 71.3001 182.495 85.5876C185.6 93.1251 188.637 98.4801 191.18 102.193C193.767 105.95 199.415 105.68 201.552 101.653Z" fill="#F95288"/>
<path d="M199.82 100.73C203.038 94.0476 206.705 87.5451 210.845 81.3126C212.915 78.2076 215.075 75.1476 217.393 72.1776L219.148 69.9726C219.44 69.6351 219.778 69.2076 220.003 68.9151C220.16 68.6451 220.385 68.4201 220.52 68.1501C221.128 67.0926 221.488 65.9001 221.42 64.7076C221.398 63.5151 221.06 62.3226 220.43 61.3551C220.138 60.8601 219.733 60.4326 219.328 60.0276C219.103 59.8476 218.878 59.6676 218.653 59.5101C218.383 59.3526 218.248 59.2401 217.798 58.9926C214.738 57.2601 211.52 55.7301 208.303 54.2676C201.823 51.3651 195.073 49.0251 188.233 46.9776C186.523 46.4826 184.768 45.9876 183.103 45.5601C182.405 45.4026 181.73 45.4476 181.1 45.8076C180.493 46.1676 179.998 46.7301 179.84 47.3826C179.795 47.5401 179.75 47.7201 179.75 47.9001L179.728 48.0351V48.1026V48.2601V48.9126C179.728 49.7901 179.75 50.6676 179.75 51.5451C179.908 58.5651 180.763 65.5851 182.36 72.4476C183.125 75.8901 184.115 79.265 185.285 82.595C186.433 85.925 187.76 89.2775 189.245 92.495C189.988 94.115 190.753 95.7126 191.585 97.2651C191.99 98.0526 192.418 98.8175 192.868 99.5825L193.52 100.685C193.655 100.91 193.813 101.135 193.97 101.315C194.645 102.08 195.748 102.553 196.895 102.485C198.043 102.418 199.145 101.833 199.888 100.775L199.82 100.73ZM203.263 102.575C202.273 104.758 200.113 106.558 197.638 107.075C195.163 107.615 192.395 106.963 190.348 105.275C190.1 105.05 189.853 104.848 189.628 104.6L188.998 103.858L188.12 102.688C187.558 101.923 187.018 101.135 186.478 100.325C185.42 98.7276 184.408 97.1301 183.485 95.4651C181.618 92.1351 179.953 88.7826 178.445 85.2726C176.96 81.7626 175.7 78.1401 174.643 74.4726C172.573 67.1151 171.358 59.5101 171.043 51.8826C171.02 50.9151 170.975 49.9701 170.975 49.0026V48.2826V48.1026L170.998 47.8326L171.02 47.2701C171.043 46.5276 171.2 45.7851 171.38 45.0876C172.145 42.1851 174.148 39.6651 176.69 38.1801C179.233 36.6726 182.473 36.2451 185.33 36.9876C187.198 37.5051 188.975 38.0226 190.798 38.5626C197.998 40.7676 205.04 43.5126 211.835 46.8651C215.233 48.5301 218.54 50.4201 221.758 52.4676C222.118 52.6701 222.703 53.1201 223.198 53.4576C223.693 53.8401 224.165 54.2901 224.615 54.7176C225.47 55.6401 226.28 56.6301 226.843 57.7551C228.058 59.9601 228.62 62.4576 228.508 64.9326C228.418 67.4076 227.585 69.8376 226.213 71.8626C225.898 72.3801 225.47 72.8301 225.088 73.3026C224.728 73.7301 224.458 73.9776 224.143 74.3376L222.343 76.3401C219.935 79.0176 217.64 81.7851 215.435 84.6426C211.025 90.3576 206.998 96.3876 203.308 102.643L203.263 102.575Z" fill="#390075"/>
<path d="M446.758 103.745C440.008 90.47 432.965 80.75 427.813 74.54C423.808 69.7025 425.158 62.4125 430.625 59.3525C444.035 51.815 458.93 47.675 467.705 45.695C472.048 44.7275 476.21 47.9225 476.345 52.355C476.638 61.355 475.153 76.925 464.848 94.88C462.598 98.8175 460.505 102.058 458.683 104.668C455.668 108.965 449.143 108.448 446.758 103.745Z" fill="#F95288"/>
<path d="M445.003 104.645C441.448 98.3451 437.555 92.2701 433.303 86.5101C431.165 83.6301 428.938 80.8401 426.598 78.1401L425.72 77.1276L425.27 76.6101L424.708 75.8901C423.965 74.9451 423.403 73.8426 422.93 72.7176C422.053 70.4451 421.805 67.9026 422.21 65.4951C422.66 63.0876 423.718 60.7476 425.383 58.8576C426.215 57.9351 427.138 57.0576 428.195 56.4051C428.758 56.0226 429.14 55.8201 429.545 55.5726L430.783 54.8526C434.09 52.9851 437.443 51.2751 440.908 49.7676C447.815 46.7526 454.925 44.3001 462.17 42.4326L464.893 41.7351C465.883 41.5326 466.468 41.2851 468.155 41.0601C471.125 40.7451 474.185 41.7126 476.48 43.5801C478.798 45.4026 480.328 48.2376 480.665 51.1851C480.688 51.5226 480.733 51.9501 480.755 52.2426V52.9851C480.755 53.4801 480.778 53.9526 480.755 54.4476C480.755 55.4151 480.733 56.4051 480.665 57.3726C480.508 61.2651 479.923 65.0901 479.135 68.8476C478.325 72.6051 477.313 76.3176 475.963 79.8951C474.635 83.4726 473.06 86.9601 471.328 90.3351C470.428 92.0001 469.505 93.6651 468.515 95.2626C467.548 96.9051 466.535 98.4351 465.5 100.01C464.465 101.563 463.363 103.07 462.26 104.578L461.405 105.703L460.978 106.265L460.348 106.985C459.47 107.908 458.435 108.74 457.265 109.235C454.925 110.293 452.27 110.293 449.998 109.438C448.873 108.988 447.838 108.313 446.96 107.48C446.105 106.648 445.453 105.635 444.958 104.6L445.003 104.645ZM448.49 102.868C449.93 105.185 453.058 105.725 454.925 104.465C455.398 104.195 455.78 103.79 456.118 103.34L456.343 103.003L456.703 102.44L457.4 101.293C458.323 99.7626 459.178 98.2101 460.055 96.6576C463.52 90.4026 466.423 84.0351 468.47 77.3526C470.518 70.7151 471.778 63.8526 471.98 57.0126C472.025 56.1576 472.025 55.3026 472.025 54.4476C472.025 54.0201 472.003 53.5926 472.003 53.1651L471.98 52.5351L471.958 52.2201C471.845 51.5451 471.53 50.9151 470.968 50.4876C470.405 50.0601 469.73 49.8801 469.055 49.9251C468.943 49.9026 467.773 50.1726 466.963 50.3526L464.375 50.9826C457.49 52.7151 450.673 54.7851 444.08 57.3726C440.795 58.6776 437.533 60.0501 434.405 61.6251L433.235 62.2101C432.853 62.4126 432.403 62.6151 432.223 62.7501C431.705 63.0201 431.278 63.4026 430.85 63.7851C430.018 64.5951 429.455 65.6751 429.163 66.8226C428.893 67.9926 428.938 69.2301 429.298 70.3776C429.5 70.9401 429.748 71.5026 430.108 72.0201L430.355 72.4026L430.783 72.9651L431.638 74.0676C433.865 77.0601 435.98 80.1426 437.96 83.2926C441.943 89.5701 445.475 96.0951 448.535 102.823L448.49 102.868Z" fill="#390075"/>
<path d="M342.65 236.247C342.538 239.577 336.98 243.515 331.918 246.418C326.855 249.343 320.555 249.117 315.718 245.832C310.858 242.57 305.615 238.227 305.728 234.92C305.953 228.777 314.165 229.543 324.358 229.903C334.55 230.285 342.875 230.127 342.65 236.247Z" fill="#390075"/>
<g opacity="0.35">
<path d="M332.93 235.078C332.908 235.528 331.153 235.978 329.218 236.36C326.27 236.945 321.928 236.788 319.025 236C317.113 235.483 315.403 234.898 315.403 234.448C315.448 233.458 319.34 233.683 324.178 233.84C329.015 234.02 332.975 234.088 332.93 235.078Z" fill="white"/>
</g>
<g opacity="0.2">
<path d="M225.133 66.305C221.6 68.8475 212.915 82.1 206.255 92.6975C196.445 77.735 191.585 54.9425 190.775 44.39C190.775 44.2775 190.753 44.165 190.753 44.0525C200.248 46.8875 211.025 50.9375 213.32 53.5925C217.438 58.34 231.185 61.94 225.133 66.305Z" fill="#390075"/>
</g>
<g opacity="0.2">
<path d="M425.293 69.5225C428.735 72.1775 436.993 85.7 443.315 96.5225C453.62 81.875 459.178 59.2625 460.348 48.755C460.37 48.6425 460.37 48.53 460.393 48.4175C450.808 50.9375 439.918 54.65 437.533 57.2375C433.235 61.8275 419.398 64.9775 425.293 69.5225Z" fill="#390075"/>
</g>
<path d="M349.918 244.595C350.728 245.518 351.335 246.485 351.83 247.588C352.325 248.668 352.685 249.86 352.865 251.098C353.248 253.573 352.933 256.295 351.785 258.77C350.683 261.268 348.658 263.518 346.138 264.935C343.618 266.353 340.738 266.983 337.948 266.848C335.158 266.713 332.435 265.88 330.073 264.44C329.488 264.08 328.88 263.72 328.363 263.248C327.823 262.82 327.283 262.37 326.81 261.853L326.09 261.088C325.865 260.84 325.685 260.57 325.483 260.323C325.055 259.828 324.695 259.288 324.335 258.748C322.918 256.588 321.905 254.203 321.253 251.795C320.915 250.603 320.668 249.365 320.51 248.15C320.42 247.543 320.353 246.913 320.308 246.283C320.285 245.968 320.263 245.653 320.263 245.315C320.263 244.955 320.24 244.708 320.263 244.213L320.42 240.5L324.245 240.478H324.268L328.048 240.455L328.25 244.235C328.273 244.73 328.273 245 328.273 245.338C328.273 245.653 328.25 245.99 328.228 246.305C328.205 246.935 328.138 247.565 328.07 248.173C327.913 249.41 327.688 250.625 327.373 251.84C326.743 254.27 325.73 256.655 324.29 258.838C323.93 259.378 323.57 259.918 323.143 260.435C322.94 260.683 322.738 260.953 322.513 261.2L321.77 261.965C321.275 262.483 320.735 262.933 320.195 263.36C319.655 263.81 319.07 264.17 318.463 264.553C316.055 265.97 313.333 266.825 310.543 266.938C307.753 267.073 304.85 266.488 302.308 265.07C299.765 263.698 297.628 261.47 296.48 258.95C295.85 257.713 295.535 256.385 295.31 255.058C295.153 253.73 295.153 252.403 295.355 251.143C295.558 249.883 295.94 248.69 296.48 247.61C296.998 246.508 297.673 245.54 298.55 244.64C298.82 244.37 299.27 244.37 299.54 244.64C299.675 244.775 299.743 244.955 299.743 245.113V245.203C299.765 247.318 300.035 249.32 300.553 251.008C301.07 252.695 301.813 254.135 302.803 255.26C303.748 256.385 304.783 257.218 305.998 257.713C307.213 258.185 308.608 258.41 310.025 258.275C311.443 258.118 312.86 257.713 314.075 256.993C315.313 256.295 316.303 255.373 317.315 254.023C318.283 252.74 319.025 251.233 319.543 249.59C319.813 248.78 319.993 247.925 320.128 247.07C320.195 246.643 320.263 246.215 320.285 245.788L320.308 245.158V244.685L324.29 248.42H324.268L328.25 244.685V245.158L328.273 245.788C328.295 246.215 328.34 246.643 328.385 247.07C328.498 247.925 328.678 248.78 328.948 249.613C329.42 251.255 330.185 252.785 331.153 254.09C332.165 255.463 333.2 256.34 334.46 257.06C335.72 257.758 337.138 258.185 338.555 258.32C341.435 258.568 344.045 257.69 346.003 255.395C346.543 254.833 346.925 254.135 347.353 253.438C347.713 252.695 348.028 251.908 348.298 251.03C348.748 249.298 348.95 247.273 348.838 245.203V245.113C348.815 244.73 349.108 244.415 349.49 244.393C349.58 244.348 349.783 244.438 349.918 244.595Z" fill="#390075"/>
<path d="M532.37 349.175C527.42 356.87 514.37 353.833 503.21 348.973C499.16 347.218 495.673 344.9 492.995 342.403C479.945 360.313 471.058 378.718 433.933 395.008C408.103 406.348 375.635 406.235 360.38 397.775C358.715 396.853 358.31 394.67 359.525 393.23L372.328 378.155C373.813 376.4 372.845 373.7 370.595 373.295L348.95 364.318C347.15 363.463 346.003 361.64 346.835 359.953C355.003 343.46 380.63 326.855 407.113 320.038C435.845 312.635 467.12 317.63 486.515 324.695C486.965 320.983 488.203 316.888 490.273 312.838C495.808 302.015 508.453 288.65 516.418 293.465C525.823 299.135 517.295 312.995 511.76 323.84L511.738 323.863C511.153 324.965 511.648 326.338 512.795 326.833L512.84 326.855C524 331.715 537.163 341.728 532.37 349.175Z" fill="#F4B75D"/>
<g opacity="0.5">
<path d="M516.463 293.465C519.028 295.018 520.243 297.178 520.58 299.698C512.593 295.918 500.465 308.855 495.065 319.408C492.995 323.458 491.735 327.553 491.308 331.265C471.913 324.178 440.638 319.183 411.905 326.585C385.94 333.29 360.763 349.378 352.123 365.578L349.018 364.295C347.218 363.44 346.07 361.618 346.903 359.93C355.07 343.438 380.698 326.855 407.18 320.038C435.913 312.635 467.188 317.63 486.583 324.695C487.033 320.983 488.27 316.888 490.34 312.838C495.853 302.015 508.475 288.673 516.463 293.465Z" fill="white"/>
</g>
<g opacity="0.3">
<path d="M527.668 336.148C532.348 340.423 534.958 345.17 532.37 349.175C527.42 356.87 514.37 353.833 503.233 348.973C499.183 347.218 495.695 344.9 493.018 342.402C479.968 360.312 471.08 378.717 433.955 395.007C408.125 406.347 375.658 406.235 360.403 397.775C358.76 396.853 358.333 394.67 359.57 393.23L362.473 389.81C379.348 394.94 406.303 393.612 428.398 383.915C461.563 369.357 474.41 352.078 486.088 335.788C488.09 332.975 492.14 332.885 494.413 335.473C495.245 336.418 496.258 337.273 497.675 337.88C508.835 342.74 521.863 345.755 526.813 338.082C527.218 337.452 527.488 336.8 527.668 336.148Z" fill="#390075"/>
</g>
<path d="M390.328 407.878C377.885 407.878 366.478 405.695 358.468 401.218C356.645 400.205 355.363 398.45 354.98 396.38C354.598 394.333 355.16 392.24 356.51 390.643L368.39 376.648L347.263 367.873C345.215 366.905 343.663 365.24 342.965 363.283C342.38 361.573 342.493 359.773 343.28 358.153C351.898 340.738 377.728 323.48 406.1 316.168C433.685 309.058 463.318 312.973 483.478 319.453C484.22 316.64 485.323 313.783 486.74 311.015C491.398 301.903 500.533 291.418 508.948 289.033C512.413 288.043 515.698 288.403 518.465 290.068C530.188 297.133 522.493 311.825 516.868 322.58C516.62 323.053 516.373 323.525 516.125 323.998C524.63 328.025 534.53 334.933 536.803 342.493C537.748 345.62 537.365 348.68 535.655 351.313C531.943 357.05 523.033 361.933 501.59 352.595C498.755 351.358 496.078 349.85 493.715 348.14C492.86 349.355 492.028 350.548 491.218 351.74C480.17 367.625 468.763 384.028 435.485 398.63C421.58 404.75 405.2 407.878 390.328 407.878ZM363.373 394.85C377.323 401.825 407.023 402.5 432.358 391.385C463.588 377.683 473.87 362.878 484.76 347.218C486.38 344.878 488.068 342.448 489.8 340.063L492.455 336.418L495.718 339.5C498.148 341.773 501.275 343.798 504.785 345.328C517.16 350.728 526.228 351.358 529.018 347.015C529.333 346.52 529.58 345.913 529.243 344.788C527.96 340.535 520.22 334.393 511.265 330.478C509.668 329.78 508.475 328.498 507.913 326.9C507.35 325.303 507.463 323.548 508.25 322.04C508.768 321.028 509.33 319.97 509.87 318.913C515.45 308.248 519.32 299.833 514.393 296.863C513.853 296.525 512.93 296.165 511.153 296.66C505.19 298.348 497.653 307.145 493.828 314.638C492.028 318.148 490.88 321.77 490.475 325.145L489.89 330.118L485.188 328.408C466.22 321.5 436.025 316.663 408.125 323.863C382.723 330.41 358.895 345.823 350.885 360.808L371.833 369.493C374.06 370.055 375.838 371.675 376.625 373.858C377.48 376.22 377.008 378.785 375.388 380.698L363.373 394.85Z" fill="#390075"/>
<path d="M413.008 403.535C412.828 403.535 412.648 403.513 412.445 403.445C411.388 403.13 410.803 402.028 411.095 400.993C422.998 360.178 394.018 325.438 393.703 325.1L395.188 323.795L395.165 323.773L396.38 322.198C396.718 322.468 427.655 358.288 414.875 402.095C414.673 402.973 413.863 403.535 413.008 403.535Z" fill="#390075"/>
<path d="M418.273 371.968C417.395 371.968 416.495 371.945 415.573 371.9L415.258 371.878L415.303 369.965L413.773 368.57C414.403 367.873 415.145 367.918 415.775 367.94C423.583 368.345 429.455 366.838 432.313 363.71C434.158 361.663 434.788 358.918 434.248 355.295C433.82 352.415 432.65 350.548 430.67 349.558C425.27 346.88 415.01 351.223 411.5 353.135C410.533 353.653 409.34 353.293 408.823 352.348C408.305 351.38 408.665 350.188 409.61 349.67C410.195 349.355 424.123 341.885 432.448 346.025C435.62 347.6 437.533 350.525 438.163 354.71C438.883 359.503 437.915 363.44 435.238 366.365C431.908 370.055 426.08 371.968 418.273 371.968Z" fill="#390075"/>
<path d="M428.195 362.428C428.083 362.45 427.97 362.473 427.88 362.495L427.655 362.54L427.228 362.608L426.373 362.743L424.663 362.99L421.22 363.463L414.358 364.408C413.278 364.565 412.265 363.8 412.108 362.698C411.95 361.595 412.715 360.605 413.818 360.448C413.953 360.425 414.088 360.425 414.245 360.425H414.268L427.948 361.505L428.15 361.528C428.398 361.55 428.6 361.775 428.578 362.023C428.533 362.225 428.398 362.383 428.195 362.428Z" fill="#390075"/>
<path d="M521.278 344.315C519.725 344.382 518.173 344.292 516.643 344.09C515.113 343.865 513.605 343.572 512.098 343.19C510.613 342.807 509.15 342.358 507.71 341.795C506.293 341.233 504.875 340.603 503.548 339.748C503.39 339.635 503.323 339.41 503.435 339.252C503.525 339.117 503.66 339.073 503.795 339.095C505.303 339.32 506.788 339.68 508.25 340.04C509.713 340.4 511.175 340.783 512.615 341.188L516.958 342.313L521.345 343.37H521.368C521.638 343.438 521.795 343.685 521.728 343.955C521.683 344.158 521.48 344.315 521.278 344.315Z" fill="#390075"/>
<path d="M516.665 338.06C515.203 337.993 513.741 337.858 512.301 337.655C510.861 337.453 509.421 337.25 507.981 336.958C506.541 336.71 505.123 336.395 503.706 336.035C502.288 335.653 500.893 335.248 499.52 334.663C499.34 334.595 499.25 334.37 499.34 334.19C499.408 334.055 499.521 333.965 499.656 333.965C501.141 333.92 502.603 334.055 504.043 334.213C505.483 334.393 506.923 334.618 508.34 334.91C509.758 335.18 511.176 335.495 512.593 335.855C514.011 336.215 515.406 336.62 516.801 337.093H516.823C517.071 337.183 517.205 337.453 517.115 337.7C517.093 337.948 516.89 338.06 516.665 338.06Z" fill="#390075"/>
<path d="M496.91 325.685L499.678 322.13L502.378 318.53C503.255 317.315 504.155 316.123 505.078 314.908C506 313.715 506.945 312.523 507.98 311.398C508.115 311.24 508.34 311.24 508.498 311.375C508.61 311.465 508.633 311.623 508.588 311.758C508.07 313.243 507.373 314.593 506.608 315.943C505.82 317.27 504.965 318.553 504.043 319.768C503.12 321.005 502.108 322.175 501.05 323.3C499.97 324.403 498.823 325.46 497.563 326.36C497.338 326.518 497.045 326.473 496.888 326.248C496.775 326.09 496.775 325.865 496.91 325.685Z" fill="#390075"/>
<path d="M496.551 317.968C497.338 316.73 498.193 315.538 499.071 314.368C499.948 313.22 500.871 312.073 501.816 310.97C502.738 309.845 503.728 308.788 504.741 307.73C505.776 306.695 506.833 305.683 508.026 304.783C508.183 304.67 508.408 304.693 508.543 304.85C508.633 304.963 508.633 305.12 508.566 305.233C507.868 306.538 507.013 307.73 506.158 308.923C505.281 310.093 504.358 311.218 503.391 312.32C502.446 313.423 501.456 314.503 500.443 315.56C499.431 316.618 498.373 317.63 497.271 318.598C497.068 318.778 496.753 318.755 496.596 318.553C496.461 318.395 496.438 318.17 496.551 317.968Z" fill="#390075"/>
<path d="M424.91 353.743L413.615 359.3C412.625 359.795 411.433 359.39 410.938 358.4C410.443 357.41 410.848 356.218 411.838 355.723C411.973 355.655 412.13 355.588 412.288 355.565L424.618 352.82C424.888 352.753 425.135 352.933 425.203 353.18C425.248 353.405 425.135 353.63 424.955 353.72L424.91 353.743Z" fill="#390075"/>
<path d="M390.553 343.955C391.61 344.518 390.958 347.915 389.135 352.01C392.96 354.328 395.435 356.758 394.895 357.815C394.333 358.873 390.935 358.22 386.84 356.398C384.523 360.223 382.093 362.698 381.035 362.158C379.978 361.595 380.63 358.198 382.453 354.103C378.605 351.785 376.153 349.355 376.693 348.298C377.255 347.24 380.653 347.893 384.748 349.715C387.065 345.868 389.495 343.393 390.553 343.955Z" fill="#390075"/>
<path d="M112.453 349.175C117.403 356.87 130.453 353.833 141.613 348.973C145.663 347.218 149.15 344.9 151.828 342.403C164.878 360.313 173.765 378.718 210.89 395.008C236.72 406.348 269.188 406.235 284.443 397.775C286.108 396.853 286.513 394.67 285.298 393.23L272.495 378.155C271.01 376.4 271.978 373.7 274.228 373.295L295.873 364.318C297.673 363.463 298.82 361.64 297.988 359.953C289.82 343.46 264.193 326.855 237.71 320.038C208.978 312.635 177.703 317.63 158.308 324.695C157.858 320.983 156.62 316.888 154.55 312.838C149.015 302.015 136.37 288.65 128.405 293.465C119 299.135 127.528 312.995 133.063 323.84L133.085 323.863C133.67 324.965 133.175 326.338 132.028 326.833L131.983 326.855C120.823 331.715 107.66 341.728 112.453 349.175Z" fill="#F4B75D"/>
<g opacity="0.5">
<path d="M128.36 293.465C125.795 295.018 124.58 297.178 124.243 299.698C132.23 295.918 144.358 308.855 149.758 319.408C151.828 323.458 153.088 327.553 153.515 331.265C172.91 324.178 204.185 319.183 232.918 326.585C258.883 333.29 284.06 349.378 292.7 365.578L295.805 364.295C297.605 363.44 298.753 361.618 297.92 359.93C289.753 343.438 264.125 326.855 237.643 320.038C208.91 312.635 177.635 317.63 158.24 324.695C157.79 320.983 156.553 316.888 154.483 312.838C148.97 302.015 136.348 288.673 128.36 293.465Z" fill="white"/>
</g>
<g opacity="0.3">
<path d="M117.155 336.148C112.475 340.423 109.865 345.17 112.453 349.175C117.403 356.87 130.453 353.833 141.59 348.973C145.64 347.218 149.128 344.9 151.805 342.402C164.855 360.312 173.743 378.717 210.868 395.007C236.698 406.347 269.165 406.235 284.42 397.775C286.063 396.853 286.49 394.67 285.253 393.23L282.35 389.81C265.475 394.94 238.52 393.612 216.425 383.915C183.26 369.357 170.413 352.078 158.735 335.788C156.733 332.975 152.683 332.885 150.41 335.473C149.578 336.418 148.565 337.273 147.148 337.88C135.988 342.74 122.96 345.755 118.01 338.082C117.605 337.452 117.335 336.8 117.155 336.148Z" fill="#390075"/>
</g>
<path d="M254.495 407.878C239.623 407.878 223.243 404.75 209.293 398.63C176.015 384.028 164.608 367.603 153.56 351.74C152.728 350.548 151.895 349.355 151.063 348.14C148.7 349.85 146.045 351.358 143.188 352.595C121.745 361.933 112.835 357.05 109.123 351.313C107.435 348.68 107.03 345.643 107.975 342.493C110.27 334.933 120.17 328.003 128.653 323.998C128.405 323.525 128.158 323.053 127.91 322.58C122.285 311.848 114.59 297.133 126.313 290.068C129.058 288.403 132.365 288.043 135.83 289.033C144.245 291.44 153.38 301.903 158.038 311.015C159.455 313.783 160.558 316.64 161.3 319.453C181.46 312.973 211.093 309.058 238.678 316.168C267.05 323.48 292.903 340.738 301.498 358.153C302.285 359.75 302.398 361.573 301.813 363.283C301.138 365.24 299.563 366.905 297.515 367.873L297.335 367.94L276.388 376.625L288.268 390.62C289.618 392.218 290.18 394.31 289.798 396.358C289.415 398.428 288.155 400.183 286.31 401.195C278.323 405.695 266.938 407.878 254.495 407.878ZM152.368 336.418L155.023 340.063C156.755 342.448 158.443 344.878 160.063 347.218C170.953 362.878 181.235 377.683 212.465 391.385C237.823 402.5 267.523 401.825 281.45 394.85L269.435 380.698C267.815 378.785 267.343 376.22 268.198 373.858C268.985 371.653 270.763 370.055 272.99 369.493L293.938 360.808C285.905 345.823 262.078 330.41 236.698 323.863C208.798 316.663 178.603 321.5 159.635 328.408L154.933 330.118L154.348 325.145C153.943 321.77 152.773 318.125 150.995 314.638C147.148 307.123 139.61 298.348 133.67 296.66C131.893 296.165 130.97 296.525 130.43 296.863C125.503 299.833 129.373 308.248 134.953 318.913C135.515 319.97 136.055 321.028 136.573 322.04C137.36 323.548 137.473 325.325 136.91 326.9C136.348 328.498 135.133 329.803 133.58 330.455C124.58 334.37 116.84 340.535 115.558 344.765C115.22 345.89 115.468 346.498 115.783 346.993C118.573 351.335 127.64 350.705 140.015 345.305C143.525 343.775 146.675 341.75 149.083 339.478L152.368 336.418Z" fill="#390075"/>
<path d="M231.815 403.535C230.96 403.535 230.173 402.973 229.925 402.118C217.28 358.738 248.083 322.49 248.42 322.22L249.635 323.773L251.12 325.1C250.828 325.438 221.825 360.155 233.728 400.993C234.043 402.05 233.435 403.153 232.378 403.445C232.175 403.513 231.995 403.535 231.815 403.535Z" fill="#390075"/>
<path d="M226.55 371.968C218.742 371.968 212.915 370.055 209.585 366.365C206.93 363.418 205.94 359.503 206.66 354.71C207.29 350.525 209.225 347.6 212.375 346.025C220.7 341.885 234.627 349.355 235.212 349.67C236.18 350.188 236.54 351.403 236 352.348C235.482 353.315 234.267 353.675 233.322 353.135C229.812 351.223 219.507 346.88 214.152 349.558C212.195 350.548 211.025 352.415 210.575 355.295C210.035 358.918 210.665 361.663 212.51 363.71C215.367 366.86 221.24 368.345 229.047 367.94C229.677 367.895 230.42 367.873 231.05 368.57L228.125 371.225L229.61 369.898L229.565 371.878L229.25 371.9C228.327 371.945 227.427 371.968 226.55 371.968Z" fill="#390075"/>
<path d="M216.898 361.505L230.578 360.425C231.68 360.335 232.625 361.168 232.715 362.248C232.805 363.35 231.973 364.295 230.893 364.385C230.758 364.408 230.6 364.385 230.465 364.363L223.603 363.418L220.16 362.945L218.45 362.698L217.595 362.563L217.168 362.495L216.943 362.45C216.853 362.428 216.718 362.405 216.628 362.383C216.38 362.315 216.223 362.068 216.29 361.82C216.335 361.618 216.515 361.483 216.695 361.483L216.898 361.505Z" fill="#390075"/>
<path d="M123.455 343.37L127.843 342.312L132.185 341.187C133.625 340.782 135.088 340.4 136.55 340.04C138.013 339.702 139.498 339.342 141.005 339.095C141.208 339.072 141.388 339.207 141.41 339.387C141.433 339.545 141.365 339.68 141.253 339.748C139.925 340.58 138.53 341.21 137.09 341.795C135.65 342.335 134.188 342.807 132.703 343.19C131.218 343.572 129.688 343.865 128.158 344.09C126.628 344.292 125.075 344.382 123.523 344.315C123.253 344.292 123.05 344.067 123.05 343.82C123.095 343.595 123.253 343.415 123.455 343.37Z" fill="#390075"/>
<path d="M128 337.115C129.395 336.643 130.79 336.238 132.208 335.878C133.625 335.518 135.043 335.203 136.46 334.933C137.878 334.64 139.318 334.415 140.758 334.235C142.198 334.078 143.66 333.943 145.145 333.988C145.348 333.988 145.505 334.168 145.505 334.37C145.505 334.505 145.415 334.64 145.28 334.685C143.908 335.27 142.513 335.675 141.095 336.058C139.678 336.418 138.26 336.733 136.82 336.98C135.38 337.25 133.94 337.475 132.5 337.678C131.06 337.858 129.598 338.015 128.135 338.083C127.865 338.105 127.64 337.88 127.618 337.61C127.64 337.385 127.775 337.183 128 337.115Z" fill="#390075"/>
<path d="M147.238 326.383C145.978 325.46 144.83 324.425 143.75 323.323C142.693 322.198 141.68 321.028 140.758 319.79C139.813 318.575 138.98 317.293 138.193 315.965C137.428 314.638 136.73 313.265 136.213 311.78C136.145 311.6 136.258 311.375 136.438 311.33C136.573 311.285 136.73 311.33 136.82 311.42C137.855 312.545 138.8 313.738 139.723 314.93C140.645 316.123 141.545 317.338 142.423 318.553L145.123 322.153L147.89 325.708C148.048 325.91 148.025 326.225 147.8 326.383C147.643 326.518 147.418 326.518 147.238 326.383Z" fill="#390075"/>
<path d="M147.552 318.62C146.45 317.653 145.392 316.64 144.38 315.583C143.367 314.525 142.377 313.468 141.432 312.343C140.465 311.24 139.542 310.115 138.665 308.945C137.81 307.775 136.955 306.56 136.257 305.255C136.167 305.075 136.235 304.85 136.415 304.76C136.55 304.693 136.685 304.715 136.797 304.783C137.99 305.683 139.047 306.695 140.082 307.73C141.095 308.765 142.085 309.845 143.007 310.97C143.952 312.073 144.875 313.198 145.752 314.368C146.63 315.515 147.485 316.708 148.272 317.968V317.99C148.407 318.215 148.34 318.508 148.115 318.665C147.935 318.778 147.71 318.755 147.552 318.62Z" fill="#390075"/>
<path d="M220.183 352.82L232.513 355.565C233.593 355.813 234.268 356.87 234.02 357.95C233.773 359.03 232.715 359.705 231.635 359.458C231.478 359.413 231.32 359.368 231.185 359.3L219.89 353.743L219.868 353.72C219.62 353.608 219.53 353.315 219.643 353.068C219.755 352.865 219.98 352.775 220.183 352.82Z" fill="#390075"/>
<path d="M254.27 343.955C253.213 344.518 253.865 347.915 255.688 352.01C251.863 354.328 249.388 356.758 249.928 357.815C250.49 358.873 253.888 358.22 257.983 356.398C260.3 360.223 262.73 362.698 263.788 362.158C264.845 361.595 264.193 358.198 262.37 354.103C266.218 351.785 268.67 349.355 268.13 348.298C267.568 347.24 264.17 347.893 260.075 349.715C257.758 345.868 255.328 343.393 254.27 343.955Z" fill="#390075"/>
<path d="M422.84 423.02C415.325 419.645 393.59 403.827 396.853 378.74C400.498 350.57 427.183 347.015 435.508 348.41C461.9 352.82 465.343 386.66 481.093 380.63C481.093 380.63 488.158 407.765 463.88 421.895C447.095 431.66 430.355 426.395 422.84 423.02Z" fill="white"/>
<path d="M443.09 428.037C434.045 428.037 426.508 425.292 422.593 423.537C414.718 419.982 392.983 404.142 396.268 378.672C397.595 368.412 402.028 360.425 409.453 354.912C418.678 348.072 430.13 346.947 435.575 347.847C449.435 350.165 457.153 360.56 463.34 368.907C469.1 376.692 473.668 382.857 480.89 380.09L481.475 379.865L481.633 380.472C481.7 380.742 488.518 408.17 464.15 422.367C456.883 426.597 449.593 428.037 443.09 428.037ZM423.065 422.502C431.21 426.17 447.298 430.895 463.588 421.4C485.233 408.8 481.498 385.4 480.665 381.35C472.993 383.847 468.088 377.232 462.418 369.582C456.343 361.392 448.805 351.2 435.373 348.95C430.31 348.117 418.97 349.22 410.105 355.812C402.95 361.122 398.653 368.862 397.37 378.807C394.175 403.602 415.393 419.06 423.065 422.502Z" fill="#390075"/>
<g opacity="0.3">
<path d="M463.88 421.895C447.095 431.66 430.355 426.418 422.84 423.02C415.393 419.668 393.95 404.075 396.785 379.348C402.905 391.16 413.773 398.607 418.655 400.79C426.17 404.165 442.91 409.43 459.695 399.665C468.47 394.557 473.173 387.74 475.558 381.125C477.245 381.53 479.068 381.395 481.093 380.63C481.093 380.63 488.158 407.765 463.88 421.895Z" fill="#390075"/>
</g>
<path d="M443.113 431.435C433.438 431.435 425.383 428.51 421.22 426.643C412.738 422.84 389.36 405.763 392.915 378.245C394.378 367.04 399.26 358.265 407.428 352.19C417.485 344.72 430.108 343.505 436.138 344.518C451.348 347.06 459.515 358.063 466.063 366.905C472.453 375.523 475.265 378.605 479.653 376.94L483.793 375.365L484.918 379.64C485.008 379.933 492.433 409.858 465.86 425.338C458.008 429.905 450.133 431.435 443.113 431.435ZM424.46 419.398C431.998 422.795 446.893 427.183 461.878 418.453C478.235 408.935 478.618 392.6 477.853 385.31C470.113 385.625 464.825 378.515 459.695 371.585C453.688 363.485 446.893 354.305 434.833 352.28C430.333 351.538 420.185 352.55 412.153 358.513C405.763 363.26 401.938 370.213 400.768 379.213C397.775 402.388 418.7 416.81 424.46 419.398Z" fill="#390075"/>
<path d="M290 200.878C289.573 200.878 289.145 200.81 288.695 200.675L285.365 199.618L236.495 181.483C234.29 180.673 233.165 178.22 233.975 176.015C234.785 173.81 237.238 172.685 239.443 173.495L288.223 191.608L291.26 192.575C293.51 193.295 294.748 195.68 294.028 197.93C293.488 199.73 291.8 200.878 290 200.878Z" fill="#390075"/>
<path d="M236.338 209.743C237.53 226.978 249.545 238.52 263.203 235.528C276.86 232.535 286.963 216.133 285.77 198.875C285.703 197.773 285.568 196.693 285.41 195.635L245.9 180.965C239.443 188.03 235.573 198.718 236.338 209.743Z" fill="#390075"/>
<path d="M259.165 200.807C260.212 195.314 258.388 190.352 255.092 189.724C251.796 189.097 248.277 193.041 247.23 198.534C246.184 204.026 248.008 208.988 251.303 209.616C254.599 210.244 258.119 206.3 259.165 200.807Z" fill="white"/>
<path d="M272.273 216.855C272.625 214.081 271.562 211.662 269.898 211.45C268.234 211.239 266.599 213.316 266.247 216.089C265.894 218.863 266.958 221.283 268.622 221.494C270.286 221.706 271.921 219.628 272.273 216.855Z" fill="white"/>
<path d="M221.893 423.02C229.408 419.645 251.143 403.828 247.88 378.74C244.235 350.57 217.55 347.015 209.225 348.41C182.833 352.82 179.39 386.66 163.64 380.63C163.64 380.63 156.575 407.765 180.853 421.895C197.638 431.66 214.378 426.395 221.893 423.02Z" fill="white"/>
<path d="M201.643 428.038C195.14 428.038 187.85 426.62 180.583 422.39C156.215 408.193 163.033 380.765 163.1 380.495L163.258 379.888L163.843 380.113C171.065 382.88 175.61 376.738 181.393 368.93C187.58 360.583 195.275 350.165 209.158 347.87C214.603 346.97 226.055 348.095 235.28 354.935C242.705 360.448 247.138 368.435 248.465 378.695C251.773 404.165 230.015 420.028 222.14 423.56C218.225 425.293 210.665 428.038 201.643 428.038ZM164.045 381.373C163.213 385.423 159.5 408.823 181.123 421.423C197.413 430.918 213.5 426.193 221.645 422.525C229.318 419.06 250.513 403.625 247.318 378.83C246.035 368.885 241.738 361.145 234.583 355.835C225.718 349.243 214.378 348.14 209.315 348.973C195.905 351.2 188.345 361.415 182.27 369.605C176.623 377.233 171.718 383.87 164.045 381.373Z" fill="#390075"/>
<g opacity="0.3">
<path d="M180.853 421.895C197.638 431.66 214.378 426.418 221.893 423.02C229.34 419.668 250.783 404.075 247.948 379.348C241.828 391.16 230.96 398.607 226.078 400.79C218.563 404.165 201.823 409.43 185.038 399.665C176.263 394.557 171.56 387.74 169.175 381.125C167.488 381.53 165.665 381.395 163.64 380.63C163.64 380.63 156.575 407.765 180.853 421.895Z" fill="#390075"/>
</g>
<path d="M201.62 431.435C194.6 431.435 186.725 429.905 178.873 425.315C152.3 409.835 159.748 379.933 159.815 379.618L160.94 375.343L165.08 376.918C169.468 378.605 172.303 375.5 178.67 366.883C185.218 358.04 193.385 347.015 208.595 344.495C214.625 343.483 227.248 344.698 237.305 352.168C245.495 358.243 250.378 366.995 251.818 378.223C255.373 405.74 231.995 422.818 223.513 426.62C219.35 428.51 211.295 431.435 201.62 431.435ZM166.835 385.333C166.025 392.623 166.34 408.868 182.833 418.475C197.818 427.205 212.713 422.818 220.25 419.42C226.01 416.833 246.935 402.41 243.943 379.258C242.773 370.258 238.948 363.305 232.558 358.558C224.525 352.595 214.378 351.583 209.878 352.325C197.818 354.328 191.023 363.53 185.015 371.63C179.885 378.538 174.62 385.67 166.835 385.333Z" fill="#390075"/>
<path d="M403.22 370.955C403.243 371.27 403.355 371.81 403.445 372.26C403.535 372.733 403.648 373.228 403.783 373.7C404.03 374.668 404.3 375.635 404.615 376.602C405.245 378.537 405.965 380.473 406.798 382.363C407.653 384.253 408.553 386.142 409.61 387.965C410.623 389.81 411.793 391.587 412.985 393.365C411.298 392.037 409.633 390.688 408.058 389.18C406.46 387.718 404.953 386.12 403.468 384.477C402.005 382.835 400.633 381.08 399.328 379.257C398.675 378.335 398.045 377.412 397.438 376.445C397.145 375.95 396.83 375.478 396.56 374.96C396.268 374.443 395.998 373.97 395.683 373.295L395.48 372.868C394.558 370.82 395.458 368.412 397.483 367.49C399.53 366.567 401.938 367.468 402.86 369.493C403.063 369.988 403.198 370.483 403.22 370.955Z" fill="#390075"/>
<path d="M410.758 357.365C411.478 359.3 412.445 361.46 413.413 363.463C414.403 365.488 415.483 367.513 416.63 369.47C417.778 371.45 419.038 373.363 420.388 375.23C421.715 377.12 423.2 378.875 424.775 380.63C422.795 379.393 420.815 378.088 418.97 376.603C417.103 375.14 415.28 373.588 413.548 371.945C411.815 370.303 410.128 368.593 408.508 366.815C406.888 365.015 405.358 363.238 403.805 361.145V361.123C402.478 359.345 402.86 356.848 404.615 355.52C406.393 354.193 408.89 354.575 410.218 356.33C410.443 356.668 410.623 357.005 410.758 357.365Z" fill="#390075"/>
<path d="M425.225 348.793C425.81 350.503 426.665 352.438 427.52 354.238C428.375 356.06 429.32 357.883 430.333 359.66C432.335 363.238 434.653 366.68 437.24 369.988C433.753 367.67 430.4 365.038 427.25 362.135C425.675 360.695 424.123 359.188 422.638 357.613C421.13 356.015 419.735 354.463 418.273 352.573L418.228 352.528C416.878 350.773 417.215 348.253 418.97 346.903C420.725 345.553 423.245 345.89 424.595 347.645C424.888 348.005 425.09 348.388 425.225 348.793Z" fill="#390075"/>
<path d="M248.735 373.318C248.42 373.993 248.15 374.465 247.858 374.983C247.565 375.5 247.273 375.973 246.958 376.468C246.35 377.435 245.72 378.38 245.068 379.28C243.763 381.103 242.39 382.858 240.928 384.5C239.465 386.143 237.958 387.74 236.338 389.203C234.763 390.688 233.075 392.06 231.41 393.388C232.625 391.61 233.773 389.833 234.785 387.988C235.843 386.165 236.743 384.275 237.598 382.385C238.43 380.495 239.15 378.56 239.78 376.625C240.095 375.658 240.365 374.69 240.613 373.723C240.725 373.25 240.86 372.755 240.95 372.283C241.04 371.833 241.153 371.293 241.175 370.978C241.31 368.728 243.245 367.04 245.495 367.175C247.745 367.31 249.433 369.245 249.298 371.495C249.275 372.013 249.14 372.485 248.938 372.913L248.735 373.318Z" fill="#390075"/>
<path d="M240.59 361.145C239.038 363.238 237.508 364.993 235.888 366.815C234.268 368.593 232.58 370.303 230.848 371.945C229.115 373.588 227.293 375.14 225.425 376.603C223.58 378.065 221.6 379.393 219.62 380.63C221.195 378.898 222.68 377.12 224.008 375.23C225.358 373.363 226.618 371.45 227.765 369.47C228.913 367.49 229.993 365.488 230.983 363.463C231.95 361.46 232.918 359.3 233.638 357.365C234.403 355.295 236.698 354.238 238.768 355.003C240.838 355.768 241.895 358.063 241.13 360.155C240.995 360.515 240.815 360.853 240.59 361.145Z" fill="#390075"/>
<path d="M226.123 352.573C224.683 354.463 223.265 356.015 221.758 357.613C220.273 359.188 218.743 360.695 217.145 362.135C213.995 365.038 210.643 367.67 207.155 369.988C209.743 366.703 212.06 363.238 214.063 359.66C215.075 357.883 216.02 356.06 216.875 354.238C217.73 352.438 218.585 350.503 219.17 348.793C219.89 346.7 222.185 345.575 224.278 346.295C226.37 347.015 227.495 349.31 226.775 351.403C226.64 351.808 226.438 352.19 226.168 352.528L226.123 352.573Z" fill="#390075"/>
<path d="M264.035 589.565C262.64 591.793 261.448 593.773 260.435 595.798C259.423 597.8 258.455 599.69 257.803 601.693C257.6 602.165 257.488 602.705 257.33 603.178C257.173 603.673 257.015 604.168 256.925 604.685C256.835 605.203 256.7 605.698 256.565 606.193C256.475 606.71 256.408 607.228 256.318 607.723C256.07 608.713 256.093 609.77 255.89 610.805C255.778 611.84 255.755 612.898 255.598 613.955L255.508 614.518C255.17 616.678 253.145 618.14 251.008 617.803C249.118 617.51 247.745 615.913 247.678 614.068C247.633 612.74 247.565 611.39 247.7 610.063C247.858 608.713 248.015 607.385 248.375 606.08C248.983 603.448 250.153 600.928 251.525 598.61C252.92 596.315 254.72 594.268 256.835 592.648C258.95 591.073 261.358 589.813 264.035 589.565Z" fill="#390075"/>
<path d="M237.575 584.075C236.045 586.28 234.695 588.238 233.548 590.24C232.378 592.22 231.32 594.133 230.533 596.135C229.745 598.115 229.115 600.118 228.8 602.188C228.53 603.2 228.508 604.258 228.328 605.293C228.193 606.328 228.193 607.408 228.013 608.465L227.923 609.005C227.563 611.165 225.538 612.605 223.378 612.245C221.51 611.93 220.183 610.355 220.093 608.555C220.048 607.88 220.048 607.183 220.048 606.485C220.048 605.788 220.025 605.113 220.138 604.415C220.318 603.043 220.498 601.648 220.903 600.298C221.6 597.575 222.86 595.033 224.413 592.738C225.965 590.443 227.878 588.418 230.105 586.91C232.355 585.403 234.853 584.255 237.575 584.075Z" fill="#390075"/>
<path d="M382.408 589.565C385.085 589.813 387.493 591.073 389.608 592.625C391.723 594.223 393.523 596.27 394.918 598.588C396.29 600.905 397.46 603.403 398.068 606.058C398.428 607.363 398.585 608.713 398.743 610.04C398.878 611.368 398.81 612.718 398.765 614.045C398.675 616.228 396.853 617.915 394.67 617.825C392.758 617.758 391.205 616.318 390.935 614.495L390.845 613.933C390.688 612.875 390.665 611.818 390.553 610.783C390.373 609.77 390.373 608.713 390.125 607.7C390.035 607.183 389.968 606.665 389.878 606.17C389.743 605.675 389.63 605.18 389.518 604.663C389.428 604.145 389.27 603.65 389.113 603.155C388.955 602.66 388.843 602.143 388.64 601.67C387.988 599.668 387.02 597.755 386.008 595.775C384.995 593.773 383.825 591.793 382.408 589.565Z" fill="#390075"/>
<path d="M408.868 584.075C411.59 584.255 414.088 585.403 416.338 586.888C418.588 588.395 420.5 590.42 422.03 592.715C423.56 595.01 424.843 597.575 425.54 600.275C425.945 601.625 426.148 602.998 426.305 604.393C426.418 605.09 426.395 605.765 426.395 606.463C426.395 607.16 426.395 607.835 426.35 608.533C426.238 610.715 424.393 612.38 422.21 612.268C420.32 612.178 418.813 610.76 418.52 608.983L418.43 608.443C418.25 607.385 418.25 606.305 418.115 605.27C417.935 604.235 417.913 603.178 417.643 602.165C417.328 600.095 416.698 598.093 415.91 596.113C415.145 594.11 414.088 592.198 412.895 590.218C411.748 588.215 410.398 586.28 408.868 584.075Z" fill="#390075"/>
<path d="M358.85 200.878C357.05 200.878 355.363 199.73 354.8 197.908C354.08 195.658 355.318 193.273 357.568 192.553L360.605 191.585L409.385 173.473C411.59 172.663 414.043 173.788 414.853 175.993C415.663 178.198 414.538 180.65 412.333 181.46L363.283 199.663L360.155 200.653C359.728 200.81 359.3 200.878 358.85 200.878Z" fill="#390075"/>
<path d="M412.535 209.743C411.342 226.978 399.327 238.52 385.67 235.528C372.012 232.535 361.91 216.133 363.102 198.875C363.17 197.773 363.305 196.693 363.462 195.635L402.972 180.965C409.43 188.03 413.3 198.718 412.535 209.743Z" fill="#390075"/>
<path d="M397.544 209.547C400.84 208.919 402.664 203.957 401.617 198.464C400.571 192.971 397.051 189.027 393.756 189.655C390.46 190.283 388.636 195.245 389.682 200.738C390.729 206.23 394.249 210.174 397.544 209.547Z" fill="white"/>
<path d="M380.223 221.449C381.887 221.238 382.95 218.818 382.598 216.044C382.246 213.271 380.611 211.194 378.947 211.405C377.283 211.616 376.219 214.036 376.571 216.81C376.924 219.583 378.558 221.66 380.223 221.449Z" fill="white"/>
</svg>
