<svg width="626" height="599" viewBox="0 0 626 599" fill="none" xmlns="http://www.w3.org/2000/svg">
<ellipse cx="313" cy="299.5" rx="313" ry="299.5" fill="#B0A2D7"/>
<g clip-path="url(#clip0_237_3935)">
<path d="M366.355 549.98C375.384 562.744 420.618 553.542 468.771 546.8C515.844 540.227 565.688 535.966 587.153 556.85C591.107 560.687 593.856 564.631 595.464 568.447C601.3 582.42 591.678 594.781 567.972 594.781H392.492C358.467 594.781 320.444 599 317.906 555.026" fill="#8E8FB3"/>
<path d="M351.721 578.094C364.642 584.201 405.35 582.568 451.557 582.844C518.297 583.247 583.959 591.155 595.442 568.447C601.279 582.42 591.657 594.781 567.951 594.781H392.492C358.467 594.781 320.444 599 317.906 555.026" fill="#7A7A7A"/>
<path d="M597.092 576.165C597.092 586.66 587.132 594.781 567.951 594.781H468.581C467.354 585.961 463.97 592.067 461.961 588.653C461.264 587.508 461.538 585.388 462.131 582.95C525.065 583.967 584.552 589.925 595.443 568.426C595.548 568.659 595.633 568.872 595.718 569.105C595.802 569.296 595.866 569.508 595.929 569.72C596.056 570.059 596.162 570.419 596.267 570.737C596.563 571.67 596.775 572.603 596.902 573.515C596.944 573.769 596.965 574.024 597.008 574.278C597.05 574.596 597.071 574.893 597.092 575.211C597.092 575.55 597.092 575.868 597.092 576.165Z" fill="#E8E8E8"/>
<path d="M567.951 594.781H468.602C467.375 585.96 463.991 592.067 461.961 588.674C460.1 585.536 465.26 575.19 465.26 571.077C465.26 566.624 459.847 572.624 458.493 568.511C457.14 564.355 467.692 550.447 468.771 546.8C515.844 540.227 565.688 535.966 587.153 556.85C605.487 574.681 598.149 594.781 567.951 594.781Z" fill="white"/>
<path d="M597.092 576.165C597.092 586.66 587.132 594.781 567.951 594.781H468.581C467.354 585.961 463.97 592.067 461.961 588.653C461.264 587.508 461.538 585.388 462.131 582.95C525.065 583.967 584.552 589.925 595.443 568.426C595.548 568.659 595.633 568.872 595.718 569.105C595.802 569.296 595.866 569.508 595.929 569.72C596.056 570.059 596.162 570.419 596.267 570.737C596.563 571.67 596.775 572.603 596.902 573.515C596.944 573.769 596.965 574.024 597.008 574.278C597.05 574.596 597.071 574.893 597.092 575.211C597.092 575.55 597.092 575.868 597.092 576.165Z" fill="#E8E8E8"/>
<path d="M367.264 549.111C368.998 550.85 371.43 551.719 374.01 552.334C376.611 552.906 379.36 553.161 382.151 553.288C384.943 553.394 387.776 553.436 390.631 553.351C393.486 553.288 396.341 553.161 399.217 552.949C410.7 552.101 422.225 550.468 433.751 548.793C456.801 545.401 479.894 541.584 503.325 539.485C515.04 538.468 526.819 537.853 538.704 538.298C544.647 538.531 550.589 539.04 556.531 540.036C562.453 541.033 568.374 542.496 574.105 544.828C576.96 545.994 579.751 547.394 582.416 549.069C585.059 550.744 587.597 552.737 589.817 554.984C592.016 557.189 594.068 559.627 595.781 562.341C597.515 565.055 598.931 568.087 599.672 571.416C600.433 574.723 600.433 578.412 599.333 581.847C598.255 585.282 596.077 588.314 593.475 590.54C590.853 592.788 587.872 594.335 584.847 595.438C581.823 596.54 578.715 597.219 575.627 597.622C574.084 597.813 572.54 597.961 570.996 598.025C569.473 598.109 567.887 598.109 566.449 598.109H557.694H540.184H505.186H435.167H400.169H391.414L382.68 598.173C376.843 598.237 370.943 598.258 365.001 597.982C359.059 597.707 353.053 597.134 347.068 595.777C341.126 594.42 335.099 592.194 329.918 588.378C327.317 586.491 325.012 584.179 323.045 581.635C321.099 579.07 319.534 576.25 318.35 573.303C315.982 567.43 315.009 561.239 314.671 555.196C314.586 553.542 315.834 552.143 317.483 552.058C319.111 551.973 320.507 553.203 320.613 554.836V554.857C320.994 560.454 321.966 565.988 324.06 570.949C325.117 573.43 326.407 575.741 328.014 577.819C329.622 579.897 331.504 581.741 333.64 583.268C337.89 586.384 343.071 588.293 348.485 589.48C353.899 590.667 359.566 591.176 365.276 591.409C370.986 591.621 376.78 591.579 382.595 591.515L391.372 591.452H400.126H435.125L505.144 591.431H540.142H557.652H566.407C567.908 591.431 569.22 591.431 570.615 591.346C571.99 591.282 573.365 591.155 574.697 590.985C577.382 590.625 580.026 590.052 582.479 589.162C584.932 588.272 587.195 587.063 589.013 585.494C590.832 583.925 592.186 581.996 592.862 579.854C593.56 577.713 593.581 575.338 593.053 572.964C592.524 570.589 591.445 568.214 590.05 566.009C588.654 563.783 586.92 561.705 584.995 559.776C581.252 555.981 576.6 553.118 571.504 551.019C566.407 548.899 560.951 547.521 555.368 546.567C549.785 545.613 544.097 545.104 538.366 544.849C526.904 544.362 515.337 544.913 503.811 545.888C480.719 547.86 457.71 551.57 434.575 554.899C423.008 556.532 411.377 558.143 399.577 558.97C393.677 559.352 387.713 559.627 381.644 558.949C380.121 558.779 378.62 558.567 377.097 558.228C375.575 557.889 374.052 557.486 372.572 556.913C371.07 556.341 369.611 555.641 368.236 554.645C367.539 554.178 366.904 553.585 366.312 552.97C365.72 552.334 365.212 551.634 364.789 550.871C364.388 550.15 364.641 549.238 365.36 548.835C365.953 548.496 366.693 548.623 367.137 549.09L367.264 549.111Z" fill="#000072"/>
<path d="M399.408 595.226H340.661C283.817 595.226 247.211 575.571 234.185 524.05L220.862 474.861L330.341 510.184C337.996 509.039 345.398 508.784 352.461 509.42C368.448 510.862 382.744 516.926 394.671 527.951C404.631 537.153 412.963 549.832 419.244 566.179C427.935 588.823 399.408 595.226 399.408 595.226Z" fill="#8E8FB3"/>
<path d="M399.408 595.226H340.661C283.817 595.226 247.211 575.571 234.185 524.05L220.862 474.861L330.341 510.184C337.996 509.039 345.398 508.784 352.461 509.42C340.767 512.007 322.495 516.799 310.843 523.414C282.802 539.358 289.802 566.03 316.342 577.628C345.567 590.413 378.113 584.688 392.323 535.033C393.085 532.361 393.867 530.008 394.671 527.951C404.631 537.153 412.963 549.832 419.244 566.179C427.935 588.823 399.408 595.226 399.408 595.226Z" fill="#7A7A7A"/>
<path d="M399.746 598.195H340.682C278.742 598.195 243.976 574.851 231.309 524.75C230.907 523.16 231.859 521.527 233.466 521.124C235.052 520.722 236.68 521.676 237.082 523.287C248.988 570.314 281.893 592.216 340.682 592.216H399.048C400.994 591.707 412.181 588.526 416.347 580.681C418.419 576.801 418.462 572.391 416.453 567.218C400.55 525.874 370.923 507.152 330.764 513.11C329.136 513.343 327.634 512.22 327.38 510.587C327.148 508.954 328.269 507.449 329.897 507.195C350.748 504.099 369.189 507.301 384.711 516.693C400.888 526.467 413.429 542.751 422.014 565.077C424.637 571.883 424.489 578.095 421.591 583.523C415.734 594.484 400.719 597.961 400.085 598.11L399.746 598.195Z" fill="#000072"/>
<path d="M447.771 554.92C447.623 555.535 447.475 556.15 447.306 556.786C440.708 580.808 432.228 595.226 406.957 595.226H376.738C376.738 595.226 379.635 591.091 382.278 583.798C385.725 574.32 391.181 540.927 391.181 540.927C391.181 540.927 391.731 538.913 392.937 535.945C395.707 529.202 401.924 517.52 412.963 513.216C431.784 505.859 454.919 524.835 447.771 554.92Z" fill="white"/>
<path d="M447.771 554.921C447.623 555.536 447.475 556.151 447.306 556.787C440.708 580.809 432.228 595.226 406.957 595.226H376.738C376.738 595.226 379.635 591.092 382.278 583.798C385.725 574.321 391.181 540.927 391.181 540.927C391.181 540.927 391.731 538.913 392.937 535.945C393.867 544.277 398.456 572.222 418.334 574.957C434.406 577.162 443.013 567.07 447.771 554.921Z" fill="#E8E8E8"/>
<path d="M434.153 565.288C432.08 575.105 424.467 581.784 417.129 580.236C409.791 578.688 405.54 569.465 407.592 559.67C409.664 549.853 417.277 543.175 424.615 544.722C431.953 546.27 436.225 555.493 434.153 565.288Z" fill="#F27E80"/>
<path d="M430.283 574.109C426.878 578.731 421.951 581.275 417.129 580.257C412.646 579.303 409.326 575.508 407.888 570.462C410.785 572.773 414.232 574.406 418.313 574.978C422.881 575.593 426.836 575.211 430.283 574.109Z" fill="#FF5C64"/>
<path d="M415.987 539.74C415.226 543.387 412.392 545.867 409.664 545.295C406.936 544.723 405.35 541.288 406.112 537.641C406.873 533.994 409.707 531.514 412.435 532.086C415.184 532.68 416.77 536.114 415.987 539.74Z" fill="#F27E80"/>
<path d="M434.258 534.969C433.264 539.655 429.627 542.856 426.117 542.114C422.606 541.372 420.576 536.962 421.549 532.276C422.543 527.591 426.18 524.389 429.691 525.131C433.201 525.873 435.252 530.262 434.258 534.969Z" fill="#F27E80"/>
<path d="M441.808 547.373C441.216 550.129 439.08 552.016 437.029 551.571C434.956 551.126 433.772 548.539 434.343 545.783C434.935 543.026 437.071 541.139 439.143 541.585C441.174 542.009 442.379 544.595 441.808 547.373Z" fill="#F27E80"/>
<path d="M389.722 540.524C390.758 531.874 394.924 523.987 401.078 517.541C404.166 514.34 407.993 511.647 412.371 510.036C414.549 509.187 416.854 508.742 419.18 508.551C421.506 508.361 423.854 508.445 426.117 508.891C428.4 509.315 430.6 510.014 432.693 510.947C434.808 511.88 436.732 513.11 438.551 514.488C440.37 515.866 441.998 517.456 443.478 519.174C444.24 520.022 444.874 520.955 445.551 521.845C446.164 522.799 446.799 523.732 447.306 524.729C449.505 528.651 450.88 532.976 451.578 537.365C452.255 541.754 452.191 546.207 451.599 550.511C451.324 552.673 450.859 554.793 450.33 556.892C449.801 558.97 449.209 560.921 448.596 562.935C447.348 566.942 445.953 570.928 444.155 574.83C442.379 578.731 440.137 582.547 437.261 585.939C434.385 589.353 430.727 592.237 426.688 594.187C424.657 595.162 422.564 595.947 420.428 596.541C418.292 597.113 416.135 597.516 413.978 597.77C411.821 598.004 409.664 598.152 407.528 598.152H401.353H376.78C375.131 598.152 373.798 596.816 373.798 595.162C373.798 593.509 375.131 592.173 376.78 592.173H401.353H407.465C409.431 592.173 411.356 592.025 413.28 591.834C415.183 591.6 417.066 591.24 418.884 590.752C420.703 590.265 422.458 589.607 424.108 588.802C427.428 587.19 430.367 584.901 432.778 582.038C435.189 579.176 437.177 575.847 438.805 572.285C440.454 568.723 441.787 564.97 442.971 561.133C443.563 559.225 444.134 557.253 444.642 555.345C445.128 553.458 445.53 551.571 445.783 549.662C446.291 545.846 446.312 541.987 445.72 538.256C445.086 534.545 443.944 530.92 442.062 527.697C441.639 526.87 441.089 526.128 440.581 525.344C440.031 524.601 439.482 523.859 438.868 523.181C437.663 521.803 436.331 520.509 434.85 519.449C431.932 517.265 428.57 515.739 425.059 515.103C421.549 514.488 417.933 514.764 414.591 515.993C411.229 517.181 408.163 519.28 405.498 521.888C402.791 524.495 400.571 527.655 398.519 530.962C396.468 534.27 394.544 537.789 392.662 541.288L392.598 541.394C392.196 542.114 391.287 542.39 390.568 542.008C389.955 541.733 389.659 541.118 389.722 540.524Z" fill="#000072"/>
<g opacity="0.5">
<path d="M332.71 519.025C338.652 515.803 365.023 514.255 372.339 521.527C382.088 531.217 367.095 527.782 362.273 526.043C345.123 519.874 324.758 523.33 332.71 519.025Z" fill="white"/>
</g>
<path d="M365.826 463.454C352.884 475.603 334.782 483.49 310.991 481.476C225.704 474.246 237.06 418.336 237.06 418.336C237.06 418.336 262.099 431.906 290.753 431.248C295.892 431.142 301.158 430.549 306.423 429.361C337.383 422.301 348.823 400.335 352.905 391.028C356.986 381.72 371.324 371.564 384.499 384.201C397.081 396.265 392.196 438.69 365.826 463.454Z" fill="#8E8FB3"/>
<path d="M365.826 463.454C352.884 475.603 334.782 483.49 310.991 481.476C225.704 474.246 237.06 418.336 237.06 418.336C237.06 418.336 262.099 431.905 290.753 431.248C322.009 446.938 345.905 469.2 365.826 463.454Z" fill="#7A7A7A"/>
<path d="M318.477 484.783C315.982 484.783 313.402 484.677 310.737 484.444C278.636 481.73 256.072 471.935 243.658 455.312C230.314 437.46 233.973 418.527 234.142 417.721L234.946 413.777L238.477 415.685C238.816 415.876 272.799 433.941 305.768 426.435C326.661 421.686 341.612 409.367 350.198 389.819C352.757 383.988 359.101 377.352 367.454 375.677C372.17 374.744 379.318 375.083 386.55 382.038C396.574 391.663 396.532 416.767 386.444 439.178C380.1 453.319 361.131 484.783 318.477 484.783ZM239.598 422.894C239.344 428.894 240.169 440.725 248.501 451.835C259.857 466.974 280.962 475.942 311.245 478.508C355.569 482.26 374.813 450.542 381.031 436.739C391.076 414.435 389.574 393.211 382.447 386.363C378.112 382.207 373.46 380.575 368.617 381.55C362.379 382.801 357.515 387.974 355.633 392.236C346.37 413.311 329.579 427.156 307.079 432.266C300.861 433.686 294.623 434.259 288.617 434.259C266.836 434.28 247.634 426.605 239.598 422.894Z" fill="#000072"/>
<path d="M284.959 595.226C284.959 595.226 198.086 594.781 124.938 595.226C82.0092 595.48 57.3304 597.558 51.6629 593.806C36.3312 583.692 65.9161 562.85 65.9161 562.85C21.9722 489.003 41.4911 402.498 41.4911 402.498C27.1744 387.847 22.1625 369.656 25.5672 360.136C26.0536 358.779 26.7092 357.613 27.5128 356.659C31.6999 351.74 37.8326 350.298 45.213 350.977C59.572 352.291 78.6679 361.662 97.3409 369.041C125.594 380.214 143.315 385.43 143.315 385.43L179.794 405.996L240.825 440.407L244.991 455.016L284.959 595.226Z" fill="#62C84F"/>
<path d="M191.213 440.747L125.318 457.942C125.318 457.942 119.08 448.676 94.9087 414.138C78.0121 389.989 56.5899 364.27 45.2339 350.977C59.5929 352.291 78.6888 361.662 97.3618 369.041C125.614 380.214 143.336 385.43 143.336 385.43L179.815 405.996L191.213 440.747Z" fill="#4BA835"/>
<path d="M284.959 595.226C284.959 595.226 198.086 594.781 124.938 595.226C82.0092 595.48 57.3304 597.558 51.6629 593.805C36.3312 583.692 65.9161 562.85 65.9161 562.85C21.9722 489.003 41.4911 402.498 41.4911 402.498C27.1744 387.847 22.1625 369.656 25.5672 360.136C27.9146 370.885 35.6333 389.84 60.9465 398.427C60.9465 398.427 49.6539 537.853 133.037 546.567C186.371 552.143 140.375 451.623 140.375 451.623L245.012 455.016L284.959 595.226Z" fill="#4BA835"/>
<path d="M71.5201 599C59.3393 599 53.1643 598.385 50.0133 596.307C45.3398 593.233 44.3036 589.353 44.2613 586.66C44.1133 576.886 56.6113 566.2 61.9827 562.066C40.0953 524.008 34.8085 483.003 34.2375 455.058C33.7088 428.555 37.1347 409.028 38.2555 403.452C21.4011 385.43 17.8061 363.507 25.2711 354.75C37.1558 340.799 60.6927 350.616 85.6041 361.026C89.8124 362.786 94.1687 364.61 98.4405 366.284C126.228 377.267 143.992 382.525 144.161 382.589L144.478 382.695L144.774 382.865L243.362 438.436L243.701 439.623L288.892 598.258L284.938 598.237C284.071 598.237 197.24 597.791 124.938 598.237C112.609 598.3 101.909 598.534 92.4769 598.724C84.0181 598.873 77.1452 599 71.5201 599ZM42.0197 353.796C36.9021 353.796 32.6938 355.196 29.7966 358.609C24.7847 364.504 27.7453 384.179 43.6269 400.42L44.7688 401.586L44.4093 403.176C44.219 404.024 25.6729 489.427 68.4749 561.345L69.8917 563.719L67.629 565.31C60.8407 570.101 50.1402 580.088 50.2248 586.575C50.246 587.763 50.5843 589.544 53.2912 591.325C56.5478 593.487 72.3659 593.148 92.3712 592.745C101.824 592.555 112.546 592.321 124.917 592.258C188.422 591.876 263.156 592.152 281.004 592.236L238.329 442.4L142.152 388.186C139.572 387.402 122.231 382.08 96.2623 371.818C91.9483 370.101 87.5496 368.277 83.3202 366.518C67.777 360.03 52.8471 353.796 42.0197 353.796Z" fill="#000072"/>
<path d="M343.177 569.826L333.471 595.226H249.686C147.1 595.226 119.228 485.801 115.316 419.057C113.942 395.501 115.528 377.288 117.875 371.034L237.357 400.992C235.686 445.135 320.169 433.241 350.304 494.007C351.806 497.06 353.032 500.155 353.984 503.272C361.491 527.548 353.074 553.182 343.177 569.826Z" fill="#8E8FB3"/>
<path d="M354.026 503.272C281.533 541.711 240.783 465.278 187.555 449.864C147.312 438.202 126.292 427.177 115.337 419.036C115.295 418.23 115.253 417.424 115.21 416.64C114.069 394.25 115.633 377.055 117.896 371.034L237.378 400.992C236.786 416.703 247.106 425.333 262.014 432.647C288.977 445.877 330.912 454.888 350.325 494.028C351.848 497.06 353.074 500.155 354.026 503.272Z" fill="white"/>
<path d="M262.014 432.648C245.435 438.711 224.943 442.295 202.781 442.295C165.096 442.295 132.276 431.948 115.189 416.661C114.047 394.272 115.612 377.077 117.875 371.055L237.356 401.014C236.785 416.725 247.126 425.333 262.014 432.648Z" fill="#E8E8E8"/>
<path d="M341.908 569.062C346.307 560.581 349.712 551.634 351.805 542.432C352.82 537.831 353.582 533.188 353.835 528.502C354.153 523.838 354.005 519.173 353.412 514.573C353.116 512.283 352.693 509.993 352.144 507.767C351.573 505.54 350.938 503.314 350.113 501.152C349.733 500.07 349.246 499.01 348.823 497.95C348.337 496.911 347.872 495.872 347.322 494.833C346.772 493.794 346.265 492.755 345.651 491.759L344.784 490.232L343.854 488.748C341.38 484.783 338.567 481.073 335.437 477.617C333.894 475.879 332.223 474.246 330.531 472.635C328.797 471.066 327.063 469.497 325.223 468.055C317.906 462.203 309.68 457.454 301.158 453.277C292.614 449.079 283.69 445.538 274.724 441.828C265.778 438.075 256.622 434.301 248.29 428.216C244.187 425.163 240.296 421.325 237.737 416.491C236.447 414.095 235.538 411.487 235.009 408.837C234.48 406.187 234.311 403.494 234.438 400.865L236.68 403.876L117.198 373.917L120.708 372.072C120.201 373.472 119.82 375.21 119.503 376.928C119.207 378.666 118.953 380.447 118.763 382.228C118.361 385.812 118.128 389.458 118.002 393.105C117.727 400.399 117.811 407.756 118.15 415.071C118.847 429.721 120.539 444.372 123.225 458.79C125.932 473.207 129.654 487.455 134.666 501.194C139.677 514.912 146 528.184 154.058 540.27C162.093 552.334 171.927 563.232 183.579 571.712C195.189 580.236 208.554 586.236 222.617 589.332C229.638 590.901 236.828 591.791 244.06 592.088L246.767 592.173L249.474 592.194H255.014H266.096H310.441C312.091 592.194 313.423 593.53 313.423 595.183C313.423 596.837 312.091 598.173 310.441 598.173H266.096H255.014H249.474L246.64 598.13L243.806 598.046C236.257 597.728 228.728 596.795 221.327 595.141C213.925 593.487 206.672 591.113 199.736 587.996C192.799 584.879 186.201 581.02 180.069 576.525C167.761 567.557 157.462 556.108 149.109 543.577C140.735 531.004 134.221 517.329 129.083 503.229C123.944 489.13 120.159 474.585 117.388 459.871C114.639 445.157 112.905 430.273 112.207 415.325C111.869 407.841 111.784 400.356 112.059 392.851C112.207 389.098 112.44 385.324 112.863 381.55C113.074 379.663 113.328 377.755 113.666 375.846C114.026 373.917 114.385 372.03 115.168 369.931L116.077 367.429L118.678 368.086L238.16 398.045L240.486 398.596L240.423 401.035C240.296 405.466 241.184 409.749 243.235 413.48C245.266 417.212 248.459 420.371 252.117 423.043C255.797 425.714 259.921 427.94 264.171 429.976C268.422 432.011 272.841 433.898 277.282 435.743C286.185 439.411 295.258 443.015 304.097 447.319C308.517 449.482 312.894 451.793 317.103 454.379C321.311 456.987 325.435 459.807 329.305 462.988C331.25 464.535 333.111 466.232 334.951 467.928C336.748 469.666 338.525 471.447 340.174 473.334C343.516 477.066 346.54 481.137 349.162 485.42L350.135 487.031L351.065 488.663C351.699 489.745 352.249 490.89 352.82 491.992C353.391 493.116 353.92 494.282 354.427 495.448C354.893 496.635 355.421 497.78 355.823 498.989C356.711 501.364 357.409 503.823 358.001 506.282C358.572 508.763 359.016 511.265 359.334 513.767C359.905 518.792 359.947 523.859 359.503 528.863C359.27 531.365 358.932 533.845 358.467 536.305C358.022 538.764 357.452 541.203 356.775 543.598C354.11 553.203 349.965 562.299 344.488 570.504C344.023 571.182 343.114 571.373 342.416 570.907C341.76 570.568 341.549 569.741 341.908 569.062Z" fill="#000072"/>
<path d="M317.695 325.386C318.668 324.198 319.641 323.181 320.698 322.163C321.206 321.654 321.734 321.145 322.284 320.679C322.813 320.191 323.363 319.703 323.912 319.258C325.033 318.347 326.133 317.414 327.317 316.587C328.48 315.739 329.643 314.869 330.87 314.127C332.075 313.343 333.281 312.558 334.549 311.859C335.818 311.159 337.045 310.396 338.335 309.802C339.625 309.166 340.915 308.509 342.226 307.915L346.202 306.24C347.513 305.668 348.908 305.244 350.262 304.777L352.292 304.077C352.969 303.844 353.666 303.675 354.364 303.484L358.509 302.339C359.905 302.021 361.322 301.766 362.718 301.47L364.832 301.045C365.53 300.897 366.249 300.855 366.947 300.749C368.364 300.558 369.781 300.367 371.198 300.219L372.255 300.091L373.333 300.028L375.469 299.922C376.886 299.837 378.324 299.773 379.741 299.731C380.566 299.689 381.264 300.346 381.285 301.151C381.327 301.936 380.756 302.593 379.995 302.699L379.889 302.72C378.514 302.911 377.14 303.081 375.765 303.251L373.714 303.505L372.678 303.632L371.663 303.823C368.956 304.374 366.207 304.713 363.542 305.456L359.524 306.431L355.57 307.639C354.914 307.851 354.237 308.021 353.603 308.254L351.679 308.975L349.754 309.675C349.099 309.908 348.464 310.12 347.83 310.417C342.733 312.452 337.848 315.018 333.154 317.816C330.785 319.216 328.522 320.764 326.281 322.354C325.71 322.757 325.202 323.181 324.631 323.583C324.082 323.986 323.532 324.41 323.003 324.834C322.474 325.258 321.925 325.682 321.417 326.149C320.909 326.573 320.381 327.039 319.916 327.463L319.852 327.527C319.26 328.078 318.308 328.057 317.759 327.442C317.251 326.785 317.23 325.937 317.695 325.386Z" fill="#000072"/>
<path d="M319.936 346.439C324.525 344.001 329.283 342.305 334.211 341.054C339.138 339.803 344.234 339.082 349.352 338.934C351.911 338.828 354.491 338.934 357.05 339.188C358.34 339.294 359.608 339.485 360.877 339.676C362.146 339.93 363.415 340.121 364.663 340.46C369.675 341.648 374.496 343.683 378.831 346.418C379.529 346.864 379.741 347.775 379.297 348.475C378.895 349.132 378.049 349.365 377.372 349.026L377.33 349.005C373.016 346.864 368.469 345.273 363.774 344.404C362.611 344.15 361.427 344.001 360.243 343.81C359.059 343.704 357.874 343.535 356.669 343.471C354.279 343.28 351.89 343.28 349.479 343.365C344.678 343.535 339.878 344.256 335.141 345.231C332.773 345.719 330.425 346.312 328.078 346.97C326.915 347.309 325.731 347.627 324.589 348.008C323.447 348.369 322.262 348.772 321.184 349.153L321.099 349.175C320.317 349.45 319.471 349.047 319.196 348.263C318.985 347.563 319.302 346.8 319.936 346.439Z" fill="#000072"/>
<path d="M306.846 261.821L257.954 236.103L201.47 206.42C222.575 173.153 269.225 131.936 287.497 138.467C290.965 139.696 294.243 143.492 297.182 149.216C308.242 170.694 314.459 219.332 306.846 261.821Z" fill="#8E8FB3"/>
<path d="M306.846 261.821L257.954 236.103C263.304 206.441 277.896 138.17 297.203 149.195C308.242 170.694 314.459 219.332 306.846 261.821Z" fill="#7A7A7A"/>
<g opacity="0.5">
<path d="M298.43 151.76C296.252 148.623 293.925 146.523 291.515 145.654C273.899 139.378 230.061 177.309 207.962 209.812L201.47 206.42C222.575 173.153 269.225 131.936 287.497 138.467C291.451 139.866 295.194 144.615 298.43 151.76Z" fill="white"/>
</g>
<path d="M306.846 264.79C306.677 264.79 306.487 264.768 306.318 264.747C304.71 264.45 303.632 262.903 303.907 261.291C313.804 206.144 300.291 146.184 286.524 141.287C279.291 138.721 264.7 145.654 247.444 159.839C230.822 173.514 214.179 191.981 204.007 208.031C203.119 209.431 201.279 209.833 199.905 208.943C198.509 208.053 198.107 206.208 198.995 204.83C219.572 172.39 267.28 128.099 288.533 135.668C307.861 142.559 319.175 210.046 309.786 262.351C309.511 263.772 308.242 264.79 306.846 264.79Z" fill="#000072"/>
<path d="M295.469 222.321C284.367 212.314 275.442 205.763 267.851 201.056C261.189 196.942 255.585 194.25 250.425 191.939C250.446 186.235 278.403 148.813 285.783 157.252C287.983 159.775 290.013 163.888 291.726 168.934C297.055 184.539 299.508 208.964 295.469 222.321Z" fill="#F27E80"/>
<path d="M291.705 168.934C288.871 166.581 284.769 163.931 281.808 165.351C276.775 167.768 269.246 187.847 267.83 201.056C261.168 196.942 255.564 194.25 250.404 191.939C250.425 186.235 278.382 148.813 285.762 157.252C287.962 159.775 289.992 163.888 291.705 168.934Z" fill="#FF5C64"/>
<path d="M296.949 227.664L293.481 224.527C273.138 206.208 260.449 199.72 249.199 194.653L247.444 193.868V191.939C247.465 185.26 268.02 158.036 279.44 153.754C284.177 151.973 286.841 153.966 288.004 155.301C298.07 166.835 303.865 204.893 298.303 223.191L296.949 227.664ZM253.999 190.285C264.383 195.098 276.225 201.543 293.693 216.767C296.844 198.278 290.88 167.62 283.521 159.224C283.415 159.118 283.162 158.821 281.956 159.181C273.497 161.747 257.362 183.076 253.999 190.285Z" fill="#000072"/>
<path d="M179.984 202.625L103.431 242.209L70.3567 259.319C61.3903 214.795 68.3478 163.295 80.7612 143.555C83.32 139.506 86.0903 136.792 89.0297 135.753C108.083 128.968 157.462 169.613 179.984 202.625Z" fill="#8E8FB3"/>
<path d="M103.431 242.188L70.3567 259.298C61.3903 214.774 68.3478 163.273 80.7612 143.534C87.8244 138.637 97.5521 136.516 99.3284 159.499C101.189 183.267 102.67 220.668 103.431 242.188Z" fill="#7A7A7A"/>
<g opacity="0.5">
<path d="M179.984 202.625L175.163 205.127C151.203 173.345 101.761 137.237 88.755 139.951C78.1814 142.156 70.082 174.723 66.7407 201.671C68.8343 167.768 77.9065 139.654 89.0087 135.732C108.084 128.968 157.462 169.613 179.984 202.625Z" fill="white"/>
</g>
<path d="M70.357 262.266C68.9613 262.266 67.7347 261.291 67.4387 259.87C56.9285 207.671 67.8828 140.014 88.0149 132.911C101.232 128.226 123.14 142.792 135.004 151.887C153.064 165.711 171.229 184.518 182.437 200.928C183.368 202.285 183.008 204.151 181.655 205.084C180.301 206.017 178.44 205.656 177.51 204.299C155.284 171.712 107.047 132.487 90.0028 138.53C75.6438 143.619 62.1942 203.706 73.2753 258.704C73.5925 260.316 72.5563 261.885 70.9491 262.224C70.7376 262.245 70.5473 262.266 70.357 262.266Z" fill="#000072"/>
<g opacity="0.7">
<path d="M143.823 174.977C142.448 175.549 143.061 177.627 144.521 177.33C154.544 175.274 164.23 174.171 173.006 174.107C183.093 174.044 196.247 174.701 211.177 177.012C211.134 173.281 210.859 169.591 210.331 165.966C197.452 164.821 186.223 165.203 177.891 166.008C167.55 166.984 155.644 170.143 143.823 174.977Z" fill="white"/>
</g>
<path d="M140.375 176.44C153.317 170.779 166.534 167.068 177.912 166.008C196.289 164.27 228.898 164.461 262.078 178.878C325.752 206.526 328.543 280.861 331.694 302.275C332.519 307.872 348.401 329.075 341.464 357.104C335.881 379.705 309.722 401.756 267.238 415.41C240.338 424.039 212.043 427.41 183.854 425.926L177.658 425.608C96.3045 415.262 63.4629 382.674 54.0524 359.394C39.2493 322.778 60.1005 272.316 74.3537 241.976" fill="#8E8FB3"/>
<path d="M183.833 425.905L177.658 425.587C96.3048 415.24 63.4632 382.652 54.0526 359.372C53.7989 358.715 53.5451 358.079 53.3125 357.422C53.1645 357.04 53.0587 356.659 52.9318 356.298C52.5935 355.323 52.2763 354.369 52.0014 353.372C51.8533 352.821 51.7053 352.27 51.5361 351.718C51.515 351.676 51.515 351.634 51.515 351.591C51.4938 351.506 51.4727 351.4 51.4304 351.316C51.3247 350.87 51.2189 350.425 51.1132 349.98C50.9652 349.45 50.8594 348.899 50.7537 348.369C50.6479 347.881 50.5422 347.372 50.4576 346.884C50.3307 346.269 50.225 345.676 50.1193 345.061C49.9501 344.001 49.7809 342.898 49.654 341.817C49.6117 341.457 49.5694 341.117 49.5483 340.757C49.4848 340.375 49.4637 340.015 49.4214 339.612C49.3791 339.167 49.3368 338.7 49.2945 338.234C47.9622 321.59 51.3458 303.653 56.5269 286.776C61.6656 270.005 68.5808 254.294 74.3963 241.912C74.3963 241.912 82.9186 226.032 102.712 205.784C119.609 188.525 135.11 179.323 139.318 176.991C140.037 176.588 140.439 176.397 140.439 176.397C153.36 170.736 166.598 167.026 177.997 165.966C196.373 164.227 228.982 164.418 262.162 178.836C288.131 190.115 303.97 209.155 313.846 229.191C328.184 258.301 329.939 289.554 331.8 302.232C332.308 305.625 338.292 314.699 341.443 327.548C341.697 328.523 341.909 329.541 342.099 330.559C342.184 331.046 342.289 331.534 342.374 332.043C342.458 332.573 342.564 333.082 342.628 333.612C342.628 333.633 342.649 333.633 342.628 333.654C342.691 334.099 342.754 334.545 342.818 335.011C342.839 335.266 342.881 335.52 342.903 335.774C343.008 336.665 343.093 337.555 343.156 338.467C343.199 339.018 343.22 339.57 343.262 340.142C343.283 340.587 343.304 341.054 343.304 341.52C343.304 341.732 343.325 341.944 343.325 342.156C343.325 342.623 343.325 343.089 343.325 343.577C343.325 344.17 343.304 344.743 343.262 345.337C343.22 346.503 343.135 347.711 343.008 348.92C342.945 349.513 342.86 350.107 342.797 350.743C342.733 351.273 342.649 351.824 342.564 352.355C342.543 352.503 342.522 352.673 342.48 352.821C342.395 353.351 342.289 353.902 342.184 354.432C342.014 355.302 341.824 356.15 341.613 357.04C336.009 379.642 309.871 401.692 267.386 415.325C240.339 424.018 212.044 427.389 183.833 425.905Z" fill="#8E8FB3"/>
<path d="M51.3879 351.316C51.2822 350.871 51.1764 350.425 51.0707 349.98C50.9227 349.45 50.8169 348.899 50.7112 348.369C50.6055 347.881 50.4997 347.372 50.4151 346.885C50.2883 346.27 50.1825 345.676 50.0768 345.061C49.9076 344.001 49.7384 342.899 49.6115 341.817C49.5693 341.457 49.527 341.118 49.5058 340.757C49.4424 340.376 49.4212 340.015 49.3789 339.612C49.3366 339.167 49.2943 338.701 49.252 338.234C47.9198 321.59 51.3033 303.653 56.4844 286.776C55.2367 305.54 53.6718 331.661 61.4751 346.227C66.1275 354.92 60.0794 354.835 51.3879 351.316Z" fill="#686868"/>
<path d="M319.091 388.865C306.614 399.106 289.358 408.201 267.936 415.156C240.825 423.955 212.276 427.389 183.833 425.905L177.658 425.587C96.3047 415.24 63.4631 382.653 54.0526 359.373C53.7988 358.715 53.545 358.079 53.3124 357.422C53.1644 357.04 53.0586 356.659 52.9318 356.298C52.5934 355.323 52.2762 354.369 52.0013 353.372C51.8532 352.821 51.6841 352.27 51.536 351.719C51.5149 351.676 51.5149 351.634 51.5149 351.591C51.388 351.04 51.24 350.531 51.1131 349.98C50.9651 349.45 50.8593 348.899 50.7536 348.369C50.6479 347.881 50.5421 347.372 50.4575 346.885C50.3306 346.27 50.2249 345.676 50.1192 345.061C49.95 344.001 49.7808 342.899 49.6539 341.817C49.6116 341.457 49.5693 341.118 49.5482 340.757C49.4848 340.375 49.4636 340.015 49.4213 339.612C49.379 339.167 49.3367 338.7 49.2944 338.234C52.9106 340.778 56.992 343.513 61.5175 346.227C80.8884 357.973 107.999 369.889 138.367 369.401C184.404 368.68 204.008 340.672 212.614 332.488C217.859 327.527 239.746 324.94 246.344 334.439C260.386 354.645 325.223 372.2 341.359 327.569C341.612 328.545 341.824 329.562 342.014 330.58C342.099 331.068 342.205 331.555 342.289 332.064C342.374 332.594 342.48 333.103 342.543 333.633C342.543 333.654 342.564 333.654 342.543 333.676C342.606 334.121 342.67 334.566 342.733 335.033C342.754 335.287 342.797 335.541 342.818 335.796C342.924 336.686 342.987 337.577 343.072 338.488C343.114 339.04 343.135 339.591 343.177 340.163C343.199 340.609 343.22 341.075 343.22 341.542C343.22 341.754 343.241 341.966 343.241 342.178C343.241 342.644 343.241 343.111 343.241 343.598C343.241 344.192 343.22 344.764 343.177 345.358C343.135 346.524 343.05 347.733 342.924 348.941C342.86 349.535 342.776 350.128 342.712 350.765C342.649 351.295 342.564 351.846 342.479 352.376C342.458 352.524 342.437 352.694 342.395 352.842C342.31 353.372 342.205 353.924 342.099 354.454C341.93 355.323 341.739 356.171 341.528 357.062C338.736 368.129 331.123 379.027 319.091 388.865Z" fill="white"/>
<path d="M319.091 388.865C306.614 399.105 289.358 408.201 267.936 415.156C240.825 423.954 212.276 427.389 183.833 425.905L177.658 425.587C96.3047 415.24 63.4631 382.653 54.0526 359.372C53.7988 358.715 53.545 358.079 53.3124 357.422C53.1644 357.04 53.0586 356.659 52.9318 356.298C52.5934 355.323 52.2762 354.369 52.0013 353.372C51.8532 352.821 51.6841 352.27 51.536 351.719C51.5149 351.676 51.5149 351.634 51.5149 351.591C51.388 351.04 51.24 350.531 51.1131 349.98C50.9651 349.45 50.8593 348.899 50.7536 348.369C50.6479 347.881 50.5421 347.372 50.4575 346.884C50.3306 346.27 50.2249 345.676 50.1192 345.061C49.95 344.001 49.7808 342.898 49.6539 341.817C49.6116 341.457 49.5693 341.117 49.5482 340.757C49.4848 340.375 49.4636 340.015 49.4213 339.612C49.379 339.167 49.3367 338.7 49.2944 338.234C52.9106 340.778 56.992 343.513 61.5175 346.227C74.0578 363.973 101.211 386.299 152.958 399.275C228.75 418.336 283.669 408.477 319.091 388.865Z" fill="#E8E8E8"/>
<path d="M124.853 415.558C107.195 411.572 90.4891 403.303 76.0033 391.981C72.3659 389.183 68.9824 385.981 65.7257 382.695C62.5748 379.302 59.5719 375.719 56.9708 371.797C54.4119 367.874 52.1492 363.676 50.4574 359.245C48.7656 354.835 47.5602 350.277 46.7778 345.655C45.2552 336.41 45.3821 327.081 46.376 317.943C47.4334 308.805 49.3366 299.858 51.8743 291.122C54.3696 282.387 57.436 273.843 60.7984 265.447C64.1185 257.051 68.0096 248.866 72.9581 241.276C73.4021 240.576 74.3326 240.386 75.0305 240.831C75.6015 241.212 75.8341 241.912 75.6438 242.527C72.9792 251.156 69.6168 259.362 66.3813 267.63C63.188 275.899 60.312 284.295 58.007 292.819C56.8439 297.08 55.8077 301.363 54.9618 305.667C54.0947 309.971 53.3969 314.296 52.9316 318.643C52.0012 327.315 52.0012 336.05 53.3757 344.531C54.0736 348.75 55.1521 352.906 56.6324 356.871C58.1127 360.814 60.0794 364.567 62.4056 368.15L64.2243 370.779C64.8375 371.67 65.5354 372.475 66.1909 373.323L67.1849 374.596C67.5232 375.02 67.8827 375.401 68.2422 375.804L70.3781 378.221C73.381 381.317 76.4896 384.349 79.8943 387.041C86.6192 392.533 94.0841 397.176 101.845 401.247C109.606 405.339 117.663 408.922 125.742 412.696H125.763C126.503 413.035 126.841 413.926 126.482 414.689C126.228 415.389 125.53 415.707 124.853 415.558Z" fill="#000072"/>
<path d="M139.783 175.062C148.623 170.652 157.97 167.196 167.698 164.991C170.13 164.461 172.583 163.973 175.078 163.613C177.595 163.274 180.048 163.04 182.522 162.828C187.47 162.425 192.419 162.256 197.388 162.341C202.337 162.404 207.306 162.616 212.234 163.125C214.708 163.316 217.161 163.655 219.635 163.973C220.862 164.122 222.088 164.334 223.315 164.524C224.541 164.736 225.768 164.885 226.995 165.118C236.765 166.899 246.408 169.465 255.734 172.921C274.512 179.493 292.001 191.451 304.161 207.565L305.324 209.049L306.423 210.597L308.602 213.671C309.934 215.791 311.372 217.869 312.577 220.074C315.157 224.4 317.335 228.916 319.387 233.495C323.405 242.676 326.429 252.217 328.713 261.906C331.018 271.596 332.498 281.412 333.682 291.186L334.549 298.459L334.782 300.24L334.909 301.13L334.972 301.576L334.993 301.788L335.036 301.894C335.078 302.042 335.12 302.19 335.163 302.36C335.205 302.53 335.332 302.827 335.416 303.06L335.691 303.781L336.051 304.586C337.002 306.707 338.102 308.975 339.096 311.265C339.603 312.41 340.111 313.555 340.555 314.742L341.253 316.502L341.909 318.283C343.643 323.053 344.954 328.015 345.736 333.103C346.54 338.192 346.582 343.386 346.159 348.517L345.715 352.355L344.954 356.15C344.827 356.786 344.7 357.401 344.552 358.037L343.981 359.924L343.41 361.811C343.198 362.426 342.924 363.02 342.691 363.634C340.745 368.49 338.144 373.027 334.993 377.055C334.274 378.116 333.386 379.048 332.583 380.045L331.356 381.508C330.954 381.996 330.489 382.441 330.045 382.907C329.157 383.819 328.29 384.752 327.401 385.642L324.61 388.208C323.701 389.077 322.707 389.862 321.734 390.667C320.761 391.452 319.81 392.3 318.795 393.042C316.764 394.526 314.798 396.074 312.683 397.41C304.372 402.986 295.511 407.608 286.355 411.424C268.062 419.057 248.544 423.637 228.94 424.994C228.115 425.057 227.417 424.421 227.354 423.616C227.312 422.852 227.84 422.174 228.581 422.047H228.602C238.16 420.393 247.634 418.379 256.897 415.728C261.528 414.414 266.117 412.93 270.664 411.339C272.926 410.534 275.189 409.686 277.409 408.795L284.071 406.039C292.868 402.18 301.39 397.728 309.257 392.363C311.266 391.07 313.106 389.586 315.03 388.187C315.982 387.466 316.849 386.681 317.78 385.939C318.689 385.176 319.619 384.434 320.444 383.607L323.024 381.19C323.849 380.363 324.652 379.494 325.456 378.646C325.858 378.222 326.281 377.819 326.661 377.352L327.782 375.995C328.522 375.084 329.326 374.236 329.96 373.26C332.794 369.571 335.078 365.521 336.727 361.281C336.939 360.751 337.172 360.221 337.341 359.691L337.827 358.058L338.313 356.426C338.462 355.874 338.546 355.302 338.652 354.73L339.329 351.316L339.709 347.86C340.069 343.259 340.005 338.616 339.265 334.015C338.546 329.414 337.341 324.898 335.734 320.467L335.12 318.813L334.444 317.159C334.021 316.057 333.534 314.975 333.048 313.873C332.075 311.689 331.039 309.548 329.981 307.194L329.58 306.325L329.199 305.35C329.072 305.01 328.945 304.735 328.818 304.332C328.691 303.908 328.586 303.463 328.48 303.017L328.395 302.678L328.353 302.445L328.29 301.978L328.163 301.046L327.93 299.201L327.042 291.907C325.858 282.26 324.377 272.719 322.136 263.369C319.937 254.019 317.061 244.838 313.254 236.082C311.33 231.714 309.257 227.431 306.825 223.339C305.683 221.24 304.33 219.29 303.082 217.276L301.031 214.371L300.016 212.929L298.916 211.53L296.717 208.731L294.391 206.06C294.01 205.614 293.629 205.169 293.228 204.724L292.001 203.452L289.527 200.907L286.926 198.512L285.615 197.324L284.24 196.201L281.491 193.953C280.56 193.232 279.588 192.554 278.636 191.854C276.754 190.412 274.724 189.204 272.736 187.932C271.763 187.274 270.706 186.723 269.67 186.151L266.561 184.433C265.504 183.903 264.425 183.416 263.368 182.907C262.289 182.419 261.253 181.868 260.132 181.423L256.812 180.066C255.712 179.62 254.613 179.133 253.471 178.751C244.526 175.38 235.242 172.836 225.831 171.076C216.4 169.337 206.82 168.404 197.219 168.15C192.419 168.023 187.618 168.108 182.818 168.341C177.996 168.574 173.323 168.998 168.628 169.867C159.239 171.542 149.976 174.341 140.925 177.733C140.164 178.03 139.297 177.627 139.001 176.864C138.768 176.207 139.107 175.401 139.783 175.062Z" fill="#000072"/>
<path d="M298.578 249.418C300.1 247.065 287.941 220.901 268.866 226.52C261.866 228.576 263.029 234.767 267.068 236.718C270.917 238.584 276.86 238.456 281.787 240.534C291.367 244.605 297.055 251.793 298.578 249.418Z" fill="#000072"/>
<path d="M138.853 253.044C137.182 250.436 150.526 221.537 171.61 227.686C179.328 229.933 178.081 236.76 173.619 238.944C169.389 241.022 162.812 240.895 157.378 243.206C146.783 247.701 140.523 255.63 138.853 253.044Z" fill="#000072"/>
<path d="M246.767 359.14C239.492 363.401 232.429 357.443 229.236 352.991C229.236 352.991 221.348 365.14 210.965 360.115C207.306 358.334 206.439 354.793 206.418 351.825C220.819 358.631 230.187 337.047 230.187 337.047C233.74 341.987 242.263 353.055 250.066 352.376C250.087 354.857 249.41 357.592 246.767 359.14Z" fill="#E8E8E8"/>
<path d="M232.324 339.633C232.599 340.863 232.747 341.987 232.873 343.195C232.979 344.382 233.043 345.57 233.021 346.778C233.021 347.987 232.916 349.195 232.768 350.425C232.62 351.655 232.324 352.884 231.964 354.135C231.52 355.726 229.871 356.658 228.263 356.213C226.677 355.768 225.747 354.114 226.191 352.503C226.254 352.291 226.339 352.1 226.424 351.909L226.445 351.867C226.889 351.019 227.333 350.149 227.671 349.195C228.031 348.262 228.327 347.266 228.559 346.269C228.792 345.252 228.982 344.213 229.109 343.174C229.236 342.135 229.321 341.032 229.321 340.036V339.93C229.321 339.103 230.019 338.446 230.843 338.446C231.605 338.467 232.197 338.955 232.324 339.633Z" fill="#000072"/>
<path d="M213.058 338.128C213.65 341.245 224.943 346.821 231.181 346.566C237.885 346.291 244.927 340.609 245.688 337.577C246.577 334.015 240.825 329.965 227.629 330.877C216.865 331.598 212.424 334.714 213.058 338.128Z" fill="#000072"/>
<g opacity="0.7">
<path d="M228.009 333.718C227.777 334.63 230.166 335.796 232.091 335.838C233.19 335.859 237.103 335.881 237.335 334.863C237.589 333.845 236.511 332.912 232.894 332.509C229.617 332.17 228.242 332.785 228.009 333.718Z" fill="white"/>
</g>
<path d="M129.231 185.705C118.213 191.769 105.123 199.699 85.2025 220.477C84.6103 219.099 84.0816 217.572 83.6376 215.961C80.402 204.618 80.2751 187.91 82.4533 174.341C83.8067 165.903 86.0483 158.694 89.0301 154.75C95.8818 145.612 128.66 180.023 129.231 185.705Z" fill="#F27E80"/>
<path d="M129.231 185.705C118.213 191.769 105.123 199.699 85.2024 220.477C84.6103 219.099 84.0816 217.572 83.6375 215.961C86.6404 206.505 96.2836 197.452 100.788 189.819C110.135 174.002 99.1807 161.026 93.9785 161.874C90.9122 162.383 84.9275 170.673 82.4321 174.341C83.7856 165.903 86.0272 158.694 89.0089 154.75C95.8818 145.612 128.66 180.023 129.231 185.705Z" fill="#FF5C64"/>
<path d="M85.2024 223.466C85.0332 223.466 84.8429 223.445 84.6737 223.424C83.7009 223.254 82.8762 222.576 82.4744 221.664C74.9037 204.003 77.251 165.478 86.6404 152.969C87.74 151.506 90.3623 149.258 95.5645 150.721C107.745 154.156 131.536 179.005 132.17 185.408C132.297 186.596 131.684 187.74 130.648 188.313C119.397 194.525 106.794 202.264 87.3382 222.554C86.7884 223.148 86.006 223.466 85.2024 223.466ZM91.3774 156.552C84.5257 165.69 81.2478 196.942 86.4078 214.964C103.283 197.896 115.041 190.242 125.446 184.391C121.216 177.521 102.67 158.206 93.3652 156.298C91.8003 156.001 91.4831 156.425 91.3774 156.552Z" fill="#000072"/>
<path d="M90.8276 341.987C90.2777 341.669 89.6645 341.308 89.0512 340.99C88.4591 340.651 87.8246 340.333 87.2114 340.015C86.5981 339.697 85.9637 339.4 85.3293 339.103C84.6949 338.828 84.0816 338.51 83.426 338.234C80.8672 337.131 78.2873 336.071 75.6439 335.181C70.3571 333.379 64.9857 331.895 59.4662 330.94C58.7895 330.792 58.0917 330.707 57.3938 330.601L55.3214 330.304L53.2489 330.008C52.5511 329.923 51.8532 329.88 51.1554 329.817L46.9682 329.456C45.5725 329.393 44.1768 329.393 42.7811 329.35C39.9685 329.181 37.1771 329.435 34.3645 329.456L33.3071 329.477L32.2498 329.584L30.1562 329.774C28.7605 329.902 27.3436 330.029 25.9479 330.135H25.8422C25.0174 330.198 24.2984 329.583 24.235 328.778C24.1715 328.015 24.7213 327.315 25.4615 327.188C26.8784 326.954 28.3164 326.7 29.7544 326.488L31.9114 326.149L32.9899 325.979L34.0684 325.873C35.5064 325.746 36.9656 325.619 38.4036 325.513C39.1226 325.47 39.8628 325.364 40.5818 325.364L42.7599 325.343C44.2191 325.343 45.6782 325.301 47.1374 325.322L51.4937 325.576C52.2127 325.619 52.9529 325.64 53.6719 325.725L55.8501 326L58.0282 326.276C58.7472 326.361 59.4874 326.446 60.1852 326.615L64.4993 327.421C65.9373 327.718 67.333 328.099 68.7499 328.46C70.1667 328.799 71.5624 329.287 72.9582 329.711C74.3539 330.135 75.7284 330.665 77.0819 331.174C78.4564 331.661 79.7887 332.276 81.121 332.87C82.4744 333.442 83.7644 334.142 85.0544 334.799C85.7099 335.138 86.3443 335.499 86.9788 335.881C87.6132 336.241 88.2476 336.623 88.8609 337.025C90.1297 337.81 91.3139 338.616 92.5193 339.591C93.1749 340.1 93.2806 341.033 92.7731 341.69C92.3079 342.284 91.4831 342.432 90.8487 342.05L90.8276 341.987Z" fill="#000072"/>
<path d="M94.1477 363.889C92.9846 363.74 91.7369 363.592 90.5103 363.465C89.2838 363.337 88.0573 363.274 86.8096 363.189C84.3353 363.041 81.8823 362.956 79.4292 362.977C74.5019 363.019 69.5957 363.316 64.7953 364.185C62.3845 364.61 59.9949 365.118 57.6687 365.818C56.4845 366.136 55.3425 366.56 54.1794 366.921C53.0375 367.366 51.8955 367.747 50.7959 368.256C46.3127 370.143 42.1255 372.688 38.2979 375.741L38.2767 375.762C37.6211 376.271 36.6907 376.165 36.1831 375.529C35.6968 374.914 35.7813 374.066 36.31 373.536C40.0531 369.91 44.4094 366.857 49.1252 364.61C50.2883 364.016 51.5149 363.549 52.7203 363.019C53.9468 362.574 55.1733 362.086 56.421 361.726C58.9164 360.942 61.4329 360.284 64.0129 359.839C69.1305 358.885 74.3327 358.525 79.5138 358.715C84.6948 358.927 89.7913 359.585 94.8455 361.026C95.628 361.26 96.0932 362.086 95.8606 362.871C95.6491 363.592 94.9512 364.037 94.2322 363.952L94.1477 363.889Z" fill="#000072"/>
<path d="M254.126 346.969C254.253 348.581 254.211 350.065 254.021 351.655C253.83 353.203 253.471 354.793 252.815 356.383C252.16 357.952 251.208 359.627 249.495 360.942C249.072 361.26 248.607 361.556 248.121 361.811L247.93 361.896L247.782 361.959L247.486 362.086C247.296 362.171 247.106 362.256 246.894 362.341C246.09 362.659 245.245 362.892 244.378 363.083C240.888 363.867 237.061 363.147 234.058 361.493C231.012 359.839 228.623 357.486 226.825 354.75L231.774 354.56C231.605 354.856 231.52 354.984 231.393 355.196C231.266 355.387 231.161 355.556 231.034 355.726C230.78 356.065 230.526 356.404 230.251 356.743C229.723 357.401 229.13 358.016 228.517 358.609C227.291 359.775 225.874 360.814 224.288 361.62C222.702 362.404 220.946 362.998 219.128 363.168C217.309 363.359 215.469 363.231 213.778 362.765C212.932 362.553 212.107 362.256 211.324 361.917C210.563 361.599 209.717 361.175 208.977 360.687C207.476 359.712 206.249 358.461 205.234 357.168C204.198 355.853 203.373 354.454 202.696 353.012C202.358 352.291 202.062 351.549 201.787 350.807C201.512 350.044 201.301 349.344 201.089 348.475C200.857 347.52 201.449 346.545 202.4 346.312C203.267 346.1 204.134 346.566 204.473 347.372L204.515 347.478C204.726 348.008 205.044 348.665 205.34 349.259C205.657 349.853 205.995 350.446 206.334 351.019C207.053 352.143 207.835 353.203 208.723 354.114C209.611 355.026 210.563 355.789 211.578 356.298C212.53 356.807 213.778 357.21 214.898 357.401C217.203 357.804 219.382 357.316 221.391 356.192C222.384 355.641 223.357 354.92 224.267 354.093C224.711 353.69 225.155 353.245 225.578 352.779C225.789 352.545 225.979 352.312 226.17 352.079L226.677 351.443L229.194 348.305L231.626 351.252C233.17 353.139 235.03 354.814 237.039 355.853C239.048 356.934 241.121 357.337 243.257 357.04C243.785 356.955 244.335 356.828 244.864 356.659C244.991 356.616 245.139 356.574 245.266 356.51L245.477 356.447L245.583 356.404L245.646 356.383C245.794 356.341 245.942 356.256 246.112 356.171C246.725 355.789 247.423 355.026 247.994 354.03C249.157 352.037 249.96 349.344 250.574 346.821L250.616 346.694C250.849 345.718 251.821 345.146 252.794 345.379C253.534 345.549 254.063 346.206 254.126 346.969Z" fill="#000072"/>
<path d="M318.921 595.226H260.175C203.331 595.226 166.725 575.571 153.698 524.05L140.375 474.861L249.855 510.184C257.531 509.039 264.911 508.784 271.975 509.42C287.962 510.862 302.257 516.926 314.185 527.951C324.145 537.153 332.477 549.832 338.758 566.179C347.449 588.823 318.921 595.226 318.921 595.226Z" fill="#8E8FB3"/>
<path d="M318.921 595.226H260.175C203.331 595.226 166.725 575.571 153.698 524.05L140.375 474.861L249.855 510.184C257.531 509.039 264.911 508.784 271.975 509.42C260.28 512.007 242.009 516.799 230.357 523.414C202.316 539.358 209.315 566.03 235.855 577.628C265.081 590.413 297.626 584.688 311.837 535.033C312.598 532.361 313.381 530.008 314.185 527.951C324.145 537.153 332.477 549.832 338.758 566.179C347.449 588.823 318.921 595.226 318.921 595.226Z" fill="#7A7A7A"/>
<path d="M319.26 598.195H260.196C198.256 598.195 163.49 574.851 150.822 524.75C150.421 523.16 151.372 521.527 152.979 521.124C154.565 520.722 156.194 521.676 156.596 523.287C168.501 570.314 201.407 592.216 260.196 592.216H318.583C320.529 591.707 331.716 588.526 335.882 580.681C337.954 576.801 337.996 572.391 335.987 567.218C320.085 525.874 290.457 507.152 250.299 513.11C248.692 513.343 247.169 512.22 246.915 510.587C246.683 508.954 247.803 507.449 249.432 507.195C270.283 504.099 288.723 507.301 304.245 516.693C320.423 526.467 332.963 542.751 341.549 565.077C344.171 571.883 344.023 578.095 341.126 583.523C335.268 594.484 320.254 597.961 319.619 598.11L319.26 598.195Z" fill="#000072"/>
<path d="M367.285 554.92C367.137 555.535 366.989 556.15 366.82 556.786C360.222 580.808 351.742 595.226 326.471 595.226H296.251C296.251 595.226 299.149 591.091 301.792 583.798C305.239 574.32 310.695 540.927 310.695 540.927C310.695 540.927 311.245 538.913 312.45 535.945C315.221 529.202 321.438 517.52 332.477 513.216C351.298 505.859 374.433 524.835 367.285 554.92Z" fill="white"/>
<path d="M367.285 554.921C367.137 555.536 366.989 556.151 366.82 556.787C360.222 580.809 351.742 595.226 326.471 595.226H296.251C296.251 595.226 299.149 591.092 301.792 583.798C305.239 574.321 310.695 540.927 310.695 540.927C310.695 540.927 311.245 538.913 312.45 535.945C313.381 544.277 317.97 572.222 337.848 574.957C353.92 577.162 362.527 567.07 367.285 554.921Z" fill="#E8E8E8"/>
<path d="M349.796 574.109C346.392 578.731 341.464 581.275 336.643 580.257C332.16 579.303 328.839 575.508 327.401 570.462C330.299 572.773 333.746 574.406 337.827 574.978C342.395 575.593 346.349 575.211 349.796 574.109Z" fill="#FF5C64"/>
<path d="M353.666 565.288C351.594 575.105 343.981 581.784 336.643 580.236C329.305 578.688 325.054 569.465 327.105 559.67C329.178 549.853 336.791 543.175 344.129 544.722C351.467 546.27 355.739 555.493 353.666 565.288Z" fill="#F27E80"/>
<path d="M349.796 574.109C346.392 578.731 341.464 581.275 336.643 580.257C332.16 579.303 328.839 575.508 327.401 570.462C330.299 572.773 333.746 574.406 337.827 574.978C342.395 575.593 346.349 575.211 349.796 574.109Z" fill="#FF5C64"/>
<path d="M335.501 539.74C334.74 543.387 331.906 545.867 329.178 545.295C326.45 544.723 324.864 541.288 325.625 537.641C326.387 533.994 329.22 531.514 331.948 532.086C334.697 532.68 336.283 536.114 335.501 539.74Z" fill="#F27E80"/>
<path d="M353.772 534.969C352.778 539.655 349.141 542.856 345.63 542.114C342.12 541.372 340.09 536.962 341.063 532.276C342.057 527.591 345.694 524.389 349.204 525.131C352.715 525.873 354.766 530.262 353.772 534.969Z" fill="#F27E80"/>
<path d="M361.322 547.373C360.729 550.129 358.594 552.016 356.542 551.571C354.47 551.126 353.286 548.539 353.857 545.783C354.449 543.026 356.585 541.139 358.657 541.585C360.708 542.009 361.893 544.595 361.322 547.373Z" fill="#F27E80"/>
<path d="M309.236 540.524C310.272 531.874 314.438 523.987 320.592 517.541C323.679 514.34 327.507 511.647 331.885 510.036C334.063 509.187 336.368 508.742 338.694 508.551C341.02 508.361 343.367 508.445 345.63 508.891C347.914 509.315 350.113 510.014 352.207 510.947C354.322 511.88 356.246 513.11 358.065 514.488C359.883 515.866 361.512 517.456 362.992 519.174C363.753 520.022 364.388 520.955 365.065 521.845C365.678 522.799 366.312 523.732 366.82 524.729C369.019 528.651 370.394 532.976 371.091 537.365C371.768 541.754 371.705 546.207 371.113 550.511C370.838 552.673 370.372 554.793 369.844 556.892C369.315 558.97 368.723 560.921 368.11 562.935C366.862 566.942 365.466 570.928 363.669 574.83C361.892 578.731 359.651 582.547 356.775 585.939C353.899 589.353 350.24 592.237 346.201 594.187C344.171 595.162 342.078 595.947 339.942 596.541C337.806 597.113 335.649 597.516 333.492 597.77C331.335 598.004 329.178 598.152 327.042 598.152H320.867H296.294C294.644 598.152 293.312 596.816 293.312 595.162C293.312 593.509 294.644 592.173 296.294 592.173H320.867H326.978C328.945 592.173 330.869 592.025 332.794 591.834C334.697 591.6 336.579 591.24 338.398 590.752C340.217 590.265 341.972 589.607 343.621 588.802C346.941 587.19 349.881 584.901 352.292 582.038C354.702 579.176 356.69 575.847 358.319 572.285C359.968 568.723 361.3 564.97 362.485 561.133C363.077 559.225 363.648 557.253 364.155 555.345C364.642 553.458 365.043 551.571 365.297 549.662C365.805 545.846 365.826 541.987 365.234 538.256C364.599 534.545 363.457 530.92 361.575 527.697C361.152 526.87 360.602 526.128 360.095 525.344C359.545 524.601 358.995 523.859 358.382 523.181C357.177 521.803 355.844 520.509 354.364 519.449C351.446 517.265 348.083 515.739 344.573 515.103C341.062 514.488 337.446 514.764 334.105 515.993C330.743 517.181 327.676 519.28 325.012 521.888C322.305 524.495 320.084 527.655 318.033 530.962C315.982 534.27 314.057 537.789 312.175 541.288L312.112 541.394C311.71 542.114 310.801 542.39 310.082 542.008C309.468 541.733 309.172 541.118 309.236 540.524Z" fill="#000072"/>
<path d="M283.119 511.244C257.489 508.17 243.13 514.7 227.925 519.025C218.599 521.676 208.977 523.52 196.246 521.845C156.046 516.545 138.959 482.897 134.391 471.829C133.46 469.624 133.059 468.31 133.059 468.31L184.193 455.503C195.422 469.709 209.337 466.953 227.375 468.161C235.009 468.67 243.362 469.9 252.583 473.398C276.077 482.345 281.554 498.268 282.802 506.283C283.246 509.336 283.119 511.244 283.119 511.244Z" fill="#8E8FB3"/>
<path d="M283.119 511.244C257.489 508.17 243.13 514.7 227.925 519.025C218.599 521.675 208.977 523.52 196.246 521.845C156.045 516.545 138.958 482.897 134.391 471.829C144.562 483.596 165.287 502.275 197.388 507.3C238.71 513.767 258.356 494.579 282.781 506.304C283.246 509.336 283.119 511.244 283.119 511.244Z" fill="#7A7A7A"/>
<path d="M283.119 511.244C257.489 508.17 243.13 514.7 227.925 519.025C228.242 518.834 235.855 514.233 239.979 506.071C256.072 503.102 268.633 499.519 282.781 506.325C283.246 509.336 283.119 511.244 283.119 511.244Z" fill="#E8E8E8"/>
<path d="M283.119 511.244C257.489 508.17 243.13 514.7 227.925 519.025C228.602 518.622 260.893 499.031 227.354 468.182C234.988 468.691 243.341 469.921 252.562 473.419C284.853 485.716 283.119 511.244 283.119 511.244Z" fill="white"/>
<path d="M283.119 511.244C257.489 508.17 243.13 514.7 227.925 519.025C228.242 518.834 235.855 514.233 239.979 506.071C256.072 503.102 268.633 499.519 282.781 506.325C283.246 509.336 283.119 511.244 283.119 511.244Z" fill="#E8E8E8"/>
<path d="M135.871 467.419C136.103 468.14 136.442 469.009 136.738 469.794C137.055 470.6 137.393 471.426 137.753 472.232C138.472 473.844 139.233 475.434 140.037 477.024C141.665 480.162 143.484 483.236 145.451 486.162C149.405 492.035 154.057 497.42 159.365 502.064C164.652 506.707 170.595 510.566 177.002 513.407C183.41 516.248 190.24 518.114 197.219 518.962C204.198 519.852 211.218 519.662 218.134 518.326C225.049 517.032 231.879 514.679 238.942 512.559C246.006 510.417 253.407 508.636 260.914 507.937C264.679 507.576 268.443 507.428 272.207 507.491C275.971 507.576 279.714 507.873 283.436 508.297L280.116 511.053V510.735V510.333C280.095 510.057 280.095 509.781 280.074 509.484C280.031 508.912 279.968 508.318 279.883 507.746C279.714 506.58 279.482 505.414 279.186 504.269C278.593 501.979 277.769 499.731 276.711 497.59C274.618 493.307 271.594 489.533 267.999 486.332C260.788 479.95 251.398 475.921 241.776 473.589C236.933 472.423 231.985 471.745 226.931 471.405C221.877 471.045 216.738 470.96 211.451 470.663C208.808 470.515 206.122 470.282 203.394 469.815C200.687 469.37 197.938 468.67 195.316 467.525C194.005 466.953 192.736 466.274 191.53 465.511C190.346 464.727 189.204 463.879 188.147 462.924C186.053 461.016 184.319 458.811 182.966 456.437C182.564 455.716 182.818 454.783 183.537 454.38C184.108 454.062 184.806 454.147 185.271 454.571L185.292 454.592C187.174 456.288 189.056 457.836 191.086 459.129C192.08 459.765 193.116 460.359 194.174 460.868C195.21 461.398 196.288 461.843 197.409 462.204C201.808 463.751 206.693 464.324 211.768 464.493C216.822 464.684 222.067 464.621 227.375 464.96C232.662 465.278 238.033 465.935 243.299 467.144C248.564 468.352 253.682 470.112 258.63 472.402C259.878 472.953 261.084 473.632 262.289 474.246C263.473 474.946 264.679 475.582 265.821 476.367C268.147 477.851 270.346 479.547 272.418 481.413C276.563 485.123 280.031 489.703 282.421 494.813C283.626 497.357 284.557 500.028 285.213 502.785C285.53 504.163 285.762 505.562 285.91 506.983C285.995 507.682 286.037 508.403 286.08 509.124C286.101 509.484 286.101 509.845 286.101 510.227V510.799C286.101 511.011 286.101 511.159 286.08 511.456C285.974 513.089 284.578 514.34 282.95 514.234L282.802 514.213H282.759C279.228 513.81 275.675 513.534 272.122 513.449C268.57 513.386 265.038 513.513 261.528 513.873C254.486 514.552 247.592 516.184 240.676 518.283C233.761 520.361 226.719 522.799 219.254 524.199C211.811 525.641 204.028 525.874 196.521 524.898C188.993 523.987 181.57 521.973 174.613 518.877C167.655 515.782 161.205 511.583 155.495 506.559C149.786 501.555 144.795 495.767 140.566 489.512C138.451 486.374 136.526 483.13 134.792 479.78C133.925 478.105 133.101 476.388 132.339 474.649C131.959 473.78 131.599 472.911 131.24 472.02C130.88 471.108 130.563 470.26 130.225 469.243C129.717 467.674 130.563 465.999 132.107 465.469C133.672 464.96 135.342 465.808 135.871 467.356V467.419Z" fill="#000072"/>
<path d="M247.402 594.887H128.872L119.017 543.641L93.894 412.929C113.307 427.092 136.971 448.188 155.2 499.816C157.589 506.579 160.169 513.025 162.897 519.131C184.637 567.811 216.527 594.887 247.402 594.887Z" fill="#62C84F"/>
<path d="M247.401 594.887H128.871L119.017 543.641C119.609 543.832 143.611 551.401 157.357 540.376C161.882 536.729 163.193 528.588 162.855 519.131C184.636 567.812 216.526 594.887 247.401 594.887Z" fill="#4BA835"/>
<path d="M94.7609 411.721C103.939 416.788 112.25 423.509 119.44 431.248C126.651 438.987 133.016 447.489 138.514 456.5C144.034 465.49 148.686 474.946 152.768 484.614C154.882 489.427 156.616 494.388 158.477 499.265C160.233 504.078 162.072 508.848 164.081 513.555C166.09 518.262 168.205 522.905 170.51 527.442C171.631 529.732 172.879 531.958 174.063 534.206C175.332 536.411 176.558 538.637 177.912 540.8C183.177 549.514 189.204 557.719 196.056 565.119C202.908 572.497 210.626 579.07 219.297 583.925C227.925 588.78 237.589 591.749 247.359 591.897V597.855H128.871C127.222 597.855 125.89 596.519 125.89 594.865C125.89 593.212 127.222 591.876 128.871 591.876H247.38V597.834C241.924 597.855 236.468 597.092 231.224 595.629C225.979 594.166 220.967 592.067 216.252 589.48C211.536 586.893 207.095 583.861 202.929 580.512C198.763 577.162 194.851 573.515 191.256 569.614C184.044 561.811 177.743 553.246 172.265 544.235C170.87 541.987 169.601 539.697 168.269 537.407C167.021 535.075 165.752 532.785 164.589 530.432C162.178 525.746 160 520.955 157.949 516.142L156.426 512.516L154.988 508.848C154.015 506.41 153.169 503.929 152.26 501.47C150.463 496.657 148.813 491.823 146.783 487.116C142.892 477.66 138.43 468.458 133.164 459.744C127.92 451.03 121.872 442.824 115.02 435.361C114.153 434.428 113.265 433.538 112.398 432.626L111.087 431.248C110.642 430.803 110.177 430.357 109.733 429.912L107.026 427.241L104.256 424.612C100.555 421.113 96.7275 417.721 92.9845 414.117C92.3924 413.544 92.3712 412.59 92.9422 411.996C93.4286 411.509 94.1687 411.403 94.7609 411.721Z" fill="#000072"/>
<path d="M338.948 400.378C335.459 400.378 331.652 399.826 327.592 398.597L325.139 397.855L328.501 374.893L329.326 374.172C330.045 373.536 346.899 358.949 358.403 367.535C364.388 371.988 365.911 379.939 362.231 387.275C358.594 394.505 350.388 400.378 338.948 400.378ZM331.779 393.551C344.51 396.498 353.497 391.367 356.902 384.582C359.291 379.833 358.467 375.02 354.829 372.306C348.337 367.472 337.15 375.55 334.042 377.988L331.779 393.551Z" fill="#000072"/>
<path d="M299.085 393.317C310.441 397.091 317.97 405.89 317.97 408.71C317.97 412.951 308.517 415.092 299.085 415.092C289.632 415.092 280.201 412.972 280.201 408.71C280.201 405.89 287.75 397.091 299.085 393.317Z" fill="#2DBEFF"/>
<path d="M317.97 408.71C317.97 412.951 308.517 415.092 299.085 415.092C289.654 415.092 280.201 412.972 280.201 408.71C280.201 407.968 280.708 406.844 281.66 405.487C284.367 401.65 290.69 396.116 299.085 393.317C307.481 396.116 313.782 401.65 316.51 405.487C317.462 406.823 317.97 407.968 317.97 408.71Z" fill="#2DBEFF"/>
<path d="M316.511 405.487C315.475 409.198 307.291 411.064 299.085 411.064C290.901 411.064 282.696 409.219 281.66 405.487C284.367 401.65 290.69 396.116 299.085 393.317C307.481 396.116 313.804 401.65 316.511 405.487Z" fill="#2799FF"/>
<path d="M299.085 418.06C293.968 418.06 277.219 417.382 277.219 408.71C277.219 403.643 286.884 394.25 298.134 390.497L299.064 390.179L299.995 390.497C311.266 394.25 320.909 403.643 320.909 408.71C320.952 417.382 304.224 418.06 299.085 418.06ZM283.204 408.752C283.733 409.728 288.893 412.102 299.085 412.102C309.173 412.102 314.333 409.791 314.967 408.731C314.269 406.611 308.263 399.847 299.085 396.497C289.865 399.869 283.859 406.675 283.204 408.752Z" fill="#000072"/>
<path d="M340.513 364.292C340.513 364.292 340.513 405.996 299.085 405.996C257.658 405.996 257.658 364.292 257.658 364.292C257.679 369.168 340.513 369.168 340.513 364.292Z" fill="#2DBEFF"/>
<path d="M335.649 377.606C332.033 388.907 322.791 403.282 299.276 403.282C281.237 403.282 271.594 394.823 266.455 385.79C273.666 391.027 283.479 394.611 296.844 394.611C316.384 394.589 328.332 386.957 335.649 377.606Z" fill="#2799FF"/>
<path d="M299.085 408.964C256.579 408.964 254.761 367.45 254.697 364.461C254.697 364.397 254.697 364.355 254.697 364.291C254.697 362.637 256.03 361.302 257.679 361.302C258.673 361.302 259.561 361.789 260.111 362.553C268.105 365.818 330.108 365.818 338.102 362.553C338.652 361.789 339.519 361.302 340.534 361.302C342.162 361.302 343.473 362.595 343.516 364.228C343.516 364.228 343.516 364.228 343.516 364.249C343.516 364.249 343.516 364.249 343.516 364.27C343.516 364.334 343.516 364.376 343.516 364.44C343.41 367.45 341.612 408.964 299.085 408.964ZM260.999 368.892C262.353 379.196 268.739 403.007 299.085 403.007C329.432 403.007 335.818 379.196 337.171 368.892C334.866 369.337 331.8 369.698 327.803 370.016C320.211 370.61 310.018 370.949 299.085 370.949C288.152 370.949 277.959 370.631 270.367 370.016C266.392 369.698 263.325 369.337 260.999 368.892Z" fill="#000072"/>
<path d="M340.513 364.08C340.513 365.267 339.054 366.369 336.474 367.366C329.812 369.931 315.58 371.712 299.085 371.712C297.711 371.712 296.379 371.691 295.046 371.67C280.307 371.416 267.83 369.719 261.718 367.366C259.117 366.369 257.679 365.246 257.679 364.08C257.679 359.86 276.225 356.447 299.107 356.447C299.53 356.447 299.931 356.447 300.354 356.447C322.643 356.574 340.513 359.945 340.513 364.08Z" fill="white"/>
<path d="M340.513 364.08C340.513 365.267 339.054 366.369 336.474 367.366C329.812 369.931 315.58 371.712 299.085 371.712C297.711 371.712 296.379 371.691 295.046 371.67C280.307 371.416 267.83 369.719 261.718 367.366C259.117 366.369 257.679 365.246 257.679 364.08C257.679 359.86 276.225 356.447 299.107 356.447C299.53 356.447 299.931 356.447 300.354 356.447C322.643 356.574 340.513 359.945 340.513 364.08Z" fill="white"/>
<path d="M340.513 364.08C340.513 365.267 339.054 366.369 336.474 367.366C329.812 369.931 315.58 371.712 299.085 371.712C297.711 371.712 296.379 371.691 295.046 371.67C280.307 371.416 267.83 369.719 261.718 367.366C259.117 366.369 257.679 365.246 257.679 364.08C257.679 359.86 276.225 356.447 299.107 356.447C299.53 356.447 299.931 356.447 300.354 356.447C322.643 356.574 340.513 359.945 340.513 364.08Z" fill="white"/>
<path d="M340.513 364.101C340.513 365.288 339.054 366.391 336.474 367.387C336.326 367.451 336.157 367.514 335.987 367.578C329.115 370.059 315.178 371.734 299.085 371.734C297.732 371.734 296.379 371.712 295.046 371.691C280.687 371.437 268.485 369.825 262.205 367.557C262.036 367.493 261.866 367.451 261.718 367.387C259.117 366.391 257.679 365.267 257.679 364.08C257.679 359.86 276.225 356.447 299.107 356.447H300.333C322.643 356.574 340.513 359.945 340.513 364.101Z" fill="white"/>
<path d="M335.987 367.557C329.114 370.037 315.178 371.712 299.085 371.712C297.732 371.712 296.378 371.691 295.046 371.67C280.687 371.416 268.485 369.804 262.205 367.536C269.056 365.055 283.013 363.38 299.085 363.38C299.487 363.38 299.91 363.38 300.312 363.38C315.897 363.486 329.305 365.14 335.987 367.557Z" fill="#C97D49"/>
<path d="M299.085 373.218C284.24 373.218 256.178 371.31 256.178 364.101C256.178 356.892 284.24 354.984 299.085 354.984C313.931 354.984 341.993 356.892 341.993 364.101C341.993 371.31 313.931 373.218 299.085 373.218ZM299.085 357.952C273.582 357.952 259.54 361.959 259.159 364.101C259.54 366.242 273.603 370.228 299.085 370.228C324.547 370.228 338.61 366.242 339.011 364.08C338.61 361.938 324.568 357.952 299.085 357.952Z" fill="#000072"/>
<path d="M299.085 374.702C284.473 374.702 271.044 373.324 263.156 371.013C259.519 369.953 254.697 368.066 254.697 364.101C254.697 360.2 259.18 357.634 269.268 355.768C277.261 354.305 287.856 353.479 299.085 353.479C310.314 353.479 320.909 354.284 328.903 355.768C338.969 357.634 343.473 360.2 343.473 364.101C343.473 368.066 338.652 369.953 335.014 371.013C327.126 373.324 313.698 374.702 299.085 374.702ZM261.57 364.08C262.247 364.419 263.262 364.843 264.848 365.288C272.123 367.43 285.234 368.744 299.106 368.744C312.979 368.744 326.09 367.408 333.365 365.288C334.93 364.822 335.966 364.398 336.643 364.08C332.752 362.171 319.979 359.458 299.128 359.458C278.255 359.436 265.482 362.171 261.57 364.08Z" fill="#000072"/>
<path d="M143.23 307.83C145.303 314.297 147.861 320.742 151.922 324.94C153.973 327.018 156.405 328.46 159.133 329.18C161.861 329.923 164.927 329.986 168.015 329.605C171.06 329.223 173.851 328.311 176.22 326.806C178.609 325.3 180.597 323.138 182.056 320.466C185.038 315.145 186.413 308.275 187.195 301.49L187.216 301.342C187.343 300.197 188.379 299.391 189.521 299.519C190.367 299.625 191.044 300.218 191.277 301.003C191.848 302.975 192.101 304.819 192.292 306.749C192.44 308.678 192.482 310.607 192.334 312.579C192.059 316.48 191.171 320.466 189.331 324.24C187.512 327.993 184.721 331.534 181.126 334.057C177.531 336.601 173.301 338.022 169.199 338.552C167.148 338.827 165.096 338.912 162.982 338.806C160.867 338.679 158.731 338.34 156.637 337.683C152.429 336.432 148.538 333.845 145.747 330.58C142.892 327.336 141.052 323.541 139.995 319.682C139.466 317.752 139.149 315.802 138.98 313.851C138.832 311.879 138.832 310.014 139.128 307.936C139.297 306.791 140.354 306.006 141.496 306.176C142.3 306.303 142.934 306.876 143.167 307.597L143.23 307.83Z" fill="#000072"/>
<path d="M305.197 308C305.535 309.929 305.578 311.71 305.514 313.576C305.43 315.421 305.218 317.265 304.816 319.11C304.034 322.778 302.575 326.446 300.164 329.774C297.838 333.103 294.327 336.05 290.225 337.556C288.174 338.298 286.059 338.722 283.965 338.849C281.872 338.955 279.863 338.849 277.854 338.51C273.815 337.852 269.691 336.072 266.498 333.188C263.283 330.347 261.105 326.721 259.709 323.075C258.293 319.407 257.679 315.654 257.531 311.965C257.447 310.12 257.531 308.275 257.7 306.473C257.912 304.65 258.166 302.89 258.694 301.045C259.012 299.943 260.153 299.307 261.253 299.625C262.078 299.858 262.628 300.558 262.733 301.342L262.755 301.469C263.622 307.957 264.785 314.551 267.259 319.915C268.464 322.608 270.114 324.919 272.165 326.509C274.195 328.142 276.606 329.117 279.334 329.562C280.709 329.774 282.147 329.88 283.458 329.817C284.79 329.732 286.059 329.541 287.264 329.138C289.633 328.354 291.747 326.849 293.503 324.686C296.971 320.297 299.107 314.042 301.116 307.83L301.158 307.682C301.517 306.579 302.681 305.986 303.78 306.346C304.541 306.6 305.07 307.258 305.197 308Z" fill="#000072"/>
<path d="M349.204 422.11C349.204 422.11 340.449 417.361 342.458 403.876C343.6 396.201 346.032 390.434 346.032 390.434C346.032 390.434 335.183 386.469 339.92 377.373C344.15 369.253 362.802 370.037 371.557 372.963C381.2 376.186 402.368 393.317 385.598 433.538C385.598 433.538 375.871 433.941 365.276 430.739C353.666 427.198 349.204 422.11 349.204 422.11Z" fill="white"/>
<path d="M348.485 423.425C347.999 423.213 347.682 423.043 347.301 422.852C346.942 422.64 346.603 422.428 346.265 422.195C345.588 421.728 344.975 421.198 344.383 420.626C343.22 419.46 342.226 418.124 341.422 416.661C339.878 413.714 339.159 410.364 339.159 407.141C339.117 406.314 339.18 405.53 339.244 404.724L339.35 403.516L339.498 402.392C339.709 400.887 339.984 399.403 340.344 397.94C340.682 396.477 341.105 395.014 341.57 393.593C341.824 392.872 342.057 392.173 342.353 391.452C342.628 390.731 342.924 390.074 343.283 389.289L344.996 393.254C344.51 393.063 344.235 392.936 343.875 392.766C343.537 392.597 343.198 392.427 342.881 392.257C342.226 391.897 341.612 391.494 340.999 391.07C339.773 390.201 338.61 389.098 337.637 387.741C336.685 386.363 335.966 384.667 335.776 382.886C335.585 381.105 335.882 379.345 336.453 377.861C336.601 377.501 336.727 377.098 336.897 376.759C337.066 376.398 337.193 376.08 337.446 375.698C337.658 375.317 337.891 374.935 338.165 374.617C338.419 374.278 338.694 373.939 338.99 373.642C340.132 372.412 341.464 371.5 342.797 370.822C345.482 369.465 348.21 368.808 350.896 368.405C356.267 367.663 361.533 367.917 366.778 368.787C369.4 369.253 372.001 369.847 374.708 371.055C377.267 372.242 379.572 373.769 381.665 375.55C385.874 379.07 389.151 383.607 391.351 388.589C393.571 393.572 394.586 398.978 394.798 404.279C394.988 409.601 394.311 414.88 393.169 419.969C392.006 425.057 390.314 429.976 388.348 434.725C387.713 436.252 385.979 436.973 384.457 436.337C382.934 435.701 382.215 433.962 382.85 432.436V432.414C384.71 427.92 386.297 423.319 387.354 418.612C388.411 413.926 389.003 409.156 388.834 404.47C388.644 399.784 387.777 395.162 385.895 390.964C384.055 386.787 381.306 382.992 377.816 380.087C376.971 379.345 376.04 378.688 375.11 378.073C374.158 377.479 373.206 376.928 372.212 376.462C370.352 375.592 368.046 375.041 365.741 374.638C361.11 373.854 356.267 373.642 351.742 374.278C349.479 374.596 347.301 375.168 345.525 376.08C344.636 376.547 343.875 377.077 343.325 377.691C343.177 377.84 343.05 377.988 342.945 378.158C342.818 378.306 342.733 378.476 342.627 378.646C342.522 378.773 342.416 379.048 342.331 379.239C342.205 379.451 342.162 379.663 342.057 379.875C341.443 381.614 341.591 382.95 342.522 384.307C343.008 384.985 343.664 385.642 344.488 386.215C344.89 386.512 345.313 386.766 345.757 387.02C345.99 387.148 346.201 387.254 346.434 387.36C346.645 387.466 346.942 387.593 347.026 387.635L348.739 391.6L348.168 393.487L347.597 395.459C347.216 396.773 346.878 398.109 346.561 399.424C346.244 400.759 345.969 402.095 345.694 403.431L345.525 404.427L345.398 405.382L345.25 406.336C345.207 406.654 345.207 406.972 345.186 407.269C345.017 409.792 345.25 412.251 346.011 414.583C346.413 415.728 346.92 416.873 347.597 417.933C347.935 418.463 348.295 418.993 348.697 419.46C348.887 419.714 349.099 419.947 349.31 420.181C349.5 420.414 349.775 420.647 349.902 420.796L350.156 421.071C350.706 421.665 350.663 422.598 350.071 423.149C349.627 423.573 349.014 423.658 348.485 423.425Z" fill="#000072"/>
<g opacity="0.5">
<path d="M252.223 519.025C258.166 515.803 284.536 514.255 291.853 521.527C301.602 531.217 286.609 527.782 281.787 526.043C264.637 519.874 244.272 523.33 252.223 519.025Z" fill="white"/>
</g>
<path d="M68.2845 561.069C69.3207 562.659 70.505 564.313 71.6681 565.903C72.8523 567.493 74.0789 569.062 75.3266 570.61C76.5954 572.137 77.8854 573.621 79.2388 575.062C80.5922 576.483 82.0091 577.861 83.4894 579.133L83.5105 579.154C84.145 579.685 84.2084 580.639 83.6797 581.253C83.1933 581.826 82.3474 581.932 81.7342 581.529C79.979 580.363 78.3083 579.112 76.7011 577.798C75.1151 576.462 73.5502 575.084 72.0487 573.663C70.5473 572.243 69.0881 570.78 67.6713 569.274C66.2333 567.769 64.8798 566.264 63.4841 564.631C62.4268 563.38 62.5748 561.493 63.8225 560.412C65.0702 559.352 66.9523 559.5 68.0308 560.751C68.1154 560.836 68.1788 560.942 68.2422 561.027L68.2845 561.069Z" fill="#000072"/>
<g opacity="0.5">
<path d="M96.4526 426.244C96.4526 426.244 119.038 441.955 131.557 468.967C139.381 485.865 143.378 503.802 134.391 502.445C120.772 500.367 102.353 431.714 96.4526 426.244Z" fill="white"/>
</g>
<path d="M623.018 598.767H2.98176C1.33227 598.767 0 597.431 0 595.778C0 594.124 1.33227 592.788 2.98176 592.788H623.039C624.689 592.788 626.021 594.124 626.021 595.778C626.021 597.431 624.668 598.767 623.018 598.767Z" fill="#000072"/>
<g opacity="0.5">
<path d="M299.275 366.878C303.801 366.2 309.257 350.871 303.061 342.475C293.46 329.393 279.989 344.34 266.561 344.107C253.132 343.874 250.531 333.209 237.652 338.743C229.68 342.157 219.55 343.471 219.55 343.471C219.55 343.471 233 347.733 241.945 345.082C250.89 342.432 258.567 353.224 269.31 352.037C280.856 350.765 286.841 344.976 289.569 352.758C292.297 360.539 294.75 367.557 299.275 366.878Z" fill="white"/>
</g>
</g>
<defs>
<clipPath id="clip0_237_3935">
<rect width="626" height="467" fill="white" transform="translate(0 132)"/>
</clipPath>
</defs>
</svg>
