<svg id="Слой_1" data-name="Слой 1" xmlns="http://www.w3.org/2000/svg" xmlns:xlink="http://www.w3.org/1999/xlink" viewBox="0 0 626 633.63"><defs><style>.cls-1{fill:none;}.cls-2{fill:#b0a2d7;}.cls-3{clip-path:url(#clip-path);}.cls-4{fill:#8c8caa;}.cls-5{fill:#fff;}.cls-6{opacity:0.2;}.cls-7{fill:#000072;}.cls-8{opacity:0.6;}.cls-9{fill:#d1d1e5;}.cls-10{fill:#d9a65b;}.cls-11{fill:#f78fb9;}.cls-12{fill:#400000;}.cls-13{opacity:0.35;}</style><clipPath id="clip-path" transform="translate(0 -1.01)"><rect class="cls-1" x="11.99" y="15.4" width="550.31" height="657.55" transform="translate(-88.96 100.35) rotate(-17.21)"/></clipPath></defs><title>defeat-09</title><ellipse class="cls-2" cx="313" cy="308.02" rx="313" ry="299.5"/><g class="cls-3"><path class="cls-4" d="M231.88,501.13a28.28,28.28,0,0,1-32,24c-37.3-5.44-64.93-27.32-79.92-63.3-11.09-26.62-13.64-56.27-15.16-82-1.19-20.2-9.34-32.71-15.94-37.28a14.69,14.69,0,0,0-2.62-1.48,10.9,10.9,0,0,0-8.07-.33c-2,.63-6.23,1.93-9,10.42a41.34,41.34,0,0,0-1.88,11.29,28.27,28.27,0,1,1-56.5,2.27,95.42,95.42,0,0,1,4.6-31.07c7.61-23.47,24-40.14,46-47,20.54-6.36,41.71-3,59.6,9.36,2.3,1.6,4.5,3.32,6.63,5.14,19.6,16.92,31.72,43.86,33.59,75.31,1.25,21.08,3.22,45.1,10.9,63.54,7.41,17.79,18.14,26.48,35.87,29.06A28.3,28.3,0,0,1,231.88,501.13Z" transform="translate(0 -1.01)"/><path class="cls-5" d="M127.6,301.13A74.55,74.55,0,0,0,113.19,306c-9.68,4.5-18.4,11.67-23.25,21.17A35,35,0,0,0,86.2,341a10.86,10.86,0,0,0-8.07-.34c-2,.63-6.22,1.93-9,10.43a41.05,41.05,0,0,0-1.87,11.29,28.27,28.27,0,1,1-56.5,2.26,95.29,95.29,0,0,1,4.59-31.07c7.62-23.47,24-40.14,46-47,20.54-6.36,41.71-3,59.6,9.37A82,82,0,0,1,127.6,301.13Z" transform="translate(0 -1.01)"/><g class="cls-6"><path class="cls-7" d="M233.6,500.24c0,.9-.13,1.81-.26,2.7a28.25,28.25,0,0,1-32.05,23.94c-37.3-5.44-64.92-27.32-79.91-63.3-11.1-26.61-13.65-56.26-15.17-82-1.19-20.19-9.34-32.7-15.94-37.27a14.69,14.69,0,0,0-2.62-1.48,10.85,10.85,0,0,0-8.07-.33c-2,.62-6.22,1.93-9,10.42a41.8,41.8,0,0,0-1.88,11.29,28.27,28.27,0,1,1-56.49,2.27,79.55,79.55,0,0,1,.53-11.85c7.73,20.4,37.28,17,40.19-9.42,1.17-10.65,9.6-25,22.49-28,14.54-3.38,29.11,2.12,38.48,13.79s15,22,16.13,37,.44,30,2.89,44.74c5.81,35,30.6,66.17,63.32,79.72A105.73,105.73,0,0,0,233.6,500.24Z" transform="translate(0 -1.01)"/></g><path class="cls-7" d="M213.46,528a32.07,32.07,0,0,1-14.21,1.09c-38.8-5.67-67.55-28.41-83.12-65.8C104.78,436.1,102.2,406,100.65,380c-1.18-20-9.47-30.88-14.18-34.13a10.05,10.05,0,0,0-1.88-1.06,6.9,6.9,0,0,0-5.24-.19c-1.56.49-4.21,1.31-6.3,7.76a38.31,38.31,0,0,0-1.67,9.94,32.37,32.37,0,0,1-54.3,25A32.18,32.18,0,0,1,6.66,364.83a99.85,99.85,0,0,1,4.79-32.52c8-24.76,25.33-42.4,48.72-49.64,21.78-6.74,44.22-3.22,63.14,9.91a83.53,83.53,0,0,1,7,5.41c20.64,17.83,33.09,45.6,35,78.2,1.23,20.7,3.14,44.31,10.61,62.2,6.87,16.51,16.33,24.19,32.64,26.56A32.43,32.43,0,0,1,213.46,528ZM76.89,336.75a15,15,0,0,1,10.92.49,20.12,20.12,0,0,1,3.31,1.86c7.36,5.12,16.44,18.75,17.7,40.42,1.51,25.38,4,54.6,14.87,80.64,14.41,34.56,40.94,55.59,76.7,60.82a23.81,23.81,0,0,0,10.61-.82,24.19,24.19,0,0,0-3.68-47c-19.07-2.78-31.12-12.52-39.06-31.55s-9.95-43.51-11.22-64.89c-1.8-30.36-13.24-56.09-32.16-72.45a79,79,0,0,0-6.29-4.88,63.47,63.47,0,0,0-56-8.79C41.83,297,26.44,312.72,19.25,334.87a90.94,90.94,0,0,0-4.4,29.63,24.16,24.16,0,1,0,48.28-1.95,43.67,43.67,0,0,1,2.07-12.73C68.23,340.5,73.05,337.94,76.89,336.75Z" transform="translate(0 -1.01)"/><path class="cls-4" d="M535.27,459.49s-22.55,1.2-21.21-26.51a222.3,222.3,0,0,0-45.43-28.24s48.27,113.12,32.81,152.32c0,0,16.08,1.87,22.52,17.37s-4.81,36.28-41.84,49.22-66-4-70.44-24.4-11.06-28.44-11.06-28.44-137.4,2.29-141.57,1.39c0,0-9.84,9.38-15,32.93s-45.81,30-71.51,22.22-51.75-26.48-46.49-46.81,28.37-15.78,28.37-15.78-23-65.28,31.71-104.72c0,0-2.09-27.65,2.09-50.55,0,0-26.9,5.64-45.21,16.86,0,0,5.61,33.24-27.22,28,0,0-16.65,17.79-35.75,6.31-7.31-4.4-13.75-12.44-16.57-22.87-4.54-16.87.31-40,26-64.13a298.16,298.16,0,0,1,87-57c34.23-14.84,76.56-26.31,129.84-31.38,45.67-4.37,104.35,1.09,157.08,18.6C508.94,319,550,343,574.57,377.5A139.49,139.49,0,0,1,583.12,391C619,455.71,555.57,482.21,535.27,459.49Z" transform="translate(0 -1.01)"/><g class="cls-8"><path class="cls-5" d="M462.53,302.66S586.22,366.59,592.6,437.88C592.6,437.88,603.15,348.33,462.53,302.66Z" transform="translate(0 -1.01)"/></g><g class="cls-8"><path class="cls-5" d="M62,437.84s15.63-85.79,170.11-133.63c0,0-54.73.69-112.93,45S62,437.84,62,437.84Z" transform="translate(0 -1.01)"/></g><path class="cls-7" d="M480.44,628.5c-19.14,5.93-38.24,4.73-52.8-3.45-10.52-5.88-17.79-15-20-25-3.1-14.17-7.26-22.07-9.19-25.16-39.17.66-121.48,1.92-137.63,1.45-2.54,3.1-8.95,12.32-12.72,29.64-1.75,8-7.14,14.87-15.63,19.86-15.63,9.17-41.32,11.43-61.09,5.4-28.88-8.81-55.06-29.42-49.27-51.78,4-15.31,17-19.32,26.77-19.35A116.85,116.85,0,0,1,145.71,527c1-19.84,8.19-47.74,36.24-68.92-.35-6.44-1.1-25.22,1.32-43.13-8.28,2.16-23.67,6.74-35.82,13.62.37,5.26.15,16.54-7.13,23.89-5.31,5.35-13,7.46-23,6.29-7.41,6.84-23.18,15.18-39.31,5.49-10.89-6.55-18.29-18.78-19.77-32.69-1.51-14.1,2.21-36.09,28.55-60.86C141.45,319.3,213.19,290,306.05,281.18c46.21-4.41,100,1.17,147.67,15.31,39.48,11.71,93.1,34.85,124.3,78.63,30.12,42.29,21.77,72.62,3.9,86.93-15.18,12.15-36.84,12.67-48.4,1.52a25.39,25.39,0,0,1-16.06-6.92c-5.08-5.07-7.64-12.39-7.56-21.74a224.83,224.83,0,0,0-33.33-21.64c11.07,27.82,39.47,104.79,30.15,140.8a32.81,32.81,0,0,1,21,18.77,27.31,27.31,0,0,1-.62,22.09c-4.19,9.36-15.15,22.63-43.67,32.58C482.45,627.86,481.44,628.19,480.44,628.5ZM259.76,568.15c5.34.56,87-.56,140.79-1.48a4.1,4.1,0,0,1,3.24,1.49c.3.36,7.3,9.05,11.91,30.18,1.69,7.68,7.49,14.81,16,19.54,13.28,7.43,31.18,8.12,49.12,1.85,20.08-7,33.88-17,38.87-28.17a19.44,19.44,0,0,0,.55-15.59c-5.47-13.11-19.08-14.84-19.21-14.87a4.12,4.12,0,0,1-3.35-5.61c14.67-37.16-32.3-148-32.76-149.17a4.1,4.1,0,0,1,5.5-5.34,226.24,226.24,0,0,1,46.37,28.83,4.14,4.14,0,0,1,1.46,3.33c-.38,7.9,1.31,13.83,5,17.56,4.84,4.88,11.83,4.64,11.9,4.64a4.19,4.19,0,0,1,3.25,1.37c8.37,9.36,26,8.84,38.45-1.15,7.24-5.78,28.25-28.38-5.48-75.71-29.82-41.88-81.69-64.18-119.93-75.51-46.67-13.84-99.36-19.3-144.55-15-91,8.68-161.12,37.23-214.44,87.3-23.89,22.43-27.33,41.73-26,54,1.21,11.21,7.27,21.35,15.84,26.5,16.08,9.66,30.5-5.44,30.64-5.58a4.08,4.08,0,0,1,3.66-1.25c8.23,1.3,14.27.08,18-3.67,6.54-6.59,4.57-19.48,4.55-19.61a4.11,4.11,0,0,1,1.91-4.19c18.71-11.45,45.4-17.15,46.52-17.38a4.13,4.13,0,0,1,3.71,1.09,4.07,4.07,0,0,1,1.17,3.68c-4,22.1-2.06,49.26-2,49.52a4.1,4.1,0,0,1-1.7,3.64c-21.55,15.53-33.19,37-34.66,63.73a104.31,104.31,0,0,0,4.44,36.27,4.1,4.1,0,0,1-4.66,5.39c-.78-.14-19.38-3.49-23.59,12.78-4.44,17.15,19.2,34.37,43.71,41.84,17.49,5.34,40.93,3.34,54.53-4.63,6.54-3.84,10.5-8.73,11.75-14.49,5.34-24.53,15.72-34.64,16.16-35.06A3.68,3.68,0,0,1,259.76,568.15Zm0,0,.12,0Z" transform="translate(0 -1.01)"/><path class="cls-7" d="M536.93,463.76a4,4,0,0,1-2.3,0,4.13,4.13,0,0,1-2.88-5.06l5-18a4.11,4.11,0,1,1,7.93,2.18l-5,17.95A4.1,4.1,0,0,1,536.93,463.76Z" transform="translate(0 -1.01)"/><path class="cls-7" d="M532.6,437.18c5.9-2.11,12.3.29,16.45,4.62,1.46,1.64,5,6.34,1.59,7.67a2.25,2.25,0,0,1-1.18,0c-4.85-1.21-8.63-3.3-12.92-5.55a27.79,27.79,0,0,1-4.53-3A2.21,2.21,0,0,1,532.6,437.18Z" transform="translate(0 -1.01)"/><path class="cls-5" d="M437.85,433.43c-1.49-59.92-52.31-107.29-113.52-105.8s-109.61,51.28-108.12,111.2,52.32,107.29,113.52,105.8S439.34,493.35,437.85,433.43Z" transform="translate(0 -1.01)"/><path class="cls-7" d="M117.25,458.63a.65.65,0,0,0-.15.05,4.12,4.12,0,0,1-5-2.92l-4.23-15.66a4.11,4.11,0,1,1,7.94-2.12L120,453.63A4.14,4.14,0,0,1,117.25,458.63Z" transform="translate(0 -1.01)"/><path class="cls-7" d="M101.22,438.72c5.46-5.85,16.06-7.47,22-1.59a2.5,2.5,0,0,1-1.72,4.2,61.37,61.37,0,0,0-8.84.55,77.52,77.52,0,0,1-9.5,1.18A2.62,2.62,0,0,1,101.22,438.72Z" transform="translate(0 -1.01)"/><path class="cls-7" d="M197.65,502.24c6,10.93,14.73,20.45,24.38,28.29,29.66,24.06,69,31.66,106.48,30.3,31.53-1.22,63.35-6.48,91.21-21.46,15-8.13,28.86-19.27,37.88-33.91a40.65,40.65,0,0,0,2.13-3.95,2.24,2.24,0,0,1,3-1.24,2.22,2.22,0,0,1,1.18,2.8,52.27,52.27,0,0,1-4.53,9.11c-14.18,22.67-38.13,37.46-63,46a193.62,193.62,0,0,1-28.59,7.4c-50.9,8.82-109.18,5.18-149.58-30.47A107.83,107.83,0,0,1,199,512.58a65.22,65.22,0,0,1-4.71-8.84,1.87,1.87,0,0,1,1-2.45A1.83,1.83,0,0,1,197.65,502.24Z" transform="translate(0 -1.01)"/><path class="cls-7" d="M183.84,411c4.8-22.09,13.87-43.7,28.58-61l3-3.39a2.09,2.09,0,0,1,3.2,2.68c-1.59,2.06-3.94,4.83-5.32,7a114.79,114.79,0,0,0-12.18,22.83A148.54,148.54,0,0,0,192,412.26C191.14,417.85,182.94,416.65,183.84,411Z" transform="translate(0 -1.01)"/><g class="cls-6"><path class="cls-7" d="M534.63,457.4s-22.55,1.2-21.22-26.51A222,222,0,0,0,468,402.65s12.77,29.93,23.08,64.32c-8.46,7.76-22.86,21.76-29.59,32.79-9.86,16.16-18.77,28.46-34.05,36.29,0,0-10.31,67.68,28.95,67.92,36.16.23,58.89-18,60.75-40.87a27.35,27.35,0,0,1,6.21,9.21c6.44,15.5-4.81,36.29-41.84,49.23s-66-4-70.44-24.4S400,568.7,400,568.7,262.6,571,258.42,570.11c0,0-9.84,9.38-15,32.93s-45.8,30-71.5,22.22-51.75-26.48-46.49-46.81a20.83,20.83,0,0,1,5.76-10.23,1.46,1.46,0,0,1,.07.19c11.37,28.53,55.28,40.11,75.15,26s21.58-56.37,3.9-74.29-14.77-40.74-38.19-36.43c-6.95,1.27-12.66,6.56-17.27,13.41,5.21-13.75,14.6-27.58,30.67-39.15,0,0-2.09-27.64,2.09-50.55,0,0-26.9,5.65-45.21,16.86,0,0,5.61,33.24-27.22,28,0,0-16.65,17.8-35.75,6.32-7.31-4.4-13.75-12.45-16.57-22.88,10.88,7.05,27.91,13.27,45.4.81,0,0,29.54,7,22.48-35.8,0,0,38.31-39.64,82.37-53.28,0,0-43.11,151.89,108.24,146.31C508.1,486.89,436.2,343.7,436.2,343.7s45.21,14.63,88.1,67.83A14.56,14.56,0,0,1,527,424.29c-1.27,5-.42,12,11.63,15.51,0,0,10.24,13.27,27.82,4.31s14-56.38,14-56.38l2.13,1.18C618.38,453.62,554.93,480.12,534.63,457.4Z" transform="translate(0 -1.01)"/></g><path class="cls-7" d="M465.18,407.18a251,251,0,0,0-23.36-48.4,132.68,132.68,0,0,0-10.64-14.31,2.33,2.33,0,0,1,.22-3.31,2.29,2.29,0,0,1,3.16.17c8.54,9,15.54,19.24,21.83,29.88a277.1,277.1,0,0,1,16.48,33.09,4.11,4.11,0,1,1-7.69,2.88Z" transform="translate(0 -1.01)"/><path class="cls-5" d="M439.11,501.64c.21,1.08.43,2.15.65,3.27.54,2.74,1,5.58,1.51,8.46.8,4.89,1.45,9.92,1.88,15,1.5,17.14.53,34.41-6.3,46.23-22,38.19-169.94,47.28-194.58,19.59-14.63-16.43-19.86-45.77-21.24-72.49-.25-4.8-.39-9.55-.42-14.08a367.49,367.49,0,0,1,2.28-44.23q11.25,3.83,22.63,6.65c65.62,16.3,132.69,8.55,165,2.94,12.55-2.17,19.87-4,19.87-4A297.21,297.21,0,0,1,439.11,501.64Z" transform="translate(0 -1.01)"/><path class="cls-7" d="M398.75,602.54c-20.39,6.32-42.05,9.07-51.71,10.07-41.43,4.24-92.84,1.12-107.83-15.7-32.39-36.43-20.9-130.08-20.39-134a4.15,4.15,0,0,1,1.91-3,4.1,4.1,0,0,1,3.51-.4c7.15,2.45,14.66,4.65,22.28,6.55,64.33,16,130,8.66,163.34,2.88,12.21-2.11,19.49-3.94,19.56-4a4.1,4.1,0,0,1,4.88,2.65c1,3.06,25.54,75.41,6.14,109C433.4,588.79,416.58,597,398.75,602.54ZM226.43,468.89c-1.91,19.84-7,93.42,18.9,122.53,10.83,12.16,54.19,17.74,100.86,13,44.34-4.52,78.55-17,87.09-31.9,15.27-26.45-1-83.89-5.65-98.69-3.37.76-9,1.92-16.41,3.2-34,5.89-100.92,13.33-166.7-3C238.39,472.49,232.32,470.78,226.43,468.89Z" transform="translate(0 -1.01)"/><path class="cls-5" d="M410.54,473c6.58,25.33,17.37,74.2,7,91.05-11.69,19-144.93,37.17-162.55,7.67C240.2,547,242.37,495.55,245.49,470,311.14,486.32,378.21,478.57,410.54,473Z" transform="translate(0 -1.01)"/><path class="cls-9" d="M410.54,473c6.58,25.33,17.37,74.2,7,91.05-11.69,19-144.93,37.17-162.55,7.67C240.2,547,242.37,495.55,245.49,470,311.14,486.32,378.21,478.57,410.54,473Z" transform="translate(0 -1.01)"/><g class="cls-6"><path class="cls-7" d="M439.11,501.64c-9.61,6.07-21.64,8.27-32.42,5a37.93,37.93,0,0,1-57.54,9.82A40.54,40.54,0,0,1,289,513.87c-14.55,9.6-36.58,5-46-9.71-6.25,4.76-14.81,5.75-22.3,3.45a367.69,367.69,0,0,1,2.28-44.23q11.25,3.84,22.63,6.66c65.62,16.3,132.69,8.54,165,2.93,12.54-2.17,19.87-4,19.87-4A301,301,0,0,1,439.11,501.64Z" transform="translate(0 -1.01)"/></g><path class="cls-10" d="M486,449.26s-9.6,32-42.2,22.11c0,0-10.92,30.52-46.57,16.52,0,0-19,34.55-54.71,6.19,0,0-21.13,28.27-55,1.35,0,0-24.53,20.18-46.41-10.16,0,0-17.29,14.82-34.55-11.7,0,0-18.57,6-25-14.88,0,0-21.25-15.57-12.49-37.23,0,0,0,0,0,0,.19-.47.41-.94.62-1.41,3.54-7.61,14.2-8.73,18.72-1.65l.44.74s17.28-5.23,25.43,12.85c0,0,19.38.78,26.24,22.95,0,0,25.46-13.66,38.7,13.05,0,0,22.25-18.74,45.72,2.76,0,0,24.5-20.62,46.44-4,0,0,20.66-25.62,46.54-9,0,0,6-21.46,34-19.68,0,0,2.62-23.78,18.78-26.95A2.25,2.25,0,0,1,471,411a19.24,19.24,0,0,1,7.3.23c8.81,1.89,16.2,8.72,16.2,8.72S503.67,446.05,486,449.26Z" transform="translate(0 -1.01)"/><g class="cls-8"><path class="cls-5" d="M478.38,411.26c-10.24,7.26-17.22,19.32-17.35,31.95a41.2,41.2,0,0,0-27,8.94,18.61,18.61,0,0,0-4.83,5.37,9,9,0,0,0-.9,7,41.51,41.51,0,0,0-26.52-4,40.07,40.07,0,0,0-23.16,13.65c-15.45-7.5-35.36-5.31-49.37,5.32a54.65,54.65,0,0,0-50.8-3.19c-8.87-13.29-27.41-19.12-42.27-13.28-1.74-7.48-5.4-13.08-10.48-16.79a26.18,26.18,0,0,0-17.77-4.87,17.64,17.64,0,0,0-8.33-13.65,18.1,18.1,0,0,0-16-1.28,8.5,8.5,0,0,0-13.74-3.29c-.32-.59-.6-1.17-.84-1.73,0,0,0,0,0-.06.19-.46.4-.93.61-1.4,3.54-7.62,14.2-8.73,18.72-1.66l.44.74s17.28-5.23,25.43,12.86c0,0,19.38.78,26.24,22.95,0,0,25.46-13.67,38.71,13.05,0,0,22.24-18.74,45.71,2.76,0,0,24.5-20.63,46.44-4,0,0,20.66-25.63,46.54-9,0,0,6-21.46,34-19.69,0,0,2.62-23.77,18.78-26.94A1.53,1.53,0,0,1,471,411,19.63,19.63,0,0,1,478.38,411.26Z" transform="translate(0 -1.01)"/></g><path class="cls-7" d="M425.2,494.12c-7.81,2.42-16.64,2-26.33-1.27-3.38,4.69-11.12,13.46-23.19,15.87-10.36,2.06-21.34-1-32.66-9.12a39.48,39.48,0,0,1-22.38,11.24c-10.84,1.41-22-2.08-33.28-10.35-4.15,2.57-12.58,6.68-22.81,5.35-9-1.17-17.24-6.25-24.46-15.1A23.28,23.28,0,0,1,226,493.27c-7.79-1.11-14.95-6.2-21.33-15.12a24.61,24.61,0,0,1-14.88-2.22c-5.43-2.82-9.4-7.8-11.83-14.78-8.63-6.92-21-23.6-12.05-42.91a15.14,15.14,0,0,1,12.74-8.75,14.29,14.29,0,0,1,12,5c7.5-1.11,19.41.73,26.34,13.64,5.61.95,19,4.93,25.92,21.32,4.79-1.68,12.91-3.48,21.3-.79,6.67,2.12,12.18,6.63,16.44,13.4,7.79-4.56,25.69-11.77,44.45,3.34,9.94-7,28.71-14.46,45.63-4.11,8.71-8.86,26.1-19,45.31-9.39,3.61-6.67,12.71-18.05,32.6-18.07,1.86-7.5,7.66-24.24,22.53-27.06,8.56-1.6,23,7.9,25.77,9.82a4.07,4.07,0,0,1,1.56,2c.59,1.69,5.63,16.89-.18,26.9a15.88,15.88,0,0,1-9.16,7.19c-1.85,4.62-7,15.07-17.69,20.8-7.42,4-15.92,4.88-25.34,2.71-2.37,4.47-7.58,12.15-17,16.41A33,33,0,0,1,425.2,494.12ZM396,484a4,4,0,0,1,2.72.11c10.42,4.1,19.47,4.46,26.91,1.14,10.3-4.65,14.26-15.13,14.3-15.24a4.15,4.15,0,0,1,5.06-2.54c28.18,8.55,36.72-18.22,37.08-19.36a4.12,4.12,0,0,1,3.21-2.85,7.89,7.89,0,0,0,5.9-3.8c3-5.17,1.24-14.35-.06-18.8-5.78-3.76-14.88-8.44-18.45-7.76C459.55,417.33,456,438.48,456,438.68a4.09,4.09,0,0,1-4.32,3.46c-24.18-1.53-29.58,16-29.8,16.7a4.12,4.12,0,0,1-2.51,2.71,4.18,4.18,0,0,1-3.67-.39c-22.39-14.41-40.37,7.19-41.13,8.12a4.13,4.13,0,0,1-5.68.69c-19.11-14.5-41.09,3.66-41.32,3.85a4.14,4.14,0,0,1-5.43-.11c-20.42-18.71-39.51-3.28-40.3-2.63a4.12,4.12,0,0,1-6.33-1.32c-3.46-6.95-8.1-11.41-13.79-13.27-9.51-3.08-19.21,2-19.32,2a4.05,4.05,0,0,1-3.5.15,4.12,4.12,0,0,1-2.36-2.57c-5.88-19-21.82-20-22.5-20.07a4.13,4.13,0,0,1-3.56-2.42C203.86,419,190.53,422.82,190,423a4.12,4.12,0,0,1-4.79-1.95c-.1-.18-.2-.36-.3-.52a6.14,6.14,0,0,0-5.7-2.83,6.84,6.84,0,0,0-5.83,4c-8.81,19,9.76,33.06,10.54,33.65a4.15,4.15,0,0,1,1.49,2.11c5,16.24,18.36,12.63,19.86,12.17a4.15,4.15,0,0,1,4.68,1.67c5.38,8.25,11.12,12.88,17.08,13.79a15.41,15.41,0,0,0,11.39-3,4.12,4.12,0,0,1,6,.74c6.34,8.82,13.45,13.8,21.12,14.83,10.68,1.43,19.25-5.39,19.35-5.44a4.09,4.09,0,0,1,5.15,0c10.25,8.15,20.14,11.68,29.43,10.52,12.34-1.56,19.67-11,19.74-11.13a4.11,4.11,0,0,1,2.76-1.6,4,4,0,0,1,3.07.86c10.44,8.29,20.19,11.6,29,9.81,12.67-2.54,19.48-14.64,19.54-14.76A4.5,4.5,0,0,1,396,484Z" transform="translate(0 -1.01)"/><path class="cls-7" d="M183.58,463.1a4.52,4.52,0,0,1-.53.11,4.11,4.11,0,0,1-4.75-3.36c-4.33-25.4,7.22-43.71,7.72-44.48a4.11,4.11,0,1,1,6.91,4.45,59.47,59.47,0,0,0-6.52,38.66A4.09,4.09,0,0,1,183.58,463.1Z" transform="translate(0 -1.01)"/><path class="cls-7" d="M207.61,477.57a4.12,4.12,0,0,1-4.91-2.12c-11.9-24.35,7.31-46.48,8.14-47.4A4.11,4.11,0,0,1,217,433.5c-.67.75-16.38,19-6.91,38.33a4.13,4.13,0,0,1-1.89,5.51C208,477.42,207.8,477.51,207.61,477.57Z" transform="translate(0 -1.01)"/><path class="cls-7" d="M242.38,489.13a4.1,4.1,0,0,1-4.82-2c-9.4-17.44-1.66-35-1.32-35.79a4.11,4.11,0,1,1,7.51,3.36c-.1.22-6.34,14.77,1.05,28.49a4.15,4.15,0,0,1-1.67,5.59A5.37,5.37,0,0,1,242.38,489.13Z" transform="translate(0 -1.01)"/><path class="cls-7" d="M288.71,499.34a4.17,4.17,0,0,1-3.85-.76c-15.37-12.78-9.77-32.63-9.53-33.46a4.12,4.12,0,1,1,7.9,2.31c-.19.68-4.27,15.55,6.9,24.8a4.12,4.12,0,0,1-1.42,7.11Z" transform="translate(0 -1.01)"/><path class="cls-7" d="M344.06,498.26a4.11,4.11,0,0,1-3.73-.68c-16.64-12.81-19.65-26.75-19.76-27.34a4.1,4.1,0,0,1,8-1.66c.05.23,2.73,11.72,16.71,22.48a4.1,4.1,0,0,1,.76,5.76A3.9,3.9,0,0,1,344.06,498.26Z" transform="translate(0 -1.01)"/><path class="cls-7" d="M399.07,492.05a4,4,0,0,1-2.77-.14,66.12,66.12,0,0,1-29.06-23.67,4.11,4.11,0,1,1,7-4.35,59.06,59.06,0,0,0,25.23,20.43,4.11,4.11,0,0,1-.37,7.73Z" transform="translate(0 -1.01)"/><path class="cls-7" d="M445.38,475.38a4.24,4.24,0,0,1-2.37,0c-21.35-6.31-28.17-15.58-28.87-16.62a4.12,4.12,0,0,1,6.78-4.67c.16.23,6.05,7.95,24.43,13.4a4.11,4.11,0,0,1,2.77,5.12A4.21,4.21,0,0,1,445.38,475.38Z" transform="translate(0 -1.01)"/><path class="cls-7" d="M489.54,452.61a2.6,2.6,0,0,1-.4.1c-23.43,4.78-39.85-12.53-40.53-13.27a4.11,4.11,0,0,1,6-5.62c.18.21,14.07,14.64,32.88,10.81a4.12,4.12,0,0,1,2,8Z" transform="translate(0 -1.01)"/><path class="cls-7" d="M153.33,560.47c10.84,3.06,20.75,11.13,23.83,22.22a1.49,1.49,0,0,1-2.73,1.15c-4-8.74-13.14-14.18-22.49-15.26C145.8,568,147.33,559,153.33,560.47Z" transform="translate(0 -1.01)"/><path class="cls-7" d="M129.27,603.61c0-8.28,3.36-16.94,10.28-21.77a2.24,2.24,0,0,1,3,3.31c-4.59,4.49-6.11,11.41-5.09,17.62C138.85,609.14,129.28,610.17,129.27,603.61Z" transform="translate(0 -1.01)"/><path class="cls-7" d="M145.8,617.39c-.65-8,3.18-15.91,8.77-21.43,1.31-1,2.93-3.66,4.66-2a1.63,1.63,0,0,1,.11,2.06c-4.32,5.41-7.31,12.85-5.48,19.69A4.12,4.12,0,0,1,145.8,617.39Z" transform="translate(0 -1.01)"/><path class="cls-4" d="M347.82,74s75-51.74,106.08-32c38.46,24.48.17,149.78.17,149.78Z" transform="translate(0 -1.01)"/><g class="cls-6"><path class="cls-7" d="M470.72,103c-2.34,42-16.65,88.8-16.65,88.8L347.81,74s11.68-11.9,39.65-22.58c-4.85,16.73,15.8,39.89,27.46,45.44C432.19,105.12,459.85,139.7,470.72,103Z" transform="translate(0 -1.01)"/></g><g class="cls-8"><path class="cls-5" d="M375.94,55.53S419.41,42,438.33,47.34,468.47,72.73,469.82,115c0,0,8.46-53.23-13.54-72.07S375.94,55.53,375.94,55.53Z" transform="translate(0 -1.01)"/></g><path class="cls-7" d="M455.28,195.75l-.33.08a4.08,4.08,0,0,1-3.93-1.26L344.77,76.77a4.08,4.08,0,0,1-1-3.23,4,4,0,0,1,1.74-2.89c3.16-2.17,77.68-53,110.63-32.07,17.44,11.09,22.93,40.73,16.38,88.11A492.38,492.38,0,0,1,458,193.05,4.16,4.16,0,0,1,455.28,195.75ZM354.05,74.8l98.14,108.79c10.71-38.25,27-120.55-.49-138.08C429.5,31.4,377,59.79,354.05,74.8Z" transform="translate(0 -1.01)"/><path class="cls-11" d="M378.35,87.43s44.12-35.58,62.12-22.59c16.23,11.72-2.38,91-2.38,91Z" transform="translate(0 -1.01)"/><g class="cls-6"><path class="cls-7" d="M446.41,104.69c-.44-9.65-2.3-17.28-6.53-20.35-12.38-8.94-37.1,5.11-51.36,14.74L378.33,87.44s44.12-35.58,62.12-22.6C447.3,69.79,448,86.74,446.41,104.69Z" transform="translate(0 -1.01)"/></g><path class="cls-7" d="M439.32,159.76l-.22.07a4.09,4.09,0,0,1-4.08-1.28L375.28,90.17a4.12,4.12,0,0,1,.52-5.92c4.77-3.86,47.13-37.13,67.1-22.71,8.15,5.9,10.3,23.46,6.58,53.74-2.62,21.25-7.31,41.34-7.35,41.52A4.23,4.23,0,0,1,439.32,159.76ZM384.31,88,435.8,147c1.59-7.68,3.92-20,5.49-32.78,4.58-37.18-1.3-44.59-3.23-46C427.56,60.6,400.93,75.42,384.31,88Z" transform="translate(0 -1.01)"/><path class="cls-4" d="M262.89,78.54l-89,137.8A643.16,643.16,0,0,1,158,138.43c-5.55-41.35-5.89-86.13,15.33-98.36,15.32-8.79,39.6,2.58,59,15.2A270.7,270.7,0,0,1,262.89,78.54Z" transform="translate(0 -1.01)"/><g class="cls-6"><path class="cls-7" d="M262.89,78.54l-89,137.8A643.16,643.16,0,0,1,158,138.43l.46-1.59c22.3-1.17,19-27.86,19-27.86l33.8-35.88c12.59-1,18.41-9.87,21.13-17.82A269.15,269.15,0,0,1,262.89,78.54Z" transform="translate(0 -1.01)"/></g><g class="cls-8"><path class="cls-5" d="M157.67,135.68S156,64.91,176.31,50.86c15.94-11,61.07,8.12,61.07,8.12s-41-32.14-65.31-16.92S157.67,135.68,157.67,135.68Z" transform="translate(0 -1.01)"/></g><path class="cls-7" d="M175.14,220.27a4.17,4.17,0,0,1-1.83.14,4.11,4.11,0,0,1-3.34-3,650.24,650.24,0,0,1-16.17-79.61c-7.4-56.28-1.5-90.37,17.52-101.33,31.07-17.9,91.76,36.65,94.33,39a4.12,4.12,0,0,1,.69,5.28l-89,137.8A4.18,4.18,0,0,1,175.14,220.27Zm4-178.19a17.14,17.14,0,0,0-3.65,1.58c-30.15,17.33-11.93,116,.06,162.65l82-127C240.34,64.37,200.69,35.39,179.09,42.08Z" transform="translate(0 -1.01)"/><path class="cls-11" d="M186.24,173.29s-18.35-98.5-5.73-108.81,54.29,29.9,54.29,29.9Z" transform="translate(0 -1.01)"/><g class="cls-6"><path class="cls-7" d="M234.82,94.38l-9,14.64c-10.4-9.39-38.76-33.5-49.63-26.85.29-8.87,1.56-15.45,4.37-17.72C193.15,54.17,234.82,94.38,234.82,94.38Z" transform="translate(0 -1.01)"/></g><path class="cls-7" d="M187.46,177.22A4.13,4.13,0,0,1,182.2,174c0-.25-4.65-25.07-7.65-50.82C169,75.31,173.41,65,177.9,61.29c7-5.68,19-2.11,36.92,11a251.31,251.31,0,0,1,22.84,19.17,4.14,4.14,0,0,1,.66,5.13l-48.55,78.91A4.25,4.25,0,0,1,187.46,177.22ZM184.3,67a3.24,3.24,0,0,0-1.19.63c-.62.51-6,6.4-.38,54.57,1.76,15.21,4.1,30.07,5.7,39.66l41.11-66.82C212.21,78.87,191.39,64.85,184.3,67Z" transform="translate(0 -1.01)"/><path class="cls-4" d="M302.43,43.17l-3.59-5.67s-8.13,7.28-18.24-1.28-.42-31.45,22.84-31.08c25.79.41,34.71,30.77,14.87,38.73C318.29,43.87,312.77,40.49,302.43,43.17Z" transform="translate(0 -1.01)"/><g class="cls-6"><path class="cls-7" d="M463.49,303.86c-10.79,30.56-61.75,65.6-143.13,66.76-65,.93-128.35-24.12-143.78-54,34.23-14.84,76.56-26.31,129.84-31.38C352.09,280.91,410.76,286.35,463.49,303.86Z" transform="translate(0 -1.01)"/></g><g class="cls-8"><path class="cls-5" d="M328,22A37.67,37.67,0,0,0,287,19.56c-4.47,2.55-8.63,6.38-9.69,11.4A6.64,6.64,0,0,1,276,25.91a14.92,14.92,0,0,1,1.74-5.06A28.94,28.94,0,0,1,288.62,8.78a25.47,25.47,0,0,1,16-2.91A34.45,34.45,0,0,1,319.79,12C323.31,14.48,326.54,17.59,328,22Z" transform="translate(0 -1.01)"/></g><path class="cls-7" d="M319.51,47.8a4,4,0,0,1-3.37-.43c-.11-.06-4.4-2.38-12.67-.22a4.1,4.1,0,0,1-4.5-1.79l-1.44-2.27c-4.8,2.08-12.07,2.62-19.57-3.72-5.38-4.54-6.91-12.18-4-19.93C277.18,10.77,286.87.75,303.52,1c17.28.27,27.31,12.08,29.32,23,1.93,10.47-3.17,19.78-13,23.7A1.9,1.9,0,0,1,319.51,47.8Zm-15.16-9.25a26.88,26.88,0,0,1,13.9.81c5.2-2.72,7.59-7.8,6.47-13.88-1.42-7.67-8.71-16-21.35-16.2C291,9.09,283.93,16.2,281.62,22.34c-1.29,3.45-1.53,8.09,1.62,10.76,7.31,6.16,12.63,1.54,12.85,1.35a4.12,4.12,0,0,1,6.22.88Z" transform="translate(0 -1.01)"/><path class="cls-7" d="M295.32,39.33a19,19,0,0,0-4.18-9.28,8.32,8.32,0,0,0-2.75-1.88,2.23,2.23,0,0,1-1.11-2.92c1.39-2.71,5.26-.44,7.13.55a24.24,24.24,0,0,1,7.72,9,21.4,21.4,0,0,1,1.21,2.58C305.36,43.33,296.3,45.57,295.32,39.33Z" transform="translate(0 -1.01)"/><path class="cls-11" d="M336.36,58.81C336.1,48.87,324.72,41.1,311,41.46S286.24,50.17,286.5,60.1s11.64,17.71,25.41,17.35S336.62,68.75,336.36,58.81Z" transform="translate(0 -1.01)"/><path class="cls-7" d="M322,80a37,37,0,0,1-10,1.62,34.36,34.36,0,0,1-20.19-5.53c-5.91-4-9.27-9.67-9.42-15.83S285.3,48.28,291,44a34.24,34.24,0,0,1,19.86-6.56c16-.41,29.3,9.16,29.61,21.36C340.72,68.24,333,76.55,322,80ZM303.15,46.87A22.85,22.85,0,0,0,296,50.5c-3.55,2.69-5.44,6.08-5.35,9.53s2.16,6.73,5.84,9.26a26.13,26.13,0,0,0,15.34,4.1c11.27-.3,20.64-6.89,20.45-14.43s-9.9-13.63-21.18-13.33A28,28,0,0,0,303.15,46.87Z" transform="translate(0 -1.01)"/><path class="cls-4" d="M477.4,275.45c-21.53,51.78-102.76,66-156.46,67.77-117.89,3.86-166.42-36.08-170.35-84.62-2-25,5.14-35.46,18.84-72.75,2.81-7.66,5.9-16.42,9.25-26.69,1.72-5.29,3.5-11,5.36-17.1C205,72.74,266,57.43,312.22,57.67c49.46.25,110.67,11.06,143.33,105.39l.53,1.46c1.21,3.38,2.63,7,4.15,10.87C471.76,204.57,489.93,245.29,477.4,275.45Z" transform="translate(0 -1.01)"/><g class="cls-8"><path class="cls-5" d="M455.55,163.06C422.89,68.73,361.69,57.94,312.22,57.67,266,57.44,205,72.73,184,142.06c-1.86,6.14-3.64,11.81-5.36,17.1l1,1.71S200.23,111.11,233.15,89a75.23,75.23,0,0,1,6.73-4,7.05,7.05,0,0,0,.34,2.32c2.08,6.71,13.29,9.22,25,5.57s19.59-12,17.51-18.75a7.72,7.72,0,0,0-1.26-2.39c37-6.66,81.86-4.12,108.69,14.34,41,28.23,64.48,82.62,64.48,82.62l1.38-4.14C455.9,164,455.73,163.56,455.55,163.06Z" transform="translate(0 -1.01)"/></g><path class="cls-12" d="M406,334.13c-32.56,10.08-66.77,12.61-84.94,13.19-56,1.84-99.8-6-130.08-23.21-26.9-15.32-42.29-37.85-44.51-65.19-1.67-20.76,2.71-32,11.44-54.42,5.53-14.23,13.12-33.71,22.16-63.64,23.11-76.45,92.72-87.52,132.15-87.31,22.74.12,52.37,2.28,80,18,30.15,17.13,52.15,46.63,67.24,90.22,1.87,5.44,4.39,11.72,7.06,18.35,11.39,28.4,27,67.33,14.69,96.94C471.12,301.24,448,319.73,412.57,332,410.41,332.74,408.2,333.45,406,334.13ZM261.89,68.79c-30,9.3-60.49,30.06-73.91,74.48-9.17,30.2-16.82,49.87-22.4,64.23-8.53,21.92-12.42,31.91-10.9,50.78,4.42,54.67,64.95,84.14,166.11,80.85,29.89-1,129.24-8.57,152.8-65.24,11-26.52-3.26-62.12-14.74-90.72-2.7-6.73-5.24-13.1-7.2-18.73-31.13-89.95-88-102.36-139.48-102.63C298.17,61.72,280.11,63.14,261.89,68.79Z" transform="translate(0 -1.01)"/><path class="cls-7" d="M406,334.13c-32.56,10.08-66.77,12.61-84.94,13.19-56,1.84-99.8-6-130.08-23.21-26.9-15.32-42.29-37.85-44.51-65.19-1.67-20.76,2.71-32,11.44-54.42,5.53-14.23,13.12-33.71,22.16-63.64,23.11-76.45,92.72-87.52,132.15-87.31,22.74.12,52.37,2.28,80,18,30.15,17.13,52.15,46.63,67.24,90.22,1.87,5.44,4.39,11.72,7.06,18.35,11.39,28.4,27,67.33,14.69,96.94C471.12,301.24,448,319.73,412.57,332,410.41,332.74,408.2,333.45,406,334.13ZM261.89,68.79c-30,9.3-60.49,30.06-73.91,74.48-9.17,30.2-16.82,49.87-22.4,64.23-8.53,21.92-12.42,31.91-10.9,50.78,4.42,54.67,64.95,84.14,166.11,80.85,29.89-1,129.24-8.57,152.8-65.24,11-26.52-3.26-62.12-14.74-90.72-2.7-6.73-5.24-13.1-7.2-18.73-31.13-89.95-88-102.36-139.48-102.63C298.17,61.72,280.11,63.14,261.89,68.79Z" transform="translate(0 -1.01)"/><path class="cls-5" d="M307.7,210.82c-22.06.53-33.65,18.37-33.65,18.37s-39.29,19.86-27.53,49.91c12.72,32.54,106.71,37.44,121.1,7.5,15-31.26-20.58-52-20.58-52S334.54,210.18,307.7,210.82Z" transform="translate(0 -1.01)"/><path class="cls-7" d="M291.19,227.91c-4.86,4.79,4.31,12.44,11.44,17.11a11.86,11.86,0,0,0,11.76.74c7.16-3.51,17.72-9.78,14.81-15C325.1,223.24,298.54,220.68,291.19,227.91Z" transform="translate(0 -1.01)"/><path class="cls-7" d="M308.82,260.81a4.35,4.35,0,0,1-1.49.17,4.12,4.12,0,0,1-3.83-4.38l1-15a4.11,4.11,0,1,1,8.21.56l-1,15A4.11,4.11,0,0,1,308.82,260.81Z" transform="translate(0 -1.01)"/><path class="cls-7" d="M336,277.21a4.13,4.13,0,0,1-4.21-1.1c-25.12-26.52-50.49-6.12-51.57-5.23a4.11,4.11,0,0,1-5.26-6.32c.32-.27,32.3-26.28,62.78,5.9a4.11,4.11,0,0,1-.15,5.8A3.8,3.8,0,0,1,336,277.21Z" transform="translate(0 -1.01)"/><path class="cls-7" d="M270.76,188a30.66,30.66,0,0,1,1.2,8.79c-.14,13.82-9.2,24.93-20.29,24.82s-19.94-11.41-19.82-25.22c.1-11.17,6-20.56,14.17-23.72C251.66,177.94,260.5,184.75,270.76,188Z" transform="translate(0 -1.01)"/><path class="cls-7" d="M278.5,191.91c-8.28-.58-16.16-3.76-23.21-7.95a90.27,90.27,0,0,1-14.67-11c-1.53-1.41-2.92-2.76-4.44-4.44a4.12,4.12,0,1,1,6.34-5.24,79.49,79.49,0,0,0,7.51,8.21,68.21,68.21,0,0,0,18.33,12.89,40.47,40.47,0,0,0,10.58,3.24A2.18,2.18,0,0,1,278.5,191.91Z" transform="translate(0 -1.01)"/><path class="cls-5" d="M265.64,200.84c1.11-4-.43-8-3.44-8.79s-6.35,1.74-7.46,5.76.42,7.95,3.43,8.79S264.52,204.86,265.64,200.84Z" transform="translate(0 -1.01)"/><g class="cls-13"><path class="cls-5" d="M247.73,201c-.61-3.64-2.93-6.28-5.19-5.9s-3.58,3.63-3,7.27,2.93,6.29,5.18,5.91S248.34,204.64,247.73,201Z" transform="translate(0 -1.01)"/></g><path class="cls-7" d="M352.64,188a30.55,30.55,0,0,0-1.3,8.78c0,13.83,9,25.05,20,25.07s20.06-11.16,20.08-25c0-11.16-5.84-20.63-13.93-23.86C371.84,178.16,362.93,184.87,352.64,188Z" transform="translate(0 -1.01)"/><path class="cls-7" d="M344.49,187.72c14.85-2.4,27.29-12.87,36.66-24.15,3.39-4.26,9.79.58,6.55,5-8.63,9-19,16.39-30.74,20.57a44.22,44.22,0,0,1-12.1,2.41,1.93,1.93,0,0,1-2-1.85A1.87,1.87,0,0,1,344.49,187.72Z" transform="translate(0 -1.01)"/><path class="cls-5" d="M370.55,199.2c-.36-4.31-3.26-7.6-6.49-7.33s-5.55,4-5.19,8.3,3.26,7.6,6.49,7.33S370.91,203.52,370.55,199.2Z" transform="translate(0 -1.01)"/><g class="cls-13"><path class="cls-5" d="M384.21,206.76c.38-3.19-1.24-6-3.63-6.31s-4.64,2.06-5,5.25,1.24,6,3.63,6.31S383.82,210,384.21,206.76Z" transform="translate(0 -1.01)"/></g><path class="cls-7" d="M500.84,561.12c-10.92-1.64-22.11,3.59-28.66,12.33-1.05,1.35-1.94,2.86-2.95,4.29a1.92,1.92,0,0,1-3.26-2c5.14-11.19,14.9-19.75,27.16-22.07a32.48,32.48,0,0,1,9.49-.61C508.66,554,506.76,562.79,500.84,561.12Z" transform="translate(0 -1.01)"/><path class="cls-7" d="M483.93,619.81c1.28-9.59-3.92-19.09-9.84-26.39a1.91,1.91,0,0,1,.24-2.77,1.89,1.89,0,0,1,2.47.14c1,1,2,1.91,2.95,2.87,5.89,6.2,10.65,13.81,12,22.43a20.53,20.53,0,0,1,.28,5A4.11,4.11,0,0,1,483.93,619.81Z" transform="translate(0 -1.01)"/><path class="cls-7" d="M513.15,602a28.84,28.84,0,0,0-7.21-17.66,2,2,0,0,1,.23-2.81,2,2,0,0,1,2.5,0,32.89,32.89,0,0,1,4.28,3.89,35.33,35.33,0,0,1,8.42,16.17C522.28,607.79,513,608.31,513.15,602Z" transform="translate(0 -1.01)"/><g class="cls-6"><path class="cls-7" d="M477.4,275.45c-21.53,51.78-102.76,66-156.46,67.77-117.89,3.86-166.42-36.08-170.35-84.62-2-25,5.14-35.46,18.84-72.75-2.41,20.47-6.65,63.52,5.74,86,19.4,35.23,76.55,53.87,127.73,52.78S414.34,313.89,442.49,289c50.05-44.27,16.78-113.71,17.72-113.6C471.76,204.57,489.93,245.29,477.4,275.45Z" transform="translate(0 -1.01)"/></g><g class="cls-6"><path class="cls-7" d="M486,449.26s-9.6,32-42.2,22.11c0,0-10.92,30.52-46.57,16.52,0,0-19,34.55-54.71,6.19,0,0-21.13,28.27-55,1.35,0,0-24.53,20.18-46.41-10.16,0,0-17.29,14.82-34.55-11.7,0,0-18.57,6-25-14.88,0,0-21.29-15.61-12.46-37.28a13.87,13.87,0,0,0,14.78,15.53A14.74,14.74,0,0,0,204,454.55c3.68,12.47,19.52,19.65,31.31,14.19a28.1,28.1,0,0,0,43.13,12.54,35.46,35.46,0,0,0,27.36,14.25,36.13,36.13,0,0,0,27.68-12.33,27.71,27.71,0,0,0,23.71,9.46c8.81-1,17-6.56,20.61-14.05,9.48,2.35,19.21,4.52,28.89,3.4s19.45-6.21,23.39-15.76a30.73,30.73,0,0,0,24.61-.67,28.11,28.11,0,0,0,15.5-19.22c7.44-.61,12.2-9.32,10.87-16.69s-7-13.2-13.21-17.4c1-.44,2.06-.88,3.13-1.26,11.6-2,23.51,9,23.51,9S503.67,446.05,486,449.26Z" transform="translate(0 -1.01)"/></g><g class="cls-6"><path class="cls-7" d="M443.15,528.35c1.5,17.14.53,34.41-6.3,46.23-22,38.19-169.94,47.28-194.58,19.59-14.63-16.43-19.86-45.77-21.24-72.49a64.28,64.28,0,0,1,1.36-6.9c-.36,2.3-13.84,95.74,119.09,83.41C428.24,590.15,443.38,553.43,443.15,528.35Z" transform="translate(0 -1.01)"/></g><g class="cls-6"><path class="cls-7" d="M280.62,13.73c-1,3.91-1.83,8.37.11,11.86,1.81,3.25,6.72,3,10.33,1.28,3.62,2.94,8.71,3.41,13.32,2.8,4.82-.64,9.67-2.48,12.85-6.12s4.18-9.46,1.44-13.47a21.82,21.82,0,0,1,8.74,22.69,10.85,10.85,0,0,1-3.88,6.46c-3.45,2.42-8.14,1.33-12.36,1.28A23.93,23.93,0,0,0,298.5,44c-.79-2.68-3.77-4.09-6.49-4.6s-5.67-.49-8.15-1.76a12.23,12.23,0,0,1-5.58-6.56C274.3,20.59,277.41,18.17,280.62,13.73Z" transform="translate(0 -1.01)"/></g></g></svg>