<svg width="626" height="624" viewBox="0 0 626 624" fill="none" xmlns="http://www.w3.org/2000/svg">
<ellipse cx="313" cy="316.5" rx="313" ry="299.5" fill="#FEB16C"/>
<g clip-path="url(#clip0_269_427)">
<path d="M26.0624 240.742C20.2572 224.256 35.8843 197.652 57.0689 189.106C89.8639 175.9 126.263 194.978 134.929 221.085C144.806 250.777 130.857 269.028 113.442 286.424C81.39 318.431 103.95 356.918 87.7179 361.329C70.0549 366.153 58.9673 321.877 68.184 295.218C76.6579 270.71 99.8509 255.767 97.2922 240.108C95.724 230.486 87.6904 225.855 78.5012 225.524C60.7006 224.835 52.6394 241.156 46.174 246.476C39.4059 252.045 29.4739 250.419 26.0624 240.742Z" fill="white"/>
<path d="M113.442 286.424C81.3899 318.431 103.95 356.918 87.7453 361.356C70.0548 366.153 58.9673 321.878 68.1839 295.218C72.1182 283.888 79.189 274.569 85.4068 266.299C92.6151 256.705 98.6678 248.517 97.2922 240.108C95.724 230.487 87.6903 225.883 78.5011 225.524C60.7281 224.835 52.6394 241.128 46.1739 246.477C39.4059 252.045 29.4738 250.419 26.0623 240.742C25.6221 239.446 25.2919 238.096 25.0994 236.69C22.7608 220.203 37.5625 196.99 57.0689 189.106C89.8638 175.928 126.263 194.978 134.929 221.086C144.806 250.777 130.857 269.028 113.442 286.424Z" fill="white"/>
<path d="M113.442 286.424C97.9525 301.918 95.2012 318.928 94.706 332.878V332.905C94.1558 347.737 96.1091 359.068 87.7453 361.356C78.7763 363.81 71.4854 353.582 67.6887 339.439C64.0296 325.737 63.6444 308.341 68.1839 295.246C72.1182 283.915 79.189 274.597 85.4068 266.326C92.6151 256.732 98.6678 248.544 97.2922 240.136C95.724 230.514 87.6903 225.91 78.5011 225.552C60.7281 224.863 52.6394 241.156 46.1739 246.504C39.4059 252.073 29.4738 250.446 26.0623 240.77C25.6221 239.474 25.2919 238.123 25.0994 236.717C22.7608 220.203 37.5625 196.99 57.0689 189.106C89.8638 175.928 126.263 194.978 134.929 221.086C144.806 250.777 130.857 269.028 113.442 286.424Z" fill="#AE88DD"/>
<g opacity="0.4">
<path d="M136.167 253.617C137.295 246.173 136.663 237.902 133.499 228.419C128.354 212.925 113.139 199.968 94.8436 195.143C95.2287 195.749 95.4488 196.356 95.4488 197.018C95.4488 200.822 88.4882 203.882 79.8768 203.882C71.2653 203.882 64.3047 200.822 64.3047 197.018C64.3047 196.273 64.5798 195.556 65.075 194.895C62.6264 195.529 60.1778 196.301 57.7292 197.293C39.4884 204.654 25.4845 225.8 26.42 241.652C26.2824 241.348 26.1723 241.045 26.0623 240.714C25.6221 239.419 25.2919 238.068 25.0994 236.662C22.7608 220.176 37.5625 196.962 57.0689 189.078C89.8638 175.9 126.263 194.95 134.929 221.058C139.139 233.739 139.029 244.298 136.167 253.617Z" fill="white"/>
</g>
<path d="M94.706 332.905C94.1558 347.737 96.1091 359.068 87.7453 361.356C78.7763 363.81 71.4854 353.581 67.6887 339.439C71.5405 344.098 76.9329 348.591 83.2058 347.93C89.121 347.296 92.6426 340.211 94.706 332.905Z" fill="#AE88DD"/>
<path d="M85.4068 266.299C92.6151 256.705 98.6678 248.517 97.2922 240.108C95.724 230.487 87.6903 225.883 78.5011 225.524C60.7281 224.835 52.6394 241.128 46.1739 246.476C39.4059 252.045 29.4739 250.419 26.0623 240.742C25.6221 239.446 25.292 238.096 25.0994 236.69C30.0241 241.101 37.48 245.456 43.6153 239.474C52.0341 231.286 62.2688 210.223 81.5275 211.078C100.979 211.96 117.486 236.248 85.4068 266.299Z" fill="#AE88DD"/>
<path d="M85.0491 365.574C81.6925 365.574 77.6207 364.306 73.6039 359.978C61.6634 347.13 57.2614 315.068 64.5523 293.978C68.5966 282.261 75.7223 272.805 81.9952 264.479C88.7908 255.464 94.6509 247.662 93.4954 240.742C91.8997 230.955 82.3804 229.521 78.3635 229.384C66.7533 228.942 59.7926 237.048 54.2351 243.554C52.2267 245.897 50.4659 247.937 48.65 249.454C44.248 253.065 38.608 254.389 33.4906 252.955C28.3458 251.521 24.439 247.634 22.4581 242.038C15.8551 223.318 32.6102 194.812 55.6657 185.549C72.0632 178.96 90.9643 179.567 107.527 187.258C122.741 194.316 134.076 206.226 138.616 219.9C149.401 252.349 132.701 272.667 116.193 289.181C98.5852 306.714 98.4752 326.564 98.4201 341.065C98.3651 352.534 98.3101 362.459 88.7633 365.05C87.6628 365.354 86.3972 365.574 85.0491 365.574ZM77.4006 221.637C77.8133 221.637 78.226 221.637 78.6387 221.664C90.7442 222.133 99.3556 228.97 101.061 239.474C102.712 249.647 95.944 258.662 88.103 269.083C82.1603 276.968 75.4472 285.9 71.788 296.486C64.9649 316.226 70.1648 344.98 79.1889 354.712C82.8756 358.682 85.7644 357.882 86.6998 357.634C90.2765 356.669 90.6616 352.065 90.6891 341.038C90.7717 326.095 90.8542 303.516 110.691 283.694C126.896 267.511 140.652 250.612 131.243 222.326C127.473 210.83 117.376 200.326 104.28 194.233C89.6437 187.424 72.9436 186.872 58.527 192.689C39.5984 200.298 24.5216 224.78 29.6939 239.474C30.8219 242.644 32.8854 244.795 35.5266 245.511C38.2228 246.256 41.2767 245.511 43.7253 243.471C45.0459 242.396 46.5866 240.577 48.3749 238.509C54.18 231.755 62.8465 221.637 77.4006 221.637Z" fill="#000072"/>
<path d="M92.395 377.015C85.1042 378.725 80.7022 387.519 81.39 394.108C82.463 404.474 91.0744 410.07 100.841 407.534C107.252 405.88 113.002 398.74 111.984 391.351C110.966 383.88 102.244 374.727 92.395 377.015Z" fill="#AE88DD"/>
<g opacity="0.4">
<path d="M110.14 400.173C110.361 398.987 110.416 397.774 110.223 396.534C109.288 389.917 101.584 381.784 92.8901 383.825C86.4246 385.341 82.5454 393.115 83.1782 398.96C83.2607 399.622 83.3432 400.256 83.4808 400.862C82.4078 398.932 81.665 396.672 81.3899 394.108C80.702 387.519 85.0765 378.724 92.3949 377.015C102.244 374.699 110.966 383.88 111.984 391.378C112.424 394.494 111.654 397.554 110.14 400.173Z" fill="white"/>
</g>
<path d="M100.869 407.534C91.1017 410.07 82.4903 404.474 81.4173 394.108C81.2247 392.343 81.4173 390.386 81.9125 388.484C83.6733 396.534 90.9091 400.724 99.0528 398.602C104.72 397.14 109.81 390.91 109.095 384.376C110.663 386.609 111.709 389.063 112.039 391.351C113.029 398.767 107.252 405.88 100.869 407.534Z" fill="#AE88DD"/>
<path d="M96.2192 412C92.34 412 88.6533 410.897 85.5719 408.747C81.0598 405.604 78.2261 400.559 77.5933 394.521C76.7129 386.223 82.2429 375.444 91.5421 373.266C96.5219 372.108 101.777 373.183 106.344 376.326C111.379 379.772 115.093 385.479 115.836 390.855C117.184 400.559 109.7 409.243 101.859 411.283C99.9334 411.779 98.0626 412 96.2192 412ZM95.5039 380.516C94.7886 380.516 94.0458 380.599 93.2754 380.764C88.103 381.977 84.719 388.704 85.2417 393.722C85.6269 397.499 87.3052 400.587 89.9464 402.434C92.6426 404.308 96.1642 404.805 99.9059 403.84C104.445 402.654 108.958 397.306 108.215 391.93C107.774 388.649 105.271 384.955 101.997 382.694C100.429 381.619 98.2001 380.516 95.5039 380.516Z" fill="#000072"/>
</g>
<path d="M430.044 519.338C452.319 539.487 504.058 542.828 525.503 517.759C540.872 499.777 541.642 469.361 529.35 444.373C515.276 415.739 498.388 385.324 508.594 360.72C514.264 347.072 528.5 340.693 539.779 345.046C544.821 346.99 551.281 352.782 546.441 372.566C541.561 392.573 550.147 399.357 553.427 401.058C569.384 409.219 593.826 396.563 597.957 366.228C601.784 338.02 584.815 304.607 547.332 300.335C496.95 294.584 470.504 336.886 471.941 369.387C474.27 421.774 518.354 458.71 502.924 487.303C492.515 506.581 454.567 502.187 438.347 482.524" fill="white"/>
<path d="M430.024 519.338C452.299 539.487 504.058 542.828 525.482 517.759C540.852 499.777 541.622 469.361 529.33 444.393C515.256 415.739 498.368 385.344 508.594 360.74C514.264 347.092 528.5 340.713 539.779 345.067C544.821 347.011 551.281 352.802 546.441 372.587C541.561 392.594 550.147 399.398 553.427 401.078C569.384 409.239 593.826 396.583 597.937 366.248C601.784 338.04 584.795 304.628 547.312 300.355C544.943 300.092 542.634 299.909 540.366 299.849C494.5 298.553 470.564 338.425 471.941 369.387C474.27 421.774 518.354 458.71 502.904 487.303C492.495 506.601 454.547 502.187 438.326 482.524L430.024 519.338Z" fill="white"/>
<path d="M430.024 519.338C452.299 539.487 504.058 542.828 525.482 517.758C540.852 499.776 541.622 469.361 529.33 444.393C521.756 428.962 513.353 413.005 508.817 397.716C508.796 397.676 508.776 397.635 508.776 397.595C504.929 384.574 503.896 372.06 508.594 360.76C514.264 347.112 528.5 340.713 539.779 345.087H539.799C544.841 347.031 551.301 352.822 546.461 372.606C541.581 392.613 550.147 399.417 553.448 401.098C564.322 406.667 579.145 402.556 588.784 389.758C593.279 383.784 596.641 375.927 597.957 366.288C601.805 338.08 584.815 304.668 547.332 300.395C544.963 300.111 542.654 299.949 540.386 299.889C494.52 298.593 470.585 338.465 471.962 369.427C474.29 421.814 518.375 458.75 502.924 487.343C492.515 506.641 454.567 502.227 438.347 482.564L430.024 519.338Z" fill="white"/>
<path d="M430.024 519.338C452.299 539.487 504.058 542.828 525.482 517.759C534.534 507.168 538.523 492.264 537.754 476.671C537.754 476.671 537.754 476.671 537.754 476.651C537.227 465.797 534.372 454.619 529.33 444.373C521.756 428.942 513.353 412.985 508.817 397.696C508.796 397.656 508.776 397.615 508.776 397.575C504.929 384.554 503.896 372.04 508.594 360.74C514.264 347.092 528.5 340.693 539.779 345.067H539.799C544.841 347.011 551.301 352.802 546.461 372.586C541.581 392.593 550.147 399.397 553.448 401.078C564.322 406.647 579.145 402.536 588.784 389.738C593.279 383.764 596.641 375.907 597.957 366.268C601.805 338.06 584.815 304.648 547.332 300.375C544.963 300.091 542.654 299.929 540.386 299.869C494.52 298.573 470.585 338.445 471.962 369.407C474.29 421.794 518.375 458.73 502.924 487.323C497.983 496.476 486.845 500.303 474.776 499.675C461.391 499.007 446.872 492.892 438.326 482.544L430.024 519.338Z" fill="white"/>
<g opacity="0.2">
<path d="M430.024 519.338C452.299 539.487 504.058 542.828 525.482 517.759C534.534 507.168 538.523 492.264 537.754 476.671C537.531 478.575 532.408 519.844 495.229 518.569C477.733 517.961 474.392 508.099 474.797 499.655C461.411 498.987 446.892 492.871 438.347 482.524L430.024 519.338Z" fill="#000072"/>
</g>
<g opacity="0.2">
<path d="M508.797 397.575C504.949 384.554 503.916 372.04 508.614 360.74C514.284 347.092 528.52 340.693 539.799 345.067H539.819C544.862 347.011 551.321 352.802 546.482 372.586C541.601 392.593 550.167 399.397 553.468 401.078C564.342 406.647 579.165 402.536 588.804 389.738C584.248 392.877 577.626 395.935 569.142 395.935C551.18 395.935 551.929 377.993 554.642 365.681C556.971 355.07 557.599 332.208 537.572 330.061C517.585 327.935 493.305 351.607 508.797 397.575Z" fill="#000072"/>
</g>
<path d="M539.779 345.047C544.842 346.991 551.301 352.782 546.462 372.566C541.581 392.573 550.147 399.377 553.448 401.058C564.322 406.627 579.145 402.516 588.784 389.718C584.228 392.857 577.606 395.915 569.121 395.915C551.16 395.915 551.909 377.973 554.622 365.661C556.668 356.346 557.397 337.635 544.052 331.722C544.963 334.051 545.753 336.339 544.923 338.324C544.011 340.592 541.602 342.252 539.779 345.047Z" fill="#FF9343"/>
<path d="M539.799 345.046C544.841 346.99 551.301 352.782 546.482 372.566C541.601 392.573 550.187 399.377 553.468 401.058C569.425 409.219 593.867 396.562 597.977 366.228C601.825 338.02 584.835 304.607 547.352 300.334C544.983 300.071 542.675 299.889 540.407 299.828C542.128 305.134 546.137 307.341 546.968 309.994C548.709 315.603 542.918 320.665 542.472 325.141C542.027 329.494 546.583 334.456 544.963 338.323C544.011 340.591 541.601 342.232 539.799 345.046Z" fill="#FFAD40"/>
<path d="M539.779 345.047C544.842 346.991 551.301 352.782 546.462 372.566C541.581 392.573 550.147 399.377 553.448 401.058C564.322 406.627 579.145 402.516 588.784 389.718C584.228 392.857 577.606 395.915 569.121 395.915C551.16 395.915 551.909 377.973 554.622 365.661C556.668 356.346 557.397 337.635 544.052 331.722C544.963 334.051 545.753 336.339 544.923 338.324C544.011 340.592 541.602 342.252 539.779 345.047Z" fill="#FF9343"/>
<g opacity="0.5">
<path d="M487.412 323.804C498.914 311.796 515.398 303.635 536.579 304.222C538.847 304.283 541.156 304.445 543.525 304.728C547.838 305.214 551.888 306.105 555.655 307.32C554.177 307.786 553.002 308.596 552.293 309.791C549.904 313.719 553.346 320.159 559.968 324.168C566.59 328.178 573.88 328.239 576.269 324.31C577.059 323.014 577.201 321.455 576.816 319.794C590.768 333.099 596.58 352.883 594.17 370.622C592.854 380.261 589.493 388.118 585.017 394.071C586.354 392.755 587.63 391.317 588.824 389.718C593.32 383.744 596.681 375.887 597.998 366.248C601.845 338.04 584.855 304.627 547.373 300.354C545.003 300.071 542.695 299.909 540.427 299.848C516.755 299.18 498.955 309.447 487.412 323.804Z" fill="white"/>
</g>
<path d="M479.11 538.677C459.204 538.677 439.582 532.258 427.898 521.687L432.15 516.969C443.774 527.479 464.348 533.432 484.517 532.156C501.203 531.083 514.892 525.231 523.073 515.673C537.187 499.169 538.604 470.414 526.495 445.75C525.442 443.623 524.389 441.497 523.336 439.351C509.728 411.932 495.654 383.602 505.678 359.485C511.793 344.722 527.629 336.926 540.953 342.07C547.717 344.682 554.703 352.235 549.56 373.315C544.983 392.067 553.225 397.352 554.926 398.223C560.92 401.281 568.331 400.957 575.257 397.332C585.726 391.864 592.854 380.362 594.839 365.803C596.864 350.919 592.652 335.063 583.559 323.379C574.791 312.1 562.135 305.215 546.988 303.493C521.837 300.618 505.394 310.419 496.059 319.147C482.35 331.945 474.331 351.142 475.141 369.245C476.214 393.241 486.339 414.058 495.29 432.425C505.698 453.789 514.689 472.237 505.739 488.821C501.506 496.678 493.042 501.599 481.945 502.693C465.016 504.353 446.102 496.901 435.917 484.569L440.817 480.519C449.585 491.13 466.616 497.812 481.317 496.354C490.268 495.484 496.95 491.737 500.15 485.804C507.541 472.095 499.623 455.814 489.579 435.22C480.365 416.306 469.916 394.861 468.803 369.549C467.912 349.623 476.7 328.543 491.726 314.53C502.053 304.891 520.136 294.077 547.717 297.216C564.605 299.14 578.72 306.855 588.581 319.511C598.686 332.512 603.384 350.149 601.136 366.694C598.868 383.339 590.505 396.562 578.193 403.002C569.405 407.599 559.867 407.923 552.03 403.913C548.588 402.151 537.835 394.659 543.404 371.857C546.664 358.533 545.064 350.514 538.685 348.043C528.54 344.115 516.39 350.372 511.571 361.975C502.681 383.42 516.086 410.454 529.067 436.597C530.14 438.743 531.193 440.89 532.246 443.016C545.449 469.867 543.667 501.478 527.953 519.865C518.658 530.739 503.39 537.381 484.982 538.555C482.998 538.616 481.054 538.677 479.11 538.677Z" fill="#000072"/>
<path d="M336.084 309.548C293.964 339.437 248.28 418.696 251.075 468.329C253.262 507.391 281.875 509.963 321.281 504.779C339.385 502.389 381.221 380.322 381.221 380.322L336.084 309.548Z" fill="#FFAD40"/>
<path d="M381.221 380.302C381.221 380.302 362.936 433.661 345.318 470.516C336.287 489.409 327.417 503.948 321.281 504.758C281.875 509.942 253.262 507.371 251.075 468.308C250.649 460.816 251.338 452.635 252.958 444.069C262.01 395.874 300.343 334.922 336.104 309.548L381.221 380.302Z" fill="white"/>
<path d="M357.792 343.568C338.292 341.645 323.347 335.995 313.06 330.284C320.634 322.043 328.43 314.975 336.084 309.548L357.792 343.568Z" fill="#FFAD40"/>
<path d="M357.792 343.568C338.292 341.645 323.347 335.995 313.06 330.284C320.634 322.043 328.43 314.975 336.084 309.548L357.792 343.568Z" fill="#EFEFEF"/>
<path d="M416.679 315.745C412.204 324.533 409.571 332.674 408.296 340.429C395.822 343.406 381.728 344.844 365.588 344.135C346.047 343.285 330.576 338.688 319.216 333.423C328.085 321.617 348.862 296.426 365.69 295.171C388.937 293.409 405.542 303.939 416.679 315.745Z" fill="#F9D3B7"/>
<path d="M429.578 333.322C412.325 340.855 391.63 345.269 365.588 344.115C346.047 343.264 330.576 338.668 319.216 333.403C328.085 321.597 348.862 296.406 365.69 295.15C388.937 293.409 405.542 303.939 416.659 315.745C422.349 321.739 426.602 328.097 429.578 333.322Z" fill="#FF9343"/>
<path d="M442.093 327.024C434.56 331.338 426.318 335.084 417.206 337.959L415.93 309.528C423.787 312.708 432.818 318.762 442.093 327.024Z" fill="#FF9343"/>
<g opacity="0.2">
<path d="M345.318 470.516C336.287 489.409 327.417 503.948 321.282 504.758C282.422 509.882 254.072 507.452 251.176 469.908C255.024 472.925 261.321 476.348 270.191 474.08C284.305 470.475 281.652 442.024 281.652 442.024C281.652 442.024 312.655 452.513 334.586 459.965C336.996 461.768 339.304 463.712 341.43 465.797C342.99 467.336 344.286 468.916 345.318 470.516Z" fill="#000072"/>
</g>
<path d="M295.685 509.963C282.239 509.963 270.069 507.654 261.362 500.445C253.12 493.621 248.726 483.172 247.895 468.491C246.579 444.819 256.076 412.56 273.957 379.998C291.008 348.955 313.546 321.658 334.262 306.957L337.927 312.141C297.913 340.531 251.439 418.109 254.234 468.147C254.942 480.965 258.608 489.936 265.412 495.565C277.643 505.69 299.29 504.455 320.856 501.62C323.084 501.336 332.135 496.051 355.099 440.424C367.634 410.049 378.103 379.573 378.224 379.269L384.239 381.335C384.137 381.639 373.607 412.297 360.992 442.854C334.849 506.196 325.291 507.452 321.707 507.918C312.878 509.072 304.028 509.963 295.685 509.963Z" fill="#000072"/>
<path d="M263.508 452.189C273.451 449.658 287.586 453.121 289.59 464.785C292.041 477.745 277.643 483.577 266.931 481.248C272.641 478.778 279.911 476.55 282.847 470.88C286.715 459.317 272.479 454.7 263.508 452.189Z" fill="#000072"/>
<path d="M460.095 455.672C459.812 482.99 460.642 552.731 460.095 583.571C460.5 587.844 463.295 603.761 459.062 611.01C455.944 616.356 451.975 619.677 439.319 619.677C430.692 619.677 419.17 619.677 405.38 619.677C386.142 619.677 384.421 608.256 383.975 602.951C383.267 594.466 385.555 585.556 385.555 585.556L378.731 518.771" fill="#FFAD40"/>
<path d="M459.083 611.01C455.964 616.356 451.995 619.677 439.339 619.677H405.38C386.142 619.677 384.421 608.256 383.975 602.951C383.267 594.466 385.555 585.576 385.555 585.576L385.454 584.645L378.71 518.792L460.095 455.693C459.812 482.848 460.642 552.002 460.095 583.086C460.095 583.248 460.095 583.43 460.095 583.592C460.52 587.865 463.295 603.761 459.083 611.01Z" fill="#FFAD40"/>
<path d="M459.083 611.01C455.964 616.356 451.995 619.677 439.339 619.677H405.38C386.142 619.677 384.421 608.256 383.975 602.951C383.267 594.466 385.555 585.576 385.555 585.576L385.454 584.645L378.71 518.792L460.095 455.693C459.812 482.848 460.642 552.002 460.095 583.086C460.095 583.248 460.095 583.43 460.095 583.592C460.52 587.865 463.295 603.761 459.083 611.01Z" fill="#FFAD40"/>
<path d="M459.083 611.01C455.964 616.356 451.995 619.677 439.339 619.677H405.38C386.142 619.677 384.421 608.256 383.975 602.951C383.267 594.466 385.555 585.576 385.555 585.576L385.454 584.645L380.432 535.518L378.731 518.792L460.115 455.693C459.933 472.237 460.176 504.354 460.277 533.939C460.338 552.954 460.338 570.915 460.136 583.065C460.136 583.227 460.136 583.41 460.136 583.572C460.52 587.865 463.295 603.761 459.083 611.01Z" fill="white"/>
<g opacity="0.2">
<path d="M460.257 533.918C459.953 533.817 459.65 533.736 459.326 533.615C430.874 523.53 398.616 530.091 380.432 535.498L378.731 518.771L460.115 455.672C459.933 472.217 460.176 504.333 460.257 533.918Z" fill="#000072"/>
</g>
<path d="M369.74 491.272C367.067 510.61 375.288 579.886 373.364 598.921C371.643 615.971 360.485 619.859 345.44 619.859C335.274 619.859 326.06 619.859 304.312 619.859C286.087 619.859 285.864 604.165 287.16 598.313C289.064 589.707 297.569 584.341 302.712 582.883C284.163 505.001 279.749 448.706 279.749 448.706" fill="#FFAD40"/>
<path d="M373.385 598.921C371.663 615.971 360.506 619.859 345.46 619.859H304.332C286.107 619.859 285.905 604.165 287.18 598.313C289.084 589.707 297.589 584.361 302.732 582.883C284.183 505.001 279.789 448.706 279.789 448.706L369.76 491.272C367.553 507.33 372.838 557.813 373.587 585.373C373.749 591.003 373.709 595.681 373.385 598.921Z" fill="#FFAD40"/>
<path d="M373.385 598.921C371.663 615.971 360.506 619.859 345.46 619.859H304.332C289.327 619.859 286.532 609.208 286.735 602.181C286.775 600.682 286.958 599.346 287.18 598.313C289.084 589.707 297.589 584.361 302.732 582.883C294.187 547.081 288.659 515.835 285.176 492.507C281.085 465.129 279.789 448.706 279.789 448.706L369.76 491.272C367.553 507.33 372.838 557.813 373.587 585.373C373.749 591.003 373.709 595.681 373.385 598.921Z" fill="white"/>
<g opacity="0.2">
<path d="M373.385 598.921C371.663 615.971 360.506 619.859 345.46 619.859H304.332C289.327 619.859 286.532 609.208 286.735 602.181C296.293 608.62 361.923 611.678 363.563 586.973C364.232 577.739 363.037 553.318 358.096 545.42C354.451 539.608 347.627 536.146 322.658 525.271C303.826 517.09 292.182 503.948 285.176 492.507C281.085 465.129 279.789 448.706 279.789 448.706L369.76 491.272C367.553 507.33 372.838 557.813 373.587 585.373C373.749 591.003 373.709 595.681 373.385 598.921Z" fill="#000072"/>
</g>
<path d="M345.44 623.038H304.312C296.961 623.038 291.392 620.75 287.768 616.234C283.252 610.605 282.948 602.687 284.062 597.645C285.925 589.18 293.195 583.45 298.986 580.898C281.126 505.082 276.65 449.536 276.61 448.969L282.948 448.483C282.989 449.05 287.545 505.467 305.831 582.174L306.539 585.13L303.623 585.961C299.31 587.196 291.878 591.833 290.299 599.042C289.651 602.019 289.428 608.155 292.749 612.286C295.118 615.242 299.006 616.72 304.352 616.72H345.48C360.668 616.72 369.051 610.645 371.117 598.171C372.737 588.37 371.258 565.225 369.8 542.848C368.403 521.201 367.087 500.749 368.403 491.11L374.701 491.98C373.466 500.971 374.822 522.052 376.139 542.443C377.617 565.184 379.115 588.715 377.374 599.224C374.762 614.776 363.725 623.038 345.44 623.038Z" fill="#000072"/>
<path d="M342.098 585.191C330.05 583.612 317.535 582.822 305.588 585.374C305.081 585.495 303.947 585.779 303.522 585.941L301.902 579.805C302.51 579.683 302.915 579.663 303.38 579.602C316.502 578.549 329.624 581.486 342.098 585.191Z" fill="#000072"/>
<path d="M305.223 591.59C298.541 598.293 300.262 615.121 310.63 616.761L309.131 622.937C296.313 618.806 295.26 599.103 305.223 591.59Z" fill="#000072"/>
<path d="M327.012 591.59C320.33 598.293 322.051 615.121 332.419 616.761L330.92 622.937C318.102 618.806 317.029 599.103 327.012 591.59Z" fill="#000072"/>
<g opacity="0.2">
<path d="M461.371 599.67C461.31 603.963 460.743 608.155 459.083 610.99C455.964 616.336 451.995 619.657 439.339 619.657H405.38C386.142 619.657 384.421 608.236 383.975 602.93C383.874 601.817 383.834 600.683 383.834 599.569C387.296 602.971 393.108 605.583 402.93 605.583H441.668C452.664 605.603 457.928 603.416 461.371 599.67Z" fill="#000072"/>
</g>
<path d="M463.274 455.713C463.011 496.982 463.821 542.362 463.274 583.632C464.165 591.023 466.15 603.092 462.343 611.617C459.731 617.065 454.952 620.811 449.16 621.925C443.186 623.403 429.801 622.674 423.625 622.836H407.02C398.373 623.2 386.81 620.912 382.76 611.395C381.363 608.357 380.897 605.117 380.756 602.201C380.452 596.207 381.14 590.598 382.497 584.766L382.416 585.88L375.592 519.095C375.288 514.944 381.363 514.255 381.91 518.447L388.734 585.232C388.775 585.616 388.734 585.981 388.653 586.345C388.066 588.775 387.62 591.489 387.337 594.061C386.75 600.905 386.304 609.532 392.723 613.602C396.814 616.194 402.14 616.558 407.02 616.498H423.625L440.189 616.477C445.414 616.396 450.699 615.748 453.696 612.893C457.28 609.613 458.171 604.894 458.232 600.034C458.354 594.648 457.625 589.302 456.977 583.875C457.098 573.142 457.179 562.369 457.159 551.596C457.118 535.68 457.017 503.563 456.936 487.667C456.896 476.995 456.875 466.344 456.956 455.652C457.037 451.561 463.173 451.399 463.274 455.713Z" fill="#000072"/>
<path d="M446.892 586.224C429.72 581.344 412.305 584.037 395.153 587.621C409.389 577.577 432.677 574.884 446.892 586.224Z" fill="#000072"/>
<path d="M406.088 591.59C402.403 600.136 403.618 612.974 413.135 616.923L409.895 622.391C404.934 619.009 401.694 612.995 401.654 607.082C401.633 601.594 402.929 596.045 406.088 591.59Z" fill="#000072"/>
<path d="M433.892 591.59C440.088 598.03 442.903 616.802 434.135 622.269L431.3 616.579C431.806 616.457 432.454 616.073 433.061 615.344C437.334 609.512 437.658 597.908 433.892 591.59Z" fill="#000072"/>
<path d="M452.38 495.018L387.681 523.732C359.189 527.924 293.559 527.62 279.161 471.285C278.696 469.503 278.291 467.68 277.946 465.797C276.164 456.199 275.759 445.102 277.116 432.324C279.769 407.437 296.657 367.747 314.862 339.437C314.862 339.437 343.678 296.811 365.69 295.15C388.937 293.409 405.542 303.939 416.659 315.745C429.578 329.434 435.127 344.884 435.127 344.884C436.241 353.086 438.185 361.692 440.493 370.318C446.852 393.95 456.086 417.643 459.103 433.215C463.862 457.616 459.71 480.762 452.38 495.018Z" fill="white"/>
<g opacity="0.2">
<path d="M452.38 495.018L387.681 523.733C359.189 527.925 293.559 527.621 279.161 471.285C295.888 489.186 333.634 502.531 382.153 490.725C433.689 478.191 435.127 446.985 420.041 370.724C417.469 357.744 427.513 361.247 440.513 370.339C446.872 393.971 456.106 417.663 459.123 433.236C463.862 457.617 459.71 480.762 452.38 495.018Z" fill="#000072"/>
</g>
<g opacity="0.2">
<path d="M429.578 333.322C412.325 340.855 391.63 345.269 365.588 344.115C346.047 343.264 330.576 338.668 319.216 333.403C328.085 321.597 348.862 296.406 365.69 295.15C388.937 293.409 405.542 303.939 416.659 315.745C422.349 321.739 426.602 328.097 429.578 333.322Z" fill="#000072"/>
</g>
<path d="M387.701 523.733C365.447 530.193 340.863 529.059 319.155 520.817C275.192 503.807 266.87 457.677 276.63 416.084C284.082 388.362 296.556 361.611 314.882 339.438C303.056 365.115 290.805 390.528 283.434 417.805C279.242 433.823 278.25 450.772 281.47 467.013C291.878 517.415 344.326 523.794 387.701 523.733Z" fill="#000072"/>
<path d="M435.147 344.864C441.951 371.21 453.21 396.967 460.48 423.151C465.927 443.866 465.482 466.587 457.037 486.412C455.701 489.409 454.162 492.305 452.4 495.018C454.628 488.963 456.187 482.767 457.098 476.428C459.407 460.897 458.597 444.838 454.688 429.631C447.196 401.746 436.038 374.085 435.147 344.864Z" fill="#512717"/>
<path d="M415.93 309.548C453.23 324.594 516.896 404.339 507.865 479.588C504.908 504.131 491.462 514.964 464.348 512.514C456.329 514.053 437.719 514.904 429.902 505.265C423.665 497.59 423.787 483.212 432.879 477.178C432.879 477.178 419.737 476.307 420.932 463.752C421.802 454.579 432.717 450.225 437.942 448.99C438.61 438.156 432.899 395.874 418.522 367.524L415.93 309.548Z" fill="#FFAD40"/>
<path d="M507.845 479.568C504.888 504.111 491.442 514.944 464.327 512.494C456.308 514.053 437.699 514.884 429.882 505.245C423.645 497.57 423.767 483.192 432.859 477.158C432.859 477.158 419.717 476.287 420.911 463.732C421.377 458.832 424.698 455.308 428.485 452.919C431.806 450.792 435.471 449.537 437.921 448.97C438.59 438.136 432.879 395.854 418.502 367.504L415.91 309.528C448.674 322.752 501.79 385.891 508.088 452.048C508.979 461.221 508.958 470.435 507.845 479.568Z" fill="white"/>
<g opacity="0.2">
<path d="M442.093 327.024C434.56 331.338 426.318 335.084 417.206 337.959L415.93 309.528C423.787 312.708 432.818 318.762 442.093 327.024Z" fill="#000072"/>
</g>
<g opacity="0.2">
<path d="M504.969 492.163C499.259 507.796 486.258 514.499 464.327 512.514C456.308 514.073 437.699 514.904 429.882 505.265C423.645 497.59 423.767 483.212 432.859 477.178C432.859 477.178 419.717 476.307 420.912 463.752C420.972 463.145 421.074 462.557 421.215 461.97C422.754 465.21 425.549 469.118 430.409 470.88C437.01 473.249 444.098 471.994 445.151 479.507C445.839 484.508 440.352 488.417 440.858 494.735C441.405 501.458 451.003 504.677 463.598 501.721C463.598 501.721 492.92 506.966 504.969 492.163Z" fill="#000072"/>
</g>
<path d="M417.104 306.592C437.78 315.623 454.425 333.342 468.256 350.656C495.411 386.073 514.973 430.4 511.409 475.841C510.943 481.451 510.072 487.323 508.067 492.912C501.263 512.676 483.018 517.597 464.044 515.673L464.935 515.633C458.961 516.706 453.048 516.929 447.014 516.281C437.577 515.39 427.331 510.975 424.03 501.296C420.547 492.122 422.491 480.256 431.097 474.545L432.636 480.357C432.231 480.317 432.008 480.296 431.705 480.256C427.493 479.588 423.524 477.887 420.689 474.464C416.254 468.916 416.821 460.391 421.256 455.085C425.326 450.185 431.198 447.451 437.172 445.912L434.742 448.808C434.56 442.085 433.75 435.22 433.041 428.477C430.652 407.7 426.5 386.944 418.502 367.524C422.086 373.599 425.103 380.039 427.675 386.62C434.013 403.184 438.731 420.498 440.837 438.156C441.182 441.761 441.425 445.284 441.08 449.192C441.02 450.63 439.987 451.805 438.65 452.088C433.001 453.526 425.873 456.928 424.313 462.74C422.835 468.936 426.521 473.128 432.636 473.978C435.957 473.999 437.334 477.927 434.621 479.851C430.874 482.281 428.809 487.019 428.748 491.9C428.667 503.867 436.889 508.849 447.743 509.983C453.332 510.692 459.123 510.125 464.631 509.375C490.592 511.785 503.268 501.458 505.091 475.315C509.849 418.838 473.318 353.39 428.546 320.301C424.151 317.223 419.534 314.469 414.715 312.505L417.104 306.592Z" fill="#000072"/>
<path d="M431.907 474.16C435.836 473.512 440.068 475.497 440.655 479.689C440.959 482.2 440.21 484.711 439.319 487.019C439.177 484.873 438.954 482.483 437.82 480.62C437.253 479.81 436.443 479.324 435.714 479.466C435.188 479.506 434.175 479.81 433.851 480.215L431.907 474.16Z" fill="#000072"/>
<path d="M432.373 447.512C438.144 447.572 443.693 448.787 449.262 450.043C443.956 450.914 438.509 451.825 433.527 453.769C433.527 453.749 432.373 447.512 432.373 447.512Z" fill="#000072"/>
<path d="M236.738 220.894C218.816 209.088 199.052 201.292 178.357 196.23C175.38 195.44 172.343 194.853 169.305 193.901C171.654 193.557 174.003 193.354 176.372 193.192C198.283 192.301 224.142 202.386 236.738 220.894Z" fill="#000072"/>
<path d="M235.057 244.445C214.139 239.463 192.208 237.114 171.715 245.012C189.069 230.715 216.771 232.963 235.057 244.445Z" fill="#000072"/>
<path d="M258.304 143.215L305.021 104.355L359.007 59.4609C328.652 28.5999 268.955 -4.91383 250.771 6.30467C247.328 8.43092 244.655 13.2504 242.813 20.0747C235.847 45.7112 240.342 99.3737 258.304 143.215Z" fill="white"/>
<g opacity="0.2">
<path d="M258.304 143.215L305.021 104.355C292.445 73.7575 261.038 3.79377 242.792 20.095C235.847 45.7113 240.342 99.3738 258.304 143.215Z" fill="#000072"/>
</g>
<g opacity="0.5">
<path d="M242.063 23.1322C243.683 19.2644 245.729 16.4699 248.118 14.9917C265.634 4.19844 321.565 34.8164 352.811 64.6447L359.007 59.4809C328.652 28.6199 268.955 -4.89381 250.771 6.32469C246.822 8.73444 243.906 14.7082 242.063 23.1322Z" fill="white"/>
</g>
<path d="M258.304 146.394C257.048 146.394 255.874 145.645 255.368 144.43C233.255 90.4636 229.913 15.4576 249.09 3.63165C261.767 -4.18485 287.545 6.9729 301.76 14.3034C323.347 25.4409 346.148 41.9041 361.255 57.2536C362.49 58.5091 362.47 60.5139 361.214 61.7491C359.959 62.9844 357.954 62.9641 356.719 61.7086C342.058 46.8046 319.884 30.8071 298.844 19.9531C276.974 8.67389 259.62 4.5834 252.411 9.0384C238.702 17.5029 237.872 85.0366 261.22 142.02C261.888 143.64 261.098 145.503 259.478 146.171C259.114 146.333 258.709 146.394 258.304 146.394Z" fill="#000072"/>
<path d="M261.463 98.1992C271.122 84.8949 279.222 75.8027 286.31 69.0189C292.526 63.0654 297.953 58.8939 302.975 55.2084C301.639 49.0727 262.961 15.3564 256.947 26.1092C255.145 29.3289 253.91 34.2092 253.221 40.0209C251.075 57.9827 254.051 84.7937 261.463 98.1992Z" fill="#F27E80"/>
<path d="M253.241 40.0004C255.752 36.8212 259.559 33.0344 263.083 33.8849C269.057 35.3227 281.774 55.1474 286.33 68.9984C292.547 63.0449 297.974 58.8734 302.996 55.1879C301.659 49.0522 262.982 15.3359 256.967 26.0887C255.165 29.3084 253.93 34.2089 253.241 40.0004Z" fill="#FF5C64"/>
<path d="M261.098 104.092L258.689 99.7381C248.523 81.3916 245.992 39.2514 254.193 24.5701C255.125 22.8894 257.534 20.1759 262.961 20.9859C276.205 22.9501 304.555 47.3716 306.094 54.5401L306.519 56.5449L304.859 57.7599C293.903 65.7991 281.733 75.7014 264.035 100.062L261.098 104.092ZM259.721 27.6481C253.727 38.4211 254.355 72.9069 262.05 92.0431C277.481 71.5299 288.78 61.8504 298.885 54.2769C293.782 47.4526 271.345 28.0531 261.503 27.2026C260.045 27.0609 259.823 27.4861 259.721 27.6481Z" fill="#000072"/>
<path d="M386 66.8724L458.961 127.44L490.49 153.603C510.639 107.98 515.337 51.0976 506.65 27.0001C504.868 22.0389 502.519 18.4749 499.603 16.6726C480.689 4.92763 418.016 36.8011 386 66.8724Z" fill="#FFAD40"/>
<path d="M458.961 127.44L490.49 153.603C510.639 107.98 515.337 51.0974 506.65 26.9999C500.19 20.0744 490.247 15.4979 482.917 39.7169C475.303 64.7864 464.874 104.537 458.961 127.44Z" fill="#FF9343"/>
<g opacity="0.5">
<path d="M386 66.8724L390.597 70.6794C423.868 42.2889 485.549 15.2754 498.894 21.2491C509.748 26.1091 510.761 62.9439 507.987 92.6506C513.738 55.7956 510.619 23.4969 499.623 16.6726C480.69 4.92763 418.016 36.8011 386 66.8724Z" fill="white"/>
</g>
<path d="M490.49 156.783C490.065 156.783 489.62 156.702 489.215 156.519C487.615 155.811 486.886 153.927 487.595 152.328C512.502 95.9313 512.219 28.2356 497.942 19.3661C481.013 8.85632 419.818 39.4743 388.187 69.1811C386.912 70.3758 384.907 70.3151 383.692 69.0393C382.497 67.7636 382.558 65.7588 383.834 64.5438C399.75 49.5993 423.726 33.7436 446.386 23.1933C461.29 16.2476 488.222 5.83907 501.304 13.9593C521.23 26.3321 517.038 101.399 493.427 154.879C492.88 156.074 491.705 156.783 490.49 156.783Z" fill="#000072"/>
<path d="M377.09 38.2795C356.8 37.2468 318.953 35.4445 285.135 56.4438C236.596 83.1738 222.866 157.248 219.687 194.772C216.326 201.15 205.958 226.544 215.536 253.497C225.944 282.252 264.865 321.334 365.852 324.858C455.073 326.073 511.206 294.321 516.917 228.346C521.412 183.047 507.176 139.449 494.399 115.473C494.399 115.473 450.152 60.838 428.687 51.6648C412.447 44.7595 377.09 38.2795 377.09 38.2795Z" fill="white"/>
<path d="M516.896 228.366C511.186 294.341 455.033 326.093 365.811 324.878C264.824 321.354 225.904 282.292 215.516 253.517C214.402 250.378 213.551 247.239 212.944 244.161C209.744 228.245 212.66 213.665 215.779 204.208C217.217 199.834 218.715 196.554 219.647 194.772C222.826 157.228 236.576 83.1738 285.095 56.4438C318.912 35.4648 356.759 37.267 377.05 38.2795C377.05 38.2795 412.406 44.7393 428.627 51.6648C450.092 60.8178 494.338 115.473 494.338 115.473C507.176 139.469 521.392 183.047 516.896 228.366Z" fill="white"/>
<path d="M516.896 228.366C511.186 294.341 455.033 326.093 365.811 324.878C264.824 321.354 225.904 282.292 215.516 253.517C214.402 250.378 213.551 247.239 212.944 244.161C209.744 228.245 212.66 213.665 215.779 204.208C217.217 199.834 218.715 196.554 219.647 194.772C222.826 157.228 236.576 83.1738 285.095 56.4438C318.912 35.4648 356.759 37.267 377.05 38.2795C377.05 38.2795 412.406 44.7393 428.627 51.6648C450.092 60.8178 494.338 115.473 494.338 115.473C507.176 139.469 521.392 183.047 516.896 228.366Z" fill="white"/>
<g opacity="0.2">
<path d="M498.165 279.133C473.946 310.622 427.898 325.728 365.831 324.857C298.439 322.508 258.689 304.324 236.616 283.932C263.852 299.97 304.271 312.363 362.774 314.408C421.681 315.239 468.074 303.575 498.165 279.133Z" fill="#000072"/>
</g>
<path d="M501.345 130.336C483.626 142.465 452.927 155.891 417.368 138.577C374.215 117.578 375.329 69.201 382.173 39.2715C392.541 41.337 416.234 46.3792 428.688 51.6847C450.153 60.8377 494.378 115.472 494.378 115.472C496.687 119.826 499.056 124.807 501.345 130.336Z" fill="#FFAD40"/>
<path d="M428.667 51.6847L378.953 60.4327C379.541 52.6567 380.776 45.2857 382.274 38.8057C396.935 40.7902 411.799 43.9492 428.667 51.6847Z" fill="#FFAD40"/>
<path d="M485.043 226.321C502.215 211.903 528.358 207.974 549.904 212.429C552.597 213.098 555.311 213.827 557.943 214.677C556.343 214.718 554.764 214.677 553.184 214.637C552.05 214.616 550.795 214.556 549.661 214.515C548.952 214.556 544.619 214.556 543.809 214.556C523.68 214.718 503.612 218.302 485.043 226.321Z" fill="#000072"/>
<path d="M482.795 254.954C503.491 247.725 531.416 251.714 545.449 269.737C526.94 257.263 504.645 254.671 482.795 254.954Z" fill="#000072"/>
<path d="M410.346 201.823C410.37 186.658 399.745 174.348 386.615 174.327C373.486 174.307 362.823 186.584 362.799 201.749C362.776 216.915 373.4 229.225 386.53 229.245C399.66 229.266 410.323 216.988 410.346 201.823Z" fill="#000072"/>
<path d="M387.306 199.599C387.315 194.175 383.849 189.773 379.566 189.766C375.282 189.759 371.803 194.151 371.795 199.575C371.786 204.999 375.252 209.402 379.535 209.408C383.819 209.415 387.298 205.023 387.306 199.599Z" fill="white"/>
<g opacity="0.2">
<path d="M397.819 213.488C397.825 209.819 395.907 206.843 393.536 206.839C391.166 206.835 389.239 209.806 389.233 213.474C389.228 217.142 391.145 220.119 393.516 220.123C395.887 220.127 397.813 217.156 397.819 213.488Z" fill="white"/>
</g>
<path d="M291.132 200.439C291.155 185.721 280.847 173.774 268.108 173.754C255.37 173.735 245.025 185.65 245.002 200.368C244.979 215.085 255.287 227.033 268.026 227.052C280.764 227.072 291.109 215.157 291.132 200.439Z" fill="#000072"/>
<path d="M268.763 198.288C268.771 193.032 265.414 188.765 261.265 188.759C257.116 188.752 253.745 193.008 253.737 198.265C253.729 203.521 257.086 207.787 261.235 207.794C265.384 207.8 268.755 203.544 268.763 198.288Z" fill="white"/>
<g opacity="0.2">
<path d="M278.969 211.75C278.975 208.194 277.112 205.308 274.808 205.304C272.504 205.301 270.632 208.181 270.626 211.737C270.621 215.294 272.484 218.18 274.788 218.183C277.092 218.187 278.964 215.307 278.969 211.75Z" fill="white"/>
</g>
<path d="M408.195 120.514C408.195 120.514 391.569 97.0447 380.918 101.56C370.266 106.056 371.927 117.862 378.366 121.284C387.742 126.245 408.195 120.514 408.195 120.514Z" fill="#000072"/>
<path d="M254.477 126.124C254.477 126.124 264.946 103.12 274.868 105.246C284.811 107.372 285.338 117.821 280.336 121.831C273.086 127.683 254.477 126.124 254.477 126.124Z" fill="#000072"/>
<path d="M298.561 220.286C298.217 225.247 303.462 230.026 307.532 232.963C310.347 234.988 314.093 235.251 317.171 233.631C321.606 231.282 327.458 227.272 327.802 222.311C328.369 214.252 299.128 212.227 298.561 220.286Z" fill="#000072"/>
<g opacity="0.35">
<path d="M305.608 219.031C305.547 219.942 307.532 220.914 309.071 221.501C310.144 221.906 311.521 222.007 312.635 221.744C314.234 221.359 316.361 220.691 316.421 219.78C316.543 218.281 305.729 217.532 305.608 219.031Z" fill="white"/>
</g>
<path d="M444.584 64.1588C455.741 72.3601 468.863 82.8901 487.595 108.405C488.445 106.988 489.235 105.408 489.964 103.707C495.128 91.8203 497.699 73.6561 497.274 58.5901C497.011 49.2143 495.614 41.0333 492.941 36.3151C486.785 25.3396 446.021 58.0433 444.584 64.1588Z" fill="#F27E80"/>
<path d="M444.584 64.1588C455.741 72.3601 468.863 82.8901 487.595 108.405C488.445 106.988 489.235 105.408 489.964 103.707C488.04 92.9746 478.847 81.7156 475.02 72.7651C467.102 54.1958 480.953 41.6611 486.481 43.3418C489.761 44.3341 495.087 54.2363 497.274 58.5901C497.011 49.2143 495.614 41.0333 492.941 36.3151C486.785 25.3396 446.021 58.0433 444.584 64.1588Z" fill="#FF5C64"/>
<path d="M487.595 111.585C486.582 111.585 485.631 111.099 485.043 110.289C466.758 85.3608 454.101 75.094 442.721 66.7308C441.688 65.9815 441.222 64.6855 441.506 63.4503C443.126 56.5855 472.63 33.0348 486.42 31.0705C492.252 30.2403 494.763 33.0348 495.735 34.756C504.159 49.7005 501.142 91.9218 490.329 110.046C489.782 110.957 488.81 111.544 487.757 111.585C487.696 111.564 487.635 111.585 487.595 111.585ZM448.776 63.3085C459.306 71.206 471.071 81.2703 487.089 102.411C495.391 83.5383 496.383 48.85 490.187 37.8543C490.086 37.672 489.782 37.1253 487.959 37.267C477.774 37.996 454.344 56.5248 448.776 63.3085Z" fill="#000072"/>
<path d="M475.349 237.865C475.737 226.767 465.06 217.386 451.502 216.912C437.944 216.439 426.64 225.053 426.252 236.151C425.865 247.25 436.541 256.631 450.099 257.105C463.657 257.578 474.962 248.964 475.349 237.865Z" fill="#FF999E"/>
<path d="M239.188 225.126C238.803 236.223 228.314 244.87 215.779 244.425C214.827 244.384 213.875 244.303 212.944 244.161C209.744 228.245 212.66 213.665 215.779 204.208C216.245 204.188 216.71 204.188 217.176 204.208C229.731 204.674 239.593 214.029 239.188 225.126Z" fill="#FF999E"/>
<path d="M398.555 323.703C432.049 316.13 468.053 307.908 491.827 281.36C505.293 266.497 512.705 246.692 513.616 226.726C515.256 206.456 513.353 186.003 509.201 166.118C505.455 148.844 500.291 132.3 494.378 115.493C508.472 135.014 515.438 158.767 519.185 182.318C524.166 217.694 521.594 257.911 497.031 285.957C472.832 313.396 433.973 325.019 398.555 323.703Z" fill="#000072"/>
<path d="M377.01 39.8789C357.327 40.3042 337.806 40.7294 318.75 45.7109C310.104 47.9789 301.518 51.2999 293.6 55.4512C286.897 59.1974 280.093 63.0854 274.261 68.0264C270.373 71.3069 266.789 74.9722 263.427 78.8197C236.92 110.815 227.281 155.304 223.312 195.844C215.374 211.619 213.066 230.634 217.48 247.745C225.459 276.136 252.006 294.948 278.19 305.62C279.101 305.964 281.976 307.24 282.908 307.584C285.824 308.556 291.251 310.581 294.167 311.573C299.634 313.031 305.102 314.995 310.65 316.19C315.065 317.223 319.581 318.458 324.056 319.248C332.966 321.111 342.301 322.569 351.292 324.067C332.763 323.905 314.052 322.042 296.07 317.466L292.668 316.656C289.651 315.724 283.941 314.003 280.923 313.072C277.197 311.573 273.147 310.156 269.442 308.576C267.072 307.523 262.091 305.134 259.863 304.04C258.304 303.169 255.246 301.408 253.707 300.537C232.323 287.982 213.066 267.833 209.016 242.521C206.201 225.794 208.995 208.258 216.407 193.03C217.257 168.79 226.451 128.108 240.261 101.439C249.981 82.1407 264.237 64.0574 283.475 53.5274C293.883 47.2297 305.365 42.4507 317.151 39.4537C326.263 37.1857 335.781 35.6467 345.156 35.2214C355.848 34.6342 366.621 35.2619 377.192 36.6997C379.075 37.0642 378.994 39.7372 377.01 39.8789Z" fill="#000072"/>
<path d="M428.667 51.6847C391.022 34.4519 363.381 39.9194 325.716 30.5234C316.32 28.1744 299.472 20.3579 299.472 20.3579C299.472 20.3579 298.075 37.7932 301.963 47.4119C280.883 49.4167 274.666 59.5012 245.567 63.5714C251.925 71.2462 264.5 80.9459 280.437 77.7667L428.667 51.6847Z" fill="white"/>
<path d="M428.667 51.6847L378.953 60.4327C379.541 52.6567 380.776 45.2857 382.274 38.8057C396.935 40.7902 411.799 43.9492 428.667 51.6847Z" fill="#FFAD40"/>
<path d="M428.667 51.6847C417.995 48.2017 407.324 45.4072 396.449 43.7264C374.478 40.1827 351.96 40.3244 330.009 35.3632C318.791 33.0749 308.301 28.2757 298.115 23.2334L302.611 20.6009C302.469 22.7272 302.388 24.9951 302.388 27.2024C302.388 31.5561 302.591 36.0111 303.32 40.2636C303.684 42.3696 304.19 44.3947 304.899 46.1969C305.689 48.1004 304.352 50.3279 302.287 50.5507C297.629 51.2189 293.134 52.3327 288.74 53.9122C284.366 55.4917 279.971 57.4964 275.354 59.4202C266.1 63.3082 256.036 65.9204 246.053 67.0139L248.26 61.3439C256.036 71.1449 267.761 77.5642 280.457 77.7464C267.092 83.8214 251.763 76.2884 242.894 65.7786C241.051 63.7941 242.428 60.3516 245.101 60.1086C254.578 58.5494 263.609 56.0587 272.479 52.3327C281.672 48.4244 291.575 44.4554 301.679 44.2124L299.027 48.5661C296.394 41.6204 296.111 34.4114 296.05 27.1417C296.07 24.7724 296.131 22.4842 296.293 20.0744C296.354 17.8672 298.844 16.4497 300.788 17.4419C310.873 21.4919 320.937 25.9064 331.609 28.0529C363.968 35.2012 399.608 33.3989 428.667 51.6847Z" fill="#000072"/>
<path d="M301.963 47.4122C309.314 47.392 318.305 50.146 324.096 49.4372Z" fill="white"/>
<path d="M301.963 44.2329C309.86 45.2049 316.32 48.8702 324.096 49.4372C317.009 51.0369 308.949 49.4372 301.963 50.5914C301.983 50.5712 301.963 44.2329 301.963 44.2329Z" fill="#000072"/>
<path d="M309.03 233.368C309.456 237.58 313.04 244.12 313.506 244.1C313.809 244.1 314.194 237.721 315.551 233.388" fill="#000072"/>
<path d="M324.704 257.06C333.573 263.702 347.12 262.933 354.572 254.873C356.84 252.383 358.278 249.244 359.027 245.801C359.291 244.445 360.647 243.554 362.004 243.857C363.219 244.121 364.029 245.214 363.968 246.409C363.665 255.602 356.152 263.54 347.303 265.302C339.081 267.246 329.078 264.472 324.704 257.06Z" fill="#000072"/>
<path d="M354.329 245.376C358.643 239.848 368.221 244.971 365.912 251.633C361.903 249.082 358.764 247.361 354.329 245.376Z" fill="#000072"/>
<defs>
<clipPath id="clip0_269_427">
<rect width="121" height="231" fill="white" transform="translate(21 181)"/>
</clipPath>
</defs>
</svg>
