<svg width="638" height="627" viewBox="0 0 638 627" fill="none" xmlns="http://www.w3.org/2000/svg">
<ellipse cx="325" cy="299.5" rx="313" ry="299.5" fill="#B0A2D7"/>
<g clip-path="url(#clip0_246_9039)">
<path d="M487.406 467.435C478.088 483.616 462.448 498.201 436.741 506.321L425.513 471.416C425.513 471.416 443.793 465.956 455.218 445.498C460.399 436.235 464.161 423.897 464.201 407.598C464.22 398.157 471.607 390.391 481.004 389.741C481.437 389.721 481.851 389.702 482.264 389.702C491.838 389.702 499.836 397.231 500.289 406.927C501.057 422.833 499.52 446.484 487.406 467.435Z" fill="#8C8CAA"/>
<path d="M487.406 467.435C470.82 464.064 460.99 455.333 455.218 445.498C460.399 436.235 464.161 423.897 464.201 407.598C464.221 398.157 471.608 390.391 481.004 389.741C481.437 389.721 481.851 389.702 482.264 389.702C491.838 389.702 499.836 397.231 500.289 406.927C501.057 422.833 499.52 446.484 487.406 467.435Z" fill="white"/>
<g opacity="0.3">
<path d="M500.308 406.928C499.855 397.605 492.468 390.333 483.407 389.761C485.219 392.422 486.342 395.595 486.519 399.044C487.268 414.95 485.731 438.601 473.617 459.551C465.58 473.505 452.835 486.257 432.998 494.732L436.741 506.341C462.447 498.201 478.088 483.636 487.406 467.455C499.52 446.484 501.057 422.833 500.308 406.928Z" fill="#262F6A"/>
</g>
<path d="M436.741 510.263C435.066 510.263 433.53 509.199 432.998 507.523L421.77 472.618C421.455 471.613 421.534 470.509 422.026 469.583C422.518 468.657 423.365 467.947 424.37 467.652C425.867 467.198 460.123 456.142 460.261 407.578C460.3 396.167 469.283 386.608 480.728 385.819C486.677 385.405 492.409 387.357 496.861 391.318C501.333 395.299 503.952 400.778 504.228 406.75C504.918 420.921 503.815 441.971 494.714 461.857C483.978 485.351 464.87 501.571 437.903 510.105C437.548 510.204 437.135 510.263 436.741 510.263ZM430.398 473.742L439.282 501.315C491.877 482.611 497.688 434.521 496.369 407.105C496.191 403.262 494.497 399.734 491.641 397.191C488.785 394.649 485.101 393.388 481.299 393.663C473.952 394.176 468.18 400.286 468.16 407.578C468.081 435.979 456.912 452.811 447.555 461.936C440.976 468.381 434.377 471.968 430.398 473.742Z" fill="#262F6A"/>
<path d="M259.69 555.81C259.69 566.71 258.429 576.446 256.833 584.408C253.898 599.013 243.084 610.838 228.724 614.859C206.937 620.949 188.125 619.057 176.049 616.318C166.003 614.031 158.321 605.793 157.021 595.564C156.607 592.194 156.607 589.079 156.922 586.202C159.641 562.492 185.071 555.042 185.071 555.042C184.086 552.972 183.161 550.942 182.353 548.971C180.62 544.754 179.28 540.713 178.295 536.85C176.266 528.927 175.695 521.694 176.187 515.111C176.542 510.223 177.507 505.69 178.886 501.512C183.791 486.769 194.113 476.383 203.096 469.701C211.901 463.138 224.311 464.892 231.087 473.525C253.524 502.024 259.69 531.746 259.69 555.81Z" fill="#8C8CAA"/>
<path d="M259.69 555.81C259.69 566.709 258.429 576.446 256.833 584.408C253.898 599.013 243.084 610.838 228.724 614.859C206.937 620.949 188.125 619.057 176.049 616.317C166.003 614.031 158.321 605.793 157.021 595.564C153.101 564.403 185.071 555.042 185.071 555.042C185.071 555.042 217.141 578.062 259.69 555.81Z" fill="white"/>
<path d="M200.555 539.353C197.344 541.994 191.277 546.153 182.353 548.952C180.62 544.734 179.28 540.694 178.295 536.831C184.894 537.363 192.104 537.54 199.668 537.126C200.909 537.047 201.5 538.565 200.555 539.353Z" fill="white"/>
<path d="M202.111 508.035C197.738 510.578 188.814 514.638 176.168 515.071C176.523 510.184 177.488 505.651 178.867 501.472C185.722 503.226 193.385 504.764 201.599 505.67C202.84 505.808 203.175 507.424 202.111 508.035Z" fill="white"/>
<g opacity="0.3">
<path d="M259.69 555.81C259.69 566.709 258.429 576.446 256.833 584.408C253.898 599.013 243.084 610.838 228.724 614.859C206.937 620.949 188.125 619.057 176.049 616.317C166.003 614.031 158.321 605.793 157.021 595.563C156.607 592.193 156.607 589.079 156.922 586.202C162.812 591.976 171.716 597.101 185.071 600.175C232.86 611.153 222.223 565.507 222.223 565.507C195.315 566.315 185.071 555.041 185.071 555.041C241.941 559.003 203.115 469.681 203.115 469.681C211.921 463.118 224.331 464.872 231.107 473.505C253.524 502.024 259.69 531.745 259.69 555.81Z" fill="#262F6A"/>
</g>
<g opacity="0.7">
<path d="M161.946 602.462C161.532 599.092 161.532 595.978 161.847 593.1C164.566 569.39 189.996 561.94 189.996 561.94C189.012 559.871 188.086 557.84 187.278 555.87C185.545 551.652 184.205 547.611 183.22 543.748C181.191 535.825 180.62 528.592 181.112 522.009C181.487 517.121 182.432 512.588 183.831 508.41C188.736 493.667 199.058 483.281 208.04 476.599C216.846 470.036 229.256 471.79 236.032 480.423C236.525 481.054 236.997 481.684 237.47 482.295C235.5 479.359 233.392 476.442 231.107 473.525C224.311 464.892 211.901 463.138 203.116 469.701C194.133 476.383 183.811 486.789 178.906 501.512C177.508 505.69 176.562 510.223 176.207 515.111C175.715 521.694 176.286 528.927 178.315 536.85C179.3 540.713 180.64 544.773 182.373 548.971C183.181 550.962 184.107 552.972 185.091 555.042C185.091 555.042 159.661 562.492 156.942 586.202C156.607 589.079 156.607 592.194 157.041 595.564C157.73 601.082 160.311 606.029 164.112 609.774C163.009 607.488 162.281 605.044 161.946 602.462Z" fill="white"/>
</g>
<path d="M170.81 617.224C168.308 608.552 168.682 598.737 172.74 590.617C173.115 589.828 174.395 590.124 174.395 590.991C174.848 599.111 175.695 607.113 178.295 614.82C179.714 619.786 172.583 622.092 170.81 617.224Z" fill="#262F6A"/>
<path d="M193.719 618.919C191.217 610.247 191.592 600.432 195.65 592.312C196.024 591.523 197.304 591.819 197.304 592.686C197.757 600.806 198.604 608.808 201.205 616.514C202.623 621.461 195.472 623.787 193.719 618.919Z" fill="#262F6A"/>
<path d="M187.357 551.809C195.039 558.274 204.652 562.57 214.561 564.187C215.664 564.344 215.545 566 214.423 565.98C204.238 565.842 194.015 563.635 184.776 559.259C184.087 558.944 183.417 558.589 182.649 558.156C177.665 554.963 182.865 547.966 187.357 551.809Z" fill="#262F6A"/>
<path d="M199.392 622.821C189.799 622.821 181.545 621.58 175.183 620.141C163.462 617.5 154.598 607.803 153.12 596.037C149.752 569.213 170.534 556.934 179.753 552.854C159.444 506.577 183.968 478.984 200.771 466.488C211.349 458.624 226.045 460.635 234.22 471.061C268.456 514.618 265.501 561.25 260.694 585.177C257.444 601.398 245.605 614.228 229.787 618.643C218.756 621.718 208.473 622.821 199.392 622.821ZM215.112 469.602C211.743 469.602 208.355 470.647 205.44 472.835C186.746 486.749 168.663 511.997 188.598 553.327C189.11 554.372 189.129 555.574 188.657 556.638C188.184 557.702 187.278 558.491 186.155 558.826C184.993 559.181 157.474 567.695 160.901 595.091C161.965 603.585 168.387 610.562 176.877 612.494C188.401 615.096 206.563 616.968 227.64 611.075C240.563 607.468 250.274 596.943 252.933 583.64C258.469 556.047 258.646 514.973 227.975 475.949C224.745 471.77 219.958 469.602 215.112 469.602Z" fill="#262F6A"/>
<path d="M377.31 555.81C377.31 566.71 378.571 576.446 380.166 584.408C383.101 599.013 393.916 610.838 408.276 614.859C430.083 620.949 448.875 619.057 460.95 616.318C470.997 614.031 478.679 605.793 479.979 595.564C480.393 592.194 480.393 589.079 480.078 586.202C477.359 562.492 451.928 555.042 451.928 555.042C452.933 552.972 453.839 550.942 454.647 548.971C456.38 544.754 457.72 540.713 458.705 536.85C460.734 528.927 461.305 521.694 460.812 515.111C460.458 510.223 459.493 505.69 458.094 501.512C453.189 486.769 442.867 476.383 433.885 469.701C425.079 463.138 412.669 464.892 405.873 473.525C383.476 502.024 377.29 531.746 377.31 555.81Z" fill="#8C8CAA"/>
<path d="M377.31 555.811C377.31 566.71 378.571 576.446 380.166 584.409C383.101 599.013 393.916 610.839 408.276 614.859C430.083 620.949 448.875 619.057 460.95 616.318C470.997 614.031 478.679 605.793 479.979 595.564C483.899 564.404 451.928 555.042 451.928 555.042C451.928 555.042 419.839 578.062 377.31 555.811Z" fill="white"/>
<path d="M436.426 539.353C439.637 541.994 445.704 546.153 454.627 548.952C456.361 544.734 457.7 540.694 458.685 536.831C452.086 537.363 444.896 537.54 437.312 537.126C436.091 537.047 435.48 538.565 436.426 539.353Z" fill="white"/>
<path d="M434.87 508.035C439.243 510.578 448.166 514.638 460.813 515.071C460.458 510.184 459.493 505.651 458.094 501.472C451.239 503.226 443.577 504.764 435.362 505.67C434.161 505.808 433.806 507.424 434.87 508.035Z" fill="white"/>
<g opacity="0.3">
<path d="M377.31 555.811C377.31 566.71 378.571 576.446 380.166 584.409C383.101 599.013 393.916 610.839 408.276 614.859C430.083 620.949 448.875 619.057 460.95 616.318C470.997 614.031 478.679 605.793 479.979 595.564C480.393 592.194 480.393 589.08 480.078 586.202C474.188 591.977 465.284 597.101 451.928 600.176C404.14 611.154 414.777 565.507 414.777 565.507C441.685 566.316 451.928 555.042 451.928 555.042C395.059 559.003 433.904 469.682 433.904 469.682C425.099 463.118 412.689 464.873 405.893 473.505C383.476 502.024 377.29 531.746 377.31 555.811Z" fill="#262F6A"/>
</g>
<g opacity="0.7">
<path d="M475.055 602.462C475.469 599.092 475.469 595.978 475.153 593.1C472.435 569.39 447.004 561.94 447.004 561.94C448.009 559.871 448.915 557.84 449.722 555.87C451.456 551.652 452.795 547.611 453.78 543.748C455.809 535.825 456.381 528.592 455.888 522.009C455.534 517.121 454.568 512.588 453.17 508.41C448.265 493.667 437.943 483.281 428.96 476.599C420.155 470.036 407.745 471.79 400.949 480.423C400.456 481.054 399.984 481.684 399.511 482.295C401.481 479.359 403.588 476.442 405.873 473.525C412.669 464.892 425.06 463.138 433.885 469.701C442.867 476.383 453.189 486.789 458.094 501.512C459.493 505.69 460.439 510.223 460.813 515.111C461.305 521.694 460.734 528.927 458.705 536.85C457.72 540.713 456.381 544.773 454.647 548.971C453.839 550.962 452.914 552.972 451.929 555.042C451.929 555.042 477.36 562.492 480.078 586.202C480.413 589.079 480.413 592.194 479.98 595.564C479.29 601.082 476.71 606.029 472.908 609.774C473.991 607.488 474.72 605.044 475.055 602.462Z" fill="white"/>
</g>
<path d="M458.764 614.603C461.325 606.956 462.152 599.033 462.605 590.971C462.625 590.104 463.886 589.828 464.26 590.597C468.101 598.165 468.535 607.192 466.703 615.391C466.565 615.982 466.427 616.495 466.191 617.204C465.501 619.274 463.275 620.397 461.227 619.707C459.079 619.037 457.976 616.692 458.764 614.603Z" fill="#262F6A"/>
<path d="M435.854 616.298C438.415 608.651 439.242 600.728 439.696 592.667C439.715 591.8 440.976 591.524 441.35 592.292C445.191 599.861 445.625 608.887 443.793 617.086C443.655 617.678 443.517 618.19 443.281 618.9C442.591 620.969 440.365 622.093 438.317 621.403C436.189 620.733 435.086 618.387 435.854 616.298Z" fill="#262F6A"/>
<path d="M454.214 558.235C446.866 562.137 438.77 564.443 430.575 565.448C427.916 565.803 425.217 565.921 422.558 565.981C422.066 566 421.652 565.606 421.632 565.113C421.612 564.64 421.967 564.266 422.42 564.207C432.348 562.591 441.961 558.294 449.624 551.829C454.214 547.907 459.394 555.14 454.214 558.235Z" fill="#262F6A"/>
<path d="M437.608 622.822C428.527 622.822 418.224 621.718 407.213 618.624C391.414 614.209 379.576 601.378 376.306 585.157C371.499 561.231 368.564 514.618 402.781 471.041C410.975 460.615 425.67 458.605 436.229 466.469C453.012 478.964 477.556 506.557 457.247 552.834C466.446 556.914 487.248 569.193 483.88 596.017C482.402 607.784 473.538 617.48 461.817 620.122C455.455 621.6 447.201 622.822 437.608 622.822ZM421.888 469.603C417.042 469.603 412.256 471.79 409.005 475.929C378.354 514.953 378.512 556.027 384.047 583.6C386.726 596.904 396.418 607.409 409.34 611.036C430.418 616.929 448.58 615.056 460.103 612.455C468.594 610.543 475.015 603.546 476.079 595.051C479.526 567.675 451.988 559.141 450.825 558.787C449.722 558.452 448.816 557.663 448.343 556.599C447.871 555.535 447.89 554.332 448.403 553.288C468.337 511.977 450.254 486.71 431.56 472.796C428.625 470.647 425.237 469.603 421.888 469.603Z" fill="#262F6A"/>
<path d="M408.001 557.506C407.114 561.783 408.394 566.217 411.29 569.509C414.757 573.47 419.347 579.915 421.593 588.114C425.552 602.541 416.116 617.284 401.461 620.22C385.879 623.354 362.359 625.443 338.228 617.895C330.999 615.648 324.616 611.095 320.558 604.689C320.263 604.236 319.967 603.743 319.692 603.251C318.904 601.812 318.49 600.215 318.49 598.58C318.49 600.215 318.076 601.812 317.288 603.251C317.013 603.743 316.737 604.216 316.422 604.689C312.364 611.075 305.981 615.628 298.752 617.895C274.621 625.443 251.101 623.354 235.52 620.22C220.864 617.284 211.428 602.521 215.388 588.114C215.624 587.247 215.9 586.399 216.195 585.572C218.598 578.575 222.597 573.056 225.69 569.509C228.566 566.217 229.846 561.783 228.98 557.506C228.704 556.146 228.408 554.806 228.073 553.505C228.073 553.465 228.034 553.426 228.034 553.386C227.896 552.835 227.758 552.283 227.601 551.751C227.581 551.692 227.581 551.672 227.581 551.672C226.793 548.814 225.926 546.153 225.02 543.67C222.834 537.659 220.47 532.83 218.914 529.637C218.914 529.617 218.914 529.617 218.894 529.598C216.077 523.823 213.713 517.851 211.783 511.702C211.645 511.209 211.487 510.736 211.33 510.243C209.576 504.429 208.217 498.851 207.173 493.51C200.259 457.679 208.217 432.096 213.299 420.448C215.328 415.817 216.904 413.392 216.904 413.392C216.904 413.392 221.888 406.317 240.011 399.852C255.238 394.393 279.782 389.406 318.47 389.406C403.174 389.406 420.036 413.392 420.036 413.392C420.036 413.392 421.612 415.817 423.641 420.448C429.531 433.988 439.341 466.331 425.158 511.682C423.228 517.831 420.864 523.823 418.047 529.598C415.447 534.998 410.561 544.971 408.001 557.506Z" fill="#8C8CAA"/>
<path d="M396.969 399.872C381.742 394.412 357.198 389.426 318.51 389.426C279.822 389.426 255.277 394.432 240.05 399.872C224.863 433.831 237.745 465.858 237.745 465.858C255.257 512.963 318.51 527.942 318.51 527.942C318.51 527.942 381.762 512.943 399.274 465.858C399.254 465.858 412.157 433.831 396.969 399.872Z" fill="white"/>
<path d="M318.49 598.599C318.49 600.235 318.076 601.832 317.288 603.27C317.013 603.763 316.737 604.236 316.422 604.709C312.364 611.095 305.981 615.648 298.752 617.914C274.621 625.463 251.101 623.374 235.52 620.24C220.864 617.303 211.428 602.541 215.388 588.134C217.633 579.935 222.223 573.49 225.69 569.528C228.566 566.237 229.846 561.802 228.98 557.525C228.98 557.525 245.96 593.219 291.858 571.992C291.858 571.972 318.49 563.162 318.49 598.599Z" fill="white"/>
<path d="M318.49 598.599C318.49 600.235 318.904 601.832 319.692 603.27C319.968 603.763 320.243 604.236 320.559 604.709C324.617 611.095 330.999 615.648 338.228 617.914C362.359 625.463 385.859 623.374 401.461 620.24C416.117 617.303 425.552 602.541 421.593 588.134C419.347 579.935 414.757 573.49 411.29 569.528C408.414 566.237 407.134 561.802 408.001 557.525C408.001 557.525 391.021 593.219 345.123 571.992C345.123 571.972 318.49 563.162 318.49 598.599Z" fill="white"/>
<path d="M244.896 497.117C240.168 501.177 229.078 508.804 211.349 510.243C209.596 504.429 208.237 498.851 207.193 493.51C217.239 494.988 229.984 495.954 243.95 494.889C245.191 494.811 245.822 496.328 244.896 497.117Z" fill="white"/>
<path d="M248.284 532.18C244.541 535.392 236.839 540.832 225.04 543.67C222.853 537.659 220.489 532.83 218.933 529.637C218.933 529.617 218.933 529.617 218.914 529.598C227.305 530.406 236.997 530.741 247.339 529.952C248.58 529.854 249.21 531.371 248.284 532.18Z" fill="white"/>
<path d="M392.084 497.117C396.812 501.177 407.902 508.804 425.631 510.243C427.384 504.429 428.743 498.851 429.787 493.51C419.741 494.988 406.996 495.954 393.03 494.889C391.789 494.811 391.158 496.328 392.084 497.117Z" fill="white"/>
<path d="M388.716 532.18C392.458 535.392 400.16 540.832 411.96 543.67C414.146 537.659 416.51 532.83 418.067 529.637C418.067 529.617 418.067 529.617 418.086 529.598C409.695 530.406 400.003 530.741 389.661 529.952C388.42 529.854 387.79 531.371 388.716 532.18Z" fill="white"/>
<g opacity="0.3">
<path d="M421.593 588.114C421.356 587.247 421.1 586.399 420.805 585.571C398.663 622.743 347.723 606.384 341.025 598.599C333.855 590.302 345.142 571.972 345.142 571.972C394.31 590.085 406.582 561.27 408.946 553.505C408.946 553.465 408.985 553.426 408.985 553.386C409.242 552.519 409.379 551.948 409.419 551.75C409.438 551.691 409.439 551.672 409.439 551.672C389.287 564.896 376.187 564.818 367.697 559.792C354.361 551.908 354.263 532.692 366.949 523.783C400.968 499.896 399.294 465.858 399.294 465.858C381.388 485.153 359.069 496.013 342.424 501.906C326.98 507.385 310.079 507.385 294.635 501.906C278.009 496.013 255.671 485.153 237.765 465.858C237.765 465.858 236.091 499.896 270.11 523.783C282.796 532.692 282.698 551.888 269.362 559.792C260.872 564.818 247.772 564.896 227.62 551.672C227.62 551.672 227.62 551.691 227.64 551.75C227.679 551.948 227.817 552.539 228.073 553.386C228.073 553.445 228.093 553.465 228.113 553.505C230.477 561.27 242.749 590.085 291.917 571.972C291.917 571.972 303.204 590.302 296.034 598.599C289.336 606.365 238.396 622.723 216.254 585.571C215.959 586.399 215.683 587.247 215.447 588.114C211.487 602.541 220.923 617.283 235.579 620.22C251.16 623.354 274.68 625.443 298.811 617.894C306.041 615.648 312.423 611.095 316.481 604.689C316.776 604.256 317.052 603.783 317.308 603.31C318.116 601.871 318.549 600.235 318.549 598.579C318.549 600.235 318.983 601.871 319.79 603.31C320.046 603.783 320.322 604.236 320.618 604.689C324.675 611.075 331.058 615.628 338.287 617.894C362.418 625.443 385.918 623.354 401.52 620.22C416.116 617.283 425.532 602.541 421.593 588.114Z" fill="#262F6A"/>
</g>
<g opacity="0.3">
<path d="M423.661 420.468C398.624 433.377 363.62 444.946 318.49 444.946C273.361 444.946 238.356 433.377 213.319 420.468C215.348 415.836 216.924 413.412 216.924 413.412C216.924 413.412 221.908 406.336 240.031 399.872C255.258 394.412 279.802 389.426 318.49 389.426C403.194 389.426 420.056 413.412 420.056 413.412C420.056 413.412 421.632 415.836 423.661 420.468Z" fill="#262F6A"/>
</g>
<path d="M232.092 553.327L232.387 554.155C232.506 554.47 232.643 554.786 232.781 555.101C233.057 555.732 233.353 556.363 233.668 556.993C234.298 558.235 235.007 559.457 235.775 560.62C237.332 562.945 239.124 565.094 241.153 566.946C245.211 570.671 250.274 573.174 255.829 574.298C261.384 575.5 267.352 575.323 273.282 574.495L277.773 573.785C279.27 573.47 280.787 573.273 282.304 572.958C283.801 572.623 285.337 572.366 286.874 572.051C288.41 571.716 289.947 571.401 291.542 571.164H291.582C292.054 571.105 292.468 571.42 292.547 571.874C292.586 572.209 292.448 572.504 292.192 572.682C290.872 573.608 289.494 574.456 288.095 575.283C287.406 575.717 286.677 576.032 285.948 576.407C285.219 576.761 284.49 577.136 283.761 577.471C282.284 578.141 280.767 578.732 279.231 579.304C277.694 579.856 276.099 580.289 274.523 580.743C271.312 581.492 268.022 582.063 264.654 582.26C262.979 582.418 261.265 582.379 259.571 582.379C258.724 582.359 257.858 582.26 257.011 582.201C256.164 582.142 255.297 582.024 254.45 581.866C251.042 581.314 247.614 580.408 244.403 578.89C241.212 577.392 238.159 575.461 235.559 573.076C232.919 570.711 230.654 567.971 228.782 565.015C227.857 563.537 227.029 561.98 226.3 560.403C225.946 559.615 225.611 558.787 225.296 557.959C225.138 557.545 225 557.111 224.862 556.678C224.725 556.225 224.606 555.85 224.449 555.239C223.917 553.13 225.178 550.982 227.285 550.45C229.255 549.937 231.245 551.021 231.934 552.874L232.092 553.327Z" fill="#262F6A"/>
<path d="M317.761 531.805C316.5 531.568 315.437 531.312 314.314 531.036C313.191 530.78 312.088 530.484 311.004 530.169C308.818 529.538 306.651 528.868 304.523 528.119C300.229 526.661 296.033 524.985 291.936 523.074C287.819 521.182 283.82 519.053 279.92 516.747C276.02 514.461 272.257 511.899 268.652 509.139C265.047 506.4 261.561 503.463 258.35 500.25C255.139 497.058 252.007 493.746 249.308 490.1C247.87 488.346 246.649 486.415 245.388 484.542C244.226 482.591 243.005 480.699 242.04 478.649C239.912 474.668 238.336 470.411 237.075 466.134C236.957 465.74 237.194 465.306 237.588 465.208C237.922 465.109 238.257 465.247 238.435 465.523L238.454 465.543C243.123 473.032 247.969 480.108 253.76 486.434C259.414 492.84 265.895 498.457 272.888 503.345C279.881 508.233 287.425 512.332 295.226 515.821C299.126 517.555 303.125 519.112 307.143 520.531C309.153 521.241 311.201 521.891 313.23 522.482C314.255 522.778 315.279 523.054 316.284 523.35C317.288 523.625 318.372 523.901 319.258 524.099L319.357 524.118C321.484 524.591 322.823 526.7 322.351 528.809C321.878 530.878 319.849 532.199 317.761 531.805Z" fill="#262F6A"/>
<path d="M317.761 524.059C318.648 523.862 319.731 523.586 320.736 523.31C321.76 523.034 322.765 522.739 323.789 522.443C325.838 521.852 327.866 521.201 329.876 520.492C333.914 519.073 337.893 517.516 341.793 515.781C349.594 512.293 357.139 508.213 364.132 503.306C371.125 498.418 377.625 492.801 383.259 486.395C389.031 480.068 393.896 472.993 398.565 465.503L398.584 465.484C398.801 465.129 399.274 465.03 399.629 465.247C399.924 465.425 400.042 465.779 399.963 466.095C398.722 470.391 397.127 474.629 394.999 478.61C394.034 480.66 392.793 482.552 391.651 484.503C390.39 486.375 389.169 488.287 387.731 490.061C385.032 493.707 381.9 497.018 378.689 500.211C375.478 503.424 371.991 506.341 368.387 509.1C364.782 511.859 361.019 514.402 357.119 516.708C353.219 519.014 349.22 521.162 345.103 523.034C341.005 524.946 336.79 526.621 332.515 528.08C330.368 528.809 328.221 529.499 326.035 530.13C324.951 530.445 323.848 530.741 322.725 530.997C321.602 531.273 320.539 531.509 319.278 531.766C317.15 532.179 315.082 530.78 314.668 528.651C314.255 526.543 315.614 524.513 317.682 524.059H317.761Z" fill="#262F6A"/>
<path d="M230.299 620.989C229.748 619.609 229.413 618.407 229.078 617.086C228.92 616.436 228.782 615.786 228.664 615.135C228.526 614.485 228.428 613.834 228.349 613.164C227.995 610.543 227.876 607.863 228.054 605.162C228.251 602.462 228.704 599.742 229.649 597.141C230.614 594.539 232.013 592.016 234.022 590.085C234.574 589.553 235.46 589.572 236.012 590.124C236.327 590.459 236.465 590.913 236.386 591.346L236.366 591.464C235.913 593.869 235.716 596.076 235.638 598.323C235.618 600.59 235.736 602.837 235.933 605.103C236.13 607.37 236.485 609.656 236.8 611.942C236.977 613.085 237.154 614.229 237.351 615.372C237.509 616.495 237.745 617.717 237.864 618.722L237.903 619.018C238.159 621.186 236.603 623.157 234.436 623.413C232.604 623.669 230.949 622.605 230.299 620.989Z" fill="#262F6A"/>
<path d="M261.758 624.182C261.206 622.802 260.871 621.6 260.536 620.279C260.379 619.629 260.241 618.978 260.123 618.328C259.985 617.678 259.886 617.027 259.808 616.357C259.453 613.736 259.335 611.055 259.512 608.355C259.709 605.655 260.162 602.935 261.108 600.334C262.073 597.732 263.472 595.209 265.481 593.278C266.032 592.746 266.919 592.765 267.47 593.317C267.786 593.652 267.923 594.105 267.845 594.539L267.825 594.657C267.372 597.062 267.175 599.269 267.096 601.516C267.076 603.783 267.195 606.03 267.392 608.296C267.589 610.563 267.943 612.849 268.258 615.135C268.436 616.278 268.613 617.421 268.81 618.565C268.967 619.688 269.204 620.91 269.322 621.915L269.361 622.211C269.618 624.379 268.061 626.35 265.894 626.606C264.062 626.842 262.408 625.798 261.758 624.182Z" fill="#262F6A"/>
<path d="M412.531 555.338C412.373 555.949 412.255 556.304 412.117 556.777C411.98 557.21 411.842 557.624 411.684 558.058C411.389 558.886 411.054 559.713 410.679 560.502C409.951 562.098 409.143 563.635 408.197 565.114C406.326 568.07 404.061 570.81 401.421 573.175C398.801 575.559 395.768 577.491 392.576 578.989C389.366 580.506 385.938 581.413 382.53 581.965C381.683 582.103 380.816 582.241 379.969 582.3C379.122 582.359 378.255 582.477 377.408 582.477C375.695 582.477 374.001 582.517 372.326 582.359C368.958 582.162 365.668 581.59 362.457 580.841C360.881 580.368 359.286 579.935 357.749 579.403C356.232 578.811 354.696 578.24 353.219 577.57C352.49 577.235 351.761 576.86 351.032 576.505C350.303 576.131 349.574 575.816 348.885 575.382C347.486 574.554 346.107 573.707 344.788 572.78C344.413 572.505 344.315 571.972 344.571 571.598C344.768 571.322 345.083 571.204 345.379 571.243H345.418C347.014 571.48 348.57 571.795 350.086 572.13C351.623 572.445 353.159 572.702 354.657 573.037C356.173 573.352 357.69 573.549 359.187 573.864L363.679 574.574C369.608 575.402 375.576 575.579 381.131 574.377C386.687 573.253 391.749 570.75 395.807 567.025C397.836 565.173 399.628 563.024 401.185 560.699C401.933 559.516 402.662 558.314 403.292 557.072C403.608 556.442 403.903 555.811 404.179 555.18C404.317 554.865 404.455 554.549 404.573 554.234L404.868 553.406L405.006 553.052C405.755 551.022 408.02 549.977 410.069 550.726C411.98 551.376 413.004 553.406 412.531 555.338Z" fill="#262F6A"/>
<path d="M399.156 618.762C399.274 617.757 399.491 616.535 399.668 615.411C399.865 614.268 400.022 613.125 400.219 611.982C400.535 609.695 400.889 607.409 401.086 605.143C401.283 602.876 401.401 600.629 401.382 598.363C401.303 596.116 401.106 593.889 400.653 591.504L400.633 591.386C400.495 590.617 400.988 589.888 401.756 589.75C402.209 589.671 402.662 589.809 402.977 590.124C404.986 592.056 406.405 594.579 407.35 597.18C408.296 599.801 408.749 602.521 408.946 605.202C409.123 607.902 409.025 610.582 408.65 613.204C408.572 613.854 408.473 614.524 408.335 615.175C408.217 615.825 408.099 616.475 407.922 617.126C407.606 618.427 407.272 619.629 406.7 621.028C405.893 623.058 403.588 624.044 401.559 623.216C399.865 622.546 398.9 620.811 399.097 619.077L399.156 618.762Z" fill="#262F6A"/>
<path d="M367.697 621.955C367.815 620.949 368.032 619.727 368.209 618.604C368.406 617.461 368.564 616.318 368.761 615.175C369.076 612.888 369.431 610.602 369.628 608.335C369.825 606.069 369.943 603.822 369.923 601.556C369.844 599.309 369.647 597.082 369.194 594.697L369.175 594.578C369.037 593.81 369.529 593.081 370.297 592.943C370.75 592.864 371.204 593.002 371.519 593.317C373.528 595.249 374.946 597.771 375.892 600.373C376.837 602.994 377.29 605.714 377.487 608.395C377.665 611.095 377.566 613.775 377.192 616.397C377.113 617.047 377.015 617.717 376.877 618.367C376.759 619.018 376.64 619.668 376.463 620.319C376.148 621.619 375.813 622.822 375.242 624.221C374.434 626.251 372.129 627.237 370.1 626.409C368.406 625.739 367.441 624.004 367.638 622.27L367.697 621.955Z" fill="#262F6A"/>
<path d="M318.49 602.541C316.323 602.541 314.55 600.767 314.55 598.599V527.922C314.55 525.754 316.323 523.98 318.49 523.98C320.657 523.98 322.43 525.754 322.43 527.922V598.599C322.43 600.787 320.677 602.541 318.49 602.541Z" fill="#262F6A"/>
<path d="M263.61 627C252.579 627 242.65 625.66 234.771 624.083C226.596 622.447 219.386 617.421 215.013 610.306C210.66 603.231 209.458 594.992 211.625 587.069C214.068 578.141 219.032 571.184 222.755 566.907C224.863 564.502 225.749 561.27 225.138 558.294C222.715 546.39 218.027 536.732 215.486 531.549L215.388 531.371C212.472 525.38 210.01 519.171 208.04 512.904C188.716 450.958 212.59 412.88 213.615 411.283C213.634 411.244 213.674 411.205 213.694 411.145C214.422 410.101 232.722 385.464 318.47 385.464C404.218 385.464 422.518 410.081 423.247 411.145C423.287 411.185 423.306 411.224 423.326 411.283C424.35 412.88 448.245 450.958 428.901 512.904C426.951 519.171 424.469 525.399 421.553 531.391L421.455 531.588C418.933 536.772 414.225 546.429 411.802 558.333C411.192 561.329 412.078 564.542 414.186 566.946C417.929 571.223 422.873 578.181 425.316 587.109C427.483 595.032 426.281 603.29 421.927 610.346C417.535 617.461 410.345 622.487 402.17 624.123C386.214 627.335 361.945 629.503 336.987 621.698C329.383 619.314 322.883 614.741 318.431 608.69C313.979 614.741 307.479 619.314 299.875 621.698C287.327 625.601 274.877 627 263.61 627ZM220.174 415.659C218.795 417.945 197.895 453.934 215.565 510.539C217.397 516.432 219.721 522.285 222.479 527.922L222.578 528.1C225.257 533.598 230.24 543.827 232.86 556.717C233.963 562.098 232.388 567.853 228.684 572.11C225.493 575.756 221.258 581.669 219.209 589.159C217.633 594.953 218.52 601.004 221.711 606.187C224.961 611.45 230.28 615.155 236.308 616.377C251.357 619.392 274.227 621.482 297.59 614.15C304.169 612.1 309.665 607.981 313.093 602.6C313.349 602.186 313.605 601.772 313.841 601.359C314.314 600.531 314.55 599.585 314.55 598.619C314.55 596.451 316.323 594.677 318.49 594.677C320.657 594.677 322.43 596.451 322.43 598.619C322.43 599.585 322.666 600.531 323.139 601.359C323.375 601.772 323.631 602.206 323.888 602.6C327.315 607.981 332.831 612.08 339.39 614.15C362.773 621.462 385.623 619.392 400.673 616.377C406.72 615.155 412.039 611.45 415.289 606.187C418.48 601.004 419.367 594.953 417.791 589.159C415.742 581.669 411.507 575.756 408.316 572.11C404.612 567.873 403.037 562.118 404.14 556.737C406.76 543.847 411.743 533.618 414.422 528.119L414.521 527.922C417.259 522.285 419.583 516.451 421.435 510.539C439.223 453.54 418.086 417.728 416.826 415.639C415.998 414.634 397.541 393.348 318.51 393.348C240.07 393.348 221.297 414.299 220.174 415.659Z" fill="#262F6A"/>
<path d="M296.408 150.787C189.819 177.828 161.453 280.454 161.453 280.454C150.638 248.565 147.23 217.207 147.486 189.516C147.742 163.874 151.131 141.406 154.716 124.594C158.715 105.811 177.212 93.7293 195.984 97.7106C231.58 105.239 256.853 118.74 273.144 130.25C289.06 141.465 296.408 150.787 296.408 150.787Z" fill="#8C8CAA"/>
<g opacity="0.3">
<path d="M296.408 150.787C189.819 177.828 161.453 280.454 161.453 280.454C150.638 248.565 147.23 217.207 147.486 189.516C147.565 189.693 147.664 189.871 147.742 190.068C154.164 203.391 172.149 205.855 181.939 194.759C212.196 160.465 250.018 140.282 273.164 130.25C289.06 141.465 296.408 150.787 296.408 150.787Z" fill="#262F6A"/>
</g>
<g opacity="0.4">
<path d="M194.015 105.594C229.61 113.123 254.883 126.624 271.174 138.134C279.309 143.869 285.18 149.092 289.001 152.837C291.424 152.128 293.886 151.418 296.408 150.787C296.408 150.787 289.06 141.465 273.164 130.25C256.853 118.74 231.58 105.239 195.984 97.7106C177.212 93.7293 158.715 105.811 154.696 124.594C154.44 125.737 154.204 126.939 153.967 128.142C159.7 111.881 176.739 101.928 194.015 105.594Z" fill="white"/>
</g>
<path d="M161.453 284.376C159.778 284.376 158.262 283.312 157.73 281.696C137.105 220.952 142.621 162.298 150.855 123.766C155.326 102.855 175.951 89.4328 196.812 93.8476C267.727 108.866 298.24 146.747 299.501 148.363C300.328 149.408 300.564 150.807 300.131 152.068C299.698 153.33 298.654 154.296 297.373 154.631C243.478 168.289 210.423 202.09 192.183 228.047C172.385 256.192 165.314 281.262 165.255 281.518C164.802 283.194 163.304 284.356 161.571 284.416C161.532 284.376 161.492 284.376 161.453 284.376ZM188.794 100.884C174.552 100.884 161.669 110.876 158.557 125.422C151.032 160.583 145.851 212.911 161.65 267.899C165.747 257.493 173.292 241.174 185.741 223.475C204.021 197.478 236.603 163.894 289.119 148.679C278.738 138.311 248.816 112.906 195.177 101.554C193.03 101.101 190.902 100.884 188.794 100.884Z" fill="#262F6A"/>
<path d="M275.882 161.233C275.882 161.233 254.095 133.561 203.135 122.781C189.523 119.903 176.148 128.654 173.232 142.273C167.815 167.599 163.028 210.703 178.117 255.167C178.117 255.167 198.683 180.824 275.882 161.233Z" fill="#FC90BA"/>
<g opacity="0.3">
<path d="M181.9 153.704C184.579 141.149 196.95 133.049 209.517 135.71C239.735 142.115 258.823 154.926 268.633 163.283C270.997 162.554 273.42 161.864 275.902 161.233C275.902 161.233 254.115 133.561 203.155 122.781C189.543 119.903 176.168 128.654 173.252 142.273C167.835 167.599 163.048 210.703 178.137 255.167C178.137 255.167 179.359 250.752 182.313 243.814C173.508 207.924 177.468 174.379 181.9 153.704Z" fill="#262F6A"/>
</g>
<path d="M178.118 259.109C176.443 259.109 174.926 258.045 174.395 256.429C159.384 212.181 163.383 169.472 169.391 141.445C172.76 125.698 188.262 115.607 203.962 118.937C255.73 129.896 278.068 157.646 278.994 158.809C279.821 159.854 280.058 161.253 279.624 162.514C279.191 163.776 278.147 164.741 276.867 165.077C245.861 172.921 220.489 190.58 201.441 217.562C187.14 237.823 181.978 256.015 181.919 256.212C181.447 257.887 179.969 259.05 178.236 259.089C178.196 259.089 178.157 259.109 178.118 259.109ZM197.934 126.171C188.105 126.171 179.24 133.069 177.093 143.081C171.814 167.777 168.13 204.219 178.472 242.731C181.663 235.182 186.883 224.598 194.842 213.285C207.981 194.601 231.245 170.556 268.534 159.203C260.083 151.162 238.868 134.37 202.347 126.644C200.85 126.309 199.372 126.171 197.934 126.171Z" fill="#262F6A"/>
<path d="M340.592 150.787C447.181 177.809 475.547 280.454 475.547 280.454C486.361 248.565 489.789 217.207 489.513 189.516C489.257 163.874 485.889 141.406 482.284 124.594C478.265 105.811 459.788 93.7293 441.015 97.7106C405.42 105.259 380.147 118.74 363.836 130.25C347.92 141.465 340.592 150.787 340.592 150.787Z" fill="#8C8CAA"/>
<g opacity="0.3">
<path d="M340.592 150.787C447.181 177.809 475.547 280.454 475.547 280.454C486.361 248.565 489.789 217.207 489.513 189.516C489.434 189.693 489.336 189.871 489.257 190.068C482.835 203.391 464.851 205.855 455.06 194.759C424.803 160.465 386.982 140.282 363.836 130.25C347.92 141.465 340.592 150.787 340.592 150.787Z" fill="#262F6A"/>
</g>
<g opacity="0.4">
<path d="M442.985 105.594C407.39 113.143 382.117 126.624 365.806 138.134C357.671 143.869 351.8 149.092 347.979 152.837C345.556 152.128 343.094 151.418 340.572 150.787C340.572 150.787 347.92 141.465 363.817 130.25C380.107 118.74 405.4 105.239 440.996 97.7106C459.769 93.7293 478.246 105.811 482.264 124.594C482.52 125.737 482.757 126.939 482.993 128.142C477.3 111.881 460.261 101.928 442.985 105.594Z" fill="white"/>
</g>
<path d="M475.547 284.376C475.508 284.376 475.468 284.376 475.429 284.376C473.696 284.317 472.198 283.154 471.745 281.479C471.667 281.222 464.516 255.936 444.64 227.771C426.399 201.913 393.384 168.23 339.607 154.591C338.307 154.256 337.283 153.31 336.849 152.029C336.416 150.768 336.652 149.368 337.48 148.324C338.74 146.727 369.253 108.846 440.168 93.808C461.029 89.3932 481.634 102.815 486.125 123.746C494.379 162.258 499.875 220.932 479.27 281.676C478.738 283.312 477.241 284.376 475.547 284.376ZM347.881 148.678C400.377 163.894 432.959 197.478 451.259 223.475C463.689 241.154 471.253 257.493 475.35 267.899C491.148 212.911 485.968 160.563 478.443 125.422C474.877 108.748 458.449 98.0258 441.823 101.554C388.204 112.926 358.262 138.311 347.881 148.678Z" fill="#262F6A"/>
<path d="M361.118 161.233C361.118 161.233 382.904 133.561 433.865 122.781C447.476 119.903 460.852 128.654 463.767 142.273C469.184 167.599 473.971 210.703 458.882 255.167C458.882 255.167 438.317 180.824 361.118 161.233Z" fill="#FC90BA"/>
<g opacity="0.3">
<path d="M455.1 153.704C452.421 141.149 440.05 133.049 427.482 135.71C397.265 142.115 378.177 154.926 368.367 163.283C366.003 162.554 363.58 161.864 361.098 161.233C361.098 161.233 382.885 133.561 433.845 122.781C447.457 119.903 460.832 128.654 463.748 142.273C469.165 167.599 473.951 210.703 458.862 255.167C458.862 255.167 457.641 250.752 454.686 243.814C463.491 207.924 459.532 174.379 455.1 153.704Z" fill="#262F6A"/>
</g>
<path d="M458.882 259.109C458.843 259.109 458.803 259.109 458.764 259.109C457.03 259.05 455.533 257.887 455.08 256.212C455.041 256.034 449.86 237.823 435.559 217.582C416.51 190.6 391.119 172.921 360.133 165.057C358.833 164.722 357.809 163.776 357.375 162.494C356.942 161.233 357.178 159.834 358.006 158.789C358.931 157.607 381.27 129.876 433.038 118.918C448.737 115.587 464.24 125.697 467.609 141.425C473.617 169.472 477.615 212.181 462.605 256.409C462.073 258.025 460.556 259.109 458.882 259.109ZM368.465 159.183C405.775 170.516 429.039 194.581 442.178 213.265C450.136 224.578 455.356 235.162 458.547 242.711C468.889 204.219 465.205 167.757 459.926 143.061C457.464 131.571 446.137 124.18 434.692 126.604C397.994 134.409 376.857 151.142 368.465 159.183Z" fill="#262F6A"/>
<path d="M494.241 335.561C494.241 335.561 501.096 342.222 506.06 346.007C506.06 346.007 498.673 365.755 471.016 376.733C471.016 376.733 456.971 393.289 428.684 408.899C403.411 422.853 366.732 436.058 318.49 436.058C270.248 436.058 233.569 422.853 208.296 408.899C180.009 393.289 165.964 376.733 165.964 376.733C138.326 365.755 130.939 346.007 130.939 346.007C135.904 342.222 142.759 335.561 142.759 335.561C134.623 326.593 130.939 312.54 130.939 312.54C145.654 307.475 150.993 299.237 150.993 299.237C154.282 273.497 161 251.836 169.923 233.684C183.673 205.776 202.662 186.047 222.479 172.132C233.254 164.564 244.679 158.415 256.577 153.665C260.95 151.93 265.382 150.373 269.854 149.033C280.984 145.643 292.409 143.456 303.893 142.47C313.585 141.623 323.375 141.623 333.067 142.47C344.551 143.475 355.976 145.663 367.106 149.033C371.578 150.373 376.01 151.93 380.383 153.665C392.281 158.395 403.706 164.564 414.481 172.132C447.201 195.133 477.674 233.921 485.987 299.237C485.987 299.237 491.345 307.475 506.04 312.54C506.06 312.54 502.357 326.593 494.241 335.561Z" fill="#8C8CAA"/>
<path d="M396.102 279.823C396.102 279.823 372.602 254.063 318.51 254.063C264.417 254.063 240.897 279.823 240.897 279.823C161.118 286.997 156.922 363.233 156.922 363.233L165.964 376.753C165.964 376.753 180.009 393.309 208.296 408.918C233.569 422.872 270.248 436.078 318.49 436.078C366.732 436.078 403.411 422.872 428.684 408.918C456.971 393.309 471.016 376.753 471.016 376.753L480.058 363.233C480.058 363.233 475.882 286.997 396.102 279.823Z" fill="white"/>
<path d="M281.447 217.583C285.559 214.362 285.391 207.277 281.073 201.757C276.754 196.238 269.92 194.374 265.808 197.594C261.696 200.815 261.864 207.9 266.182 213.42C270.501 218.94 277.335 220.803 281.447 217.583Z" fill="white"/>
<path d="M370.799 213.426C375.117 207.906 375.285 200.821 371.173 197.6C367.061 194.38 360.227 196.243 355.908 201.763C351.59 207.283 351.422 214.368 355.534 217.589C359.646 220.809 366.48 218.946 370.799 213.426Z" fill="white"/>
<g opacity="0.3">
<path d="M506.06 312.54C491.345 307.475 486.007 299.237 486.007 299.237C482.717 273.497 476 251.836 467.076 233.684C473.872 262.42 497.668 408.761 318.51 408.761C139.351 408.761 163.127 262.42 169.923 233.684C160.98 251.836 154.263 273.497 150.993 299.237C150.993 299.237 145.635 307.475 130.939 312.54C130.939 312.54 134.623 326.593 142.759 335.561C142.759 335.561 135.904 342.222 130.939 346.007C130.939 346.007 138.326 365.755 165.983 376.733C165.983 376.733 180.028 393.289 208.316 408.899C233.589 422.853 270.268 436.058 318.51 436.058C366.751 436.058 403.43 422.853 428.704 408.899C456.991 393.289 471.036 376.733 471.036 376.733C498.693 365.755 506.08 346.007 506.08 346.007C501.116 342.222 494.261 335.561 494.261 335.561C502.357 326.593 506.06 312.54 506.06 312.54Z" fill="#262F6A"/>
</g>
<g opacity="0.3">
<path d="M366.751 271.86C366.751 271.86 362.418 284.435 345.004 283.587C327.591 282.74 329.167 265.317 329.167 265.317L318.47 264.056L307.774 265.317C307.774 265.317 309.35 282.74 291.936 283.587C274.523 284.435 270.189 271.86 270.189 271.86C270.189 271.86 261.915 296.931 283.899 304.44C303.854 311.259 318.45 297.778 318.45 297.778C318.45 297.778 333.047 311.239 353.002 304.44C375.045 296.911 366.751 271.86 366.751 271.86Z" fill="#262F6A"/>
</g>
<g opacity="0.4">
<path d="M414.501 172.132C357.06 131.729 279.92 131.729 222.479 172.132C202.662 186.067 183.673 205.796 169.923 233.684C160.98 251.836 154.263 273.497 150.993 299.237L151.485 299.316C155.287 277.813 162.142 259.345 169.923 243.539C183.673 215.631 202.662 195.902 222.479 181.987C231.619 175.562 241.271 170.142 251.259 165.766C252.637 165.155 254.213 165.274 255.513 166.042C260.34 168.861 271.568 169.176 284.096 166.476C296.999 163.677 307.301 158.533 310.217 153.862C311.024 152.581 312.462 151.812 313.979 151.773C349.121 150.827 384.5 160.898 414.501 182.007C445.566 203.844 475.468 239.873 485.534 299.335L486.007 299.257C477.694 233.921 447.22 195.133 414.501 172.132Z" fill="white"/>
</g>
<g opacity="0.3">
<path d="M318.49 243.479C254.253 243.479 240.897 279.803 240.897 279.803C272.139 250.023 318.49 254.044 318.49 254.044C318.49 254.044 364.86 250.043 396.083 279.803C396.102 279.823 382.727 243.479 318.49 243.479Z" fill="#262F6A"/>
</g>
<path d="M222.833 242.139C230.102 232.679 240.582 226.057 252.795 224.854C258.626 224.381 264.673 225.446 269.933 228.047C275.508 230.866 280.117 235.044 283.269 239.892C284.923 242.435 284.195 245.825 281.653 247.48C279.585 248.821 276.965 248.584 275.173 247.106C269.657 242.868 264.831 239.439 258.449 237.705C247.24 234.768 235.441 239.341 225.434 244.859C223.661 246.002 221.573 243.814 222.833 242.139Z" fill="#262F6A"/>
<path d="M411.585 244.839C401.579 239.321 389.779 234.729 378.571 237.685C372.188 239.419 367.362 242.849 361.846 247.086C359.463 249.057 355.878 248.683 354.006 246.199C352.549 244.307 352.529 241.765 353.75 239.873C356.902 235.024 361.512 230.846 367.086 228.027C371.282 225.978 376.049 224.795 380.737 224.756C391.256 224.539 401.086 229.23 408.572 235.97C410.64 237.843 412.492 239.794 414.186 242.12C414.796 242.967 414.619 244.15 413.772 244.78C413.102 245.273 412.235 245.253 411.585 244.839Z" fill="#262F6A"/>
<path d="M341.321 258.025C340.296 254.576 335.293 252.467 330.25 251.205C322.548 249.294 314.452 249.294 306.75 251.205C301.687 252.467 296.703 254.556 295.679 258.025C293.453 265.475 303.342 274.975 318.51 274.975C333.678 274.975 343.547 265.475 341.321 258.025Z" fill="#262F6A"/>
<path d="M322.43 271.86C322.725 283.311 315.299 294.408 304.268 297.817C290.144 302.429 271.686 298.921 268.948 282.011C268.416 278.581 268.515 275.152 269.519 271.821C269.716 271.151 270.741 271.171 270.898 271.86C274.05 284.376 280.137 292.279 293.256 290.899C304.898 290.289 312.975 283.568 314.531 271.88C315.102 266.795 322.075 266.795 322.43 271.86Z" fill="#262F6A"/>
<path d="M322.43 271.861C324.301 285.657 334.682 291.53 347.861 290.959C358.399 290.742 363.56 281.991 366.042 271.9C366.121 271.486 366.535 271.23 366.929 271.329C367.185 271.388 367.362 271.585 367.441 271.802C368.446 275.132 368.544 278.562 368.012 281.991C367.008 289.382 361.374 296.083 354.046 298.212C346.797 300.34 339.823 300.005 332.693 297.778C321.661 294.369 314.235 283.272 314.55 271.821C314.944 266.756 321.898 266.815 322.43 271.861Z" fill="#262F6A"/>
<path d="M162.871 379.157C159.877 374.348 157.217 369.263 155.957 363.686C155.839 363.075 156.252 362.503 156.843 362.385C157.237 362.306 157.631 362.464 157.887 362.759C159.719 364.73 161.63 366.622 163.521 368.534C165.136 370.209 167.559 372.614 169.076 374.309C172.681 378.625 166.161 383.71 162.871 379.157Z" fill="#262F6A"/>
<path d="M467.904 374.309C470.484 371.49 473.636 368.416 476.295 365.656C477.26 364.691 478.206 363.705 479.112 362.72C479.526 362.266 480.235 362.247 480.688 362.661C480.984 362.917 481.082 363.311 481.023 363.666C480.767 365.124 480.294 366.504 479.821 367.844C478.285 371.806 476.433 375.57 474.128 379.137C470.839 383.69 464.318 378.625 467.904 374.309Z" fill="#262F6A"/>
<path d="M240.228 279.232C248.954 267.544 262.743 261.119 276.197 256.488C289.829 252.033 304.209 250.22 318.51 250.122C323.691 250.161 323.927 257.71 318.707 258.005H318.51L308.286 258.301C291.405 259.286 274.346 262.479 259.02 269.89C252.933 272.846 246.925 276.236 241.587 280.415C240.838 281.104 239.597 280.119 240.228 279.232Z" fill="#262F6A"/>
<path d="M395.413 280.395C377.803 266.973 355.701 260.272 333.816 258.695L328.733 258.281L318.51 257.985C316.264 258.025 314.412 256.192 314.472 253.925C314.531 251.757 316.323 250.042 318.51 250.102C322.075 250.18 325.641 250.279 329.206 250.476C339.883 251.304 350.619 253.137 360.822 256.487C370.987 259.917 381.033 264.47 389.326 271.387C392.084 273.713 394.665 276.197 396.792 279.232C397.068 279.646 396.969 280.197 396.575 280.473C396.201 280.73 395.728 280.67 395.413 280.395Z" fill="#262F6A"/>
<path d="M318.49 277.064C324.793 301.444 355.464 293.363 355.464 293.363C355.464 293.363 349.653 312.54 348.176 327.106C346.698 341.671 343.468 366.169 318.49 366.169C293.512 366.169 290.282 341.671 288.804 327.106C287.327 312.54 281.516 293.363 281.516 293.363C281.516 293.363 312.206 301.464 318.49 277.064Z" fill="#262F6A"/>
<path d="M318.489 366.169C347.742 366.169 348.175 327.106 348.175 327.106C348.175 327.106 336.336 313.329 318.489 324.09C300.643 313.329 288.804 327.106 288.804 327.106C288.804 327.106 289.257 366.169 318.489 366.169Z" fill="#FF6981"/>
<path d="M321.937 324.11C322.607 328.879 321.7 333.669 320.656 338.34C320.262 339.916 319.849 341.513 319.238 343.09C319.002 343.779 317.958 343.76 317.721 343.09C316.067 338.478 315.18 333.688 314.845 328.86C314.727 325.667 314.51 320.799 319.061 321.232C320.578 321.488 321.7 322.671 321.937 324.11Z" fill="#262F6A"/>
<path d="M318.489 369.618C292.665 369.618 285.514 341.829 285.356 327.145C285.356 326.298 285.652 325.49 286.184 324.859C290.754 319.537 303.203 312.009 318.489 320.129C333.776 312.009 346.225 319.518 350.795 324.859C351.347 325.49 351.642 326.317 351.623 327.145C351.465 341.848 344.334 369.618 318.489 369.618ZM292.31 328.466C292.684 335.167 295.639 362.72 318.489 362.72C329.048 362.72 336.652 356.886 341.084 345.396C343.783 338.399 344.492 331.363 344.669 328.466C341.891 325.923 332.909 319.419 320.262 327.047C319.159 327.717 317.8 327.717 316.697 327.047C304.07 319.439 295.088 325.923 292.31 328.466Z" fill="#262F6A"/>
<path d="M318.49 370.111C289.198 370.111 286.184 340.252 284.884 327.5C283.466 313.467 277.792 294.684 277.733 294.507C277.32 293.147 277.674 291.649 278.659 290.624C279.644 289.599 281.121 289.185 282.5 289.54C282.638 289.579 296.841 293.166 306.513 287.49C310.65 285.066 313.309 281.321 314.668 276.059C315.121 274.325 316.677 273.103 318.49 273.103C320.282 273.103 321.858 274.325 322.311 276.059C323.67 281.302 326.33 285.046 330.466 287.49C340.139 293.186 354.341 289.579 354.479 289.54C355.858 289.185 357.335 289.599 358.32 290.624C359.305 291.649 359.66 293.127 359.246 294.507C359.187 294.704 353.514 313.487 352.096 327.5C350.815 340.252 347.782 370.111 318.49 370.111ZM287.011 298.291C288.883 305.228 291.739 316.877 292.744 326.711C294.615 345.159 299.028 362.227 318.509 362.227C337.991 362.227 342.404 345.159 344.275 326.711C345.28 316.877 348.136 305.228 350.008 298.291C343.822 298.941 334.347 298.902 326.527 294.31C323.257 292.378 320.578 289.875 318.509 286.781C316.441 289.875 313.782 292.378 310.492 294.31C302.652 298.902 293.177 298.941 287.011 298.291Z" fill="#262F6A"/>
<path d="M318.49 440.019C264.811 440.019 225.453 423.602 201.914 409.805C179.221 396.521 166.594 383.336 163.639 380.044C135.411 368.475 127.571 348.253 127.256 347.386C126.645 345.77 127.177 343.937 128.556 342.873C131.412 340.685 134.998 337.433 137.401 335.206C130.447 325.864 127.295 314.078 127.138 313.526C126.606 311.535 127.709 309.466 129.659 308.796C140.434 305.071 145.694 299.532 147.211 297.68C154.657 241.075 179.201 197.735 220.214 168.9C278.994 127.55 357.986 127.55 416.766 168.9C457.779 197.735 482.343 241.075 489.769 297.699C491.266 299.532 496.526 305.09 507.321 308.815C509.271 309.486 510.374 311.555 509.842 313.546C509.704 314.097 506.533 325.884 499.579 335.226C501.983 337.453 505.568 340.705 508.424 342.893C509.803 343.957 510.335 345.77 509.724 347.406C509.409 348.273 501.549 368.495 473.341 380.064C470.386 383.355 457.759 396.541 435.066 409.825C411.527 423.582 372.188 440.019 318.49 440.019ZM135.864 347.11C138.819 352.452 147.585 365.184 167.441 373.067C168.052 373.304 168.584 373.698 168.997 374.191C169.115 374.329 181.624 388.854 206.228 403.203C228.901 416.408 266.761 432.155 318.51 432.155C370.258 432.155 408.138 416.408 430.792 403.203C455.395 388.874 467.904 374.348 468.022 374.191C468.436 373.698 468.968 373.323 469.578 373.087C489.415 365.203 498.2 352.491 501.155 347.13C496.605 343.326 491.759 338.635 491.503 338.399C489.986 336.921 489.907 334.496 491.326 332.92C496.388 327.322 499.638 319.38 501.195 314.906C488.056 309.426 482.934 301.74 482.717 301.385C482.402 300.892 482.185 300.321 482.107 299.729C475.133 244.879 451.633 203.036 412.255 175.345C356.173 135.907 280.826 135.907 224.764 175.345C185.387 203.036 161.866 244.879 154.893 299.729C154.814 300.321 154.617 300.873 154.282 301.385C154.046 301.74 148.944 309.426 135.805 314.906C137.361 319.36 140.612 327.322 145.674 332.92C147.092 334.496 147.014 336.921 145.497 338.399C145.26 338.616 140.415 343.306 135.864 347.11Z" fill="#262F6A"/>
<path d="M317.801 257.414C322.435 257.414 326.192 256.443 326.192 255.246C326.192 254.048 322.435 253.078 317.801 253.078C313.166 253.078 309.409 254.048 309.409 255.246C309.409 256.443 313.166 257.414 317.801 257.414Z" fill="white"/>
</g>
<defs>
<clipPath id="clip0_246_9039">
<rect width="383" height="534" fill="white" transform="translate(127 93)"/>
</clipPath>
</defs>
</svg>
