<svg width="638" height="611" viewBox="0 0 638 611" fill="none" xmlns="http://www.w3.org/2000/svg">
<ellipse cx="325" cy="299.5" rx="313" ry="299.5" fill="#B0A2D7"/>
<g clip-path="url(#clip0_244_5934)">
<path d="M338.787 324.812L173.24 288.244L300.055 559.319C316.317 594.092 361.256 594.092 377.519 559.319L504.334 288.244L338.787 324.812Z" fill="#F6A428"/>
<path d="M338.787 585.983C321.94 585.983 307.256 576.1 299.535 559.578L172.223 287.444L338.787 324.229L505.35 287.444L504.853 288.503L378.038 559.578C370.296 576.122 355.633 585.983 338.787 585.983ZM174.256 289.066L300.573 559.081C308.121 575.192 322.394 584.837 338.787 584.837C355.179 584.837 369.452 575.213 377 559.081L503.317 289.066L338.787 325.418L338.657 325.396L174.256 289.066Z" fill="#390075"/>
<path d="M357.342 324.812L502.192 292.828L504.333 288.244L348.064 322.78L357.342 324.812Z" fill="white"/>
<g opacity="0.6">
<path d="M318.609 559.34L193.935 292.829L173.239 288.266L300.054 559.34C309.851 580.274 330.006 588.578 348.064 584.318C336.105 581.485 325.097 573.181 318.609 559.34Z" fill="white"/>
</g>
<mask id="mask0_244_5934" style="mask-type:luminance" maskUnits="userSpaceOnUse" x="173" y="288" width="332" height="298">
<path d="M338.786 324.812L173.239 288.244L300.054 559.319C316.317 594.092 361.256 594.092 377.518 559.319L504.333 288.244L338.786 324.812Z" fill="white"/>
</mask>
<g mask="url(#mask0_244_5934)">
<g opacity="0.3">
<path d="M398.82 449.224C377.799 421.889 382.471 392.262 396.982 363.565C382.881 349.487 367.311 346.027 360.066 349.574C353.211 352.904 349.08 360.127 349.08 367.761V386.618C349.08 401.367 340.192 414.839 326.438 420.181C325.875 420.397 325.291 420.613 324.729 420.808C301.481 428.788 277.39 410.925 277.39 386.359V372.043C277.39 365.75 273.67 359.976 267.874 357.553C264.284 356.04 261.041 355.823 258.186 356.321C250.768 357.597 245.47 364.279 245.47 371.805V377.254C245.47 394.295 231.716 408.503 214.674 408.265C214.199 408.243 213.701 408.243 213.226 408.222C197.071 407.292 184.614 393.495 184.614 377.297V373.902C184.614 350.785 175.445 328.748 159.593 311.881C140.67 291.747 129.425 266.402 129.425 238.895C129.425 173.261 193.546 120.063 272.61 120.063C297.329 120.063 320.577 125.253 340.884 134.422L355.481 113.186C355.481 113.186 508.701 97.5508 535.604 252.8C560.669 397.409 440.277 503.114 398.82 449.224Z" fill="#390075"/>
</g>
</g>
<mask id="mask1_244_5934" style="mask-type:luminance" maskUnits="userSpaceOnUse" x="173" y="288" width="332" height="298">
<path d="M338.786 324.812L173.239 288.244L300.054 559.319C316.317 594.092 361.256 594.092 377.518 559.319L504.333 288.244L338.786 324.812Z" fill="white"/>
</mask>
<g mask="url(#mask1_244_5934)">
<g opacity="0.5">
<path d="M433.768 451.84C401.675 451.84 371.333 447.018 343.263 437.395C313.527 427.209 286.235 411.704 262.187 391.268C221.206 356.451 204.035 319.969 203.321 318.412C202.521 316.681 203.278 314.627 205.008 313.827C206.738 313.027 208.792 313.784 209.593 315.514C209.766 315.881 226.98 352.385 266.88 386.186C303.644 417.326 367.787 452.532 464.671 443.428C466.596 443.255 468.261 444.639 468.434 446.542C468.607 448.445 467.223 450.132 465.32 450.305C454.615 451.343 444.105 451.84 433.768 451.84Z" fill="#390075"/>
<path d="M433.768 514.23C401.675 514.23 371.333 509.407 343.263 499.784C313.527 489.598 286.235 474.093 262.187 453.657C221.206 418.84 204.035 382.358 203.321 380.801C202.521 379.071 203.278 377.016 205.008 376.216C206.738 375.416 208.792 376.173 209.593 377.903C209.766 378.271 226.98 414.774 266.88 448.575C303.644 479.716 367.787 514.922 464.671 505.818C466.596 505.645 468.261 507.029 468.434 508.932C468.607 510.835 467.223 512.521 465.32 512.694C454.615 513.732 444.105 514.23 433.768 514.23Z" fill="#390075"/>
<path d="M433.768 569.094C401.675 569.094 371.334 564.271 343.263 554.648C313.506 544.484 286.214 528.957 262.166 508.521C221.184 473.704 204.013 437.222 203.3 435.665C202.499 433.935 203.256 431.88 204.986 431.08C206.716 430.28 208.771 431.037 209.571 432.767C209.744 433.134 226.958 469.638 266.858 503.439C303.623 534.579 367.765 569.786 464.65 560.681C466.553 560.508 468.24 561.892 468.413 563.795C468.586 565.698 467.202 567.385 465.298 567.558C454.637 568.596 444.105 569.094 433.768 569.094Z" fill="#390075"/>
</g>
</g>
<mask id="mask2_244_5934" style="mask-type:luminance" maskUnits="userSpaceOnUse" x="173" y="288" width="332" height="298">
<path d="M338.786 324.812L173.239 288.244L300.054 559.319C316.317 594.092 361.256 594.092 377.518 559.319L504.333 288.244L338.786 324.812Z" fill="white"/>
</mask>
<g mask="url(#mask2_244_5934)">
<g opacity="0.5">
<path d="M214.134 471.952C187.361 471.952 170.688 466.373 169.693 466.027C167.876 465.399 166.925 463.432 167.552 461.637C168.179 459.82 170.147 458.869 171.942 459.496C172.439 459.669 205.981 470.763 253.883 460.923C298.238 451.819 364.392 422.408 427.604 333.874C428.707 332.317 430.87 331.949 432.427 333.073C433.984 334.176 434.352 336.339 433.227 337.896C404.724 377.816 373.172 409.411 339.478 431.794C312.424 449.764 283.943 461.875 254.813 467.778C239.653 470.871 225.92 471.952 214.134 471.952Z" fill="#390075"/>
<path d="M251.007 516.068C224.234 516.068 207.56 510.489 206.565 510.143C204.749 509.515 203.797 507.548 204.424 505.753C205.051 503.936 207.019 502.985 208.814 503.612C209.312 503.785 242.854 514.879 290.755 505.039C335.11 495.935 401.264 466.524 464.477 377.99C465.58 376.433 467.742 376.065 469.299 377.189C470.857 378.292 471.224 380.455 470.1 382.012C441.597 421.932 410.044 453.527 376.351 475.91C349.297 493.88 320.815 505.991 291.685 511.894C276.525 514.987 262.793 516.068 251.007 516.068Z" fill="#390075"/>
<path d="M283.424 554.864C256.651 554.864 239.977 549.284 238.982 548.938C237.166 548.311 236.214 546.343 236.841 544.549C237.468 542.732 239.436 541.78 241.231 542.408C241.729 542.581 275.271 553.674 323.172 543.835C367.527 534.731 433.681 505.32 496.894 416.785C497.997 415.228 500.159 414.861 501.716 415.985C503.274 417.088 503.641 419.251 502.517 420.808C474.014 460.728 442.461 492.323 408.768 514.705C381.714 532.676 353.232 544.786 324.102 550.69C308.942 553.783 295.21 554.864 283.424 554.864Z" fill="#390075"/>
</g>
</g>
<path d="M338.786 591C320.231 591 303.45 579.776 294.994 561.698L168.157 290.623C167.249 288.698 167.53 286.427 168.849 284.762C170.19 283.097 172.353 282.34 174.429 282.794L338.765 319.103L503.101 282.794C505.177 282.34 507.339 283.097 508.68 284.762C510.021 286.427 510.281 288.698 509.372 290.623L382.557 561.698C374.123 579.776 357.342 591 338.786 591ZM183.123 296.159L305.115 556.962C311.819 571.278 324.405 579.82 338.786 579.82C353.168 579.82 365.754 571.278 372.458 556.962L494.45 296.159L339.998 330.284C339.197 330.457 338.376 330.457 337.575 330.284L183.123 296.159Z" fill="#390075"/>
<g opacity="0.3">
<path d="M364.738 559.34L490.363 290.817L501.933 288.266L452.604 299.165L344.993 529.216C335.932 548.571 318.004 557.135 301.092 554.95C299.319 555.188 297.546 555.296 295.772 555.275L297.676 559.34C304.877 574.759 317.744 583.323 331.217 585.075C344.669 583.323 357.536 574.759 364.738 559.34Z" fill="#390075"/>
</g>
<path d="M408.746 45.2823C413.699 27.0953 408.855 7.09179 392.03 13.5794C381.584 17.6018 375.594 25.7329 372.177 33.9722C363.764 22.1647 350.486 15.6555 345.123 28.6307C336.256 50.1264 358.423 69.4595 358.423 69.4595C358.423 69.4595 366.835 76.2283 373.453 70.2381C375.767 71.9465 378.989 72.898 383.466 72.0762C385.672 78.2395 393.803 79.3856 393.803 79.3856C393.803 79.3856 423.085 82.2618 432.643 61.0689C438.612 47.8557 423.625 42.7521 408.746 45.2823Z" fill="#299B35"/>
<path d="M397.068 80.0992C395.036 80.0992 393.781 79.9911 393.738 79.9911C393.37 79.9478 385.607 78.8017 383.098 72.7682C379.335 73.3737 376.091 72.7898 373.496 71.0165C366.662 76.704 358.163 70.0218 358.077 69.9353C357.839 69.719 335.672 50.0399 344.604 28.4361C346.442 24.0029 349.361 21.4511 353.059 21.0185C358.79 20.3482 366.186 24.976 372.047 32.8477C376.307 23.1378 382.968 16.4988 391.835 13.082C397.306 10.9627 401.999 11.4817 405.416 14.5525C411.104 19.6778 412.769 31.961 409.547 44.5903C419.754 43.0549 428.988 45.1741 432.686 49.975C435 52.9809 435.173 56.9168 433.184 61.3283C425.485 78.3476 405.113 80.0992 397.068 80.0992ZM383.833 71.449L384.006 71.9032C386.082 77.6772 393.803 78.8233 393.868 78.8233C394.127 78.8449 422.825 81.3967 432.102 60.831C433.941 56.7654 433.811 53.3269 431.756 50.6454C428.188 46.0392 418.997 44.1145 408.833 45.8445L407.946 45.9959L408.184 45.1309C411.601 32.5881 410.13 20.3482 404.637 15.3743C401.523 12.563 397.349 12.1521 392.246 14.12C383.401 17.5368 376.826 24.284 372.717 34.1884L372.328 35.1399L371.723 34.2966C365.992 26.2735 358.725 21.4943 353.189 22.1214C349.88 22.5107 347.35 24.7597 345.663 28.8253C337.056 49.6939 358.596 68.8107 358.812 69.0054C359.115 69.2433 366.922 75.3632 373.064 69.8055L373.41 69.4811L373.799 69.7623C376.307 71.6221 379.53 72.2059 383.357 71.4923L383.833 71.449Z" fill="#390075"/>
<g opacity="0.6">
<path d="M412.207 54.5162C420.641 53.0673 429.097 54.1053 433.768 57.6735C435.585 48.3746 425.485 44.136 413.915 44.7415C413.656 47.9205 413.094 51.2508 412.207 54.5162Z" fill="white"/>
<path d="M348.583 37.8647C353.925 24.911 367.203 31.3987 375.637 43.2062C379.076 34.9669 385.066 26.8357 395.49 22.8134C402.281 20.1967 407.103 21.8835 410.131 26.0356C408.552 16.0446 402.713 9.47049 392.03 13.5793C381.584 17.6016 375.594 25.7328 372.177 33.9721C363.765 22.1646 350.486 15.6554 345.123 28.6306C341.101 38.3621 343.458 47.661 347.242 54.9271C346.053 49.6505 346.118 43.8333 348.583 37.8647Z" fill="white"/>
</g>
<path d="M397.436 83.8837C395.122 83.8837 393.63 83.7539 393.37 83.7323C393.306 83.7323 393.262 83.7107 393.197 83.7107C392.83 83.6674 385.109 82.5213 381.022 76.7473C378.016 76.8554 375.616 76.2499 373.712 75.4281C366.857 79.2342 359.158 75.666 355.698 72.8763C355.655 72.8331 355.612 72.8114 355.568 72.7682C354.573 71.9032 331.153 51.0779 341.1 26.9871C344.28 19.3101 349.664 17.6017 352.605 17.2557C359.31 16.4772 366.035 20.7158 371.247 26.1005C375.875 18.2505 382.32 12.6927 390.473 9.53542C399.642 6.01047 405.351 9.38404 407.946 11.7412C414.65 17.7963 415.948 29.5822 414.261 40.3517C423.733 39.984 431.8 42.6223 435.671 47.6611C437.509 50.0399 440.083 55.1867 436.622 62.8854C428.059 81.8076 406.497 83.8837 397.436 83.8837ZM394.344 75.0821C396.268 75.2335 420.836 76.704 428.686 59.2955C430.524 55.23 429.226 53.5215 428.794 52.9809C426.156 49.5641 418.024 48.1368 409.504 49.5857C408.033 49.8452 406.541 49.3262 405.546 48.2233C404.551 47.1204 404.183 45.585 404.573 44.1577C407.536 33.2801 406.476 22.1214 402.129 18.2072C401.394 17.5368 399.166 15.5257 393.63 17.6666C385.78 20.6941 379.941 26.7493 376.221 35.6806C375.616 37.1511 374.253 38.1459 372.696 38.3405C371.117 38.5135 369.582 37.8215 368.674 36.5456C363.959 29.9282 357.666 25.4734 353.644 25.9275C352.952 26.014 350.875 26.2519 349.189 30.3175C341.836 48.1152 359.915 64.9398 361.256 66.1508C361.905 66.6266 367.008 70.2813 370.577 67.0591C372.112 65.675 374.426 65.5453 376.091 66.7996C377.757 68.0322 379.919 68.3782 382.709 67.8592C384.807 67.4699 386.883 68.6593 387.596 70.6705C388.743 73.9143 393.63 74.9524 394.344 75.0821Z" fill="#390075"/>
<path d="M423.755 99.1296C419.278 121.642 389.521 153.755 361.797 148.241C334.072 142.726 318.891 101.66 323.367 79.1477C327.844 56.6356 353.946 42.8819 381.671 48.3964C409.395 53.9108 428.232 76.6392 423.755 99.1296Z" fill="#F40634"/>
<g opacity="0.6">
<path d="M336.538 79.1477C339.954 61.9771 355.958 49.9101 375.659 47.5962C349.902 44.6119 326.654 58.0196 322.459 79.1477C317.982 101.66 333.164 142.726 360.867 148.241C365.387 149.149 369.971 149.019 374.491 148.133C347.069 142.229 332.083 101.53 336.538 79.1477Z" fill="white"/>
</g>
<g opacity="0.35">
<path d="M406.887 60.8741C407.038 63.6638 406.843 66.4968 406.281 69.3081C401.783 91.7985 372.026 123.912 344.301 118.398C336.472 116.841 329.639 112.429 323.973 106.417C329.293 125.469 342.117 144.586 360.412 148.241C388.137 153.755 417.894 121.642 422.371 99.1295C425.182 85.0298 418.824 70.8435 406.887 60.8741Z" fill="#2B1312"/>
<path d="M366.943 149.452C364.759 149.452 362.553 149.257 360.304 148.803C340.711 144.911 328.406 124.431 323.41 106.569L322.783 104.32L324.384 106.028C330.396 112.408 337.143 116.387 344.409 117.836C371.312 123.199 401.199 91.7769 405.697 69.1784C406.238 66.4535 406.433 63.6639 406.303 60.8958L406.238 59.5767L407.254 60.4201C419.819 70.93 425.701 85.4407 422.933 99.2593C420.662 110.699 411.839 124.583 400.485 134.639C393.846 140.499 381.368 149.452 366.943 149.452ZM325.184 108.472C330.287 124.777 342.268 144.046 360.521 147.679C362.575 148.09 364.651 148.284 366.727 148.284C391.857 148.284 417.635 119.89 421.787 99.0214C424.382 86.0029 419.041 72.2924 407.471 62.1501C407.492 64.5938 407.276 67.0158 406.8 69.4162C404.529 80.8561 395.706 94.7396 384.352 104.795C376.718 111.564 361.342 122.399 344.171 118.96C337.337 117.598 330.958 114.073 325.184 108.472Z" fill="#390075"/>
</g>
<path d="M368.263 153.215C365.776 153.215 363.332 152.977 360.931 152.501C347.026 149.733 334.829 138.877 326.589 121.966C319.496 107.412 316.641 90.674 319.107 78.3042C324.059 53.4782 352.519 38.1674 382.536 44.136C412.553 50.1263 432.968 75.1685 428.015 99.9945C425.55 112.364 416.488 126.724 404.356 137.471C392.722 147.787 380.135 153.215 368.263 153.215ZM369.452 51.5319C348.713 51.5319 331.044 62.9502 327.649 79.991C325.573 90.4361 328.233 105.423 334.418 118.16C338.484 126.507 347.545 140.975 362.64 143.981C377.735 146.987 391.64 137.104 398.604 130.941C409.201 121.555 417.397 108.731 419.495 98.2861C423.495 78.1745 406.151 57.6952 380.849 52.6565C376.978 51.8996 373.172 51.5319 369.452 51.5319Z" fill="#390075"/>
<path d="M137.859 187.232C137.859 187.232 114.136 152.479 115.066 121.404C115.066 121.404 176.246 88.7493 217.703 133.709" fill="#FF94CF"/>
<path d="M137.384 187.556C137.146 187.21 113.552 152.285 114.482 121.382V121.058L114.785 120.906C114.936 120.82 130.399 112.667 150.749 110.137C169.563 107.801 196.531 109.921 218.114 133.319L217.27 134.098C196.033 111.067 169.477 108.969 150.922 111.261C132.323 113.575 117.834 120.625 115.606 121.75C114.871 152.198 138.076 186.54 138.314 186.886L137.384 187.556Z" fill="#390075"/>
<g opacity="0.5">
<path d="M128.582 124.95C128.582 124.95 148.997 114.051 176.072 111.024C144.304 105.79 115.044 121.404 115.044 121.404C114.114 152.479 137.838 187.232 137.838 187.232L143.395 183.512C135.74 167.206 127.976 145.451 128.582 124.95Z" fill="white"/>
</g>
<path d="M137.859 191.578C136.475 191.578 135.113 190.908 134.269 189.675C133.448 188.486 114.179 159.962 111.086 130.746C110.329 123.48 114.525 116.516 121.315 113.835C139.827 106.525 186.604 93.5502 220.903 130.724C222.525 132.498 222.417 135.244 220.665 136.866C218.892 138.488 216.145 138.38 214.523 136.628C183.879 103.411 141.384 115.284 124.538 121.923C121.38 123.177 119.412 126.421 119.78 129.816C122.613 156.805 141.298 184.463 141.493 184.745C142.855 186.734 142.336 189.437 140.346 190.8C139.568 191.319 138.703 191.578 137.859 191.578Z" fill="#390075"/>
<path d="M188.313 146.9C174.083 131.481 151.354 132.671 140.93 134.228C137.578 134.725 135.308 137.99 136.064 141.299C139.179 154.902 151.895 171.337 151.895 171.337L188.313 146.9Z" fill="#E81881"/>
<path d="M526.933 240.387C500.008 85.1379 346.81 100.773 346.81 100.773L332.212 122.009C311.927 112.862 288.679 107.672 263.961 107.672C184.874 107.672 120.753 160.87 120.753 226.503C120.753 251.437 133.405 295.878 165.368 316.033C171.985 320.206 175.965 327.537 175.965 335.387V361.533V364.906C175.965 381.104 188.4 394.901 204.576 395.83C205.052 395.852 205.549 395.874 206.025 395.874C223.066 396.112 236.82 381.904 236.82 364.863V359.413C236.82 351.888 242.097 345.184 249.515 343.929C252.369 343.454 255.635 343.67 259.203 345.162C264.999 347.606 268.718 353.358 268.718 359.651V373.967C268.718 398.534 292.831 416.396 316.058 408.416C316.62 408.222 317.204 408.006 317.766 407.789C331.52 402.448 340.409 388.975 340.409 374.227V355.369C340.409 347.736 344.539 340.534 351.395 337.182C358.639 333.657 374.21 337.096 388.31 351.196C373.821 379.893 369.128 409.541 390.148 436.854C431.605 490.723 552.019 385.039 526.933 240.387Z" fill="#606060"/>
<path d="M419.257 451.667C407.319 451.667 397.069 446.78 389.716 437.2C371.312 413.282 370.62 385.169 387.64 351.282C374.426 338.242 359.028 334.111 351.676 337.68C345.209 340.815 341.014 347.757 341.014 355.348V374.205C341.014 389.256 331.758 402.967 318.004 408.308C317.42 408.525 316.836 408.741 316.274 408.935C305.201 412.742 293.35 410.968 283.705 404.091C273.973 397.15 268.156 385.861 268.156 373.924V359.608C268.156 353.466 264.566 347.973 258.987 345.638C255.851 344.319 252.693 343.929 249.601 344.448C242.637 345.638 237.382 352.039 237.382 359.37V364.82C237.382 373.297 233.922 381.579 227.888 387.526C222.071 393.257 214.459 396.414 206.435 396.414C206.284 396.414 206.154 396.414 206.003 396.414C205.505 396.414 205.008 396.393 204.532 396.371C188.183 395.441 175.38 381.601 175.38 364.884V335.366C175.38 327.624 171.531 320.574 165.065 316.508C132.366 295.899 120.191 250.356 120.191 226.503C120.191 160.654 184.68 107.088 263.961 107.088C287.706 107.088 311.235 111.997 332.018 121.274L346.507 100.211L346.766 100.189C347.156 100.146 385.672 96.448 426.999 111.802C451.285 120.841 471.765 134.574 487.876 152.674C508.01 175.273 521.353 204.748 527.516 240.279C537.702 298.97 523.429 345.184 509.675 373.599C493.066 407.919 467.85 435.124 442.202 446.369C434.114 449.916 426.372 451.667 419.257 451.667ZM357.904 335.301C366.251 335.301 377.951 340.015 388.721 350.763L388.894 350.936V351.304L388.829 351.433C371.853 385.039 372.437 412.871 390.602 436.486C402.021 451.343 420.662 454.565 441.705 445.309C467.115 434.151 492.115 407.162 508.615 373.08C522.305 344.816 536.47 298.862 526.349 240.473C512.486 160.567 464.455 126.983 426.61 112.905C387.337 98.2861 350.594 101.011 347.134 101.314L332.407 122.723L331.974 122.528C311.235 113.186 287.706 108.234 263.961 108.234C185.328 108.234 121.337 161.281 121.337 226.482C121.337 250.097 133.383 295.142 165.692 315.514C172.483 319.795 176.548 327.213 176.548 335.344V364.863C176.548 380.974 188.875 394.317 204.619 395.203C205.095 395.225 205.57 395.247 206.046 395.247C206.176 395.247 206.327 395.247 206.457 395.247C214.177 395.247 221.509 392.219 227.11 386.704C232.927 380.974 236.258 372.994 236.258 364.82V359.37C236.258 351.369 241.794 344.6 249.449 343.324C252.758 342.762 256.11 343.194 259.462 344.6C265.453 347.108 269.324 353.012 269.324 359.629V373.945C269.324 385.515 274.947 396.436 284.397 403.161C293.718 409.822 305.201 411.53 315.906 407.854C316.468 407.66 317.031 407.465 317.593 407.227C330.915 402.037 339.868 388.759 339.868 374.183V355.326C339.868 347.303 344.301 339.972 351.178 336.62C352.973 335.755 355.287 335.301 357.904 335.301Z" fill="#390075"/>
<path d="M391.835 438.67C370.814 411.336 375.486 381.709 389.997 353.012C375.897 338.934 360.326 335.474 353.081 339.02C346.226 342.351 342.095 349.574 342.095 357.208V376.065C342.095 390.813 333.207 404.286 319.453 409.628C318.89 409.844 318.307 410.06 317.744 410.255C294.496 418.234 270.405 400.372 270.405 375.805V361.489C270.405 355.196 266.685 349.422 260.89 347C257.3 345.487 254.056 345.27 251.201 345.768C243.783 347.044 238.485 353.726 238.485 361.251V366.701C238.485 383.742 224.731 397.95 207.69 397.712C207.214 397.69 206.716 397.69 206.241 397.669C190.086 396.739 177.629 382.942 177.629 366.744V363.371C177.629 340.253 168.46 318.217 152.608 301.349C133.685 281.216 122.44 255.871 122.44 228.363C122.44 162.73 186.561 109.531 265.626 109.531C290.344 109.531 313.592 114.722 333.899 123.891L348.496 102.655C348.496 102.655 501.717 87.0194 528.619 242.268C553.684 386.856 433.292 492.561 391.835 438.67Z" fill="#FF94CF"/>
<g opacity="0.5">
<path d="M348.496 99.9945L333.899 121.231C313.614 112.083 290.344 106.871 265.626 106.871C264.674 106.871 263.723 106.893 262.771 106.893C262.014 106.893 261.236 106.871 260.479 106.871C237.447 106.871 215.713 111.391 196.444 119.393C168.395 131.07 145.601 150.144 131.804 173.543C122.526 189.286 117.293 206.997 117.293 225.725C117.293 253.232 129.166 284.589 148.067 304.722C163.897 321.59 176.764 327.235 172.482 360.732V364.106C172.482 380.303 184.939 394.1 201.094 395.03C201.569 395.052 202.067 395.074 202.543 395.074C205.635 395.117 208.598 394.684 211.409 393.841C198.65 390.056 189.545 377.968 189.545 364.106V360.732C190.583 321.331 180.376 315.578 164.524 298.711C145.623 278.556 134.356 253.232 134.356 225.725C134.356 206.175 140.044 187.751 150.121 171.488C156.912 169.347 164.156 165.801 171.163 160.935C183.966 152.025 192.919 140.78 195.968 131.027C217.616 120.106 243.048 113.792 270.254 113.792C294.972 113.792 318.22 118.982 338.527 128.151L353.124 106.915C353.124 106.915 450.506 96.967 503.62 171.596C451.739 89.4629 348.496 99.9945 348.496 99.9945Z" fill="white"/>
</g>
<g opacity="0.5">
<path d="M277.304 366.917C277.304 361.36 274.882 356.169 270.816 352.645C271.443 354.548 271.811 356.58 271.811 358.656V375.741C271.811 386.553 275.725 396.285 282.061 403.789C279.034 397.907 277.304 391.203 277.304 384.001V366.917Z" fill="white"/>
</g>
<path d="M425.745 265.991L405.092 253.665C401.826 251.719 397.588 252.778 395.641 256.044C393.695 259.309 394.755 263.548 398.02 265.494L418.673 277.82C420.381 278.837 422.328 279.032 424.101 278.534C425.723 278.08 427.194 276.999 428.123 275.442C430.091 272.176 429.01 267.938 425.745 265.991Z" fill="#F0D31E"/>
<path d="M422.219 282.254C420.36 282.254 418.521 281.756 416.899 280.783L396.247 268.457C393.868 267.051 392.203 264.78 391.532 262.099C390.862 259.417 391.273 256.649 392.678 254.27C394.106 251.892 396.355 250.226 399.036 249.556C401.718 248.886 404.486 249.297 406.865 250.702L427.518 263.029C432.405 265.948 434.027 272.306 431.086 277.215C429.724 279.486 427.583 281.129 425.052 281.864C424.123 282.124 423.171 282.254 422.219 282.254ZM401.567 256.13C401.285 256.13 401.004 256.173 400.723 256.238C399.837 256.455 399.08 257.017 398.604 257.817C398.128 258.617 397.998 259.525 398.215 260.434C398.431 261.32 398.993 262.077 399.793 262.553L420.446 274.879C421.268 275.377 422.241 275.507 423.149 275.225C423.993 274.988 424.706 274.425 425.161 273.668C426.134 272.047 425.593 269.927 423.971 268.954L403.318 256.628C402.778 256.303 402.172 256.13 401.567 256.13Z" fill="#390075"/>
<mask id="mask3_244_5934" style="mask-type:luminance" maskUnits="userSpaceOnUse" x="122" y="99" width="411" height="352">
<path d="M391.835 436.054C370.814 408.719 375.486 379.092 389.997 350.396C375.897 336.317 360.326 332.857 353.081 336.404C346.226 339.734 342.095 346.957 342.095 354.591V373.448C342.095 388.197 333.207 401.669 319.453 407.011C318.89 407.227 318.307 407.443 317.744 407.638C294.496 415.618 270.405 397.755 270.405 373.189V358.873C270.405 352.58 266.685 346.806 260.89 344.384C257.3 342.87 254.056 342.654 251.201 343.151C243.783 344.427 238.485 351.109 238.485 358.635V364.084C238.485 381.125 224.731 395.333 207.69 395.095C207.214 395.074 206.716 395.074 206.241 395.052C190.086 394.122 177.629 380.325 177.629 364.128V360.754C177.629 337.636 168.46 315.6 152.608 298.732C133.707 278.556 122.44 253.232 122.44 225.725C122.44 160.092 186.561 106.893 265.626 106.893C290.344 106.893 313.592 112.083 333.899 121.252L348.496 100.016C348.496 100.016 501.717 84.381 528.619 239.63C553.684 384.239 433.292 489.944 391.835 436.054Z" fill="white"/>
</mask>
<g mask="url(#mask3_244_5934)">
<g opacity="0.35">
<path d="M500.008 265.948C492.028 232.083 472.954 209.246 450.074 193.892C446.787 191.686 442.57 194.779 443.629 198.585C448.236 214.999 449.75 246.615 409.006 275.723C391.424 288.287 375.551 303.598 364.024 319.86C357.342 317.655 351.524 317.698 347.805 319.493C340.733 322.931 336.494 330.349 336.494 338.199V357.597C336.494 372.799 327.346 386.661 313.181 392.154C312.598 392.392 312.014 392.608 311.43 392.803C296.205 398.036 280.613 392.479 271.313 381.233C275.898 401.432 297.135 414.645 317.744 407.573C318.307 407.379 318.869 407.162 319.453 406.946C333.207 401.605 342.095 388.132 342.095 373.383V354.526C342.095 346.892 346.226 339.669 353.081 336.339C353.471 336.144 353.903 335.971 354.336 335.82C341.187 361.922 340.776 389.04 363.224 410.536C404.681 450.24 525.094 372.432 500.008 265.948Z" fill="#390075"/>
</g>
</g>
<mask id="mask4_244_5934" style="mask-type:luminance" maskUnits="userSpaceOnUse" x="122" y="99" width="411" height="352">
<path d="M391.835 436.054C370.814 408.719 375.486 379.092 389.997 350.396C375.897 336.317 360.326 332.857 353.081 336.404C346.226 339.734 342.095 346.957 342.095 354.591V373.448C342.095 388.197 333.207 401.669 319.453 407.011C318.89 407.227 318.307 407.443 317.744 407.638C294.496 415.618 270.405 397.755 270.405 373.189V358.873C270.405 352.58 266.685 346.806 260.89 344.384C257.3 342.87 254.056 342.654 251.201 343.151C243.783 344.427 238.485 351.109 238.485 358.635V364.084C238.485 381.125 224.731 395.333 207.69 395.095C207.214 395.074 206.716 395.074 206.241 395.052C190.086 394.122 177.629 380.325 177.629 364.128V360.754C177.629 337.636 168.46 315.6 152.608 298.732C133.707 278.556 122.44 253.232 122.44 225.725C122.44 160.092 186.561 106.893 265.626 106.893C290.344 106.893 313.592 112.083 333.899 121.252L348.496 100.016C348.496 100.016 501.717 84.381 528.619 239.63C553.684 384.239 433.292 489.944 391.835 436.054Z" fill="white"/>
</mask>
<g mask="url(#mask4_244_5934)">
<g opacity="0.35">
<path d="M252.91 327.732C249.233 326.175 245.859 325.959 242.918 326.456C235.284 327.754 229.835 334.652 229.835 342.394V347.995C229.835 365.533 215.67 380.152 198.153 379.914C197.655 379.893 197.158 379.893 196.66 379.871C189.913 379.482 183.793 376.908 178.884 372.886C182.43 385.018 193.114 394.274 206.241 395.009C206.716 395.03 207.214 395.052 207.69 395.052C224.731 395.29 238.485 381.082 238.485 364.041V358.592C238.485 351.066 243.762 344.362 251.201 343.108C254.056 342.632 257.321 342.848 260.89 344.34C261.517 344.6 262.122 344.924 262.706 345.249V342.61C262.706 336.166 258.878 330.219 252.91 327.732Z" fill="#390075"/>
</g>
</g>
<path d="M440.407 191.686C440.407 191.686 475.225 232.515 443.521 273.128C406.865 320.077 348.41 382.963 389.845 436.832C431.281 490.701 551.694 385.018 526.63 240.387C517.395 187.167 493.347 154.037 465.688 133.449" fill="#FF94CF"/>
<g opacity="0.4">
<path d="M440.407 191.687C440.407 191.687 475.225 232.515 443.521 273.128C406.865 320.077 348.41 382.963 389.845 436.832C393.413 441.46 397.566 444.899 402.172 447.256C401.502 446.521 400.853 445.72 400.226 444.92C358.769 391.03 417.245 328.165 453.901 281.216C485.605 240.603 450.787 199.774 450.787 199.774" fill="white"/>
</g>
<path d="M419.149 455.495C406.108 455.495 394.863 450.089 386.71 439.514C367.376 414.363 366.532 385.039 384.114 349.855C385.196 347.714 387.812 346.827 389.953 347.909C392.094 348.99 392.981 351.606 391.9 353.747C375.724 386.099 376.264 411.66 393.608 434.194C407.687 452.489 428.837 446.867 440.212 441.871C464.823 431.08 489.13 404.74 505.242 371.459C518.671 343.692 532.62 298.538 522.65 241.144C511.794 178.517 479.117 136.606 425.571 116.56C390.537 103.455 357.493 104.471 349.232 104.968L335.802 124.496C334.613 126.226 332.342 126.853 330.417 125.988C310.154 116.862 287.165 112.04 263.939 112.04C187.383 112.04 125.1 163.4 125.1 226.525C125.1 249.34 136.67 292.807 167.681 312.356C175.575 317.33 180.289 325.937 180.289 335.387V361.533C180.289 363.933 178.343 365.879 175.943 365.879C173.542 365.879 171.596 363.933 171.596 361.533V335.387C171.596 328.965 168.395 323.104 163.032 319.731C129.057 298.278 116.406 251.178 116.406 226.503C116.406 158.578 182.582 103.325 263.96 103.325C287.143 103.325 310.132 107.909 330.677 116.603L343.241 98.3294C343.955 97.2698 345.123 96.5994 346.377 96.4696C347.977 96.2966 386.169 92.6419 428.296 108.299C453.166 117.554 474.143 131.633 490.687 150.209C511.297 173.348 524.943 203.451 531.214 239.673C541.552 299.359 527.041 346.351 513.049 375.286C496.072 410.384 470.121 438.26 443.694 449.872C435.087 453.614 426.804 455.495 419.149 455.495Z" fill="#390075"/>
<path d="M441.834 190.757C443.37 192.119 444.71 193.525 445.986 195.017C447.284 196.509 448.495 198.066 449.641 199.666C451.933 202.888 453.945 206.327 455.653 209.938C459.07 217.14 461.276 225.098 461.708 233.294C461.946 237.381 461.665 241.512 460.995 245.577C460.692 247.61 460.173 249.599 459.676 251.589C459.048 253.535 458.508 255.525 457.729 257.428C456.324 261.277 454.399 264.889 452.366 268.37C451.285 270.079 450.247 271.83 449.014 273.409L447.241 275.853L445.467 278.102C436.017 290.104 426.415 301.825 417.397 313.892C408.4 325.959 399.88 338.372 393.024 351.542V351.563C391.921 353.704 389.283 354.526 387.164 353.423C385.023 352.32 384.201 349.682 385.304 347.563C392.505 333.744 401.264 321.007 410.433 308.723C419.603 296.44 429.269 284.654 438.633 272.76L440.385 270.533L441.964 268.37C443.067 266.965 443.953 265.429 444.927 263.915C446.722 260.866 448.3 257.687 449.446 254.379C450.117 252.757 450.506 251.048 451.004 249.362C451.35 247.653 451.76 245.945 451.955 244.215C452.431 240.755 452.647 237.273 452.452 233.77C451.933 219.756 446.786 205.721 439.628 192.681L439.585 192.595C439.196 191.881 439.455 190.995 440.169 190.605C440.71 190.259 441.38 190.346 441.834 190.757Z" fill="#390075"/>
<path d="M238.55 274.079C238.55 274.079 245.406 284.849 261.69 281.021C277.974 277.215 286.041 257.774 274.514 251.654C262.988 245.534 257.992 265.408 240.67 264.132L238.55 274.079Z" fill="#E81881"/>
<path d="M254.878 285.887C241.47 285.887 235.436 276.696 235.133 276.242C234.571 275.355 234.376 274.274 234.593 273.236L236.712 263.31C237.123 261.342 238.939 259.98 240.951 260.131C247.979 260.65 252.434 256.93 257.148 253.016C262.079 248.907 268.221 243.804 276.374 248.129C281.867 251.027 284.635 256.649 283.813 263.159C282.71 271.787 275.055 282.059 262.598 284.979C259.787 285.606 257.213 285.887 254.878 285.887ZM242.897 273.02C244.995 275.204 250.574 279.464 260.76 277.085C269.54 275.031 275.076 267.83 275.812 262.077C276.223 258.855 275.141 256.563 272.611 255.222C269.497 253.578 267.551 254.833 262.317 259.179C257.754 262.986 252.174 267.613 243.913 268.176L242.897 273.02Z" fill="#390075"/>
<path d="M264.026 266.446C262.36 267.959 260.587 269.235 258.662 270.403C256.738 271.571 254.683 272.566 252.456 273.344C250.228 274.101 247.828 274.577 245.297 274.685C242.746 274.771 240.129 274.317 237.555 273.452C235.263 272.695 234.009 270.208 234.766 267.895C235.522 265.602 238.009 264.348 240.323 265.105C240.713 265.235 241.059 265.408 241.383 265.624L241.426 265.646C242.724 266.532 244.194 267.332 245.903 267.743C247.611 268.154 249.471 268.349 251.396 268.241C253.321 268.111 255.31 267.765 257.278 267.224C259.225 266.684 261.214 265.948 263.031 265.04L263.074 265.018C263.485 264.802 264.004 264.975 264.22 265.408C264.393 265.797 264.307 266.208 264.026 266.446Z" fill="#390075"/>
<path d="M304.574 414.688C296.443 414.688 288.441 412.136 281.499 407.184C270.773 399.528 264.371 387.094 264.371 373.945V359.629C264.371 355.002 261.69 350.893 257.516 349.141C255.051 348.103 252.607 347.779 250.228 348.19C245.059 349.076 241.145 353.877 241.145 359.392V364.841C241.145 374.335 237.274 383.59 230.527 390.251C223.887 396.804 215.107 400.35 205.938 400.22C205.397 400.22 204.835 400.199 204.294 400.156C185.955 399.117 171.574 383.612 171.574 364.884V361.511C171.574 359.11 173.521 357.164 175.921 357.164C178.322 357.164 180.268 359.11 180.268 361.511V364.884C180.268 379.006 191.038 390.684 204.77 391.462C205.181 391.484 205.614 391.505 206.046 391.505C212.901 391.592 219.433 388.954 224.385 384.045C229.489 379.006 232.408 372.021 232.408 364.841V359.392C232.408 349.53 239.285 341.226 248.736 339.604C252.758 338.934 256.824 339.431 260.846 341.118C268.242 344.232 273.022 351.498 273.022 359.629V373.945C273.022 384.282 278.061 394.057 286.516 400.091C294.842 406.038 305.071 407.551 314.609 404.286C315.128 404.113 315.647 403.918 316.166 403.724C328.06 399.096 336.04 387.245 336.04 374.205V355.348C336.04 345.897 341.317 337.225 349.47 333.246C358.531 328.856 375.81 332.533 391.359 348.081C393.068 349.79 393.068 352.536 391.359 354.245C389.651 355.953 386.904 355.953 385.196 354.245C372.026 341.075 358.358 338.61 353.254 341.075C348.064 343.583 344.712 349.184 344.712 355.348V374.205C344.712 390.792 334.504 405.929 319.301 411.833C318.674 412.071 318.047 412.309 317.42 412.525C313.246 413.974 308.899 414.688 304.574 414.688Z" fill="#390075"/>
<path d="M267.14 123.372C267.14 123.372 271.227 84.2081 290.69 62.5826C290.69 62.5826 354.119 76.2715 356.52 133.449" fill="#FF94CF"/>
<path d="M266.945 123.35C267.139 117.814 268.264 112.364 269.497 106.98C270.773 101.595 272.351 96.2967 274.168 91.0849C276.049 85.8732 278.255 80.7912 280.829 75.8822C283.51 71.0165 286.624 66.4103 290.258 62.1933L290.474 61.9338L290.798 62.0203C299.297 64.118 307.429 67.3834 315.128 71.449C322.805 75.5362 330.049 80.575 336.256 86.7166C339.37 89.7658 342.268 93.0745 344.755 96.6643C347.264 100.232 349.513 104.017 351.243 108.039L351.913 109.531L352.497 111.067C352.865 112.083 353.297 113.1 353.622 114.138C354.227 116.235 354.941 118.311 355.352 120.452C356.412 124.691 356.887 129.081 356.671 133.449L356.282 133.471C355.482 129.189 355.179 124.907 354.162 120.733C353.795 118.614 353.103 116.581 352.497 114.505C352.173 113.489 351.762 112.494 351.394 111.478L350.832 109.964L350.162 108.493C348.475 104.536 346.247 100.838 343.804 97.313C341.36 93.7881 338.505 90.5227 335.434 87.5167C329.314 81.4832 322.156 76.4878 314.565 72.4438C306.953 68.4215 298.865 65.156 290.539 63.1232L291.079 62.9502C287.511 67.0591 284.44 71.622 281.802 76.4013C279.272 81.2453 277.066 86.2841 275.206 91.4309C273.389 96.5994 271.897 101.898 270.643 107.239C269.994 109.899 269.432 112.581 268.913 115.284L267.291 123.372L266.945 123.35Z" fill="#390075"/>
<g opacity="0.5">
<path d="M302.455 66.3021C295.47 63.6205 290.69 62.5825 290.69 62.5825C271.227 84.208 267.14 123.372 267.14 123.372C267.14 123.372 287.619 85.4839 302.455 66.3021Z" fill="white"/>
</g>
<path d="M265.691 123.22C264.718 121.274 264.372 119.414 264.199 117.554C264.026 115.695 264.155 113.878 264.393 112.083C264.588 110.288 264.956 108.515 265.366 106.742C265.821 104.99 266.318 103.26 266.859 101.53C267.421 99.8 267.918 98.0699 268.481 96.3399C269.021 94.6099 269.54 92.8798 270.167 91.1714L271.054 88.598C271.357 87.7546 271.703 86.8896 272.049 86.0462L273.044 83.4944L274.168 80.9858L275.293 78.4773L276.547 76.012L277.801 73.5467L279.207 71.1463C279.683 70.3461 280.137 69.546 280.634 68.7458L282.213 66.4319L283.013 65.2858L283.402 64.7019C283.532 64.5073 283.64 64.3343 283.878 64.0531C284.722 62.9935 285.738 62.0636 286.884 61.3283C289.155 59.8578 291.923 59.1441 294.605 59.382C295.275 59.4469 295.946 59.555 296.594 59.7064L297.092 59.8362L297.33 59.901L297.503 59.9443L298.151 60.1605C299.038 60.4417 299.881 60.7444 300.768 61.0256C304.228 62.2366 307.602 63.599 310.932 65.1344C317.572 68.1836 323.951 71.8815 329.877 76.2715C335.802 80.6615 341.23 85.8299 345.837 91.712C348.107 94.6747 350.205 97.7888 352.043 101.076C353.817 104.385 355.439 107.78 356.671 111.326C357.017 112.191 357.255 113.1 357.558 113.986C357.818 114.895 358.142 115.76 358.358 116.689C358.812 118.506 359.483 120.279 359.872 122.117C360.369 123.934 360.456 125.837 360.305 127.718C360.24 128.67 359.98 129.621 359.612 130.573C359.245 131.524 358.747 132.476 357.969 133.406C357.277 134.228 356.044 134.336 355.201 133.644C355.179 133.622 355.158 133.601 355.136 133.579L355.071 133.514C353.298 131.87 352.541 130.27 351.892 128.67C351.308 127.07 350.984 125.469 350.746 123.847C350.573 122.204 350.335 120.582 349.946 118.982C349.773 118.182 349.47 117.403 349.254 116.625C348.994 115.846 348.799 115.046 348.475 114.289C347.394 111.197 345.988 108.212 344.431 105.314C342.831 102.438 340.992 99.7135 338.981 97.0968C330.828 86.6733 319.561 78.7152 307.299 73.0709C304.228 71.6653 301.071 70.3894 297.892 69.2648C297.092 68.9837 296.292 68.7242 295.491 68.4647L294.886 68.2701L294.734 68.2268L294.67 68.2052L294.518 68.162C294.324 68.1187 294.107 68.0755 293.913 68.0538C293.091 67.9889 292.269 68.2052 291.599 68.6377C291.253 68.854 290.972 69.1351 290.712 69.4379C290.669 69.4811 290.539 69.6757 290.409 69.8487L290.063 70.3677L289.371 71.3841L287.966 73.4169C287.533 74.1306 287.122 74.8442 286.69 75.5578L285.414 77.7204L284.268 79.9694L283.121 82.2185L282.083 84.5324L281.045 86.8463L280.115 89.2035C279.813 90.0036 279.488 90.7821 279.185 91.5823L278.342 94.0043C277.217 97.2049 276.223 100.492 275.509 103.844C274.795 107.196 274.168 110.548 273.238 113.856C272.308 117.165 271.205 120.431 268.567 123.545L268.524 123.588C267.918 124.302 266.837 124.41 266.102 123.783C265.929 123.61 265.799 123.415 265.691 123.22Z" fill="#390075"/>
<path d="M326.806 130.054C325.984 110.418 309.007 97.5077 300.638 92.3176C297.957 90.6524 294.388 91.6039 292.918 94.4152C286.884 106.006 286.019 125.448 286.019 125.448L326.806 130.054Z" fill="#E81881"/>
<path d="M282.408 124.648C284.743 123.804 287.101 123.264 289.479 122.831C291.858 122.399 294.259 122.117 296.681 121.944C301.503 121.62 306.348 121.793 311.17 122.377C315.993 122.939 320.772 124.02 325.4 125.534C330.028 127.07 334.483 129.211 338.506 131.957C339.046 132.325 339.176 133.038 338.808 133.579C338.527 133.99 338.03 134.163 337.576 134.055L337.511 134.033C332.904 132.952 328.514 131.784 323.973 131.049C319.453 130.313 314.955 129.6 310.392 129.189C305.829 128.756 301.266 128.41 296.659 128.064C292.053 127.718 287.403 127.416 282.711 126.897H282.667C282.018 126.832 281.564 126.248 281.629 125.599C281.694 125.167 281.997 124.799 282.408 124.648Z" fill="#390075"/>
<path d="M251.72 239.565C252.001 241.101 252.131 242.701 252.131 244.323C252.131 259.309 239.977 271.463 224.991 271.463C215.626 271.463 207.365 266.727 202.5 259.504" fill="#FF94CF"/>
<path d="M204.208 273.149C209.636 276.566 215.172 278.361 220.601 278.664C226.029 278.945 231.241 277.669 235.76 275.182L237.426 274.209L239.004 273.063C240.021 272.263 241.015 271.419 241.924 270.468C242.919 269.581 243.675 268.521 244.519 267.483C244.887 266.943 245.297 266.402 245.643 265.84L246.184 264.997L246.681 264.11C249.298 259.352 250.639 253.686 250.596 247.264C254.186 252.627 255.029 259.979 253.039 266.64C252.066 269.992 250.379 273.171 248.13 275.896C247.049 277.301 245.73 278.534 244.432 279.723L242.313 281.345C241.556 281.821 240.799 282.297 240.042 282.751C233.792 286.233 226.202 287.184 219.476 285.368C216.124 284.438 212.988 282.859 210.371 280.761C207.69 278.664 205.506 276.112 204.208 273.149Z" fill="#390075"/>
<path d="M235.306 284.503C234.03 284.503 232.754 283.94 231.911 282.859C222.201 270.684 221.79 253.492 221.79 252.778C221.747 250.378 223.671 248.388 226.072 248.345C226.093 248.345 226.115 248.345 226.137 248.345C228.515 248.345 230.44 250.248 230.483 252.627C230.483 252.843 230.894 267.635 238.701 277.431C240.193 279.313 239.891 282.059 238.009 283.551C237.209 284.2 236.258 284.503 235.306 284.503Z" fill="#390075"/>
<path d="M485.021 390.489C485.021 390.489 462.941 419.705 472.284 443.644C481.604 467.584 461.406 489.642 438.72 475.347C416.034 461.053 445.251 435.189 430.221 413.607" fill="#FF94CF"/>
<path d="M453.037 480.429C448.279 480.429 443.262 478.894 438.374 475.823C425.961 467.995 428.642 456.793 431.497 444.942C434.006 434.54 436.579 423.814 429.702 413.909L430.654 413.261C437.834 423.576 435.174 434.583 432.622 445.223C429.745 457.16 427.258 467.476 438.98 474.85C448.387 480.775 458.335 480.732 465.58 474.763C473.798 467.973 476.263 455.56 471.7 443.839C462.357 419.878 484.308 390.424 484.524 390.121L485.454 390.813C485.238 391.094 463.677 420.051 472.781 443.406C477.517 455.582 474.922 468.514 466.315 475.628C462.487 478.829 457.902 480.429 453.037 480.429Z" fill="#390075"/>
<g opacity="0.4">
<path d="M435.93 421.651C435.93 421.651 442.851 433.178 439.39 448.164C439.39 448.164 437.076 481.597 468.218 468.925L466.228 475.023L456.107 479.651L444.602 478.288L434.806 474.699L431.497 467.822L429.724 452.987L435.93 421.651Z" fill="white"/>
</g>
<path d="M485.605 390.922C482.426 398.058 479.529 405.151 477.474 412.309C475.398 419.424 474.165 426.668 474.792 433.48C474.857 434.345 475.03 435.167 475.095 436.011C475.268 436.832 475.376 437.676 475.614 438.476C475.831 439.276 476.025 440.098 476.328 440.876L477.279 443.666C478.707 447.84 479.291 452.338 479.118 456.814C478.966 459.063 478.664 461.291 478.101 463.496C477.517 465.681 476.717 467.822 475.701 469.876C473.581 473.942 470.532 477.639 466.575 480.235C462.66 482.873 457.881 484.3 453.166 484.387C448.452 484.451 443.867 483.262 439.866 481.316C437.834 480.386 435.974 479.261 434.071 477.899C432.233 476.45 430.394 474.85 428.945 472.774C427.475 470.741 426.329 468.384 425.745 465.962C425.139 463.54 424.945 461.139 425.009 458.847C425.096 456.576 425.42 454.435 425.788 452.359C426.177 450.305 426.696 448.337 427.194 446.412C428.21 442.585 429.27 438.93 430.135 435.383C430.589 433.589 430.913 431.837 431.216 430.085C431.324 429.22 431.476 428.334 431.519 427.447C431.627 426.56 431.627 425.695 431.649 424.809C431.713 421.284 431 417.737 429.659 414.039V414.017C429.508 413.628 429.724 413.196 430.113 413.066C430.373 412.979 430.675 413.044 430.87 413.217C433.941 415.942 436.19 419.813 437.315 424.008C437.877 426.106 438.158 428.247 438.266 430.388C438.331 432.507 438.288 434.648 438.05 436.681C437.661 440.811 436.731 444.704 435.974 448.467C435.239 452.208 434.547 455.798 434.525 459.063C434.547 460.664 434.676 462.177 435.022 463.54C435.347 464.902 435.995 466.07 436.752 467.216C437.488 468.362 438.634 469.379 439.802 470.352C441.056 471.26 442.483 472.233 443.975 472.968C446.917 474.504 450.052 475.369 453.145 475.434C456.216 475.434 459.243 474.655 461.795 472.947C463.071 472.103 464.282 471.109 465.299 469.919C466.315 468.73 467.202 467.389 467.915 465.962C469.343 463.086 470.056 459.82 470.121 456.533C470.121 453.224 469.559 449.894 468.413 446.715L467.418 443.99C467.007 442.952 466.748 441.871 466.466 440.79C466.185 439.709 466.012 438.627 465.818 437.524C465.688 436.443 465.515 435.34 465.472 434.259C465.191 429.891 465.623 425.587 466.553 421.478C467.461 417.369 468.824 413.434 470.575 409.736C471.44 407.876 472.37 406.081 473.408 404.329C474.425 402.578 475.485 400.869 476.674 399.226C477.82 397.582 479.053 395.982 480.35 394.446C481.648 392.911 483.01 391.462 484.524 390.078C484.827 389.797 485.303 389.819 485.562 390.121C485.757 390.338 485.8 390.662 485.692 390.922H485.605Z" fill="#390075"/>
<path d="M209.939 240.322L229.683 234.548C233.944 233.294 237.771 237.273 235.738 240.819L229.489 251.805C228.278 253.924 225.445 254.833 223.001 253.881L209.506 248.669C205.246 247.048 205.549 241.62 209.939 240.322Z" fill="#390075"/>
<path d="M225.012 258.379C223.844 258.379 222.655 258.163 221.509 257.73L208.014 252.519C204.424 251.135 202.218 247.891 202.37 244.236C202.521 240.56 205.03 237.467 208.771 236.386L228.515 230.612C232.278 229.509 236.236 230.72 238.572 233.705C240.691 236.386 240.972 239.911 239.285 242.874L233.035 253.859C231.413 256.736 228.278 258.379 225.012 258.379ZM231.284 238.419C231.154 238.419 231.002 238.441 230.829 238.484L211.085 244.258C210.717 244.366 210.588 244.517 210.588 244.582C210.588 244.604 210.674 244.733 210.998 244.842L224.493 250.053C225.142 250.313 225.791 250.01 225.942 249.772L232.192 238.787C232.062 238.657 231.759 238.419 231.284 238.419Z" fill="#390075"/>
<path d="M394.322 171.207L377.994 153.82C375.421 151.074 371.096 150.922 368.328 153.517C365.581 156.091 365.43 160.438 368.025 163.184L384.352 180.571C385.693 181.998 387.51 182.733 389.326 182.733C391.013 182.733 392.678 182.128 393.998 180.874C396.787 178.279 396.917 173.953 394.322 171.207Z" fill="#F0D31E"/>
<path d="M389.348 186.129C386.515 186.129 383.79 184.939 381.865 182.885L365.538 165.498C363.656 163.508 362.683 160.892 362.769 158.167C362.856 155.421 364.002 152.89 365.992 151.009C367.981 149.128 370.598 148.154 373.345 148.241C376.091 148.327 378.621 149.474 380.503 151.463L396.83 168.85C398.712 170.839 399.685 173.456 399.599 176.203C399.512 178.949 398.366 181.479 396.376 183.361C394.452 185.156 391.965 186.129 389.348 186.129ZM373.02 155.075C372.155 155.075 371.312 155.399 370.685 156.004C370.014 156.632 369.647 157.475 369.603 158.383C369.582 159.292 369.906 160.157 370.533 160.827L386.861 178.214C388.115 179.555 390.364 179.619 391.683 178.365C392.354 177.738 392.743 176.895 392.765 175.986C392.786 175.078 392.462 174.213 391.835 173.543L375.507 156.156C374.88 155.485 374.037 155.118 373.128 155.075C373.085 155.075 373.063 155.075 373.02 155.075Z" fill="#390075"/>
<path d="M470.986 161.519L450.377 168.828C447.111 169.975 445.403 173.564 446.571 176.83C447.717 180.095 451.307 181.804 454.572 180.636L475.182 173.326C476.89 172.721 478.166 171.467 478.837 169.931C479.464 168.526 479.55 166.882 479.01 165.325C477.842 162.081 474.252 160.373 470.986 161.519Z" fill="#1FC9E5"/>
<path d="M452.453 184.139C451.069 184.139 449.706 183.836 448.409 183.231C446.138 182.15 444.43 180.246 443.586 177.889C442.743 175.532 442.872 172.98 443.954 170.71C445.035 168.439 446.938 166.731 449.295 165.887L469.905 158.578C472.262 157.734 474.814 157.864 477.085 158.945C479.356 160.027 481.064 161.93 481.907 164.287C482.708 166.558 482.621 169.001 481.648 171.207C480.61 173.564 478.62 175.424 476.176 176.289L455.567 183.598C454.594 183.966 453.512 184.139 452.453 184.139ZM473.084 164.287C472.738 164.287 472.392 164.352 472.046 164.46L451.436 171.769C450.658 172.05 450.009 172.613 449.663 173.37C449.295 174.126 449.252 174.97 449.533 175.77C449.814 176.549 450.377 177.197 451.134 177.543C451.891 177.911 452.734 177.954 453.534 177.673L474.144 170.364C474.965 170.061 475.614 169.477 475.96 168.677C476.285 167.942 476.306 167.12 476.047 166.363C475.593 165.109 474.382 164.287 473.084 164.287Z" fill="#390075"/>
<path d="M432.773 128.735L409.698 124.475C406.044 123.804 402.54 126.226 401.87 129.859C401.199 133.514 403.622 137.017 407.255 137.688L430.33 141.948C432.233 142.294 434.093 141.818 435.541 140.759C436.861 139.785 437.834 138.315 438.158 136.563C438.829 132.908 436.428 129.405 432.773 128.735Z" fill="#1FC9E5"/>
<path d="M431.541 145.43C430.935 145.43 430.33 145.365 429.724 145.257L406.649 140.996C404.011 140.499 401.697 139.028 400.161 136.801C398.626 134.574 398.064 131.892 398.539 129.254C399.037 126.594 400.529 124.302 402.735 122.766C404.962 121.231 407.622 120.668 410.282 121.144L433.357 125.404C435.996 125.902 438.31 127.372 439.845 129.6C441.38 131.827 441.943 134.509 441.467 137.147C440.991 139.677 439.607 141.905 437.531 143.44C435.779 144.738 433.682 145.43 431.541 145.43ZM408.466 127.718C407.795 127.718 407.125 127.913 406.563 128.302C405.827 128.821 405.33 129.578 405.157 130.465C404.984 131.351 405.179 132.238 405.698 132.973C406.217 133.709 406.973 134.206 407.86 134.379L430.935 138.639C431.843 138.812 432.773 138.596 433.53 138.034C434.222 137.536 434.676 136.779 434.849 135.936C435.022 135.049 434.828 134.163 434.309 133.427C433.79 132.692 433.033 132.195 432.146 132.022L409.071 127.762C408.877 127.74 408.66 127.718 408.466 127.718Z" fill="#390075"/>
<path d="M389.218 208.165L368.09 215.669C364.738 216.859 362.986 220.535 364.175 223.865C365.365 227.217 369.041 228.969 372.372 227.779L393.5 220.275C395.252 219.648 396.55 218.372 397.242 216.794C397.869 215.345 397.977 213.68 397.415 212.079C396.225 208.727 392.549 206.976 389.218 208.165Z" fill="#1FC9E5"/>
<path d="M370.209 231.348C368.803 231.348 367.376 231.023 366.078 230.396C363.764 229.293 361.991 227.347 361.148 224.925C360.283 222.503 360.434 219.886 361.537 217.551C362.64 215.237 364.586 213.463 367.008 212.62L388.137 205.116C390.559 204.251 393.176 204.381 395.511 205.505C397.825 206.608 399.599 208.554 400.442 210.976C401.264 213.29 401.177 215.82 400.183 218.07C399.123 220.492 397.068 222.395 394.581 223.281L373.453 230.785C372.393 231.153 371.312 231.348 370.209 231.348ZM391.359 210.998C390.991 210.998 390.645 211.063 390.278 211.193L369.149 218.697C368.349 218.978 367.7 219.562 367.333 220.34C366.965 221.119 366.922 221.984 367.203 222.806C367.484 223.606 368.068 224.254 368.846 224.622C369.625 224.99 370.49 225.033 371.312 224.752L392.44 217.248C393.284 216.945 393.954 216.339 394.3 215.518C394.625 214.761 394.668 213.939 394.387 213.161C394.106 212.36 393.522 211.712 392.743 211.344C392.311 211.106 391.835 210.998 391.359 210.998Z" fill="#390075"/>
<path d="M351.157 273.474C361.883 273.106 370.555 284.438 361.256 293.175C353.341 300.635 336.97 302.711 329.941 296.159C322.935 289.606 323.886 273.128 330.785 264.716C338.916 254.876 350.789 262.748 351.157 273.474Z" fill="#F40634"/>
<path d="M342.074 303.879C336.451 303.879 331.109 302.365 327.411 298.884C318.415 290.493 320.188 271.787 327.93 262.358C332.148 257.233 337.987 255.308 343.609 257.211C348.994 259.028 353.146 264.024 354.466 269.949C360.456 270.857 365.711 274.663 367.895 279.918C370.166 285.389 368.652 291.358 363.83 295.899C358.618 300.808 350.075 303.879 342.074 303.879ZM339.284 263.959C337.294 263.959 335.391 265.018 333.683 267.094C327.844 274.209 327.195 288.482 332.494 293.434C337.792 298.386 352 296.764 358.704 290.471C361.278 288.028 362.078 285.389 360.997 282.794C359.591 279.421 355.46 277.064 351.287 277.215C349.21 277.28 347.502 275.68 347.437 273.604C347.286 269.387 344.669 265.472 341.209 264.283C340.56 264.067 339.911 263.959 339.284 263.959Z" fill="#390075"/>
<path d="M451.069 332.425C449.36 322.693 458.573 313.351 467.742 320.682C475.549 326.932 479.55 341.594 474.468 348.838C469.386 356.061 454.248 357.316 445.705 352.104C435.693 345.984 441.337 334.133 451.069 332.425Z" fill="#F40634"/>
<path d="M458.551 358.743C453.231 358.743 447.911 357.467 443.91 355.023C438.698 351.844 436.19 346.762 437.206 341.399C438.179 336.252 442.202 331.841 447.414 329.873C447.479 324.294 450.268 319.017 454.767 316.357C459.459 313.589 465.104 314.195 469.861 318.022C478.62 325.051 483.767 341.551 477.258 350.828C473.495 356.234 466.034 358.743 458.551 358.743ZM461.016 321.504C460.065 321.504 459.157 321.763 458.292 322.282C455.394 323.991 453.772 328.035 454.442 331.863C454.594 332.749 454.399 333.679 453.88 334.436C453.361 335.193 452.561 335.69 451.652 335.842C447.825 336.512 444.581 339.41 443.954 342.718C443.478 345.27 444.689 347.498 447.479 349.206C454.702 353.618 467.807 352.385 471.635 346.914C475.463 341.443 472.175 328.705 465.558 323.407C464.044 322.131 462.487 321.504 461.016 321.504Z" fill="#390075"/>
<path d="M257.862 221.292C256.759 219.216 256.218 217.096 255.959 214.847C255.721 212.598 255.851 210.263 256.391 207.949C257.386 203.321 260.543 198.866 264.523 196.163C268.264 193.589 272.784 191.773 277.455 191.557C279.769 191.405 282.083 191.686 284.267 192.292C285.348 192.595 286.408 192.984 287.425 193.481C288.441 193.979 289.371 194.519 290.344 195.298C290.993 195.817 291.101 196.768 290.582 197.439C290.258 197.828 289.782 198.023 289.306 198.001L288.982 197.979C288.16 197.936 287.165 197.871 286.278 197.85C285.37 197.871 284.462 197.893 283.597 197.979C281.845 198.131 280.158 198.434 278.558 198.931C275.357 199.882 272.459 201.44 269.756 203.451C269.388 203.689 269.172 203.948 268.848 204.186C268.567 204.445 268.242 204.662 268.004 204.921C267.485 205.462 266.945 205.981 266.491 206.586C265.972 207.149 265.604 207.797 265.128 208.425C264.761 209.117 264.306 209.744 264.004 210.501C263.29 211.949 262.663 213.55 262.165 215.258C261.646 216.945 261.235 218.848 260.825 220.665L260.781 220.902C260.587 221.746 259.765 222.265 258.922 222.07C258.446 221.984 258.078 221.681 257.862 221.292Z" fill="#390075"/>
<path d="M183.36 241.619C180.527 239.587 177.716 237.792 174.926 236.775C173.542 236.235 172.18 235.867 170.796 235.672C170.104 235.543 169.411 235.543 168.719 235.478C168.006 235.499 167.335 235.456 166.578 235.543C163.464 235.802 160.502 236.473 157.69 237.705C156.263 238.311 154.922 239.111 153.581 240.019C152.911 240.473 152.284 240.992 151.635 241.511C151.029 242.03 150.381 242.679 149.84 243.176L149.624 243.371C149.083 243.89 148.196 243.869 147.677 243.328C147.353 242.982 147.245 242.528 147.331 242.095C147.764 239.933 148.651 238.159 149.818 236.429C151.008 234.743 152.457 233.164 154.144 231.931C157.496 229.358 161.669 227.909 165.757 227.433C170.06 226.849 174.84 227.909 178.408 230.353C180.203 231.542 181.76 233.034 182.993 234.678C184.225 236.364 185.177 238.116 185.717 240.192C185.912 240.949 185.458 241.706 184.723 241.901C184.312 242.009 183.879 241.922 183.555 241.684L183.36 241.619Z" fill="#390075"/>
<g opacity="0.6">
<path d="M215.21 244.138C218.228 243.31 220.382 241.575 220.022 240.262C219.662 238.949 216.924 238.555 213.906 239.383C210.888 240.21 208.733 241.946 209.093 243.259C209.454 244.572 212.192 244.965 215.21 244.138Z" fill="white"/>
</g>
<g opacity="0.35">
<path d="M503.598 171.596C503.598 171.596 557.555 271.203 477.106 403.789L471.7 418.191L475.636 421.651C475.614 421.651 573.58 342.308 503.598 171.596Z" fill="#390075"/>
</g>
<g opacity="0.35">
<path d="M432.816 418.364C432.816 418.364 419.192 450.413 383.466 426.517C383.466 426.517 410.109 466.07 432.816 449.051C432.816 449.051 440.083 424.29 432.816 418.364Z" fill="#390075"/>
</g>
</g>
<defs>
<clipPath id="clip0_244_5934">
<rect width="428" height="583" fill="white" transform="translate(111 8)"/>
</clipPath>
</defs>
</svg>
