<svg width="626" height="622" viewBox="0 0 626 622" fill="none" xmlns="http://www.w3.org/2000/svg">
<ellipse cx="313" cy="299.5" rx="313" ry="299.5" fill="#B0A2D7"/>
<path d="M534.189 226.235C533.278 228.737 532.017 231.104 530.581 233.335C524.645 242.531 505.671 274.036 501.268 307.54C501.268 307.54 437.577 326.222 422.251 273.571C422.251 273.571 427.257 261.659 433.018 246.372C435.734 239.194 438.586 231.24 441.186 223.422C442.621 219.076 443.087 214.459 442.602 209.9C441.438 199.113 442.35 177.851 467.977 180.509C467.977 180.509 494.749 156.821 509.183 187.454C509.901 188.967 510.58 190.616 511.239 192.42C511.239 192.42 546.101 193.759 534.189 226.235Z" fill="white"/>
<path d="M499.25 241.541C499.716 239.077 499.619 236.672 499.153 234.402C495.797 217.951 473.875 213.198 464.001 226.778C462.643 228.66 461.556 230.794 460.955 233.238C457.327 247.885 471.373 239.912 479.171 241.599C487.009 243.287 496.476 256.363 499.25 241.541Z" fill="#FFB3D2"/>
<path d="M469.213 216.736C473.823 214.656 475.874 209.233 473.795 204.623C471.715 200.013 466.292 197.961 461.682 200.041C457.072 202.12 455.021 207.543 457.1 212.153C459.18 216.764 464.603 218.815 469.213 216.736Z" fill="#FFB3D2"/>
<path d="M490.23 211.077C495.097 209.705 497.931 204.647 496.559 199.78C495.187 194.912 490.129 192.079 485.261 193.451C480.394 194.823 477.56 199.881 478.932 204.748C480.304 209.616 485.362 212.449 490.23 211.077Z" fill="#FFB3D2"/>
<path d="M511.972 223.593C515.548 220.017 515.548 214.22 511.972 210.644C508.396 207.068 502.598 207.068 499.022 210.644C495.446 214.22 495.446 220.017 499.022 223.593C502.598 227.169 508.396 227.169 511.972 223.593Z" fill="#FFB3D2"/>
<g opacity="0.3">
<path d="M534.189 226.235C533.278 228.737 532.017 231.104 530.581 233.335C524.645 242.531 505.671 274.036 501.268 307.54C501.268 307.54 437.577 326.222 422.251 273.571C422.251 273.571 425.744 265.675 431.505 250.368C441.981 251.862 462.545 251.261 479.772 257.857C488.017 261.019 497.504 259.292 503.712 252.987C505.749 250.911 507.417 248.389 508.213 245.363C511.414 233.199 526.1 217.854 511.239 192.42C511.239 192.42 546.101 193.759 534.189 226.235Z" fill="#000072"/>
</g>
<path d="M476.416 315.222C465.979 315.222 453.932 313.496 443.145 307.598C430.807 300.847 422.349 289.808 417.984 274.812C417.693 273.842 417.751 272.795 418.158 271.863C418.275 271.611 429.003 246.023 436.976 222.025C438.218 218.319 438.625 214.401 438.179 210.385C437.267 201.868 437.772 190.151 445.318 182.604C450.304 177.599 457.443 175.368 466.561 175.969C470.693 172.807 482.469 164.969 494.633 168.073C503.111 170.227 509.726 177.036 514.363 188.288C519.795 189.025 531.202 191.644 537.255 200.665C541.988 207.727 542.338 216.845 538.322 227.787C537.352 230.444 536.013 233.063 534.267 235.76C528.622 244.49 509.92 275.472 505.633 308.141C505.4 309.887 504.178 311.323 502.49 311.827C501.714 312.041 490.578 315.222 476.416 315.222ZM426.946 273.803C432.98 292.757 446.696 303.544 467.745 305.872C480.355 307.268 492.15 305.134 497.31 303.97C502.529 270.602 521.133 239.795 526.856 230.929C528.234 228.776 529.281 226.739 530.038 224.702C533.006 216.593 532.987 210.152 529.941 205.593C524.548 197.503 511.201 196.844 511.065 196.824C509.28 196.747 507.689 195.602 507.088 193.914C503.499 184.02 498.61 178.2 492.518 176.648C482.275 174.01 471.043 183.729 470.926 183.826C469.995 184.641 468.753 185.048 467.531 184.913C460.314 184.156 454.96 185.475 451.604 188.831C446.269 194.186 446.424 204.022 447.006 209.415C447.569 214.692 447.025 219.871 445.396 224.799C438.412 245.809 429.371 267.964 426.946 273.803Z" fill="#000072"/>
<path d="M444.756 226.913C439.983 243.132 427.179 255.315 420.195 260.999C417.344 263.308 415.462 264.549 415.462 264.549C408.652 292.932 392.492 314.757 374.955 330.936C360.249 344.516 343.177 355.206 324.767 362.694C320.557 364.401 316.308 365.934 311.982 367.311L311.963 367.331C288.644 374.722 263.618 377.166 238.631 374.14C214.381 371.211 187.648 362.966 164.271 344.128C164.271 344.128 136.82 345.137 117.051 330.742C113.928 328.453 113.772 323.991 116.741 321.527C118.564 319.995 120.873 317.977 123.744 315.339C123.744 315.339 118.312 311.691 113.501 305.037C111.638 302.476 111.968 299.023 114.277 296.831C117.614 293.669 122.076 288.256 123.24 281.136C123.24 281.136 122.852 277.237 122.541 271.786C122.27 267.207 122.037 261.523 122.114 256.207C122.153 253.026 122.289 249.98 122.599 247.361C122.638 247.148 122.658 246.973 122.677 246.779C122.696 246.76 122.696 246.779 122.696 246.779V246.76L122.677 246.74C122.037 245.634 90.7834 192.265 98.2718 118.371C99.5328 105.858 112.511 97.6901 124.986 101.628C135.442 104.907 148.44 109.99 161.962 117.633C161.981 117.653 161.981 117.633 161.981 117.653C161.981 117.653 162.02 117.672 162.078 117.711C171.41 123.007 180.955 129.545 190.092 137.577C190.092 137.577 190.887 137.033 192.536 136.083L192.556 136.063C195.369 134.434 200.665 131.621 208.638 128.342C209.298 128.07 209.977 127.779 210.675 127.508C215.04 125.762 220.104 123.938 225.943 122.076C250.542 114.277 264.394 114.044 264.394 114.044C269.865 85.4875 283.115 62.6925 293.746 48.1813C301.235 37.8993 316.774 37.0457 325.698 46.3383C378.932 101.745 387.293 162.932 387.293 162.932C396.236 171.74 408.555 190.732 408.555 190.732C413.968 195.757 420.952 197.542 425.647 198.163C428.867 198.589 431.312 201.17 431.447 204.293C431.797 212.344 429.76 218.358 429.76 218.358C433.737 218.843 436.86 219.153 439.285 219.309C443.126 219.638 445.823 223.305 444.756 226.913Z" fill="#8E8FB3"/>
<path d="M306.841 205.768C302.127 207.009 297.18 207.087 292.446 205.903C284.337 203.905 270.059 201.771 255.47 206.388C240.9 211.006 230.812 220.861 225.594 227.069C222.548 230.716 218.532 233.471 213.993 235.159C126.828 267.518 164.27 344.109 164.27 344.109C187.667 362.927 214.381 371.172 238.631 374.101C263.618 377.128 288.663 374.664 311.982 367.273C335.301 359.881 356.893 347.562 374.954 330.898C392.492 314.718 408.652 292.893 415.462 264.491C415.462 264.55 396.993 181.944 306.841 205.768Z" fill="white"/>
<path d="M180.605 151.583C169.062 138.294 160.934 132.688 155.444 130.592C150.283 128.633 144.657 132.358 144.735 137.654C144.909 149.585 155.773 154.707 155.773 154.707C146.5 153.058 130.282 160.779 135.966 171.701C141.514 182.371 151.661 175.717 152.146 175.406C128.419 201.286 122.677 246.798 122.677 246.798L122.658 246.779C122.017 245.673 90.7639 192.304 98.2523 118.429C99.1059 110.028 105.217 103.588 112.919 101.454C116.702 100.406 120.853 100.387 124.966 101.686C135.423 104.965 148.421 110.048 161.943 117.691C161.943 117.691 161.962 117.691 161.962 117.711C176.919 131.31 180.605 151.583 180.605 151.583Z" fill="#FF8DC1"/>
<path d="M280.709 119.864C281.544 102.656 284.512 93.5385 287.577 88.7273C290.448 84.2071 297.316 83.9937 300.614 88.2617C308.025 97.9035 302.573 108.205 302.573 108.205C308.936 101.589 326.784 98.5243 329.151 110.513C331.46 122.212 319.141 122.677 318.559 122.697C353.886 129.875 387.254 162.99 387.254 162.99V162.971C387.079 161.71 378.33 101.221 325.659 46.3965C316.735 37.1039 301.215 37.9769 293.707 48.2395C287.422 56.8143 280.224 68.2991 274.249 82.1313V82.1507C270.835 101.551 280.709 119.864 280.709 119.864Z" fill="#FF8DC1"/>
<path d="M290.177 146.714C290.836 148.324 292.99 148.77 294.212 147.529C296.055 145.666 299.217 143.668 303.989 144.464C312.37 145.86 317.822 127.741 301.797 129.972C289.769 131.64 287.286 139.749 290.177 146.714Z" fill="white"/>
<path d="M189.995 178.472C190.48 180.14 189.045 181.731 187.279 181.42C184.621 180.974 180.838 181.188 177.521 184.544C171.701 190.441 155.909 179.054 170.11 171.701C180.8 166.172 187.9 171.235 189.995 178.472Z" fill="white"/>
<path d="M208.58 128.4L215.04 156.783C215.39 158.354 213.333 159.343 212.247 158.121L192.498 136.141L192.517 136.122C195.33 134.492 200.607 131.679 208.58 128.4Z" fill="#8E8FB3"/>
<path d="M243.674 117.284L256.44 143.668C257.138 145.123 259.408 144.735 259.524 143.125L261.425 114.297H261.406C258.127 114.588 252.113 115.364 243.674 117.284Z" fill="#8E8FB3"/>
<path d="M146.073 254.83C131.504 271.456 127.992 294.814 127.992 294.814C125.955 290.817 123.239 281.175 123.239 281.175C123.239 281.175 122.851 277.276 122.541 271.825C132.008 258.128 141.029 254.462 145.22 253.472C146.015 253.278 146.597 254.209 146.073 254.83Z" fill="#8E8FB3"/>
<path d="M135.714 248.486C130.534 250.485 125.684 253.608 122.095 256.246C122.134 253.084 122.269 250.019 122.58 247.4C128.342 245.596 132.998 246.217 135.617 246.896C136.431 247.109 136.49 248.176 135.714 248.486Z" fill="#8E8FB3"/>
<path d="M373.557 182.74C395.712 187.726 413.289 204.41 413.289 204.41C412.396 200.064 408.477 190.791 408.477 190.791C408.477 190.791 406.324 187.454 403.142 182.914C386.924 177.366 377.379 179.578 373.402 181.168C372.646 181.479 372.743 182.546 373.557 182.74Z" fill="#8E8FB3"/>
<path d="M377.845 171.759C383.258 170.421 389.097 170.13 393.637 170.207C391.6 167.685 389.563 165.338 387.661 163.417C381.919 165.26 378.582 168.403 376.914 170.46C376.409 171.08 377.03 171.953 377.845 171.759Z" fill="#8E8FB3"/>
<path d="M225.884 122.134C220.045 123.977 214.982 125.82 210.617 127.566L239.949 167.472C241.016 168.908 243.364 168.17 243.306 166.405L241.54 117.769C236.943 118.875 231.704 120.291 225.884 122.134Z" fill="#8E8FB3"/>
<g opacity="0.3">
<path d="M180.605 151.583C169.062 138.294 160.934 132.688 155.443 130.593C150.283 128.633 144.657 132.358 144.735 137.654C144.909 149.585 155.773 154.707 155.773 154.707C146.5 153.058 130.282 160.779 135.966 171.701C141.514 182.371 151.66 175.717 152.145 175.407C128.419 201.286 122.677 246.799 122.677 246.799C122.677 246.799 114.49 222.432 132.086 189.142C133.696 186.096 133.153 182.41 130.708 179.888C125.005 173.952 117.633 162.118 134.336 150.904C137.207 148.964 138.352 145.375 136.916 142.271C135.112 138.391 133.715 132.921 136.548 127.915C139.497 122.697 138.003 116.159 133.327 112.201C128.245 107.914 121.28 103.413 112.938 101.473C116.721 100.426 120.873 100.406 124.985 101.706C135.442 104.985 148.44 110.067 161.962 117.711C161.962 117.711 161.981 117.711 161.981 117.73C176.919 131.31 180.605 151.583 180.605 151.583Z" fill="#000072"/>
</g>
<g opacity="0.3">
<path d="M280.709 119.864C281.544 102.657 284.512 93.5386 287.577 88.7274C290.448 84.2072 297.316 83.9938 300.614 88.2618C308.025 97.9036 302.573 108.205 302.573 108.205C308.936 101.59 326.784 98.5244 329.151 110.514C331.46 122.212 319.141 122.677 318.559 122.697C353.886 129.875 387.254 162.991 387.254 162.991C387.254 162.991 378.408 138.838 343.294 122.231C340.073 120.718 338.191 117.459 338.541 114.044C339.336 106.052 337.765 92.3746 317.317 92.9178C313.806 93.0148 310.605 90.7838 309.809 87.4858C308.801 83.3536 306.453 78.1932 301.021 75.7876C295.356 73.285 292.427 67.2128 293.668 61.3928C295.007 55.0684 297.742 47.5024 303.194 41.178C299.508 42.4972 296.171 44.8446 293.707 48.2202C287.422 56.795 280.224 68.2798 274.249 82.112V82.1314C270.835 101.551 280.709 119.864 280.709 119.864Z" fill="#000072"/>
</g>
<g opacity="0.5">
<path d="M264.336 114.103C264.336 114.103 263.346 114.122 261.426 114.297H261.406C258.128 114.607 252.114 115.364 243.675 117.284C242.976 117.439 242.259 117.614 241.521 117.789C236.943 118.875 231.705 120.311 225.885 122.154C220.046 123.997 214.982 125.84 210.617 127.586C209.919 127.857 209.24 128.148 208.58 128.42C200.626 131.698 195.33 134.511 192.517 136.141L192.498 136.16C190.868 137.111 190.053 137.654 190.053 137.654C180.916 129.623 171.371 123.085 162.04 117.808C163.204 118.565 174.727 126.189 185.824 143.726C187.803 146.869 192.071 147.82 195.233 145.822C200.471 142.524 210.462 137.615 229.222 131.66C247.982 125.704 259.078 123.958 265.364 123.589C269.166 123.376 271.96 120.175 271.572 116.547C269.36 96.1964 273.745 83.5282 274.21 82.2478C270.078 91.7926 266.567 102.463 264.336 114.103Z" fill="white"/>
</g>
<g opacity="0.3">
<path d="M444.756 226.913C439.983 243.132 427.18 255.315 420.196 260.999C417.344 263.308 415.462 264.549 415.462 264.549C408.652 292.932 392.492 314.757 374.955 330.936C360.25 344.516 343.177 355.206 324.767 362.694C320.557 364.401 316.308 365.934 311.982 367.311L311.963 367.331C288.644 374.722 263.618 377.166 238.631 374.14C214.381 371.211 187.648 362.966 164.271 344.128C164.271 344.128 136.82 345.137 117.051 330.742C113.928 328.453 113.773 323.991 116.741 321.527C118.564 319.995 120.873 317.977 123.744 315.339C123.744 315.339 118.312 311.691 113.501 305.037C111.639 302.476 111.968 299.023 114.277 296.831C117.614 293.669 122.076 288.256 123.24 281.136C123.24 281.136 122.852 277.237 122.541 271.786C122.27 267.207 122.037 261.523 122.115 256.207C122.153 253.026 122.289 249.98 122.6 247.361C122.638 247.148 122.658 246.973 122.677 246.779C122.696 246.76 122.697 246.779 122.697 246.779C123.007 247.846 140.292 306.453 177.249 306.453C214.536 306.453 215.273 282.32 269.768 258.458C301.177 244.703 333.283 239.776 356.932 238.204C382.346 236.516 400.601 212.848 395.305 187.939C393.676 180.256 391.115 171.876 387.274 162.952C396.217 171.759 408.536 190.752 408.536 190.752C413.949 195.776 420.933 197.561 425.628 198.182C428.848 198.609 431.292 201.189 431.428 204.312C431.777 212.363 429.74 218.377 429.74 218.377C433.717 218.862 436.841 219.173 439.266 219.328C443.126 219.638 445.823 223.305 444.756 226.913Z" fill="#000072"/>
</g>
<g opacity="0.3">
<path d="M228.155 240.862C228.155 240.862 237.719 246.275 245.615 240.862C253.511 235.45 253.511 224.489 248.079 218.378C242.647 212.286 268.39 213.857 268.39 213.857C268.39 213.857 273.687 228.446 284.551 228.446C296.229 228.446 299.702 225.148 299.081 218.378C299.081 218.378 316.464 242.162 298.422 260.088C280.399 278.033 231.589 289.052 228.155 240.862Z" fill="#000072"/>
</g>
<path d="M302.981 250.814C302.961 261.814 298.752 274.579 281.35 280.108C264.006 285.599 252.58 277.858 245.615 269.109C239.135 260.98 236.478 251.978 236.478 251.978C236.478 251.978 265.034 254.287 263.638 229.668C278.071 250.155 299.469 232.035 299.469 232.035C299.469 232.035 303 240.668 302.981 250.814Z" fill="#000072"/>
<path d="M302.981 250.815C302.961 261.795 298.751 274.58 281.369 280.109C265.054 285.288 253.976 278.731 246.915 270.68C246.468 270.156 246.042 269.652 245.615 269.128L245.634 269.109C245.634 269.109 263.463 237.467 302.534 250.679C302.69 250.718 302.825 250.776 302.981 250.815Z" fill="#FF459A"/>
<g opacity="0.3">
<path d="M302.981 250.814C302.961 261.795 298.751 274.579 281.369 280.108C265.054 285.288 253.976 278.731 246.915 270.68C256.091 262.513 274.695 250.097 302.534 250.679C302.69 250.717 302.825 250.776 302.981 250.814Z" fill="#000072"/>
</g>
<path d="M270.195 285.075C264.898 285.075 259.893 283.833 255.257 281.369C239.601 273.047 233.761 253.705 233.509 252.871C233.218 251.881 233.432 250.814 234.072 250.019C234.712 249.224 235.721 248.777 236.749 248.874C236.885 248.894 249.437 249.767 256.207 243.132C259.408 240.009 260.863 235.527 260.533 229.843C260.456 228.446 261.309 227.185 262.629 226.72C263.948 226.254 265.403 226.739 266.198 227.864C269.651 232.753 273.803 235.547 278.556 236.167C288.101 237.409 297.374 229.707 297.471 229.63C298.228 228.989 299.256 228.757 300.226 228.989C301.196 229.222 301.991 229.921 302.36 230.832C302.69 231.628 310.275 250.504 302.942 266.199C299.178 274.25 292.233 279.914 282.32 283.057C278.11 284.415 274.075 285.075 270.195 285.075ZM240.978 255.082C243.384 260.708 248.796 270.874 258.205 275.86C264.704 279.313 272.193 279.74 280.418 277.121C288.605 274.521 294.27 269.982 297.277 263.58C301.7 254.171 299.489 242.802 297.84 237.002C293.552 239.698 285.967 243.384 277.799 242.356C273.531 241.813 269.651 240.067 266.237 237.157C265.345 241.27 263.443 244.762 260.553 247.594C254.694 253.317 246.216 254.772 240.978 255.082Z" fill="#000072"/>
<path d="M127.081 280.205C127.391 281.68 127.682 283.309 127.973 284.9L128.827 289.711C129.118 291.322 129.448 292.912 129.719 294.581C130.01 296.23 130.301 297.879 130.534 299.683C129.04 298.655 127.799 297.355 126.654 295.997C125.529 294.62 124.598 293.145 123.686 291.651C122.794 290.158 121.979 288.606 121.242 287.034C120.524 285.443 119.864 283.891 119.34 282.145L127.081 280.205Z" fill="#000072"/>
<path d="M161.865 347.329C160.003 345.952 158.451 344.477 156.879 342.906C155.347 341.315 153.911 339.647 152.534 337.92C151.195 336.155 149.876 334.37 148.828 332.391C147.761 330.412 146.888 328.317 146.461 326.028C148.46 327.25 150.167 328.511 151.874 329.753C153.62 330.975 155.191 332.314 156.86 333.555L161.826 337.28C163.456 338.522 165.144 339.783 166.657 341.005L161.865 347.329Z" fill="#000072"/>
<path d="M412.106 189.122C412.785 190.81 413.25 192.42 413.677 194.108C414.084 195.796 414.414 197.503 414.647 199.21C414.88 200.937 415.054 202.683 415.035 204.448C414.996 206.214 414.841 207.999 414.317 209.745C413.386 208.193 412.571 206.718 411.776 205.244C410.961 203.789 410.224 202.334 409.429 200.898L407.081 196.63C406.324 195.214 405.529 193.759 404.85 192.42L412.106 189.122Z" fill="#000072"/>
<path d="M411.621 263.502C412.047 261.678 412.61 259.699 413.134 257.779L414.744 251.939C415.307 249.98 415.714 248.021 416.315 246.022C416.878 244.024 417.441 242.026 418.255 239.892C419.342 241.89 419.963 244.044 420.351 246.197C420.758 248.35 420.816 250.523 420.855 252.696C420.855 254.869 420.758 257.022 420.525 259.176C420.254 261.329 419.943 263.405 419.322 265.597L411.621 263.502Z" fill="#000072"/>
<path d="M169.528 238.107C169.548 236.846 169.742 235.624 170.033 234.421C170.304 233.218 170.712 232.054 171.158 230.89C172.089 228.601 173.37 226.409 174.96 224.411C176.532 222.393 178.472 220.628 180.625 219.115C181.168 218.746 181.75 218.416 182.313 218.067C182.895 217.737 183.477 217.446 184.078 217.136C185.301 216.593 186.523 216.069 187.823 215.72C192.964 214.168 198.434 214.381 203.246 215.817C208.076 217.272 212.383 219.755 215.778 223.247C216.03 223.499 216.03 223.906 215.759 224.159C215.623 224.294 215.429 224.353 215.235 224.333C210.462 223.848 206.136 223.208 201.985 223.13C197.852 222.995 193.992 223.363 190.403 224.43C186.794 225.478 183.399 227.224 180.101 229.61C176.784 232.016 173.622 234.984 170.304 238.359L170.285 238.379C170.13 238.553 169.858 238.553 169.684 238.379C169.567 238.34 169.528 238.224 169.528 238.107Z" fill="#000072"/>
<path d="M343.818 183.419C339.123 182.72 334.777 182.177 330.665 182.119C326.532 182.061 322.711 182.546 319.122 183.651C317.317 184.195 315.591 184.951 313.903 185.863C313.03 186.27 312.235 186.852 311.381 187.318C310.586 187.919 309.713 188.404 308.917 189.064C305.619 191.508 302.496 194.554 298.965 197.794C298.713 198.046 298.286 198.027 298.053 197.755C297.917 197.619 297.859 197.406 297.879 197.231C298.499 192.381 300.536 187.803 303.64 183.787C304.397 182.759 305.309 181.867 306.221 180.935C307.191 180.082 308.161 179.189 309.266 178.472C310.314 177.676 311.517 177.075 312.661 176.435C313.864 175.872 315.106 175.368 316.386 174.96C321.488 173.35 326.998 173.466 331.829 174.902C334.254 175.62 336.543 176.648 338.638 177.928C340.733 179.248 342.654 180.761 344.225 182.72C344.38 182.895 344.342 183.166 344.148 183.322C344.051 183.399 343.934 183.419 343.818 183.419Z" fill="#000072"/>
<path d="M261.407 223.286C272.678 219.716 274.443 212.596 273.861 207.106C273.435 203.052 269.167 200.413 265.131 201.674L254.946 204.895L244.761 208.115C240.726 209.395 238.98 213.935 241.211 217.427C244.218 222.18 250.116 226.855 261.407 223.286Z" fill="#000072"/>
<path d="M263.715 219.134C264.821 221.695 265.849 224.275 266.877 226.875L266.974 227.127L267.052 227.437L267.11 227.67L267.265 228.33C267.343 228.737 267.42 229.164 267.479 229.571C267.595 230.386 267.673 231.201 267.731 232.016C267.808 233.645 267.711 235.294 267.42 236.943C267.265 237.758 267.129 238.592 266.858 239.388C266.625 240.202 266.392 241.017 266.024 241.774C265.694 242.55 265.345 243.345 264.879 244.063C264.413 244.781 264.025 245.557 263.463 246.178C262.92 246.818 262.415 247.516 261.814 248.118L259.971 249.825C259.35 250.387 258.652 250.795 257.973 251.26L256.964 251.939C256.615 252.153 256.265 252.308 255.897 252.502L253.763 253.569C253.045 253.879 252.308 254.093 251.59 254.364C250.135 254.908 248.68 255.334 247.167 255.625C245.673 255.955 244.102 256.13 242.491 256.227C240.881 256.285 239.213 256.169 237.544 255.819C235.876 255.47 234.188 254.849 232.675 253.879C231.162 252.929 229.92 251.59 229.028 250.135C228.155 248.661 227.65 247.07 227.495 245.499C227.359 243.927 227.495 242.336 228.116 240.881C229.92 243.384 231.569 245.343 233.276 246.682C235.003 247.962 236.633 248.797 238.708 249.01C242.782 249.456 247.982 247.633 251.92 245.44C253.84 244.257 255.606 242.918 256.789 241.192C257.992 239.504 258.826 237.603 259.234 235.488C259.447 234.441 259.505 233.335 259.525 232.229C259.525 231.666 259.505 231.123 259.447 230.58C259.428 230.308 259.389 230.056 259.35 229.785L259.292 229.435V229.397V229.416L259.311 229.474L259.234 229.241C258.438 226.661 257.643 224.081 256.944 221.481L263.715 219.134Z" fill="#000072"/>
<path d="M263.715 219.134C264.802 221.617 265.81 224.139 266.8 226.661C266.819 226.719 266.877 226.855 266.877 226.855C266.877 226.816 266.839 226.758 266.877 226.836L267.052 227.146C267.188 227.379 267.324 227.612 267.479 227.825C267.77 228.291 268.119 228.737 268.468 229.183C268.817 229.629 269.205 230.037 269.555 230.464C269.962 230.832 270.311 231.278 270.738 231.628C272.387 233.083 274.269 234.15 276.267 234.867C278.285 235.585 280.516 235.663 282.785 235.605C287.286 235.197 292.641 233.723 295.745 231.084C297.316 229.726 298.111 228.194 298.674 226.157C299.198 224.081 299.237 221.501 299.081 218.416C300.478 219.173 301.584 220.317 302.457 221.637C303.33 222.956 303.931 224.547 304.145 226.254C304.339 227.961 304.164 229.843 303.485 231.531C302.826 233.238 301.759 234.732 300.575 236.012C298.17 238.534 295.298 240.086 292.485 241.308C291.768 241.599 291.069 241.871 290.332 242.123L288.101 242.763C286.646 243.268 285.036 243.423 283.484 243.675C280.302 243.966 276.946 243.83 273.726 242.783C272.135 242.239 270.563 241.619 269.128 240.746C267.673 239.892 266.354 238.883 265.131 237.758C263.929 236.633 262.823 235.411 261.892 234.091C261.426 233.432 260.98 232.753 260.572 232.035C260.359 231.686 260.165 231.298 259.971 230.929L259.68 230.328C259.641 230.27 259.544 230.037 259.467 229.843C259.408 229.668 259.408 229.649 259.37 229.552C258.535 226.875 257.721 224.217 256.983 221.52L263.715 219.134Z" fill="#000072"/>
<path d="M384.732 165.512C384.402 165.183 351.675 133.037 317.822 126.189C316.037 125.82 314.815 124.171 314.989 122.367C315.164 120.563 316.658 119.166 318.481 119.127C319.684 119.088 323.234 118.564 324.883 116.508C325.873 115.286 326.125 113.54 325.659 111.192C325.155 108.67 323.739 107.138 321.197 106.401C315.959 104.868 308.257 107.429 305.134 110.669C303.892 111.949 301.914 112.124 300.478 111.076C299.042 110.028 298.596 108.088 299.411 106.517C299.586 106.187 303.64 98.0393 297.781 90.4151C296.928 89.2899 295.512 88.6691 294.018 88.7467C292.563 88.8049 291.302 89.5033 290.584 90.6285C288.178 94.4115 285.113 102.579 284.279 120.019C284.201 121.61 283.076 122.968 281.505 123.317C279.953 123.667 278.343 122.949 277.586 121.533C277.159 120.737 267.168 101.88 270.738 81.4717L277.761 82.6939C276.422 90.3181 277.314 97.8453 278.789 103.976C280.069 96.5843 282.009 90.8225 284.589 86.7679C286.549 83.7027 289.963 81.7627 293.727 81.6075C297.529 81.4329 301.176 83.1013 303.446 86.0501C307.365 91.1329 308.277 96.3515 308.063 100.6C313.01 98.7183 318.675 98.1945 323.215 99.5331C328.298 101.027 331.654 104.674 332.663 109.796C333.768 115.383 332.061 118.972 330.412 120.989C330.141 121.319 329.85 121.649 329.559 121.94C361.316 132.455 388.515 159.188 389.776 160.43L384.732 165.512Z" fill="#000072"/>
<path d="M126.189 247.264L119.127 246.372C119.34 244.645 124.19 207.785 142.95 181.207C142.523 181.149 142.097 181.071 141.67 180.955C139.09 180.315 135.481 178.491 132.823 173.37C130.418 168.733 130.767 163.922 133.793 159.79C136.684 155.871 141.592 153.155 146.578 151.836C143.784 148.576 141.282 143.94 141.204 137.693C141.146 134.104 142.931 130.69 145.938 128.594C149.1 126.383 153.135 125.878 156.744 127.256C161.303 129.002 166.405 132.435 172.031 137.538C169.315 131.892 165.318 125.549 159.576 120.349L164.368 115.073C180.082 129.312 184.001 150.07 184.156 150.963C184.447 152.534 183.632 154.125 182.196 154.804C180.741 155.502 179.015 155.133 177.967 153.931C166.23 140.428 158.567 135.598 154.222 133.929C152.825 133.406 151.273 133.6 150.051 134.453C148.945 135.229 148.343 136.374 148.343 137.615C148.479 147.102 156.996 151.331 157.345 151.506C158.936 152.282 159.731 154.125 159.188 155.813C158.645 157.5 156.918 158.529 155.192 158.218C150.536 157.384 142.698 159.731 139.575 163.999C138.158 165.92 138.042 167.86 139.187 170.072C140.351 172.303 141.747 173.602 143.435 174.029C146.578 174.805 150.148 172.477 150.186 172.458C151.68 171.429 153.698 171.682 154.901 173.059C156.084 174.437 156.065 176.474 154.842 177.812C132.086 202.528 126.247 246.818 126.189 247.264Z" fill="#000072"/>
<path d="M259.428 379.378C252.308 379.378 245.207 378.951 238.165 378.098C208.968 374.548 183.671 364.479 162.913 348.144C156.666 348.144 132.881 347.213 114.723 333.963C112.22 332.139 110.727 329.346 110.649 326.319C110.552 323.293 111.852 320.441 114.199 318.482C115.286 317.589 116.43 316.6 117.633 315.533C115.518 313.632 112.822 310.896 110.28 307.404C107.235 303.194 107.758 297.549 111.541 293.979C114.471 291.205 118.137 286.724 119.224 281.02C118.913 277.548 117.342 259.312 118.564 247.672C113.772 239.116 87.2138 187.958 94.2948 118.06C94.9932 111.057 98.8344 104.791 104.829 100.852C111.115 96.7007 118.894 95.6337 126.169 97.9229C143.202 103.277 167.937 113.637 190.48 132.746C195.194 129.991 206.291 124.21 224.702 118.371C243.035 112.57 255.509 110.863 261.057 110.358C267.032 82.2477 280.263 59.8989 290.506 45.9115C294.736 40.1303 301.351 36.5413 308.684 36.0563C316.173 35.5519 323.409 38.3261 328.55 43.6611C378.369 95.4979 389.446 151.564 391.018 161.128C399.36 169.742 409.7 185.32 411.582 188.211C416.141 192.246 421.98 193.74 426.132 194.302C431.273 195.001 435.153 199.152 435.386 204.196C435.58 208.484 435.133 212.247 434.629 214.983C436.375 215.157 438.005 215.312 439.518 215.409C442.661 215.642 445.474 217.233 447.258 219.774C448.946 222.219 449.451 225.226 448.616 228.058C442.467 248.991 424.153 263.308 419.012 266.994C412.707 291.923 398.817 314.427 377.69 333.905C359.532 350.647 337.241 363.528 313.224 371.153C295.919 376.604 277.644 379.378 259.428 379.378ZM164.271 340.171C165.182 340.171 166.055 340.481 166.773 341.044C186.561 356.971 210.908 366.768 239.135 370.202C288.237 376.158 336.775 360.793 372.258 328.046C392.609 309.267 405.859 287.597 411.601 263.638C411.834 262.648 412.435 261.795 413.289 261.232C413.502 261.096 434.765 246.857 440.953 225.808C441.147 225.148 440.915 224.644 440.701 224.314C440.313 223.751 439.673 223.402 438.936 223.344C436.065 223.131 432.786 222.801 429.197 222.374C428.014 222.219 426.947 221.559 426.306 220.531C425.666 219.522 425.53 218.261 425.899 217.136C425.918 217.097 427.684 211.665 427.373 204.526C427.315 203.343 426.326 202.353 425.026 202.179C419.633 201.461 411.892 199.404 405.762 193.72C405.51 193.487 405.296 193.235 405.122 192.964C405.005 192.77 392.938 174.223 384.422 165.823C383.801 165.202 383.394 164.407 383.277 163.534C383.2 162.932 374.392 102.889 322.749 49.1513C319.257 45.5041 314.291 43.6223 309.169 43.9715C304.203 44.3013 299.721 46.7263 296.889 50.5869C286.782 64.4191 273.59 86.7873 268.235 114.859C267.886 116.702 266.276 118.06 264.394 118.099C264.258 118.099 250.717 118.468 227.088 125.956C203.478 133.444 192.42 140.875 192.304 140.952C190.81 141.98 188.792 141.864 187.434 140.661C165.357 121.222 140.622 110.824 123.763 105.528C118.797 103.956 113.481 104.694 109.194 107.507C105.217 110.126 102.656 114.277 102.191 118.875C94.8574 191.256 125.762 244.296 126.072 244.82C126.518 245.596 126.712 246.488 126.596 247.361C125.083 258.924 127.158 280.593 127.178 280.826C127.217 281.175 127.197 281.505 127.139 281.854C125.82 289.983 120.892 296.094 116.993 299.799C116.139 300.614 116.023 301.836 116.702 302.768C121.009 308.704 125.897 312.06 125.956 312.099C126.964 312.778 127.605 313.884 127.702 315.087C127.799 316.289 127.333 317.492 126.441 318.307C123.86 320.713 121.435 322.847 119.263 324.651C118.642 325.175 118.564 325.795 118.584 326.106C118.603 326.436 118.719 327.076 119.398 327.58C137.828 341.024 163.844 340.229 164.115 340.21C164.174 340.171 164.212 340.171 164.271 340.171Z" fill="#000072"/>
<path d="M168.422 456.183C160.759 466.989 152.883 475.408 144.967 481.771C128.536 494.983 111.929 499.406 96.8554 498.164C82.4218 496.962 69.3462 490.56 59.1612 481.713C42.8652 467.59 33.8636 447.201 38.1704 431.797C43.7964 411.602 61.043 413.231 73.1292 417.266C79.667 419.439 85.6035 423.067 90.7639 427.626C93.5381 430.07 96.2152 432.166 98.7954 433.989C108.845 441.128 117.458 443.903 124.772 443.903C130.029 443.883 134.588 442.467 138.565 440.178C153.911 431.331 160.022 409.797 160.022 409.797L168.422 456.183Z" fill="#8E8FB3"/>
<path d="M96.8558 498.164C82.4222 496.962 69.3466 490.56 59.1616 481.713C92.8982 478.726 98.4466 450.402 98.7764 433.989C108.826 441.128 117.439 443.903 124.753 443.903C130.34 479.308 100.755 496.108 96.8558 498.164Z" fill="#8E8FB3"/>
<path d="M168.422 456.183C160.759 466.989 152.883 475.408 144.968 481.771C147.917 461.828 143.067 448.112 138.546 440.158C153.892 431.312 160.003 409.778 160.003 409.778L168.422 456.183Z" fill="#8E8FB3"/>
<g opacity="0.3">
<path d="M144.948 460.878C128.516 474.089 111.91 478.512 96.8361 477.271C82.4025 476.068 69.3269 469.666 59.1419 460.82C49.0539 452.07 41.7595 440.915 38.6943 430.032C38.5003 430.614 38.3257 431.196 38.1511 431.817C33.8637 447.22 42.8653 467.61 59.1419 481.733C69.3269 490.579 82.4025 496.981 96.8361 498.184C111.91 499.426 128.497 495.002 144.948 481.791C152.863 475.428 160.759 467.008 168.403 456.202L165.357 439.441C158.683 448.268 151.835 455.329 144.948 460.878Z" fill="#000072"/>
</g>
<g opacity="0.5">
<path d="M70.1226 426.229C76.6604 428.402 82.5968 432.03 87.7572 436.589C90.5314 439.033 93.2086 441.128 95.7888 442.952C105.838 450.091 114.452 452.865 121.765 452.865C127.023 452.846 131.582 451.43 135.559 449.141C150.904 440.294 157.015 418.76 157.015 418.76L164.717 461.188C165.959 459.578 167.2 457.929 168.422 456.183L160.003 409.797C160.003 409.797 153.892 431.331 138.546 440.178C134.589 442.467 130.01 443.903 124.753 443.903C117.439 443.922 108.826 441.148 98.7764 433.989C96.1962 432.166 93.519 430.051 90.7448 427.626C85.565 423.086 79.648 419.439 73.1102 417.266C61.024 413.231 43.7774 411.602 38.1514 431.797C37.8798 432.748 37.6664 433.737 37.5112 434.726C44.6504 420.972 59.4138 422.64 70.1226 426.229Z" fill="white"/>
</g>
<path d="M101.725 502.355C92.122 502.355 82.5578 500.163 73.4204 495.817C46.0276 482.78 28.1214 452.982 34.31 430.73C36.5798 422.601 40.7896 416.859 46.823 413.639C53.9816 409.836 63.2548 409.778 74.371 413.483C81.1222 415.734 87.5242 419.478 93.383 424.619C107.836 437.287 120.582 442.118 131.31 438.975C148.789 433.834 156.103 408.963 156.161 408.711C156.666 406.926 158.354 405.743 160.197 405.82C162.04 405.917 163.592 407.256 163.921 409.08L172.341 455.465C172.535 456.513 172.283 457.599 171.681 458.472C156.491 479.928 139.4 493.703 120.873 499.426C114.548 501.385 108.127 502.355 101.725 502.355ZM59.3166 418.741C56.232 418.741 53.2056 419.284 50.5672 420.681C46.532 422.834 43.6414 426.928 41.9924 432.864C36.8514 451.294 53.1474 477.348 76.8348 488.62C91.0356 495.371 127.799 505.517 164.174 455.232L158.451 423.688C153.795 432.398 145.841 442.971 133.56 446.599C120.039 450.596 104.751 445.202 88.1062 430.594C83.0428 426.152 77.572 422.931 71.8296 421.03C68.2212 419.827 63.7204 418.741 59.3166 418.741Z" fill="#000072"/>
<path d="M165.435 478.066C165.435 478.066 219.599 604.379 373.189 587.754C373.189 587.754 582.418 571.749 536.421 347.349L165.435 478.066Z" fill="#DDDDED"/>
<g opacity="0.3">
<path d="M536.421 347.329L533.783 348.261C564.57 554.715 367.214 569.828 367.214 569.828C248.971 582.632 189.665 510.716 168.636 476.941L165.454 478.066C165.454 478.066 219.619 604.379 373.209 587.754C373.189 587.734 582.418 571.749 536.421 347.329Z" fill="#000072"/>
</g>
<path d="M345.932 593.224C320.635 593.224 296.734 589.267 274.598 581.371C250.504 572.796 228.446 559.565 209.065 542.086C176.066 512.346 162.35 480.937 161.787 479.618C161.361 478.609 161.361 477.465 161.807 476.456C162.253 475.447 163.087 474.671 164.135 474.302L535.121 343.585C536.207 343.197 537.41 343.314 538.4 343.876C539.408 344.439 540.107 345.409 540.34 346.534C554.831 417.286 545.752 474.962 513.315 517.972C487.203 552.581 450.595 570.798 424.463 579.974C396.721 589.713 375.168 591.595 373.558 591.711C364.188 592.72 354.973 593.224 345.932 593.224ZM170.964 480.336C175.658 489.551 189.413 513.743 214.652 536.402C257.177 574.6 310.391 590.528 372.782 583.777C372.821 583.777 372.859 583.777 372.898 583.757C373.112 583.738 394.781 581.972 422.077 572.35C447.103 563.523 482.14 546.082 507.01 513.102C537.294 472.925 546.179 418.935 533.433 352.606L170.964 480.336Z" fill="#000072"/>
<path d="M383.084 535.698C488.496 506.528 557.158 422.198 536.444 347.342C515.73 272.485 413.484 235.449 308.071 264.618C202.659 293.788 133.997 378.117 154.711 452.974C175.425 527.83 277.671 564.867 383.084 535.698Z" fill="#DDDDED"/>
<g opacity="0.3">
<path d="M176.609 445.784C176.609 445.784 149.856 374.645 240.086 315.145C330.315 255.645 401.339 272.057 452.108 287.422C502.878 302.787 516.187 371.909 516.187 371.909C516.187 371.909 334.544 196.3 176.609 445.784Z" fill="#000072"/>
</g>
<path d="M516.497 372.918C516.943 430.827 459.5 490.695 376.895 513.549C284.492 539.118 195.311 508.796 176.628 445.784C176.803 387.138 232.151 326.727 312.758 302.69C405.49 275.064 496.593 306.046 516.206 371.89C516.303 372.239 516.4 372.588 516.497 372.918Z" fill="#AF6338"/>
<g opacity="0.15">
<path d="M352.515 429.463C416.324 409.579 459.735 366.776 449.478 333.859C439.22 300.942 379.178 290.377 315.37 310.26C251.562 330.144 208.15 372.947 218.408 405.864C228.665 438.781 288.707 449.346 352.515 429.463Z" fill="white"/>
</g>
<g opacity="0.2">
<path d="M516.187 371.89C514.188 365.197 511.434 358.853 508.039 352.897C502.374 407.625 446.851 462.119 368.921 483.673C286.626 506.448 206.873 484.875 177.23 435.367C176.842 438.839 176.628 442.292 176.628 445.765C195.311 508.776 284.492 539.098 376.895 513.529C459.5 490.676 516.943 430.827 516.497 372.899C516.4 372.588 516.303 372.239 516.187 371.89Z" fill="#000072"/>
</g>
<g opacity="0.7">
<path d="M311.031 274.56C413.056 246.333 512.112 280.108 537.158 350.181C536.925 349.231 536.692 348.28 536.421 347.329C515.701 272.465 413.463 235.43 308.044 264.608C202.624 293.785 133.968 378.098 154.687 452.962C155.346 455.368 156.103 457.735 156.937 460.063C138.721 385.935 206.97 303.369 311.031 274.56Z" fill="white"/>
</g>
<g opacity="0.3">
<path d="M536.421 347.329C535.043 342.344 533.278 337.513 531.202 332.876C540.883 404.133 474.244 480.375 375.09 507.826C276.713 535.044 181.09 504.605 151.932 439.557C152.534 444.058 153.445 448.539 154.668 452.982C175.406 527.827 277.644 564.862 383.064 535.684C488.483 506.526 557.14 422.194 536.421 347.329Z" fill="#000072"/>
</g>
<path d="M336.736 275.705C345.234 273.92 353.828 272.659 362.5 271.825C364.672 271.65 366.826 271.398 368.999 271.281L375.517 270.932L382.055 270.835C384.228 270.816 386.42 270.893 388.593 270.913C406.033 271.398 423.532 273.978 440.332 279.294C448.733 281.932 456.939 285.288 464.757 289.42C472.575 293.553 480.064 298.441 486.854 304.242C493.624 310.043 499.793 316.658 504.837 324.108C509.881 331.557 513.82 339.763 516.439 348.416C519.077 357.049 520.26 366.108 520.125 375.129C519.989 384.15 518.456 393.094 515.895 401.649C513.335 410.224 509.707 418.43 505.342 426.171C500.977 433.912 495.855 441.186 490.19 447.976C484.526 454.766 478.337 461.091 471.78 466.95C470.111 468.385 468.521 469.898 466.794 471.276L461.672 475.427L456.396 479.385C454.65 480.704 452.807 481.907 451.002 483.187C436.491 493.12 420.855 501.288 404.598 507.845C388.302 514.324 371.385 519.233 354.119 522.317C336.853 525.441 319.238 526.74 301.681 526.023C292.892 525.615 284.124 524.742 275.432 523.268C266.741 521.813 258.147 519.679 249.747 516.943C241.347 514.208 233.121 510.794 225.283 506.642C217.446 502.471 209.938 497.543 203.167 491.723C196.377 485.903 190.247 479.249 185.203 471.8C180.14 464.369 176.182 456.163 173.582 447.55C172.205 443.262 171.274 438.839 170.653 434.377C170.304 432.146 170.149 429.915 169.955 427.665C169.858 425.414 169.741 423.164 169.819 420.933C169.819 418.683 170.013 416.451 170.168 414.22C170.42 411.989 170.614 409.759 171.022 407.566C171.701 403.143 172.748 398.797 174.029 394.529C176.609 385.993 180.314 377.884 184.66 370.202C189.141 362.597 194.243 355.38 199.986 348.745C205.728 342.13 211.917 335.903 218.61 330.316C225.283 324.69 232.267 319.49 239.62 314.873C239.892 314.699 240.241 314.795 240.396 315.048C240.551 315.3 240.493 315.63 240.26 315.804C233.412 321.062 226.797 326.571 220.608 332.547C214.439 338.502 208.638 344.846 203.4 351.578C192.905 364.983 184.466 380.077 180.004 396.295C175.445 412.416 175.193 429.702 180.217 445.551C182.681 453.467 186.386 460.975 191.101 467.803C195.815 474.632 201.538 480.782 207.92 486.156C220.724 496.923 235.992 504.721 252.036 509.959C268.099 515.256 285.035 517.933 301.991 518.786C318.985 519.543 336.077 518.36 352.877 515.372C369.678 512.423 386.168 507.728 402.037 501.482C409.971 498.358 417.712 494.73 425.259 490.812L430.865 487.746L436.355 484.487C438.198 483.42 439.964 482.237 441.768 481.092L444.445 479.366C445.338 478.784 446.191 478.163 447.064 477.542C448.791 476.301 450.576 475.137 452.263 473.856L457.346 469.995L462.274 465.96C463.942 464.641 465.475 463.167 467.066 461.77C473.371 456.086 479.288 449.994 484.681 443.456C495.467 430.458 504.061 415.578 508.873 399.573C511.259 391.581 512.656 383.297 512.772 375.013C512.908 366.729 511.724 358.465 509.435 350.511C507.107 342.576 503.557 335.01 498.959 328.085C494.361 321.159 488.697 314.951 482.392 309.441C476.067 303.951 469.122 299.14 461.731 295.066C454.339 290.992 446.54 287.597 438.509 284.803C422.426 279.255 405.49 276.151 388.399 274.929C379.843 274.327 371.249 274.211 362.655 274.56C354.061 274.909 345.466 275.724 336.911 276.849C336.601 276.888 336.31 276.675 336.271 276.364C336.251 276.034 336.465 275.763 336.736 275.705Z" fill="#000072"/>
<path d="M311.128 549.672C284.511 549.672 258.903 545.462 235.759 537.081C191.372 520.998 161.224 491.51 150.845 454.03C140.466 416.549 151.175 375.75 180.974 339.143C210.462 302.923 255.198 275.103 306.977 260.767C358.755 246.43 411.446 247.303 455.348 263.211C499.735 279.294 529.883 308.782 540.262 346.262C550.641 383.743 539.932 424.541 510.133 461.149C480.645 497.369 435.909 525.189 384.13 539.525C359.667 546.296 334.99 549.672 311.128 549.672ZM379.824 258.633C357.067 258.633 333.167 261.775 309.111 268.449C205.98 296.986 138.429 379.281 158.528 451.915C173.931 507.593 236.477 541.659 311.303 541.679C334.059 541.679 357.96 538.536 382.016 531.862C485.146 503.325 552.697 421.03 532.599 348.396C517.176 292.718 454.63 258.633 379.824 258.633Z" fill="#000072"/>
<path d="M190.577 570.139C190.577 570.139 222.218 587.793 252.676 567.52C252.676 567.52 269.302 575.842 290.312 582.108C290.312 582.108 232.248 629.658 190.577 570.139Z" fill="#000072"/>
<path d="M241.793 604.088C239.057 604.088 236.264 603.914 233.451 603.526C215.545 601.062 200.025 590.605 187.298 572.428C186.231 570.914 186.367 568.858 187.609 567.481C188.85 566.103 190.887 565.773 192.497 566.666C193.758 567.364 222.49 582.826 250.445 564.221C251.629 563.426 253.161 563.329 254.442 563.969C254.597 564.047 271.029 572.214 291.437 578.306C292.854 578.733 293.921 579.897 294.212 581.332C294.503 582.768 293.979 584.262 292.834 585.193C291.806 586.046 269.418 604.088 241.793 604.088ZM203.129 579.082C212.421 588.471 222.936 594.02 234.498 595.611C253.957 598.307 272.134 589.228 281.388 583.447C267.925 578.927 257.255 574.115 252.948 572.078C234.227 583.621 215.506 582.263 203.129 579.082Z" fill="#000072"/>
<path d="M290.293 582.128C289.439 583.427 256.653 632.102 198.511 613.633C180.838 608.027 166.191 595.397 158.605 578.48C149.604 558.382 145.685 527.4 173.117 489.221C173.117 489.221 178.646 496.981 189.16 506.06C194.166 510.386 200.315 515.023 207.513 519.252C207.513 519.252 179.926 529.806 188.889 564.997C198.899 604.321 261.988 607.755 289.594 582.748C289.788 582.574 289.943 582.419 290.137 582.244C290.176 582.205 290.215 582.166 290.234 582.147L290.293 582.128Z" fill="#DDDDED"/>
<g opacity="0.3">
<path d="M289.594 582.787C284.027 587.889 246.798 620.093 207.765 605.407C184.136 596.522 169.392 573.068 170.246 547.828C170.711 534.19 175.154 518.748 189.161 506.099C194.166 510.425 200.316 515.062 207.513 519.291C207.513 519.291 179.926 529.844 188.889 565.036C198.899 604.34 261.988 607.794 289.594 582.787Z" fill="#000072"/>
</g>
<path d="M224.216 621.781C215.971 621.781 206.989 620.52 197.309 617.436C178.335 611.402 162.912 597.803 154.978 580.11C145.84 559.759 141.029 527.051 169.877 486.912C170.634 485.865 171.836 485.263 173.117 485.263C174.397 485.263 175.6 485.884 176.357 486.932C176.473 487.087 188.268 503.364 209.531 515.857C210.85 516.633 211.606 518.088 211.49 519.621C211.374 521.134 210.384 522.453 208.968 522.996C207.979 523.384 184.834 532.871 192.769 564.047C196.164 577.394 206.873 587.307 222.917 591.963C245.634 598.54 272.833 593.186 287.596 579.237C289.071 577.86 291.34 577.782 292.892 579.082C294.444 580.382 294.774 582.632 293.668 584.32C293.319 584.863 284.803 597.706 268.72 608.259C258.263 615.069 243.209 621.781 224.216 621.781ZM173.35 495.895C150.05 530.95 154.299 559.139 162.253 576.851C169.256 592.468 182.914 604.496 199.714 609.831C222.858 617.183 244.509 614.448 264.064 601.722C265.48 600.81 266.838 599.859 268.119 598.909C253.219 603.526 235.992 604.03 220.666 599.588C201.79 594.117 189.141 582.186 185.009 565.987C178.141 539.04 191.314 525.053 199.753 519.116C186.794 510.542 177.889 501.23 173.35 495.895Z" fill="#000072"/>
<path d="M174.96 404.074C141.631 414.356 151.874 440.314 152.126 440.954C131.737 429.682 122.405 413.192 120.621 396.159C117.885 370.202 132.687 342.906 152.592 330.684C165.085 323.002 179.616 321.275 193.06 329.52C232.83 353.964 208.735 393.676 174.96 404.074Z" fill="white"/>
<path d="M156.278 366.108C146.636 386.071 128.672 384.247 120.64 396.159C117.905 370.202 132.707 342.906 152.611 330.684C157.966 337.901 163.805 350.53 156.278 366.108Z" fill="#8E8FB3"/>
<g opacity="0.3">
<path d="M193.06 329.52C189.918 327.6 186.717 326.222 183.496 325.33C206.078 345.836 189.433 379.184 162.389 392.57C131.136 408.051 145.414 432.049 145.763 432.631C141.864 431.234 138.294 429.624 135.016 427.82C139.536 432.689 145.201 437.132 152.146 440.973C151.894 440.333 141.65 414.356 174.98 404.094C208.736 393.676 232.83 353.964 193.06 329.52Z" fill="#000072"/>
</g>
<g opacity="0.5">
<path d="M125.606 402.134C122.871 376.177 137.673 348.881 157.578 336.659C170.071 328.977 184.602 327.25 198.046 335.495C202.139 337.998 205.534 340.675 208.328 343.469C204.991 338.522 200.005 333.788 193.06 329.52C179.616 321.275 165.105 323.002 152.592 330.684C132.687 342.906 117.905 370.202 120.621 396.159C121.823 407.625 126.441 418.838 135.539 428.383C129.7 420.273 126.557 411.291 125.606 402.134Z" fill="white"/>
</g>
<path d="M193.409 394.219L191.489 391.658C190.79 390.747 190.073 389.854 189.335 388.962C187.861 387.157 186.251 385.411 184.447 383.84C182.662 382.249 180.722 380.775 178.607 379.533C176.512 378.195 174.223 377.186 171.817 376.177H171.798C171.662 376.119 171.584 375.944 171.643 375.808C171.681 375.692 171.798 375.634 171.895 375.634C174.494 375.614 177.191 375.77 179.81 376.429C181.149 376.682 182.41 377.147 183.729 377.554C184.369 377.787 184.99 378.059 185.63 378.311C186.27 378.563 186.891 378.854 187.512 379.165C189.976 380.387 192.362 381.861 194.515 383.646C195.058 384.092 195.563 384.577 196.087 385.043C196.591 385.547 197.076 386.032 197.561 386.556C198.027 387.099 198.492 387.623 198.919 388.205C199.132 388.477 199.346 388.787 199.559 389.097C199.656 389.253 199.773 389.408 199.87 389.582L200.199 390.145C201.325 392.027 200.704 394.471 198.822 395.596C197.057 396.644 194.806 396.179 193.603 394.568L193.409 394.219Z" fill="#000072"/>
<path d="M210.617 364.576C210.598 364.576 210.482 364.479 210.404 364.421L210.132 364.188L209.55 363.683L208.348 362.655C207.533 361.976 206.699 361.297 205.826 360.638C204.099 359.319 202.334 357.999 200.432 356.777C198.551 355.574 196.591 354.372 194.515 353.246C194.011 352.955 193.487 352.645 192.944 352.393L191.334 351.539C190.267 350.938 189.142 350.453 188.016 349.754C187.958 349.716 187.939 349.638 187.978 349.56C187.997 349.522 188.036 349.502 188.055 349.502C190.577 348.901 193.177 348.687 195.757 348.901C198.357 349.037 200.918 349.638 203.42 350.453C205.923 351.287 208.309 352.451 210.559 353.906C211.684 354.624 212.732 355.458 213.78 356.331C214.284 356.797 214.789 357.223 215.254 357.747C215.487 357.999 215.739 358.252 215.972 358.523L216.321 358.95L216.709 359.454C217.64 360.657 217.408 362.364 216.205 363.295C215.836 363.586 215.429 363.761 215.002 363.819L210.617 364.576Z" fill="#000072"/>
<path d="M152.146 444.95C151.486 444.95 150.826 444.795 150.225 444.446C128.439 432.398 116.392 413.095 116.333 390.126C116.256 364.867 131.427 337.979 152.398 326.183C166.832 318.074 182.002 318.055 195.156 326.125C211.432 336.116 219.347 349.91 217.446 364.964C215.099 383.472 198.124 401.126 176.163 407.877C166.094 410.981 159.44 415.831 156.375 422.33C152.359 430.827 155.793 439.363 155.832 439.441C156.472 441.012 156.065 442.797 154.804 443.922C154.047 444.601 153.096 444.95 152.146 444.95ZM174.32 328.046C167.317 328.046 161.07 330.451 156.278 333.148C137.654 343.605 124.19 367.564 124.268 390.106C124.307 402.639 128.42 419.556 146.5 432.689C146.326 428.674 146.849 423.824 149.158 418.935C153.213 410.341 161.496 404.055 173.796 400.272C192.556 394.491 207.591 379.223 209.512 363.955C211.025 352.024 204.603 341.296 190.965 332.915C185.184 329.365 179.539 328.046 174.32 328.046Z" fill="#000072"/>
<path d="M395.829 440.372C382.036 448.19 375.149 463.38 376.778 477.697C369.251 465.301 354.332 457.094 338.444 458.802C292.291 459.888 252.036 459.481 238.689 409.215C229.125 345.118 308.083 317.783 339.86 370.105C332.992 309.79 413.173 286.006 445.124 342.925C465.514 390.921 433.504 414.55 395.829 440.372Z" fill="#BE9577"/>
<path d="M374.043 469.724C370.415 435.638 417.557 413.6 435.269 379.126C439.964 369.969 440.061 357.184 434.571 346.204C415.384 307.811 346.165 321.081 339.879 370.105C304.552 334.467 240.881 363.858 249.223 405.723C251.609 417.712 259.583 427.897 269.011 432.515C304.474 449.916 355.884 440.294 374.043 469.724Z" fill="#FDFFFE"/>
<path d="M344.651 386.556C336.62 381.008 328.763 377.826 321.352 376.72C313.922 375.498 306.938 376.235 300.439 378.272C293.998 380.445 287.965 383.879 282.882 389.001C280.379 391.581 278.051 394.568 276.499 398.216C275.723 400 275.122 402.037 275.044 403.861C274.986 404.773 275.064 405.549 275.18 406.034C275.296 406.519 275.413 406.81 275.743 407.353C276.072 407.896 276.654 408.575 277.333 409.215C277.974 409.856 278.963 410.535 279.817 411.194C281.582 412.455 283.367 413.483 285.249 414.356C288.993 416.18 292.815 417.46 296.636 418.683C304.299 421.088 312.001 422.912 319.781 425.24C327.56 427.451 335.436 430.012 343.449 433.601C347.464 435.502 351.519 437.559 355.593 440.333C359.648 443.088 363.76 446.444 367.563 450.964C363.586 447.414 359.628 445.067 355.709 443.204C351.791 441.381 347.93 439.984 344.089 438.897C336.406 436.608 328.84 435.25 321.236 433.795C313.65 432.437 306.045 431.079 298.208 429.042C294.289 427.995 290.293 426.753 286.102 424.852C284.026 423.921 281.815 422.698 279.584 421.127C278.459 420.273 277.43 419.614 276.111 418.372C274.831 417.169 273.453 415.695 272.095 413.522C270.737 411.388 269.476 408.401 268.875 405.626C268.254 402.852 268.177 400.485 268.293 398.545C268.409 396.586 268.739 394.995 269.127 393.579C269.515 392.143 269.981 390.902 270.505 389.757C272.6 385.256 275.258 382.055 278.129 379.417C283.891 374.218 290.525 371.094 297.665 369.756C304.784 368.359 312.467 368.825 320.46 371.385C328.433 374.024 336.756 378.874 344.651 386.556Z" fill="#FCC59C"/>
<path d="M345.408 386.304C346.98 375.595 350.666 366.884 355.399 360.133C360.21 353.46 366.089 348.629 372.665 345.641C379.222 342.576 386.439 341.238 394.277 342.072C398.215 342.537 402.308 343.566 406.77 345.952C407.896 346.553 409.04 347.29 410.243 348.222C411.426 349.133 412.668 350.22 413.987 351.714C415.287 353.188 416.684 355.128 417.906 357.708C419.128 360.269 419.962 363.392 420.195 365.895C420.447 368.436 420.253 370.415 419.982 372.103C419.691 373.868 419.283 374.974 418.895 376.313C418.081 378.854 417.072 381.124 415.966 383.064C413.774 387.002 411.349 390.32 408.846 393.424C403.822 399.593 398.564 405.102 393.326 410.573C388.146 416.141 382.928 421.612 378.175 427.878C375.769 430.963 373.519 434.319 371.521 438.044C369.542 441.788 367.815 445.978 366.826 451.119C367.059 445.299 368.3 440.216 369.833 435.677C371.385 431.118 373.364 427.121 375.401 423.261C379.61 415.734 384.344 409.138 389.213 402.852C394.025 396.489 399.069 390.572 403.725 384.209C406.053 381.027 408.322 377.787 410.185 374.159C411.155 372.375 411.95 370.512 412.59 368.475C412.881 367.447 413.25 366.322 413.366 365.449C413.522 364.537 413.56 363.664 413.483 363.043C413.405 362.403 413.328 362.112 413.114 361.666C412.901 361.22 412.493 360.541 411.892 359.842C410.689 358.426 408.963 357.146 407.236 356.156C403.725 354.139 400.019 353.072 396.411 352.47C389.175 351.306 382.229 352.043 375.711 354.022C369.251 356.156 363.179 359.609 357.999 364.886C352.741 370.124 348.415 377.225 345.408 386.304Z" fill="#FCC59C"/>
<path d="M348.745 397.284C346.592 396.101 344.438 394.956 342.188 394.064C341.082 393.579 339.938 393.191 338.793 392.783C337.629 392.454 336.504 392.066 335.32 391.833C332.992 391.251 330.626 390.921 328.259 390.863C325.911 390.785 323.545 390.96 321.294 391.484C319.044 392.007 316.89 392.842 315.028 394.064C313.166 395.267 311.711 396.954 310.993 398.856C310.624 399.806 310.527 400.796 310.547 401.785C310.644 402.774 310.876 403.783 311.342 404.714C312.215 406.635 313.786 408.284 315.513 409.739L315.397 409.642C319.083 412.145 323.215 414.123 327.347 416.063C331.499 418.003 335.767 419.769 339.996 421.689C344.225 423.571 348.454 425.55 352.489 427.936C354.488 429.158 356.466 430.439 358.232 431.991C359.124 432.747 359.939 433.601 360.696 434.513C361.413 435.444 362.034 436.453 362.5 437.52C361.297 435.522 359.551 434.008 357.689 432.709C355.807 431.428 353.809 430.322 351.733 429.333C347.62 427.335 343.313 425.725 339.026 424.037C334.719 422.407 330.393 420.719 326.105 418.896C321.818 417.053 317.589 415.016 313.573 412.377L313.515 412.339L313.457 412.28C311.439 410.631 309.577 408.614 308.413 406.053C307.811 404.792 307.462 403.376 307.346 401.94C307.307 400.505 307.501 399.03 308.044 397.692C309.15 395.014 311.187 392.958 313.457 391.581C315.726 390.184 318.248 389.33 320.79 388.903C325.873 388.03 331.033 388.651 335.767 390.242C338.133 391.037 340.423 392.027 342.576 393.23C344.788 394.374 346.805 395.81 348.745 397.284Z" fill="#FCC59C"/>
<path d="M348.745 397.284C349.405 394.937 350.142 392.589 351.209 390.378C351.675 389.233 352.315 388.186 352.877 387.08C353.537 386.032 354.158 384.946 354.895 383.956C357.786 379.921 361.627 376.429 366.263 374.237C368.572 373.131 371.113 372.413 373.771 372.258C376.41 372.122 379.223 372.588 381.648 374.082C382.87 374.819 383.879 375.867 384.732 377.011C385.101 377.632 385.508 378.214 385.741 378.893C385.877 379.223 386.032 379.533 386.129 379.882L386.401 380.891C387.06 383.607 386.827 386.343 386.207 388.865L386.187 388.962L386.168 389.02C384.577 393.462 382.443 397.556 380.134 401.513C377.826 405.471 375.381 409.312 372.937 413.115C370.531 416.956 368.087 420.739 366.031 424.735C364.983 426.714 364.071 428.77 363.353 430.885C362.655 433 362.209 435.231 362.48 437.5C362.189 436.395 362.054 435.25 362.073 434.086C362.112 432.941 362.247 431.777 362.5 430.652C362.965 428.382 363.741 426.21 364.595 424.076C366.36 419.827 368.533 415.792 370.764 411.834C372.976 407.857 375.304 403.977 377.438 400.02C379.552 396.062 381.648 392.085 383.044 387.953L383.006 388.108C383.491 385.916 383.723 383.665 383.219 381.648L383.025 380.891C382.947 380.639 382.831 380.426 382.753 380.173C382.598 379.688 382.288 379.281 382.055 378.835C381.454 378.039 380.775 377.283 379.921 376.759C378.233 375.634 376.06 375.168 373.868 375.188C371.657 375.246 369.426 375.789 367.292 376.643C365.158 377.496 363.159 378.699 361.297 380.115C359.415 381.512 357.708 383.18 356.175 384.985C355.361 385.858 354.682 386.828 353.944 387.778C353.285 388.787 352.586 389.757 352.004 390.805C350.782 392.88 349.754 395.073 348.745 397.284Z" fill="#FCC59C"/>
<path d="M294.813 391.212C293.688 393.327 293.009 395.5 293.067 397.478C293.106 399.457 293.901 401.242 295.124 402.872C296.326 404.521 297.956 405.995 299.663 407.431C301.37 408.886 303.233 410.263 305.057 411.873C302.651 411.524 300.381 410.729 298.208 409.603C296.074 408.459 294.018 406.946 292.447 404.831C291.671 403.783 291.03 402.581 290.662 401.261C290.293 399.942 290.215 398.526 290.468 397.207C291.011 394.549 292.679 392.376 294.813 391.212Z" fill="#FCC59C"/>
<path d="M444.406 322.264C446.249 322.769 448.034 323.506 449.741 324.36C451.448 325.213 453.117 326.203 454.708 327.308C457.909 329.501 460.799 332.178 463.36 335.204C468.462 341.257 471.935 348.92 473.041 356.913C473.254 358.911 473.487 360.929 473.467 362.927C473.526 364.944 473.312 366.923 473.157 368.902L472.691 371.831C472.614 372.316 472.556 372.801 472.439 373.286L472.071 374.722C471.818 375.673 471.605 376.623 471.333 377.574L470.383 380.348C467.744 387.662 463.748 394.316 458.568 399.884C459.053 398.021 459.577 396.237 460.159 394.471C460.644 392.667 461.168 390.902 461.672 389.156L462.332 386.498C462.545 385.605 462.836 384.771 462.991 383.879C463.321 382.113 463.826 380.387 464.078 378.641L464.543 376.041L464.873 373.442L465.028 372.142L465.125 370.842L465.319 368.262C465.3 366.555 465.436 364.828 465.281 363.14C465.261 361.433 465.028 359.765 464.834 358.077C463.903 351.403 461.595 344.982 458.083 338.987C456.337 335.98 454.3 333.09 451.992 330.315C449.702 327.522 447.18 324.845 444.406 322.264Z" fill="#BE9577"/>
<path d="M224.216 392.958C222.897 400.427 222.645 407.663 223.576 414.57C224.488 421.476 226.777 427.917 230.192 433.795L231.53 435.968C231.976 436.686 232.52 437.365 233.005 438.063L233.742 439.111L234.557 440.119C235.1 440.779 235.624 441.477 236.186 442.137C237.35 443.437 238.475 444.756 239.736 445.978C240.939 447.259 242.258 448.442 243.558 449.664C244.839 450.906 246.274 451.992 247.613 453.195L251.881 456.609C253.355 457.696 254.83 458.821 256.323 459.966C257.856 461.033 259.35 462.158 260.863 463.361C253.355 461.964 246.158 459.054 239.601 454.844L237.176 453.214C236.361 452.671 235.624 452.012 234.848 451.41C233.257 450.246 231.86 448.83 230.424 447.472C229.707 446.793 229.066 446.017 228.407 445.28L227.417 444.155L226.486 442.971C225.885 442.156 225.264 441.38 224.701 440.546L223.072 438.005C222.102 436.239 221.132 434.455 220.375 432.573C219.968 431.642 219.638 430.691 219.308 429.721L218.823 428.285C218.687 427.8 218.571 427.296 218.435 426.811C217.426 422.892 216.98 418.857 217.097 414.88C217.232 410.903 217.873 406.984 219.075 403.279C220.278 399.573 221.888 396.023 224.216 392.958Z" fill="#BE9577"/>
</svg>
