<svg width="626" height="599" viewBox="0 0 626 599" fill="none" xmlns="http://www.w3.org/2000/svg">
<ellipse cx="313" cy="299.5" rx="313" ry="299.5" fill="#B0A2D7"/>
<path d="M537.482 202.442C534.645 202.42 531.829 202.293 529.035 202.103C529.014 202.103 529.014 202.103 529.014 202.103C496.897 199.984 467.003 189.751 452.945 228.522L416.171 215.979C423.835 189.412 449.389 173.375 494.039 174.01C503.079 174.01 511.378 172.442 517.708 168.735C527.765 162.845 529.31 148.926 521.201 140.579C501.237 120.007 500.686 81.131 539.049 72.7202C549.888 70.3474 561.215 71.1101 571.652 74.8388C635.801 97.8255 611.56 202.993 537.482 202.442Z" fill="#FF1FB4"/>
<path d="M453.221 229.115L415.578 216.276L415.705 215.831C423.877 187.548 450.976 172.93 494.039 173.502C503.672 173.502 511.547 171.743 517.454 168.29C522.006 165.621 525.012 161.066 525.732 155.769C526.473 150.282 524.695 144.858 520.842 140.875C509.367 129.054 504.54 111.575 508.816 97.3383C512.669 84.5843 523.361 75.6439 538.943 72.2329C549.867 69.8389 561.236 70.5804 571.801 74.3727C599.366 84.2454 613.572 110.918 608.004 142.295C602.817 171.574 578.724 202.929 538.075 202.929C537.884 202.929 537.673 202.929 537.482 202.929C534.92 202.908 532.147 202.802 528.992 202.59C524.165 202.272 519.36 201.764 514.723 201.276C488.153 198.48 465.204 196.065 453.39 228.691L453.221 229.115ZM416.764 215.662L452.649 227.907C464.78 195.048 487.984 197.484 514.829 200.323C519.465 200.81 524.25 201.319 529.035 201.637C532.168 201.848 534.92 201.954 537.482 201.976C537.673 201.976 537.863 201.976 538.075 201.976C578.173 201.976 601.927 171.023 607.051 142.147C611.222 118.694 604.404 87.1055 571.483 75.3049C561.088 71.5762 549.91 70.8559 539.155 73.2075C523.933 76.5337 513.495 85.2411 509.769 97.6773C505.598 111.575 510.319 128.693 521.561 140.261C525.626 144.456 527.51 150.155 526.727 155.939C525.965 161.532 522.768 166.341 517.983 169.159C511.928 172.697 503.883 174.497 494.081 174.497C451.654 173.883 424.936 188.141 416.764 215.662Z" fill="#11116D"/>
<path d="M537.482 202.442C534.645 202.42 531.83 202.293 529.035 202.103C529.014 202.103 529.014 202.103 529.014 202.103C513.178 196.149 510.447 179.561 517.708 168.714C527.765 162.824 529.31 148.905 521.202 140.558C501.237 119.986 500.687 81.1098 539.049 72.699C549.889 70.3261 561.215 71.0888 571.653 74.8176C635.802 97.8255 611.561 202.992 537.482 202.442Z" fill="#FFCA55"/>
<g opacity="0.3">
<path d="M537.483 198.904C534.646 198.882 531.83 198.755 529.035 198.565C529.014 198.565 529.014 198.565 529.014 198.565C496.897 196.446 467.004 186.213 452.946 224.983L440.137 220.598C452.12 184.603 481.866 192.23 513.157 192.061C513.157 192.061 513.157 192.061 513.178 192.061C515.994 192.039 518.81 191.976 521.625 191.806C589.204 187.484 608.978 98.1009 561.808 68.6948C565.153 69.2668 568.456 70.1355 571.674 71.3007C635.802 94.3086 611.561 199.476 537.483 198.904Z" fill="#650000"/>
<path d="M453.221 225.598L439.502 220.916L439.65 220.471C449.897 189.688 472.571 190.45 498.824 191.319C503.481 191.467 508.287 191.637 513.114 191.616C516.375 191.594 519.042 191.51 521.562 191.361C558.781 188.989 578.639 161.955 584.821 137.443C591.935 109.202 582.789 82.381 561.533 69.1398L559.458 67.8474L561.872 68.2711C565.238 68.8432 568.583 69.733 571.822 70.877C599.387 80.7496 613.593 107.423 608.025 138.799C602.838 168.078 578.745 199.433 538.096 199.433C537.906 199.433 537.694 199.433 537.504 199.433C534.963 199.412 532.19 199.306 529.014 199.094C524.187 198.776 519.402 198.268 514.766 197.781C488.196 194.984 465.246 192.569 453.433 225.195L453.221 225.598ZM440.73 220.301L452.649 224.369C464.78 191.51 487.984 193.946 514.829 196.785C519.466 197.272 524.25 197.781 529.035 198.099C532.19 198.31 534.942 198.416 537.482 198.438C537.673 198.438 537.864 198.438 538.075 198.438C578.174 198.438 601.928 167.485 607.072 138.608C611.243 115.156 604.426 83.5674 571.505 71.7668C569.091 70.8982 566.614 70.1991 564.095 69.6482C584.25 83.5462 592.761 109.944 585.774 137.676C582.133 152.146 574.68 164.879 564.201 174.519C552.662 185.133 537.948 191.298 521.646 192.336C519.127 192.505 516.417 192.59 513.157 192.59C508.33 192.611 503.481 192.463 498.824 192.294C473.08 191.404 450.829 190.662 440.73 220.301Z" fill="#11116D"/>
</g>
<g opacity="0.6">
<path d="M590.135 85.5589C587.277 83.9487 584.207 82.5293 580.862 81.3429C570.425 77.6141 559.098 76.8515 548.258 79.2243C509.896 87.6351 510.447 126.511 530.411 147.083C538.52 155.43 536.974 169.349 526.918 175.239C520.588 178.946 512.289 180.514 503.248 180.514C460.313 179.921 435.056 194.709 426.354 219.454L416.15 215.979C423.814 189.412 449.368 173.375 494.018 174.01C503.058 174.01 511.357 172.442 517.687 168.735C527.744 162.845 529.289 148.926 521.18 140.579C501.216 120.007 500.665 81.131 539.028 72.7202C549.867 70.3474 561.194 71.1101 571.631 74.8388C578.914 77.4447 585.075 81.1098 590.135 85.5589Z" fill="white"/>
</g>
<path d="M567.376 369.069C561.914 328.095 541.971 292.8 511.802 265.682C511.124 265.067 510.447 264.474 509.769 263.86C459.488 219.92 381.916 198.183 295.834 209.645C201.558 222.208 127.713 270.448 94.1143 334.006V334.027C94.0931 334.049 94.0931 334.07 94.0931 334.07C77.9183 364.705 71.08 398.878 75.8011 434.364C89.2661 535.421 191.798 600.102 317.852 594.318C327.929 593.852 338.134 592.941 348.466 591.564C488.175 572.92 581.921 478.198 567.376 369.069ZM313.152 401.229C294.86 400.869 278.008 396.95 266.66 389.641C273.795 374.789 287.852 362.374 305.827 355.468C312.242 352.989 319.143 351.23 326.405 350.298C326.934 350.214 327.443 350.15 327.951 350.108C334.768 349.366 341.458 349.387 347.873 350.15C367.033 352.353 383.8 360.806 394.598 373.243C395.042 373.751 395.466 374.26 395.889 374.789C389.284 380.87 381.26 385.869 372.431 389.831C354.394 397.903 332.926 401.632 313.152 401.229Z" fill="#FFCA55"/>
<g opacity="0.6">
<path d="M359.178 584.466C348.846 585.843 338.642 586.754 328.564 587.221C202.532 593.004 99.9784 528.302 86.5135 427.267C81.7923 391.802 88.6306 357.607 104.805 326.973C104.805 326.973 104.805 326.951 104.827 326.93V326.909C119.879 298.435 142.998 273.033 172.426 252.546C137.875 274.156 110.924 302.143 94.0928 333.985V334.006C94.0716 334.027 94.0716 334.049 94.0716 334.049C77.8968 364.684 71.0585 398.856 75.7797 434.343C89.2446 535.4 191.777 600.08 317.83 594.297C327.908 593.831 338.112 592.92 348.444 591.542C401.012 584.53 447.081 566.755 483.326 541.459C448.902 562.984 406.707 578.132 359.178 584.466Z" fill="white"/>
</g>
<g opacity="0.3">
<path d="M266.681 389.641C278.008 396.928 294.86 400.869 313.173 401.229C309.277 403.666 306.906 410.699 291.642 412.648C274.811 414.831 258.763 419.025 249.172 402.522C239.561 386.039 222.539 357.247 229.695 343.667C236.829 330.087 240.556 319.346 242.8 310.532L274.281 324.642C274.98 341.951 288.974 352.057 305.848 355.425C287.873 362.374 273.794 374.789 266.681 389.641Z" fill="#11116D"/>
</g>
<g opacity="0.3">
<path d="M348.466 591.564C338.134 592.941 327.929 593.852 317.852 594.318C365.551 583.28 396.101 562.624 415.367 542.878C421.252 536.84 415.705 526.777 407.491 528.641C407.427 528.663 407.364 528.663 407.279 528.684C392.84 531.968 379.397 538.472 367.35 547.094C319.673 581.246 254.74 568.535 217.352 538.472C255.206 558.386 307.372 562.73 347.386 534.065C359.432 525.442 372.876 518.938 387.315 515.654C397.054 513.451 408.55 511.756 420.744 511.926C426.905 512.011 433.045 511.608 439.078 510.718C458.768 507.858 477.504 499.913 492.875 486.948C500.454 480.549 507.123 473.367 512.818 465.211C524.081 449.088 529.416 429.682 529.183 410.021C528.59 363.179 559.014 322.375 512.056 266.529C511.886 266.317 511.717 266.127 511.526 265.915L511.802 265.682C531.66 283.52 547.073 304.897 556.854 329.091C561.935 341.697 565.513 355.044 567.376 369.069C581.921 478.198 488.175 572.92 348.466 591.564Z" fill="#11116D"/>
</g>
<g opacity="0.3">
<path d="M403.659 380.531C390.999 388.158 402.749 387.141 372.453 389.789C381.281 385.827 389.305 380.827 395.91 374.747C395.487 374.217 395.042 373.709 394.619 373.2C383.8 360.764 367.033 352.311 347.894 350.108C359.242 344.218 367.118 334.409 366.567 320.935C366.567 320.935 394.196 296.677 400.695 303.604C407.216 310.553 411.556 327.926 411.556 338.773C411.556 349.642 408.761 367.247 407.724 369.556C406.665 371.929 416.383 372.861 403.659 380.531Z" fill="#11116D"/>
</g>
<path d="M512.056 266.529C511.315 265.639 510.552 264.749 509.769 263.86C459.487 219.92 381.916 198.183 295.834 209.645C201.558 222.208 127.713 270.449 94.1142 334.006V334.027C94.093 334.049 94.093 334.07 94.093 334.07C85.7727 357.925 82.8299 379.853 85.0106 399.958C86.9371 417.818 92.9074 434.237 102.731 449.279C112.787 464.66 126.591 477.202 142.533 486.312C155.532 493.727 175.878 506.396 192.899 521.671C229.398 554.404 297.739 569.636 347.365 534.086C359.411 525.464 372.855 518.959 387.294 515.676C397.032 513.472 408.528 511.777 420.723 511.947C446.975 512.265 472.783 503.917 492.853 486.969C500.433 480.571 507.102 473.389 512.797 465.232C524.06 449.109 529.395 429.703 529.162 410.043C528.59 363.179 559.013 322.354 512.056 266.529ZM266.152 331.697C270.365 328.667 275.531 327.333 280.696 327.523C290.626 327.884 298.798 324.388 303.498 313.392C303.858 312.545 304.218 311.697 304.683 310.892C315.354 292.143 341.712 292.63 348.91 316.252C351.514 324.112 356.701 325.977 364.386 322.057C388.606 308.371 416.785 333.159 404.929 364.281C402.431 367.819 399.806 370.997 397.032 373.645L395.148 373.793C395.423 374.09 395.677 374.408 395.931 374.726C395.042 375.531 394.132 376.336 393.179 377.12C361.592 403.348 302.736 407.649 271.995 392.585C257.493 387.416 250.252 376.187 250.252 376.187C250.189 375.891 250.146 375.594 250.104 375.298C246.78 356.336 252.094 341.782 266.152 331.697Z" fill="#FF1FB4" stroke="#11116D" stroke-width="4.5363" stroke-miterlimit="10"/>
<g opacity="0.3">
<path d="M532.02 279.537C531.279 278.648 530.517 277.758 529.734 276.868C519.804 268.182 508.816 260.385 496.897 253.521C501.364 256.805 505.662 260.237 509.769 263.839C510.362 264.516 510.955 265.216 511.547 265.894L511.823 265.661C531.681 283.499 547.094 304.876 556.875 329.07C554.102 313.647 547.009 297.355 532.02 279.537Z" fill="#650000"/>
<path d="M558.146 333.54L556.431 329.282C546.84 305.575 531.851 284.389 511.823 266.338L511.505 266.614L511.188 266.233C510.637 265.576 510.066 264.919 509.494 264.262C505.344 260.618 501.026 257.165 496.643 253.945L497.172 253.14C509.113 260.004 520.185 267.864 530.094 276.529C530.919 277.461 531.681 278.351 532.422 279.241C546.163 295.575 554.314 311.867 557.362 329.006L558.146 333.54ZM511.802 265.025L512.119 265.3C531.131 282.376 545.654 302.227 555.393 324.367C551.794 309.134 543.982 294.516 531.66 279.834C530.919 278.965 530.157 278.075 529.374 277.186C521.583 270.385 513.03 264.029 503.884 258.288C505.98 259.983 508.054 261.699 510.066 263.478L510.172 263.606C510.637 264.135 511.103 264.686 511.569 265.216L511.802 265.025Z" fill="#11116D"/>
</g>
<g opacity="0.6">
<path d="M509.769 263.86C459.488 219.92 381.916 198.183 295.834 209.645C201.558 222.208 127.713 270.448 94.1142 334.006V334.027C94.0931 334.049 94.0931 334.07 94.0931 334.07C82.5759 367.078 81.3691 396.399 89.7318 422.267C85.0318 399.344 87.3818 373.921 97.1841 345.807C97.1841 345.807 97.1841 345.786 97.2052 345.764V345.743C130.804 282.185 204.649 233.945 298.925 221.382C385.007 209.899 462.579 231.657 512.86 275.597C525.118 289.558 532.507 302.566 536.699 314.96C533.672 299.092 525.965 282.291 509.769 263.86Z" fill="white"/>
</g>
<g opacity="0.6">
<path d="M239.243 336.93C223.534 384.768 263.95 427.267 346.073 409.174L372.114 393.581C307.711 414.788 231.96 397.501 239.243 336.93Z" fill="white"/>
</g>
<path d="M302.397 599C250.824 599 202.511 587.242 163.048 564.636C111.2 534.934 78.6805 488.875 71.5035 434.915C64.2841 380.785 83.2535 327.545 124.876 285.024C166.245 242.78 226.752 214.475 295.262 205.344C363.772 196.213 429.657 207.696 480.744 237.716C532.19 267.927 564.476 314.367 571.695 368.497C578.893 422.585 560.136 475.422 518.852 517.286C477.928 558.81 417.611 586.712 349.037 595.843C333.307 597.962 317.704 599 302.397 599ZM340.802 210.98C326.236 210.98 311.395 211.975 296.406 213.967C158.856 232.314 65.8507 326.803 80.099 433.771C94.2202 539.743 209.328 605.716 347.873 587.242C414.562 578.344 473.08 551.332 512.67 511.184C552.027 471.27 569.917 420.996 563.079 369.641C556.219 318.223 525.436 274.029 476.34 245.195C438.041 222.695 391.02 210.98 340.802 210.98Z" fill="#11116D"/>
<path d="M398.281 302.397C403.574 306.401 408.253 311.443 411.683 317.418C415.134 323.371 417.166 330.278 417.42 337.29C417.42 338.159 417.505 339.049 417.441 339.938L417.314 342.587C417.124 344.324 416.933 346.082 416.573 347.819C415.896 351.273 414.816 354.641 413.398 357.84C410.624 364.26 406.602 370.022 401.965 375.065C392.608 385.17 380.815 392.373 368.409 397.437C355.96 402.458 342.792 405.382 329.517 406.462C322.869 407.034 316.179 407.098 309.51 406.61C302.841 406.166 296.194 405.191 289.631 403.623C283.11 402.013 276.695 399.789 270.534 396.886C264.416 393.92 258.551 390.255 253.385 385.658C248.199 381.103 243.71 375.573 240.513 369.281C238.926 366.124 237.698 362.798 236.872 359.366C236.089 355.913 235.665 352.396 235.686 348.9C235.729 345.383 236.173 341.909 237.02 338.54C237.867 335.171 239.095 331.951 240.619 328.9C243.689 322.799 247.881 317.46 252.708 312.926C253.364 312.312 254.402 312.333 255.016 312.99C255.587 313.583 255.608 314.494 255.1 315.13L255.079 315.151C251.162 320.108 247.839 325.447 245.658 331.167C243.456 336.866 242.398 342.883 242.779 348.773C242.969 351.718 243.477 354.62 244.282 357.438C245.15 360.234 246.335 362.925 247.733 365.489C249.13 368.073 250.908 370.446 252.814 372.692C254.719 374.959 256.879 377.035 259.165 378.963C268.396 386.653 279.85 391.78 291.79 394.831C303.773 397.861 316.349 398.814 328.776 397.818C341.204 396.801 353.504 393.941 364.916 389.132C370.611 386.696 376.094 383.836 381.26 380.488C383.8 378.772 386.299 376.993 388.649 375.043C389.855 374.111 390.956 373.073 392.121 372.077C393.2 371.018 394.344 370.001 395.36 368.899C399.573 364.578 403.151 359.684 405.776 354.366C407.131 351.718 408.084 348.921 408.846 346.082C409.248 344.663 409.481 343.222 409.756 341.781L409.989 339.599C410.074 338.879 410.053 338.138 410.095 337.396C410.307 331.506 409.079 325.553 406.623 320.024C404.146 314.494 400.462 309.409 396.08 304.897C395.444 304.24 395.466 303.223 396.122 302.588C396.757 301.973 397.646 301.931 398.281 302.397Z" fill="#11116D"/>
<path d="M266.66 393.984C266.025 393.984 265.389 393.856 264.776 393.56C262.616 392.522 261.706 389.916 262.743 387.755C273.646 365.065 298.438 348.985 327.485 345.786C356.108 342.629 383.631 352.692 399.276 372.035C400.78 373.899 400.504 376.632 398.641 378.137C396.778 379.641 394.047 379.365 392.544 377.501C378.74 360.425 354.161 351.591 328.459 354.429C302.376 357.311 280.209 371.527 270.598 391.547C269.835 393.073 268.29 393.984 266.66 393.984Z" fill="#11116D"/>
<path d="M250.231 380.573C248.178 380.573 246.357 379.111 245.976 377.014C242.038 355.807 247.966 339.366 263.633 328.159C268.502 324.663 274.472 322.947 280.866 323.18C290.224 323.519 295.961 319.981 299.497 311.698L299.539 311.592C299.92 310.723 300.343 309.727 300.894 308.731C306.907 298.181 318.021 292.164 329.2 293.435C340.378 294.685 349.291 302.715 353.018 314.939C353.589 316.676 354.584 318.837 356.13 319.473C357.823 320.172 360.427 319.197 362.312 318.244C374.676 311.295 388.966 312.672 399.615 321.846C409.121 330.023 416.552 345.892 408.952 365.849C408.105 368.094 405.586 369.217 403.342 368.37C401.097 367.522 399.975 365.001 400.822 362.756C406.835 346.993 401.203 334.684 393.92 328.434C386.108 321.697 375.586 320.723 366.461 325.871C366.398 325.892 366.355 325.934 366.292 325.956C361.147 328.562 356.617 329.091 352.785 327.523C349.101 325.998 346.391 322.672 344.718 317.63C344.718 317.608 344.697 317.566 344.697 317.545C341.966 308.583 335.953 302.948 328.205 302.1C320.35 301.232 312.771 305.426 308.41 313.075C308.092 313.625 307.796 314.303 307.499 315.045L307.457 315.151C302.503 326.74 293.442 332.354 280.527 331.909C276.06 331.739 271.953 332.905 268.65 335.277C255.799 344.472 251.163 357.629 254.487 375.467C254.931 377.819 253.364 380.086 251.014 380.531C250.76 380.552 250.506 380.573 250.231 380.573Z" fill="#11116D"/>
<path d="M281.353 558.831C246.907 558.831 212.927 545.442 189.999 524.87C173.549 510.104 153.923 497.795 140.374 490.062C123.5 480.443 109.231 467.16 99.0896 451.652C77.1985 418.136 74.1287 378.094 89.986 332.65C90.7693 330.383 93.2463 329.197 95.5116 329.981C97.777 330.765 98.9626 333.244 98.1792 335.51C83.2535 378.285 86.0058 415.763 106.351 446.906C115.73 461.27 128.983 473.579 144.65 482.541C158.581 490.486 178.757 503.155 195.779 518.43C217.246 537.688 249.045 550.23 281.226 550.23C303.35 550.23 325.622 544.298 344.845 530.527C357.972 521.12 371.945 514.68 386.341 511.417C398.176 508.727 409.735 507.455 420.787 507.561C446.827 507.879 471.407 499.362 490.059 483.621C497.575 477.266 503.863 470.444 509.261 462.711C519.699 447.775 525.097 429.576 524.843 410.064C524.674 396.229 527.109 382.903 529.48 370.001C535.492 337.205 541.187 306.231 506.509 266.741C504.921 264.94 505.112 262.186 506.911 260.618C508.711 259.029 511.463 259.22 513.03 261.021C550.482 303.689 544.151 338.201 538.012 371.59C535.725 384.09 533.354 396.992 533.523 409.979C533.799 431.313 527.871 451.292 516.375 467.711C510.531 476.058 503.757 483.431 495.669 490.274C475.768 507.074 449.728 516.269 422.184 516.269C421.697 516.269 421.189 516.269 420.702 516.269C410.37 516.142 399.446 517.371 388.289 519.913C375.014 522.921 362.121 528.874 349.926 537.603C329.179 552.433 305.149 558.831 281.353 558.831Z" fill="#11116D"/>
<path d="M252.052 468.685C251.035 473.134 244.218 475.359 236.851 473.664C229.483 471.969 224.338 466.969 225.355 462.52C226.371 458.071 232.51 458.749 239.899 460.465C247.267 462.16 253.089 464.236 252.052 468.685Z" fill="#11116D"/>
<path d="M346.073 411.928C405.141 315.807 433.256 358.518 419.664 473.833Z" fill="#FF1FB4"/>
<path d="M420.151 473.897L419.199 473.791C426.884 408.581 421.168 366.082 403.934 360.086C390.236 355.319 370.357 373.349 346.497 412.204L345.671 411.695C369.806 372.416 390.067 354.26 404.252 359.175C421.951 365.319 427.879 408.199 420.151 473.897Z" fill="#11116D"/>
<g opacity="0.6">
<path d="M418.733 381.018C408.041 360.129 387.315 366.739 358.035 410.212C355.325 414.216 349.778 415.021 346.073 411.928C384.033 350.171 409.206 345.722 418.733 381.018Z" fill="white"/>
</g>
<path d="M344.676 411.081C346.137 407.013 347.957 403.136 349.969 399.344C351.98 395.551 354.203 391.886 356.617 388.348C361.486 381.272 366.842 374.429 373.194 368.264C376.39 365.192 379.841 362.311 383.737 359.811C385.727 358.582 387.759 357.417 390.046 356.506C392.311 355.595 394.767 354.853 397.413 354.599C400.039 354.324 402.897 354.599 405.522 355.531C408.147 356.463 410.476 358.01 412.382 359.768C416.214 363.328 418.5 367.628 420.3 371.823C423.729 380.34 425.338 388.984 426.418 397.606C427.413 406.229 427.794 414.831 427.667 423.39C427.646 425.529 427.582 427.669 427.519 429.809C427.413 431.949 427.328 434.089 427.201 436.207C426.969 440.466 426.609 444.724 426.143 448.961C425.127 457.414 423.666 465.825 421.316 474.066C421.062 474.935 420.151 475.444 419.283 475.189C418.585 474.999 418.119 474.363 418.098 473.685C417.696 465.168 417.865 456.779 418.034 448.389L418.352 435.868C418.437 431.695 418.458 427.542 418.437 423.39C418.373 415.085 418.077 406.801 417.251 398.645C416.849 394.577 416.277 390.53 415.473 386.59C414.668 382.649 413.609 378.793 412.17 375.234C411.45 373.454 410.603 371.781 409.672 370.213C408.719 368.666 407.66 367.289 406.475 366.188C404.104 363.942 401.415 363.052 398.324 363.412C396.778 363.582 395.148 364.069 393.518 364.768C391.888 365.467 390.279 366.442 388.712 367.459C385.579 369.599 382.572 372.205 379.714 375.022C373.998 380.658 368.705 386.992 363.603 393.496C358.437 399.979 353.356 406.61 347.471 412.839C346.835 413.517 345.798 413.538 345.121 412.903C344.612 412.373 344.464 411.674 344.676 411.081Z" fill="#11116D"/>
<path d="M368.07 426.356C378.973 432.648 388.987 443.156 398.239 457.245C402.24 436.08 405.776 414.407 402.156 395.128C401.288 390.509 395.592 388.772 392.29 392.098C383.927 400.551 375.713 413.22 368.07 426.356Z" fill="#FFCA55"/>
<path d="M398.493 458.495L397.837 457.499C388.415 443.156 378.317 432.817 367.837 426.758L367.414 426.525L367.646 426.101C373.617 415.869 382.615 401.166 391.951 391.759C393.645 390.064 395.995 389.471 398.281 390.17C400.568 390.869 402.177 392.691 402.621 395.022C406.22 414.259 402.833 435.466 398.705 457.308L398.493 458.495ZM368.726 426.186C378.952 432.203 388.797 442.224 397.985 455.995C401.986 434.661 405.204 413.962 401.69 395.234C401.309 393.242 399.954 391.717 398.006 391.123C396.079 390.53 394.068 391.039 392.629 392.479C383.504 401.653 374.654 416.017 368.726 426.186Z" fill="#11116D"/>
<g opacity="0.3">
<path d="M403.214 402.649C402.135 402.861 401.076 403.39 400.187 404.259C392.777 411.716 385.515 422.5 378.634 433.983C375.205 430.995 371.669 428.432 368.049 426.356C375.692 413.22 383.906 400.551 392.29 392.119C395.593 388.793 401.267 390.53 402.135 395.149C402.6 397.606 402.96 400.106 403.214 402.649Z" fill="#11116D"/>
</g>
<path d="M398.239 461.037C396.969 461.037 395.783 460.402 395.063 459.321C385.939 445.402 376.221 435.423 366.165 429.64C365.297 429.131 364.64 428.305 364.386 427.33C364.132 426.356 364.259 425.318 364.767 424.428C370.822 414.026 379.99 399.09 389.58 389.429C392.121 386.886 395.826 385.954 399.255 387.014C402.685 388.073 405.226 390.912 405.882 394.429C409.587 414.237 406.136 435.784 401.965 457.944C401.669 459.469 400.504 460.656 398.98 460.974C398.726 461.016 398.472 461.037 398.239 461.037ZM373.215 425.063C381.175 430.318 388.839 437.86 396.122 447.605C399.34 429.343 401.394 411.759 398.408 395.806C398.197 394.725 397.371 394.365 397.011 394.259C396.651 394.153 395.741 393.984 394.958 394.768C386.913 402.924 378.994 415.36 373.215 425.063Z" fill="#11116D"/>
<path d="M200.161 359.175C173.676 263.245 139.378 292.524 122.632 393.56Z" fill="#FF1FB4"/>
<path d="M123.098 393.645L122.145 393.496C131.841 335.066 147.021 301.041 163.81 300.151C177.042 299.41 189.787 319.833 200.627 359.069L199.695 359.323C189.004 320.574 176.619 300.448 163.852 301.126C147.805 301.952 132.561 336.527 123.098 393.645Z" fill="#11116D"/>
<g opacity="0.6">
<path d="M180.387 311.38C162.476 297.122 144.629 324.536 132.815 380.912C131.651 386.526 127.861 391.229 122.632 393.56C135.419 316.443 158.411 281.126 180.387 311.38Z" fill="white"/>
</g>
<path d="M198.594 359.62C195.588 352.777 192.878 345.892 189.914 339.197C186.971 332.502 183.902 325.913 180.345 319.833C178.566 316.803 176.64 313.922 174.544 311.38C173.464 310.151 172.384 308.943 171.199 307.99C170.034 307.015 168.828 306.232 167.621 305.723C165.207 304.706 162.942 304.812 160.465 306.02C158.009 307.248 155.659 309.558 153.605 312.164C149.477 317.481 146.386 324.028 143.613 330.638C140.945 337.333 138.468 344.176 136.245 351.167C134.001 358.137 131.99 365.234 130.021 372.353L124.241 393.857C124.008 394.725 123.119 395.255 122.23 395.022C121.468 394.81 120.959 394.09 121.023 393.327C122.039 378.37 124.389 363.497 128.073 348.836C129.936 341.506 132.18 334.218 135.165 327.142C138.108 320.045 141.665 313.096 146.725 306.676C149.308 303.52 152.335 300.427 156.548 298.266C158.623 297.185 161.058 296.422 163.598 296.295C166.139 296.147 168.701 296.634 170.924 297.524C175.433 299.325 178.715 302.355 181.467 305.427C184.177 308.562 186.379 311.909 188.284 315.342C192.052 322.227 194.784 329.409 196.943 336.676C197.515 338.477 197.98 340.32 198.467 342.142C198.933 343.964 199.399 345.807 199.78 347.65C200.606 351.336 201.241 355.044 201.749 358.794C201.876 359.705 201.241 360.531 200.33 360.637C199.568 360.679 198.891 360.277 198.594 359.62Z" fill="#11116D"/>
<path d="M177.995 365.997C167.219 368.645 156.146 375.086 144.862 384.768C146.661 365.87 148.969 346.633 156.76 331.189C158.623 327.481 163.874 327.417 165.864 331.061C170.881 340.235 174.734 352.989 177.995 365.997Z" fill="#FFCA55"/>
<path d="M144.269 385.891L144.375 384.704C146.238 365.192 148.546 346.379 156.315 330.956C157.268 329.07 159.11 327.905 161.227 327.884C163.344 327.799 165.229 328.943 166.266 330.807C171.876 341.082 175.899 355.743 178.439 365.87L178.566 366.336L178.101 366.442C167.748 368.984 156.654 375.276 145.179 385.107L144.269 385.891ZM161.354 328.837C161.333 328.837 161.291 328.837 161.27 328.837C159.512 328.858 157.988 329.811 157.205 331.4C149.647 346.379 147.297 364.641 145.476 383.645C156.591 374.302 167.325 368.243 177.423 365.658C174.883 355.595 170.924 341.294 165.461 331.273C164.593 329.748 163.069 328.837 161.354 328.837Z" fill="#11116D"/>
<g opacity="0.3">
<path d="M169.251 338.138C168.743 338.54 168.319 339.091 168.002 339.748C162.751 350.15 159.999 362.268 158.2 374.832C153.796 377.607 149.371 380.933 144.883 384.768C146.682 365.849 148.99 346.633 156.781 331.189C158.644 327.502 163.895 327.417 165.885 331.04C167.049 333.222 168.171 335.595 169.251 338.138Z" fill="#11116D"/>
</g>
<path d="M144.862 388.56C144.269 388.56 143.655 388.412 143.105 388.136C141.728 387.416 140.924 385.954 141.072 384.408C142.956 364.556 145.328 345.426 153.373 329.473C154.876 326.506 157.861 324.621 161.185 324.557C161.227 324.557 161.291 324.557 161.333 324.557C164.615 324.557 167.6 326.337 169.188 329.218C174.967 339.811 179.075 354.769 181.679 365.065C181.933 366.039 181.763 367.078 181.255 367.946C180.726 368.815 179.879 369.429 178.905 369.683C169.061 372.099 158.433 378.158 147.339 387.649C146.619 388.242 145.751 388.56 144.862 388.56ZM161.333 332.163H161.312C161.015 332.163 160.465 332.269 160.147 332.883C153.881 345.32 151.298 360.319 149.541 376.145C157.713 370.086 165.694 365.806 173.379 363.349C170.881 353.773 167.261 341.57 162.519 332.862C162.201 332.248 161.651 332.163 161.333 332.163Z" fill="#11116D"/>
<path d="M452.946 232.865C452.459 232.865 451.951 232.78 451.464 232.61C449.219 231.784 448.034 229.305 448.86 227.038C461.965 190.853 489.064 193.713 515.253 196.467C522.536 197.23 530.051 198.035 537.525 198.098C537.715 198.098 537.885 198.098 538.075 198.098C575.951 198.098 598.413 168.798 603.261 141.447C607.157 119.477 600.848 89.9019 570.192 78.9276C560.474 75.4319 550.037 74.754 539.981 76.9573C525.986 80.0293 516.819 87.5715 513.453 98.7788C509.663 111.363 514.025 126.956 524.314 137.549C529.204 142.591 531.47 149.498 530.517 156.468C529.585 163.226 525.711 169.074 519.889 172.485C513.22 176.383 504.54 178.353 494.039 178.353C453.263 177.824 427.837 191.234 420.342 217.187C419.686 219.496 417.272 220.81 414.964 220.153C412.657 219.496 411.344 217.081 412 214.772C416.256 200.069 425.381 188.713 439.121 181.001C453.094 173.163 471.619 169.328 494.102 169.646C502.846 169.646 510.277 168.036 515.507 164.964C519.021 162.909 521.35 159.371 521.922 155.282C522.514 150.981 521.117 146.723 518.09 143.587C505.683 130.791 500.475 111.787 505.133 96.2577C509.409 82.0631 521.117 72.1905 538.118 68.4618C549.762 65.9195 561.85 66.7033 573.114 70.7287C588.336 76.1946 599.938 86.4274 606.649 100.325C612.64 112.762 614.482 127.91 611.815 142.973C606.352 173.798 580.947 206.806 538.096 206.806C537.885 206.806 537.673 206.806 537.482 206.806C529.586 206.742 521.858 205.916 514.385 205.132C488.344 202.378 467.808 200.217 457.01 230.005C456.375 231.763 454.724 232.865 452.946 232.865Z" fill="#11116D"/>
<g opacity="0.3">
<path d="M415.028 355.595C413.694 358.434 412.17 361.251 410.37 363.836C409.058 362.438 407.66 361.357 406.178 360.531C414.499 331.21 387.611 308.922 364.386 322.057C356.701 325.977 351.493 324.112 348.91 316.252C341.712 292.63 315.375 292.143 304.684 310.892C304.218 311.697 303.858 312.545 303.498 313.392C298.798 324.388 290.647 327.883 280.697 327.523C275.51 327.333 270.365 328.667 266.152 331.697C252.094 341.76 246.78 356.336 250.083 375.319C245.573 372.247 242.334 367.501 239.497 362.417C232.892 350.574 230.203 336.485 232.553 323.074C234.099 314.176 238.354 304.981 246.441 300.956C251.607 298.393 257.578 298.266 263.167 296.931C275.277 294.05 285.121 285.617 295.432 278.669C305.742 271.698 318.254 265.851 330.28 269.029C339.51 271.465 346.857 278.923 356.172 281.02C362.142 282.376 368.367 281.401 374.485 281.359C384.859 281.296 395.402 284.071 403.701 290.278C413.271 297.439 419.283 308.837 420.935 320.68C422.565 332.566 420.088 344.769 415.028 355.595Z" fill="#11116D"/>
</g>
<g opacity="0.3">
<path d="M529.183 410C529.437 429.661 524.102 449.067 512.818 465.19C507.102 473.367 500.454 480.528 492.875 486.926C472.804 503.875 446.996 512.201 420.744 511.905C408.549 511.756 397.053 513.43 387.315 515.633C372.876 518.917 359.432 525.421 347.386 534.044C297.76 569.594 229.398 554.361 192.92 521.629C175.899 506.375 155.553 493.685 142.554 486.27C126.612 477.16 112.808 464.618 102.752 449.237C92.9286 434.195 86.9583 417.776 85.0317 399.916C87.3606 403.369 89.8164 406.717 92.4205 409.979C107.833 429.195 125.045 447.499 144.862 462.118C167.854 479.045 177.889 479.066 216.907 510.379C239.18 528.26 276.06 520.803 303.625 513.388C329.687 506.375 352.065 488.537 378.507 483.198C403.68 478.113 431.457 484.554 454.279 472.753C475.366 461.842 493.129 439.618 497.829 416.314C502.507 393.03 495.669 367.184 501.661 344.176C505.048 331.167 516.036 327.418 519.36 314.388C525.139 291.677 516.946 278.139 510.976 266.105C511.336 266.233 511.696 266.339 512.056 266.466C559.013 322.354 528.59 363.179 529.183 410Z" fill="#11116D"/>
</g>
<g opacity="0.3">
<path d="M420.596 465.529C453.157 462.118 506.53 401.25 418.796 381.145C418.775 381.166 424.195 423.22 420.596 465.529Z" fill="#11116D"/>
</g>
<g opacity="0.3">
<path d="M181.594 313.138C250.421 329.748 225.249 382.967 172.786 378.264C172.786 378.264 163.513 377.162 151.509 379.429L177.825 365.319L175.496 356.548C192.666 353.836 193.831 338.688 181.594 313.138Z" fill="#11116D"/>
</g>
<g opacity="0.25">
<path d="M479.96 300.977C483.411 319.007 476.128 335.553 463.679 337.947C451.231 340.341 449.982 325.426 446.531 307.397C443.08 289.368 438.74 275.046 451.188 272.652C463.637 270.258 476.509 282.948 479.96 300.977Z" fill="white"/>
</g>
<g opacity="0.25">
<path d="M438.465 264.855C438.465 270.872 432.706 273.775 425.275 273.775C417.844 273.775 411.577 270.872 411.577 264.855C411.577 258.839 417.59 253.945 425.021 253.945C432.431 253.945 438.465 258.839 438.465 264.855Z" fill="white"/>
</g>
<path d="M210.598 472.414C209.984 475.613 210.09 478.854 211.318 481.524C212.483 484.193 214.642 486.248 217.161 487.265C219.681 488.303 222.475 488.303 224.635 487.35C226.816 486.375 228.361 484.553 229.314 482.223C230.309 479.765 233.125 478.579 235.58 479.575C237.655 480.422 238.841 482.562 238.523 484.702V484.765C238.142 487.435 238.671 489.85 240.408 491.863C242.122 493.875 245.044 495.316 248.156 495.74C251.268 496.163 254.613 495.655 257.217 494.002C258.53 493.176 259.631 492.074 260.457 490.74C261.282 489.405 261.79 487.816 262.045 486.121V486.058C262.193 485.062 263.124 484.363 264.119 484.49C265.03 484.617 265.707 485.401 265.686 486.312C265.686 488.431 265.305 490.634 264.395 492.71C263.505 494.786 262.087 496.672 260.33 498.134C256.794 501.1 252.242 502.434 247.775 502.434C243.287 502.413 238.587 501.1 234.734 497.837C232.828 496.206 231.219 494.066 230.203 491.672C229.187 489.278 228.742 486.672 228.742 484.193L237.952 486.714C236.787 488.664 235.263 490.507 233.4 492.011C231.537 493.515 229.356 494.617 227.07 495.21C222.475 496.396 217.712 495.464 213.986 493.219C210.217 490.994 207.444 487.265 206.364 483.219C205.221 479.151 205.793 475.02 207.02 471.418C207.359 470.465 208.397 469.956 209.349 470.295C210.217 470.592 210.725 471.482 210.556 472.372L210.598 472.414Z" fill="#11116D"/>
<path d="M315.989 253.118L291.769 252.631C289.228 252.546 287.217 250.428 287.302 247.885C287.387 245.343 289.504 243.33 292.044 243.415L316.264 243.902C318.805 243.987 320.816 246.106 320.731 248.648C320.647 251.19 318.529 253.203 315.989 253.118Z" fill="white"/>
<path d="M347.873 487.202L346.941 511.417C346.814 513.96 344.655 515.93 342.114 515.803C339.574 515.676 337.605 513.515 337.732 510.972L338.663 486.757C338.79 484.214 340.95 482.244 343.49 482.371C346.031 482.498 348 484.659 347.873 487.202Z" fill="white"/>
<path d="M472.889 264.326L487.179 283.902C488.661 285.978 488.196 288.859 486.121 290.342C484.046 291.825 481.167 291.359 479.685 289.283L465.394 269.707C463.912 267.631 464.378 264.75 466.453 263.267C468.527 261.784 471.407 262.25 472.889 264.326Z" fill="white"/>
<path d="M474.35 426.652L454.724 440.847C452.649 442.33 449.77 441.821 448.288 439.745C446.806 437.669 447.314 434.788 449.389 433.305L469.015 419.11C471.089 417.627 473.969 418.136 475.451 420.212C476.911 422.309 476.425 425.19 474.35 426.652Z" fill="#4FBFE7"/>
<path d="M407.745 274.41L387.632 260.915C385.536 259.474 384.986 256.614 386.426 254.496C387.865 252.398 390.723 251.847 392.84 253.288L412.953 266.783C415.049 268.224 415.6 271.084 414.16 273.203C412.72 275.321 409.862 275.851 407.745 274.41Z" fill="#4FBFE7"/>
<path d="M482.564 335.235L472.233 357.163C471.132 359.451 468.358 360.425 466.072 359.324C463.785 358.222 462.812 355.447 463.912 353.158L474.244 331.231C475.345 328.943 478.118 327.968 480.405 329.07C482.713 330.172 483.686 332.947 482.564 335.235Z" fill="#FFC543"/>
<path d="M225.249 275.131L214.917 297.058C213.816 299.346 211.043 300.321 208.757 299.219C206.47 298.117 205.496 295.342 206.597 293.054L216.929 271.127C218.03 268.838 220.803 267.864 223.089 268.966C225.397 270.067 226.371 272.821 225.249 275.131Z" fill="#FFC543"/>
<path d="M131.291 427.288L143.104 448.453C144.332 450.698 143.507 453.495 141.262 454.724C139.018 455.953 136.224 455.126 134.996 452.881L123.182 431.716C121.954 429.47 122.78 426.674 125.024 425.445C127.268 424.237 130.063 425.063 131.291 427.288Z" fill="#FFC543"/>
<path d="M194.932 397.056C190.295 395.382 185.511 396.25 181.298 399.089C175.899 402.691 171.432 409.513 169.463 418.22C166.922 429.491 169.209 440.847 174.692 447.69C176.767 450.296 179.308 452.245 182.187 453.283C192.73 457.118 204.141 447.648 207.656 432.118C211.191 416.589 205.496 400.89 194.932 397.056Z" fill="white"/>
<path d="M194.932 397.056C190.295 395.382 185.511 396.25 181.298 399.089C180.62 399.916 179.964 400.827 179.371 401.78C178.016 403.92 176.915 407.204 178.164 409.28C179.244 411.059 181.276 410.657 182.928 411.25C185.617 412.225 187.268 416.631 186.358 420.381C185.426 424.131 182.102 426.546 179.456 425.36C177.614 424.534 175.899 422.267 174.015 423.178C172.639 423.856 171.919 426.017 171.58 427.987C170.416 434.682 171.749 441.715 174.438 447.181C174.523 447.351 174.608 447.52 174.713 447.69C176.788 450.296 179.329 452.245 182.208 453.283C192.751 457.118 204.163 447.648 207.677 432.118C211.191 416.589 205.496 400.89 194.932 397.056Z" fill="#1595FF"/>
<path d="M209.061 430.893C210.864 417.04 205.052 404.861 196.078 403.691C187.104 402.521 178.367 412.803 176.563 426.656C174.759 440.509 180.572 452.688 189.546 453.858C198.52 455.028 207.257 444.747 209.061 430.893Z" fill="#11116D"/>
<path d="M183.309 410.466C181.679 409.873 179.625 410.276 178.545 408.496C177.296 406.42 178.418 403.136 179.752 400.996C180.345 400.043 180.98 399.132 181.679 398.306C176.28 401.907 171.813 408.729 169.844 417.437C167.303 428.707 169.59 440.063 175.073 446.906C174.988 446.737 174.883 446.567 174.798 446.398C172.088 440.932 170.775 433.898 171.94 427.203C172.279 425.254 172.998 423.093 174.374 422.394C176.259 421.462 177.974 423.729 179.815 424.576C182.462 425.763 185.786 423.369 186.717 419.598C187.649 415.848 185.997 411.441 183.309 410.466Z" fill="white"/>
<path d="M190.147 396.208C191.735 396.208 193.344 396.484 194.932 397.056C205.475 400.89 211.191 416.589 207.677 432.118C204.692 445.317 196.012 454.152 186.993 454.152C185.405 454.152 183.796 453.876 182.208 453.304C179.307 452.245 176.788 450.296 174.713 447.711C169.23 440.868 166.922 429.512 169.484 418.242C171.453 409.513 175.92 402.712 181.319 399.111C184.071 397.225 187.098 396.208 190.147 396.208ZM190.147 390.657C186.04 390.657 181.912 391.971 178.185 394.492C171.411 399.026 166.245 407.246 164.022 417.013C161.164 429.661 163.577 442.754 170.352 451.186C173.125 454.66 176.471 457.139 180.281 458.537C182.441 459.321 184.706 459.724 186.971 459.724C198.827 459.724 209.561 448.876 213.076 433.368C217.246 414.915 210.112 396.674 196.816 391.844C194.657 391.039 192.412 390.657 190.147 390.657Z" fill="#11116D"/>
<path d="M314.126 428.347C318.91 429.534 322.383 432.945 324.309 437.648C326.786 443.665 326.68 451.8 323.441 460.148C319.27 470.91 311.035 479.045 302.651 481.672C299.475 482.668 296.3 482.88 293.293 482.139C282.39 479.427 278.219 465.19 283.978 450.338C289.737 435.466 303.223 425.636 314.126 428.347Z" fill="white"/>
<path d="M297.041 483.431C295.686 483.431 294.373 483.261 293.082 482.944C288.742 481.863 285.269 479.045 283.068 474.766C279.659 468.198 279.701 458.94 283.174 449.978C289.059 434.767 303.032 424.661 314.316 427.479C319.186 428.686 322.997 432.182 325.093 437.288C327.739 443.75 327.421 452.182 324.246 460.423C320.139 471.058 311.755 479.702 302.905 482.456C300.915 483.113 298.946 483.431 297.041 483.431ZM310.357 428.771C300.64 428.771 289.758 437.796 284.783 450.635C281.501 459.131 281.416 467.859 284.592 473.982C286.561 477.795 289.652 480.316 293.484 481.27C296.257 481.969 299.242 481.821 302.376 480.825C310.738 478.219 318.678 469.978 322.616 459.83C325.643 451.991 325.961 444.025 323.484 437.987C321.578 433.326 318.275 430.296 313.893 429.195C312.75 428.898 311.564 428.771 310.357 428.771Z" fill="#11116D"/>
<path d="M314.126 428.347C318.911 429.534 322.383 432.945 324.309 437.648C324.415 438.729 324.436 439.83 324.415 440.953C324.331 443.495 323.42 446.843 321.24 447.86C319.355 448.728 317.895 447.245 316.201 446.822C313.427 446.122 309.595 448.855 308.262 452.499C306.928 456.143 308.368 459.978 311.204 460.487C313.195 460.826 315.883 459.893 316.921 461.715C317.683 463.05 317.069 465.253 316.264 467.054C313.491 473.24 308.473 478.346 303.181 481.376C303.011 481.482 302.842 481.567 302.672 481.651C299.497 482.647 296.321 482.859 293.315 482.117C282.412 479.406 278.241 465.169 283.999 450.317C289.737 435.466 303.223 425.636 314.126 428.347Z" fill="#1595FF"/>
<path d="M312.844 463.176C319.078 450.675 317.566 437.263 309.468 433.219C301.37 429.176 289.752 436.031 283.519 448.532C277.285 461.033 278.797 474.445 286.895 478.489C294.993 482.533 306.611 475.677 312.844 463.176Z" fill="#11116D"/>
<path d="M316.285 445.974C317.979 446.398 319.461 447.881 321.324 447.012C323.505 445.995 324.415 442.648 324.5 440.106C324.542 438.983 324.5 437.881 324.394 436.801C326.871 442.817 326.765 450.953 323.526 459.3C319.355 470.062 311.12 478.198 302.736 480.825C302.905 480.74 303.075 480.634 303.244 480.549C308.537 477.52 313.554 472.414 316.328 466.228C317.132 464.406 317.746 462.224 316.984 460.889C315.947 459.067 313.258 459.999 311.268 459.66C308.41 459.173 306.991 455.317 308.325 451.673C309.68 448.008 313.512 445.275 316.285 445.974Z" fill="white"/>
<path d="M310.379 427.902C311.649 427.902 312.898 428.051 314.126 428.347C318.911 429.534 322.383 432.945 324.309 437.648C326.786 443.665 326.68 451.8 323.441 460.147C319.27 470.91 311.035 479.045 302.651 481.672C300.767 482.266 298.883 482.583 297.041 482.583C295.77 482.583 294.521 482.435 293.315 482.138C282.411 479.427 278.241 465.19 283.999 450.338C289.08 437.14 300.301 427.902 310.379 427.902ZM310.379 422.331C297.697 422.331 284.719 433.008 278.791 448.305C274.79 458.643 274.811 469.088 278.897 476.948C281.713 482.372 286.349 486.121 291.96 487.52C293.59 487.922 295.305 488.134 297.041 488.134C299.433 488.134 301.889 487.753 304.324 486.969C314.613 483.749 323.928 474.257 328.607 462.16C332.227 452.796 332.524 443.093 329.433 435.551C326.786 429.025 321.811 424.555 315.46 422.966C313.829 422.542 312.115 422.331 310.379 422.331Z" fill="#11116D"/>
</svg>
