<svg id="Слой_1" data-name="Слой 1" xmlns="http://www.w3.org/2000/svg" viewBox="0 0 626 696.02"><defs><style>.cls-1{fill:#b0a2d7;}.cls-2{fill:#ff6f03;}.cls-3{opacity:0.6;}.cls-4{fill:#f7f7f7;}.cls-5{fill:#fff;}.cls-6{opacity:0.25;}.cls-7{fill:#000072;}.cls-8{fill:#8e8fb3;}.cls-9{fill:#f9a0d7;}.cls-10{fill:#ff67a0;}.cls-11{fill:#b199c5;}</style></defs><title>victory-04</title><ellipse class="cls-1" cx="313" cy="371.93" rx="313" ry="299.5"/><path class="cls-2" d="M237.76,565.66a56.06,56.06,0,0,1-4.69,5.8h0C221.47,584.18,188.87,611.29,139,584a73.47,73.47,0,0,1,.36,10.54c-.42,14.4-4.52,40.48-26.74,58.09a118.67,118.67,0,0,0-16,15c-13.61,15.69-10.84,24.56-10.68,25-.38-.34-13.79-13.4-1.51-39.78a60.89,60.89,0,0,0,5.19-36.41,58.1,58.1,0,0,0-4.07-13.42c-6.45-14.63-2.47-31.87,2.74-42.77v0c2.1-4.45,4.4-7.84,6.28-9.57l24.8-14s13.94-10.24,46.47,7S218.73,573.45,237.76,565.66Z"/><g class="cls-3"><path class="cls-4" d="M237.76,565.66a66.16,66.16,0,0,1-9.08,10.23c-16.69,1.66-35.54-9.53-63.06-24.14-32.53-17.26-46.48-7-46.48-7l-24.79,14c-4.28,4-10.78,16.49-12.13,30.45-1-17,7.2-33.75,12.28-38.47l24.79-14s14-10.25,46.48,7S218.73,573.45,237.76,565.66Z"/></g><path class="cls-5" d="M461.23,528.92c-.06.12-.09.22-.15.34-8.94,19.42-20.14,24.94-33.5,17.17a38.73,38.73,0,0,1-3.28-2.13c-9.48,4.05-28.47.21-45.09-4.63a245.12,245.12,0,0,1-42.52-17.2c-60-30.52-143.79-34-173.55-31.05-31.74,3.13-41.13,24.78-43.95,46.66a97.54,97.54,0,0,1-2.12,11.56,11,11,0,0,1-17.37,6c-11.63-9.23-21.74-28.93-21-57.8a143.72,143.72,0,0,1,5.44-34.63,220.79,220.79,0,0,1,17-42.52c44-85,146.67-151.62,283.82-92.76,26.57,11.41,46.52,25.15,61.4,39.86.61.63,1.24,1.23,1.84,1.85,59.5,60.94,34.21,137.72,34.21,137.72C478,531.64,461.23,528.92,461.23,528.92Z"/><path class="cls-2" d="M107.22,409.59c-13.65-19.32,23.25-52.23,23.25-52.23s-11.61-3.49-10.66-10.5,18.5-18.8,38.57-24.28,22.34-7.28,19.9-26,25.84-11.87,25.84-11.87l40.11,17.81-9.94,22.06"/><g class="cls-3"><path class="cls-4" d="M133.77,364.23s-28.81,25.71-26.08,45v0l-.46.3c-11-15.52,10.76-39.86,19.69-48.79A25.45,25.45,0,0,0,133.77,364.23Z"/></g><g class="cls-6"><path class="cls-7" d="M427.55,546.42c-1.07-.62-2.17-1.34-3.27-2.13-9.48,4.06-28.47.21-45.09-4.62a246.71,246.71,0,0,1-42.52-17.2c-60-30.53-143.79-34-173.55-31.05-31.74,3.12-41.13,24.77-43.95,46.65a97.76,97.76,0,0,1-2.12,11.57,11,11,0,0,1-17.37,6c-11.64-9.23-21.74-28.94-21-57.81l3-2.51s8.32,68.23,28.64,11S220,399.83,322.69,458.13s91.62,66.49,91.62,66.49S420.67,537.24,427.55,546.42Z"/></g><g class="cls-3"><path class="cls-4" d="M244.23,302.52l-2,4.5-34.78-15.43s-28.25-6.81-25.81,11.88.16,20.52-19.9,26-37.35,17.1-38.57,24.12c-2.09-1.69-3.7-3.92-3.32-6.71,1-7,18.5-18.82,38.57-24.3s22.34-7.28,19.9-26,25.83-11.87,25.83-11.87Z"/></g><g class="cls-3"><path class="cls-4" d="M130.5,357.35s-1.42,1.28-3.59,3.43c-2.29-1.7-4.19-4-3.77-7a.36.36,0,0,1,0-.17A24.63,24.63,0,0,0,130.5,357.35Z"/></g><path class="cls-2" d="M448.16,369.64S412.73,344,394,376.72s-25.2,78.49-63.79,55.73L323.57,443s-43.89.54-27.75-67-50.49-39.4-51.61-24.19S238.9,383.85,216,386.44s-25.41,5-27.26,21.74S165.31,425.62,144.27,419s-30.63-.57-33.84,10.11-8.3,33.34-24.41,34.25a7.46,7.46,0,0,1-2-.16,219.12,219.12,0,0,1,17-42.52c44-85,146.69-151.61,283.84-92.75C412.62,339.8,433.11,354.21,448.16,369.64Z"/><g class="cls-6"><path class="cls-7" d="M279.23,376.75s49.92,16.92,60.56-12.12c0,0,41.09,10.3,23.21-35.85"/></g><path class="cls-7" d="M106.27,412.76a3.15,3.15,0,0,1-1.74-1.26c-12.48-17.68,10.57-43.61,20-53.06-4.45-2.42-8.76-6.46-8-12,1.35-9.84,22.27-21.93,41-27,9.86-2.7,14.61-4.34,16.68-6.92,1.81-2.28,2-6.18.82-15.45-.86-6.64,1.67-10.46,3.95-12.52,7.91-7.1,24.13-3.45,26-3a3.31,3.31,0,0,1-1.54,6.43c-3.76-.9-15.47-2.56-20,1.5-1.61,1.45-2.2,3.64-1.79,6.73,2.72,20.9-1.18,23.85-22.3,29.61-19.69,5.39-35.53,16.77-36.18,21.55-.46,3.45,6.46,6.31,8.34,6.88a3.3,3.3,0,0,1,1.26,5.62c-9.66,8.61-32.55,34-22.77,47.85a3.32,3.32,0,0,1-.79,4.62A3.36,3.36,0,0,1,106.27,412.76Z"/><g class="cls-3"><path class="cls-4" d="M485.49,441.92a135.66,135.66,0,0,0-35.26-62.63c-15.05-15.41-35.54-29.82-63.24-41.71-137.14-58.86-239.84,7.73-283.82,92.76a221,221,0,0,0-17,42.5c-5.73,20.82-6.54,38.63-4.3,53.14-4.38-16-4.86-37.08,2.25-62.8a221.44,221.44,0,0,1,17-42.52c44-85,146.68-151.62,283.83-92.76,27.69,11.89,48.18,26.29,63.23,41.71A135.84,135.84,0,0,1,485.49,441.92Z"/></g><path class="cls-8" d="M422,347.94c10.54-23.27-15.53-41.51-15.53-41.51l-19,20.2,19.06,11.88"/><path class="cls-2" d="M264.1,498.63a57.83,57.83,0,0,1-30.24,32.19c-23.23,10.29-7.23,22.15,2.8,20.42s18.78-3.57,26.27-6.5c0,0,1.78,17.53,11.47,17.84s37.74-28.88,36.39-51.21"/><g class="cls-6"><path class="cls-7" d="M278.55,561.48c-5.65-4.49-6.82-16.07-6.82-16.07a79.58,79.58,0,0,1-8.24,2.68,31,31,0,0,1-.57-3.38c-7.2,2.81-15.58,4.62-25.11,6.3C230,548,225,539.3,242.64,531.5c19.52-8.63,27.59-25.46,29.68-30.63l38.47,10.5C312,531,290.35,556,278.55,561.48Z"/></g><path class="cls-7" d="M102.32,560.66a14,14,0,0,1-4.7-2.47c-16.34-13-30.53-45.88-16.71-95.91a225.43,225.43,0,0,1,17.25-43.16c24.2-46.79,62.79-83,108.66-101.87,53.95-22.26,116-19.61,179.42,7.6,26.1,11.21,47.73,25.49,64.3,42.45,31.46,32.22,39.31,68.84,40.35,93.88,1.07,25.86-4.54,44.6-5.3,47-3.91,21-16.73,23.87-22.3,24.1-5.62,11.58-12.08,18.2-19.75,20.22-6.16,1.63-12.8.12-19.76-4.51-8.92,2.8-24.23,1.08-45.54-5.15a246.34,246.34,0,0,1-43.09-17.42c-59.21-30.15-141.26-33.7-171.72-30.7-24.42,2.4-37.44,16.3-41,43.78a100.73,100.73,0,0,1-2.19,12,14.34,14.34,0,0,1-9.36,10.08A14.15,14.15,0,0,1,102.32,560.66ZM351.11,319.08c-123-37-209.1,29.69-247.08,103.12a218.39,218.39,0,0,0-16.75,41.86c-13,46.9-.29,77.26,14.47,89a7.41,7.41,0,0,0,7,1.22,7.65,7.65,0,0,0,5-5.44,95.44,95.44,0,0,0,2-11.17c4-30.61,19.32-46.81,46.91-49.52,31.1-3.06,114.88.59,175.37,31.42a240.49,240.49,0,0,0,42,17c20.69,6.06,35.92,7.73,42.87,4.76a3.28,3.28,0,0,1,3.23.35c5.81,4.19,11.07,5.7,15.64,4.49,6-1.58,11.47-7.83,16.35-18.54a3.29,3.29,0,0,1,3.52-1.9c.59.09,13.65,1.69,17.39-18.87a3,3,0,0,1,.11-.45c.06-.19,6.16-19.13,5-45.09-1-23.82-8.56-58.64-38.46-89.29-15.95-16.33-36.86-30.12-62.17-41A304.22,304.22,0,0,0,351.11,319.08Z"/><path class="cls-7" d="M155.81,495.9a73.4,73.4,0,0,0-7.57,1.13c-2.55.52-5.09,1.14-7.59,1.89a76.67,76.67,0,0,0-14.51,5.9A56.77,56.77,0,0,0,113.41,514a46.36,46.36,0,0,0-9.33,12.87,47.29,47.29,0,0,1,8.1-14A59.3,59.3,0,0,1,124.42,502,81.4,81.4,0,0,1,139,494.23c2.55-1.05,5.16-2,7.8-2.82a75.22,75.22,0,0,1,8.18-2.09,3.32,3.32,0,0,1,1.24,6.52,1.93,1.93,0,0,1-.33,0Z"/><path class="cls-8" d="M240.65,314.43c-54.52-9.25-71.33-50.54-74.24-82.78-1.6-17.93-2.34-30.1-6.8-39.62-3.56-7.63-9.49-13.56-20.12-19.4C111.83,157.41,119,121,146.1,124.15c23.2,2.69,44.49,22.79,55.06,48.51a90.25,90.25,0,0,1,6.77,40.69c-3.15,42.41,19.82,58.38,19.82,58.38Z"/><g class="cls-3"><path class="cls-4" d="M240.65,314.43q-4.17-.71-8.06-1.66l-10.07-33.31s-23-15.95-19.82-58.38a89.88,89.88,0,0,0-6.76-40.69c-10.57-25.72-31.85-45.79-55.07-48.51-7.36-.86-13.26,1.22-17.39,5,3.18-8.27,11.07-14.07,22.6-12.75,23.23,2.7,44.49,22.79,55.07,48.51a90,90,0,0,1,6.76,40.69c-3.14,42.41,19.82,58.39,19.82,58.39Z"/></g><path class="cls-5" d="M201.17,172.64s-31.4-11.37-41.56,19.39c-3.56-7.63-9.49-13.56-20.12-19.4C111.83,157.41,119,121,146.1,124.15,169.31,126.82,190.6,146.92,201.17,172.64Z"/><g class="cls-6"><path class="cls-7" d="M240.65,314.43c-54.52-9.25-71.33-50.54-74.26-82.78-1.6-17.94-2.34-30.11-6.8-39.62-3.54-7.63-9.47-13.56-20.12-19.41-23.63-13-21.82-41.46-3.91-47.5-5.25,11.25-1.19,28,15.38,37.14,10.65,5.87,16.58,11.8,20.12,19.4,4.46,9.51,5.2,21.69,6.81,39.62,2.62,28.9,16.38,65.09,58.5,78.92Z"/></g><path class="cls-8" d="M382,285.23s62.86,12.49,108.25,3.34c9.09-1.83,17.47-4.51,24.5-8.36,42.23-23,4.29-43.75,4.29-43.75s4.65-9.26-5.64-10.9-12.82,8.65-12.82,8.65a203.57,203.57,0,0,1-21.2,2c-20.37,1-40.88.19-40.88.19"/><path class="cls-5" d="M514.77,280.23a87.31,87.31,0,0,1-24.51,8.33c-21.8-18.73-14.37-43.73-10.89-52.33a203.19,203.19,0,0,0,21.21-2s2.53-10.34,12.83-8.65,5.63,10.9,5.63,10.9S557,257.23,514.77,280.23Z"/><g class="cls-6"><path class="cls-7" d="M514.75,280.22a86.65,86.65,0,0,1-24.49,8.34C444.87,297.71,382,285.22,382,285.22L402,268c6.34.81,13.68,1.58,21.59,2.17,4.48-10.63,12.13-32.09,12.13-32.09l5.07-1.54a99.89,99.89,0,0,0,3.78,22.43,16.76,16.76,0,0,0,16.81,11.87,174,174,0,0,0,25.94-3.05c9.09-1.82,17.47-4.51,24.52-8.35,9.25-5,14.68-10,17.47-14.62C536.42,252.94,540.57,266.18,514.75,280.22Z"/></g><path class="cls-7" d="M381.06,288.39a3.31,3.31,0,0,1-2.29-3.82,3.35,3.35,0,0,1,3.9-2.61c.63.13,62.73,12.28,106.93,3.36,9.3-1.85,17.25-4.55,23.59-8,11.89-6.48,18.21-13.4,18.22-20,0-10.1-13.81-17.85-13.95-17.92A3.31,3.31,0,0,1,516.1,235c.43-.86,1.09-3.08.41-4.34s-2.28-1.59-3.62-1.81c-6.85-1.11-8.77,5-9.1,6.2a3.32,3.32,0,0,1-2.69,2.46,210.34,210.34,0,0,1-21.57,2c-20.27,1-40.95.19-41.18.19a3.31,3.31,0,1,1,.27-6.62c.2,0,20.61.83,40.55-.17,7.27-.37,13.61-.93,18.9-1.67,1.93-4.6,6.83-10.4,15.83-8.94,5.16.84,7.45,3.35,8.46,5.33a10.75,10.75,0,0,1,.63,7.42c4.77,3.18,15,11.25,15,22.23,0,9.32-7.31,18-21.67,25.84-6.91,3.77-15.48,6.69-25.45,8.67C445.33,301,383.92,289,381.32,288.44A.77.77,0,0,1,381.06,288.39Z"/><path class="cls-8" d="M423.18,273.42q-1.14,2.73-2.35,5.51c-9.12,20.84-21.7,42.77-35.92,49,0,0-16.51-5.14-27.79-8.35a25.94,25.94,0,0,1,5.93,9.38v0a12.67,12.67,0,0,1-3.28,13.66c-10.43,10.5-29.85,4.27-29.85,4.27s-13.61,35.94-48.23,28.23a32.89,32.89,0,0,1-20.8-14.37c-4.55-7.24-7.95-18-3.15-32-.78-.4-1.53-.83-2.29-1.29-24.13-14.23-42.28-53.83-12.28-93.58,0,0,39-56.42,127.35-61.05l65.66,63.69A355.09,355.09,0,0,1,423.18,273.42Z"/><g class="cls-3"><path class="cls-4" d="M253.23,326.06c-23-15.28-39.11-53.66-10.06-92.17,0,0,39-56.43,127.35-61l5.78,5.6c-87.5,5.09-126.16,61-126.16,61C224.12,273.91,234.33,308.27,253.23,326.06Z"/></g><path class="cls-5" d="M423.18,273.42c-9.26,22.31-22.75,47.73-38.25,54.49,0,0-16.51-5.14-27.79-8.35v0s0,0,0,0,0,0,.05.06c.19.2.65.68,1.25,1.37a.15.15,0,0,0,.05.06c3.07,3.66,9.5,13.26,1.26,21.54-9.09,9.1-25,5.59-28.94,4.51-.6-.15-.94-.26-.94-.26s-13.61,36-48.22,28.24a32.84,32.84,0,0,1-20.8-14.38c-4.55-7.24-7.95-18-3.16-32-.78-.39-1.52-.82-2.28-1.28.63-.36,1-.55,1-.55s16-14.8,42.1-14.51l12.39-.77,2.49-8.28c5.8-8.5,15.28-10.46,23-10.43a49.62,49.62,0,0,1,10.78,1.28c.88.22,1.36.36,1.41.38l-1.34-32.48s18.2-28.21,43.08-28.33S431.41,248.63,423.18,273.42Z"/><path class="cls-7" d="M278.33,377.68a36.28,36.28,0,0,1-20.24-15.16c-4.28-6.81-8.36-17.78-4.3-32.19-13.62-8-24.24-22.85-28-39.36-3.16-13.85-3.16-35.3,14.72-59,.81-1.18,10.76-15,31.31-29.55,19.32-13.65,52.11-30.43,98.52-32.87a3.31,3.31,0,1,1,.34,6.62c-44.68,2.34-76.22,18.41-94.79,31.48-20.18,14.2-29.91,28-30,28.15s-.05.08-.08.11c-16.38,21.7-16.42,41.14-13.58,53.6,3.56,15.64,13.91,29.55,27,36.31a3.31,3.31,0,0,1,1.61,4c-3.64,10.65-2.7,20.47,2.8,29.19a29.8,29.8,0,0,0,18.71,12.9c31.36,7,43.9-24.85,44.41-26.19a3.28,3.28,0,0,1,4.1-2c.14.05,17.65,5.47,26.52-3.44a9.29,9.29,0,0,0,3.07-6.91c-.07-5.89-5.63-11.39-5.69-11.43a3.31,3.31,0,0,1,3.2-5.57c9.44,2.67,22.61,6.75,26.65,8,26.89-13.47,48.09-88,48.3-88.75a3.31,3.31,0,1,1,6.37,1.77c-.91,3.27-22.85,80.33-53.09,93.55a3.37,3.37,0,0,1-2.32.13c-.13,0-9.43-2.95-18.78-5.71a19.54,19.54,0,0,1,2,7.95,15.86,15.86,0,0,1-5,11.65c-9.27,9.32-24.12,7.25-30.35,5.84C327.5,359.48,312,385.3,281,378.37,280.1,378.16,279.2,377.94,278.33,377.68Z"/><path class="cls-8" d="M434.67,38s16.89-24.88,42.6-34.19a9.87,9.87,0,0,1,11.24,3.43c14.92,19.84,21.62,44,21,71.91"/><g class="cls-3"><path class="cls-4" d="M509,63.13c-2.63-18.22-9.09-34.42-19.66-48.51a9.86,9.86,0,0,0-11.25-3.4C459.52,18,445.52,32.85,439.23,40.56l-4.57-2.5s16.89-24.88,42.6-34.19A9.92,9.92,0,0,1,488.5,7.3C500.47,23.19,507.16,41.89,509,63.13Z"/></g><path class="cls-9" d="M465.28,44.87s4.08-17.47,16.36-26.31a73.2,73.2,0,0,1,13.47,43.22"/><g class="cls-6"><path class="cls-7" d="M495.12,61.81l-3-1.72a72.07,72.07,0,0,0-12.25-29c-5.67,4.05-9.58,10-12.18,15.15L465.3,44.9s4.08-17.47,16.38-26.3A73.41,73.41,0,0,1,495.12,61.81Z"/></g><path class="cls-7" d="M508.56,82.35a3.3,3.3,0,0,1-2.34-3.23C506.81,51.55,500,28,485.86,9.27A6.62,6.62,0,0,0,478.38,7c-24.34,8.82-40.82,32.7-41,33a3.31,3.31,0,0,1-5.47-3.72c.71-1.05,17.8-25.87,44.2-35.43a13.29,13.29,0,0,1,15,4.54c15,20,22.31,44.88,21.7,74a3.33,3.33,0,0,1-3.37,3.24A4.42,4.42,0,0,1,508.56,82.35Z"/><path class="cls-7" d="M494.15,65a3.28,3.28,0,0,1-2.35-3.24A71.19,71.19,0,0,0,481,23.4c-9.12,8.4-12.41,22.06-12.46,22.2a3.3,3.3,0,0,1-6.43-1.49c.18-.75,4.5-18.8,17.65-28.24a3.3,3.3,0,0,1,4.53.64A75.87,75.87,0,0,1,498.4,61.85,3.29,3.29,0,0,1,495,65.09,2.64,2.64,0,0,1,494.15,65Z"/><path class="cls-8" d="M463.84,232.68c-32.92,6.85-65.56,4.54-98-4.34a65.84,65.84,0,0,1-35.71-24.2c-28.81-39.12-9.9-86-9.9-86a172.3,172.3,0,0,1-17.26-74.19,15.47,15.47,0,0,1,13.12-15.3c29-4.14,75.33,16.1,75.33,16.1s42.48-21.38,95.39,10.64c0,0,23.22,14.07,29.76,40.79,4.8,19.57,6.23,31.53,9.7,44a124.41,124.41,0,0,0,4.92,14.3C539,173.53,528.31,219.55,463.84,232.68Z"/><g class="cls-3"><path class="cls-4" d="M531.8,179.23c.74-6.83-.06-13-1.94-17.51-7.82-19-8.07-31.6-14.62-58.32s-29.76-40.78-29.76-40.78a127.82,127.82,0,0,0-23-11c-15.4,6-29.23,4.93-40.73-6.51C402.3,45.83,390.1,52,390.1,52s-46.39-20.23-75.36-16.09A15.3,15.3,0,0,0,302.92,45c0-.37,0-.72,0-1.06A15.48,15.48,0,0,1,316,28.63c29-4.14,75.33,16.1,75.33,16.1s42.5-21.37,95.41,10.65c0,0,23.22,14.07,29.76,40.79s6.82,39.28,14.62,58.32C533.69,160.61,534.28,169.52,531.8,179.23Z"/></g><path class="cls-5" d="M518.94,203.47c4.3-23.43-14.08-32.11-24.17-35.08a25.63,25.63,0,0,1-10.56-6.16,45.18,45.18,0,0,0-31.87-12.64,35,35,0,0,0-24.22,14.57,68.34,68.34,0,0,1-10.65,11.51c-29.8,25.67-28.32,57.77-2.44,60.74C454.71,238.37,490.91,231.33,518.94,203.47Z"/><g class="cls-3"><path class="cls-4" d="M358.9,66s-18.08,11-33.82,41.36c0,0-14.68-27.62-11.54-47a7.1,7.1,0,0,1,7.3-6C327.63,54.65,340.45,56.71,358.9,66Z"/></g><path class="cls-9" d="M363.78,58.71s-18.09,11-33.83,41.36c0,0-14.67-27.62-11.53-47a7.09,7.09,0,0,1,7.29-6C332.51,47.37,345.33,49.45,363.78,58.71Z"/><g class="cls-6"><path class="cls-7" d="M363.76,58.7a61.47,61.47,0,0,0-9.26,7.58c-14.82-6.55-25.36-8.18-31.26-8.45a7.09,7.09,0,0,0-5.26,2,36.38,36.38,0,0,1,.44-6.82,7.08,7.08,0,0,1,7.29-6C332.51,47.37,345.33,49.45,363.76,58.7Z"/></g><path class="cls-7" d="M363.2,231.06a69.26,69.26,0,0,1-35.76-25c-27.13-36.82-13.82-79.49-10.83-87.83a175.8,175.8,0,0,1-17-74.36,18.83,18.83,0,0,1,16-18.55c27.06-3.86,67.62,12.36,75.74,15.77,8.08-3.54,48.1-18.26,97.18,11.43,1,.6,24.46,15.12,31.26,42.83,2.36,9.62,3.91,17.41,5.27,24.29,2.4,12.07,4.29,21.59,9.19,33.54,4.49,11,2.72,26.8-4.53,40.36-8,14.86-25.69,34.28-65.22,42.34-31.93,6.63-64.49,5.2-99.56-4.37ZM364,38.43c-15-4.49-33.48-8.51-47.46-6.5a12.18,12.18,0,0,0-10.29,12,169.77,169.77,0,0,0,16.92,72.76,3.42,3.42,0,0,1,.1,2.68c-.18.45-17.83,45.68,9.51,82.8a62.67,62.67,0,0,0,33.91,23c34,9.31,65.6,10.69,96.48,4.27h0c37-7.55,53.43-25.34,60.7-38.95,7.71-14.45,7.1-27.75,4.25-34.73C523,143.26,521,133.44,518.56,121c-1.36-6.81-2.88-14.54-5.22-24-6.13-25-28-38.62-28.27-38.76-50.6-30.61-91.8-10.71-92.23-10.52a3.4,3.4,0,0,1-2.81.08A243.38,243.38,0,0,0,364,38.43Z"/><path class="cls-7" d="M329,103.21a3.38,3.38,0,0,1-2-1.6c-.61-1.18-15.17-28.83-11.88-49.12a10.37,10.37,0,0,1,10.71-8.73c7.77.36,20.91,2.72,39.41,12a3.3,3.3,0,0,1,1.82,2.83,3.34,3.34,0,0,1-1.58,3c-.23.14-17.57,11-32.6,40.05a3.32,3.32,0,0,1-2.93,1.79A3.64,3.64,0,0,1,329,103.21Zm13.13-49.72a69.72,69.72,0,0,0-16.59-3.12,3.77,3.77,0,0,0-3.88,3.18c-2.11,13,4.53,30.38,8.47,39.23,10.41-18.22,21.24-28.61,27.22-33.49A122.38,122.38,0,0,0,342.14,53.49Z"/><path class="cls-7" d="M362.71,55.58l16.83-2.2-14.71,8.47A3.37,3.37,0,1,1,361.48,56,3,3,0,0,1,362.71,55.58Z"/><path class="cls-7" d="M333.26,100l-3,10.92-3.65-10.7a3.46,3.46,0,0,1,6.55-2.25A3.69,3.69,0,0,1,333.26,100Z"/><path class="cls-10" d="M467.69,179.8a35.74,35.74,0,0,0-1.31,12.41c.29,5-.74,8.35-2.17,10.59a8.88,8.88,0,0,1-10.93,3.2c-11.33-4.74-9.69-20.62-9.69-20.62"/><path class="cls-7" d="M464.14,155.92c-7-1.21-15.29,1.6-18.72,5.2a2.3,2.3,0,0,0,.29,3.4c1.71,1.29,5.12,3,11.57,4a2.36,2.36,0,0,0,1.58-.34,18.68,18.68,0,0,0,7.05-9.16A2.32,2.32,0,0,0,464.14,155.92Z"/><path class="cls-7" d="M432.05,171.14a21.5,21.5,0,0,0,1.76,4.17,12.86,12.86,0,0,0,2.6,3.24,12.28,12.28,0,0,0,7,3,13.88,13.88,0,0,0,7.21-1.1,9.1,9.1,0,0,0,4.66-4.45v0a3.3,3.3,0,0,1,4.38-1.68c.09,0,.2.08.28.13a17.74,17.74,0,0,0,6.24,2.2,12.85,12.85,0,0,0,6.41-.72,10.76,10.76,0,0,0,5.19-4.22c.27-.52.61-1,.85-1.61s.49-1.17.65-1.79.31-1.26.42-1.92.13-1.34.22-2a12.52,12.52,0,0,1,.72,8.55,13.1,13.1,0,0,1-5.64,7.42,16.17,16.17,0,0,1-9.25,2.43,20.07,20.07,0,0,1-9.07-2.61l4.66-1.57a13.74,13.74,0,0,1-3.43,4.84,15.23,15.23,0,0,1-4.89,2.95,17.52,17.52,0,0,1-10.75.43,14.53,14.53,0,0,1-8.46-6.16A13.37,13.37,0,0,1,432.05,171.14Z"/><path class="cls-7" d="M457.58,180.66a3.33,3.33,0,0,1-2.34-2.78l-1.31-11a3.29,3.29,0,1,1,6.54-.8l1.31,11a3.31,3.31,0,0,1-4.2,3.58Z"/><path class="cls-7" d="M453.27,209.48c-.42-.13-.84-.28-1.25-.45-13.46-5.61-11.79-23.27-11.71-24l6.58.69c0,.13-1.22,13.51,7.68,17.23a5.55,5.55,0,0,0,6.86-1.95c1.31-2,1.88-4.93,1.67-8.59a39,39,0,0,1,1.43-13.57l6.33,1.9A32.92,32.92,0,0,0,469.68,192c.3,5.06-.6,9.3-2.68,12.54A12.1,12.1,0,0,1,453.27,209.48Z"/><path class="cls-7" d="M444.49,195.07s10.34-7.78,19.76,3.29l1.17-17.58-6.36-1.52-14.66,6.92Z"/><g class="cls-6"><path class="cls-7" d="M463.84,232.68c-32.92,6.85-65.56,4.54-98-4.34a65.84,65.84,0,0,1-35.71-24.2c-28.81-39.12-9.9-86-9.9-86l15.91-26.6C304.22,230.18,529.3,245,523.09,140l3.16.2a124.26,124.26,0,0,0,4.91,14.3C539,173.53,528.31,219.55,463.84,232.68Z"/></g><path class="cls-7" d="M354.21,321.12a88.59,88.59,0,0,1-7.86-21.2l-.65-2.75-.5-2.77c-.16-.93-.34-1.86-.48-2.77l-.36-2.8c-.27-1.86-.42-3.72-.55-5.6-.06-.94-.17-1.87-.21-2.81s0-1.88.06-2.81a150,150,0,0,1,2.65-22.07,199.24,199.24,0,0,1,5.36-21.3c-1.06,7.21-1.83,14.46-2.18,21.68a146.6,146.6,0,0,0,.51,21.5c.42,3.53.39,7.07.92,10.57l.34,2.63c.13.87.31,1.73.46,2.6l.46,2.61.59,2.57A82.09,82.09,0,0,0,360,318l0,0a3.31,3.31,0,1,1-5.85,3.08Z"/><path class="cls-7" d="M270.42,335.44c3.48-7,8-13.71,14.36-18.89a33.87,33.87,0,0,1,10.88-6,31.69,31.69,0,0,1,12.68-1.44,28.08,28.08,0,0,1,21.6,13.4,27.18,27.18,0,0,1,2.79,6,30.51,30.51,0,0,1,1.37,6.42,41,41,0,0,1-.92,12.69,3.31,3.31,0,1,1-6.45-1.45,34.22,34.22,0,0,0,.81-10.56,20.76,20.76,0,0,0-3.24-9.52,24,24,0,0,0-7.28-7,27.26,27.26,0,0,0-9.48-3.84,27.7,27.7,0,0,0-10.5.13A32.78,32.78,0,0,0,287,319.55C280.52,323.44,275.13,329.19,270.42,335.44Z"/><path class="cls-7" d="M271.31,268.36a48,48,0,0,1,17,2.51,43.21,43.21,0,0,1,15.42,8.92,30.1,30.1,0,0,1,5.68,7.21,49.38,49.38,0,0,1,3.62,8.41,53.56,53.56,0,0,1,2.29,17.75,3.31,3.31,0,0,1-6.62-.2,47.3,47.3,0,0,0-2-15.51,31.52,31.52,0,0,0-3.26-6.92,71.14,71.14,0,0,0-4.48-6.16,43.79,43.79,0,0,0-12.24-9.94,61,61,0,0,0-7.43-3.52A57.44,57.44,0,0,0,271.31,268.36Z"/><path class="cls-7" d="M295.29,246.49a41.46,41.46,0,0,0-1,8.49,41.22,41.22,0,0,0,1.75,12.33,36.49,36.49,0,0,0,1.46,3.78,33.27,33.27,0,0,0,4.06,6.79L296,281.4a39.82,39.82,0,0,1-3.17-8.76,41.59,41.59,0,0,1-.79-4.5,42.36,42.36,0,0,1-.21-4.5,44,44,0,0,1,.9-8.83A38.62,38.62,0,0,1,295.29,246.49Z"/><path class="cls-7" d="M290.33,363.72a11.59,11.59,0,1,0-8.22-14.56A11.84,11.84,0,0,0,290.33,363.72Z"/><path class="cls-7" d="M292.19,333.63a5.25,5.25,0,0,0,3-10c-2.44-.73-5.08.91-5.91,3.66S289.76,332.9,292.19,333.63Z"/><path class="cls-7" d="M314.51,333.15c2.38-3.46,2.14-7.75-.52-9.57s-6.74-.5-9.12,3-2.14,7.76.52,9.58S312.13,336.62,314.51,333.15Z"/><path class="cls-7" d="M321.82,347.55c2.25-2.95,2.23-6.76-.05-8.51s-6-.77-8.22,2.18-2.23,6.76.05,8.51S319.56,350.5,321.82,347.55Z"/><path class="cls-7" d="M507.36,268.8c4.83.33,9-4,9.44-9.72s-3.21-10.58-8-10.91-9,4-9.44,9.72S502.54,268.47,507.36,268.8Z"/><path class="cls-7" d="M226.34,314.48c-18.9-5.68-33.93-16-44.82-30.88-12.94-17.63-17.14-37.82-18.39-51.67l-.4-4.49c-2.52-28.46-3.56-40.24-24.82-51.94-17.68-9.74-21.71-26.74-18-38.42,3.62-11.33,14.05-17.7,26.55-16.24,17.53,2,34.82,13.55,47.42,31.59s18.89,40.26,17.34,61.13c-3,39.82,17.56,54.81,18.43,55.42a3.31,3.31,0,0,1-3.79,5.42c-1-.7-24.5-17.54-21.24-61.34,3-40.16-25.63-81.8-58.91-85.66-9.5-1.1-16.8,3.26-19.49,11.69-3,9.2.45,22.7,14.85,30.62,24.36,13.4,25.66,28,28.23,57.16l.4,4.47c2.32,25.68,14.68,70.19,71.5,79.81a3.3,3.3,0,0,1-1.11,6.51A107.12,107.12,0,0,1,226.34,314.48Z"/><g class="cls-6"><path class="cls-7" d="M435.66,238.26s-8.87,24.3-14.81,40.68c-9.11,20.83-21.69,42.77-35.92,49,0,0-16.51-5.14-27.79-8.35a25.94,25.94,0,0,1,5.93,9.38c-13.59-15.83-14.62-37.3-14.62-37.3s-.72-.44-1.86-1.11c.08-.27.14-.53.19-.79.36.2.71.42,1.1.63,37.93,21.8,56.81-38.25,56.81-38.25-64.84,5.07-78.12-50.33-78.12-50.33C352.45,232.68,390.1,242.55,435.66,238.26Z"/></g><g class="cls-6"><path class="cls-7" d="M294.08,251.15l2.28-8.28s-18.72,3.68-26.44,25.54l23.8,5.68.68-2.26"/></g><g class="cls-6"><path class="cls-7" d="M359.79,342.62c-9.09,9.1-25,5.6-29,4.52,5.26-16.25-10.54-30-10.54-30s24.55,12.47,17.17-18.53c-.45-1.94-.81-3.81-1.08-5.67-4.06-28.16,12.31-48.79,12.31-48.79-5.15,17.83-5.34,34.47-1.54,50.1a104.36,104.36,0,0,0,9.95,25.34l0,0s0,0,0,0,0,0,0,.06c.17.22.62.7,1.25,1.37a.1.1,0,0,0,.05.06C361.59,324.74,368,334.34,359.79,342.62Z"/></g><g class="cls-6"><path class="cls-7" d="M312,312.18c-10.31-2.52-21.43,2.31-33,10.85,23.65-30.6,10.9-46.09,10.9-46.09C305.4,282.64,311.49,295.32,312,312.18Z"/></g><g class="cls-6"><path class="cls-7" d="M256.37,343.12c14.82,31.67,74.77-.11,62-27.52,0,0,28.36,29.23.48,50.41s-50,5.31-57.61-3.11-4.92-21.49-4.92-21.49"/></g><path class="cls-10" d="M436.82,511.93s-10.35,20.26.29,25.07,13.65-11,13.65-11A31.55,31.55,0,0,1,436.82,511.93Z"/><path class="cls-7" d="M437.58,540.71a14.48,14.48,0,0,1-1.84-.69,11,11,0,0,1-5.92-6.5c-3.06-8.75,3.33-21.63,4.07-23.09a3.31,3.31,0,0,1,5.92.05A28.4,28.4,0,0,0,452.13,523a3.3,3.3,0,0,1,1.9,3.63c-.19,1-2.11,10.17-8.41,13.43A10.44,10.44,0,0,1,437.58,540.71Zm-.16-21.58c-1.38,4-2.47,9-1.35,12.22a4.24,4.24,0,0,0,2.4,2.65c2.17,1,3.37.6,4.08.24,2.09-1.08,3.56-4.2,4.34-6.55A35.78,35.78,0,0,1,437.42,519.13Z"/><path class="cls-7" d="M433.52,512.18l2.16-16.06,4.42,15.6a3.38,3.38,0,1,1-6.5,1.87A4,4,0,0,1,433.52,512.18Z"/><path class="cls-7" d="M454.23,531a30.67,30.67,0,0,1-5-2,3.3,3.3,0,1,1,3-5.89,23.8,23.8,0,0,0,9.19,2.51,3.31,3.31,0,1,1-.44,6.61A32.89,32.89,0,0,1,454.23,531Z"/><path class="cls-7" d="M421.34,545.82l-2.68-12.25,8.55,9.18Z"/><path class="cls-7" d="M357.64,391.87a166.87,166.87,0,0,0-19.34,30.29,143.61,143.61,0,0,0-6.84,16.31,141.86,141.86,0,0,0-4.77,16.85,79.75,79.75,0,0,0,.35,34.62,83.11,83.11,0,0,0,5.71,16.48,84,84,0,0,0,4,7.77,43.56,43.56,0,0,0,2.31,3.73l2.39,3.69.12.2a3.3,3.3,0,1,1-5.54,3.58l-2.56-3.92c-.82-1.31-1.72-2.59-2.44-4-1.5-2.73-3.08-5.44-4.31-8.32a88.11,88.11,0,0,1-6.13-17.75A92.28,92.28,0,0,1,320,454a83,83,0,0,1,5.2-18,115.17,115.17,0,0,1,8.62-16.44,128.3,128.3,0,0,1,10.91-14.85A106.37,106.37,0,0,1,357.64,391.87Z"/><path class="cls-2" d="M276.29,471S210.38,495,184.47,490.56s-18.69-23.39-9-33.91a38.78,38.78,0,0,0,2.53-3.06c6.4-8.74,2.82-14.9-5.11-29.19a25.35,25.35,0,0,1-3.32-9.1c-.44-3.52.57-5.81,1.87-7.29a7.76,7.76,0,0,1,5.09-2.54C234.55,398.92,283.2,448,283.2,448A49.44,49.44,0,0,0,276.29,471Z"/><g class="cls-3"><path class="cls-4" d="M283.19,448.07A53.92,53.92,0,0,0,280,454.4c-11.17-10.15-54.07-45.54-103.88-39.92a7.92,7.92,0,0,0-5.09,2.54,8.22,8.22,0,0,0-.91,1.25c-1.57-5.26-.37-8.4,1.24-10.25a7.83,7.83,0,0,1,5.09-2.54C234.55,398.94,283.19,448.07,283.19,448.07Z"/></g><path class="cls-7" d="M178.37,492.55c-7.52-2.26-12.3-6.21-14.21-11.8-3.07-9,2.58-19.51,8.87-26.35,8-8.64,5.89-12.32-2.74-27.83L170,426c-6-10.81-3.9-16.92-1.06-20.17a11.24,11.24,0,0,1,7.21-3.66c59-6.64,107.37,41.49,109.4,43.55a3.28,3.28,0,0,1,.5,4,46,46,0,0,0-6.46,21.5,3.32,3.32,0,0,1-2.17,2.92c-2.72,1-67,24.17-93.5,19.69A52.39,52.39,0,0,1,178.37,492.55Zm39.37-79.65a102,102,0,0,0-40.87-4.13,4.71,4.71,0,0,0-3,1.43c-2,2.32-1.37,6.8,1.86,12.6l.31.56c8.66,15.56,13,23.38,1.82,35.54-5.16,5.61-9.46,13.87-7.47,19.72,1.5,4.37,6.4,7.29,14.61,8.7,22.27,3.79,76.94-14.75,88.13-18.66a52.29,52.29,0,0,1,5.9-19.94C272.54,442.68,248.76,422.23,217.74,412.9Z"/><path class="cls-7" d="M280.83,445.75l13.8-9.37-9.07,14a3.38,3.38,0,0,1-5.66-3.68A3.78,3.78,0,0,1,280.83,445.75Z"/><path class="cls-7" d="M279.58,470.59c-.09,1.37-.1,2.92-.06,4.4s.1,3,.22,4.49a40.87,40.87,0,0,0,1.58,8.9,41.69,41.69,0,0,1-4.77-8q-1-2.14-1.87-4.34c-.59-1.49-1.13-2.92-1.63-4.52l0-.06a3.37,3.37,0,0,1,6.43-2A3.76,3.76,0,0,1,279.58,470.59Z"/><path class="cls-7" d="M85,695.88a3.52,3.52,0,0,1-1.36-.78c-.65-.61-15.59-15-2.28-43.6a57.39,57.39,0,0,0,4.94-34.43,54.84,54.84,0,0,0-3.83-12.67c-9.73-22,2.46-49.32,9.82-56.11a3.3,3.3,0,0,1,4.48,4.85c-5.42,5-16.67,29.5-8.25,48.59a63.08,63.08,0,0,1,4.28,14.18c2.27,12.61.39,25.88-5.44,38.4-5.92,12.73-5.49,21.93-3.69,27.84,2.62-7.5,9.59-18.37,26.88-32.08,30.29-24,25.21-65.18,25.16-65.61a3.3,3.3,0,0,1,1.41-3.17,3.34,3.34,0,0,1,3.46-.17c25.22,13.77,48.76,15,70,3.76a74.86,74.86,0,0,0,18.15-13.65c-15.89,1.39-33.11-7.81-57-20.59l-7.5-4c-29.87-15.84-42.86-7.33-43-7.26a3.32,3.32,0,0,1-4.6-.8,3.28,3.28,0,0,1,.73-4.57c.65-.48,16-11.26,49.95,6.77,2.59,1.37,5.09,2.7,7.53,4,27.45,14.68,45.58,24.38,61.66,17.77a3.29,3.29,0,0,1,4,4.89,79.28,79.28,0,0,1-26.84,23.22c-15.19,8.07-39.54,14.11-71-1.07.37,13.19-1.76,44.76-28,65.6C85.45,678.35,89,691.45,89,691.59a3.26,3.26,0,0,1-1.28,3.85A3.08,3.08,0,0,1,85,695.88Z"/><path class="cls-7" d="M229.13,553.85c-4.65-1.39-8.83-4.49-10.15-8.83-1.12-3.69-.85-10.87,13.55-17.25,21.51-9.53,28.37-30,28.43-30.18a3.32,3.32,0,0,1,4.1-2.15l.07,0a3.31,3.31,0,0,1,2.13,4.14,60.75,60.75,0,0,1-32.06,34.21c-6.9,3.05-10.69,6.61-9.88,9.27.9,3,6.64,5.57,10.77,4.85,8.84-1.53,18-3.35,25.64-6.31a3.29,3.29,0,0,1,4.49,2.75c.4,3.81,2.77,14.69,8.28,14.88,1.85.07,7.22-2.55,14.48-10,9-9.28,19.28-24.71,18.51-37.67a3.31,3.31,0,1,1,6.61-.41c.92,15.1-9.92,31.94-20.38,42.68-3.59,3.69-12.65,12.23-19.43,12-9-.3-12.64-10.71-14-16.7a163.48,163.48,0,0,1-23.12,5.3A17.58,17.58,0,0,1,229.13,553.85Z"/><path class="cls-7" d="M297.91,507.5a12.43,12.43,0,0,1-.74,1.23c-.25.38-.5.73-.74,1.09-.5.73-1,1.37-1.56,2a50.27,50.27,0,0,1-3.38,3.73,51.4,51.4,0,0,1-7.64,6.29,53.39,53.39,0,0,1-8.53,4.69c-1.43.72-3,1.2-4.47,1.79s-3.06.92-4.56,1.39c1.41-.73,2.85-1.38,4.23-2.16s2.75-1.55,4-2.48a50.4,50.4,0,0,0,7.23-5.83,46.06,46.06,0,0,0,5.94-6.95c.87-1.23,1.64-2.49,2.38-3.79.34-.66.71-1.31,1-2a7.55,7.55,0,0,0,.43-1,6.85,6.85,0,0,0,.33-.87Z"/><path class="cls-7" d="M421,351.1a3,3,0,0,1-.42-.14,3.32,3.32,0,0,1-1.65-4.39c9.3-20.53-14.17-37.28-14.4-37.44a3.3,3.3,0,1,1,3.79-5.4c9.79,6.86,25.88,25.21,16.64,45.6A3.33,3.33,0,0,1,421,351.1Z"/><g class="cls-6"><path class="cls-7" d="M178,453.59c6.4-8.74,2.82-14.9-5.11-29.19a25.35,25.35,0,0,1-3.32-9.1l1-2.91c.47.33,14.72,27.63,40,30.43S193.07,442.58,178,453.59Z"/></g><g class="cls-6"><path class="cls-7" d="M174.19,458.11s-.13,24.12,23.73,13.65S277,460.62,277,460.62s5.16,10.09-12.1,14.9S218.86,488,211,489.17s-42.82,4.51-43.48-8.86A34.57,34.57,0,0,1,174.19,458.11Z"/></g><g class="cls-6"><path class="cls-7" d="M461.23,528.92c-.06.12-.09.22-.15.34-20.81-5-22.78-22.2-22.78-22.2,21.2,21.34,29.44-18.64,29.44-18.64,18.56-57.56-27.35-123.26-27.35-123.26l6,2.62c.61.63,1.24,1.23,1.84,1.85,59.5,60.94,34.21,137.72,34.21,137.72C478,531.64,461.23,528.92,461.23,528.92Z"/></g><g class="cls-6"><path class="cls-7" d="M233.05,571.47C221.47,584.18,188.87,611.29,139,584a73.47,73.47,0,0,1,.36,10.54,87.87,87.87,0,0,1-14.84-32.92C169.13,594,231.48,572,233.05,571.47Z"/></g><g class="cls-6"><path class="cls-7" d="M85.89,692.67c-.38-.34-13.79-13.4-1.51-39.78a60.89,60.89,0,0,0,5.19-36.41,58.1,58.1,0,0,0-4.07-13.42c-6.45-14.63-2.47-31.87,2.74-42.77,1.22,6.82,6.76,33.81,18.62,44.38,13.62,12.15-16.07,49.78-10.27,63C83,683.34,85.73,692.21,85.89,692.67Z"/></g><path class="cls-7" d="M429.53,452.86c7-12,5.92-25.59-2.34-30.38s-20.59,1-27.55,13-5.92,25.59,2.34,30.38S422.57,464.84,429.53,452.86Z"/><path class="cls-5" d="M424.26,427.55c-3.28-.13-6.44,3.57-7.07,8.28s1.52,8.63,4.8,8.77,6.44-3.57,7.07-8.29S427.54,427.68,424.26,427.55Z"/><path class="cls-11" d="M402.49,450.11c-1.74.35-3,2.62-2.79,5.08s1.77,4.14,3.53,3.78,3-2.63,2.8-5.08S404.23,449.76,402.49,450.11Z"/><path class="cls-7" d="M379.17,152.58a16.07,16.07,0,0,1-.05-8.86,22,22,0,0,1,4-8.18,23,23,0,0,1,7.4-6.16,21.37,21.37,0,0,1,9.57-2.35,23.71,23.71,0,0,1,4.84.47,22.26,22.26,0,0,1,4.72,1.6,20.25,20.25,0,0,1,7.42,6A25,25,0,0,1,421.2,143a24.51,24.51,0,0,1,1.2,8.42c-2.79-4.83-6-9.08-9.76-11.94a18.18,18.18,0,0,0-5.9-3,12.59,12.59,0,0,0-3.07-.49l-1.62-.07c-.53,0-1.09,0-1.61.07a19.58,19.58,0,0,0-11.62,4.79,42.39,42.39,0,0,0-5,5.15A47.2,47.2,0,0,0,379.17,152.58Z"/><path class="cls-7" d="M480,144a12.07,12.07,0,0,1-1.9-6.33,16.29,16.29,0,0,1,1.19-6.71,17.3,17.3,0,0,1,4-6,15.7,15.7,0,0,1,6.38-3.68,16.07,16.07,0,0,1,7.27-.53,15.38,15.38,0,0,1,6.59,2.76,19,19,0,0,1,4.58,4.81,18.54,18.54,0,0,1,2.62,5.79,30.09,30.09,0,0,0-9.51-6.52,13.06,13.06,0,0,0-4.84-.91,10.69,10.69,0,0,0-2.32.3,16.63,16.63,0,0,0-2.32.66,14.58,14.58,0,0,0-7.31,5.88,30.75,30.75,0,0,0-2.54,4.74A38.46,38.46,0,0,0,480,144Z"/></svg>