<svg width="638" height="611" viewBox="0 0 638 611" fill="none" xmlns="http://www.w3.org/2000/svg">
<ellipse cx="325" cy="299.5" rx="313" ry="299.5" fill="#B0A2D7"/>
<g clip-path="url(#clip0_243_3847)">
<path d="M525.328 467.774C525.402 469.907 525.421 471.983 525.346 474.04C524.692 491.387 517.998 506.166 502.459 517.19L488.509 485.951L443.819 385.855C438.041 371.793 436.209 357.844 438.135 345.235C440.659 328.511 449.765 314.11 464.855 304.823C476.112 297.914 489.388 294.951 502.496 296.291C504.385 296.48 506.18 296.763 507.882 297.103C538.51 303.313 536.79 332.607 517.212 340.233C505.282 345.952 497.223 353.314 494.961 363.167C493.315 370.283 494.699 378.701 499.822 388.724C501.374 391.744 502.926 394.802 504.366 397.878C516.053 423.19 524.486 447.086 525.328 467.774Z" fill="#8C8CAA"/>
<path d="M519.419 340.252C507.47 345.971 499.43 353.333 497.148 363.185C492.754 336.25 458.89 332.815 440.322 345.235C442.865 328.511 451.953 314.11 467.062 304.823C478.318 297.914 491.595 294.951 504.703 296.291C540.848 300.047 540.081 332.211 519.419 340.252Z" fill="white"/>
<g opacity="0.3">
<path d="M504.366 397.916C516.053 423.209 524.486 447.105 525.346 467.774C525.178 467.944 525.028 468.076 524.879 468.227C516.464 476.173 488.734 405.617 488.734 405.617C488.734 405.617 484.676 395.783 478.131 363.185C471.587 330.588 487.481 328.153 503.693 315.563C513.884 307.654 511.266 300.991 507.919 297.141C538.548 303.35 536.827 332.645 517.25 340.271C505.32 345.99 497.26 353.351 494.998 363.204C493.352 370.32 494.736 378.739 499.86 388.762C501.374 391.782 502.926 394.821 504.366 397.916Z" fill="#000072"/>
</g>
<g opacity="0.3">
<path d="M525.347 474.04C524.692 491.387 517.998 506.166 502.459 517.189L488.51 485.951C500.963 481.93 513.884 477.778 525.347 474.04Z" fill="#000072"/>
</g>
<path d="M504.647 520.493C503.618 520.493 502.608 520.002 501.973 519.096C500.926 517.605 501.299 515.547 502.777 514.49C531.311 494.275 531.554 459.827 503.599 399.313C502.178 396.255 500.626 393.216 499.13 390.272C493.278 378.833 491.782 368.603 494.717 359.863C497.784 350.709 505.413 343.329 518.054 337.288C518.129 337.251 518.203 337.213 518.278 337.194C526.431 334.004 531.386 326.152 530.32 318.073C528.993 308.05 519.307 301.142 504.422 299.613C492.006 298.33 479.347 301.199 468.819 307.673C443.894 323 436.152 353.181 449.092 384.59C449.784 386.27 448.999 388.214 447.334 388.913C445.67 389.611 443.744 388.818 443.052 387.138C428.804 352.559 437.574 319.149 465.416 302.029C477.159 294.8 491.258 291.61 505.095 293.045C526.412 295.253 535.444 306.956 536.809 317.205C538.286 328.285 531.685 339.006 520.765 343.31C509.882 348.538 503.394 354.635 500.944 361.996C498.569 369.056 499.897 377.323 504.983 387.252C506.516 390.253 508.106 393.348 509.583 396.538C523.102 425.776 529.853 448.068 530.806 466.698C532.022 490.103 524.093 507.506 506.591 519.908C505.956 520.285 505.301 520.493 504.647 520.493Z" fill="#000072"/>
<path d="M390.62 380.135C389.91 379.192 371.136 358.901 371.136 358.901L364.33 365.281L360.889 389.328" fill="#9191B7"/>
<path d="M495.278 500.164C495.204 500.202 495.129 500.22 495.054 500.239L494.306 498.994C494.643 499.371 494.961 499.767 495.278 500.164Z" fill="#8C8CAA"/>
<path d="M495.278 500.164C495.204 500.202 495.129 500.22 495.054 500.239L494.306 498.994C494.643 499.371 494.961 499.767 495.278 500.164Z" fill="#8C8CAA"/>
<path d="M560.725 559.206C555.564 563.245 548.57 566.303 540.698 568.889L520.522 580.818C519.662 581.328 518.802 581.8 517.904 582.234C515.455 583.48 512.893 584.48 510.256 585.235C474.242 595.484 424.447 592.861 371.23 587.047C334.393 593.238 300.81 592.842 270.873 585.216C270.555 585.141 270.256 585.065 269.938 584.971C270.798 587.179 271.396 589.576 271.77 592.162C271.826 592.672 271.883 593.163 271.845 593.654C271.808 597.24 269.788 600.524 266.535 602.166C265.656 602.6 264.758 603.016 263.842 603.412C250.379 609.112 232.503 608.697 212.139 604.809C210.344 604.469 208.531 604.092 206.717 603.695C205.614 603.45 204.492 603.28 203.37 603.148C177.584 599.958 166.421 583.14 178.257 544.898C178.369 544.483 178.5 544.049 178.65 543.634L241.198 491.009L362.049 389.347C383.309 382.589 409.357 381.872 431.384 394.669L429.028 390.762C437.91 384.703 451.205 384.061 464.968 390.007C478.281 395.783 492.025 407.712 502.609 426.871C503.338 423.794 504.254 420.925 505.32 418.264C508.667 409.864 513.529 403.484 519.026 399.086C519.494 398.69 519.98 398.331 520.447 397.991C526.992 393.216 534.284 391.14 540.867 391.725C548.664 392.386 555.47 396.765 558.855 404.711C561.772 411.582 561.23 419.453 557.808 426.078L541.035 458.6L532.302 475.494C523.757 488.914 510.518 495.917 495.316 500.202C494.998 499.805 494.68 499.409 494.344 499.012L495.092 500.258C495.166 500.239 495.241 500.22 495.316 500.183C496.419 501.542 497.448 502.976 498.42 504.486C503.525 512.32 507.04 522.022 508.386 533.29C508.835 532.762 509.303 532.252 509.77 531.78C509.77 531.78 509.77 531.761 509.789 531.761C524.168 516.529 541.558 514.018 553.713 518.907C568.26 524.721 575.31 541.218 560.725 559.206Z" fill="#8C8CAA"/>
<g opacity="0.55">
<path d="M434.563 395.311C457.021 391.914 479.684 402.144 502.59 431.571C481.385 392.046 457.638 378.701 431.366 391.159L434.563 395.311Z" fill="white"/>
</g>
<path d="M429.907 390.158L431.366 394.651L429.01 390.743C429.309 390.555 429.608 390.347 429.907 390.158Z" fill="white"/>
<g opacity="0.55">
<path d="M420.67 494.256C463.659 479.269 494.063 491.651 508.2 539.387C508.2 492.67 460.125 465.037 420.67 494.256Z" fill="white"/>
</g>
<path d="M560.725 559.206C555.564 563.245 548.57 566.303 540.698 568.889L520.522 580.818C519.662 581.328 518.802 581.8 517.904 582.234C531.498 567.908 523.476 546.333 509.751 531.742C509.751 531.742 509.751 531.723 509.77 531.723C541.371 498.22 587.502 526.193 560.725 559.206Z" fill="white"/>
<path d="M474.598 485.101C461.228 478.835 447.447 482.497 447.447 482.497C425.905 488.669 410.778 497.068 393.5 514.415C373.118 534.857 346.566 548.088 318.013 551.165C285.383 554.676 256.624 545.106 230.521 526.608L241.179 490.99L362.03 389.328C383.291 382.57 409.338 381.853 431.366 394.651C461.938 416.244 475.364 446.917 474.598 485.101Z" fill="white"/>
<path d="M557.77 426.04L540.997 458.563C539.987 441.952 522.167 429.627 503.73 429.702C503.73 429.702 503.319 424.757 505.301 418.245C507.115 412.28 510.948 404.994 519.007 399.067C519.493 398.709 519.961 398.35 520.428 397.973C534.733 387.553 552.572 390.026 558.836 404.692C561.753 411.544 561.192 419.415 557.77 426.04Z" fill="white"/>
<path d="M166.346 264.92C173.919 233.663 184.072 205.312 203.351 187.21C208.961 181.944 217.674 181.982 223.321 187.21C247.555 209.672 264.496 238.363 274.108 273.263" fill="#8C8CAA"/>
<g opacity="0.55">
<path d="M245.124 211.767C240.057 205.52 234.578 199.649 228.632 194.138C222.985 188.909 214.271 188.89 208.661 194.157C190.692 211.012 180.65 236.758 173.246 265.468L166.346 264.92C173.919 233.682 184.072 205.312 203.351 187.21C208.961 181.963 217.693 181.982 223.321 187.21C231.418 194.704 238.692 202.896 245.124 211.767Z" fill="white"/>
</g>
<path d="M364.33 379.135C360.721 400.823 349.203 420.416 335.235 439.366L283.962 492.991C258.045 513.509 230.371 528.59 201.126 538.821C199.742 539.311 198.34 539.764 196.937 540.161C184.503 543.86 171.395 544.899 158.567 542.898C130.051 538.462 110.436 522.55 101.349 487.687C99.7965 481.685 97.3657 475.966 94.1308 470.7C87.7918 460.412 81.6212 449.087 78.3489 439.348C42.8583 422.567 18.2505 402.729 4.91822 379.739C2.41256 375.417 2.74914 369.962 5.89056 366.092C19.279 349.652 46.4672 336.458 91.0454 327.53C144.805 252.727 229.043 228.415 301.39 293.309C305.204 296.725 309.337 299.783 313.75 302.35C328.484 310.844 341.499 320.093 352.138 330.456C353.073 331.362 354.008 332.305 354.925 333.249C360.31 338.798 363.732 345.952 364.779 353.653C365.938 362.487 365.695 370.962 364.33 379.135Z" fill="#8C8CAA"/>
<g opacity="0.55">
<path d="M360.422 340.629C360.235 340.422 360.029 340.195 359.824 339.988C348.716 328.511 334.692 318.338 318.649 309.089C314.236 306.54 310.084 303.483 306.289 300.047C233.961 235.154 149.723 259.465 95.9631 334.268C51.3849 343.215 24.1967 356.409 10.8082 372.85C7.66681 376.738 7.33023 382.174 9.83589 386.497C10.8082 388.195 11.8554 389.856 12.9586 391.517C9.92938 387.686 7.25544 383.76 4.93677 379.739C2.43112 375.417 2.7677 369.962 5.90912 366.092C19.2975 349.652 46.4858 336.458 91.064 327.53C144.823 252.727 229.062 228.415 301.408 293.309C305.223 296.725 309.355 299.783 313.768 302.35C329.812 311.599 343.817 321.754 354.943 333.249C357.075 335.458 358.926 337.949 360.422 340.629Z" fill="white"/>
</g>
<path d="M364.33 379.135C360.721 400.823 349.203 420.415 335.235 439.366L283.962 492.991C258.045 513.509 230.371 528.59 201.126 538.821C199.742 539.311 198.34 539.764 196.937 540.161C180.95 523.267 183.755 503.392 200.172 481.383C204.473 475.588 206.567 468.434 206.044 461.205L204.735 442.877C204.267 436.365 206.362 429.929 210.55 424.946L210.681 424.795C212.757 422.322 213.205 418.887 211.915 415.98C208.325 407.882 209.372 401.351 215.057 397.029C220.386 392.895 226.313 394.745 230.708 397.557C232.858 398.935 235.532 399.162 237.925 398.275L245.985 395.273C252.454 392.857 259.579 392.839 266.086 395.236L269.396 396.463C273.229 397.878 277.418 397.803 281.232 396.293C286.337 394.254 294.097 390.441 303.259 383.646C319.808 371.396 346.379 353.974 364.33 379.135Z" fill="white"/>
<path d="M253.726 263.523L201.07 256.294C202.603 235.852 205.614 217.015 214.084 204.085C215.767 201.518 219.376 201.254 221.47 203.5C237.271 220.299 247.593 240.59 253.726 263.523Z" fill="#F47DEE"/>
<g opacity="0.3">
<path d="M253.726 263.523L243.965 262.183C237.85 247.536 229.567 234.285 218.665 222.658C216.571 220.431 212.962 220.695 211.279 223.262C206.717 230.208 203.744 238.872 201.724 248.574C203.444 231.152 206.679 215.353 214.084 204.066C215.767 201.499 219.376 201.235 221.47 203.481C237.271 220.299 247.593 240.59 253.726 263.523Z" fill="#000072"/>
</g>
<path d="M74.3844 361.487C69.0552 379.041 69.747 398.18 74.3844 418.339C55.3489 410.695 39.6605 399.841 29.4135 383.703C28.2167 381.815 28.6842 379.286 30.4793 377.984C42.2035 369.527 57.1253 364.299 74.3844 361.487Z" fill="#F47DEE"/>
<g opacity="0.3">
<path d="M74.3845 361.487C73.0195 365.998 72.0471 370.622 71.4301 375.322C57.6303 378.342 45.5882 383.155 35.7712 390.271C35.3973 390.536 35.0981 390.838 34.8363 391.196C32.8729 388.837 31.0591 386.345 29.3949 383.722C28.1982 381.853 28.6656 379.305 30.4607 378.003C42.2037 369.527 57.1254 364.299 74.3845 361.487Z" fill="#000072"/>
</g>
<path d="M263.524 425.852C271.508 447.067 256.082 456.977 240.038 447.804L250.285 435.327L263.524 425.852Z" fill="#EF3062"/>
<path d="M334.113 438.498C338.881 430.948 343.574 423.398 347.688 415.602C351.802 407.807 355.448 399.822 357.991 391.517C360.515 383.212 362.067 374.662 362.161 366.036C362.198 364.96 362.105 363.884 362.105 362.808C362.067 361.732 362.067 360.656 361.993 359.58L361.675 356.371C361.563 355.314 361.488 354.182 361.301 353.219C360.665 349.199 359.225 345.329 357.206 341.837C356.177 340.101 354.981 338.459 353.653 336.93C353.335 336.533 352.98 336.194 352.624 335.816C352.269 335.439 351.858 335.042 351.484 334.665C350.717 333.891 349.951 333.136 349.146 332.381C346.005 329.38 342.714 326.511 339.292 323.792C332.467 318.337 325.193 313.411 317.676 308.843C315.788 307.711 313.899 306.597 311.992 305.502C309.954 304.332 307.99 303.067 306.083 301.727C304.176 300.368 302.324 298.934 300.548 297.424C298.734 295.838 297.145 294.517 295.462 293.082C292.19 290.175 288.655 287.608 285.196 284.966L279.811 281.266C278.932 280.625 277.997 280.077 277.062 279.511L274.276 277.812C266.815 273.357 259.036 269.488 250.921 266.525C242.806 263.561 234.372 261.523 225.846 260.447C208.755 258.276 191.253 260.239 174.873 265.77C166.682 268.544 158.754 272.112 151.181 276.396C143.627 280.7 136.446 285.683 129.64 291.176C116.008 302.142 104.135 315.299 93.6818 329.474L93.6444 329.531C93.1395 330.191 92.429 330.625 91.681 330.776C75.0951 334.193 58.6026 338.383 43.1199 344.838C35.3973 348.085 27.9364 351.917 21.1674 356.636C17.839 359.052 14.5854 361.581 11.7805 364.525C11.0326 365.224 10.3781 365.998 9.72364 366.753C9.06918 367.508 8.30252 368.319 7.94724 368.886C7.08709 370.169 6.61962 371.698 6.54483 373.265C6.47003 374.831 6.84401 376.417 7.57327 377.795C7.72286 378.097 8.05944 378.607 8.30252 379.041L9.12528 380.362C9.68624 381.23 10.1911 382.155 10.7895 382.986C11.9675 384.684 13.1081 386.44 14.4171 388.063C15.0528 388.894 15.6699 389.724 16.3244 390.536L18.3438 392.933C23.7478 399.294 29.9185 405.013 36.5005 410.242C49.6832 420.68 64.4367 429.136 79.7137 436.403H79.7324C80.5552 436.799 81.1535 437.517 81.4527 438.328C83.2852 443.557 85.7348 448.672 88.3526 453.693C90.9892 458.714 93.8875 463.659 96.898 468.529C100.133 473.663 102.695 479.344 104.396 485.215L105.593 489.405C106.004 490.745 106.341 492.123 106.79 493.444C107.743 496.068 108.585 498.748 109.744 501.278C110.754 503.882 112.1 506.298 113.334 508.771L115.466 512.301C115.803 512.905 116.195 513.471 116.607 514.018L117.803 515.679C121.02 520.077 124.797 524.022 129.079 527.326C133.342 530.648 138.185 533.177 143.271 535.14C148.357 537.122 153.705 538.462 159.165 539.387C170.048 541.123 181.286 540.576 192.038 537.952C194.731 537.292 197.386 536.518 200.023 535.612C202.697 534.649 205.389 533.724 208.044 532.686C213.374 530.685 218.628 528.496 223.808 526.136C229.006 523.815 234.129 521.342 239.197 518.699C244.283 516.132 249.257 513.32 254.212 510.489C264.085 504.751 273.659 498.465 283.121 491.915C283.756 491.462 284.635 491.632 285.065 492.274C285.477 492.878 285.364 493.671 284.841 494.143C276.146 501.863 266.853 508.922 257.092 515.245C247.331 521.606 237.103 527.269 226.538 532.176C221.246 534.63 215.898 536.914 210.457 539.028C207.745 540.104 205.015 541.086 202.266 542.086C199.462 543.068 196.601 543.936 193.702 544.672C182.128 547.598 169.973 548.296 158.1 546.522C152.209 545.597 146.338 544.181 140.672 542.029C135.025 539.859 129.546 536.971 124.703 533.196C119.823 529.458 115.56 524.966 111.951 520.04L110.623 518.171C110.174 517.548 109.744 516.925 109.37 516.265L107.033 512.357C105.668 509.658 104.209 506.978 103.125 504.184C101.872 501.429 100.956 498.578 99.9459 495.747C99.4598 494.331 99.1045 492.878 98.6744 491.443C98.263 490.009 97.833 488.537 97.4964 487.253C96.0192 481.968 93.8314 476.966 90.9518 472.266C87.9225 467.264 85.0055 462.168 82.3129 456.902C79.6202 451.635 77.1894 446.218 75.2634 440.461L76.9837 442.386H76.965C61.3701 434.968 46.2052 426.305 32.4802 415.432C25.6364 409.996 19.1666 403.994 13.426 397.255L11.2944 394.726C10.6025 393.858 9.94803 392.971 9.25617 392.102C7.87245 390.366 6.65702 388.516 5.38549 386.685C4.73103 385.779 4.18876 384.817 3.5904 383.873L2.71155 382.457C2.41236 381.966 2.15058 381.589 1.814 380.928C0.542471 378.512 -0.111991 375.756 0.0189017 373.019C0.131095 370.282 0.972547 367.546 2.52456 365.243C3.34731 364.016 4.09527 363.28 4.84322 362.411C5.59118 361.562 6.33914 360.694 7.16189 359.92C10.3033 356.636 13.8374 353.88 17.4463 351.275C24.7389 346.198 32.5924 342.158 40.633 338.798C56.7514 332.098 73.5805 327.832 90.4282 324.359L88.4087 325.661C93.7005 318.3 99.3663 311.184 105.481 304.464C111.577 297.726 118.233 291.497 125.246 285.702C132.276 279.926 139.756 274.66 147.647 270.092C155.538 265.524 163.896 261.711 172.573 258.786C181.23 255.86 190.224 253.84 199.331 252.859C208.437 251.877 217.674 251.953 226.781 253.085C235.868 254.237 244.844 256.37 253.445 259.522C262.047 262.674 270.293 266.713 278.109 271.432L281.026 273.244C281.999 273.848 282.971 274.433 283.887 275.113L289.497 279.02C293.106 281.795 296.771 284.513 300.155 287.552C301.857 289.024 303.671 290.572 305.223 291.931C306.831 293.309 308.514 294.63 310.234 295.876C311.954 297.103 313.731 298.254 315.563 299.33C317.508 300.463 319.453 301.614 321.379 302.803C329.064 307.541 336.562 312.656 343.649 318.394C347.183 321.263 350.624 324.264 353.915 327.454C354.737 328.247 355.56 329.059 356.346 329.87C356.757 330.286 357.15 330.663 357.561 331.116C357.972 331.569 358.402 332.003 358.795 332.475C360.403 334.325 361.824 336.326 363.058 338.44C365.508 342.687 367.21 347.387 367.939 352.238C368.145 353.483 368.201 354.597 368.332 355.767L368.668 359.24C368.743 360.411 368.743 361.562 368.78 362.732C368.799 363.903 368.874 365.073 368.836 366.224C368.649 375.549 367.023 384.835 364.124 393.612C363.432 395.821 362.554 397.954 361.768 400.124C360.833 402.22 359.954 404.353 358.945 406.41C356.944 410.544 354.775 414.564 352.363 418.415C347.594 426.172 342.209 433.439 336.375 440.272C335.87 440.857 334.973 440.933 334.393 440.423C333.832 439.876 333.739 439.083 334.113 438.498Z" fill="#000072"/>
<path d="M274.127 276.566C272.687 276.566 271.378 275.604 270.966 274.15C261.561 240.024 244.788 211.578 221.115 189.645C216.74 185.587 209.915 185.587 205.576 189.645C185.475 208.521 176.069 238.684 169.506 265.713C169.076 267.487 167.3 268.563 165.542 268.129C163.784 267.695 162.718 265.902 163.148 264.127C169.918 236.154 179.734 204.84 201.107 184.794C207.914 178.396 218.647 178.396 225.528 184.775C250.117 207.558 267.507 237.041 277.249 272.376C277.735 274.131 276.707 275.962 274.968 276.453C274.706 276.529 274.407 276.566 274.127 276.566Z" fill="#000072"/>
<path d="M253.726 266.827C252.286 266.827 250.958 265.864 250.566 264.392C244.264 240.779 233.961 221.601 219.114 205.765C218.684 205.293 218.16 205.255 217.88 205.293C217.618 205.312 217.151 205.425 216.833 205.916C208.175 219.11 205.669 238.91 204.342 256.558C204.211 258.371 202.622 259.748 200.826 259.597C199.031 259.465 197.666 257.88 197.816 256.049C199.2 237.57 201.892 216.713 211.373 202.254C212.719 200.197 214.888 198.913 217.319 198.687C219.768 198.46 222.162 199.385 223.863 201.197C239.253 217.637 250.379 238.306 256.867 262.655C257.335 264.411 256.306 266.223 254.567 266.713C254.287 266.789 254.006 266.827 253.726 266.827Z" fill="#000072"/>
<path d="M74.3844 421.661C73.9731 421.661 73.5617 421.586 73.169 421.435C51.7587 412.846 36.5378 401.087 26.6461 385.515C24.4957 382.136 25.3372 377.663 28.5721 375.341C40.2215 366.904 55.0498 361.317 73.8609 358.259C74.9828 358.07 76.1047 358.485 76.8527 359.354C77.6007 360.222 77.8437 361.392 77.5072 362.487C72.6641 378.418 72.6828 396.444 77.5633 417.641C77.8437 418.83 77.4324 420.095 76.5161 420.887C75.9178 421.378 75.1511 421.661 74.3844 421.661ZM69.8593 365.658C54.4514 368.678 42.1475 373.623 32.3867 380.683C31.994 380.966 31.9005 381.513 32.1623 381.929C40.3898 394.896 52.7685 405.051 69.878 412.828C66.5122 395.292 66.5122 379.758 69.8593 365.658Z" fill="#000072"/>
<path d="M141.906 462.3C140.467 459.657 139.756 456.562 139.644 453.447C139.532 450.314 140.13 447.143 141.214 444.18C143.384 438.196 147.759 433.175 152.957 429.834C158.156 426.456 164.158 424.644 170.048 424.323C172.984 424.172 175.92 424.36 178.743 424.832C180.146 425.115 181.548 425.38 182.913 425.833C184.278 426.191 185.606 426.739 186.896 427.267C187.868 427.664 188.336 428.796 187.943 429.778C187.663 430.476 187.027 430.91 186.335 430.967H186.223C183.568 431.193 181.006 431.344 178.5 431.665C176.013 431.986 173.582 432.42 171.245 433.005C166.57 434.157 162.269 435.969 158.548 438.479C154.827 440.99 151.705 444.198 149.423 448.03C148.301 449.937 147.329 451.994 146.693 454.221C146.039 456.449 145.665 458.808 145.497 461.375V461.488C145.44 462.564 144.524 463.376 143.458 463.319C142.804 463.281 142.224 462.866 141.906 462.3Z" fill="#000072"/>
<path d="M237.813 408.449C240.524 406.033 244.863 407.656 245.255 411.261C245.854 416.848 244.32 420.68 241.609 423.417C238.767 426.286 234.56 427.89 228.052 427.626C223.995 427.456 222.181 422.397 225.229 419.679L237.813 408.449Z" fill="#000072"/>
<path d="M300.791 348.482C295.499 348.047 290.525 347.727 285.906 348.349C281.307 348.935 277.211 350.426 273.902 352.898C270.592 355.371 267.993 358.882 266.048 363.11C264.085 367.357 262.869 372.227 261.691 377.455L261.673 377.512C261.43 378.55 260.401 379.211 259.373 378.965C258.662 378.795 258.139 378.267 257.952 377.606C256.381 372.132 256.138 366.13 257.596 360.203C258.326 357.24 259.56 354.314 261.261 351.615C262.982 348.935 265.188 346.462 267.825 344.537C270.461 342.611 273.434 341.196 276.501 340.365C279.568 339.516 282.69 339.27 285.701 339.44C291.741 339.818 297.313 341.837 302.044 344.933C302.941 345.518 303.184 346.707 302.605 347.613C302.212 348.236 301.52 348.538 300.847 348.5L300.791 348.482Z" fill="#000072"/>
<path d="M229.417 430.967C228.931 430.967 228.426 430.948 227.921 430.929C224.724 430.797 221.956 428.758 220.89 425.701C219.824 422.68 220.666 419.34 223.059 417.207L235.644 405.957C237.832 403.994 240.898 403.446 243.628 404.522C246.321 405.579 248.191 408.014 248.509 410.902C249.163 417.018 247.63 422.02 243.927 425.757C240.487 429.249 235.719 430.967 229.417 430.967ZM239.982 410.921L227.398 422.171C226.855 422.643 226.949 423.209 227.061 423.511C227.173 423.813 227.454 424.323 228.183 424.341C233.288 424.549 236.934 423.492 239.309 421.095C241.609 418.773 242.469 415.772 242.02 411.619C241.964 411.053 241.59 410.808 241.291 410.695C241.066 410.6 240.505 410.468 239.982 410.921Z" fill="#000072"/>
<path d="M243.628 421.85C245.087 423.435 246.471 425.078 247.854 426.72L249.967 429.268C251.052 430.646 251.706 432.382 251.837 434.176C251.875 434.629 251.875 435.082 251.837 435.516C251.819 435.742 251.8 435.969 251.763 436.195C251.725 436.441 251.688 436.535 251.669 436.705C251.519 437.328 251.426 437.97 251.202 438.574C250.828 439.819 250.36 441.027 249.762 442.179C248.565 444.482 246.919 446.52 245.012 448.2C243.068 449.842 240.88 451.088 238.561 451.975C237.383 452.371 236.205 452.73 234.971 452.938C233.755 453.164 232.503 453.259 231.25 453.221C228.763 453.126 226.051 452.56 223.808 450.635C222.723 449.672 221.882 448.294 221.582 446.879C221.265 445.463 221.452 444.104 221.769 442.896C221.975 442.141 222.76 441.707 223.508 441.914C224.126 442.084 224.537 442.651 224.537 443.274V443.406C224.537 444.331 224.686 445.18 225.004 445.822C225.322 446.463 225.79 446.935 226.388 447.275C226.986 447.634 227.753 447.841 228.557 447.936C229.361 448.03 230.221 448.068 231.1 447.936C234.616 447.52 238.112 445.746 240.581 443.292C241.833 442.065 242.824 440.612 243.554 439.064C243.928 438.29 244.208 437.479 244.433 436.648C244.563 436.233 244.601 435.799 244.713 435.384C244.732 435.289 244.769 435.138 244.769 435.1C244.769 435.063 244.788 435.006 244.788 434.968C244.788 434.874 244.788 434.798 244.788 434.704C244.769 434.345 244.601 433.968 244.395 433.647L242.45 431.193C241.142 429.494 239.814 427.796 238.561 426.04C237.495 424.568 237.832 422.492 239.29 421.416C240.655 420.415 242.507 420.623 243.628 421.85Z" fill="#000072"/>
<path d="M245.741 429.683C250.697 425.38 247.125 428.494 248.228 427.532H248.247L248.266 427.55L248.303 427.588L248.378 427.645L248.528 427.777C248.621 427.871 248.733 427.947 248.845 428.022C249.051 428.192 249.276 428.343 249.5 428.456C249.949 428.721 250.416 428.947 250.921 429.079C251.893 429.419 252.941 429.457 253.932 429.287C254.436 429.211 254.904 429.023 255.371 428.853C255.596 428.74 255.839 428.645 256.045 428.494L256.362 428.287L256.774 427.966C257.896 427.135 258.924 426.173 259.897 425.153C261.766 423.096 263.262 420.68 263.73 418.245C263.879 417.641 263.879 417.037 263.898 416.433C263.861 416.15 263.842 415.848 263.823 415.527L263.599 414.64C263.225 413.451 262.44 412.337 261.449 411.223L261.355 411.129C260.831 410.544 260.869 409.638 261.449 409.109C261.879 408.713 262.514 408.637 263.019 408.883C264.665 409.694 266.254 410.94 267.395 412.677C268.554 414.413 269.059 416.584 269.04 418.641C269.04 420.699 268.554 422.681 267.844 424.493C267.077 426.267 266.142 427.947 264.983 429.438C263.805 430.891 262.571 432.326 261.093 433.477L260.551 433.93L259.859 434.421C259.41 434.761 258.887 435.006 258.401 435.289C257.391 435.78 256.306 436.139 255.184 436.346C252.959 436.743 250.659 436.535 248.565 435.723C247.518 435.327 246.527 434.799 245.648 434.119C245.199 433.779 244.769 433.44 244.376 433.043C244.171 432.854 243.984 432.647 243.815 432.439L243.554 432.118L243.423 431.967L243.348 431.892L243.311 431.854L243.292 431.835V431.816C244.376 430.872 240.786 433.987 245.741 429.683Z" fill="#000072"/>
<path d="M251.763 454.542C247.518 454.542 242.937 453.259 238.412 450.692L241.628 444.935C248.191 448.672 254.96 448.898 258.906 445.482C262.982 441.952 263.543 435.214 260.458 427.022L266.572 424.681C270.686 435.648 269.452 445.048 263.169 450.503C260.065 453.202 256.101 454.542 251.763 454.542Z" fill="#000072"/>
<path d="M265.693 435.893C257.54 434.742 250.472 439.196 249.369 451.22L241.721 448.71L249.556 432.986L263.805 426.644L265.693 435.893Z" fill="#000072"/>
<path d="M136.091 384.571C141.345 388.705 137.325 394.745 131.865 401.804C126.405 408.864 121.599 414.281 116.345 410.128C111.09 405.995 113.334 398.558 118.794 391.498C124.255 384.439 130.837 380.437 136.091 384.571Z" fill="white"/>
<path d="M420.539 413.111C402.345 429.476 368.836 413.564 380.897 377.002V376.983C381.009 376.606 381.14 376.228 381.271 375.87L376.671 367.149L365.415 361.241C380.168 353.899 400.999 354.333 414.798 364.884C414.817 364.884 414.817 364.903 414.817 364.903C421.829 370.283 427.009 378.267 428.654 389.158C430.019 398.029 427.177 407.146 420.539 413.111Z" fill="#8C8CAA"/>
<path d="M257.952 305.011C262.14 310.24 256.867 315.204 249.967 320.829C243.067 326.454 237.177 330.625 232.97 325.397C228.781 320.168 232.633 313.43 239.533 307.805C246.433 302.161 253.763 299.764 257.952 305.011Z" fill="white"/>
<path d="M420.539 413.111C402.345 429.476 368.836 413.564 380.897 377.002V376.983C387.311 369.093 400.867 358.07 414.817 364.884C414.835 364.884 414.836 364.903 414.836 364.903C421.848 370.282 427.027 378.267 428.673 389.158C430.019 398.029 427.177 407.146 420.539 413.111Z" fill="white"/>
<path d="M403.841 422.85C398.343 422.85 392.808 421.246 387.984 417.962C378.242 411.336 370.557 396.519 378.186 374.775C378.784 373.057 380.654 372.151 382.356 372.774C384.057 373.378 384.955 375.266 384.338 376.983C378.915 392.423 381.627 405.693 391.612 412.469C399.895 418.094 410.89 417.339 418.332 410.638C423.98 405.561 426.635 397.708 425.419 389.649C423.25 375.247 414.667 367.942 407.861 364.356C395.856 358.032 379.383 357.976 366.854 364.205C365.228 365.016 363.264 364.337 362.479 362.695C361.675 361.052 362.348 359.071 363.975 358.278C378.279 351.162 397.147 351.256 410.909 358.504C419.062 362.808 429.327 371.528 431.927 388.667C433.479 398.954 430.038 409.015 422.727 415.583C417.36 420.397 410.61 422.85 403.841 422.85Z" fill="#000072"/>
<path d="M399.577 394.405C401.241 396.217 402.7 398.275 403.766 400.615C404.832 402.937 405.467 405.561 405.43 408.279C405.411 410.997 404.663 413.866 402.906 416.32C401.185 418.773 398.287 420.642 395.22 421.133L395.052 421.152C393.257 421.435 391.574 420.208 391.294 418.396C391.013 416.584 392.229 414.885 394.024 414.602C394.173 414.583 394.323 414.564 394.472 414.564C395.987 414.526 397.389 413.941 398.549 412.771C399.689 411.601 400.512 409.864 400.774 407.958C401.073 406.032 400.886 403.956 400.269 401.955C399.671 399.955 398.661 398.029 397.427 396.217L397.389 396.161C396.941 395.519 397.109 394.632 397.745 394.198C398.324 393.782 399.11 393.877 399.577 394.405Z" fill="#000072"/>
<path d="M416.762 388.309C418.688 389.97 420.315 391.97 421.586 394.179C422.858 396.406 423.811 398.841 424.316 401.446C424.821 404.051 424.859 406.825 424.26 409.562C423.662 412.299 422.409 414.942 420.651 417.169L420.614 417.207C419.492 418.641 417.416 418.887 415.995 417.735C414.574 416.584 414.331 414.508 415.472 413.073C415.565 412.96 415.659 412.846 415.771 412.752C417.117 411.431 418.183 409.845 418.856 408.014C419.529 406.183 419.81 404.145 419.679 402.069C419.436 397.897 417.716 393.594 414.817 390.347L414.799 390.328C414.275 389.743 414.331 388.856 414.911 388.327C415.434 387.855 416.238 387.855 416.762 388.309Z" fill="#000072"/>
<path d="M477.122 489.197C475.439 489.197 474.018 487.895 473.868 486.177C469.941 441.348 453.898 410.242 427.495 396.236C425.887 395.387 425.288 393.386 426.111 391.782C426.953 390.158 428.935 389.554 430.524 390.385C450.382 400.917 475.14 425.965 480.375 485.592C480.544 487.404 479.197 489.009 477.402 489.178C477.309 489.197 477.215 489.197 477.122 489.197Z" fill="#000072"/>
<path d="M362.03 392.631C360.646 392.631 359.356 391.725 358.907 390.328C358.365 388.592 359.319 386.742 361.039 386.194C366.724 384.382 372.558 383.061 378.373 382.249C380.149 382.004 381.814 383.269 382.057 385.062C382.3 386.874 381.047 388.535 379.271 388.78C373.829 389.535 368.35 390.781 363.003 392.499C362.685 392.593 362.348 392.631 362.03 392.631Z" fill="#000072"/>
<path d="M495.054 503.524C493.614 503.524 492.305 502.561 491.894 501.108C491.408 499.352 492.436 497.521 494.175 497.049C511.079 492.331 522.28 484.931 529.423 473.795L554.853 424.53C557.938 418.566 558.275 411.808 555.788 405.995C552.534 398.35 545.373 394.235 536.678 395.009C524.897 396.028 510.761 406.523 505.75 427.626C505.432 428.947 504.347 429.948 503.02 430.136C501.692 430.325 500.364 429.664 499.71 428.475C488.565 408.297 472.466 394.386 455.524 390.328C445.951 388.025 437.181 389.158 430.823 393.518C429.327 394.537 427.289 394.141 426.279 392.631C425.27 391.121 425.662 389.063 427.158 388.044C435.049 382.646 445.67 381.174 457.039 383.911C473.831 387.95 489.762 400.502 501.561 418.792C509.003 398.124 524.336 389.479 536.117 388.441C547.598 387.44 557.434 393.178 561.809 403.39C565.081 411.034 564.651 419.868 560.668 427.588L535.163 476.985C535.126 477.079 535.07 477.155 535.014 477.249C526.954 489.896 514.538 498.22 495.933 503.429C495.634 503.486 495.353 503.524 495.054 503.524Z" fill="#000072"/>
<path d="M505.619 425.606L509.658 440.707C509.863 441.462 509.415 442.254 508.667 442.462C508.031 442.632 507.376 442.33 507.059 441.782L499.56 428.098C498.681 426.493 499.261 424.474 500.851 423.568C502.44 422.681 504.441 423.266 505.338 424.87C505.45 425.097 505.544 425.361 505.619 425.606Z" fill="#000072"/>
<path d="M542.063 411.204C542.456 409.543 542.979 408.09 543.69 406.58C544.4 405.089 545.279 403.635 546.495 402.314C547.71 401.012 549.281 399.841 551.151 399.143C553.039 398.407 555.078 398.369 557.022 398.558C558.836 398.728 560.164 400.351 559.995 402.182C559.827 404.013 558.219 405.353 556.405 405.183C556.199 405.164 555.994 405.126 555.807 405.07L555.62 405.013C554.647 404.73 553.656 404.447 552.665 404.598C551.674 404.73 550.646 405.126 549.636 405.825C548.645 406.523 547.71 407.486 546.887 408.543C546.065 409.6 545.298 410.865 544.737 412.054L544.7 412.148C544.363 412.847 543.54 413.167 542.83 412.828C542.231 412.526 541.913 411.846 542.063 411.204Z" fill="#000072"/>
<path d="M525.982 405.353C526.281 403.258 526.823 401.389 527.609 399.483C528.394 397.595 529.46 395.764 530.881 394.122C532.265 392.461 534.135 391.083 536.192 390.139C538.267 389.12 540.53 388.799 542.774 388.629C544.587 388.478 546.177 389.856 546.308 391.687C546.457 393.518 545.092 395.122 543.278 395.255C543.11 395.273 542.961 395.273 542.792 395.255L542.512 395.236C541.053 395.122 539.52 395.009 538.136 395.462C536.734 395.84 535.35 396.463 534.135 397.501C532.919 398.501 531.816 399.785 530.9 401.219C530.002 402.654 529.198 404.315 528.712 405.881L528.675 405.995C528.432 406.731 527.646 407.146 526.917 406.901C526.281 406.674 525.888 406.014 525.982 405.353Z" fill="#000072"/>
<path d="M271.845 593.654C271.808 597.24 269.788 600.524 266.535 602.166C252.81 609.15 233.905 608.962 212.139 604.809C200.92 588.029 207.427 568.266 226.051 563.868C226.051 563.849 267.189 560.678 271.845 593.654Z" fill="white"/>
<path d="M416.481 495.653C420.445 492.236 424.765 489.216 429.365 486.63C433.983 484.082 438.92 482.044 444.081 480.666C454.384 477.891 465.697 478.155 476 481.93C481.142 483.799 485.966 486.592 490.174 490.122C494.4 493.633 498.009 497.842 500.982 502.41C506.947 511.583 510.294 522.173 511.603 532.837L505.918 531.044C508.854 527.816 512.07 524.777 515.623 522.173C519.232 519.624 523.14 517.473 527.328 515.925C535.65 512.829 545.167 512.244 553.825 515.396C558.107 516.963 562.221 519.417 565.437 522.928C568.634 526.42 570.972 530.893 571.72 535.687C572.449 540.482 571.72 545.333 570.074 549.636C568.447 553.959 565.998 557.809 563.249 561.282C563.1 561.471 562.931 561.641 562.744 561.773L562.707 561.792C559.472 564.302 555.975 566.209 552.441 567.851C548.907 569.474 545.298 570.814 541.671 572.004L542.306 571.72L523.495 582.838C521.981 583.744 520.204 584.782 518.465 585.594C516.707 586.443 514.894 587.179 513.024 587.783C511.135 588.425 509.359 588.803 507.545 589.293C505.75 589.746 503.955 590.256 502.122 590.596L496.681 591.709L491.202 592.596C489.388 592.917 487.556 593.125 485.723 593.352C483.891 593.559 482.058 593.823 480.226 593.993C476.561 594.314 472.896 594.692 469.231 594.843C467.398 594.937 465.566 595.069 463.733 595.145L458.236 595.315C443.576 595.711 428.953 595.126 414.387 594.201C399.821 593.257 385.31 591.879 370.837 590.313L371.716 590.294C354.775 593.106 337.609 594.748 320.369 594.616C303.147 594.465 285.851 592.521 269.059 588.161C267.301 587.708 266.254 585.915 266.703 584.14C267.152 582.366 268.928 581.309 270.686 581.762C286.879 585.971 303.633 587.859 320.406 588.01C337.198 588.142 354.008 586.556 370.632 583.782C370.931 583.725 371.23 583.725 371.529 583.763C385.946 585.33 400.363 586.689 414.798 587.632C429.234 588.538 443.688 589.123 458.068 588.727L463.453 588.557C465.248 588.501 467.043 588.368 468.838 588.274C472.428 588.123 476 587.746 479.571 587.444C481.348 587.293 483.124 587.028 484.901 586.821C486.677 586.613 488.453 586.405 490.211 586.084L495.503 585.235L500.739 584.159C502.496 583.838 504.198 583.348 505.918 582.913C507.62 582.46 509.415 582.064 510.967 581.536C512.556 581.007 514.127 580.365 515.642 579.648C517.194 578.912 518.559 578.119 520.167 577.156L538.978 566.039C539.184 565.926 539.408 565.812 539.614 565.756C543.073 564.623 546.457 563.359 549.692 561.886C552.927 560.395 555.994 558.696 558.668 556.62L558.144 557.149C560.556 554.11 562.595 550.844 563.904 547.371C565.212 543.917 565.717 540.255 565.194 536.782C564.652 533.309 562.987 530.1 560.594 527.477C558.2 524.834 554.984 522.909 551.544 521.644C544.588 519.115 536.603 519.492 529.498 522.173C525.926 523.494 522.523 525.344 519.363 527.59C516.24 529.874 513.379 532.573 510.743 535.48L510.668 535.555C509.415 536.876 507.339 536.914 506.03 535.65C505.469 535.102 505.133 534.404 505.039 533.668C503.824 523.852 500.813 514.226 495.409 506.147C492.735 502.108 489.482 498.484 485.817 495.426C484.938 494.615 483.91 493.992 482.975 493.237C482.021 492.519 480.993 491.915 480.002 491.236C478.973 490.651 477.926 490.066 476.879 489.499C475.794 489.027 474.747 488.423 473.625 487.989C469.212 486.139 464.481 485.007 459.676 484.629C454.851 484.233 449.952 484.592 445.147 485.535C435.498 487.48 426.373 492.01 418.164 497.899H418.145C417.51 498.352 416.631 498.201 416.182 497.559C415.827 496.936 415.939 496.125 416.481 495.653Z" fill="#000072"/>
<path d="M222.256 567.624C221.657 567.624 221.059 567.454 220.517 567.115C210.12 560.471 200.266 552.505 191.253 543.464C189.963 542.18 189.963 540.085 191.234 538.802C192.506 537.499 194.581 537.499 195.853 538.783C204.529 547.484 214.009 555.148 224.013 561.528C225.547 562.509 225.995 564.548 225.023 566.077C224.387 567.077 223.34 567.624 222.256 567.624Z" fill="#000072"/>
<path d="M181.735 544.634C180.202 549.429 178.911 554.298 178.014 559.187C177.528 561.622 177.247 564.076 176.985 566.53C176.798 568.965 176.724 571.399 176.836 573.797C177.098 578.572 178.107 583.215 180.351 587.104C182.558 591.011 185.98 594.031 190.093 596.088C194.207 598.165 198.919 599.26 203.725 599.882C205.071 600.109 206.492 600.317 207.783 600.562L211.485 601.317C213.953 601.789 216.421 602.261 218.908 602.638C228.8 604.186 238.823 605.016 248.528 603.884C253.352 603.318 258.083 602.223 262.458 600.411L264.066 599.675L264.87 599.297C265.17 599.165 265.263 599.071 265.487 598.976C266.217 598.523 266.852 597.938 267.357 597.259C267.844 596.56 268.236 595.786 268.404 594.975C268.517 594.56 268.554 594.144 268.573 593.729C268.573 593.521 268.573 593.314 268.554 593.106C268.517 592.88 268.535 592.729 268.479 592.408C267.825 587.764 266.03 583.442 263.281 579.818C260.532 576.194 256.849 573.249 252.585 571.286C248.359 569.267 243.666 568.134 238.935 567.549C234.167 566.983 229.324 567.02 224.481 567.473C214.776 568.361 205.24 571.192 196.208 575.552C195.497 575.892 194.656 575.59 194.319 574.891C194.039 574.287 194.207 573.589 194.693 573.174C198.77 569.814 203.407 567.115 208.306 565.057C213.205 563.019 218.385 561.547 223.695 560.81C228.987 560.018 234.41 559.942 239.795 560.641C245.162 561.301 250.491 562.83 255.484 565.246C256.718 565.85 257.933 566.586 259.13 567.266L260.869 568.474C261.43 568.889 262.047 569.248 262.552 569.738C263.618 570.663 264.758 571.513 265.693 572.589L267.17 574.136C267.638 574.684 268.049 575.269 268.479 575.816C271.939 580.365 274.145 585.877 274.949 591.426C275.005 591.728 275.043 592.238 275.08 592.653C275.099 593.087 275.117 593.521 275.099 593.956C275.061 594.824 274.968 595.692 274.762 596.523C274.388 598.221 273.621 599.807 272.63 601.204C271.621 602.6 270.33 603.771 268.872 604.658C268.517 604.847 268.087 605.111 267.787 605.243L266.852 605.677L264.983 606.545C259.896 608.659 254.586 609.849 249.294 610.472C238.673 611.698 228.146 610.773 217.899 609.188C215.337 608.792 212.775 608.32 210.232 607.829L206.436 607.055C205.202 606.829 204.099 606.678 202.94 606.47C197.648 605.771 192.262 604.563 187.195 602.034C184.671 600.77 182.259 599.184 180.127 597.221C177.976 595.277 176.125 592.955 174.685 590.426C171.787 585.348 170.609 579.629 170.31 574.155C170.179 571.399 170.273 568.681 170.478 565.982C170.74 563.302 171.077 560.622 171.581 558.017C172.554 552.769 173.919 547.654 175.508 542.652C176.069 540.916 177.902 539.953 179.622 540.519C181.342 541.029 182.296 542.898 181.735 544.634Z" fill="#000072"/>
<path d="M238.056 585.046C240.524 585.575 242.88 586.896 244.713 588.727C246.564 590.558 247.948 592.88 248.677 595.466C249.406 598.033 249.5 600.977 248.471 603.808C247.966 605.205 247.144 606.545 246.096 607.678C245.049 608.81 243.797 609.698 242.488 610.358L242.375 610.415C240.749 611.226 238.785 610.566 237.962 608.924C237.158 607.282 237.813 605.3 239.44 604.469C239.589 604.394 239.739 604.337 239.888 604.28C241.384 603.79 242.581 602.921 243.329 601.543C244.096 600.184 244.376 598.354 244.114 596.504C243.871 594.654 243.105 592.804 241.927 591.275C240.749 589.727 239.159 588.501 237.289 587.802H237.271C236.541 587.538 236.167 586.707 236.448 585.971C236.691 585.273 237.383 584.914 238.056 585.046Z" fill="#000072"/>
<path d="M257.092 581.536C259.093 582.574 260.981 583.895 262.645 585.556C264.291 587.217 265.712 589.237 266.591 591.596C267.47 593.937 267.806 596.674 267.208 599.373C266.628 602.053 265.095 604.582 263.075 606.376L262.945 606.489C261.58 607.697 259.504 607.565 258.307 606.206C257.11 604.828 257.241 602.733 258.588 601.525C258.719 601.411 258.849 601.298 258.98 601.223C260.271 600.392 261.262 599.241 261.823 597.806C262.384 596.39 262.496 594.692 262.14 592.993C261.785 591.275 260.962 589.576 259.841 588.048C258.719 586.519 257.279 585.141 255.671 583.97L255.633 583.952C254.997 583.499 254.867 582.612 255.315 581.97C255.727 581.403 256.493 581.234 257.092 581.536Z" fill="#000072"/>
<path d="M511.621 533.158C511.229 540.161 509.452 546.88 506.891 553.034C506.591 553.751 505.769 554.091 505.039 553.789C504.404 553.525 504.067 552.845 504.198 552.184C505.507 545.861 505.9 539.481 505.077 533.366C504.834 531.554 506.087 529.874 507.882 529.628C509.677 529.383 511.341 530.648 511.584 532.46C511.621 532.667 511.621 532.875 511.603 533.083L511.621 533.158Z" fill="#000072"/>
<path d="M533.742 527.137C534.34 526.117 534.958 525.306 535.649 524.475C536.341 523.664 537.089 522.909 537.893 522.191C539.501 520.776 541.334 519.549 543.335 518.662C545.335 517.775 547.486 517.095 549.692 516.85C550.796 516.642 551.899 516.68 553.002 516.623C554.105 516.604 555.19 516.736 556.312 516.793C558.126 516.887 559.509 518.473 559.416 520.285C559.322 522.116 557.752 523.513 555.956 523.418C555.807 523.418 555.657 523.399 555.508 523.362L555.134 523.286C554.311 523.116 553.469 522.871 552.628 522.739C551.787 522.663 550.926 522.475 550.085 522.512C548.365 522.418 546.663 522.682 544.999 523.097C543.316 523.532 541.689 524.268 540.175 525.211C539.408 525.683 538.697 526.231 538.005 526.816C537.332 527.382 536.64 528.081 536.136 528.685L536.042 528.798C535.537 529.383 534.658 529.458 534.06 528.949C533.499 528.496 533.387 527.722 533.742 527.137Z" fill="#000072"/>
<path d="M548.365 538.292C549.767 537.009 551.188 536.008 552.778 535.064C554.349 534.158 556.069 533.384 557.901 532.856C559.753 532.327 561.753 532.139 563.81 532.29C565.886 532.441 567.887 533.158 569.794 534.102C571.421 534.913 572.113 536.895 571.308 538.537C570.504 540.18 568.541 540.878 566.914 540.066C566.746 539.991 566.596 539.896 566.447 539.783L566.278 539.67C565.269 538.934 564.166 538.217 562.894 537.877C561.622 537.537 560.239 537.367 558.78 537.499C557.322 537.631 555.826 537.971 554.367 538.481C552.927 538.99 551.413 539.689 550.141 540.482L550.048 540.538C549.393 540.953 548.515 540.746 548.122 540.066C547.748 539.481 547.879 538.745 548.365 538.292Z" fill="#000072"/>
<path d="M338.152 319.961C338.357 319.206 338.526 318.715 338.75 318.13C338.956 317.564 339.18 317.016 339.423 316.469C339.891 315.393 340.414 314.336 340.975 313.317C342.116 311.278 343.425 309.372 344.883 307.579C347.8 304.011 351.372 301.01 355.28 298.726C359.207 296.461 363.451 294.857 367.771 293.913C372.109 292.95 376.503 292.554 380.879 292.592C381.402 292.592 381.814 293.026 381.814 293.535C381.814 294.026 381.421 294.441 380.935 294.46C376.69 294.724 372.502 295.423 368.481 296.631C364.461 297.82 360.665 299.594 357.262 301.897C353.877 304.238 350.923 307.126 348.586 310.429C347.408 312.09 346.398 313.845 345.538 315.657C345.126 316.563 344.734 317.507 344.397 318.432C344.229 318.904 344.079 319.376 343.948 319.829C343.817 320.263 343.687 320.81 343.63 321.112V321.131C343.35 322.679 341.891 323.698 340.358 323.415C338.825 323.132 337.815 321.66 338.096 320.112C338.114 320.112 338.133 320.017 338.152 319.961Z" fill="#000072"/>
<path d="M354.756 334.136C354.98 333.815 355.167 333.589 355.373 333.343C355.56 333.098 355.766 332.872 355.953 332.664C356.345 332.211 356.738 331.796 357.149 331.399C357.953 330.569 358.832 329.833 359.674 329.078C361.45 327.662 363.283 326.341 365.265 325.265C369.192 323.056 373.474 321.584 377.812 320.81C379.999 320.584 382.187 320.206 384.375 320.301H386.021C386.563 320.301 387.105 320.282 387.647 320.357L390.882 320.697C391.967 320.773 393.014 321.018 394.08 321.244L397.24 321.905C399.315 322.49 401.354 323.17 403.392 323.811C403.878 323.962 404.159 324.491 404.009 324.982C403.859 325.454 403.392 325.737 402.924 325.623L402.831 325.605C400.793 325.152 398.792 324.623 396.772 324.227L393.706 323.83C392.677 323.698 391.668 323.528 390.639 323.547L387.573 323.453C387.068 323.415 386.563 323.472 386.039 323.509L384.525 323.623C382.486 323.679 380.523 324.189 378.541 324.529C374.652 325.529 370.949 327.133 367.658 329.323C365.994 330.38 364.479 331.664 363.04 332.985C362.366 333.683 361.656 334.363 361.039 335.118C360.721 335.476 360.422 335.854 360.141 336.231C359.992 336.42 359.842 336.609 359.73 336.798C359.599 336.986 359.468 337.175 359.393 337.288C358.627 338.647 356.906 339.119 355.56 338.327C354.214 337.553 353.746 335.816 354.532 334.457C354.569 334.382 354.625 334.306 354.681 334.231L354.756 334.136Z" fill="#000072"/>
<path d="M362.946 351.502C363.208 351.294 363.414 351.162 363.619 351.011C363.825 350.86 364.049 350.709 364.255 350.577C364.666 350.312 365.097 350.029 365.527 349.784C366.368 349.274 367.228 348.84 368.107 348.387C368.986 347.972 369.865 347.576 370.762 347.198C371.679 346.877 372.557 346.5 373.474 346.216C377.12 345.046 380.935 344.348 384.749 344.31C385.703 344.235 386.656 344.31 387.591 344.367C388.545 344.423 389.48 344.423 390.415 344.593L393.201 345.027C394.117 345.216 395.034 345.48 395.931 345.707C397.764 346.103 399.484 346.877 401.242 347.5L401.896 347.745L402.513 348.047L403.766 348.67L406.253 349.916C406.72 350.143 406.907 350.709 406.683 351.181C406.477 351.615 405.954 351.822 405.505 351.653L405.411 351.615L402.924 350.633L401.69 350.143L401.073 349.897L400.438 349.727C398.736 349.293 397.072 348.689 395.333 348.482C394.473 348.349 393.612 348.161 392.752 348.066L390.153 347.896C389.293 347.802 388.414 347.896 387.554 347.915C386.694 347.953 385.834 347.934 384.974 348.085C381.552 348.425 378.205 349.35 375.082 350.671C374.296 350.973 373.53 351.388 372.763 351.747C372.015 352.143 371.267 352.559 370.538 352.974C369.827 353.427 369.098 353.861 368.425 354.352C368.07 354.578 367.752 354.843 367.434 355.088C367.266 355.22 367.116 355.333 366.966 355.465C366.817 355.598 366.649 355.73 366.574 355.805C365.471 356.9 363.675 356.881 362.591 355.767C361.506 354.654 361.525 352.842 362.628 351.747C362.703 351.671 362.778 351.615 362.853 351.539L362.946 351.502Z" fill="#000072"/>
<path d="M115.204 505.883C114.4 505.902 113.39 505.996 112.456 506.11C111.502 506.223 110.567 506.374 109.613 506.544C107.725 506.902 105.855 507.355 104.004 507.941C100.339 509.111 96.7858 510.734 93.6257 512.924C90.4469 515.094 87.6608 517.85 85.4917 521.097C83.3039 524.324 81.8267 528.043 80.8918 531.912V531.931C80.7796 532.441 80.256 532.743 79.7698 532.63C79.2837 532.516 78.9845 532.044 79.0593 531.554C79.7137 527.42 81.004 523.324 83.1169 519.606C85.2112 515.887 88.0534 512.565 91.4006 509.885C94.729 507.167 98.5061 505.09 102.433 503.486C104.415 502.693 106.434 502.014 108.491 501.466C109.52 501.202 110.567 500.938 111.614 500.73C112.699 500.523 113.671 500.334 114.905 500.221C116.457 500.07 117.822 501.202 117.99 502.75C118.14 504.298 117.018 505.694 115.485 505.864C115.41 505.864 115.335 505.883 115.26 505.883H115.204Z" fill="#000072"/>
<path d="M129.396 522.154C129.266 522.21 129.06 522.305 128.873 522.418C128.686 522.512 128.499 522.626 128.293 522.739C127.901 522.965 127.508 523.192 127.134 523.437C126.349 523.909 125.601 524.475 124.853 525.004C124.123 525.57 123.394 526.155 122.684 526.778C122.01 527.42 121.281 528.024 120.645 528.722C118.028 531.422 115.746 534.479 114.063 537.915C113.577 538.726 113.278 539.651 112.885 540.519C112.511 541.407 112.119 542.275 111.876 543.219L111.034 545.993C110.828 546.937 110.66 547.9 110.473 548.843L110.193 550.278C110.118 550.75 110.099 551.241 110.062 551.731L109.819 554.657C109.763 555.148 109.763 555.639 109.781 556.129L109.819 557.602L109.875 560.546V560.641C109.894 561.169 109.482 561.584 108.959 561.603C108.472 561.622 108.061 561.245 108.005 560.754L107.706 557.715L107.556 556.186C107.5 555.676 107.444 555.167 107.481 554.657L107.5 551.562C107.519 551.052 107.481 550.523 107.537 550.014L107.706 548.466C107.818 547.447 107.911 546.409 108.061 545.37L108.715 542.313C108.902 541.274 109.258 540.293 109.576 539.311C109.912 538.33 110.174 537.292 110.641 536.348C112.193 532.441 114.456 528.817 117.149 525.57C117.803 524.74 118.57 524.003 119.262 523.211C120.01 522.456 120.776 521.72 121.562 521.002C122.366 520.304 123.17 519.606 124.049 518.983C124.46 518.643 124.927 518.341 125.376 518.039C125.601 517.888 125.825 517.737 126.068 517.586C126.311 517.435 126.536 517.284 126.853 517.114L126.91 517.076C128.275 516.321 129.976 516.831 130.724 518.209C131.472 519.587 130.967 521.304 129.602 522.059C129.546 522.078 129.471 522.116 129.396 522.154Z" fill="#000072"/>
<path d="M145.74 532.535C145.534 533.158 145.31 533.989 145.141 534.762C144.954 535.555 144.824 536.348 144.674 537.16C144.543 537.971 144.45 538.783 144.337 539.594C144.281 540.406 144.188 541.237 144.132 542.067C143.945 545.37 144.113 548.692 144.655 551.977L144.842 553.204C144.917 553.619 145.029 554.015 145.123 554.412C145.328 555.223 145.478 556.035 145.702 556.847C146.226 558.432 146.656 560.055 147.367 561.584C148.582 564.718 150.358 567.606 152.228 570.418L152.266 570.475C152.546 570.909 152.434 571.494 152.004 571.777C151.593 572.041 151.069 571.966 150.751 571.588C148.545 568.851 146.394 565.982 144.824 562.773C143.945 561.207 143.309 559.546 142.598 557.885C142.281 557.054 142.019 556.186 141.738 555.337C141.607 554.902 141.439 554.487 141.327 554.053L140.99 552.751C140.074 549.259 139.569 545.653 139.457 542.011C139.42 541.105 139.438 540.199 139.438 539.274C139.476 538.368 139.494 537.443 139.569 536.537C139.644 535.631 139.719 534.706 139.85 533.781C139.962 532.837 140.111 531.988 140.355 530.931C140.691 529.402 142.206 528.439 143.72 528.798C145.235 529.138 146.189 530.666 145.833 532.195C145.815 532.271 145.796 532.365 145.759 532.441L145.74 532.535Z" fill="#000072"/>
<path d="M238.467 414.017C238.299 418.943 235.438 420.85 230.988 420.944C230.146 420.963 229.716 419.887 230.352 419.302L236.934 413.299C237.532 412.752 238.486 413.205 238.467 414.017Z" fill="white"/>
<g opacity="0.3">
<path d="M364.33 379.135C360.721 400.823 349.203 420.416 335.235 439.366L283.962 492.991C258.045 513.509 230.371 528.59 201.126 538.821C199.742 539.311 198.34 539.764 196.937 540.161C184.503 543.86 171.395 544.899 158.567 542.898C130.051 538.462 110.436 522.55 101.349 487.687C99.7965 481.685 97.3656 475.966 94.1307 470.7C87.7918 460.412 81.6212 449.087 78.3488 439.348L71.1685 398.766C165.897 585.537 320.537 447.143 352.138 330.456C353.073 331.362 354.008 332.305 354.925 333.249C360.31 338.798 363.732 345.952 364.779 353.653C365.938 362.487 365.695 370.962 364.33 379.135Z" fill="#000072"/>
</g>
<g opacity="0.3">
<path d="M560.725 559.206C555.564 563.245 548.571 566.303 540.698 568.889L520.522 580.818C519.662 581.328 518.802 581.8 517.904 582.234C515.455 583.48 512.893 584.48 510.257 585.235C474.242 595.484 424.447 592.861 371.23 587.047C334 593.295 300.099 592.842 269.919 584.971C270.779 587.179 271.378 589.576 271.752 592.162C271.808 592.672 271.864 593.163 271.827 593.654C267.189 560.697 226.033 563.849 226.033 563.849C224.275 564.265 222.611 564.831 221.059 565.51L193.534 541.123C224.948 530.723 254.175 516.51 279.923 496.143C279.306 568.021 352.999 557.809 398.979 549.429C444.979 541.048 495.279 566.303 495.279 566.303C541.577 566.756 553.171 521.002 553.675 518.869C568.261 524.721 575.31 541.218 560.725 559.206Z" fill="#000072"/>
</g>
<g opacity="0.3">
<path d="M557.77 426.04L540.998 458.563L532.265 475.456C523.72 488.876 510.481 495.879 495.279 500.164C496.382 501.523 497.41 502.957 498.383 504.467C497.99 504.373 497.597 504.298 497.205 504.184C491.782 493.444 483.386 487.706 476.842 484.724L467.193 443.047C487.369 464.338 505.339 472.398 518.933 454.316L537.314 419.566C549.562 406.372 542.606 394.349 540.811 391.706C548.608 392.367 555.414 396.746 558.799 404.692C561.753 411.544 561.192 419.415 557.77 426.04Z" fill="#000072"/>
</g>
<g opacity="0.3">
<path d="M444.642 405.617C444.642 405.617 470.465 471.719 431.366 487.857C447.484 481.855 463.117 478.872 477.122 485.894C473.438 453.787 464.238 425.814 444.642 405.617Z" fill="#000072"/>
</g>
<g opacity="0.3">
<path d="M407.226 419.321C438.546 412.941 433.61 376.323 411.676 360.713C435.05 406.599 394.192 411.223 378.841 391.159C378.822 391.159 379.869 419.566 407.226 419.321Z" fill="#000072"/>
</g>
<g opacity="0.3">
<path d="M271.845 593.654C271.808 597.24 269.788 600.524 266.535 602.166C265.656 602.6 264.758 603.016 263.842 603.412C250.379 609.112 232.503 608.697 212.139 604.809C210.344 604.469 208.531 604.092 206.717 603.695C205.614 603.45 204.492 603.28 203.37 603.148C177.584 599.958 166.421 583.14 178.257 544.898L194.768 541.123L219.544 562.528L203.875 569.738C193.553 599.014 263.749 605.3 266.254 579.157L270.873 585.216C270.555 585.141 270.256 585.065 269.938 584.971C270.798 587.179 271.396 589.576 271.77 592.162C271.826 592.672 271.864 593.163 271.845 593.654Z" fill="#000072"/>
</g>
</g>
<defs>
<clipPath id="clip0_243_3847">
<rect width="572" height="431" fill="white" transform="translate(0 180)"/>
</clipPath>
</defs>
</svg>
