<svg width="668" height="605" viewBox="0 0 668 605" fill="none" xmlns="http://www.w3.org/2000/svg">
<ellipse cx="313" cy="299.5" rx="313" ry="299.5" fill="#B0A2D7"/>
<path d="M485.196 490.78C485.196 497.548 484.16 504.105 482.214 510.534C466.246 561.992 388.964 601.035 295.925 601.035C191.401 601.035 106.653 551.65 106.653 490.78C106.653 472.634 114.119 455.523 127.444 440.464C141.91 424.031 163.272 410.03 189.244 399.687C218.643 390.149 255.74 384.417 296.052 384.417C336.131 384.417 372.995 390.043 402.288 399.455C428.599 409.903 450.172 424.031 464.765 440.697C471.533 448.396 476.821 456.771 480.268 465.4C483.462 473.67 485.196 482.045 485.196 490.78Z" fill="#FFA52D"/>
<path d="M468.192 455.185C468.192 494.228 391.015 525.826 295.904 525.826C200.792 525.826 123.616 494.249 123.616 455.185C123.616 450.13 124.885 445.308 127.296 440.486C135.671 424.052 158.069 409.712 189.096 399.709C218.495 390.17 255.592 384.438 295.904 384.438C335.983 384.438 372.847 390.064 402.14 399.476C433.611 409.586 456.242 424.052 464.617 440.718C466.923 445.414 468.192 450.236 468.192 455.185Z" fill="#A6343F"/>
<path d="M295.925 604.483C244.784 604.483 196.626 592.85 160.353 571.721C123.489 550.254 103.206 521.511 103.206 490.78C103.206 472.38 110.693 454.191 124.864 438.18C139.563 421.493 161.39 407.069 187.954 396.494C188.018 396.473 188.102 396.451 188.166 396.409C219.32 386.299 256.628 380.97 296.031 380.97C335.285 380.97 372.382 386.236 403.325 396.176C403.388 396.198 403.473 396.219 403.536 396.261C430.502 406.984 452.562 421.556 467.346 438.434C481.495 454.952 488.644 472.549 488.644 490.78C488.644 521.49 468.34 550.233 431.496 571.721C395.203 592.85 347.066 604.483 295.925 604.483ZM190.386 402.944C164.858 413.118 143.983 426.886 130.003 442.749C116.784 457.681 110.08 473.839 110.08 490.78C110.08 549.683 193.453 597.588 295.904 597.588C398.354 597.588 481.728 549.662 481.728 490.78C481.728 474.241 475.129 458.146 462.122 442.939C448.099 426.929 426.991 413.012 401.104 402.712C370.859 393.004 334.524 387.864 296.031 387.864C257.39 387.864 220.842 393.089 190.386 402.944Z" fill="#390176"/>
<path d="M295.925 528.681C249.543 528.681 205.91 521.257 173.043 507.785C139.351 493.974 120.782 475.298 120.782 455.164C120.782 449.77 122.093 444.525 124.758 439.174C133.345 422.36 155.87 407.386 188.229 396.959C219.341 386.87 256.565 381.541 295.925 381.541C335.116 381.541 372.149 386.786 403.05 396.726C435.874 407.28 458.674 422.423 467.219 439.407C469.799 444.673 471.089 449.961 471.089 455.164C471.089 475.277 452.52 493.974 418.828 507.785C385.939 521.257 342.286 528.681 295.925 528.681ZM295.925 387.293C257.178 387.293 220.546 392.517 190.006 402.437C159.106 412.398 137.765 426.357 129.897 441.776C127.634 446.302 126.535 450.68 126.535 455.164C126.535 472.803 143.835 489.596 175.222 502.476C207.412 515.674 250.283 522.928 295.925 522.928C341.567 522.928 384.438 515.653 416.628 502.476C448.036 489.617 465.315 472.803 465.315 455.164C465.315 450.849 464.215 446.408 462.037 441.945C454.211 426.4 432.617 412.25 401.252 402.183C370.944 392.454 334.524 387.293 295.925 387.293Z" fill="#390176"/>
<g opacity="0.25">
<path d="M482.214 511.465C466.246 562.923 388.964 601.966 295.925 601.966C191.401 601.966 106.653 552.581 106.653 491.711C106.653 473.564 114.119 456.454 127.444 441.395C141.91 424.962 163.272 410.96 189.244 400.618C218.643 391.079 255.74 385.348 296.052 385.348C336.131 385.348 372.995 390.974 402.288 400.385C428.599 410.833 450.172 424.962 464.765 441.628C471.533 449.326 476.821 457.702 480.268 466.331C477.963 469.884 475.784 474.135 472.337 478.958C453.725 504.676 424.094 521.575 393.891 529.718C352.543 540.969 309.017 538.685 266.294 539.256C254.809 539.362 240.575 541.773 237.128 552.686C232.771 566.349 249.648 576.797 263.544 580.245C341.397 599.555 428.577 570.854 482.214 511.465Z" fill="#390176"/>
</g>
<path d="M473.817 378.22C487.48 385.115 499.43 397.065 502.877 411.997C506.325 426.929 499.324 444.61 485.196 450.468C478.301 453.345 470.37 453.345 463.729 456.898C450.531 464.026 445.92 483.653 431.348 487.1C420.562 489.617 409.881 481.813 398.841 482.151C382.64 482.722 371.049 500.404 354.975 501.207C342.222 501.905 331.076 491.901 318.344 491.436C301.91 490.738 287.57 505.67 271.264 504.189C260.118 503.153 250.706 494.545 239.56 493.276C229.789 492.24 220.504 496.956 210.838 498.331C186.833 501.884 165.006 485.345 145.717 472.824C131.822 468.234 117.694 463.053 106.548 453.641C95.4015 444.229 87.5971 429.53 91.383 419.653C94.5978 395.753 108.155 373.377 127.909 359.46C144.448 347.976 164.308 342.455 183.957 338.204C223.697 329.702 264.348 325.451 305.019 325.683C334.883 325.789 364.852 328.327 393.574 336.364C422.254 344.338 445.688 364.092 473.817 378.22Z" fill="#8CCE0D"/>
<g opacity="0.25">
<path d="M502.877 411.997C499.43 397.065 487.607 385.115 473.817 378.22C445.688 364.092 422.253 344.338 393.532 336.301C364.81 328.264 334.84 325.726 304.977 325.62C264.326 325.387 223.655 329.639 183.914 338.141C164.266 342.392 144.3 347.912 127.867 359.397C108.112 373.186 94.5553 395.584 91.3405 419.463C87.5546 429.34 95.359 444.039 106.505 453.451C117.651 462.862 131.779 468.15 145.675 472.634C164.964 485.26 186.79 501.694 210.796 498.141C220.44 496.639 229.746 492.049 239.517 493.086C250.663 494.228 260.075 502.963 271.221 503.999C287.655 505.501 301.889 490.569 318.301 491.246C331.055 491.817 342.201 501.821 354.933 501.017C371.134 500.108 382.724 482.532 398.798 481.961C409.817 481.496 420.498 489.427 431.306 486.91C445.899 483.462 450.489 463.814 463.686 456.708C470.243 453.155 478.153 453.155 485.153 450.278C499.324 444.61 506.325 426.929 502.877 411.997ZM239.073 479.19C237.233 482.299 230.465 484.245 227.483 485.387C222.999 487.1 218.304 488.496 213.461 489.3C211.282 489.638 208.744 489.765 207.264 488.158C205.889 486.55 206.354 484.245 206.227 482.193C205.995 478.64 204.049 475.193 201.067 473.226C199.692 472.422 197.958 470.921 198.888 469.673C199.227 469.207 199.692 468.975 200.157 468.869C207.856 465.76 216.125 462.545 224.162 464.153C229.196 465.062 242.965 472.528 239.073 479.19ZM275.367 494.46C274.457 495.603 272.723 495.729 271.242 495.729C267.457 495.624 263.776 494.46 260.562 492.62C259.758 492.155 258.954 491.584 258.383 490.78C257.918 489.977 257.685 488.94 258.277 488.137C258.975 486.995 260.689 486.995 261.958 487.227C263.988 487.46 278.92 490.082 275.367 494.46ZM363.689 480.798C362.991 485.514 359.565 492.515 354.383 493.424C348.863 494.46 341.862 492.049 337.505 488.835C336.363 487.925 335.094 486.762 335.327 485.281C335.433 484.245 336.363 483.568 337.273 483.103C338.182 482.765 339.218 482.638 340.255 482.532C345.415 481.961 350.365 479.888 354.383 476.568C356.223 474.96 358.402 473.12 360.707 473.691C362.082 474.03 363.012 475.193 363.456 476.568C363.901 478.027 363.901 479.402 363.689 480.798ZM425.235 477.456C416.162 477.794 406.983 474.812 399.729 469.419C397.889 468.044 395.943 466.098 396.048 463.793C396.154 461.953 397.55 460.346 399.158 459.669C400.871 458.865 402.711 458.865 404.551 458.971C410.177 459.436 415.337 461.488 420.286 464.026C423.501 465.739 430.269 468.277 432.236 471.597C434.774 475.975 428.218 477.35 425.235 477.456Z" fill="#390176"/>
</g>
<path d="M273.548 507.764C272.681 507.764 271.793 507.721 270.904 507.637C264.644 507.066 259.06 504.401 253.667 501.842C248.718 499.494 244.044 497.273 239.116 496.723C233.617 496.152 228.118 497.654 222.259 499.24C218.706 500.213 215.047 501.207 211.261 501.757C188.335 505.162 167.713 491.542 149.524 479.507C147.706 478.302 145.929 477.117 144.152 475.975C130.278 471.386 115.79 466.035 104.263 456.285C92.8848 446.661 83.7057 430.778 87.9568 418.807C91.3831 394.167 105.532 370.944 125.858 356.647C143.137 344.655 163.61 339.071 183.153 334.841C223.317 326.254 264.284 322.024 304.956 322.236C340.128 322.363 368.554 325.81 394.42 333.044C413.223 338.225 429.381 348.102 446.47 358.551C455.713 364.198 465.294 370.056 475.319 375.09C491.52 383.254 502.772 396.409 506.177 411.151C510.217 428.684 501.566 447.317 486.444 453.577C483.081 454.973 479.591 455.735 476.207 456.454C472.252 457.3 468.53 458.104 465.273 459.859C460.049 462.672 456.221 467.896 452.181 473.416C446.851 480.692 441.331 488.2 432.067 490.378C425.151 492.007 418.616 490.019 412.271 488.115C407.597 486.72 403.198 485.387 398.862 485.514C391.692 485.768 385.284 489.998 378.516 494.503C371.367 499.24 363.964 504.147 355.06 504.591C347.573 504.993 340.826 502.201 334.291 499.494C328.75 497.21 323.526 495.031 318.132 494.841C310.878 494.545 303.962 497.675 296.602 500.975C289.326 504.359 281.754 507.764 273.548 507.764ZM236.684 489.723C237.741 489.723 238.82 489.765 239.898 489.892C245.99 490.59 251.404 493.149 256.649 495.645C261.725 498.056 266.505 500.319 271.56 500.805C278.984 501.482 286.196 498.225 293.831 494.799C301.593 491.309 309.609 487.671 318.471 488.052C325.112 488.285 331.161 490.801 337.019 493.234C343.11 495.751 348.863 498.14 354.785 497.823C361.828 497.464 368.131 493.297 374.793 488.877C382.069 484.055 389.577 479.084 398.714 478.746C404.17 478.556 409.331 480.121 414.322 481.622C420.033 483.336 425.426 484.964 430.545 483.758C437.355 482.151 441.881 475.975 446.682 469.419C450.997 463.518 455.48 457.427 462.079 453.874C466.203 451.674 470.581 450.722 474.811 449.813C478.026 449.115 481.072 448.459 483.864 447.296C495.75 442.368 502.772 426.886 499.515 412.779C496.617 400.216 486.423 388.457 472.273 381.308C461.995 376.147 452.308 370.225 442.938 364.494C426.272 354.299 410.515 344.676 392.644 339.748C367.391 332.684 339.536 329.321 304.998 329.194C264.834 328.962 224.353 333.149 184.676 341.631C165.831 345.712 146.14 351.042 129.876 362.336C111.01 375.619 97.8973 397.234 94.8094 420.139C94.7671 420.414 94.7037 420.668 94.6191 420.922C91.6792 428.599 97.8973 441.839 108.79 451.061C119.491 460.113 133.45 465.189 146.817 469.609C147.092 469.694 147.367 469.821 147.621 469.99C149.524 471.217 151.449 472.507 153.416 473.797C170.569 485.133 190.027 497.992 210.373 494.968C213.736 494.482 217.035 493.593 220.546 492.62C225.686 491.182 231.058 489.723 236.684 489.723Z" fill="#390176"/>
<path d="M430.756 406.477C413.413 427.034 387.906 444.272 363.922 457.596C349.794 465.4 336.236 471.83 325.111 476.652C307.071 484.457 286.64 484.689 268.493 477.118C259.525 473.332 250.917 469.186 242.648 464.724C193.368 438.075 156.271 401.908 156.271 401.908L298.801 333.678L430.756 406.477Z" fill="#FFBB01"/>
<path d="M296.284 486.191C286.365 486.191 276.488 484.266 267.245 480.417C205.783 454.614 154.473 404.975 153.966 404.467C153.162 403.685 152.781 402.543 152.972 401.443C153.162 400.322 153.86 399.37 154.875 398.905L297.405 330.675C298.399 330.188 299.583 330.231 300.556 330.759L432.532 403.579C433.442 404.087 434.076 404.954 434.267 405.969C434.457 406.984 434.182 408.042 433.505 408.824C406.306 440.866 360.347 465.189 326.592 479.93C316.948 484.097 306.605 486.191 296.284 486.191ZM162.405 402.923C175.031 414.471 218.96 452.668 269.91 474.051C287.02 481.199 306.669 481.03 323.821 473.607C355.758 459.648 398.798 437.038 425.447 407.534L298.78 337.633L162.405 402.923Z" fill="#390176"/>
<path d="M260.541 447.592C266.864 450.574 273.294 452.647 279.956 454.022C286.618 455.291 293.386 455.735 300.049 455.396L305.104 454.931L310.053 454.127L315.002 453.091C316.609 452.626 318.217 452.182 319.824 451.716C326.254 449.644 332.345 446.894 338.203 443.341C339.578 442.537 341.312 443.003 342.222 444.377C342.92 445.519 342.687 447.127 341.757 448.057C336.236 453.112 329.701 457.025 322.573 459.648C320.86 460.219 319.02 460.79 317.18 461.361L311.66 462.735L306.034 463.539L300.408 464.004C292.942 464.237 285.371 463.306 278.137 461.128C271.01 458.95 264.115 455.608 258.383 451.018C257.58 450.32 257.347 449.073 258.045 448.269C258.827 447.359 259.737 447.148 260.541 447.592Z" fill="#390176"/>
<path d="M500.001 411.87C491.731 431.053 469.672 446.323 441.881 451.272C436.826 452.182 431.665 452.774 426.378 452.985C382.618 454.698 346.219 430.82 345.056 399.814C344.95 396.832 345.162 393.956 345.627 391.079C350.449 363.965 382.492 342.032 422.127 340.552C463.94 338.945 499.07 360.644 503.089 389.705C503.321 391.079 503.427 392.454 503.427 393.829C503.808 399.941 502.539 406.138 500.001 411.87Z" fill="#FF1E02"/>
<path d="M422.169 456.517C397.318 456.517 373.841 448.354 358.656 434.31C348.059 424.496 342.222 412.61 341.736 399.941C341.63 396.938 341.82 393.85 342.349 390.551C344.866 376.359 354.341 363.161 369.04 353.348C383.613 343.619 402.457 337.845 422.127 337.105C442.938 336.301 463.052 341.123 478.703 350.683C494.629 360.391 504.548 374.096 506.642 389.239C506.875 390.677 507.023 392.243 507.023 393.787C508.186 426.548 472.147 454.656 426.653 456.454C425.151 456.496 423.65 456.517 422.169 456.517ZM426.568 343.915C425.172 343.915 423.798 343.936 422.381 343.999C385.22 345.395 353.749 365.911 349.159 391.693C348.715 394.484 348.546 397.128 348.631 399.687C349.032 410.495 354.108 420.71 363.33 429.255C378.092 442.939 401.654 450.532 426.357 449.559C468.107 447.909 501.185 422.973 500.107 393.977C500.107 393.935 500.107 393.892 500.107 393.85C500.107 392.666 500.001 391.46 499.811 390.276C496.152 363.732 464.363 343.915 426.568 343.915Z" fill="#390176"/>
<path d="M503.11 389.599C499.092 415.211 465.315 435.198 424.2 435.198C383.888 435.198 350.576 415.909 345.648 390.974C350.471 363.859 382.513 341.927 422.148 340.446C463.94 338.839 499.092 360.539 503.11 389.599Z" fill="#FA6469"/>
<path d="M424.199 438.075C383.063 438.075 348.081 418.067 342.814 391.545C342.751 391.185 342.751 390.826 342.814 390.487C345.31 376.507 354.679 363.457 369.252 353.728C383.739 344.063 402.478 338.331 422.042 337.591C464.871 335.962 501.735 358.614 505.965 389.218C506.008 389.493 506.008 389.789 505.965 390.064C501.651 417.411 466.499 438.075 424.199 438.075ZM348.567 390.952C353.664 414.577 386.045 432.322 424.199 432.322C443.488 432.322 461.931 427.775 476.123 419.526C489.722 411.616 498.246 400.999 500.212 389.578C496.088 362.083 461.952 341.779 422.254 343.323C385.072 344.719 353.537 365.149 348.567 390.952Z" fill="#390176"/>
<g opacity="0.25">
<path d="M503.575 393.723C503.47 392.348 503.47 390.974 503.237 389.599C499.218 360.539 464.067 338.945 422.275 340.446C395.626 341.483 372.424 351.698 358.655 366.63L299.055 333.784L156.525 402.014C156.525 402.014 193.622 438.201 242.902 464.829C250.262 460.007 257.135 454.149 264.728 449.665C287.824 435.875 316.186 435.537 342.941 435.642C347.89 444.018 355.462 452.287 364.197 457.702C370.753 454.149 377.394 450.13 383.951 445.985C396.472 451.04 411.065 453.683 426.674 453.112C431.961 452.88 437.122 452.309 442.177 451.399C454.465 439.111 461.021 420.732 455.967 404.319C457.341 408.909 484.456 410.981 488.813 411.32C492.133 411.552 496.173 412.018 500.297 412.124C502.539 406.138 503.808 399.941 503.575 393.723Z" fill="#390176"/>
</g>
<path d="M191.296 456.792C148.805 467.473 108.261 451.737 100.668 421.641C99.97 418.765 99.5259 415.888 99.399 413.033C98.4895 385.475 125.244 357.451 163.716 347.68C204.261 337.464 243.198 351.36 253.181 378.918C253.646 380.187 254.09 381.562 254.323 382.831C262.042 412.906 233.786 446.112 191.296 456.792Z" fill="#FF1E02"/>
<path d="M164.964 463.539C131.653 463.539 103.692 447.698 97.326 422.466C96.5223 419.124 96.0782 416.079 95.9513 413.139C94.9572 383.338 123.108 354.405 162.87 344.317C183.068 339.219 203.732 339.769 221.054 345.861C238.65 352.057 251.213 363.373 256.438 377.734C256.882 378.939 257.41 380.525 257.707 382.069C260.794 394.315 258.553 407.301 251.192 419.674C239.962 438.519 217.881 453.641 192.12 460.113C182.899 462.439 173.741 463.539 164.964 463.539ZM190.217 347.785C181.926 347.785 173.276 348.822 164.562 351.021C128.501 360.179 101.979 386.786 102.846 412.906C102.952 415.359 103.333 417.961 104.009 420.837C109.572 442.918 134.613 456.687 164.731 456.687C173.022 456.687 181.693 455.65 190.45 453.451C214.476 447.423 234.97 433.464 245.27 416.163C251.7 405.377 253.667 394.146 251.002 383.677C250.981 383.592 250.96 383.529 250.96 383.444C250.769 382.365 250.325 381.096 249.966 380.102C242.669 359.968 218.558 347.785 190.217 347.785Z" fill="#390176"/>
<path d="M253.202 378.918C254.576 404.763 225.749 431.412 185.564 439.915C146.161 448.29 109.657 436.361 99.5469 413.033C98.6375 385.475 125.392 357.451 163.864 347.679C204.261 337.443 243.198 351.36 253.202 378.918Z" fill="#FA6469"/>
<path d="M160.839 445.414C130.828 445.414 105.342 433.654 96.8819 414.175C96.7338 413.837 96.6492 413.498 96.6492 413.139C95.6552 383.634 123.615 354.934 163.124 344.909C204.62 334.418 245.355 348.927 255.888 377.945C255.993 378.22 256.036 378.495 256.057 378.77C257.537 406.476 227.483 433.971 186.135 442.727C177.548 444.546 169.025 445.414 160.839 445.414ZM102.381 412.377C112.385 434.394 147.726 445.012 184.95 437.08C222.703 429.107 251.298 403.854 250.346 379.489C240.575 353.475 203.013 340.721 164.541 350.45C128.48 359.608 101.873 386.151 102.381 412.377Z" fill="#390176"/>
<g opacity="0.25">
<path d="M191.296 455.058C148.805 465.739 108.261 450.003 100.668 419.907C99.97 417.03 99.5259 414.154 99.399 411.299C98.4895 383.74 125.244 355.717 163.716 345.945C204.261 335.73 243.198 349.625 253.181 377.184C253.646 378.453 254.09 379.828 254.323 381.097C262.042 411.193 233.786 444.377 191.296 455.058Z" fill="#390176"/>
</g>
<path d="M434.542 358.36C434.077 359.27 433.632 360.073 433.04 360.877C430.164 365.699 426.611 369.95 422.592 373.969C418.235 378.326 413.286 382.344 408.231 386.024C407.322 386.722 406.391 387.293 405.482 387.97C399.285 392.327 392.728 396.24 386.066 399.793C381.815 402.098 377.564 404.15 373.313 406.117C338.521 421.853 299.457 427.944 261.683 423.227C238.82 420.351 216.549 413.456 195.864 403.367C188.504 399.814 181.398 395.669 174.503 391.312C158.302 380.864 143.602 368.11 130.976 353.644C128.903 353.876 126.957 354.342 125.117 355.018C121.67 356.161 118.455 358.128 115.473 360.539C106.632 367.772 100.774 379.827 99.7374 392.116C98.2357 410.601 106.738 429.107 119.957 442.072C123.256 445.308 126.831 448.248 130.595 450.913C141.91 458.865 155.108 464.216 168.644 467.579C174.503 469.08 180.594 470.096 185.881 472.866C191.275 475.616 195.991 480.565 196.668 486.529C197.471 493.086 193.347 499.388 187.827 502.963C184.908 504.845 181.651 506.029 178.288 506.77C175.454 507.404 172.557 507.743 169.68 507.891H168.982C125.329 510.196 82.2675 478.598 71.481 436.213C62.5134 401.295 74.6958 362.929 98.2357 335.709C102.254 331.119 106.611 326.741 111.222 322.617C133.493 302.863 161.749 290.003 190.809 283.108C225.834 274.733 262.36 274.5 298.42 276.34C324.266 277.715 350.217 280.126 375.131 287.254C393.617 292.541 411.658 300.578 427.055 312.063C432.342 315.976 437.397 320.332 441.987 325.049C442.706 335.032 440.295 347.785 434.542 358.36Z" fill="white"/>
<path d="M187.848 502.963C184.93 504.845 181.673 506.029 178.31 506.77C170.759 507.573 162.913 506.727 155.425 505.247C144.829 503.153 134.36 499.811 125.181 494.101C116.023 488.39 108.197 480.142 104.242 470.096C102.931 466.775 102.043 463.222 102.233 459.648C102.402 456.073 103.714 452.478 106.294 450.003C110.334 446.112 116.7 445.667 122.093 447.19C125.096 448.036 127.867 449.39 130.595 450.891C141.911 458.844 155.108 464.195 168.644 467.558C174.503 469.059 180.594 470.074 185.881 472.845C191.275 475.595 195.991 480.544 196.668 486.508C197.493 493.086 193.347 499.388 187.848 502.963Z" fill="#FFB531"/>
<path d="M164.71 511.232C120.951 511.232 79.2217 479.359 68.3929 436.848C59.5945 402.585 70.1272 362.865 95.8879 333.234C118.138 307.537 150.772 288.967 190.259 279.534C227.991 270.524 266.336 271.011 298.843 272.66C322.468 273.929 350.153 276.214 376.337 283.701C404.107 291.632 427.753 305.02 444.694 322.384C445.286 322.997 445.624 323.801 445.667 324.647C446.195 337.697 442.579 351.91 435.98 362.654C430.016 372.531 420.985 381.435 407.554 390.677C365.318 419.843 311.977 432.914 261.26 426.527C210.965 420.182 163.103 394.907 129.664 357.112C115.896 359.925 104.729 374.603 103.312 392.158C102 408.507 109.17 426.167 122.516 439.386C134.212 450.976 150.053 459.246 169.596 463.983C170.315 464.153 171.076 464.322 171.816 464.491C177.062 465.697 182.497 466.944 187.573 469.546C194.595 473.141 199.333 479.211 200.221 485.831C201.13 493.234 196.943 501.165 189.794 505.628C184.57 508.885 178.098 510.64 169.426 511.084C167.84 511.19 166.275 511.232 164.71 511.232ZM265.342 278.625C241.802 278.625 216.633 280.338 191.867 286.26C165.323 292.605 128.015 306.67 101.091 337.76C76.7895 365.72 66.8278 403.029 75.0552 435.135C85.4821 476.102 126.788 506.453 169.046 504.211C176.491 503.809 181.926 502.413 186.114 499.79C190.957 496.766 193.939 491.394 193.368 486.698C192.797 482.447 189.371 478.196 184.422 475.679C180.107 473.48 175.306 472.38 170.251 471.217C169.49 471.048 168.729 470.857 167.967 470.688C147.156 465.654 130.236 456.771 117.63 444.293C102.867 429.657 94.9362 409.966 96.4167 391.608C98.151 370.141 112.829 352.248 130.532 349.985C131.674 349.837 132.816 350.281 133.577 351.148C165.979 388.499 212.826 413.477 262.106 419.695C311.174 425.871 362.759 413.245 403.62 385.009C416.226 376.338 424.622 368.089 430.079 359.079C435.705 349.921 439.004 337.485 438.814 326.255C422.782 310.202 400.533 297.787 374.433 290.321C348.905 283.024 321.706 280.782 298.484 279.534C287.972 279.027 276.847 278.625 265.342 278.625Z" fill="#390176"/>
<path d="M213.905 367.095C214.011 373.757 212.636 380.42 209.886 386.511C206.777 393.173 201.955 398.905 195.991 403.283C192.311 406.032 188.187 408.105 183.808 409.607C184.401 410.305 184.972 411.024 185.543 411.743C188.694 415.698 191.571 419.886 193.22 424.644C195.06 430.27 194.933 436.933 191.613 441.755C187.129 448.184 178.183 450.257 170.484 448.523C162.785 446.81 156.25 441.966 150.032 437.271C143.454 432.174 137.004 426.802 131.272 420.774C128.184 417.559 125.308 414.154 122.706 410.516C115.24 400.068 110.524 387.315 111.687 374.561C112.152 369.612 113.527 364.79 115.705 360.433C118.688 354.574 123.066 349.414 128.692 346.199C129.834 345.501 130.997 344.93 132.245 344.486L210.923 351.846C212.763 356.52 213.799 361.808 213.905 367.095Z" fill="white"/>
<path d="M191.634 441.733C187.15 448.163 178.203 450.236 170.505 448.501C162.806 446.788 156.271 441.945 150.053 437.25C143.475 432.152 137.024 426.78 131.293 420.753C129.389 417.157 127.782 413.392 126.513 409.522C125.836 407.47 125.244 405.186 126.026 403.156C127.105 400.322 130.383 399.095 133.323 398.397C146.669 395.288 161.093 397.022 173.318 403.219C177.886 405.525 181.926 408.38 185.564 411.679C188.715 415.634 191.591 419.822 193.241 424.581C195.081 430.249 194.954 436.911 191.634 441.733Z" fill="#FFB531"/>
<path d="M132.646 345.818C129.474 348.293 126.661 350.683 124.165 353.475C121.648 356.224 119.47 359.354 117.968 362.823C114.796 369.718 114.098 377.522 115.43 385.094C116.72 392.687 119.893 399.962 124.186 406.498C126.344 409.755 128.818 412.864 131.462 415.804C134.127 418.744 136.982 421.535 139.964 424.242C142.946 426.929 146.056 429.53 149.228 432.047C152.443 434.564 155.636 437.102 158.894 439.259C162.151 441.437 165.492 443.278 168.982 444.398C170.759 444.991 172.387 445.329 174.164 445.456C175.919 445.583 177.675 445.498 179.367 445.202C182.751 444.589 185.86 443.066 187.869 440.676C189.857 438.328 190.851 435.029 190.745 431.56C190.682 428.092 189.625 424.644 187.869 421.366C186.135 418.067 183.766 414.958 181.186 411.933L181.165 411.912C179.938 410.474 180.128 408.317 181.566 407.111C181.862 406.857 182.201 406.667 182.56 406.519L182.666 406.476C187.806 404.552 192.522 401.654 196.646 398.059C200.728 394.421 204.197 390.064 206.65 385.157C209.146 380.293 210.605 374.836 211.113 369.231C211.578 363.627 211.092 357.874 209.527 352.311C209.315 351.571 209.738 350.81 210.478 350.598C211.134 350.408 211.811 350.725 212.107 351.317C214.92 356.837 216.422 363.098 216.548 369.422C216.697 375.746 215.47 382.175 212.911 388.097C210.309 393.998 206.418 399.328 201.574 403.621C196.773 407.936 190.978 411.172 184.76 412.927L186.262 407.492L186.283 407.513C189.096 410.685 191.845 414.112 194.024 418.067C196.202 422.001 197.725 426.632 197.873 431.412C198.042 436.171 196.752 441.311 193.432 445.35C190.132 449.326 185.373 451.632 180.699 452.457C178.33 452.88 175.962 452.985 173.593 452.816C171.245 452.647 168.834 452.118 166.698 451.399C162.341 449.961 158.407 447.782 154.833 445.371C151.216 442.96 147.959 440.359 144.702 437.8C141.424 435.198 138.209 432.512 135.079 429.678C128.818 424.031 123.002 417.644 118.286 410.389C113.633 403.114 110.143 394.95 108.768 386.236C108.091 381.879 107.922 377.438 108.451 372.996C108.958 368.555 110.227 364.219 112.11 360.179C113.971 356.139 116.53 352.354 119.703 349.181C120.506 348.399 121.373 347.679 122.262 346.982C123.192 346.326 124.102 345.691 125.117 345.163C127.063 344.042 129.241 343.301 131.42 342.9C132.308 342.73 133.175 343.323 133.344 344.211C133.45 344.824 133.217 345.438 132.752 345.797L132.646 345.818Z" fill="#390176"/>
<g opacity="0.25">
<path d="M427.309 311.851C426.738 316.335 423.396 320.586 416.289 324.245C385.284 340.89 331.076 351.233 259.526 348.716C180.044 345.966 116.869 317.816 119.64 315.743C140.43 299.669 165.472 288.988 191.19 282.897C226.214 274.522 262.74 274.289 298.801 276.129C324.646 277.504 350.598 279.915 375.512 287.042C393.997 292.309 411.911 300.346 427.309 311.851Z" fill="#390176"/>
</g>
<path d="M431.898 435.769C431.137 436.425 430.333 436.975 429.466 437.419C427.203 438.582 424.665 439.005 422.042 438.921C417.749 438.772 413.201 437.292 409.289 435.41C401.738 431.772 394.843 427.098 388.562 421.683C383.084 416.988 378.05 411.722 373.334 406.117C364.493 395.669 356.794 384.057 349.434 372.467C348.525 371.092 347.594 369.591 346.685 368.216L409.162 363.267L416.162 362.696C418.468 366.376 420.646 370.162 422.719 373.948C427.562 383.317 431.327 393.215 433.886 403.473C434.859 407.301 435.663 411.172 436.276 415.063C437.291 422.339 437.524 430.947 431.898 435.769Z" fill="white"/>
<path d="M429.466 437.419C427.203 438.582 424.665 439.005 422.042 438.921C417.749 438.773 413.202 437.292 409.289 435.41C401.738 431.772 394.843 427.098 388.562 421.683C386.87 419.082 385.432 416.248 384.311 413.181C382.132 407.196 381.477 399.857 385.622 395.013C390.634 389.176 400.067 389.916 407.068 393.11C417.728 397.974 426.209 407.386 429.931 418.49C431.962 424.539 432.575 431.751 429.466 437.419Z" fill="#FFB531"/>
<path d="M348.165 367.349C358.021 380.356 367.031 393.786 377.585 405.778C382.851 411.743 388.561 417.305 394.801 422.085C395.583 422.677 396.345 423.312 397.148 423.862L399.581 425.533C401.167 426.696 402.88 427.648 404.551 428.642C406.201 429.699 407.977 430.482 409.711 431.412C411.446 432.364 413.138 433.02 414.893 433.654C418.362 434.86 422 435.473 425.045 434.944C428.091 434.437 430.438 432.681 431.75 429.974C433.082 427.246 433.357 423.587 433.103 419.907C432.976 418.024 432.723 416.205 432.363 414.217C432.046 412.272 431.644 410.326 431.221 408.401C429.508 400.681 427.16 393.089 424.178 385.728C421.175 378.389 417.537 371.325 413.37 364.557L413.349 364.536C412.355 362.907 412.863 360.792 414.47 359.798C416.056 358.804 418.15 359.291 419.166 360.856C428.26 374.836 434.859 390.466 438.433 406.794C438.877 408.845 439.279 410.876 439.639 412.948C440.019 414.979 440.316 417.178 440.464 419.357C440.612 421.556 440.633 423.819 440.358 426.146C440.062 428.472 439.533 430.862 438.391 433.168C437.27 435.473 435.557 437.609 433.421 439.174C431.284 440.761 428.746 441.755 426.272 442.178C423.776 442.622 421.344 442.516 419.039 442.156C416.733 441.797 414.555 441.205 412.461 440.464C410.388 439.703 408.316 438.815 406.476 437.8C404.614 436.784 402.69 435.896 400.913 434.733C399.115 433.612 397.275 432.554 395.583 431.307L393.003 429.488C392.136 428.874 391.353 428.198 390.507 427.542C383.908 422.339 377.965 416.396 372.551 410.114C361.701 397.509 353.008 383.508 345.394 369.083C344.971 368.28 345.289 367.285 346.071 366.862C346.833 366.524 347.7 366.736 348.165 367.349Z" fill="#390176"/>
<path d="M437.08 310.455C303.856 353.073 184.168 336.978 133.979 316.547C118.244 310.117 108.938 293.81 111.349 276.933C115.262 250.051 126.746 208.259 160.396 176.661C187.045 151.619 227.462 132.901 289.03 132.901C398.481 132.901 439.153 182.625 454.423 228.922C459.478 244.319 461.783 259.357 462.925 271.984C464.406 289.327 453.619 305.189 437.08 310.455Z" fill="#FFA52D"/>
<g opacity="0.6">
<path d="M447.697 305.147C450.975 299.035 452.54 291.97 451.906 284.631C450.764 272.005 448.459 256.946 443.404 241.57C433.146 210.501 411.446 177.845 365.149 159.762C362.991 163.823 354.256 165.261 344.633 162.913C334.249 160.396 326.783 154.453 327.946 149.631C327.946 149.61 327.967 149.589 327.967 149.589C313.162 146.987 296.58 145.549 278.032 145.549C216.464 145.549 176.046 164.267 149.397 189.308C148.086 190.535 146.817 191.783 145.569 193.031C149.99 187.363 154.939 181.864 160.501 176.639C187.15 151.598 227.568 132.88 289.136 132.88C398.587 132.88 439.237 182.604 454.529 228.901C459.583 244.298 461.889 259.336 463.031 271.963C464.152 285.287 458.061 297.723 447.697 305.147Z" fill="white"/>
</g>
<g opacity="0.25">
<path d="M437.08 310.455C303.856 353.073 184.168 336.978 133.979 316.547C118.244 310.117 108.938 293.81 111.349 276.933C115.262 250.051 126.746 208.259 160.396 176.661C154.431 186.876 150.413 197.916 149.482 209.845C146.965 242.226 169.131 272.66 197.493 288.396C225.855 304.132 259.399 307.579 291.779 307.917C332.662 308.383 375.28 303.793 409.966 282.072C429.72 269.678 446.153 250.495 454.529 229.007C459.584 244.404 461.889 259.442 463.031 272.068C464.406 289.327 453.619 305.189 437.08 310.455Z" fill="#390176"/>
</g>
<path d="M266.547 340.785C262.486 340.785 258.426 340.742 254.386 340.637C206.82 339.516 162.447 331.902 132.668 319.74C115.346 312.719 105.173 294.847 107.943 276.298C111.539 251.235 121.374 214.942 147.896 184.528C179.769 147.981 227.251 129.433 289.03 129.433C353.791 129.433 401.738 146.797 431.538 181.06C451.44 203.944 463.158 234.464 466.33 271.793C467.959 290.659 456.347 307.896 438.095 313.734C382.661 331.5 323.61 340.785 266.547 340.785ZM289.03 136.349C154.96 136.349 122.304 224.65 114.754 277.292C112.469 292.711 120.908 307.516 135.269 313.353C178.034 330.823 295.903 352.015 436.001 307.177C451.166 302.334 460.81 288.036 459.456 272.385C451.779 182.117 394.42 136.349 289.03 136.349Z" fill="#390176"/>
<path d="M612.328 333.784C589.36 393.512 493.571 425.892 397.677 365.023L366.206 333.784C366.206 333.784 339.79 290.596 359.311 248.803C370.098 225.707 383.887 212.277 395.372 203.902C404.784 197.007 412.715 193.454 416.395 190.577C416.395 190.577 417.093 189.076 418.468 186.665C418.7 186.199 419.039 185.628 419.271 185.057C425.236 174.271 439.829 150.942 453.957 150.033C472.569 148.891 494.502 192.29 494.502 192.29C494.502 192.29 524.831 196.647 543.549 204.24C543.549 204.24 574.322 170.252 590.861 174.144C607.401 178.162 600.506 236.388 600.506 236.388C600.506 236.388 609.685 246.836 615.438 264.983C620.831 281.988 623.136 305.528 612.328 333.784Z" fill="white"/>
<path d="M363.182 335.561C362.145 333.826 361.342 332.24 360.496 330.569C359.671 328.919 358.909 327.227 358.169 325.557C356.71 322.173 355.377 318.746 354.235 315.235C351.909 308.256 350.238 301.023 349.349 293.684C348.44 286.344 348.377 278.857 349.265 271.434C350.217 264.031 352.057 256.713 355.039 249.84L356.16 247.259L357.386 244.806L359.861 239.899C360.749 238.292 361.701 236.727 362.632 235.14L364.028 232.75L365.55 230.445C369.527 224.248 374.201 218.495 379.34 213.208C384.48 207.92 390.19 203.162 396.26 198.974C399.285 196.859 402.415 194.955 405.524 193.094L410.156 190.387C410.917 189.943 411.615 189.499 412.355 189.054C413.096 188.61 413.667 188.166 414.322 187.722L413.328 188.949C415.612 184.359 418.066 180.066 420.731 175.772C423.396 171.521 426.251 167.355 429.423 163.378C432.617 159.423 436.107 155.595 440.316 152.317C442.431 150.688 444.736 149.187 447.38 148.087C450.023 146.987 452.984 146.247 456.178 146.522C459.287 146.818 462.058 147.897 464.49 149.229C466.922 150.583 469.058 152.19 471.068 153.903C475.044 157.351 478.407 161.2 481.537 165.176C484.646 169.173 487.501 173.319 490.166 177.549C492.852 181.8 495.327 186.072 497.674 190.598L495.115 188.758C499.388 189.393 503.533 190.133 507.721 190.916C511.908 191.719 516.075 192.565 520.22 193.538C528.532 195.484 536.802 197.705 544.945 200.92L541.138 201.787C544.775 197.853 548.456 194.236 552.347 190.662C556.218 187.109 560.257 183.725 564.551 180.573C568.865 177.464 573.391 174.503 578.615 172.388C581.238 171.352 584.051 170.485 587.181 170.294C587.943 170.231 588.789 170.294 589.592 170.316C590.417 170.421 591.221 170.527 592.088 170.739C593.907 171.225 595.599 172.219 596.847 173.403C599.385 175.815 600.696 178.585 601.732 181.25C602.748 183.936 603.361 186.622 603.869 189.287C604.841 194.638 605.222 199.926 605.391 205.192C605.539 210.458 605.455 215.703 605.222 220.928C604.968 226.173 604.609 231.333 604.017 236.6V236.621L603.192 233.977C603.932 234.823 604.482 235.521 605.074 236.325C605.666 237.086 606.216 237.869 606.745 238.651C607.845 240.216 608.839 241.803 609.833 243.431C611.779 246.667 613.513 250.009 615.057 253.456C616.601 256.904 617.954 260.415 619.075 264.01C620.196 267.606 621.19 271.243 621.888 274.966C624.828 289.771 624.384 305.21 620.81 319.804C619.921 323.463 618.864 327.058 617.658 330.611C617.003 332.367 616.453 334.143 615.713 335.899C614.951 337.654 614.232 339.41 613.449 341.144C610.171 348.039 605.92 354.405 601.056 360.179C596.17 365.974 590.629 371.156 584.643 375.724C578.637 380.293 572.144 384.142 565.418 387.463C563.726 388.245 562.055 389.133 560.321 389.831L555.118 391.946C553.362 392.602 551.586 393.173 549.83 393.808C548.075 394.463 546.277 394.95 544.479 395.457C540.905 396.557 537.246 397.319 533.608 398.165C531.768 398.524 529.928 398.82 528.109 399.137C527.2 399.285 526.269 399.476 525.36 399.603L522.589 399.941C515.208 400.956 507.742 401.21 500.318 401.168L494.756 400.999C492.894 400.978 491.054 400.724 489.193 400.618C485.492 400.385 481.812 399.857 478.132 399.37C476.292 399.18 474.473 398.778 472.654 398.461C470.835 398.122 468.995 397.826 467.197 397.445L461.783 396.198L459.076 395.563L456.411 394.823L451.06 393.321C449.283 392.814 447.549 392.179 445.793 391.608C444.038 391.016 442.283 390.487 440.548 389.831L435.366 387.843C421.619 382.471 408.506 375.365 397.127 366.017C396.556 365.551 396.472 364.705 396.937 364.134C397.339 363.648 397.994 363.521 398.544 363.775C411.7 369.972 424.538 376.253 437.883 381.393L442.896 383.275C444.567 383.888 446.28 384.396 447.972 384.967C449.664 385.496 451.356 386.109 453.069 386.574L458.23 387.991L460.81 388.689L463.411 389.26L468.635 390.424C470.37 390.783 472.146 391.037 473.881 391.354C475.636 391.629 477.37 392.01 479.147 392.179C482.679 392.602 486.211 393.11 489.743 393.279C491.52 393.385 493.275 393.596 495.052 393.617L500.382 393.744C507.467 393.723 514.573 393.448 521.574 392.412L524.196 392.073C525.064 391.946 525.931 391.756 526.819 391.608C528.553 391.291 530.309 390.995 532.043 390.635C535.469 389.81 538.938 389.07 542.301 387.991C543.993 387.505 545.685 387.018 547.335 386.405C548.984 385.813 550.676 385.263 552.305 384.629L557.169 382.598C557.994 382.281 558.777 381.879 559.559 381.498L561.928 380.356C568.231 377.247 574.301 373.673 579.863 369.443C585.426 365.192 590.544 360.412 595.049 355.103C599.533 349.794 603.424 343.978 606.407 337.739C607.126 336.174 607.781 334.566 608.479 332.98C609.156 331.394 609.685 329.681 610.298 328.052C611.44 324.732 612.434 321.348 613.259 317.943C616.601 304.322 617.235 290.067 614.613 276.319C613.999 272.872 613.111 269.488 612.096 266.146C611.081 262.805 609.875 259.505 608.458 256.311C607.062 253.097 605.497 249.966 603.763 246.942C602.874 245.44 601.986 243.939 601.013 242.522C600.527 241.803 600.04 241.083 599.533 240.407C599.046 239.73 598.475 238.99 598.031 238.461L597.968 238.376C597.354 237.636 597.101 236.684 597.206 235.796V235.775C598.264 225.75 598.814 215.471 598.518 205.382C598.348 200.349 597.989 195.315 597.101 190.514C596.656 188.124 596.085 185.755 595.282 183.619C594.499 181.483 593.42 179.537 592.173 178.395C591.559 177.803 590.925 177.485 590.269 177.295C589.91 177.21 589.402 177.147 588.958 177.084C588.471 177.105 588.006 177.02 587.498 177.084C585.489 177.189 583.29 177.824 581.111 178.691C576.754 180.446 572.545 183.154 568.527 186.072C564.508 189.033 560.638 192.269 556.894 195.696C553.172 199.101 549.513 202.696 546.129 206.355C545.135 207.434 543.612 207.73 542.322 207.222C534.771 204.24 526.734 202.062 518.634 200.179C514.573 199.249 510.491 198.403 506.388 197.62C502.306 196.838 498.14 196.119 494.079 195.505C492.958 195.336 492.027 194.638 491.541 193.707L491.52 193.665C489.341 189.477 486.888 185.226 484.329 181.166C481.748 177.084 479.02 173.107 476.101 169.364C473.162 165.62 470.01 162.046 466.542 159.043C464.807 157.562 463.01 156.209 461.127 155.172C459.266 154.136 457.341 153.438 455.522 153.29C453.809 153.121 451.842 153.544 449.96 154.347C448.056 155.13 446.195 156.314 444.419 157.71C440.866 160.481 437.651 163.949 434.69 167.63C431.729 171.331 429 175.286 426.462 179.368C423.924 183.429 421.513 187.701 419.419 191.91L419.335 192.1C419.123 192.523 418.806 192.883 418.425 193.136C417.6 193.686 416.754 194.342 415.951 194.828C415.147 195.315 414.343 195.822 413.561 196.288L408.929 198.995C405.905 200.793 402.922 202.612 400.067 204.621C394.335 208.555 389.006 213.017 384.184 217.988C379.361 222.958 374.962 228.351 371.197 234.21L369.738 236.367L368.427 238.63C367.56 240.132 366.65 241.633 365.804 243.156L363.457 247.83L362.272 250.157L361.257 252.504C358.529 258.765 356.837 265.469 355.969 272.259C355.166 279.069 355.208 285.985 356.054 292.838C356.879 299.69 358.465 306.479 360.644 313.078C361.743 316.377 362.97 319.635 364.366 322.807C365.064 324.393 365.783 325.98 366.566 327.524C367.327 329.046 368.152 330.654 368.956 331.986L368.998 332.071C369.971 333.699 369.421 335.793 367.813 336.745C366.227 337.718 364.133 337.189 363.182 335.561Z" fill="#390176"/>
<path d="M583.395 222.831C585.108 214.9 584.537 206.63 581.894 198.932C575.464 202.252 569.14 207.307 563.979 213.398C570.98 215.132 577.642 218.58 583.395 222.831Z" fill="#FF67A0"/>
<path d="M583.396 225.707C582.782 225.707 582.19 225.517 581.682 225.136C575.824 220.801 569.479 217.713 563.303 216.19C562.33 215.957 561.569 215.238 561.252 214.286C560.934 213.335 561.146 212.298 561.801 211.537C567.11 205.277 573.794 199.904 580.583 196.372C581.323 195.992 582.19 195.949 582.973 196.267C583.755 196.584 584.347 197.218 584.622 198.001C587.478 206.292 588.027 215.09 586.209 223.423C585.997 224.375 585.32 225.158 584.411 225.496C584.072 225.644 583.734 225.707 583.396 225.707ZM569.183 211.981C573.265 213.419 577.347 215.407 581.281 217.903C581.788 213.039 581.429 208.068 580.181 203.204C576.31 205.573 572.546 208.576 569.183 211.981Z" fill="#390176"/>
<path d="M489.843 283.957C496.843 259.242 485.698 234.443 464.95 228.567C444.202 222.691 421.709 237.964 414.709 262.679C407.71 287.394 418.855 312.193 439.603 318.069C460.35 323.945 482.844 308.672 489.843 283.957Z" fill="#FFB531"/>
<path d="M567.533 296.56C565.608 296.56 563.811 295.333 563.176 293.409C562.267 290.68 559.052 288.629 555.71 288.629C552.199 288.629 548.413 290.342 545.347 293.303C543.528 295.058 540.609 295.016 538.854 293.197C537.098 291.378 537.14 288.459 538.959 286.704C543.803 282.009 549.746 279.428 555.71 279.428C563.07 279.428 569.733 283.976 571.89 290.49C572.694 292.901 571.382 295.502 568.992 296.306C568.506 296.497 568.019 296.56 567.533 296.56Z" fill="#390176"/>
<path d="M468.191 286.239C465.653 286.239 463.602 284.187 463.602 281.649C463.602 278.35 460.493 275.029 456.538 274.056C451.419 272.809 446.153 275.347 443.467 276.975C441.289 278.286 438.476 277.588 437.164 275.431C435.853 273.253 436.551 270.44 438.708 269.128C445.455 265.046 452.561 263.651 458.716 265.152C466.859 267.14 472.781 274.099 472.781 281.67C472.781 284.166 470.729 286.239 468.191 286.239Z" fill="#390176"/>
<path d="M518.084 314.833C513.537 314.833 508.778 312.909 505.161 309.609C498.668 311.153 492.725 310.752 487.84 308.425C485.492 307.241 483.588 305.845 481.96 304.089C478.851 300.684 477.138 296.518 477.138 292.33C477.138 290.426 478.682 288.882 480.585 288.882C482.489 288.882 484.033 290.426 484.033 292.33C484.033 294.783 485.09 297.3 487.036 299.415C488.051 300.515 489.32 301.446 490.864 302.207C495.644 304.491 501.312 303.603 505.225 302.44C506.515 302.059 507.911 302.461 508.778 303.476C511.464 306.522 515.567 308.277 519.057 307.875C519.311 307.812 519.522 307.769 519.691 307.748L519.776 307.727C519.84 307.706 519.903 307.685 519.966 307.685C523.795 306.775 526.861 303.032 526.629 299.542C526.502 297.639 527.94 296.01 529.843 295.883C531.747 295.756 533.376 297.194 533.502 299.098C533.947 305.929 528.744 312.613 521.68 314.347C521.32 314.453 521.024 314.495 520.812 314.537L520.728 314.559C520.559 314.601 520.389 314.643 520.22 314.664C519.543 314.77 518.824 314.833 518.084 314.833Z" fill="#390176"/>
<path d="M519.65 311.153C517.344 320.565 512.882 329.639 506.663 337.57C504.718 339.981 502.539 342.392 499.536 342.963C498.267 343.196 497.019 343.196 495.75 342.857C493.572 342.286 491.626 340.912 490.23 339.071C488.051 336.322 486.909 332.748 486.211 329.3C484.837 322.976 484.266 316.674 484.266 310.244C484.266 307.368 484.266 304.385 484.498 301.509C485.873 303.011 487.48 304.259 489.32 305.062C494.27 307.473 500.234 307.368 506.198 305.528C509.54 309.546 514.7 311.851 519.65 311.153Z" fill="#390176"/>
<path d="M500.361 335.391C499.557 338.141 497.95 340.785 495.877 342.857C493.699 342.286 491.753 340.912 490.357 339.071C488.178 336.322 487.036 332.748 486.338 329.3C484.964 322.976 484.393 316.674 484.393 310.244C488.876 311.048 493.128 313.226 496.215 316.674C500.593 321.834 502.307 329.068 500.361 335.391Z" fill="#FF67A0"/>
<path d="M497.844 346.559C496.807 346.559 495.813 346.432 494.862 346.157C492.006 345.395 489.363 343.598 487.501 341.102C485.344 338.395 483.821 334.715 482.87 329.956C481.516 323.759 480.86 317.266 480.86 310.223C480.86 307.283 480.86 304.237 481.093 301.213C481.199 299.838 482.108 298.675 483.398 298.231C484.689 297.787 486.127 298.146 487.057 299.14C488.221 300.409 489.468 301.319 490.737 301.89C490.78 301.911 490.822 301.932 490.864 301.953C495.729 304.322 501.355 303.413 505.225 302.207C506.558 301.805 507.996 302.228 508.884 303.307C511.528 306.5 515.568 308.235 519.184 307.727C520.305 307.579 521.447 307.981 522.209 308.827C522.97 309.673 523.266 310.836 522.991 311.957C520.601 321.771 515.885 331.352 509.371 339.685C507.086 342.519 504.337 345.543 500.191 346.347C499.388 346.495 498.605 346.559 497.844 346.559ZM487.734 308.129C487.734 308.827 487.734 309.546 487.734 310.244C487.734 316.801 488.347 322.807 489.616 328.581C490.357 332.303 491.457 335.032 492.979 336.935C493.973 338.268 495.264 339.156 496.659 339.537C497.379 339.727 498.119 339.748 498.965 339.6C500.805 339.241 502.476 337.337 504.02 335.434C508.969 329.11 512.776 321.94 515.166 314.537C511.507 313.945 507.996 312.169 505.162 309.44C498.753 311.005 492.831 310.604 487.924 308.235C487.819 308.171 487.776 308.15 487.734 308.129Z" fill="#390176"/>
<path d="M506.663 303.687C503.554 303.116 496.892 294.043 501.608 290.363C502.518 289.665 503.554 289.453 504.718 289.327C508.842 288.861 512.987 289.559 516.773 291.272C517.809 291.738 518.846 292.414 519.184 293.451C520.686 297.723 511.38 304.491 506.663 303.687Z" fill="#390176"/>
<path d="M664.358 300.705C663.66 300.705 662.962 300.494 662.348 300.05C646.782 288.861 624.004 288.459 608.162 299.077C606.576 300.134 604.44 299.711 603.382 298.146C602.325 296.56 602.748 294.424 604.313 293.366C622.735 280.994 648.263 281.438 666.367 294.466C667.911 295.587 668.27 297.723 667.15 299.267C666.494 300.198 665.436 300.705 664.358 300.705Z" fill="#390176"/>
<path d="M654.946 344.57C653.909 344.57 652.894 344.105 652.218 343.217C640.585 328.073 618.885 321.094 600.59 326.614C598.771 327.164 596.847 326.128 596.297 324.309C595.747 322.49 596.783 320.565 598.602 320.015C619.541 313.691 644.392 321.686 657.695 339.008C658.859 340.51 658.562 342.688 657.061 343.83C656.426 344.338 655.686 344.57 654.946 344.57Z" fill="#390176"/>
<path d="M627.388 390.064C625.822 390.064 624.405 388.985 624.025 387.378C619.752 368.703 602.917 353.305 583.967 350.746C582.084 350.492 580.752 348.758 581.006 346.876C581.259 344.993 582.994 343.682 584.876 343.915C606.555 346.833 625.844 364.473 630.729 385.834C631.152 387.695 629.989 389.535 628.128 389.958C627.895 390.022 627.641 390.064 627.388 390.064Z" fill="#390176"/>
<path d="M380.102 251.193C379.023 251.193 377.944 250.686 377.267 249.734C366.333 234.125 344.929 226.279 326.402 231.101C324.562 231.587 322.679 230.466 322.193 228.626C321.706 226.786 322.827 224.904 324.667 224.417C345.881 218.897 370.373 227.865 382.914 245.758C384.014 247.323 383.634 249.459 382.068 250.559C381.476 251.003 380.799 251.193 380.102 251.193Z" fill="#390176"/>
<path d="M372.974 277.842C372.234 277.842 371.494 277.61 370.859 277.123C355.695 265.385 332.958 264.074 316.779 274.014C315.15 275.008 313.035 274.501 312.041 272.872C311.047 271.243 311.555 269.128 313.183 268.134C332.007 256.565 357.471 258.025 375.089 271.688C376.591 272.851 376.866 275.008 375.702 276.531C375.026 277.377 374.011 277.842 372.974 277.842Z" fill="#390176"/>
<path d="M315.891 322.744C315.108 322.744 314.304 322.469 313.67 321.919C312.21 320.692 312.041 318.514 313.268 317.054C327.586 300.155 352.226 293.536 373.207 300.98C375.005 301.615 375.935 303.582 375.301 305.38C374.666 307.177 372.699 308.108 370.902 307.473C352.861 301.065 330.822 306.966 318.513 321.496C317.857 322.342 316.885 322.744 315.891 322.744Z" fill="#390176"/>
<path d="M441.669 189.52C449.706 189.054 457.743 189.414 466.584 190.789C464.279 182.413 459.922 176.09 454.634 169.322C447.866 176.555 444.419 182.858 441.669 189.52Z" fill="#FF67A0"/>
<path d="M466.584 193.665C466.436 193.665 466.288 193.644 466.14 193.623C457.743 192.312 450.002 191.931 441.817 192.396C440.844 192.438 439.893 191.994 439.321 191.191C438.75 190.387 438.624 189.351 439.004 188.42C441.436 182.54 444.947 175.455 452.54 167.333C453.111 166.72 453.915 166.382 454.761 166.424C455.607 166.466 456.39 166.868 456.897 167.524C461.804 173.826 466.816 180.743 469.354 190.006C469.608 190.937 469.376 191.952 468.72 192.671C468.17 193.306 467.388 193.665 466.584 193.665ZM448.247 186.453C452.942 186.453 457.637 186.728 462.417 187.299C460.577 182.646 457.976 178.479 454.465 173.784C450.51 178.416 448.014 182.583 446.153 186.453C446.851 186.474 447.549 186.453 448.247 186.453Z" fill="#390176"/>
<g opacity="0.25">
<path d="M615.438 264.391C626.224 309.186 594.309 351.338 547.102 367.983C507.594 382.006 442.706 370.733 407.449 343.64C335.56 288.502 381.371 217.649 395.393 203.183C383.803 211.685 370.119 225.009 359.332 248.084C339.811 289.898 366.227 333.065 366.227 333.065L372.889 339.727C370.373 345.12 413.899 402.204 402.626 407.597C388.963 414.154 360.242 382.894 351.634 370.394C350.936 370.966 349.92 371.198 349.561 371.896C341.63 390.847 312.57 400.153 275.938 397.403C239.877 394.654 215.639 375.703 213.926 366.503C213.82 366.038 213.693 365.467 213.693 365.001C203.584 375.576 191.993 384.988 178.098 389.578C176.956 389.916 175.793 390.275 174.65 390.614C161.664 393.934 147.092 392.221 136.644 383.952C127.909 377.057 123.319 365.001 125.265 354.32C125.836 351.211 126.873 348.229 128.713 345.48C128.818 345.374 128.945 345.141 129.051 345.014C97.4741 355.463 79.4331 393.363 87.597 425.638C95.634 457.913 126.196 481.918 159.042 486.635C163.526 487.206 168.221 487.671 172.134 489.955C176.046 492.261 178.902 497.189 177.188 501.334C176.046 504.211 173.17 505.924 170.188 507.087C176.512 506.749 182.941 505.585 188.334 502.138C193.855 498.69 197.979 492.261 197.175 485.704C196.371 479.74 191.782 474.791 186.389 472.041C180.995 469.292 175.01 468.129 169.151 466.754C151.11 462.397 133.662 454.36 120.464 441.247C107.267 428.261 98.7642 409.776 100.245 391.291C101.154 379.003 107.013 367.053 115.98 359.714C113.802 364.071 112.427 369.02 111.962 373.842C110.925 386.595 115.642 399.349 122.981 409.797C130.341 420.245 140.218 428.747 150.307 436.552C156.504 441.374 163.06 446.09 170.759 447.803C178.457 449.517 187.404 447.571 191.888 441.035C194.405 437.355 195.102 432.872 194.531 428.409C189.709 434.373 181.44 438.18 174.206 435.536C168.58 433.464 164.795 428.176 162.383 422.677C161.009 419.568 160.078 415.55 162.383 413.139C164.456 410.96 168.009 411.299 170.991 411.531C175.941 411.87 180.869 411.531 185.691 410.622C185.225 410.051 184.654 409.48 184.189 408.782C188.546 407.28 192.691 405.229 196.371 402.458C217.035 412.673 239.327 419.462 262.19 422.318C299.985 427.034 339.134 420.943 373.82 405.207C384.035 417.263 395.647 427.605 409.775 434.5C417.008 437.948 426.314 440.126 432.406 434.839C437.926 430.016 437.799 421.514 436.657 414.281C434.711 402.225 431.136 390.381 426.082 379.362C511.993 418.405 592.151 386.828 612.836 332.959C623.136 304.935 620.831 281.395 615.438 264.391Z" fill="#390176"/>
</g>
<g opacity="0.3">
<path d="M281.304 168.11C281.945 164.653 280.677 161.519 278.472 161.11C276.267 160.701 273.96 163.172 273.319 166.629C272.678 170.086 273.946 173.22 276.151 173.629C278.356 174.038 280.663 171.567 281.304 168.11Z" fill="#390276"/>
</g>
<path d="M279.049 167.391C279.69 163.934 278.757 160.862 276.965 160.53C275.174 160.198 273.202 162.731 272.561 166.188C271.92 169.645 272.853 172.716 274.644 173.049C276.436 173.381 278.408 170.848 279.049 167.391Z" fill="white"/>
<g opacity="0.3">
<path d="M322.803 181.912C325.008 181.503 326.276 178.37 325.635 174.913C324.994 171.456 322.687 168.985 320.482 169.394C318.277 169.803 317.009 172.936 317.65 176.393C318.291 179.85 320.598 182.321 322.803 181.912Z" fill="#390276"/>
</g>
<path d="M324.305 181.321C326.097 180.989 327.03 177.917 326.389 174.461C325.748 171.004 323.776 168.471 321.984 168.803C320.193 169.135 319.26 172.207 319.901 175.663C320.542 179.12 322.514 181.653 324.305 181.321Z" fill="white"/>
<g opacity="0.3">
<path d="M361.696 203.148C363.901 202.74 365.168 199.606 364.528 196.149C363.887 192.692 361.579 190.221 359.374 190.63C357.169 191.039 355.901 194.173 356.542 197.63C357.183 201.086 359.49 203.557 361.696 203.148Z" fill="#390276"/>
</g>
<path d="M363.194 202.536C364.986 202.204 365.919 199.132 365.278 195.675C364.637 192.218 362.665 189.685 360.873 190.018C359.082 190.35 358.149 193.421 358.79 196.878C359.431 200.335 361.403 202.868 363.194 202.536Z" fill="white"/>
<g opacity="0.3">
<path d="M343.026 199.862C342.391 196.394 340.086 193.919 337.865 194.342C335.666 194.744 334.397 197.895 335.031 201.343C335.666 204.811 337.971 207.286 340.192 206.863C342.391 206.461 343.66 203.331 343.026 199.862Z" fill="#390276"/>
</g>
<path d="M341.666 206.28C343.458 205.947 344.391 202.876 343.75 199.419C343.109 195.962 341.137 193.429 339.345 193.761C337.553 194.093 336.621 197.165 337.262 200.622C337.903 204.079 339.875 206.612 341.666 206.28Z" fill="white"/>
<g opacity="0.3">
<path d="M305.076 216.621C307.281 216.212 308.549 213.078 307.908 209.621C307.267 206.164 304.96 203.694 302.755 204.102C300.55 204.511 299.282 207.645 299.923 211.102C300.564 214.559 302.871 217.03 305.076 216.621Z" fill="#390276"/>
</g>
<path d="M306.6 216.024C308.391 215.692 309.324 212.62 308.683 209.163C308.042 205.707 306.07 203.174 304.279 203.506C302.487 203.838 301.554 206.91 302.195 210.366C302.836 213.823 304.808 216.356 306.6 216.024Z" fill="white"/>
<g opacity="0.3">
<path d="M238.92 179.344C239.561 175.887 238.293 172.753 236.088 172.344C233.883 171.935 231.575 174.406 230.934 177.863C230.294 181.32 231.561 184.454 233.766 184.863C235.972 185.272 238.279 182.801 238.92 179.344Z" fill="#390276"/>
</g>
<path d="M236.67 178.606C237.311 175.149 236.378 172.077 234.587 171.745C232.795 171.413 230.823 173.946 230.182 177.403C229.541 180.86 230.474 183.931 232.265 184.263C234.057 184.596 236.029 182.063 236.67 178.606Z" fill="white"/>
<g opacity="0.3">
<path d="M202.207 210.806C202.848 207.349 201.58 204.215 199.375 203.807C197.17 203.398 194.863 205.869 194.222 209.326C193.581 212.782 194.849 215.916 197.054 216.325C199.259 216.734 201.566 214.263 202.207 210.806Z" fill="#390276"/>
</g>
<path d="M199.952 210.087C200.593 206.63 199.66 203.559 197.869 203.226C196.077 202.894 194.105 205.427 193.464 208.884C192.823 212.341 193.756 215.413 195.548 215.745C197.339 216.077 199.311 213.544 199.952 210.087Z" fill="white"/>
<g opacity="0.3">
<path d="M239.325 238.023C239.966 234.566 238.698 231.433 236.493 231.024C234.288 230.615 231.981 233.086 231.34 236.543C230.699 239.999 231.967 243.133 234.172 243.542C236.377 243.951 238.684 241.48 239.325 238.023Z" fill="#390276"/>
</g>
<path d="M237.05 237.302C237.691 233.845 236.759 230.773 234.967 230.441C233.175 230.109 231.203 232.642 230.562 236.099C229.921 239.556 230.854 242.627 232.646 242.96C234.437 243.292 236.409 240.759 237.05 237.302Z" fill="white"/>
<g opacity="0.3">
<path d="M272.694 208.248C273.335 204.791 272.067 201.657 269.862 201.249C267.657 200.84 265.35 203.311 264.709 206.767C264.068 210.224 265.336 213.358 267.541 213.767C269.746 214.176 272.053 211.705 272.694 208.248Z" fill="#390276"/>
</g>
<path d="M270.439 207.529C271.08 204.073 270.148 201.001 268.356 200.669C266.564 200.337 264.593 202.87 263.952 206.326C263.311 209.783 264.243 212.855 266.035 213.187C267.827 213.519 269.799 210.986 270.439 207.529Z" fill="white"/>
<g opacity="0.3">
<path d="M173.864 221.759C174.505 218.302 173.237 215.168 171.032 214.759C168.827 214.351 166.52 216.822 165.879 220.278C165.238 223.735 166.506 226.869 168.711 227.278C170.916 227.687 173.224 225.216 173.864 221.759Z" fill="#390276"/>
</g>
<path d="M171.613 221.019C172.254 217.563 171.322 214.491 169.53 214.159C167.738 213.827 165.766 216.36 165.125 219.816C164.484 223.273 165.417 226.345 167.209 226.677C169 227.009 170.972 224.476 171.613 221.019Z" fill="white"/>
<g opacity="0.3">
<path d="M188.567 178.162C189.202 174.694 191.507 172.219 193.728 172.642C195.927 173.044 197.196 176.195 196.562 179.643C195.927 183.111 193.622 185.586 191.401 185.163C189.202 184.761 187.933 181.631 188.567 178.162Z" fill="#390276"/>
</g>
<path d="M194.28 178.91C194.921 175.453 193.988 172.382 192.196 172.05C190.405 171.717 188.433 174.25 187.792 177.707C187.151 181.164 188.084 184.236 189.875 184.568C191.667 184.9 193.639 182.367 194.28 178.91Z" fill="white"/>
</svg>
