<svg id="Слой_1" data-name="Слой 1" xmlns="http://www.w3.org/2000/svg" viewBox="0 0 626 653.97"><defs><style>.cls-1{fill:#b0a2d7;}.cls-2{fill:#8e8fb3;}.cls-3{fill:#fff;}.cls-4{opacity:0.66;}.cls-5{opacity:0.3;}.cls-6{fill:#890343;}.cls-7{fill:#371a45;}.cls-8{fill:#ff5c9e;}.cls-9{fill:#ff001f;}</style></defs><title>victory-10</title><ellipse class="cls-1" cx="313" cy="311" rx="313" ry="299.5"/><path class="cls-2" d="M546.64,648.92a94.12,94.12,0,0,1-49-7.82c-31.81-14.44-52.61-45.05-57.2-71.41-5.4-44.5-9.88-63.31-44.59-61.7l51.51-25.65c8.76,6,15.28,13.39,19.2,22.3,3.34,7.55,4.81,16.21,4.19,26.09a62.42,62.42,0,0,0,3.87,26.64c7.9,20.22,21.28,32.73,42.57,34a65.66,65.66,0,0,0,7.69,0c14.88-2.27,27.57,1,36.37,7.19,13,9.13,17.5,24.56,8,37.61A31.81,31.81,0,0,1,546.64,648.92Z"/><path class="cls-3" d="M546.64,648.92a94.12,94.12,0,0,1-49-7.82c26.29-10,35.16-25.81,19.56-49.67a65.66,65.66,0,0,0,7.69,0c36.85-5.66,60.32,22.9,44.32,44.82A31.87,31.87,0,0,1,546.64,648.92Z"/><path class="cls-2" d="M458.27,474.54C355.67,551.37,267.54,507.46,256.19,438A96.09,96.09,0,0,1,255,419.47c-9.76-36-25.33-69.51-48.48-99.79q-5.76-7.51-12.13-14.79c-21.17.36-44.09-6.07-67.84-15.7a44.38,44.38,0,0,1-24-23.64,254.3,254.3,0,0,1-14-40c-.75-3.07-1.4-6.1-1.93-9.05a131.15,131.15,0,0,1-43.4-40.62A10.05,10.05,0,0,1,45.75,162c10.73-7.52,22.07-12.25,34.1-14q2.36-.36,4.77-.54c9.33-32.93,28.28-58.66,57.11-76.9a194.56,194.56,0,0,1,1.31-53A15.72,15.72,0,0,1,161.87,4.85c22.39,4.71,42.84,16.53,61.77,33.91,26.68,6.3,52.78,14.08,77.51,25.37a44.31,44.31,0,0,1,23.49,25.59q1.2,3.41,2.26,6.81l0,0c9.84,31.37,12.23,63.53,9.64,96.27,83.3,8.07,154.51,58.69,174.68,126.88a138.5,138.5,0,0,1,5.06,52.81C512.5,413.16,491,450.05,458.27,474.54Z"/><g class="cls-4"><path class="cls-3" d="M48.5,170.34a10.07,10.07,0,0,0-4.22,7.08c-.37-.49-.7-1-1.07-1.54A10,10,0,0,1,45.78,162c10.73-7.53,22.07-12.26,34.1-14h0c.51-.09,1.07-.17,1.6-.21l.75-.08c.81-.1,1.58-.16,2.4-.24,9.33-32.93,28.29-58.65,57.11-76.9a11.6,11.6,0,0,1-3.63,13.93c-21.95,16.3-36.78,38.39-45.16,65.72a8.48,8.48,0,0,1-5.61,5.59C73.55,156.88,60.62,161.84,48.5,170.34Z"/></g><g class="cls-4"><path class="cls-3" d="M257.76,427.79A95.06,95.06,0,0,0,261,455.87a93.33,93.33,0,0,1-6-36.38q-1.64-6.06-3.53-12C253.82,414.14,255.89,420.93,257.76,427.79Z"/></g><g class="cls-4"><path class="cls-3" d="M324.67,89.73c9.84,28.05,13.5,56.77,12.82,86-.39-25.46-4.26-50.51-12.88-75a44.38,44.38,0,0,0-23.49-25.6c-24.74-11.3-50.83-19.06-77.5-25.36-18.94-17.38-39.38-29.19-61.78-33.92A15.74,15.74,0,0,0,143,28.5a190.38,190.38,0,0,0-2.41,24.84,193.11,193.11,0,0,1,2.46-35.78,15.72,15.72,0,0,1,18.83-12.7c22.38,4.71,42.84,16.54,61.77,33.92,26.67,6.3,52.78,14.08,77.51,25.36A44.38,44.38,0,0,1,324.67,89.73Z"/></g><g class="cls-4"><path class="cls-3" d="M516.85,365.07c-3-85-83.51-151.91-180.32-161.27.29-3.64.52-7.26.67-10.86C437.83,202.92,520.68,275,516.85,365.07Z"/></g><path class="cls-3" d="M224.29,290.89c-40,3-76.16-35.8-69.36-83.27a28,28,0,0,0-5.58-21.14c-20.58-26.45-8.35-44.27,21.86-33a27,27,0,0,0,19.45-.24c73.38-29.63,111.77,27.18,111.17,69.16C275.89,256.12,249.94,290.52,224.29,290.89Z"/><g class="cls-5"><path class="cls-6" d="M206.55,319.68q-5.76-7.5-12.13-14.79c-21.17.36-44.09-6.06-67.83-15.7a44.36,44.36,0,0,1-24.06-23.64,255,255,0,0,1-14-40c33.93,67.32,110.89,37.85,132.11,29.07C267,224.9,314.31,150.85,321.57,86.3c0,0,1.53-.48,1.55-.46,9.84,31.37,16.07,74.26,13.49,107,0,0-19.76,30.73-35,42.47S207.49,318.81,206.55,319.68Z"/></g><path class="cls-7" d="M105.31,278.94a51,51,0,0,1-7-11.55c-8-18.44-13.16-34.17-15.8-48a136.35,136.35,0,0,1-43.08-40.94,14.62,14.62,0,0,1,3.73-20.12c12-8.4,24.75-13.46,38-15,9.69-31.73,28.44-56.94,55.8-75a199.9,199.9,0,0,1,1.62-51.48A19.81,19.81,0,0,1,147,3.58,20.5,20.5,0,0,1,162.82.44c21.84,4.59,43,16.1,63,34.19C256.57,41.94,281.15,50,303.05,60a49.18,49.18,0,0,1,25.88,28.19c10.82,30.84,14.9,63.78,12.49,100.61,50.56,5.8,96.73,26.76,130.4,59.26,36,34.73,53.38,79.08,49,124.86-3.92,41.31-25.75,79.65-59.86,105.23-29.38,22-59,35.41-87.93,39.83-25.94,4-50.57.38-71.25-10.35-32.68-17-52.29-50.51-51.35-87.63-11.7-42.82-30.7-79-58.13-110.59-19.17-.05-40.7-5.19-67.48-16A48.46,48.46,0,0,1,105.31,278.94ZM90.12,213.66a4.4,4.4,0,0,1,.93,2.07c2.42,13.62,7.51,29.35,15.59,48.06A39.68,39.68,0,0,0,128.25,285c26.62,10.79,47.62,15.68,66.07,15.37a4.51,4.51,0,0,1,3.46,1.52c29.19,33.16,49.34,71.2,61.6,116.37a4.68,4.68,0,0,1,.16,1.34c-1.1,33.89,16.69,64.54,46.45,80,41.73,21.69,96.26,11.23,149.58-28.69,32.1-24,52.59-60.05,56.28-98.83,8.33-87.64-68.85-164.41-175.7-174.75a4.51,4.51,0,0,1-4.07-4.86c3-37.31-.86-70.45-11.67-101.27a40,40,0,0,0-21.1-23c-21.65-9.89-46-17.85-76.69-25.09a4.4,4.4,0,0,1-2-1.07C201.3,24.41,181.79,13.67,161,9.29A11.31,11.31,0,0,0,152.15,11a10.9,10.9,0,0,0-4.63,7.24,191.13,191.13,0,0,0-1.26,51.83,4.5,4.5,0,0,1-2.08,4.32C116.58,91.89,98,116.89,89,148.75A4.55,4.55,0,0,1,85,152c-12.71,1-25,5.57-36.62,13.7a5.57,5.57,0,0,0-1.43,7.63,127.62,127.62,0,0,0,41.92,39.26A4,4,0,0,1,90.12,213.66Z"/><path class="cls-7" d="M457.12,615c-10.91-13.49-18.48-29.23-21.14-44.54,0-.08,0-.15,0-.23-5.46-44.78-9.77-59.14-39.93-57.74a4.51,4.51,0,1,1-.4-9c18.67-.87,30.2,4,37.36,15.73,6.78,11.12,9.33,28.41,11.93,49.84,6.22,35.41,44.82,81.27,101.29,75.41a27.31,27.31,0,0,0,19.35-10.82c5.2-7.14,5.59-15.48,1.1-22.9-5.43-8.89-19.43-18.12-41.1-14.77-.15,0-.29,0-.43,0-26.16,1.46-44.57-11-54.72-36.93a66.44,66.44,0,0,1-4.18-28.54c1.17-19.14-5.85-33.69-21.42-44.43a4.54,4.54,0,0,1,5.16-7.46c18.15,12.51,26.67,30.16,25.3,52.4a57.6,57.6,0,0,0,3.58,24.7c8.64,22.17,23.57,32.38,45.61,31.23,21.36-3.22,40.95,4.25,50,19,6.38,10.53,5.82,22.83-1.52,32.91a36.34,36.34,0,0,1-25.74,14.48c-35.5,3.69-61-11.06-76.12-24.08A106.92,106.92,0,0,1,457.12,615Z"/><path class="cls-8" d="M194.1,42.68C182.68,47,171.71,53.55,160.94,61.5,152.44,25.2,160.14,13.77,194.1,42.68Z"/><g class="cls-5"><path class="cls-6" d="M194.1,42.68c-3.32,1.25-6.59,2.69-9.88,4.31-13.75-10.6-22.25-13.1-26.43-9C158.45,22,169.22,21.51,194.1,42.68Z"/></g><path class="cls-8" d="M82.75,170.34q-46.48-1.12-.5,24.59Z"/><g class="cls-5"><path class="cls-6" d="M82.56,179.36c-10-.09-16.44.86-19.27,2.86q-13.53-12.69,19.44-11.9Z"/></g><path class="cls-7" d="M158.76,63.28a2.86,2.86,0,0,1-.56-1.13c-5-21.34-4.24-33.18,2.4-37.24s18,.84,35.36,15.62a2.83,2.83,0,0,1-.84,4.8c-10.2,3.8-20.83,9.84-32.46,18.45a2.86,2.86,0,0,1-2.66.38A2.6,2.6,0,0,1,158.76,63.28Zm29.89-21.45c-17.36-14-23.32-13.21-25.13-12.1s-5.16,5.85-.75,27A144,144,0,0,1,188.65,41.83Z"/><path class="cls-7" d="M59,181.81c-2.2-2.72-2.92-5.14-2.31-7.37,1.44-5.25,9.25-7.33,26.07-6.91a2.83,2.83,0,0,1,2.76,2.86L85.06,195a2.91,2.91,0,0,1-1.42,2.41,2.84,2.84,0,0,1-2.78,0C69.58,191.09,62.49,186.07,59,181.81Zm20.81-8.68c-16.37-.11-17.64,2.76-17.65,2.79s-.72,3.59,17.33,14.19Z"/><path class="cls-7" d="M205.37,117.48a73.59,73.59,0,0,0-7.79,5.15,30,30,0,0,0-5.9,6.18,39.5,39.5,0,0,0-4.23,7.77c-1.22,2.83-2.21,5.87-3.39,9v0a1.75,1.75,0,0,1-2.24,1.05,1.73,1.73,0,0,1-1.12-1.35,30.06,30.06,0,0,1,.22-10.73,27.89,27.89,0,0,1,4.33-10.35,23.21,23.21,0,0,1,8.6-7.6,22,22,0,0,1,10.74-2.48,1.76,1.76,0,0,1,1.71,1.82,1.79,1.79,0,0,1-.84,1.44Z"/><path class="cls-7" d="M143.53,194.62c-2.41,2.51-4.79,4.85-6.89,7.28a40.85,40.85,0,0,0-5.33,7.54,31.38,31.38,0,0,0-3,8.32,59.84,59.84,0,0,0-1.12,9.57v0a1.77,1.77,0,0,1-1.88,1.64,1.74,1.74,0,0,1-1.43-.89,21.8,21.8,0,0,1-2.67-11.1,23.79,23.79,0,0,1,3.22-11.39,28.88,28.88,0,0,1,7.61-8.68,33.17,33.17,0,0,1,9.73-5.23,1.74,1.74,0,0,1,2.19,1.11,1.72,1.72,0,0,1-.38,1.75Z"/><path class="cls-7" d="M181.23,175.37q6.54,16.77-13.23,15.13a3.16,3.16,0,0,1-2.31-5,55,55,0,0,1,10.66-11.44A3.15,3.15,0,0,1,181.23,175.37Z"/><path class="cls-7" d="M200.19,162.07a30.74,30.74,0,0,1,1.1,9.78,17.6,17.6,0,0,1-3.57,10,18,18,0,0,1-9.07,5.86,31.69,31.69,0,0,1-10,1.21l2.51-4.08a18.23,18.23,0,0,1,2.33,9.48,16.57,16.57,0,0,1-11.07,15.19,22.41,22.41,0,0,1-9.12,1.1,1.42,1.42,0,0,1-1.31-1.52,1.39,1.39,0,0,1,1.24-1.3h.05a22.23,22.23,0,0,0,7.46-2.17,12.76,12.76,0,0,0,5.16-4.8,13,13,0,0,0,1.68-6.59,17.9,17.9,0,0,0-1.51-6.89,3,3,0,0,1,2.51-4.08,43.13,43.13,0,0,0,8.4-1.26,12.54,12.54,0,0,0,10-10.66,36.87,36.87,0,0,0,.43-8.79v0a1.43,1.43,0,0,1,1.36-1.48A1.46,1.46,0,0,1,200.19,162.07Z"/><path class="cls-9" d="M369.4,410.49c71.4-175.09-78.7-251-122.67-130.86C113.39,300.33,205.17,489.78,369.4,410.49Z"/><g class="cls-5"><path class="cls-6" d="M369.42,410.51c-97.09,46.85-173-9.77-187.89-60.37,24.67,19.88,57.4,36.3,100.21,29.55a73.67,73.67,0,0,0,58.12-48.83c13.5-39.21,19.05-71.88,10.48-97.22C385.05,259,405.43,322.12,369.42,410.51Z"/></g><g class="cls-4"><path class="cls-3" d="M306.3,232.51c-.8,10.75-16.49,22.58-27.56,14.46l0,0,0,0a86.58,86.58,0,0,0-16.53,19.88,105.64,105.64,0,0,0-13.08,32.73l-2.44,11a.84.84,0,0,1-1.66-.05l-1.27-8.2,2-11.84c-53.3,10.7-67.25,50-53.18,85.66-21.63-39-9-86.7,54.18-96.49,29.25-79.89,105.45-73.07,132.19-8C362.29,240.76,333.44,226.35,306.3,232.51Z"/></g><path class="cls-7" d="M198.34,391.77C181.62,371.08,174.9,346,181.06,324c7-25.14,29.29-42.07,62.78-47.84,12.56-32.66,34.55-53.75,60.58-58,23.11-3.79,46.84,6.3,63.56,27l.39.48c13.76,17.27,21.93,40.46,23.65,67.06C394,343,387.58,376.45,373.1,412a3.91,3.91,0,0,1-2,2.07c-31.85,15.38-62.8,21.79-92,19.09-25.27-2.34-48.24-11.61-66.4-26.79A106,106,0,0,1,198.34,391.77ZM361.81,250.08c-14.93-18.46-35.88-27.48-56.14-24.18-23.7,3.87-43.82,24-55.22,55.1a4,4,0,0,1-3.12,2.55c-31.53,4.88-52.36,20-58.66,42.53-6.87,24.54,4.58,53.67,29.13,74.21,37.21,31.1,92.64,33.82,148.53,7.31,25.42-63.25,23.88-121.87-4.16-157.07C362,250.37,361.92,250.23,361.81,250.08Z"/><path class="cls-7" d="M250.09,280.08l-4.88,24a1.7,1.7,0,0,1-2,1.33,1.73,1.73,0,0,1-1.37-1.77l1.51-24.47a3.4,3.4,0,0,1,6.79.42A1.75,1.75,0,0,1,250.09,280.08Z"/><path class="cls-2" d="M388,323c-42.67,29.38-72.82-10.46-44.43-41,.33-.35.66-.71,1-1.07,1.09-1.2,2.15-2.44,3.16-3.67,11.55-13.75,19-28,19.32-43.15l37.75,29.58,12.68,9.94.11.09c-.09.69-.2,1.36-.34,2.07-2.86,15.94-13.64,33.09-25.82,44.29C390.28,321.08,389.12,322.08,388,323Z"/><path class="cls-3" d="M388,323c-42.67,29.38-72.82-10.46-44.43-41,1.43-1.57,2.81-3.15,4.13-4.72,22.1-13.93,50.15,14.69,43.74,42.79C390.28,321.08,389.12,322.08,388,323Z"/><path class="cls-7" d="M368.7,234.14a50.26,50.26,0,0,1-.55,10.09,65.8,65.8,0,0,1-2.57,9.83,75.81,75.81,0,0,1-4.11,9.26,91,91,0,0,1-5.26,8.57c-1.92,2.73-3.9,5.41-6.07,7.94-1.07,1.27-2.18,2.52-3.3,3.75l-3.07,3.48a35,35,0,0,0-7.53,15.82,24.18,24.18,0,0,0,2.84,16.41A21.67,21.67,0,0,0,352.31,329a26.81,26.81,0,0,0,8.58.85l1.1,0,1.09-.15c.74-.1,1.46-.15,2.19-.31a43.23,43.23,0,0,0,4.36-1.05A56.16,56.16,0,0,0,386,320.19l-.21.17a95.57,95.57,0,0,0,10-9.79,90.44,90.44,0,0,0,8.72-11.19A91.72,91.72,0,0,0,411.44,287a65.31,65.31,0,0,0,4.43-13.46l0,0a1.7,1.7,0,0,1,2-1.33,1.73,1.73,0,0,1,1.37,1.8A59.49,59.49,0,0,1,416,288.74a82.3,82.3,0,0,1-6.35,13.75A96.89,96.89,0,0,1,401,315a71.63,71.63,0,0,1-10.86,10.74l-.05,0-.16.13a67.57,67.57,0,0,1-18.38,8.95,45.81,45.81,0,0,1-5.08,1.22c-.86.17-1.75.24-2.62.36l-1.32.15-1.34.06a33.55,33.55,0,0,1-10.66-1.09,29.8,29.8,0,0,1-9.85-4.65,27.11,27.11,0,0,1-7.41-8.08,30.92,30.92,0,0,1-3.74-21.05,40.36,40.36,0,0,1,3.25-10.11L334,289.3c.44-.77.91-1.5,1.36-2.25l.69-1.11.76-1.06,1.53-2.12,1.68-2c.55-.65,1.11-1.31,1.63-1.88q1.58-1.76,3.11-3.57c2-2.42,4-4.85,5.9-7.38s3.65-5.1,5.29-7.74a86.49,86.49,0,0,0,4.4-8.21,57.69,57.69,0,0,0,5-17.87v0a1.7,1.7,0,0,1,1.87-1.51A1.57,1.57,0,0,1,368.7,234.14Z"/><path class="cls-3" d="M221,426.26c-9.63-5.83-18.63-16.63-23.2-26.66a19.82,19.82,0,0,1,9-25.76c34.35-17.83,60.9,11.81,42,45A20,20,0,0,1,221,426.26Z"/><g class="cls-5"><path class="cls-6" d="M221,426.26c-9.63-5.83-18.62-16.63-23.2-26.66a19.79,19.79,0,0,1,2.15-20c.16.41.32.83.5,1.24,4.58,10,13.57,20.83,23.2,26.66a20,20,0,0,0,27.8-7.43,53.06,53.06,0,0,0,3.36-7.06c1,7.7-.8,16.6-6,25.78A20,20,0,0,1,221,426.26Z"/></g><path class="cls-7" d="M203.49,415a65.75,65.75,0,0,1-8.77-14,23.17,23.17,0,0,1,10.5-30.18c16.89-8.78,34-7.39,44.55,3.58,10.76,11.16,11.56,29.27,2,46.11a23.57,23.57,0,0,1-14.6,11.26,23.1,23.1,0,0,1-17.92-2.61A63.06,63.06,0,0,1,203.49,415Zm42.72-34.39c-.42-.51-.85-1-1.32-1.49-8.41-8.72-22.42-9.59-36.54-2.26a16.41,16.41,0,0,0-7.44,21.36c4.47,9.84,13.27,19.95,21.87,25.17a16.47,16.47,0,0,0,12.7,1.87,16.73,16.73,0,0,0,10.39-8.05C253.48,403.77,253.54,389.68,246.21,380.61Z"/><path class="cls-2" d="M423,442c-.93-.34-1.84-.63-2.75-.89a50.35,50.35,0,0,0-20.3-1.14c-9,1.13-18.42,4.05-27.88,7.4-38.63,7.42-51.33-32-27.82-44.19,5.85-3,14-4.35,24.49-2.84.47.06.91.14,1.38.21a43.91,43.91,0,0,1-.55-5c-1.83-33.52,35.64-66.1,78.24-61.12,2,.23,4.1.56,6.17,1l-17.72,60.88-13,45Z"/><g class="cls-4"><path class="cls-3" d="M373.86,412.15l-4.31-16.62c-1.83-33.52,35.64-66.1,78.23-61.12l.84.67C400.32,346.79,373.6,371.39,373.86,412.15Z"/></g><path class="cls-3" d="M400,439.9c-9,1.13-18.43,4.05-27.88,7.4-48.27,9.28-56.08-54.62-3.33-47l8.6,21.46a34,34,0,0,0,19.79,16.69A7,7,0,0,1,400,439.9Z"/><path class="cls-7" d="M453.62,337a82.18,82.18,0,0,0-29.54,1.63,77.68,77.68,0,0,0-13.88,4.78,79.19,79.19,0,0,0-12.68,7.34,62.43,62.43,0,0,0-19.28,21.49,43.85,43.85,0,0,0-4.79,27.62,3.39,3.39,0,0,1-2.78,3.92,3.24,3.24,0,0,1-1,0l-.14,0-3.06-.39-1.54-.19-1.52-.06c-1,0-2-.12-3-.13l-3,.11A30.72,30.72,0,0,0,346.15,406a17.56,17.56,0,0,0-10.27,17.82,22,22,0,0,0,3.87,10.36,23.49,23.49,0,0,0,8.54,7.36,30,30,0,0,0,11.16,3.14,47.49,47.49,0,0,0,12-.7l-.48.13c4.14-1.46,8.31-3,12.59-4.2a87.77,87.77,0,0,1,13.19-2.65,59.78,59.78,0,0,1,13.64-.29,42.37,42.37,0,0,1,13.22,3.39,1.69,1.69,0,0,1,.85,2.25,1.71,1.71,0,0,1-2,.94A45.06,45.06,0,0,0,410.12,442a67.05,67.05,0,0,0-12.4,1.42c-4.11.82-8.17,2.05-12.25,3.23s-8.2,2.46-12.26,3.88l0,0a2.36,2.36,0,0,1-.44.11,54,54,0,0,1-13.88.79,36.64,36.64,0,0,1-13.67-3.88,30.09,30.09,0,0,1-10.93-9.44,28.77,28.77,0,0,1-5.11-13.68,25.33,25.33,0,0,1,3.13-14.49,25.61,25.61,0,0,1,10.89-10,37.15,37.15,0,0,1,13.78-3.53l3.48-.14c1.16,0,2.29.1,3.45.15l1.72.09,1.7.21,3.38.43-3.9,3.92a47.88,47.88,0,0,1,.12-16.46,55.16,55.16,0,0,1,5.33-15.45,63.6,63.6,0,0,1,9.2-13.34,72.44,72.44,0,0,1,72.86-22.13,1.71,1.71,0,0,1,1.19,2.09A1.66,1.66,0,0,1,453.62,337Z"/><path class="cls-7" d="M373.33,399.44l3.22,15.49a1.68,1.68,0,0,1-1.32,2,1.67,1.67,0,0,1-1.89-1l-6.45-14.46a3.41,3.41,0,0,1,6.22-2.79C373.2,399,373.27,399.22,373.33,399.44Z"/><path class="cls-2" d="M314.32,464.48c15.55-75.26-47.71-92.36-59.28-45l.39,12.55"/><path class="cls-3" d="M314.39,420.93c-.24,65.37-57.27,45.41-59.09,4.47C258.83,396.74,289.63,371.64,314.39,420.93Z"/><path class="cls-7" d="M312.63,464.14c1.68-10.56,2.3-21.31.73-31.66a58,58,0,0,0-4.1-14.87,42.46,42.46,0,0,0-8.13-12.5,27.41,27.41,0,0,0-12-7.72,21.38,21.38,0,0,0-13.8.45,24.87,24.87,0,0,0-11,8.8,39.62,39.62,0,0,0-6,13.61l.07-.53a64,64,0,0,0,.89,14.36c.74,4.89,1.77,9.77,2.89,14.65a3.39,3.39,0,0,1-6.61,1.52c-1.14-5-2.18-10-3-15.17a71.38,71.38,0,0,1-.93-15.93,4.29,4.29,0,0,1,.07-.5v0a46.54,46.54,0,0,1,7.08-16,31.72,31.72,0,0,1,14.1-11.19A28.27,28.27,0,0,1,291,390.8a34.13,34.13,0,0,1,15.14,9.45,41.68,41.68,0,0,1,5.29,7,49.59,49.59,0,0,1,3.71,7.84,65.54,65.54,0,0,1,3.75,16.58,90.74,90.74,0,0,1-.12,16.73,113.87,113.87,0,0,1-2.88,16.28,1.69,1.69,0,0,1-2.07,1.23A1.55,1.55,0,0,1,312.63,464.14Z"/><path class="cls-7" d="M332.25,308.39,343,304.44a1.72,1.72,0,0,1,1.64,3l-9.15,6.92a3.43,3.43,0,1,1-4.14-5.47A2.62,2.62,0,0,1,332.25,308.39Z"/><path class="cls-7" d="M237.83,372.9l-7.29,7a1.72,1.72,0,0,1-2.72-2l4.56-8.95a3.44,3.44,0,1,1,6.14,3.11A3.22,3.22,0,0,1,237.83,372.9Z"/><path class="cls-7" d="M254.07,391.72l-11.34,1.78a1.68,1.68,0,0,1-1.94-1.42,1.74,1.74,0,0,1,.94-1.82l10.33-5a3.43,3.43,0,1,1,3,6.17A3.45,3.45,0,0,1,254.07,391.72Z"/><path class="cls-7" d="M345.86,327.42l7.8-7.24a1.72,1.72,0,0,1,2.69,2.08l-5.13,9.32a3.43,3.43,0,1,1-6-3.3A4.36,4.36,0,0,1,345.86,327.42Z"/><path class="cls-7" d="M338.87,409.07l7.45,4.12a1.73,1.73,0,0,1-1,3.24l-8.46-.89a3.46,3.46,0,1,1,.74-6.88A3.73,3.73,0,0,1,338.87,409.07Z"/><path class="cls-7" d="M338.06,432.29l7.12-1.43a1.75,1.75,0,0,1,2.05,1.37,1.8,1.8,0,0,1-.62,1.71l-5.69,4.51a3.49,3.49,0,1,1-4.33-5.47A4,4,0,0,1,338.06,432.29Z"/><path class="cls-6" d="M286.23,442.1c-7,2.54-13.45,1.88-16.11-5.46s.81-15.35,7.8-17.89,14.77,1.34,17.44,8.68S293.18,439.57,286.23,442.1Z"/><path class="cls-6" d="M268.09,416.65a4.52,4.52,0,1,0,.85-6.13A4.38,4.38,0,0,0,268.09,416.65Z"/><path class="cls-6" d="M283.5,411.11c3.09.45,5.87-1.06,6.21-3.37s-1.89-4.55-5-5-5.87,1.06-6.21,3.38S280.41,410.66,283.5,411.11Z"/><path class="cls-6" d="M293.1,418a4.23,4.23,0,1,0,.64-6A4.23,4.23,0,0,0,293.1,418Z"/><g class="cls-5"><path class="cls-6" d="M388,323c-42.67,29.38-72.82-10.46-44.43-41,.33-.35.66-.71,1-1.07-5,53.25,42,22.78,60.26-17.23a79.13,79.13,0,0,0,6.49-21.18l3.16,5.5a30,30,0,0,1,3.81,18l-.78,7.59-.21,2.14c-2.86,15.95-13.64,33.1-25.82,44.3C390.28,321.08,389.12,322.08,388,323Z"/></g><g class="cls-5"><path class="cls-6" d="M407.86,299.62s15.65,19.88,16.82,37.86c0,0-25.88,1.82-38.68,19.68l3.11-34Z"/></g><g class="cls-5"><path class="cls-6" d="M458.27,474.54C355.67,551.37,267.54,507.46,256.19,438l1.57-3.06c8.75,19.46,24.47,32.09,44,38.62a8.37,8.37,0,0,0,10.38-4.9c4.17-10.51,4.49-23.32,2.47-37.59l16.3-6.35,1.72.37a21,21,0,0,1,11.62-22c-19.3,30.32,49.25,36.86,70.77,7.6a36.68,36.68,0,0,1,10.12-9.63,40,40,0,0,1,11.14-4.86c8.68-2.08,18.26.15,23.69,15.83a3.15,3.15,0,0,0,.4.82,8.2,8.2,0,0,0,13.11.95c21.8-25.26,36.48-57.11,37.82-94.13l0,0a138.7,138.7,0,0,1,5.05,52.81C512.5,413.16,491,450.05,458.27,474.54Z"/></g><path class="cls-6" d="M366.64,524.28l.1.39C366.63,524.61,366.64,524.28,366.64,524.28Z"/><g class="cls-5"><path class="cls-6" d="M569.19,636.24a31.8,31.8,0,0,1-22.55,12.64,93.92,93.92,0,0,1-49-7.82c-31.8-14.43-52.61-45-57.19-71.41-5.41-44.5-9.89-63.3-44.6-61.69l51.52-25.65c8.75,6,15.27,13.39,19.2,22.3-22.94,14.63-14.25,31.73-14.25,31.73,20.6,133.91,110.26,98.37,108.93,62.27C574.22,607.75,578.72,623.19,569.19,636.24Z"/></g></svg>