<svg width="626" height="621" viewBox="0 0 626 621" fill="none" xmlns="http://www.w3.org/2000/svg">
<ellipse cx="313" cy="321.5" rx="313" ry="299.5" fill="#B0A2D7"/>
<g clip-path="url(#clip0_242_1234)">
<path d="M540.844 339.404C538.284 345.24 531.485 347.906 525.651 345.324C523.741 344.484 522.168 343.204 521.034 341.65C518.642 338.417 517.992 334.05 519.712 330.124C525.609 316.731 525.021 300.817 518.726 287.528C516.921 283.708 514.655 280.139 511.927 276.885C506.471 270.356 494.594 260.069 476.4 264.456C446.917 271.573 446.623 297.018 460.515 365.121C465.257 388.319 462.131 406.373 451.261 418.843C441.881 429.571 429.143 433.035 420.686 434.106C415.692 434.736 412.208 434.526 411.831 434.505C405.472 434.085 400.667 428.584 401.066 422.223C401.485 415.883 406.941 411.097 413.279 411.454C413.698 411.475 426.709 411.937 433.948 403.518C437.075 399.865 438.649 395.058 439.237 389.893C440.013 383.154 439.111 375.828 437.873 369.718C431.682 339.404 426.751 312.553 429.122 290.95C432.018 264.456 446.098 247.997 470.965 241.972C493.104 236.619 514.466 243.925 529.617 262.021C531.044 263.743 532.387 265.506 533.667 267.333C547.999 288.2 550.979 316.332 540.844 339.404Z" fill="white"/>
<path d="M540.844 339.404C538.284 345.24 531.485 347.906 525.651 345.324C519.796 342.763 517.152 335.94 519.712 330.124C525.609 316.73 525.021 300.817 518.726 287.528C525.945 282.469 532.135 275.793 533.667 267.375C548 288.2 550.979 316.332 540.844 339.404Z" fill="#8E8FB3"/>
<g opacity="0.3">
<path d="M521.034 341.65C518.642 338.417 517.992 334.05 519.712 330.125C525.609 316.731 525.021 300.817 518.726 287.529C516.921 283.708 514.655 280.139 511.927 276.885C506.471 270.356 494.594 260.069 476.4 264.457C446.917 271.573 446.623 297.018 460.515 365.121C465.257 388.319 462.131 406.373 451.261 418.844C441.881 429.571 429.143 433.035 420.686 434.106C415.692 434.736 412.208 434.526 411.831 434.505C405.472 434.085 400.667 428.585 401.066 422.224C401.485 415.883 406.941 411.097 413.279 411.454C413.698 411.475 426.709 411.937 433.948 403.518C437.075 399.865 438.649 395.058 439.237 389.893C440.202 390.04 441.314 390.271 442.426 390.691C447.379 392.581 452.688 388.886 452.499 383.574C452.394 380.32 451.932 376.269 451.009 371.23C446.518 347.171 418.672 261.832 479.338 254.716C532.45 248.522 550.979 319.649 521.034 341.65Z" fill="#000072"/>
</g>
<path d="M413.782 438.745C412.523 438.745 411.747 438.703 411.579 438.682C402.933 438.116 396.365 430.6 396.932 421.929C397.498 413.322 404.948 406.751 413.572 407.255C413.635 407.255 424.925 407.633 430.822 400.768C435.606 395.205 436.655 384.477 433.822 370.558C427.569 339.886 422.575 312.7 425.009 290.488C428.115 262.063 443.265 244.366 470.021 237.899C493.775 232.168 516.669 239.978 532.869 259.334C551.588 281.713 556.351 314.568 544.705 341.083C543.005 344.925 539.92 347.885 536.017 349.418C532.093 350.95 527.812 350.845 523.972 349.166C516.019 345.681 512.41 336.36 515.893 328.424C522.839 312.616 519.964 292.987 508.737 279.572C503.911 273.799 493.398 264.666 477.407 268.529C452.96 274.428 450.337 294.12 464.649 364.281C469.664 388.823 466.223 408.095 454.45 421.594C444.336 433.182 430.822 437.045 421.253 438.262C418.084 438.661 415.482 438.745 413.782 438.745ZM412.67 415.631C408.788 415.631 405.556 418.633 405.304 422.496C405.032 426.548 408.095 430.054 412.145 430.306C412.187 430.306 415.461 430.516 420.182 429.928C428.303 428.899 439.74 425.645 448.113 416.051C458.081 404.631 460.871 387.773 456.423 365.939C449.813 333.525 445.847 308.438 448.05 291.349C450.274 273.925 458.731 264.372 475.435 260.342C495.832 255.408 509.073 266.871 515.159 274.155C528.379 289.964 531.757 313.12 523.573 331.783C521.937 335.499 523.636 339.844 527.351 341.461C529.155 342.259 531.149 342.301 532.974 341.587C534.8 340.873 536.248 339.488 537.024 337.703C547.412 314.043 543.152 284.715 526.427 264.729C512.347 247.913 492.516 241.112 471.972 246.066C448.7 251.692 436.047 266.535 433.34 291.412C431.031 312.406 435.921 338.921 442.027 368.879C444.42 380.572 445.511 396.527 437.18 406.247C428.597 416.24 413.761 415.673 413.132 415.631C412.964 415.652 412.817 415.631 412.67 415.631Z" fill="#000072"/>
<path d="M441.146 418.99C438.922 434.484 426.982 449.452 426.982 449.452H172.145C159.722 440.467 148.391 426.086 147.383 412.209L147.362 412.188C146.901 405.743 148.663 399.403 153.574 393.777C169.081 375.995 191.577 395.352 191.577 395.352C163.479 341.587 215.52 274.785 215.52 274.785C215.52 274.785 215.541 274.764 215.562 274.743C247.459 238.109 355.403 223.687 368.393 239.873C369.106 240.755 369.526 241.762 369.631 242.833C370.827 255.03 377.563 271.972 382.893 283.833C386.397 291.643 390.972 298.865 396.302 305.541C408.683 321.034 415.335 337.724 418.84 352.147C421.756 364.071 422.533 374.463 422.617 381.307C422.722 386.786 422.386 390.04 422.386 390.04C439.237 396.275 442.741 407.759 441.146 418.99Z" fill="#8E8FB3"/>
<path d="M181.924 436.877C187.638 436.877 192.269 432.243 192.269 426.527C192.269 420.811 187.638 416.177 181.924 416.177C176.21 416.177 171.579 420.811 171.579 426.527C171.579 432.243 176.21 436.877 181.924 436.877Z" fill="#FF9FD4"/>
<path d="M410.832 440.001C416.111 437.813 418.618 431.759 416.431 426.478C414.245 421.197 408.193 418.689 402.914 420.877C397.635 423.064 395.129 429.119 397.315 434.4C399.502 439.681 405.554 442.189 410.832 440.001Z" fill="#FF9FD4"/>
<path d="M163.227 425.037C166.101 425.037 168.431 422.706 168.431 419.83C168.431 416.955 166.101 414.624 163.227 414.624C160.352 414.624 158.022 416.955 158.022 419.83C158.022 422.706 160.352 425.037 163.227 425.037Z" fill="#FF9FD4"/>
<path d="M169.459 412.944C172.333 412.944 174.663 410.613 174.663 407.738C174.663 404.862 172.333 402.531 169.459 402.531C166.585 402.531 164.255 404.862 164.255 407.738C164.255 410.613 166.585 412.944 169.459 412.944Z" fill="#FF9FD4"/>
<path d="M183.54 412.545C186.414 412.545 188.744 410.214 188.744 407.339C188.744 404.464 186.414 402.133 183.54 402.133C180.665 402.133 178.335 404.464 178.335 407.339C178.335 410.214 180.665 412.545 183.54 412.545Z" fill="#FF9FD4"/>
<path d="M406.255 414.18C409.242 412.942 410.661 409.516 409.423 406.527C408.186 403.538 404.761 402.119 401.773 403.357C398.786 404.595 397.367 408.021 398.605 411.01C399.842 413.999 403.267 415.418 406.255 414.18Z" fill="#FF9FD4"/>
<path d="M431.049 425.557C431.792 422.409 429.843 419.255 426.696 418.511C423.549 417.768 420.396 419.717 419.653 422.865C418.91 426.014 420.859 429.168 424.005 429.912C427.152 430.655 430.306 428.706 431.049 425.557Z" fill="#FF9FD4"/>
<path d="M425.528 410.147C426.271 406.999 424.322 403.844 421.175 403.101C418.028 402.357 414.875 404.307 414.132 407.455C413.389 410.603 415.338 413.758 418.484 414.501C421.631 415.245 424.785 413.295 425.528 410.147Z" fill="#FF9FD4"/>
<path d="M418.84 352.147C413.971 353.364 408.893 354.015 403.647 354.015C369.127 354.015 341.155 326.01 341.155 291.475C341.155 270.02 351.962 251.084 368.414 239.852C369.127 240.734 369.547 241.741 369.652 242.812C370.848 255.009 377.584 271.951 382.914 283.813C386.418 291.622 390.993 298.844 396.323 305.52C408.704 321.034 415.335 337.724 418.84 352.147Z" fill="#8E8FB3"/>
<g opacity="0.3">
<path d="M422.386 390.04C401.128 361.363 369.652 374.19 369.652 374.19C373.177 366.464 380.878 362.182 387.635 359.83C395.882 356.975 400.457 347.969 397.456 339.781C393.217 328.214 384.698 318.956 378.213 310.768C373.492 304.806 369.337 297.332 366.357 291.349C363.524 285.681 356.746 283.225 350.912 285.723C256.944 325.926 215.541 274.785 215.541 274.785C215.541 274.785 215.562 274.764 215.583 274.743C247.48 238.109 355.424 223.687 368.414 239.873C369.127 240.755 369.547 241.762 369.652 242.833C370.848 255.03 377.584 271.972 382.914 283.833C386.418 291.643 390.993 298.865 396.323 305.541C408.704 321.034 415.356 337.724 418.86 352.147C424.086 373.602 422.386 390.04 422.386 390.04Z" fill="#000072"/>
</g>
<g opacity="0.3">
<path d="M441.146 418.99C438.922 434.484 426.982 449.452 426.982 449.452H172.145C159.722 440.467 148.391 426.086 147.383 412.209L162.303 426.233C169.564 433.077 179.154 436.877 189.143 436.877H194.41C201.419 436.877 208.239 434.631 213.841 430.432C213.841 430.432 217.661 434.715 223.725 430.432C223.725 430.432 230.02 433.707 238.561 424.302C238.561 424.302 251.005 420.481 246.472 407.36C241.94 394.239 230.461 353.973 238.058 337.43C238.058 337.43 245.654 402.636 263.869 402.93C263.869 402.93 282.755 407.948 313.098 337.472C312.7 338.711 300.025 378.914 283.93 405.261C283.93 405.261 280.74 420.607 294.548 418.759C294.548 418.759 296.919 431.209 315.47 427.178C315.47 427.178 337.734 443.973 349.192 377.612C349.192 377.612 353.892 361.741 351.206 341.398C351.206 341.398 358.656 377.045 351.08 413.49C348.961 423.735 356.117 433.602 366.504 434.778C374.919 435.722 386.817 436.52 403.605 436.856C415.356 437.087 426.835 432.888 435.438 424.869C437.411 423 439.341 421.048 441.146 418.99Z" fill="#000072"/>
</g>
<g opacity="0.3">
<path d="M422.386 390.04C422.386 390.04 386.754 381.496 379.787 428.626C379.787 428.626 372.82 379.375 422.637 381.328C422.721 386.807 422.386 390.04 422.386 390.04Z" fill="#000072"/>
</g>
<g opacity="0.3">
<path d="M285.902 401.902C285.902 401.902 289.071 409.522 294.905 408.85C296.311 408.682 297.423 408.431 298.325 408.116C299.878 407.591 301.494 408.703 301.62 410.341C301.872 413.322 302.9 416.786 306.194 417.437C310.685 418.319 315.658 415.673 318.827 413.112C320.254 411.957 322.415 412.587 322.919 414.351C322.919 414.372 322.94 414.414 322.94 414.435C323.234 415.505 324.661 415.736 325.29 414.834C330.578 407.171 344.722 383.49 351.227 341.335C351.227 341.335 356.767 389.746 329.151 426.485C329.151 426.485 322.562 432.594 315.47 427.115C315.47 427.115 300.864 431.775 294.548 418.696C294.569 418.738 279.607 418.046 285.902 401.902Z" fill="#000072"/>
</g>
<g opacity="0.3">
<path d="M202.656 419.494C202.656 419.494 213.694 426.653 216.506 420.88C217.115 419.641 218.73 419.305 219.843 420.124C221.752 421.51 224.459 422.622 227.187 420.922C229.726 419.347 230.545 416.786 230.734 414.624C230.901 412.692 232.014 410.908 233.818 410.236C235.812 409.48 237.7 407.633 236.253 403.035C233.608 394.68 226.768 351.916 238.078 337.409C238.078 337.409 231.384 352.021 239.253 381.202C239.253 381.202 256.566 420.859 238.582 424.281C238.582 424.281 234.196 435.575 221.899 430.18C221.878 430.201 210.924 437.969 202.656 419.494Z" fill="#000072"/>
</g>
<path d="M426.981 453.63H172.145C171.263 453.63 170.403 453.357 169.69 452.832C158.148 444.477 145.138 429.865 143.312 413.847C142.347 405.345 144.802 397.43 150.426 390.985C160.246 379.732 172.9 380.782 182.805 385.023C176.3 364.239 178.419 339.74 189.121 313.309C198.732 289.628 211.659 272.875 212.204 272.182C212.246 272.119 212.288 272.056 212.351 272.014C225.55 256.815 253.061 243.526 287.833 235.548C318.008 228.641 348.1 227.109 362.706 231.77C371.309 234.52 373.513 239.075 373.827 242.413C374.96 254.002 381.466 270.398 386.733 282.112C389.922 289.229 394.266 296.241 399.596 302.896C426.771 336.906 427.275 375.933 426.771 387.29C436.319 391.51 442.321 397.85 444.65 406.205C450.316 426.59 431.094 451.006 430.276 452.034C429.478 453.042 428.261 453.63 426.981 453.63ZM173.509 445.233H424.883C428.723 439.9 440.369 422.161 436.55 408.452C434.724 401.944 429.625 397.199 420.917 393.987C419.112 393.315 418 391.531 418.189 389.62C418.231 389.18 422.323 344.841 393.028 308.165C387.257 300.943 382.557 293.344 379.073 285.576C373.555 273.295 366.714 255.975 365.475 243.253C365.392 242.413 363.944 241.007 360.145 239.789C334.125 231.476 246.346 245.856 218.772 277.431C216.758 280.076 169.228 343.498 195.291 393.399C196.214 395.184 195.752 397.388 194.179 398.627C192.605 399.886 190.359 399.844 188.827 398.522C188.051 397.85 169.291 382.126 156.721 396.527C152.629 401.209 150.908 406.73 151.622 412.902C152.86 423.546 161.401 436.121 173.509 445.233Z" fill="#000072"/>
<path d="M195.543 393.945C196.949 397.85 198.543 401.881 200.243 405.722C201.943 409.585 203.768 413.406 205.825 416.975C206.35 417.857 206.853 418.759 207.399 419.578L208.217 420.838L209.078 421.992C209.644 422.811 210.253 423.441 210.84 424.113C210.987 424.302 211.134 424.428 211.281 424.554L211.722 424.932L212.141 425.309C212.288 425.435 212.498 425.561 212.687 425.687C214.156 426.737 215.709 427.514 216.968 427.766C217.576 427.892 218.101 427.892 218.479 427.808C218.647 427.766 218.814 427.724 218.94 427.661C219.003 427.64 219.045 427.598 219.087 427.577C219.108 427.556 219.129 427.556 219.108 427.556C219.108 427.556 219.129 427.556 219.087 427.577C219.066 427.619 219.087 427.577 218.94 427.766L224.522 426.905C224.459 426.863 224.501 426.884 224.543 426.905C224.564 426.926 224.606 426.947 224.669 426.968C224.774 427.01 224.858 427.073 224.984 427.115C225.194 427.22 225.446 427.283 225.676 427.367C226.159 427.493 226.621 427.619 227.082 427.64C228.006 427.703 228.866 427.535 229.726 427.178C230.587 426.779 231.426 426.107 232.245 425.288C232.643 424.848 233.021 424.344 233.42 423.861L234.49 422.202L239.106 420.208C238.981 420.187 239.106 420.208 239.127 420.208L239.295 420.229C239.421 420.229 239.547 420.25 239.673 420.229C239.925 420.229 240.198 420.208 240.408 420.145C240.869 420.061 241.205 419.914 241.457 419.725C241.709 419.557 241.939 419.326 242.149 418.948C242.359 418.591 242.59 418.067 242.737 417.458C243.052 416.198 243.094 414.582 243.01 412.923C242.905 411.244 242.674 409.48 242.296 407.696C242.128 406.814 241.897 405.911 241.709 405.009L240.995 402.279C240.491 400.348 239.946 398.417 239.463 396.485C238.54 392.601 237.659 388.718 236.924 384.792C235.476 376.94 234.322 369.026 233.986 361.027C233.902 359.033 233.923 357.017 233.923 355.002C234.028 352.986 234.091 350.971 234.343 348.977C234.427 347.969 234.595 346.982 234.763 345.975C234.847 345.471 234.931 344.988 235.014 344.484L235.392 342.993C235.518 342.511 235.623 342.007 235.77 341.524L236.295 340.096C236.567 339.131 237.176 338.249 237.617 337.388C236.84 341.293 237.134 345.156 237.47 348.998C237.826 352.839 238.414 356.681 239.085 360.481C240.387 368.102 242.002 375.702 243.996 383.196C244.94 386.954 246.01 390.67 247.144 394.386C247.668 396.254 248.277 398.081 248.843 399.928C249.431 401.839 250.081 403.854 250.522 405.911C251.005 407.969 251.361 410.089 251.55 412.335C251.718 414.582 251.697 416.933 251.11 419.515C250.774 420.796 250.291 422.16 249.494 423.462C248.696 424.764 247.521 426.023 246.136 426.905C244.751 427.808 243.198 428.332 241.709 428.521C240.974 428.626 240.24 428.668 239.526 428.647C239.169 428.647 238.813 428.605 238.435 428.563L237.868 428.479C237.659 428.437 237.533 428.416 237.155 428.333H237.134L241.751 426.338L240.219 428.731C239.61 429.508 239.023 430.285 238.33 431.02C236.903 432.489 235.224 433.854 233.168 434.799C231.09 435.722 228.719 436.163 226.432 435.995C225.299 435.911 224.186 435.68 223.137 435.365C222.613 435.197 222.088 435.008 221.584 434.778C221.333 434.673 221.06 434.547 220.808 434.4C220.682 434.337 220.535 434.274 220.409 434.19C220.283 434.106 220.136 434.043 219.906 433.896L225.488 433.035C225.236 433.329 225.173 433.371 225.047 433.518C224.921 433.644 224.837 433.728 224.732 433.812C224.522 434.001 224.333 434.148 224.124 434.316C223.725 434.61 223.305 434.883 222.885 435.092C222.046 435.554 221.165 435.827 220.283 436.037C218.521 436.415 216.842 436.31 215.331 435.995C212.33 435.344 209.98 434.001 207.923 432.573C207.672 432.384 207.399 432.237 207.147 432.027L206.35 431.335C205.846 430.873 205.237 430.411 204.839 429.928C203.999 428.983 203.097 428.018 202.425 427.052L201.355 425.603L200.39 424.134C199.739 423.147 199.173 422.16 198.585 421.174C196.319 417.206 194.388 413.175 192.584 409.102C190.8 405.009 189.184 400.957 187.652 396.716L195.543 393.945Z" fill="#000072"/>
<path d="M220.451 431.104C219.78 429.949 219.255 428.773 218.752 427.577C218.269 426.359 217.828 425.12 217.472 423.861C217.115 422.601 216.779 421.3 216.611 419.956C216.443 418.633 216.401 417.164 216.842 415.82C217.597 416.996 218.416 417.92 219.192 418.906C219.99 419.872 220.703 420.88 221.48 421.866L223.725 424.827C224.459 425.813 225.194 426.842 225.823 427.829L220.451 431.104Z" fill="#000072"/>
<path d="M235.225 425.624C234.427 423 233.714 420.355 233.084 417.689C232.748 416.345 232.434 415.023 232.182 413.658C231.909 412.314 231.678 410.929 231.552 409.522C233.273 411.727 234.868 413.952 236.4 416.219C237.974 418.465 239.484 420.733 240.953 423L235.225 425.624Z" fill="#000072"/>
<path d="M421.651 394.197C421.547 394.176 421.211 394.134 420.959 394.113C420.686 394.092 420.392 394.05 420.12 394.029C419.553 393.987 418.965 393.945 418.357 393.924C417.182 393.882 415.986 393.903 414.79 394.008C412.397 394.197 410.047 394.596 407.739 395.247C403.143 396.527 398.841 398.879 395.169 402.112C393.364 403.749 391.686 405.596 390.154 407.591C389.44 408.62 388.664 409.627 388.034 410.74C387.698 411.286 387.342 411.811 387.027 412.377L386.104 414.078C383.627 418.612 381.697 423.567 379.787 428.647C379.682 423.21 380.501 417.71 382.305 412.44C384.089 407.171 386.922 402.112 390.804 397.766C394.728 393.462 399.765 390.019 405.346 388.004C408.137 386.996 411.033 386.282 413.971 385.946C415.44 385.757 416.93 385.674 418.42 385.653C419.175 385.632 419.91 385.653 420.665 385.695C421.043 385.715 421.421 385.736 421.819 385.778C422.239 385.82 422.554 385.862 423.099 385.946L421.651 394.197Z" fill="#000072"/>
<path d="M414.978 391.741C414.81 391.447 414.495 390.922 414.223 390.523C413.929 390.082 413.635 389.641 413.341 389.201C412.733 388.319 412.082 387.458 411.411 386.597C410.047 384.918 408.599 383.301 407.046 381.832C403.919 378.851 400.352 376.436 396.386 374.757C392.42 373.119 388.076 372.343 383.543 372.322C379.01 372.322 374.373 373.098 369.672 374.211C373.596 371.377 378.171 369.341 383.102 368.228C388.034 367.136 393.364 367.283 398.421 368.627C403.478 369.991 408.221 372.553 412.25 375.828C414.265 377.486 416.132 379.292 417.832 381.265C418.671 382.252 419.49 383.259 420.245 384.33C420.623 384.855 421.001 385.401 421.357 385.968C421.714 386.555 422.029 387.038 422.428 387.794L414.978 391.741Z" fill="#000072"/>
<path d="M313.119 337.409C312.364 343.329 310.937 349.019 309.279 354.624C307.6 360.229 305.544 365.688 303.529 371.167C301.515 376.667 299.353 382.084 297.066 387.5C296.52 388.865 295.912 390.208 295.303 391.552C294.695 392.895 294.107 394.239 293.478 395.582L291.568 399.592L289.512 403.581L289.7 403.182C289.596 403.455 289.428 403.938 289.302 404.337C289.176 404.757 289.05 405.198 288.924 405.617C288.693 406.478 288.525 407.339 288.42 408.179C288.169 409.837 288.19 411.433 288.525 412.482C288.882 413.532 289.176 413.889 290.036 414.33C290.96 414.729 292.449 414.981 294.149 414.897L298.514 418.214C298.493 418.109 298.514 418.193 298.535 418.256C298.535 418.298 298.577 418.361 298.598 418.444C298.64 418.57 298.703 418.717 298.766 418.864C298.871 419.158 299.06 419.452 299.206 419.725C299.395 419.998 299.542 420.292 299.773 420.523L300.067 420.901L300.424 421.237C301.347 422.139 302.501 422.769 303.865 423.147C305.208 423.588 306.845 423.588 308.461 423.567C309.3 423.462 310.16 423.378 311 423.252L313.602 422.685L316.938 423.21C316.896 423.189 316.98 423.231 317.043 423.273C317.106 423.315 317.19 423.336 317.274 423.378C317.442 423.462 317.61 423.525 317.778 423.609C318.135 423.756 318.512 423.882 318.869 423.987C319.624 424.197 320.359 424.302 321.093 424.344C322.541 424.428 323.863 424.113 325.143 423.42C326.402 422.706 327.599 421.594 328.69 420.25C328.963 419.914 329.193 419.515 329.445 419.137C329.697 418.738 329.97 418.445 330.222 417.983C330.725 417.08 331.271 416.198 331.775 415.274C333.789 411.601 335.594 407.738 337.314 403.854L338.574 400.915L339.749 397.934C340.567 395.96 341.26 393.945 341.994 391.93C344.806 383.868 347.072 375.597 348.499 367.157C348.667 366.107 348.877 365.058 349.024 363.987L349.443 360.817C349.8 358.697 349.947 356.576 350.22 354.435L350.409 352.818L350.514 351.202L350.787 347.969C350.975 345.807 350.954 343.623 351.206 341.377C351.92 343.476 352.57 345.618 353.032 347.801C353.389 349.984 353.892 352.21 353.997 354.435C354.165 356.66 354.354 358.907 354.27 361.132L354.186 364.491C354.144 365.604 354.018 366.716 353.913 367.829C353.074 376.73 351.374 385.548 348.856 394.092C347.597 398.375 346.233 402.636 344.575 406.793C342.938 410.971 341.218 415.107 339.098 419.137C338.594 420.145 338.007 421.153 337.461 422.16C337.21 422.643 336.79 423.231 336.475 423.756C336.118 424.281 335.804 424.827 335.405 425.351C333.789 427.409 331.795 429.403 329.256 430.852C326.717 432.321 323.612 432.993 320.695 432.825C319.247 432.741 317.82 432.489 316.477 432.069C315.805 431.859 315.134 431.629 314.504 431.335C314.189 431.209 313.854 431.041 313.539 430.873C313.371 430.789 313.224 430.705 313.035 430.6C312.867 430.495 312.721 430.432 312.427 430.243L315.763 430.768L312.448 431.503C311.315 431.67 310.139 431.796 308.964 431.922C306.572 431.985 304.096 431.985 301.536 431.188C299.018 430.474 296.499 429.151 294.527 427.199L293.792 426.464L293.142 425.666C292.701 425.141 292.345 424.554 291.967 423.987C291.631 423.378 291.295 422.79 291.022 422.139C290.876 421.824 290.75 421.489 290.624 421.153C290.561 420.985 290.498 420.817 290.456 420.607C290.393 420.418 290.351 420.25 290.267 419.914L294.632 423.231C292.198 423.399 289.449 423.336 286.532 422.118C285.084 421.489 283.636 420.481 282.503 419.179C281.37 417.878 280.635 416.345 280.194 414.876C279.355 411.915 279.502 409.27 279.859 406.835C280.048 405.617 280.32 404.442 280.656 403.308C280.824 402.741 280.992 402.174 281.181 401.608C281.391 401.02 281.558 400.537 281.852 399.844V399.823C281.915 399.697 281.978 399.55 282.041 399.424C284.811 394.533 287.413 389.41 289.931 384.246C292.491 379.103 294.884 373.833 297.339 368.585C299.794 363.336 302.039 358.004 304.579 352.777C307.181 347.591 309.867 342.427 313.119 337.409Z" fill="#000072"/>
<path d="M291.61 417.626C292.428 416.492 293.247 415.359 294.107 414.246C294.946 413.112 295.828 412.021 296.688 410.908C297.548 409.795 298.472 408.725 299.353 407.633C300.276 406.562 301.2 405.471 302.207 404.463L301.032 408.536L299.815 412.566C299.395 413.889 298.996 415.254 298.535 416.576C298.115 417.899 297.653 419.221 297.192 420.544L291.61 417.626Z" fill="#000072"/>
<path d="M311.965 425.141L317.799 417.374C318.764 416.072 319.771 414.771 320.694 413.448C321.66 412.125 322.625 410.824 323.443 409.396C323.338 411.076 322.898 412.692 322.478 414.309C322.016 415.904 321.534 417.5 320.967 419.053C320.422 420.607 319.876 422.181 319.267 423.714C318.68 425.267 318.05 426.779 317.4 428.29L311.965 425.141Z" fill="#000072"/>
<path d="M444.084 189.761C444.084 217.662 433.172 240.335 414.622 257.529C412.355 259.649 409.984 261.643 407.508 263.575C398.065 270.944 387.069 277.158 374.856 282.154C354.585 290.468 330.893 295.485 305.355 297.102C299.248 297.5 293.037 297.689 286.742 297.689C248.193 297.689 212.876 290.384 185.512 276.066C178.461 272.371 171.935 268.214 165.996 263.575C163.101 261.328 160.373 258.956 157.792 256.479C150.3 249.32 144.11 241.238 139.43 232.252C132.967 219.803 129.42 205.611 129.42 189.74C129.42 175.423 132.4 161.378 137.877 148.089C139.01 138.327 140.165 128.67 141.403 119.118C145.914 84.7512 151.727 51.8122 162.345 21.4555C167.927 5.56331 187.065 -0.734776 200.894 8.90129C220.703 22.7781 239.904 42.2811 250.921 58.5722L249.62 59.6009C256.146 58.1103 262.84 56.9766 269.639 56.2209C276.04 55.5281 282.524 55.1502 289.113 55.1502C300.969 55.1502 312.469 56.3259 323.507 58.5722C334.523 42.2811 353.724 22.7571 373.534 8.90129C387.342 -0.75577 406.501 5.56331 412.082 21.4765C416.447 33.9677 420.015 46.8997 422.994 60.1887C429.353 88.4461 433.13 118.32 436.655 149.013L436.425 148.824C437.83 152.519 439.048 156.255 440.076 160.055C442.72 169.712 444.084 179.663 444.084 189.761Z" fill="#8E8FB3"/>
<path d="M286.763 298.256C247.48 298.256 212.394 290.762 185.281 276.57C178.21 272.875 171.684 268.697 165.829 264.142H165.493V263.869C162.681 261.664 159.974 259.313 157.435 256.899C149.797 249.593 143.585 241.406 138.969 232.546C132.275 219.677 128.896 205.276 128.896 189.782C128.896 175.738 131.75 161.693 137.353 148.005C138.675 136.627 139.787 127.431 140.857 119.097C144.781 89.202 150.342 54.1846 161.842 21.3086C164.57 13.52 170.634 7.5998 178.462 5.08056C186.226 2.58232 194.494 3.82095 201.188 8.48153C220.179 21.7705 239.862 41.3155 251.341 58.2994L251.572 58.6562C257.468 57.3756 263.512 56.4099 269.555 55.7171C276.04 55.0034 282.608 54.6465 289.092 54.6465C300.613 54.6465 312.112 55.7801 323.255 58.0054C334.775 41.1056 354.354 21.6865 373.219 8.48153C379.892 3.82095 388.181 2.58232 395.945 5.08056C403.773 7.5998 409.837 13.52 412.544 21.3086C416.741 33.338 420.33 46.0181 423.477 60.0838C430.003 89.055 433.802 119.874 437.159 148.971L437.222 149.538C438.523 153.044 439.656 156.528 440.559 159.929C443.245 169.712 444.609 179.768 444.609 189.782C444.609 216.78 434.641 239.705 414.978 257.949C412.88 259.901 410.614 261.853 408.033 263.869V264.142H407.676C398.401 271.363 387.426 277.62 375.045 282.679C354.795 290.972 331.355 296.01 305.397 297.668C299.416 298.067 293.142 298.256 286.763 298.256ZM166.542 263.344C172.313 267.837 178.797 271.972 185.785 275.625C212.75 289.733 247.669 297.207 286.763 297.207C293.121 297.207 299.375 297.018 305.334 296.619C331.208 294.96 354.522 289.943 374.667 281.713C386.922 276.675 397.813 270.503 407.004 263.344L407.214 263.176C409.858 261.098 412.167 259.145 414.286 257.151C433.718 239.117 443.58 216.444 443.58 189.761C443.58 179.831 442.237 169.88 439.572 160.181C438.586 156.549 437.369 152.771 435.921 149.013L435.25 147.228L435.984 147.816C432.668 119.118 428.891 88.8031 422.47 60.2938C419.322 46.27 415.755 33.6109 411.579 21.6445C408.956 14.1708 403.143 8.48153 395.631 6.06726C388.181 3.653 380.228 4.84963 373.828 9.32127C354.942 22.5472 335.363 41.9873 323.926 58.8662L323.738 59.1601L323.402 59.0971C312.217 56.8298 300.697 55.6962 289.113 55.6962C282.671 55.6962 276.124 56.053 269.681 56.7668C262.966 57.5226 256.251 58.6562 249.725 60.1468L247.48 60.6506L250.208 58.4883C238.75 41.7144 219.318 22.4633 200.579 9.34227C194.179 4.87063 186.226 3.67399 178.776 6.08826C171.264 8.52352 165.451 14.1918 162.828 21.6655C151.37 54.4575 145.81 89.3909 141.906 119.244C140.815 127.599 139.703 136.794 138.381 148.215L138.339 148.362C132.757 161.945 129.924 175.885 129.924 189.803C129.924 205.129 133.282 219.341 139.892 232.084C144.446 240.839 150.594 248.942 158.148 256.164C160.709 258.62 163.458 260.993 166.311 263.218L166.542 263.344Z" fill="#000072"/>
<path d="M382.158 277.829C382.158 277.829 379.388 279.467 374.856 282.196C354.585 290.509 330.893 295.527 305.355 297.143C299.248 297.542 293.037 297.731 286.742 297.731C248.193 297.731 212.876 290.425 185.512 276.108C179.007 256.248 196.424 242.098 224.669 233.071C235.329 229.649 243.681 221.126 246.367 210.251C257.447 165.325 310.811 165.325 321.891 210.251C324.577 221.126 332.929 229.649 343.589 233.071C372.694 242.35 390.3 257.046 382.158 277.829Z" fill="white"/>
<g opacity="0.3">
<path d="M139.073 185.437C139.073 201.308 142.62 215.499 149.083 227.949C153.762 236.934 159.953 245.016 167.444 252.175C170.025 254.653 172.774 257.025 175.649 259.271C175.649 259.271 175.649 259.292 175.67 259.292C204.524 281.839 247.92 293.407 296.415 293.407C302.711 293.407 308.922 293.218 315.008 292.819H315.029C337.944 291.349 359.348 287.172 378.15 280.307C388.622 275.667 398.128 270.083 406.417 263.596C406.437 263.596 406.437 263.575 406.437 263.575C408.914 261.643 411.285 259.628 413.551 257.529C415.335 255.87 417.056 254.17 418.692 252.406C395.19 265.632 365.308 273.421 332.32 275.52H332.299C326.214 275.919 319.981 276.108 313.707 276.108C265.211 276.108 221.815 264.541 192.962 241.993C192.941 241.993 192.941 241.972 192.941 241.972C190.045 239.726 187.317 237.354 184.736 234.877C177.244 227.718 171.054 219.635 166.374 210.65C159.89 198.201 156.365 184.009 156.365 168.138C156.365 153.82 159.344 139.776 164.821 126.487C165.954 116.725 167.088 107.068 168.326 97.5154C172.607 64.8914 178.084 33.5269 187.736 4.45076C185.638 4.26182 183.519 4.3248 181.441 4.6397C177.244 7.57881 172.858 10.7908 170.844 16.0602C160.163 44.1497 154.266 80.6366 149.775 115.003C148.537 124.555 147.299 134.086 146.166 143.827C140.71 157.116 139.073 171.119 139.073 185.437Z" fill="#000072"/>
</g>
<g opacity="0.6">
<path d="M372.443 8.90129C370.764 10.0769 369.085 11.2946 367.406 12.5542C380.752 6.15113 397.246 12.6591 402.346 27.2287C416.006 66.2978 421.735 109.65 426.918 154.765L426.688 154.576C431.682 167.655 434.368 181.427 434.368 195.513C434.368 223.414 423.456 246.087 404.906 263.281C402.639 265.38 400.268 267.396 397.792 269.327C397.792 269.327 397.792 269.348 397.771 269.348C396.764 270.146 395.735 270.923 394.686 271.678C398.82 269.159 402.744 266.472 406.417 263.596C406.438 263.596 406.438 263.575 406.438 263.575C408.914 261.643 411.285 259.628 413.551 257.529C432.102 240.335 443.014 217.662 443.014 189.761C443.014 175.675 440.328 161.903 435.333 148.824L435.564 149.013C430.381 103.897 424.652 60.5456 410.991 21.4765C405.409 5.56331 386.271 -0.75577 372.443 8.90129Z" fill="white"/>
</g>
<g opacity="0.6">
<path d="M167.171 11.9663C174.747 8.90121 183.728 9.46804 191.157 14.6744C208.7 26.9557 225.76 43.6666 237.092 58.6351C239.673 62.057 243.954 63.6735 248.193 62.9597C248.214 62.9597 248.235 62.9597 248.256 62.9388H248.277C248.927 61.7421 249.641 60.4615 250.333 59.2019C249.746 59.3279 249.137 59.4538 248.55 59.6008L249.851 58.5721C238.834 42.281 219.633 22.757 199.823 8.90121C189.226 1.51146 175.502 3.48486 167.171 11.9663Z" fill="white"/>
</g>
<path d="M363.041 72.3859C369.693 60.1886 378.318 48.6211 384.508 40.9164C387.803 36.8017 394.392 38.3132 395.588 43.4567C398.61 56.4097 402.87 78.2431 403.478 100.916V100.937" fill="#F962BB"/>
<path d="M403.499 100.937H402.975C402.366 78.8309 398.358 57.5434 395.085 43.5826C394.581 41.3993 392.902 39.7408 390.72 39.237C388.517 38.7331 386.355 39.4889 384.928 41.2523C378.843 48.81 370.197 60.3985 363.503 72.6378L362.58 72.1339C369.295 59.8107 378.003 48.1802 384.11 40.6015C385.768 38.5442 388.391 37.6204 390.951 38.2083C393.532 38.7961 395.504 40.7485 396.113 43.3307C399.387 57.3544 403.416 78.7049 404.024 100.895L403.499 100.937Z" fill="#000072"/>
<g opacity="0.6">
<path d="M357.271 78.7681L385.747 97.7883C390.762 101.147 397.016 102.071 402.807 100.308L363.042 72.3861C369.694 60.1888 378.318 48.6213 384.509 40.9166C384.53 40.8747 384.551 40.8537 384.593 40.8327C382.2 37.9146 377.437 37.6206 374.793 40.9166C369.652 47.3197 361.489 58.0054 355.067 68.4393C352.906 71.9452 353.871 76.5008 357.271 78.7681Z" fill="white"/>
</g>
<g opacity="0.3">
<path d="M382.116 43.9397C382.326 44.3805 382.515 44.8424 382.62 45.3463C385.117 56.074 388.496 72.9528 389.922 91.3432L403.499 100.916V100.895C402.891 78.2012 398.631 56.3679 395.609 43.4358C394.413 38.2924 387.824 36.8019 384.529 40.8956C383.753 41.8823 382.935 42.89 382.116 43.9397Z" fill="#000072"/>
</g>
<path d="M168.766 100.937C169.375 78.243 173.635 56.4096 176.656 43.4566C177.852 38.3132 184.442 36.8226 187.736 40.9164C193.948 48.621 202.551 60.1885 209.203 72.3858" fill="#F962BB"/>
<path d="M169.291 100.937L168.242 100.916C168.85 78.7259 172.879 57.3544 176.153 43.3307C176.761 40.7485 178.734 38.7961 181.315 38.2083C183.896 37.6204 186.519 38.5442 188.156 40.6015C194.263 48.2012 202.971 59.8317 209.686 72.1339L208.763 72.6378C202.09 60.3985 193.423 48.81 187.338 41.2523C185.911 39.4889 183.749 38.7331 181.546 39.237C179.364 39.7408 177.685 41.3993 177.181 43.5826C173.908 57.5434 169.878 78.8309 169.291 100.937Z" fill="#000072"/>
<g opacity="0.6">
<path d="M168.766 102.302L168.85 98.208C169.711 76.5006 173.761 55.8849 176.656 43.4567C176.866 42.512 177.286 41.6933 177.811 41.0005C174.537 40.0138 170.697 41.8192 169.815 45.6191C167.108 57.2285 163.394 75.9758 162.219 96.0877C162.009 99.7406 165.115 102.722 168.766 102.302Z" fill="white"/>
</g>
<g opacity="0.3">
<path d="M175.523 48.5161C175.901 48.81 176.258 49.1669 176.573 49.5658C182.679 57.1655 191.136 68.481 197.725 80.4684L209.204 72.3649C202.552 60.1676 193.927 48.6001 187.736 40.8955C184.442 36.7807 177.853 38.2922 176.657 43.4357C176.3 45.0312 175.922 46.7107 175.523 48.5161Z" fill="#000072"/>
</g>
<path d="M266.366 201.329C266.387 205.674 272.367 209.18 279.754 209.159C287.14 209.138 293.121 205.611 293.1 201.266C293.079 196.92 287.099 196.563 279.712 196.584C272.325 196.605 266.345 196.983 266.366 201.329Z" fill="#000072"/>
<path d="M251.047 205.758C252.054 208.886 253.397 211.784 255.475 213.61C257.468 215.499 260.028 216.255 262.63 216.108C265.233 215.982 267.877 214.933 270.059 213.358C271.15 212.56 272.157 211.658 272.997 210.608L273.605 209.81L274.277 208.823C275.452 207.102 277.529 206.052 279.523 206.073C281.496 206.052 283.594 207.06 284.769 208.802L285.441 209.789L286.049 210.587C286.889 211.616 287.896 212.539 289.008 213.316C291.211 214.87 293.855 215.919 296.458 216.024C299.06 216.15 301.599 215.394 303.613 213.484C305.691 211.637 307.013 208.718 307.999 205.611V205.569C308.188 205.003 308.796 204.667 309.363 204.856C309.825 205.003 310.118 205.401 310.118 205.863C310.265 209.39 309.573 213.253 307.244 216.591C306.068 218.229 304.474 219.656 302.627 220.685C300.78 221.713 298.682 222.259 296.625 222.427C292.449 222.763 288.399 221.525 284.979 219.383C283.258 218.313 281.705 216.969 280.341 215.436C280.006 215.037 279.691 214.639 279.376 214.24L278.935 213.61L278.726 213.295C278.663 213.19 278.558 213.043 278.621 213.148C278.831 213.463 279.25 213.652 279.544 213.652C279.838 213.673 280.236 213.463 280.467 213.148C280.53 213.043 280.425 213.211 280.362 213.295L280.153 213.61L279.712 214.24L278.747 215.436C277.404 216.969 275.851 218.313 274.13 219.404C270.709 221.546 266.659 222.826 262.484 222.49C260.406 222.322 258.329 221.797 256.461 220.769C254.614 219.74 252.999 218.333 251.823 216.696C249.473 213.358 248.76 209.516 248.907 205.968C248.928 205.359 249.431 204.898 250.04 204.919C250.501 204.94 250.9 205.254 251.047 205.674V205.758Z" fill="#000072"/>
<path d="M349.334 211.658C363.322 211.624 374.627 197.206 374.584 179.455C374.54 161.704 363.165 147.342 349.177 147.376C335.189 147.41 323.884 161.828 323.927 179.579C323.97 197.33 335.345 211.692 349.334 211.658Z" fill="white"/>
<path d="M349.296 214.954C333.537 214.954 320.694 199.103 320.652 179.6C320.61 160.055 333.411 144.142 349.17 144.1C349.191 144.1 349.212 144.1 349.233 144.1C364.993 144.1 377.835 159.95 377.877 179.453C377.898 188.774 375.044 197.571 369.819 204.247C364.405 211.133 357.145 214.954 349.359 214.954C349.338 214.954 349.317 214.954 349.296 214.954ZM349.233 150.65C349.212 150.65 349.212 150.65 349.191 150.65C337.041 150.671 327.179 163.645 327.2 179.558C327.242 195.45 337.146 208.362 349.275 208.362C349.296 208.362 349.296 208.362 349.317 208.362C355.067 208.341 360.502 205.443 364.636 200.153C368.959 194.653 371.33 187.284 371.309 179.432C371.267 163.582 361.362 150.65 349.233 150.65Z" fill="#000072"/>
<path d="M345.186 208.887C356.393 208.86 365.449 197.089 365.414 182.595C365.378 168.102 356.265 156.376 345.058 156.403C333.851 156.43 324.794 168.201 324.83 182.694C324.865 197.187 333.979 208.914 345.186 208.887Z" fill="#000072"/>
<path d="M349.86 180.672C352.491 180.665 354.616 177.539 354.606 173.69C354.597 169.841 352.457 166.725 349.826 166.732C347.195 166.738 345.07 169.864 345.08 173.713C345.089 177.563 347.229 180.678 349.86 180.672Z" fill="white"/>
<path d="M236.927 179.577C236.97 161.826 225.665 147.408 211.677 147.374C197.688 147.339 186.314 161.702 186.27 179.453C186.227 197.204 197.532 211.622 211.52 211.656C225.509 211.69 236.884 197.328 236.927 179.577Z" fill="white"/>
<path d="M211.575 214.954C211.554 214.954 211.533 214.954 211.512 214.954C203.727 214.933 196.445 211.133 191.052 204.247C185.827 197.592 182.973 188.774 182.994 179.453C183.036 159.95 195.878 144.1 211.638 144.1C211.659 144.1 211.68 144.1 211.701 144.1C227.481 144.142 240.282 160.055 240.219 179.6C240.177 199.103 227.334 214.954 211.575 214.954ZM189.562 179.474C189.541 187.326 191.912 194.674 196.235 200.195C200.369 205.464 205.804 208.383 211.554 208.404C211.575 208.404 211.575 208.404 211.596 208.404C223.746 208.404 233.63 195.492 233.671 179.6C233.713 163.687 223.851 150.713 211.68 150.692C211.659 150.692 211.659 150.692 211.638 150.692C199.488 150.65 189.604 163.582 189.562 179.474Z" fill="#000072"/>
<path d="M236.051 182.684C236.087 168.191 227.03 156.42 215.823 156.392C204.616 156.365 195.503 168.092 195.467 182.585C195.432 197.078 204.488 208.849 215.695 208.876C226.902 208.904 236.016 197.177 236.051 182.684Z" fill="#000072"/>
<path d="M215.777 173.726C215.786 169.877 213.661 166.751 211.03 166.744C208.4 166.738 206.259 169.853 206.25 173.703C206.241 177.552 208.366 180.678 210.996 180.684C213.627 180.691 215.767 177.575 215.777 173.726Z" fill="white"/>
<path d="M296.625 219.341C296.625 223.897 295.282 227.529 293.121 230.279C286.637 238.529 272.787 238.529 266.303 230.279C264.141 227.55 262.798 223.897 262.798 219.341C269.367 218.019 275.116 215.604 279.712 211.678C284.496 215.961 289.931 218.921 296.625 219.341Z" fill="#000072"/>
<path d="M293.142 230.279C286.658 238.529 272.808 238.529 266.324 230.279C272.787 222.007 286.658 222.007 293.142 230.279Z" fill="#EF4364"/>
<path d="M279.733 240.23C274.361 240.23 269.345 238.362 265.568 234.982C262.588 232.294 259.021 227.403 259.021 219.341H266.596C266.596 228.558 273.186 232.672 279.712 232.672C286.238 232.672 292.827 228.558 292.827 219.341H300.403C300.424 233.071 290.015 240.23 279.733 240.23Z" fill="#000072"/>
<path d="M403.5 104.716C402.576 104.716 401.674 104.38 400.981 103.75C388.286 92.3719 374.919 82.9458 361.279 75.724C360.376 75.2411 359.726 74.4434 359.432 73.4777C359.138 72.512 359.243 71.4623 359.726 70.5806C366.567 58.0474 375.38 46.249 381.571 38.5653C384.005 35.5422 387.866 34.1776 391.664 35.0384C395.462 35.8991 398.379 38.7962 399.261 42.5961C402.576 56.7668 406.647 78.3692 407.256 100.832C407.256 100.874 407.256 100.916 407.256 100.937C407.256 102.428 406.374 103.792 405.01 104.401C404.549 104.611 404.003 104.716 403.5 104.716ZM368.225 70.8955C378.843 76.8157 389.251 83.9955 399.303 92.3299C398.065 73.7296 394.707 56.3049 391.916 44.3176C391.58 42.911 390.468 42.5121 390.006 42.4071C389.545 42.3022 388.37 42.1762 387.467 43.2889C382.011 50.0698 374.478 60.1047 368.225 70.8955Z" fill="#000072"/>
<path d="M285.692 302.056C240.24 302.056 200.978 292.336 172.124 273.967C140.668 253.939 124.027 224.821 124.027 189.782C124.027 175.402 126.902 161.042 132.568 147.06C137.709 102.428 143.522 59.139 157.183 20.0699C160.31 11.1476 167.256 4.36669 176.216 1.46957C185.113 -1.42755 194.619 1.87574e-05 202.279 5.35339C220.955 18.4114 240.345 37.4736 252.201 54.4154C274.696 49.8808 298.136 49.6709 320.464 53.8066C332.383 37.0327 351.5 18.2645 369.966 5.37438C377.647 1.87574e-05 387.132 -1.42755 396.029 1.44858C405.011 4.3457 411.935 11.1266 415.062 20.0489C428.87 59.5589 434.683 103.373 439.845 148.53C439.845 148.551 439.845 148.593 439.845 148.614C444.797 162.029 447.315 175.884 447.315 189.782C447.315 224.821 430.696 253.939 399.24 273.967C370.407 292.336 331.124 302.056 285.692 302.056ZM139.955 151.847C135.107 164.296 132.652 177.039 132.652 189.782C132.652 221.713 147.887 248.312 176.741 266.682C203.811 283.918 242.506 293.428 285.671 293.428C328.837 293.428 367.532 283.939 394.602 266.682C423.435 248.312 438.67 221.713 438.67 189.782C438.67 176.577 436.215 163.414 431.367 150.65C431.094 149.957 431.031 149.223 431.136 148.509C426.037 104.212 420.308 61.3013 406.899 22.925C404.675 16.585 399.743 11.7564 393.364 9.69906C387.069 7.66268 380.333 8.67038 374.919 12.4702C356.389 25.4233 337.188 44.4855 326.004 61.0284C325.017 62.477 323.276 63.1908 321.576 62.8339C298.493 58.1733 274.046 58.4252 250.774 63.5687C249.494 63.8626 248.151 63.5477 247.144 62.7289C246.304 62.0571 245.738 61.0704 245.57 60.0207C234.28 43.7297 215.478 25.1714 197.326 12.4702C191.912 8.67038 185.176 7.66268 178.881 9.69906C172.502 11.7564 167.57 16.585 165.346 22.925C151.937 61.2594 146.208 104.128 141.109 148.383C141.109 148.53 141.088 148.698 141.046 148.845C141.025 149.076 141.004 149.286 140.962 149.495C140.878 150.398 140.5 151.196 139.955 151.847Z" fill="#000072"/>
<path d="M168.766 104.716C168.137 104.716 167.507 104.569 166.941 104.254C165.598 103.52 164.842 102.05 165.01 100.517C165.22 98.691 169.941 55.6122 172.984 42.5961C173.865 38.7963 176.782 35.8992 180.581 35.0384C184.379 34.1777 188.24 35.5213 190.695 38.5654C196.886 46.27 205.699 58.0684 212.54 70.5806C213.505 72.3651 212.897 74.5904 211.176 75.6401C198.564 83.2187 185.47 92.4559 171.137 103.897C170.445 104.443 169.606 104.716 168.766 104.716ZM182.847 42.3442C182.595 42.3442 182.385 42.3862 182.259 42.4072C181.798 42.5121 180.664 42.911 180.35 44.3176C178.23 53.3658 175.125 78.7261 173.551 92.393C184.274 84.1425 194.346 77.1306 204.146 71.0635C197.872 60.2098 190.296 50.1118 184.819 43.3099C184.169 42.5122 183.413 42.3442 182.847 42.3442Z" fill="#000072"/>
<g opacity="0.2">
<path d="M301.284 71.0215C320.506 74.0866 336.076 79.8178 347.177 88.8031C351.122 91.9941 349.569 98.3552 344.617 99.4678C322.394 104.401 305.229 99.09 294.925 79.8808C292.554 75.4512 296.352 70.2237 301.284 71.0215Z" fill="white"/>
</g>
<g opacity="0.2">
<path d="M371.393 119.79C374.982 117.081 374.877 110.888 371.162 105.934C367.448 100.979 361.51 99.1739 357.921 101.882C354.333 104.59 356.662 109.125 360.376 114.058C364.091 119.013 367.805 122.498 371.393 119.79Z" fill="white"/>
</g>
<g opacity="0.3">
<path d="M214.513 216.108C210.883 217.368 207.042 218.061 203.076 218.061C198.334 218.061 193.717 217.305 189.373 215.877L164.234 151.112C169.06 144.667 176.153 140.384 184.169 137.907L214.513 216.108Z" fill="white"/>
</g>
<g opacity="0.3">
<path d="M377.521 214.009C371.813 216.612 365.518 218.061 358.97 218.061C357.25 218.061 355.55 217.935 353.871 217.683L326.444 147.018C331.774 141.686 339.014 138.054 347.366 136.354L377.521 214.009Z" fill="white"/>
</g>
<g opacity="0.3">
<path d="M399.702 192.805C396.827 198.473 392.735 203.512 387.824 207.564L359.747 135.199C366.126 135.262 372.569 136.185 378.465 138.075L399.702 192.805Z" fill="white"/>
</g>
<g opacity="0.3">
<path d="M239.946 192.805C237.071 198.473 232.979 203.512 228.069 207.564L199.991 135.199C206.371 135.262 212.813 136.185 218.709 138.075L239.946 192.805Z" fill="white"/>
</g>
<path d="M438.922 139.398C435.606 139.754 429.479 139.838 422.491 137.067C420.707 136.353 419.049 135.304 417.496 134.17C378.318 105.283 330.557 116.871 296.856 140.573C286.301 131.189 275.767 131.189 265.211 140.573C231.489 116.871 183.749 105.283 144.55 134.17C142.997 135.304 141.34 136.353 139.556 137.067C132.568 139.817 126.462 139.754 123.146 139.398C121.74 139.251 120.523 140.342 120.523 141.749V149.957C120.523 151.091 121.341 152.057 122.475 152.267C131.078 153.925 135.716 160.769 137.311 171.623C159.596 272.392 266.554 244.261 266.932 159.971C266.953 156.003 269.786 152.623 273.668 151.868C278.684 150.881 283.615 150.797 288.441 151.721C292.345 152.456 295.135 155.857 295.156 159.824C295.408 244.219 402.492 272.455 424.778 171.623C426.352 160.769 430.989 153.925 439.593 152.267C440.726 152.057 441.545 151.091 441.545 149.957V141.749C441.524 140.342 440.328 139.251 438.922 139.398ZM203.076 218.061C179.657 218.061 159.512 199.376 157.75 176.556C155.441 146.493 179.657 135.178 203.076 135.178C226.516 135.178 245.129 148.236 245.129 171.119C245.129 194.002 226.516 218.061 203.076 218.061ZM404.318 176.556C402.555 199.376 382.41 218.061 358.991 218.061C335.573 218.061 316.938 194.002 316.938 171.14C316.938 148.257 335.573 135.199 358.991 135.199C382.41 135.178 406.626 146.493 404.318 176.556Z" fill="#EF4364"/>
<path d="M200.999 236.514C187.989 236.514 175.419 231.958 165.052 223.372C151.559 212.203 141.781 194.338 136.786 171.749C135.149 160.538 130.428 154.345 122.37 152.791C121.006 152.519 119.999 151.343 119.999 149.957V141.749C119.999 140.93 120.355 140.153 120.964 139.607C121.572 139.062 122.391 138.789 123.209 138.873C126.252 139.209 132.4 139.335 139.388 136.563C140.899 135.976 142.452 135.073 144.278 133.729C184.505 104.086 233.042 117.438 265.212 139.901C275.725 130.727 286.406 130.727 296.919 139.901C329.068 117.438 377.605 104.086 417.853 133.729C419.679 135.052 421.232 135.955 422.722 136.563C429.71 139.335 435.858 139.188 438.901 138.873C439.698 138.789 440.538 139.041 441.125 139.586C441.734 140.132 442.091 140.909 442.091 141.728V149.936C442.091 151.301 441.083 152.498 439.719 152.77C431.661 154.324 426.94 160.517 425.324 171.686C420.309 194.338 410.53 212.203 397.037 223.372C385.096 233.26 370.197 237.795 355.11 236.178C339.224 234.457 324.346 226.332 313.245 213.274C301.158 199.061 294.737 180.587 294.674 159.845C294.674 156.129 292.03 152.938 288.379 152.246C283.72 151.364 278.831 151.406 273.815 152.393C270.164 153.085 267.52 156.297 267.499 159.992C267.415 180.713 260.973 199.166 248.886 213.337C237.764 226.374 222.907 234.499 207.021 236.199C204.965 236.409 202.971 236.514 200.999 236.514ZM122.894 139.901C122.433 139.901 121.992 140.069 121.656 140.384C121.258 140.741 121.048 141.224 121.048 141.749V149.957C121.048 150.818 121.677 151.574 122.559 151.742C130.994 153.358 136.115 160.034 137.814 171.539C149.125 222.658 180.896 237.92 206.854 235.128C236.295 231.979 266.198 205.149 266.387 159.95C266.408 155.752 269.43 152.12 273.564 151.322C278.705 150.314 283.741 150.272 288.526 151.175C292.659 151.952 295.66 155.584 295.66 159.803C295.786 205.045 325.689 231.937 355.172 235.107C381.151 237.899 412.943 222.658 424.254 171.476C425.911 159.992 431.053 153.337 439.488 151.721C440.37 151.553 440.999 150.797 440.999 149.936V141.728C440.999 141.203 440.789 140.72 440.391 140.363C439.992 140.006 439.488 139.859 438.964 139.901C435.837 140.237 429.479 140.384 422.281 137.529C420.686 136.899 419.07 135.955 417.161 134.569C377.227 105.136 328.963 118.593 297.129 140.972L296.793 141.203L296.479 140.93C286.07 131.672 275.956 131.672 265.547 140.93L265.233 141.203L264.897 140.972C233.063 118.614 184.799 105.157 144.865 134.59C142.956 135.976 141.34 136.92 139.745 137.55C132.547 140.405 126.21 140.258 123.062 139.922C123.02 139.901 122.957 139.901 122.894 139.901ZM358.971 218.585C334.608 218.585 316.393 193.54 316.393 171.14C316.393 149.327 333.495 134.674 358.971 134.674C374.583 134.674 388.118 139.628 396.113 148.257C402.786 155.479 405.724 165.01 404.822 176.598C403.038 199.754 382.473 218.585 358.971 218.585ZM358.971 135.703C334.125 135.703 317.442 149.936 317.442 171.119C317.442 193.015 335.195 217.515 358.971 217.515C381.928 217.515 402.031 199.103 403.773 176.493C404.633 165.199 401.8 155.919 395.337 148.929C387.552 140.531 374.289 135.703 358.971 135.703ZM203.076 218.585C179.574 218.585 159.009 199.754 157.225 176.598C156.344 164.989 159.261 155.458 165.934 148.236C173.929 139.607 187.464 134.653 203.076 134.653C228.552 134.653 245.654 149.306 245.654 171.119C245.654 193.54 227.439 218.585 203.076 218.585ZM203.076 135.703C187.758 135.703 174.495 140.531 166.71 148.95C160.247 155.94 157.393 165.22 158.274 176.514C160.016 199.124 180.119 217.536 203.076 217.536C226.852 217.536 244.605 193.036 244.605 171.14C244.605 149.957 227.922 135.703 203.076 135.703Z" fill="#000072"/>
<g opacity="0.55">
<path d="M438.922 139.398C435.606 139.754 429.479 139.838 422.491 137.067C420.707 136.353 419.049 135.304 417.496 134.17C378.318 105.283 330.557 116.871 296.856 140.573C286.301 131.189 275.767 131.189 265.211 140.573C231.489 116.871 183.749 105.283 144.55 134.17C142.997 135.304 141.34 136.353 139.556 137.067C132.568 139.817 126.462 139.754 123.146 139.398C121.74 139.251 120.523 140.342 120.523 141.749V149.726C120.523 148.32 121.74 147.228 123.146 147.375C126.462 147.732 132.589 147.816 139.577 145.045C141.361 144.331 143.018 143.281 144.571 142.148C183.749 113.26 231.51 124.849 265.211 148.551C275.767 139.167 286.301 139.167 296.856 148.551C330.557 124.849 378.318 113.26 417.496 142.148C419.049 143.281 420.707 144.331 422.491 145.045C429.479 147.816 435.606 147.732 438.922 147.375C440.328 147.228 441.524 148.32 441.524 149.726V141.749C441.524 140.342 440.328 139.251 438.922 139.398ZM404.297 176.745C402.43 199.481 382.347 218.061 358.991 218.061C336.937 218.061 319.142 196.752 317.127 175.171C317.001 176.451 316.938 177.774 316.938 179.117C316.938 202 335.573 226.038 358.991 226.038C382.41 226.038 402.555 207.354 404.318 184.534C404.528 181.784 404.507 179.18 404.297 176.745ZM244.94 175.171C242.926 196.752 225.131 218.061 203.076 218.061C179.72 218.061 159.617 199.481 157.771 176.745C157.561 179.18 157.54 181.784 157.75 184.534C159.512 207.354 179.657 226.038 203.076 226.038C226.516 226.038 245.129 201.979 245.129 179.117C245.129 177.774 245.066 176.451 244.94 175.171Z" fill="white"/>
</g>
<path d="M200.999 239.579C187.275 239.579 174.013 234.772 163.101 225.744C149.062 214.135 138.926 195.681 133.785 172.4C133.764 172.316 133.743 172.232 133.743 172.148C131.855 159.195 126.021 156.612 121.803 155.815C118.97 155.269 116.935 152.812 116.935 149.957V141.749C116.935 140.048 117.648 138.432 118.907 137.319C120.166 136.186 121.866 135.64 123.524 135.829C126.294 136.123 131.876 136.249 138.234 133.729C139.493 133.225 140.815 132.449 142.431 131.273C183.162 101.252 231.972 113.806 265.002 136.081C275.536 127.914 286.511 127.914 297.045 136.081C330.075 113.827 378.885 101.252 419.637 131.294C421.232 132.47 422.575 133.246 423.834 133.729C430.213 136.249 435.795 136.123 438.544 135.829C440.223 135.64 441.901 136.186 443.16 137.319C444.42 138.453 445.133 140.069 445.133 141.749V149.957C445.133 152.791 443.077 155.269 440.265 155.815C436.047 156.633 430.213 159.195 428.324 172.148C428.303 172.232 428.303 172.316 428.282 172.4C423.141 195.681 412.985 214.135 398.946 225.744C386.355 236.157 370.638 240.944 354.732 239.222C338.049 237.417 322.478 228.914 310.853 215.247C298.283 200.468 291.61 181.322 291.547 159.824C291.547 157.599 289.952 155.668 287.77 155.248C283.51 154.45 278.998 154.492 274.361 155.395C272.157 155.815 270.542 157.746 270.542 159.971C270.437 181.427 263.743 200.573 251.173 215.31C239.547 228.956 223.956 237.438 207.294 239.222C205.175 239.474 203.076 239.579 200.999 239.579ZM281.558 147.48C284.119 147.48 286.637 147.711 289.092 148.173C294.674 149.223 298.724 154.114 298.745 159.803C298.871 203.239 327.389 229.019 355.487 232.063C380.123 234.73 410.299 220.055 421.211 170.972C423.057 158.523 428.681 151.133 437.914 148.929V143.092C434.2 143.344 428.031 143.134 421.148 140.405C419.301 139.67 417.475 138.621 415.356 137.067C376.723 108.6 329.886 121.742 298.892 143.512C297.528 144.478 295.681 144.373 294.422 143.26C285.273 135.115 276.732 135.115 267.583 143.26C266.345 144.373 264.477 144.478 263.113 143.512C232.14 121.742 185.281 108.6 146.67 137.067C144.55 138.621 142.704 139.67 140.878 140.405C133.995 143.134 127.826 143.344 124.111 143.092V148.929C133.344 151.112 138.968 158.523 140.815 170.972C151.706 220.034 181.861 234.709 206.497 232.084C234.574 229.082 263.092 203.344 263.281 159.971C263.302 154.324 267.373 149.411 272.934 148.341C275.872 147.753 278.746 147.48 281.558 147.48ZM358.97 221.671C332.845 221.671 313.308 194.989 313.308 171.14C313.308 147.48 331.67 131.588 358.97 131.588C375.443 131.588 389.797 136.899 398.379 146.157C405.661 154.03 408.872 164.338 407.906 176.85C405.997 201.56 384.047 221.671 358.97 221.671ZM358.97 138.789C339.833 138.789 320.527 148.782 320.527 171.14C320.527 191.588 336.979 214.45 358.97 214.45C380.354 214.45 399.072 197.319 400.709 176.283C401.506 165.87 398.946 157.389 393.07 151.049C385.873 143.26 373.45 138.789 358.97 138.789ZM203.076 221.671C178 221.671 156.05 201.56 154.14 176.85C153.175 164.359 156.386 154.03 163.667 146.157C172.229 136.899 186.603 131.588 203.076 131.588C230.398 131.588 248.739 147.48 248.739 171.14C248.739 194.989 229.223 221.671 203.076 221.671ZM203.076 138.789C188.618 138.789 176.174 143.26 168.976 151.049C163.122 157.389 160.54 165.87 161.338 176.283C162.975 197.34 181.693 214.45 203.076 214.45C225.089 214.45 241.52 191.588 241.52 171.14C241.541 148.803 222.214 138.789 203.076 138.789Z" fill="#000072"/>
<path d="M459.696 529.165H145.432C135.506 529.165 127.448 521.103 127.448 511.173V467.423C127.448 457.493 135.506 449.431 145.432 449.431H459.696C464.187 449.431 467.838 453.084 467.838 457.577V520.998C467.838 525.533 464.187 529.165 459.696 529.165Z" fill="#008CFF"/>
<g opacity="0.7">
<path d="M459.696 449.431H145.432C135.506 449.431 127.448 457.493 127.448 467.423V511.173C127.448 514.217 128.203 517.094 129.546 519.613C129.546 519.592 129.546 519.592 129.546 519.571V475.82C129.546 465.89 137.604 457.829 147.53 457.829H170.907C172.879 461.377 184.421 464.085 198.376 464.085C212.33 464.085 223.872 461.377 225.844 457.829H461.795C464.208 457.829 466.348 458.878 467.838 460.537V457.577C467.838 453.084 464.187 449.431 459.696 449.431Z" fill="white"/>
</g>
<path d="M163.184 449.326H150.363V529.186H163.184V449.326Z" fill="white"/>
<path d="M188.345 449.326H175.523V529.186H188.345V449.326Z" fill="white"/>
<g opacity="0.3">
<path d="M459.696 508.171H145.432C135.506 508.171 127.448 500.11 127.448 490.18V511.173C127.448 521.103 135.506 529.165 145.432 529.165H459.696C464.187 529.165 467.838 525.512 467.838 521.019V500.026C467.838 504.539 464.187 508.171 459.696 508.171Z" fill="#000072"/>
</g>
<path d="M459.696 533.364H145.432C133.198 533.364 123.251 523.413 123.251 511.173V467.423C123.251 455.183 133.198 445.232 145.432 445.232H459.696C466.495 445.232 472.035 450.775 472.035 457.577V520.998C472.035 527.821 466.495 533.364 459.696 533.364ZM145.432 453.63C137.835 453.63 131.645 459.823 131.645 467.423V511.173C131.645 518.773 137.835 524.966 145.432 524.966H459.696C461.879 524.966 463.641 523.203 463.641 521.019V457.598C463.641 455.414 461.879 453.651 459.696 453.651H145.432V453.63Z" fill="#000072"/>
<path d="M467.838 511.509H294.212C286.553 511.509 280.32 505.295 280.32 497.612V481.531C280.32 473.868 286.532 467.633 294.212 467.633H467.838V511.509Z" fill="white"/>
<g opacity="0.3">
<path d="M306.803 502.062C299.143 502.062 292.911 495.848 292.911 488.164V472.083C292.911 470.53 293.184 469.06 293.645 467.675C286.238 467.968 280.32 474.057 280.32 481.53V497.611C280.32 505.274 286.532 511.509 294.212 511.509H467.838V502.062H306.803Z" fill="#000072"/>
</g>
<path d="M467.838 515.372H294.212C284.433 515.372 276.48 507.415 276.48 497.632V481.551C276.48 471.768 284.433 463.812 294.212 463.812H467.838C469.958 463.812 471.678 465.533 471.678 467.654V511.509C471.678 513.651 469.958 515.372 467.838 515.372ZM294.212 471.495C288.672 471.495 284.181 476.009 284.181 481.53V497.611C284.181 503.154 288.693 507.646 294.212 507.646H463.998V471.474H294.212V471.495Z" fill="#000072"/>
<g opacity="0.4">
<path d="M425.702 480.628C429.206 480.187 432.731 479.977 436.236 479.83L446.77 479.473C450.275 479.347 453.8 479.284 457.304 479.2C460.809 479.116 464.334 479.074 467.839 479.053V482.202C464.334 482.181 460.809 482.139 457.304 482.055C453.8 481.971 450.275 481.908 446.77 481.782L436.236 481.426C432.731 481.279 429.227 481.069 425.702 480.628Z" fill="#000072"/>
<path d="M280.656 479.053C300.487 478.927 320.296 479.032 340.126 479.137L369.862 479.452C379.766 479.578 389.692 479.452 399.597 480.628C389.692 481.803 379.766 481.677 369.862 481.803L340.126 482.118C320.296 482.244 300.487 482.349 280.656 482.202V479.053Z" fill="#000072"/>
<path d="M364.909 490.117C373.492 488.962 382.054 489.004 390.636 488.899L416.363 488.605L442.09 488.479C450.673 488.458 459.235 488.479 467.817 488.563V491.712C459.235 491.796 450.673 491.796 442.09 491.796L416.363 491.67L390.636 491.376C382.075 491.229 373.492 491.271 364.909 490.117Z" fill="#000072"/>
<path d="M280.656 488.542C286.028 488.5 291.421 488.5 296.793 488.542L312.93 488.71L329.068 489.025C334.44 489.109 339.833 489.214 345.205 490.117C339.833 490.998 334.44 491.124 329.068 491.208L312.93 491.523L296.793 491.691C291.421 491.733 286.028 491.733 280.656 491.691V488.542Z" fill="#000072"/>
<path d="M416.384 499.585C420.665 498.955 424.967 498.682 429.248 498.514L442.111 498.199C446.392 498.073 450.694 498.052 454.975 498.01C457.115 497.968 459.256 497.968 461.417 497.989C463.558 497.989 465.698 497.989 467.859 498.031V501.18C465.719 501.222 463.579 501.222 461.417 501.222C459.277 501.243 457.136 501.222 454.975 501.201C450.694 501.138 446.392 501.138 442.111 501.012L429.248 500.698C424.946 500.488 420.665 500.215 416.384 499.585Z" fill="#000072"/>
<path d="M280.656 498.01L307.16 498.157L333.663 498.409L360.167 498.745C369.001 498.85 377.836 498.955 386.67 499.585C377.836 500.215 369.001 500.32 360.167 500.425L333.663 500.761L307.16 501.013L280.656 501.16V498.01Z" fill="#000072"/>
</g>
<path d="M135.59 608.899H449.855C459.78 608.899 467.838 600.837 467.838 590.907V547.157C467.838 537.227 459.78 529.165 449.855 529.165H135.59C131.099 529.165 127.448 532.818 127.448 537.311V600.732C127.427 605.267 131.078 608.899 135.59 608.899Z" fill="#FF0068"/>
<path d="M432.082 608.903H444.903V529.043H432.082V608.903Z" fill="#8E8FB3"/>
<path d="M406.919 608.903H419.741V529.043H406.919V608.903Z" fill="#8E8FB3"/>
<g opacity="0.3">
<path d="M135.59 587.905H449.855C459.78 587.905 467.838 579.844 467.838 569.914V590.907C467.838 600.837 459.78 608.899 449.855 608.899H135.59C131.099 608.899 127.448 605.246 127.448 600.753V579.76C127.427 584.273 131.078 587.905 135.59 587.905Z" fill="#000072"/>
</g>
<g opacity="0.7">
<path d="M135.59 529.165H449.855C459.78 529.165 467.838 537.227 467.838 547.157V590.907C467.838 593.951 467.083 596.827 465.74 599.347C465.74 599.326 465.74 599.326 465.74 599.305V555.554C465.74 545.624 457.682 537.562 447.756 537.562H424.379C422.407 541.11 410.865 543.819 396.911 543.819C382.956 543.819 371.414 541.11 369.442 537.562H133.491C131.078 537.562 128.938 538.612 127.448 540.271V537.311C127.427 532.818 131.078 529.165 135.59 529.165Z" fill="white"/>
</g>
<path d="M449.855 613.097H135.59C128.791 613.097 123.251 607.555 123.251 600.753V537.332C123.251 530.53 128.791 524.987 135.59 524.987H449.855C462.089 524.987 472.035 534.938 472.035 547.178V590.928C472.035 603.147 462.089 613.097 449.855 613.097ZM135.59 533.364C133.408 533.364 131.645 535.127 131.645 537.311V600.732C131.645 602.916 133.408 604.679 135.59 604.679H449.855C457.451 604.679 463.641 598.486 463.641 590.886V547.136C463.641 539.536 457.451 533.343 449.855 533.343H135.59V533.364Z" fill="#000072"/>
<path d="M127.427 591.243H301.053C308.712 591.243 314.945 585.029 314.945 577.345V561.264C314.945 553.602 308.733 547.366 301.053 547.366H127.427V591.243Z" fill="white"/>
<g opacity="0.3">
<path d="M288.462 581.796C296.122 581.796 302.354 575.582 302.354 567.898V551.817C302.354 550.263 302.081 548.794 301.62 547.408C309.027 547.702 314.945 553.79 314.945 561.264V577.345C314.945 585.008 308.733 591.243 301.053 591.243H127.427V581.796H288.462Z" fill="#000072"/>
</g>
<path d="M301.053 595.106H127.427C125.308 595.106 123.587 593.384 123.587 591.264V547.408C123.587 545.288 125.308 543.566 127.427 543.566H301.053C310.832 543.566 318.785 551.523 318.785 561.306V577.387C318.785 587.149 310.832 595.106 301.053 595.106ZM131.288 587.401H301.053C306.593 587.401 311.084 582.887 311.084 577.366V561.285C311.084 555.743 306.572 551.25 301.053 551.25H131.288V587.401Z" fill="#000072"/>
<g opacity="0.4">
<path d="M169.564 560.361C166.059 560.802 162.534 561.012 159.03 561.159L148.495 561.516C144.991 561.642 141.465 561.705 137.961 561.789C134.457 561.873 130.931 561.915 127.427 561.936V558.787C130.931 558.808 134.457 558.85 137.961 558.934C141.465 559.018 144.991 559.081 148.495 559.207L159.03 559.564C162.534 559.732 166.059 559.921 169.564 560.361Z" fill="#000072"/>
<path d="M314.609 561.936C294.779 562.062 274.969 561.957 255.139 561.852L225.404 561.537C215.499 561.411 205.573 561.537 195.668 560.361C205.573 559.186 215.499 559.312 225.404 559.186L255.139 558.871C274.969 558.745 294.779 558.64 314.609 558.787V561.936Z" fill="#000072"/>
<path d="M230.356 569.851C221.773 571.005 213.212 570.963 204.629 571.068L178.902 571.362L153.175 571.488C144.592 571.509 136.03 571.488 127.448 571.404V568.255C136.03 568.171 144.592 568.171 153.175 568.171L178.902 568.297L204.629 568.591C213.191 568.717 221.773 568.675 230.356 569.851Z" fill="#000072"/>
<path d="M314.609 571.425C309.237 571.467 303.844 571.467 298.472 571.425L282.335 571.257L266.198 570.942C260.826 570.858 255.433 570.753 250.061 569.851C255.433 568.969 260.826 568.843 266.198 568.759L282.335 568.444L298.472 568.276C303.844 568.234 309.237 568.234 314.609 568.276V571.425Z" fill="#000072"/>
<path d="M178.902 579.319C174.621 579.948 170.319 580.221 166.038 580.389L153.175 580.704C148.894 580.83 144.592 580.851 140.311 580.893C138.171 580.935 136.03 580.935 133.869 580.914C131.729 580.914 129.588 580.914 127.427 580.872V577.723C129.567 577.681 131.708 577.681 133.869 577.681C136.009 577.66 138.15 577.681 140.311 577.702C144.592 577.765 148.894 577.765 153.175 577.891L166.038 578.206C170.319 578.416 174.6 578.689 178.902 579.319Z" fill="#000072"/>
<path d="M314.609 580.893L288.106 580.746L261.602 580.494L235.099 580.158C226.264 580.053 217.43 579.948 208.595 579.319C217.43 578.689 226.264 578.605 235.099 578.479L261.602 578.143L288.106 577.891L314.609 577.744V580.893Z" fill="#000072"/>
</g>
<path d="M75.1965 607.324C79.8131 606.044 84.4297 605.372 89.0463 604.847C93.6629 604.322 98.2795 604.154 102.896 603.986C112.129 603.65 121.362 603.818 130.596 604.007C139.829 604.196 149.062 604.154 158.295 604.154H185.995H296.856H407.676H463.096H476.946C481.562 604.154 486.179 603.944 490.796 603.839C495.412 603.755 500.029 603.86 504.645 604.301C509.262 604.763 513.879 605.54 518.495 607.324C519.356 607.66 519.796 608.626 519.461 609.508C519.293 609.969 518.915 610.305 518.495 610.473C513.879 612.237 509.262 613.013 504.645 613.496C500.029 613.916 495.412 614.042 490.796 613.958C486.179 613.853 481.562 613.643 476.946 613.643H463.096H407.676H296.856H186.016H158.316C149.083 613.643 139.85 613.601 130.617 613.79C121.383 613.979 112.15 614.147 102.917 613.811C98.3005 613.664 93.6838 613.475 89.0672 612.95C84.4506 612.426 79.834 611.754 75.2174 610.473C74.3571 610.242 73.8325 609.34 74.0843 608.458C74.2102 607.891 74.6718 607.471 75.1965 607.324Z" fill="#000072"/>
</g>
<defs>
<clipPath id="clip0_242_1234">
<rect width="477" height="614" fill="white" transform="translate(74)"/>
</clipPath>
</defs>
</svg>
