<svg width="651" height="615" viewBox="0 0 651 615" fill="none" xmlns="http://www.w3.org/2000/svg">
<ellipse cx="313" cy="299.5" rx="313" ry="299.5" fill="#B0A2D7"/>
<path d="M45.4706 478.1C47.1004 483.592 48.9533 488.794 51.0295 493.75C92.3085 593.319 214.783 591.064 214.783 591.064L218.512 563.002C214.694 562.354 210.854 561.64 206.992 560.836C160.132 551.281 111.24 531.01 91.0359 493.348C81.8604 476.247 78.6009 456.266 79.9851 438.428C82.039 411.862 94.4293 390.072 113.071 389.804C124.881 389.648 126.376 403.333 126.555 406.861C127.493 427.489 135.82 439.21 154.528 437.29C160.377 436.687 167.075 431.597 171.406 423.225C176.876 412.688 178.55 396.926 170.044 378.329C137.606 307.425 5.2633 342.788 45.4706 478.1Z" fill="white"/>
<g opacity="0.25">
<path d="M80.0074 438.451C82.0613 411.884 94.4517 390.095 113.093 389.827C124.903 389.671 126.399 403.356 126.577 406.883C127.515 427.511 135.842 439.232 154.551 437.312C160.4 436.709 167.097 431.619 171.428 423.247C165.981 426.105 159.596 426.931 153.323 426.395C138.901 425.234 135.998 407.598 133.967 389.09C131.6 367.524 96.3493 366.073 86.2137 394.627C80.5655 410.5 79.5832 426.462 80.0074 438.451Z" fill="#000072"/>
</g>
<g opacity="0.25">
<path d="M51.0298 493.772C92.3087 593.341 214.784 591.087 214.784 591.087L218.512 563.024C214.694 562.377 210.854 561.662 206.992 560.859C188.998 565.033 151.224 568.717 103.382 544.963C82.1285 534.403 64.782 515.048 51.0298 493.772Z" fill="#000072"/>
</g>
<path d="M213.957 594.971C208.13 594.971 176.942 594.346 141.691 581.532C90.7233 563.024 56.1642 527.639 41.7646 479.216C31.5397 444.836 31.562 413.558 41.8092 388.755C50.6499 367.323 66.8802 351.272 87.4638 343.547C103.649 337.475 121.13 337.14 136.646 342.632C153.077 348.436 166.204 360.559 173.616 376.745C181.787 394.605 181.966 412.755 174.085 426.552C169.33 434.879 162.007 440.482 154.952 441.197C146.045 442.112 138.811 440.214 133.409 435.571C126.89 429.945 123.295 420.368 122.693 407.084C122.559 403.936 121.442 393.734 113.294 393.734C113.249 393.734 113.205 393.734 113.16 393.734C103.047 393.868 96.4162 401.548 92.6433 407.955C81.7487 426.462 78.6901 462.048 94.4962 491.54C118.362 536.033 182.859 553.023 219.204 559.207C221.325 559.564 222.731 561.573 222.374 563.694C222.017 565.815 220.007 567.221 217.886 566.864C180.157 560.457 113.071 542.619 87.6424 495.223C72.5731 467.138 71.8587 427.936 85.9234 404.026C92.6879 392.528 102.31 386.121 113.026 385.965C113.115 385.965 113.205 385.965 113.294 385.965C125.238 385.965 129.993 397.105 130.439 406.727C130.953 417.8 133.654 425.525 138.476 429.699C142.227 432.937 147.362 434.164 154.149 433.472C158.681 433.003 163.838 428.784 167.32 422.689C170.446 417.22 176.652 402.083 166.539 379.982C151.715 347.588 116.888 340.801 90.1652 350.825C57.593 363.059 27.3203 403.445 49.1988 477.006C63.0403 523.554 94.965 556.26 144.102 574.164C181.05 587.626 214.404 587.202 214.739 587.202C214.761 587.202 214.783 587.202 214.806 587.202C216.927 587.202 218.646 588.899 218.69 591.02C218.735 593.163 217.016 594.927 214.873 594.971C214.761 594.949 214.448 594.971 213.957 594.971Z" fill="#000072"/>
<path d="M384.989 324.526L383.092 340.533L382.98 341.471L378.493 379.156L377.243 389.648L374.988 408.669L361.124 524.983L351.591 604.951H232.465C218.289 604.951 193.82 600.91 189.043 596.735C184.288 592.583 182.591 585.841 178.304 581.063C161.784 562.734 156.895 543.825 158.636 524.38V524.357C160.779 500.604 172.857 476.002 185.828 450.506C195.093 432.267 203.867 413.224 211.569 395.631C213.824 390.497 215.989 385.451 218.043 380.629C219.851 376.32 221.615 372.168 223.245 368.172C227.71 357.366 231.505 347.878 234.363 340.556C238.269 330.554 240.502 324.549 240.502 324.549H384.989V324.526Z" fill="white"/>
<g opacity="0.25">
<path d="M255.214 528.309V604.951H351.547L361.08 524.983L326.61 517.772C326.61 517.772 315.648 525.63 306.473 525.183C294.573 524.603 282.808 517.303 282.808 517.303L255.214 528.309Z" fill="#000072"/>
</g>
<path d="M355.007 608.835H232.443C220.275 608.835 192.905 605.263 186.475 599.659C183.35 596.914 181.452 593.498 179.622 590.171C178.282 587.76 177.032 585.483 175.402 583.675C157.989 564.319 151.492 542.619 155.6 517.28C159.105 495.647 169.776 473.434 182.345 448.742C211.725 390.943 236.595 323.856 236.863 323.187L237.801 320.642H389.387L355.007 608.835ZM243.181 328.411C238.336 341.27 215.609 400.431 189.266 452.247C167.655 494.732 145.33 538.668 181.184 578.473C183.417 580.951 184.957 583.742 186.431 586.421C188.016 589.278 189.489 591.957 191.588 593.788C194.87 596.646 217.373 601.044 232.443 601.044H348.108L380.614 328.388H243.181V328.411Z" fill="#000072"/>
<path d="M202.125 564.9C224.562 562.422 250.503 566.663 253.874 577.96C257.089 588.81 264.099 610.577 210.832 602.986" fill="white"/>
<path d="M201.902 563.069C212.038 561.417 222.441 561.082 232.822 562.623C235.412 563.002 238.024 563.56 240.591 564.275C243.181 565.011 245.771 565.904 248.294 567.244C250.794 568.583 253.339 570.28 255.371 572.981C255.862 573.651 256.331 574.388 256.71 575.192C256.911 575.593 257.067 575.995 257.224 576.419L257.424 577.022L257.558 577.469C257.938 578.674 258.317 579.947 258.675 581.264C259.367 583.876 259.925 586.689 259.903 589.747C259.88 591.266 259.724 592.873 259.277 594.458C258.853 596.043 258.161 597.628 257.224 599.035C256.286 600.441 255.125 601.691 253.852 602.696C252.58 603.701 251.24 604.527 249.879 605.174C247.155 606.469 244.364 607.228 241.663 607.719C236.216 608.701 230.902 608.724 225.701 608.478C220.477 608.188 215.364 607.585 210.296 606.737C208.265 606.402 206.903 604.482 207.238 602.45C207.573 600.508 209.359 599.146 211.301 599.37H211.323C216.257 599.928 221.169 600.441 226.035 600.575C230.902 600.731 235.747 600.62 240.234 599.838C244.699 599.057 248.852 597.383 250.682 594.637C251.62 593.275 252.089 591.578 252.178 589.591C252.245 587.604 251.91 585.394 251.374 583.117C251.106 581.978 250.794 580.817 250.437 579.612L250.213 578.853C250.146 578.674 250.102 578.496 250.013 578.317C249.856 577.96 249.678 577.603 249.432 577.268C248.494 575.861 246.82 574.522 244.922 573.45C241.083 571.262 236.417 569.856 231.706 568.829C226.973 567.824 222.084 567.222 217.15 566.909C212.216 566.552 207.26 566.574 202.304 566.797H202.282C201.255 566.842 200.384 566.038 200.339 565.011C200.317 564.029 200.987 563.203 201.902 563.069Z" fill="#000072"/>
<g opacity="0.25">
<path d="M178.282 581.063C182.569 585.84 184.265 592.56 189.02 596.713C193.798 600.887 218.244 604.928 232.42 604.928H249.901L251.91 584.389C251.91 584.389 219.941 596.847 200.875 584.389C187.458 575.616 190.806 563.292 187.726 561.104C180.626 556.081 167.343 561.506 158.614 524.357C156.85 543.825 161.762 562.712 178.282 581.063Z" fill="#000072"/>
</g>
<path d="M405.283 478.636C401.845 530.162 365.209 585.751 365.768 586.756C366.169 587.493 372.845 591.891 373.983 597.115C374.407 598.99 374.095 600.977 372.599 602.942C363.066 615.265 335.473 611.224 325.181 604.951C323.752 604.08 322.658 603.187 321.988 602.249C311.071 587.18 318.081 536.145 322.368 517.303C322.703 515.807 323.038 514.535 323.328 513.485L273.588 413.38L272.985 412.152L296.136 397.306L309.107 388.979L340.585 340.578L350.988 324.571L355.61 317.449L379.788 280.278L388.695 317.449L392.937 335.109C392.937 335.109 393.294 337.073 393.875 340.578C394.924 346.918 396.732 358.327 398.652 372.414C399.121 375.785 399.568 379.29 400.014 382.951C400.729 388.666 401.421 394.649 402.068 400.811C404.859 426.753 406.801 455.775 405.283 478.636Z" fill="white"/>
<path d="M384.543 273.402C388.316 293.405 391.754 313.409 394.969 333.501C398.183 353.571 401.175 373.686 403.72 393.89C406.198 414.094 408.43 434.343 409.368 454.837C409.569 459.972 409.725 465.107 409.636 470.286C409.591 475.443 409.323 480.712 408.698 485.914C407.448 496.295 405.104 506.453 402.113 516.343C396.018 536.1 387.467 554.876 377.756 572.914C375.345 577.402 372.777 581.889 370.322 586.265C370.032 586.801 369.719 587.359 369.496 587.783C369.451 587.872 369.406 587.984 369.406 587.961L369.451 587.872C369.473 587.761 369.496 587.783 369.585 587.269C369.898 587.202 368.848 583.653 369.005 584.702C368.938 584.568 368.692 584.3 368.714 584.345C368.714 584.322 368.625 584.256 368.67 584.3L368.759 584.389L369.072 584.657C369.987 585.439 371.081 586.376 372.085 587.359C374.095 589.368 376.149 591.645 377.376 595.061C377.667 595.909 377.868 596.869 377.957 597.829C378.024 598.811 377.979 599.838 377.756 600.843C377.354 602.83 376.26 604.616 375.211 605.844C373.179 608.322 370.567 610.13 367.911 611.425C362.53 613.97 356.904 614.707 351.502 614.796C346.054 614.841 340.719 614.193 335.472 612.943C332.86 612.296 330.248 611.514 327.681 610.443C326.386 609.907 325.114 609.304 323.819 608.567C322.546 607.808 321.251 607.005 319.957 605.71C319.644 605.375 319.309 605.018 318.997 604.616C318.729 604.236 318.528 603.946 318.304 603.611C317.88 602.964 317.523 602.294 317.188 601.624C316.518 600.285 316.005 598.945 315.558 597.606C314.688 594.927 314.13 592.27 313.706 589.614C312.88 584.323 312.656 579.098 312.656 573.897C312.679 563.516 313.661 553.291 315.112 543.155C315.492 540.61 315.871 538.087 316.318 535.565C316.764 533.042 317.255 530.542 317.769 528.019C318.818 522.996 319.89 518.017 321.475 513.039C321.787 512.056 322.836 511.521 323.819 511.833C324.734 512.123 325.27 513.061 325.069 513.976V514.021C324.02 518.843 323.261 523.844 322.591 528.823C322.256 531.323 321.966 533.823 321.676 536.324C321.385 538.824 321.117 541.325 320.894 543.825C319.979 553.827 319.398 563.873 319.622 573.807C319.689 576.286 319.823 578.764 320.023 581.197C320.224 583.653 320.492 586.064 320.894 588.43C321.296 590.797 321.832 593.096 322.569 595.239C322.948 596.311 323.35 597.316 323.841 598.253C324.087 598.722 324.332 599.146 324.6 599.57L325.002 600.129C325.069 600.218 325.181 600.33 325.292 600.463C325.783 600.977 326.654 601.557 327.547 602.071C328.462 602.584 329.489 603.076 330.539 603.5C332.659 604.37 334.937 605.062 337.236 605.598C341.857 606.692 346.68 607.25 351.39 607.183C356.078 607.094 360.767 606.357 364.562 604.504C366.459 603.589 368.089 602.383 369.272 600.91L369.496 600.642L369.652 600.419C369.764 600.285 369.831 600.129 369.92 599.995C370.076 599.727 370.165 599.459 370.21 599.213C370.299 598.722 370.277 598.209 370.054 597.517C369.585 596.11 368.268 594.413 366.683 592.873C365.879 592.092 365.031 591.355 364.026 590.507L363.602 590.149L363.334 589.904C363.267 589.837 363.066 589.636 362.954 589.524C362.932 589.502 362.642 589.167 362.53 588.966C362.642 589.948 361.548 586.309 361.905 586.175C361.995 585.595 362.061 585.55 362.106 585.349L362.218 585.037C362.352 584.702 362.441 584.523 362.53 584.345C362.888 583.63 363.178 583.095 363.513 582.514C366.013 578.027 368.469 573.673 370.813 569.208C380.234 551.46 388.472 533.064 394.232 513.976C397.112 504.444 399.367 494.755 400.55 484.976C401.153 480.087 401.398 475.198 401.443 470.219C401.532 465.263 401.376 460.24 401.175 455.239C400.282 435.169 398.072 415.032 395.616 394.962C390.66 354.799 384.23 314.726 377.198 274.831V274.809C376.841 272.777 378.202 270.857 380.212 270.5C382.243 270.076 384.163 271.415 384.543 273.402Z" fill="#000072"/>
<path d="M215.944 458.32C216.145 527.371 243.65 585.371 243.069 586.354C242.489 587.336 230.098 594.547 235.59 602.249C245.86 616.693 280.173 610.71 286.201 603.589C296.046 591.98 294.863 529.47 291.447 514.958" fill="white"/>
<g opacity="0.25">
<path d="M235.591 602.249C245.86 616.716 280.174 610.711 286.201 603.589C294.886 593.342 294.997 543.579 292.564 521.969C290.934 552.71 282.92 582.76 277.874 593.677C274.659 600.664 250.325 604.549 234.452 596.289C233.939 598.186 234.117 600.196 235.591 602.249Z" fill="#000072"/>
</g>
<g opacity="0.25">
<path d="M321.966 602.227C322.636 603.142 323.73 604.058 325.159 604.928C335.45 611.224 363.044 615.242 372.577 602.919C374.095 600.954 374.385 598.967 373.961 597.092C358.11 604.281 335.294 600.419 332.191 593.676C327.168 582.759 323.975 548.022 322.346 517.28C318.082 536.123 311.049 587.18 321.966 602.227Z" fill="#000072"/>
</g>
<path d="M217.798 458.32C218.244 470.554 219.472 482.744 221.325 494.821C223.245 506.899 225.701 518.865 228.781 530.698C231.885 542.508 235.524 554.184 239.654 565.659C240.681 568.539 241.73 571.396 242.824 574.254L246.128 582.894L246.552 584.077C246.619 584.3 246.708 584.501 246.798 584.814C246.842 584.992 246.887 585.126 246.976 585.573C246.999 585.773 247.021 585.707 247.043 586.153C247.088 586.064 247.088 587.359 246.44 588.43C246.262 588.698 246.016 589.011 245.838 589.212C245.436 589.613 245.235 589.77 245.056 589.926L244.543 590.328L243.65 591.02C242.534 591.913 241.507 592.806 240.614 593.721C239.721 594.637 239.029 595.596 238.604 596.445C238.203 597.316 238.091 597.963 238.18 598.521C238.292 599.102 238.56 599.682 239.386 600.664C240.123 601.535 241.016 602.316 242.02 603.008C244.052 604.37 246.552 605.375 249.209 606.045C254.544 607.362 260.461 607.451 266.198 606.781C269.078 606.446 271.936 605.911 274.704 605.152C277.428 604.393 280.174 603.388 282.138 602.093C282.607 601.781 283.031 601.446 283.254 601.2C283.5 600.932 283.835 600.508 284.103 599.995C284.706 599.012 285.219 597.74 285.688 596.445C286.603 593.81 287.273 590.931 287.809 588.006C288.88 582.157 289.55 576.107 290.019 570.034C290.465 563.962 290.778 557.867 290.912 551.75C291.068 545.633 291.068 539.516 290.934 533.399C290.867 530.341 290.756 527.282 290.555 524.246C290.331 521.232 290.131 518.151 289.617 515.316V515.271C289.438 514.267 290.108 513.284 291.113 513.106C292.073 512.927 292.988 513.53 293.234 514.467C294.082 517.638 294.529 520.718 294.93 523.822C295.332 526.925 295.645 530.028 295.913 533.131C296.448 539.338 296.716 545.544 296.85 551.75C296.962 557.957 296.94 564.185 296.627 570.436C296.315 576.687 295.868 582.938 294.819 589.234C294.283 592.382 293.636 595.552 292.609 598.767C292.073 600.374 291.47 602.004 290.532 603.678C290.064 604.527 289.505 605.353 288.724 606.246C287.898 607.139 287.094 607.764 286.291 608.299C284.683 609.371 283.098 610.108 281.513 610.777C279.928 611.425 278.343 611.961 276.758 612.407C273.565 613.323 270.373 613.948 267.136 614.372C260.662 615.153 254.031 615.198 247.356 613.657C244.029 612.876 240.658 611.626 237.577 609.55C236.037 608.5 234.586 607.25 233.336 605.777C233.023 605.419 232.733 605.018 232.443 604.638C232.152 604.214 231.818 603.723 231.55 603.232C230.992 602.227 230.567 601.044 230.344 599.816C229.898 597.316 230.523 594.815 231.438 592.917C232.376 591.02 233.581 589.502 234.831 588.185C236.082 586.867 237.399 585.751 238.671 584.724L239.609 583.987L240.011 583.675C240.123 583.586 240.212 583.496 240.1 583.63C239.966 583.764 239.788 583.988 239.676 584.188C239.073 585.215 239.051 586.466 239.096 586.332C239.118 586.733 239.118 586.622 239.14 586.778C239.185 587.046 239.185 587.001 239.185 586.979L239.073 586.622L238.716 585.64C236.484 579.991 234.296 574.075 232.286 568.204C228.268 556.416 224.83 544.428 222.062 532.283C219.271 520.16 217.083 507.882 215.744 495.491C214.359 483.123 213.757 470.666 214.159 458.253C214.181 457.226 215.052 456.422 216.078 456.445C216.994 456.556 217.775 457.36 217.798 458.32Z" fill="#000072"/>
<path d="M264.345 588.475C262.604 588.184 260.796 588.006 259.01 587.916C257.224 587.827 255.438 587.849 253.696 587.961C251.955 588.05 250.236 588.318 248.584 588.653C246.932 588.988 245.369 589.524 243.896 590.104L243.851 590.127C241.931 590.886 239.743 589.948 238.984 588.028C238.225 586.108 239.163 583.92 241.083 583.161C241.373 583.05 241.685 582.96 241.998 582.916C244.096 582.648 246.15 582.514 248.137 582.625C250.147 582.737 252.089 582.938 254.009 583.317C255.906 583.675 257.782 584.143 259.59 584.724C261.421 585.304 263.162 585.929 264.926 586.733C265.394 586.934 265.595 587.492 265.394 587.961C265.216 588.363 264.792 588.564 264.39 588.497L264.345 588.475Z" fill="#000072"/>
<path d="M344.246 586.711C345.988 585.952 347.707 585.327 349.493 584.791C351.279 584.256 353.109 583.809 354.962 583.474C356.838 583.117 358.758 582.938 360.7 582.849C362.665 582.76 364.651 582.894 366.683 583.139C368.737 583.385 370.188 585.26 369.942 587.314C369.697 589.368 367.822 590.819 365.768 590.573C365.455 590.529 365.143 590.462 364.852 590.35L364.785 590.328C363.334 589.747 361.816 589.212 360.186 588.854C358.579 588.497 356.905 588.229 355.208 588.095C353.511 587.961 351.77 587.917 350.029 587.984C348.287 588.051 346.501 588.207 344.805 588.475H344.76C344.246 588.564 343.778 588.207 343.688 587.694C343.644 587.292 343.867 586.89 344.246 586.711Z" fill="#000072"/>
<g opacity="0.25">
<path d="M471.677 316.511C471.588 316.645 471.521 316.802 471.432 316.936L471.722 316.467C471.7 316.467 471.677 316.489 471.677 316.511Z" fill="#000072"/>
<path d="M400.036 382.906C392.379 385.496 384.788 387.751 377.243 389.648C349.649 396.614 322.77 399.025 296.113 397.261C269.971 395.564 244.096 389.872 218.043 380.584C219.851 376.276 221.615 372.123 223.245 368.127C227.71 357.322 231.505 347.834 234.363 340.511C238.269 330.509 240.502 324.504 240.502 324.504H351.011L355.632 317.382H388.718L392.959 335.041C392.959 335.041 393.317 337.006 393.897 340.511C394.946 346.851 396.755 358.259 398.675 372.346C399.121 375.74 399.568 379.245 400.036 382.906Z" fill="#000072"/>
</g>
<path d="M165.87 321.356C164.352 319.615 162.9 317.807 161.472 315.954L165.87 321.356Z" fill="white"/>
<path d="M465.181 322.763L469.601 317.405C468.195 319.235 466.699 321.021 465.181 322.763Z" fill="white"/>
<path d="M506.527 286.194C505.656 293.561 490.631 286.507 487.372 284.877C487.104 284.743 486.814 285.011 486.903 285.346C487.193 286.618 487.997 289.476 490.028 294.075C492.551 299.723 494.583 304.121 493.422 307.068C492.172 310.216 487.059 311.399 480.697 310.64C477.125 310.216 473.307 313.319 469.869 317.07L469.847 317.092L469.623 317.382C469.69 317.293 469.757 317.226 469.802 317.136C468.128 318.967 466.565 320.976 465.158 322.785C459.399 329.304 452.924 335.063 445.87 340.154C436.761 346.494 426.715 351.472 416.155 355.379V355.312C416.155 355.312 401.644 360.581 380.212 365.381C380.212 365.381 361.057 369.377 343.554 371.565C343.554 371.565 330.159 373.083 315.447 373.016C300.735 372.949 287.139 371.297 287.139 371.297C269.658 368.953 250.526 364.778 250.526 364.778C229.139 359.777 214.672 354.352 214.672 354.352V354.419C204.135 350.423 194.133 345.355 185.091 338.926C178.081 333.769 171.652 327.942 165.959 321.378C164.575 319.548 163.012 317.516 161.337 315.641C161.404 315.73 161.471 315.819 161.538 315.931L161.293 315.618C161.293 315.618 161.315 315.641 161.337 315.641C157.944 311.845 154.127 308.698 150.555 309.077C144.17 309.769 139.079 308.519 137.852 305.371C136.713 302.402 138.812 298.026 141.357 292.4C143.433 287.846 144.259 284.989 144.571 283.716C144.638 283.403 144.37 283.113 144.103 283.247C140.821 284.832 125.751 291.753 124.948 284.386C124.479 280.3 131.176 267.977 133.543 255.341C140.397 218.728 142.384 211.495 142.384 211.495C142.428 211.249 149.036 185.017 158.815 165.706C149.26 139.854 143.254 64.5738 159.551 48.9239C172.612 36.3773 221.392 63.078 239.654 81.697C267.471 70.2443 310.513 68.7039 316.786 68.7262C318.952 68.7262 325.471 68.9718 334.2 69.7532C350.877 71.2489 375.635 74.7316 393.785 82.4114C412.226 63.971 461.252 37.7168 474.2 50.3974C490.341 66.1812 483.644 141.416 473.821 167.179C479.893 179.436 484.67 194.438 487.349 203.904C488.935 209.418 489.805 213.035 489.828 213.124C489.828 213.124 491.725 220.38 498.244 257.06C500.454 269.718 507.018 282.109 506.527 286.194Z" fill="white"/>
<path d="M487.327 203.927C481.79 204.597 476.142 204.909 470.405 204.887C395.616 204.53 335.093 144.274 334.133 69.7982C350.81 71.294 375.568 74.7767 393.718 82.4565C412.159 64.016 461.184 37.7618 474.133 50.4424C490.274 66.2262 483.576 141.461 473.753 167.225C479.848 179.459 484.626 194.461 487.327 203.927Z" fill="#F8B666"/>
<path d="M506.526 286.194C505.656 293.561 490.653 286.507 487.372 284.877C487.104 284.743 486.836 285.033 486.903 285.346C487.171 286.507 487.863 289.029 489.559 292.958C489.693 293.316 489.85 293.695 490.028 294.075C490.519 295.213 491.011 296.285 491.457 297.312C491.658 297.758 491.837 298.183 491.993 298.607C492.328 299.41 492.64 300.192 492.886 300.928C492.953 301.152 493.042 301.375 493.109 301.576C493.779 303.741 494.002 305.594 493.422 307.068C493.288 307.38 493.131 307.693 492.931 307.961C492.819 308.095 492.73 308.229 492.596 308.363C492.551 308.43 492.484 308.497 492.417 308.541C492.238 308.72 492.015 308.899 491.792 309.055C491.189 309.479 490.452 309.858 489.582 310.126C489.425 310.171 489.269 310.238 489.113 310.283C486.858 310.908 483.934 311.019 480.696 310.64C478.799 310.417 476.857 311.176 474.914 312.515C474.267 312.962 473.619 313.453 472.972 314.011C472.548 314.368 472.146 314.77 471.722 315.15C471.097 315.752 470.494 316.4 469.891 317.047V317.069L469.869 317.092L469.824 317.136C469.445 317.538 469.087 317.94 468.73 318.364C468.686 318.409 468.641 318.476 468.574 318.521C467.77 319.458 466.989 320.418 466.252 321.356C465.895 321.825 465.515 322.294 465.181 322.74C463.729 324.37 462.256 325.955 460.738 327.473C459.979 328.254 459.197 328.991 458.416 329.75C456.853 331.246 455.246 332.675 453.594 334.081C451.116 336.18 448.548 338.189 445.892 340.087C443.034 342.073 440.11 343.926 437.096 345.645C431.068 349.084 424.728 352.053 418.142 354.553C417.494 354.799 416.825 355.044 416.177 355.29V355.223C416.177 355.223 401.666 360.492 380.234 365.291C380.234 365.291 361.079 369.288 343.576 371.475C343.576 371.475 330.181 372.994 315.447 372.927C300.735 372.86 287.139 371.208 287.139 371.208C269.658 368.863 250.526 364.689 250.526 364.689C229.138 359.688 214.672 354.263 214.672 354.263V354.352C213.355 353.861 212.037 353.325 210.743 352.789C208.8 351.986 206.858 351.16 204.96 350.267C203.688 349.686 202.438 349.083 201.187 348.458C199.312 347.521 197.459 346.538 195.651 345.534C192.012 343.48 188.485 341.27 185.091 338.859C183.327 337.564 181.631 336.247 179.934 334.862C178.26 333.501 176.63 332.072 175.023 330.621C171.83 327.696 168.794 324.593 165.959 321.311C164.574 319.503 163.034 317.494 161.382 315.641C161.382 315.663 161.404 315.685 161.427 315.73L161.27 315.551C157.877 311.778 154.082 308.631 150.51 309.032C150.219 309.055 149.952 309.099 149.661 309.122C149.059 309.166 148.456 309.211 147.875 309.211C146.134 309.256 144.527 309.122 143.12 308.832C141.892 308.586 140.821 308.206 139.95 307.693C139.615 307.492 139.303 307.269 139.012 307.023C138.878 306.912 138.744 306.778 138.633 306.644C138.499 306.51 138.387 306.376 138.298 306.22C138.097 305.929 137.941 305.639 137.807 305.304C136.668 302.335 138.767 297.982 141.334 292.333C141.468 292.043 141.58 291.775 141.714 291.507C141.758 291.418 141.803 291.329 141.825 291.239C143.544 287.31 144.259 284.81 144.549 283.649C144.616 283.336 144.348 283.068 144.08 283.18C140.798 284.788 125.729 291.686 124.925 284.319C124.456 280.233 131.154 267.91 133.52 255.274C140.374 218.639 142.361 211.428 142.361 211.428C142.406 211.182 149.014 184.95 158.792 165.639C149.215 139.787 143.232 64.5068 159.507 48.8793C172.567 36.3103 221.347 63.0333 239.609 81.6524C267.426 70.1773 310.468 68.6369 316.742 68.6816C318.907 68.6816 325.426 68.9271 334.155 69.7085C350.832 71.2043 375.59 74.687 393.741 82.3668C412.181 63.9263 461.207 37.6721 474.155 50.3527C490.296 66.1365 483.599 141.372 473.798 167.135C479.87 179.391 484.648 194.394 487.327 203.859C488.912 209.374 489.783 212.99 489.805 213.08C489.805 213.08 491.703 220.335 498.222 257.015C500.432 269.718 507.018 282.109 506.526 286.194Z" fill="white"/>
<path d="M487.327 203.927C481.79 204.597 476.142 204.909 470.405 204.887C395.616 204.53 335.093 144.274 334.133 69.7982C350.81 71.294 375.568 74.7767 393.718 82.4565C412.159 64.016 461.184 37.7618 474.133 50.4424C490.274 66.2262 483.576 141.461 473.753 167.225C479.848 179.459 484.626 194.461 487.327 203.927Z" fill="#FFA502"/>
<g opacity="0.35">
<path d="M477.772 55.6664C460.85 47.7633 414.481 73.1245 396.353 91.2747C377.555 83.3047 351.971 79.6657 334.49 78.0583C334.289 75.3124 334.155 72.5664 334.133 69.7757C350.787 71.2715 375.568 74.7542 393.718 82.434C412.159 63.9936 461.184 37.7394 474.133 50.42C475.517 51.7595 476.723 53.5455 477.772 55.6664Z" fill="white"/>
</g>
<g opacity="0.25">
<path d="M161.516 315.976L165.869 321.356C164.374 319.615 162.923 317.829 161.516 315.976Z" fill="#000072"/>
<path d="M465.181 322.74L469.579 317.404C468.172 319.257 466.699 321.021 465.181 322.74Z" fill="#000072"/>
<g opacity="0.7">
<path d="M493.422 307.046C493.288 307.358 493.132 307.648 492.931 307.939C492.819 308.073 492.73 308.207 492.596 308.341C492.551 308.408 492.484 308.475 492.417 308.519C492.239 308.698 492.015 308.876 491.792 309.033C491.189 309.457 490.453 309.836 489.582 310.104C489.426 310.149 489.269 310.216 489.113 310.261C486.858 310.886 483.934 310.997 480.696 310.618C478.821 310.394 476.857 311.176 474.914 312.493C474.267 312.94 473.619 313.431 472.972 313.989C472.548 314.346 472.146 314.748 471.722 315.127C471.097 315.73 470.494 316.378 469.891 317.025L469.802 317.114C469.78 317.137 469.78 317.137 469.757 317.159C469.4 317.538 469.043 317.94 468.708 318.342C468.663 318.387 468.619 318.454 468.552 318.498C467.748 319.436 466.967 320.396 466.23 321.334C465.873 321.803 465.493 322.271 465.158 322.718C463.707 324.348 462.234 325.933 460.716 327.451C459.957 328.232 459.175 328.969 458.394 329.728C456.831 331.201 455.224 332.652 453.572 334.059C451.094 336.158 448.526 338.167 445.869 340.064C443.012 342.051 440.087 343.904 437.073 345.623C431.046 349.061 424.705 352.031 418.12 354.531C417.472 354.777 416.802 355.022 416.155 355.268V355.201C416.155 355.201 401.644 360.469 380.212 365.269C380.212 365.269 361.057 369.265 343.554 371.453C343.554 371.453 330.159 372.971 315.425 372.904C300.712 372.837 287.116 371.185 287.116 371.185C269.636 368.841 250.503 364.667 250.503 364.667C229.116 359.666 214.649 354.241 214.649 354.241V354.308C213.332 353.817 212.015 353.303 210.72 352.767C208.778 351.964 206.836 351.138 204.938 350.245C203.666 349.664 202.415 349.061 201.165 348.436C199.29 347.499 197.437 346.516 195.629 345.512C191.99 343.458 188.462 341.248 185.069 338.837C183.305 337.542 181.608 336.224 179.912 334.84C178.237 333.456 176.608 332.05 175 330.599C171.808 327.674 168.772 324.571 165.936 321.289C164.552 319.481 163.012 317.471 161.36 315.619C161.36 315.596 161.337 315.574 161.315 315.552L161.293 315.529C157.899 311.756 154.104 308.608 150.532 309.01C150.242 309.033 149.974 309.077 149.684 309.1C147.25 309.301 144.995 309.211 143.142 308.809C141.915 308.564 140.843 308.184 139.972 307.671C139.637 307.47 139.325 307.247 139.035 307.001C138.901 306.889 138.767 306.755 138.655 306.622C138.521 306.488 138.41 306.354 138.32 306.197C138.119 305.907 137.963 305.617 137.829 305.282C136.691 302.313 138.789 297.959 141.356 292.311C141.49 292.021 141.624 291.753 141.736 291.485C141.781 291.396 141.825 291.307 141.848 291.217C144.125 291.954 147.183 292.155 150.621 291.775C154.193 291.396 158.011 294.544 161.404 298.339C163.079 300.214 164.664 302.246 166.048 304.076C171.718 310.64 178.17 316.467 185.18 321.624C194.244 328.054 204.224 333.121 214.761 337.117V337.051C214.761 337.051 229.228 342.453 250.615 347.476C250.615 347.476 269.725 351.651 287.228 353.995C287.228 353.995 300.846 355.647 315.558 355.714C330.271 355.781 343.666 354.263 343.666 354.263C361.168 352.075 380.323 348.079 380.323 348.079C401.755 343.279 416.267 338.01 416.267 338.01V338.077C426.849 334.193 436.895 329.192 446.003 322.874C453.058 317.784 459.555 312.002 465.292 305.505C466.699 303.675 468.284 301.665 469.98 299.812C473.396 296.062 477.258 292.936 480.83 293.36C484.246 293.762 487.305 293.606 489.604 292.869C489.738 293.227 489.894 293.606 490.073 293.986C490.564 295.124 491.055 296.196 491.502 297.223C491.68 297.669 491.881 298.093 492.038 298.518C492.372 299.321 492.685 300.103 492.931 300.839C492.998 301.063 493.087 301.286 493.154 301.487C493.779 303.742 494.002 305.572 493.422 307.046Z" fill="#000072"/>
</g>
</g>
<path d="M195.339 114.716C182.435 127.687 174.286 145.859 173.148 143.716C173.036 143.515 172.924 143.27 172.813 142.979C170.402 137.019 166.428 113.376 166.539 92.3462C166.562 88.9528 166.673 85.9613 166.874 83.3046C167.388 76.1829 168.482 71.6063 169.799 68.6817C171.451 65.1097 175.112 64.0381 178.349 65.2437C186.944 68.4808 211.368 83.8404 219.293 93.6634C220.7 95.4271 208.243 101.745 195.339 114.716Z" fill="#EE7E80"/>
<path d="M195.338 114.716C182.434 127.687 174.286 145.859 173.147 143.716C173.036 143.515 172.924 143.27 172.812 142.979C175.715 131.951 183.662 116.725 189.757 105.719C198.084 90.6942 186.765 78.661 176.898 75.0443C173.527 73.7941 169.486 79.0628 166.852 83.3046C167.365 76.1829 168.459 71.6063 169.776 68.6817C171.428 65.1097 175.089 64.0381 178.327 65.2437C186.922 68.4808 211.345 83.8404 219.271 93.6634C220.699 95.4271 208.242 101.745 195.338 114.716Z" fill="#EA5C66"/>
<path d="M173.46 147.779C173.393 147.779 173.326 147.779 173.237 147.779C171.741 147.712 170.424 146.886 169.71 145.547C166.83 140.166 162.521 114.18 162.655 92.3237C162.722 80.5361 163.905 72.2759 166.272 67.0741C168.66 61.8724 174.309 59.5953 179.711 61.6268C188.53 64.9533 213.824 80.737 222.307 91.2298C223.066 92.1674 223.401 93.3283 223.245 94.5339C222.91 97.1459 220.767 98.7756 215.52 102.705C210.899 106.165 204.581 110.92 198.085 117.462C190.941 124.65 185.225 133.625 181.453 139.541C177.613 145.636 176.228 147.779 173.46 147.779ZM175.76 68.6815C174.956 68.6815 173.951 68.9941 173.349 70.3113C172.054 73.1242 170.513 79.2636 170.446 92.3684C170.357 108.599 172.768 126.235 174.777 135.59C174.822 135.523 174.867 135.456 174.911 135.366C178.863 129.138 184.846 119.761 192.593 111.97C199.491 105.027 206.345 99.8919 210.877 96.4762C212.038 95.6055 213.288 94.6455 214.27 93.8865C205.206 84.6439 184.132 71.5838 176.988 68.9048C176.809 68.8378 176.34 68.6815 175.76 68.6815Z" fill="#000072"/>
<path d="M436.649 115.854C449.419 128.937 457.412 147.199 458.572 145.078C458.684 144.877 458.796 144.631 458.907 144.341C461.385 138.403 465.56 114.805 465.649 93.7526C465.649 90.3592 465.582 87.3677 465.404 84.711C464.957 77.567 463.908 72.9904 462.613 70.0658C461.006 66.4715 457.345 65.3776 454.107 66.5608C445.468 69.7309 420.932 84.845 412.895 94.5787C411.467 96.32 423.857 102.772 436.649 115.854Z" fill="#EE7E80"/>
<path d="M436.649 115.854C449.419 128.937 457.412 147.199 458.572 145.078C458.684 144.877 458.796 144.631 458.907 144.341C456.094 133.29 448.303 117.975 442.32 106.924C434.149 91.8104 445.579 79.8888 455.469 76.3614C458.863 75.1559 462.837 80.4469 465.426 84.711C464.98 77.567 463.93 72.9904 462.636 70.0658C461.028 66.4715 457.367 65.3776 454.13 66.5608C445.49 69.7309 420.955 84.845 412.918 94.5787C411.467 96.32 423.857 102.772 436.649 115.854Z" fill="#EA5C66"/>
<path d="M458.26 149.119C455.447 149.119 454.108 146.976 450.268 140.814C446.54 134.853 440.936 125.811 433.859 118.578C427.429 111.97 421.134 107.17 416.557 103.665C411.355 99.6913 409.212 98.0392 408.922 95.4272C408.788 94.2216 409.123 93.0607 409.904 92.1231C418.477 81.7196 443.905 66.1591 452.768 62.922C458.193 60.9351 463.819 63.2792 466.163 68.5032C468.485 73.7273 469.579 81.9875 469.534 93.7975C469.445 115.654 464.891 141.595 461.966 146.953C461.229 148.27 459.912 149.096 458.439 149.141C458.372 149.119 458.327 149.119 458.26 149.119ZM417.897 94.8467C418.879 95.6281 420.107 96.5881 421.268 97.4811C425.777 100.919 432.564 106.143 439.395 113.131C447.053 120.989 452.947 130.433 456.854 136.684C456.898 136.751 456.943 136.84 456.988 136.907C459.086 127.575 461.676 109.961 461.743 93.7305C461.787 80.6257 460.292 74.4863 459.041 71.651C458.26 69.9097 456.653 69.7534 455.425 70.2222C448.236 72.8343 427.05 85.6935 417.897 94.8467Z" fill="#000072"/>
<path d="M278.231 371.855C272.65 371.878 267.091 371.409 261.554 370.65C258.786 370.248 256.04 369.801 253.272 369.199L251.195 368.752L249.186 368.283L245.212 367.413C242.511 366.81 239.81 366.162 237.131 365.47C234.452 364.801 231.773 364.042 229.116 363.26C223.78 361.653 218.556 359.978 213.288 357.813L218.311 354.352V354.419L218.288 359.777L213.288 357.88C203.799 354.286 194.579 349.754 186.029 344.105C184.957 343.413 183.908 342.654 182.836 341.917C181.787 341.136 180.76 340.377 179.755 339.573C177.746 337.988 175.782 336.359 173.862 334.662C171.942 332.965 170.089 331.201 168.28 329.393C167.365 328.478 166.494 327.562 165.624 326.625L164.329 325.196L163.681 324.482L163.369 324.124L163.213 323.946L163.123 323.857L163.079 323.812L163.235 323.99C163.302 324.057 163.391 324.124 163.458 324.191C163.614 324.325 163.793 324.437 163.972 324.549L163.034 323.767L158.256 317.851L158.413 318.052L158.368 318.03L164.061 313.252L168.727 319.034L162.878 323.611C160.958 321.088 159.038 318.655 156.984 316.579C155.957 315.552 154.885 314.614 153.858 313.922C152.832 313.23 151.805 312.828 151.179 312.761C151.09 312.761 151.046 312.783 150.956 312.783H150.845H150.778L150.621 312.806C150.175 312.85 149.728 312.895 149.282 312.917C148.389 312.962 147.474 313.007 146.536 312.984C144.683 312.94 142.785 312.761 140.731 312.158C139.727 311.868 138.655 311.422 137.606 310.752C136.557 310.082 135.463 309.1 134.704 307.738C133.922 306.354 133.677 304.88 133.677 303.63C133.677 302.38 133.878 301.308 134.123 300.326C134.614 298.361 135.284 296.754 135.954 295.191C136.624 293.628 137.316 292.155 137.963 290.704C138.588 289.297 139.191 287.869 139.704 286.462C139.972 285.748 140.218 285.056 140.419 284.364L140.709 283.337L140.776 283.091L140.798 282.979L140.821 282.912L140.776 283.113C140.754 283.203 140.754 283.292 140.731 283.381C140.664 284.096 140.843 284.922 141.356 285.614C141.624 285.971 141.959 286.284 142.406 286.551C142.852 286.819 143.433 286.976 144.013 286.998C144.594 287.02 145.174 286.864 145.576 286.663L145.42 286.73L145.129 286.864L144.549 287.132L143.388 287.668C142.607 288.003 141.825 288.337 141.022 288.672C139.437 289.297 137.807 289.9 136.11 290.391C134.391 290.883 132.627 291.307 130.596 291.463C129.569 291.53 128.475 291.53 127.225 291.307C125.997 291.083 124.456 290.548 123.139 289.275C122.827 288.963 122.536 288.605 122.269 288.248C122.045 287.891 121.822 287.489 121.643 287.11C121.51 286.73 121.353 286.351 121.264 285.971C121.197 285.614 121.13 285.257 121.063 284.899C120.951 283.337 121.175 282.198 121.376 281.283C121.822 279.385 122.358 277.778 122.916 276.215C124.032 273.067 125.171 270.098 126.22 267.106C127.269 264.115 128.207 261.146 128.944 258.176C129.122 257.44 129.301 256.681 129.457 255.944L129.68 254.828L129.904 253.644L130.797 248.867C132.002 242.504 133.23 236.164 134.48 229.801L136.423 220.269L137.45 215.491L137.985 213.102C138.164 212.276 138.343 211.539 138.588 210.602L138.521 210.87L138.767 209.91L138.968 209.151L139.37 207.655L140.196 204.686C140.754 202.699 141.334 200.734 141.937 198.77C143.142 194.84 144.415 190.933 145.777 187.049C148.5 179.28 151.559 171.6 155.31 164.121L155.131 167.09C153.546 162.715 152.407 158.339 151.425 153.963C150.443 149.588 149.639 145.19 148.947 140.792C147.563 131.995 146.625 123.155 146.067 114.292C145.509 105.429 145.286 96.5211 145.665 87.5911C146.045 78.6611 146.848 69.6864 149.304 60.6894C149.46 60.1313 149.594 59.5732 149.795 59.0151L150.376 57.3407C150.733 56.2244 151.224 55.1082 151.715 53.9919C151.939 53.4338 152.229 52.8757 152.519 52.3399C152.809 51.7817 153.099 51.2459 153.412 50.6878C154.171 49.6162 154.774 48.5 155.756 47.4953L156.448 46.7363L156.805 46.3568L157.252 45.9996L158.145 45.2852C158.435 45.0396 158.748 44.8163 159.083 44.6601C159.73 44.3252 160.377 43.901 161.025 43.6554C161.672 43.4099 162.342 43.142 163.012 42.9411C165.668 42.2043 168.236 42.0927 170.692 42.1597C175.603 42.3829 180.157 43.4322 184.533 44.7717C188.909 46.1112 193.128 47.7632 197.258 49.5939C205.496 53.2775 213.31 57.6309 220.856 62.4977C224.606 64.9312 228.29 67.4985 231.862 70.2668C235.434 73.0351 238.894 75.9597 242.154 79.2415L238.091 78.4155C244.409 75.8481 250.861 73.9505 257.357 72.3654C263.854 70.758 270.395 69.5748 276.959 68.5701C283.522 67.5878 290.108 66.8065 296.694 66.226C299.998 65.9581 303.302 65.6902 306.606 65.5116C309.933 65.333 313.192 65.1768 316.652 65.1544C320.113 65.1991 323.372 65.3777 326.699 65.6009C330.003 65.8242 333.307 66.0921 336.611 66.4046C343.197 67.0297 349.783 67.8781 356.324 68.9273C362.887 69.9989 369.406 71.2268 375.903 72.9012C382.377 74.5532 388.829 76.5178 395.102 79.1522L391.017 79.9559C394.321 76.6964 397.804 73.7942 401.398 71.0706C404.992 68.3469 408.698 65.8018 412.471 63.4131C420.039 58.6132 427.92 54.3491 436.18 50.7325C440.311 48.9465 444.552 47.3167 448.95 46.0219C453.348 44.727 457.903 43.7224 462.814 43.5438C465.27 43.4992 467.837 43.6331 470.494 44.4145C471.164 44.6154 471.811 44.8833 472.481 45.1512C473.128 45.3968 473.776 45.821 474.423 46.1782C474.758 46.3568 475.048 46.58 475.338 46.8256L476.231 47.54L476.656 47.9195L477.013 48.2991L477.683 49.0581C478.665 50.0627 479.268 51.179 480.004 52.2729C480.317 52.831 480.585 53.3668 480.875 53.9249C481.165 54.4831 481.456 55.0412 481.679 55.5993C482.148 56.7156 482.639 57.8318 482.974 58.9704L483.532 60.6671C483.71 61.2252 483.844 61.7834 484.001 62.3638C486.367 71.3608 487.081 80.3577 487.394 89.2877C487.684 98.2177 487.372 107.125 486.724 115.988C486.077 124.851 485.05 133.67 483.599 142.466C482.884 146.864 482.036 151.24 481.009 155.615C479.982 159.991 478.799 164.344 477.169 168.72L477.035 165.751C480.719 173.274 483.688 180.977 486.345 188.768C487.662 192.675 488.912 196.582 490.073 200.533C490.653 202.498 491.212 204.485 491.77 206.472L492.573 209.463L492.953 210.959L493.154 211.718L493.377 212.678L493.31 212.41C493.533 213.348 493.712 214.084 493.891 214.911L494.404 217.322L495.386 222.099L497.239 231.654C498.445 238.017 499.606 244.38 500.744 250.764L501.593 255.542L501.816 256.725L502.039 257.841C502.173 258.578 502.352 259.337 502.53 260.074C503.245 263.066 504.16 266.035 505.165 269.049C506.169 272.04 507.286 275.032 508.379 278.18C508.915 279.765 509.451 281.35 509.875 283.27C510.076 284.207 510.277 285.324 510.143 286.886C510.076 287.244 510.009 287.601 509.942 287.958C509.831 288.337 509.697 288.717 509.54 289.097C509.362 289.476 509.139 289.878 508.915 290.235C508.647 290.592 508.357 290.949 508.045 291.262C506.727 292.512 505.187 293.026 503.937 293.249C502.687 293.472 501.593 293.45 500.566 293.361C498.534 293.182 496.77 292.735 495.074 292.222C493.377 291.709 491.747 291.106 490.162 290.458C489.381 290.123 488.6 289.789 487.818 289.431L486.657 288.896L486.077 288.628L485.787 288.494L485.653 288.427C486.054 288.628 486.613 288.784 487.215 288.784C487.796 288.784 488.376 288.605 488.823 288.36C489.269 288.114 489.626 287.779 489.894 287.422C490.408 286.73 490.609 285.904 490.542 285.19C490.542 285.1 490.519 285.011 490.519 284.922L490.475 284.721L490.497 284.788L490.519 284.899L490.586 285.145L490.877 286.172C491.078 286.864 491.323 287.578 491.569 288.293C492.082 289.699 492.663 291.128 493.288 292.557C493.935 294.008 494.605 295.504 495.252 297.067C495.9 298.652 496.547 300.259 497.016 302.224C497.239 303.206 497.44 304.278 497.418 305.528C497.396 306.778 497.15 308.251 496.346 309.636C495.565 310.997 494.471 311.957 493.399 312.627C492.328 313.297 491.256 313.721 490.252 314.011C488.198 314.614 486.3 314.748 484.447 314.793C483.509 314.815 482.616 314.77 481.701 314.703C481.255 314.681 480.808 314.614 480.362 314.569L480.205 314.547H480.138H480.027C479.96 314.547 479.893 314.525 479.803 314.525C479.178 314.569 478.151 314.971 477.124 315.663C476.075 316.355 475.004 317.271 473.977 318.275C471.9 320.329 469.958 322.74 468.016 325.263L462.211 320.642L466.944 314.904L472.593 319.726L472.548 319.749L472.726 319.548L467.904 325.419L466.944 326.201C467.123 326.111 467.301 325.977 467.458 325.843C467.547 325.776 467.614 325.71 467.681 325.643L467.837 325.464L467.793 325.509L467.703 325.598L467.547 325.776L467.235 326.134L466.587 326.848L465.27 328.255C464.377 329.192 463.506 330.108 462.591 331.001C460.76 332.809 458.885 334.55 456.965 336.225C455.023 337.899 453.058 339.529 451.027 341.069C450.022 341.85 448.995 342.61 447.923 343.369C446.852 344.105 445.78 344.842 444.709 345.534C436.113 351.115 426.849 355.536 417.316 359.063L412.293 360.916L412.315 355.558V355.536V355.491L417.293 358.996C412.672 360.871 408.118 362.367 403.452 363.751C401.13 364.443 398.786 365.069 396.442 365.694C394.098 366.296 391.731 366.877 389.365 367.413C386.998 367.926 384.632 368.44 382.221 368.908C379.765 369.422 377.443 369.757 375.032 370.069C372.643 370.404 370.232 370.672 367.821 370.851C365.388 371.029 362.954 371.163 360.454 371.074C359.405 371.029 358.601 370.159 358.646 369.132C358.668 368.328 359.204 367.658 359.918 367.413L359.963 367.39C364.473 365.895 369.094 364.533 373.715 363.327C375.992 362.702 378.403 362.166 380.614 361.586C382.891 361.005 385.19 360.38 387.467 359.755C389.767 359.152 392.044 358.527 394.343 357.88C396.621 357.255 398.92 356.607 401.197 355.938C405.751 354.643 410.35 353.281 414.771 351.986L419.794 350.513L419.772 355.513V355.558V355.58L414.771 352.075C423.857 348.727 432.608 344.529 440.668 339.305C441.672 338.658 442.655 337.988 443.637 337.319C444.597 336.626 445.557 335.912 446.517 335.175C448.437 333.702 450.29 332.184 452.098 330.621C453.906 329.036 455.67 327.406 457.367 325.732C458.215 324.883 459.064 324.035 459.89 323.164L461.117 321.847L461.72 321.178L462.01 320.843L462.167 320.686L462.234 320.597L462.278 320.552L462.457 320.352C462.546 320.262 462.613 320.195 462.703 320.128C462.881 319.972 463.06 319.838 463.261 319.726L462.301 320.508L466.788 315.06L466.967 314.86L467.011 314.837L472.659 319.659L467.927 325.397L462.122 320.776C464.131 318.164 466.23 315.529 468.753 313.029C470.025 311.779 471.409 310.573 473.061 309.479C474.713 308.408 476.723 307.381 479.312 307.157C479.625 307.135 479.982 307.157 480.317 307.157L480.808 307.18L481.054 307.202L481.188 307.224C481.545 307.247 481.902 307.291 482.259 307.314C482.974 307.358 483.666 307.403 484.358 307.381C485.72 307.358 487.081 307.224 488.131 306.912C489.225 306.622 489.85 306.064 489.872 305.974C489.894 305.952 489.961 305.796 489.961 305.438C489.961 305.081 489.894 304.545 489.76 303.943C489.493 302.759 488.934 301.353 488.354 299.946C487.773 298.518 487.104 297.067 486.434 295.571C485.764 294.03 485.117 292.468 484.536 290.838C484.246 290.034 483.978 289.208 483.71 288.337C483.576 287.913 483.465 287.467 483.353 287.02L483.264 286.685L483.219 286.507L483.197 286.418L483.152 286.15C483.13 286.038 483.13 285.926 483.108 285.815C483.041 284.899 483.264 283.872 483.911 283.024C484.224 282.6 484.648 282.198 485.206 281.908C485.742 281.595 486.412 281.417 487.104 281.394C487.796 281.372 488.466 281.573 488.957 281.819L489.091 281.886L489.336 282.019L489.85 282.265L490.899 282.756C491.591 283.069 492.305 283.381 492.998 283.672C494.404 284.252 495.81 284.765 497.217 285.19C498.601 285.614 499.985 285.926 501.191 286.038C501.771 286.083 502.307 286.06 502.642 286.016C502.999 285.949 503.021 285.859 502.888 285.993C502.731 286.15 502.731 286.306 502.776 286.06C502.754 286.016 502.776 285.525 502.597 284.877C502.329 283.627 501.861 282.153 501.347 280.68C500.32 277.711 499.182 274.652 498.132 271.527C497.083 268.401 496.101 265.209 495.319 261.905C495.118 261.079 494.94 260.253 494.784 259.404L494.538 258.154L494.315 256.948L493.466 252.193C492.328 245.831 491.167 239.49 489.961 233.15L488.131 223.662L487.171 218.951L486.68 216.607L486.166 214.397L486.099 214.129L485.407 211.45L484.626 208.548C484.09 206.606 483.554 204.686 482.974 202.766C481.835 198.926 480.63 195.086 479.335 191.291C476.745 183.7 473.865 176.244 470.405 169.167L469.69 167.715L470.248 166.197C471.677 162.335 472.816 158.205 473.798 154.053C474.78 149.878 475.584 145.636 476.298 141.372C477.705 132.844 478.71 124.226 479.357 115.564C479.982 106.924 480.272 98.2624 480.004 89.6449C479.737 81.0721 478.977 72.4324 476.857 64.44C476.723 63.9489 476.611 63.4354 476.455 62.9666L475.986 61.5378C475.696 60.5555 475.294 59.6848 474.914 58.7695C474.736 58.3006 474.512 57.8988 474.289 57.4746L473.642 56.2244C473.128 55.51 472.682 54.6617 472.101 54.1036L471.7 53.6347L471.499 53.4115L471.298 53.2552C471.164 53.1436 471.03 53.0543 470.918 52.9426C470.807 52.831 470.673 52.7194 470.494 52.6524C470.159 52.4962 469.891 52.2729 469.534 52.1389L468.44 51.7371C466.855 51.2683 464.98 51.1566 463.082 51.179C459.197 51.3129 455.134 52.1613 451.116 53.3668C447.097 54.55 443.123 56.0681 439.194 57.7648C431.358 61.1806 423.768 65.2884 416.512 69.8873C409.301 74.5086 402.269 79.5987 396.33 85.4255L394.544 87.1669L392.245 86.2069C386.44 83.7958 380.323 81.9205 374.117 80.3354C367.911 78.728 361.57 77.5225 355.185 76.4955C348.8 75.4686 342.371 74.6649 335.941 74.0398C332.726 73.7495 329.489 73.4593 326.252 73.2584C323.037 73.0351 319.756 72.8789 316.675 72.8342C313.571 72.8565 310.29 72.9905 307.075 73.1691C303.838 73.3477 300.623 73.5933 297.386 73.8612C290.934 74.4193 284.504 75.1783 278.119 76.1383C271.734 77.1206 265.372 78.2592 259.143 79.7996C252.914 81.3177 246.797 83.1484 240.948 85.5148L238.649 86.4525L236.885 84.6888C231.014 78.8173 224.026 73.6379 216.86 68.972C209.649 64.3061 202.103 60.109 194.289 56.6263C190.382 54.8849 186.431 53.3445 182.412 52.1166C178.416 50.8887 174.33 49.9957 170.468 49.8171C168.548 49.7725 166.673 49.8618 165.11 50.3306L163.994 50.7325C163.614 50.8664 163.369 51.0897 163.034 51.2459C162.855 51.3129 162.721 51.4246 162.61 51.5362C162.476 51.6478 162.342 51.7371 162.208 51.8487L162.007 52.005L161.806 52.2282L161.404 52.6971C160.824 53.2329 160.377 54.1035 159.864 54.7956L159.194 56.0458C158.971 56.47 158.748 56.8719 158.569 57.3407C158.19 58.256 157.765 59.1267 157.475 60.109L156.984 61.5378C156.828 62.0289 156.694 62.5201 156.56 63.0112C154.372 70.9812 153.546 79.5987 153.189 88.1715C152.832 96.7666 153.032 105.451 153.591 114.091C154.149 122.731 155.064 131.37 156.404 139.921C157.073 144.185 157.832 148.449 158.792 152.624C159.73 156.799 160.824 160.929 162.23 164.813L162.788 166.331L162.074 167.782C158.547 174.837 155.577 182.271 152.921 189.817C151.604 193.59 150.353 197.408 149.193 201.248C148.612 203.168 148.032 205.088 147.496 207.03L146.692 209.932L145.978 212.611L145.911 212.879L145.375 215.089L144.861 217.411L143.857 222.121L141.937 231.587C140.687 237.905 139.459 244.246 138.253 250.586L137.36 255.341L137.137 256.547L136.869 257.797C136.713 258.645 136.512 259.471 136.311 260.297C135.507 263.601 134.48 266.794 133.409 269.897C132.337 273 131.154 276.059 130.105 279.028C129.569 280.501 129.1 281.975 128.81 283.225C128.631 283.872 128.654 284.341 128.631 284.408C128.676 284.654 128.676 284.498 128.52 284.341C128.386 284.207 128.408 284.297 128.765 284.364C129.1 284.431 129.636 284.453 130.216 284.408C131.422 284.319 132.806 284.006 134.19 283.605C135.597 283.203 137.003 282.689 138.41 282.131C139.124 281.841 139.816 281.551 140.508 281.238L141.557 280.769L142.071 280.524L142.316 280.412L142.45 280.345C142.942 280.1 143.611 279.921 144.303 279.943C144.995 279.966 145.665 280.167 146.201 280.479C146.737 280.792 147.161 281.193 147.474 281.618C148.099 282.488 148.344 283.493 148.255 284.431C148.255 284.542 148.233 284.654 148.21 284.765L148.166 285.033L148.143 285.123L148.099 285.301L148.009 285.636C147.898 286.083 147.764 286.507 147.63 286.953C147.362 287.802 147.072 288.628 146.781 289.431C146.179 291.061 145.531 292.624 144.839 294.142C144.169 295.638 143.5 297.089 142.897 298.495C142.294 299.902 141.758 301.286 141.468 302.469C141.334 303.05 141.245 303.585 141.245 303.965C141.245 304.322 141.312 304.501 141.334 304.501C141.334 304.59 141.959 305.148 143.053 305.461C144.102 305.796 145.464 305.952 146.826 305.974C147.518 305.997 148.21 305.974 148.925 305.93C149.282 305.907 149.639 305.863 149.996 305.84L150.13 305.818L150.376 305.796L150.867 305.773C151.202 305.773 151.537 305.751 151.872 305.773C154.484 306.019 156.47 307.068 158.1 308.162C159.752 309.278 161.114 310.506 162.364 311.756C164.842 314.279 166.941 316.936 168.906 319.57L163.056 324.147L158.39 318.365L164.083 313.587L164.128 313.609L164.307 313.81L168.727 319.302L167.789 318.521C167.99 318.632 168.169 318.766 168.347 318.923C168.437 318.99 168.526 319.079 168.593 319.146L168.772 319.347L168.816 319.392L168.883 319.481L169.039 319.659L169.33 319.994L169.932 320.664L171.138 321.981C171.964 322.852 172.79 323.723 173.638 324.571C175.335 326.268 177.076 327.92 178.862 329.527C180.671 331.112 182.501 332.653 184.399 334.148C185.359 334.885 186.319 335.622 187.257 336.314C188.217 336.984 189.199 337.676 190.204 338.323C198.218 343.636 206.925 347.923 215.989 351.339L210.966 354.799V354.732L210.988 349.687L215.989 351.272C221.034 352.857 226.303 354.464 231.482 355.982L239.296 358.237L247.132 360.425L251.173 361.496L251.419 361.563C251.463 361.563 251.687 361.653 251.731 361.653L252.2 361.809L253.138 362.099L255.058 362.657C257.647 363.372 260.237 364.108 262.849 364.756C268.095 366.118 273.387 367.301 278.7 368.574C279.704 368.819 280.33 369.824 280.084 370.828C279.838 371.275 279.079 371.855 278.231 371.855Z" fill="#000072"/>
<path d="M234.764 163.652C233.112 161.04 246.619 132.33 267.627 138.581C275.329 140.881 274.034 147.668 269.569 149.811C265.327 151.842 258.764 151.686 253.316 153.963C242.734 158.384 236.439 166.242 234.764 163.652Z" fill="#000072"/>
<path d="M398.005 160.661C399.679 158.071 386.463 129.227 365.366 135.277C357.641 137.487 358.869 144.319 363.312 146.507C367.531 148.583 374.095 148.494 379.52 150.815C390.102 155.325 396.331 163.25 398.005 160.661Z" fill="#000072"/>
<path d="M244.297 299.656C244.297 304.545 236.037 308.519 225.834 308.519C215.632 308.519 207.372 304.545 207.372 299.656C207.372 294.767 215.632 290.793 225.834 290.793C236.037 290.793 244.297 294.767 244.297 299.656Z" fill="#EE7E80"/>
<path d="M425.554 299.656C425.554 304.545 417.294 308.519 407.091 308.519C396.889 308.519 388.628 304.545 388.628 299.656C388.628 294.767 396.889 290.793 407.091 290.793C417.294 290.793 425.554 294.767 425.554 299.656Z" fill="#EE7E80"/>
<path d="M236.35 478.144C258.786 527.103 297.654 548.044 318.55 542.753C333.709 538.913 303.213 488.414 303.972 469.304" fill="#2D99C8"/>
<path d="M238.046 477.363C242.824 483.748 246.686 490.379 250.973 496.764C255.326 503.104 260.126 509.11 265.417 514.624C270.685 520.16 276.535 525.117 282.808 529.314C289.081 533.488 295.913 536.904 303.034 538.646C306.584 539.516 310.178 539.963 313.639 539.739C314.509 539.695 315.358 539.583 316.184 539.449C316.608 539.382 317.01 539.293 317.412 539.181C317.657 539.114 317.702 539.114 317.791 539.07C317.881 539.047 317.947 539.003 318.014 538.98C318.238 538.846 318.327 538.78 318.506 538.467C318.662 538.177 318.841 537.619 318.93 536.949C319.108 535.587 318.974 533.846 318.707 532.104C318.439 530.341 318.014 528.532 317.501 526.724C316.496 523.085 315.246 519.424 313.907 515.762C311.295 508.418 308.325 501.095 305.78 493.504C304.53 489.709 303.213 485.892 302.409 481.851C302.007 479.841 301.695 477.788 301.583 475.667C301.472 473.568 301.539 471.38 302.097 469.192C302.365 468.188 303.392 467.563 304.396 467.831C305.111 468.009 305.624 468.567 305.78 469.237L305.803 469.349C306.629 472.898 307.901 476.426 309.151 480.02C310.424 483.614 311.63 487.298 313.036 490.937C315.782 498.237 318.684 505.605 321.341 513.15C322.658 516.946 323.886 520.786 324.913 524.782C325.426 526.791 325.873 528.845 326.185 530.988C326.476 533.154 326.699 535.386 326.364 537.953C326.185 539.226 325.851 540.632 325.047 542.084C324.288 543.512 322.904 544.897 321.363 545.633C320.984 545.834 320.604 545.99 320.202 546.102C319.823 546.236 319.399 546.348 319.153 546.392C318.595 546.526 318.037 546.638 317.479 546.75C316.362 546.95 315.246 547.107 314.152 547.174C309.71 547.486 305.379 546.95 301.248 545.99C292.988 543.981 285.42 540.298 278.499 535.855C271.578 531.39 265.327 526.01 259.657 520.138C253.986 514.244 249.008 507.77 244.632 500.961C240.212 494.174 236.461 486.896 234.631 478.926C234.407 477.899 235.032 476.895 236.059 476.649C236.841 476.47 237.6 476.783 238.046 477.363Z" fill="#000072"/>
<g opacity="0.3">
<path d="M453.125 311.823C453.058 311.957 452.991 312.091 452.902 312.225L453.17 311.779C453.17 311.779 453.147 311.801 453.125 311.823Z" fill="#000072"/>
</g>
<path d="M165.87 321.356C164.352 319.615 162.9 317.807 161.472 315.954L165.87 321.356Z" fill="white"/>
<path d="M289.126 294.455C289.126 294.455 293.725 306.689 304.642 303.92C317.077 300.773 315.648 285.971 315.648 285.971" fill="white"/>
<path d="M404.278 276.818C403.876 270.031 402.581 262.976 399.679 257.551C396.777 252.059 392.245 248.621 386.217 247.282C383.248 246.567 380.301 246.344 377.51 246.813C374.72 247.304 372.063 248.465 369.697 250.273C367.308 252.082 365.165 254.47 363.423 257.216C361.637 259.962 360.253 263.066 359.159 266.347L359.137 266.392C358.69 267.731 357.217 268.468 355.878 268.022C354.784 267.642 354.091 266.593 354.114 265.499C354.248 261.547 355.163 257.574 356.726 253.801C358.333 250.05 360.633 246.433 363.825 243.442C366.995 240.473 371.059 238.151 375.479 237.169C379.899 236.142 384.431 236.387 388.584 237.369C392.691 238.24 396.978 240.138 400.416 243.062C402.135 244.513 403.698 246.166 404.97 247.974C406.243 249.782 407.27 251.724 408.073 253.689C409.703 257.641 410.417 261.726 410.574 265.722C410.641 267.731 410.596 269.696 410.395 271.661C410.284 272.643 410.172 273.603 409.993 274.585C409.815 275.568 409.636 276.483 409.346 277.532C408.966 278.894 407.56 279.698 406.176 279.318C405.082 279.028 404.367 278.068 404.3 276.996L404.278 276.818Z" fill="#000072"/>
<path d="M224.294 276.706C224.004 275.634 223.848 274.741 223.669 273.737C223.513 272.754 223.401 271.795 223.29 270.812C223.111 268.848 223.089 266.883 223.178 264.874C223.379 260.878 224.138 256.792 225.79 252.863C226.616 250.898 227.665 248.978 228.938 247.17C230.233 245.384 231.795 243.732 233.537 242.281C237.019 239.401 241.306 237.548 245.436 236.7C249.588 235.762 254.12 235.539 258.541 236.61C262.939 237.637 267.002 239.981 270.15 242.995C273.298 246.009 275.575 249.648 277.137 253.421C278.678 257.216 279.549 261.19 279.638 265.142C279.66 266.57 278.544 267.754 277.115 267.776C275.954 267.798 274.95 267.062 274.615 265.99L274.592 265.923C273.521 262.641 272.181 259.538 270.418 256.77C268.699 254.001 266.578 251.59 264.211 249.76C261.845 247.929 259.211 246.746 256.42 246.232C253.629 245.719 250.682 245.92 247.713 246.612C241.663 247.907 237.109 251.278 234.162 256.747C231.215 262.15 229.831 269.205 229.384 275.969L229.362 276.148C229.273 277.554 228.045 278.626 226.616 278.537C225.477 278.514 224.562 277.733 224.294 276.706Z" fill="#000072"/>
<path d="M633.266 477.296C634.561 479.328 626.01 490.379 623.911 508.685C622.282 522.906 624.47 534.515 611.276 553.335C623.621 566.864 624.179 574.41 630.966 583.809C639.807 596.043 645.634 598.186 646.214 601.423C646.259 601.669 646.259 601.937 646.236 602.205C645.969 605.955 616.142 604.526 599.443 592.605C587.477 584.077 579.261 575.75 575.533 571.686C574.037 570.057 573.278 569.119 573.278 569.119L571.403 553.38C570.778 542.217 574.127 520.138 587.477 503.818C609.869 476.426 631.368 474.327 633.266 477.296Z" fill="#45BFE7"/>
<path d="M646.214 601.423C646.259 601.669 646.259 601.937 646.236 602.204C645.969 605.955 616.142 604.526 599.443 592.605C587.477 584.077 579.261 575.749 575.533 571.686C580.668 568.94 589.196 567.623 600.582 576.955C616.209 589.769 636.056 603.968 646.214 601.423Z" fill="#2D99C8"/>
<g opacity="0.5">
<path d="M633.266 477.296C633.578 477.787 633.422 478.837 632.953 480.444C623.778 482.922 604.712 493.058 590.915 511.677C578.369 528.599 574.216 550.053 574.841 561.238L576.158 572.356C574.283 570.325 573.301 569.119 573.301 569.119L571.426 553.38C570.8 542.217 574.149 520.138 587.5 503.818C609.869 476.426 631.368 474.327 633.266 477.296Z" fill="white"/>
</g>
<path d="M638.601 608.188C627.193 608.188 608.753 604.392 597.01 596.021C579.998 583.898 570.421 572.244 570.019 571.753C568.546 569.945 568.813 567.311 570.622 565.837C572.43 564.364 575.064 564.632 576.538 566.44C576.717 566.663 585.959 577.803 601.899 589.167C613.419 597.382 631.435 599.994 639.673 599.838C639.628 599.793 639.584 599.771 639.561 599.726C636.815 597.159 632.663 593.275 627.573 586.265C624.805 582.447 622.996 578.875 621.233 575.437C618.397 569.9 615.473 564.163 608.195 556.17C606.878 554.719 606.721 552.531 607.86 550.924C617.772 536.77 618.375 527.416 619.067 516.566C619.246 513.887 619.424 511.096 619.759 508.194C621.143 496.138 625.184 487.052 627.595 481.605C627.729 481.292 627.885 480.957 628.019 480.623C621.858 481.471 607.19 486.405 590.781 506.453C577.654 522.482 575.154 544.003 575.645 553.112C575.779 555.434 573.993 557.421 571.671 557.555C569.349 557.688 567.362 555.902 567.228 553.581C566.626 542.574 569.528 519.133 584.262 501.117C603.819 477.207 622.706 471.626 630.721 472.094C633.645 472.273 635.699 473.255 636.838 475.019C638.557 477.698 637.329 480.444 635.275 485.021C632.909 490.334 629.337 498.371 628.109 509.132C627.796 511.811 627.64 514.49 627.461 517.079C626.792 527.527 626.099 538.288 616.611 552.956C623.108 560.546 626.077 566.373 628.734 571.597C630.43 574.901 632.016 578.049 634.404 581.331C639.003 587.693 642.642 591.087 645.321 593.565C648.246 596.288 650.769 598.655 650.478 602.495C650.411 603.388 649.965 605.643 647.152 606.937C645.411 607.763 642.397 608.188 638.601 608.188Z" fill="#000072"/>
<path d="M332.749 313.453C332.749 313.453 362.486 259.337 436.181 266.436C441.07 266.905 443.503 272.643 440.423 276.46C427.139 292.981 400.081 330.018 401.845 355.469L332.749 313.453Z" fill="#45BFE7"/>
<path d="M332.749 313.475L401.845 355.491C400.081 330.063 427.139 293.003 440.423 276.483C441.583 275.032 441.963 273.313 441.717 271.683C432.988 278.336 424.237 285.949 417.405 293.919C407.94 304.947 399.679 308.609 379.118 303.184C343.956 293.941 332.749 313.475 332.749 313.475Z" fill="#2D99C8"/>
<g opacity="0.35">
<path d="M332.749 313.475L339.223 317.405C346.747 306.175 377.6 267.263 440.802 273.357C441.115 273.38 441.427 273.447 441.717 273.514C442.186 270.21 439.909 266.816 436.181 266.459C362.486 259.36 332.749 313.475 332.749 313.475Z" fill="white"/>
</g>
<path d="M401.845 359.688C399.657 359.688 397.804 357.991 397.648 355.781C395.839 329.527 421.625 293.182 437.141 273.849C437.81 273.022 437.565 272.174 437.431 271.839C437.297 271.504 436.85 270.745 435.801 270.634C406.466 267.798 380.859 274.451 359.695 290.414C343.844 302.358 336.522 315.373 336.455 315.485C335.339 317.516 332.771 318.253 330.74 317.137C328.708 316.02 327.971 313.453 329.088 311.421C329.4 310.841 337.147 296.955 354.315 283.917C370.099 271.929 397.201 258.444 436.627 262.24C440.445 262.597 443.726 265.03 445.2 268.557C446.696 272.085 446.115 276.126 443.727 279.095C431.85 293.874 404.39 330.889 406.064 355.178C406.221 357.5 404.479 359.51 402.157 359.666C402.023 359.688 401.934 359.688 401.845 359.688Z" fill="#000072"/>
<path d="M587.678 569.498C585.066 571.441 582.432 573.561 579.73 575.727C562.428 589.591 541.778 606.201 504.272 603.856C456.586 600.887 443.481 551.616 405.372 530.184C368.089 509.221 308.415 526.612 237.823 546.035C190.963 558.916 111.307 565.792 65.1166 538.4C52.8602 531.122 37.6792 517.66 28.9948 501.809C18.3234 482.319 17.4528 459.258 43.8409 439.701C106.842 393.019 121.554 385.406 162.922 351.383C242.712 285.792 363.647 284.989 432.207 339.216C489.448 384.513 492.417 440.237 515.345 503.327C532.245 549.852 562.406 547.932 582.923 544.048L587.678 569.498Z" fill="#45BFE7"/>
<g opacity="0.5">
<path d="M564.482 545.856C545.238 548.915 521.752 545.611 509.116 515.159C486.166 459.994 479.29 387.438 432.207 351.048C363.066 297.602 242.734 297.625 162.922 363.215C121.554 397.239 105.614 403.512 42.613 450.194C29.2403 460.106 24.0833 472.273 22.4312 483.078C20.3327 468.5 25.5344 453.274 43.8186 439.723C106.82 393.042 121.532 385.429 162.9 351.406C242.69 285.815 363.624 285.011 432.184 339.238C489.426 384.536 492.395 440.259 515.323 503.349C527.624 537.216 546.957 545.41 564.482 545.856Z" fill="white"/>
</g>
<path d="M579.73 575.749C569.506 583.943 558.075 593.118 542.693 598.744C532.089 602.629 519.587 604.839 504.272 603.879C456.586 600.91 443.481 551.638 405.372 530.206C368.089 509.243 308.415 526.634 237.823 546.057C193.419 558.269 119.545 565.078 72.6181 542.418H72.5958C70.0061 541.168 67.5057 539.851 65.1169 538.422C52.8605 531.144 37.6795 517.682 28.995 501.831C27.0974 494.442 27.6332 486.963 34.5316 482.52C55.093 469.281 132.07 498.081 179.064 497.143C216.882 496.384 248.628 486.137 278.611 477.252C299.887 470.956 320.269 465.308 341.366 464.214C362.218 463.12 383.762 466.469 407.493 477.944C481.277 513.619 462.547 613.01 579.73 575.749Z" fill="white"/>
<g opacity="0.3">
<path d="M542.693 598.722C532.089 602.607 519.587 604.817 504.272 603.857C456.586 600.887 443.481 551.616 405.372 530.184C368.09 509.221 308.415 526.612 237.823 546.035C193.419 558.247 119.545 565.056 72.6182 542.396C74.1363 542.53 148.233 554.072 210.207 542.396C254.254 534.091 283.121 514.222 283.478 502.814C283.768 493.125 276.445 483.034 278.656 477.207C278.879 476.627 279.169 476.113 279.593 475.6C284.281 470.175 338.04 464.281 338.04 464.281C338.04 464.281 343.867 463.745 344.224 464.683C346.591 470.934 361.995 496.697 378.672 507.703C395.058 518.531 424.773 515.36 454.264 558.403C476.187 590.439 510.054 603.812 542.693 598.722Z" fill="#000072"/>
</g>
<path d="M588.794 570.994C583.414 575.861 578.078 580.862 572.296 585.572C566.514 590.238 560.285 594.569 553.521 598.052C546.756 601.535 539.478 604.102 532.022 605.687C524.565 607.317 516.93 607.942 509.384 607.83C507.487 607.83 505.611 607.696 503.714 607.607C501.794 607.473 499.874 607.295 497.954 606.982C494.114 606.424 490.341 605.509 486.657 604.303C479.268 601.847 472.436 597.985 466.342 593.386C460.247 588.787 454.844 583.474 449.776 578.027C444.731 572.579 439.976 566.953 435.176 561.506C430.376 556.059 425.509 550.768 420.263 545.968C415.039 541.168 409.413 536.904 403.34 533.51C397.335 530.162 390.727 527.907 383.895 526.5C377.042 525.116 369.965 524.558 362.843 524.558C348.6 524.58 334.245 526.634 320.024 529.358C305.803 532.126 291.671 535.631 277.561 539.337C270.507 541.19 263.452 543.11 256.42 545.053L245.838 547.977C242.31 548.937 238.805 549.942 235.189 550.879C220.811 554.608 206.211 557.22 191.521 558.983C176.831 560.725 162.007 561.595 147.183 561.372C132.36 561.127 117.469 559.809 102.801 556.728C88.1785 553.603 73.6672 548.758 60.6518 540.588C54.1998 536.48 48.2837 531.702 42.8364 526.411C37.4114 521.12 32.4329 515.293 28.2582 508.841C24.1057 502.389 20.69 495.245 18.9263 487.476C18.0556 483.592 17.6315 479.573 17.7877 475.51C17.9217 471.469 18.6584 467.406 19.9309 463.566C21.1811 459.704 23.0341 456.087 25.222 452.739C27.4321 449.412 29.9772 446.376 32.7232 443.608C35.4691 440.839 38.483 438.361 41.5415 436.084L50.3823 429.565C62.1922 420.881 74.0691 412.308 85.9906 403.802C97.9122 395.274 109.878 386.88 121.621 378.262C127.493 373.954 133.297 369.578 139.057 365.113C144.795 360.648 150.51 356.116 156.158 351.517L160.4 348.057C161.851 346.896 163.302 345.713 164.776 344.574C167.722 342.297 170.714 340.064 173.795 337.944C179.912 333.679 186.23 329.728 192.749 326.089C218.802 311.6 247.579 302.223 277.07 298.25C306.539 294.276 336.79 295.526 365.723 302.804C380.167 306.465 394.277 311.667 407.56 318.588C410.886 320.284 414.123 322.182 417.361 324.08C420.553 326.067 423.723 328.054 426.759 330.241C428.3 331.291 429.796 332.452 431.314 333.568C432.787 334.729 434.305 335.845 435.712 337.073L439.998 340.645L444.173 344.373C455.179 354.442 465.091 365.85 473.173 378.486C481.277 391.077 487.573 404.74 492.641 418.671C497.731 432.601 501.727 446.778 505.79 460.82C509.853 474.863 514.006 488.816 518.962 502.412C520.212 505.716 521.507 509.02 523.092 512.168C523.829 513.775 524.699 515.271 525.503 516.834C526.396 518.33 527.244 519.848 528.249 521.254C532.044 527.036 536.799 532.082 542.425 535.721C545.238 537.551 548.23 539.047 551.422 540.141C554.592 541.235 557.919 541.994 561.335 542.44C568.188 543.333 575.31 542.887 582.543 542.217C583.57 542.128 584.486 542.865 584.575 543.892C584.664 544.807 584.084 545.611 583.235 545.856C576.114 547.888 568.568 549.205 560.799 548.825C556.937 548.624 553.03 548.022 549.234 546.861C545.439 545.722 541.8 544.048 538.451 541.927C531.732 537.685 526.284 531.769 522.043 525.384C520.949 523.799 519.989 522.125 519.006 520.495C518.113 518.821 517.153 517.146 516.372 515.427C514.675 512.012 513.269 508.507 511.929 504.979C506.862 491.093 502.62 476.984 498.534 462.919C494.427 448.854 490.453 434.856 485.474 421.305C480.518 407.754 474.468 394.671 466.699 382.66C458.974 370.627 449.531 359.777 438.949 350.133L434.93 346.561L430.8 343.123C429.438 341.94 428.01 340.913 426.603 339.796C425.152 338.747 423.746 337.653 422.272 336.649C419.37 334.572 416.356 332.675 413.32 330.8C410.239 328.991 407.158 327.183 403.966 325.575C391.285 318.99 377.734 314.033 363.825 310.506C335.964 303.518 306.696 302.357 278.187 306.242C249.678 310.127 221.861 319.257 196.79 333.255C190.516 336.76 184.444 340.6 178.572 344.708C175.625 346.762 172.746 348.905 169.91 351.093C168.482 352.187 167.12 353.325 165.713 354.442L161.449 357.924C155.779 362.568 150.019 367.145 144.214 371.677C138.41 376.186 132.538 380.629 126.622 384.982C114.79 393.689 102.824 402.128 90.9468 410.634C79.0699 419.14 67.2376 427.735 55.4724 436.397L46.654 442.893C43.841 444.97 41.1844 447.18 38.7733 449.591C36.3622 452.002 34.1966 454.592 32.3436 457.36C30.5353 460.151 29.0172 463.097 28.0126 466.201C25.914 472.385 25.7354 479.104 27.2089 485.623C28.66 492.142 31.6069 498.438 35.3575 504.265C39.1081 510.092 43.6847 515.494 48.7302 520.406C53.7756 525.317 59.2899 529.782 65.1837 533.533C76.9937 540.989 90.6565 545.655 104.587 548.647C118.585 551.616 132.962 552.933 147.384 553.179C161.806 553.424 176.273 552.598 190.65 550.924C205.005 549.227 219.293 546.682 233.246 543.088C236.707 542.195 240.256 541.19 243.784 540.23L254.366 537.328C261.42 535.408 268.497 533.488 275.597 531.635C289.796 527.929 304.084 524.402 318.595 521.611C333.106 518.865 347.863 516.744 362.91 516.744C370.411 516.767 378.002 517.347 385.503 518.865C392.982 520.383 400.371 522.928 407.158 526.724C413.856 530.497 419.95 535.163 425.487 540.253C431.046 545.365 436.091 550.857 440.936 556.394C445.803 561.93 450.491 567.511 455.38 572.802C460.269 578.071 465.337 583.072 470.918 587.291C476.477 591.511 482.55 594.927 489.069 597.114C492.328 598.186 495.677 599.012 499.092 599.503C500.789 599.771 502.508 599.927 504.25 600.061C506.013 600.151 507.777 600.262 509.541 600.285C516.595 600.418 523.65 599.838 530.504 598.342C537.358 596.891 543.988 594.525 550.284 591.422C556.624 588.363 562.629 584.568 568.546 580.46C574.484 576.375 580.289 571.91 586.606 567.958C587.477 567.422 588.638 567.668 589.174 568.538C589.643 569.387 589.464 570.391 588.794 570.994Z" fill="#000072"/>
<path d="M145.286 518.821C136.579 520.517 127.761 520.584 119.143 520.16C110.526 519.736 102.042 518.821 93.715 518.33C85.4101 517.905 77.1276 517.794 69.7603 519.937C67.9966 520.428 66.4339 521.098 65.2284 521.946C63.9558 522.75 63.2414 523.755 62.7056 524.938C62.2145 526.143 62.0805 527.706 62.2814 529.403C62.3707 530.251 62.5493 531.122 62.7949 532.015C62.9065 532.461 63.0405 532.886 63.1968 533.332C63.3307 533.756 63.5093 534.247 63.6209 534.538L63.7549 534.917C64.2684 536.368 63.5316 537.953 62.0805 538.467C60.8973 538.891 59.6024 538.467 58.888 537.484C58.4415 536.882 58.1513 536.435 57.8164 535.877C57.5039 535.364 57.2137 534.828 56.9458 534.27C56.41 533.176 55.9635 532.015 55.6286 530.787C54.9812 528.331 54.7133 525.496 55.5393 522.638C56.3207 519.758 58.3076 517.191 60.5178 515.561C62.7503 513.887 65.1614 512.905 67.4832 512.213C71.9928 510.94 76.5694 510.382 81.0121 510.203C85.4771 510.025 89.8751 510.226 94.1839 510.538C98.5149 510.851 102.779 511.32 106.998 511.788C111.218 512.257 115.415 512.726 119.59 513.106C127.939 513.842 136.222 514.222 144.37 513.306H144.393C145.933 513.128 147.295 514.244 147.474 515.762C147.697 517.213 146.692 518.531 145.286 518.821Z" fill="#000072"/>
<path d="M181.452 427.802C182.881 428.315 184.109 428.829 185.382 429.432C186.654 430.012 187.882 430.66 189.11 431.352C191.543 432.713 193.887 434.276 196.12 436.04C198.33 437.826 200.473 439.79 202.326 442.09C203.286 443.206 204.135 444.434 204.961 445.707C205.742 447.001 206.479 448.341 207.059 449.792C209.537 455.552 209.582 462.182 207.841 467.898C206.97 470.778 205.72 473.457 204.157 475.912C203.42 477.163 202.527 478.301 201.634 479.44C201.165 479.998 200.697 480.534 200.205 481.069C199.692 481.605 199.201 482.074 198.576 482.654C197.459 483.681 195.696 483.614 194.669 482.498C193.798 481.538 193.709 480.132 194.401 479.105L194.579 478.837C194.847 478.435 195.205 477.899 195.517 477.386C195.852 476.872 196.142 476.336 196.455 475.823C197.058 474.774 197.616 473.68 198.129 472.586C199.134 470.398 199.937 468.166 200.451 465.933C201.478 461.468 201.366 456.914 199.714 452.873C198.062 448.765 195.004 444.992 191.409 441.688C189.601 440.036 187.636 438.473 185.605 437.022C184.578 436.285 183.529 435.593 182.479 434.901C181.43 434.232 180.291 433.539 179.309 432.981L179.175 432.914C177.836 432.155 177.367 430.459 178.126 429.141C178.773 427.869 180.202 427.355 181.452 427.802Z" fill="#000072"/>
<path d="M205.496 424.23C206.88 424.721 208.086 425.212 209.336 425.792C210.564 426.351 211.77 426.976 212.953 427.645C215.319 428.963 217.596 430.481 219.784 432.2C221.927 433.941 224.026 435.839 225.834 438.071C226.75 439.165 227.598 440.371 228.402 441.599C229.161 442.849 229.875 444.166 230.433 445.572C232.867 451.198 232.889 457.65 231.192 463.209C230.344 466 229.116 468.612 227.598 471.001C226.861 472.206 226.013 473.322 225.142 474.416C224.696 474.952 224.227 475.488 223.736 476.001C223.245 476.537 222.754 476.984 222.151 477.542C221.012 478.569 219.271 478.502 218.244 477.363C217.373 476.403 217.284 475.019 217.976 473.992L218.155 473.702C218.4 473.322 218.757 472.787 219.048 472.295C219.36 471.804 219.65 471.291 219.941 470.777C220.521 469.75 221.057 468.701 221.548 467.652C222.508 465.531 223.289 463.388 223.78 461.2C224.785 456.869 224.651 452.493 223.088 448.586C221.503 444.635 218.556 440.973 215.074 437.759C213.31 436.151 211.435 434.655 209.448 433.227C208.466 432.512 207.439 431.842 206.412 431.173C205.407 430.525 204.313 429.856 203.353 429.297L203.219 429.23C201.88 428.471 201.411 426.775 202.17 425.435C202.817 424.274 204.246 423.783 205.496 424.23Z" fill="#000072"/>
<path d="M230.835 425.301C232.063 425.859 233.113 426.373 234.184 426.998C235.256 427.601 236.283 428.248 237.31 428.918C239.341 430.28 241.306 431.82 243.137 433.539C244.945 435.28 246.686 437.156 248.16 439.321C248.919 440.393 249.588 441.531 250.214 442.715C250.816 443.92 251.352 445.17 251.754 446.488C253.518 451.801 253.049 457.695 251.04 462.584C250.035 465.04 248.718 467.317 247.155 469.348C246.396 470.375 245.525 471.313 244.632 472.228C244.163 472.675 243.717 473.121 243.226 473.523C242.735 473.947 242.266 474.305 241.641 474.773C240.413 475.689 238.694 475.443 237.756 474.238C236.997 473.233 237.019 471.893 237.734 470.933L237.979 470.621L238.85 469.438C239.163 469.036 239.453 468.589 239.743 468.143C240.324 467.272 240.882 466.379 241.373 465.486C242.377 463.678 243.203 461.825 243.784 459.95C244.967 456.221 245.19 452.381 244.119 448.876C243.047 445.304 240.725 441.844 237.912 438.718C236.484 437.156 234.943 435.66 233.291 434.231C232.465 433.517 231.617 432.825 230.768 432.155C229.92 431.485 229.005 430.793 228.201 430.235L228.067 430.146C226.817 429.253 226.527 427.534 227.397 426.283C228.201 425.123 229.652 424.765 230.835 425.301Z" fill="#000072"/>
<path d="M122.581 533.645C118.585 533.645 115.303 528.086 112.87 517.102C112.513 515.539 113.517 513.976 115.08 513.619C116.665 513.262 118.206 514.267 118.563 515.829C119.568 520.406 121.264 525.161 122.514 527.126C123.407 525.34 124.412 521.455 124.859 517.794C125.059 516.186 126.511 515.07 128.096 515.249C129.703 515.45 130.842 516.901 130.641 518.486C129.837 525.072 127.895 533.019 123.117 533.6C122.939 533.622 122.76 533.645 122.581 533.645Z" fill="#000072"/>
<path d="M147.652 465.754C147.005 466.491 146.089 466.87 145.174 466.937C144.259 466.982 143.321 466.692 142.584 466.022L129.658 454.413L118.049 467.339C116.732 468.79 114.455 468.924 113.004 467.607C111.53 466.29 111.419 464.013 112.736 462.539L124.345 449.613L111.419 437.982C109.945 436.665 109.834 434.388 111.151 432.936C112.468 431.463 114.745 431.351 116.219 432.668L129.145 444.277L140.754 431.351C142.071 429.878 144.348 429.766 145.821 431.083C146.558 431.753 146.938 432.646 147.005 433.561C147.049 434.477 146.759 435.414 146.089 436.151L134.48 449.077L147.407 460.686C148.835 462.026 148.969 464.303 147.652 465.754Z" fill="#000072"/>
<path d="M276.289 468.857C298.726 517.816 337.594 538.757 358.49 533.466C373.648 529.626 343.152 479.127 343.911 460.017" fill="#45BFE7"/>
<path d="M358.467 533.466C339.402 538.288 305.378 521.299 282.518 481.069C305.579 510.181 332.793 523.576 351.346 518.24C359.36 515.941 343.688 490.937 341.657 460.307L343.889 460.017C343.13 479.104 373.648 529.604 358.467 533.466Z" fill="#2D99C8"/>
<path d="M277.963 468.076C282.741 474.461 286.603 481.091 290.889 487.476C295.243 493.817 300.043 499.822 305.334 505.336C310.602 510.873 316.452 515.829 322.725 520.026C328.998 524.201 335.852 527.617 342.951 529.358C346.501 530.229 350.095 530.675 353.556 530.452C354.426 530.407 355.275 530.296 356.101 530.162C356.525 530.095 356.927 530.005 357.329 529.894C357.574 529.827 357.619 529.827 357.708 529.782C357.797 529.76 357.864 529.715 357.931 529.693C358.155 529.559 358.244 529.492 358.423 529.179C358.579 528.889 358.757 528.331 358.847 527.661C359.025 526.299 358.891 524.558 358.624 522.817C358.356 521.053 357.931 519.245 357.418 517.436C356.413 513.797 355.163 510.136 353.824 506.475C351.212 499.13 348.242 491.807 345.697 484.217C344.447 480.422 343.13 476.604 342.326 472.563C341.924 470.554 341.612 468.5 341.5 466.379C341.389 464.281 341.456 462.093 342.014 459.905C342.282 458.9 343.309 458.275 344.313 458.543C345.028 458.722 345.541 459.28 345.697 459.95L345.72 460.061C346.546 463.611 347.818 467.138 349.068 470.733C350.341 474.327 351.546 478.01 352.953 481.649C355.699 488.95 358.601 496.317 361.258 503.863C362.575 507.658 363.803 511.498 364.83 515.494C365.343 517.503 365.79 519.557 366.102 521.7C366.393 523.866 366.616 526.099 366.281 528.666C366.102 529.938 365.768 531.345 364.964 532.796C364.205 534.225 362.821 535.609 361.28 536.346C360.901 536.547 360.521 536.703 360.119 536.815C359.74 536.949 359.316 537.06 359.07 537.105C358.512 537.239 357.954 537.35 357.396 537.462C356.279 537.663 355.163 537.819 354.069 537.886C349.627 538.199 345.295 537.663 341.165 536.703C332.905 534.694 325.337 531.01 318.416 526.567C311.495 522.102 305.244 516.722 299.574 510.851C293.903 504.957 288.925 498.482 284.549 491.673C280.129 484.887 276.378 477.609 274.548 469.639C274.324 468.612 274.949 467.607 275.976 467.361C276.78 467.183 277.517 467.495 277.963 468.076Z" fill="#000072"/>
<path d="M342.527 294.722C342.527 294.722 337.816 306.912 326.922 304.054C314.531 300.795 316.094 285.993 316.094 285.993" fill="white"/>
<g opacity="0.25">
<path d="M341.589 296.732C339.714 300.058 335.026 306.242 326.922 304.121C314.531 300.84 316.094 286.061 316.094 286.061L319.063 287.043C321.274 291.374 325.091 295.37 331.632 297.089C335.495 298.071 338.799 297.781 341.589 296.732Z" fill="#000072"/>
</g>
<path d="M289.126 294.522C289.126 294.522 293.725 306.756 304.642 303.987C317.077 300.84 315.648 286.038 315.648 286.038" fill="white"/>
<g opacity="0.25">
<path d="M304.642 304.01C296.56 306.064 291.961 299.88 290.086 296.531C292.854 297.558 296.114 297.87 299.909 296.91C306.428 295.258 310.268 291.329 312.523 287.043L315.648 286.038C315.648 286.038 317.055 300.84 304.642 304.01Z" fill="#000072"/>
</g>
<path d="M290.822 293.897C291.202 294.499 291.671 295.236 292.14 295.861C292.608 296.531 293.122 297.134 293.658 297.714C294.729 298.875 295.89 299.857 297.14 300.505C298.368 301.197 299.663 301.532 301.003 301.621C301.695 301.554 302.364 301.643 303.057 301.442C303.414 301.353 303.749 301.331 304.106 301.241L305.155 300.907C307.946 299.991 310.067 298.049 311.518 295.392C312.254 294.075 312.768 292.557 313.147 290.994C313.348 290.213 313.482 289.409 313.616 288.583C313.728 287.779 313.817 286.909 313.862 286.194V286.06C313.907 285.056 314.755 284.274 315.759 284.341C316.63 284.386 317.322 285.033 317.456 285.86C317.635 286.931 317.702 287.846 317.724 288.829C317.746 289.811 317.702 290.771 317.59 291.753C317.367 293.696 316.943 295.683 316.072 297.58C314.509 301.375 311.071 304.813 307.008 306.131L305.512 306.644C304.999 306.8 304.463 306.867 303.927 306.957C302.878 307.202 301.739 307.135 300.645 307.135C298.413 306.957 296.225 306.153 294.394 304.992C292.564 303.786 291.113 302.246 289.974 300.594C289.416 299.768 288.903 298.897 288.478 298.004C288.032 297.089 287.719 296.241 287.407 295.191C287.139 294.231 287.675 293.227 288.635 292.937C289.438 292.713 290.264 293.048 290.689 293.718L290.822 293.897Z" fill="#000072"/>
<path d="M344.224 295.437C343.911 296.486 343.577 297.357 343.13 298.25C342.706 299.143 342.192 299.991 341.612 300.817C340.473 302.469 339 303.987 337.169 305.171C335.339 306.331 333.151 307.113 330.896 307.269C329.802 307.247 328.663 307.291 327.614 307.046C327.078 306.934 326.543 306.867 326.029 306.711L324.533 306.198C320.492 304.836 317.077 301.375 315.559 297.558C314.71 295.66 314.308 293.673 314.108 291.709C314.018 290.726 313.974 289.744 313.996 288.784C314.018 287.802 314.108 286.886 314.286 285.815C314.465 284.833 315.402 284.163 316.385 284.341C317.255 284.498 317.858 285.212 317.88 286.06V286.194C317.903 286.909 317.992 287.802 318.104 288.583C318.215 289.387 318.349 290.213 318.55 290.994C318.907 292.557 319.421 294.075 320.135 295.415C321.564 298.094 323.663 300.058 326.453 300.996L327.503 301.353C327.86 301.465 328.195 301.487 328.552 301.554C329.244 301.755 329.914 301.688 330.606 301.755C331.945 301.666 333.24 301.331 334.468 300.661C335.718 300.014 336.901 299.054 337.973 297.915C338.509 297.335 339.022 296.732 339.491 296.062C339.982 295.437 340.451 294.7 340.831 294.097L340.942 293.919C341.478 293.07 342.594 292.825 343.443 293.338C344.157 293.829 344.447 294.678 344.224 295.437Z" fill="#000072"/>
<path d="M330.851 278.358C330.829 281.863 326.252 284.922 322.055 287.02C317.657 289.208 312.745 289.186 308.37 286.953C304.195 284.833 299.641 281.707 299.641 278.224C299.708 267.642 330.896 267.799 330.851 278.358Z" fill="#000072"/>
<g opacity="0.5">
<path d="M321.453 276.237C321.453 277.242 319.622 278.135 317.97 278.738C316.228 279.363 314.286 279.363 312.545 278.715C310.893 278.113 309.084 277.197 309.084 276.193C309.084 273.134 321.475 273.201 321.453 276.237Z" fill="white"/>
</g>
</svg>
