<svg width="683" height="601" viewBox="0 0 683 601" fill="none" xmlns="http://www.w3.org/2000/svg">
<ellipse cx="359" cy="299.5" rx="313" ry="299.5" fill="#B0A2D7"/>
<path d="M335.999 534.921C324.179 553.581 301.415 559.032 301.415 559.032C301.415 559.032 323.388 564.696 317.36 582.993C312.807 596.865 302.398 597.229 277.881 597.058C267.022 596.994 258.023 596.481 250.905 594.343C241.094 591.415 234.917 585.366 232.566 573.054C228.162 550.054 239.021 533.638 247.571 503.136C248.34 500.4 248.832 497.472 249.174 494.308C250.948 478.362 249.131 457.329 260.524 434.757L333.028 453.845C333.028 453.845 343.481 475.199 344.4 499.117C344.913 511.194 342.946 523.934 335.999 534.921Z" fill="white"/>
<g opacity="0.3">
<path d="M248.49 574.529C256.27 579.295 263.046 579.872 277.902 579.979C300.431 580.129 311.033 579.851 316.142 569.014C318.343 572.519 319.305 577.094 317.36 582.972C312.807 596.844 302.398 597.207 277.88 597.036C267.022 596.972 258.023 596.459 250.905 594.322C250.585 594.236 250.285 594.129 249.986 594.044C249.559 593.916 249.131 593.766 248.725 593.595C247.613 593.189 246.545 592.719 245.54 592.206C245.134 591.992 244.728 591.778 244.343 591.543C244.236 591.479 244.129 591.415 244.022 591.351C243.851 591.244 243.68 591.137 243.509 591.03C243.338 590.923 243.189 590.816 243.018 590.709C242.825 590.581 242.654 590.453 242.483 590.325C240.496 588.893 238.764 587.161 237.289 585.066C237.14 584.853 236.969 584.618 236.84 584.382C236.669 584.126 236.52 583.869 236.37 583.613C236.221 583.356 236.071 583.1 235.921 582.822C235.836 582.651 235.729 582.48 235.665 582.309C235.558 582.117 235.472 581.924 235.366 581.732C235.28 581.54 235.173 581.326 235.088 581.112C235.002 580.92 234.917 580.727 234.831 580.535C234.532 579.83 234.254 579.103 233.998 578.333C233.891 578.013 233.784 577.671 233.677 577.329C233.57 577.008 233.485 576.687 233.378 576.345C233.378 576.324 233.378 576.281 233.356 576.26C233.271 575.939 233.164 575.597 233.1 575.234C233.036 575.042 232.993 574.806 232.95 574.593C232.886 574.4 232.843 574.187 232.822 573.973C232.758 573.652 232.694 573.332 232.629 572.99C231.924 569.334 231.604 565.85 231.604 562.452C231.604 561.917 231.604 561.362 231.625 560.849C231.646 560.293 231.668 559.737 231.689 559.203C231.689 558.989 231.71 558.775 231.732 558.561C231.753 558.177 231.796 557.792 231.817 557.407C231.86 556.916 231.903 556.424 231.967 555.954C232.01 555.59 232.052 555.227 232.095 554.885C232.138 554.522 232.181 554.18 232.245 553.816C234.404 539.089 241.586 524.575 247.613 503.093C248.383 500.357 248.875 497.429 249.217 494.265C276.662 495.633 344.464 499.075 344.464 499.075C344.464 499.075 338.436 522.331 298.593 538.041C278.458 545.993 269.63 542.338 250.756 550.247C241.137 554.329 242.59 568.693 248.49 574.529Z" fill="#000072"/>
</g>
<path d="M284.314 600.734C282.241 600.734 280.103 600.713 277.88 600.713C253.085 600.542 233.72 598.426 228.996 573.738C225.704 556.488 230.471 542.829 236.52 525.537C238.914 518.697 241.628 510.938 244.086 502.153C245.625 496.659 245.989 490.055 246.416 482.424C247.186 468.53 248.169 451.216 257.296 433.112C258.215 431.316 260.417 430.589 262.212 431.487C264.008 432.406 264.735 434.608 263.837 436.403C255.394 453.14 254.517 468.915 253.727 482.808C253.299 490.546 252.893 497.856 251.119 504.119C248.597 513.118 245.839 521.006 243.424 527.952C237.524 544.839 233.249 557.044 236.178 572.348C239.598 590.218 251.29 593.189 277.923 593.381C303.936 593.574 310.37 592.526 313.897 581.839C315.18 577.906 315.03 574.571 313.427 571.6C309.9 565.102 300.602 562.601 300.495 562.559C298.871 562.131 297.738 560.656 297.759 558.968C297.78 557.3 298.935 555.847 300.559 555.441C300.773 555.398 322.062 550.054 332.9 532.933C352.329 502.238 330.014 455.876 329.779 455.427C328.881 453.61 329.629 451.409 331.446 450.532C333.263 449.634 335.465 450.383 336.341 452.199C337.346 454.251 360.666 502.73 339.077 536.844C331.361 549.05 319.455 555.89 311.268 559.416C314.432 561.383 317.702 564.183 319.818 568.031C322.426 572.797 322.768 578.205 320.844 584.083C315.842 599.366 303.83 600.734 284.314 600.734Z" fill="#000072"/>
<path d="M168.526 426.934C168.526 426.934 114.233 424.668 116.456 394.508C119.406 354.323 162.434 332.499 161.002 284.384C158.565 202.133 6.4392 198.457 4.1307 298.877C3.48945 326.899 17.1053 336.219 29.5456 336.668C48.9968 337.373 59.1927 322.368 61.7149 302.788C66.3106 267.028 116.392 268.716 119.534 302.874C122.099 330.576 57.0552 374.373 80.8883 423.685C97.3471 457.736 136.549 464.725 161.066 463.037C165.982 462.737 168.526 426.934 168.526 426.934Z" fill="white"/>
<path d="M32.3029 240.245C16.0366 252.707 4.7292 272.094 4.1307 298.898C3.48945 326.921 17.1053 336.24 29.5456 336.689C48.9968 337.394 59.1927 322.368 61.7149 302.81C63.1043 292.079 68.5549 284.726 75.6301 280.622C79.9051 226.33 32.7304 240.138 32.3029 240.245Z" fill="#FFB531"/>
<g opacity="0.3">
<path d="M167.372 439.118C166.175 449.527 164.037 462.887 161.045 463.079C136.506 464.768 97.3259 457.757 80.8671 423.706C72.1034 405.559 75.3524 388.181 82.855 372.064C82 381.021 78.5586 391.174 85.1207 404.683C101.515 438.37 142.812 440.614 167.372 439.118Z" fill="#000072"/>
</g>
<g opacity="0.3">
<path d="M61.6936 302.831C59.1713 322.389 48.9968 337.394 29.5242 336.689C20.8887 336.39 11.6761 331.794 7.05908 319.61C11.5478 323.159 16.8061 324.74 21.872 324.911C42.392 325.659 48.4197 311.039 50.5786 290.348C56.9483 229.493 166.987 256.191 112.31 324.655C110.728 326.643 116.798 316.618 118.85 309.97C119.449 307.512 119.684 305.161 119.492 302.895C116.371 268.738 66.3106 267.049 61.6936 302.831Z" fill="#000072"/>
</g>
<path d="M154.141 466.97C144.543 466.97 130.778 465.708 116.606 460.215C98.5015 453.183 85.3559 441.448 77.5754 425.31C61.8648 392.777 82.3206 362.809 98.7794 338.72C108.013 325.189 116.734 312.428 115.879 303.216C114.447 287.655 102.413 280.494 91.1271 280.28C79.777 280.088 67.4009 287.099 65.3275 303.258C62.2495 327.177 48.826 341.007 29.3961 340.323C14.968 339.81 -0.229608 328.609 0.454392 298.791C1.03152 273.911 10.5861 253.198 28.135 238.856C43.3754 226.394 63.7885 219.49 85.6124 219.404C85.7193 219.404 85.8261 219.404 85.933 219.404C124.152 219.404 163.375 241.634 164.636 284.277C165.448 311.531 152.815 330.383 140.61 348.616C130.714 363.386 121.373 377.344 120.09 394.765C119.706 399.873 121.202 404.213 124.6 408.039C136.806 421.74 168.334 423.236 168.654 423.258L172.416 423.429L172.16 427.191C169.402 466.157 163.93 466.542 161.301 466.713C159.335 466.863 156.919 466.97 154.141 466.97ZM90.6569 272.97C90.8706 272.97 91.063 272.97 91.2768 272.97C105.342 273.227 121.33 282.589 123.168 302.553C124.258 314.373 115.26 327.562 104.829 342.845C88.6476 366.55 70.3079 393.397 84.1803 422.103C102.477 459.98 148.092 460.087 159.72 459.467C161.515 456.004 163.546 442.709 164.593 430.311C155.167 429.435 130.778 425.972 119.171 412.934C114.426 407.611 112.288 401.327 112.801 394.23C114.212 374.865 124.558 359.453 134.54 344.534C146.104 327.263 158.074 309.393 157.347 284.491C156.235 246.529 120.625 226.736 85.9544 226.736C85.8475 226.736 85.762 226.736 85.6551 226.736C47.7145 226.864 8.94027 249.244 7.80739 298.962C7.12339 328.951 22.8768 332.756 29.6954 333.012C50.8566 333.803 56.5851 314.117 58.1028 302.339C60.6891 281.99 76.2074 272.97 90.6569 272.97Z" fill="#000072"/>
<path d="M404.72 293.212V338.72C404.72 338.72 389.437 355.82 362.162 359.154C358.699 359.582 355.044 359.795 351.218 359.71C325.675 359.175 310.371 347.013 310.371 347.013L312.123 339.233L321.208 298.877C321.208 298.877 334.054 303.13 350.662 304.733C363.039 305.93 377.488 305.652 390.249 301.078C395.443 299.219 400.338 296.675 404.72 293.212Z" fill="white"/>
<path d="M352.928 363.386C352.33 363.386 351.753 363.386 351.154 363.365C324.692 362.788 308.789 350.412 308.126 349.877C306.544 348.616 306.288 346.308 307.528 344.726C308.789 343.144 311.097 342.888 312.679 344.127C312.807 344.234 327.428 355.52 351.325 356.033C379.348 356.632 396.961 341.242 401.086 337.202V300.073C369.729 318.392 322.234 303.023 320.096 302.318C318.172 301.677 317.146 299.625 317.766 297.701C318.408 295.777 320.481 294.751 322.383 295.371C322.896 295.542 374.688 312.257 402.454 290.284L408.375 285.603V340.066L407.456 341.113C406.622 342.075 387.192 363.386 352.928 363.386Z" fill="#000072"/>
<path d="M311.589 523.656C242.056 555.248 143.902 528.38 152.602 450.874C156.257 418.256 186.481 390.597 202.384 365.759C210.656 352.848 216.599 340.836 220.809 330.725C228.248 312.92 230.364 301.1 230.364 301.1L347.414 293.661C347.414 293.661 348.739 297.701 350.663 304.733C352.052 309.778 353.762 316.383 355.536 324.142C356.156 326.835 356.776 329.657 357.374 332.585C359.063 340.643 360.73 349.599 362.141 359.133C364.3 373.71 365.903 389.656 366.138 405.794C366.929 453.931 355.643 503.649 311.589 523.656Z" fill="white"/>
<g opacity="0.3">
<path d="M363.808 444.013C358.593 478.32 343.908 508.993 311.589 523.656C242.056 555.248 143.902 528.38 152.602 450.874C153.692 441.277 157.048 432.128 161.686 423.343C143.389 460.792 188.448 435.89 233.976 464.319C256.613 478.448 246.288 487.917 259.135 494.372C274.161 501.918 303.103 499.118 321.165 488.9C341.044 477.678 355.451 463.4 363.808 444.013Z" fill="#000072"/>
</g>
<path d="M250.392 540.286C247.656 540.286 244.92 540.222 242.184 540.072C217.817 538.725 195.352 531.437 178.936 519.509C156.128 502.944 145.762 479.089 148.968 450.489C151.704 426.122 168.547 404.533 183.382 385.467C189.281 377.9 194.86 370.739 199.306 363.814C221.386 329.336 226.709 300.758 226.773 300.48L227.286 297.658L230.15 297.466L350.042 289.835L350.919 292.528C351.069 292.998 366.245 340.13 369.323 392.007C371.14 422.681 368.468 449.057 361.35 470.39C352.308 497.514 336.085 516.56 313.128 526.969C294.061 535.647 272.066 540.286 250.392 540.286ZM233.378 304.584C231.475 312.834 224.571 337.95 205.462 367.747C200.845 374.95 195.159 382.239 189.153 389.955C174.19 409.129 158.736 428.965 156.235 451.28C152.58 483.899 168.889 503.157 183.211 513.567C214.824 536.524 268.176 539.367 310.071 520.322C348.503 502.858 365.988 459.873 362.012 392.585C359.426 348.638 347.99 308.132 344.784 297.509L233.378 304.584Z" fill="#000072"/>
<path d="M229.723 453.845C229.723 453.845 253.406 502.153 232.651 534.921C220.831 553.581 198.066 559.032 198.066 559.032C198.066 559.032 220.04 564.696 214.012 582.993C209.459 596.865 199.05 597.229 174.533 597.058C148.69 596.865 133.279 594.279 129.218 573.054C124.814 550.054 135.673 533.638 144.223 503.157C148.861 486.635 143.539 461.818 157.176 434.779" fill="white"/>
<g opacity="0.3">
<path d="M213.414 570.104C215.145 573.46 215.743 577.671 214.012 582.972C209.459 596.844 199.05 597.207 174.532 597.036C148.69 596.844 133.279 594.258 129.217 573.032C127.999 566.727 127.956 560.913 128.683 555.163C128.833 556.274 129.004 557.386 129.217 558.54C133.279 579.765 148.669 582.373 174.532 582.544C198.066 582.715 208.583 582.373 213.414 570.104Z" fill="#000072"/>
</g>
<g opacity="0.3">
<path d="M232.651 534.921C227.029 543.791 218.971 549.669 212.024 553.389C202.598 563.05 165.576 557.279 165.576 557.279C165.576 557.279 215.081 549.05 232.672 520.407C237.546 512.456 240.068 503.756 240.88 494.992C241.949 508.266 240.389 522.673 232.651 534.921Z" fill="#000072"/>
</g>
<path d="M180.966 600.734C178.893 600.734 176.755 600.713 174.532 600.713C149.737 600.542 130.371 598.426 125.648 573.738C122.356 556.488 127.122 542.829 133.172 525.537C135.566 518.697 138.28 510.938 140.738 502.153C142.277 496.659 142.641 490.055 143.068 482.424C143.838 468.53 144.821 451.216 153.948 433.112C154.867 431.316 157.069 430.589 158.864 431.487C160.66 432.406 161.387 434.608 160.489 436.403C152.046 453.14 151.169 468.915 150.378 482.808C149.951 490.546 149.545 497.856 147.771 504.119C145.248 513.118 142.491 521.006 140.076 527.952C134.176 544.839 129.901 557.044 132.83 572.348C136.25 590.218 147.942 593.189 174.575 593.381C200.588 593.574 207.022 592.526 210.549 581.839C211.832 577.906 211.682 574.571 210.079 571.6C206.552 565.102 197.254 562.601 197.147 562.559C195.522 562.131 194.39 560.656 194.411 558.968C194.432 557.3 195.587 555.847 197.211 555.441C197.403 555.398 217.496 550.375 228.568 534.408C229.722 532.74 232.01 532.334 233.655 533.489C235.323 534.643 235.729 536.93 234.575 538.576C226.858 549.691 215.7 556.082 207.899 559.416C211.062 561.383 214.354 564.183 216.449 568.031C219.056 572.797 219.398 578.205 217.475 584.083C212.473 599.366 200.481 600.734 180.966 600.734Z" fill="#000072"/>
<path d="M230.813 453.289C233.292 456.111 235.13 459.232 236.755 462.481C238.358 465.73 239.641 469.107 240.667 472.57C241.693 476.032 242.334 479.602 242.954 483.193C243.552 486.763 244.108 490.354 244.429 493.987C244.749 497.621 244.877 501.276 244.792 504.953C244.664 508.629 244.3 512.306 243.68 515.961C242.996 519.616 242.035 523.228 240.752 526.755C239.427 530.261 237.717 533.638 235.75 536.866C234.703 538.597 232.437 539.131 230.727 538.063C228.996 537.015 228.461 534.75 229.53 533.04L229.573 532.954C231.262 530.175 232.736 527.247 233.891 524.19C235.002 521.112 235.879 517.927 236.477 514.657C237.033 511.387 237.353 508.074 237.482 504.718C237.567 501.362 237.439 497.985 237.161 494.629C236.862 491.251 236.392 487.896 235.686 484.561C234.981 481.227 234.062 477.956 233.185 474.643C231.497 468.038 229.744 461.412 228.654 454.358V454.315C228.547 453.631 229.017 452.969 229.701 452.862C230.107 452.819 230.535 452.99 230.813 453.289Z" fill="#000072"/>
<path d="M165.555 557.279C168.227 556.723 170.963 556.317 173.699 555.996C176.435 555.676 179.192 555.44 181.971 555.291C184.728 555.163 187.528 555.077 190.307 555.098C193.107 555.098 195.886 555.227 198.707 555.376C200.738 555.483 202.298 557.236 202.17 559.267C202.063 561.297 200.31 562.858 198.28 562.729C198.002 562.708 197.745 562.665 197.489 562.601L197.425 562.58C194.86 561.853 192.273 561.126 189.666 560.528C187.058 559.908 184.407 559.395 181.757 558.925C179.085 558.454 176.413 558.091 173.72 557.792C171.005 557.557 168.291 557.343 165.555 557.279Z" fill="#000072"/>
<path d="M269.63 557.279C272.302 556.723 275.038 556.317 277.774 555.996C280.51 555.676 283.267 555.44 286.046 555.291C288.803 555.163 291.603 555.077 294.382 555.098C297.182 555.098 299.961 555.227 302.783 555.376C304.813 555.483 306.373 557.236 306.245 559.267C306.138 561.297 304.386 562.858 302.355 562.729C302.077 562.708 301.821 562.665 301.564 562.601L301.5 562.58C298.935 561.853 296.349 561.126 293.741 560.528C291.133 559.908 288.483 559.395 285.832 558.925C283.16 558.454 280.488 558.091 277.774 557.792C275.081 557.557 272.366 557.343 269.63 557.279Z" fill="#000072"/>
<path d="M189.88 573.481C192.402 574.251 194.882 575.939 196.228 578.718C196.912 580.065 197.169 581.732 197.169 583.057C197.211 584.447 197.19 585.879 196.955 587.354C196.72 588.807 196.335 590.303 195.63 591.735C194.924 593.168 193.962 594.493 192.829 595.604C190.521 597.87 187.742 599.217 185.049 600.285C183.318 600.969 181.372 600.114 180.688 598.383C180.004 596.652 180.859 594.707 182.591 594.023C182.783 593.958 182.976 593.894 183.168 593.852C185.477 593.381 187.678 592.697 189.409 591.543C191.141 590.389 192.423 588.679 193.15 586.456C193.556 585.366 193.77 584.169 193.962 582.929L194.176 581.155C194.219 580.599 194.219 580.043 194.133 579.466C193.749 577.158 192.103 574.935 189.88 573.481Z" fill="#000072"/>
<path d="M165.555 574.101C166.666 574.7 167.692 575.512 168.59 576.581C169.017 577.115 169.402 577.713 169.723 578.376C170.043 579.039 170.257 579.808 170.3 580.449C170.578 583.121 170.364 585.815 169.637 588.465C168.889 591.094 167.585 593.745 165.362 595.904C164.251 596.951 162.904 597.87 161.429 598.49C159.954 599.11 158.373 599.452 156.812 599.559H156.663C154.803 599.687 153.2 598.276 153.093 596.417C152.965 594.557 154.376 592.954 156.235 592.847C156.428 592.826 156.62 592.847 156.812 592.868C158.586 593.061 160.275 592.719 161.814 591.693C163.353 590.667 164.657 588.978 165.555 587.012C166.474 585.045 167.03 582.822 167.158 580.578C167.179 580.321 167.158 580.001 167.201 579.765C167.243 579.53 167.265 579.274 167.286 579.017C167.286 578.504 167.243 577.949 167.115 577.393C166.794 576.239 166.303 575.106 165.555 574.101Z" fill="#000072"/>
<path d="M269.63 574.849C270.506 575.704 271.297 576.687 272.002 577.778C272.344 578.333 272.665 578.91 272.943 579.552C273.093 580.193 273.199 580.856 273.264 581.497C273.52 584.105 273.199 586.755 272.344 589.277C271.489 591.799 270.036 594.279 267.792 596.224C265.59 598.191 262.533 599.366 259.541 599.537H259.37C257.51 599.644 255.928 598.212 255.822 596.352C255.715 594.493 257.147 592.911 259.006 592.804C259.177 592.804 259.37 592.804 259.541 592.826C261.251 592.997 262.897 592.697 264.436 591.778C265.953 590.88 267.279 589.363 268.24 587.567C269.202 585.772 269.801 583.698 269.929 581.604C269.972 581.091 269.95 580.556 269.929 580.043C270.015 579.509 270.057 578.953 270.057 578.376C270.036 577.243 269.908 576.046 269.63 574.849Z" fill="#000072"/>
<path d="M294.339 574.229C296.627 575.426 298.764 577.136 300.282 579.616C300.645 580.236 300.966 580.92 301.201 581.625C301.393 582.309 301.521 583.036 301.607 583.763C301.778 585.216 301.692 586.755 301.329 588.208C300.624 591.18 298.828 593.809 296.605 595.797C294.382 597.806 291.796 599.238 289.081 600.285L289.017 600.307C287.286 600.969 285.341 600.093 284.678 598.362C284.015 596.63 284.892 594.685 286.623 594.023C286.794 593.958 287.008 593.894 287.179 593.852C289.359 593.424 291.475 592.697 293.271 591.564C295.088 590.432 296.584 588.893 297.417 586.969C297.845 586.007 298.101 584.981 298.166 583.891C298.187 583.356 298.187 582.801 298.144 582.223L298.08 581.411C298.037 581.133 297.995 580.855 297.952 580.578C297.482 578.312 296.135 576.067 294.339 574.229Z" fill="#000072"/>
<path d="M679.303 384.056C679.303 477.892 565.844 560.442 524.142 587.631C514.929 593.638 503.045 593.638 493.832 587.631C452.108 560.442 338.649 477.914 338.649 384.056C338.649 334.53 378.792 294.366 428.318 294.366C463.757 294.366 494.409 314.929 508.965 344.79C523.522 314.929 554.174 294.366 589.613 294.366C639.161 294.388 679.303 334.53 679.303 384.056Z" fill="#FF1D74"/>
<g opacity="0.4">
<path d="M428.339 304.006C460.637 304.006 488.958 321.085 504.733 346.714C506.678 349.877 511.274 349.877 513.241 346.714C529.037 321.085 557.337 304.006 589.635 304.006C637.622 304.006 676.802 341.691 679.196 389.079C679.26 387.412 679.303 385.744 679.303 384.077C679.303 334.551 639.161 294.388 589.635 294.388C554.195 294.388 523.543 314.95 508.987 344.811C494.431 314.95 463.779 294.388 428.339 294.388C378.813 294.388 338.671 334.53 338.671 384.077C338.671 385.744 338.714 387.412 338.778 389.079C341.172 341.669 380.352 304.006 428.339 304.006Z" fill="white"/>
</g>
<g opacity="0.3">
<path d="M397.388 381.149C396.704 388.972 389.693 392.884 389.693 392.884C389.693 392.884 395.785 415.499 363.338 417.786C355.814 418.32 349.807 419.624 344.357 421.206C340.701 409.086 338.649 396.667 338.649 384.056C338.649 370.29 341.749 357.252 347.285 345.602C363.444 340.643 379.262 345.282 388.325 354.003C394.438 359.859 393.455 368.666 393.455 368.666C393.455 368.666 397.986 374.309 397.388 381.149Z" fill="#000072"/>
</g>
<g opacity="0.3">
<path d="M400.851 310.462C400.851 310.462 398.991 325.125 411.154 330.939C415.835 333.162 423.744 330.276 423.744 330.276C423.744 330.276 427.057 335.62 438.599 334.402C445.824 333.632 453.54 327.177 453.54 327.177C453.54 327.177 460.231 329.165 465.917 325.659C473.868 320.722 475.471 304.434 466.152 297.231C457.153 290.262 408.14 282.781 400.851 310.462Z" fill="#000072"/>
</g>
<g opacity="0.3">
<path d="M232.074 352.955C232.074 352.955 219.249 426.998 278.351 433.261C308.917 436.489 315.415 422.616 350.962 419.538C386.509 416.46 376.291 368.666 376.291 368.666L232.074 352.955Z" fill="#000072"/>
</g>
<g opacity="0.3">
<path d="M341.877 372.3C341.877 466.157 455.336 548.686 497.039 575.875C506.23 581.86 518.114 581.881 527.327 575.896C551.481 560.164 599.703 525.836 635.997 481.504C635.997 481.504 635.997 481.504 636.019 481.504C619.282 491.914 596.732 497.899 581.342 498.498C435.008 504.098 396.704 437.579 381.186 382.41C363.103 318.093 403.181 297.979 403.181 297.979C403.181 297.979 372.572 306.251 354.638 332.991C350.043 339.617 346.323 346.885 343.63 354.644C342.476 360.351 341.877 366.251 341.877 372.3Z" fill="#000072"/>
</g>
<path d="M508.987 595.797C503.024 595.797 497.039 594.108 491.844 590.71C471.367 577.372 431.952 549.584 397.944 513.353C356.177 468.872 335.016 425.374 335.016 384.056C335.016 332.585 376.89 290.711 428.361 290.711C462.005 290.711 492.315 308.282 509.009 337.031C525.702 308.303 556.012 290.711 589.656 290.711C641.127 290.711 683.001 332.585 683.001 384.056C683.001 425.374 661.818 468.872 620.073 513.353C586.065 549.584 546.65 577.372 526.173 590.71C520.914 594.087 514.951 595.797 508.987 595.797ZM428.339 298.043C380.908 298.043 342.326 336.625 342.326 384.056C342.326 423.45 362.825 465.26 403.288 508.33C436.783 544.005 475.664 571.408 495.842 584.554C503.836 589.769 514.16 589.769 522.154 584.554C542.354 571.387 581.213 544.005 614.708 508.33C655.149 465.26 675.669 423.429 675.669 384.056C675.669 336.625 637.088 298.043 589.656 298.043C556.482 298.043 526.857 316.575 512.3 346.415C511.681 347.676 510.419 348.467 509.009 348.467C507.598 348.467 506.337 347.676 505.717 346.415C491.139 316.575 461.513 298.043 428.339 298.043Z" fill="#000072"/>
<path d="M378.728 257.43C378.749 256.982 378.749 256.618 378.77 256.383L378.728 257.43Z" fill="white"/>
<path d="M158.009 278.378C158.052 278.442 158.095 278.485 158.137 278.549L157.988 278.335C157.988 278.357 158.009 278.357 158.009 278.378Z" fill="#000072"/>
<path d="M158.138 278.549L162.626 284.641C161.087 282.674 159.57 280.665 158.138 278.549Z" fill="#000072"/>
<path d="M431.438 256.832L431.31 257.089C431.331 257.024 431.374 256.939 431.417 256.875C431.417 256.853 431.438 256.853 431.438 256.832Z" fill="#000072"/>
<path d="M158.052 277.929L162.391 282.46C160.916 281.007 159.442 279.489 158.052 277.929Z" fill="white"/>
<path d="M431.289 256.426C430.156 258.2 428.959 259.91 427.698 261.577L431.289 256.426Z" fill="white"/>
<g opacity="0.3">
<path d="M390.27 301.078C379.626 310.141 367.955 317.9 355.557 324.142C341.813 331.089 327.193 336.197 312.145 339.233C282.241 345.26 250.649 343.08 220.852 330.725C228.291 312.92 230.407 301.1 230.407 301.1L347.456 293.661C347.456 293.661 348.781 297.701 350.705 304.733C363.039 305.952 377.488 305.674 390.27 301.078Z" fill="#000072"/>
</g>
<path d="M461.556 226.244C461.321 232.828 447.512 227.698 444.499 226.501C444.242 226.394 444.028 226.672 444.114 226.928C444.456 228.04 445.396 230.519 447.534 234.431C450.163 239.24 452.3 242.981 451.488 245.696C450.612 248.56 446.187 249.992 440.48 249.8C437.295 249.693 434.132 252.707 431.374 256.276L431.353 256.319C430.028 258.05 428.788 259.91 427.698 261.599L427.612 261.705C422.995 267.883 417.694 273.483 411.816 278.485C404.228 284.769 395.699 289.92 386.636 294.153C386.636 294.153 344.015 313.796 298.593 317.366C253.192 320.936 208.006 308.196 208.006 308.196C198.387 305.439 189.174 301.677 180.688 296.654C174.105 292.614 167.97 287.933 162.455 282.546C162.434 282.546 162.434 282.525 162.413 282.503C162.391 282.482 162.37 282.461 162.349 282.439C161.023 280.943 159.506 279.297 157.903 277.801C154.632 274.701 150.998 272.179 147.856 272.799C142.256 273.868 137.66 273.162 136.357 270.448C135.138 267.904 136.656 263.886 138.515 258.713C140.012 254.523 140.546 251.937 140.717 250.783C140.76 250.505 140.503 250.291 140.268 250.419C137.489 252.087 124.664 259.311 123.382 252.835C122.677 249.244 127.678 237.851 128.854 226.501C132.21 193.583 133.428 187.043 133.428 187.043C133.45 186.829 137.361 163.103 144.607 145.297C135.929 132.921 99.0572 77.7308 114.853 54.3679C117.183 50.9479 123.553 49.6654 132.017 49.7723C156.513 50.0502 198.451 61.6354 209.951 64.9699C225.768 55.8855 244.001 49.6227 264.628 47.1004C266.83 46.8226 271.553 46.0958 277.111 45.6683C282.049 45.2836 287.884 45.1767 289.872 45.1125C310.627 44.3858 329.629 47.7203 346.665 54.2183C361.243 47.3783 427.954 17.1113 438.941 28.8675C439.091 29.0172 439.24 29.1882 439.39 29.3592C457.794 50.3922 430.37 109.857 423.786 123.345C433.726 139.804 441.292 162.611 441.356 162.825C441.356 162.825 443.579 169.109 452.044 201.086C454.972 212.115 461.684 222.589 461.556 226.244Z" fill="white"/>
<path d="M391.938 171.631C409.422 171.631 425.817 166.971 439.946 158.806C437.317 151.496 431.203 135.657 423.786 123.345C430.37 109.857 457.794 50.4136 439.39 29.3592C439.24 29.1882 439.091 29.0385 438.941 28.8675C427.954 17.1113 361.264 47.3783 346.665 54.2183C332.622 48.8532 317.21 45.6469 300.602 45.1125C297.46 54.6672 295.75 64.863 295.75 75.4437C295.75 128.561 338.821 171.631 391.938 171.631Z" fill="#FFB531"/>
<g opacity="0.3">
<path d="M447.534 234.431C450.184 239.262 452.322 242.981 451.509 245.695C450.633 248.56 446.208 249.992 440.501 249.799C437.316 249.693 434.153 252.728 431.396 256.297L431.203 256.575C431.267 256.49 431.31 256.426 431.353 256.34C430.028 258.072 428.788 259.91 427.698 261.598C427.676 261.62 427.676 261.641 427.655 261.684C427.634 261.684 427.634 261.705 427.634 261.705C423.017 267.883 417.716 273.483 411.837 278.485C404.249 284.769 395.721 289.942 386.658 294.153C386.658 294.153 344.036 313.796 298.614 317.366C253.192 320.936 208.048 308.196 208.048 308.196C198.429 305.439 189.195 301.677 180.731 296.653C174.147 292.614 168.013 287.932 162.498 282.546C162.498 282.546 162.477 282.525 162.477 282.503C161.13 281.007 159.634 279.382 158.052 277.886C158.031 277.865 158.009 277.844 157.988 277.822L157.967 277.801C154.696 274.701 151.105 272.222 147.963 272.82C142.384 273.91 137.767 273.184 136.463 270.49C135.224 267.947 136.763 263.928 138.622 258.756C138.622 258.734 138.644 258.713 138.644 258.692C140.76 259.29 143.645 259.269 146.852 258.649C149.972 258.05 153.585 260.53 156.855 263.629C156.855 263.629 156.876 263.65 156.898 263.65C158.501 265.168 160.019 266.835 161.387 268.353L161.429 268.396C166.944 273.782 173.079 278.485 179.662 282.525C188.148 287.548 197.361 291.31 206.979 294.067C206.979 294.067 252.145 306.807 297.545 303.237C342.967 299.667 385.589 280.024 385.589 280.024C394.652 275.791 403.181 270.64 410.769 264.356C416.647 259.333 421.948 253.754 426.565 247.555L426.608 247.512C426.629 247.491 426.65 247.47 426.65 247.427C427.74 245.738 428.959 243.9 430.305 242.169L430.327 242.147C433.084 238.578 436.248 235.542 439.433 235.649C442.703 235.756 445.546 235.329 447.555 234.409C447.512 234.388 447.512 234.41 447.534 234.431Z" fill="#000072"/>
</g>
<path d="M157.967 277.822C157.988 277.844 158.01 277.865 158.031 277.886C158.074 277.929 158.095 277.972 158.138 278.015L157.967 277.822Z" fill="#000072"/>
<path d="M162.37 282.439C160.916 281.007 159.506 279.532 158.138 277.993L162.37 282.439Z" fill="#000072"/>
<path d="M427.719 261.577L431.203 256.554C430.113 258.285 428.938 259.953 427.719 261.577Z" fill="#000072"/>
<path d="M431.567 258.927L431.588 258.905L431.417 259.14C431.481 259.076 431.524 259.012 431.567 258.927Z" fill="white"/>
<path d="M405.318 109.879C394.054 91.5603 382.319 80.5308 376.847 75.9566C375.286 74.6527 375.222 72.0022 376.74 70.6983C391.617 58.023 412.009 50.9478 419.789 48.5752C422.739 47.6775 425.817 49.7081 426.586 53.1067C427.441 56.9115 427.506 63.3667 425.112 74.268C421.606 90.1068 413.932 103.744 409.999 110.007C408.867 111.824 406.473 111.76 405.318 109.879Z" fill="#FA508E"/>
<path d="M407.755 114.004H407.733C405.852 113.983 404.1 112.978 403.074 111.268C400.38 106.908 397.495 102.675 394.481 98.6996C386.294 87.9052 378.877 81.1079 375.158 78.0086C373.79 76.8543 372.999 75.1229 372.999 73.2633C372.999 71.4464 373.747 69.7792 375.051 68.6677C385.204 60.0108 397.773 54.0044 406.515 50.4776C410.619 48.8103 414.937 47.2713 419.062 46.0102C421.093 45.3903 423.23 45.6468 425.111 46.7369C427.185 47.9339 428.681 50.0501 429.258 52.5296C430.412 57.6809 429.921 65.2049 427.762 74.8451C424.214 90.8977 416.561 104.663 412.308 111.439C411.26 113.042 409.572 114.004 407.755 114.004ZM421.242 51.0333C421.05 51.0333 420.836 51.0547 420.623 51.1188C416.668 52.3372 412.479 53.8121 408.524 55.4152C400.145 58.7924 388.133 64.5423 378.514 72.7289C378.407 72.8144 378.343 73.0282 378.343 73.2419C378.343 73.5198 378.45 73.7763 378.599 73.9046C382.468 77.1322 390.227 84.2501 398.735 95.4719C401.855 99.5973 404.826 103.958 407.605 108.468C407.648 108.553 407.691 108.596 407.733 108.618C407.733 108.618 407.755 108.596 407.755 108.575C411.816 102.098 419.148 88.9312 422.525 73.6694C424.983 62.5972 424.684 56.6977 424.021 53.6838C423.786 52.6578 423.209 51.8028 422.418 51.3539C422.119 51.1829 421.713 51.0333 421.242 51.0333Z" fill="#000072"/>
<g opacity="0.3">
<path d="M405.682 72.1091C403.587 81.5996 399.996 90.2992 396.597 97.0751C388.411 86.2593 380.929 79.3338 376.868 75.9352C375.308 74.6313 375.244 71.9808 376.761 70.6769C386.337 62.5117 398.179 56.6763 407.499 52.9143C407.99 56.9114 407.712 62.9392 405.682 72.1091Z" fill="#000072"/>
</g>
<path d="M160.809 129.116C169.06 109.259 178.935 96.5407 183.617 91.1542C184.963 89.6152 184.6 86.986 182.89 85.9387C166.217 75.7428 144.949 71.938 136.891 70.8052C133.856 70.3777 131.12 72.8785 130.906 76.3413C130.649 80.2315 131.59 86.6227 135.672 97.0109C141.615 112.102 151.319 124.371 156.192 129.95C157.603 131.596 159.954 131.147 160.809 129.116Z" fill="#FA508E"/>
<path d="M158.266 133.626C156.748 133.626 155.252 132.942 154.205 131.724C148.947 125.696 139.221 113.299 133.215 97.9942C129.581 88.8029 127.914 81.4499 128.256 76.1917C128.427 73.6481 129.581 71.3396 131.44 69.8219C133.129 68.4539 135.202 67.8768 137.297 68.1547C141.551 68.7532 146.082 69.6082 150.379 70.5914C159.57 72.7075 172.929 76.6833 184.301 83.6516C185.754 84.5493 186.759 86.0883 187.037 87.8624C187.315 89.7007 186.823 91.5176 185.647 92.8642C182.463 96.5193 176.2 104.407 169.809 116.334C167.457 120.737 165.256 125.376 163.289 130.099C162.541 131.938 160.981 133.22 159.121 133.519C158.822 133.605 158.544 133.626 158.266 133.626ZM136.228 73.4557C135.609 73.4557 135.117 73.7336 134.796 73.9901C134.091 74.5672 133.642 75.5077 133.578 76.5551C133.386 79.6331 134.027 85.5112 138.174 96.0491C143.881 110.605 153.179 122.447 158.223 128.218C158.245 128.24 158.245 128.261 158.266 128.261C158.266 128.24 158.309 128.176 158.352 128.09C160.404 123.195 162.669 118.407 165.085 113.854C171.732 101.457 178.294 93.2062 181.608 89.4014C181.736 89.2518 181.779 88.9953 181.736 88.7174C181.693 88.5037 181.608 88.3113 181.479 88.2258C170.706 81.6423 157.945 77.8375 149.139 75.8283C144.971 74.8664 140.61 74.0542 136.506 73.4557C136.421 73.4557 136.314 73.4557 136.228 73.4557Z" fill="#000072"/>
<g opacity="0.3">
<path d="M154.568 91.8596C158.116 100.901 163.033 108.917 167.436 115.094C173.848 103.124 180.154 95.1086 183.617 91.1328C184.942 89.5938 184.6 86.9647 182.89 85.9387C172.16 79.3766 159.549 75.465 149.759 73.1992C149.908 77.1963 151.105 83.1172 154.568 91.8596Z" fill="#000072"/>
</g>
<path d="M273.349 319.076C263.345 319.354 253.363 318.884 243.424 318.071C233.335 317.174 223.524 315.57 213.649 313.347L209.972 312.535L208.134 312.129C207.535 312.001 206.915 311.851 206.253 311.659C203.709 310.932 201.337 310.205 198.9 309.372C194.069 307.726 189.324 305.717 184.728 303.429C182.42 302.275 180.175 301.057 177.931 299.667C175.729 298.299 173.613 296.867 171.518 295.35C169.424 293.853 167.414 292.25 165.427 290.604C164.443 289.771 163.46 288.937 162.52 288.061L161.109 286.757L160.403 286.094L160.061 285.752L159.89 285.581L159.805 285.496L159.762 285.453C159.677 285.368 159.955 285.645 160.147 285.774C160.339 285.923 160.574 286.052 160.788 286.158L159.719 285.41L155.038 280.494L155.231 280.708L155.188 280.686L160.724 275.214L165.256 280.002L159.591 285.239C157.732 283.145 155.872 281.135 153.948 279.468C152.986 278.634 152.003 277.908 151.084 277.395C150.165 276.86 149.31 276.604 148.861 276.604C148.797 276.604 148.775 276.625 148.711 276.625H148.647H148.604L148.455 276.647L147.258 276.839C146.446 276.946 145.633 277.053 144.8 277.095C143.111 277.181 141.401 277.181 139.499 276.753C138.558 276.561 137.554 276.24 136.506 275.685C135.48 275.15 134.369 274.317 133.556 273.077C132.701 271.816 132.381 270.469 132.274 269.315C132.188 268.161 132.295 267.177 132.424 266.258C132.723 264.441 133.214 262.967 133.685 261.513C134.176 260.081 134.668 258.713 135.138 257.388C135.587 256.105 136.015 254.823 136.378 253.54C136.549 252.899 136.72 252.258 136.87 251.638L137.062 250.719L137.105 250.505L137.126 250.398V250.355C137.105 250.419 137.083 250.676 137.083 250.826C137.083 251.552 137.318 252.343 137.896 253.006C138.43 253.647 139.456 254.224 140.653 254.16C141.23 254.139 141.786 253.925 142.171 253.69L142.042 253.754L141.786 253.904L141.294 254.181L140.29 254.737C139.627 255.101 138.943 255.464 138.259 255.806C136.891 256.49 135.48 257.131 134.005 257.708C132.509 258.264 130.949 258.777 129.132 259.098C128.213 259.226 127.208 259.333 126.032 259.205C124.878 259.098 123.403 258.734 122.078 257.623C121.757 257.366 121.458 257.046 121.18 256.725C120.945 256.404 120.71 256.041 120.518 255.699C120.347 255.357 120.197 255.015 120.069 254.673C119.962 254.352 119.876 254.01 119.812 253.69C119.577 252.236 119.705 251.189 119.812 250.355C120.069 248.603 120.432 247.149 120.817 245.717C121.565 242.853 122.377 240.138 123.061 237.423C123.767 234.709 124.365 232.016 124.793 229.344C124.9 228.681 125.006 227.997 125.071 227.334C125.156 226.672 125.242 226.009 125.306 225.261L125.755 220.965L127.614 203.822L128.619 195.229L129.175 190.933L129.474 188.774C129.581 188.026 129.666 187.363 129.816 186.508L129.773 186.765L129.923 185.888L130.051 185.204L130.286 183.836L130.799 181.143C131.141 179.348 131.526 177.552 131.911 175.778C132.68 172.208 133.535 168.66 134.433 165.112C136.271 158.015 138.409 150.983 141.187 144.057L141.572 147.542C136.784 140.68 132.317 133.669 128.106 126.466C123.916 119.262 119.983 111.867 116.563 104.172C113.143 96.4981 110.194 88.5038 108.462 80.0179C107.629 75.7643 107.116 71.3611 107.351 66.8296C107.607 62.3194 108.697 57.5528 111.241 53.3633L111.711 52.5724C111.861 52.3159 112.181 51.9312 112.438 51.6105C112.972 50.9907 113.571 50.4563 114.169 50.0074C115.366 49.1097 116.606 48.5325 117.803 48.0837C120.197 47.2073 122.484 46.8226 124.707 46.5661C129.175 46.0958 133.45 46.2027 137.682 46.4805C146.146 47.0577 154.397 48.3615 162.584 49.9005C178.936 53.0213 194.988 57.0398 210.955 61.614L208.112 61.9561C213.349 58.9636 218.779 56.2917 224.357 53.9618C229.936 51.6533 235.643 49.7082 241.457 48.0837C247.271 46.5019 253.171 45.2408 259.113 44.3217C260.588 44.0652 262.084 43.9155 263.581 43.7018L267.941 43.1247C270.891 42.7399 273.883 42.3979 276.897 42.1842L285.811 41.7994C288.782 41.6712 291.774 41.5429 294.788 41.5429C300.794 41.5216 306.822 41.8422 312.829 42.5048C318.814 43.1888 324.777 44.2362 330.634 45.6255C336.491 47.0363 342.283 48.8318 347.926 50.9693L345.062 51.0762C360.11 44.0865 375.329 37.5885 390.997 31.9455C398.842 29.1668 406.793 26.5804 415.065 24.678C419.212 23.7375 423.423 22.9681 427.912 22.7329C430.156 22.6261 432.464 22.6474 434.965 23.1604C436.205 23.4169 437.53 23.8017 438.856 24.507C439.518 24.849 440.181 25.2979 440.822 25.8323C441.1 26.1102 441.485 26.4308 441.677 26.6659L442.254 27.3713C445.439 31.1119 447.256 35.6434 448.196 40.0467C449.158 44.4927 449.329 48.9173 449.158 53.2564C448.774 61.9133 447.106 70.2709 444.926 78.3721C442.746 86.4946 440.031 94.4033 436.996 102.184C433.961 109.964 430.626 117.595 426.992 125.098L426.843 121.592C430.669 128.005 433.875 134.61 436.803 141.321C438.257 144.677 439.646 148.055 440.972 151.475C441.634 153.185 442.275 154.895 442.895 156.605L443.836 159.191L444.285 160.495L444.52 161.157L444.798 162.012L444.712 161.756C444.99 162.59 445.183 163.231 445.418 163.936L446.059 166.031L447.277 170.199L449.628 178.514L454.139 195.165L455.25 199.333C455.443 200.039 455.614 200.701 455.806 201.342C455.977 201.984 456.191 202.625 456.404 203.266C457.238 205.831 458.264 208.396 459.376 210.983C460.487 213.569 461.705 216.113 462.902 218.827C463.501 220.195 464.099 221.563 464.612 223.252C464.869 224.064 465.147 225.09 465.147 226.565C465.125 226.907 465.083 227.249 465.04 227.57C464.976 227.933 464.869 228.296 464.762 228.66C464.634 229.023 464.441 229.408 464.249 229.771C464.014 230.135 463.779 230.498 463.501 230.797C462.368 232.08 460.957 232.678 459.846 232.977C458.713 233.277 457.708 233.341 456.768 233.341C454.93 233.319 453.305 233.063 451.745 232.742C450.184 232.4 448.709 231.994 447.235 231.524C446.508 231.289 445.781 231.054 445.076 230.797L444.007 230.412L443.473 230.199L443.195 230.092L443.066 230.049C443.473 230.22 444.05 230.327 444.648 230.263C445.845 230.156 446.764 229.408 447.192 228.702C447.641 227.976 447.769 227.142 447.641 226.437C447.619 226.287 447.555 226.052 447.534 225.988L447.555 226.031L447.598 226.137L447.662 226.351L447.983 227.228C448.218 227.826 448.474 228.425 448.752 229.023C449.308 230.22 449.906 231.438 450.569 232.635C451.232 233.875 451.958 235.136 452.642 236.483C453.326 237.851 454.032 239.24 454.609 240.972C454.887 241.848 455.143 242.81 455.229 243.964C455.314 245.118 455.186 246.508 454.545 247.854C453.925 249.18 452.984 250.163 452.044 250.847C451.103 251.552 450.163 252.023 449.265 252.365C447.448 253.07 445.76 253.326 444.092 253.497C443.259 253.583 442.447 253.604 441.634 253.626L440.416 253.604H440.266H440.223L440.159 253.626C440.117 253.626 440.052 253.626 440.01 253.626C439.539 253.69 438.727 254.075 437.872 254.759C437.017 255.421 436.162 256.298 435.329 257.259C433.661 259.205 432.122 261.492 430.605 263.843L424.534 259.782L428.296 254.352L434.238 258.627L434.217 258.649L434.367 258.435L430.519 263.993L429.643 264.826C429.814 264.719 429.985 264.591 430.135 264.441C430.199 264.377 430.284 264.292 430.348 264.206L430.498 264.014L430.455 264.057L430.391 264.142L430.263 264.313L430.006 264.655L429.493 265.339L428.425 266.686C427.719 267.584 426.992 268.46 426.244 269.336C424.769 271.068 423.23 272.756 421.627 274.402C420.045 276.048 418.4 277.63 416.732 279.169C415.087 280.686 413.27 282.247 411.474 283.636C404.271 289.236 396.448 294.003 388.218 297.829L383.131 300.202L382.682 294.602V294.537L388.197 297.765C382.618 300.266 377.146 302.446 371.503 304.434C368.703 305.439 365.86 306.358 363.038 307.256C361.628 307.704 360.153 308.175 358.699 308.581L354.36 309.671C351.475 310.419 348.568 311.06 345.682 311.68C342.796 312.321 339.889 312.877 336.961 313.412C331.126 314.459 325.269 315.378 319.369 315.955C318.685 316.019 318.087 315.528 318.023 314.844C317.959 314.267 318.322 313.754 318.835 313.561C324.435 311.616 330.035 309.885 335.657 308.111L352.436 302.895L356.605 301.591L360.666 300.18C363.402 299.219 366.138 298.171 368.852 297.167C374.26 295.093 379.754 292.956 384.926 290.669L390.035 288.403L390.463 293.918V293.982L384.926 290.754C392.686 287.142 400.167 282.931 406.9 277.737C408.61 276.433 410.149 275.15 411.752 273.697C413.334 272.265 414.873 270.811 416.369 269.294C417.865 267.776 419.276 266.194 420.665 264.591C421.349 263.779 422.033 262.967 422.696 262.133L423.679 260.872L424.171 260.231L424.406 259.91L424.534 259.76L424.598 259.675L424.62 259.632L424.791 259.418C424.855 259.333 424.94 259.247 425.026 259.162C425.176 259.012 425.368 258.863 425.539 258.734L424.663 259.568L428.211 254.438L428.36 254.224L428.382 254.203L434.324 258.478L430.562 263.907L424.47 259.846C426.052 257.388 427.741 254.887 429.793 252.471C430.84 251.274 431.973 250.077 433.383 248.966C434.794 247.876 436.526 246.786 438.92 246.38C439.219 246.337 439.54 246.315 439.839 246.315L440.309 246.294H440.544H440.672H441.613C442.233 246.294 442.853 246.251 443.451 246.209C444.627 246.102 445.802 245.888 446.657 245.525C447.577 245.204 448.004 244.691 447.918 244.755C447.897 244.798 447.94 244.712 447.94 244.434C447.919 244.157 447.812 243.708 447.662 243.216C447.341 242.211 446.764 241.036 446.144 239.839C445.525 238.642 444.841 237.402 444.135 236.12C443.408 234.794 442.724 233.448 442.083 232.037C441.763 231.332 441.463 230.626 441.164 229.878C441.014 229.515 440.886 229.13 440.737 228.724L440.63 228.425L440.587 228.275L440.566 228.189C440.523 228.083 440.459 227.805 440.416 227.612C440.266 226.715 440.416 225.71 440.972 224.834C441.249 224.385 441.634 223.979 442.126 223.637C442.639 223.295 443.259 223.059 443.943 222.995C444.605 222.931 445.289 223.059 445.781 223.252L445.888 223.295L446.123 223.38L446.593 223.551L447.534 223.893C448.175 224.128 448.816 224.342 449.436 224.534C450.719 224.94 452.001 225.282 453.241 225.56C454.481 225.817 455.72 225.988 456.746 226.009C457.238 226.009 457.687 225.945 457.943 225.881C458.2 225.817 458.157 225.753 457.965 225.966C457.772 226.18 457.772 226.415 457.794 226.244C457.772 226.266 457.751 225.881 457.559 225.325C457.238 224.278 456.704 222.995 456.148 221.734C455.036 219.191 453.775 216.561 452.621 213.868C451.445 211.175 450.334 208.396 449.393 205.511C449.158 204.784 448.923 204.078 448.731 203.33C448.517 202.582 448.303 201.855 448.132 201.193L447.021 197.046L442.511 180.459L440.181 172.208L438.984 168.104L438.364 166.074L437.765 164.171L437.68 163.915L436.889 161.606L435.991 159.105C435.371 157.438 434.752 155.771 434.11 154.104C432.828 150.791 431.46 147.499 430.049 144.228C427.206 137.73 424.107 131.339 420.516 125.354L419.49 123.644L420.366 121.87C423.914 114.56 427.185 107.079 430.135 99.5119C433.084 91.9238 435.713 84.2502 437.808 76.4483C439.903 68.6678 441.442 60.7591 441.784 52.9358C441.934 49.0456 441.762 45.1767 440.972 41.5643C440.202 37.9519 438.77 34.6388 436.611 32.0952L436.226 31.6036C436.098 31.4326 436.055 31.4539 435.991 31.3684C435.82 31.2402 435.628 31.0906 435.393 30.9623C434.901 30.7058 434.217 30.4707 433.448 30.3211C431.909 30.0004 430.07 29.9577 428.211 30.0432C424.449 30.2355 420.537 30.9409 416.647 31.8173C408.845 33.6128 401.086 36.1137 393.412 38.8283C378.065 44.3431 362.953 50.7769 348.119 57.6811L346.708 58.3437L345.254 57.7879C339.911 55.7573 334.417 54.0687 328.86 52.7221C323.281 51.3968 317.638 50.4135 311.931 49.7509C306.224 49.131 300.495 48.8318 294.745 48.8318C291.881 48.8318 288.995 48.9387 286.088 49.0883L277.389 49.4517C274.546 49.6654 271.682 49.9861 268.817 50.3708L264.436 50.9479C263.003 51.1617 261.571 51.3113 260.161 51.5464C254.475 52.4228 248.853 53.6198 243.338 55.1374C237.824 56.6764 232.394 58.536 227.093 60.7163C221.814 62.9179 216.662 65.4616 211.682 68.2831L210.335 69.0525L208.839 68.625C193.107 64.1363 177.183 60.1178 161.152 57.0825C153.136 55.5863 145.099 54.3252 137.105 53.7908C133.129 53.5343 129.153 53.4488 125.413 53.8549C123.553 54.0473 121.757 54.3893 120.283 54.945C119.556 55.2229 118.915 55.5435 118.466 55.8855C118.231 56.0565 118.06 56.2275 117.931 56.3772C117.867 56.484 117.824 56.484 117.739 56.655L117.418 57.2108C115.666 60.0751 114.789 63.5592 114.597 67.2571C114.383 70.9549 114.811 74.8024 115.58 78.6286C117.14 86.2808 119.898 93.8689 123.19 101.222C126.46 108.596 130.286 115.778 134.369 122.789C138.473 129.8 142.876 136.683 147.514 143.352L148.647 144.977L147.899 146.836C145.313 153.313 143.239 160.089 141.444 166.971C140.546 170.413 139.734 173.876 138.986 177.36C138.601 179.091 138.238 180.844 137.917 182.597L137.425 185.204L136.998 187.598L136.955 187.855L136.656 189.843L136.357 191.937L135.822 196.17L134.818 204.677L132.958 221.756L132.509 226.031C132.445 226.736 132.359 227.484 132.253 228.254C132.167 229.023 132.06 229.771 131.932 230.519C131.462 233.512 130.778 236.419 130.051 239.262C129.324 242.105 128.491 244.905 127.807 247.577C127.443 248.902 127.123 250.248 126.973 251.339C126.866 251.916 126.93 252.3 126.887 252.279C126.93 252.45 126.887 252.215 126.674 252.023C126.46 251.852 126.417 251.916 126.695 251.937C126.952 251.958 127.4 251.958 127.892 251.873C128.918 251.702 130.094 251.339 131.291 250.89C132.488 250.419 133.685 249.885 134.882 249.287C135.48 248.987 136.079 248.667 136.677 248.346L137.554 247.854L137.981 247.598L138.195 247.47L138.302 247.406C138.751 247.128 139.392 246.893 140.076 246.85C140.76 246.807 141.422 246.957 141.978 247.213C142.534 247.47 142.961 247.833 143.303 248.218C143.987 249.009 144.287 249.992 144.287 250.89C144.287 251.082 144.265 251.381 144.244 251.488L144.223 251.574L144.201 251.723L144.158 252.044C144.094 252.45 144.009 252.856 143.923 253.241C143.752 254.01 143.56 254.78 143.346 255.528C142.94 257.024 142.47 258.456 141.978 259.867C141.487 261.257 141.016 262.582 140.589 263.864C140.161 265.147 139.798 266.408 139.648 267.434C139.563 267.947 139.541 268.396 139.563 268.674C139.584 268.93 139.648 269.016 139.627 268.952C139.541 268.887 140.012 269.315 140.974 269.486C141.871 269.7 143.047 269.721 144.223 269.636C144.821 269.593 145.42 269.529 146.039 269.443C146.339 269.4 146.659 269.336 146.959 269.272L147.065 269.251L147.301 269.229L147.771 269.165C148.07 269.144 148.391 269.101 148.69 269.101C151.127 269.123 153.05 269.935 154.611 270.79C156.193 271.666 157.518 272.671 158.758 273.697C161.194 275.77 163.246 277.972 165.213 280.131L159.548 285.368L154.953 280.622L160.489 275.15L160.532 275.172L160.724 275.385L165.042 279.874L163.973 279.126C164.208 279.233 164.443 279.383 164.657 279.554C164.849 279.682 165.149 279.981 165.085 279.917L165.127 279.96L165.213 280.045L165.384 280.195L165.704 280.494L166.346 281.114L167.65 282.332C168.526 283.123 169.424 283.914 170.343 284.684C172.181 286.201 174.062 287.676 175.986 289.087C177.91 290.476 179.919 291.823 181.928 293.063C183.916 294.281 186.011 295.435 188.127 296.525C192.38 298.727 196.805 300.608 201.315 302.254C203.56 303.087 205.911 303.857 208.112 304.541C208.647 304.712 209.245 304.862 209.844 305.011L211.639 305.46L215.209 306.336C217.603 306.935 219.976 307.576 222.327 308.111L229.53 309.671C234.34 310.697 239.17 311.659 243.98 312.428C253.727 313.967 263.516 315.421 273.328 316.746C273.99 316.832 274.46 317.451 274.375 318.114C274.46 318.606 273.947 319.055 273.349 319.076Z" fill="#000072"/>
<path d="M153.799 261.769C153.863 261.834 153.906 261.876 153.97 261.94L153.777 261.748C153.777 261.769 153.799 261.769 153.799 261.769Z" fill="#000072"/>
<path d="M427.206 240.266L427.228 240.245L427.035 240.501C427.099 240.416 427.163 240.352 427.206 240.266Z" fill="#000072"/>
<g opacity="0.3">
<path d="M154.824 274.744C154.889 274.808 154.953 274.873 154.995 274.915L154.782 274.723C154.803 274.744 154.824 274.744 154.824 274.744Z" fill="#000072"/>
<path d="M154.996 274.937L159.313 279.062C159.292 279.062 159.292 279.041 159.271 279.041C157.817 277.715 156.385 276.347 154.996 274.937Z" fill="#000072"/>
</g>
<path d="M153.799 261.577C153.863 261.641 153.927 261.705 153.97 261.748L153.756 261.534C153.756 261.556 153.777 261.556 153.799 261.577Z" fill="#0F2675"/>
<path d="M427.142 240.117C427.163 240.095 427.163 240.074 427.185 240.074L427.035 240.266C427.078 240.202 427.099 240.159 427.142 240.117Z" fill="#0F2675"/>
<path d="M304.45 222.29C304.685 225.389 300.859 228.446 297.311 230.605C293.591 232.849 289.231 233.191 285.191 231.567C281.344 230.006 277.069 227.57 276.833 224.47C276.107 215.108 303.723 212.949 304.45 222.29Z" fill="#000072"/>
<g opacity="0.4">
<path d="M295.942 220.601C295.985 221.264 294.446 221.991 292.993 222.504C291.496 223.038 289.765 223.188 288.183 222.889C286.687 222.611 285.02 222.14 284.977 221.478C284.827 219.447 295.771 218.592 295.942 220.601Z" fill="white"/>
</g>
<path d="M270.378 238.898C271.169 239.924 272.173 241.1 273.178 241.977C274.204 242.896 275.294 243.644 276.384 244.093C277.496 244.584 278.607 244.755 279.74 244.755C280.317 244.648 280.894 244.67 281.472 244.456C281.771 244.37 282.049 244.328 282.348 244.221L283.224 243.858C285.554 242.874 287.221 241.1 288.312 238.706C289.38 236.355 289.786 233.298 289.786 230.541V230.348C289.786 229.344 290.599 228.51 291.603 228.51C292.458 228.51 293.164 229.087 293.377 229.878C293.848 231.695 293.997 233.362 293.976 235.158C293.933 236.932 293.719 238.749 293.078 240.502C291.967 244.05 289.102 247.427 285.554 248.923L284.229 249.501C283.78 249.672 283.288 249.778 282.818 249.907C281.899 250.206 280.852 250.227 279.847 250.313C277.795 250.334 275.743 249.757 274.012 248.817C272.28 247.855 270.848 246.572 269.715 245.161C268.582 243.708 267.706 242.254 267.065 240.459C266.723 239.518 267.214 238.45 268.155 238.108C268.924 237.83 269.758 238.086 270.228 238.706L270.378 238.898Z" fill="#000072"/>
<path d="M317.766 236.483C317.403 238.364 316.762 239.924 315.885 241.549C314.988 243.131 313.791 244.627 312.209 245.845C310.649 247.042 308.703 247.919 306.673 248.239C305.668 248.303 304.642 248.432 303.68 248.303C303.189 248.261 302.697 248.218 302.227 248.132L300.837 247.769C297.097 246.85 293.72 243.964 292.095 240.63C291.197 238.984 290.706 237.21 290.385 235.478C290.086 233.704 289.979 232.058 290.15 230.177C290.257 229.173 291.155 228.446 292.159 228.531C293.014 228.617 293.655 229.258 293.784 230.071L293.805 230.263C294.233 232.999 295.088 235.927 296.52 238.086C297.973 240.288 299.876 241.784 302.334 242.382L303.253 242.618C303.552 242.682 303.851 242.682 304.151 242.724C304.77 242.853 305.326 242.746 305.903 242.746C307.015 242.575 308.105 242.233 309.11 241.57C310.136 240.95 311.097 240.031 311.952 238.984C312.807 237.936 313.598 236.633 314.24 235.5L314.346 235.307C314.838 234.41 315.95 234.089 316.826 234.581C317.574 234.923 317.916 235.714 317.766 236.483Z" fill="#000072"/>
<path d="M374.353 251.842C383.026 251.16 389.792 247.229 389.464 243.063C389.136 238.897 381.839 236.073 373.166 236.755C364.493 237.437 357.727 241.368 358.055 245.534C358.382 249.7 365.679 252.524 374.353 251.842Z" fill="#F27E80"/>
<path d="M214.427 264.282C223.101 263.6 229.866 259.669 229.539 255.503C229.211 251.337 221.914 248.513 213.241 249.195C204.567 249.878 197.802 253.808 198.129 257.974C198.457 262.14 205.754 264.964 214.427 264.282Z" fill="#F27E80"/>
<path d="M237.328 234.374C249.19 233.441 257.762 219.405 256.474 203.023C255.185 186.641 244.524 174.118 232.661 175.051C220.799 175.984 212.227 190.02 213.515 206.402C214.804 222.784 225.465 235.307 237.328 234.374Z" fill="#000072"/>
<path d="M240.889 209.599C244.478 209.316 247.037 204.623 246.604 199.115C246.17 193.607 242.909 189.371 239.32 189.654C235.731 189.936 233.172 194.63 233.605 200.137C234.038 205.645 237.299 209.881 240.889 209.599Z" fill="white"/>
<path d="M366.971 187.449C363.765 188.646 360.538 190.035 357.566 191.553C354.574 193.092 351.753 194.802 349.145 196.725C347.82 197.645 346.623 198.713 345.404 199.718L343.694 201.364C343.416 201.642 343.117 201.898 342.839 202.197L342.048 203.095C339.868 205.382 338.179 208.054 336.512 210.747L330.057 204.378C330.356 204.228 330.548 204.143 330.741 204.057C330.955 203.972 331.147 203.886 331.339 203.801C331.724 203.651 332.109 203.501 332.494 203.373C333.263 203.095 334.011 202.86 334.781 202.646C336.298 202.197 337.859 201.898 339.398 201.663C342.497 201.193 345.661 201.15 348.76 201.513C351.859 201.898 354.895 202.604 357.716 203.843C360.559 204.976 363.124 206.643 365.454 208.482C366.159 209.037 366.287 210.063 365.732 210.79C365.326 211.303 364.663 211.517 364.065 211.367L363.872 211.325C362.525 211.004 361.264 210.534 359.96 210.256C358.657 209.999 357.396 209.679 356.092 209.55C353.548 209.144 350.983 209.08 348.482 209.23C345.981 209.337 343.502 209.764 341.108 210.384C340.509 210.534 339.911 210.726 339.334 210.897L337.602 211.496C337.025 211.709 336.469 211.923 335.935 212.18C335.657 212.286 335.401 212.415 335.144 212.543C335.016 212.607 334.888 212.671 334.781 212.714L334.524 212.842L334.439 212.885C332.109 214.082 329.266 213.184 328.048 210.876C327.299 209.444 327.385 207.798 328.069 206.472C329.95 202.946 332.066 199.461 334.909 196.597C336.213 195.058 337.816 193.818 339.312 192.515C340.937 191.36 342.54 190.142 344.293 189.244C347.734 187.299 351.432 185.888 355.194 185.033C358.999 184.2 362.761 183.836 366.715 184.307C367.613 184.413 368.275 185.226 368.169 186.145C368.104 186.786 367.677 187.278 367.121 187.491L366.971 187.449Z" fill="#000072"/>
<path d="M230.407 347.013C230.407 347.013 227.628 416.332 282.07 419.902C323.174 422.595 329.437 408.894 358.764 406.799C391.211 404.49 385.119 381.897 385.119 381.897C385.119 381.897 392.13 377.985 392.814 370.162C393.412 363.322 388.902 357.679 388.902 357.679C388.902 357.679 389.864 348.873 383.772 343.016C371.033 330.768 345.019 326.578 323.388 345.709C315.65 352.549 306.694 355.413 297.396 353.703L230.407 347.013Z" fill="white"/>
<g opacity="0.3">
<path d="M392.878 368.645C392.878 369.158 392.878 369.649 392.814 370.162C392.13 377.985 385.119 381.897 385.119 381.897C385.119 381.897 391.211 404.512 358.763 406.799C329.437 408.872 323.174 422.595 282.07 419.902C256.548 418.235 243.595 402.096 237.054 385.445C244.685 396.667 256.612 405.602 275.251 406.82C316.355 409.514 322.554 392.841 351.945 393.717C382.661 394.637 377.06 377.579 377.06 377.579C377.06 377.579 387.876 376.767 392.878 368.645Z" fill="#000072"/>
</g>
<path d="M297.481 353.169C299.79 353.105 302.013 352.87 304.15 352.421C306.288 351.951 308.34 351.309 310.264 350.454C314.132 348.766 317.595 346.329 320.652 343.443C327.577 336.839 336.598 331.687 346.387 329.614C351.282 328.609 356.348 328.288 361.371 328.823C366.373 329.336 371.311 330.704 375.928 332.841C378.236 333.91 380.459 335.193 382.532 336.71C383.58 337.458 384.584 338.271 385.546 339.147C386.465 339.959 387.556 341.028 388.432 342.182C390.206 344.491 391.446 347.141 392.13 349.813C392.493 351.16 392.707 352.506 392.835 353.853C392.899 354.537 392.942 355.2 392.942 355.905C392.942 356.247 392.942 356.589 392.942 356.952C392.921 357.337 392.921 357.615 392.857 358.149L392.002 355.221C392.322 355.627 392.493 355.884 392.686 356.183C392.878 356.482 393.07 356.781 393.241 357.059C393.605 357.658 393.925 358.256 394.246 358.855C394.866 360.073 395.379 361.356 395.785 362.702C396.597 365.374 397.003 368.324 396.554 371.274C396.383 372.749 395.935 374.202 395.422 375.591C394.844 376.938 394.139 378.242 393.284 379.418C392.429 380.572 391.489 381.641 390.463 382.602C389.95 383.073 389.415 383.543 388.838 383.97C388.56 384.184 388.261 384.398 387.962 384.59C387.641 384.804 387.406 384.975 386.914 385.253L388.731 380.957C388.966 381.876 389.03 382.453 389.116 383.158C389.18 383.842 389.266 384.526 389.266 385.189C389.308 386.535 389.244 387.903 389.052 389.25C388.881 390.597 388.539 391.943 388.133 393.268L387.363 395.214C387.128 395.876 386.722 396.453 386.401 397.073C385.781 398.334 384.841 399.382 384.007 400.493C383.537 401.006 383.045 401.477 382.554 401.947C382.062 402.417 381.571 402.93 381.015 403.293C379.925 404.063 378.877 404.961 377.68 405.516C376.526 406.115 375.372 406.82 374.175 407.205C369.408 409.15 364.513 410.026 359.704 410.433C359.084 410.475 358.528 410.518 357.994 410.582L356.348 410.753C355.258 410.881 354.146 410.924 353.078 411.117L349.829 411.63C348.739 411.801 347.691 412.078 346.601 412.292C342.305 413.233 338.094 414.515 333.797 415.99C329.501 417.465 325.098 419.004 320.524 420.265C315.971 421.59 311.268 422.467 306.544 423.087C304.193 423.343 301.82 423.642 299.469 423.728L295.921 423.92L292.394 423.942C291.218 423.942 290.043 423.984 288.867 423.963L285.362 423.835L281.856 423.707L278.244 423.364L276.427 423.172L274.631 422.852C273.434 422.616 272.216 422.467 271.019 422.146L267.449 421.184C266.274 420.842 265.12 420.351 263.944 419.944C259.327 418.128 254.966 415.627 251.098 412.485C247.229 409.343 243.958 405.581 241.244 401.519C235.793 393.375 232.587 384.184 230.813 374.95C230.599 373.796 230.385 372.642 230.214 371.466C230.022 370.312 229.872 369.136 229.744 367.982C229.466 365.652 229.316 363.322 229.21 360.992C229.06 356.332 229.103 351.694 229.723 347.056C229.765 346.756 230.043 346.521 230.364 346.564C230.62 346.607 230.834 346.821 230.855 347.077V347.098C231.71 356.161 233.442 365.118 236.028 373.646C238.636 382.154 242.27 390.297 247.378 397.18C249.943 400.6 252.808 403.742 256.099 406.329C259.37 408.936 263.003 411.074 266.872 412.677C270.72 414.344 274.909 415.327 279.142 415.883L282.348 416.247L285.704 416.418L289.06 416.589C290.171 416.61 291.283 416.61 292.394 416.61C301.307 416.61 310.093 415.648 318.578 413.233C322.853 412.057 327.086 410.582 331.446 409.086C335.807 407.59 340.36 406.2 345.019 405.174C346.195 404.939 347.349 404.64 348.525 404.469L352.052 403.913C353.227 403.699 354.424 403.657 355.6 403.507L357.374 403.336C357.973 403.272 358.571 403.229 359.084 403.187C363.38 402.866 367.613 401.99 371.311 400.451C374.987 398.89 378.193 396.624 379.861 393.439C380.053 393.033 380.331 392.691 380.48 392.243L380.972 390.981C381.207 390.105 381.464 389.229 381.549 388.309C381.677 387.39 381.699 386.45 381.677 385.531C381.677 385.06 381.613 384.612 381.571 384.141C381.506 383.714 381.421 383.158 381.357 382.966C380.929 381.341 381.613 379.695 382.939 378.819L383.174 378.669L383.601 378.392C383.772 378.263 383.965 378.135 384.136 377.985C384.499 377.707 384.841 377.408 385.183 377.088C385.846 376.446 386.444 375.762 386.957 375.036C387.47 374.309 387.855 373.539 388.175 372.77C388.432 371.979 388.71 371.188 388.774 370.354C389.009 368.709 388.753 366.913 388.197 365.16C387.919 364.284 387.556 363.408 387.107 362.553C386.893 362.125 386.658 361.719 386.401 361.313L386.017 360.736C385.91 360.565 385.717 360.33 385.696 360.287C385.076 359.496 384.798 358.534 384.841 357.594V357.337L384.862 356.803C384.862 356.568 384.862 356.354 384.862 356.119C384.841 355.649 384.82 355.178 384.777 354.708C384.691 353.768 384.499 352.848 384.264 351.972C383.794 350.198 383.003 348.595 381.955 347.269C380.993 346.051 379.305 344.598 377.702 343.443C376.056 342.268 374.26 341.22 372.401 340.344C364.898 336.839 356.177 335.877 347.926 337.48C345.874 337.907 343.822 338.42 341.813 339.104C339.825 339.81 337.859 340.622 335.956 341.605C334.075 342.588 332.194 343.657 330.442 344.897C329.544 345.474 328.689 346.158 327.812 346.778L325.183 348.83C321.314 351.972 316.697 354.387 311.76 355.456C306.844 356.546 301.671 356.162 297.225 354.387C296.926 354.259 296.797 353.939 296.904 353.639C297.054 353.319 297.246 353.169 297.481 353.169Z" fill="#000072"/>
<path d="M400.851 301.313C400.851 301.313 398.991 315.977 411.154 321.791C415.835 324.014 423.744 321.128 423.744 321.128C423.744 321.128 427.057 326.472 438.599 325.253C445.824 324.484 453.54 318.029 453.54 318.029C453.54 318.029 460.231 320.017 465.917 316.511C473.868 311.573 475.471 295.286 466.152 288.082C457.153 281.114 408.14 273.633 400.851 301.313Z" fill="white"/>
<g opacity="0.3">
<path d="M465.917 316.468C460.252 319.974 453.54 317.986 453.54 317.986C453.54 317.986 445.845 324.441 438.599 325.232C427.057 326.472 423.744 321.107 423.744 321.107C423.744 321.107 415.835 324.014 411.154 321.769C398.991 315.955 400.851 301.313 400.851 301.313C401.236 299.817 401.749 298.449 402.369 297.145C403.138 301.848 405.532 308.004 412.436 311.317C417.117 313.54 425.026 310.633 425.026 310.633C425.026 310.633 428.339 315.977 439.882 314.758C447.128 313.989 454.823 307.534 454.823 307.534C454.823 307.534 461.513 309.521 467.199 306.016C469.465 304.605 471.218 302.275 472.35 299.518C473.227 306.294 470.747 313.476 465.917 316.468Z" fill="#000072"/>
</g>
<path d="M435.265 329.079C428.681 329.079 424.791 327.006 422.696 325.275C419.533 326.13 413.868 327.134 409.593 325.104C395.208 318.221 397.153 301.57 397.238 300.864C397.26 300.715 397.281 300.544 397.324 300.394C399.739 291.16 406.537 284.406 416.946 280.857C435.649 274.488 461.47 279.831 468.374 285.154C473.633 289.215 476.54 296.076 476.155 303.515C475.792 310.462 472.607 316.618 467.84 319.589C462.838 322.688 457.324 322.389 454.459 321.94C451.681 323.992 445.332 328.224 439.005 328.887C437.659 329.015 436.419 329.079 435.265 329.079ZM426.821 319.14C427.206 319.61 429.964 322.475 438.214 321.598C443.237 321.064 449.287 316.789 451.189 315.207C452.129 314.416 453.412 314.16 454.588 314.502C454.63 314.502 459.846 315.955 463.993 313.369C466.707 311.68 468.631 307.662 468.866 303.152C469.123 298.107 467.284 293.533 463.928 290.968C459.162 287.291 436.226 282.054 419.34 287.804C411.346 290.519 406.344 295.307 404.506 301.997C404.356 303.707 403.801 314.224 412.778 318.499C415.258 319.696 420.409 318.477 422.525 317.687C424.192 317.067 425.966 317.537 426.821 319.14Z" fill="#000072"/>
<g opacity="0.4">
<path d="M530.383 352.015C531.495 340.173 544.341 318.456 580.337 313.839C617.444 309.072 655.042 338.89 641.234 346.03C633.988 349.792 612.848 343.807 571.295 356.824C549.129 363.75 528.973 367.063 530.383 352.015Z" fill="white"/>
</g>
</svg>
