<svg width="626" height="620" viewBox="0 0 626 620" fill="none" xmlns="http://www.w3.org/2000/svg">
<ellipse cx="313" cy="299.5" rx="313" ry="299.5" fill="#B0A2D7"/>
<g clip-path="url(#clip0_243_3432)">
<path d="M489.206 471.243L530.236 508.675L475.511 569.516L408.301 606.655C404.213 608.91 399.702 610.34 395.046 610.834L335.059 617.159L304.754 586.491L296.412 601.577L118.175 601.101L137.278 577.069L372.514 507.887" fill="#F5F5F5"/>
<path d="M335.059 620C334.307 620 333.574 619.707 333.042 619.157L305.396 591.183L298.887 602.97C298.392 603.869 297.439 604.455 296.394 604.437L118.157 603.96C117.075 603.96 116.085 603.337 115.608 602.365C115.132 601.394 115.26 600.221 115.938 599.377L135.06 575.327C135.427 574.869 135.922 574.539 136.472 574.374L371.708 505.192C373.211 504.752 374.788 505.614 375.228 507.117C375.668 508.62 374.806 510.197 373.303 510.637L138.928 579.562L124.005 598.333L294.726 598.791L302.261 585.171C302.701 584.383 303.471 583.851 304.351 583.741C305.231 583.613 306.129 583.924 306.752 584.548L336.104 614.244L394.734 608.048C399.024 607.59 403.131 606.307 406.908 604.217L473.715 567.316L526.24 508.913L487.281 473.369C486.126 472.325 486.053 470.528 487.098 469.373C488.143 468.218 489.94 468.127 491.095 469.19L532.125 506.622C533.28 507.667 533.353 509.445 532.326 510.6L477.601 571.441C477.4 571.679 477.143 571.881 476.868 572.027L409.658 609.166C405.203 611.623 400.381 613.144 395.339 613.676L335.352 620C335.242 619.982 335.151 620 335.059 620Z" fill="#000072"/>
<path d="M126.388 489.574L66.8232 534.302L107.12 546.786" fill="#F5F5F5"/>
<path d="M107.12 549.609C106.845 549.609 106.552 549.572 106.277 549.48L65.9798 536.997C64.9715 536.685 64.2015 535.824 64.0365 534.779C63.8531 533.734 64.2748 532.671 65.1181 532.029L124.683 487.301C125.93 486.366 127.708 486.605 128.643 487.869C129.578 489.116 129.322 490.894 128.075 491.829L72.9648 533.239L107.963 544.073C109.448 544.531 110.292 546.126 109.833 547.611C109.448 548.839 108.33 549.609 107.12 549.609Z" fill="#000072"/>
<path d="M533.977 561.395L349.671 574.246L331.026 583.209L284.239 580.845L268.876 569.058L91.0234 561.395L105.488 530.214L164.137 416.066L312.473 406.828L460.826 416.066L468.398 430.786C468.398 430.786 468.398 430.805 468.416 430.823L519.493 530.214L533.702 560.809L533.977 561.395Z" fill="#F5F5F5"/>
<g opacity="0.3">
<path d="M533.72 560.809C493.276 560.791 432.923 559.984 432.923 559.984L409.126 554.081L431.163 523.597C494.963 520.462 468.985 432.564 468.453 430.805L519.53 530.196L533.72 560.809Z" fill="#000072"/>
</g>
<path d="M331.026 586.032C330.971 586.032 330.934 586.032 330.879 586.032L284.092 583.668C283.524 583.631 282.974 583.429 282.516 583.081L267.867 571.826L90.9132 564.2C89.9782 564.163 89.1165 563.65 88.6215 562.844C88.1265 562.037 88.0715 561.029 88.4748 560.186L102.94 529.004C102.958 528.968 102.977 528.931 102.995 528.894L161.643 414.747C162.102 413.867 162.982 413.28 163.99 413.207L312.344 403.968C312.454 403.968 312.582 403.968 312.692 403.968L461.046 413.207C462.036 413.262 462.934 413.848 463.393 414.747L522.041 528.894C522.06 528.931 522.078 528.968 522.096 529.004L536.561 560.186C536.946 561.029 536.91 562.019 536.433 562.825C535.956 563.632 535.113 564.145 534.196 564.2L350.441 577.014L332.291 585.739C331.869 585.941 331.447 586.032 331.026 586.032ZM285.266 578.058L330.439 580.332L348.442 571.679C348.772 571.533 349.121 571.441 349.469 571.404L529.668 558.847L516.963 531.461L459.084 418.798L312.509 409.669L165.933 418.798L108.055 531.461L95.3865 558.756L269.004 566.235C269.59 566.253 270.14 566.455 270.599 566.822L285.266 578.058Z" fill="#000072"/>
<g opacity="0.3">
<path d="M279.289 408.899L257.435 546.786C257.435 546.786 223.592 551.937 205.204 557.436L206.854 561.414L281.746 563.614L287.044 574.246L314.324 572.669L308.347 411.667" fill="#000072"/>
</g>
<g opacity="0.3">
<path d="M348.002 408.899L369.856 546.786C369.856 546.786 403.699 551.937 422.088 557.436L420.438 561.414L345.546 563.614L340.247 574.246L312.967 572.669L318.944 411.667" fill="#000072"/>
</g>
<path d="M536.158 561.396V577.069H348.406L343.768 586.032C341.916 589.607 338.231 591.843 334.198 591.843H290.803C286.769 591.843 283.084 589.607 281.232 586.032L276.594 577.069H88.8418V561.396H280.407L288.071 574.246H336.911L344.574 561.396H536.158Z" fill="#F22A2A"/>
<g opacity="0.6">
<path d="M536.158 561.396V566.345H344.593L336.929 579.195H288.089L280.426 566.345H88.8418V561.396H280.426L288.089 574.246H336.929L344.593 561.377L536.158 561.396Z" fill="#F5F5F5"/>
</g>
<path d="M334.197 594.685H290.802C285.705 594.685 281.067 591.862 278.72 587.334L274.87 579.892H88.8414C87.2831 579.892 86.0181 578.627 86.0181 577.069V561.395C86.0181 559.837 87.2831 558.573 88.8414 558.573H280.407C281.397 558.573 282.332 559.104 282.845 559.947L289.684 571.423H335.316L342.154 559.947C342.667 559.086 343.584 558.573 344.592 558.573H536.176C537.735 558.573 539 559.837 539 561.395V577.069C539 578.627 537.735 579.892 536.176 579.892H350.129L346.279 587.334C343.932 591.862 339.312 594.685 334.197 594.685ZM91.6831 574.246H276.594C277.657 574.246 278.629 574.832 279.105 575.767L283.744 584.731C285.119 587.371 287.814 589.02 290.802 589.02H334.197C337.167 589.02 339.881 587.371 341.256 584.731L345.894 575.767C346.389 574.832 347.342 574.246 348.406 574.246H533.335V564.237H346.187L339.349 575.712C338.836 576.574 337.919 577.087 336.911 577.087H288.07C287.08 577.087 286.145 576.555 285.632 575.712L278.794 564.237H91.6831V574.246Z" fill="#000072"/>
<path d="M174.257 564.237C173.487 564.237 172.717 564.237 171.928 564.218C170.37 564.182 169.123 562.899 169.16 561.322C169.197 559.764 170.517 558.518 172.057 558.554C190.61 558.939 207.348 554.191 222.125 549.994C246.362 543.101 267.28 537.162 281.672 559.892C282.515 561.212 282.112 562.954 280.792 563.797C279.472 564.64 277.73 564.237 276.887 562.917C264.75 543.761 247.517 548.655 223.665 555.438C209.127 559.562 192.7 564.237 174.257 564.237Z" fill="#000072"/>
<path d="M450.761 564.237C432.318 564.237 415.891 559.562 401.334 555.438C377.483 548.655 360.249 543.761 348.113 562.917C347.269 564.237 345.528 564.64 344.208 563.797C342.888 562.954 342.502 561.212 343.327 559.892C357.719 537.162 378.656 543.119 402.874 549.994C417.651 554.191 434.408 558.957 452.943 558.554C454.501 558.517 455.803 559.764 455.84 561.322C455.876 562.88 454.63 564.182 453.071 564.218C452.301 564.237 451.531 564.237 450.761 564.237Z" fill="#000072"/>
<g opacity="0.25">
<path d="M142.449 515.403C141.202 515.403 140.157 514.431 140.102 513.166C140.029 511.865 141.019 510.747 142.32 510.673C157.445 509.83 174.605 507.025 193.324 502.351C239.946 490.692 273.697 487.429 297.898 507.117C298.906 507.942 299.053 509.427 298.246 510.435C297.421 511.443 295.936 511.59 294.928 510.783C275.072 494.634 247.847 493.589 194.46 506.934C175.449 511.682 157.995 514.523 142.577 515.384C142.522 515.403 142.485 515.403 142.449 515.403Z" fill="#000072"/>
</g>
<g opacity="0.25">
<path d="M154.292 495.44C153.1 495.44 152.092 494.542 151.945 493.35C151.799 492.049 152.734 490.894 154.017 490.747C166.08 489.391 179.299 486.916 193.305 483.415C239.927 471.756 273.679 468.493 297.879 488.181C298.887 489.006 299.034 490.491 298.228 491.499C297.402 492.507 295.917 492.672 294.909 491.847C275.054 475.698 247.829 474.653 194.442 487.998C180.252 491.554 166.814 494.047 154.53 495.44C154.457 495.422 154.365 495.44 154.292 495.44Z" fill="#000072"/>
</g>
<g opacity="0.25">
<path d="M166.997 474.414C165.86 474.414 164.852 473.589 164.668 472.435C164.467 471.151 165.328 469.942 166.612 469.722C175.063 468.347 184.047 466.459 193.305 464.149C239.927 452.49 273.679 449.227 297.879 468.915C298.887 469.74 299.034 471.225 298.227 472.233C297.402 473.241 295.917 473.388 294.909 472.581C275.054 456.432 247.829 455.387 194.442 468.732C185.037 471.078 175.925 472.985 167.363 474.378C167.253 474.414 167.125 474.414 166.997 474.414Z" fill="#000072"/>
</g>
<g opacity="0.25">
<path d="M484.99 515.403C484.953 515.403 484.898 515.403 484.861 515.403C469.443 514.541 451.989 511.7 432.978 506.952C379.591 493.607 352.366 494.652 332.511 510.802C331.502 511.626 330.017 511.48 329.192 510.453C328.367 509.445 328.532 507.96 329.541 507.135C353.741 487.448 387.493 490.711 434.114 502.369C452.833 507.044 469.993 509.848 485.118 510.692C486.42 510.765 487.41 511.883 487.336 513.185C487.281 514.431 486.236 515.403 484.99 515.403Z" fill="#000072"/>
</g>
<g opacity="0.25">
<path d="M473.146 495.44C473.055 495.44 472.963 495.44 472.871 495.422C460.588 494.047 447.168 491.536 432.96 487.979C379.573 474.634 352.348 475.679 332.493 491.829C331.484 492.654 329.999 492.489 329.174 491.481C328.349 490.472 328.514 488.988 329.523 488.163C353.723 468.475 387.474 471.738 434.096 483.397C448.085 486.898 461.303 489.354 473.385 490.729C474.686 490.876 475.603 492.049 475.456 493.332C475.346 494.542 474.338 495.44 473.146 495.44Z" fill="#000072"/>
</g>
<g opacity="0.25">
<path d="M460.441 474.414C460.313 474.414 460.184 474.396 460.056 474.378C451.476 472.985 442.383 471.078 432.978 468.732C379.591 455.387 352.366 456.432 332.511 472.581C331.502 473.406 330.017 473.26 329.192 472.233C328.367 471.225 328.532 469.74 329.541 468.915C353.741 449.227 387.493 452.49 434.114 464.149C443.391 466.459 452.374 468.347 460.808 469.722C462.091 469.923 462.971 471.151 462.751 472.435C462.586 473.589 461.578 474.414 460.441 474.414Z" fill="#000072"/>
</g>
<g opacity="0.25">
<path d="M450.358 457.513C450.23 457.513 450.101 457.495 449.973 457.476C441.393 456.065 432.281 454.177 422.895 451.83C369.508 438.485 342.283 439.53 322.428 455.68C321.419 456.505 319.934 456.358 319.109 455.332C318.284 454.323 318.449 452.839 319.458 452.014C343.658 432.326 377.409 435.589 424.031 447.248C433.29 449.557 442.273 451.446 450.725 452.82C452.008 453.022 452.888 454.25 452.668 455.533C452.503 456.688 451.495 457.513 450.358 457.513Z" fill="#000072"/>
</g>
<g opacity="0.25">
<path d="M443.63 440.612C443.501 440.612 443.373 440.593 443.245 440.575C434.665 439.164 425.553 437.276 416.166 434.929C362.779 421.584 335.554 422.629 315.699 438.779C314.691 439.604 313.206 439.439 312.381 438.43C311.556 437.422 311.721 435.937 312.729 435.113C336.929 415.425 370.681 418.688 417.303 430.346C426.561 432.656 435.545 434.544 443.996 435.919C445.28 436.121 446.16 437.349 445.94 438.632C445.756 439.787 444.766 440.612 443.63 440.612Z" fill="#000072"/>
</g>
<path d="M364.998 484.735L339.258 479.437L336.049 479.712L317.533 481.344L314.544 481.6L313.371 481.71L312.876 481.765L312.509 481.802L311.648 481.728L285.761 479.437L281.507 480.317L265.356 483.653L260.021 484.753L260.002 484.771C249.516 494.872 230.614 495.715 219.302 490.821C209.622 486.641 205.516 478.264 216.974 467.888C202.344 445.011 198.879 405.471 220.751 399.495C221.869 368.186 228.909 339.479 248.819 316.474L254.979 316.694L307.724 318.582H317.239L376.144 316.455C396.055 339.461 403.095 368.167 404.213 399.477C426.085 405.453 422.62 444.993 407.99 467.87C432.886 490.362 384.431 503.488 364.998 484.735Z" fill="#8E8FB3"/>
<path d="M373.211 466.679L370.039 476.394L367.491 482.883V488.071C367.491 488.071 406.028 506.512 416.643 481.893L415.726 476.394L412.664 470.876C412.664 470.876 417.284 462.884 373.211 466.679Z" fill="#F5F5F5"/>
<path d="M253.586 466.679L256.757 476.394L259.306 482.883V488.071C259.306 488.071 220.769 506.512 210.154 481.893L211.07 476.394L214.132 470.876C214.132 470.876 209.512 462.884 253.586 466.679Z" fill="#F5F5F5"/>
<path d="M225.847 467.87C214.645 465.744 210.172 478.447 210.172 478.447C168.72 470.272 154.695 442.812 149.709 413.995C149.709 413.977 149.709 413.977 149.709 413.977C146.519 395.517 147.032 376.508 146.409 361.641C145.804 347.032 144.19 338.636 141.642 332.788C137.572 323.421 131.155 320.671 122.813 309.434C122.538 309.049 122.263 308.683 122.007 308.298C110.805 291.983 125.82 270.279 145.144 274.605C160.324 278.015 172.314 291.855 179.482 312.789C185.349 329.892 188.007 351.724 186.559 376.508C186.339 380.247 186.027 384.079 185.624 387.947C184.927 394.527 185.202 401.2 186.687 407.671C189.877 421.694 196.129 430.31 206.175 432.234C206.157 432.271 210.869 467.65 225.847 467.87Z" fill="#8E8FB3"/>
<path d="M173.065 298.252C173.065 298.252 162.01 335.648 128.625 316.474L118.542 300.232V287.199L126.682 280.563L131.907 277.117L140.083 274.074C140.083 274.074 142.778 273.982 145.143 274.624C147.508 275.265 153.925 278.931 153.925 278.931L159.59 281.681L168.482 291.03L173.065 298.252Z" fill="#F5F5F5"/>
<g opacity="0.3">
<path d="M216.992 467.87C212.739 471.701 210.63 475.276 210.153 478.447C168.702 470.272 154.677 442.812 149.69 413.995C170.755 444.883 181.26 423.637 186.54 376.526C186.32 380.266 186.008 384.097 185.605 387.965C184.908 394.546 185.183 401.218 186.668 407.689C189.767 421.346 195.78 429.87 205.368 432.069C206.248 444.388 210.52 457.77 216.992 467.87Z" fill="#000072"/>
</g>
<path d="M210.172 481.289C209.989 481.289 209.805 481.27 209.622 481.234C145.913 468.695 144.703 411.337 143.897 373.373C143.805 369.267 143.732 365.399 143.585 361.77C142.467 334.658 137.883 329.984 130.275 322.23C127.415 319.315 124.17 316.015 120.558 311.139C120.265 310.736 119.972 310.333 119.697 309.929C113.885 301.479 113.885 290.883 119.697 282.304C125.6 273.579 135.592 269.583 145.785 271.874C177.355 278.968 194.919 326.831 188.447 388.276C187.75 394.839 188.099 401.163 189.437 407.066C192.334 419.788 197.522 427.01 205.314 429.155C206.817 429.576 207.715 431.135 207.294 432.638C206.872 434.141 205.314 435.039 203.81 434.617C193.965 431.923 187.274 423.069 183.919 408.331C182.434 401.805 182.067 394.876 182.819 387.69C185.844 358.928 183.479 332.037 176.182 311.946C169.179 292.68 157.94 280.416 144.538 277.392C135.133 275.284 127.965 280.178 124.372 285.476C120.87 290.663 119.018 298.967 124.335 306.721C124.573 307.07 124.83 307.418 125.087 307.766C128.478 312.331 131.558 315.484 134.29 318.27C142.558 326.684 148.003 332.257 149.213 361.531C149.36 365.216 149.452 369.12 149.543 373.245C150.35 411.539 151.468 464.002 210.704 475.661C212.244 475.954 213.234 477.457 212.94 478.979C212.665 480.354 211.492 481.289 210.172 481.289Z" fill="#000072"/>
<g opacity="0.6">
<path d="M377.648 318.215L323.381 320.176H313.866L254.96 318.05C235.05 341.056 228.01 369.762 226.892 401.072C205.02 407.048 208.485 446.588 223.115 469.465C210.96 480.445 216.295 489.208 227.222 493.094C212.555 490.601 202.729 480.775 216.992 467.888C202.362 445.011 198.897 405.471 220.769 399.495C221.887 368.186 228.927 339.479 248.837 316.474L307.742 318.6H317.257L376.163 316.474C376.676 317.042 377.171 317.628 377.648 318.215Z" fill="#F5F5F5"/>
</g>
<path d="M301.197 497.365C283.872 497.658 268.417 495.605 260.002 484.753C258.297 482.553 256.886 480.005 255.822 477.017H255.804V476.999C254.172 472.563 253.311 467.192 253.311 460.739L247.646 402.208L246.069 385.893L286.879 396.012L301.894 399.733C301.894 399.733 299.822 472.123 300.482 472.38C306.624 474.763 310.126 478.191 311.629 481.728C314.672 488.914 309.466 496.632 301.197 497.365Z" fill="#8E8FB3"/>
<path d="M259.324 483.8C259.324 483.8 288.236 459.163 305.231 473.296L310.639 480.207L311.061 483.782L311.647 489.941L309.796 493.68L304.846 496.522C304.827 496.54 269.077 499.95 259.324 483.8Z" fill="#F5F5F5"/>
<g opacity="0.3">
<path d="M312.509 481.802L311.647 481.728C314.672 488.914 309.484 496.632 301.216 497.365C283.891 497.658 268.435 495.605 260.02 484.753C249.534 494.854 230.632 495.697 219.32 490.802C236.279 483.965 241.705 463.452 232.612 436.194C222.547 406.039 247.077 402.281 247.664 402.19C247.682 402.19 247.682 402.19 247.682 402.19L255.822 476.981V476.999H255.84C259.507 479.95 262.66 482.113 265.374 483.635C276.466 489.849 280.316 485.486 281.526 480.299C282.534 476.046 281.764 471.225 281.764 471.225L279.326 404.756C281.911 401.072 284.441 398.194 286.916 395.976C307.229 377.791 323.271 404.756 323.271 404.756L324.829 467.87L312.527 479.272C312.527 479.272 312.674 480.225 312.894 481.765L312.509 481.802Z" fill="#000072"/>
</g>
<path d="M302.847 399.752C302.994 408.881 303.086 418.028 303.086 427.157L303.122 440.85L303.104 454.543C303.104 459.108 303.067 463.672 303.122 468.2C303.141 469.318 303.159 470.473 303.214 471.5L303.232 471.793C303.232 471.793 303.232 471.848 303.232 471.83C303.232 471.793 303.232 471.756 303.214 471.72L303.141 471.426C302.976 470.821 302.389 470.143 301.802 469.868C301.399 469.685 301.527 469.758 301.509 469.74L301.527 469.758L301.582 469.777L302.444 470.125C303.012 470.345 303.599 470.601 304.149 470.895C306.404 471.995 308.604 473.388 310.547 475.239C312.454 477.109 314.104 479.492 314.911 482.278C315.699 485.065 315.626 488.163 314.544 490.876C313.481 493.589 311.611 495.917 309.264 497.53C308.091 498.336 306.826 498.996 305.506 499.455C304.186 499.913 302.811 500.188 301.436 500.335C301.381 500.335 301.307 500.353 301.252 500.353H301.234C295.312 500.445 289.317 500.261 283.285 499.4C277.29 498.501 271.149 496.925 265.667 493.552C262.935 491.866 260.442 489.739 258.37 487.246C256.28 484.753 254.667 481.912 253.512 478.96C251.147 473.021 250.524 466.789 250.469 460.739L250.487 461.014C250.175 457.898 249.809 454.782 249.552 451.665C249.295 448.549 249.112 445.415 248.892 442.28L247.609 423.527L246.325 404.774L245.134 386.003C245.097 385.49 245.5 385.032 246.014 384.995C246.509 384.959 246.949 385.325 247.004 385.82L249.424 404.463L251.752 423.124L254.08 441.785C254.465 444.901 254.869 447.999 255.235 451.115C255.584 454.232 255.822 457.348 256.115 460.464C256.115 460.556 256.134 460.629 256.134 460.721V460.739C256.17 466.33 256.775 471.921 258.774 476.871C259.764 479.345 261.065 481.637 262.734 483.617C264.402 485.596 266.419 487.283 268.655 488.658C273.165 491.407 278.592 492.819 284.11 493.589C289.665 494.359 295.386 494.469 301.124 494.377L300.904 494.395C304.497 494.12 307.761 491.847 308.952 488.713C309.576 487.173 309.649 485.486 309.227 483.873C308.787 482.26 307.816 480.72 306.496 479.382C305.157 478.044 303.471 476.926 301.656 476.009C301.197 475.771 300.739 475.551 300.244 475.349L299.529 475.038L299.144 474.854C298.539 474.543 297.952 473.828 297.769 473.204C297.641 472.765 297.714 472.985 297.677 472.893L297.659 472.82L297.604 472.49L297.586 472.306C297.567 472.086 297.567 471.921 297.549 471.756C297.512 470.491 297.531 469.373 297.549 468.2C297.641 463.599 297.769 459.035 297.934 454.452L298.502 440.758L299.217 427.065C299.676 417.936 300.262 408.826 300.922 399.697C300.959 399.183 301.417 398.78 301.931 398.817C302.462 398.854 302.847 399.275 302.847 399.752Z" fill="#000072"/>
<path d="M270.397 476.596C272.506 474.763 274.779 473.443 277.236 472.325C279.674 471.225 282.259 470.363 284.899 469.813C285.559 469.667 286.237 469.575 286.897 469.465L287.906 469.3L288.914 469.208L290.949 469.025L292.984 468.988L294.011 468.97L295.019 469.025L297.054 469.135C298.411 469.245 299.749 469.465 301.106 469.63C302.664 469.813 303.764 471.243 303.581 472.801C303.397 474.359 301.967 475.459 300.409 475.276C300.299 475.258 300.207 475.239 300.097 475.221L299.841 475.166C298.667 474.873 297.494 474.543 296.321 474.286L294.524 473.974L293.626 473.809L292.727 473.718L290.912 473.534L289.097 473.479L288.181 473.461L287.264 473.498C286.659 473.534 286.036 473.534 285.431 473.589C282.992 473.791 280.572 474.268 278.226 475.001C275.897 475.734 273.551 476.761 271.589 478.081L271.516 478.136C271.076 478.429 270.507 478.319 270.214 477.879C269.976 477.439 270.049 476.907 270.397 476.596Z" fill="#000072"/>
<path d="M284.661 483.543C285.082 484.607 285.376 485.615 285.614 486.715C285.852 487.796 285.999 488.914 286.017 490.088C286.017 491.261 285.907 492.471 285.577 493.717C285.229 494.964 284.624 496.192 283.781 497.328L283.671 497.475C282.717 498.758 280.921 499.015 279.637 498.08C278.354 497.127 278.097 495.33 279.032 494.047C279.216 493.79 279.454 493.57 279.711 493.387C280.242 493.02 280.774 492.544 281.214 491.902C281.636 491.261 282.002 490.472 282.259 489.629C282.516 488.768 282.681 487.851 282.772 486.898C282.864 485.963 282.882 484.955 282.827 484.038V483.965C282.791 483.452 283.176 482.993 283.707 482.957C284.129 482.92 284.514 483.177 284.661 483.543Z" fill="#000072"/>
<path d="M300.335 483.543C300.794 484.661 301.124 485.725 301.435 486.879C301.729 488.016 301.967 489.189 302.077 490.399C302.187 491.627 302.224 492.892 302.004 494.23C301.784 495.568 301.325 496.998 300.445 498.336L300.28 498.593C299.4 499.931 297.604 500.298 296.284 499.418C294.945 498.538 294.579 496.742 295.459 495.422C295.642 495.147 295.862 494.909 296.119 494.725C296.614 494.34 297.109 493.735 297.494 492.965C297.897 492.196 298.135 491.261 298.337 490.289C298.539 489.318 298.63 488.273 298.667 487.228C298.704 486.183 298.667 485.083 298.557 484.075V484.02C298.502 483.507 298.887 483.03 299.4 482.975C299.804 482.92 300.189 483.158 300.335 483.543Z" fill="#000072"/>
<path d="M234.629 496.503C230.1 496.503 225.737 495.88 221.905 494.744C213.967 492.379 208.724 487.888 207.495 482.443C206.725 479.015 207.202 473.736 213.38 467.412C202.93 449.759 199.337 425.965 205.057 411.117C207.66 404.353 212.115 399.642 218.019 397.405C219.595 361.715 228.725 335.373 246.692 314.622C247.719 313.431 249.497 313.302 250.689 314.329C251.862 315.355 251.99 317.133 250.982 318.325C233.565 338.434 224.875 364.263 223.61 399.587C223.574 400.833 222.73 401.896 221.52 402.208C216.369 403.62 212.61 407.286 210.355 413.152C205.094 426.827 209.054 450.199 219.394 466.349C220.145 467.522 219.925 469.043 218.899 469.978C215.709 472.856 212.115 477.146 213.032 481.197C213.784 484.533 217.725 487.576 223.555 489.318C234.042 492.452 249.277 491.187 258.059 482.7C259.177 481.618 260.974 481.637 262.055 482.773C263.137 483.892 263.1 485.688 261.982 486.769C254.905 493.607 244.419 496.503 234.629 496.503Z" fill="#000072"/>
<path d="M220.53 396.672L234.72 397.369C235.252 397.387 235.655 397.845 235.619 398.359C235.6 398.799 235.289 399.147 234.867 399.238L220.989 402.3C219.449 402.648 217.927 401.658 217.579 400.118C217.23 398.579 218.22 397.057 219.76 396.709C220.035 396.672 220.292 396.654 220.53 396.672Z" fill="#000072"/>
<path d="M215.672 465.377C216.13 465.175 216.369 465.102 216.699 464.974C217.01 464.864 217.304 464.791 217.597 464.699C218.184 464.534 218.789 464.387 219.375 464.277C220.549 464.021 221.704 463.874 222.859 463.746C225.169 463.507 227.46 463.507 229.734 463.617C232.007 463.709 234.225 464.021 236.444 464.369C237.544 464.552 238.644 464.791 239.725 464.992L242.952 465.78C243.465 465.909 243.777 466.422 243.649 466.917C243.539 467.375 243.099 467.687 242.64 467.632H242.604L239.377 467.339C238.295 467.284 237.232 467.21 236.169 467.192C234.024 467.174 231.897 467.192 229.807 467.412C227.717 467.614 225.645 467.925 223.647 468.42C222.657 468.677 221.685 468.952 220.75 469.3C220.274 469.465 219.834 469.648 219.394 469.832C219.192 469.923 218.954 470.033 218.77 470.125C218.587 470.217 218.33 470.345 218.312 470.382C217.267 471.646 215.379 471.811 214.132 470.767C212.867 469.722 212.702 467.834 213.747 466.587C214.04 466.239 214.389 465.964 214.792 465.799L215.672 465.377Z" fill="#000072"/>
<path d="M238.369 477.329C238.075 478.686 237.91 480.189 237.929 481.582C237.947 482.993 238.112 484.368 238.534 485.596C238.955 486.806 239.615 487.814 240.404 488.548C241.174 489.318 242.274 489.684 243.319 490.032L243.594 490.124C245.097 490.619 245.904 492.251 245.409 493.735C244.914 495.239 243.282 496.045 241.797 495.55C241.614 495.477 241.412 495.403 241.247 495.293L240 494.56L239.395 494.175C239.194 494.029 239.01 493.864 238.827 493.699C238.46 493.369 238.075 493.057 237.727 492.709C237.415 492.324 237.104 491.939 236.792 491.554C235.674 489.941 235.05 488.108 234.849 486.348C234.647 484.588 234.812 482.883 235.124 481.289C235.454 479.675 235.93 478.172 236.609 476.669C236.829 476.193 237.379 475.991 237.855 476.192C238.277 476.376 238.479 476.834 238.387 477.256L238.369 477.329Z" fill="#000072"/>
<path d="M225.132 477.311C224.564 478.539 224.106 479.932 223.831 481.27C223.556 482.608 223.464 483.965 223.611 485.193C223.776 486.421 224.234 487.484 224.876 488.328C225.059 488.529 225.224 488.731 225.389 488.933L226.012 489.446C226.196 489.629 226.434 489.776 226.691 489.904L227.406 490.326L227.662 490.472C229.019 491.279 229.477 493.02 228.689 494.377C227.882 495.733 226.141 496.192 224.784 495.404C224.619 495.294 224.436 495.184 224.307 495.055L223.262 494.102C222.914 493.79 222.584 493.479 222.291 493.075L221.429 491.939C221.191 491.517 220.971 491.077 220.769 490.656C219.981 488.896 219.724 486.99 219.852 485.248C220.017 483.507 220.512 481.912 221.154 480.427C221.814 478.942 222.584 477.604 223.574 476.321C223.886 475.899 224.491 475.826 224.894 476.138C225.261 476.412 225.371 476.889 225.169 477.292L225.132 477.311Z" fill="#000072"/>
<path d="M378.931 385.875L371.689 460.721C371.707 471.518 369.251 479.254 364.997 484.735C358.251 493.46 346.939 496.503 333.776 497.2C330.567 497.383 327.231 497.402 323.821 497.347C315.552 496.613 310.364 488.896 313.389 481.71C314.031 480.207 315.039 478.704 316.451 477.311C316.469 477.292 316.469 477.292 316.469 477.292C318.376 475.423 321.034 473.699 324.536 472.343C325.196 472.086 323.124 399.697 323.124 399.697L362.101 390.036L378.931 385.875Z" fill="#8E8FB3"/>
<path d="M365.401 483.8C365.401 483.8 336.489 459.163 319.494 473.296L314.085 480.207L313.664 483.782L313.077 489.941L314.929 493.68L319.879 496.522C319.879 496.54 355.629 499.95 365.401 483.8Z" fill="#F5F5F5"/>
<path d="M324.041 399.697C324.701 408.807 325.287 417.936 325.746 427.065L326.461 440.758L327.029 454.452C327.194 459.016 327.341 463.581 327.414 468.2C327.433 469.373 327.451 470.491 327.414 471.756C327.414 471.921 327.396 472.086 327.378 472.306L327.359 472.49L327.304 472.82L327.286 472.893C327.249 472.984 327.323 472.765 327.194 473.204C327.011 473.846 326.424 474.561 325.819 474.854L325.434 475.038L324.719 475.349C324.242 475.551 323.766 475.771 323.307 476.009C321.474 476.926 319.806 478.062 318.467 479.382C317.147 480.72 316.176 482.26 315.736 483.873C315.314 485.486 315.387 487.173 316.011 488.713C317.202 491.847 320.466 494.12 324.059 494.395L323.839 494.377C329.578 494.469 335.298 494.359 340.853 493.589C346.371 492.819 351.798 491.389 356.308 488.658C358.563 487.283 360.561 485.596 362.229 483.617C363.916 481.637 365.218 479.327 366.189 476.871C368.188 471.921 368.793 466.33 368.829 460.739V460.721C368.829 460.629 368.829 460.538 368.848 460.464C369.141 457.348 369.379 454.213 369.728 451.115C370.076 447.999 370.498 444.901 370.883 441.785L373.211 423.124L375.539 404.463L377.959 385.82C378.033 385.307 378.491 384.94 379.023 385.014C379.518 385.087 379.866 385.527 379.848 386.003L378.656 404.774L377.373 423.527L376.089 442.28C375.869 445.414 375.686 448.531 375.429 451.665C375.173 454.782 374.824 457.898 374.494 461.014L374.513 460.739C374.458 466.789 373.834 473.039 371.469 478.96C370.296 481.912 368.683 484.753 366.611 487.246C364.539 489.739 362.028 491.866 359.314 493.552C353.833 496.925 347.691 498.501 341.696 499.4C335.683 500.261 329.688 500.444 323.748 500.353H323.729C323.674 500.353 323.601 500.353 323.546 500.334C322.171 500.188 320.796 499.913 319.476 499.455C318.156 498.978 316.891 498.336 315.717 497.53C313.371 495.935 311.501 493.589 310.437 490.876C309.337 488.163 309.282 485.046 310.071 482.278C310.877 479.492 312.527 477.109 314.434 475.239C316.377 473.388 318.577 471.995 320.832 470.895C321.401 470.601 321.969 470.363 322.537 470.125L323.399 469.777L323.454 469.758L323.472 469.74C323.472 469.74 323.601 469.685 323.179 469.868C322.592 470.143 322.024 470.821 321.841 471.426L321.767 471.72C321.767 471.756 321.749 471.793 321.749 471.83C321.749 471.866 321.749 471.811 321.749 471.793L321.767 471.5C321.822 470.491 321.841 469.318 321.859 468.2C321.914 463.672 321.896 459.108 321.877 454.543L321.859 440.85L321.896 427.157C321.896 418.028 321.987 408.881 322.134 399.752C322.134 399.238 322.574 398.817 323.087 398.817C323.601 398.835 324.004 399.22 324.041 399.697Z" fill="#000072"/>
<path d="M353.393 478.026C351.431 476.706 349.084 475.679 346.756 474.946C344.409 474.213 341.989 473.736 339.551 473.535C338.946 473.48 338.323 473.48 337.718 473.443L336.801 473.406L335.884 473.425L334.069 473.48L332.254 473.663L331.356 473.755L330.457 473.92L328.661 474.231C327.469 474.488 326.314 474.818 325.141 475.111L324.902 475.166C323.381 475.533 321.841 474.598 321.474 473.076C321.107 471.555 322.042 470.015 323.564 469.648C323.674 469.63 323.784 469.593 323.894 469.593C325.251 469.428 326.589 469.208 327.946 469.098L329.981 468.988L330.989 468.933L332.016 468.952L334.051 468.988L336.086 469.172L337.094 469.263L338.103 469.428C338.763 469.538 339.441 469.63 340.101 469.777C342.741 470.345 345.326 471.188 347.764 472.288C350.221 473.425 352.494 474.744 354.603 476.559C354.988 476.907 355.043 477.494 354.694 477.879C354.383 478.246 353.851 478.301 353.466 478.044L353.393 478.026Z" fill="#000072"/>
<path d="M342.173 484.038C342.099 484.955 342.118 485.963 342.228 486.898C342.319 487.851 342.503 488.768 342.741 489.629C343.016 490.472 343.364 491.242 343.786 491.902C344.226 492.544 344.758 493.02 345.289 493.387C346.591 494.285 346.921 496.082 346.023 497.402C345.124 498.703 343.328 499.033 342.008 498.135C341.751 497.952 341.513 497.732 341.329 497.493L341.219 497.347C340.376 496.21 339.771 494.982 339.423 493.735C339.093 492.489 338.964 491.279 338.983 490.106C339.001 488.933 339.148 487.814 339.386 486.733C339.624 485.651 339.918 484.625 340.339 483.562C340.541 483.067 341.091 482.847 341.568 483.03C341.953 483.195 342.191 483.58 342.154 483.983L342.173 484.038Z" fill="#000072"/>
<path d="M326.479 484.057C326.369 485.083 326.351 486.183 326.369 487.209C326.406 488.254 326.497 489.299 326.699 490.271C326.901 491.242 327.157 492.177 327.542 492.947C327.927 493.717 328.422 494.322 328.917 494.707C330.182 495.678 330.421 497.493 329.449 498.758C328.477 500.023 326.662 500.261 325.397 499.29C325.141 499.088 324.921 498.85 324.756 498.593L324.591 498.336C323.711 496.998 323.252 495.568 323.032 494.23C322.812 492.892 322.849 491.609 322.959 490.399C323.069 489.171 323.307 488.016 323.601 486.879C323.894 485.743 324.242 484.661 324.701 483.543C324.902 483.067 325.452 482.828 325.929 483.03C326.332 483.195 326.552 483.598 326.516 484.002L326.479 484.057Z" fill="#000072"/>
<path d="M390.371 496.503C380.599 496.503 370.112 493.607 363.017 486.769C361.899 485.688 361.862 483.892 362.944 482.773C364.026 481.655 365.822 481.618 366.941 482.7C375.741 491.187 390.958 492.47 401.444 489.318C407.274 487.576 411.198 484.533 411.968 481.197C412.884 477.127 409.291 472.856 406.101 469.978C405.074 469.043 404.873 467.522 405.606 466.349C415.946 450.181 419.906 426.808 414.644 413.152C412.389 407.304 408.631 403.62 403.479 402.208C402.288 401.878 401.444 400.815 401.389 399.587C400.124 364.263 391.416 338.434 374.017 318.325C372.991 317.152 373.119 315.355 374.311 314.329C375.484 313.302 377.281 313.431 378.308 314.622C396.274 335.373 405.423 361.733 406.981 397.405C412.866 399.642 417.321 404.353 419.943 411.117C425.663 425.965 422.069 449.777 411.619 467.412C417.798 473.736 418.274 479.015 417.504 482.443C416.276 487.888 411.014 492.379 403.094 494.744C399.281 495.88 394.899 496.503 390.371 496.503Z" fill="#000072"/>
<path d="M403.993 402.3L390.114 399.239C389.601 399.129 389.271 398.615 389.381 398.102C389.473 397.68 389.839 397.369 390.261 397.35L404.451 396.654C406.028 396.581 407.366 397.79 407.439 399.367C407.513 400.943 406.303 402.282 404.726 402.355C404.506 402.373 404.231 402.355 403.993 402.3Z" fill="#000072"/>
<path d="M406.688 470.382C406.651 470.345 406.394 470.217 406.229 470.125C406.046 470.015 405.808 469.923 405.606 469.832C405.166 469.648 404.726 469.447 404.249 469.3C403.314 468.952 402.343 468.677 401.353 468.42C399.373 467.925 397.301 467.614 395.193 467.412C393.103 467.192 390.976 467.174 388.831 467.192C387.768 467.21 386.686 467.284 385.623 467.339L382.396 467.632H382.359C381.846 467.687 381.388 467.302 381.333 466.789C381.296 466.312 381.608 465.89 382.048 465.78L385.274 464.992C386.356 464.791 387.456 464.552 388.556 464.369C390.756 464.021 392.993 463.727 395.266 463.617C397.521 463.507 399.813 463.526 402.141 463.746C403.296 463.874 404.469 464.021 405.624 464.277C406.211 464.387 406.798 464.534 407.403 464.699C407.696 464.791 407.989 464.864 408.301 464.974C408.631 465.084 408.869 465.157 409.328 465.377L410.208 465.78C411.711 466.459 412.371 468.218 411.674 469.722C410.996 471.225 409.236 471.885 407.733 471.188C407.329 470.986 406.963 470.711 406.688 470.382Z" fill="#000072"/>
<path d="M388.409 476.687C389.088 478.191 389.564 479.694 389.894 481.307C390.206 482.92 390.371 484.606 390.169 486.366C389.968 488.126 389.344 489.959 388.208 491.572C387.914 491.957 387.603 492.342 387.273 492.727C386.924 493.075 386.558 493.387 386.173 493.717C385.989 493.882 385.806 494.047 385.604 494.194L384.999 494.579L383.753 495.312C382.396 496.118 380.636 495.678 379.829 494.322C379.023 492.965 379.463 491.206 380.819 490.399C381.003 490.289 381.168 490.216 381.351 490.142L381.644 490.051C382.708 489.703 383.789 489.336 384.559 488.566C385.366 487.833 386.008 486.825 386.429 485.615C386.851 484.405 387.016 483.012 387.034 481.6C387.053 480.207 386.906 478.704 386.594 477.347L386.576 477.292C386.466 476.779 386.778 476.284 387.291 476.174C387.786 476.046 388.226 476.284 388.409 476.687Z" fill="#000072"/>
<path d="M401.463 476.284C402.453 477.586 403.223 478.924 403.883 480.39C404.525 481.857 405.02 483.47 405.185 485.211C405.331 486.953 405.056 488.859 404.268 490.619C404.048 491.041 403.828 491.481 403.608 491.902L402.746 493.039C402.471 493.442 402.123 493.754 401.775 494.065L400.729 495.019C399.556 496.082 397.759 496.008 396.696 494.835C395.633 493.662 395.706 491.866 396.879 490.802C397.026 490.674 397.191 490.546 397.356 490.454L397.631 490.289L398.346 489.867C398.603 489.739 398.841 489.593 399.024 489.409L399.648 488.896C399.813 488.694 399.978 488.493 400.161 488.291C400.803 487.448 401.243 486.385 401.426 485.156C401.573 483.928 401.481 482.572 401.206 481.234C400.931 479.895 400.473 478.502 399.904 477.274L399.868 477.219C399.648 476.742 399.849 476.192 400.326 475.954C400.729 475.808 401.206 475.936 401.463 476.284Z" fill="#000072"/>
<g opacity="0.3">
<path d="M364.997 484.735C358.251 493.46 346.939 496.503 333.776 497.2C332.804 496.76 332.272 496.522 332.272 496.522C311.959 498.062 312.509 487.723 314.562 481.6C315.351 479.217 316.359 477.494 316.451 477.311C316.469 477.292 316.469 477.292 316.469 477.292C316.451 479.052 316.836 480.372 317.551 481.325C320.374 485.248 328.404 483.122 336.067 479.694C340.247 477.824 344.336 475.551 347.416 473.644C357.517 467.412 359.479 437.422 361.844 394.986C361.936 393.281 362.027 391.631 362.101 390.036C364.007 352.128 361.844 347.343 361.844 347.343C287.319 356.307 251.55 316.749 251.55 316.749L255.015 316.675L307.76 318.563H317.276L376.181 316.437C396.091 339.442 403.131 368.149 404.249 399.458C408.686 400.668 412.078 403.253 414.534 406.809C390.059 392.603 373.761 393.666 375.026 427.523L374.952 443.087C380.507 418.285 423.133 396.544 417.009 444.975L418.568 440.337C416.771 450.126 413.049 459.969 408.008 467.852C432.886 490.362 384.431 503.488 364.997 484.735Z" fill="#000072"/>
</g>
<path d="M366.428 73.9897C456.738 21.2328 467.261 45.3015 445.995 152.868C460.148 226.12 477.455 300.654 365.951 322.486C334.821 328.572 302.774 328.572 271.644 322.486C160.14 300.672 177.447 226.12 191.6 152.868C170.334 45.3015 180.857 21.2328 271.167 73.9897C302.921 64.4209 334.674 64.4209 366.428 73.9897Z" fill="#8E8FB3"/>
<g opacity="0.3">
<path d="M271.644 315.135C302.774 321.221 334.821 321.221 365.951 315.135C435.38 301.552 454.868 267.511 456.261 226.083C455.656 206.01 451.605 184.526 447.425 163.006C447.058 163.152 446.691 163.299 446.325 163.427C446.581 163.336 446.838 163.226 447.076 163.134C448.103 172.171 448.671 181.025 448.488 189.567C449.405 234.735 432.153 272.479 358.104 286.979C326.974 293.065 294.927 293.065 263.797 286.979C216.552 277.722 192.425 259.024 181.389 234.937C181.59 235.395 181.81 235.835 182.03 236.275C186.32 273.047 207.99 302.689 271.644 315.135Z" fill="#000072"/>
</g>
<g opacity="0.6">
<path d="M453.566 64.9341C444.033 46.7863 418.513 52.6706 369.159 81.5055C337.406 71.955 305.652 71.955 273.899 81.5055C183.588 28.7302 173.065 52.7989 194.332 160.366C186.943 198.586 178.712 237.155 188.355 268.409C174.623 235.963 183.607 194.187 191.6 152.85C170.333 45.3015 180.857 21.2328 271.167 73.9897C302.921 64.4392 334.674 64.4392 366.427 73.9897C421.666 41.7086 447.058 38.189 453.566 64.9341Z" fill="#F5F5F5"/>
</g>
<path d="M315.882 284.302C338.421 284.302 356.693 270.925 356.693 254.423C356.693 237.921 338.421 224.543 315.882 224.543C293.344 224.543 275.072 237.921 275.072 254.423C275.072 270.925 293.344 284.302 315.882 284.302Z" fill="#F5F5F5"/>
<path d="M217.634 218.512C218.844 213.636 221.3 208.852 225.187 204.984C227.13 203.077 229.44 201.391 232.062 200.199C234.665 198.989 237.58 198.275 240.569 198.201C243.539 198.128 246.527 198.751 249.222 199.906C251.917 201.079 254.3 202.747 256.244 204.727C260.167 208.705 262.422 213.654 263.375 218.604C263.614 219.869 262.789 221.097 261.524 221.335C260.589 221.518 259.672 221.115 259.159 220.382L259.104 220.309C256.519 216.569 253.842 213.233 250.725 210.905C247.609 208.577 244.199 207.33 240.734 207.367C237.269 207.422 233.73 208.76 230.522 211.106C227.295 213.434 224.49 216.734 221.832 220.4L221.777 220.474C221.025 221.518 219.559 221.738 218.532 220.987C217.725 220.382 217.414 219.41 217.634 218.512Z" fill="#000072"/>
<path d="M411.436 220.382C408.777 216.716 405.972 213.434 402.746 211.088C399.537 208.723 395.999 207.403 392.534 207.348C389.069 207.312 385.659 208.558 382.542 210.886C379.407 213.214 376.749 216.569 374.164 220.29L374.109 220.364C373.376 221.427 371.927 221.683 370.864 220.95C370.076 220.4 369.727 219.465 369.911 218.585C370.864 213.636 373.137 208.687 377.042 204.709C378.986 202.729 381.369 201.043 384.064 199.888C386.741 198.733 389.729 198.11 392.717 198.183C395.687 198.256 398.602 198.971 401.224 200.181C403.846 201.373 406.137 203.059 408.099 204.965C411.968 208.833 414.443 213.618 415.653 218.494C415.964 219.74 415.194 221.005 413.948 221.317C412.994 221.555 412.041 221.17 411.509 220.437L411.436 220.382Z" fill="#000072"/>
<path d="M305.781 235.633C311.996 231.967 318.211 232.04 324.426 235.853C326.223 236.953 326.553 239.446 325.141 241.004C323.784 242.526 322.116 243.736 320.173 244.671C317.019 246.192 313.298 246.155 310.163 244.579C308.238 243.626 306.569 242.453 305.158 241.096C303.489 239.501 303.783 236.807 305.781 235.633Z" fill="#000072"/>
<path d="M318.962 244.707C319.017 245.642 319.072 246.559 319.091 247.494C319.109 247.897 319.091 248.612 319.072 249.18C318.999 249.785 318.944 250.39 318.797 250.977C318.284 253.36 317.074 255.559 315.424 257.301C314.599 258.181 313.627 258.914 312.619 259.537C311.592 260.142 310.474 260.6 309.337 260.93C308.751 261.059 308.182 261.224 307.596 261.279C307.302 261.315 307.009 261.352 306.734 261.389L305.946 261.425C304.882 261.462 303.837 261.444 302.792 261.334C300.702 261.114 298.667 260.637 296.706 259.849C294.762 259.042 292.892 257.906 291.352 256.293C290.582 255.486 289.922 254.551 289.427 253.488C288.951 252.443 288.694 251.27 288.694 250.133C288.657 247.824 289.592 245.807 290.729 244.194C291.059 243.736 291.701 243.626 292.159 243.956C292.562 244.249 292.691 244.762 292.507 245.202L292.489 245.239C291.811 246.815 291.426 248.465 291.719 249.913C291.994 251.343 292.819 252.535 293.992 253.47C295.184 254.386 296.651 255.046 298.209 255.449C299.767 255.871 301.417 256.054 303.031 256.036C303.837 256.018 304.662 255.963 305.451 255.853L306.037 255.761L306.551 255.651C306.881 255.596 307.192 255.449 307.522 255.358C308.769 254.844 309.869 254.056 310.694 253.048C311.537 252.04 312.142 250.867 312.417 249.602C312.527 249.29 312.527 248.96 312.601 248.648C312.601 248.3 312.656 248.08 312.674 247.549C312.692 246.614 312.747 245.697 312.802 244.762C312.912 243.057 314.379 241.774 316.084 241.903C317.642 241.958 318.852 243.204 318.962 244.707Z" fill="#000072"/>
<path d="M327.121 259.574C327.121 261.994 326.406 263.992 325.214 265.55C321.052 271.012 311.171 271.012 306.991 265.55C305.799 264.01 305.084 262.012 305.084 259.574C305.084 259.574 314.819 253.103 316.102 253.25C317.404 253.396 327.121 259.574 327.121 259.574Z" fill="#000072"/>
<path d="M325.214 265.531C321.052 270.994 311.171 270.994 306.991 265.531C311.171 260.069 321.052 260.069 325.214 265.531Z" fill="#F43838"/>
<path d="M318.962 244.707C319.017 245.642 319.072 246.559 319.09 247.494C319.09 248.025 319.145 248.245 319.164 248.593C319.237 248.905 319.237 249.235 319.347 249.547C319.622 250.812 320.227 251.985 321.07 252.993C321.895 254.001 322.995 254.789 324.242 255.303C324.554 255.394 324.866 255.541 325.214 255.596L325.727 255.706L326.314 255.798C327.102 255.908 327.927 255.963 328.734 255.981C330.366 255.999 331.997 255.816 333.556 255.394C335.114 254.991 336.599 254.331 337.772 253.415C338.946 252.48 339.771 251.288 340.046 249.858C340.339 248.429 339.954 246.779 339.276 245.184L339.257 245.147C339.037 244.634 339.276 244.029 339.789 243.791C340.247 243.589 340.761 243.754 341.036 244.139C342.172 245.752 343.107 247.769 343.071 250.078C343.052 251.215 342.814 252.388 342.337 253.433C341.861 254.478 341.182 255.431 340.412 256.238C338.872 257.851 337.002 258.987 335.059 259.794C333.097 260.6 331.062 261.059 328.972 261.279C327.927 261.389 326.882 261.407 325.819 261.37L325.031 261.334C324.756 261.315 324.444 261.26 324.169 261.224C323.582 261.169 323.014 261.004 322.427 260.875C321.29 260.545 320.172 260.087 319.145 259.482C318.137 258.859 317.165 258.126 316.34 257.246C314.69 255.504 313.48 253.305 312.967 250.922C312.82 250.335 312.765 249.73 312.692 249.125C312.655 248.557 312.637 247.842 312.674 247.439C312.692 246.504 312.747 245.587 312.802 244.652C312.912 242.948 314.379 241.664 316.084 241.793C317.642 241.958 318.852 243.204 318.962 244.707Z" fill="#000072"/>
<path d="M241.651 86.2715C224.234 96.9036 212.115 112.577 203.59 131.678C194.185 73.2931 188.997 53.9538 241.651 86.2715Z" fill="#F982BB"/>
<g opacity="0.3">
<path d="M241.651 86.2715C240.477 86.9864 239.341 87.7197 238.222 88.4713C205.992 71.1667 204.544 83.2652 209.989 119.194C207.66 123.172 205.534 127.333 203.59 131.678C194.185 73.2931 188.997 53.9538 241.651 86.2715Z" fill="#000072"/>
</g>
<path d="M395.944 86.2715C413.361 96.9036 425.479 112.577 434.004 131.678C443.409 73.2931 448.598 53.9538 395.944 86.2715Z" fill="#F982BB"/>
<g opacity="0.3">
<path d="M440.036 85.7583C435.435 78.9941 426.524 81.8171 409.053 96.097C405.056 92.4674 400.711 89.1862 395.944 86.2899C430.448 65.0991 440.11 66.1073 440.036 85.7583Z" fill="#000072"/>
</g>
<path d="M316.102 272.204C312.637 272.204 309.374 271.104 306.917 269.106C304.039 266.778 302.536 263.478 302.536 259.555C302.536 258.144 303.691 256.989 305.102 256.989C306.514 256.989 307.669 258.144 307.669 259.555C307.669 265.476 312.986 267.071 316.121 267.071C319.256 267.071 324.572 265.495 324.572 259.555C324.572 258.144 325.727 256.989 327.139 256.989C328.551 256.989 329.706 258.144 329.706 259.555C329.687 267.859 322.849 272.204 316.102 272.204Z" fill="#000072"/>
<path d="M203.59 134.757C203.462 134.757 203.334 134.757 203.187 134.739C201.83 134.556 200.767 133.529 200.547 132.173C200.162 129.753 199.777 127.407 199.41 125.133C194.185 93.0541 191.325 75.3829 200.162 69.4436C207.019 64.8425 219.1 68.8387 243.246 83.6502C244.162 84.2185 244.712 85.2083 244.712 86.2715C244.712 87.3347 244.162 88.3246 243.246 88.8929C227.332 98.6084 215.269 113.017 206.395 132.943C205.9 134.061 204.8 134.757 203.59 134.757ZM206.744 73.7697C205.479 73.7697 204.397 74.008 203.609 74.5396C198.219 78.1509 201.134 97.2152 205.094 121.651C213.124 106.656 223.28 95.0155 235.875 86.3632C227.699 81.4688 213.949 73.7697 206.744 73.7697Z" fill="#000072"/>
<path d="M318.797 330.167C302.847 330.167 286.897 328.609 271.057 325.511C220.97 315.704 191.875 294.275 182.104 259.959C173.505 229.749 180.637 193.014 187.53 157.488L188.429 152.85C177.41 96.9769 173.982 59.9664 190.739 48.0329C203.957 38.629 228.157 45.3748 271.571 70.5984C302.921 61.4146 334.674 61.4146 366.024 70.5984C409.438 45.3932 433.638 38.6473 446.856 48.0512C463.613 59.9664 460.185 96.9952 449.166 152.868L450.065 157.525C456.958 193.05 464.09 229.786 455.491 259.995C445.72 294.293 416.624 315.74 366.538 325.547C350.698 328.627 334.747 330.167 318.797 330.167ZM205.13 50.1409C200.675 50.1409 197.1 51.1491 194.332 53.1106C179.464 63.6876 185.697 107.022 194.625 152.264C194.699 152.648 194.699 153.052 194.625 153.455L193.617 158.698C179.629 230.702 166.429 298.729 272.231 319.425C303.122 325.474 334.454 325.474 365.346 319.425C471.148 298.711 457.948 230.702 443.96 158.698L442.951 153.455C442.878 153.07 442.878 152.648 442.951 152.264C451.898 107.022 458.113 63.7059 443.245 53.1106C432.355 45.3565 409.144 52.6156 367.986 76.666C367.234 77.106 366.354 77.1976 365.529 76.9593C334.509 67.6288 303.067 67.6288 272.066 76.9593C271.241 77.216 270.342 77.106 269.609 76.666C238.919 58.7382 218.202 50.1409 205.13 50.1409Z" fill="#000072"/>
<path d="M434.005 134.757C432.813 134.757 431.695 134.061 431.2 132.943C422.326 113.035 410.263 98.6267 394.349 88.8929C393.433 88.3429 392.883 87.3347 392.883 86.2715C392.883 85.2083 393.433 84.2001 394.349 83.6502C418.495 68.8203 430.576 64.8425 437.433 69.4436C446.27 75.3645 443.41 93.054 438.185 125.133C437.818 127.407 437.433 129.771 437.048 132.173C436.828 133.511 435.765 134.556 434.408 134.739C434.261 134.757 434.133 134.757 434.005 134.757ZM401.72 86.3632C414.315 95.0338 424.471 106.656 432.501 121.651C436.461 97.2152 439.376 78.1509 433.986 74.5396C428.67 70.9651 411.326 80.6072 401.72 86.3632Z" fill="#000072"/>
<path d="M428.486 262.525C429.971 262.232 431.236 262.048 432.611 261.902C433.949 261.737 435.306 261.627 436.644 261.554C439.321 261.389 442.016 261.37 444.693 261.462C450.046 261.682 455.381 262.415 460.551 263.808C465.721 265.183 470.726 267.2 475.31 269.913C479.93 272.571 484.073 275.998 487.685 279.848C488.07 280.251 488.051 280.911 487.648 281.296C487.245 281.663 486.64 281.663 486.255 281.296L486.236 281.278C482.515 277.813 478.371 274.844 473.843 272.626C469.351 270.371 464.53 268.794 459.616 267.823C454.703 266.833 449.661 266.503 444.656 266.613C442.163 266.686 439.651 266.87 437.176 267.2C435.948 267.365 434.701 267.548 433.491 267.768C432.299 267.988 431.016 268.263 429.971 268.538L429.916 268.556C428.266 269.014 426.543 268.043 426.103 266.393C425.644 264.743 426.616 263.02 428.266 262.58C428.339 262.562 428.413 262.543 428.486 262.525Z" fill="#000072"/>
<path d="M421.905 281.314C422.693 281.589 423.261 281.809 423.903 282.084C424.526 282.341 425.15 282.616 425.755 282.909C426.965 283.478 428.156 284.082 429.311 284.742C431.64 286.026 433.858 287.474 436.003 289.032C440.275 292.148 444.143 295.778 447.48 299.829C450.835 303.862 453.621 308.353 455.821 313.064C457.985 317.793 459.58 322.761 460.606 327.802C460.716 328.352 460.368 328.902 459.8 329.012C459.268 329.122 458.755 328.792 458.608 328.279V328.26C457.288 323.439 455.418 318.783 453.071 314.439C450.67 310.113 447.773 306.098 444.381 302.542C441.008 298.986 437.195 295.869 433.088 293.285C431.035 291.983 428.908 290.81 426.708 289.783C425.608 289.27 424.508 288.794 423.39 288.354C422.84 288.134 422.271 287.932 421.721 287.749C421.19 287.565 420.566 287.364 420.145 287.254L420.108 287.235C418.44 286.795 417.45 285.109 417.89 283.441C418.33 281.773 420.016 280.783 421.685 281.223C421.758 281.278 421.831 281.296 421.905 281.314Z" fill="#000072"/>
<path d="M203.059 268.556C202.032 268.263 200.73 268.006 199.539 267.786C198.329 267.566 197.1 267.364 195.854 267.218C193.379 266.906 190.885 266.705 188.374 266.631C183.369 266.503 178.345 266.851 173.414 267.841C168.5 268.813 163.678 270.389 159.187 272.644C154.658 274.862 150.515 277.85 146.793 281.296L146.775 281.314C146.353 281.699 145.712 281.681 145.327 281.259C144.96 280.856 144.96 280.251 145.327 279.866C148.938 276.017 153.082 272.589 157.702 269.931C162.303 267.218 167.308 265.201 172.46 263.827C177.63 262.433 182.965 261.7 188.319 261.48C190.995 261.37 193.672 261.407 196.367 261.572C197.705 261.645 199.044 261.774 200.4 261.92C201.775 262.085 203.04 262.25 204.525 262.543C206.212 262.892 207.294 264.523 206.945 266.21C206.597 267.896 204.965 268.978 203.279 268.629C203.205 268.611 203.15 268.593 203.077 268.574L203.059 268.556Z" fill="#000072"/>
<path d="M212.885 287.272C212.464 287.382 211.84 287.584 211.309 287.767C210.759 287.95 210.19 288.17 209.64 288.372C208.522 288.812 207.422 289.27 206.322 289.802C204.14 290.828 202.014 292.002 199.942 293.303C195.817 295.888 192.004 299.004 188.649 302.56C185.257 306.098 182.36 310.131 179.959 314.457C177.594 318.802 175.742 323.458 174.422 328.279C174.275 328.829 173.707 329.14 173.157 328.994C172.644 328.847 172.313 328.334 172.423 327.802C173.45 322.761 175.027 317.793 177.209 313.064C179.409 308.353 182.195 303.88 185.55 299.829C188.887 295.778 192.755 292.148 197.027 289.032C199.154 287.474 201.39 286.026 203.719 284.742C204.874 284.101 206.065 283.496 207.275 282.909C207.88 282.616 208.504 282.341 209.127 282.084C209.769 281.809 210.355 281.589 211.125 281.314C212.757 280.765 214.517 281.626 215.067 283.258C215.617 284.889 214.755 286.649 213.124 287.199C213.05 287.217 212.977 287.235 212.922 287.254L212.885 287.272Z" fill="#000072"/>
<path d="M456.188 189.384C455.601 179.247 447.204 171.31 437.048 171.31H360.817C342.374 171.053 338.451 185.314 338.451 185.314C323.399 176.552 308.366 176.552 293.314 185.314C293.314 185.314 289.391 171.053 270.947 171.31H194.717C184.542 171.31 176.145 179.247 175.577 189.384C174.037 216.367 183.259 235.945 204.709 247.054C222.62 256.329 243.869 256.751 262.44 248.85C279.436 241.646 291.866 228.246 295.789 203.297C307.981 192.885 321.254 191.859 335.976 203.297C339.917 228.246 352.347 241.628 369.324 248.85C387.896 256.732 409.144 256.329 427.056 247.054C448.506 235.927 457.728 216.367 456.188 189.384ZM247.865 236.917C240.165 238.97 232.062 239.391 224.234 237.851C205.314 234.094 194.057 222.673 191.435 197.541C190.757 190.997 195.854 185.296 202.435 185.296H267.721C273.807 185.296 278.886 190.099 279.161 196.185C280.206 218.457 270.452 230.904 247.865 236.917ZM440.311 197.541C437.708 222.673 426.433 234.094 407.513 237.851C399.703 239.391 391.599 238.97 383.881 236.917C361.313 230.904 351.559 218.457 352.586 196.185C352.879 190.081 357.921 185.296 364.026 185.296H429.293C435.893 185.296 440.989 191.015 440.311 197.541Z" fill="#F22A2A"/>
<g opacity="0.6">
<path d="M279.161 202.784C279.161 202.711 279.142 202.619 279.142 202.527C278.134 220.877 268.216 231.509 247.865 236.935C240.165 238.988 232.062 239.41 224.234 237.87C205.974 234.259 194.845 223.498 191.747 200.163C191.417 201.428 191.289 202.766 191.435 204.141C194.057 229.272 205.314 240.693 224.234 244.451C232.062 245.99 240.147 245.569 247.865 243.516C270.452 237.485 280.206 225.038 279.161 202.784ZM439.999 200.144C436.901 223.48 425.773 234.24 407.513 237.851C399.703 239.391 391.599 238.97 383.881 236.917C363.549 231.491 353.613 220.858 352.604 202.509C352.586 202.582 352.586 202.674 352.586 202.766C351.559 225.038 361.313 237.485 383.881 243.497C391.581 245.551 399.684 245.972 407.513 244.432C426.433 240.674 437.689 229.254 440.311 204.122C440.458 202.747 440.329 201.409 439.999 200.144ZM456.188 189.384C455.601 179.247 447.205 171.31 437.048 171.31H360.818C342.374 171.053 338.451 185.314 338.451 185.314C323.399 176.552 308.366 176.552 293.314 185.314C293.314 185.314 289.391 171.053 270.947 171.31H194.717C184.542 171.31 176.145 179.247 175.577 189.384C175.412 192.409 175.357 195.36 175.467 198.201C175.485 197.468 175.522 196.735 175.577 195.983C176.145 185.846 184.56 177.909 194.717 177.909H270.947C289.391 177.652 293.314 191.914 293.314 191.914C308.366 183.151 323.399 183.151 338.451 191.914C338.451 191.914 342.374 177.652 360.818 177.909H437.048C447.205 177.909 455.62 185.846 456.188 195.983C456.225 196.716 456.261 197.45 456.298 198.183C456.408 195.323 456.371 192.409 456.188 189.384ZM439.999 200.144C436.901 223.48 425.773 234.24 407.513 237.851C399.703 239.391 391.599 238.97 383.881 236.917C363.549 231.491 353.613 220.858 352.604 202.509C352.586 202.582 352.586 202.674 352.586 202.766C351.559 225.038 361.313 237.485 383.881 243.497C391.581 245.551 399.684 245.972 407.513 244.432C426.433 240.674 437.689 229.254 440.311 204.122C440.458 202.747 440.329 201.409 439.999 200.144ZM279.161 202.784C279.161 202.711 279.142 202.619 279.142 202.527C278.134 220.877 268.216 231.509 247.865 236.935C240.165 238.988 232.062 239.41 224.234 237.87C205.974 234.259 194.845 223.498 191.747 200.163C191.417 201.428 191.289 202.766 191.435 204.141C194.057 229.272 205.314 240.693 224.234 244.451C232.062 245.99 240.147 245.569 247.865 243.516C270.452 237.485 280.206 225.038 279.161 202.784Z" fill="#F5F5F5"/>
</g>
<path d="M235.234 257.521C224.179 257.521 213.252 254.936 203.297 249.767C181.223 238.328 170.865 217.944 172.497 189.182C173.157 177.414 182.928 168.212 194.717 168.212H270.947C271.112 168.212 271.295 168.212 271.46 168.212C284.587 168.212 291.792 175.287 294.835 180.97C308.824 173.876 322.959 173.876 336.929 180.97C340.009 175.214 347.342 168.028 360.854 168.23H437.048C448.836 168.23 458.589 177.45 459.268 189.201C460.899 217.962 450.541 238.346 428.468 249.785C409.914 259.39 387.914 260.087 368.114 251.691C348.534 243.369 337.076 228.099 333.134 205.02C320.832 195.873 309.814 195.855 298.63 204.947C294.707 228.063 283.249 243.369 263.632 251.691C254.465 255.578 244.804 257.521 235.234 257.521ZM271.424 174.371C271.277 174.371 271.13 174.371 270.984 174.371H194.717C186.173 174.371 179.115 181.043 178.638 189.549C177.117 216.037 186.118 233.965 206.12 244.322C223.06 253.085 243.135 253.708 261.23 246.027C279.307 238.346 289.317 224.635 292.745 202.839C292.855 202.106 293.222 201.464 293.79 200.988C307.761 189.054 322.592 189.036 337.846 200.896C338.469 201.373 338.872 202.069 339.001 202.839C342.447 224.635 352.457 238.365 370.516 246.027C388.611 253.708 408.704 253.085 425.626 244.322C445.628 233.965 454.629 216.056 453.126 189.549C452.631 181.043 445.573 174.371 437.048 174.371H360.817C345.051 174.133 341.549 185.644 341.402 186.139C341.146 187.056 340.467 187.789 339.587 188.156C338.707 188.504 337.717 188.449 336.892 187.973C322.739 179.724 308.989 179.724 294.854 187.973C294.029 188.449 293.02 188.522 292.14 188.156C291.26 187.789 290.6 187.038 290.344 186.121C290.215 185.644 286.769 174.371 271.424 174.371ZM397.887 241.848C392.974 241.848 387.987 241.188 383.092 239.886C359.094 233.489 348.442 219.557 349.524 196.038C349.891 188.284 356.271 182.217 364.044 182.217H429.311C433.308 182.217 437.121 183.921 439.798 186.891C442.474 189.861 443.776 193.875 443.354 197.853C440.751 222.948 429.549 236.605 408.099 240.858C404.781 241.518 401.353 241.848 397.887 241.848ZM364.044 188.376C359.552 188.376 355.886 191.877 355.666 196.331C354.712 217.027 363.384 228.283 384.669 233.947C392.112 235.927 399.794 236.238 406.908 234.827C425.571 231.124 434.921 219.539 437.249 197.211C437.488 194.957 436.754 192.684 435.233 190.997C433.711 189.292 431.603 188.357 429.311 188.357H364.044V188.376ZM233.877 241.848C230.412 241.848 226.984 241.518 223.647 240.858C202.197 236.605 190.995 222.948 188.392 197.853C187.97 193.857 189.272 189.861 191.948 186.891C194.625 183.921 198.438 182.217 202.435 182.217H267.72C275.494 182.217 281.874 188.284 282.222 196.038C283.322 219.557 272.652 233.489 248.654 239.886C243.777 241.188 238.79 241.848 233.877 241.848ZM202.453 188.376C200.162 188.376 198.072 189.311 196.532 191.015C195.01 192.702 194.277 194.975 194.515 197.23C196.843 219.557 206.193 231.142 224.857 234.845C231.97 236.257 239.652 235.945 247.095 233.965C268.399 228.301 277.07 217.046 276.099 196.35C275.897 191.877 272.23 188.394 267.739 188.394H202.453V188.376Z" fill="#000072"/>
<path d="M312.509 577.069C310.951 577.069 309.686 575.804 309.686 574.246V546.584C309.686 546.272 309.741 545.979 309.832 545.686C310.419 541.708 310.052 502.534 309.686 478.502C309.667 476.944 310.914 475.661 312.472 475.624C312.491 475.624 312.509 475.624 312.509 475.624C314.049 475.624 315.314 476.871 315.332 478.411C316.139 530.123 315.791 542.973 315.314 546.566H315.332V574.227C315.332 575.804 314.067 577.069 312.509 577.069Z" fill="#000072"/>
<g opacity="0.25">
<path d="M518.796 528.839C517.733 529.279 516.651 529.646 515.533 529.958L513.865 530.416L512.178 530.801C509.941 531.296 507.668 531.717 505.395 532.011C503.121 532.377 500.811 532.506 498.52 532.726C496.228 532.817 493.918 533.019 491.626 533.037C487.025 533.147 482.405 533.019 477.821 532.762L470.928 532.267L464.053 531.534C454.923 530.361 445.811 528.858 436.828 526.86L430.081 525.393C427.863 524.88 425.626 524.348 423.408 523.853C418.953 522.864 414.498 521.91 410.024 521.067C405.551 520.206 401.059 519.436 396.568 518.812C392.076 518.152 387.584 517.639 383.074 517.291C374.091 516.594 365.053 516.686 356.363 518.317C352.036 519.142 347.783 520.334 343.768 522.039C339.734 523.725 335.939 525.888 332.437 528.51C325.416 533.716 319.696 540.608 314.892 548.124C314.049 549.444 312.307 549.829 310.987 548.985C310.639 548.765 310.346 548.454 310.126 548.124C305.322 540.626 299.602 533.716 292.581 528.51C289.079 525.906 285.284 523.725 281.251 522.039C277.236 520.352 272.982 519.161 268.656 518.336C259.966 516.723 250.927 516.613 241.944 517.309C237.452 517.657 232.942 518.171 228.45 518.831C223.959 519.454 219.467 520.224 214.994 521.085C210.52 521.929 206.065 522.882 201.61 523.872C199.374 524.348 197.155 524.898 194.937 525.412L188.19 526.878C179.207 528.876 170.095 530.379 160.965 531.552L154.09 532.286L147.197 532.781C142.595 533.037 137.993 533.166 133.392 533.056C131.082 533.037 128.79 532.854 126.498 532.744C124.207 532.506 121.915 532.377 119.623 532.029C117.35 531.736 115.077 531.314 112.84 530.819L111.153 530.434L109.485 529.976C108.385 529.664 107.285 529.298 106.222 528.858C107.303 529.224 108.422 529.518 109.54 529.756L111.208 530.104L112.895 530.379C115.15 530.728 117.423 531.003 119.697 531.149C121.97 531.387 124.262 531.387 126.535 531.516C128.827 531.497 131.1 531.571 133.373 531.461C142.485 531.167 151.579 530.269 160.58 528.766C169.582 527.281 178.529 525.503 187.347 523.23L200.675 519.857C205.149 518.757 209.622 517.694 214.132 516.723C223.134 514.761 232.264 513.166 241.54 512.341C246.179 511.901 250.836 511.682 255.529 511.773C260.222 511.847 264.934 512.213 269.609 513.038C278.959 514.615 288.144 518.299 295.862 524.037C303.617 529.738 309.814 537.162 314.892 545.062H310.126C315.204 537.18 321.401 529.738 329.156 524.055C336.874 518.317 346.059 514.633 355.409 513.056C360.084 512.25 364.796 511.865 369.489 511.792C374.183 511.718 378.858 511.92 383.478 512.36C392.754 513.185 401.866 514.798 410.886 516.741C415.396 517.712 419.869 518.757 424.343 519.876L437.671 523.248C446.508 525.522 455.455 527.3 464.438 528.784C473.44 530.288 482.515 531.186 491.645 531.479C493.918 531.589 496.21 531.497 498.483 531.534C500.756 531.424 503.048 531.406 505.321 531.168C507.595 531.003 509.868 530.746 512.123 530.379L513.81 530.104L515.478 529.756C516.615 529.499 517.715 529.206 518.796 528.839Z" fill="#000072"/>
<path d="M299.474 553.641C296.192 550.232 292.746 547.042 289.042 544.274C285.321 541.525 281.361 539.142 277.144 537.382C272.927 535.604 268.509 534.375 263.981 533.606C259.452 532.891 254.814 532.561 250.157 532.597C240.844 532.671 231.457 533.881 222.125 535.402C212.775 536.942 203.462 538.867 194.112 540.663C193.599 540.755 193.104 540.425 193.012 539.911C192.92 539.435 193.214 538.977 193.654 538.83C202.784 536.025 212.024 533.569 221.41 531.552C226.104 530.581 230.834 529.701 235.619 529.078C240.404 528.436 245.244 527.996 250.12 527.941C254.997 527.886 259.91 528.125 264.769 529.004C269.627 529.866 274.412 531.332 278.904 533.441C287.906 537.712 295.367 544.568 300.922 552.432C301.216 552.853 301.124 553.44 300.702 553.751C300.317 554.045 299.804 553.971 299.474 553.641Z" fill="#000072"/>
<path d="M101.491 538.812C101.986 539.032 102.646 539.307 103.251 539.527C103.856 539.765 104.516 539.966 105.14 540.205C106.423 540.608 107.725 541.03 109.045 541.36C111.666 542.093 114.361 542.624 117.075 543.138C122.501 544.091 128.02 544.604 133.556 544.861L137.718 544.989C139.112 545.026 140.487 544.971 141.88 544.971C144.667 544.989 147.435 544.788 150.222 544.659C153.008 544.513 155.777 544.183 158.545 543.944C161.313 543.614 164.082 543.211 166.85 542.844H166.887C167.308 542.789 167.712 543.083 167.767 543.523C167.822 543.944 167.528 544.329 167.125 544.403C164.357 544.898 161.588 545.429 158.82 545.906C156.033 546.272 153.247 546.749 150.442 547.024C147.637 547.281 144.832 547.629 142.008 547.739C140.597 547.812 139.185 547.922 137.773 547.959L133.52 548.032C127.855 548.032 122.171 547.776 116.506 547.042C113.683 546.657 110.841 546.217 108.036 545.594C106.625 545.301 105.231 544.934 103.838 544.549C103.141 544.329 102.445 544.164 101.73 543.908C101.015 543.669 100.355 543.449 99.5664 543.138C98.3564 542.643 97.7697 541.268 98.2647 540.058C98.7597 538.848 100.135 538.262 101.345 538.757C101.381 538.775 101.4 538.775 101.436 538.793L101.491 538.812Z" fill="#000072"/>
<path d="M98.1915 547.171C98.3932 547.336 98.7599 547.629 99.0716 547.849C99.4016 548.087 99.7499 548.307 100.098 548.527C100.813 548.949 101.547 549.37 102.298 549.737C103.82 550.489 105.415 551.13 107.065 551.607C108.715 552.083 110.402 552.505 112.143 552.707C113.867 552.963 115.627 553.037 117.387 553.055H117.423C117.937 553.055 118.358 553.495 118.358 554.008C118.358 554.485 117.992 554.888 117.533 554.943C115.7 555.163 113.83 555.328 111.96 555.291C110.09 555.31 108.202 555.108 106.332 554.815C104.462 554.521 102.61 554.045 100.777 553.422C99.8599 553.128 98.9616 552.762 98.0632 552.358C97.6232 552.157 97.1649 551.955 96.7249 551.717C96.2665 551.478 95.8815 551.258 95.3315 550.91L95.3132 550.892C94.2132 550.177 93.9199 548.71 94.6349 547.611C95.3499 546.511 96.8165 546.217 97.9165 546.932C98.0082 547.006 98.1182 547.097 98.1915 547.171Z" fill="#000072"/>
<path d="M324.957 553.513C326.607 550.763 328.587 548.417 330.75 546.162C332.914 543.926 335.297 541.928 337.827 540.131C340.357 538.335 343.052 536.74 345.857 535.384C348.681 534.046 351.596 532.946 354.584 532.047C357.572 531.149 360.652 530.563 363.732 530.086C366.831 529.701 369.947 529.426 373.064 529.444C379.297 529.389 385.512 530.086 391.599 531.314C394.642 531.901 397.667 532.744 400.546 533.624L409.254 536.227C415.066 537.95 420.896 539.6 426.744 541.195C438.441 544.348 450.156 547.299 462.219 548.454C462.733 548.509 463.118 548.967 463.063 549.48C463.008 549.994 462.568 550.36 462.073 550.324H462.054C455.986 549.957 449.863 549.26 443.849 548.179C437.836 547.134 431.859 545.869 425.919 544.531C419.979 543.174 414.057 541.763 408.154 540.296L390.609 535.86C384.834 534.467 378.949 533.587 373.027 533.404C370.076 533.276 367.124 533.441 364.172 533.679C361.239 534.027 358.324 534.467 355.464 535.2C352.604 535.934 349.799 536.868 347.086 538.042C344.372 539.233 341.769 540.626 339.294 542.258C336.819 543.889 334.472 545.704 332.327 547.757C330.2 549.792 328.165 552.065 326.589 554.448L326.552 554.503C326.259 554.943 325.69 555.053 325.25 554.778C324.829 554.521 324.7 553.953 324.957 553.513Z" fill="#000072"/>
<path d="M526.845 546.914C523.013 547.794 519.328 548.362 515.57 548.857C511.811 549.334 508.071 549.682 504.294 549.884C500.536 550.085 496.778 550.214 493.019 550.159C489.261 550.159 485.503 549.957 481.763 549.719C481.249 549.682 480.846 549.242 480.883 548.71C480.919 548.215 481.323 547.831 481.818 547.831H481.836C485.539 547.831 489.243 547.794 492.946 547.574C496.649 547.391 500.334 547.024 504.001 546.602C507.668 546.162 511.316 545.576 514.928 544.898C518.521 544.201 522.17 543.394 525.561 542.386L525.635 542.368C526.881 542.001 528.201 542.698 528.568 543.963C528.935 545.209 528.238 546.529 526.973 546.896C526.936 546.896 526.881 546.896 526.845 546.914Z" fill="#000072"/>
</g>
<path d="M338.597 619.615C337.552 619.615 336.544 619.029 336.049 618.039C335.352 616.627 335.939 614.941 337.351 614.244C350.147 607.957 358.507 601.724 364.447 594.007C368.261 589.057 375.356 588.104 380.269 591.862C387.932 597.728 402.581 606.563 414.571 599.946C415.946 599.194 417.669 599.689 418.421 601.046C419.173 602.421 418.678 604.144 417.321 604.895C402.526 613.071 385.604 603.044 376.841 596.353C374.402 594.483 370.846 594.978 368.939 597.453C362.431 605.885 353.466 612.631 339.844 619.304C339.441 619.523 339.019 619.615 338.597 619.615Z" fill="#000072"/>
<g opacity="0.3">
<path d="M335.884 574.246C335.884 574.246 339.973 593.438 339.899 591.862C339.826 590.285 348.424 577.087 348.424 577.087L344.593 561.396" fill="#000072"/>
</g>
<g opacity="0.3">
<path d="M133.758 581.486L272.065 589.809L282.992 601.559C282.992 601.559 295.074 602.934 295.294 601.559C295.532 600.184 296.394 593.347 296.394 593.347L284.129 589.534L275.017 576.61L138.452 577.069" fill="#000072"/>
</g>
<g opacity="0.3">
<path d="M320.227 602.182C321.602 602.109 332.144 601.541 339.936 601.119C345.252 600.826 350.092 598.003 352.971 593.512L356.857 587.444L450.743 583.191L454.281 577.05H349.561L340.761 589.607L314.342 592.375" fill="#000072"/>
</g>
</g>
<defs>
<clipPath id="clip0_243_3432">
<rect width="475" height="576" fill="white" transform="translate(64 44)"/>
</clipPath>
</defs>
</svg>
