<svg width="638" height="611" viewBox="0 0 638 611" fill="none" xmlns="http://www.w3.org/2000/svg">
<ellipse cx="325" cy="299.5" rx="313" ry="299.5" fill="#B0A2D7"/>
<g clip-path="url(#clip0_246_8624)">
<path d="M520.471 558.809C519.966 560.228 519.422 561.667 518.84 563.105C504.755 597.607 473.477 613.158 452.204 605.869C430.932 598.579 415.72 584.992 362.121 590.066C342.188 591.951 346.521 577.392 359.809 558.343C382.286 526.154 430.388 481.136 430.388 481.136C430.388 481.136 447.93 489.241 462.248 510.137C462.248 510.137 473.671 488.269 498.441 493.129C522.181 497.775 532.089 526.076 520.471 558.809Z" fill="#8C8CAA"/>
<g opacity="0.3">
<path d="M520.471 558.809C519.966 560.228 519.422 561.667 518.84 563.105C504.755 597.607 473.477 613.158 452.204 605.868C430.932 598.579 415.72 584.992 362.121 590.065C342.188 591.951 346.521 577.392 359.809 558.343C374.962 556.282 393.224 559.956 393.224 559.956C393.224 559.956 426.327 576.245 436.915 571.677C445.891 567.809 446.862 555.311 446.959 551.559C447.056 604.702 487.97 606.277 519.092 558.051L520.471 558.809Z" fill="#211E7A"/>
</g>
<g opacity="0.6">
<path d="M525.231 536.184C524.104 517.504 514.391 503.683 498.441 500.554C473.671 495.694 462.248 517.562 462.248 517.562C447.911 496.666 430.388 488.561 430.388 488.561C430.388 488.561 356.603 557.585 349.124 585.828C340.207 565.476 430.388 481.097 430.388 481.097C430.388 481.097 447.93 489.202 462.248 510.098C462.248 510.098 473.671 488.23 498.441 493.09C516.45 496.647 526.513 513.811 525.231 536.184Z" fill="white"/>
</g>
<path d="M463.161 611C458.907 611 454.846 610.359 451.097 609.076C446.687 607.56 442.627 605.83 438.333 604.002C422.403 597.199 404.336 589.482 362.431 593.448C353.767 594.264 348.249 592.204 346.035 587.305C343.198 581.007 344.034 567.537 383.821 523.646C405.113 500.146 427.823 478.861 428.056 478.648C429.066 477.695 430.543 477.462 431.806 478.045C432.505 478.375 448.125 485.742 462.151 504.208C467.319 497.541 479.441 485.937 499.082 489.785C509.534 491.846 517.829 498.027 523.036 507.688C531.02 522.499 530.632 543.162 521.967 564.388C509.301 595.45 484.065 611 463.161 611ZM383.957 585.536C412.456 585.536 427.454 591.951 440.995 597.724C445.172 599.512 449.115 601.184 453.292 602.622C472.661 609.27 502.346 594.439 515.673 561.783C523.444 542.734 523.968 523.724 517.052 510.895C512.836 503.081 506.173 498.085 497.78 496.433C475.886 492.137 465.687 510.895 465.259 511.692C464.696 512.742 463.627 513.441 462.442 513.5C461.257 513.558 460.111 513.014 459.451 512.042C448.649 496.278 435.808 488.017 430.951 485.256C425.239 490.699 406.531 508.699 388.833 528.214C350.445 570.569 351.105 581.999 352.232 584.487C353.378 587.053 358.721 586.936 361.79 586.644C370.008 585.886 377.351 585.536 383.957 585.536Z" fill="#211E7A"/>
<path d="M465.201 511.828C462.365 516.24 459.703 521.061 457.333 525.804C454.924 530.644 452.787 535.6 450.961 540.693C450.339 542.384 447.775 541.626 448.163 539.857C449.387 534.454 450.98 529.128 452.845 523.899C454.749 518.592 456.808 513.538 459.295 508.426C461.588 504.208 467.707 507.707 465.201 511.828Z" fill="#211E7A"/>
<path d="M109.295 558.809C109.8 560.228 110.344 561.667 110.927 563.105C125.012 597.607 156.289 613.158 177.562 605.868C198.835 598.579 214.046 584.992 267.646 590.065C287.559 591.951 283.246 577.392 269.958 558.343C247.481 526.134 199.379 481.116 199.379 481.116C199.379 481.116 181.836 489.222 167.518 510.118C167.518 510.118 156.095 488.25 131.325 493.109C107.585 497.774 97.6776 526.076 109.295 558.809Z" fill="#8C8CAA"/>
<g opacity="0.3">
<path d="M109.295 558.809C109.801 560.228 110.344 561.667 110.927 563.105C125.012 597.607 156.29 613.158 177.562 605.868C198.835 598.579 214.047 584.992 267.646 590.065C287.559 591.951 283.246 577.392 269.958 558.343C254.805 556.282 236.543 559.956 236.543 559.956C236.543 559.956 203.439 576.245 192.832 571.677C183.857 567.809 182.886 555.311 182.788 551.559C182.691 604.702 141.778 606.277 110.655 558.051L109.295 558.809Z" fill="#211E7A"/>
</g>
<g opacity="0.6">
<path d="M104.536 536.184C105.662 517.504 115.376 503.683 131.326 500.554C156.095 495.694 167.518 517.562 167.518 517.562C181.856 496.666 199.379 488.561 199.379 488.561C199.379 488.561 273.163 557.585 280.643 585.828C289.56 565.476 199.379 481.097 199.379 481.097C199.379 481.097 181.836 489.202 167.518 510.098C167.518 510.098 156.095 488.23 131.326 493.09C113.317 496.647 103.253 513.811 104.536 536.184Z" fill="white"/>
</g>
<path d="M166.605 611C145.702 611 120.466 595.45 107.799 564.368C99.1349 543.142 98.7463 522.48 106.731 507.668C111.937 498.008 120.233 491.807 130.685 489.766C150.325 485.917 162.429 497.522 167.616 504.189C181.642 485.723 197.261 478.356 197.961 478.025C199.224 477.442 200.7 477.676 201.71 478.628C201.943 478.842 224.654 500.126 245.946 523.627C285.733 567.537 286.568 580.988 283.732 587.286C281.537 592.184 276.019 594.244 267.335 593.428C225.431 589.463 207.383 597.18 191.433 603.983C187.14 605.81 183.099 607.54 178.67 609.056C174.92 610.358 170.841 611 166.605 611ZM138.358 495.811C136.357 495.811 134.24 496.006 131.986 496.453C123.594 498.105 116.93 503.1 112.714 510.914C105.798 523.743 106.323 542.754 114.094 561.803C127.421 594.458 157.106 609.27 176.474 602.642C180.651 601.203 184.595 599.532 188.772 597.743C205.46 590.61 224.362 582.543 267.976 586.664C271.046 586.955 276.369 587.052 277.535 584.506C278.661 582.018 279.322 570.589 240.934 528.233C223.236 508.698 204.527 490.699 198.816 485.276C193.959 488.017 181.137 496.297 170.316 512.061C169.636 513.053 168.49 513.597 167.305 513.538C166.12 513.461 165.051 512.78 164.488 511.711C164.119 510.992 155.862 495.811 138.358 495.811Z" fill="#211E7A"/>
<path d="M170.452 508.426C174.124 516.027 177.077 523.763 179.486 531.81C180.282 534.454 180.962 537.156 181.584 539.858C181.759 540.635 181.273 541.432 180.496 541.607C179.758 541.782 179.019 541.354 178.786 540.654C175.173 530.566 170.277 520.808 164.546 511.789C162.118 507.688 168.198 504.228 170.452 508.426Z" fill="#211E7A"/>
<path d="M131.889 570.55C136.299 580.93 148.538 588.219 156.328 584.914C164.119 581.591 166.858 570.492 162.428 560.131C158.018 549.751 148.13 544.037 140.34 547.36C132.569 550.665 127.479 560.17 131.889 570.55Z" fill="white"/>
<path d="M156.911 538.341C160.698 538.341 163.769 534.129 163.769 528.933C163.769 523.737 160.698 519.525 156.911 519.525C153.124 519.525 150.053 523.737 150.053 528.933C150.053 534.129 153.124 538.341 156.911 538.341Z" fill="white"/>
<path d="M123.828 548.584C127.428 547.407 129.04 542.45 127.428 537.511C125.816 532.571 121.591 529.521 117.991 530.697C114.39 531.874 112.778 536.831 114.39 541.77C116.002 546.709 120.228 549.76 123.828 548.584Z" fill="white"/>
<path d="M137.446 535.876C141.617 534.513 143.692 529.404 142.08 524.465C140.468 519.526 135.78 516.627 131.608 517.99C127.437 519.353 125.362 524.462 126.974 529.401C128.586 534.34 133.274 537.239 137.446 535.876Z" fill="white"/>
<path d="M499.101 570.55C494.691 580.93 482.452 588.219 474.662 584.914C466.872 581.591 464.132 570.492 468.562 560.131C472.972 549.751 482.86 544.037 490.65 547.36C498.441 550.665 503.511 560.17 499.101 570.55Z" fill="white"/>
<path d="M474.099 538.341C477.886 538.341 480.956 534.129 480.956 528.933C480.956 523.737 477.886 519.525 474.099 519.525C470.311 519.525 467.241 523.737 467.241 528.933C467.241 534.129 470.311 538.341 474.099 538.341Z" fill="white"/>
<path d="M516.611 541.772C518.223 536.833 516.611 531.875 513.011 530.699C509.411 529.523 505.185 532.573 503.573 537.512C501.962 542.452 503.573 547.409 507.174 548.585C510.774 549.762 515 546.711 516.611 541.772Z" fill="white"/>
<path d="M504.009 529.405C505.621 524.466 503.546 519.357 499.375 517.994C495.203 516.631 490.515 519.53 488.903 524.469C487.291 529.409 489.366 534.517 493.538 535.88C497.709 537.243 502.397 534.344 504.009 529.405Z" fill="white"/>
<path d="M397.245 376.054C397.245 376.054 437.77 378.309 476.741 409.565L494.147 415.027V432.716L481.209 447.975L463.18 467.937L410.941 475.46C410.941 475.46 382.13 495.17 366.2 497.58C350.27 499.99 318.895 503.061 301.372 504.131C283.848 505.2 297.758 510.72 245.48 499.485C193.201 488.25 184.614 486.967 182.011 475.44C179.427 463.914 173.502 426.671 173.502 426.671L215.348 370.845L330.609 360.446L397.245 376.054Z" fill="#8C8CAA"/>
<path d="M314.466 562.891C362.715 562.891 401.83 523.755 401.83 475.479C401.83 427.203 362.715 388.067 314.466 388.067C266.216 388.067 227.102 427.203 227.102 475.479C227.102 523.755 266.216 562.891 314.466 562.891Z" fill="white"/>
<path d="M412.145 414.23C415.895 420.392 417.915 427.351 419.78 434.232C421.082 439.169 422.17 444.709 423.063 449.763L423.899 454.972C424.19 456.838 422.927 458.568 421.062 458.879C419.1 459.21 417.255 457.732 417.138 455.73V455.652L416.808 450.521L416.361 445.409C415.467 436.953 414.205 428.439 411.562 420.353C411.038 418.818 410.397 417.088 409.659 415.727C408.823 414.133 411.116 412.734 412.145 414.23Z" fill="#211E7A"/>
<path d="M477.945 371.836C477.945 371.836 463.375 359.318 453.506 370.165C443.637 381.011 451.078 392.985 451.078 392.985L464.521 390.574" fill="#8C8CAA"/>
<path d="M451.077 396.406C449.912 396.406 448.824 395.804 448.183 394.793C445.133 389.894 441.811 377.96 450.98 367.871C460.558 357.355 474.254 364.178 480.16 369.251C481.578 370.476 481.753 372.614 480.529 374.053C479.305 375.471 477.168 375.646 475.731 374.422C475.206 373.975 463.511 364.198 456.012 372.459C450.145 378.912 451.699 385.851 453.001 389.195L463.899 387.231C465.745 386.901 467.513 388.126 467.843 389.972C468.173 391.819 466.949 393.588 465.104 393.918L451.66 396.348C451.485 396.387 451.272 396.406 451.077 396.406Z" fill="#211E7A"/>
<path d="M476.741 412.967C476.003 412.967 475.245 412.714 474.623 412.229C436.935 382.003 397.459 379.476 397.07 379.456C395.186 379.359 393.767 377.746 393.865 375.88C393.962 374.014 395.594 372.595 397.439 372.672C399.149 372.77 439.499 375.335 478.878 406.922C480.335 408.088 480.587 410.246 479.402 411.704C478.722 412.54 477.732 412.967 476.741 412.967Z" fill="#211E7A"/>
<path d="M394.234 452.776L397.439 456.644C398.954 458.471 401.635 458.763 403.52 457.324L576.363 324.194C579.705 321.628 580.171 316.788 577.412 313.601L572.73 308.216C570.127 305.223 565.62 304.854 562.551 307.38L394.797 446.556C392.932 448.13 392.679 450.91 394.234 452.776Z" fill="#EDAB18"/>
<g opacity="0.3">
<path d="M576.344 324.213L403.5 457.343C401.616 458.782 398.935 458.49 397.42 456.663L394.214 452.775C393.981 452.484 393.767 452.173 393.612 451.842C395.03 452.445 396.72 452.309 398.022 451.298L570.865 318.168C574.187 315.602 574.692 310.743 571.914 307.575L571.623 307.244C572.011 307.516 572.361 307.866 572.691 308.235L577.373 313.62C580.171 316.808 579.685 321.648 576.344 324.213Z" fill="#211E7A"/>
</g>
<path d="M535.916 331.211L549.651 319.471L561.851 335.371L547.475 346.45L535.916 331.211Z" fill="#211E7A"/>
<path d="M400.819 461.659C398.585 461.659 396.351 460.687 394.816 458.821L391.611 454.952C388.871 451.648 389.338 446.711 392.64 443.97L560.394 304.795C564.901 301.043 571.448 301.588 575.295 306.02L579.977 311.404C581.9 313.62 582.852 316.574 582.56 319.49C582.269 322.406 580.773 325.127 578.442 326.915L405.598 460.045C404.141 461.134 402.471 461.659 400.819 461.659ZM567.213 309.13C566.339 309.13 565.445 309.421 564.726 310.043L396.973 449.218C396.545 449.568 396.487 450.21 396.837 450.618L400.042 454.486C400.392 454.914 400.994 454.972 401.421 454.641L574.265 321.512C575.12 320.851 575.664 319.879 575.761 318.81C575.877 317.721 575.528 316.671 574.828 315.855L570.146 310.471C569.389 309.577 568.301 309.13 567.213 309.13Z" fill="#211E7A"/>
<path d="M376.186 404.045L377.177 408.982C377.643 411.315 379.858 412.85 382.189 412.462L597.481 377.337C601.638 376.657 604.358 372.614 603.426 368.513L601.852 361.554C600.978 357.686 597.17 355.217 593.285 355.995L379.625 398.855C377.254 399.341 375.72 401.654 376.186 404.045Z" fill="#EDAB18"/>
<g opacity="0.3">
<path d="M597.481 377.337L382.189 412.462C379.858 412.831 377.623 411.295 377.157 408.982L376.186 404.045C376.108 403.676 376.089 403.306 376.108 402.937C377.06 404.142 378.634 404.823 380.246 404.55L595.538 369.426C599.695 368.746 602.415 364.703 601.502 360.601L601.405 360.174C601.619 360.601 601.774 361.068 601.871 361.554L603.425 368.513C604.338 372.634 601.619 376.657 597.481 377.337Z" fill="#211E7A"/>
</g>
<path d="M558.548 364.295L576.208 360.485L579.413 380.273L561.501 383.208L558.548 364.295Z" fill="#211E7A"/>
<path d="M381.451 415.922C377.798 415.922 374.573 413.356 373.835 409.643L372.844 404.706C372.009 400.488 374.748 396.367 378.964 395.531L592.624 352.671C598.374 351.524 603.892 355.1 605.174 360.815L606.747 367.774C607.388 370.651 606.825 373.683 605.174 376.113C603.522 378.543 600.919 380.214 598.025 380.681L382.752 415.805C382.305 415.883 381.878 415.922 381.451 415.922ZM594.722 359.26C594.469 359.26 594.217 359.28 593.964 359.338L380.304 402.198C379.76 402.315 379.411 402.84 379.527 403.365L380.518 408.302C380.615 408.827 381.12 409.177 381.664 409.099L596.956 373.975C598.025 373.8 598.957 373.197 599.559 372.303C600.162 371.409 600.375 370.32 600.142 369.251L598.569 362.292C598.141 360.504 596.509 359.26 594.722 359.26Z" fill="#211E7A"/>
<path d="M451.136 474.255C449.193 473.827 447.211 473.302 445.171 472.719L447.464 470.542L468.892 450.132L496.284 424.027L497.217 423.153C496.692 423.366 496.207 423.58 495.701 423.775C483.987 428.537 475.031 427.701 468.678 423.736C464.676 421.248 461.684 417.496 459.664 413.123C453.02 398.68 457.139 377.396 470.174 371.875C470.174 371.875 483.948 366.958 497.469 379.009C502.89 383.83 508.251 391.391 512.661 403.054C527.601 442.454 505.629 486.714 451.136 474.255Z" fill="#8C8CAA"/>
<g opacity="0.3">
<path d="M451.136 474.255L447.464 470.542L419.508 442.104L433.71 437.731C433.71 437.731 452.088 446.303 468.873 450.132C479.791 452.64 490.048 453.145 494.128 447.994C503.375 436.331 497.625 426.088 496.265 424.027C496.11 423.775 496.012 423.658 496.012 423.658C495.896 423.716 495.799 423.736 495.682 423.775C483.327 428.634 474.584 427.06 468.659 423.736C461.296 419.615 458.304 412.831 458.188 412.52C458.693 412.734 459.179 412.928 459.664 413.123C485.172 423.308 511.03 414.347 497.431 378.99L497.47 379.009C502.89 383.83 508.252 391.391 512.662 403.054C527.601 442.454 505.629 486.714 451.136 474.255Z" fill="#211E7A"/>
</g>
<path d="M497.994 424.921C490.068 428.789 479.946 431.297 471.185 428.051C461.898 424.863 455.915 415.688 453.953 406.416C451.175 392.751 455.332 374.188 469.514 368.512C480.257 365.48 492.069 369.27 500.073 376.754C509.087 385.21 514.332 396.289 517.849 407.894C522.88 425.213 521.482 445.331 510.583 460.22C499.665 475.693 479.849 481.524 461.704 479.405C455.759 478.803 449.931 477.578 444.239 475.965C442.432 475.46 441.383 473.574 441.888 471.766C442.394 469.939 444.317 468.89 446.143 469.434C451.486 470.931 456.906 472.077 462.365 472.641C501.122 476.898 521.346 445.253 511.321 409.779C506.853 395.142 498.286 378.231 482.083 374.771C478.586 374.072 474.429 374.091 471.282 375.121C456.206 382.469 456.711 412.073 469.961 421.072C470.272 421.267 471.69 422.083 471.942 422.258C472.564 422.53 473.458 422.919 474.079 423.211C480.043 425.329 486.532 424.493 492.535 422.725L496.44 421.364L496.518 421.345C498.83 420.567 500.17 423.833 497.994 424.921Z" fill="#211E7A"/>
<path d="M251.697 491.068C251.697 491.068 223.78 475.945 227.413 456.819C231.065 437.711 255.834 469.317 255.834 469.317C255.834 469.317 276.233 443.815 281.575 462.747C286.918 481.68 261.177 494.781 261.177 494.781" fill="#9C9CD8"/>
<path d="M261.177 498.202C259.933 498.202 258.748 497.521 258.146 496.336C257.291 494.664 257.971 492.604 259.642 491.768C259.875 491.651 282.819 479.697 278.311 463.7C277.787 461.853 276.835 459.559 275.223 459.229C271.182 458.393 262.847 466.032 258.496 471.455C257.855 472.252 256.883 472.738 255.834 472.738H255.815C254.785 472.738 253.794 472.252 253.153 471.436C246.198 462.572 235.98 453.261 232.425 454.136C231.745 454.292 231.123 455.555 230.773 457.479C227.645 473.904 253.076 487.958 253.328 488.094C254.979 488.988 255.582 491.049 254.688 492.701C253.794 494.353 251.735 494.956 250.084 494.061C248.86 493.401 220.03 477.5 224.09 456.197C225.256 450.093 228.403 448.11 230.831 447.527C238.874 445.564 250.142 457.227 255.912 464.049C260.438 459.112 269.122 451.065 276.563 452.581C279.302 453.145 282.974 455.205 284.858 461.853C290.881 483.235 263.877 497.249 262.731 497.832C262.226 498.066 261.701 498.202 261.177 498.202Z" fill="#211E7A"/>
<path d="M342.052 496.764C337.409 551.617 267.763 493.576 267.763 493.576C267.763 493.576 272.542 479.308 282.508 464.886C282.508 464.886 282.508 464.886 282.508 464.866C289.56 454.681 299.196 444.398 311.532 439.13C311.532 439.13 340.595 441.424 342.382 483.06C342.557 487.22 342.46 491.768 342.052 496.764Z" fill="#9C9CD8"/>
<path d="M342.382 483.06C342.188 483.701 342.072 484.051 342.072 484.051C297.506 503.158 282.877 466.226 282.877 466.226C282.877 466.226 282.722 465.741 282.508 464.905C282.508 464.905 282.508 464.905 282.508 464.885C289.56 454.7 299.196 444.417 311.532 439.15C311.532 439.13 340.595 441.424 342.382 483.06Z" fill="#D0D0EF"/>
<g opacity="0.6">
<path d="M326.782 445.875C320.235 442.551 314.835 442.551 314.835 442.551C302.926 448.772 294.106 459.735 287.85 470.425C287.85 470.445 287.85 470.445 287.85 470.445C280.118 483.701 276.33 496.55 275.514 499.524C270.735 496.064 267.763 493.576 267.763 493.576C267.763 493.576 272.542 479.308 282.508 464.886C282.508 464.886 282.508 464.886 282.508 464.866C289.56 454.681 299.196 444.398 311.532 439.13C311.532 439.13 319.109 439.733 326.782 445.875Z" fill="white"/>
</g>
<path d="M322.1 523.705C298.904 523.705 267.102 497.464 265.587 496.181C264.518 495.287 264.091 493.809 264.538 492.488C265.121 490.719 279.361 449.2 310.192 436.001C310.697 435.787 311.241 435.69 311.804 435.729C312.309 435.768 324.412 436.837 334.126 448.286C343.451 459.268 347.259 475.674 345.452 497.036C344.345 510.137 339.565 518.534 331.251 522.014C328.434 523.199 325.345 523.705 322.1 523.705ZM271.784 492.468C284.14 502.304 313.63 521.994 328.608 515.735C334.398 513.306 337.778 506.833 338.652 496.472C342.596 449.822 317.01 443.426 312.037 442.63C288.355 453.34 275.067 484.013 271.784 492.468Z" fill="#211E7A"/>
<path d="M318.235 492.468C312.581 492.468 307.278 491.438 302.324 489.377C286.432 482.768 280.41 467.937 280.157 467.296C279.555 465.799 280.293 464.108 281.789 463.505C283.285 462.922 284.975 463.641 285.578 465.138C285.636 465.313 291.037 478.395 304.636 484.012C314.796 488.211 327.016 487.317 340.926 481.349C342.402 480.727 344.112 481.408 344.753 482.885C345.394 484.362 344.694 486.073 343.218 486.714C334.301 490.543 325.967 492.468 318.235 492.468Z" fill="#211E7A"/>
<path d="M314.077 440.549C310.93 445.195 309.492 451.026 310.075 456.624C310.152 457.091 309.803 457.538 309.317 457.577C308.929 457.616 308.579 457.363 308.462 457.013C306.85 452.445 306.636 447.411 307.569 442.649C307.938 440.86 308.346 439.169 309.103 437.459C311.104 433.454 316.777 436.973 314.077 440.549Z" fill="#211E7A"/>
<path d="M328.201 460.551C326.394 464.263 323.111 466.693 319.633 468.715C318.468 469.356 317.244 469.92 315.884 470.309C315.32 470.464 314.738 470.134 314.582 469.57C314.504 469.298 314.543 469.006 314.679 468.773C316.739 465.294 319.73 462.553 323.169 460.512C324.237 460.045 327.754 457.849 328.278 459.89C328.317 460.123 328.298 460.356 328.201 460.551Z" fill="#211E7A"/>
<path d="M318.739 457.46C322.586 460.492 324.956 465.021 325.986 469.745C326.083 470.328 325.675 470.872 325.111 470.95C324.839 470.989 324.567 470.93 324.354 470.775C323.285 470.056 322.411 469.201 321.576 468.326C320.041 466.849 313.649 458.14 317.574 457.188C317.982 457.13 318.409 457.227 318.739 457.46Z" fill="#211E7A"/>
<g opacity="0.3">
<path d="M315.281 439.13C315.281 439.13 338.788 462.65 321.44 496.666L342.052 496.744C342.052 496.764 347.861 452.854 315.281 439.13Z" fill="#211E7A"/>
</g>
<path d="M437.42 488.58C437.42 599.532 309.57 628.222 238.855 580.269C227.082 572.319 216.902 562.211 209.132 550.004C196.562 530.197 190.404 504.85 194.309 474.099C244.8 498.571 345.335 503.489 413.991 493.051C419.528 492.215 424.851 491.263 429.941 490.233C432.505 489.688 434.992 489.144 437.42 488.58Z" fill="#73ACFF"/>
<g opacity="0.3">
<path d="M429.941 490.213C426.852 595.624 308.093 623.945 238.855 580.249C225.042 571.541 213.192 559.956 204.605 545.533C206.062 547.069 207.577 548.565 209.132 550.004C269.88 606.238 395.399 589.035 413.991 493.051C419.528 492.196 424.87 491.263 429.941 490.213Z" fill="#211E7A"/>
</g>
<path d="M315.398 606.043C286.84 606.043 258.34 598.015 235.747 582.271C201.011 558.09 185.119 519.525 190.948 473.671C191.084 472.583 191.744 471.63 192.696 471.105C193.648 470.581 194.814 470.561 195.804 471.028C221.72 483.584 263.042 491.807 312.173 494.159C357.4 496.316 403.928 492.992 436.643 485.256C437.653 485.023 438.722 485.256 439.538 485.898C440.354 486.539 440.82 487.53 440.82 488.561C440.82 534.123 419.566 570.316 380.965 590.493C361.052 600.911 338.205 606.043 315.398 606.043ZM197.184 479.153C193.298 520.322 208.257 554.824 239.632 576.672C278.292 603.594 335.117 606.782 377.837 584.467C412.864 566.157 432.68 533.734 433.962 492.837C400.955 500.009 355.748 503.042 311.843 500.942C264.46 498.688 224.032 490.99 197.184 479.153Z" fill="#211E7A"/>
<path d="M306.423 534.92C306.326 534.862 306.248 534.803 306.17 534.745C294.941 536.009 285.208 542.384 282.877 552.414C287.462 560.092 294.65 565.107 302.673 567.362C306.869 565.632 310.969 558.537 311.998 551.015C312.484 547.496 312.911 538.924 306.423 534.92ZM299.39 551.598C297.661 551.598 296.262 549.907 296.262 547.827C296.262 545.728 297.661 544.056 299.39 544.056C301.1 544.056 302.498 545.728 302.498 547.827C302.518 549.907 301.119 551.598 299.39 551.598Z" fill="#211E7A"/>
<path d="M353.223 564.621C346.579 570.53 339.857 557.021 339.857 557.021C331.639 565.787 320.119 569.558 309.22 568.567C313.261 564.407 315.961 557.759 316.816 551.675C317.768 544.755 316.467 538.827 313.203 534.609C322.47 535.309 331.911 539.429 338.575 547.71C338.575 547.71 347.822 537.583 352.582 538.807C357.322 540.032 359.867 548.779 350.639 552.336C350.619 552.317 359.847 558.712 353.223 564.621Z" fill="#211E7A"/>
<path d="M450.106 472.7C449.989 473.671 449.795 474.585 449.562 475.479C446.065 488.405 429.63 493.206 408.066 494.781C393.864 495.831 377.448 495.442 360.994 495.092C358.313 495.014 355.981 497.075 355.865 499.757C355.845 500.146 355.884 500.399 355.884 500.399C366.084 511.245 377.895 526.951 366.239 531.81C358.526 535.037 351.241 529.808 347.2 525.92C345.122 523.918 343.898 522.266 343.898 522.266C335.486 534.57 317.185 531.655 318.973 520.322C319.225 518.767 319.827 517.212 320.702 515.638C326.18 505.861 342.033 496.744 342.033 496.744C342.033 496.744 341.994 496.219 342.072 495.267C342.382 489.649 345.491 469.065 373.699 449.685C390.057 438.45 405.696 437.556 418.517 440.685C424.21 442.065 429.319 444.223 433.709 446.633C439.421 449.743 443.889 453.281 446.706 456.002C456.595 465.585 450.106 472.7 450.106 472.7Z" fill="#9C9CD8"/>
<path d="M393.223 440.685C393.223 440.685 387.142 430.908 378.555 433.027C369.969 435.126 352.251 453.028 344.966 465.915C344.966 465.915 342.557 471.008 349.959 473.321" fill="#9C9CD8"/>
<g opacity="0.6">
<path d="M433.729 446.652L433.612 447.002C387.958 443.134 358.915 460.123 346.52 497.988L342.091 495.286C342.402 489.668 345.51 469.084 373.718 449.704C390.076 438.469 405.715 437.575 418.537 440.704C424.209 442.065 429.338 444.242 433.729 446.652Z" fill="white"/>
</g>
<path d="M450.106 472.699C448.299 487.725 431.125 493.09 408.065 494.781C378.653 455.633 418.517 440.685 418.517 440.685C431.572 443.853 441.733 451.181 446.706 456.002C456.594 465.585 450.106 472.699 450.106 472.699Z" fill="#D0D0EF"/>
<path d="M361.246 535.756C353.669 535.756 347.258 530.274 343.956 526.795C337.817 533.151 329.094 534.395 323.227 532.062C317.982 529.983 315.242 525.298 316.097 519.875C317.826 508.931 333.893 498.299 339.157 495.092C339.488 488.755 342.887 467.334 372.047 447.313C404.297 425.174 435.419 441.054 448.727 453.942C457.469 462.397 455.526 470.289 452.884 473.924C448.804 500.029 404.141 499.018 360.935 498.027C360.935 498.027 360.896 498.027 360.877 498.027C359.964 498.027 359.167 498.59 358.895 499.368C370.299 511.692 375.156 520.866 373.757 527.378C373.271 529.633 371.775 532.684 367.366 534.531C365.267 535.386 363.228 535.756 361.246 535.756ZM343.898 519.35C344.811 519.35 345.685 519.778 346.248 520.536C346.345 520.652 355.729 533.054 365.131 529.147C367.385 528.214 367.89 526.989 368.065 526.153C368.512 524.054 368.007 517.562 353.767 502.4C353.339 501.953 353.067 501.37 352.989 500.767C352.97 500.612 352.931 500.223 352.951 499.64C353.145 495.422 356.739 492.079 361.052 492.176C402.121 493.109 444.589 494.081 447.192 472.349C447.269 471.747 447.522 471.183 447.93 470.736C448.357 470.231 452.146 465.352 444.666 458.101C439.343 452.95 429.591 446.439 418.168 443.581C403.364 439.888 388.949 442.745 375.331 452.095C344.014 473.593 344.927 496.355 344.947 496.588C345.005 497.696 344.441 498.726 343.49 499.29C337.895 502.497 323.13 512.625 321.848 520.788C321.304 524.268 323.46 525.901 325.383 526.659C330.027 528.505 337.331 526.756 341.508 520.633C342.033 519.855 342.907 519.389 343.859 519.369C343.878 519.35 343.898 519.35 343.898 519.35Z" fill="#211E7A"/>
<path d="M408.066 497.716C407.172 497.716 406.298 497.308 405.734 496.55C395.768 483.293 392.31 471.106 395.438 460.337C400.003 444.69 416.769 438.236 417.488 437.964C418.984 437.4 420.674 438.158 421.237 439.675C421.801 441.171 421.043 442.862 419.528 443.426C419.353 443.484 404.724 449.18 401.014 462.009C398.43 470.911 401.596 481.349 410.377 493.051C411.349 494.334 411.077 496.161 409.795 497.133C409.289 497.522 408.687 497.716 408.066 497.716Z" fill="#211E7A"/>
<path d="M382.014 493.964C381.178 493.964 380.343 493.828 379.547 493.556C371.096 490.543 370.008 477.772 370.571 467.587C370.688 465.449 371.678 463.641 373.408 462.339C379.644 457.654 395.127 460.9 398.177 461.6C399.751 461.969 400.722 463.525 400.372 465.099C400.003 466.673 398.449 467.645 396.876 467.295C390.406 465.818 379.935 464.749 376.924 467.023C376.516 467.334 376.419 467.587 376.399 467.937C375.778 479.191 377.682 486.733 381.509 488.094C384.326 489.085 391.669 482.613 396.506 476.179C397.478 474.896 399.304 474.624 400.586 475.595C401.868 476.567 402.14 478.394 401.169 479.677C399.246 482.224 389.979 493.964 382.014 493.964Z" fill="#211E7A"/>
<path d="M349.939 476.218C349.648 476.218 349.356 476.179 349.065 476.082C345.626 475.012 343.353 473.224 342.285 470.775C340.944 467.704 342.168 464.944 342.324 464.633C342.363 464.574 342.382 464.516 342.421 464.438C349.823 451.337 368.007 432.58 377.856 430.169C388.366 427.584 395.399 438.664 395.69 439.13C396.545 440.491 396.118 442.299 394.758 443.154C393.398 444.009 391.591 443.581 390.756 442.221C390.697 442.143 385.646 434.271 379.255 435.845C371.873 437.653 354.777 454.603 347.589 467.179C347.55 467.335 347.394 467.918 347.647 468.481C348.016 469.259 349.143 469.978 350.813 470.503C352.348 470.989 353.203 472.622 352.717 474.157C352.329 475.421 351.183 476.218 349.939 476.218Z" fill="#211E7A"/>
<path d="M451.466 475.285C445.813 477.676 439.518 478.026 433.476 477.637C431.534 477.501 429.591 477.209 427.668 476.898C426.599 476.743 425.88 475.751 426.036 474.682C426.191 473.633 427.163 472.933 428.192 473.049C434.953 473.594 442.102 473.205 448.319 470.348C452.262 467.412 455.837 473.224 451.466 475.285Z" fill="#211E7A"/>
<g opacity="0.3">
<path d="M342.072 514.257L343.898 522.285C335.486 534.589 317.185 531.674 318.973 520.341C319.225 518.786 319.827 517.231 320.702 515.657C324.373 532.84 342.072 514.257 342.072 514.257Z" fill="#211E7A"/>
</g>
<g opacity="0.3">
<path d="M449.581 475.479C446.085 488.405 429.649 493.206 408.085 494.781C393.884 495.83 377.468 495.442 361.013 495.092C358.332 495.014 356.001 497.074 355.884 499.757C355.865 500.146 355.904 500.398 355.904 500.398C366.103 511.245 377.915 526.95 366.258 531.81C358.546 535.037 351.261 529.808 347.22 525.92C363.519 530.002 362.004 520.147 353.223 507.202C343.995 493.595 358.818 488.016 358.818 488.016C364.743 487.764 370.591 487.433 376.283 487.025C377.332 488.813 378.731 490.155 380.557 490.815C383.859 491.982 388.25 489.008 391.922 485.606C409.678 483.623 425.686 480.475 439.052 475.498H449.581V475.479Z" fill="#211E7A"/>
</g>
<path d="M433.418 456.099C432.213 458.646 430.31 460.453 428.153 462.106C425.997 463.699 423.743 465.08 421.101 465.857C420.227 466.129 419.43 465.099 419.897 464.341C421.956 460.862 424.948 458.121 428.386 456.08C429.455 455.613 432.971 453.417 433.496 455.458C433.554 455.652 433.515 455.885 433.418 456.099Z" fill="#211E7A"/>
<path d="M423.977 453.009C427.823 456.041 430.193 460.57 431.223 465.294C431.32 465.877 430.912 466.421 430.349 466.499C430.077 466.538 429.805 466.479 429.591 466.324C428.523 465.605 427.648 464.749 426.813 463.875C425.278 462.397 418.887 453.689 422.811 452.737C423.219 452.659 423.646 452.776 423.977 453.009Z" fill="#211E7A"/>
<path d="M189.296 427.993C189.296 427.993 236.737 457.149 233.163 488.25C229.608 519.351 190.637 512.703 166.469 493.751C135.872 469.784 127.809 414.503 213.93 376.055" fill="#8C8CAA"/>
<g opacity="0.6">
<path d="M150.597 431.238C150.597 431.238 196.581 379.378 243.517 386.356L211.462 376.074C211.462 376.074 182.283 390.574 181.273 392.829C180.262 395.084 164.934 408.263 164.332 408.885" fill="white"/>
</g>
<g opacity="0.3">
<path d="M226.985 464.264C227.101 504.15 146.789 496.608 154.988 420.665C154.988 420.665 125.031 475.188 177.815 501.157C230.598 527.126 233.376 485.976 233.376 485.976L226.985 464.264Z" fill="#211E7A"/>
</g>
<path d="M190.307 426.34C209.656 436.953 232.25 456.294 236.349 479.075C238.059 489.941 234.795 502.711 224.926 508.815C212.279 516.376 196.368 512.936 183.624 507.726C170.141 501.992 157.611 492.973 149.937 480.261C138.805 462.3 139.369 440.763 149.782 422.666C163.594 398.913 188.267 384.043 212.531 372.964C214.241 372.186 216.261 372.964 217.019 374.674C217.796 376.385 217.019 378.426 215.29 379.184C203.439 384.529 191.977 390.769 181.564 398.35C161.593 412.772 143.759 435.904 149.646 461.775C153.803 480.766 168.84 494.178 186.246 501.467C198.835 506.716 218.709 510.856 226.907 497.172C229.666 492.215 230.404 485.898 229.452 480.241C227.063 467.918 218.729 457.693 210.181 448.83C205.654 444.242 200.836 439.888 195.863 435.748C193.357 433.649 190.773 431.588 188.209 429.625C186.344 428.167 188.247 425.232 190.307 426.34Z" fill="#211E7A"/>
<path d="M210.141 446.77C211.055 440.025 212.55 433.707 214.532 427.273C216.455 420.956 218.942 414.833 221.953 408.963C222.322 408.244 223.196 407.952 223.915 408.321C224.615 408.671 224.906 409.488 224.595 410.187C221.098 419.071 218.864 428.42 217.679 437.886C217.291 441.035 216.999 444.281 216.902 447.294C216.63 451.998 209.733 451.473 210.141 446.77Z" fill="#211E7A"/>
<path d="M260.128 131.624C212.978 106.704 181.953 99.9981 165.382 109.639C142.283 123.09 147.334 168.342 176.086 240.398" fill="#8C8CAA"/>
<g opacity="0.6">
<path d="M260.147 131.624L256.456 136.386C212.726 114.091 183.662 108.356 167.829 117.57C150.131 127.872 148.946 156.776 162.273 202.105C146.44 152.228 146.712 120.505 165.401 109.639C181.953 99.9981 212.998 106.704 260.147 131.624Z" fill="white"/>
</g>
<path d="M377.001 131.623C424.151 106.704 455.176 99.9977 471.748 109.619C494.847 123.07 489.796 168.322 461.043 240.378" fill="#8C8CAA"/>
<g opacity="0.6">
<path d="M486.202 147.193C485.599 132.265 480.879 122.002 471.748 116.676C455.643 107.307 425.861 113.391 380.887 136.638L377.001 131.624C424.151 106.704 455.176 99.9981 471.748 109.639C482.238 115.743 486.92 128.416 486.202 147.193Z" fill="white"/>
</g>
<path d="M187.295 212.213C165.09 147.912 163.244 108.473 227.762 149.914Z" fill="#FF85A8"/>
<g opacity="0.3">
<path d="M227.762 149.914L222.42 158.137C173.21 130.03 170.918 159.147 186.576 210.133C165.051 147.077 163.944 108.92 227.762 149.914Z" fill="#211E7A"/>
</g>
<path d="M449.853 212.213C472.059 147.912 473.885 108.473 409.387 149.914Z" fill="#FF85A8"/>
<g opacity="0.3">
<path d="M458.479 184.533C464.832 150.808 455.682 136.016 415.39 159.167L409.387 149.914C463.977 114.848 471.049 137.707 458.479 184.533Z" fill="#211E7A"/>
</g>
<path d="M318.817 391.547H318.312C207.267 392.091 141.758 355.256 163.225 281.237C173.036 245.102 186.11 211.338 202.721 180.16C233.804 119.902 318.545 119.902 318.545 119.902C318.545 119.902 403.306 119.902 434.39 180.16C451 211.338 464.074 245.102 473.885 281.237C495.372 355.256 429.863 392.091 318.817 391.547Z" fill="#8C8CAA"/>
<g opacity="0.6">
<path d="M460.305 238.396C453.564 220.902 445.91 204.068 437.323 187.935C406.24 127.677 321.479 127.677 321.479 127.677C321.479 127.677 236.738 127.677 205.654 187.935C189.024 219.113 175.95 252.877 166.159 289.012C161.146 306.331 160.874 321.629 164.838 334.846C158.038 319.918 157.203 302.035 163.245 281.237C173.055 245.102 186.13 211.338 202.74 180.16C233.823 119.902 318.565 119.902 318.565 119.902C318.565 119.902 403.325 119.902 434.409 180.16C444.278 198.684 452.884 218.102 460.305 238.396Z" fill="white"/>
</g>
<path d="M365.986 389.214C445.56 377.901 424.87 330.726 407.852 321.318C393.495 313.368 382.791 307.245 378.75 304.932C377.584 304.271 376.477 303.493 375.486 302.599C358.08 286.874 348.075 261.002 318.817 259.369H318.312C289.055 261.002 279.05 286.874 261.643 302.599C260.652 303.493 259.545 304.271 258.379 304.932C254.338 307.264 243.654 313.387 229.277 321.318C212.259 330.726 191.569 377.901 271.143 389.214" fill="white"/>
<g opacity="0.3">
<path d="M318.817 391.547H318.312C221.876 392.013 159.786 364.295 159.184 308.508C175.989 347.384 232.58 366.647 313.125 366.258H313.63C413.971 366.744 477.11 336.732 472.544 276.338C472.991 277.971 473.438 279.604 473.885 281.237C495.371 355.256 429.863 392.091 318.817 391.547Z" fill="#211E7A"/>
</g>
<path d="M380.168 287.033C392.077 286.134 400.778 272.786 399.604 257.221C398.43 241.656 387.824 229.767 375.916 230.666C364.008 231.565 355.306 244.913 356.48 260.478C357.655 276.043 368.26 287.932 380.168 287.033Z" fill="#211E7A"/>
<path d="M372.437 263.548C376.299 263.256 379.121 258.923 378.74 253.87C378.359 248.818 374.919 244.958 371.056 245.25C367.194 245.541 364.372 249.874 364.753 254.927C365.134 259.98 368.574 263.839 372.437 263.548Z" fill="white"/>
<g opacity="0.35">
<path d="M390.23 271.925C391.46 268.306 390.216 264.611 387.453 263.671C384.69 262.731 381.453 264.903 380.224 268.521C378.994 272.139 380.238 275.835 383.001 276.775C385.764 277.715 389 275.543 390.23 271.925Z" fill="white"/>
</g>
<path d="M281.179 260.46C282.354 244.895 273.652 231.548 261.744 230.648C249.835 229.749 239.23 241.638 238.055 257.203C236.881 272.769 245.583 286.116 257.491 287.015C269.399 287.915 280.005 276.026 281.179 260.46Z" fill="#211E7A"/>
<path d="M272.885 254.921C273.266 249.868 270.444 245.536 266.582 245.244C262.719 244.952 259.279 248.812 258.898 253.865C258.517 258.918 261.339 263.25 265.201 263.542C269.064 263.834 272.504 259.974 272.885 254.921Z" fill="white"/>
<g opacity="0.35">
<path d="M254.648 276.789C257.411 275.849 258.654 272.154 257.424 268.535C256.195 264.917 252.958 262.745 250.195 263.685C247.432 264.625 246.189 268.321 247.418 271.939C248.648 275.557 251.884 277.729 254.648 276.789Z" fill="white"/>
</g>
<path d="M341.314 286.796C340.285 289.478 337.118 294.027 327.307 297.72C321.518 299.897 315.126 299.897 309.337 297.72C299.526 294.027 296.36 289.498 295.33 286.796C294.806 285.435 294.98 283.919 295.777 282.694C301.061 274.725 318.312 274.453 318.312 274.453C318.312 274.453 335.564 274.744 340.848 282.694C341.683 283.899 341.839 285.435 341.314 286.796Z" fill="#211E7A"/>
<path d="M344.17 315.428C341.411 320.346 338.594 324.467 335.777 327.771C324.801 340.6 313.358 341.164 301.372 327.771C298.438 324.505 295.485 320.385 292.474 315.428C301.605 317.08 310.289 314.612 318.584 308.45C327.21 314.806 335.758 317.352 344.17 315.428Z" fill="#211E7A"/>
<path d="M362.101 304.407C358.002 312.804 349.474 318.907 339.993 319.49C330.726 319.937 319.187 315.583 315.146 306.564H321.46C318.235 313.776 310.95 317.313 303.742 318.946C292.105 321.745 279.516 315.136 274.524 304.407C273.805 302.91 275.748 301.53 276.894 302.735C278.331 304.232 279.788 305.651 281.343 306.875C285.791 310.413 291.348 312.415 296.943 312.454C303.626 312.726 312.018 310.335 315.146 304.037C315.884 302.288 317.885 301.471 319.634 302.21C320.488 302.579 321.11 303.24 321.46 304.037C321.984 305.301 322.994 306.603 324.335 307.711C331.29 313.484 342.402 313.853 350.426 309.985C353.961 308.275 356.992 305.709 359.692 302.793C360.8 301.491 362.898 302.89 362.101 304.407Z" fill="#211E7A"/>
<path d="M335.778 327.79C324.801 340.6 313.359 341.183 301.372 327.79C311.668 319.646 323.014 318.713 335.778 327.79Z" fill="#F44545"/>
<path d="M318.332 308.702C316.447 308.702 314.932 307.186 314.932 305.301V293.755C314.932 291.869 316.447 290.353 318.332 290.353C320.216 290.353 321.732 291.869 321.732 293.755V305.301C321.732 307.167 320.197 308.702 318.332 308.702Z" fill="#211E7A"/>
<path d="M318.759 341.027C312.037 341.027 305.335 337.334 298.827 330.064C295.757 326.643 292.649 322.328 289.56 317.196L295.388 313.678C298.263 318.441 301.139 322.425 303.917 325.516C309.123 331.347 314.213 334.263 318.915 334.224C323.538 334.166 328.356 331.269 333.213 325.574C335.894 322.425 338.594 318.46 341.236 313.756L347.162 317.099C344.306 322.173 341.353 326.507 338.381 329.987C332.183 337.237 325.656 340.93 318.992 341.008C318.895 341.027 318.817 341.027 318.759 341.027Z" fill="#211E7A"/>
<path d="M176.106 243.799C174.765 243.799 173.483 242.983 172.939 241.661C142.361 165.018 139.33 120.874 163.672 106.704C181.798 96.1492 213.872 103.322 261.721 128.63C263.372 129.505 264.013 131.565 263.139 133.217C262.265 134.869 260.206 135.511 258.554 134.636C213.561 110.864 182.808 103.438 167.091 112.574C146.44 124.587 150.52 167.175 179.253 239.115C179.952 240.864 179.097 242.847 177.349 243.527C176.941 243.702 176.514 243.799 176.106 243.799Z" fill="#211E7A"/>
<path d="M187.296 215.614C185.877 215.614 184.576 214.739 184.09 213.321C167.927 166.534 165.751 141.731 177.019 132.848C186.363 125.481 203.09 130.01 229.608 147.057C231.182 148.068 231.648 150.167 230.638 151.761C229.627 153.335 227.51 153.802 225.936 152.791C197.165 134.306 185.741 134.655 181.215 138.213C172.919 144.724 176.047 169.255 190.501 211.105C191.123 212.873 190.171 214.817 188.403 215.439C188.034 215.556 187.665 215.614 187.296 215.614Z" fill="#211E7A"/>
<path d="M315.864 394.967C242.702 394.967 191.997 378.97 169.131 348.666C155.241 330.259 152.152 307.244 159.961 280.303C169.908 243.663 183.274 209.413 199.729 178.566C212.842 153.121 237.612 134.306 271.318 124.178C296.573 116.598 317.671 116.5 318.565 116.5C319.459 116.5 340.537 116.578 365.812 124.178C399.518 134.306 424.287 153.121 437.42 178.604C453.836 209.413 467.222 243.663 477.168 280.342C484.959 307.225 481.889 330.22 467.999 348.647C444.88 379.3 393.282 395.298 318.817 394.948H318.312C317.496 394.948 316.68 394.967 315.864 394.967ZM318.293 388.145H318.817H318.837C354.33 388.339 384.753 384.665 409.193 377.298C433.826 369.873 451.777 358.852 462.578 344.546C475.109 327.926 477.829 306.953 470.641 282.189C460.811 245.937 447.62 212.154 431.417 181.773C415.914 151.722 386.23 137.455 364.044 130.748C339.721 123.401 318.798 123.304 318.584 123.304C318.371 123.304 297.467 123.401 273.125 130.748C250.939 137.435 221.254 151.722 205.771 181.715C189.549 212.154 176.358 245.918 166.528 282.131C159.32 306.953 162.04 327.946 174.571 344.546C185.372 358.852 203.323 369.873 227.957 377.298C252.396 384.665 282.78 388.3 318.293 388.145Z" fill="#211E7A"/>
<path d="M461.024 243.799C460.597 243.799 460.169 243.721 459.761 243.547C458.013 242.847 457.178 240.864 457.858 239.134C486.571 167.175 490.67 124.606 470.019 112.594C454.322 103.458 423.549 110.883 378.575 134.656C376.924 135.53 374.865 134.889 373.99 133.237C373.116 131.584 373.757 129.524 375.409 128.649C423.277 103.322 455.332 96.1492 473.458 106.704C497.819 120.874 494.789 165.018 464.191 241.661C463.666 242.983 462.384 243.799 461.024 243.799Z" fill="#211E7A"/>
<path d="M449.854 215.614C449.485 215.614 449.115 215.556 448.746 215.42C446.978 214.798 446.027 212.874 446.648 211.085C461.102 169.236 464.23 144.705 455.934 138.193C451.408 134.636 439.985 134.286 411.213 152.772C409.639 153.782 407.522 153.335 406.512 151.741C405.501 150.167 405.948 148.048 407.541 147.037C434.079 129.99 450.786 125.481 460.131 132.828C471.398 141.692 469.223 166.514 453.059 213.301C452.573 214.72 451.252 215.614 449.854 215.614Z" fill="#211E7A"/>
<path d="M211.152 286.893C181.526 278.515 146.518 273.345 121.01 294.454C120.097 295.251 118.815 293.968 119.65 293.055C121.67 290.819 123.982 288.487 126.333 286.64C150.151 268.058 186.324 272.664 211.152 286.893Z" fill="#211E7A"/>
<path d="M202.779 316.866C180.884 317.43 157.513 319.354 139.019 332.067C136.474 333.894 134.104 335.974 131.772 338.19C131.384 338.578 130.743 338.578 130.374 338.17C130.063 337.84 130.024 337.373 130.238 337.004C140.961 319.063 163.614 313.231 183.254 313.095C189.899 313.076 196.523 313.62 203.012 315.136C203.983 315.389 203.828 316.905 202.779 316.866Z" fill="#211E7A"/>
<path d="M198.602 348.881C178.689 355.392 161.321 367.405 149.354 384.724C148.733 385.638 147.217 384.86 147.645 383.81C154.502 365.772 171.831 352.924 190.365 348.803C193.027 348.239 195.688 347.792 198.447 347.734C199.107 347.714 199.263 348.686 198.602 348.881Z" fill="#211E7A"/>
<path d="M425.492 286.893C450.3 272.664 486.493 268.058 510.291 286.64C512.642 288.467 514.973 290.839 516.974 293.055C517.79 293.929 516.527 295.251 515.614 294.454C490.126 273.345 455.138 278.515 425.492 286.893Z" fill="#211E7A"/>
<path d="M433.632 315.156C457.877 309.907 492.477 313.853 506.406 337.023C506.678 337.49 506.522 338.092 506.037 338.365C505.648 338.598 505.163 338.52 504.852 338.209C502.521 335.993 500.15 333.913 497.605 332.086C484.628 322.989 468.737 319.588 453.137 317.935C446.784 317.313 440.315 316.983 433.845 316.866C432.874 316.905 432.622 315.408 433.632 315.156Z" fill="#211E7A"/>
<path d="M438.197 347.734C459.839 349.133 481.093 363.362 488.999 383.81C489.388 384.86 487.931 385.657 487.29 384.724C478.334 371.934 466.542 361.671 452.515 354.829C447.872 352.535 443.035 350.513 438.042 348.861C437.42 348.706 437.517 347.714 438.197 347.734Z" fill="#211E7A"/>
</g>
<defs>
<clipPath id="clip0_246_8624">
<rect width="506" height="509" fill="white" transform="translate(101 102)"/>
</clipPath>
</defs>
</svg>
