<svg width="626" height="652" viewBox="0 0 626 652" fill="none" xmlns="http://www.w3.org/2000/svg">
<ellipse cx="313" cy="341.811" rx="313" ry="299.5" fill="#B0A2D7"/>
<path d="M292.742 525.914C238.526 556.974 187.053 528.614 179.261 485.68C177.724 477.251 177.9 468.252 180.051 459.033C181.302 453.633 183.256 448.146 185.955 442.658C188.326 437.807 190.784 432.934 193.155 428.039C201.43 411.006 208.849 394.017 210.166 378.169C210.781 370.64 210.035 363.375 207.335 356.46C205.908 352.817 203.581 349.678 200.75 347.176C197.391 344.212 193.265 342.149 189.05 341.271C187.163 340.876 185.253 340.7 183.343 340.788C171.139 341.315 160.054 352.356 164.532 379.881C170.788 418.579 128.732 430.673 113.279 397.485C112.598 396.014 111.984 394.456 111.413 392.832C111.238 392.261 111.04 391.69 110.842 391.119C101.184 360.214 112.884 306.722 160.603 295.505C162.798 294.978 165.059 294.561 167.408 294.232C170.634 293.793 173.795 293.508 176.912 293.442C182.663 293.288 188.216 293.749 193.506 294.781C232.27 302.376 256.678 340.547 244.452 388.42C237.889 414.123 211.308 462.567 222.568 485.965C226.124 493.385 237.055 499.135 250.005 498.543C250.335 498.543 250.686 498.521 251.015 498.499C260.344 497.818 270.66 493.824 279.945 484.758L292.742 525.914Z" fill="#8E8FB3"/>
<g opacity="0.15">
<path d="M292.742 525.915C238.526 556.974 187.053 528.614 179.261 485.68C185.802 507.345 221.229 521.349 249.984 498.543C250.313 498.543 250.664 498.521 250.993 498.499C260.344 497.819 270.639 493.824 279.923 484.78L292.742 525.915Z" fill="#000072"/>
</g>
<g opacity="0.15">
<path d="M224.324 365.152C221.953 393.973 202.089 418.403 193.133 428.061C201.408 411.028 208.827 394.039 210.144 378.191C210.759 370.662 210.012 363.396 207.313 356.482C205.886 352.838 203.581 349.7 200.728 347.197C195.855 342.917 189.445 340.525 183.321 340.788C171.117 341.315 160.054 352.356 164.51 379.903C170.788 418.601 128.71 430.695 113.257 397.507C112.576 396.036 111.962 394.478 111.391 392.853C119.161 398.692 138.587 408.723 149.365 396.739C164.51 379.881 143.877 351.763 163.786 331.02C178.931 315.26 227.419 327.772 224.324 365.152Z" fill="#000072"/>
</g>
<path d="M193.879 327.158C193.506 327.553 188.589 326.279 188.721 326.806C189.292 329.155 190.367 333.918 189.028 341.271C189.006 341.271 188.984 341.271 188.94 341.271C188.567 341.184 188.216 341.118 187.843 341.074C187.514 341.008 187.206 340.986 186.877 340.942C186.614 340.92 186.35 340.876 186.087 340.854C185.846 340.832 185.604 340.81 185.363 340.81C184.682 340.767 184.002 340.767 183.321 340.81C171.117 341.337 160.032 352.378 164.51 379.903C170.766 418.601 128.71 430.696 113.257 397.507C112.576 396.037 111.962 394.478 111.391 392.854C119.161 398.693 138.587 408.702 149.365 396.739C164.51 379.881 143.877 351.742 163.786 331.021C170.129 324.436 182.246 322.767 193.989 325.797C194.143 326.433 194.121 326.894 193.879 327.158Z" fill="#686868"/>
<path d="M189.028 341.293C187.141 340.898 185.231 340.722 183.321 340.81C171.117 341.337 160.032 352.378 164.51 379.903C170.766 418.601 128.71 430.695 113.257 397.507C112.576 396.036 111.962 394.478 111.391 392.853C111.216 392.283 111.018 391.712 110.82 391.141C101.162 360.236 112.862 306.744 160.581 295.527C162.776 295 165.037 294.583 167.386 294.254C170.612 293.815 173.773 293.53 176.89 293.464C180.029 295.439 187.909 303.1 190.082 311.134C190.345 312.121 185.319 310.19 185.714 311.243C187.031 314.799 195.504 325.423 193.857 327.135C193.484 327.53 188.567 326.257 188.699 326.784C189.27 329.177 190.345 333.918 189.028 341.293Z" fill="white"/>
<g opacity="0.15">
<path d="M193.879 327.158C193.506 327.553 188.589 326.279 188.721 326.806C189.292 329.155 190.367 333.918 189.028 341.271C189.006 341.271 188.984 341.271 188.94 341.271C188.567 341.184 188.216 341.118 187.843 341.074C187.514 341.008 187.206 340.986 186.877 340.942C186.614 340.92 186.35 340.876 186.087 340.854C185.846 340.832 185.604 340.81 185.363 340.81C184.682 340.767 184.002 340.767 183.321 340.81C171.117 341.337 160.032 352.378 164.51 379.903C170.766 418.601 128.71 430.696 113.257 397.507C112.576 396.037 111.962 394.478 111.391 392.854C119.161 398.693 138.587 408.702 149.365 396.739C164.51 379.881 143.877 351.742 163.786 331.021C170.129 324.436 182.246 322.767 193.989 325.797C194.143 326.433 194.121 326.894 193.879 327.158Z" fill="#000072"/>
</g>
<path d="M246.45 542.487C227.441 542.487 209.618 535.968 195.899 523.083C173.686 502.23 168.527 470.074 182.751 441.122C183.651 439.3 184.551 437.456 185.473 435.612C198.928 408.438 212.822 380.32 204.02 357.777C200.355 348.405 189.051 342.369 179.832 344.893C169.23 347.79 164.928 360.346 168.001 379.332C171.578 401.436 160.45 415.221 147.828 419.106C135.449 422.903 118.964 418.162 110.031 399C100.614 378.784 102.502 349.085 114.618 326.784C122.323 312.626 137.622 294.869 166.903 290.742C192.782 287.098 216.751 295.198 232.643 312.934C249.808 332.118 255.361 359.951 247.855 389.298C245.923 396.848 242.345 406.243 238.526 416.208C229.526 439.761 218.332 469.086 225.707 484.429C228.012 489.214 234.421 493.165 242.038 494.526C254.308 496.699 267.215 492.221 277.443 482.234C278.848 480.873 281.087 480.895 282.448 482.3C283.809 483.705 283.787 485.944 282.382 487.304C270.485 498.894 255.34 504.074 240.787 501.506C230.843 499.75 222.612 494.394 219.298 487.502C210.605 469.437 221.91 439.827 231.875 413.684C235.607 403.916 239.118 394.697 240.94 387.542C247.855 360.521 242.872 335.037 227.309 317.653C213.02 301.695 191.355 294.452 167.847 297.744C141.507 301.454 127.722 317.411 120.808 330.142C108.428 352.948 109.218 380.518 116.418 395.97C123.552 411.27 136.261 415.199 145.721 412.301C154.699 409.536 164.071 399.548 160.977 380.43C155.533 346.868 172.588 339.471 177.944 338.022C190.653 334.554 205.601 342.391 210.584 355.165C220.549 380.627 205.93 410.15 191.794 438.729C190.894 440.551 189.972 442.395 189.094 444.217C176.078 470.71 180.534 498.938 200.728 517.881C223.49 539.238 258.917 541.17 290.964 522.82C292.655 521.854 294.828 522.424 295.793 524.137C296.759 525.849 296.189 528 294.476 528.966C278.738 538.031 262.188 542.487 246.45 542.487Z" fill="#000072"/>
<path d="M350.888 517.771C340.001 543.013 343.096 580.746 338.596 608.534C335.194 629.562 327.445 644.905 306.066 644.905C295.969 644.905 258.72 647.166 251.498 635.621C246.757 628.026 246.691 615.822 264.646 609.829C262.517 596.286 261.31 582.502 260.717 569.244C259.093 533.531 261.837 501.374 262.89 486.558L350.888 517.771Z" fill="#8E8FB3"/>
<g opacity="0.15">
<path d="M350.888 517.771C340.001 543.013 343.095 580.746 338.596 608.534L323.845 600.237C323.845 600.237 322.506 583.094 309.292 577.738C298.208 573.261 274.941 570.539 260.717 569.244C259.093 533.531 261.837 501.374 262.89 486.558L350.888 517.771Z" fill="#000072"/>
</g>
<path d="M342.195 592.467C338.574 620.716 334.228 644.927 306.044 644.927C295.969 644.927 258.698 647.188 251.498 635.642C249.742 632.833 248.645 629.409 248.82 625.897C248.82 625.743 248.842 625.611 248.864 625.458C248.908 624.887 248.996 624.316 249.127 623.746C249.149 623.592 249.193 623.46 249.237 623.329C249.281 623.065 249.369 622.824 249.457 622.56C249.501 622.407 249.544 622.253 249.61 622.099C249.654 621.99 249.676 621.88 249.72 621.77C253.122 624.514 260.717 627.784 277.531 629.65C311.158 633.404 323.56 623.285 324.877 600.369C331.835 598.635 337.827 596.023 342.195 592.467Z" fill="#E8E8E8"/>
<path d="M340.418 592.467C336.796 620.716 334.228 644.927 306.044 644.927C295.969 644.927 258.698 647.188 251.498 635.642C246.757 628.026 246.691 615.844 264.668 609.851C264.032 605.768 263.527 601.73 263.176 597.735C290.086 605.79 324.877 605.154 340.418 592.467Z" fill="white"/>
<g opacity="0.15">
<path d="M340.417 592.467C336.796 620.716 334.227 644.927 306.044 644.927C295.969 644.927 258.697 647.188 251.498 635.642C249.72 632.767 248.578 629.255 248.842 625.655C260.783 633.14 290.744 631.384 299.612 631.384C320.904 631.384 324.416 618.807 323.823 600.281C330.43 598.525 336.137 595.935 340.417 592.467Z" fill="#000072"/>
</g>
<path d="M293.356 625.414C290.174 629.76 289.866 636.565 293.378 640.735C294.498 642.03 295.771 642.689 297.329 642.776C300.468 643.04 300.49 647.583 297.395 647.913C287.935 648.571 283.347 636.63 286.486 628.992C287.54 626.424 289.405 624.119 292.127 623.175C292.786 622.934 293.51 623.285 293.73 623.943C293.949 624.47 293.664 624.975 293.356 625.414Z" fill="#6B184E"/>
<path d="M268.86 621.836C264.558 626.028 264.778 633.338 267.653 638.298C268.663 639.989 269.958 641.13 271.472 641.591C274.458 642.645 273.316 647.057 270.221 646.574C261.134 644.62 258.28 632.767 261.419 625.063C262.341 623.065 263.856 621.353 265.765 620.299C266.753 619.751 268.86 618.697 269.365 620.409C269.541 620.98 269.255 621.463 268.86 621.836Z" fill="#6B184E"/>
<path d="M293.159 648.615C272.636 648.615 254.242 646.727 248.491 637.508C245.176 632.196 244.364 626.072 246.296 620.76C247.745 616.722 251.454 611.322 260.717 607.525C253.847 560.815 257.512 511.406 259.093 490.07L259.378 486.295C259.51 484.341 261.178 482.871 263.175 483.024C265.129 483.156 266.6 484.868 266.446 486.822L266.161 490.597C264.558 512.13 260.827 562.571 268.158 609.303L268.619 612.266L265.765 613.21C258.895 615.492 254.461 618.939 252.947 623.153C251.278 627.806 253.473 632.109 254.483 633.755C259.795 642.271 290.064 641.657 301.456 641.437C303.278 641.393 304.836 641.372 306.022 641.372C334.162 641.372 335.896 610.993 337.915 575.829C339.122 554.867 340.352 533.202 347.617 516.366C348.385 514.566 350.47 513.732 352.27 514.522C354.07 515.291 354.904 517.376 354.114 519.176C347.354 534.848 346.146 555.876 344.983 576.224C342.964 611.739 340.856 648.461 306.022 648.461C304.88 648.461 303.366 648.483 301.588 648.527C298.778 648.593 295.947 648.615 293.159 648.615Z" fill="#000072"/>
<path d="M293.356 625.414C290.174 629.76 289.866 636.565 293.378 640.735C294.498 642.03 295.771 642.689 297.329 642.776C300.468 643.04 300.49 647.583 297.395 647.913C287.935 648.571 283.347 636.63 286.486 628.992C287.54 626.424 289.405 624.119 292.127 623.175C292.786 622.934 293.51 623.285 293.73 623.943C293.949 624.47 293.664 624.975 293.356 625.414Z" fill="#000072"/>
<path d="M268.86 621.836C264.558 626.028 264.778 633.338 267.653 638.298C268.663 639.989 269.958 641.13 271.472 641.591C274.458 642.645 273.316 647.057 270.221 646.574C261.134 644.62 258.28 632.767 261.419 625.063C262.341 623.065 263.856 621.353 265.765 620.299C266.753 619.751 268.86 618.697 269.365 620.409C269.541 620.98 269.255 621.463 268.86 621.836Z" fill="#000072"/>
<path d="M469.769 638.232C462.679 649.844 422.642 648.198 412.567 647.517C396.807 646.464 386.424 631.318 379.598 613.429C377.425 607.766 375.625 601.839 374.111 596.001C368.689 574.951 366.187 550.279 365.77 548.435L447.292 499.179C446.853 501.945 450.628 549.291 450.914 554.757C451.155 559.739 451.66 565.578 452.296 571.834C453.24 581.25 454.513 591.545 455.699 601.181C456.138 604.737 456.577 608.205 456.972 611.497C466.498 614.57 471.13 620.036 472.249 625.831C473.083 630.045 472.073 634.435 469.769 638.232Z" fill="#8E8FB3"/>
<g opacity="0.15">
<path d="M452.275 571.834C439.456 576.509 420.316 577.804 409.363 582.94C395.644 589.35 399.222 602.959 399.222 602.959C399.222 602.959 388.378 608.841 379.577 613.429C377.403 607.766 375.604 601.839 374.089 596.001C368.667 574.951 366.165 550.279 365.748 548.435L447.27 499.179C446.831 501.945 450.607 549.291 450.892 554.757C451.155 559.717 451.66 565.578 452.275 571.834Z" fill="#000072"/>
</g>
<path d="M472.535 628.794C472.535 629.277 472.513 629.738 472.469 630.199C472.447 630.462 472.425 630.726 472.381 631.011C472.359 631.187 472.337 631.34 472.315 631.516C472.293 631.626 472.271 631.736 472.249 631.867C472.162 632.35 472.052 632.833 471.92 633.316C471.854 633.579 471.766 633.821 471.701 634.062C471.679 634.128 471.657 634.194 471.657 634.26C471.459 634.852 471.218 635.423 470.976 635.994C470.954 636.06 470.932 636.126 470.888 636.191C470.735 636.521 470.581 636.828 470.406 637.135C470.208 637.508 469.988 637.882 469.769 638.233C462.679 649.844 422.642 648.198 412.567 647.518C391.803 646.135 380.389 620.3 374.111 596.001C378.764 598.328 386.754 601.313 399.222 602.959C402.734 619.334 411.448 632.943 427.866 635.555C447.49 638.672 464.699 633.931 472.249 625.853C472.293 626.094 472.337 626.358 472.381 626.599C472.425 626.841 472.447 627.082 472.469 627.346C472.491 627.587 472.513 627.828 472.513 628.092C472.535 628.311 472.535 628.531 472.535 628.794Z" fill="#686868"/>
<path d="M469.769 638.233C462.679 649.844 422.642 648.198 412.567 647.518C391.803 646.135 380.389 620.3 374.111 596.001C383.703 600.83 407.563 608.381 455.677 601.181C456.116 604.737 456.555 608.205 456.95 611.498C473.413 616.788 475.256 629.211 469.769 638.233Z" fill="white"/>
<g opacity="0.15">
<path d="M472.535 628.794C472.535 629.277 472.513 629.738 472.469 630.199C472.447 630.462 472.425 630.748 472.381 631.011C472.359 631.187 472.337 631.34 472.315 631.516C472.293 631.626 472.271 631.736 472.249 631.867C472.162 632.35 472.052 632.833 471.92 633.316C471.854 633.557 471.766 633.799 471.701 634.062C471.679 634.128 471.657 634.194 471.657 634.26C471.459 634.852 471.218 635.423 470.976 635.994C470.954 636.06 470.932 636.126 470.888 636.191C470.735 636.521 470.581 636.828 470.406 637.135C470.208 637.508 469.988 637.882 469.769 638.233C462.679 649.844 422.642 648.198 412.567 647.518C391.803 646.135 380.389 620.3 374.111 596.001C378.764 598.328 386.754 601.313 399.222 602.959C402.734 619.334 411.448 632.943 427.866 635.555C447.49 638.672 464.699 633.931 472.249 625.853C472.293 626.094 472.337 626.358 472.381 626.599C472.425 626.841 472.447 627.082 472.469 627.346C472.491 627.587 472.513 627.828 472.513 628.092C472.535 628.311 472.535 628.531 472.535 628.794Z" fill="#000072"/>
</g>
<path d="M450.804 499.728C450.211 508.728 451.309 517.991 451.858 527.034C453.877 554.055 457.411 583.972 460.374 611.059L458.026 608.205C467.925 611.103 477.056 619.268 475.959 630.441C475.432 635.796 473.061 641.35 468.496 644.335C455.479 652.544 429.82 651.776 414.565 651.249C389.146 650.766 377.974 621.814 371.916 601.247C367.394 585.18 364.519 568.629 364.102 551.947L364.036 548.809V548.545C364.036 546.504 366.955 546.065 367.504 548.062C368.053 549.994 368.535 552.738 368.974 554.691C374.33 579.604 380.937 627.126 403.919 641.174C407.475 643.172 410.723 643.918 414.938 644.05C419.262 644.291 423.586 644.423 427.932 644.445C436.558 644.445 445.273 644.072 453.504 642.491C458.135 641.438 463.557 640.362 466.63 636.674C472.952 626.555 466.345 617.907 455.918 614.79L453.855 614.088C452.494 604.035 451.375 593.96 450.277 583.885C448.609 567.356 446.238 543.98 444.899 527.627C444.307 517.947 443.056 508.399 443.824 498.631C444.57 493.912 451.528 494.899 450.804 499.728Z" fill="#000072"/>
<path d="M427.318 624.777C435.505 628.135 435.659 640.054 430.259 646.091C428.305 648.351 425.079 649.866 422.028 649.515C420.623 649.383 419.569 648.132 419.701 646.705C419.811 645.366 420.93 644.4 422.225 644.357C425.584 644.115 427.581 640.757 428.283 637.574C429.096 633.952 428.196 630.023 426.067 627.016L425.825 626.621C425.167 625.677 426.242 624.36 427.318 624.777Z" fill="#000072"/>
<path d="M451.638 622.078C460.66 624.734 460.835 636.982 456.599 643.852C455.019 646.42 452.385 648.659 449.224 649.164C447.819 649.405 446.502 648.462 446.261 647.057C446.041 645.718 446.875 644.467 448.126 644.137C451.463 642.974 453.197 638.782 453.702 635.292C454.338 631.231 453.416 627.302 450.585 624.426C449.465 623.526 450.19 621.77 451.638 622.078Z" fill="#000072"/>
<path d="M450.716 514.874L451.309 515.093C451.243 515.071 451.024 515.005 450.716 514.874Z" fill="white"/>
<path d="M396.017 296.559C425.957 347.9 482.873 468.91 441.475 526.068C429.578 542.487 400.385 561.013 356.595 562.198C326.633 563.01 279.748 545.626 267.324 512.569C250.752 468.45 277.597 420.555 277.904 371.65" fill="#8E8FB3"/>
<path d="M435.922 502.274C434.034 509.43 431.115 515.993 426.945 521.744C417.396 534.914 393.998 549.774 358.878 550.718C334.864 551.377 297.264 537.438 287.299 510.923C286.882 509.781 286.464 508.618 286.113 507.477C306.066 524.049 335.501 532.478 356.573 531.907C394.656 530.875 421.676 516.739 435.922 502.274Z" fill="#E8E8E8"/>
<g opacity="0.15">
<path d="M441.475 526.068C429.579 542.487 400.385 561.013 356.595 562.198C326.633 563.01 279.726 545.626 267.302 512.547C261.485 497.072 261.024 481.115 262.89 464.806C263.724 470.688 265.129 476.483 267.302 482.234C279.726 515.313 326.633 532.675 356.595 531.885C400.385 530.7 429.579 512.152 441.475 495.755C449.312 484.956 453.614 471.874 455.26 457.409C457.784 483.836 454.492 508.113 441.475 526.068Z" fill="#000072"/>
</g>
<path d="M390.485 337.759C414.477 378.916 460.133 475.935 426.922 521.766C417.396 534.936 393.975 549.796 358.855 550.74C334.842 551.399 297.242 537.46 287.277 510.945C273.997 475.583 295.508 437.171 295.749 397.946" fill="white"/>
<path d="M286.574 540.445C270.77 530.48 262.649 516.103 259.641 497.84C254.812 470.271 262.912 441.473 268.487 414.606C269.936 407.428 271.385 400.294 272.416 393.117C273.448 385.961 274.128 378.762 274.326 371.606C274.37 369.652 275.994 368.072 277.97 368.138C279.879 368.182 281.394 369.762 281.416 371.65C281.635 401.392 271.912 430.322 267.522 459.274C264.756 476.834 264.47 495.118 270.836 511.91C274.545 521.876 281.152 530.063 288.769 537.658C290.262 539.084 288.374 541.587 286.574 540.445Z" fill="#000072"/>
<g opacity="0.15">
<path d="M435.922 502.274C434.034 509.43 431.115 515.993 426.945 521.744C417.396 534.914 393.998 549.774 358.878 550.718C334.864 551.377 297.264 537.438 287.299 510.923C286.882 509.781 286.464 508.618 286.113 507.477C306.066 524.049 335.501 532.478 356.573 531.907C394.656 530.875 421.676 516.739 435.922 502.274Z" fill="#000072"/>
</g>
<path d="M391.188 559.037C381.091 562.791 370.401 564.942 359.668 565.798C348.846 566.5 337.783 564.064 327.708 560.288C325.755 559.52 326.545 556.557 328.608 556.864C343.973 559.235 359.36 558.84 374.791 557.654C379.949 557.215 385.108 556.513 390.244 555.635C392.351 555.262 393.185 558.269 391.188 559.037Z" fill="#000072"/>
<path d="M399.068 294.781C430.456 348.427 470.361 436.293 456.862 499.004C454.404 509.233 449.882 519.22 442.902 527.1C441.475 528.636 438.973 526.902 440.026 525.015C475.849 462.238 424.683 356.197 392.944 298.337C390.793 294.386 396.5 290.808 399.068 294.781Z" fill="#000072"/>
<path d="M162.096 239.796L181.675 180.312L204.306 111.586C160.911 101.226 90.473 104.562 80.7052 124.295C78.8614 128.027 79.1687 133.712 81.2759 140.692C89.1779 166.878 122.432 211.305 162.096 239.796Z" fill="#8E8FB3"/>
<g opacity="0.15">
<path d="M162.096 239.796L181.675 180.312C153.974 160.425 88.2999 116.459 81.2759 140.692C89.1779 166.878 122.432 211.305 162.096 239.796Z" fill="#000072"/>
</g>
<g opacity="0.5">
<path d="M82.2858 143.743C81.5834 139.463 81.8468 135.929 83.1199 133.317C92.5145 114.308 158.123 110.511 201.716 119.488L204.306 111.586C160.911 101.226 90.4731 104.562 80.7054 124.295C78.5982 128.576 79.3006 135.38 82.2858 143.743Z" fill="white"/>
</g>
<path d="M162.096 243.33C161.371 243.33 160.647 243.111 160.032 242.672C111.128 207.552 67.1839 143.655 77.5224 122.737C88.8925 99.7332 162.776 98.0211 205.118 108.162C207.027 108.623 208.191 110.533 207.73 112.442C207.269 114.352 205.359 115.515 203.45 115.054C156.674 103.86 91.8338 109.742 83.844 125.898C80.9027 131.846 85.4244 148.77 102.172 173.2C118.657 197.257 141.243 220.48 164.137 236.943C165.717 238.084 166.091 240.301 164.949 241.881C164.291 242.825 163.193 243.33 162.096 243.33Z" fill="#000072"/>
<path d="M140.255 198.728C141.419 181.826 143.548 169.468 146.028 159.635C148.201 151.052 150.682 144.423 153.03 138.453C148.509 133.822 96.2896 125.503 96.9262 138.19C97.1237 141.987 98.7041 146.926 101.272 152.369C109.196 169.293 126.449 191.067 140.255 198.728Z" fill="#F27E80"/>
<path d="M101.272 152.391C101.711 148.243 102.984 142.843 106.518 141.658C112.533 139.638 134.461 150.021 146.006 159.635C148.179 151.052 150.66 144.423 153.008 138.453C148.487 133.822 96.2677 125.503 96.9042 138.19C97.1018 141.987 98.7041 146.948 101.272 152.391Z" fill="#FF5C64"/>
<path d="M143.394 204.523L138.521 201.823C119.557 191.331 94.2482 155.75 93.3702 138.387C93.2605 136.324 93.897 132.527 99.2309 130.2C111.94 124.669 150.265 130.551 155.555 135.995L157.157 137.641L156.301 139.77C151.143 152.765 145.919 168.042 143.767 198.947L143.394 204.523ZM100.46 138.036C101.097 150.57 120.149 179.917 137.182 192.516C139.443 166.637 143.965 152.106 148.596 140.077C139.992 136.895 110.294 132.395 101.58 136.939C100.438 137.531 100.46 137.904 100.46 138.036Z" fill="#000072"/>
<path d="M270.309 93.6533L362.719 125.393L402.646 139.112C405.411 87.7926 389.168 31.2714 372.003 11.2091C368.469 7.08249 364.914 4.51434 361.445 3.83389C338.947 -0.621963 290.174 52.9799 270.309 93.6533Z" fill="#8E8FB3"/>
<g opacity="0.15">
<path d="M362.719 125.393L402.646 139.111C405.412 87.7923 389.169 31.271 372.004 11.2087C363.268 6.90652 352.007 6.11632 353.763 32.1271C355.585 59.0597 360.041 101.16 362.719 125.393Z" fill="#000072"/>
</g>
<g opacity="0.5">
<path d="M270.309 93.6532L276.126 95.6507C297.812 56.1626 347.419 7.60921 362.455 8.50916C374.681 9.23351 389.102 44.3755 397.268 73.986C389.366 36.3857 374.572 6.38002 361.467 3.81187C338.947 -0.622027 290.174 52.9799 270.309 93.6532Z" fill="white"/>
</g>
<path d="M402.646 142.646C402.58 142.646 402.514 142.646 402.448 142.646C400.495 142.536 399.002 140.868 399.112 138.914C400.627 110.73 396.412 78.6174 387.522 50.8287C377.886 20.6694 367.087 8.53103 360.787 7.27988C351.854 5.52388 335.655 15.6209 317.436 34.3003C299.92 52.2554 283.084 75.5883 273.492 95.2116C272.636 96.9676 270.507 97.6919 268.751 96.8359C266.995 95.9798 266.271 93.8507 267.127 92.0947C277.004 71.8568 294.345 47.7996 312.344 29.3396C324.197 17.1793 346.454 -2.77322 362.126 0.321733C385.964 4.99708 409.406 79.0344 406.158 139.287C406.092 141.175 404.512 142.646 402.646 142.646Z" fill="#000072"/>
<path d="M382.452 335.059L320.509 358.765C312.914 361.092 305.188 363.023 297.374 364.56C232.884 377.159 184.814 365.965 166.091 341.271C158.298 330.977 154.677 320.199 153.074 310.563C150.594 295.791 152.789 283.63 151.801 279.899C145.523 256.215 115.254 177.678 169.273 120.432C197.435 90.5582 231.348 75.7639 251.279 69.3545C263.636 65.3815 279.067 63.3182 295.069 63.406L393.163 101.972C414.938 121.288 445.185 151.974 459.189 184.746C463.447 194.711 466.191 204.874 466.762 214.971C469.132 258.234 443.539 301.717 382.452 335.059Z" fill="#8E8FB3"/>
<path d="M325.755 69.6397C339.496 73.481 355.98 78.8148 383.352 96.5943C383.659 94.9261 383.835 93.1043 383.923 91.1946C384.559 77.849 380.41 59.411 374.506 45.0338C370.84 36.1001 366.494 28.7249 362.192 25.1471C352.271 16.85 324.921 63.2303 325.755 69.6397Z" fill="#F27E80"/>
<path d="M325.755 69.6397C339.496 73.481 355.98 78.8148 383.352 96.5943C383.659 94.9261 383.835 93.1043 383.923 91.1946C378.15 81.5586 365.177 74.0736 358.241 66.8301C343.842 51.8163 352.622 34.6953 358.548 34.2783C362.06 34.0368 370.818 41.6315 374.506 45.0338C370.84 36.1001 366.494 28.7249 362.192 25.1471C352.271 16.85 324.921 63.2303 325.755 69.6397Z" fill="#FF5C64"/>
<path d="M383.352 100.129C382.671 100.129 382.013 99.931 381.42 99.5579C354.729 82.2393 338.815 76.9713 324.811 73.0642C323.45 72.6911 322.44 71.5277 322.243 70.1229C321.299 62.8574 341.23 29.2081 353.851 22.2719C359.316 19.2647 362.85 21.1085 364.475 22.4475C378.106 33.8176 390.639 75.764 386.842 97.2311C386.644 98.3945 385.854 99.3822 384.756 99.8651C384.317 100.041 383.834 100.129 383.352 100.129ZM329.816 67.1157C342.744 70.8692 357.626 76.2689 380.432 90.5364C381.354 69.3766 369.808 36.1004 359.931 27.8911C359.58 27.6058 358.921 27.6935 357.912 28.1545C348.276 32.4786 332.867 58.3357 329.816 67.1157Z" fill="#000072"/>
<g opacity="0.3">
<path d="M486.034 181.102L485.99 181.629C485.99 181.475 485.99 181.322 486.012 181.168C486.012 181.124 486.012 181.124 486.034 181.102Z" fill="#6B184E"/>
</g>
<path d="M463.974 244.208C455.743 277.375 429.732 309.246 382.452 335.059L320.509 358.765C312.914 361.092 305.188 363.023 297.374 364.56C232.884 377.159 184.814 365.965 166.091 341.271C161.152 334.73 157.881 328.013 155.752 321.516C155.752 321.494 155.752 321.494 155.752 321.494C154.523 317.741 153.667 314.075 153.074 310.563C189.819 349.744 238.855 296.274 244.891 269.077C248.666 252.088 272.087 240.674 287.781 245.613C357.912 267.76 428.261 244.889 459.189 184.724C463.447 194.689 466.191 204.852 466.762 214.949C467.267 224.738 466.389 234.528 463.974 244.208Z" fill="white"/>
<g opacity="0.15">
<path d="M463.974 244.208C455.743 277.374 429.732 309.246 382.452 335.059L320.509 358.765C312.914 361.092 305.188 363.023 297.373 364.56C232.884 377.159 184.814 365.965 166.09 341.271C161.152 334.73 157.881 328.013 155.752 321.516C156.323 322.416 172.719 347.154 245.067 347.636C315.219 348.075 419.064 303.934 463.974 244.208Z" fill="#000072"/>
</g>
<path d="M321.036 360.456C278.54 375.513 209.178 382.34 171.776 352.597C162.557 345.025 156.103 334.313 152.218 323.141C148.465 312.056 147.587 300.071 148.091 288.547C148.091 285.804 148.552 282.84 147.938 280.228C147.499 278.472 146.445 275.026 145.94 273.226C132.551 230.182 126.361 180.29 150.616 139.814C170.656 106.384 208.476 81.7564 244.65 69.0473C250.027 67.1596 255.559 65.5573 261.156 64.4598C272.372 62.2428 283.742 61.4307 295.091 61.6282C297.351 61.8038 297.439 65.0085 295.069 65.1622C278.431 65.3158 261.792 67.5547 246.296 73.6129C213.941 85.6635 180.599 107.723 160.735 136.236C133.144 176.251 139.29 227.087 153.25 271.053C153.798 272.875 154.83 276.387 155.335 278.209C156.279 281.545 155.84 285.365 155.818 288.745C155.445 299.61 156.191 310.366 159.593 320.638C163.017 330.516 168.571 339.932 176.692 346.649C206.039 369.74 251.937 367.94 287.276 363.309C298.317 361.816 309.226 359.775 320.026 357.031C320.97 356.79 321.935 357.383 322.177 358.326C322.353 359.248 321.87 360.148 321.036 360.456Z" fill="#000072"/>
<path d="M394.327 100.611C425.606 124.295 461.823 165.056 469.264 204.544C477.1 250.025 450.409 291.422 414.806 317.258C413.709 317.982 406.334 323.206 405.302 323.865C403.7 324.918 400.956 326.499 399.397 327.508C394.217 330.845 388.708 333.61 383.33 336.574C381.311 337.605 379.576 334.664 381.64 333.457C384.537 331.679 390.53 328.035 393.251 326.301C399.551 322.174 405.719 317.675 411.667 313.109C444.175 287.669 469.506 248.532 461.801 205.905C458.311 188.433 449.707 172.541 439.566 157.879C432.739 148.001 425.013 138.716 416.913 129.761C408.814 120.783 400.363 112.113 392 103.201C391.32 102.477 391.364 101.357 392.066 100.677C392.681 100.15 393.646 100.128 394.327 100.611Z" fill="#000072"/>
<path d="M162.754 207.398C160.12 205.62 161.108 172.981 183.519 170.281C191.728 169.293 193.287 176.229 189.95 180.092C186.789 183.758 180.512 186.304 176.319 190.65C168.11 199.167 165.388 209.176 162.754 207.398Z" fill="#000072"/>
<path d="M330.847 139.639C331.44 136.171 304.617 112.113 285.389 127.939C278.343 133.734 282.711 140.275 288.308 140.561C293.642 140.824 300.447 137.751 307.141 137.729C320.202 137.641 330.277 143.107 330.847 139.639Z" fill="#000072"/>
<path d="M337.05 236.659C349.691 231.382 354.873 214.971 348.625 200.003C342.378 185.035 327.065 177.179 314.424 182.455C301.783 187.732 296.6 204.144 302.848 219.112C309.096 234.079 324.409 241.936 337.05 236.659Z" fill="#000072"/>
<path d="M334.556 211.931C338.674 210.56 340.411 204.638 338.437 198.702C336.462 192.767 331.522 189.066 327.404 190.436C323.286 191.806 321.549 197.728 323.523 203.664C325.498 209.6 330.438 213.301 334.556 211.931Z" fill="white"/>
<g opacity="0.35">
<path d="M331.868 229.509C333.342 227.199 331.141 223.159 326.951 220.485C322.762 217.81 318.17 217.514 316.696 219.824C315.222 222.133 317.423 226.173 321.613 228.848C325.802 231.522 330.393 231.818 331.868 229.509Z" fill="white"/>
</g>
<path d="M220.567 288.134C233.208 282.857 238.391 266.446 232.143 251.478C225.895 236.51 210.582 228.654 197.941 233.931C185.3 239.207 180.117 255.619 186.365 270.587C192.613 285.555 207.926 293.411 220.567 288.134Z" fill="#000072"/>
<path d="M218.087 263.405C222.206 262.035 223.943 256.113 221.968 250.177C219.993 244.241 215.054 240.54 210.936 241.91C206.818 243.28 205.08 249.203 207.055 255.139C209.03 261.074 213.969 264.775 218.087 263.405Z" fill="white"/>
<g opacity="0.35">
<path d="M215.386 280.993C216.86 278.683 214.659 274.643 210.469 271.969C206.28 269.294 201.689 268.998 200.214 271.307C198.74 273.617 200.941 277.657 205.131 280.331C209.32 283.006 213.911 283.302 215.386 280.993Z" fill="white"/>
</g>
<path d="M417.637 211.568C429.754 190.584 454.206 175.592 477.32 169.841L482.105 168.678C483.048 168.437 484.014 169.029 484.234 169.973C484.475 170.917 483.883 171.861 482.961 172.102C481.38 172.629 477.649 173.88 476.134 174.363C466.454 177.787 457.038 182.331 448.433 187.95C437.963 194.908 428.327 203.381 420.667 213.368C419.481 215.278 416.562 213.588 417.637 211.568Z" fill="#000072"/>
<path d="M424.881 234.836C443.209 220.436 469.176 213.149 491.565 221.622C493.628 222.434 492.597 225.573 490.446 224.98C474.247 220.414 457.126 223.597 441.936 230.16C436.822 232.333 431.686 234.88 426.922 237.711C425.057 238.831 423.213 236.218 424.881 234.836Z" fill="#000072"/>
<path d="M249.193 276.738C249.193 276.738 253.935 287.362 260.498 287.559C270.507 287.845 275.27 279.548 276.806 273.38C276.806 273.38 288.769 282.291 298.515 272.458C304.222 266.707 303.212 256.588 303.212 256.588L268.29 259.046L249.193 276.738Z" fill="white"/>
<g opacity="0.15">
<path d="M260.497 287.559C270.177 289.03 275.27 279.548 276.806 273.38C276.806 273.38 290.547 283.082 299.634 273.204C302.817 269.714 302.246 265.522 300.995 262.317C288.352 275.86 268.948 256.61 268.948 256.61C267.236 263.458 262.758 279.065 254.022 281.699C255.076 284.355 256.963 287.033 260.497 287.559Z" fill="#000072"/>
</g>
<path d="M270.967 259.507C272.745 263.875 275.467 268.134 279.111 271.185C282.579 274.345 277.596 279.196 274.545 275.618C271.867 272.26 270.045 268.397 268.838 264.336C268.443 262.997 268.136 261.724 267.872 260.297C267.719 259.419 268.311 258.585 269.167 258.454C269.958 258.278 270.704 258.761 270.967 259.507Z" fill="#000072"/>
<path d="M287.891 250.398C288.593 253.998 278.782 264.885 271.911 267.3C264.536 269.89 254.483 266.795 252.376 263.831C249.896 260.385 254.373 253.537 269.014 248.818C280.999 244.976 287.123 246.425 287.891 250.398Z" fill="#000072"/>
<g opacity="0.7">
<path d="M269.848 252.066C270.484 252.966 268.399 255.249 266.336 256.105C265.173 256.588 260.936 258.3 260.234 257.334C259.531 256.346 260.3 254.854 264.031 252.9C267.455 251.078 269.211 251.166 269.848 252.066Z" fill="white"/>
</g>
<path d="M250.927 275.97C253.32 279.284 256.042 283.323 259.861 284.333C261.002 284.464 262.275 284.289 263.417 284.047C270.441 282.445 273.228 274.982 274.94 268.638L278.716 270.811C291.249 278.494 301.412 270.658 301.346 256.763C301.281 255.666 302.18 254.722 303.278 254.744C304.244 254.744 305.012 255.468 305.144 256.39C305.627 260.188 305.429 263.765 304.375 267.453C300.424 280.601 285.389 283.981 274.919 275.926L279.901 274.148C279.111 277.813 277.553 281.369 275.006 284.398C270.112 290.742 258.654 293.552 252.925 286.967C250.291 284.179 248.644 281.084 247.459 277.506C247.13 276.496 247.701 275.421 248.71 275.092C249.588 274.828 250.488 275.223 250.927 275.97Z" fill="#000072"/>
<path d="M175.266 300.773C157.552 295.088 138.324 294.21 120.018 297.437C116.528 297.92 113.147 298.951 109.701 299.632C107.616 300.246 103.906 301.3 101.777 301.915C99.5821 302.639 98.3968 299.478 100.548 298.6L105.092 296.888C109.635 295.176 114.354 293.793 119.096 292.805C125.264 291.401 132.156 290.544 138.456 290.347C151.56 290.062 164.774 291.796 176.736 297.59C178.756 298.6 177.373 301.629 175.266 300.773Z" fill="#000072"/>
<path d="M183.673 323.996C162.249 325.599 139.421 331.898 125.132 348.953C123.705 350.644 121.049 348.668 122.3 346.824C132.244 332.228 149.387 323.93 166.464 321.209C172.193 320.309 177.922 319.958 183.782 320.462C184.748 320.55 185.473 321.406 185.407 322.372C185.341 323.294 184.551 323.996 183.673 323.996Z" fill="#000072"/>
<path d="M317.172 294.693C317.172 294.693 254.922 302.661 249.062 323.162C245.659 335.059 266.49 368.731 265.59 387.257C264.69 405.804 248.842 436.381 255.317 445.314C261.793 454.248 273.624 453.567 277.421 474.793" fill="#FF6845"/>
<g opacity="0.5">
<path d="M317.172 294.693L315.526 302.134C299.503 304.812 258.522 313.175 253.803 329.638C250.401 341.535 271.231 375.206 270.331 393.732C269.519 410.699 256.151 437.763 258.873 449.068C257.578 447.992 256.371 446.785 255.317 445.314C248.842 436.381 264.69 405.782 265.59 387.235C266.49 368.687 245.659 335.037 249.062 323.141C254.944 302.639 317.172 294.693 317.172 294.693Z" fill="white"/>
</g>
<path d="M277.421 478.349C275.731 478.349 274.238 477.141 273.931 475.429C271.626 462.589 266.402 458.901 260.871 454.994C257.93 452.931 254.9 450.801 252.442 447.399C247.635 440.77 251.498 428.039 255.954 413.311C258.764 404.004 261.683 394.39 262.034 387.081C262.451 378.542 257.447 365.482 253.057 353.958C247.986 340.7 243.618 329.264 245.66 322.196C252.003 300.071 310.127 292.037 316.734 291.181C318.665 290.94 320.443 292.301 320.707 294.254C320.948 296.186 319.587 297.964 317.634 298.227C294.454 301.19 256.283 310.87 252.464 324.172C251.081 328.979 255.647 340.92 259.686 351.456C264.558 364.231 269.607 377.445 269.124 387.454C268.729 395.641 265.678 405.672 262.737 415.396C259.488 426.13 255.427 439.497 258.171 443.273C259.949 445.709 262.254 447.355 264.954 449.243C270.814 453.37 278.102 458.506 280.911 474.222C281.262 476.154 279.967 477.997 278.058 478.327C277.838 478.327 277.619 478.349 277.421 478.349Z" fill="#000072"/>
<path d="M289.801 564.02C289.537 582.611 281.591 602.366 272.043 601.159C267.17 600.544 262.012 593.498 258.368 583.709C255.207 575.214 253.188 564.634 253.473 554.362C253.495 553.176 253.561 551.969 253.671 550.806C234.004 549.423 198.072 536.999 196.557 516.432C196.425 514.654 197.216 512.832 198.884 511.186C198.884 511.186 198.884 511.186 198.884 511.164C203.603 506.467 215.39 503.086 233.718 506.203C250.883 509.123 260.914 513.666 267.807 518.32C270.748 520.317 273.119 522.337 275.248 524.246L284.73 534.014C284.752 534.036 290.042 546.372 289.801 564.02Z" fill="#FF6845"/>
<g opacity="0.5">
<path d="M216.115 512.591C223.38 509.693 249.764 514.061 253.298 521.107C258.829 532.148 208.849 515.488 216.115 512.591Z" fill="white"/>
</g>
<path d="M289.801 564.02C289.537 582.611 281.591 602.366 272.043 601.159C267.17 600.545 262.012 593.499 258.368 583.709C273.272 595.913 278.123 568.761 273.031 558.049C270.002 551.64 261.595 552.057 253.473 554.362C253.495 553.176 253.561 551.969 253.671 550.806C234.004 549.423 198.072 536.999 196.557 516.432C196.425 514.654 197.216 512.832 198.884 511.186C211.044 527.649 254.615 549.225 267.829 518.342C270.77 520.339 273.141 522.359 275.27 524.268L284.752 534.036C284.752 534.036 290.042 546.372 289.801 564.02Z" fill="#E84B31"/>
<path d="M272.877 604.759C272.416 604.759 271.999 604.737 271.604 604.671C259.949 603.178 249.215 577.387 249.961 554.01C229.592 551.486 194.647 538.821 193.045 516.695C192.826 513.666 194.208 510.637 196.908 508.179C203.779 501.945 217.761 499.904 234.355 502.735C258.654 506.862 269.541 514.281 277.684 521.656C279.133 522.973 279.243 525.212 277.926 526.661C276.609 528.109 274.37 528.219 272.921 526.902C266.073 520.69 256.81 513.732 233.17 509.715C216.137 506.818 205.557 509.891 201.693 513.425C200.64 514.391 200.069 515.4 200.135 516.19C201.452 534.211 235.891 546.021 253.978 547.294C254.922 547.359 255.8 547.798 256.415 548.523C257.029 549.247 257.337 550.169 257.249 551.113C255.317 574.358 266.446 596.879 272.526 597.647C272.943 597.691 274.172 597.866 276.082 596.22C281.613 591.435 286.091 577.277 286.289 563.998C286.53 547.294 281.591 535.55 281.547 535.441C280.779 533.641 281.613 531.555 283.413 530.787C285.213 530.019 287.298 530.853 288.067 532.653C288.286 533.18 293.642 545.911 293.379 564.107C293.159 579.911 287.957 595.342 280.735 601.598C277.772 604.1 274.984 604.759 272.877 604.759Z" fill="#000072"/>
<path d="M442.814 412.235C440.663 417.767 438.271 422.947 435.659 427.688C424.003 448.76 408.902 473.256 363.355 502.625C317.809 532.017 293.708 540.248 293.708 540.248C293.708 540.248 284.796 544.089 278.804 541.653C275.072 540.138 272.46 536.165 273.887 527.319C273.887 527.319 276.631 474.639 272.263 417.701C270.99 401.129 271.977 385.632 274.568 371.299C281.109 335.037 297.9 306.414 314.187 287.34C318.95 281.765 323.67 277.001 328.104 273.094C368.799 237.162 413.928 241.706 430.369 253.098C462.745 275.597 463.403 359.555 442.814 412.235Z" fill="#FF9C31"/>
<path d="M283.479 543.035C281.789 543.035 280.099 542.794 278.584 542.179C273.821 540.248 272.043 535.221 273.316 527.253C273.338 526.792 276.016 474.003 271.692 417.767C270.485 402.051 271.253 386.378 273.997 371.233C281.504 329.638 302.115 300.62 313.748 287.011C318.292 281.677 322.989 276.87 327.708 272.721C367.262 237.799 412.523 240.125 430.654 252.681C445.821 263.195 455.172 287.581 456.994 321.341C458.662 352.224 453.548 386.291 443.319 412.455C441.124 418.074 438.71 423.298 436.119 427.974C423.784 450.297 408.001 474.486 363.641 503.108C318.555 532.192 294.103 540.709 293.861 540.775C293.62 540.884 288.572 543.035 283.479 543.035ZM397.861 245.306C377.381 245.306 351.919 252.791 328.455 273.533C323.779 277.66 319.126 282.423 314.604 287.713C303.059 301.234 282.557 330.077 275.094 371.408C272.372 386.466 271.604 402.029 272.789 417.657C277.114 473.981 274.436 526.814 274.414 527.341C273.228 534.804 274.765 539.436 279.001 541.148C284.708 543.453 293.401 539.765 293.488 539.743C293.774 539.655 318.094 531.161 363.048 502.165C407.211 473.674 422.884 449.616 435.154 427.403C437.722 422.771 440.114 417.591 442.287 412.016C452.472 385.983 457.565 352.092 455.896 321.362C454.096 287.955 444.899 263.875 430.039 253.559C422.906 248.62 411.492 245.306 397.861 245.306Z" fill="#000072"/>
<path d="M442.814 412.235C440.663 417.767 438.271 422.947 435.659 427.688C424.003 448.76 408.902 473.256 363.355 502.626C317.809 532.017 293.708 540.248 293.708 540.248C293.708 540.248 284.796 544.089 278.804 541.653C275.072 540.138 272.46 536.165 273.887 527.319C273.887 527.319 276.631 474.639 272.263 417.701C270.99 401.129 271.977 385.632 274.568 371.299C311.487 370.267 402.58 370.026 389.893 393.666C374.023 423.211 356.463 414.277 350.91 441.297C345.29 468.537 371.85 479.205 383.966 460.833C393.91 445.731 399.287 411.884 410.219 410.04C413.796 409.426 426.901 410.523 442.814 412.235Z" fill="#FF6D33"/>
<path d="M442.814 412.236C442.595 412.806 442.375 413.355 442.156 413.904C442.09 414.101 442.024 414.277 441.936 414.475C441.673 415.111 441.409 415.726 441.168 416.318C440.883 416.999 440.597 417.657 440.312 418.316C439.697 419.677 439.083 421.016 438.446 422.333C438.205 422.859 437.941 423.386 437.678 423.891C437.634 424.001 437.568 424.111 437.502 424.242C437.239 424.791 436.953 425.296 436.69 425.845C436.361 426.481 436.032 427.096 435.68 427.71C424.025 448.782 408.923 473.279 363.377 502.648C317.831 532.039 293.73 540.27 293.73 540.27C293.73 540.27 284.818 544.111 278.826 541.675C315.307 530.788 347.617 501.967 371.323 469.745C375.998 468.91 380.564 466.035 383.988 460.833C393.931 445.731 399.309 411.884 410.24 410.041C413.796 409.426 426.9 410.523 442.814 412.236Z" fill="#F9D0A7"/>
<path d="M435.636 427.688C423.981 448.76 408.879 473.256 363.333 502.625C317.787 531.995 293.686 540.248 293.686 540.248C293.686 540.248 284.774 544.089 278.782 541.653C367.767 515.071 431.971 381.879 406.531 352.795C391.736 335.871 328.784 348.361 314.165 287.34C318.928 281.765 323.648 277.001 328.081 273.094C368.777 237.162 413.906 241.706 430.347 253.098C466.147 277.945 463.206 377.884 435.636 427.688Z" fill="#FFEDD9"/>
<path d="M442.814 412.235C442.595 412.806 442.375 413.355 442.156 413.904C442.09 414.101 442.024 414.277 441.936 414.474C441.673 415.111 441.409 415.725 441.168 416.318C440.883 416.998 440.597 417.657 440.312 418.315C439.697 419.676 439.083 421.015 438.446 422.332C438.205 422.859 437.941 423.386 437.678 423.891C437.634 424.001 437.568 424.11 437.502 424.242C437.239 424.791 436.953 425.296 436.69 425.844C436.361 426.481 436.032 427.095 435.68 427.71C424.025 448.782 408.923 473.278 363.377 502.647C317.831 532.038 293.73 540.27 293.73 540.27C293.73 540.27 284.818 544.111 278.826 541.674C315.307 530.787 347.617 501.967 371.323 469.744C375.998 468.91 380.564 466.035 383.988 460.833C393.931 445.731 399.419 416.845 411.36 406.572C424.881 394.895 453.35 382.295 442.814 412.235Z" fill="#F9D0A7"/>
<g opacity="0.5">
<path d="M456.467 321.384C453.021 296.164 444.592 275.136 430.391 265.28C413.006 253.23 365.287 248.423 322.287 286.418C320.136 288.306 317.919 290.413 315.658 292.696C315.131 290.984 314.648 289.184 314.188 287.34C318.951 281.765 323.67 277.001 328.104 273.094C368.799 237.162 413.928 241.706 430.369 253.098C446.546 264.358 454.821 290.984 456.467 321.384Z" fill="white"/>
</g>
<path d="M283.501 546.021C280.428 546.021 277.245 545.362 274.677 543.365C270.594 540.204 269.146 534.673 270.331 526.968C270.507 523.544 272.899 472.378 268.707 417.986C263.548 350.885 294.783 297.788 325.733 270.46C366.494 234.462 413.467 237.118 432.366 250.222C449.772 262.295 459.957 291.752 460.286 331.02C460.594 367.128 452.34 404.838 438.731 429.422C426.198 452.075 410.196 476.637 365.243 505.633C321.057 534.146 297.11 542.816 294.937 543.584C293.817 544.045 288.791 546.021 283.501 546.021ZM397.136 248.379C378.281 248.379 354.114 254.854 330.43 275.772C320.179 284.816 269.387 334.159 275.775 417.438C280.121 473.959 277.421 526.99 277.399 527.517L277.355 527.89C276.806 531.38 276.631 535.924 279.023 537.767C282.118 540.182 289.296 538.294 292.281 536.999L292.544 536.889C292.786 536.802 316.887 528.373 361.424 499.64C405.016 471.5 419.942 448.738 432.542 425.954C459.518 377.181 461.933 279.306 428.327 255.995C422.62 252.066 411.404 248.379 397.136 248.379Z" fill="#000072"/>
<path d="M380.732 308.799C390.797 305.45 395.917 293.597 392.166 282.324C388.415 271.051 377.215 264.627 367.15 267.976C357.085 271.324 351.966 283.178 355.716 294.451C359.467 305.724 370.667 312.148 380.732 308.799Z" fill="#000072"/>
<path d="M376.04 302.768C379.479 301.624 381.064 297.078 379.579 292.615C378.094 288.152 374.102 285.461 370.662 286.605C367.223 287.75 365.638 292.295 367.123 296.759C368.608 301.222 372.6 303.912 376.04 302.768Z" fill="white"/>
<g opacity="0.35">
<path d="M380.216 283.562C382.172 282.911 383.041 280.23 382.157 277.572C381.272 274.915 378.97 273.289 377.015 273.939C375.059 274.59 374.191 277.271 375.075 279.929C375.959 282.586 378.261 284.212 380.216 283.562Z" fill="white"/>
</g>
<path d="M405.806 306.854C409.757 303.386 411.557 298.227 413.072 293.267C414.586 288.086 415.662 282.665 416.738 277.155C418.34 270.285 419.13 262.141 424.003 256.061C428.327 251.057 434.934 253.559 438.951 257.291C441.519 259.529 438.358 263.458 435.637 261.439C431.488 258.388 428.964 257.203 426.549 262.734C420.776 276.321 421.259 300.861 407.255 309.071C405.85 309.817 404.555 307.885 405.806 306.854Z" fill="#000072"/>
<path d="M392.768 418.25C389.454 425.142 374.177 425.735 360.699 421.872C352.995 419.677 345.883 416.033 341.866 411.27C325.47 391.822 359.36 352.993 379.049 354.836C384.844 355.385 392.307 358.502 395.249 364.516C397.027 368.182 398.058 372.594 398.541 377.357C400.143 392.985 395.797 411.994 392.768 418.25Z" fill="#FF6845"/>
<path d="M398.541 377.379C391.649 397.441 371.587 414.035 360.699 421.894C352.995 419.699 345.883 416.055 341.866 411.292C325.47 391.844 359.36 353.015 379.049 354.858C384.844 355.407 392.307 358.524 395.249 364.538C397.027 368.204 398.058 372.616 398.541 377.379Z" fill="#E84B31"/>
<path d="M376.986 427.776C363.86 427.776 346.783 422.596 339.166 413.574C332.318 405.453 332.208 393.973 338.881 381.22C346.981 365.723 365.199 349.985 379.379 351.324C386.359 351.982 394.941 355.824 398.431 362.979C406.597 379.705 400.341 410.765 395.973 419.786C393.976 423.935 389.234 426.591 382.254 427.469C380.586 427.688 378.83 427.776 376.986 427.776ZM377.645 358.348C367.657 358.348 352.512 370.442 345.137 384.512C342.108 390.307 338.003 401.216 344.566 409.009C351.458 417.196 370.006 421.871 381.354 420.445C385.7 419.896 388.707 418.535 389.585 416.713C393.602 408.416 398.804 379.947 392.066 366.096C389.805 361.443 383.549 358.853 378.72 358.392C378.369 358.348 377.996 358.348 377.645 358.348Z" fill="#000072"/>
<path d="M474.927 438.246C470.888 444.985 464.984 449.836 458.245 452.997C430.83 465.815 389.52 450.297 402.317 417.064C411.404 393.424 434.21 390.22 446.875 386.62C448.324 386.203 449.663 385.786 450.804 385.347C453.877 374.174 456.27 356 456.27 356C456.27 356 501.443 394.193 474.927 438.246Z" fill="#8E8FB3"/>
<g opacity="0.15">
<path d="M480.503 426.305C479.186 430.212 477.364 434.207 474.927 438.246C470.888 444.985 464.984 449.836 458.245 452.996C430.83 465.815 389.52 450.297 402.317 417.064C402.404 416.823 402.514 416.581 402.602 416.362C406.136 434.558 419.964 452.426 447.204 447.355C454.514 445.994 466.586 440.507 472.403 435.239C475.564 432.341 478.242 429.356 480.503 426.305Z" fill="#000072"/>
</g>
<path d="M466.169 439.673C464.567 444.063 461.999 448.519 458.223 452.996C430.808 465.815 389.498 450.297 402.295 417.064C402.382 416.823 402.47 416.603 402.58 416.362C406.114 434.558 419.942 452.426 447.182 447.333C452.428 446.367 460.111 443.273 466.169 439.673Z" fill="#E8E8E8"/>
<path d="M458.223 452.996C430.808 465.815 389.498 450.297 402.295 417.064C411.382 393.424 434.188 390.219 446.853 386.62C456.84 395.883 482.456 424.264 458.223 452.996Z" fill="white"/>
<g opacity="0.15">
<path d="M466.169 439.673C464.567 444.063 461.999 448.519 458.223 452.996C430.808 465.815 389.498 450.297 402.295 417.064C402.382 416.823 402.47 416.603 402.58 416.362C406.114 434.558 419.942 452.426 447.182 447.333C452.428 446.367 460.111 443.273 466.169 439.673Z" fill="#000072"/>
</g>
<path d="M437.415 461.074C429.403 461.074 421.501 459.362 414.762 456.07C398.541 448.146 392.505 432.715 399.002 415.813C407.76 393.073 428.042 387.871 441.475 384.425C443.89 383.81 446.041 383.239 447.841 382.669C450.585 371.782 452.736 355.736 452.758 355.561C452.933 354.287 453.789 353.19 454.997 352.729C456.204 352.268 457.565 352.488 458.552 353.322C459.035 353.739 470.471 363.484 478.659 378.981C489.721 399.834 489.48 420.972 477.956 440.112C469.33 454.423 453.153 461.074 437.415 461.074ZM458.75 363.397C457.762 369.784 456.116 379.288 454.206 386.291C453.921 387.366 453.131 388.244 452.077 388.661C449.619 389.627 446.656 390.395 443.209 391.273C430.478 394.544 413.028 399.022 405.587 418.36C398.168 437.632 411.689 446.697 417.835 449.704C434.671 457.935 460.989 454.489 471.876 436.424C491.368 404.026 469.154 374.547 458.75 363.397Z" fill="#000072"/>
<path d="M450.409 381.834C454.382 381.878 458.904 381.637 462.591 380.276C463.513 379.837 464.633 380.276 465.006 381.242C466.586 384.512 453.592 388.288 451.177 388.858C445.843 389.956 444.965 381.922 450.409 381.834Z" fill="#000072"/>
<path d="M423.366 444.172C418.559 445.928 413.577 446.938 408.418 446.543C405.894 446.126 400.297 445.731 401.548 441.846C402.075 440.463 403.633 439.782 404.994 440.331C406.289 441.012 407.606 441.604 409.143 441.977C413.467 442.943 418.23 442.614 422.554 441.67C424.157 441.231 424.925 443.58 423.366 444.172Z" fill="#000072"/>
<path d="M419.108 425.032C415.925 425.954 412.808 426.437 409.538 426.569C406.267 426.678 402.843 426.327 399.485 425.01C398.124 424.483 397.444 422.925 397.97 421.564C398.497 420.203 400.056 419.523 401.416 420.049C402.711 420.708 403.985 421.366 405.477 421.762C409.626 422.925 414.213 423.013 418.494 422.442C420.118 422.157 420.71 424.549 419.108 425.032Z" fill="#000072"/>
<path d="M339.452 434.844C338.267 441.802 340.462 449.309 348.495 449.902C350.01 450.055 351.502 450.231 352.995 450.648C353.478 450.758 353.522 451.46 353.061 451.636C350.668 452.536 348.232 453.414 345.664 453.282C340.571 453.04 336.181 448.563 335.72 443.514C335.479 440.266 335.94 436.797 338.025 434.142C338.53 433.439 339.671 434.032 339.452 434.844Z" fill="#000072"/>
<path d="M350.778 451.306C352.688 453.37 354.268 455.455 357.231 455.521C358.175 455.631 359.273 455.63 360.326 455.696C361.073 455.652 361.709 456.245 361.665 456.991C361.643 457.343 361.468 457.672 361.204 457.869C358.834 459.603 355.958 460.152 353.083 459.033C350.207 457.694 348.759 455.213 348.232 452.338C348.122 451.57 348.649 450.845 349.417 450.736C349.966 450.648 350.449 450.911 350.778 451.306Z" fill="#000072"/>
<path d="M304.025 334.379C302.839 341.337 305.034 348.844 313.068 349.436C314.583 349.59 316.075 349.766 317.568 350.183C318.051 350.292 318.095 350.995 317.634 351.17C315.241 352.07 312.805 352.948 310.236 352.817C305.144 352.575 300.754 348.097 300.293 343.049C300.052 339.8 300.513 336.332 302.598 333.676C303.125 332.996 304.266 333.566 304.025 334.379Z" fill="#000072"/>
<path d="M315.373 350.841C317.282 352.905 318.863 354.99 321.826 355.056C322.77 355.166 323.867 355.166 324.921 355.231C325.667 355.188 326.304 355.78 326.26 356.527C326.238 356.878 326.062 357.207 325.799 357.405C323.428 359.139 320.553 359.687 317.677 358.568C314.802 357.229 313.353 354.749 312.826 351.873C312.717 351.105 313.244 350.381 314.012 350.271C314.561 350.183 315.021 350.446 315.373 350.841Z" fill="#000072"/>
<path d="M292.303 444.173C291.118 451.131 293.313 458.638 301.346 459.23C302.861 459.384 304.353 459.56 305.846 459.977C306.329 460.086 306.373 460.789 305.912 460.964C303.519 461.864 301.083 462.742 298.515 462.611C293.422 462.369 289.032 457.891 288.571 452.843C288.33 449.594 288.791 446.148 290.876 443.47C291.381 442.79 292.544 443.36 292.303 444.173Z" fill="#000072"/>
<path d="M303.63 460.657C305.539 462.721 307.12 464.806 310.083 464.872C311.027 464.981 312.124 464.981 313.178 465.047C313.924 465.003 314.561 465.596 314.517 466.342C314.495 466.693 314.319 467.023 314.056 467.22C311.685 468.954 308.81 469.503 305.934 468.384C303.059 467.045 301.61 464.564 301.083 461.689C300.974 460.921 301.5 460.196 302.269 460.086C302.817 459.977 303.3 460.24 303.63 460.657Z" fill="#000072"/>
<path d="M295.837 490.839C294.652 497.797 296.847 505.304 304.88 505.896C306.395 506.05 307.888 506.226 309.38 506.643C309.863 506.752 309.907 507.455 309.446 507.63C307.054 508.53 304.617 509.408 302.049 509.277C296.957 509.035 292.567 504.557 292.106 499.509C291.864 496.26 292.325 492.792 294.41 490.136C294.937 489.456 296.079 490.026 295.837 490.839Z" fill="#000072"/>
<path d="M307.185 507.323C309.095 509.386 310.675 511.472 313.638 511.537C314.582 511.647 315.68 511.647 316.733 511.713C317.48 511.669 318.116 512.262 318.072 513.008C318.05 513.359 317.875 513.688 317.611 513.886C315.241 515.62 312.365 516.169 309.49 515.049C306.614 513.71 305.166 511.23 304.639 508.355C304.529 507.586 305.056 506.862 305.824 506.752C306.351 506.664 306.834 506.928 307.185 507.323Z" fill="#000072"/>
<path d="M395.314 380.364C395.051 381.198 394.744 382.01 394.393 382.801C391.649 389.21 387.632 393.095 384.23 397.222C378.786 403.829 371.235 410.611 362.302 416.713C338.442 433.044 304.727 444.634 274.963 435.7C248.118 427.622 251.081 391.888 253.627 376.874C254.308 372.747 254.966 370.201 254.966 370.201C297.615 367.216 312.519 356.724 329.969 347.571C336.532 344.125 343.425 340.876 352.27 338.264C386.249 328.299 402.448 358.831 395.314 380.364Z" fill="#8E8FB3"/>
<g opacity="0.15">
<path d="M395.314 380.364C395.051 381.198 394.744 382.01 394.393 382.801C391.649 389.21 387.632 393.095 384.23 397.222C378.786 403.829 371.235 410.611 362.302 416.713C338.442 433.044 304.727 444.634 274.963 435.7C248.118 427.622 251.081 391.888 253.627 376.874C256.042 395.817 265.766 422.223 300.929 424.593C343.951 427.491 377.25 402.797 395.314 380.364Z" fill="#000072"/>
</g>
<path d="M394.414 382.801C391.67 389.21 387.654 393.095 384.251 397.222C378.808 403.829 371.257 410.611 362.323 416.713C330.123 412.587 329.179 365.526 329.991 347.549C336.554 344.103 343.446 340.854 352.292 338.242C387.544 327.904 403.655 361.246 394.414 382.801Z" fill="white"/>
<path d="M395.315 380.364C395.227 380.694 395.095 381.023 394.985 381.33C394.81 381.835 394.612 382.318 394.393 382.801C391.649 389.21 387.632 393.095 384.23 397.222C378.786 403.829 371.235 410.611 362.302 416.713C358.965 416.296 355.98 415.396 353.28 414.123C371.213 405.387 385.503 392.547 395.315 380.364Z" fill="#E8E8E8"/>
<path d="M297.132 442.395C289.362 442.395 281.591 441.385 273.975 439.08C236.945 427.952 250.949 371.672 251.564 369.279C251.937 367.809 253.232 366.733 254.746 366.623C292.083 364.011 307.712 355.561 322.791 347.373C331.045 342.895 339.583 338.286 351.326 334.84C373.035 328.452 385.503 337.913 391.012 344.125C400.473 354.792 403.216 371.255 397.663 384.183C395.226 389.846 391.89 393.732 388.949 397.156C388.268 397.924 387.61 398.692 386.973 399.482C370.796 419.15 334.162 442.395 297.132 442.395ZM257.885 373.516C255.756 383.942 249.347 424.286 276.016 432.298C282.733 434.317 289.713 435.217 296.737 435.217C330.562 435.217 365.704 414.167 381.508 394.961C382.188 394.149 382.869 393.336 383.571 392.524C386.315 389.342 389.146 386.049 391.144 381.396C395.644 370.904 393.405 357.536 385.7 348.844C378.127 340.305 366.626 337.737 353.302 341.644C342.283 344.871 334.447 349.129 326.15 353.629C310.763 361.97 294.849 370.574 257.885 373.516Z" fill="#000072"/>
<path d="M367.416 345.529C372.113 343.269 376.942 341.513 382.254 341.403C384.779 341.403 390.837 341.974 389.388 346.012C388.795 347.351 387.215 347.966 385.876 347.373C384.8 346.759 383.549 346.407 382.079 346.254C377.689 345.925 372.991 347.198 368.865 348.734C366.758 349.546 365.441 346.539 367.416 345.529Z" fill="#000072"/>
<path d="M378.193 363.046C382.474 360.741 386.951 359.051 391.89 359.051C394.414 359.139 399.946 359.841 398.563 363.682C397.97 365.021 396.412 365.658 395.073 365.065C394.041 364.494 392.944 364.099 391.605 363.924C387.676 363.507 383.417 364.692 379.796 366.206C377.732 367.084 376.284 364.165 378.193 363.046Z" fill="#000072"/>
</svg>
