<svg id="Слой_1" data-name="Слой 1" xmlns="http://www.w3.org/2000/svg" viewBox="0 0 626 613.31"><defs><style>.cls-1{fill:#b0a2d7;}.cls-2{fill:#c4bfc2;}.cls-3{fill:#6b184e;}.cls-4{fill:#8e8fb3;}.cls-5{opacity:0.15;}.cls-6{fill:#000072;}.cls-7{fill:#e8e8e8;}.cls-8{fill:#fff;}.cls-9{fill:#686868;}.cls-10{opacity:0.5;}.cls-11{fill:#f27e80;}.cls-12{fill:#ff5c64;}.cls-13{fill:#ff4d96;}.cls-14{fill:#f22579;}.cls-15{opacity:0.7;}.cls-16{opacity:0.35;}</style></defs><title>victory-01</title><ellipse class="cls-1" cx="313" cy="300.89" rx="313" ry="299.5"/><path class="cls-2" d="M411.21,466.13c6.56,16.32,20,59,12.44,107,17.23,5.75,17.18,17.48,12.63,24.79-6.91,11.1-42.67,8.93-52.35,8.93-47.68,0-24.3-72.38-51.25-110.7"/><path class="cls-3" d="M396.29,610.45c19.72,0,37.41-1.82,43-10.72a18.75,18.75,0,0,0,2.13-16.18c-1.4-3.88-4.95-9.09-13.84-12.75,7.1-50.39-8.14-93.72-13.07-106a3.5,3.5,0,1,0-6.49,2.62c4.84,12.06,20,55.3,12.23,105.13l-.46,2.93,2.82.94c6.55,2.19,10.79,5.47,12.23,9.49,1.59,4.43-.5,8.54-1.48,10.09-5.07,8.13-35.13,7.55-45,7.34-1.75-.05-3.23-.07-4.38-.07-24.05,0-27.72-19.5-31.73-51.35-2.44-19.5-5.24-41.61-16.66-57.85a3.49,3.49,0,1,0-5.72,4c10.42,14.82,13,35.09,15.43,54.7,3.55,28.26,7.22,57.48,38.66,57.48,1.11,0,2.54,0,4.24.06Q392.28,610.45,396.29,610.45Z"/><path class="cls-4" d="M332.68,496.1c11.67,16.6,13.9,39.57,16.55,60.3,3.47,27.13,7.65,50.4,34.7,50.4,9.68,0,45.42,2.17,52.35-8.93A15.22,15.22,0,0,0,438,584.54c-1.67-4.43-6-8.64-14.37-11.44.63-3.93,1.09-7.81,1.45-11.64a210.55,210.55,0,0,0-4.64-65,202.28,202.28,0,0,0-9.25-30.29Z"/><g class="cls-5"><path class="cls-6" d="M332.68,496.1c11.67,16.6,13.9,39.57,16.55,60.3,3.47,27.13,7.65,50.4,34.7,50.4,9.68,0,45.42,2.17,52.35-8.93A15.22,15.22,0,0,0,438,584.54c-3.28,2.63-10.54,5.79-26.7,7.58-34.26,3.83-45.55-7.35-45.55-32.33,0-22.43,39.08-27.84,54.69-63.37a202.28,202.28,0,0,0-9.25-30.29Z"/></g><path class="cls-7" d="M349.26,556.4c3.46,27.13,7.64,50.4,34.69,50.4,9.69,0,45.42,2.17,52.35-8.93a16.2,16.2,0,0,0,2.57-9.36,3,3,0,0,0,0-.42,10.45,10.45,0,0,0-.25-1.65,2.34,2.34,0,0,0-.1-.4c-.07-.25-.13-.48-.21-.73a3.81,3.81,0,0,0-.15-.44c0-.1-.06-.21-.1-.33-3.28,2.63-10.54,5.79-26.7,7.58-32.27,3.6-44.17-6.1-45.43-28.13C359.19,562.32,353.43,559.83,349.26,556.4Z"/><path class="cls-8" d="M349.26,556.4c3.46,27.13,7.64,50.4,34.69,50.4,9.69,0,45.42,2.17,52.35-8.93,4.56-7.31,4.62-19-12.63-24.77.63-3.93,1.09-7.81,1.45-11.64C399.25,569.19,364.16,568.61,349.26,556.4Z"/><g class="cls-5"><path class="cls-6" d="M349.26,556.4c3.46,27.13,7.64,50.4,34.69,50.4,9.69,0,45.42,2.17,52.35-8.93a16.2,16.2,0,0,0,2.57-9.36,3,3,0,0,0,0-.42,10.45,10.45,0,0,0-.25-1.65,2.34,2.34,0,0,0-.1-.4c-.07-.25-.13-.48-.21-.73a3.81,3.81,0,0,0-.15-.44c0-.1-.06-.21-.1-.33-3.28,2.63-10.54,5.79-26.7,7.58-32.27,3.6-44.17-6.1-45.43-28.13C359.19,562.32,353.43,559.83,349.26,556.4Z"/></g><path class="cls-3" d="M396.31,610.35c19.68,0,37.32-1.82,42.86-10.66a18.58,18.58,0,0,0,2.1-16.09c-1.39-3.87-4.94-9.08-13.86-12.71,7.12-50.39-8.14-93.76-13.05-106a3.39,3.39,0,1,0-6.28,2.53c4.84,12.08,20,55.32,12.24,105.17l-.44,2.84,2.71.9c6.6,2.2,10.86,5.52,12.32,9.57,1.6,4.48-.51,8.64-1.49,10.2-5.09,8.18-34.15,7.61-45.09,7.4-1.75,0-3.23-.06-4.38-.06-24.15,0-27.83-19.54-31.83-51.44-2.45-19.5-5.22-41.59-16.64-57.81a3.39,3.39,0,0,0-5.53,3.91c10.43,14.84,13,35.13,15.44,54.76,1.84,14.69,3.59,28.55,8.63,39.06,5.92,12.34,15.69,18.33,29.93,18.33,1.11,0,2.55,0,4.24.07C390.9,610.31,393.64,610.35,396.31,610.35Z"/><path class="cls-3" d="M396.1,588.09c.17.29.48.73.69,1.11a10.47,10.47,0,0,1,.6,1.21,11.64,11.64,0,0,1,.8,2.53,12.32,12.32,0,0,1,0,5.27,10.6,10.6,0,0,1-2.15,4.53,5.11,5.11,0,0,1-3.59,1.92l-.15,0a2.55,2.55,0,0,0,0,5.08,8.64,8.64,0,0,0,4.42-.73,10.1,10.1,0,0,0,3.51-2.59,14.25,14.25,0,0,0,3.32-7.23,15.09,15.09,0,0,0-.75-7.71,11.33,11.33,0,0,0-2.09-3.37,8,8,0,0,0-1.5-1.29,7.37,7.37,0,0,0-1.86-1,1.22,1.22,0,0,0-1.57.76,1.2,1.2,0,0,0,.09,1Z"/><path class="cls-3" d="M419.61,584.66a14.17,14.17,0,0,1,1.69,2.28,9.69,9.69,0,0,1,1,2.49,14.11,14.11,0,0,1,.21,5.64,14.62,14.62,0,0,1-1.82,5.35,6.86,6.86,0,0,1-3.46,3.09l-.17.07a2.54,2.54,0,0,0,1.23,4.91,9.6,9.6,0,0,0,4.24-1.88,12.46,12.46,0,0,0,2.9-3.24,18.39,18.39,0,0,0,2.42-11.62,14.38,14.38,0,0,0-1-4,10.7,10.7,0,0,0-2.51-3.4,8.77,8.77,0,0,0-1.69-1.19,8.26,8.26,0,0,0-2-.78,1.26,1.26,0,0,0-1.52.92,1.2,1.2,0,0,0,.27,1.13Z"/><path class="cls-6" d="M396.29,610.45c19.72,0,37.41-1.82,43-10.72a18.75,18.75,0,0,0,2.13-16.18c-1.4-3.88-4.95-9.09-13.84-12.75,7.1-50.39-8.14-93.72-13.07-106a3.5,3.5,0,1,0-6.49,2.62c4.84,12.06,20,55.3,12.23,105.13l-.46,2.93,2.82.94c6.55,2.19,10.79,5.47,12.23,9.49,1.59,4.43-.5,8.54-1.48,10.09-5.07,8.13-35.13,7.55-45,7.34-1.75-.05-3.23-.07-4.38-.07-24.05,0-27.72-19.5-31.73-51.35-2.44-19.5-5.24-41.61-16.66-57.85a3.49,3.49,0,1,0-5.72,4c10.42,14.82,13,35.09,15.43,54.7,3.55,28.26,7.22,57.48,38.66,57.48,1.11,0,2.54,0,4.24.06Q392.28,610.45,396.29,610.45Z"/><path class="cls-6" d="M396.1,588.09c.17.29.48.73.69,1.11a10.47,10.47,0,0,1,.6,1.21,11.64,11.64,0,0,1,.8,2.53,12.32,12.32,0,0,1,0,5.27,10.6,10.6,0,0,1-2.15,4.53,5.11,5.11,0,0,1-3.59,1.92l-.15,0a2.55,2.55,0,0,0,0,5.08,8.64,8.64,0,0,0,4.42-.73,10.1,10.1,0,0,0,3.51-2.59,14.25,14.25,0,0,0,3.32-7.23,15.09,15.09,0,0,0-.75-7.71,11.33,11.33,0,0,0-2.09-3.37,8,8,0,0,0-1.5-1.29,7.37,7.37,0,0,0-1.86-1,1.22,1.22,0,0,0-1.57.76,1.2,1.2,0,0,0,.09,1Z"/><path class="cls-6" d="M419.61,584.66a14.17,14.17,0,0,1,1.69,2.28,9.69,9.69,0,0,1,1,2.49,14.11,14.11,0,0,1,.21,5.64,14.62,14.62,0,0,1-1.82,5.35,6.86,6.86,0,0,1-3.46,3.09l-.17.07a2.54,2.54,0,0,0,1.23,4.91,9.6,9.6,0,0,0,4.24-1.88,12.46,12.46,0,0,0,2.9-3.24,18.39,18.39,0,0,0,2.42-11.62,14.38,14.38,0,0,0-1-4,10.7,10.7,0,0,0-2.51-3.4,8.77,8.77,0,0,0-1.69-1.19,8.26,8.26,0,0,0-2-.78,1.26,1.26,0,0,0-1.52.92,1.2,1.2,0,0,0,.27,1.13Z"/><path class="cls-4" d="M263.31,501.7C297.59,541.17,398,536.59,416.6,483.21c.1-.25.17-.5.27-.76a68.38,68.38,0,0,0,3.21-21.77C420,408.23,373.8,339.87,383.49,298.9l-39.62-2.15-71.39-3.87a143.31,143.31,0,0,0-14.18,24.48,137.82,137.82,0,0,0-10.71,33.21C242.71,378.16,230.56,464,263.31,501.7Z"/><g class="cls-5"><path class="cls-6" d="M244.3,454c1.63,17,6.93,33.73,19,47.67,34.28,39.47,134.71,34.89,153.29-18.49.1-.25.17-.5.27-.76s.27-.85.4-1.27c.23-.75.46-1.53.64-2.32a4.25,4.25,0,0,0,.15-.59c.17-.66.31-1.33.48-2,.33-1.53.61-3.1.82-4.66a74.08,74.08,0,0,0,.7-11.33c-.31-52.38-46.23-120.5-36.59-161.36l-39.62-2.15a102.86,102.86,0,0,0-45.42,85.17c-.36,67,85.81,88.2,82.54,102.71-3.09,13.65-86.09,31.66-115.38-2.07A259.48,259.48,0,0,1,244.3,454Z"/></g><path class="cls-7" d="M298.45,381.94c-.38,67,85.81,88.2,82.54,102.71a4.56,4.56,0,0,1-.59,1.38c15.68-4.93,29.77-13.4,39.66-25.33v-.44c0-.75,0-1.49,0-2.24s-.06-1.5-.08-2.26-.08-1.5-.15-2.25l-.18-2.28c-.07-.75-.17-1.53-.26-2.3s-.18-1.55-.29-2.32-.21-1.53-.31-2.3c0-.06,0-.1,0-.17-.11-.73-.23-1.48-.36-2.21-.5-3-1.1-6.06-1.81-9.12-.15-.62-.27-1.25-.44-1.88-.63-2.69-1.34-5.41-2.09-8.15-.65-2.32-1.31-4.66-2-7-.11-.31-.19-.61-.3-.92-.18-.61-.37-1.23-.56-1.84-.27-.92-.58-1.84-.88-2.76-.46-1.44-.91-2.88-1.39-4.3-.88-2.66-1.8-5.31-2.72-8-.44-1.23-.86-2.49-1.31-3.72s-.92-2.61-1.38-3.91-1-2.78-1.51-4.16c-1.19-3.28-2.35-6.56-3.54-9.82-.59-1.63-1.17-3.26-1.76-4.87-2-5.71-4-11.37-5.8-16.91l-1.44-4.53c-1.29-4.21-2.49-8.32-3.49-12.36-.29-1.19-.58-2.36-.85-3.51-.34-1.46-.65-2.92-.94-4.37-.13-.6-.23-1.21-.36-1.81-.46-2.51-.83-5-1.1-7.38-.21-1.78-.38-3.54-.46-5.25a58.14,58.14,0,0,1,1.21-16.43l-39.62-2.15A102.92,102.92,0,0,0,298.45,381.94Z"/><path class="cls-8" d="M258.3,317.38c1.09,2.55,2.24,5.18,3.43,7.9.64,1.5,1.27,3,1.83,4.51,16.45,44-7,89.06,10.69,124.91,23.09,46.88,110.89,48.26,145.86,6-.07-38.5-25-85.59-34.38-124.11-3.41-13.94-4.79-26.76-2.22-37.65l-39.62-2.15-71.39-3.87A139.25,139.25,0,0,0,258.3,317.38Z"/><path class="cls-7" d="M382.3,315.75l-.06-1c0,.21,0,.44,0,.65A2.22,2.22,0,0,1,382.3,315.75Z"/><g class="cls-5"><path class="cls-6" d="M258.3,317.38c1.09,2.55,2.24,5.18,3.43,7.9.64,1.5,1.27,3,1.83,4.51a175.88,175.88,0,0,0,43.67,10.81,103.69,103.69,0,0,0-8.76,41.34c-.38,67,85.81,88.2,82.54,102.71a4.56,4.56,0,0,1-.59,1.38c15.68-4.93,29.77-13.4,39.66-25.33v-.42c0-.75,0-1.49,0-2.24s-.06-1.5-.08-2.25-.08-1.51-.15-2.26l-.18-2.28c-.07-.75-.17-1.53-.25-2.3s-.19-1.55-.3-2.32-.21-1.53-.31-2.3c0-.06,0-.1,0-.17-.11-.73-.23-1.48-.36-2.21-.5-3-1.1-6.06-1.81-9.11-.15-.63-.27-1.26-.44-1.89-.63-2.69-1.34-5.41-2.09-8.15-.65-2.32-1.31-4.66-2-7-.11-.31-.19-.6-.3-.92-.18-.6-.37-1.23-.56-1.84-.27-.92-.58-1.84-.87-2.76-.47-1.44-.92-2.88-1.4-4.3-.88-2.66-1.8-5.31-2.72-8-.44-1.23-.85-2.48-1.31-3.72s-.92-2.61-1.38-3.91-1-2.78-1.5-4.15c-1.19-3.29-2.36-6.57-3.55-9.83l-1.76-4.87c-2-5.7-4-11.37-5.8-16.91q-.72-2.28-1.44-4.53c-1.29-4.2-2.48-8.32-3.49-12.36-.1-.37-.18-.75-.27-1.12-.21-.82-.39-1.61-.56-2.41-.33-1.46-.65-2.92-.94-4.37-.13-.6-.23-1.21-.35-1.81-.09-.44-.17-.86-.23-1.3s-.17-.92-.23-1.38c-.13-.75-.23-1.5-.34-2.26-.06-.37-.1-.75-.14-1.13s-.11-.87-.17-1.29-.11-.9-.15-1.34l-.12-1.32c0-.39-.06-.79-.11-1.17s-.06-.71-.06-1c0-.13,0-.25,0-.38s0-.44,0-.65,0-.56,0-.83,0-.71-.05-1.05a56,56,0,0,1,1.32-13.92l-39.62-2.15-71.39-3.87A143.94,143.94,0,0,0,258.3,317.38Z"/></g><path class="cls-6" d="M333.54,531.38a134.14,134.14,0,0,0,26.32-2.61c30.9-6.21,52.88-22.68,60.33-45.23,9.89-29.89-3.65-67.36-16.74-103.6-11.05-30.56-21.46-59.43-16.56-80.22a3.5,3.5,0,1,0-6.8-1.63c-5.39,22.84,5.38,52.65,16.78,84.21,12.69,35.11,25.8,71.44,16.68,99-6.64,20.08-26.72,34.86-55.07,40.57-36,7.23-74.9-2.24-92.52-22.52-27.84-32.06-18-80.76-12.1-109.85.79-3.87,1.52-7.55,2.08-10.77a3.49,3.49,0,1,0-6.88-1.21c-.57,3.14-1.3,6.75-2.07,10.6-6.14,30.37-16.43,81.18,13.69,115.83C275.76,521.35,303.64,531.38,333.54,531.38Z"/><path class="cls-4" d="M261.73,499.64c-51.15,29.32-99.72,2.55-107.09-38a61.92,61.92,0,0,1,.73-25.17A73.15,73.15,0,0,1,160.94,421c2.26-4.6,4.55-9.2,6.79-13.8,7.8-16.09,14.82-32.15,16.05-47.11a45.53,45.53,0,0,0-2.67-20.5,22.6,22.6,0,0,0-6.22-8.76,24.45,24.45,0,0,0-11-5.58,20.84,20.84,0,0,0-5.38-.46c-11.53.48-22,10.93-17.75,36.93,5.91,36.56-33.77,48-48.36,16.64-.65-1.4-1.23-2.87-1.78-4.39-.16-.55-.35-1.09-.54-1.63C80.93,343.15,92,292.61,137,282c2.06-.5,4.22-.9,6.43-1.21a77.34,77.34,0,0,1,9-.75A71,71,0,0,1,168,281.32c36.57,7.17,59.6,43.23,48.07,88.46-6.2,24.26-31.27,70-20.64,92.15,3.36,7,13.67,12.44,25.88,11.87.32,0,.63,0,1,0,8.81-.63,18.54-4.41,27.31-13Z"/><g class="cls-5"><path class="cls-6" d="M261.73,499.64c-51.15,29.32-99.72,2.55-107.07-38,6.18,20.46,39.6,33.71,66.72,12.16.31,0,.62,0,1,0,8.81-.63,18.53-4.41,27.3-13Z"/></g><g class="cls-5"><path class="cls-6" d="M197.16,347.77c-2.25,27.23-21,50.31-29.41,59.42,7.8-16.09,14.8-32.15,16.05-47.11a45.26,45.26,0,0,0-2.67-20.5,22.39,22.39,0,0,0-6.22-8.76,23.77,23.77,0,0,0-16.43-6.06c-11.52.48-22,10.93-17.74,36.93,5.9,36.55-33.78,48-48.37,16.64-.65-1.38-1.23-2.87-1.78-4.39,7.33,5.51,25.68,15,35.83,3.68,14.29-15.93-5.18-42.5,13.61-62.08C154.35,300.64,200.08,312.45,197.16,347.77Z"/></g><path class="cls-9" d="M168.44,311.88c-.36.38-5-.84-4.87-.31a31,31,0,0,1,.3,13.67h-.09a7.58,7.58,0,0,0-1-.19c-.31-.06-.61-.09-.92-.13l-.73-.08c-.23,0-.46,0-.69,0a15.7,15.7,0,0,0-1.94,0c-11.52.48-22,10.93-17.75,36.93,5.91,36.56-33.77,48-48.36,16.64-.65-1.4-1.23-2.87-1.78-4.39,7.35,5.52,25.68,15,35.85,3.68,14.29-15.93-5.18-42.5,13.59-62.08,6-6.23,17.4-7.8,28.51-4.93A1.22,1.22,0,0,1,168.44,311.88Z"/><path class="cls-8" d="M163.87,325.22a21,21,0,0,0-5.39-.46c-11.52.48-22,10.93-17.74,36.93,5.9,36.55-33.78,48-48.37,16.64-.65-1.41-1.23-2.87-1.78-4.39-.16-.55-.35-1.09-.54-1.63C81,343.13,92,292.59,137,282c2.07-.5,4.22-.9,6.43-1.21a77.34,77.34,0,0,1,8.95-.75c3,1.86,10.4,9.11,12.47,16.7.25.94-4.49-.9-4.12.1,1.26,3.37,9.23,13.4,7.69,15-.36.38-5-.84-4.89-.33A30.26,30.26,0,0,1,163.87,325.22Z"/><g class="cls-5"><path class="cls-6" d="M168.44,311.88c-.36.38-5-.84-4.87-.31a31,31,0,0,1,.3,13.67h-.09a7.58,7.58,0,0,0-1-.19c-.31-.06-.61-.09-.92-.13l-.73-.08c-.23,0-.46,0-.69,0a15.7,15.7,0,0,0-1.94,0c-11.52.48-22,10.93-17.75,36.93,5.91,36.56-33.77,48-48.36,16.64-.65-1.4-1.23-2.87-1.78-4.39,7.35,5.52,25.68,15,35.85,3.68,14.29-15.93-5.18-42.5,13.59-62.08,6-6.23,17.4-7.8,28.51-4.93A1.22,1.22,0,0,1,168.44,311.88Z"/></g><path class="cls-6" d="M218.06,515.44c14.86,0,30.52-4.22,45.4-12.77a3.51,3.51,0,0,0-3.49-6.09c-30.18,17.31-63.52,15.49-84.94-4.64-19-17.85-23.19-44.45-10.94-69.41.86-1.73,1.72-3.45,2.57-5.18,13.34-27,27.16-55,17.72-79.05-4.73-12.12-18.93-19.58-31-16.28-5.1,1.4-21.28,8.4-16.12,40.23,2.9,18-5.89,27.34-14.28,29.93-8.85,2.72-20.77-1-27.45-15.34-6.78-14.57-7.53-40.57,4.14-62,6.51-12,19.47-27.05,44.27-30.54,22.13-3.11,42.52,3.72,56,18.75,14.65,16.38,19.33,40.4,12.83,65.88-1.73,6.75-5.05,15.47-8.55,24.68-9.42,24.71-20.11,52.72-11.86,69.85,3.13,6.55,10.94,11.65,20.37,13.32,13.78,2.44,28.12-2.47,39.37-13.44a3.5,3.5,0,0,0-4.88-5c-9.62,9.39-21.75,13.61-33.28,11.56-7.14-1.25-13.15-5-15.3-9.45-6.93-14.42,3.61-42.09,12.09-64.31,3.59-9.4,7-18.31,8.79-25.44,7.1-27.77,1.83-54.13-14.41-72.29-15-16.81-37.68-24.46-62.16-21-27.68,3.91-42.17,20.71-49.43,34.11-11.44,21.11-13.24,49.2-4.32,68.35,8.45,18.2,24.11,22.7,35.84,19.08,12-3.68,22.52-16.78,19.14-37.75-2.88-17.85,1.15-29.65,11-32.37,8.62-2.36,19.19,3.28,22.63,12.08,8.29,21.23-4.8,47.76-17.49,73.4l-2.57,5.21c-13.46,27.4-8.58,57.87,12.42,77.6C183.24,509.27,200.06,515.44,218.06,515.44Z"/><path class="cls-4" d="M220.33,600.38c6.81,11.16,45.22,9.57,54.88,8.92,19.92-1.31,30.9-26.14,36.91-49.49,5.22-20.23,6.7-39.36,7.1-41.13L290,493.39l-34-31.5,5.76-143.36-.09-8.63C217.66,447.59,233,475.81,238.24,508a64.55,64.55,0,0,1,.17,12.16c-.61,12-2.69,29.22-4.57,44.63-.44,3.4-.84,6.75-1.23,9.9-9.15,3-13.59,8.2-14.68,13.78A16.85,16.85,0,0,0,220.33,600.38Z"/><g class="cls-5"><path class="cls-6" d="M220.33,600.38c6.81,11.16,45.22,9.57,54.88,8.92,19.92-1.31,30.9-26.14,36.91-49.49,5.22-20.23,6.7-39.36,7.1-41.13,0,0-9.29-16.41-22.32-19.3-23.61-5.22-45.3-10-65.23-33.23,1,17.68,4.57,29.47,6.57,41.87a64.55,64.55,0,0,1,.17,12.16c23.32-5.93,52.1,4.1,51.39,30.68-.58,21.93-8.49,43.67-29.28,46.95-18.85,3-35.34-1.57-42.59-9.32A16.85,16.85,0,0,0,220.33,600.38Z"/></g><path class="cls-9" d="M217.66,591.31c0,.46,0,.92.06,1.36a6.24,6.24,0,0,0,.09.77l.06.48.06.33c.08.49.19,1,.31,1.41.07.25.15.48.21.71l.07.18c.18.57.41,1.13.64,1.68,0,.06.07.12.09.18.14.32.29.61.46.92s.39.71.6,1.07c6.81,11.16,45.22,9.57,54.88,8.92,19.92-1.31,30.9-26.14,36.91-49.49-4.47,2.24-12.13,5.1-24.11,6.69-3.38,15.74-11.73,28.82-27.47,31.31-18.85,3-35.34-1.57-42.59-9.32l-.12.71a5.74,5.74,0,0,0-.09.71l-.06.71C217.68,590.85,217.66,591.06,217.66,591.31Z"/><path class="cls-8" d="M220.33,600.38c6.81,11.16,45.22,9.57,54.88,8.92,19.92-1.31,30.9-26.14,36.91-49.49-9.21,4.64-32.11,11.91-78.28,5-.44,3.41-.84,6.76-1.23,9.91C216.82,579.79,215.07,591.71,220.33,600.38Z"/><g class="cls-5"><path class="cls-6" d="M217.66,591.31c0,.46,0,.92.06,1.36,0,.27.07.52.09.77l.06.48.06.33c.08.49.19,1,.31,1.41.07.23.15.48.21.71l.07.18c.18.57.41,1.13.64,1.68,0,.06.07.12.09.18.14.32.29.61.46.92s.39.71.6,1.07c6.81,11.16,45.22,9.57,54.88,8.92,19.92-1.31,30.9-26.14,36.91-49.49-4.47,2.24-12.13,5.1-24.11,6.69-3.38,15.74-11.73,28.82-27.47,31.31-18.85,3-35.34-1.57-42.59-9.32l-.12.71a5.74,5.74,0,0,0-.09.71l-.06.71C217.68,590.85,217.66,591.06,217.66,591.31Z"/></g><path class="cls-6" d="M237.78,382.23a432.1,432.1,0,0,0-8.37,48A234.93,234.93,0,0,0,228,454.7a176,176,0,0,0,1.59,24.58c1.06,8.15,2.82,16.15,4.32,24l.54,2.93.25,1.46c.09.48.17,1,.21,1.38a42.45,42.45,0,0,1,.25,5.54c0,3.86-.27,7.86-.58,11.83-1.28,15.9-3.4,31.87-5.28,47.9l2.31-2.82a28.77,28.77,0,0,0-12,7,19.39,19.39,0,0,0-4.09,6.27,17.73,17.73,0,0,0-1.21,7.49,20.52,20.52,0,0,0,1.71,7.21c.25.56.52,1.11.79,1.65s.55,1,1,1.67a13.16,13.16,0,0,0,2.88,3,23.42,23.42,0,0,0,6.36,3.36,49.13,49.13,0,0,0,6.41,1.84,98.65,98.65,0,0,0,12.71,1.8c4.22.36,8.42.52,12.61.57s8.37,0,12.57-.19c2.11-.11,4.09-.15,6.55-.48a27.94,27.94,0,0,0,6.83-2,34.8,34.8,0,0,0,11.19-8A57,57,0,0,0,303.73,592a107.73,107.73,0,0,0,9.79-23.64c1.19-4.06,2.23-8.13,3.15-12.23s1.71-8.21,2.36-12.35,1.11-8.3,1.44-12.46c.15-2.09.29-4.16.35-6.25.05-1,.07-2.09.09-3.11l0-3v-.27a1.74,1.74,0,0,0-3.42-.48c-.19.71-.3,1.13-.42,1.67l-.34,1.53-.64,3-1.23,6-2.45,12c-.39,2-.83,4-1.29,6s-.88,4-1.36,6c-1,3.95-2,7.86-3.23,11.7a113.42,113.42,0,0,1-9.23,22,51.9,51.9,0,0,1-6.74,9.31,27.19,27.19,0,0,1-8.73,6.41,20.64,20.64,0,0,1-5,1.49c-1.63.25-3.76.35-5.78.46q-6.07.3-12.19.27c-8.1-.07-16.26-.46-23.9-2.07a43.88,43.88,0,0,1-5.5-1.55,18.31,18.31,0,0,1-4.57-2.34,6.54,6.54,0,0,1-1.44-1.44,11.12,11.12,0,0,1-.58-1c-.21-.38-.4-.76-.57-1.15a13.67,13.67,0,0,1-1.16-4.77,11.39,11.39,0,0,1,3.36-8.69,22.2,22.2,0,0,1,9.18-5.31l2.05-.71L236,575c2-16,4.15-32,5.49-48.18.31-4.06.58-8.13.62-12.31a50.8,50.8,0,0,0-.31-6.52c-.08-.63-.16-1.11-.25-1.61l-.27-1.53-.56-3c-1.59-8-3.32-15.74-4.41-23.57-2.23-15.64-1.79-31.57-.06-47.39a423.16,423.16,0,0,1,8.35-47.17v0a3.51,3.51,0,0,0-2.63-4.2A3.6,3.6,0,0,0,237.78,382.23Z"/><path class="cls-6" d="M261,587.42a6.89,6.89,0,0,0-1.86.94,10.29,10.29,0,0,0-1.5,1.3,10.77,10.77,0,0,0-2.09,3.36,15.12,15.12,0,0,0-.75,7.71,14.33,14.33,0,0,0,3.32,7.24,10.62,10.62,0,0,0,3.5,2.59,9,9,0,0,0,4.43.73,2.54,2.54,0,0,0,0-5.06l-.17,0a5.13,5.13,0,0,1-3.59-1.92,10.37,10.37,0,0,1-2.15-4.54,12.44,12.44,0,0,1,0-5.26,12.19,12.19,0,0,1,.79-2.53,9.92,9.92,0,0,1,.61-1.22c.21-.37.52-.81.69-1.1l.27-.48a1.23,1.23,0,0,0-.48-1.68A1.37,1.37,0,0,0,261,587.42Z"/><path class="cls-6" d="M237.72,584.83a8.69,8.69,0,0,0-2,.77,8.6,8.6,0,0,0-1.69,1.19,10.42,10.42,0,0,0-2.51,3.41,13.14,13.14,0,0,0-1,4,18.83,18.83,0,0,0-.06,4,17.47,17.47,0,0,0,2.48,7.65,12,12,0,0,0,2.9,3.24,9.4,9.4,0,0,0,4.24,1.89,2.54,2.54,0,0,0,1.23-4.92l-.17-.06a6.75,6.75,0,0,1-3.46-3.09,15.57,15.57,0,0,1-1.61-11,10.15,10.15,0,0,1,1-2.48,14.49,14.49,0,0,1,1.69-2.28l.23-.27a1.26,1.26,0,0,0-.12-1.78A1.45,1.45,0,0,0,237.72,584.83Z"/><path class="cls-4" d="M162.59,259.08c15.18,57.42,74.86,65.7,119.47,67.56a275.46,275.46,0,0,0,54.65-3.28,273.1,273.1,0,0,0,53-14c23.4-8.8,50.64-21,69.47-40.44a83.2,83.2,0,0,0,16.06-23,74.59,74.59,0,0,0,6-20.11,84.78,84.78,0,0,0,.88-15.59c-.07-2.09-.21-4.2-.42-6.38a119.33,119.33,0,0,0-3.9-20.15c-1.74-6.14-10-26.79-19.84-46.73-3.36-6.79-6.93-13.5-10.48-19.52,2.68-42.7-1.85-95.19-18.64-110.84C418-3.58,395.31,12,363.24,49.89c-28.41-7.45-64.92-2.3-70.49-1.38s-41.86,7.39-66.53,23.36C184,46,157.56,38.22,150.36,51.31c-11.07,20.1,1,71.39,16.89,111.11-5.91,26.92-8.48,63.87-8.12,72.42A110.28,110.28,0,0,0,162.59,259.08Z"/><g class="cls-10"><path class="cls-8" d="M148.94,101c-2.17-16.54-1.65-30.75,3.05-39.3,7.2-13.08,33.58-5.35,75.86,20.57,24.67-16,60.93-22.49,66.53-23.37s42.08-6.06,70.49,1.38C396.93,22.4,419.58,6.81,430.5,17c7.14,6.64,12.07,20,15.16,36.36-2.84-21.06-8.23-38.73-16.83-46.73C417.91-3.58,395.26,12,363.2,49.89c-28.41-7.45-64.92-2.3-70.49-1.38s-41.86,7.39-66.53,23.36C183.9,46,157.52,38.22,150.32,51.31,144.66,61.63,145.06,80.09,148.94,101Z"/></g><path class="cls-8" d="M162.59,259.08c15.18,57.42,74.86,65.7,119.47,67.56a275.46,275.46,0,0,0,54.65-3.28,273.1,273.1,0,0,0,53-14c23.4-8.8,50.64-21,69.47-40.44a83.2,83.2,0,0,0,16.06-23,74.59,74.59,0,0,0,6-20.11,84.78,84.78,0,0,0,.88-15.59c-54.13,64-103.31,47.11-130.18,9.13-10.37-14.65-26-13.71-32.71-12.64s-21.84,5.08-27.12,22.23C278.32,274.07,235.88,305.82,162.59,259.08Z"/><g class="cls-5"><path class="cls-6" d="M173.93,284.35c23.71,34.76,71,40.74,108,42.29a276.58,276.58,0,0,0,107.76-17.29c23.4-8.8,50.65-21,69.47-40.44a83.2,83.2,0,0,0,16.06-23,74.72,74.72,0,0,0,3.92-10.54A105.34,105.34,0,0,1,470,246.25c-20.59,21.26-99.62,50-136.9,56S201.69,304.38,173.93,284.35Z"/></g><path class="cls-6" d="M400,118.38c1.42-3.24-15.28-27.53-37.57-16-8,4.16-7.5,12.56-.65,13.27,6.53.67,9.14-1.13,19.39.73C387,117.46,398.56,121.62,400,118.38Z"/><path class="cls-6" d="M212.63,148.46c-2.36-2.64,5.93-30.94,30.71-26.95,8.93,1.45,11,9.6,4.76,12.42-6,2.7-9,1.78-18.19,6.75C224.72,143.48,215,151.09,212.63,148.46Z"/><path class="cls-11" d="M406.49,74.84c13.39,10.37,23.32,26.29,24,24.12.06-.21.13-.46.19-.73C432,92.29,432,69.55,428.77,49.8c-.52-3.18-1.07-6-1.63-8.44C425.62,34.73,424,30.59,422.36,28a5.79,5.79,0,0,0-8.1-2c-7.16,4.24-26.59,22.07-32.19,32.39C381.09,60.27,393.09,64.47,406.49,74.84Z"/><path class="cls-12" d="M406.49,74.84c13.39,10.37,23.32,26.3,24,24.12.06-.21.13-.46.19-.73-4.22-10-13.53-23.14-20.56-32.61C400.5,52.69,408.79,39.81,417,35c2.81-1.66,7.18,2.71,10.14,6.35-1.52-6.63-3.15-10.77-4.78-13.32a5.79,5.79,0,0,0-8.1-2c-7.16,4.24-26.59,22.07-32.19,32.39C381.09,60.27,393.09,64.47,406.49,74.84Z"/><path class="cls-6" d="M430.13,103.16a5.5,5.5,0,0,0,1-.1,4.19,4.19,0,0,0,3.19-2.89c1.77-5.47,1.75-30.49-1.59-51-1.79-11.07-4.07-18.68-6.95-23.24a9.69,9.69,0,0,0-13.46-3.32c-7.6,4.49-27.54,22.63-33.67,33.92-.61,1.13-1.57,4.06,2.59,7,1.25.88,3,1.86,5.23,3.12A138.54,138.54,0,0,1,404.07,78c7.39,5.72,13.78,13.33,18,18.37C426.1,101.18,427.77,103.16,430.13,103.16Zm-12.74-74A1.93,1.93,0,0,1,419,30.2c1.55,2.46,3.82,8,5.82,20.25a225.11,225.11,0,0,1,2.59,39.94c-4.44-5.27-10.87-12.79-18.51-18.7a150,150,0,0,0-18.58-12c-1.09-.63-2.28-1.28-3.22-1.84,6.73-9.91,23.28-24.87,29.19-28.39A2.34,2.34,0,0,1,417.39,29.13Z"/><path class="cls-11" d="M192.46,109.2c-9.47,14-13.94,32.27-15.28,30.43a4,4,0,0,1-.39-.64c-3.07-5.25-10.19-26.84-13.3-46.59-.5-3.2-.86-6-1.09-8.53-.62-6.77-.35-11.2.38-14.15a5.79,5.79,0,0,1,7.06-4.47C178,67,202,77.89,210.52,86,212,87.4,201.94,95.16,192.46,109.2Z"/><path class="cls-12" d="M192.46,109.2c-9.47,14-13.94,32.27-15.28,30.43a4,4,0,0,1-.39-.64c.89-10.77,5.63-26.21,9.35-37.42,5.09-15.3-6.79-24.93-16.1-26.92-3.19-.67-6,4.83-7.66,9.22-.62-6.77-.35-11.2.38-14.15a5.79,5.79,0,0,1,7.05-4.47C178,67,202,77.89,210.5,86,212,87.4,201.94,95.16,192.46,109.2Z"/><path class="cls-6" d="M177.39,143.73a4.73,4.73,0,0,0,.52,0c3-.38,3.85-2.59,6.47-9.2,2.45-6.1,6.14-15.34,11.38-23.07A140.62,140.62,0,0,1,209,95.09c1.71-1.88,3.06-3.38,4-4.59,3.05-4.06,1.23-6.55.29-7.42-9.35-8.8-34-19.8-42.56-21.7a9.69,9.69,0,0,0-11.75,7.36c-1.32,5.24-1.11,13.17.65,24.26,3.23,20.55,11,44.34,14.42,48.95A4.16,4.16,0,0,0,177.39,143.73ZM205.55,87c-.73.84-1.63,1.84-2.48,2.76A149.35,149.35,0,0,0,189.16,107c-5.4,8-9.18,17.16-11.75,23.57a226.86,226.86,0,0,1-10-38.75c-1.94-12.29-1.5-18.24-.79-21.07A1.85,1.85,0,0,1,169,69.18C175.68,70.62,196.1,79.67,205.55,87Z"/><path class="cls-6" d="M281.27,324.86c-10.11-1.42-20.17-2.57-30.09-4.22-2.48-.4-4.94-.82-7.41-1.32-1.23-.21-2.46-.46-3.69-.73s-2.46-.48-3.68-.77c-4.88-1.09-9.66-2.45-14.38-4a124.27,124.27,0,0,1-13.73-5.55,96.51,96.51,0,0,1-12.72-7.36,80,80,0,0,1-11.1-9.43,75.15,75.15,0,0,1-9-11.39,81.44,81.44,0,0,1-10.65-27.17c-.45-2.43-1-4.83-1.23-7.3l-.48-3.67c-.1-1.24-.19-2.47-.27-3.72s-.19-2.49-.25-3.7l0-1.78,0-1.84c.06-2.49.19-5,.33-7.52.61-10.1,1.57-20.22,2.82-30.27s2.82-20.06,4.95-29.89l.23-1.06-.4-1a355,355,0,0,1-15.07-46.82,232.3,232.3,0,0,1-4.61-24,108.9,108.9,0,0,1-.9-24,38.86,38.86,0,0,1,2.51-11.05A9.59,9.59,0,0,1,153,54a8.31,8.31,0,0,1,.58-1.12,6.24,6.24,0,0,1,.61-.88l.33-.42.38-.36a8.31,8.31,0,0,1,3.84-2c3.13-.84,7-.53,10.75.18a79,79,0,0,1,11.38,3.26A188.48,188.48,0,0,1,203,62.74c7.25,3.82,14.35,8,21.36,12.25l1.9,1.15,1.9-1.22a124.66,124.66,0,0,1,15.15-8.1c5.26-2.39,10.71-4.41,16.2-6.28s11.11-3.46,16.77-4.87,11.37-2.65,17.05-3.59,11.52-1.48,17.31-1.92,11.62-.65,17.45-.61,11.6.27,17.35.88a127.32,127.32,0,0,1,16.92,3l2.18.54L366,52.23c5.32-6.27,10.77-12.42,16.44-18.31a182.09,182.09,0,0,1,17.9-16.54,76.76,76.76,0,0,1,9.78-6.66c3.37-1.84,6.94-3.35,10.17-3.54a8.47,8.47,0,0,1,4.3.76c.15.08.31.14.46.23l.44.29a8.7,8.7,0,0,1,.85.65,12.71,12.71,0,0,1,.92.9,8.37,8.37,0,0,1,.9,1A39.76,39.76,0,0,1,434,20.71a108.27,108.27,0,0,1,6.63,23.07,231.33,231.33,0,0,1,3.13,24.27,354.28,354.28,0,0,1,.3,49.2l-.06,1.09.56.94c5.11,8.67,9.7,17.76,14.05,26.94s8.41,18.54,12.13,28c.91,2.37,1.83,4.73,2.65,7.07.41,1.17.79,2.34,1.12,3.45s.67,2.4,1,3.61a113,113,0,0,1,2.7,14.63,80.87,80.87,0,0,1-1.72,29.24,72.34,72.34,0,0,1-12.75,26.17,103.22,103.22,0,0,1-21.35,20.47,174.31,174.31,0,0,1-25.85,15.32c-9.06,4.43-18.43,8.29-27.93,11.87a3.55,3.55,0,1,0,2.51,6.64c9.64-3.63,19.22-7.56,28.55-12.14a180.35,180.35,0,0,0,26.91-16,109.72,109.72,0,0,0,22.82-21.92,79.87,79.87,0,0,0,14-28.72,87.65,87.65,0,0,0,1.88-31.79,119.55,119.55,0,0,0-2.86-15.57c-.31-1.28-.67-2.55-1-3.81s-.81-2.63-1.25-3.86c-.88-2.49-1.8-4.92-2.74-7.32-3.8-9.63-7.93-19.06-12.31-28.4s-9.08-18.56-14.36-27.53l.48,2a359.6,359.6,0,0,0-.32-50.21,245,245,0,0,0-3.23-25,116.15,116.15,0,0,0-7.12-24.62,46.26,46.26,0,0,0-6.95-11.49A16.22,16.22,0,0,0,432.3,5c-.44-.42-.78-.84-1.32-1.28a16.65,16.65,0,0,0-1.61-1.23l-.85-.54a9.86,9.86,0,0,0-.92-.46A15.62,15.62,0,0,0,419.81,0a25.14,25.14,0,0,0-7,1.56,41.54,41.54,0,0,0-6.14,2.85,82.85,82.85,0,0,0-10.73,7.29,192.22,192.22,0,0,0-18.6,17.18c-5.82,6-11.35,12.29-16.76,18.67l3.61-1.15a148.63,148.63,0,0,0-36.05-4.06c-6,0-12,.19-18,.63s-11.91,1.06-17.93,2-11.81,2.26-17.64,3.72-11.58,3.12-17.28,5a149.31,149.31,0,0,0-33,15.13l3.78,0c-7.12-4.34-14.34-8.55-21.76-12.48a192.54,192.54,0,0,0-23-10.49,83.05,83.05,0,0,0-12.48-3.57,44.4,44.4,0,0,0-6.73-.78,24.62,24.62,0,0,0-7.18.72A15.66,15.66,0,0,0,150,46c-.25.25-.5.48-.73.73l-.65.8a14.48,14.48,0,0,0-1.14,1.67,13.34,13.34,0,0,0-.84,1.63,13.54,13.54,0,0,0-.73,1.61,46.09,46.09,0,0,0-3,13.1,116.14,116.14,0,0,0,.91,25.61A241.8,241.8,0,0,0,148.52,116a359.91,359.91,0,0,0,15.39,47.78l-.17-2.09c-2.17,10.16-3.76,20.34-5,30.54s-2.21,20.44-2.82,30.75c-.15,2.57-.27,5.16-.31,7.77l0,2,0,2c.06,1.33.16,2.61.25,3.93s.17,2.61.27,3.92l.48,3.91c.27,2.62.79,5.21,1.27,7.8a90.16,90.16,0,0,0,11.44,29.62,83.2,83.2,0,0,0,9.86,12.66A84.8,84.8,0,0,0,191.34,307a101.35,101.35,0,0,0,13.73,8,125.18,125.18,0,0,0,14.68,5.77,174.77,174.77,0,0,0,61.35,7.61,1.77,1.77,0,0,0,1.67-1.84A1.73,1.73,0,0,0,281.27,324.86Z"/><g class="cls-5"><path class="cls-6" d="M294.92,240.32s2.71,16.95,17.72,13.62c10.63-2.34,11.44-11.56,11.48-12.29.27.69,3.93,9.18,14.76,8.09,15.3-1.54,12.59-18.5,12.59-18.5L319.8,213.79l-.25,0Z"/></g><path class="cls-8" d="M295.08,240.42s7,12.1,18,7.25c12.55-5.52,8.43-20.9,8.43-20.9l.49-.08s.95,15.88,14.61,17.16c12,1.11,14.8-12.61,14.8-12.61s-1.42-29.49-32.78-24.45S295.08,240.42,295.08,240.42Z"/><g class="cls-5"><path class="cls-6" d="M297,243.05c2.79,3.26,8.49,8,16.09,4.62,12.55-5.52,8.46-20.9,8.46-20.9l.47-.08s1,15.9,14.62,17.16c8.24.75,12.17-5.5,13.8-9.47a21.52,21.52,0,0,1-7.35.52c-22.55-2.09-23.38-23.74-23.38-23.74l-.79.12s6.05,20.8-14.68,29.93A21.11,21.11,0,0,1,297,243.05Z"/></g><path class="cls-6" d="M349.51,230.85c-.3.69-.67,1.54-1.07,2.3a18.25,18.25,0,0,1-1.29,2.19,14.11,14.11,0,0,1-3.2,3.51,10,10,0,0,1-3.86,1.82,11.3,11.3,0,0,1-2.19.15c-.38,0-.75,0-1.13,0l-1.15-.19a11.74,11.74,0,0,1-7.59-4.75,19.29,19.29,0,0,1-2.47-4.37,28.43,28.43,0,0,1-1.56-4.93l-.05-.17a2,2,0,0,0-2.35-1.52,2,2,0,0,0-1.57,1.92,22,22,0,0,0,.21,3.2,19.9,19.9,0,0,0,.63,3.07,20.44,20.44,0,0,0,2.56,5.92,16.54,16.54,0,0,0,11,7.56l1.68.3a12.35,12.35,0,0,0,1.73.06,16.71,16.71,0,0,0,3.5-.36,14.62,14.62,0,0,0,6.27-3.32,17.36,17.36,0,0,0,3.94-5.41,21,21,0,0,0,1.13-3,19.44,19.44,0,0,0,.67-3.18,2,2,0,0,0-3.8-1Z"/><path class="cls-6" d="M293.37,241.4a17.9,17.9,0,0,0,1.63,2.8,23,23,0,0,0,2,2.49,16.73,16.73,0,0,0,5.45,3.89,14.64,14.64,0,0,0,7,1.17,17.39,17.39,0,0,0,3.44-.77,16,16,0,0,0,1.63-.61l1.5-.79a16.46,16.46,0,0,0,8.06-10.66,20.53,20.53,0,0,0,.57-6.44,27.12,27.12,0,0,0-.38-3.12,19.38,19.38,0,0,0-.81-3.09A2,2,0,0,0,321,225a2,2,0,0,0-1.34,2.09l0,.16a30.86,30.86,0,0,1,.09,5.19,19.17,19.17,0,0,1-1,4.91,11.93,11.93,0,0,1-5.72,6.9l-1.05.54c-.35.17-.71.25-1.06.4a11.88,11.88,0,0,1-2.13.54,9.83,9.83,0,0,1-4.24-.5,13.89,13.89,0,0,1-4.13-2.32,20.19,20.19,0,0,1-1.92-1.69c-.61-.59-1.25-1.28-1.73-1.84l-.15-.17a2,2,0,0,0-3.26,2.15Z"/><path class="cls-6" d="M304.69,221.11c.6,3.7,5.95,6.18,10.73,7.69a16.06,16.06,0,0,0,14.44-2.34c4.07-3,8.35-7,7.75-10.68C335.81,204.6,302.89,210,304.69,221.11Z"/><g class="cls-10"><path class="cls-8" d="M314.27,217.3c.17,1.07,2.23,1.7,4.09,2a8.38,8.38,0,0,0,5.72-.94c1.65-.92,3.4-2.17,3.24-3.24C326.82,212,313.75,214.09,314.27,217.3Z"/></g><path class="cls-6" d="M461.71,205.45c.56-.46,1.23-1,1.88-1.42s1.29-1,2-1.4,1.34-.92,2-1.34,1.33-.9,2-1.31c2.78-1.7,5.58-3.33,8.48-4.77a121.44,121.44,0,0,1,17.93-7.5c1.52-.55,3.11-.92,4.65-1.4l2.34-.69c.77-.23,1.59-.38,2.38-.57,1.59-.35,3.17-.71,4.76-1.11l4.8-.83c3.2-.67,6.47-.8,9.71-1.23l1.21-.15,1.23-.06,2.44-.13,4.91-.29h.12a1.75,1.75,0,0,0-.06-3.49l-5-.13-2.53,0-1.27,0-1.27.06c-1.69.09-3.38.19-5.06.3-.83.06-1.69.08-2.52.18l-2.53.34-5,.67-5,1c-.83.19-1.67.31-2.48.52l-2.46.67c-1.63.46-3.3.84-4.91,1.4l-4.82,1.65c-1.59.59-3.15,1.26-4.74,1.9s-3.09,1.41-4.63,2.12-3,1.54-4.51,2.36a71.34,71.34,0,0,0-16.43,12.2,1.75,1.75,0,0,0,2.34,2.6Z"/><path class="cls-6" d="M461.46,231.18c2.67-.75,5.53-1.44,8.33-2s5.63-1.07,8.47-1.47a103.8,103.8,0,0,1,17.06-1,70.28,70.28,0,0,1,8.47.71c1.4.17,2.8.46,4.18.69s2.77.56,4.13,1a63.3,63.3,0,0,1,15.62,6.56l0,0a1.75,1.75,0,0,0,1.92-2.92,55.67,55.67,0,0,0-16.24-8.15,59.06,59.06,0,0,0-8.87-2.14,67.38,67.38,0,0,0-9-.92,81,81,0,0,0-18,1.26,75.62,75.62,0,0,0-17.28,5.16,1.78,1.78,0,0,0-.9,2.32,1.74,1.74,0,0,0,2.07,1Z"/><path class="cls-6" d="M182.69,247.32a71.69,71.69,0,0,0-19.41-6.44c-1.67-.31-3.34-.65-5-.84s-3.36-.48-5.07-.56-3.39-.27-5.1-.31l-5.09,0c-1.69,0-3.4.13-5.09.21l-2.55.15c-.86.06-1.69.19-2.53.27l-5,.61-5,.94-2.48.48c-.84.14-1.65.42-2.46.6-1.63.42-3.28.86-4.91,1.3l-1.21.33-1.19.42-2.4.84L103.37,247a1.75,1.75,0,0,0,1,3.35l.13-.05,4.76-1.27,2.36-.65,1.19-.33,1.21-.25c3.21-.59,6.36-1.49,9.6-1.86l4.82-.71c1.63-.13,3.24-.3,4.86-.44.82-.07,1.61-.17,2.43-.21l2.44-.09c1.63,0,3.23-.18,4.86-.14a125.75,125.75,0,0,1,19.38,1.52c3.21.46,6.36,1.15,9.53,1.88.8.19,1.57.42,2.36.61s1.57.42,2.34.65,1.55.46,2.32.73,1.54.52,2.23.77l.13,0a1.75,1.75,0,0,0,2.25-1A1.85,1.85,0,0,0,182.69,247.32Z"/><path class="cls-6" d="M189.62,271.35a76,76,0,0,0-18,.5,82.38,82.38,0,0,0-17.52,4.46,68.33,68.33,0,0,0-8.3,3.72,57.78,57.78,0,0,0-7.75,4.8,55.78,55.78,0,0,0-12.88,12.82,1.75,1.75,0,0,0,2.72,2.19l0,0a63.19,63.19,0,0,1,12.77-11.12c1.17-.79,2.4-1.48,3.61-2.22s2.49-1.35,3.76-2a71,71,0,0,1,7.83-3.32,100.34,100.34,0,0,1,16.51-4.37c2.82-.52,5.66-.92,8.5-1.28s5.76-.58,8.54-.71h.1a1.75,1.75,0,0,0,1.67-1.82A1.69,1.69,0,0,0,189.62,271.35Z"/><path class="cls-13" d="M448,519c3.09,7.42,2.56,19.1,1.21,23.85a7.76,7.76,0,0,0,14.69,4.93,48.33,48.33,0,0,0,2.42-20.21,49,49,0,0,0-3.73-15.49c-7.37-17.14-23.15-23.39-27.2-40.3-.15-.6-.27-1.23-.4-1.86-2.36-13.16,4.36-37.64,22.67-44.49L454.84,396s-35,27.61-36.3,67.51C417.85,484.94,441.27,502.77,448,519Z"/><path class="cls-14" d="M448,519c3.09,7.42,2.56,19.1,1.21,23.85a7.76,7.76,0,0,0,14.69,4.93,48.33,48.33,0,0,0,2.42-20.21c-7,3.57-10.83-9.43-17.91-21.17-4.19-7-15-17.21-17.7-23.62-2.71-6.57.59-9.6,4.7-11-.15-.6-.27-1.23-.4-1.86-2.36-13.16,4.36-37.64,22.67-44.49L454.86,396s-35.05,27.61-36.3,67.51C417.85,484.94,441.27,502.77,448,519Z"/><path class="cls-3" d="M456.7,555.48a10,10,0,0,0,2.61-.33,10.46,10.46,0,0,0,7.2-6.44c3.44-9.15,4.36-24.39-1.38-37.77-3.59-8.36-8.93-14.11-14.11-19.69-6-6.43-11.6-12.5-13.28-21.86-2.29-12.83,4.72-35.34,20.9-41.4a2.78,2.78,0,0,0-1.94-5.21c-19.12,7.17-27.12,32.54-24.42,47.59,2,11,8.43,17.94,14.67,24.67,4.84,5.22,9.88,10.61,13.07,18.1,5.13,12,4.34,25.5,1.29,33.63a4.81,4.81,0,0,1-3.38,3,4.9,4.9,0,0,1-4.51-1.07,5,5,0,0,1-1.54-5.14c1.56-5.43,2-17.72-1.32-25.67-2.59-6.25-7.37-12.52-12.44-19.12-8.47-11.1-17.22-22.55-16.82-35.16,1.19-38.1,34.9-65.15,35.23-65.42a2.78,2.78,0,0,0-3.44-4.37c-1.48,1.15-36.07,28.89-37.35,69.63-.46,14.56,9.33,27.38,18,38.68,4.82,6.34,9.39,12.31,11.71,17.89,2.88,6.94,2.25,18,1.1,22a10.57,10.57,0,0,0,10.17,13.44Z"/><path class="cls-13" d="M442.69,369.36q6.85,5.73,13.51,10.76c.56-.67,1.15-1.33,1.71-2A.69.69,0,0,1,458,378c.56-.67,1.12-1.34,1.66-2,2.05-2.46,4.05-5,6-7.42a1.12,1.12,0,0,0,.17-.2l1-1.26c.3-.37.57-.75.86-1.11l1.38-1.81q.52-.69,1-1.38c.15-.21.31-.42.46-.61.29-.38.56-.77.86-1.15l.81-1.13c.25-.33.5-.69.73-1s.38-.53.56-.8l1-1.44a2.75,2.75,0,0,0,.23-.33l1.19-1.72.12-.19c.44-.62.86-1.25,1.27-1.88s.9-1.33,1.34-2c.9-1.34,1.77-2.7,2.63-4l1.07-1.67q1.33-2.13,2.63-4.26c.37-.61.73-1.24,1.1-1.84s.84-1.4,1.23-2.11c2.15-3.74,4.18-7.44,6-11.08l.68-1.36c.23-.46.46-.9.67-1.36,1.34-2.69,2.57-5.37,3.72-8a99.49,99.49,0,0,0-10.17-16.39C479.22,320.2,463.61,345.53,442.69,369.36Z"/><path class="cls-13" d="M458.6,381.9c15,11.12,28.7,19.21,39,23.14a99.32,99.32,0,0,0,8.88-24.71C484.55,384.18,467.76,383.13,458.6,381.9Z"/><path class="cls-13" d="M456.2,380.1l2.4,1.8c9.16,1.23,25.95,2.26,47.87-1.57a100.28,100.28,0,0,0,2.15-17,315,315,0,0,1-43,5.25c-1.94,2.48-3.92,4.95-6,7.42-.56.66-1.1,1.33-1.66,2a1.27,1.27,0,0,0-.11.13C457.35,378.79,456.76,379.43,456.2,380.1Z"/><path class="cls-13" d="M465.68,368.56a309.59,309.59,0,0,0,43-5.24c.06-1.38.08-2.78.08-4.18a103.55,103.55,0,0,0-.83-13,142.64,142.64,0,0,1-30.54,6.39c-.42.63-.86,1.26-1.28,1.88l-.12.19-1.19,1.72c-.09.1-.15.23-.23.33-.34.48-.67,1-1,1.44-.18.27-.37.52-.56.8s-.48.69-.73,1L471.4,361c-.3.38-.57.77-.86,1.15-.15.21-.29.4-.46.61-.33.45-.69.91-1,1.37L467.68,366c-.27.38-.56.76-.86,1.11l-1,1.25A2.44,2.44,0,0,0,465.68,368.56Z"/><path class="cls-13" d="M477.32,352.51a142.36,142.36,0,0,0,30.54-6.39,99.48,99.48,0,0,0-3.4-15.91,109.36,109.36,0,0,1-17.16,6.38c-.41.71-.81,1.4-1.23,2.11s-.73,1.23-1.11,1.84q-1.27,2.13-2.63,4.26l-1.06,1.67c-.86,1.34-1.73,2.7-2.63,4Z"/><path class="cls-13" d="M487.3,336.56a109.55,109.55,0,0,0,17.16-6.37,97.81,97.81,0,0,0-6.07-15.4c-1.15,2.61-2.38,5.28-3.72,8-.21.46-.44.9-.67,1.36l-.68,1.36C491.48,329.12,489.47,332.82,487.3,336.56Z"/><path class="cls-13" d="M428.64,357c4.7,4.32,9.4,8.46,14.05,12.35,20.92-23.81,36.53-49.14,45.53-71a101.45,101.45,0,0,0-12.46-13.57C467.74,305.34,451.06,331.82,428.64,357Z"/><path class="cls-13" d="M414.16,343c4.78,4.87,9.62,9.57,14.48,14,22.42-25.19,39.1-51.65,47.12-72.18a99.62,99.62,0,0,0-13.3-10.15C455.36,291.88,437.66,317.61,414.16,343Z"/><path class="cls-13" d="M403.18,331.28c3.59,4,7.26,7.9,11,11.68,23.5-25.35,41.18-51.08,48.3-68.3a100.69,100.69,0,0,0-13.19-7.11c-1.25,2.65-2.72,5.45-4.38,8.4-2.2,3.91-4.74,8.07-7.6,12.38-2.57,3.86-5.37,7.87-8.42,12-3.36,4.56-7,9.22-10.89,14C413.38,319.91,408.44,325.61,403.18,331.28Z"/><path class="cls-13" d="M360.7,271.23q1.71,3.42,3.63,6.81c39.08-14.17,69.74-6,80.57-2.07,1.65-2.94,3.14-5.77,4.39-8.4a100.18,100.18,0,0,0-88.59,3.66Z"/><path class="cls-13" d="M364.33,278c2,3.7,4.24,7.38,6.53,11,30.19-10.75,57.05-3.83,66.45-.71,2.86-4.33,5.4-8.47,7.59-12.38C434.05,272.06,403.41,263.87,364.33,278Z"/><path class="cls-13" d="M370.86,289.06c2.44,3.88,5,7.75,7.72,11.58,24.24-9.28,42.63-3.68,50.31-.3,3-4.11,5.85-8.13,8.42-12C427.91,285.23,401,278.31,370.86,289.06Z"/><path class="cls-13" d="M378.58,300.64q4.68,6.64,9.78,13.08c11.27-2.91,23-1,29.64.59,3.88-4.73,7.53-9.41,10.89-14C421.21,297,402.82,291.36,378.58,300.64Z"/><path class="cls-13" d="M388.36,313.72c4.73,6,9.7,11.89,14.82,17.56,5.24-5.69,10.2-11.37,14.82-17C411.4,312.72,399.63,310.81,388.36,313.72Z"/><path class="cls-13" d="M334.18,292.3c10.3,23.36,25.62,45.31,43,64.62q5.38,6,11,11.6c4.9,4.91,9.89,9.64,15,14.11q7.22,6.36,14.45,12.08c4.76,3.74,9.52,7.28,14.22,10.56,17.16,12,33.58,20.75,47,25.33a99.83,99.83,0,0,0,11.12-13c-11-3.37-26.86-12.54-44.4-25.73q-6.7-5-13.63-10.83c-4.68-3.88-9.42-8-14.13-12.37-4.93-4.51-9.83-9.26-14.68-14.19q-5.56-5.67-11-11.66c-17.55-19.44-33.4-41.14-44.17-63.25A96.77,96.77,0,0,0,334.18,292.3Z"/><path class="cls-13" d="M322.85,307.68C333.1,330.32,347.13,350.92,363,369c3.53,4,7.16,7.93,10.86,11.71q7.26,7.4,14.82,14.13,7.14,6.33,14.4,12c4.8,3.76,9.65,7.31,14.47,10.64,16.11,11.11,32.06,19.64,46.32,25.2a100.45,100.45,0,0,0,14.91-12.08c-13.39-4.58-29.82-13.33-47-25.33-4.7-3.28-9.46-6.81-14.22-10.56s-9.66-7.83-14.44-12.08c-5.06-4.47-10.07-9.19-15-14.1q-5.61-5.62-11-11.61c-17.39-19.31-32.72-41.25-43-64.62A97,97,0,0,0,322.85,307.68Z"/><path class="cls-13" d="M313.81,327.31c1.25,2.5,2.57,5,3.92,7.46,3,5.41,6.16,10.7,9.52,15.84s6.7,9.89,10.3,14.61c3.73,4.93,7.62,9.7,11.6,14.32q5.27,6,10.75,11.72c4.74,4.89,9.61,9.58,14.55,14,4.68,4.22,9.44,8.23,14.22,12s9.71,7.48,14.57,10.87l1.44,1q8.24,5.67,16.37,10.45a219.84,219.84,0,0,0,24.65,12.58,99.57,99.57,0,0,0,18.16-9.51c-14.26-5.56-30.21-14.09-46.32-25.21-4.82-3.32-9.67-6.87-14.47-10.63s-9.66-7.82-14.4-12q-7.55-6.72-14.82-14.13Q368.3,375.07,363,369c-15.86-18.08-29.89-38.68-40.14-61.32A98.85,98.85,0,0,0,313.81,327.31Z"/><path class="cls-13" d="M348.46,439.11a100.73,100.73,0,0,0,17.18,10.45l1.8-.82.69-.31c.54-.25,1.08-.5,1.63-.78l2-1a.07.07,0,0,1,.06,0l2-1,1.62-.82c.23-.1.44-.23.65-.33.59-.29,1.17-.61,1.73-.9h0c.66-.33,1.31-.69,2-1h0c.54-.3,1.06-.59,1.61-.88l.37-.21a1.86,1.86,0,0,0,.19-.11l1.19-.66c.42-.23.83-.46,1.25-.72s.84-.48,1.23-.71.57-.31.84-.48c.69-.39,1.38-.79,2.06-1.21a1.4,1.4,0,0,0,.28-.17l.1-.06,1.44-.86c1-.58,1.92-1.17,2.86-1.77l.06,0,1-.63c.2-.15.43-.27.64-.42l1.55-1,.18-.13c.51-.31,1-.64,1.49-1a1.09,1.09,0,0,1,.23-.14l.75-.51.19-.12c.33-.23.66-.44,1-.69l.19-.13.87-.58c.61-.4,1.19-.82,1.78-1.21-4.87-3.39-9.73-7-14.57-10.87A231.69,231.69,0,0,1,348.46,439.11Z"/><path class="cls-13" d="M421.05,439.61c.77,5.75,1.73,12.87,2.5,18.58a99.91,99.91,0,0,0,22.17-6A220.3,220.3,0,0,1,421.05,439.61Z"/><path class="cls-13" d="M404.68,429.16l1.19,30.09c.94,0,1.86.05,2.8.05a102.63,102.63,0,0,0,14.86-1.09c-.77-5.71-1.73-12.83-2.51-18.58C415.64,436.43,410.17,432.94,404.68,429.16Z"/><path class="cls-13" d="M386.56,456.83a99,99,0,0,0,19.31,2.42l-1.19-30.09-1.44-1c-.59.42-1.19.82-1.78,1.22-.29.21-.58.39-.87.58l-.19.13-1,.69-.19.12-.75.5c-.08.05-.15.11-.23.15-.5.33-1,.65-1.48,1l-.19.13c-.52.33-1,.67-1.55,1-.21.15-.43.27-.64.42l-1,.62s0,0-.06.05c-.94.6-1.9,1.19-2.86,1.77-.48.3-1,.59-1.44.86l-.1.06Z"/><path class="cls-13" d="M365.62,449.56a98,98,0,0,0,20.94,7.25l2.3-19.4c-.09.07-.19.11-.28.17-.68.42-1.37.82-2.06,1.21a7.63,7.63,0,0,1-.84.48c-.41.25-.83.48-1.23.71s-.83.46-1.25.71l-1.19.67-.19.11-.37.21-1.61.87h0c-.65.36-1.32.72-2,1.05h0c-.58.31-1.14.61-1.73.9l-.65.33-1.62.82-2,1-.06,0c-.67.34-1.34.65-2,1s-1.09.53-1.63.78l-.69.31Z"/><path class="cls-13" d="M324,412.54a98.72,98.72,0,0,0,11,14.34,214.67,214.67,0,0,0,39.43-21.63q-7.43-6.69-14.55-14A230.52,230.52,0,0,1,324,412.54Z"/><path class="cls-13" d="M374.45,405.27A215.32,215.32,0,0,1,335,426.9a99.92,99.92,0,0,0,13.44,12.23,231,231,0,0,0,40.21-21.82C383.89,413.5,379.13,409.49,374.45,405.27Z"/><path class="cls-13" d="M317,399.16A101,101,0,0,0,324,412.54a232.27,232.27,0,0,0,35.86-21.3q-5.5-5.67-10.75-11.72c-3.53,2.53-7.12,5-10.71,7.31s-7.26,4.58-10.92,6.67c-2.77,1.59-5.57,3.11-8.37,4.56C318.4,398.43,317.69,398.81,317,399.16Z"/><path class="cls-13" d="M338.42,386.83q5.41-3.48,10.71-7.31-6-6.93-11.61-14.32A200.47,200.47,0,0,0,338.42,386.83Z"/><path class="cls-13" d="M308.65,359.14a99.89,99.89,0,0,0,8.31,40c.73-.35,1.44-.73,2.17-1.1-3.19-8.07-8.49-28.26-1.42-63.31-1.35-2.47-2.65-4.94-3.92-7.47A101.08,101.08,0,0,0,308.65,359.14Z"/><path class="cls-13" d="M347.9,279.59c10.77,22.11,26.62,43.81,44.17,63.25q5.39,6,11,11.66c4.84,4.93,9.75,9.68,14.68,14.19,4.71,4.35,9.45,8.49,14.13,12.37s9.18,7.46,13.63,10.83c17.53,13.19,33.44,22.36,44.4,25.73a98,98,0,0,0,7.7-12.56c-10.29-3.93-24-12-39-23.14-.79-.58-1.61-1.19-2.4-1.8q-6.65-5-13.51-10.76c-4.65-3.89-9.35-8-14.05-12.35q-7.29-6.72-14.48-14c-3.72-3.78-7.39-7.69-11-11.68-5.12-5.69-10.09-11.54-14.82-17.56q-5.08-6.42-9.78-13.08c-2.69-3.83-5.28-7.69-7.72-11.58-2.29-3.64-4.49-7.32-6.53-11-1.28-2.25-2.47-4.53-3.63-6.81A94.93,94.93,0,0,0,347.9,279.59Z"/><path class="cls-13" d="M327.5,393.5c3.68-2.11,7.31-4.33,10.92-6.67a200,200,0,0,1-.9-21.61q-5.36-7.08-10.29-14.61A154.79,154.79,0,0,0,327.5,393.5Z"/><path class="cls-13" d="M319.13,398.06c2.8-1.45,5.6-3,8.37-4.56a154.79,154.79,0,0,1-.25-42.91c-3.36-5.14-6.55-10.43-9.52-15.84C310.64,369.8,315.94,390,319.13,398.06Z"/><path class="cls-14" d="M318.4,360.14a90.3,90.3,0,0,0,7.5,36.14,88.87,88.87,0,0,0,6.38,12.06,90.2,90.2,0,0,0,73.84,42.16c.83,0,1.69,0,2.52,0a92.52,92.52,0,0,0,13.41-1,90.53,90.53,0,0,0,20-5.4,87.75,87.75,0,0,0,16.38-8.59,90.3,90.3,0,0,0,23.51-22.63,88.14,88.14,0,0,0,6.95-11.35,90.14,90.14,0,0,0,9.94-37.66c0-1.26.08-2.51.08-3.79a91,91,0,0,0-.75-11.74c-.3-2.26-.67-4.5-1.13-6.69,0,.23-.1.46-.15.69a90.26,90.26,0,0,1-14.94,33.65,91.2,91.2,0,0,1-10,11.72,89.94,89.94,0,0,1-49.85,24.9,92.52,92.52,0,0,1-13.41,1c-.85,0-1.69,0-2.52,0a89.7,89.7,0,0,1-51.81-18.21,90.61,90.61,0,0,1-12.13-11,91.57,91.57,0,0,1-9.9-12.94,90.15,90.15,0,0,1-12-29.74A91.21,91.21,0,0,0,318.4,360.14Z"/><path class="cls-3" d="M456.6,383.89l1.69-2c.58-.67,1.14-1.34,1.73-2L458,378l2.1,1.8c.57-.67,1.13-1.34,1.69-2,2.05-2.45,4.07-5,6-7.5l1.12-1.47c.3-.37.59-.75.88-1.13l1.38-1.81c.35-.46.71-.94,1-1.4l.46-.63,2.42-3.35c.17-.25.38-.52.57-.79.33-.46.67-1,1-1.44l.27-.38c.31-.44.67-.94,1-1.44l.17-.23a1.78,1.78,0,0,0,.17-.27c.39-.57.83-1.21,1.25-1.84s.92-1.36,1.36-2c.89-1.36,1.79-2.72,2.65-4.07l1.06-1.68q1.38-2.16,2.65-4.32c.38-.61.73-1.24,1.11-1.86l1.25-2.13c2.19-3.81,4.24-7.57,6.1-11.21l.69-1.38.12-.25c.19-.37.38-.75.56-1.15,1.34-2.71,2.62-5.43,3.76-8.09l.52-1.19-.56-1.15a101.79,101.79,0,0,0-10.46-16.84l-2.92-3.83-1.84,4.45c-9.47,23-25.48,47.91-45,70.19l-1.88,2.13,2.19,1.82c4.53,3.78,9.1,7.44,13.61,10.85Zm38.74-69c-1,2.19-2,4.43-3.13,6.69-.19.37-.36.73-.54,1.08l-.13.26c-.23.43-.46.89-.67,1.33-1.81,3.56-3.8,7.24-5.95,11-.39.69-.81,1.4-1.23,2.09s-.71,1.21-1.08,1.79c-.86,1.42-1.72,2.82-2.59,4.23L479,345c-.83,1.31-1.71,2.65-2.58,4-.44.67-.88,1.32-1.34,2s-.84,1.24-1.28,1.87l-.29.43c-.33.48-.66,1-1,1.47l-.19.25c-.39.56-.71,1-1.06,1.5-.19.27-.38.53-.54.78l-2.41,3.3-.43.58c-.36.51-.69.94-1,1.38-.46.61-.9,1.19-1.35,1.8-.3.38-.57.75-.84,1.11l-1.13,1.46c-1.92,2.47-3.92,5-5.93,7.36-.54.67-1.1,1.32-1.66,2l-.11.13c-3-2.32-6.1-4.77-9.14-7.27,17.85-20.72,32.65-43.56,42.19-65.05A90.83,90.83,0,0,1,495.34,314.87Z"/><path class="cls-3" d="M498.93,408.53l1.13-2.2a102.8,102.8,0,0,0,9.1-25.39l.88-4-4.06.71c-21,3.68-37.15,2.89-47,1.57l-10.65-1.42,8.64,6.42c15,11.12,29.08,19.46,39.66,23.49Zm3.88-24.79a95.72,95.72,0,0,1-6.53,17.76c-7.79-3.28-17.37-8.77-27.72-15.9A168.22,168.22,0,0,0,502.81,383.74Z"/><path class="cls-3" d="M476.47,385.81A178.07,178.07,0,0,0,507,383.07l1.83-.31.4-1.84a102.78,102.78,0,0,0,2.21-17.5l.15-3.49-3.43.65a309.6,309.6,0,0,1-42.56,5.2l-1.27.07-.8,1c-1.92,2.47-3.92,4.95-5.93,7.36-.54.67-1.1,1.31-1.66,2l-.11.13c-.56.67-1.11,1.32-1.69,2l-1.94,2.26,2.46,1.86c.79.59,1.57,1.17,2.34,1.76l.56.41.71.09A139.17,139.17,0,0,0,476.47,385.81Zm27.66-7.9c-19.06,3.13-34,2.59-43.63,1.44l1.33-1.59q2.67-3.19,5.24-6.5a311.65,311.65,0,0,0,38.58-4.58A96.19,96.19,0,0,1,504.13,377.91ZM458,378l.12.11s0-.05-.06-.05Z"/><path class="cls-3" d="M459.77,371.6l6-.28A309.91,309.91,0,0,0,509.12,366l2.17-.42.08-2.22c.06-1.46.08-2.9.08-4.3a106.47,106.47,0,0,0-.85-13.38l-.44-3.34L507,343.44a141,141,0,0,1-30,6.27l-1.29.13-.73,1.08c-.42.63-.84,1.24-1.28,1.86l-.29.44c-.33.48-.67,1-1,1.47l-.19.25c-.4.56-.71,1-1.07,1.5-.18.27-.37.52-.54.78l-2.4,3.3c-.16.21-.29.4-.44.58-.35.5-.69.94-1,1.38l-1.36,1.8-.83,1.11ZM505.92,361a314.44,314.44,0,0,1-34.38,4.43l.75-1,.46-.63,2.42-3.34c.17-.26.38-.53.57-.8.33-.46.66-1,1-1.44l.27-.38c.32-.44.67-.94,1-1.44l.17-.23a1.24,1.24,0,0,0,.17-.27c.17-.25.35-.5.52-.77a146.27,146.27,0,0,0,26.59-5.36c.3,3.1.44,6.23.44,9.35C505.94,359.74,505.92,360.37,505.92,361Z"/><path class="cls-3" d="M471.69,355.88l5.91-.61a146,146,0,0,0,31.14-6.52l2.17-.73-.29-2.26a103.3,103.3,0,0,0-3.49-16.36l-.94-3.12-2.92,1.42a107.74,107.74,0,0,1-16.74,6.21l-1.07.31-.56,1c-.39.69-.81,1.4-1.23,2.09s-.71,1.21-1.09,1.79q-1.27,2.13-2.58,4.23L479,345c-.83,1.31-1.71,2.65-2.59,4-.43.67-.87,1.32-1.31,2Zm33.11-11.69A138.47,138.47,0,0,1,482.94,349l.69-1.06,1.06-1.67q1.38-2.18,2.65-4.33c.38-.61.74-1.23,1.11-1.86.23-.4.46-.8.69-1.17a127.61,127.61,0,0,0,13.53-4.85A95.13,95.13,0,0,1,504.8,344.19Z"/><path class="cls-3" d="M481.44,341.2l6.66-2a117.79,117.79,0,0,0,17.59-6.54l2.13-1-.69-2.25a102.49,102.49,0,0,0-6.24-15.85l-2.63-5.33-2.38,5.46c-1.12,2.57-2.36,5.22-3.67,7.88l-.54,1.09-.13.25c-.23.44-.46.9-.67,1.33-1.81,3.56-3.8,7.24-5.95,11Zm19.66-12.49c-2.36,1-5,2.09-7.93,3.09.92-1.69,1.79-3.39,2.63-5l.69-1.38.12-.25c.19-.37.38-.75.57-1.15.41-.83.81-1.67,1.21-2.51C499.39,323.86,500.29,326.26,501.1,328.71Z"/><path class="cls-3" d="M443,373.23l1.79-2c20-22.72,36.3-48.2,46-71.73l.61-1.49-1-1.27a103.67,103.67,0,0,0-12.81-13.94l-3-2.7-1.46,3.74c-8.41,21.53-25.4,47.53-46.61,71.34l-1.82,2,2,1.86c4.63,4.27,9.39,8.47,14.15,12.44Zm42-74.41c-9.25,21.86-24.3,45.37-42.65,66.65-3.32-2.82-6.62-5.73-9.87-8.67,19.58-22.35,35.46-46.49,44.27-67.18A102.44,102.44,0,0,1,485.05,298.82Z"/><path class="cls-3" d="M428.83,361l1.88-2.11c21.63-24.29,39-50.9,47.64-73l.69-1.78-1.42-1.29a104.16,104.16,0,0,0-13.68-10.45l-2.79-1.78-1.28,3.07c-7.3,17.7-25.61,43.56-47.78,67.47l-1.8,1.94,1.86,1.91c4.72,4.82,9.63,9.57,14.59,14.13Zm43.63-75.35c-8.37,20.52-24.26,44.85-44,67.43-3.52-3.31-7-6.69-10.45-10.14,20.54-22.47,37.66-46.51,45.69-64.08A94.81,94.81,0,0,1,472.46,285.61Z"/><path class="cls-3" d="M414.22,347l2-2.13C438.79,320.49,457.49,294,465,275.74l.9-2.15-2-1.25a103.39,103.39,0,0,0-13.54-7.3l-2.49-1.11-1.15,2.45c-1.19,2.53-2.63,5.31-4.27,8.23-2.18,3.87-4.7,8-7.5,12.21-2.55,3.85-5.34,7.84-8.33,11.87-3.34,4.54-7,9.2-10.81,13.84-4.61,5.62-9.56,11.29-14.7,16.84l-1.71,1.86,1.69,1.89c3.53,3.9,7.24,7.88,11.06,11.76ZM459,275.76c-7.6,17.06-24.47,40.82-44.87,63.17-2.44-2.53-4.84-5.08-7.16-7.63,4.6-5,9-10.16,13.2-15.22,3.88-4.72,7.58-9.47,11-14.06,3-4.1,5.88-8.18,8.47-12.11,2.86-4.34,5.47-8.57,7.71-12.56,1.19-2.13,2.27-4.18,3.25-6.12A94.78,94.78,0,0,1,459,275.76Z"/><path class="cls-3" d="M363.05,281.45l2.22-.8c38-13.77,67.69-6,78.7-2.06l2.21.79,1.15-2.05c1.71-3.05,3.21-5.93,4.46-8.59l1.22-2.57L450.42,265a103,103,0,0,0-91.06,3.78L357,270.1l1.23,2.4c1.19,2.32,2.42,4.64,3.68,6.9Zm45.58-14.19a131.87,131.87,0,0,0-43,7.37c-.39-.75-.79-1.48-1.19-2.23A97.49,97.49,0,0,1,445.51,269c-.58,1.17-1.23,2.38-1.9,3.62A113.3,113.3,0,0,0,408.63,267.26Z"/><path class="cls-3" d="M369.69,292.42l2.09-.75c29.1-10.35,54.9-3.93,64.63-.69l2,.67,1.17-1.78c2.86-4.35,5.47-8.57,7.71-12.54l1.6-2.86-3.09-1.11c-11.56-4.18-42.75-12.33-82.45,2.07l-3.07,1.11,1.59,2.84c2,3.68,4.25,7.44,6.61,11.16Zm35.11-11.93A103.72,103.72,0,0,0,372,285.73c-1.27-2-2.48-4.09-3.67-6.14,33.35-11.2,59.93-6,72.43-2q-2.16,3.68-4.67,7.55A108.14,108.14,0,0,0,404.8,280.49Z"/><path class="cls-3" d="M429.81,303.79l1.32-1.77c3-4.1,5.88-8.18,8.47-12.11l2-3-3.45-1.15c-10.29-3.42-37.53-10.2-68.24.74l-3.25,1.17,1.83,2.92c2.4,3.83,5,7.78,7.81,11.71l.83,1.17h1.95l.48-.19c23.65-9.07,41.58-3.26,48.2-.36Zm-24.94-11a75.28,75.28,0,0,0-25.24,4.49c-1.57-2.25-3.07-4.51-4.53-6.73a101.74,101.74,0,0,1,57.8-.65q-2.37,3.48-5,7.05A63.64,63.64,0,0,0,404.87,292.82Z"/><path class="cls-3" d="M419,317.42l1.11-1.34c3.88-4.72,7.58-9.47,11-14.06l2.06-2.81-3.17-1.4c-7.24-3.19-26.82-9.55-52.42.26l-3.34,1.27,2.07,2.93c3.09,4.39,6.41,8.84,9.85,13.21l1.13,1.42,1.76-.46c10.85-2.8,22.39-.84,28.3.6Zm5.45-15.82c-2.4,3.17-4.93,6.39-7.56,9.61-6.41-1.4-17-2.86-27.49-.6-2.21-2.85-4.38-5.73-6.45-8.59C401.84,295.77,416.68,298.84,424.49,301.6Z"/><path class="cls-3" d="M403.15,335.4l2.07-2.24c5.22-5.64,10.23-11.39,14.93-17.1l2.82-3.43-4.3-1c-6.41-1.55-19-3.68-31-.57l-4.14,1.07,2.63,3.34c4.68,5.94,9.71,11.9,14.95,17.71Zm9.75-19.32c-3.11,3.7-6.36,7.4-9.7,11.06-3.4-3.83-6.7-7.71-9.86-11.6A61.93,61.93,0,0,1,412.9,316.08Z"/><path class="cls-3" d="M479.49,433.78l1.24-1.22a106,106,0,0,0,11.44-13.33l2.25-3.14L490.73,415c-10.67-3.29-26.54-12.5-43.55-25.29-4.45-3.35-9-7-13.53-10.75-4.69-3.91-9.41-8.05-14-12.29-5-4.6-9.9-9.34-14.58-14.09-3.75-3.82-7.41-7.71-10.89-11.57-18.81-20.84-33.94-42.5-43.74-62.6l-1.48-3.06-2.69,2.07a103.07,103.07,0,0,0-14.09,13.07L331,291.8l.73,1.63c9.77,22.17,24.4,44.16,43.48,65.35,3.53,3.91,7.25,7.86,11.09,11.71,4.84,4.85,9.91,9.63,15.09,14.23,4.72,4.18,9.62,8.28,14.57,12.19,4.76,3.74,9.58,7.33,14.34,10.66,16.93,11.83,33.86,20.94,47.66,25.68ZM485.38,419a94.41,94.41,0,0,1-7.35,8.4c-13-4.72-28.8-13.33-44.65-24.41-4.67-3.26-9.41-6.77-14.09-10.45-4.86-3.83-9.68-7.86-14.32-12-5.09-4.49-10.08-9.22-14.84-14-3.78-3.78-7.43-7.65-10.9-11.5C361,334.85,347,313.93,337.44,292.84a98.58,98.58,0,0,1,9.48-8.92c10.12,19.89,24.59,40.33,43.06,60.8,3.53,3.91,7.25,7.86,11,11.74,4.74,4.83,9.7,9.64,14.78,14.3,4.67,4.31,9.47,8.51,14.23,12.48,4.6,3.82,9.21,7.5,13.74,10.91C459.75,406.08,474.32,414.8,485.38,419Z"/><path class="cls-3" d="M464.19,445.79l1.19-.79a103.65,103.65,0,0,0,15.33-12.41l3.21-3.16L479.66,428c-13.34-4.58-29.77-13.44-46.28-25-4.67-3.26-9.41-6.77-14.09-10.45-4.86-3.83-9.68-7.86-14.32-12-5.09-4.49-10.08-9.22-14.84-14-3.78-3.78-7.43-7.65-10.9-11.5-18.68-20.75-33-42.26-42.52-63.89L335,287.26l-2.86,3.2a102.17,102.17,0,0,0-11.65,15.82l-.75,1.25.6,1.32a252.38,252.38,0,0,0,40.58,62c3.49,4,7.16,8,11,11.81,4.83,4.91,9.86,9.7,15,14.26,4.7,4.18,9.58,8.25,14.53,12.14,4.76,3.72,9.66,7.34,14.61,10.74,15.8,10.89,32,19.71,46.89,25.5Zm9.4-14.12a104.49,104.49,0,0,1-10.06,7.92c-14.12-5.65-29.44-14.07-44.41-24.37-4.84-3.35-9.66-6.88-14.32-10.54-4.86-3.8-9.66-7.81-14.27-11.91-5-4.47-10-9.18-14.7-14-3.72-3.81-7.33-7.7-10.75-11.58a247.14,247.14,0,0,1-39.1-59.3,96.27,96.27,0,0,1,7.47-10.45c9.73,20.82,23.74,41.45,41.67,61.36,3.53,3.91,7.24,7.86,11.08,11.71,4.85,4.85,9.92,9.64,15.1,14.23,4.72,4.18,9.62,8.28,14.57,12.19,4.76,3.74,9.58,7.33,14.34,10.66C445.43,418.18,460.64,426.63,473.59,431.67Z"/><path class="cls-3" d="M445.66,455.2l1.06-.42A102.35,102.35,0,0,0,465.38,445l4.47-3-5-1.94c-14.48-5.65-30.31-14.26-45.76-24.92-4.84-3.34-9.66-6.87-14.32-10.53-4.86-3.8-9.66-7.82-14.27-11.91-5-4.48-10-9.18-14.7-14-3.72-3.8-7.33-7.69-10.75-11.58a246.77,246.77,0,0,1-39.71-60.63l-2.19-4.83-2.71,4.54a102.36,102.36,0,0,0-9.29,20.17l-.15.44V328l.29.59c1.24,2.47,2.57,5,4,7.54,2.82,5.15,5.91,10.31,9.17,15.32l.45.69c3.24,5,6.75,9.93,10.4,14.76s7.62,9.72,11.73,14.46c3.49,4,7.14,8,10.86,11.83,4.67,4.83,9.6,9.58,14.67,14.15,4.64,4.18,9.46,8.28,14.34,12.15s9.73,7.48,14.7,11l.25.19c.4.29.81.56,1.21.84,5,3.44,10.1,6.73,15.13,9.74l1.38.81a223.67,223.67,0,0,0,25,12.75Zm12.13-12a95.08,95.08,0,0,1-12.05,6,218.17,218.17,0,0,1-22.54-11.54l-.74-.44c-5.36-3.15-10.81-6.64-16.19-10.34-.4-.27-.8-.55-1.17-.82l-.25-.19c-4.89-3.4-9.73-7-14.43-10.76s-9.54-7.82-14.09-11.93c-5-4.5-9.83-9.16-14.4-13.9-3.66-3.77-7.25-7.67-10.65-11.6-4-4.64-7.91-9.43-11.5-14.17-3.45-4.56-6.74-9.22-9.79-13.86l-.4-.61c-3.36-5.12-6.51-10.39-9.39-15.65-1.17-2.13-2.3-4.25-3.34-6.34a99.19,99.19,0,0,1,5.8-13.35A254.41,254.41,0,0,0,361,370.76c3.48,4,7.16,7.94,11,11.81,4.82,4.91,9.85,9.7,15,14.25,4.7,4.18,9.58,8.26,14.53,12.15,4.76,3.72,9.67,7.33,14.61,10.74A236.51,236.51,0,0,0,457.79,443.2Z"/><path class="cls-3" d="M365.6,452.63l1.17-.52,1.82-.84,1.17-.54,1.16-.57c.67-.31,1.34-.62,2-1l.08,0,2.05-1,1.65-.84.66-.33,1.15-.59h.13l.58-.38,1.3-.69h.58l.5-.58,1.17-.63,3-1.69c.41-.25.85-.48,1.27-.73.25-.15.54-.32.84-.48.66-.38,1.35-.8,2-1.22l.21-.12.08-.06h0l.1-.07,1.44-.87,2.9-1.8.09,0,1-.63.69-.44.85-.54h2v-1.28c.15-.08.28-.19.42-.27l.21-.15.81-.54.17-.1c.36-.23.69-.46,1.05-.71l.18-.13c.29-.19.59-.4.88-.58.58-.4,1.19-.82,1.77-1.24l3.28-2.28-3.28-2.27c-4.88-3.41-9.72-7-14.42-10.77l-1.59-1.27L387.08,415a227.18,227.18,0,0,1-39.72,21.54l-4.47,1.86,3.86,2.93A102.4,102.4,0,0,0,364.41,452Zm4.86-8.38c-.62.31-1.27.6-1.89.92-.4.19-.78.35-1.15.54l-1.17.54-.59.28a101.2,101.2,0,0,1-11.6-6.78,232.92,232.92,0,0,0,34.46-19q4.86,3.79,9.83,7.4c-.16.13-.35.23-.52.36l-.23.15-.69.46-.29.18c-.31.21-.63.42-.94.61l-.35.23-.13.08-1.29.84c-.15.08-.27.19-.42.27l-.58.38c-.38.25-.71.46-1.05.65l-.1.06-2.8,1.73-1.82,1.09-2,1.19-.79.46-1.25.73-3,1.65-1,.55-.13.06-.48.25-.46.25c-.31.17-.6.31-.89.48l-.61.32-.06,0,0,0-1.63.85-.65.34-1.61.81c-.62.32-1.27.63-1.91.94Z"/><path class="cls-3" d="M421.17,461.35l2.78-.42a101.35,101.35,0,0,0,22.77-6.15L453,452.3l-6.16-2.66a216,216,0,0,1-24.34-12.44l-4.9-2.88.75,5.64c.69,5.25,1.57,11.65,2.3,17.06Zm17.12-9.43A98.17,98.17,0,0,1,425.91,455c-.44-3.26-.92-6.79-1.38-10.18C429.17,447.4,433.78,449.79,438.29,451.92Z"/><path class="cls-3" d="M408.69,462.06A103.47,103.47,0,0,0,424,460.93l2.36-.36,0-2.78-.21-1.52c-.73-5.35-1.57-11.67-2.28-16.87V438l-1.38-.82c-5.36-3.15-10.81-6.64-16.2-10.34l-4.57-3.16,1.53,38.23,2.59.08C406.75,462.06,407.71,462.06,408.69,462.06Zm11.73-6.25a98.36,98.36,0,0,1-11.88.69l-.88-22c3.6,2.38,7.21,4.64,10.8,6.79Z"/><path class="cls-3" d="M408.77,462.1l-1.38-34.47-1.15-.79-1.16-.82-1.84-1.27-1.59,1.1c-.58.4-1.17.82-1.75,1.2-.29.2-.57.39-.86.56l-.23.17c-.33.23-.64.44-1,.65l-.23.14c-.23.17-.46.32-.69.46a2.43,2.43,0,0,1-.29.19c-.31.21-.63.42-.94.61l-.35.23-.13.08-1.29.84c-.15.08-.27.18-.42.27l-.58.37c-.4.25-.71.46-1,.65l-.12.08-2.8,1.74-2.67,1.63-.19,1.36L383.51,459l2.44.55A103.85,103.85,0,0,0,405.81,462ZM402,432.33l1,24a95.07,95.07,0,0,1-13.38-1.72l1.83-15.52.38-.23,2.9-1.8.06,0c.34-.21.69-.42,1-.65l.67-.42.85-.54h2v-1.28c.15-.08.28-.19.42-.27l.21-.15.81-.54.17-.1c.36-.23.69-.46,1-.72C402,432.38,402,432.35,402,432.33Z"/><path class="cls-3" d="M388.94,460.22l3.32-28-5.12,3-2,1.19-.79.46-1.26.73-3,1.65-1,.55-.13.06-.46.25-.45.25c-.32.17-.61.31-.9.48l-.61.31s0,0-.06,0l0,0-1.63.85-.65.34-1.6.81c-.63.32-1.28.63-1.93.94l-.2.11c-.63.31-1.28.6-1.9.92-.4.19-.78.35-1.15.54l-1.17.54c-.59.28-1.17.55-1.77.8l-5.45,2.47,5.38,2.57A101.27,101.27,0,0,0,386,459.55Zm-3.49-17.6-1.27,10.76a92.93,92.93,0,0,1-11.82-3.91l.59-.27.08,0,2.05-1,1.65-.84.66-.33,1.15-.59h.13l.58-.38,1.3-.69h.58l.5-.58,1.17-.63Z"/><path class="cls-3" d="M334.27,430.18l1.79-.73a217.11,217.11,0,0,0,40-21.91l2.92-2-2.63-2.36c-5-4.5-9.83-9.16-14.4-13.88l-1.65-1.71L358.32,389a230.92,230.92,0,0,1-35.43,21l-2.84,1.34,1.67,2.65A103.23,103.23,0,0,0,333,428.76ZM370,404.93a210.8,210.8,0,0,1-34.21,18.63,100,100,0,0,1-7.66-9.89,236.79,236.79,0,0,0,31.46-18.81C362.93,398.29,366.42,401.65,370,404.93Z"/><path class="cls-3" d="M347.52,441.89H349l.52-.21a233.76,233.76,0,0,0,40.68-22.07l3.15-2.12-3-2.36c-4.8-3.8-9.54-7.81-14.09-11.91l-1.63-1.46L372.89,403A211.1,211.1,0,0,1,334,424.33l-3.67,1.5,2.69,2.93a102.11,102.11,0,0,0,13.82,12.56ZM384,417.08a227.38,227.38,0,0,1-35.11,18.85,100.26,100.26,0,0,1-9.08-8.05,219.65,219.65,0,0,0,34.42-19.1C377.39,411.6,380.67,414.38,384,417.08Z"/><path class="cls-3" d="M323,416.09l2.21-1a237.77,237.77,0,0,0,36.28-21.55l2.63-1.88-2.25-2.32c-3.66-3.76-7.25-7.67-10.65-11.6l-1.65-1.9-2,1.46c-3.57,2.55-7.14,5-10.6,7.23-3.61,2.34-7.24,4.56-10.79,6.61l-1.09.62c-2.44,1.38-4.84,2.7-7.18,3.89-.71.38-1.42.73-2.15,1.09l-2.36,1.17,1.07,2.42a101.64,101.64,0,0,0,7.28,13.76Zm32.64-25.27A226.8,226.8,0,0,1,325.1,409c-1.65-2.76-3.15-5.61-4.53-8.51,2.7-1.4,5.49-2.91,8.29-4.54l1.4-.81c3.19-1.86,6.43-3.87,9.66-5.94,2.88-1.86,5.83-3.84,8.77-5.91C351,385.79,353.31,388.34,355.66,390.82Z"/><path class="cls-3" d="M336.08,391.64l3.84-2.49c3.55-2.3,7.21-4.76,10.84-7.38l2.48-1.77-2-2.3c-4-4.64-7.91-9.43-11.5-14.17l-4.8-6.36-.19,8a193.49,193.49,0,0,0,.92,21.94Zm9-12.62c-1.42,1-2.84,2-4.26,2.92-.19-2.63-.35-5.56-.46-8.61C341.89,375.23,343.45,377.13,345.06,379Z"/><path class="cls-3" d="M315.58,403l2.61-1.32c.73-.38,1.46-.73,2.22-1.13l2.23-1.15-.92-2.34c-2.73-6.92-8.33-26.77-1.27-61.74l.21-1-.48-.9c-1.36-2.47-2.65-5-3.86-7.36l-3-6-2.13,6.34a103.49,103.49,0,0,0,3.24,73.86Zm-.77-67.74a176.7,176.7,0,0,0-3.32,27.69q-.06-1.87-.06-3.78a97.91,97.91,0,0,1,3.09-24.46C314.6,334.85,314.71,335,314.81,335.21Z"/><path class="cls-3" d="M491,420.86l1.17-1.61a105.48,105.48,0,0,0,7.93-12.92l1.42-2.76-2.9-1.1c-10.13-3.87-23.74-12-38.33-22.79-.77-.56-1.52-1.15-2.3-1.71l-.08-.06c-4.43-3.35-8.94-6.94-13.38-10.66-4.7-3.93-9.4-8.05-14-12.27-4.88-4.49-9.72-9.18-14.38-13.94-3.76-3.83-7.41-7.74-10.9-11.6-5.15-5.73-10.1-11.58-14.71-17.43-3.38-4.29-6.64-8.66-9.67-13l-.67-1c-2.46-3.54-4.82-7.07-7-10.5-2.29-3.63-4.47-7.29-6.45-10.89-1.23-2.21-2.44-4.47-3.59-6.73l-1.29-2.55-2.51,1.38a101.69,101.69,0,0,0-13.15,8.59l-1.8,1.38,1,2.05c10.16,20.88,25.17,42.37,44.61,63.9,3.53,3.91,7.24,7.86,11,11.74,4.74,4.83,9.71,9.64,14.78,14.3,4.68,4.31,9.48,8.51,14.24,12.48,4.59,3.82,9.2,7.5,13.73,10.91,17.77,13.37,33.84,22.65,45.26,26.17Zm2.71-14.4q-2.25,4.05-4.88,7.88c-10.61-3.72-25.62-12.6-41.65-24.66-4.45-3.35-9-7-13.53-10.75-4.69-3.91-9.41-8-14-12.29-5-4.6-9.9-9.34-14.58-14.09-3.75-3.82-7.41-7.71-10.89-11.57-18.19-20.13-32.9-41-42.71-60.55a96,96,0,0,1,8.14-5.36c.77,1.47,1.54,2.91,2.34,4.33,2,3.68,4.26,7.42,6.61,11.14s5,7.76,7.81,11.71l.84,1.17c2.86,4,5.88,8,9,12,4.68,5.94,9.71,11.9,14.95,17.71,3.53,3.91,7.24,7.88,11.06,11.77,4.72,4.82,9.63,9.57,14.6,14.12,4.63,4.27,9.39,8.47,14.15,12.44,4.53,3.78,9.1,7.44,13.61,10.85l.08.06c.8.59,1.57,1.17,2.34,1.76C470.6,394.27,483.5,402.09,493.69,406.46Z"/><path class="cls-3" d="M325.35,397.93l3.53-2c3.66-2.09,7.37-4.36,11.07-6.75l1.41-.92-.14-1.67a190.61,190.61,0,0,1-.88-21.3l0-1-.58-.77c-3.59-4.75-7-9.6-10.19-14.44l-4-6.21-1,7.35a157.41,157.41,0,0,0,.27,43.69Zm10.17-12.54c-1.94,1.23-3.88,2.45-5.8,3.6a152.89,152.89,0,0,1-.52-30.58q2.69,3.88,5.57,7.69A182.31,182.31,0,0,0,335.52,385.39Z"/><path class="cls-3" d="M317.67,401.94l2.72-1.4c2.75-1.42,5.59-3,8.47-4.62l1.4-.79,0-2A150.63,150.63,0,0,1,330,351l0-.38v-.84l-.46-.69c-3.36-5.12-6.51-10.38-9.39-15.65l-3.66-6.65-1.5,7.44c-7.1,35.12-2.07,55.73,1.55,64.88ZM324.5,392c-1.3.73-2.57,1.42-3.82,2.09-2.59-8.07-5.87-24.79-1.59-51.36,1.69,2.86,3.45,5.71,5.26,8.51A157.73,157.73,0,0,0,324.5,392Z"/><path class="cls-3" d="M408.69,462.62A104.76,104.76,0,0,0,424,461.49l2.84-.46a100.57,100.57,0,0,0,20.06-5.73,101.74,101.74,0,0,0,18.77-9.84,104.18,104.18,0,0,0,34.88-38.9A102.78,102.78,0,0,0,509.74,381,104.51,104.51,0,0,0,512,363.44c.06-1.46.08-2.92.08-4.32a105.07,105.07,0,0,0-4.38-29.91,99.9,99.9,0,0,0-6.29-15.93,101.57,101.57,0,0,0-10.52-16.93,102.88,102.88,0,0,0-12.88-14,106.73,106.73,0,0,0-13.73-10.52,104,104,0,0,0-13.63-7.33,102.37,102.37,0,0,0-41.94-8.89,103.46,103.46,0,0,0-98,70.61l-.17.52a103.94,103.94,0,0,0,3.44,73.74,106.16,106.16,0,0,0,7.33,13.82,102.15,102.15,0,0,0,11.34,14.81,103.72,103.72,0,0,0,13.88,12.63l.9.67a102.92,102.92,0,0,0,16.84,10.13A101.17,101.17,0,0,0,385.85,460a103,103,0,0,0,20,2.51C406.73,462.6,407.71,462.62,408.69,462.62ZM422.26,455a94.37,94.37,0,0,1-16.27.9,95.91,95.91,0,0,1-55.5-19.48l-.67-.5a97.77,97.77,0,0,1-12.34-11.31,95.58,95.58,0,0,1-10.6-13.86A94,94,0,0,1,320,397.83a97.28,97.28,0,0,1-3-69.48l.15-.42A97.1,97.1,0,0,1,350,282.2a98.47,98.47,0,0,1,12.35-8.07,96.81,96.81,0,0,1,85.63-3.55,95.6,95.6,0,0,1,12.76,6.86,98.46,98.46,0,0,1,12.86,9.82,97.77,97.77,0,0,1,21.87,29,95.45,95.45,0,0,1,5.87,14.88,97.24,97.24,0,0,1,4.09,28c0,1.31,0,2.67-.08,4.05a96.52,96.52,0,0,1-2.09,16.45,96.21,96.21,0,0,1-16,36,101.21,101.21,0,0,1-10.75,12.57,96.37,96.37,0,0,1-53.4,26.66Z"/><g class="cls-15"><path class="cls-8" d="M353.72,303.27c5.81,9.13,19.14,29.37,32.9,45a1.08,1.08,0,0,1-1.52,1.53c-12.53-11-28.73-28.07-33.34-45.71A1.08,1.08,0,0,1,353.72,303.27Z"/></g><g class="cls-15"><path class="cls-8" d="M339.13,319c5.8,9.13,19.14,29.37,32.9,45a1.08,1.08,0,0,1-1.52,1.53c-12.53-11-28.73-28.07-33.34-45.71A1.08,1.08,0,0,1,339.13,319Z"/></g><g class="cls-15"><path class="cls-8" d="M475.88,303.17c-5.24,9.51-15.65,28-23.77,39.44a.77.77,0,0,0,1.15,1c6.51-6.21,17.36-19,24-39.84A.76.76,0,0,0,475.88,303.17Z"/></g><g class="cls-15"><path class="cls-8" d="M462.27,290c-5.47,9.38-16.34,27.61-24.75,38.83a.76.76,0,0,0,1.12,1c6.66-6,17.85-18.56,25-39.23A.76.76,0,0,0,462.27,290Z"/></g><g class="cls-15"><path class="cls-8" d="M327.94,333.74a137.91,137.91,0,0,0,10.84,18.17,1.09,1.09,0,0,1-1.67,1.38c-4.53-4.71-9.48-11.27-11.21-18.84A1.09,1.09,0,0,1,327.94,333.74Z"/></g><g class="cls-15"><path class="cls-8" d="M352.85,369.07a124.42,124.42,0,0,0,10,11,1.08,1.08,0,0,1-1.4,1.65c-4.09-3.09-8.19-7-10.42-11.49A1.08,1.08,0,0,1,352.85,369.07Z"/></g><path class="cls-4" d="M251.71,386.83c-85.42-12.79-125.44-59-125.44-59l55.65-42s11.76,28.88,81.62,39.38l-1.81,3.86Z"/><g class="cls-5"><path class="cls-6" d="M257.59,369.69c-16.47-3.15-64-14.46-102.95-45.62,0,0-9.1,6.27-24.38,4.53l1.58,5.39s45.09,42.2,122.81,52.82c0,0,5.83-1,8-9.07A6.51,6.51,0,0,0,257.59,369.69Z"/></g><g class="cls-10"><path class="cls-8" d="M261.39,326.6S209,328.77,179.6,296.77l3.6-9.82S203.46,315.56,261.39,326.6Z"/></g><path class="cls-6" d="M268.78,323.44c-3.9-1.05-7.83-2-11.75-2.82-3.88-1-7.77-2-11.67-2.91L239.6,316c-1.9-.59-3.86-1-5.72-1.76-3.76-1.31-7.56-2.57-11.17-4.15s-7.22-3.24-10.81-4.92l-5.18-2.84c-1.71-1-3.32-2.07-5-3.09s-3.17-2.26-4.78-3.37c-.77-.58-1.52-1.21-2.27-1.82s-1.53-1.19-2.22-1.86l-2.12-1.94-2-2c-.6-.71-1.25-1.4-1.84-2.11l-.83-1.06-.36-.53-.18-.25-.11-.16-.12-.21a3.57,3.57,0,0,0-4.93-1l-.19.13-55.65,42a3.48,3.48,0,0,0-.81,4.85l.18.25.07.08c1.1,1.28,2.08,2.34,3.17,3.45s2.13,2.15,3.24,3.2,2.21,2.05,3.33,3.05,2.24,2,3.43,2.95c2.32,1.9,4.63,3.82,7.05,5.6l3.62,2.69,3.71,2.53,3.72,2.51,3.82,2.36,3.84,2.34c1.27.78,2.61,1.45,3.92,2.18l3.95,2.15,2,1.07,2,1,8.09,3.89c2.74,1.21,5.52,2.32,8.27,3.47,1.38.56,2.76,1.17,4.15,1.71l4.22,1.51c2.82,1,5.64,2,8.46,2.94l8.6,2.51,4.3,1.25c1.44.38,2.9.69,4.36,1l4.36.94,4.39.86c.73.12,1.46.31,2.19.39L238,388c1.48.19,3,.34,4.45.46,3,.3,5.93.51,8.91.59a2.24,2.24,0,0,0,.8-4.35l-.13,0c-2.8-1-5.62-1.76-8.41-2.51s-5.66-1.34-8.44-2.19L231,378.81l-4.2-1.09-4.19-1.07-4.16-1.27-8.28-2.53c-2.74-.94-5.43-2-8.15-3l-4.07-1.46c-1.33-.52-2.67-1.11-4-1.65-2.66-1.13-5.33-2.22-8-3.39a238.3,238.3,0,0,1-30.29-16.57l-3.61-2.36-3.5-2.49c-2.38-1.61-4.64-3.39-6.91-5.14-1.15-.86-2.24-1.8-3.34-2.7s-2.22-1.82-3.26-2.78-2.15-1.88-3.17-2.86-2.09-2-2.95-2.89l-.54,5.19,55.65-42-5.24-1.09a30.84,30.84,0,0,0,2,2.95c.69.87,1.4,1.69,2.13,2.53l2.25,2.34c.77.75,1.57,1.46,2.36,2.19s1.61,1.4,2.42,2.07,1.65,1.36,2.49,2c1.73,1.21,3.42,2.5,5.19,3.63s3.55,2.26,5.39,3.28l5.53,3,5.66,2.66c1.88.92,3.84,1.59,5.76,2.38,3.84,1.61,7.81,2.82,11.73,4.12,2,.69,4,1.15,6,1.71l6,1.61c4,.88,8.06,1.72,12.11,2.43s8.16,1,12.25,1.35a2.27,2.27,0,0,0,.8-4.45Z"/><path class="cls-8" d="M173.55,307.24s17.95-22.78,4.18-43.7c-9.84-14.93-28-8.47-28-8.47s-10.92-48.09-33-44.75c-13.26,2-12.51,21.53-1,48.56,0,0-31-37.29-43.51-17s30.25,38.29,30.25,38.29-16.24,53.32,40.89,48.1"/><g class="cls-5"><path class="cls-6" d="M108.36,318.3c6.64,8.75,17.45,14.75,35,9.95,0,0,10.92-2.85,19-8.53a41.72,41.72,0,0,0,11.25-12.48s18.56-23.22,4.18-43.7a28,28,0,0,0-8.73-7.7c-14.21-2.23-18.28,33.15-41.19,30.83.84,10.16,13.09,11.92,13.09,11.92C137.44,316,121.61,319.05,108.36,318.3Z"/></g><path class="cls-6" d="M175,308.35a38.83,38.83,0,0,0,3.19-4.08c1-1.4,1.88-2.84,2.72-4.35a46,46,0,0,0,4-9.57,35.15,35.15,0,0,0-.29-21.23,32.36,32.36,0,0,0-2.17-5c-.42-.81-.9-1.57-1.36-2.36s-1-1.57-1.6-2.3a23.93,23.93,0,0,0-9-7.17,26.38,26.38,0,0,0-11-2.36,33,33,0,0,0-5.47.44,26.29,26.29,0,0,0-2.67.54c-.44.13-.88.23-1.34.38s-.85.27-1.42.48l4.66,2.57a131.89,131.89,0,0,0-4.26-14.13A107.68,107.68,0,0,0,143,226.6,55,55,0,0,0,134.31,214a27.19,27.19,0,0,0-6.48-5,18.7,18.7,0,0,0-8.41-2.37,18.07,18.07,0,0,0-4.44.42,14.71,14.71,0,0,0-4.41,1.78,13,13,0,0,0-3.59,3.28,15.23,15.23,0,0,0-2.19,4,25.66,25.66,0,0,0-1.44,8.18,50.31,50.31,0,0,0,.48,7.73,92.86,92.86,0,0,0,3.42,14.53c1.48,4.68,3.24,9.26,5.14,13.73l6-3.68a119.76,119.76,0,0,0-9.75-10.12,81,81,0,0,0-11.15-8.77,45.88,45.88,0,0,0-6.51-3.5,23.93,23.93,0,0,0-7.7-1.92,14.66,14.66,0,0,0-8.56,2,17,17,0,0,0-5.85,6.14,17.83,17.83,0,0,0-2.5,8,18,18,0,0,0,1.5,8.21A28.12,28.12,0,0,0,72,263.31a46.09,46.09,0,0,0,5.12,5.31A78.47,78.47,0,0,0,88.57,277,112.36,112.36,0,0,0,101,283.48l-2-4.33c-.32,1-.52,1.73-.75,2.61s-.42,1.69-.59,2.55c-.33,1.69-.62,3.41-.83,5.14A53.41,53.41,0,0,0,96.54,300a40.78,40.78,0,0,0,2.11,10.59,30.88,30.88,0,0,0,5.45,9.72,28.93,28.93,0,0,0,4,4,31.28,31.28,0,0,0,4.68,3,32.81,32.81,0,0,0,5,2.18,37.28,37.28,0,0,0,5.17,1.38,48.16,48.16,0,0,0,20.46-.75,1.82,1.82,0,0,0,1.32-2.18,1.78,1.78,0,0,0-1.61-1.36h0c-6.47-.46-12.78-.92-18.62-2.46a33.26,33.26,0,0,1-8.16-3.24,22.55,22.55,0,0,1-6.37-5.42c-3.49-4.32-5.24-10.05-5.7-16a57.77,57.77,0,0,1,.06-9.11c.13-1.53.34-3.07.59-4.58l.39-2.28c.15-.73.32-1.54.46-2.15l.09-.29a3.43,3.43,0,0,0-2.09-4,106.5,106.5,0,0,1-11.57-6.07,74,74,0,0,1-10.46-7.56c-3.13-2.8-5.9-6-7.34-9.37a10.27,10.27,0,0,1,.58-9.84,10.09,10.09,0,0,1,3.36-3.64,7.58,7.58,0,0,1,4.47-1c3.44.21,7.31,2,10.83,4.31a75.54,75.54,0,0,1,10.15,8,115.41,115.41,0,0,1,9.1,9.43l0,0a3.55,3.55,0,0,0,6-3.7c-1.84-4.31-3.51-8.67-4.9-13.1a82.81,82.81,0,0,1-3.18-13.34,38.6,38.6,0,0,1-.41-6.56,18.33,18.33,0,0,1,1-5.88,6.67,6.67,0,0,1,5.07-4.64,11.8,11.8,0,0,1,2.67-.25c3.57.07,7.06,2.18,10,5.25A47.93,47.93,0,0,1,136.71,230a98.31,98.31,0,0,1,5.49,12.69,127.87,127.87,0,0,1,4,13.29,3.36,3.36,0,0,0,3.86,2.76l.23,0,.56-.15.92-.23c.33-.08.69-.15,1-.21.71-.12,1.42-.25,2.13-.33a26.84,26.84,0,0,1,4.28-.17,20.72,20.72,0,0,1,8,1.76,17,17,0,0,1,6.27,4.87c.43.52.83,1.08,1.23,1.67s.79,1.21,1.15,1.84a24.42,24.42,0,0,1,1.83,3.91A31.39,31.39,0,0,1,178.81,289a49.6,49.6,0,0,1-2.61,8.84c-.58,1.45-1.19,2.89-1.88,4.31s-1.46,2.82-2.21,4.1l-.06.08a1.79,1.79,0,0,0,.63,2.45A2,2,0,0,0,175,308.35Z"/><path class="cls-6" d="M148.31,251.79a51.64,51.64,0,0,0-9.62,5,39.9,39.9,0,0,0-8.35,7.31,34.22,34.22,0,0,0-5.93,9.72,25.94,25.94,0,0,0-1.84,11.62,19.15,19.15,0,0,0,1.51,6.11,13.49,13.49,0,0,0,4.19,5.43,11.45,11.45,0,0,0,6.91,2.32,20,20,0,0,0,6.06-.94,19.16,19.16,0,0,0,9.62-7.11,23,23,0,0,0,2.76-5,25.94,25.94,0,0,0,.89-2.66,17.49,17.49,0,0,0,.61-2.82,2.23,2.23,0,0,0-4.26-1.19l-.08.21c-.25.58-.61,1.36-.94,2s-.73,1.35-1.13,2a22.81,22.81,0,0,1-2.67,3.56,16,16,0,0,1-3.2,2.67,13.91,13.91,0,0,1-3.63,1.57,15.88,15.88,0,0,1-4,.44,4.16,4.16,0,0,1-2.53-.92c-1.48-1.15-2.53-3.64-2.69-6.31a19.06,19.06,0,0,1,1.4-8.26,26.72,26.72,0,0,1,4.59-7.55,37.13,37.13,0,0,1,6.8-6.1,52.58,52.58,0,0,1,8.21-4.6l0,0a3.56,3.56,0,0,0,1.77-4.72A3.5,3.5,0,0,0,148.31,251.79Z"/><path class="cls-8" d="M526.63,352.51c.1,17.66-6.76,26.55-17.91,27.82-7.85.9-14.78-4.91-19.39-16.41-4.95-12.31-9.59-35.61-5-47.67,3.34-8.84,12.33-15.74,24.44-9.51C524.31,314.79,526.57,343.63,526.63,352.51Z"/><path class="cls-6" d="M507.15,384c.65,0,1.32,0,2-.1,7.93-.92,21.23-6.21,21.06-31.4,0-4-.79-39.08-19.83-48.89-7.54-3.88-13.53-3-17.22-1.58A21.81,21.81,0,0,0,481,315c-5,13.25.06,37.83,5.07,50.26C490.85,377.28,498.47,384,507.15,384Zm15.91-31.46c.11,15-4.86,23.14-14.76,24.27-8.28.94-13.4-8.49-15.69-14.19-4.76-11.85-9.17-34.09-5-45.09,1.6-4.28,4.54-7.5,8.07-8.86s7.25-.88,11.42,1.28C519.55,316.35,523,340.6,523.06,352.53Z"/><path class="cls-6" d="M364,200.38c-3.72-17.15,3.49-33.27,16.12-36s25.89,8.92,29.61,26.06-3.48,33.28-16.11,36S367.76,217.52,364,200.38Z"/><path class="cls-8" d="M370.11,193c-1.48-6.81.77-13.09,5-14s8.89,3.84,10.37,10.66-.76,13.08-5,14S371.6,199.77,370.11,193Z"/><g class="cls-16"><path class="cls-8" d="M397.11,214.05c-2.12-.47-3.06-4.38-2.09-8.73s3.46-7.5,5.57-7,3.05,4.38,2.09,8.73S399.22,214.51,397.11,214.05Z"/></g><path class="cls-6" d="M229.55,213.63c-.12-17.54,10.25-31.84,23.17-31.94s23.51,14.06,23.63,31.6-10.24,31.85-23.17,31.94S229.68,231.18,229.55,213.63Z"/><path class="cls-8" d="M253.06,207.49c-.05-7,3.44-12.65,7.78-12.68s7.91,5.59,8,12.56S265.37,220,261,220.05,253.11,214.46,253.06,207.49Z"/><g class="cls-16"><path class="cls-8" d="M240.17,228.28c-1.89-4-1.83-8.05.13-9s5.08,1.6,7,5.63,1.83,8.05-.13,9S242.07,232.32,240.17,228.28Z"/></g><path class="cls-6" d="M90.22,166.81l8.6.65a7.3,7.3,0,0,1,6.72,6.73l.65,8.61.64-8.61a7.32,7.32,0,0,1,6.73-6.73l8.6-.65-8.6-.64a7.33,7.33,0,0,1-6.73-6.73l-.64-8.62-.65,8.62a7.31,7.31,0,0,1-6.72,6.73Z"/><path class="cls-6" d="M34.48,203.89l6.16.46a5.24,5.24,0,0,1,4.82,4.83l.46,6.17.46-6.17a5.24,5.24,0,0,1,4.82-4.83l6.16-.46-6.16-.46a5.23,5.23,0,0,1-4.82-4.82l-.46-6.17-.46,6.17a5.23,5.23,0,0,1-4.82,4.82Z"/><path class="cls-6" d="M29.45,129.84l13.32,1a11.31,11.31,0,0,1,10.42,10.43l1,13.34,1-13.34a11.3,11.3,0,0,1,10.42-10.43l13.31-1-13.31-1a11.3,11.3,0,0,1-10.42-10.43l-1-13.34-1,13.34a11.31,11.31,0,0,1-10.42,10.43Z"/></svg>