<svg width="689" height="612" viewBox="0 0 689 612" fill="none" xmlns="http://www.w3.org/2000/svg">
<ellipse cx="376" cy="306.5" rx="313" ry="299.5" fill="#B0A2D7"/>
<path d="M494.83 289.541C494.83 289.541 565.248 374.895 554.506 424.775C543.396 476.269 492.294 442.017 492.294 442.017L459.586 284.193L494.83 289.541Z" fill="white"/>
<path d="M525.21 453.772C509.029 453.772 492.802 443.054 491.972 442.501L491.787 442.363L458.872 283.502L495.153 289.011L495.291 289.172C496.006 290.025 565.778 375.31 555.083 424.891C552.063 438.928 545.771 447.964 536.412 451.744C532.817 453.173 529.013 453.772 525.21 453.772ZM492.802 441.671C495.153 443.192 518.502 457.737 535.974 450.684C544.964 447.042 551.003 438.306 553.953 424.66C564.303 376.67 498.034 294.359 494.53 290.071L460.301 284.862L492.802 441.671Z" fill="#390075"/>
<g opacity="0.3">
<path d="M554.506 424.775C543.396 476.269 492.294 442.017 492.294 442.017L495.084 420.212C495.084 420.212 541.552 451.375 555.498 409.585C555.82 414.91 555.544 420.004 554.506 424.775Z" fill="#390075"/>
</g>
<path d="M525.302 457.046C508.014 457.046 491.027 445.82 490.151 445.221L488.837 444.345L454.677 279.538L496.858 285.946L497.803 287.075C500.731 290.625 569.281 374.457 558.263 425.559C554.99 440.726 548.052 450.546 537.611 454.764C533.646 456.377 529.474 457.046 525.302 457.046ZM495.729 439.62C500.869 442.732 520.323 453.45 534.752 447.618C542.659 444.414 548.029 436.462 550.726 423.946C560.315 379.482 500.938 303.325 492.778 293.114L464.473 288.804L495.729 439.62Z" fill="#390075"/>
<path d="M379.764 401.334C326.565 393.958 278.459 467.441 267.557 485.397C266.036 487.887 263.5 489.569 260.596 489.961C241.372 492.474 227.749 492.128 217.607 490.007C217.607 490.007 217.607 490.007 217.584 490.007C193.797 485.052 188.887 470.438 174.665 460.158C165.053 453.196 153.551 452.666 141.911 452.874C141.911 452.874 141.911 452.874 141.888 452.874C128.45 453.104 114.804 454.28 103.671 447.526C102.035 446.535 100.606 445.475 99.3379 444.345C88.8732 435.125 89.1037 421.894 75.3889 411.706C68.3356 406.474 59.2309 404.884 50.1492 405.229C36.2961 405.713 22.4431 410.623 15.7355 413.758C14.3295 414.403 12.739 413.159 13.0387 411.637L19.9076 376.371L111.877 333.682L352.865 313.352L379.764 401.334Z" fill="#F2101C"/>
<path d="M236.393 492.266C229.409 492.266 223.232 491.713 217.769 490.583L217.677 490.676L217.354 490.491C201.15 487.08 193.497 479.105 186.098 471.383C182.548 467.695 178.906 463.869 174.343 460.595C164.777 453.68 153.183 453.242 142.119 453.404L141.911 453.611L141.681 453.404C140.321 453.427 138.961 453.473 137.578 453.496C125.707 453.796 113.444 454.095 103.372 447.964C101.758 446.996 100.329 445.936 98.946 444.737C94.1516 440.519 91.6161 435.563 88.9423 430.308C85.7614 424.084 82.4653 417.653 75.0432 412.144C68.8197 407.534 60.4295 405.391 50.1261 405.782C37.3103 406.22 23.6878 410.623 15.9199 414.265C15.0671 414.657 14.099 414.541 13.3614 413.965C12.6238 413.389 12.278 412.467 12.4624 411.545L19.3774 376.025L19.631 375.91L111.67 333.175H111.762L353.188 312.799L380.479 402.002L379.649 401.887C357.244 398.775 333.157 409.678 308.148 434.272C288.163 453.911 273.412 476.776 267.995 485.697C266.381 488.348 263.707 490.099 260.642 490.514C251.652 491.69 243.585 492.266 236.393 492.266ZM217.446 489.431L217.723 489.477C228.718 491.782 242.709 491.759 260.527 489.431C263.27 489.062 265.667 487.495 267.096 485.121C272.536 476.177 287.334 453.219 307.41 433.489C332.373 408.94 356.461 397.922 378.981 400.688L352.427 313.928L111.969 334.212L20.3455 376.763L13.5688 411.752C13.4536 412.283 13.661 412.767 14.0759 413.112C14.4908 413.435 15.021 413.504 15.505 413.297C23.3651 409.632 37.149 405.183 50.1261 404.722C60.683 404.33 69.3037 406.543 75.7116 411.314C83.3412 416.985 86.7065 423.531 89.9335 429.87C92.5612 435.033 95.0506 439.896 99.7067 443.976C101.021 445.129 102.427 446.143 103.971 447.088C113.79 453.035 125.891 452.735 137.601 452.459C139.03 452.413 140.482 452.39 141.911 452.367H142.142C153.39 452.182 165.192 452.643 175.034 459.766C179.667 463.108 183.355 466.957 186.928 470.691C194.511 478.597 201.703 486.089 217.446 489.431Z" fill="#390075"/>
<g opacity="0.2">
<path d="M379.764 401.334C326.565 393.958 278.459 467.441 267.557 485.397C266.036 487.887 263.5 489.569 260.596 489.961C241.372 492.474 227.749 492.128 217.607 490.007C217.607 490.007 217.607 490.007 217.584 490.007C193.797 485.052 188.887 470.438 174.665 460.158C165.053 453.196 153.551 452.666 141.911 452.874C141.911 452.874 141.911 452.874 141.888 452.874C128.45 453.104 114.804 454.28 103.671 447.526C102.035 446.535 100.606 445.475 99.3379 444.345C88.8732 435.125 89.1037 421.894 75.3889 411.706C68.3356 406.474 59.2309 404.884 50.1492 405.229C36.2961 405.713 22.4431 410.623 15.7355 413.758C14.3295 414.403 12.739 413.159 13.0387 411.637L19.9076 376.371L111.877 333.682L352.865 313.352L379.764 401.334Z" fill="#390075"/>
</g>
<g opacity="0.3">
<path d="M203.663 472.074C203.801 482.032 210.762 487.287 217.585 490.007C193.797 485.051 188.888 470.438 174.666 460.157C165.054 453.196 153.552 452.666 141.912 452.874C161.204 448.978 186.928 441.072 206.452 425.19C241.303 396.839 283.162 396.816 283.323 396.816C226.275 411.337 203.363 452.482 203.663 472.074Z" fill="#390075"/>
</g>
<g opacity="0.3">
<path d="M244.276 352.053C245.314 361.665 177.454 341.773 100.375 424.176C95.4887 429.409 96.3185 436.923 99.3611 444.368C88.8964 435.148 89.1269 421.917 75.4121 411.729C68.3588 406.497 59.2541 404.906 50.1724 405.252C64.0715 398.176 79.2845 390.293 93.322 382.755C160.72 346.521 243.608 345.922 244.276 352.053Z" fill="#390075"/>
</g>
<path d="M236.462 495.585C204.7 495.585 194.073 484.498 183.724 473.711C180.128 469.977 176.74 466.427 172.43 463.315C162.656 456.239 150.532 456.538 137.693 456.861C125.361 457.161 112.592 457.483 101.689 450.868C93.0684 445.636 89.4956 438.652 86.0381 431.875C82.8803 425.721 79.9068 419.912 73.1071 414.841C57.6636 403.385 29.8883 411.43 17.3722 417.284C15.3899 418.206 13.1079 417.953 11.3792 416.593C9.65042 415.233 8.84366 413.066 9.25856 410.922L16.4963 373.72L110.863 329.925L355.631 309.272L385.227 406.013L379.234 405.183C327.902 398.061 279.958 472.443 270.853 487.425C268.709 490.952 265.16 493.28 261.103 493.81C251.675 495.032 243.539 495.585 236.462 495.585ZM145.415 449.001C156.41 449.001 167.359 450.131 176.924 457.046C181.788 460.572 185.591 464.537 189.256 468.363C201.104 480.718 212.306 492.404 260.089 486.158C261.817 485.927 263.339 484.936 264.261 483.415C277.169 462.14 322.139 394.995 374.394 397L350.076 317.455L112.868 337.462L23.3191 379.044L17.5105 408.802C27.7677 404.676 58.4012 394.303 77.671 408.617C85.9459 414.749 89.6339 421.963 92.884 428.325C96.134 434.664 98.9231 440.127 105.677 444.23C114.666 449.67 125.753 449.393 137.486 449.116C140.136 449.07 142.787 449.001 145.415 449.001Z" fill="#390075"/>
<path d="M384.674 299.914C332.904 327.989 158.047 275.389 28.5979 356.271C16.6349 363.74 4.83332 385.499 4.37232 411.66C4.30317 415.786 9.12062 418.091 12.2785 415.441C30.2575 400.366 78.6855 363.371 136.979 348.365C211.062 329.303 370.683 330.179 379.096 313.168C382.577 306.184 384.674 299.914 384.674 299.914Z" fill="#F2101C"/>
<path d="M9.21278 417.123C8.42908 417.123 7.64538 416.939 6.88473 416.593C4.97158 415.671 3.79603 413.781 3.84213 411.66C4.32618 384.738 16.5196 363.209 28.3212 355.833C109.849 304.87 210.969 306.829 284.776 308.258C329.792 309.134 365.335 309.802 384.421 299.453L385.619 298.808L385.181 300.098C385.158 300.168 383.015 306.483 379.58 313.421C374.97 322.733 327.925 326.721 273.458 331.331C225.837 335.365 171.854 339.952 137.117 348.895C78.9851 363.855 30.6954 400.712 12.6242 415.855C11.6561 416.685 10.4344 417.123 9.21278 417.123ZM244.184 308.811C176.648 308.811 96.0421 314.758 28.8744 356.732C17.3264 363.947 5.36343 385.153 4.90243 411.683C4.87938 413.389 5.80138 414.887 7.34573 415.625C8.89008 416.363 10.6419 416.132 11.9327 415.049C30.05 399.859 78.5241 362.887 136.864 347.881C171.692 338.915 225.721 334.328 273.389 330.271C325.274 325.868 374.302 321.696 378.635 312.937C381.125 307.912 382.922 303.21 383.729 301.02C364.137 310.84 329.008 310.171 284.752 309.318C271.983 309.065 258.36 308.811 244.184 308.811Z" fill="#390075"/>
<g opacity="0.45">
<path d="M384.674 297.632C384.674 297.632 382.576 303.901 379.119 310.886C378.911 311.3 378.635 311.692 378.243 312.084C316.769 330.593 154.243 288.112 32.1242 364.431C21.0371 371.369 10.0884 390.569 8.19827 414.196C6.10072 413.735 4.32587 411.891 4.37197 409.401C4.83297 383.216 16.6346 361.48 28.5975 354.012C158.069 273.107 332.904 325.707 384.674 297.632Z" fill="white"/>
</g>
<path d="M9.23563 420.442C7.96788 420.442 6.67708 420.165 5.47848 419.589C2.36673 418.114 0.47663 415.048 0.54578 411.614C1.05288 383.516 14.03 360.881 26.5923 353.021C108.973 301.55 210.647 303.509 284.868 304.938C327.625 305.768 364.551 306.483 382.876 296.548L391.497 291.869L388.385 301.158C388.293 301.435 386.149 307.751 382.623 314.896C377.436 325.384 341.732 328.887 273.804 334.65C226.321 338.684 172.476 343.248 138.016 352.122C80.5523 366.92 32.7236 403.408 14.8137 418.414C13.1541 419.751 11.2179 420.442 9.23563 420.442ZM244.253 312.13C177.109 312.13 97.0792 318.031 30.626 359.544C20.0922 366.136 8.65938 386.651 8.22143 411.729C8.22143 412.236 8.52108 412.49 8.77463 412.605C9.02818 412.72 9.42003 412.813 9.81188 412.49C28.1136 397.139 77.0487 359.821 136.034 344.631C171.139 335.595 225.306 331.008 273.089 326.928C299.919 324.646 325.274 322.503 344.244 319.829C372.043 315.91 375.27 312.153 375.638 311.439C376.399 309.917 377.091 308.419 377.69 307.013C356.668 313.997 324.283 313.352 284.66 312.591C271.96 312.384 258.383 312.13 244.253 312.13Z" fill="#390075"/>
<path d="M526.109 586.471C525.924 588.154 525.509 589.86 524.864 591.565C515.967 614.477 442.46 614.27 434.047 582.899C426.648 555.331 430.336 519.926 432.065 507.11C431.949 507.133 431.834 507.156 431.719 507.179C431.581 507.202 431.442 507.225 431.304 507.248C430.728 507.341 430.151 507.433 429.598 507.525C429.483 507.548 429.391 507.548 429.299 507.571C426.625 507.963 424.043 508.263 421.508 508.447C408.577 509.507 397.651 508.24 389.422 506.465C388.362 519.304 384.582 558.373 375.707 582.922C364.666 613.463 294.502 614.2 284.89 591.588C282.355 585.618 282.862 580.478 285.006 576.145C291.137 563.836 310.476 558.028 310.476 558.028C312.781 530.091 306.742 503.076 304.275 481.64C304.137 480.464 304.022 479.335 303.907 478.205C303.584 475.025 303.307 471.89 303.077 468.801C300.61 437.73 301.555 411.222 304.621 388.725C306.189 377.223 308.286 366.782 310.775 357.308C313.795 345.783 317.368 335.687 321.194 326.905C324.744 318.746 328.501 311.715 332.189 305.699C336.96 297.978 341.616 291.985 345.65 287.444C352.865 279.307 358.051 275.896 358.051 275.896L410.928 266.929L412.864 275.896H484.434C490.381 285.139 495.521 294.566 499.924 304.063C514.607 335.733 521.314 368.349 523.389 398.153C525.002 421.272 523.827 442.708 521.429 460.641C519.562 474.564 516.981 486.365 514.376 495.262C508.36 515.938 499.486 558.074 499.486 558.074C515.413 561.9 527.538 573.563 526.109 586.471Z" fill="white"/>
<g opacity="0.3">
<path d="M461.038 498.536L421.508 508.424C408.577 509.484 397.651 508.217 389.422 506.442C388.362 519.281 384.582 558.35 375.707 582.899C364.666 613.44 294.502 614.177 284.89 591.565C282.355 585.595 282.862 580.455 285.006 576.122C293.695 600.878 355.585 604.427 366.948 574.647C374.163 555.723 375.039 529.791 374.716 513.449C374.578 506.211 370.244 494.179 388.062 497.383C420.678 503.238 447.093 495.977 459.817 494.917C462.537 494.709 460.716 498.582 461.038 498.536Z" fill="#390075"/>
</g>
<g opacity="0.3">
<path d="M526.109 586.471C525.925 588.154 525.51 589.86 524.864 591.565C515.967 614.477 442.46 614.27 434.047 582.899C426.648 555.331 430.336 519.926 432.065 507.11C439.141 505.935 454.377 502.984 461.085 498.536C461.085 498.536 443.221 522.485 443.659 555.423C444.097 588.361 464.773 595.461 477.266 597.535C487.984 599.31 517.189 596.706 526.109 586.471Z" fill="#390075"/>
</g>
<path d="M484.088 611.573C482.406 611.573 480.723 611.527 479.087 611.435C458.803 610.351 435.338 602.537 430.336 583.89C422.822 555.884 426.371 520.502 428.261 506.58C428.538 504.46 430.474 502.984 432.595 503.284C434.715 503.561 436.191 505.52 435.891 507.617C434.07 521.079 430.635 555.239 437.781 581.884C441.723 596.544 462.721 602.814 479.501 603.713C499.901 604.819 517.857 598.988 521.268 590.159C522.997 585.711 522.72 581.216 520.415 576.837C516.819 569.945 508.452 564.182 498.61 561.785L494.968 560.909L495.729 557.244C495.821 556.829 504.695 514.717 510.688 494.133C523.389 450.546 531.456 355.971 481.207 277.924C480.055 276.126 480.562 273.752 482.36 272.6C484.158 271.447 486.532 271.954 487.684 273.752C539.455 354.127 531.157 451.445 518.087 496.3C513.178 513.126 506.286 544.751 504.027 555.308C514.514 558.673 523.043 565.219 527.238 573.264C530.557 579.603 530.972 586.425 528.437 592.948C523.389 606.018 502.828 611.573 484.088 611.573Z" fill="#390075"/>
<path d="M489.022 575.753C491.142 577.574 492.917 579.833 494.346 582.322C495.752 584.812 496.882 587.578 497.412 590.505C497.619 591.243 497.642 591.98 497.758 592.718C497.85 593.455 497.965 594.216 497.942 594.977L497.988 597.259L497.804 599.517L497.688 600.67C497.642 601.039 497.55 601.408 497.481 601.776L497.043 604.035C496.674 605.51 496.19 606.94 495.729 608.415C495.107 610.466 492.94 611.642 490.866 611.019C488.814 610.397 487.639 608.23 488.261 606.156C488.353 605.879 488.445 605.626 488.584 605.372L488.791 605.003C489.39 603.92 490.105 602.86 490.658 601.753L491.442 600.048C491.58 599.771 491.718 599.471 491.834 599.172L492.133 598.296L492.733 596.498L493.125 594.654C493.286 594.032 493.355 593.409 493.401 592.764C493.447 592.141 493.585 591.496 493.562 590.851C493.701 588.269 493.309 585.641 492.548 583.06C491.811 580.524 490.658 578.012 489.022 575.753Z" fill="#390075"/>
<path d="M506.747 574.578C508.66 576.214 510.389 578.15 511.91 580.225C513.432 582.322 514.745 584.627 515.737 587.163C516.728 589.698 517.235 592.511 517.258 595.415L517.166 597.605C517.073 598.319 516.912 599.057 516.774 599.771C516.705 600.14 516.635 600.509 516.566 600.878L516.221 601.938L515.483 604.059C514.791 606.11 512.556 607.193 510.527 606.479C508.476 605.787 507.392 603.551 508.107 601.523C508.222 601.2 508.361 600.924 508.545 600.647L508.752 600.324L509.605 599.034L510.043 598.388C510.158 598.158 510.251 597.927 510.366 597.697L511.034 596.268L511.495 594.746C512.025 592.672 512.256 590.413 511.979 588.085C511.726 585.78 511.104 583.429 510.205 581.147C509.306 578.888 508.176 576.652 506.747 574.578Z" fill="#390075"/>
<g opacity="0.3">
<path d="M430.544 534.955C430.221 540.325 430.059 546.088 430.152 551.942C430.036 546.088 430.221 540.348 430.544 534.955Z" fill="#6B184E"/>
<path d="M429.599 551.966C429.483 546.618 429.622 540.879 429.991 534.932L431.12 535.001C430.774 540.786 430.636 546.503 430.728 551.943L429.599 551.966Z" fill="#390075"/>
</g>
<g opacity="0.3">
<path d="M430.589 534.471C430.843 530.253 431.212 526.265 431.627 522.623C431.212 526.265 430.866 530.253 430.589 534.471Z" fill="#6B184E"/>
<path d="M431.143 534.494L430.013 534.424C430.244 530.575 430.589 526.587 431.05 522.577V522.554L432.18 522.669C431.765 526.518 431.419 530.483 431.143 534.494Z" fill="#390075"/>
</g>
<g opacity="0.3">
<path d="M431.765 521.263C431.88 520.249 431.996 519.258 432.111 518.312C431.996 519.281 431.88 520.249 431.765 521.263Z" fill="#6B184E"/>
<path d="M432.318 521.332L431.189 521.194C431.258 520.479 431.35 519.787 431.442 519.119L431.558 518.243L432.687 518.381L432.318 521.332Z" fill="#390075"/>
</g>
<g opacity="0.3">
<path d="M521.453 460.618C519.609 446.028 512.533 461.241 502.344 451.076C493.263 442.017 493.286 413.827 504.142 403.478C511.864 396.102 518.526 395.802 523.412 398.13C525.026 421.249 523.85 442.686 521.453 460.618Z" fill="#390075"/>
</g>
<path d="M533.185 394.672C530.051 387.872 519.678 378.906 506.055 391.906C495.199 402.278 495.176 430.446 504.258 439.527C514.676 449.923 521.822 433.788 523.481 450.084C523.481 450.084 531.987 438.398 534.499 427.518C537.565 414.334 536.251 401.287 533.185 394.672Z" fill="white"/>
<path d="M523.089 451.606L522.928 450.13C522.536 446.281 521.845 444.114 520.715 443.285C519.747 442.57 518.364 442.893 516.612 443.262C513.385 443.976 508.96 444.967 503.866 439.896C499.578 435.632 496.997 426.804 497.112 416.869C497.227 405.967 500.431 396.47 505.664 391.468C511.288 386.098 516.843 383.885 522.214 384.922C527.976 386.028 532.01 390.731 533.716 394.419C536.62 400.711 538.279 413.804 535.075 427.634C532.563 438.49 524.035 450.292 523.965 450.407L523.089 451.606ZM519.217 441.717C520.001 441.717 520.715 441.879 521.384 442.363C522.628 443.262 523.412 445.175 523.896 448.517C526.109 445.244 531.964 436.001 533.969 427.38C537.127 413.804 535.513 401.034 532.678 394.903C531.088 391.445 527.331 387.066 522.006 386.051C517.027 385.106 511.795 387.204 506.47 392.321C501.445 397.115 498.38 406.312 498.265 416.915C498.149 426.55 500.616 435.056 504.696 439.113C509.329 443.723 513.247 442.87 516.382 442.178C517.396 441.925 518.341 441.717 519.217 441.717Z" fill="#390075"/>
<g opacity="0.3">
<path d="M529.728 439.781C526.685 445.682 523.481 450.084 523.481 450.084C521.822 433.765 514.676 449.9 504.258 439.527C495.176 430.469 495.199 402.279 506.055 391.929L506.148 391.837C501.699 404.607 503.336 422.678 510.274 429.57C520.692 439.965 527.838 423.83 529.497 440.127C529.497 440.127 529.59 440.011 529.728 439.781Z" fill="#390075"/>
</g>
<path d="M520.669 460.503L519.655 450.453C519.401 447.918 519.032 446.719 518.825 446.189C518.41 446.258 517.811 446.373 517.327 446.489C513.8 447.272 507.899 448.586 501.561 442.247C496.605 437.315 493.724 427.818 493.839 416.869C493.977 405.091 497.55 394.718 503.428 389.117C511.449 381.465 518.41 380.865 522.859 381.718C529.82 383.055 534.591 388.449 536.712 393.059C539.962 400.066 541.691 413.712 538.279 428.394C535.605 439.896 526.985 451.836 526.616 452.343L520.669 460.503ZM519.24 438.444C520.577 438.444 521.96 438.744 523.297 439.712C523.804 440.081 524.265 440.519 524.657 441.026C526.962 436.992 529.566 431.667 530.742 426.643C533.577 414.403 532.355 402.094 529.682 396.286C528.322 393.335 525.21 390.016 521.384 389.279C517.511 388.541 513.247 390.362 508.729 394.695C504.396 398.821 501.63 407.35 501.537 416.939C501.445 425.582 503.589 433.373 507 436.785C510.366 440.127 512.694 439.62 515.644 438.951C516.75 438.721 517.972 438.444 519.24 438.444Z" fill="#390075"/>
<path d="M324.537 611.181C307.618 611.181 287.057 606.502 281.341 593.087C278.644 586.748 278.644 580.617 281.341 574.877C286.619 563.652 300.957 557.359 306.834 555.192C308.102 535.369 305.267 515.984 302.754 498.812C301.694 491.644 300.703 484.89 300.081 478.574C291.99 396.816 307.388 345.391 321.725 316.625C337.468 285.046 355.17 273.153 355.931 272.669L356.599 272.231L410.26 263.126C412.357 262.757 414.34 264.186 414.708 266.284C415.077 268.381 413.648 270.364 411.55 270.732L359.55 279.561C356.415 281.889 341.548 293.898 328.317 320.682C314.579 348.48 299.873 398.314 307.733 477.837C308.333 483.945 309.324 490.629 310.361 497.706C313.035 516.03 316.077 536.799 314.326 558.35L314.118 560.978L311.606 561.739C311.421 561.785 293.396 567.34 288.325 578.196C286.573 581.907 286.619 585.803 288.44 590.09C292.013 598.48 307.779 603.989 326.842 603.459C345.627 602.952 366.903 595.991 372.089 581.608C380.871 557.359 384.628 517.736 385.573 506.165L385.942 501.786L390.229 502.708C405.673 506.027 430.267 507.387 459.587 495.009C461.546 494.179 463.805 495.101 464.635 497.06C465.464 499.02 464.542 501.278 462.583 502.108C433.978 514.186 409.499 513.933 392.88 511.075C391.336 528.201 387.44 561.831 379.327 584.235C372.458 603.229 346.872 610.628 327.026 611.158C326.219 611.158 325.39 611.181 324.537 611.181Z" fill="#390075"/>
<g opacity="0.3">
<path d="M358.097 473.342C350.606 477.099 345.443 475.347 333.503 478.689C327.372 480.395 324.513 482.193 314.556 482.746C311.652 482.908 308.125 482.539 304.276 481.617C304.137 480.441 304.022 479.312 303.907 478.182C303.584 475.001 303.307 471.867 303.077 468.778C300.611 437.706 301.556 411.199 304.621 388.702C314.694 391.814 322.923 395.294 322.416 398.245C319.696 414.311 328.778 423.531 334.563 423.116C338.09 422.862 344.336 417.376 358.12 422.77C374.348 429.109 370.452 467.141 358.097 473.342Z" fill="#390075"/>
</g>
<path d="M358.097 460.803C350.606 464.56 345.443 462.808 333.503 466.15C327.372 467.856 324.514 469.654 314.556 470.207C311.352 470.391 307.387 469.93 303.077 468.778C283.969 463.707 257.669 445.221 256.401 410.231C255.179 376.578 279.105 343.686 302.639 319.69C324.882 297.009 346.78 282.257 346.78 282.257L345.65 287.397L336.269 330.455L326.773 374.088C326.773 374.088 323.684 378.284 322.416 385.706C319.696 401.772 328.778 410.992 334.563 410.577C338.09 410.323 344.337 404.837 358.121 410.231C374.348 416.57 370.452 454.602 358.097 460.803Z" fill="white"/>
<g opacity="0.3">
<path d="M367.686 444.391C366.003 452.044 362.615 458.544 358.12 460.803C350.629 464.56 345.466 462.808 333.526 466.15C327.395 467.856 324.536 469.654 314.579 470.207C311.375 470.392 307.41 469.931 303.1 468.778C283.991 463.707 257.691 445.221 256.424 410.231C255.824 394.004 261.103 377.938 269.332 362.979C265.137 373.651 262.785 384.738 263.2 395.894C264.468 430.884 290.791 449.37 309.877 454.441C314.187 455.593 318.152 456.054 321.356 455.87C331.313 455.294 334.171 453.519 340.303 451.813C352.243 448.471 357.429 450.223 364.897 446.466C365.865 445.959 366.81 445.267 367.686 444.391Z" fill="#390075"/>
</g>
<path d="M327.81 374.872C326.519 378.791 325.712 382.963 325.597 386.974C325.597 387.988 325.482 388.979 325.574 389.97L325.62 391.445C325.689 391.929 325.735 392.413 325.781 392.898C325.827 393.866 326.081 394.788 326.219 395.733C326.473 396.632 326.634 397.554 327.003 398.406C327.279 399.282 327.694 400.089 328.063 400.896L328.732 402.025C328.962 402.394 329.239 402.717 329.469 403.086C330.483 404.423 331.728 405.529 332.881 406.105C333.411 406.313 333.987 406.543 334.218 406.497C334.31 406.52 334.333 406.497 334.379 406.497C334.379 406.497 334.448 406.497 334.54 406.474L334.771 406.428C335.14 406.336 335.601 406.174 336.108 406.013C338.182 405.275 340.764 404.492 343.345 404.192C348.555 403.547 353.672 404.538 358.19 406.197L359.042 406.497C359.319 406.589 359.596 406.681 359.941 406.866C360.587 407.188 361.278 407.442 361.878 407.834C363.122 408.572 364.252 409.47 365.243 410.462C367.225 412.444 368.654 414.749 369.715 417.1C371.812 421.802 372.527 426.666 372.757 431.437C372.895 436.208 372.481 440.934 371.42 445.59C370.337 450.223 368.769 454.856 365.681 459.166C365.312 459.696 364.828 460.227 364.413 460.734C363.952 461.241 363.422 461.748 362.915 462.232C362.315 462.693 361.785 463.177 361.14 463.569C360.471 463.984 359.78 464.376 359.25 464.606C356.968 465.689 354.432 466.496 352.012 466.911C349.592 467.349 347.333 467.556 345.212 467.833C343.069 468.087 341.017 468.409 338.989 468.847C336.96 469.285 334.932 469.792 332.927 470.415C330.921 471.037 328.778 471.798 326.45 472.42C324.122 473.042 321.724 473.48 319.396 473.734C317.045 473.987 314.856 474.218 312.228 474.149C309.738 474.08 307.318 473.734 304.99 473.227C302.662 472.72 300.357 472.12 298.144 471.337C293.673 469.838 289.454 467.81 285.421 465.436C281.387 463.062 277.607 460.296 274.149 457.138C267.188 450.868 261.518 443.1 257.853 434.434C256.009 430.1 254.672 425.559 253.819 420.972C253.358 418.667 253.105 416.339 252.874 414.034L252.644 410.554L252.667 407.05C252.759 397.715 254.649 388.518 257.645 379.874C260.665 371.207 264.768 363.025 269.493 355.28C278.99 339.836 290.791 326.145 303.515 313.559C306.696 310.425 309.946 307.336 313.265 304.339C316.561 301.32 319.834 298.277 323.2 295.327C326.588 292.4 330.161 289.703 333.895 287.213C335.785 285.992 337.721 284.839 339.75 283.848C341.778 282.834 343.852 281.912 346.157 281.266C346.872 281.059 347.633 281.474 347.84 282.188C347.955 282.626 347.863 283.064 347.61 283.387C342.008 290.625 335.255 296.064 328.501 301.62C325.113 304.362 321.678 307.082 318.451 310.033C315.201 312.937 312.043 315.957 308.932 319.022C296.531 331.262 285.098 344.562 276.062 359.268C271.568 366.62 267.718 374.319 264.929 382.364C262.14 390.385 260.458 398.729 260.365 407.096L260.342 410.231L260.55 413.366C260.757 415.44 260.988 417.515 261.403 419.543C262.163 423.623 263.339 427.611 264.975 431.414C268.202 439.021 273.181 445.866 279.359 451.421C282.447 454.21 285.813 456.7 289.408 458.797C293.004 460.918 296.784 462.716 300.703 464.03C304.598 465.367 308.678 466.312 312.527 466.427C314.325 466.496 316.538 466.289 318.567 466.058C320.618 465.828 322.577 465.459 324.537 464.952C326.473 464.445 328.501 463.707 330.737 463.039C332.95 462.347 335.209 461.771 337.491 461.287C342.055 460.273 346.826 460.019 350.675 459.328C352.611 458.982 354.34 458.429 356.046 457.622C356.53 457.414 356.76 457.23 357.06 457.069C357.36 456.907 357.636 456.631 357.913 456.423C358.19 456.124 358.489 455.893 358.766 455.57C359.019 455.225 359.319 454.948 359.573 454.556C361.67 451.675 363.122 447.78 363.998 443.838C364.897 439.873 365.266 435.724 365.151 431.668C364.966 427.634 364.321 423.577 362.776 420.212C362.016 418.529 361.071 417.031 359.918 415.901C359.342 415.325 358.72 414.864 358.074 414.472C357.752 414.242 357.383 414.15 357.06 413.965C356.922 413.873 356.668 413.804 356.438 413.712L355.723 413.458C351.943 412.144 348.094 411.499 344.521 412.052C342.7 412.329 341.04 412.882 338.966 413.666C338.459 413.85 337.859 414.08 337.168 414.288L336.592 414.449C336.407 414.495 336.2 414.541 335.946 414.588C335.439 414.68 334.932 414.749 334.471 414.726C333.987 414.726 333.503 414.703 333.042 414.68C332.604 414.611 332.189 414.518 331.751 414.426C331.313 414.334 330.921 414.196 330.553 414.057C330.161 413.919 329.792 413.758 329.423 413.596C326.611 412.19 324.56 410.185 322.946 407.972C321.356 405.759 320.203 403.339 319.512 400.85C317.99 395.871 318.129 390.731 319.212 386.029C319.742 383.678 320.549 381.373 321.655 379.252C322.762 377.108 324.052 375.126 325.896 373.374C326.427 372.89 327.233 372.89 327.74 373.42C328.086 373.789 328.178 374.273 328.04 374.711L327.81 374.872Z" fill="#390075"/>
<path d="M317.599 433.65C317.783 430.953 318.405 428.372 319.189 425.813C320.019 423.254 321.079 420.765 322.416 418.345C323.799 415.971 325.436 413.643 327.51 411.637C329.631 409.678 332.166 407.995 335.047 407.096C336.845 406.543 338.782 407.534 339.335 409.355C339.796 410.83 339.22 412.375 337.998 413.205L337.721 413.389C335.946 414.611 334.172 415.763 332.443 417.169C330.76 418.621 329.031 420.166 327.418 421.941C324.214 425.49 321.31 429.593 318.521 433.95L318.498 433.973C318.359 434.203 318.037 434.272 317.806 434.134C317.668 433.996 317.599 433.811 317.599 433.65Z" fill="#390075"/>
<path d="M323.154 577.666C321.356 579.625 320.042 581.93 319.166 584.327C318.29 586.725 317.829 589.191 317.898 591.634C317.898 592.234 317.99 592.856 318.036 593.455C318.06 593.755 318.083 594.055 318.129 594.354L318.313 595.253C318.451 595.829 318.521 596.429 318.705 597.005L319.281 598.711C319.443 599.287 319.696 599.817 319.95 600.37L320.687 601.984C321.263 603.044 321.909 604.058 322.508 605.072L322.693 605.372C323.776 607.239 323.131 609.613 321.263 610.697C319.396 611.78 317.022 611.135 315.939 609.268C315.778 609.014 315.662 608.714 315.57 608.438C315.132 607.032 314.694 605.649 314.325 604.243L313.911 602.076C313.772 601.361 313.634 600.647 313.611 599.909L313.45 597.72C313.426 596.982 313.496 596.244 313.496 595.53L313.542 594.446C313.588 594.078 313.657 593.732 313.703 593.363C313.841 592.649 313.887 591.934 314.072 591.219C314.694 588.407 315.916 585.78 317.46 583.475C319.005 581.124 320.941 579.141 323.154 577.666Z" fill="#390075"/>
<path d="M307.18 574.047C305.497 576.099 304.068 578.312 302.869 580.594C301.694 582.876 300.749 585.273 300.196 587.647C299.665 590.044 299.55 592.418 299.942 594.585C300.334 596.752 301.279 598.688 302.524 600.347C303.814 602.053 303.492 604.496 301.763 605.81C300.034 607.124 297.614 606.778 296.3 605.05C296.116 604.796 295.954 604.519 295.816 604.243L295.747 604.082C294.502 601.131 293.903 597.904 294.133 594.815C294.341 591.727 295.263 588.869 296.531 586.333C297.821 583.798 299.435 581.539 301.233 579.51C303.077 577.482 305.036 575.638 307.18 574.047Z" fill="#390075"/>
<path d="M297.845 324.739C340.879 353.597 443.452 335.249 440.986 322.872C440.064 318.215 352.865 329.787 307.895 314.504C307.895 314.504 303.193 314.504 299.758 318.377C299.044 319.184 296.347 323.724 297.845 324.739Z" fill="#F2101C"/>
<path d="M366.165 340.643C345.904 340.643 316.746 338.061 297.545 325.177C297.292 325.015 296.969 324.669 296.877 324.024C296.623 322.088 298.767 318.676 299.343 318.008C302.893 313.997 307.687 313.951 307.872 313.951L308.056 313.974C337.352 323.932 385.504 322.434 414.27 321.535C434.186 320.912 441.101 320.797 441.492 322.756C441.815 324.393 440.709 326.075 438.173 327.758C428.861 333.959 401.985 339.421 375.662 340.459C372.826 340.574 369.622 340.643 366.165 340.643ZM307.802 315.035C307.18 315.058 303.123 315.357 300.15 318.723C299.527 319.437 297.753 322.503 297.937 323.886C297.96 324.139 298.052 324.231 298.121 324.278C336.615 350.094 421.416 337.624 437.574 326.859C439.026 325.891 440.709 324.416 440.432 322.987C439.579 321.834 427.294 322.226 414.316 322.641C385.504 323.517 337.306 325.015 307.802 315.035Z" fill="#390075"/>
<path d="M501.86 308.235C475.122 329.971 441.262 327.597 440.985 322.871C440.708 318.146 462.214 317.616 497.158 293.091C497.158 293.091 501.053 293.367 503.842 298C505.709 301.135 503.151 307.174 501.86 308.235Z" fill="#F2101C"/>
<path d="M452.902 326.513C448.131 326.513 444.489 325.914 442.53 325.061C441.193 324.462 440.478 323.747 440.432 322.895C440.294 320.636 443.544 319.437 450.021 317.04C459.61 313.467 475.675 307.52 496.835 292.63L496.997 292.515L497.181 292.538C497.342 292.561 501.399 292.883 504.28 297.724C506.332 301.135 503.589 307.497 502.16 308.65C485.149 322.48 465.28 326.513 452.902 326.513ZM497.296 293.644C476.09 308.511 460.001 314.481 450.39 318.054C444.788 320.129 441.423 321.396 441.515 322.848C441.538 323.24 442.092 323.701 442.967 324.093C449.859 327.113 478.28 326.721 501.514 307.843C502.69 306.898 505.087 301.158 503.382 298.3C501.077 294.451 498.057 293.759 497.296 293.644Z" fill="#390075"/>
<path d="M366.211 343.962C345.512 343.962 315.593 341.288 295.678 327.942C294.502 327.159 293.765 325.914 293.58 324.462C293.119 320.958 296.254 316.51 296.853 315.818C301.302 310.77 307.226 310.632 307.871 310.632H308.517L309.116 310.839C337.859 320.613 385.619 319.114 414.178 318.215C421.969 317.962 428.699 317.754 433.448 317.823C438.841 317.893 443.935 317.962 444.765 322.111C445.18 324.231 444.719 327.389 440.04 330.501C430.128 337.116 403.114 342.694 375.823 343.755C372.918 343.893 369.714 343.962 366.211 343.962ZM301.671 322.618C330.622 340.482 386.771 338.084 418.096 330.501C425.495 328.703 430.244 326.951 433.171 325.545C428.354 325.499 421.3 325.73 414.408 325.937C385.573 326.836 337.491 328.334 307.387 318.4C306.442 318.538 304.299 319.045 302.639 320.935C302.408 321.235 301.994 321.949 301.671 322.618Z" fill="#390075"/>
<path d="M453.04 329.925C447.946 329.925 443.797 329.233 441.192 328.104C437.827 326.629 437.205 324.324 437.113 323.102C436.836 318.4 441.354 316.717 448.845 313.951C458.296 310.448 474.085 304.57 494.922 289.956L496.051 289.172L497.411 289.265C498.011 289.311 503.427 289.864 507.139 296.041C510.089 300.951 506.954 309.065 504.28 311.254C487.246 325.061 466.686 329.925 453.04 329.925ZM449.214 322.042C459.079 322.848 480.539 320.497 499.255 305.377C500.108 304.224 501.007 300.859 500.523 299.983C499.624 298.461 498.587 297.701 497.826 297.309C476.943 311.738 461.085 317.616 451.542 321.166C450.781 321.442 449.974 321.742 449.214 322.042Z" fill="#390075"/>
<path d="M437.781 347.12C433.447 355.211 425.288 359.798 421.139 361.711C419.825 362.31 418.281 361.504 418.073 360.075C417.382 355.58 416.69 346.221 421.024 338.131C425.357 330.04 433.517 325.453 437.666 323.54C438.979 322.941 440.524 323.748 440.731 325.177C441.423 329.695 442.114 339.03 437.781 347.12Z" fill="#F2101C"/>
<path d="M420.217 362.449C419.779 362.449 419.341 362.333 418.926 362.126C418.166 361.711 417.658 360.997 417.52 360.144C416.76 355.326 416.16 346.014 420.517 337.877C424.873 329.741 432.964 325.085 437.412 323.056C438.196 322.687 439.072 322.71 439.833 323.125C440.593 323.54 441.1 324.255 441.239 325.108C441.999 329.925 442.599 339.26 438.242 347.374C433.886 355.511 425.795 360.167 421.346 362.195C420.978 362.38 420.609 362.449 420.217 362.449ZM438.565 323.863C438.334 323.863 438.104 323.909 437.873 324.024C433.563 326.007 425.703 330.524 421.485 338.384C417.267 346.245 417.866 355.28 418.603 359.982C418.673 360.489 418.995 360.927 419.456 361.181C419.917 361.434 420.448 361.434 420.932 361.227C425.242 359.245 433.102 354.727 437.32 346.867C441.538 339.007 440.939 329.971 440.201 325.269C440.132 324.762 439.809 324.324 439.348 324.07C439.095 323.932 438.841 323.863 438.565 323.863Z" fill="#390075"/>
<path d="M420.217 365.768C419.249 365.768 418.258 365.537 417.359 365.053C415.676 364.154 414.547 362.541 414.247 360.651C413.441 355.418 412.795 345.299 417.613 336.31C422.43 327.32 431.235 322.249 436.03 320.036C437.758 319.23 439.717 319.299 441.423 320.198C443.106 321.097 444.235 322.71 444.535 324.6C445.342 329.833 445.987 339.975 441.17 348.941C436.352 357.931 427.547 363.002 422.753 365.214C421.923 365.583 421.07 365.768 420.217 365.768ZM437.205 328.058C433.171 330.202 427.57 334.051 424.412 339.952C421.254 345.853 421.139 352.629 421.577 357.193C425.611 355.049 431.212 351.2 434.37 345.299C437.551 339.399 437.643 332.622 437.205 328.058Z" fill="#390075"/>
<path d="M449.445 345.692C455.622 352.491 464.658 354.958 469.13 355.81C470.559 356.087 471.85 354.912 471.711 353.459C471.296 348.919 469.706 339.675 463.528 332.899C457.351 326.099 448.315 323.633 443.844 322.78C442.415 322.503 441.124 323.679 441.262 325.131C441.7 329.649 443.291 338.892 449.445 345.692Z" fill="#F2101C"/>
<path d="M469.567 356.386C469.406 356.386 469.222 356.363 469.06 356.34C464.266 355.441 455.276 352.883 449.076 346.06C442.875 339.237 441.193 330.04 440.755 325.177C440.686 324.324 441.008 323.494 441.631 322.918C442.276 322.342 443.129 322.088 443.959 322.249C448.753 323.148 457.743 325.707 463.943 332.53C470.144 339.376 471.826 348.549 472.264 353.413C472.333 354.266 472.011 355.096 471.388 355.672C470.858 356.133 470.236 356.386 469.567 356.386ZM449.86 345.322C455.853 351.915 464.588 354.404 469.245 355.28C469.752 355.372 470.282 355.234 470.651 354.888C471.043 354.542 471.227 354.035 471.181 353.528C470.743 348.803 469.129 339.883 463.136 333.267C457.143 326.675 448.43 324.186 443.751 323.31C443.244 323.217 442.714 323.356 442.345 323.702C441.953 324.047 441.769 324.554 441.815 325.062C442.253 329.787 443.867 338.73 449.86 345.322Z" fill="#390075"/>
<path d="M469.567 359.705C469.198 359.705 468.806 359.659 468.415 359.59C463.205 358.599 453.455 355.81 446.586 348.273C439.74 340.735 437.896 330.731 437.412 325.453C437.228 323.54 437.943 321.719 439.372 320.428C440.778 319.137 442.691 318.607 444.558 318.976C449.767 319.967 459.517 322.756 466.386 330.294C473.232 337.854 475.076 347.835 475.56 353.113C475.745 355.026 475.03 356.847 473.601 358.138C472.471 359.152 471.042 359.705 469.567 359.705ZM452.303 343.086C456.797 348.042 463.159 350.416 467.608 351.523C466.939 347.005 465.188 340.459 460.693 335.48C456.198 330.524 449.836 328.15 445.388 327.044C446.056 331.584 447.808 338.131 452.303 343.086Z" fill="#390075"/>
<path d="M474.016 558.397C475.952 557.198 478.003 556.299 480.124 555.538C482.245 554.801 484.434 554.225 486.67 553.833C488.906 553.441 491.211 553.21 493.516 553.326C495.821 553.441 498.172 553.856 500.362 554.732C502.137 555.446 502.99 557.452 502.275 559.203C501.722 560.586 500.362 561.416 498.956 561.37H498.679C496.72 561.301 494.853 560.932 492.894 560.748C490.957 560.517 488.975 560.195 486.947 560.01C482.89 559.618 478.672 559.457 474.315 559.342H474.292C474.016 559.342 473.785 559.111 473.808 558.812C473.785 558.65 473.877 558.489 474.016 558.397Z" fill="#390075"/>
<path d="M309.646 554.686C311.513 553.856 313.265 553.579 315.109 553.372C316.953 553.187 318.82 553.303 320.664 553.51C322.508 553.717 324.375 554.109 326.15 554.639C327.948 555.216 329.677 555.976 331.244 557.037C331.474 557.198 331.544 557.521 331.382 557.751C331.29 557.889 331.152 557.959 331.013 557.982H330.99C329.169 558.212 327.487 558.397 325.804 558.696C324.145 558.996 322.508 559.296 320.895 559.664C319.281 560.01 317.691 560.448 316.077 560.725C314.487 561.001 312.827 561.301 311.306 561.301H310.983C309.07 561.301 307.526 559.733 307.549 557.82C307.595 556.437 308.448 555.216 309.646 554.686Z" fill="#390075"/>
<path d="M436.099 57.0128C449.03 45.9027 508.453 -3.81611 522.283 5.24254C546.508 21.1009 533.231 90.8964 529.866 106.732" fill="#FFA502"/>
<g opacity="0.35">
<path d="M436.099 57.0126L446.079 62.3141C465.257 46.2483 514.63 6.78668 527.077 14.9464C529.244 16.3755 531.111 18.2195 532.701 20.4323C530.465 13.7939 527.123 8.44629 522.259 5.26538C508.453 -3.81632 449.03 45.9025 436.099 57.0126Z" fill="white"/>
</g>
<path d="M529.866 110.581C529.589 110.581 529.336 110.558 529.059 110.489C526.985 110.051 525.648 107.999 526.086 105.925C534.13 68.0308 537.426 19.7641 520.162 8.46956C519.055 7.73196 511.933 5.19645 481.069 26.7252C462.491 39.6793 443.889 55.4224 438.611 59.9402C436.997 61.3232 434.554 61.1388 433.171 59.5253C431.788 57.9118 431.973 55.4685 433.586 54.0855C438.911 49.4986 457.789 33.548 476.643 20.4095C509.559 -2.54834 519.655 -1.07314 524.38 2.01556C550.173 18.9112 537.979 87.047 533.623 107.538C533.254 109.336 531.664 110.581 529.866 110.581Z" fill="#390075"/>
<path d="M517.534 26.2409C517.534 26.2409 520.6 24.6966 521.384 32.3722C522.744 45.5338 521.291 79.1868 507.646 92.9937C507.646 92.9937 480.954 62.3372 474.408 59.2255C467.862 56.1137 480.378 50.259 483.489 45.0036C486.601 39.7252 514.93 25.342 517.534 26.2409Z" fill="#EBA7A4"/>
<path d="M507.623 93.8236L507.208 93.3626C506.931 93.063 480.516 62.7522 474.154 59.7327C472.84 59.1103 472.103 58.3036 471.987 57.3355C471.711 55.1688 474.408 52.8868 477.542 50.2361C479.709 48.3921 481.968 46.502 483.028 44.7041C486.071 39.587 513.085 25.6417 517.396 25.6417C517.419 25.6417 517.465 25.6417 517.488 25.6417C517.903 25.5034 518.594 25.4343 519.332 25.8261C520.738 26.5868 521.637 28.7765 522.006 32.3032C523.366 45.6261 521.775 79.5326 508.107 93.3857L507.623 93.8236ZM517.188 26.7481C514.169 26.7481 487.039 40.0941 483.973 45.2803C482.821 47.2165 480.493 49.1988 478.257 51.0889C475.629 53.3248 472.909 55.6298 473.094 57.1741C473.163 57.7273 473.693 58.2575 474.638 58.6954C480.862 61.6458 504.142 88.1303 507.669 92.141C520.669 78.2879 522.167 45.4417 520.83 32.4184C520.415 28.3386 519.355 27.163 518.779 26.8403C518.249 26.5407 517.811 26.7481 517.788 26.7481L517.58 26.8403L517.35 26.7712C517.304 26.7712 517.258 26.7481 517.188 26.7481Z" fill="#390075"/>
<path d="M474.385 59.2257C478.211 61.0467 488.86 72.2029 497.066 81.1924C502.967 87.6464 507.623 92.994 507.623 92.994C521.268 79.164 522.721 45.534 521.361 32.3494C520.577 24.6738 517.511 26.2412 517.511 26.2412C516.359 25.8493 510.205 28.4309 503.405 31.9115C494.807 36.291 485.218 42.0535 483.467 45.0039C480.355 50.2593 467.839 56.114 474.385 59.2257Z" fill="#F7528A"/>
<g opacity="0.3">
<path d="M474.385 59.2257C478.211 61.0467 488.86 72.2029 497.066 81.1924C503.843 65.1496 504.488 42.4914 503.428 32.2572C503.428 32.142 503.405 32.0268 503.405 31.9346C494.807 36.3141 485.218 42.0766 483.467 45.027C480.355 50.2593 467.839 56.114 474.385 59.2257Z" fill="#390075"/>
</g>
<path d="M503.128 91.3341C501.814 89.7897 500.523 88.2454 499.186 86.7241C497.826 85.2489 496.513 83.7045 495.106 82.2754C492.364 79.325 489.436 76.559 486.486 73.8391C483.489 71.1653 480.401 68.6068 477.243 66.1635C475.652 64.9419 474.062 63.7663 472.425 62.6368C470.812 61.5304 469.083 60.401 467.516 59.5251L464.727 57.9577L466.778 55.3991C470.374 50.9044 474.454 46.8706 478.81 43.2057C483.19 39.5638 487.823 36.2907 492.617 33.2711C497.435 30.2977 502.39 27.6008 507.484 25.1806C508.775 24.5813 510.043 24.005 511.357 23.4288C511.449 23.3827 511.864 23.2213 512.117 23.1291C512.417 23.0369 512.717 22.9678 513.039 22.8756C513.662 22.7603 514.307 22.7142 514.929 22.7603C516.197 22.8525 517.419 23.2444 518.479 23.9589C519.539 24.6504 520.415 25.6186 520.992 26.748C521.13 27.0246 521.268 27.3242 521.36 27.6239L521.499 28.0618L521.568 28.3384L521.844 29.3757C522.213 30.7817 522.536 32.1878 522.836 33.5938C523.988 39.2411 524.495 44.9805 524.449 50.743C524.357 56.4825 523.642 62.245 522.213 67.8231C521.499 70.6352 520.669 73.2168 519.816 75.9136C518.986 78.5874 518.018 81.2382 516.981 83.8659C516.451 85.1797 515.921 86.4936 515.344 87.7844C515.045 88.4298 514.745 89.0752 514.445 89.7206L514.215 90.2046C514.146 90.366 513.984 90.6195 513.869 90.8039C513.639 91.2188 513.316 91.6107 512.993 91.9564C511.656 93.3855 509.697 94.1001 507.83 93.9388C505.94 93.8466 504.188 92.7862 503.128 91.3341ZM505.456 89.5362C506.124 90.2507 507.023 90.6426 507.922 90.5734C508.821 90.5043 509.674 90.1125 510.158 89.444C510.273 89.2827 510.412 89.1213 510.481 88.9138C510.527 88.7986 510.55 88.7525 510.619 88.5911L510.803 88.1301C511.057 87.5078 511.288 86.8854 511.518 86.24C511.979 84.9723 512.394 83.6815 512.786 82.3907C514.307 77.2044 515.736 71.8568 516.82 66.5784C517.926 61.3921 518.318 56.0676 518.249 50.7661C518.156 45.4646 517.511 40.1631 516.359 34.9768C516.082 33.686 515.759 32.3953 515.413 31.1275L515.137 30.1824L515.068 29.9519C515.068 29.9289 515.045 29.9289 515.045 29.9058C515.045 29.8597 515.022 29.8597 514.999 29.8136C514.952 29.6984 514.86 29.6292 514.768 29.5601C514.676 29.4909 514.538 29.4679 514.422 29.4448C514.353 29.4448 514.307 29.4448 514.261 29.4448C514.238 29.4679 514.215 29.4679 514.169 29.4679C514.1 29.4909 514.192 29.4448 513.984 29.5601C512.763 30.1133 511.518 30.6895 510.296 31.2658C505.41 33.5938 500.592 36.1063 495.982 38.8953C491.349 41.6613 486.855 44.6578 482.636 47.977C478.395 51.2732 474.431 54.869 470.95 58.8797L470.189 54.7538C472.103 55.9524 473.739 57.1279 475.445 58.3956C477.127 59.6403 478.741 60.9312 480.331 62.2681C483.512 64.9188 486.532 67.777 489.459 70.6813C492.34 73.6317 495.176 76.6512 497.803 79.8091C499.163 81.3534 500.408 82.99 501.722 84.5804C503.013 86.217 504.234 87.8766 505.456 89.5362Z" fill="#390075"/>
<g opacity="0.3">
<path d="M500.938 294.543C496.582 297.217 489.759 301.32 484.988 303.648C484.988 303.648 407.24 335.203 338.574 322.503C333.48 321.558 328.432 320.382 323.5 318.907C317.092 316.994 310.891 314.62 304.944 311.716C327.188 289.034 346.803 282.258 346.803 282.258L345.674 287.398C352.888 279.261 358.075 275.85 358.075 275.85L410.951 266.883L412.887 275.85H484.458C490.405 285.116 496.513 285.024 500.938 294.543Z" fill="#390075"/>
</g>
<path d="M571.564 216.404C571.541 224.218 553.285 216.934 553.285 216.934C553.285 216.934 552.547 219.469 556.766 225.992C559.877 230.833 562.551 234.36 561.79 237.218C560.984 240.283 556.051 241.413 550.127 241.39C545.978 241.367 542.59 242.266 538.579 247.659C537.795 248.697 536.989 249.918 536.159 251.347C536.159 251.347 536.159 251.347 536.136 251.37C524.311 268.543 507.116 282.05 486.256 292.261C486.256 292.261 368.977 337.877 297.199 297.54C286.089 291.016 276.132 282.741 267.926 272.438C266.151 272.138 264.445 272.323 262.671 272.738C256.908 274.029 251.814 273.982 250.362 271.17C249.002 268.52 250.477 264.209 252.206 258.7C253.635 254.229 254.096 251.486 254.211 250.264C254.257 249.941 253.981 249.734 253.75 249.872C250.915 251.693 237.823 259.715 236.301 252.938C236.002 251.578 236.417 249.181 237.108 246.092C238.376 240.514 240.566 232.7 241.096 224.932C242.433 205.317 243.7 191.487 244.53 183.119C244.553 182.889 244.576 182.658 244.599 182.428C244.599 182.197 244.645 181.99 244.668 181.782C244.692 181.575 244.715 181.368 244.738 181.16C244.991 178.717 245.337 176.297 245.729 173.876C247.527 162.697 250.638 151.472 254.741 138.702L293.811 86.6321L315.593 57.6121L319.858 51.9188C333.941 43.1137 350.03 36.5444 368.124 32.8334H368.147C370.729 32.3032 373.334 31.8422 375.984 31.4273C377.644 31.1738 379.28 30.9433 380.917 30.7358C383.545 30.4131 386.126 30.1366 388.708 29.9752C388.823 29.9522 388.915 29.9521 389.031 29.9521C396.822 29.3759 404.29 29.8138 411.527 30.805C418.788 31.7961 425.842 33.3405 432.757 35.0231C450.275 39.2874 465.58 46.9861 478.234 55.4224C504.419 72.8712 519.355 93.501 519.355 93.501C527.261 104.519 533.692 114.569 538.81 125.01C540.769 128.998 542.521 133.032 544.111 137.181C544.572 138.356 544.987 139.555 545.402 140.753C545.402 140.753 545.448 140.846 545.517 141.053C546.324 143.335 551.81 159.147 560.891 190.104C564.257 201.675 571.587 212.531 571.564 216.404Z" fill="white"/>
<path d="M544.088 137.181C522.398 146.562 496.49 150.803 469.429 139.924C408.139 115.26 407.47 59.1105 411.504 30.8281C418.765 31.8193 425.795 33.3636 432.733 35.0463C486.509 48.1156 519.332 93.5011 519.332 93.5011C527.261 104.519 533.669 114.569 538.786 125.01C540.746 128.998 542.497 133.032 544.088 137.181Z" fill="#FFA502"/>
<path d="M334.079 66.6936C319.281 58.2112 251.561 20.5706 239.69 32.0726C218.899 52.1952 250.039 127.822 256.309 142.736" fill="white"/>
<g opacity="0.35">
<path d="M571.563 216.404C571.563 217.925 570.872 218.87 569.765 219.423C567.345 214.421 564.049 207.921 562.067 201.214C552.985 170.28 547.499 154.445 546.692 152.163C546.646 151.956 546.6 151.864 546.6 151.864C544.71 146.401 542.52 141.214 539.985 136.097C534.868 125.656 530.811 113.9 522.905 102.905C522.905 102.905 487.707 59.2256 433.955 46.1332C420.125 42.7909 405.88 39.9097 390.206 41.0622C390.114 41.0622 389.999 41.0622 389.883 41.0852C385.711 41.3618 381.493 41.8459 377.183 42.5143C355.861 45.7874 338.343 51.2964 321.955 63.3054L316.584 67.6158C294.71 55.4454 247.48 32.1418 236.808 42.4913C234.941 44.2892 233.466 46.4559 232.313 48.9222C233.259 41.9842 235.54 36.0834 239.689 32.0496C249.855 22.2073 294.572 43.8512 316.515 55.6067L315.778 54.5695C333.71 41.7998 354.64 34.7004 375.961 31.4042C380.271 30.7358 384.513 30.2517 388.685 29.9751C388.8 29.9521 388.915 29.9521 389.007 29.9521C404.658 28.7996 418.926 31.6808 432.756 35.0231C486.509 48.1155 519.355 93.4779 519.355 93.4779C527.261 104.496 533.692 114.546 538.809 124.987C541.345 130.104 543.535 135.291 545.425 140.753C545.425 140.753 545.448 140.846 545.517 141.053C546.324 143.335 551.786 159.17 560.891 190.103C564.257 201.675 571.586 212.554 571.563 216.404Z" fill="white"/>
</g>
<path d="M248.31 51.8037C248.31 51.8037 245.014 50.8587 245.683 58.5574C246.835 71.742 254.603 104.496 270.6 115.514C270.6 115.514 291.045 80.3857 296.9 76.0984C302.755 71.8111 289.362 68.4227 285.283 63.8358C281.226 59.2488 250.685 50.4437 248.31 51.8037Z" fill="#EBA7A4"/>
<path d="M270.761 116.321L270.254 115.975C254.211 104.934 246.259 71.9494 245.106 58.6035C244.807 55.0768 245.268 52.7488 246.512 51.7346C247.158 51.2044 247.849 51.1583 248.287 51.2275C252.16 50.2824 281.733 58.9723 285.721 63.467C287.104 65.0114 289.662 66.4635 292.128 67.8696C295.701 69.8749 298.79 71.6268 298.905 73.7935C298.974 74.7616 298.398 75.7066 297.222 76.5595C291.529 80.7315 271.291 115.468 271.084 115.814L270.761 116.321ZM247.965 52.3339C247.78 52.3339 247.481 52.38 247.204 52.6335C246.697 53.0715 245.89 54.4314 246.236 58.5113C247.365 71.5576 255.018 103.551 270.392 114.707C273.089 110.097 290.999 79.7173 296.531 75.6375C297.384 75.0151 297.776 74.4158 297.753 73.8395C297.66 72.2952 294.549 70.5204 291.552 68.8377C288.994 67.3856 286.343 65.9104 284.845 64.2047C280.765 59.5947 250.477 51.3658 248.587 52.3108L248.38 52.403L248.149 52.357C248.149 52.357 248.08 52.3339 247.965 52.3339Z" fill="#390075"/>
<path d="M296.877 76.0753C293.465 78.5877 285.121 91.5418 278.736 101.914C274.149 109.359 270.6 115.491 270.6 115.491C254.603 104.473 246.835 71.7188 245.683 58.5342C245.014 50.8355 248.31 51.8036 248.31 51.8036C249.371 51.2043 255.917 52.5873 263.247 54.7079C272.513 57.3817 283.024 61.2541 285.283 63.8127C289.339 68.3996 302.731 71.788 296.877 76.0753Z" fill="#F7528A"/>
<g opacity="0.3">
<path d="M296.877 76.0753C293.465 78.5877 285.121 91.5418 278.736 101.914C269.055 87.4159 264.169 65.3109 263.27 55.0537C263.27 54.9384 263.247 54.8232 263.247 54.731C272.513 57.4048 283.024 61.2772 285.282 63.8357C289.339 68.3996 302.731 71.788 296.877 76.0753Z" fill="#390075"/>
</g>
<path d="M272.167 111.342C275.302 104.565 278.851 97.9726 282.931 91.6569C284.959 88.4991 287.126 85.4104 289.454 82.4369C291.782 79.4865 294.318 76.5822 296.946 73.9315C297.291 73.5396 297.222 72.9173 296.922 72.6868C296.899 72.6407 296.853 72.6176 296.807 72.5946L296.277 72.2258L295.171 71.4882C294.433 70.9811 293.672 70.497 292.912 70.0591C289.869 68.169 286.665 66.5324 283.415 64.9881C276.915 61.8994 270.092 59.433 263.177 57.3124C261.449 56.7823 259.697 56.2982 257.945 55.8372L255.317 55.1457L254.003 54.823C253.727 54.7539 253.704 54.7539 253.565 54.7308C253.45 54.7078 253.358 54.7078 253.243 54.6847C252.39 54.6386 251.514 54.9613 250.915 55.6298C250.615 55.9525 250.385 56.3443 250.269 56.7592C250.246 56.8745 250.2 56.9667 250.177 57.0819C250.154 57.1972 250.131 57.2664 250.108 57.5199C250.062 57.9348 250.016 58.3497 249.993 58.7646C249.486 65.4952 250.869 72.5946 252.851 79.4404C253.865 82.8749 255.064 86.2863 256.401 89.6516C257.714 93.0169 259.19 96.313 260.849 99.4939C262.509 102.675 264.307 105.787 266.427 108.645C266.957 109.359 267.511 110.051 268.064 110.742C268.34 111.088 268.64 111.434 268.917 111.733C269.078 111.918 269.262 112.056 269.47 112.171C270.277 112.609 271.591 112.333 272.167 111.342ZM274.818 112.632C274.287 113.808 273.296 114.822 272.075 115.306C270.853 115.836 269.401 115.859 268.11 115.375C267.465 115.122 266.865 114.73 266.381 114.269C266.012 113.9 265.667 113.601 265.321 113.232C264.652 112.54 263.984 111.849 263.362 111.111C260.826 108.207 258.59 105.095 256.608 101.845C254.649 98.595 252.874 95.2066 251.307 91.7722C249.762 88.3147 248.356 84.8111 247.111 81.1922C245.867 77.5734 244.899 73.8623 244.207 70.036C243.539 66.2097 243.124 62.2682 243.4 58.2344C243.423 57.7273 243.469 57.2203 243.539 56.7132C243.562 56.5057 243.608 56.1138 243.677 55.7681C243.723 55.4223 243.838 55.0766 243.931 54.7539C244.345 53.417 245.06 52.1492 246.005 51.112C247.872 49.0144 250.753 47.8159 253.588 47.9542C253.934 47.9772 254.303 48.0003 254.649 48.0694C254.971 48.1155 255.409 48.2077 255.571 48.2538L256.954 48.5765C257.876 48.807 258.798 49.0375 259.697 49.291C261.518 49.7981 263.339 50.3283 265.137 50.8815C272.351 53.1173 279.404 55.9064 286.181 59.3639C289.569 61.0696 292.866 63.0058 296.047 65.1264C296.853 65.6335 297.637 66.1867 298.398 66.7629L299.55 67.5927L300.149 68.0307C300.472 68.2842 300.772 68.5608 301.048 68.8605C302.155 70.1052 302.731 71.7648 302.662 73.3552C302.593 74.9687 301.901 76.5361 300.749 77.6425C290.215 87.6232 281.733 99.7244 274.818 112.632Z" fill="#390075"/>
<path d="M473.969 294.774C482.636 290.763 491.165 286.453 499.232 281.52C507.3 276.587 514.883 270.94 521.614 264.417C523.273 262.757 524.91 261.098 526.454 259.323C527.261 258.47 527.976 257.548 528.736 256.672L529.797 255.404L530.834 253.975C531.525 253.03 532.217 252.062 532.816 251.117L533.231 250.448C533.277 250.356 533.369 250.218 533.392 250.172L533.6 249.78C533.946 249.135 534.291 248.581 534.66 248.005C536.135 245.769 537.933 243.695 540.146 241.943C542.359 240.237 545.125 238.854 548.167 238.486L549.297 238.416C549.643 238.393 550.127 238.37 550.357 238.37C550.91 238.37 551.464 238.37 552.017 238.347C553.1 238.301 554.184 238.186 555.198 238.025C556.189 237.84 557.134 237.564 557.848 237.241C558.563 236.895 558.84 236.526 558.817 236.48C558.909 236.342 558.909 235.65 558.632 234.821C558.379 233.968 557.941 233 557.434 232.008C556.419 230.003 555.175 227.998 553.93 225.808C552.708 223.595 551.556 221.382 550.611 218.824L550.565 218.709L550.495 218.501C550.449 218.363 550.426 218.225 550.403 218.063C550.311 217.464 550.357 216.795 550.634 216.15C550.91 215.528 551.394 214.882 552.178 214.467C552.962 214.029 554.068 213.983 554.829 214.26L555.728 214.583L557.364 215.136C558.448 215.482 559.554 215.804 560.637 216.081C562.804 216.611 565.063 217.003 566.861 216.934C567.737 216.911 568.474 216.634 568.428 216.588C568.428 216.565 568.359 216.703 568.382 216.657C568.382 216.634 568.382 216.634 568.405 216.611C568.405 216.588 568.405 216.519 568.405 216.496C568.428 216.404 568.359 216.334 568.382 216.242C568.267 215.62 567.875 214.537 567.46 213.545C566.999 212.508 566.515 211.471 566.008 210.388C563.934 206.123 561.721 201.698 559.877 197.065C559.416 195.912 558.978 194.714 558.563 193.538C558.171 192.339 557.779 191.095 557.434 189.965L555.359 183.05L551.141 169.266C548.283 160.116 545.355 150.896 542.244 141.929L548.467 139.762L548.559 140.062L542.313 142.113C539.639 134.369 536.066 126.647 531.986 119.363C527.907 112.033 523.25 104.98 518.341 98.0649C513.615 91.3113 507.853 85.1108 501.883 79.2331C495.844 73.4014 489.482 67.8694 482.705 62.9598C481.046 61.669 479.271 60.5626 477.542 59.364L474.938 57.5891C474.062 57.0129 473.163 56.5058 472.264 55.9526C470.466 54.8692 468.691 53.7628 466.893 52.7025L461.361 49.7752C460.439 49.2911 459.54 48.761 458.572 48.3461L455.714 47.0553C453.801 46.2255 451.934 45.3035 449.997 44.5198L444.143 42.3531C443.175 42.0073 442.184 41.6155 441.215 41.2928L438.219 40.4399L432.226 38.7342C430.198 38.2041 428.1 37.7431 426.049 37.2821C421.923 36.3601 417.797 35.5533 413.671 34.9079C409.545 34.2856 405.419 33.8246 401.293 33.6171C399.218 33.5019 397.167 33.4788 395.115 33.5019L392.027 33.5941L390.436 33.6863L389.63 33.7324L389.238 33.7554C389.215 33.7554 389.146 33.7554 389.169 33.7554H389.261C389.307 33.7554 389.376 33.7324 389.422 33.7093L388.938 33.7785C382.622 34.2164 376.284 35.1154 370.152 36.4292C363.975 37.7431 357.89 39.564 351.943 41.7538C340.049 46.1333 328.616 51.988 318.428 59.3409L316.4 60.7931L314.233 59.5714C307.318 55.6299 300.265 51.8497 293.142 48.323C285.997 44.8194 278.759 41.5233 271.406 38.7342C267.718 37.3512 264.03 36.0835 260.296 35.0923C256.585 34.1242 252.828 33.3175 249.324 33.2483C247.572 33.1792 245.936 33.3866 244.576 33.7554C243.884 33.9398 243.354 34.2395 242.893 34.5161C242.686 34.7235 242.501 34.7927 242.248 35.0462L241.441 35.9452C239.321 38.3654 237.914 41.5924 237.085 45.096C236.232 48.5996 235.932 52.3798 235.909 56.1831C235.886 59.9863 236.163 63.8587 236.67 67.7311C237.154 71.6035 237.822 75.4759 238.629 79.3253C239.413 83.1746 240.358 87.024 241.418 90.8272C243.493 98.4568 245.959 106.04 248.679 113.508C251.399 120.954 254.395 128.399 257.737 135.452L258.429 136.927L257.876 138.449C256.608 142.021 255.502 145.686 254.51 149.397C253.542 153.131 252.69 156.889 251.929 160.692C251.168 164.495 250.477 168.321 249.877 172.171C249.578 174.084 249.278 176.02 249.025 177.933L248.656 180.814L248.333 183.557L248.31 183.834L248.033 186.277L247.78 188.836L247.319 193.999L246.489 204.372L245.014 225.163C244.53 232.562 242.732 239.638 241.165 246.299C240.796 247.936 240.427 249.596 240.266 250.979C240.219 251.324 240.196 251.647 240.196 251.855C240.173 252.177 240.219 252.131 240.196 252.177C240.219 252.177 240.219 252.223 240.219 252.223C240.219 252.177 240.196 252.2 240.173 252.108C240.104 252.016 239.966 251.831 239.805 251.762C239.528 251.601 239.666 251.739 240.081 251.693C240.496 251.67 241.118 251.578 241.741 251.394C243.032 251.048 244.484 250.448 245.89 249.757C247.319 249.065 248.748 248.282 250.131 247.452L251.168 246.807L251.422 246.645C251.537 246.599 251.214 246.714 252.182 246.23C252.92 245.908 253.888 245.815 254.695 245.977C256.378 246.346 257.346 247.452 257.807 248.535C258.037 249.089 258.152 249.665 258.175 250.218C258.175 250.356 258.175 250.495 258.152 250.633L258.129 250.84L258.106 250.933C257.968 251.97 257.807 252.915 257.599 253.837C257.207 255.704 256.723 257.479 256.17 259.231C255.64 260.959 255.087 262.573 254.649 264.163C254.188 265.708 253.819 267.275 253.75 268.358C253.704 268.912 253.773 269.28 253.819 269.372C253.842 269.372 253.842 269.419 253.819 269.396C253.819 269.349 253.75 269.349 253.773 269.326C253.75 269.28 253.727 269.303 253.842 269.372C254.003 269.488 254.464 269.672 255.041 269.833C255.617 269.972 256.331 270.087 257.069 270.179C258.567 270.341 260.204 270.41 261.886 270.433C262.555 270.433 264.076 270.456 265.113 270.686C266.243 270.871 267.28 271.193 268.271 271.516C270.231 272.208 271.959 273.084 273.619 274.029C276.915 275.919 279.842 278.062 282.678 280.298C285.49 282.534 288.187 284.839 290.814 287.167L294.71 290.625C295.355 291.178 296 291.754 296.623 292.261C297.222 292.768 297.914 293.298 298.259 293.552L297.36 293.16C297.752 293.275 298.259 293.529 298.49 293.713L298.536 293.736L298.628 293.805L298.79 293.921L299.112 294.151L299.781 294.612L301.118 295.511C302.017 296.111 302.915 296.687 303.814 297.24C305.635 298.369 307.502 299.43 309.393 300.467C311.283 301.504 313.196 302.472 315.155 303.394C317.137 304.316 319.027 305.169 321.056 305.953C325.09 307.497 329.215 308.88 333.434 310.033C337.652 311.208 341.939 312.153 346.273 313.006C347.056 313.168 347.54 313.928 347.402 314.689C347.264 315.38 346.641 315.864 345.973 315.841C336.96 315.657 327.902 314.274 319.12 311.6C316.93 310.955 314.671 310.171 312.596 309.295C310.476 308.442 308.378 307.52 306.304 306.529C304.229 305.561 302.201 304.455 300.196 303.302C299.204 302.726 298.213 302.127 297.222 301.527L295.77 300.605L295.055 300.121L294.687 299.891L294.502 299.775L294.41 299.706L294.364 299.683C294.571 299.845 295.055 300.075 295.424 300.167L294.525 299.775C293.396 299.084 292.727 298.531 291.99 297.931C291.275 297.355 290.584 296.779 289.915 296.203L285.951 292.791C283.323 290.532 280.718 288.343 278.045 286.291C275.371 284.24 272.651 282.327 269.862 280.782C268.479 280.022 267.073 279.353 265.759 278.915C265.09 278.708 264.445 278.523 263.869 278.431C263.2 278.316 262.97 278.339 261.91 278.339C260.112 278.339 258.268 278.316 256.308 278.108C255.317 277.993 254.303 277.855 253.197 277.578C252.09 277.279 250.892 276.91 249.578 276.08C248.932 275.665 248.264 275.112 247.688 274.397C247.388 274.075 247.158 273.637 246.904 273.245C246.673 272.853 246.535 272.461 246.374 272.069C245.821 270.502 245.798 269.119 245.844 267.92C246.005 265.546 246.535 263.702 247.042 261.927C247.549 260.153 248.103 258.47 248.61 256.879C249.094 255.312 249.532 253.722 249.854 252.177C250.016 251.417 250.154 250.633 250.246 249.941V249.872C250.246 249.826 250.246 249.849 250.223 250.011C250.223 250.126 250.223 250.218 250.223 250.333C250.223 250.771 250.315 251.255 250.523 251.716C250.915 252.592 251.721 253.537 253.174 253.86C253.888 254.021 254.741 253.929 255.386 253.652C256.262 253.214 255.847 253.399 255.87 253.399L255.571 253.583L254.395 254.321C252.805 255.266 251.191 256.165 249.486 256.995C247.78 257.824 245.982 258.585 243.931 259.138C242.893 259.415 241.787 259.645 240.45 259.692C239.159 259.715 237.5 259.622 235.702 258.562C234.826 258.032 234.019 257.248 233.512 256.395C233.212 255.957 233.051 255.566 232.867 255.128C232.705 254.713 232.613 254.321 232.498 253.929C232.336 253.122 232.267 252.2 232.29 251.67C232.29 251.002 232.359 250.472 232.429 249.964C232.705 247.89 233.12 246.161 233.512 244.409C235.172 237.54 236.808 231.04 237.269 224.54L238.836 203.68L239.712 193.238L240.196 188.006L240.473 185.378C240.565 184.479 240.657 183.673 240.796 182.635L240.773 182.912L241.141 179.8L241.533 176.827C241.81 174.844 242.087 172.885 242.409 170.903C243.032 166.961 243.723 163.043 244.507 159.101C245.314 155.183 246.189 151.264 247.204 147.369C248.241 143.473 249.393 139.601 250.776 135.729L250.938 138.725C247.388 131.234 244.392 123.72 241.556 116.067C238.767 108.414 236.232 100.67 234.088 92.7634C233.005 88.8219 232.037 84.8342 231.207 80.8005C230.354 76.7898 229.64 72.7099 229.132 68.584C228.602 64.458 228.28 60.286 228.326 56.0448C228.349 51.8036 228.694 47.4932 229.732 43.1829C230.769 38.8956 232.567 34.493 235.748 30.805L236.969 29.4451C237.43 28.9841 238.099 28.5 238.652 28.0621C239.874 27.2553 241.165 26.656 242.409 26.2872C244.922 25.5496 247.342 25.3652 249.601 25.4344C254.142 25.5496 258.314 26.4947 262.394 27.5319C266.45 28.6153 270.369 29.9522 274.218 31.4043C281.917 34.3086 289.339 37.697 296.646 41.2928C303.93 44.8886 311.098 48.7149 318.152 52.7486L313.979 52.9791C324.928 45.1421 336.914 39.1261 349.43 34.5391C355.7 32.2572 362.108 30.3671 368.677 28.9841C375.269 27.6011 381.839 26.7252 388.523 26.2642L388.062 26.3333C388.247 26.3103 388.431 26.2872 388.615 26.2642L389.03 26.2411L389.422 26.2181L390.229 26.172L391.842 26.0798L395.162 26.0106C397.374 26.0106 399.587 26.0337 401.8 26.172C406.226 26.4025 410.605 26.9096 414.938 27.6011C419.272 28.2926 423.536 29.1685 427.754 30.1135C429.875 30.5976 431.972 31.0816 434.07 31.6118L440.409 33.4327L443.59 34.3547C444.627 34.7005 445.641 35.1154 446.678 35.4842L452.856 37.7892C454.884 38.619 456.866 39.5871 458.849 40.486L461.845 41.846C462.836 42.307 463.781 42.8602 464.749 43.3673L470.535 46.479C472.425 47.5854 474.269 48.761 476.136 49.8904C477.058 50.4667 478.003 51.0199 478.925 51.6192L481.622 53.4862C483.397 54.754 485.264 55.9065 486.97 57.2664C494.023 62.4296 500.592 68.1691 506.839 74.2543C513.016 80.3856 518.963 86.7935 524.034 94.1003C533.992 108.207 543.027 123.259 548.744 140.062L542.497 142.113L542.405 141.814L548.628 139.647C551.809 148.867 554.668 158.041 557.526 167.284L561.698 181.137L563.749 188.075C564.095 189.274 564.418 190.311 564.786 191.394C565.155 192.478 565.547 193.561 565.985 194.644C567.668 198.978 569.765 203.196 571.886 207.599C572.416 208.705 572.923 209.834 573.43 211.01C573.914 212.255 574.444 213.407 574.767 215.159C574.905 216.219 574.929 217.164 574.606 218.294C574.283 219.423 573.546 220.599 572.6 221.336C571.678 222.097 570.664 222.489 569.811 222.696C568.935 222.927 568.129 223.019 567.368 223.042C564.349 223.134 561.813 222.604 559.324 221.982C558.079 221.659 556.857 221.313 555.659 220.921L553.861 220.322L553.054 220.022C553.676 220.253 554.621 220.207 555.267 219.838C555.935 219.492 556.304 218.962 556.512 218.478C556.719 217.971 556.765 217.464 556.696 217.003C556.673 216.888 556.65 216.772 556.627 216.68C556.581 216.519 556.581 216.565 556.604 216.588L556.627 216.68C557.341 218.639 558.379 220.737 559.485 222.742C560.614 224.748 561.882 226.845 563.058 229.15C563.634 230.303 564.21 231.547 564.648 233C565.04 234.429 565.432 236.273 564.717 238.416C564.349 239.523 563.657 240.445 562.919 241.113C562.182 241.805 561.421 242.243 560.684 242.611C559.208 243.326 557.802 243.672 556.442 243.925C555.082 244.156 553.746 244.271 552.432 244.34C551.786 244.363 551.118 244.363 550.472 244.363C550.104 244.363 549.965 244.386 549.735 244.386L549.066 244.409C547.315 244.617 545.586 245.424 543.995 246.622C542.428 247.844 540.999 249.457 539.823 251.209C539.524 251.647 539.247 252.108 539.017 252.523L538.786 252.938C538.671 253.145 538.602 253.284 538.486 253.445L537.933 254.298C537.219 255.381 536.504 256.372 535.79 257.363L534.683 258.862L533.415 260.36C532.609 261.305 531.825 262.273 530.972 263.172C529.336 265.016 527.584 266.791 525.832 268.52C518.71 275.412 510.688 281.266 502.252 286.245C498.034 288.758 493.677 290.993 489.298 293.137C484.895 295.258 480.424 297.148 475.952 298.992C474.753 299.499 473.37 298.923 472.886 297.724C472.402 296.548 472.932 295.212 474.062 294.681L473.969 294.774Z" fill="#390075"/>
<path d="M547.015 138.31C547.315 138.84 547.568 139.37 547.845 139.901L547.223 138.909L547.983 140.753C547.983 140.753 547.983 140.776 547.983 140.73C547.983 140.523 547.96 140.315 547.891 140.085C547.776 139.647 547.522 139.209 547.223 138.932L547.983 140.776C547.983 140.523 547.96 140.246 547.868 140.016L548.006 140.846L548.029 140.892C548.029 140.892 548.029 140.915 548.029 140.823C548.029 140.223 547.707 139.463 547.269 139.071L547.891 140.062C549.228 142.851 550.15 145.778 551.164 148.66L554.115 157.349C556.051 163.135 557.964 168.944 559.831 174.775C560.776 177.68 561.675 180.607 562.574 183.511C563.473 186.415 564.326 189.412 565.294 192.04C567.276 197.503 570.019 202.712 572.762 208.313C573.431 209.742 574.122 211.171 574.721 212.946C575.021 213.799 575.344 214.859 575.39 216.404C575.367 216.772 575.344 217.118 575.321 217.487C575.275 217.856 575.159 218.271 575.067 218.639C574.929 219.031 574.767 219.446 574.583 219.838C574.353 220.23 574.122 220.622 573.845 220.967C572.67 222.397 571.195 223.065 569.996 223.411C568.774 223.756 567.714 223.849 566.723 223.872C564.764 223.895 563.035 223.664 561.375 223.365C559.716 223.042 558.125 222.65 556.558 222.166C555.774 221.936 555.014 221.682 554.253 221.428L553.1 221.014L552.501 220.806L552.455 220.783C552.432 220.783 552.386 220.76 552.593 220.829C552.847 220.921 553.17 220.99 553.492 220.99C554.161 221.037 554.852 220.875 555.405 220.576C556.489 219.999 556.973 219.146 557.203 218.34C557.319 217.925 557.342 217.51 557.296 217.118C557.272 216.934 557.226 216.703 557.203 216.565L557.134 216.311L557.226 216.565L557.388 217.003L557.757 217.925C558.033 218.547 558.333 219.193 558.632 219.815C559.255 221.083 559.946 222.35 560.684 223.618C561.445 224.932 562.228 226.269 562.989 227.698C563.75 229.127 564.556 230.625 565.202 232.539C565.524 233.484 565.801 234.59 565.824 235.904C565.824 236.572 565.778 237.264 565.617 238.001C565.432 238.785 565.086 239.592 564.672 240.283C563.796 241.666 562.689 242.519 561.652 243.118C560.615 243.741 559.624 244.11 558.679 244.386C556.788 244.916 555.014 245.147 553.285 245.193C552.432 245.216 551.579 245.239 550.749 245.193L549.689 245.124C549.435 245.101 549.182 245.101 548.928 245.101C547.891 245.147 546.831 245.308 545.609 245.562C544.388 245.815 543.074 246.207 541.46 246.553L541.345 246.576C540.469 246.76 539.616 246.207 539.432 245.354C539.363 245.055 539.386 244.755 539.478 244.501C540.653 241.067 543.95 238.393 547.983 237.725C548.49 237.656 548.975 237.563 549.482 237.54L550.703 237.471C551.395 237.425 552.063 237.379 552.732 237.31C554.046 237.149 555.313 236.964 556.327 236.618C557.388 236.365 558.033 235.789 557.895 235.95C557.734 236.457 558.056 235.881 557.687 234.867C557.388 233.875 556.835 232.608 556.166 231.363C555.498 230.095 554.737 228.804 553.976 227.491C553.193 226.131 552.409 224.725 551.671 223.249C551.303 222.512 550.957 221.774 550.611 221.014L550.127 219.838L549.897 219.216L549.781 218.916L549.758 218.847L549.666 218.524C549.62 218.317 549.574 218.063 549.551 217.833C549.505 217.326 549.551 216.818 549.666 216.334C549.943 215.343 550.542 214.329 551.81 213.661C552.432 213.338 553.239 213.153 553.999 213.2C554.391 213.223 554.737 213.292 555.037 213.407L555.267 213.476L555.751 213.661L556.765 214.006C557.434 214.237 558.125 214.444 558.817 214.652C560.177 215.044 561.537 215.412 562.874 215.666C564.188 215.919 565.501 216.081 566.585 216.081C567.115 216.081 567.576 216.012 567.829 215.943C568.106 215.873 568.014 215.827 567.829 216.058C567.645 216.311 567.645 216.542 567.668 216.357C567.645 216.38 567.622 215.943 567.391 215.366C567.023 214.237 566.446 212.9 565.824 211.563C563.335 206.169 560.476 200.522 558.425 194.46C557.365 191.348 556.627 188.444 555.774 185.517L553.262 176.758C551.602 170.903 549.897 165.071 548.145 159.24L545.494 150.527C544.618 147.622 543.604 144.764 542.935 141.791L543.558 142.782C543.12 142.367 542.774 141.606 542.797 140.984V140.915V140.869L542.935 141.698C542.843 141.422 542.797 141.099 542.797 140.823L543.558 142.667C543.258 142.367 543.005 141.929 542.889 141.491C542.82 141.261 542.797 141.03 542.797 140.823V140.776L543.558 142.62L543.005 141.929L542.958 141.629C542.843 141.053 542.705 140.5 542.613 139.924V139.854C542.428 138.541 543.327 137.342 544.641 137.135C545.586 137.019 546.531 137.503 547.015 138.31Z" fill="#390075"/>
<path d="M246.028 191.302C246.328 194.414 246.121 197.48 245.936 200.568L245.383 209.788L244.83 219.008C244.622 222.097 244.507 225.071 244.184 228.39C243.562 234.821 241.949 241.021 240.658 246.899C240.335 248.351 240.058 249.803 239.943 251.025L239.897 251.463V251.809C239.874 252.108 239.943 252.062 239.897 252.154C239.966 252.362 239.943 252.177 239.736 251.993C239.528 251.832 239.505 251.878 239.805 251.901C240.082 251.924 240.589 251.855 241.119 251.739C242.202 251.509 243.47 251.025 244.715 250.472C245.982 249.918 247.227 249.25 248.495 248.535C249.117 248.19 249.739 247.821 250.362 247.429L251.284 246.853L251.491 246.715L251.676 246.599C252.16 246.277 252.897 246 253.658 245.977C255.248 245.908 256.447 246.715 257.092 247.521C257.761 248.351 258.084 249.342 258.061 250.31C258.061 250.426 258.037 250.564 258.037 250.679V250.725L258.014 250.817L257.991 251.002L257.945 251.348L257.853 251.993L257.623 253.261C257.461 254.091 257.277 254.897 257.069 255.704C256.678 257.294 256.217 258.885 255.732 260.383C255.271 261.858 254.81 263.311 254.419 264.67C254.027 266.03 253.727 267.367 253.681 268.335C253.658 268.819 253.704 269.165 253.75 269.304C253.819 269.488 253.681 269.257 253.75 269.35C253.819 269.419 254.096 269.58 254.534 269.741C254.995 269.88 255.548 270.018 256.17 270.11C257.415 270.318 258.844 270.387 260.296 270.41C261.034 270.433 261.772 270.433 262.509 270.433C262.671 270.433 262.947 270.433 263.201 270.456L264.007 270.502C264.561 270.525 265.045 270.617 265.529 270.71C266.543 270.871 267.396 271.148 268.318 271.401C269.148 271.724 270.047 272 270.807 272.369C272.444 273.061 273.896 273.89 275.325 274.743C278.16 276.495 280.696 278.477 283.07 280.598C285.467 282.696 287.565 285.093 288.809 288.366C289.132 289.196 288.694 290.141 287.864 290.463C287.565 290.579 287.242 290.602 286.942 290.533C283.531 289.772 280.926 288.181 278.46 286.476C275.97 284.793 273.55 283.11 271.107 281.658C269.908 280.921 268.687 280.206 267.488 279.653C266.889 279.33 266.312 279.146 265.713 278.869C265.137 278.708 264.561 278.454 264.03 278.385C263.754 278.316 263.5 278.247 263.27 278.247L262.924 278.201C262.809 278.178 262.694 278.178 262.463 278.178L260.066 278.132C258.429 278.086 256.77 277.993 254.972 277.74C254.073 277.602 253.105 277.394 252.091 277.094C251.076 276.749 249.947 276.265 248.794 275.366C247.642 274.49 246.628 272.922 246.282 271.609C245.867 270.272 245.821 269.05 245.867 267.99C245.982 265.892 246.42 264.209 246.858 262.596C247.296 260.982 247.803 259.507 248.264 258.032C248.725 256.58 249.14 255.22 249.509 253.814C249.693 253.122 249.855 252.431 249.993 251.739L250.177 250.725L250.247 250.241L250.27 250.011L250.293 249.918V249.872V249.849C250.293 249.918 250.27 250.057 250.27 250.149C250.247 250.933 250.5 251.716 251.053 252.408C251.583 253.076 252.621 253.768 254.004 253.699C254.649 253.676 255.318 253.422 255.709 253.169C255.871 253.076 255.732 253.145 255.756 253.145L255.709 253.169L255.64 253.215L255.364 253.399L254.326 254.044C253.635 254.459 252.92 254.874 252.206 255.266C250.754 256.05 249.278 256.787 247.711 257.456C246.144 258.124 244.484 258.724 242.571 259.115C241.603 259.3 240.543 259.438 239.298 259.346C238.076 259.254 236.486 258.908 235.057 257.779C234.711 257.502 234.411 257.179 234.112 256.833C233.858 256.488 233.604 256.142 233.397 255.773C233.236 255.427 233.051 255.059 232.913 254.713C232.798 254.367 232.706 254.044 232.636 253.699C232.521 253.03 232.429 252.223 232.475 251.739L232.498 250.933L232.567 250.218C232.798 248.374 233.143 246.807 233.512 245.262C235.011 239.154 236.555 233.369 237.339 227.537C237.707 224.725 237.938 221.544 238.238 218.478L239.09 209.258L239.943 200.038C240.22 196.973 240.496 193.884 241.257 190.864C241.58 189.597 242.871 188.813 244.161 189.136C245.176 189.389 245.867 190.242 245.959 191.21L246.028 191.302Z" fill="#390075"/>
<path d="M547.015 138.31C547.453 138.195 547.569 138.195 547.615 138.218L547.776 138.264C547.891 138.31 548.006 138.333 548.099 138.379C548.306 138.472 548.444 138.564 548.606 138.679C548.744 138.794 548.928 138.887 548.952 139.048C549.021 139.186 548.882 139.394 549.205 139.44L548.26 137.918H548.283L549.459 140.777C549.459 140.754 549.459 140.823 549.459 140.754C549.459 140.454 549.413 140.108 549.32 139.762C549.136 139.071 548.721 138.403 548.283 137.988L549.459 140.846C549.459 140.431 549.366 140.016 549.205 139.647L549.413 140.892C549.389 140.915 549.343 140.915 549.297 140.938H549.251H549.228C549.228 140.938 549.228 140.984 549.205 140.823C549.182 139.97 548.698 138.91 548.053 138.379L548.929 139.786C548.882 139.832 548.836 139.878 548.721 139.947C548.629 140.016 548.514 140.062 548.329 140.154C548.145 140.247 548.007 140.316 547.776 140.385L546.9 140.684C547.084 141.445 546.623 142.229 545.863 142.413C545.102 142.598 544.318 142.137 544.134 141.376L543.258 141.606L542.682 141.791C542.474 141.86 542.382 141.906 542.267 141.952C542.152 141.998 542.083 142.044 542.037 142.067L542.912 143.474C542.267 142.943 541.783 141.86 541.737 141.007C541.737 140.846 541.737 140.915 541.714 140.892H541.691H541.668H541.622C541.552 140.869 541.506 140.869 541.483 140.846L541.691 142.091C541.506 141.699 541.391 141.238 541.391 140.777L542.567 143.635C542.129 143.197 541.714 142.528 541.529 141.814C541.437 141.468 541.391 141.122 541.391 140.8C541.391 140.708 541.391 140.777 541.391 140.754L542.567 143.612V143.589L541.622 142.067C541.852 141.837 541.599 141.768 541.576 141.63C541.506 141.514 541.599 141.33 541.622 141.169C541.668 141.007 541.737 140.823 541.829 140.638C541.875 140.546 541.944 140.454 542.014 140.339L542.106 140.2C542.129 140.154 542.221 140.085 542.613 139.901L542.705 139.855C544.065 139.278 545.609 138.725 547.015 138.31Z" fill="#390075"/>
<path d="M416.921 216.288C418.373 221.567 429.276 223.664 436.998 222.881C442.806 222.304 451.726 217.51 451.104 211.678C450.62 207.068 445.065 204.325 431.327 206.884C420.079 209.005 415.953 212.762 416.921 216.288Z" fill="#390075"/>
<g opacity="0.7">
<path d="M432.065 209.835C431.95 210.826 434.601 211.748 436.606 211.54C437.758 211.425 441.861 210.964 442 209.881C442.138 208.797 440.893 207.921 437.044 207.968C433.54 208.014 432.18 208.843 432.065 209.835Z" fill="white"/>
<path d="M436.03 212.139C434.439 212.139 432.664 211.586 431.904 210.826C431.512 210.411 431.466 210.019 431.489 209.742C431.627 208.705 432.687 207.437 437.021 207.391C439.672 207.345 441.377 207.76 442.138 208.59C442.484 208.959 442.622 209.443 442.553 209.927C442.507 210.365 442.345 211.517 436.652 212.093C436.444 212.116 436.237 212.139 436.03 212.139ZM432.618 209.904C432.687 210.295 434.647 211.171 436.537 210.987C440.225 210.618 441.331 209.996 441.423 209.788C441.446 209.65 441.4 209.512 441.285 209.373C441.055 209.12 440.156 208.521 437.044 208.544C433.909 208.59 432.71 209.258 432.618 209.904Z" fill="#390075"/>
</g>
<g opacity="0.3">
<path d="M457.351 241.943C449.698 246.875 441.746 243.533 438.081 238.9C438.081 238.9 430.751 250.333 418.65 244.663C411.089 241.113 413.855 230.625 413.855 230.625L459.287 228.919C459.31 228.896 463.297 238.116 457.351 241.943Z" fill="#390075"/>
</g>
<path d="M457.489 225.693C457.489 225.693 461.177 234.175 455.691 237.702C448.615 242.243 441.331 236.619 437.943 232.331C437.943 232.331 430.59 244.755 420.01 240.191C412.934 237.149 415.584 227.26 415.584 227.26" fill="white"/>
<path d="M424.666 241.782C423.145 241.782 421.508 241.482 419.802 240.744C412.357 237.54 415.031 227.237 415.054 227.145L416.161 227.445C416.137 227.537 413.717 236.895 420.263 239.707C430.244 243.994 437.182 232.562 437.482 232.078L437.897 231.363L438.404 232.009C439.28 233.115 447.117 242.565 455.392 237.241C460.393 234.014 457.005 226.016 456.982 225.946L458.019 225.485C458.181 225.854 461.823 234.452 456.014 238.209C448.938 242.75 441.608 237.541 438.012 233.322C436.56 235.397 431.581 241.782 424.666 241.782Z" fill="#390075"/>
<path d="M457.835 225.554C459.264 226.569 460.117 227.929 460.647 229.473C461.177 231.017 461.223 232.746 460.808 234.567C460.739 235.028 460.578 235.466 460.393 235.927C460.255 236.388 460.002 236.826 459.748 237.241C459.517 237.679 459.195 238.071 458.849 238.439C458.526 238.831 458.158 239.154 457.766 239.454L457.189 239.915C457.005 240.053 456.821 240.145 456.636 240.26C456.267 240.491 455.876 240.698 455.507 240.883C454.677 241.205 453.87 241.574 452.994 241.736C451.266 242.15 449.422 242.15 447.739 241.782C446.056 241.413 444.489 240.791 443.083 240.007C440.294 238.37 438.012 236.273 436.053 233.829L440.017 233.553C439.026 235.097 438.081 236.319 436.905 237.54C435.753 238.739 434.485 239.869 433.056 240.837C431.604 241.759 430.037 242.611 428.262 243.072C427.847 243.234 427.363 243.28 426.925 243.349C426.464 243.418 426.026 243.533 425.565 243.533C424.643 243.533 423.698 243.649 422.799 243.464L421.416 243.28C420.978 243.165 420.54 243.026 420.102 242.911C419.664 242.773 419.249 242.658 418.788 242.45C418.327 242.243 417.912 241.989 417.474 241.736C415.769 240.629 414.455 238.877 413.855 237.056C413.256 235.235 413.21 233.415 413.487 231.755C413.763 230.072 414.316 228.528 415.215 227.122C415.331 226.937 415.561 226.891 415.746 227.007C415.838 227.076 415.907 227.168 415.93 227.283V227.306C416.322 230.349 416.852 233.276 418.097 235.212C418.696 236.181 419.41 236.826 420.24 237.356C420.471 237.471 420.701 237.587 420.932 237.725C421.162 237.863 421.485 237.932 421.762 238.048C422.038 238.163 422.315 238.278 422.614 238.37L423.49 238.555C425.818 239.085 428.216 238.209 430.382 236.826C431.443 236.088 432.457 235.212 433.402 234.221C434.324 233.253 435.223 232.078 435.868 231.063L437.689 228.113L439.833 230.787C441.377 232.723 443.382 234.383 445.48 235.466C447.601 236.503 449.813 236.941 451.75 236.411C452.257 236.342 452.718 236.088 453.202 235.927C453.432 235.789 453.663 235.65 453.916 235.535C454.032 235.466 454.17 235.42 454.262 235.351L454.516 235.166C455.184 234.682 455.645 234.083 455.968 233.184C456.29 232.285 456.337 231.179 456.475 229.934C456.613 228.689 456.751 227.352 457.143 225.762V225.716C457.189 225.485 457.443 225.347 457.673 225.393C457.743 225.485 457.789 225.508 457.835 225.554Z" fill="#390075"/>
<g opacity="0.3">
<path d="M420.033 240.214C430.613 244.755 437.966 232.331 437.966 232.331C441.331 236.619 448.638 242.243 455.714 237.702C459.287 235.397 457.42 229.081 456.774 226.292C456.383 227.767 455.783 230.626 454.907 231.939C451.542 237.08 442.783 228.205 439.395 223.918C439.395 223.918 429.506 240.837 419.871 234.521C417.197 232.769 417.059 229.012 416.529 226.73C416.114 229.657 414.708 237.909 420.033 240.214Z" fill="#390075"/>
</g>
<path d="M440.224 217.302C440.616 218.547 440.916 219.723 441.192 220.944C441.469 222.166 441.7 223.411 441.861 224.678C442.022 225.946 442.138 227.26 442.091 228.62C442.045 229.98 441.907 231.409 441.423 232.953L441.377 233.092C440.893 234.636 439.256 235.466 437.712 234.982C436.168 234.498 435.338 232.861 435.822 231.317C435.891 231.109 435.983 230.902 436.075 230.717C436.49 230.026 436.813 229.081 437.043 228.067C437.297 227.052 437.412 225.946 437.504 224.817C437.597 223.687 437.597 222.535 437.574 221.382C437.551 220.23 437.481 219.031 437.366 217.925V217.879C437.274 217.072 437.85 216.357 438.657 216.265C439.395 216.219 440.017 216.657 440.224 217.302Z" fill="#390075"/>
<path d="M571.564 216.403C571.541 223.365 557.042 218.34 553.884 217.164C553.631 217.072 553.4 217.349 553.515 217.648C553.907 218.801 554.945 221.382 557.296 225.439C560.2 230.464 562.551 234.336 561.79 237.218C560.984 240.283 556.028 241.482 550.127 241.39C546.6 241.344 543.673 242.911 541.414 244.801C540.815 245.308 540.031 245.516 539.271 245.4C480.193 235.812 458.826 192.8 431.558 196.972C417.59 199.116 410.075 211.425 404.451 219.377C392.673 236.019 356.761 288.896 288.948 289.449C288.302 289.449 287.68 289.218 287.196 288.804C279.681 282.326 269.701 274.328 262.809 274.305C256.885 274.305 251.837 274.005 250.385 271.17C249.025 268.52 250.477 264.232 252.229 258.7C253.635 254.229 254.096 251.486 254.234 250.264C254.257 249.964 253.981 249.734 253.75 249.895C250.915 251.716 237.846 259.737 236.324 252.961C235.472 249.181 240.289 237.01 241.119 224.978C242.202 209.143 243.009 199.047 243.562 192.777C243.654 191.763 244.323 190.887 245.291 190.518C338.805 156.45 489.045 135.567 543.074 139.002C544.134 139.071 545.056 139.762 545.425 140.753C545.425 140.753 545.425 140.753 545.425 140.776V140.799C545.425 140.799 545.425 140.823 545.448 140.869V140.892V140.915C545.448 140.915 545.448 140.915 545.448 140.938C546.093 142.805 551.602 158.64 560.845 190.08C564.257 201.675 571.587 212.554 571.564 216.403Z" fill="#4089FF"/>
<g opacity="0.35">
<path d="M519.632 148.982C489.436 150.02 413.141 157.626 243.147 197.295C243.285 195.589 243.424 194.091 243.539 192.754C243.631 191.717 244.299 190.864 245.268 190.495C338.781 156.427 489.021 135.544 543.051 138.979C544.111 139.048 545.033 139.739 545.379 140.73V140.754V140.777C545.379 140.777 545.379 140.8 545.402 140.846V140.869V140.892C545.402 140.892 545.402 140.892 545.402 140.915C546.047 142.782 551.556 158.617 560.799 190.057C564.187 201.629 571.517 212.485 571.517 216.358C571.517 219.308 561.375 206.469 557.157 196.972C550.98 183.096 546.162 171.825 542.728 163.734C538.902 154.514 529.682 148.637 519.632 148.982Z" fill="white"/>
</g>
<g opacity="0.3">
<path d="M540.584 245.285C543.696 242.058 546.577 241.413 549.943 241.39C546.485 241.39 543.627 242.934 541.391 244.801C541.138 245.032 540.884 245.193 540.584 245.285Z" fill="#6B184E"/>
<path d="M538.487 246.645L540.169 244.893C543.42 241.528 546.416 240.836 549.92 240.836V241.966C547.061 241.966 544.318 243.072 541.737 245.239C541.437 245.493 541.091 245.7 540.746 245.815L538.487 246.645Z" fill="#390075"/>
</g>
<g opacity="0.3">
<path d="M550.334 241.413C554.691 241.413 558.517 240.768 560.476 239.177C558.494 240.791 554.691 241.459 550.334 241.413Z" fill="#6B184E"/>
<path d="M550.772 241.989C550.611 241.989 550.473 241.989 550.334 241.989V240.86C555.037 240.86 558.402 240.122 560.108 238.739L560.822 239.615C558.471 241.551 554.138 241.989 550.772 241.989Z" fill="#390075"/>
</g>
<g opacity="0.3">
<path d="M561.906 235.996C561.79 233.507 559.716 230.556 557.227 226.73C557.457 226.615 557.641 226.5 557.849 226.384C560.085 230.303 561.86 233.461 561.906 235.996Z" fill="#6B184E"/>
<path d="M561.329 236.019C561.237 233.899 559.508 231.271 557.319 227.929L556.374 226.5L556.95 226.223C557.157 226.131 557.319 226.015 557.503 225.923L558.01 225.601L558.31 226.131C560.799 230.441 562.413 233.438 562.436 236.019H561.329Z" fill="#390075"/>
</g>
<g opacity="0.3">
<path d="M561.882 236.734C561.905 236.503 561.905 236.25 561.905 236.019C561.905 236.25 561.905 236.48 561.882 236.734Z" fill="#6B184E"/>
<path d="M562.436 236.803L561.306 236.664C561.306 236.618 561.306 236.549 561.329 236.503C561.329 236.365 561.329 236.25 561.329 236.111C561.329 236.088 561.329 236.065 561.329 236.065L562.459 236.019C562.459 236.25 562.459 236.457 562.459 236.687C562.459 236.687 562.436 236.757 562.436 236.803Z" fill="#390075"/>
</g>
<g opacity="0.3">
<path d="M559.715 224.056C559.462 225.001 558.793 225.785 557.825 226.407C557.641 226.108 557.457 225.785 557.272 225.462C554.921 221.406 553.884 218.824 553.492 217.672C553.377 217.372 553.607 217.095 553.861 217.187C554.76 217.533 556.581 218.179 558.724 218.778C559.669 220.806 560.107 222.558 559.715 224.056Z" fill="#6B184E"/>
<path d="M557.641 227.191L557.341 226.684C557.157 226.361 556.973 226.062 556.788 225.739C554.299 221.429 553.285 218.778 552.962 217.833C552.824 217.487 552.916 217.095 553.192 216.819C553.423 216.588 553.769 216.519 554.091 216.634C554.967 216.957 556.765 217.602 558.909 218.202L559.162 218.271L559.278 218.524C560.361 220.945 560.661 222.673 560.269 224.195C559.992 225.255 559.278 226.154 558.148 226.869L557.641 227.191ZM554.207 217.902C554.645 219.078 555.659 221.498 557.779 225.186C557.849 225.324 557.941 225.439 558.01 225.578C558.609 225.094 559.001 224.54 559.162 223.918C559.462 222.743 559.208 221.244 558.333 219.239C556.627 218.732 555.152 218.225 554.207 217.902Z" fill="#390075"/>
</g>
<path d="M288.901 293.299C287.334 293.299 285.835 292.745 284.637 291.708C280.764 288.366 268.963 278.155 262.762 278.155C257.207 278.155 249.578 278.132 246.927 272.922C244.899 268.981 246.42 264.209 248.333 258.147L248.541 257.525C248.587 257.387 248.633 257.248 248.656 257.11C244.368 259.069 239.966 260.199 236.716 258.862C234.572 257.986 233.074 256.165 232.544 253.768C231.945 251.094 232.843 247.36 234.18 241.713C235.356 236.757 236.831 230.603 237.246 224.656C238.191 211.102 238.998 200.246 239.712 192.386C239.943 189.873 241.602 187.707 243.954 186.854C339.911 151.91 489.367 131.695 543.304 135.13C545.54 135.268 547.522 136.536 548.582 138.449L549.274 139.14L549.32 140.247C551.049 145.272 556.396 161.153 564.579 188.997C566.262 194.714 569.028 200.43 571.264 205.017C573.799 210.226 575.459 213.661 575.459 216.404C575.459 218.87 574.398 220.968 572.462 222.282C569.581 224.287 565.04 224.126 560.43 223.134C560.499 223.25 560.568 223.365 560.637 223.503L560.983 224.103C564.141 229.565 566.654 233.899 565.524 238.186C564.648 241.505 561.26 245.447 550.058 245.239C547.983 245.216 545.909 246.046 543.903 247.752C542.451 248.973 540.538 249.504 538.671 249.204C505.871 243.879 484.573 228.666 467.446 216.45C453.87 206.746 443.152 199.116 432.157 200.776C420.908 202.505 414.293 212.001 408.968 219.631C408.507 220.299 408.046 220.968 407.585 221.59L406.825 222.65C394.585 239.984 357.337 292.722 288.947 293.276C288.924 293.299 288.924 293.299 288.901 293.299ZM253.865 245.977C254.603 245.977 255.34 246.184 256.009 246.576C257.415 247.406 258.198 249.02 258.037 250.633C257.876 252.085 257.369 255.105 255.87 259.853L255.663 260.475C254.626 263.749 253.197 268.266 253.773 269.373C254.211 269.811 256.17 270.41 262.762 270.41C270.645 270.41 280.58 278.016 289.339 285.554C353.487 284.816 387.647 236.434 400.532 218.202L401.293 217.118C401.731 216.496 402.169 215.874 402.63 215.205C408.461 206.838 416.46 195.359 430.981 193.123C445.065 190.957 456.913 199.416 471.918 210.134C488.284 221.821 508.637 236.342 539.339 241.459C542.659 238.808 546.37 237.448 550.173 237.495C555.497 237.587 557.664 236.48 558.079 236.089C558.263 234.775 555.981 230.81 554.299 227.929L553.953 227.33C551.417 222.927 550.311 220.138 549.873 218.847C549.32 217.349 549.712 215.597 550.91 214.422C552.063 213.292 553.792 212.923 555.29 213.5C561.559 215.851 566.1 216.358 567.691 216.012C567.368 214.583 565.685 211.125 564.325 208.313C561.974 203.473 559.047 197.434 557.18 191.118C549.136 163.735 543.857 148.038 542.105 142.92L541.898 142.713C489.159 139.693 340.349 160.07 247.319 193.792C246.65 201.537 245.844 212.07 244.945 225.14C244.484 231.709 242.939 238.232 241.672 243.441C240.934 246.484 240.058 250.218 240.035 251.693C241.672 251.693 245.959 250.218 251.629 246.553C252.298 246.207 253.081 245.977 253.865 245.977ZM255.87 253.099C255.847 253.122 255.801 253.146 255.778 253.169C255.801 253.146 255.824 253.122 255.87 253.099ZM567.737 216.404C567.737 216.427 567.714 216.45 567.714 216.473L571.563 216.404H567.737Z" fill="#390075"/>
<path d="M334.909 230.187C333.756 226.73 333.318 223.226 333.295 219.607C333.318 216.012 333.779 212.277 335.116 208.682C336.43 205.109 338.597 201.605 341.64 198.955C344.636 196.258 348.393 194.483 352.081 193.584C355.769 192.616 359.826 192.293 363.768 193.1C364.736 193.353 365.704 193.584 366.649 193.907C367.571 194.298 368.516 194.644 369.392 195.082C370.245 195.589 371.12 196.073 371.927 196.626C372.688 197.226 373.495 197.802 374.232 198.424C374.924 199.093 375.638 199.738 376.284 200.453C376.883 201.19 377.482 201.928 378.035 202.689C378.543 203.472 379.073 204.256 379.534 205.04C379.972 205.846 380.41 206.676 380.778 207.506C382.277 210.848 383.153 214.398 383.36 217.925C383.406 218.639 382.853 219.262 382.138 219.285C381.562 219.308 381.032 218.962 380.848 218.432V218.409C378.612 212.254 375.039 206.722 370.245 203.334C367.87 201.651 365.22 200.614 362.477 200.222C359.734 199.83 356.899 200.176 354.087 200.96C348.37 202.435 344.037 205.962 341.432 211.309C338.781 216.588 337.744 223.18 337.444 229.703V229.795C337.421 230.51 336.799 231.063 336.084 231.04C335.531 231.04 335.07 230.671 334.909 230.187Z" fill="#390075"/>
<path d="M472.679 201.076C471.549 197.802 471.135 194.483 471.065 191.026C471.065 187.591 471.503 184.065 472.771 180.63C474.016 177.219 476.09 173.877 478.995 171.341C481.853 168.759 485.449 167.077 488.952 166.224C492.479 165.302 496.328 164.979 500.108 165.763C501.03 165.993 501.975 166.224 502.874 166.524C503.75 166.892 504.649 167.238 505.502 167.653C506.309 168.137 507.139 168.598 507.922 169.128C508.66 169.705 509.421 170.258 510.112 170.857C510.758 171.502 511.449 172.125 512.048 172.793C512.602 173.508 513.201 174.199 513.708 174.914C514.192 175.674 514.699 176.389 515.137 177.173C515.552 177.956 515.967 178.717 516.313 179.524C517.719 182.705 518.548 186.07 518.71 189.458C518.756 190.173 518.203 190.795 517.465 190.818C516.889 190.841 516.382 190.496 516.174 189.965V189.942C514.008 184.157 510.619 178.925 506.101 175.79C503.866 174.222 501.376 173.254 498.818 172.908C496.259 172.563 493.585 172.862 490.958 173.623C485.587 175.029 481.553 178.302 479.087 183.304C476.574 188.26 475.56 194.483 475.191 200.638V200.73C475.145 201.444 474.546 201.998 473.808 201.951C473.278 201.928 472.84 201.56 472.679 201.076Z" fill="#390075"/>
<path d="M340.994 422.862C342.492 420.949 344.429 419.29 346.757 418.16C349.062 417.031 351.712 416.477 354.34 416.431C356.968 416.385 359.595 416.777 362.131 417.469C364.666 418.16 367.11 419.105 369.484 420.235L369.507 420.258C371.19 421.064 371.904 423.116 371.097 424.799C370.291 426.481 368.239 427.196 366.557 426.389C366.326 426.274 366.096 426.135 365.911 425.974C362.431 423.162 358.443 420.788 354.063 419.82C351.874 419.359 349.592 419.267 347.356 419.774C345.074 420.235 342.907 421.341 340.994 422.862Z" fill="#390075"/>
<path d="M344.268 437.108C346.135 436.07 348.094 435.01 350.191 434.342C352.289 433.627 354.548 433.097 356.899 433.051C359.25 432.982 361.693 433.35 363.952 434.111C366.211 434.826 368.424 435.978 370.061 436.577C371.835 437.2 372.757 439.159 372.135 440.934C371.513 442.709 369.553 443.631 367.779 442.985C367.479 442.87 367.202 442.732 366.949 442.57L366.903 442.547C364.805 441.049 363.491 439.781 361.832 438.721C360.241 437.661 358.489 436.877 356.576 436.416C354.663 435.932 352.612 435.863 350.514 436.001C348.44 436.093 346.365 436.577 344.268 437.108Z" fill="#390075"/>
<path d="M522.974 398.476C520.992 397.784 518.94 397.623 516.935 397.715C514.93 397.807 512.97 398.199 511.126 398.821C507.438 400.043 504.28 402.256 502.252 404.999C501.146 406.52 499.002 406.866 497.481 405.736C495.959 404.607 495.614 402.486 496.743 400.965C496.927 400.711 497.158 400.481 497.389 400.296L497.504 400.204C501.422 397.162 506.078 395.71 510.527 395.479C512.763 395.364 514.953 395.548 517.073 396.032C519.194 396.493 521.245 397.254 522.974 398.476Z" fill="#390075"/>
<path d="M522.974 417.676C520.946 416.616 518.71 416.247 516.543 416.247C514.353 416.27 512.21 416.685 510.181 417.331C508.153 417.999 506.217 418.898 504.488 420.028C502.782 421.134 501.261 422.471 500.27 423.877C499.186 425.421 497.066 425.79 495.521 424.707C493.977 423.623 493.608 421.503 494.692 419.958C494.876 419.705 495.06 419.497 495.291 419.313L495.429 419.198C497.619 417.377 499.993 416.247 502.367 415.441C504.741 414.634 507.162 414.173 509.582 414.011C512.002 413.873 514.422 414.011 516.751 414.588C519.032 415.141 521.268 416.132 522.974 417.676Z" fill="#390075"/>
<g opacity="0.3">
<path d="M540.561 245.286C539.916 245.954 539.247 246.761 538.556 247.683C537.772 248.72 536.965 249.942 536.136 251.348C536.136 251.371 536.136 251.371 536.112 251.371C524.288 268.543 507.116 282.05 486.232 292.261C486.232 292.261 368.977 337.877 297.176 297.517C287.979 292.146 279.589 285.554 272.328 277.602C270.807 275.942 269.332 274.213 267.903 272.415C266.128 272.116 264.445 272.3 262.647 272.715C257.323 273.914 252.574 273.96 250.73 271.724C250.661 271.655 250.615 271.563 250.546 271.493C250.477 271.378 250.408 271.263 250.339 271.148C249.924 270.318 249.762 269.327 249.808 268.197C249.808 268.059 249.831 267.898 249.831 267.759C249.831 267.621 249.854 267.483 249.878 267.344C250.016 266.123 250.339 264.763 250.753 263.264C250.846 262.942 250.938 262.596 251.053 262.273C251.238 261.651 251.445 261.006 251.652 260.337C251.837 259.807 251.998 259.277 252.183 258.724C252.298 258.355 252.413 257.986 252.505 257.663C254.764 258.009 257.738 257.686 260.895 256.972C260.918 256.972 260.942 256.972 260.965 256.972C263.754 256.35 266.52 257.525 268.525 259.553C273.527 264.578 281.133 270.871 288.763 276.242C291.644 278.27 294.502 280.16 297.245 281.82C300.956 284.056 304.806 286.015 308.793 287.744C377.459 317.501 484.48 276.541 484.48 276.541C502.16 267.921 517.188 256.903 528.575 243.303C531.987 244.133 535.536 244.871 539.224 245.47C539.708 245.493 540.146 245.447 540.561 245.286Z" fill="#390075"/>
</g>
</svg>
