<svg width="626" height="608" viewBox="0 0 626 608" fill="none" xmlns="http://www.w3.org/2000/svg">
<ellipse cx="313" cy="299.5" rx="313" ry="299.5" fill="#B0A2D7"/>
<path d="M540.603 437.781C538.902 440.733 536.995 443.705 534.904 446.698C512.354 478.781 467.152 483.803 429.35 478.617C419.653 477.284 412.642 469.228 413.175 460.023C413.729 450.634 421.97 443.336 431.953 443.275C451.346 443.152 481.932 439.708 499.132 420.971C500.28 419.7 501.387 418.367 502.412 416.953C517.684 396.063 508.705 369.434 499.767 352.296C494.663 342.517 499.316 330.709 509.894 326.343C512.621 325.215 515.491 324.682 518.299 324.703C525.126 324.764 531.727 328.044 535.519 333.805C548.619 353.772 566.269 393.378 540.603 437.781Z" fill="white"/>
<path d="M540.604 437.781C521.047 441.307 504.38 431.159 499.132 420.95C500.28 419.679 501.387 418.347 502.412 416.932C517.685 396.043 508.706 369.413 499.768 352.275C494.663 342.497 499.317 330.689 509.895 326.322C512.621 325.195 515.491 324.662 518.3 324.682C525.126 324.744 531.727 328.024 535.52 333.784C548.619 353.772 566.27 393.378 540.604 437.781Z" fill="#FFA124"/>
<g opacity="0.3">
<path d="M535.519 333.805C531.727 328.044 525.146 324.744 518.299 324.703C516.639 324.682 514.978 324.887 513.338 325.277C515.286 326.671 517.008 328.413 518.34 330.463C531.44 350.451 549.111 390.036 523.424 434.439C521.723 437.391 519.816 440.364 517.725 443.357C497.205 472.528 457.947 479.334 422.564 476.403C424.594 477.51 426.869 478.289 429.329 478.617C467.131 483.824 512.334 478.781 534.884 446.698C536.975 443.705 538.881 440.733 540.583 437.781C566.269 393.378 548.619 353.772 535.519 333.805Z" fill="#000072"/>
</g>
<path d="M454.422 484.09C444.213 484.09 435.234 483.208 428.838 482.327C417.112 480.707 408.768 471.031 409.445 459.777C410.121 448.461 420.002 439.564 431.954 439.482C450.445 439.379 483.819 436.017 499.378 414.718C513.257 395.735 505.426 371.237 496.426 354.038C493.536 348.523 493.126 342.271 495.237 336.449C497.431 330.381 502.248 325.42 508.46 322.857C519.386 318.327 532.383 322.14 538.677 331.754C553.396 354.202 572.891 399.24 538 448.871C517.582 477.858 481.584 484.09 454.422 484.09ZM518.095 328.454C515.819 328.454 513.503 328.884 511.309 329.807C507.066 331.57 503.765 334.932 502.289 339.011C500.895 342.845 501.182 346.924 503.068 350.553C513.052 369.659 521.58 397.067 505.426 419.166C487.898 443.131 451.88 446.903 431.974 447.026C423.979 447.067 417.358 452.868 416.927 460.248C416.497 467.526 422.052 473.819 429.842 474.885C451.941 477.94 506.143 481.056 531.83 444.545C564.179 398.564 546.057 356.723 532.363 335.875C529.267 331.139 523.773 328.454 518.095 328.454Z" fill="#000072"/>
<path d="M526.746 247.95C499.727 268.43 470.965 287.474 452.208 318.491C450.527 321.258 448.948 324.108 447.452 327.06C435.357 350.881 428.961 381.467 432.61 423.717C433.061 428.945 433.655 434.357 434.434 439.953C435.213 445.652 436.812 451.187 439.129 456.415C440.215 458.813 441.425 461.171 442.778 463.426C450.465 476.259 462.601 501.966 461.371 535.196C461.371 535.196 484.229 537.123 489.497 566.008C489.723 567.258 489.907 568.55 490.071 569.903C490.174 570.743 490.256 571.625 490.338 572.506C491.178 583.105 483.655 592.494 473.138 593.99C455.693 596.471 425.845 598.767 389.642 593.539C389.642 593.539 369.675 586.118 366.436 558.464C363.217 530.809 302.004 496.82 273.858 561.867C273.858 561.867 264.735 615.577 165.351 601.862C157.397 600.776 150.817 595.056 148.705 587.307C148.172 585.401 147.742 583.31 147.475 581.096C147.147 578.431 147.086 575.622 147.393 572.67C148.459 562.441 154.199 550.899 170.435 541.018C170.435 541.018 169.677 528.718 171.337 514.594C172.67 503.216 175.54 490.67 181.628 482.409C186.2 476.197 187.594 465.209 187.43 453.381C187.163 434.48 182.92 413.365 181.28 405.903C180.911 404.263 180.685 403.279 180.665 403.115C180.644 403.094 180.644 403.094 180.644 403.094C180.644 403.094 154.835 286.429 437.366 195.45C437.366 195.45 481.728 175.544 497.431 171.526C497.431 171.526 514.097 147.029 544.027 160.723C546.836 162.014 549.46 163.47 551.817 165.11C551.817 165.11 551.817 165.13 551.838 165.13C574.552 180.751 574.9 211.44 526.746 247.95Z" fill="white"/>
<path d="M219.963 459.613C219.738 487.883 198.582 511.089 171.296 514.635C172.629 503.258 175.499 490.712 181.587 482.45C193.457 466.296 183.904 418.08 181.239 405.924C203.871 413.222 220.168 434.562 219.963 459.613Z" fill="#FFA124"/>
<g opacity="0.3">
<path d="M473.118 594.052C455.672 596.533 425.824 598.829 389.621 593.601C389.621 593.601 369.654 586.18 366.415 558.526C363.197 530.871 301.984 496.882 273.837 561.929C273.837 561.929 264.715 615.639 165.331 601.924C157.377 600.838 150.796 595.118 148.685 587.369C148.152 585.463 147.721 583.372 147.455 581.158C147.127 578.493 147.065 575.684 147.373 572.732C158.812 578.493 183.719 587.8 215.576 580.891C232.161 577.304 246.101 566.09 253.501 550.838C263.321 530.543 284.026 501.126 321.356 501.433C358.871 501.741 376.05 527.448 383.43 544.975C391.692 564.614 410.572 577.857 431.851 578.862C446.775 579.559 465.84 576.566 489.518 566.07C489.743 567.32 489.928 568.612 490.092 569.965C490.194 570.805 490.276 571.687 490.358 572.568C491.158 583.146 483.614 592.556 473.118 594.052Z" fill="#000072"/>
</g>
<g opacity="0.3">
<path d="M551.817 165.131C552.125 166.033 564.589 202.297 524.163 226.18C483.224 250.37 409.629 372.201 207.581 339.073C207.581 339.073 251.984 380.319 341.405 365.252C375.681 359.471 407.579 384.173 411.146 418.757C412.581 432.594 415.123 445.202 419.428 453.627C435.07 484.131 444.254 488.6 461.371 535.238C462.601 502.007 450.465 476.3 442.778 463.467C441.425 461.192 440.195 458.855 439.129 456.456C436.812 451.208 435.213 445.673 434.434 439.995C433.676 434.398 433.081 428.986 432.61 423.759C428.981 381.488 435.377 350.922 447.452 327.101C448.948 324.129 450.547 321.279 452.208 318.532L451.367 317.856C453.807 315.17 456.123 312.362 458.255 309.41C476.828 283.641 502.494 266.401 526.746 248.012C574.9 211.44 574.552 180.752 551.817 165.131Z" fill="#000072"/>
</g>
<path d="M195.999 607.951C186.343 607.951 175.95 607.193 164.818 605.655C155.347 604.343 147.578 597.558 145.056 588.374C141.94 577.058 140.731 555.82 166.561 539.051C166.253 530.092 166.048 497.251 178.553 480.216C188.865 466.173 180.89 420.438 176.954 403.997C176.954 403.976 176.954 403.956 176.934 403.935C176.647 402.685 170.476 372.652 199.976 331.222C217.032 307.278 242.616 284.359 276.031 263.1C317.523 236.717 371.356 212.752 436.013 191.924C439.518 190.366 478.878 172.798 495.217 168.226C499.317 163.163 517.152 144.303 545.585 157.32C560.079 163.962 568.832 174.684 570.247 187.537C571.743 201.067 565.798 223.064 529.021 250.964C525.659 253.527 522.256 256.048 518.874 258.59C471.826 293.666 423.2 329.951 438.145 439.462C439.19 447.17 441.835 454.591 445.996 461.52C453.438 473.943 465.594 499.322 465.205 532.183C473.097 534.295 491.711 542.392 494.089 572.261C495.073 584.786 486.115 596 473.671 597.763C454.975 600.428 425.127 602.498 389.109 597.312C388.842 597.271 388.596 597.209 388.33 597.107C387.428 596.779 366.169 588.558 362.705 558.956C361.311 546.984 346.141 531.65 326.584 528.78C314.591 527.017 292.287 529.129 277.466 563.056C276.871 565.783 273.427 578.677 259.221 590.014C244.215 601.945 223.018 607.951 195.999 607.951ZM184.273 402.295C185.851 408.917 198.807 465.333 184.621 484.685C171.973 501.905 174.146 540.465 174.166 540.855C174.248 542.249 173.551 543.561 172.362 544.299C149.956 557.952 149.095 574.721 152.293 586.385C154.035 592.679 159.345 597.332 165.843 598.214C215.433 605.061 241.181 594.524 254.055 584.499C267.728 573.839 270.106 561.416 270.127 561.293C270.168 561.006 270.27 560.719 270.373 560.453C282.652 532.06 303.542 517.813 327.65 521.359C348.724 524.455 368.178 541.285 370.146 558.116C372.873 581.383 388.063 588.866 390.605 589.952C425.537 594.934 454.442 592.925 472.564 590.342C481.092 589.132 487.242 581.465 486.545 572.876C484.044 541.285 461.248 539.01 461.002 538.989C458.993 538.825 457.476 537.103 457.558 535.094C458.747 502.643 446.755 477.489 439.498 465.394C434.824 457.584 431.831 449.22 430.642 440.487C415.082 326.568 465.533 288.951 514.323 252.563C517.705 250.042 521.088 247.52 524.429 244.978C550.936 224.868 564.527 204.757 562.723 188.357C561.616 178.23 554.4 169.641 542.408 164.147C515.655 151.908 501.1 172.736 500.485 173.638C499.973 174.397 499.194 174.93 498.312 175.176C483.122 179.071 439.313 198.689 438.862 198.894C438.739 198.956 438.616 198.997 438.473 199.038C293.517 245.716 232.058 299.057 206.044 335.588C178.84 373.862 184.088 401.373 184.273 402.295Z" fill="#000072"/>
<path d="M546.651 165.398L539.968 166.833C537.713 167.345 535.438 167.837 533.183 168.452C530.928 169.047 528.693 169.744 526.438 170.502C524.224 171.322 522.01 172.224 519.735 173.331C521.047 171.179 522.81 169.272 524.737 167.612C526.684 165.972 528.816 164.537 531.03 163.266C533.265 162.036 535.561 160.949 537.939 160.068C539.128 159.617 540.337 159.227 541.547 158.879C542.797 158.53 543.966 158.243 545.36 158.018C547.41 157.71 549.337 159.125 549.644 161.175C549.952 163.143 548.66 165.008 546.713 165.418L546.651 165.398Z" fill="#000072"/>
<path d="M536.278 202.071C538.144 199.857 540.296 197.91 542.572 196.188C544.847 194.466 547.246 192.887 549.726 191.493C552.207 190.099 554.749 188.849 557.373 187.762C559.997 186.676 562.621 185.733 565.491 185.056C567.52 184.585 569.55 185.856 570.001 187.885C570.411 189.71 569.447 191.514 567.766 192.211L567.664 192.252C565.265 193.236 562.662 194.158 560.14 195.019L552.473 197.602L544.745 200.185C542.162 201.067 539.558 201.969 536.832 202.85H536.811C536.545 202.932 536.278 202.789 536.196 202.522C536.135 202.358 536.176 202.194 536.278 202.071Z" fill="#000072"/>
<path d="M304.874 353.935C185.134 356.19 143.724 296.002 143.724 296.002C143.724 296.002 145.487 290.836 151.042 288.007C151.042 288.007 142.125 280.443 141.94 273.78C141.776 267.097 146.04 263.797 146.368 254.592C146.676 245.388 142.945 220.952 148.951 205.228C148.951 205.228 143.949 188.562 139.542 165.479C133.371 133.294 128.328 88.583 139.501 59.022C139.706 58.4685 139.911 57.915 140.136 57.3615C140.136 57.3615 146.163 39.055 235.994 93.8105C240.258 96.3935 244.727 99.161 249.36 102.113L249.34 102.093C249.135 101.314 243.067 77.8615 254.506 63.0195L292.574 81.285C292.574 81.285 290.955 67.4065 298.622 59.678L324.042 72.7365L344.378 83.1915C344.378 83.1915 378.838 55.127 418.424 30.814C426.378 25.935 436.197 28.9485 440.564 36.2055H440.584C441.773 38.194 442.573 40.5105 442.798 43.073C445.115 69.6 446.816 116.545 439.457 178.804H439.436C439.436 178.824 439.436 178.824 439.436 178.824C439.108 181.592 438.76 184.38 438.411 187.209C438.411 187.209 438.637 188.603 439.026 190.981C439.518 194.076 440.297 198.873 441.179 204.511C442.655 214.023 444.459 225.954 445.853 236.306C445.853 236.306 449.891 247.622 453.089 251.333C456.287 255.043 448.128 265.806 448.128 265.806C448.128 265.806 453.192 267.22 456.841 270.254C460.469 273.206 424.615 351.66 304.874 353.935Z" fill="white"/>
<path d="M444.664 101.621C444.295 125.668 442.593 154.409 438.37 187.168C438.37 187.168 438.596 188.562 438.985 190.94C430.17 193.646 420.781 195.06 411.064 194.999C359.896 194.589 318.753 152.789 319.163 101.621C319.245 91.494 320.946 81.777 324.021 72.6955L344.357 83.1505C344.357 83.1505 378.818 55.086 418.403 30.773C426.357 25.894 436.177 28.9075 440.543 36.1645H440.564C441.753 38.153 442.552 40.4695 442.778 43.032C443.987 57.095 445.033 76.8775 444.664 101.621Z" fill="#FFA124"/>
<path d="M412.417 143.093C412.417 143.093 393.967 125.566 370.331 116.177C370.331 116.177 385.562 83.6432 398.19 72.5527L424.307 74.9307C424.307 74.9307 424.902 87.1282 411.454 99.6947C411.433 99.6947 427.751 117.776 412.417 143.093Z" fill="white"/>
<path d="M148.931 205.208C148.931 205.208 155.962 175.913 167.832 159.206C167.832 159.206 150.038 137.886 164.962 114.741C164.962 114.741 148.664 107.648 147.229 93.9954L171.46 86.7589C171.46 86.7589 149.648 65.2134 139.46 58.9814C139.46 58.9814 121.03 110.026 148.931 205.208Z" fill="#FF789F"/>
<path d="M438.35 187.168C438.35 187.168 425.906 159.78 412.397 143.093C412.397 143.093 427.403 117.079 411.433 99.6945C411.433 99.6945 423.713 89.8955 424.287 74.9305L398.17 72.5525C398.17 72.5525 423.959 40.675 440.523 36.165H440.543C441.732 38.1535 442.532 40.47 442.757 43.0325C445.176 70.7485 446.919 120.707 438.35 187.168Z" fill="#FF789F"/>
<g opacity="0.3">
<path d="M304.874 353.935C185.134 356.19 143.724 296.002 143.724 296.002C143.724 296.002 145.487 290.836 151.042 288.007C151.042 288.007 142.125 280.443 141.94 273.78C141.776 267.097 146.04 263.797 146.368 254.592C146.368 254.592 149.669 265.683 171.173 262.895C191.407 260.271 248.479 186.102 307.662 223.309C307.662 223.309 330.54 234.441 323.304 257.872C318.056 274.846 277.753 302.993 255.941 317.199C251.451 320.131 253.337 327.101 258.688 327.347C282.222 328.433 326.973 327.593 368.752 310.516C417.276 290.672 438.944 242.887 441.117 204.49C442.593 214.002 444.397 225.933 445.791 236.286C445.791 236.286 449.83 247.602 453.028 251.312C456.226 255.023 448.067 265.785 448.067 265.785C448.067 265.785 453.13 267.2 456.779 270.234C460.469 273.206 424.615 351.66 304.874 353.935Z" fill="#000072"/>
</g>
<g opacity="0.3">
<path d="M284.784 144.487C284.21 144.487 246.552 143.995 235.953 93.79C240.217 96.373 244.686 99.1405 249.319 102.093C249.34 102.072 254.178 129.378 284.784 144.487Z" fill="#000072"/>
</g>
<g opacity="0.3">
<path d="M205.593 127.205L197.721 135.2C197.721 135.2 172.752 100.494 148.726 78.8664C146.983 77.2879 144.195 78.2719 143.765 80.5679C141.633 92.2529 137.123 123.167 139.521 165.458C133.351 133.273 128.308 88.563 139.48 59.002C139.972 59.33 172.465 79.9529 205.593 127.205Z" fill="#000072"/>
</g>
<g opacity="0.3">
<path d="M444.664 101.622C441.117 84.053 436.033 66.0335 433.553 57.5875C432.876 55.271 429.986 54.451 428.202 56.091C393.578 87.8455 380.97 125.566 380.97 125.566L370.331 116.156C407.538 43.586 440.543 36.1445 440.543 36.1445H440.564C441.753 38.133 442.552 40.4495 442.778 43.012C443.987 57.0955 445.033 76.878 444.664 101.622Z" fill="#000072"/>
</g>
<path d="M298.437 357.748C239.356 357.748 200.181 342.291 177.487 329.048C151.739 314.022 141.059 298.77 140.608 298.114C139.931 297.13 139.767 295.9 140.157 294.772C140.218 294.567 141.551 290.836 145.159 287.536C142.166 284.276 138.312 279.11 138.168 273.862C138.066 269.906 139.214 266.954 140.321 264.104C141.428 261.275 142.453 258.61 142.596 254.449C142.678 252.255 142.494 248.955 142.268 245.121C141.612 233.354 140.731 217.385 144.974 205.085C141.51 193.174 116.93 104.491 136.61 55.9474C136.959 55.0454 138.168 52.8519 141.694 51.5809C155.573 46.5994 190.935 61.3799 244.174 94.4054C243.19 85.4264 243.333 71.2609 251.492 60.6829C252.579 59.2684 254.485 58.8174 256.105 59.5964L288.741 75.2584C289.11 69.9079 290.627 62.3434 295.916 57.0134C297.064 55.8449 298.847 55.5784 300.303 56.3164L343.886 78.7024C351.717 72.4704 382.364 48.5059 416.415 27.5959C422.298 23.9879 429.514 23.6804 435.685 26.7759C441.855 29.8714 445.894 35.8369 446.488 42.7044C449.112 72.6959 450.486 122.06 442.142 187.106C442.798 191.104 446.857 216.032 449.44 235.363C450.957 239.545 453.93 246.597 455.857 248.832C459.321 252.85 456.656 259.307 453.807 263.961C455.529 264.781 457.456 265.888 459.157 267.282C461.925 269.557 460.428 273.842 459.793 275.666C456.656 284.645 444.725 304.694 419.92 322.796C389.847 344.751 350.056 356.805 304.895 357.666C302.742 357.728 300.569 357.748 298.437 357.748ZM148.131 295.572C151.616 299.856 162.153 311.48 181.71 322.816C204.363 335.916 244.133 351.311 304.792 350.163C363.791 349.056 400.671 328.987 421.212 312.361C442.696 294.977 451.695 277.368 453.089 272.12C450.301 270.295 447.083 269.373 447.062 269.352C445.873 269.004 444.91 268.102 444.52 266.933C444.131 265.765 444.336 264.453 445.094 263.469C447.862 259.82 450.199 255.084 450.035 253.547C446.529 249.303 442.696 238.725 442.265 237.536C442.183 237.29 442.122 237.024 442.081 236.757C439.293 215.847 434.701 188.049 434.66 187.783C434.598 187.414 434.598 187.045 434.639 186.696C442.962 122.06 441.609 73.0649 439.006 43.3604C438.637 39.0964 436.136 35.4064 432.302 33.4794C428.469 31.5524 424 31.7369 420.351 33.9919C381.442 57.8744 347.043 85.7954 346.694 86.0619C345.546 87.0049 343.927 87.1689 342.594 86.4924L299.544 64.3729C295.219 70.9329 296.244 80.6909 296.244 80.8139C296.387 82.1669 295.793 83.5199 294.686 84.2989C293.579 85.0984 292.123 85.2214 290.873 84.6269L255.715 67.7554C247.741 81.2444 252.845 100.883 252.907 101.088C253.317 102.585 252.743 104.163 251.513 105.086C250.262 106.008 248.581 106.07 247.269 105.229C159.816 49.9819 144.646 58.1204 143.416 59.0224C123.941 107.648 152.19 203.158 152.477 204.121C152.723 204.921 152.682 205.761 152.395 206.54C148.213 217.487 149.115 233.867 149.73 244.691C149.956 248.709 150.14 252.173 150.058 254.695C149.874 260.127 148.439 263.838 147.291 266.831C146.348 269.291 145.589 271.218 145.651 273.678C145.753 277.45 150.919 283.026 153.42 285.137C154.384 285.957 154.876 287.187 154.732 288.438C154.589 289.688 153.83 290.775 152.703 291.349C150.427 292.538 148.951 294.28 148.131 295.572Z" fill="#000072"/>
<path d="M152.6 206.069L145.282 204.347C145.569 203.097 152.252 175.114 163.588 159.104C156.946 149.776 149.976 132.126 160.206 116.382C154.261 113.02 144.277 105.64 143.519 93.6883C143.416 91.9048 144.544 90.3058 146.266 89.8343L171.009 82.9463L173.018 90.1828L151.514 96.1688C154.302 106.173 167.155 111.462 167.299 111.523C168.426 111.974 169.267 112.938 169.554 114.127C169.841 115.295 169.554 116.546 168.754 117.468C153.564 135.242 171.009 156.439 171.194 156.664C172.342 158.038 172.362 160.047 171.235 161.441C159.857 175.545 152.662 205.762 152.6 206.069Z" fill="#000072"/>
<path d="M202.538 129.44C168.139 82.4742 137.697 62.3432 137.41 62.1382L141.51 55.8447C142.801 56.6852 173.305 76.8367 208.606 124.991L202.538 129.44Z" fill="#000072"/>
<path d="M253.03 101.376L253.173 102.073C253.214 102.319 253.276 102.585 253.358 102.852C253.481 103.385 253.624 103.918 253.768 104.451C254.055 105.517 254.403 106.583 254.752 107.669C255.121 108.735 255.531 109.781 255.92 110.847C256.371 111.872 256.781 112.938 257.253 113.983C257.745 115.008 258.216 116.033 258.729 117.058L260.389 120.051C261.599 121.978 262.808 123.905 264.202 125.73L265.207 127.124L266.314 128.436C267.072 129.297 267.769 130.219 268.569 131.039C270.209 132.659 271.787 134.34 273.612 135.775L274.944 136.902C275.395 137.271 275.826 137.661 276.318 137.989C277.261 138.665 278.204 139.362 279.126 140.08C280.028 140.838 281.033 141.433 282.017 142.13C283.001 142.806 283.964 143.503 284.928 144.282L284.948 144.303C285.071 144.405 285.092 144.59 284.989 144.713C284.907 144.795 284.805 144.836 284.702 144.815C283.513 144.528 282.345 144.18 281.176 143.811C280.008 143.421 278.819 143.073 277.753 142.499C276.646 141.966 275.539 141.412 274.452 140.838C273.899 140.572 273.366 140.244 272.874 139.895L271.336 138.87C269.225 137.579 267.359 135.959 265.412 134.401C264.448 133.602 263.587 132.72 262.685 131.88L261.332 130.588L260.082 129.215C256.679 125.566 253.788 121.425 251.349 117.058C250.734 115.972 250.18 114.844 249.606 113.717C249.094 112.569 248.561 111.421 248.089 110.252C247.618 109.084 247.167 107.895 246.757 106.685C246.531 106.091 246.367 105.455 246.183 104.84C246.101 104.533 245.998 104.225 245.916 103.897C245.834 103.569 245.752 103.262 245.67 102.852C245.24 100.822 246.552 98.8336 248.581 98.4031C250.611 97.9726 252.599 99.2846 253.03 101.314V101.335V101.376Z" fill="#000072"/>
<path d="M346.694 86.0824C345.28 87.3124 343.742 88.3784 342.184 89.4239C340.606 90.4489 338.986 91.4329 337.346 92.3554C335.706 93.2984 334.025 94.2004 332.324 95.0614C330.622 95.9224 328.88 96.7629 327.096 97.5214C326.85 97.6239 326.563 97.5009 326.461 97.2754C326.399 97.1114 326.42 96.9474 326.522 96.8039C327.65 95.2254 328.839 93.7084 330.069 92.2529C331.299 90.7974 332.549 89.3419 333.82 87.9684C335.091 86.5539 336.403 85.2009 337.756 83.8889C339.13 82.5974 340.503 81.3264 342.02 80.2194C343.701 78.9894 346.059 79.3584 347.289 81.0189C348.416 82.5974 348.15 84.8114 346.694 86.0824Z" fill="#000072"/>
<path d="M373.652 118.595L366.989 115.11C404.853 42.6016 438.165 32.9051 439.58 32.5361L441.527 39.7931L440.543 36.1646L441.548 39.7931C441.24 39.8751 409.691 49.5511 373.652 118.595Z" fill="#000072"/>
<path d="M438.37 190.92C436.853 190.92 435.439 189.997 434.865 188.501C425.64 164.475 410.224 146.045 410.06 145.861C409.076 144.692 408.891 143.052 409.588 141.72C422.155 117.386 409.096 102.38 408.543 101.745C407.825 100.945 407.477 99.8791 407.6 98.8131C407.723 97.7471 408.276 96.7836 409.158 96.1481C415.984 91.3101 419.059 83.0486 420.33 78.1901L397.862 76.2836C395.792 76.0991 394.254 74.2951 394.439 72.2246C394.623 70.1541 396.448 68.6166 398.498 68.8011L425.189 71.0766C426.214 71.1586 427.136 71.6506 427.792 72.4501C428.428 73.2496 428.735 74.2541 428.612 75.2791C428.53 75.9556 426.644 90.4902 416.476 99.8997C420.556 106.234 427.444 121.589 417.358 142.97C421.663 148.444 433.819 164.926 441.876 185.836C442.614 187.783 441.65 189.956 439.723 190.694C439.272 190.838 438.801 190.92 438.37 190.92Z" fill="#000072"/>
<path d="M197.393 134.974C197.639 132.658 198.561 130.731 199.73 129.009C200.898 127.287 202.395 125.79 204.117 124.56C205.818 123.33 207.786 122.408 209.877 121.854C211.968 121.342 214.244 121.26 216.376 121.957C214.715 123.556 213.28 124.704 211.886 125.934C210.492 127.143 209.139 128.25 207.745 129.378C206.372 130.505 204.916 131.592 203.358 132.617C201.78 133.642 200.119 134.646 198.069 135.466L198.049 135.487C197.803 135.589 197.536 135.466 197.434 135.22C197.393 135.118 197.393 135.036 197.393 134.974Z" fill="#000072"/>
<path d="M358.543 112.179C360.942 111.441 363.361 111.482 365.718 111.851C368.076 112.261 370.372 113.081 372.463 114.29C372.975 114.618 373.508 114.885 374 115.254C374.492 115.623 374.984 115.971 375.456 116.361C375.907 116.771 376.358 117.181 376.788 117.612L377.424 118.268L377.998 118.985C379.556 120.851 380.601 123.147 381.011 125.545C381.011 125.607 380.991 125.647 380.929 125.668C380.909 125.668 380.888 125.668 380.868 125.648C378.715 124.418 377.034 123.146 375.189 122.101C374.328 121.527 373.385 121.056 372.545 120.502C371.643 120.031 370.782 119.477 369.859 119.026C368.076 118.062 366.251 117.12 364.365 116.177C362.479 115.213 360.532 114.27 358.482 113.081L358.441 113.06C358.215 112.937 358.154 112.65 358.277 112.445C358.359 112.302 358.441 112.22 358.543 112.179Z" fill="#000072"/>
<path d="M299.134 286.305C302.394 286.059 312.869 284.338 317.543 272.386C318.158 270.849 317.564 269.065 316.108 268.265C310.327 265.067 294.747 258.671 279.885 272.119C278.696 273.185 278.45 274.969 279.29 276.322C281.32 279.52 286.301 284.891 297.474 286.264C298.048 286.326 298.601 286.346 299.134 286.305Z" fill="#000072"/>
<path d="M298.499 286.839C298.15 286.839 297.781 286.818 297.453 286.777C286.014 285.363 280.91 279.787 278.901 276.589C277.917 275.031 278.204 272.981 279.577 271.73C294.604 258.118 310.327 264.453 316.395 267.815C318.056 268.737 318.773 270.767 318.056 272.571C313.259 284.83 302.414 286.572 299.196 286.818C298.95 286.818 298.724 286.839 298.499 286.839ZM299.995 264.412C293.948 264.412 287.019 266.359 280.254 272.489C279.249 273.411 279.044 274.887 279.762 276.035C281.689 279.069 286.547 284.379 297.576 285.752C298.068 285.814 298.581 285.834 299.114 285.793C302.168 285.568 312.5 283.887 317.092 272.202C317.605 270.89 317.092 269.393 315.883 268.717C312.746 266.974 306.945 264.412 299.995 264.412Z" fill="#000072"/>
<path d="M301.266 281.714L301.573 283.293L301.942 284.974C302.209 286.101 302.537 287.188 302.865 288.274C303.541 290.427 304.402 292.497 305.407 294.363C305.94 295.285 306.493 296.146 307.108 296.946C307.744 297.725 308.379 298.483 309.076 299.098C310.491 300.369 312.09 301.312 313.914 301.907C314.837 302.173 315.78 302.419 316.805 302.501L317.563 302.583L318.424 302.624C318.998 302.645 319.593 302.686 320.187 302.686C322.524 302.768 324.82 302.583 327.116 302.317C331.729 301.784 336.157 300.943 341.22 299.078C341.343 299.037 341.466 299.098 341.507 299.201C341.528 299.262 341.528 299.324 341.507 299.365C340.38 301.927 338.412 304.039 336.157 305.699C333.881 307.36 331.298 308.549 328.613 309.348C325.927 310.127 323.18 310.517 320.433 310.742C319.757 310.804 319.06 310.804 318.383 310.845L317.338 310.886L316.19 310.845C314.673 310.804 313.115 310.558 311.577 310.189C308.523 309.41 305.53 307.852 303.172 305.761C300.774 303.67 298.949 301.148 297.596 298.524C296.92 297.212 296.346 295.88 295.854 294.527C295.382 293.174 295.013 291.8 294.685 290.427C294.357 289.053 294.152 287.68 293.988 286.286C293.906 285.589 293.845 284.892 293.804 284.195C293.763 283.477 293.742 282.842 293.763 281.981C293.804 279.91 295.526 278.25 297.596 278.291C299.4 278.332 300.876 279.623 301.204 281.325L301.266 281.714Z" fill="#000072"/>
<path d="M301.963 284.399C301.983 285.24 301.963 285.814 301.922 286.49C301.881 287.146 301.84 287.802 301.758 288.438C301.594 289.729 301.389 291.021 301.061 292.292C300.446 294.834 299.544 297.355 298.273 299.754C297.002 302.152 295.403 304.448 293.373 306.396C291.364 308.364 289.007 310.004 286.444 311.172C283.902 312.341 281.196 313.058 278.552 313.386C275.907 313.714 273.222 313.735 270.557 313.325C265.268 312.607 260.266 309.737 257.724 305.084C257.621 304.879 257.683 304.633 257.888 304.51C257.97 304.469 258.052 304.448 258.134 304.469H258.154C260.778 304.715 262.992 305.084 265.145 305.35C267.277 305.596 269.286 305.801 271.274 305.863C273.263 305.945 275.272 305.678 277.24 305.289C279.187 304.858 281.012 304.243 282.652 303.362C285.952 301.619 288.556 298.934 290.524 295.531C290.995 294.67 291.446 293.788 291.836 292.866C292.246 291.943 292.615 291 292.943 290.016C293.25 289.032 293.578 288.048 293.804 287.044L294.152 285.547L294.439 284.153L294.521 283.743C294.931 281.714 296.899 280.402 298.949 280.791C300.712 281.16 301.922 282.698 301.963 284.399Z" fill="#000072"/>
<path d="M272.771 309.717C272.771 309.717 285.378 329.766 304.853 336.49C304.853 336.49 322.586 324.313 324.103 306.478C324.103 306.478 305.263 309.901 298.58 291.882C298.539 291.882 289.314 311.48 272.771 309.717Z" fill="#000072"/>
<path d="M304.915 337.064L304.669 336.982C285.256 330.279 272.464 310.209 272.32 310.004L271.767 309.102L272.812 309.205C288.823 310.906 297.986 291.862 298.089 291.657L298.601 290.55L299.032 291.698C305.489 309.082 323.242 306.109 323.98 305.966L324.636 305.843L324.575 306.519C323.058 324.375 305.284 336.777 305.12 336.9L304.915 337.064ZM273.776 310.312C276.441 314.207 288.126 330.053 304.751 335.916C306.719 334.502 321.766 323.083 323.509 307.073C320.126 307.462 304.813 308.303 298.478 293.112C296.326 297.048 287.695 311.07 273.776 310.312Z" fill="#000072"/>
<path d="M283.677 322.776C283.677 322.776 301.143 310.763 319.757 319.906C319.757 319.906 314.017 330.75 304.833 336.47C304.833 336.49 293.517 332.472 283.677 322.776Z" fill="#FF5FAF"/>
<path d="M304.895 337.044L304.669 336.962C304.546 336.921 293.128 332.8 283.329 323.145L282.878 322.714L283.39 322.366C283.575 322.243 301.307 310.291 319.983 319.475L320.454 319.701L320.208 320.172C320.147 320.275 314.304 331.222 305.1 336.941L304.895 337.044ZM284.497 322.878C293.251 331.304 303.152 335.301 304.772 335.916C312.541 330.996 317.851 322.263 319.04 320.152C302.886 312.526 287.511 321.013 284.497 322.878Z" fill="#000072"/>
<path d="M304.833 340.241C304.423 340.241 304.013 340.18 303.603 340.036C283.124 332.964 270.127 312.587 269.573 311.705C268.815 310.496 268.794 308.938 269.573 307.708C270.332 306.478 271.746 305.801 273.161 305.965C286.814 307.421 295.075 290.447 295.157 290.262C295.813 288.889 297.228 288.048 298.724 288.11C300.241 288.171 301.553 289.135 302.086 290.549C307.56 305.309 322.791 302.849 323.427 302.747C324.575 302.542 325.764 302.89 326.625 303.69C327.486 304.469 327.937 305.617 327.834 306.785C326.174 326.158 307.765 339.032 306.965 339.565C306.33 340.016 305.592 340.241 304.833 340.241ZM279.885 313.058C284.579 318.839 293.189 327.818 304.198 332.246C307.785 329.356 316.764 321.279 319.552 310.537C312.849 310.352 303.993 307.831 298.273 299.549C294.706 304.551 288.536 311.131 279.885 313.058Z" fill="#000072"/>
<path d="M340.79 256.642C339.642 253.772 339.499 250.636 339.95 247.52C340.442 244.424 341.59 241.329 343.373 238.602C343.804 237.905 344.316 237.29 344.808 236.634C345.054 236.306 345.321 235.999 345.567 235.671L346.407 234.789C346.981 234.215 347.535 233.621 348.15 233.067C348.785 232.555 349.4 232.063 350.056 231.571L351.02 230.833C351.348 230.607 351.696 230.423 352.045 230.218C352.721 229.808 353.418 229.418 354.115 229.008C355.509 228.25 356.965 227.696 358.42 227.081C364.181 224.888 370.925 224.232 377.219 225.872C380.335 226.774 383.287 228.229 385.726 230.238C388.145 232.247 390.154 234.707 391.138 237.639C391.22 237.844 391.097 238.09 390.892 238.151C390.79 238.192 390.667 238.172 390.585 238.131L390.544 238.11C385.398 235.609 380.478 234.748 375.907 234.789C371.294 234.994 366.846 235.958 362.336 237.639C361.27 238.11 360.122 238.479 359.076 238.971C358.564 239.217 358.051 239.484 357.518 239.709C357.252 239.832 356.985 239.935 356.739 240.078L356.001 240.509C355.509 240.796 355.017 241.062 354.505 241.329L353.09 242.272L352.373 242.743C352.168 242.928 351.942 243.112 351.717 243.276C351.286 243.625 350.774 243.953 350.364 244.342C348.601 245.818 347.043 247.581 345.567 249.611C344.091 251.64 342.799 253.977 341.692 256.601L341.672 256.663C341.569 256.888 341.303 257.011 341.077 256.909C340.913 256.847 340.831 256.765 340.79 256.642Z" fill="#000072"/>
<path d="M202.948 263.018C202.538 259.656 203.256 256.294 204.629 253.137C206.003 250.001 208.094 247.049 210.759 244.65C211.394 244.015 212.132 243.523 212.829 242.969C213.178 242.682 213.547 242.436 213.916 242.17L215.064 241.473C215.822 241.022 216.601 240.55 217.38 240.14C218.18 239.792 219 239.423 219.82 239.095L221.05 238.582C221.46 238.439 221.89 238.336 222.3 238.213C223.141 237.967 223.981 237.742 224.822 237.516C226.503 237.106 228.204 236.942 229.906 236.696C231.607 236.573 233.309 236.553 235.031 236.532C236.773 236.696 238.495 236.758 240.217 237.106C241.939 237.475 243.661 237.803 245.322 238.48C246.142 238.787 246.982 239.033 247.782 239.464L250.139 240.673C253.194 242.498 255.9 244.876 257.909 247.684C259.897 250.493 261.332 253.65 261.558 257.032C261.578 257.278 261.394 257.483 261.148 257.504C261.025 257.504 260.902 257.463 260.82 257.401L260.779 257.36C256.043 253.26 251.062 250.985 246.224 249.755C241.283 248.668 236.322 248.463 231.054 248.955L229.127 249.201C228.491 249.283 227.815 249.304 227.22 249.447C226.605 249.57 225.99 249.693 225.355 249.796C225.047 249.857 224.719 249.898 224.412 249.96L223.51 250.206C222.915 250.37 222.3 250.513 221.685 250.657L219.943 251.251L219.061 251.538C218.774 251.661 218.508 251.805 218.221 251.907C217.667 252.153 217.032 252.358 216.499 252.666C214.223 253.732 212.071 255.167 209.939 256.889C207.807 258.631 205.798 260.722 203.891 263.182L203.85 263.244C203.686 263.469 203.358 263.51 203.153 263.326C203.03 263.285 202.969 263.162 202.948 263.018Z" fill="#000072"/>
<path d="M274.104 286.449C244.973 304.817 201.903 344.054 196.757 348.769C196.429 349.077 196.245 349.241 196.245 349.241C225.109 345.838 231.115 357.133 231.115 357.133C238.413 393.459 200.98 403.504 200.98 403.504C200.96 403.504 200.96 403.504 200.96 403.504H200.939C200.919 403.504 200.919 403.484 200.898 403.484C134.335 398.605 100.674 379.437 110.739 331.18C114.06 315.231 126.996 298.585 142.842 283.477C174.904 252.85 218.856 228.434 218.856 228.434C234.457 212.444 253.604 206.294 270.844 207.176C291.57 208.242 309.589 219.476 315.493 236.122C326.297 266.605 274.104 286.449 274.104 286.449Z" fill="white"/>
<g opacity="0.3">
<path d="M274.104 286.449C244.973 304.817 201.903 344.054 196.757 348.769C187.717 332.431 225.047 302.521 249.155 285.486C257.724 279.438 266.806 274.19 276.318 269.783C284.046 266.195 295.096 258.795 298.929 244.896C304.157 225.892 278.45 211.112 270.844 207.196C291.57 208.262 309.589 219.496 315.493 236.142C326.297 266.605 274.104 286.449 274.104 286.449Z" fill="#000072"/>
</g>
<g opacity="0.3">
<path d="M200.898 403.505C134.335 398.606 100.674 379.438 110.739 331.181C114.06 315.232 126.996 298.586 142.842 283.478C126.873 307.196 117.012 324.97 122.998 354.531C129.333 385.855 198.664 402.993 200.898 403.505Z" fill="#000072"/>
</g>
<path d="M196.204 349.221C200.16 341.164 206.351 335.486 212.645 329.992C218.897 324.436 225.211 318.922 231.648 313.53C238.085 308.139 244.543 302.809 251.205 297.663C257.868 292.518 264.694 287.536 271.849 282.903C272.054 282.78 272.259 282.678 272.464 282.575L272.607 282.514C274.206 281.878 275.969 281.079 277.65 280.3C279.331 279.5 281.012 278.66 282.652 277.778C285.953 276.015 289.171 274.129 292.226 272.059C295.301 269.988 298.212 267.754 300.877 265.314C303.562 262.895 305.981 260.271 307.929 257.463C309.876 254.634 311.332 251.62 312.008 248.525C312.664 245.429 312.541 242.272 311.68 239.177C311.434 238.398 311.27 237.639 310.901 236.84C310.573 236.061 310.307 235.261 309.897 234.503C309.159 232.965 308.277 231.51 307.334 230.095C305.407 227.266 303.029 224.724 300.323 222.49C294.911 218.062 288.331 214.966 281.402 213.183C277.937 212.301 274.35 211.768 270.762 211.543C268.958 211.399 267.154 211.44 265.35 211.44C263.546 211.543 261.742 211.625 259.959 211.871C256.371 212.322 252.804 213.039 249.36 214.126C245.896 215.192 242.493 216.504 239.254 218.185L238.024 218.8C237.614 219.005 237.224 219.251 236.835 219.476L234.457 220.85C232.94 221.875 231.361 222.777 229.906 223.925C226.892 226.016 224.186 228.517 221.501 231.059L221.439 231.12C221.193 231.346 220.906 231.551 220.64 231.735C200.304 243.892 180.378 257.299 162.071 272.346C152.908 279.869 144.113 287.803 136.241 296.474C128.39 305.084 121.276 314.514 117.135 324.887L116.418 326.835C116.172 327.491 115.926 328.126 115.782 328.803L115.249 330.771C115.085 331.427 114.88 332.062 114.757 332.8C114.183 335.609 113.732 338.438 113.466 341.246C112.912 346.884 113.097 352.501 114.265 357.831C114.962 360.455 115.7 363.079 116.91 365.498L117.32 366.42C117.463 366.728 117.648 367.015 117.812 367.302L118.796 369.065L119.923 370.746L120.497 371.586L121.133 372.386L122.404 373.985L123.798 375.481L124.495 376.24L125.253 376.937L126.77 378.351C128.902 380.114 131.116 381.836 133.535 383.292C143.17 389.257 154.507 392.845 165.966 395.387C171.727 396.678 177.569 397.621 183.432 398.523C186.364 398.974 189.275 399.63 192.206 400.368C195.117 401.147 198.049 402.008 200.96 403.361C201.042 403.402 201.083 403.505 201.042 403.587C201.021 403.628 200.98 403.669 200.919 403.689C197.844 404.53 194.769 404.96 191.714 405.104C188.66 405.309 185.605 405.186 182.592 404.96C176.544 404.304 170.538 403.341 164.531 402.172C158.525 400.983 152.559 399.487 146.676 397.539C140.792 395.571 135.011 393.111 129.538 389.872C126.791 388.294 124.187 386.387 121.666 384.358L119.841 382.738L118.939 381.918L118.099 381.037L116.397 379.274L114.839 377.367L114.06 376.404L113.363 375.379L111.969 373.349L110.739 371.197C110.534 370.828 110.329 370.479 110.124 370.11L109.591 368.983C108.074 366.031 107.111 362.853 106.27 359.696C104.774 353.3 104.528 346.781 105.061 340.467C105.327 337.31 105.799 334.174 106.373 331.099C106.475 330.34 106.721 329.52 106.926 328.741L107.541 326.363C107.726 325.564 107.992 324.805 108.279 324.047L109.12 321.771C113.896 309.738 121.563 299.693 129.763 290.57C138.066 281.468 147.188 273.309 156.598 265.622C166.069 257.975 175.909 250.882 185.974 244.158C190.997 240.796 196.101 237.516 201.247 234.339C206.433 231.182 211.62 228.148 216.991 225.196L216.13 225.852C218.979 222.982 221.911 220.132 225.191 217.693C226.769 216.381 228.491 215.294 230.172 214.126L232.796 212.527C233.227 212.26 233.678 211.994 234.108 211.748L235.461 211.03C239.069 209.062 242.882 207.504 246.798 206.192C250.693 204.86 254.752 204.019 258.852 203.445C260.902 203.138 262.952 203.015 265.022 202.871C267.093 202.83 269.163 202.769 271.234 202.912C275.375 203.117 279.495 203.671 283.534 204.675C291.59 206.705 299.38 210.292 306.002 215.663C312.582 221.055 317.912 228.271 320.331 236.881C321.541 241.247 321.725 246.044 320.721 250.513C319.716 255.003 317.666 259.041 315.227 262.588C310.245 269.66 303.747 274.908 297.023 279.357C293.64 281.591 290.155 283.58 286.588 285.404C284.805 286.327 283.001 287.208 281.176 288.028C279.331 288.869 277.568 289.648 275.559 290.427L276.297 290.058C269.389 294.383 262.685 299.221 256.023 304.1C249.36 309 242.841 314.145 236.363 319.352C229.885 324.559 223.51 329.889 217.175 335.26C210.882 340.713 204.588 346.105 196.245 349.323C196.224 349.323 196.204 349.323 196.183 349.303C196.204 349.241 196.204 349.241 196.204 349.221Z" fill="#000072"/>
<path d="M278.491 211.44C276.933 211.911 275.211 212.444 273.591 212.998C271.931 213.551 270.291 214.125 268.651 214.74C265.371 215.991 262.111 217.282 258.913 218.738C255.715 220.193 252.558 221.772 249.483 223.494C246.388 225.216 243.456 227.163 240.545 229.234H240.525C240.299 229.398 240.012 229.336 239.848 229.111C239.725 228.926 239.725 228.68 239.869 228.516C242.226 225.749 244.85 223.186 247.659 220.849C250.508 218.553 253.44 216.339 256.535 214.392C259.631 212.444 262.788 210.558 266.047 208.877C269.327 207.176 272.566 205.638 276.154 204.265C278.101 203.527 280.274 204.49 281.012 206.417C281.75 208.365 280.787 210.538 278.86 211.276C278.778 211.317 278.696 211.337 278.593 211.358L278.491 211.44Z" fill="#000072"/>
<path d="M312.357 232.104C310.573 232.555 308.544 233.067 306.637 233.621L303.726 234.441L300.815 235.322C296.941 236.532 293.107 237.844 289.315 239.34C285.502 240.796 281.771 242.436 278.06 244.24C274.309 245.982 270.762 248.073 267.031 250.123C266.97 250.164 266.888 250.144 266.847 250.062C266.826 250.021 266.826 249.959 266.867 249.918C267.544 249.119 268.261 248.319 268.958 247.52L270.045 246.331L271.193 245.224L273.53 243.03L276.01 241.001C276.42 240.673 276.83 240.324 277.261 239.996L278.573 239.053C279.454 238.438 280.315 237.782 281.197 237.188C283.021 236.06 284.805 234.851 286.711 233.846C290.463 231.755 294.358 229.89 298.376 228.352C300.385 227.573 302.435 226.876 304.505 226.261C306.596 225.646 308.626 225.113 310.922 224.724C312.972 224.375 314.919 225.749 315.268 227.799C315.596 229.746 314.386 231.591 312.5 232.083L312.357 232.104Z" fill="#000072"/>
</svg>
