<svg width="626" height="599" viewBox="0 0 626 599" fill="none" xmlns="http://www.w3.org/2000/svg">
<ellipse cx="313" cy="299.5" rx="313" ry="299.5" fill="#B0A2D7"/>
<path d="M112.699 423.869C122.136 507.351 216.003 558.418 343.651 543.976C394.63 538.221 438.025 523.469 471.166 502.522C479.302 497.384 486.799 491.893 493.657 486.028C528.826 456.062 546.731 417.32 541.968 375.359C538.859 347.841 526.423 324.005 506.578 304.932C466.182 266.079 395.093 246.918 309.517 256.598C194.416 269.607 119.226 327.246 112.456 399.658C111.707 407.574 111.773 415.645 112.699 423.869Z" fill="#F5AF41"/>
<g opacity="0.3">
<path d="M112.037 415.093C112.147 418.004 112.368 420.936 112.699 423.869C113.25 428.632 114.044 433.284 115.146 437.849C132.963 512.973 223.301 557.58 343.65 543.975C394.63 538.22 438.024 523.469 471.165 502.521C472.863 501.441 474.561 500.338 476.215 499.236C476.854 498.795 477.494 498.354 478.133 497.913C483.646 494.142 488.805 490.173 493.656 486.028L492.245 483.757L482.631 468.344C482.631 468.344 470.835 464.242 469.622 483.161C469.137 490.923 464.021 497.692 456.767 500.471C432.049 509.952 403.935 516.721 373.065 520.227C317.697 526.49 268.702 520.426 230.181 504.748C223.654 502.102 222.441 493.326 228.064 489.071C232.474 485.741 237.193 482.853 242.198 480.471C243.213 479.986 244.205 479.545 245.219 479.082C261.801 500.978 276.111 513.282 293.906 498.861C308.348 485.653 321.336 481.772 332.449 489.82C353.11 507.306 385.567 507.901 399.415 480.14C400.054 478.046 400.738 476.061 401.421 474.143C406.603 459.656 412.843 449.888 420.34 444.111C428.388 437.871 437.936 436.283 449.138 438.356C454.165 440.627 459.082 443.758 463.867 447.727C482.587 466.05 501.859 450.042 495.685 429.381C494.45 424.089 493.458 418.908 493.083 414.035C492.532 406.912 495.178 399.834 500.271 394.785C521.241 373.97 524.482 350.817 505.718 324.798C465.322 285.946 394.233 266.785 308.657 276.465C256.332 282.374 212.276 297.522 179.135 319.065C168.441 326.033 158.871 333.64 150.536 341.843C128.994 363.011 115.653 387.949 112.037 415.093ZM253.819 364.598C258.317 364.951 262.705 363.562 266.431 361.026C274.987 355.205 283.233 356.66 291.304 362.592C302.615 373.308 315.757 366.208 329.516 352.868C346.032 337.874 389.867 343.916 388.588 371.368C388.588 371.368 327.069 434.673 220.016 393.837C217.172 366.98 234.679 363.077 253.819 364.598Z" fill="#000072"/>
</g>
<g opacity="0.55">
<path d="M256.266 266.476C269.055 263.61 282.484 261.383 296.485 259.795C382.083 250.115 453.151 269.277 493.546 308.129C513.391 327.224 525.827 351.038 528.936 378.556C536.985 449.866 479.721 511.849 383.318 537.383C487.571 514.12 550.369 449.844 541.968 375.381C538.859 347.863 526.423 324.027 506.578 304.953C466.182 266.101 395.093 246.94 309.517 256.62C290.664 258.737 272.87 262.066 256.266 266.476Z" fill="white"/>
</g>
<g opacity="0.4">
<path d="M112.037 415.093C115.654 387.95 128.994 363.011 150.471 341.887C156.931 326.651 166.699 312.384 179.466 299.551C139.997 325.372 116.139 360.343 112.456 399.658C111.971 404.73 111.839 409.889 112.037 415.093Z" fill="#792937"/>
<path d="M112.611 415.159L111.486 415.115C111.266 409.977 111.42 404.752 111.905 399.592C115.543 360.762 139.423 325.063 179.18 299.066L183.678 296.133L179.907 299.948C167.162 312.803 157.438 326.981 151.044 342.108L150.912 342.284C129.369 363.43 116.139 388.633 112.611 415.159ZM175.409 302.969C138.586 328.503 116.491 362.68 113.03 399.724C112.743 402.679 112.589 405.656 112.545 408.632C117.241 384.245 130.118 361.181 150.03 341.556C155.829 327.819 164.362 314.854 175.409 302.969Z" fill="#000072"/>
</g>
<path d="M112.456 399.658C113.779 425.06 126.215 436.548 144.252 440.98C158.078 444.375 169.786 453.702 175.299 466.822C185.816 491.893 199.333 499.809 214.79 482.39C222.772 473.371 232.232 465.72 243.124 460.582C244.139 460.097 245.131 459.656 246.145 459.193C262.727 481.089 277.037 493.392 294.832 478.972C309.274 465.764 322.262 461.883 333.375 469.931C354.036 487.417 386.493 488.012 400.341 460.251C400.98 458.157 401.664 456.172 402.347 454.254C407.529 439.767 413.769 429.999 421.266 424.222C429.315 417.981 438.862 416.394 450.064 418.467C455.091 420.738 460.008 423.869 464.793 427.838C483.513 446.161 502.785 430.153 496.611 409.492C495.376 404.2 494.384 399.018 494.009 394.145C493.458 387.023 496.104 379.945 501.198 374.896C522.167 354.081 525.408 330.928 506.644 304.909C466.248 266.057 395.159 246.896 309.583 256.575C257.258 262.485 213.202 277.633 180.061 299.176C140.217 325.063 116.16 360.144 112.456 399.658ZM389.514 351.457C389.514 351.457 327.995 414.762 220.942 373.926C218.098 347.091 235.583 343.188 254.745 344.709C259.243 345.062 263.631 343.673 267.357 341.137C275.913 335.316 284.159 336.771 292.23 342.703C303.541 353.419 316.683 346.319 330.442 332.979C346.958 317.963 390.815 324.004 389.514 351.457Z" fill="#FF40B2"/>
<g opacity="0.3">
<path d="M112.456 399.658C113.779 425.06 126.215 436.548 144.252 440.98C158.078 444.376 169.786 453.703 175.299 466.823C185.816 491.893 199.333 499.809 214.79 482.39C222.772 473.371 232.232 465.72 243.124 460.582C244.139 460.097 245.131 459.656 246.145 459.193C262.727 481.089 277.037 493.393 294.832 478.972C309.274 465.764 322.262 461.883 333.375 469.932C354.036 487.417 386.493 488.013 400.341 460.252C400.98 458.157 401.664 456.172 402.347 454.254C401.487 454.673 400.495 455.357 399.371 456.349C376.968 476.128 351.412 447.86 351.412 447.86C317.984 424.046 311.722 457.121 293.619 459.612C289.473 460.186 287.18 459.612 286.1 458.422C280.146 451.807 271.437 448.411 262.925 451.013C251.68 454.43 242.882 457.473 242.882 457.473C217.789 474.672 200.281 479.237 196.136 461.685C192.255 435.159 181.208 428.852 181.208 428.852C125.355 404.553 128.178 354.103 181.01 299.97L180.017 299.132C140.217 325.063 116.16 360.145 112.456 399.658Z" fill="#000072"/>
</g>
<g opacity="0.4">
<path d="M111.53 419.569C111.905 426.714 113.162 432.777 115.146 437.849C114.044 433.307 113.25 428.654 112.699 423.869C112.368 420.914 112.148 418.004 112.037 415.093C111.839 416.571 111.685 418.07 111.53 419.569Z" fill="#792937"/>
<path d="M114.639 438.047C112.567 432.799 111.332 426.581 110.979 419.591V419.547V419.503C111.155 417.673 111.31 416.284 111.508 415.005L112.633 415.071C112.743 418.026 112.964 420.958 113.294 423.803C113.846 428.566 114.661 433.24 115.72 437.716L114.639 438.047Z" fill="#000072"/>
</g>
<g opacity="0.55">
<path d="M506.6 304.932C466.204 266.079 395.115 246.918 309.539 256.598C222.067 266.476 157.659 302.153 128.817 350.465C160.613 308.173 221.449 277.457 301.601 268.395C387.177 258.715 458.266 277.876 498.662 316.75C512.421 335.824 514.362 353.353 506.181 369.538C522.52 350.134 523.755 328.746 506.6 304.932ZM496.589 409.537C495.355 404.245 494.362 399.085 493.987 394.19C493.723 390.993 494.12 387.795 495.112 384.797C494.495 385.436 493.877 386.098 493.238 386.737C488.144 391.764 485.498 398.842 486.049 405.987C486.402 410.882 487.394 416.041 488.651 421.333C489.974 425.788 490.129 430.021 489.357 433.726C496.17 429.624 499.787 420.209 496.589 409.537Z" fill="white"/>
</g>
<g opacity="0.55">
<path d="M495.112 384.775C499.831 379.813 503.513 374.72 506.181 369.516C504.637 371.346 502.962 373.132 501.176 374.94C498.353 377.719 496.303 381.114 495.112 384.775Z" fill="white"/>
<path d="M493.811 386.957L494.561 384.598C495.773 380.828 497.912 377.344 500.757 374.521C502.587 372.713 504.219 370.949 505.74 369.141L508.893 365.393L506.666 369.758C503.998 375.006 500.25 380.188 495.509 385.149L493.811 386.957ZM503.094 373.794C502.609 374.301 502.102 374.83 501.573 375.337C499.588 377.322 497.956 379.637 496.766 382.151C499.169 379.416 501.286 376.616 503.094 373.794Z" fill="#000072"/>
</g>
<path d="M301.138 550.392C255.583 550.392 214.989 541.506 182.002 524.13C139.534 501.75 113.515 466.293 108.774 424.31C104.033 382.327 121.188 342.196 157.107 311.348C193.49 280.081 246.035 259.795 309.054 252.673C371.389 245.639 429.204 253.819 471.871 275.737C514.869 297.831 541.152 333.045 545.893 374.896C550.634 416.879 533.192 457.253 496.788 488.542C459.942 520.272 407.132 540.778 344.113 547.9C329.384 549.576 315.03 550.392 301.138 550.392ZM351.985 258.119C338.314 258.119 324.269 258.913 309.958 260.545C248.505 267.49 197.437 287.137 162.267 317.345C127.891 346.87 112.125 383.562 116.624 423.45C121.056 462.765 145.597 496.039 185.684 517.163C226.697 538.772 282.638 546.908 343.209 540.073C403.781 533.237 456.48 512.819 491.65 482.588C526.004 453.041 542.497 415.137 538.043 375.822C533.611 336.683 508.849 303.652 468.255 282.793C436.701 266.542 396.394 258.119 351.985 258.119Z" fill="#000072"/>
<path d="M481.441 439.811C475.642 439.811 468.872 437.386 462.125 430.815C445.742 417.298 427.683 414.189 406.934 421.311C404.861 422.017 402.634 420.914 401.907 418.864C401.179 416.813 402.303 414.564 404.354 413.836C427.661 405.854 448.829 409.559 467.285 424.839C467.373 424.905 467.461 424.972 467.527 425.06C474.341 431.741 481.75 433.725 487.35 430.352C492.135 427.463 495.663 420.253 492.797 410.683C492.775 410.595 492.753 410.529 492.73 410.441C491.253 404.112 490.393 399.063 490.04 394.498C489.401 386.186 492.444 378.027 498.375 372.14C518.705 351.986 520.337 330.752 503.359 307.225C502.08 305.461 502.477 302.991 504.241 301.712C506.005 300.433 508.474 300.83 509.753 302.594C529.113 329.429 527.151 354.698 503.932 377.74C499.654 381.996 497.449 387.883 497.912 393.881C498.221 398.004 499.015 402.657 500.382 408.522C503.866 420.275 500.272 431.763 491.407 437.099C488.717 438.731 485.278 439.811 481.441 439.811Z" fill="#000072"/>
<path d="M279.617 489.159C278.713 489.159 277.831 489.115 276.927 489.005C264.116 487.439 253.025 474.915 242.948 461.596C241.625 459.854 241.978 457.385 243.72 456.062C245.462 454.739 247.931 455.092 249.254 456.834C257.854 468.189 267.975 479.942 277.875 481.155C282.506 481.706 287.202 480.03 292.23 475.995C308.745 460.957 323.342 457.848 335.646 466.734C335.734 466.8 335.8 466.866 335.889 466.933C346.583 475.995 360.805 480.074 372.977 477.561C383.296 475.444 391.477 468.961 396.614 458.796C407.595 423.803 424.794 409.779 450.747 414.63C452.886 415.027 454.297 417.1 453.9 419.238C453.503 421.377 451.431 422.788 449.292 422.392C433.835 419.503 416.393 421.884 404.067 461.442C404.001 461.64 403.935 461.839 403.825 462.037C397.563 474.606 387.442 482.654 374.564 485.3C359.901 488.321 343.584 483.735 330.905 473.062C327.466 470.593 317.411 463.691 297.456 481.927C297.389 481.971 297.345 482.037 297.279 482.081C291.48 486.778 285.549 489.159 279.617 489.159Z" fill="#000072"/>
<path d="M198.716 495.686C197.79 495.686 196.864 495.62 195.937 495.465C186.743 493.944 178.584 484.837 171.682 468.366C166.831 456.79 156.225 447.992 143.348 444.838C120.791 439.304 109.391 424.089 108.465 398.379C108.377 396.196 110.097 394.366 112.28 394.3C114.463 394.19 116.293 395.932 116.359 398.115C117.153 420.12 126.326 432.535 145.222 437.187C160.525 440.958 173.138 451.476 178.959 465.345C184.67 478.95 190.976 486.667 197.238 487.704C201.648 488.431 206.566 485.785 211.858 479.81C220.722 469.799 230.688 462.148 241.449 457.054C249.673 453.173 257.413 450.505 265.086 448.896C267.225 448.455 269.32 449.822 269.761 451.961C270.202 454.099 268.835 456.194 266.696 456.635C259.64 458.113 252.474 460.582 244.822 464.198C235.032 468.829 225.925 475.841 217.767 485.058C211.439 492.114 205.066 495.686 198.716 495.686Z" fill="#000072"/>
<path d="M485.961 455.158C482.896 458.796 481.838 463.691 482.631 468.388C483.954 476.238 485.939 493.062 482.212 508.651C478.552 532.024 511.385 541.153 515.486 486.425C516.941 457.495 496.28 442.876 485.961 455.158Z" fill="#FF40B2"/>
<path d="M493.833 527.526C491.429 527.526 489.136 526.754 487.13 525.211C482.72 521.837 480.625 515.443 481.705 508.541C485.366 493.216 483.536 476.855 482.124 468.454C481.264 463.405 482.521 458.443 485.564 454.827C489.224 450.461 494.384 449.16 499.676 451.255C508.21 454.607 516.963 467.043 515.993 486.425C513.744 516.567 503.204 524.439 498.794 526.423C497.162 527.151 495.487 527.526 493.833 527.526ZM494.825 451.299C491.628 451.299 488.673 452.732 486.358 455.467C483.514 458.862 482.345 463.515 483.139 468.278C484.572 476.745 486.424 493.282 482.72 508.739C481.705 515.244 483.624 521.242 487.747 524.395C490.812 526.732 494.693 527.129 498.375 525.475C502.631 523.557 512.774 515.928 514.979 486.359C515.927 467.506 507.526 455.422 499.323 452.203C497.78 451.608 496.28 451.299 494.825 451.299Z" fill="#650000"/>
<g opacity="0.55">
<path d="M507.217 490.372C505.74 510.106 500.536 521.528 494.649 526.997C503.226 526.357 513.347 515.222 515.486 486.403C516.919 457.826 496.744 443.229 486.314 454.761C496.545 454.54 508.342 468.277 507.217 490.372Z" fill="white"/>
</g>
<path d="M199.443 526.137C200.017 546.224 196.224 558.925 186.765 562.056C181.451 563.82 175.629 561.284 172.983 556.345C155.211 523.248 170.382 506.578 185.111 509.07C193.314 510.437 199.201 517.824 199.443 526.137Z" fill="#FF40B2"/>
<path d="M183.369 563.115C179.003 563.115 174.726 560.667 172.543 556.588C163.414 539.565 161.937 524.549 168.508 515.398C172.388 509.996 178.628 507.438 185.221 508.563C193.512 509.974 199.708 517.361 199.973 526.137C200.568 547.547 196.313 559.454 186.941 562.563C185.773 562.916 184.56 563.115 183.369 563.115ZM182.201 509.335C177.085 509.335 172.41 511.716 169.323 516.016C162.995 524.836 164.494 539.455 173.425 556.125C175.982 560.866 181.627 563.225 186.589 561.593C195.342 558.705 199.488 546.776 198.914 526.181C198.672 517.89 192.829 510.922 185.023 509.599C184.075 509.401 183.127 509.335 182.201 509.335Z" fill="#650000"/>
<g opacity="0.55">
<path d="M169.918 514.45C172.146 513.877 174.483 513.789 176.842 514.186C185.045 515.575 190.91 522.94 191.153 531.253C191.572 545.783 189.697 556.456 185.045 562.453C185.64 562.365 186.213 562.233 186.787 562.034C196.246 558.925 200.039 546.202 199.465 526.115C199.245 517.802 193.358 510.437 185.155 509.048C179.488 508.1 173.799 509.952 169.918 514.45Z" fill="white"/>
</g>
<path d="M493.811 530.966C490.68 530.966 487.659 529.952 485.035 527.945C479.611 523.8 477.031 516.17 478.31 508.012C478.332 507.902 478.354 507.813 478.376 507.703C481.882 493.018 480.118 477.164 478.729 469.027C477.715 462.986 479.236 457.01 482.94 452.6C487.549 447.132 494.274 445.412 500.955 448.036C510.613 451.828 520.514 465.499 519.433 486.579C517.118 517.493 506.402 526.754 500.206 529.533C498.089 530.503 495.928 530.966 493.811 530.966ZM486.094 509.379C485.322 514.605 486.733 519.301 489.82 521.661C491.893 523.248 494.428 523.491 496.964 522.344C499.853 521.043 509.423 514.605 511.539 486.094C512.355 469.777 505.365 458.267 498.045 455.401C495.597 454.43 492.025 454.055 488.982 457.694C486.777 460.318 485.895 463.956 486.513 467.704C487.99 476.414 489.886 493.371 486.094 509.379Z" fill="#000072"/>
<path d="M183.259 566.577C177.68 566.577 172.322 563.468 169.5 558.22C159.709 539.984 158.342 523.667 165.707 513.414C170.293 507.02 177.989 503.866 185.773 505.189C195.673 506.865 203.082 515.641 203.368 526.049C204.03 549.179 199.003 562.189 188 565.827C186.434 566.312 184.846 566.577 183.259 566.577ZM182.222 512.753C178.209 512.753 174.527 514.627 172.124 518C169.5 521.639 164.671 532.509 176.467 554.471C178.231 557.779 182.134 559.41 185.53 558.308C194.438 555.375 195.849 539.257 195.497 526.247C195.298 519.588 190.668 514.009 184.472 512.951C183.722 512.819 182.972 512.753 182.222 512.753Z" fill="#000072"/>
<path d="M470.35 349.847C469.534 349.847 468.696 349.605 467.991 349.076L451.894 337.124C450.152 335.824 449.777 333.354 451.078 331.59C452.379 329.848 454.849 329.473 456.613 330.774L472.709 342.725C474.451 344.026 474.826 346.496 473.525 348.26C472.753 349.296 471.563 349.847 470.35 349.847Z" fill="white"/>
<path d="M153.535 388.589C152.719 388.589 151.904 388.346 151.198 387.817C149.434 386.516 149.059 384.047 150.36 382.305L161.473 367.2C162.774 365.436 165.244 365.062 166.986 366.363C168.75 367.663 169.125 370.133 167.824 371.875L156.71 386.979C155.939 388.016 154.748 388.589 153.535 388.589Z" fill="#000072"/>
<path d="M216.157 433.88C215.341 433.88 214.526 433.637 213.82 433.108L197.15 420.826C195.386 419.525 195.011 417.056 196.312 415.314C197.613 413.55 200.083 413.175 201.825 414.476L218.495 426.758C220.259 428.059 220.633 430.528 219.332 432.27C218.583 433.329 217.37 433.88 216.157 433.88Z" fill="white"/>
<path d="M371.345 433.88C371.081 433.88 370.816 433.858 370.573 433.792C368.435 433.373 367.045 431.278 367.486 429.139L371.433 409.427C371.852 407.288 373.947 405.899 376.086 406.34C378.225 406.758 379.614 408.853 379.173 410.992L375.226 430.705C374.851 432.579 373.197 433.88 371.345 433.88Z" fill="white"/>
<path d="M284.115 437.672C282.153 437.672 280.477 436.217 280.212 434.233L277.721 415.38C277.434 413.219 278.956 411.234 281.116 410.948C283.277 410.661 285.262 412.183 285.548 414.344L288.04 433.196C288.327 435.357 286.805 437.342 284.644 437.628C284.468 437.65 284.292 437.672 284.115 437.672Z" fill="#000072"/>
<path d="M437.936 385.37C436.503 385.37 435.114 384.576 434.408 383.209C433.416 381.269 434.188 378.887 436.128 377.895L453.416 369.075C455.356 368.083 457.737 368.854 458.73 370.795C459.722 372.735 458.95 375.117 457.01 376.109L439.723 384.929C439.149 385.216 438.532 385.37 437.936 385.37Z" fill="#000072"/>
<path d="M404.861 359.483C404.861 359.483 402.436 361.225 398.4 363.827C388.72 370.045 369.802 381.092 352.889 384.554C352.514 384.642 352.14 384.731 351.743 384.797H351.721C350.75 388.986 350.067 393.595 349.78 398.622C349.251 408.037 341.93 415.645 332.515 416.262L332.096 416.284C331.809 416.306 331.523 416.328 331.258 416.328C320.277 416.571 311.435 407.222 312.317 396.152C312.494 394.102 312.67 392.117 312.89 390.221C312.935 389.912 312.957 389.604 313.001 389.295C293.486 394.807 266.872 392.492 249.342 387.575C248.262 387.266 247.226 386.958 246.233 386.649C244.381 386.053 242.661 385.436 241.096 384.797C240.39 386.847 239.817 388.942 239.354 391.081C237.391 399.923 229.145 405.898 220.126 405.061C212.232 404.333 206.102 398.622 204.316 391.434C203.963 390.045 203.787 388.611 203.787 387.112C203.787 385.965 203.897 384.797 204.118 383.606C207.006 368.744 213.71 355.977 223.235 348.436C234.459 351.413 245.726 353.662 257.038 355.228C279.507 358.315 302.152 358.623 324.996 356.242C346.914 353.949 369.03 349.186 391.322 342.02C393.461 341.336 395.578 340.653 397.739 339.903L404.861 359.483Z" fill="#8E8FB3"/>
<path d="M330.839 416.901C325.613 416.901 320.564 414.718 316.948 410.904C313.221 406.957 311.325 401.555 311.744 396.13C311.876 394.477 312.075 392.294 312.317 390.177C312.317 390.133 312.317 390.111 312.339 390.067C292.516 395.403 266.453 392.955 249.188 388.126C248.108 387.817 247.071 387.509 246.057 387.178C244.447 386.671 242.882 386.12 241.427 385.546C240.853 387.31 240.324 389.207 239.883 391.213C237.876 400.298 229.343 406.494 220.06 405.634C212.21 404.906 205.661 399.261 203.765 391.588C203.412 390.155 203.214 388.655 203.214 387.134C203.214 385.943 203.324 384.73 203.567 383.54C206.565 368.127 213.423 355.514 222.882 348.039L223.103 347.863L223.368 347.929C234.481 350.884 245.837 353.155 257.104 354.698C279.264 357.741 302.086 358.094 324.93 355.713C346.605 353.441 368.876 348.679 391.146 341.512C393.395 340.807 395.49 340.101 397.541 339.396L398.07 339.219L405.456 359.704L405.104 359.946C405.082 359.968 402.612 361.732 398.621 364.29C388.831 370.574 369.868 381.621 352.911 385.105C352.647 385.171 352.382 385.216 352.118 385.282C351.169 389.515 350.552 394.014 350.287 398.666C349.758 408.39 342.107 416.196 332.515 416.857L331.787 416.901C331.589 416.901 331.413 416.923 331.214 416.923C331.126 416.901 330.994 416.901 330.839 416.901ZM313.684 388.501L313.552 389.361C313.508 389.67 313.464 389.978 313.442 390.287C313.199 392.382 313.001 394.565 312.869 396.218C312.472 401.334 314.236 406.406 317.764 410.132C321.27 413.836 326.187 415.887 331.236 415.777C331.413 415.777 331.589 415.777 331.765 415.755L332.493 415.711C341.511 415.115 348.7 407.751 349.207 398.6C349.472 393.749 350.133 389.052 351.147 384.664L351.258 384.223H351.699C351.985 384.157 352.338 384.091 352.713 384.003C369.515 380.541 388.324 369.582 398.048 363.342C401.157 361.335 403.34 359.836 404.133 359.263L397.408 340.608C395.512 341.248 393.572 341.887 391.521 342.549C369.184 349.737 346.826 354.522 325.062 356.793C302.13 359.175 279.22 358.844 256.972 355.779C245.726 354.235 234.437 351.986 223.368 349.054C214.239 356.396 207.602 368.678 204.669 383.716C204.449 384.841 204.338 385.987 204.338 387.112C204.338 388.523 204.515 389.934 204.846 391.279C206.632 398.49 212.784 403.782 220.148 404.487C228.858 405.303 236.862 399.482 238.758 390.949C239.266 388.699 239.861 386.561 240.522 384.598L240.721 384.025L241.272 384.245C242.86 384.885 244.558 385.502 246.366 386.075C247.358 386.384 248.394 386.715 249.453 387.002C266.784 391.853 293.09 394.278 312.802 388.721L313.684 388.501Z" fill="#232323"/>
<g opacity="0.3">
<path d="M238.538 351.523C238.516 351.589 238.516 351.655 238.494 351.699C237.127 351.369 235.76 350.994 234.371 350.641C224.845 358.16 218.142 370.949 215.253 385.811C215.033 386.979 214.923 388.148 214.923 389.317C214.923 390.794 215.099 392.249 215.452 393.639C216.664 398.534 219.884 402.745 224.294 405.149C223.721 405.149 223.147 405.127 222.574 405.06C214.68 404.333 208.55 398.622 206.764 391.434C206.411 390.044 206.235 388.611 206.235 387.112C206.235 385.965 206.345 384.796 206.566 383.606C209.454 368.744 216.157 355.977 225.683 348.436C229.983 349.561 234.26 350.619 238.538 351.523Z" fill="#000072"/>
</g>
<g opacity="0.65">
<path d="M243.522 385.701C242.441 385.392 247.248 386.935 246.256 386.627C244.404 386.031 242.684 385.414 241.118 384.775C240.457 386.693 239.905 388.677 239.464 390.684C237.7 398.446 231.284 404.465 223.346 405.061C213.931 405.766 206.367 399.548 204.361 391.412C205.066 391.61 205.772 392.161 206.5 393.154C213.556 402.833 231.989 396.814 232.453 388.17C232.629 384.951 233.577 381.754 234.702 378.975C236.642 374.191 241.868 371.611 246.873 372.912L243.522 385.701Z" fill="white"/>
</g>
<g opacity="0.65">
<path d="M352.537 384.223C352.537 384.223 352.669 384.333 352.867 384.532C352.492 384.62 352.118 384.708 351.721 384.774H351.699C350.729 388.964 350.045 393.572 349.758 398.6C349.229 408.015 341.908 415.622 332.493 416.24L332.074 416.262C331.788 416.284 331.501 416.306 331.236 416.306C325.547 414.189 320.807 412.293 320.807 412.293C329.715 413.682 336.661 411.521 340.652 403.87C341.842 401.577 342.173 398.93 341.886 396.351C340.982 387.729 343.342 379.35 345.966 373.044C348.7 366.539 354.874 362.173 361.908 361.82L352.537 384.223Z" fill="white"/>
</g>
<g opacity="0.65">
<path d="M404.862 359.483C404.862 359.483 402.436 361.225 398.401 363.827L390.882 342.593L391.411 342.02C393.55 341.336 395.667 340.653 397.828 339.903L404.862 359.483Z" fill="white"/>
</g>
<path d="M325.922 354.654C325.922 354.654 325.591 355.25 325.062 356.242C322.857 360.255 317.212 370.707 316.904 372.934C316.661 374.654 314.677 383.474 312.913 390.221C312.957 389.912 312.979 389.604 313.023 389.295C292.318 395.138 263.609 392.183 246.278 386.649L244.69 378.138L255.031 355.073L257.413 354.676H325.922V354.654Z" fill="white"/>
<path d="M167.03 322.307C174.174 328.15 182.663 333.398 192.652 337.94C217.414 349.208 251.283 356.198 296.023 357.477C297.412 357.499 298.801 357.499 300.19 357.477C344.819 355.977 378.6 348.877 403.274 337.521C403.296 337.499 403.296 337.499 403.296 337.499C413.262 332.935 421.73 327.665 428.852 321.8C469.291 288.504 465.477 235.959 438.377 181.077C454.43 128.553 447.616 72.7229 412.182 40.5519C405.898 34.863 397.298 33.6062 389.956 36.3183C385.92 37.8177 382.282 40.4858 379.614 44.2784C361.136 70.4297 350.574 94.6847 346.341 105.467V105.489C346.142 106.018 345.944 106.526 345.767 106.989C330.685 101.586 314.434 98.6537 297.5 98.6978C280.565 98.7419 264.315 101.741 249.254 107.231C245.418 97.3527 234.613 72.0614 215.099 44.6973C207.8 34.4661 193.424 32.4155 183.744 40.1109C183.325 40.4196 182.906 40.7724 182.509 41.1473C147.229 73.4946 140.702 129.369 156.997 181.804C155.873 184.119 154.792 186.413 153.756 188.706C153.668 188.86 153.602 189.015 153.535 189.191C153.381 189.5 153.249 189.83 153.116 190.139C153.116 190.139 153.116 190.161 153.094 190.161C152.499 191.506 151.904 192.851 151.33 194.196C129.92 244.514 129.655 291.701 167.03 322.307Z" fill="#8E8FB3"/>
<path d="M297.897 358.05C297.279 358.05 296.64 358.05 296.023 358.028C253.113 356.793 218.274 350.222 192.432 338.447C182.62 333.971 173.954 328.679 166.677 322.726C132.412 294.656 126.921 250.115 150.823 193.932C151.397 192.587 151.992 191.22 152.587 189.875L153.028 188.904C153.095 188.75 153.161 188.574 153.249 188.419C154.285 186.148 155.344 183.899 156.402 181.738C138.938 125.312 148.795 71.2897 182.134 40.7063C182.553 40.3315 182.972 39.9566 183.391 39.6479C188.176 35.8553 194.196 34.2457 200.326 35.1056C206.522 35.9876 211.924 39.2731 215.562 44.3666C234.878 71.422 245.66 96.4708 249.585 106.504C264.932 100.991 281.051 98.1686 297.5 98.1245C313.905 98.0804 330.068 100.815 345.459 106.261L345.834 105.269C350.508 93.3838 361.048 69.6359 379.173 43.9477C381.819 40.1992 385.48 37.3768 389.779 35.7892C397.673 32.8786 406.405 34.5323 412.579 40.133C446.073 70.562 456.194 124.54 438.995 181.033C460.317 224.317 475.84 283.852 429.227 322.241C421.994 328.216 413.373 333.486 403.649 337.962L403.561 338.006C377.784 349.847 343.033 356.573 300.256 358.006C299.462 358.05 298.691 358.05 297.897 358.05ZM153.58 190.426C152.984 191.749 152.411 193.072 151.86 194.373C135.344 233.203 124.628 286.85 167.383 321.866C174.571 327.753 183.149 333.001 192.873 337.433C218.583 349.142 253.29 355.691 296.045 356.903C297.434 356.925 298.823 356.925 300.19 356.903C342.769 355.47 377.343 348.789 402.965 337.058L403.053 337.014C412.733 332.582 421.289 327.312 428.477 321.403C474.606 283.433 459.038 224.295 437.87 181.363L437.782 181.165L437.848 180.944C455.003 124.783 445.037 71.1574 411.807 40.993C405.942 35.6789 397.651 34.0913 390.154 36.8696C386.075 38.3911 382.591 41.0812 380.077 44.6312C362.04 70.1651 351.567 93.7807 346.892 105.622L346.87 105.71L346.098 107.716L345.591 107.54C330.288 102.049 314.236 99.2711 297.853 99.2711C297.743 99.2711 297.61 99.2711 297.5 99.2711C281.007 99.3152 264.822 102.16 249.453 107.76L248.924 107.959L248.725 107.452C244.999 97.8379 234.216 72.4804 214.636 45.0502C211.196 40.2212 206.059 37.0901 200.171 36.2522C194.35 35.4143 188.639 36.9578 184.097 40.552C183.7 40.8607 183.303 41.1914 182.906 41.5663C149.831 71.885 140.129 125.577 157.549 181.65L157.615 181.87L157.527 182.069C156.446 184.296 155.344 186.611 154.285 188.948C154.197 189.103 154.131 189.257 154.087 189.412L153.58 190.426Z" fill="#232323"/>
<path d="M187.14 337.962C211.902 349.23 245.771 356.219 290.51 357.498C291.899 357.52 293.288 357.52 294.677 357.498C339.307 355.999 373.087 348.899 397.761 337.543C397.783 337.521 397.783 337.521 397.783 337.521C392.734 307.996 386.869 297.125 351.103 281.779C315.316 266.432 308.481 241.251 315.912 197.636C318.558 182.157 316.309 171.793 312.295 164.87C303.211 149.104 280.786 149.148 271.768 164.958C267.821 171.904 265.616 182.289 268.306 197.746C275.935 241.317 269.232 266.542 233.533 282.065C197.878 297.566 192.035 308.459 187.14 337.962Z" fill="white"/>
<g opacity="0.65">
<path d="M382.502 40.9707C389.669 38.6334 397.893 39.9785 403.935 45.4689C439.369 77.6399 446.183 133.493 430.13 185.994C457.208 240.876 461.045 293.421 420.605 326.717C417.76 329.076 414.673 331.325 411.366 333.486C417.937 329.936 423.758 326.033 428.874 321.822C469.313 288.526 465.499 235.981 438.399 181.098C454.452 128.575 447.638 72.7448 412.204 40.5738C403.582 32.7681 390.617 33.2973 382.502 40.9707Z" fill="white"/>
</g>
<g opacity="0.65">
<path d="M182.223 41.3896C190.999 38.5672 201.097 41.5439 206.852 49.5922C226.367 76.9562 237.171 102.248 241.008 112.126C243.588 111.178 246.19 110.318 248.836 109.524L250.467 106.768C250.071 106.9 249.652 107.054 249.255 107.209C245.418 97.3304 234.613 72.0391 215.099 44.675C207.492 34.0028 192.189 32.2388 182.509 41.1029C182.399 41.2132 182.311 41.3014 182.223 41.3896Z" fill="white"/>
</g>
<path d="M297.897 361.445C297.235 361.445 296.596 361.445 295.957 361.423H295.934C217.855 359.174 167.074 339.572 145.024 303.123C126.524 272.54 129.192 230.491 152.764 181.451C135.455 124.232 145.774 69.4594 179.841 38.2145C185.243 33.2753 192.542 30.8719 199.863 31.6436C207.271 32.4154 213.997 36.3403 218.318 42.404C236.113 67.3646 246.785 90.6494 251.526 102.248C266.299 97.3085 281.756 94.7948 297.478 94.7507C297.61 94.7507 297.721 94.7507 297.853 94.7507C313.464 94.7507 328.789 97.1983 343.474 102.027C348.171 90.4069 358.711 67.0559 376.395 42.0071C380.695 35.9213 387.398 31.9744 394.785 31.1585C402.105 30.3427 409.426 32.702 414.828 37.6412C449.05 68.7317 459.634 123.46 442.611 180.746C466.425 229.675 469.314 271.702 450.946 302.374C429.072 338.91 378.401 358.777 300.322 361.401C299.529 361.445 298.713 361.445 297.897 361.445ZM296.133 353.53C297.456 353.552 298.779 353.552 300.102 353.53C375.292 350.994 423.78 332.428 444.177 298.338C465.764 262.265 451.012 215.629 434.849 182.863C434.408 181.958 434.32 180.922 434.607 179.952C451.387 125.047 441.773 72.7669 409.536 43.5065C405.788 40.1108 400.738 38.4791 395.667 39.0304C390.507 39.6037 385.832 42.3599 382.856 46.5715C363.65 73.7812 353.11 98.874 349.472 108.4C348.7 110.406 346.473 111.443 344.444 110.715C329.406 105.335 313.619 102.623 297.5 102.645C281.381 102.689 265.616 105.467 250.6 110.935C248.571 111.663 246.344 110.649 245.572 108.642C241.89 99.1386 231.24 74.0899 211.88 46.9684C208.881 42.7568 204.184 40.0226 199.025 39.4714C193.953 38.9422 188.904 40.5959 185.155 44.0137C153.073 73.4504 143.701 125.775 160.746 180.591C161.055 181.562 160.966 182.598 160.525 183.502C144.517 216.356 129.986 263.08 151.75 299.022C172.344 333.023 220.92 351.369 296.133 353.53Z" fill="#000072"/>
<path d="M226.455 116.58C233.136 111.641 240.324 107.253 247.887 103.504H247.909C249.872 102.534 252.253 103.328 253.246 105.29C254.216 107.253 253.422 109.634 251.459 110.626C251.195 110.759 250.886 110.869 250.6 110.935C242.794 112.765 235.076 115.301 227.579 118.542C227.006 118.785 226.345 118.52 226.08 117.947C225.881 117.462 226.036 116.889 226.455 116.58Z" fill="#000072"/>
<path d="M347.09 103.262C357.233 107.892 366.737 113.647 375.381 120.328C375.866 120.703 375.976 121.431 375.579 121.916C375.226 122.357 374.631 122.467 374.146 122.225C364.62 117.197 354.631 113.339 344.422 110.693C342.306 110.141 341.027 107.981 341.578 105.864C342.129 103.747 344.29 102.468 346.407 103.019C346.627 103.085 346.826 103.152 347.046 103.24L347.09 103.262Z" fill="#000072"/>
<path d="M384.928 119.469L402.987 83.4171C404.663 80.0655 409.404 79.8671 411.344 83.0864C423.45 103.086 424.221 125.93 418.885 150.295C418.18 153.536 414.101 154.573 411.896 152.103C404.332 143.57 396.549 136.822 388.17 131.288C384.267 128.708 382.834 123.658 384.928 119.469Z" fill="white"/>
<path d="M209.587 119.888L191.373 83.9241C189.676 80.5725 184.935 80.4182 183.016 83.6375C171.021 103.703 170.338 126.525 175.806 150.89C176.534 154.131 180.613 155.146 182.818 152.654C190.337 144.077 198.099 137.285 206.434 131.729C210.314 129.127 211.703 124.055 209.587 119.888Z" fill="white"/>
<path d="M270.158 260.853C270.18 265.396 276.42 269.056 284.137 269.034C291.855 269.012 298.095 265.329 298.073 260.787C298.051 256.245 291.811 255.87 284.093 255.892C276.398 255.914 270.136 256.333 270.158 260.853Z" fill="#000072"/>
<path d="M254.414 274.083C255.451 277.347 256.862 280.367 259.045 282.286C261.14 284.27 263.808 285.042 266.52 284.91C269.232 284.778 271.988 283.697 274.281 282.043C275.428 281.205 276.464 280.257 277.346 279.177L277.986 278.339L278.669 277.325C279.882 275.516 282.087 274.436 284.138 274.458C286.21 274.436 288.393 275.494 289.628 277.303L290.334 278.317L290.973 279.133C291.855 280.213 292.914 281.161 294.06 281.999C296.353 283.631 299.11 284.711 301.844 284.822C304.556 284.954 307.224 284.16 309.297 282.176C311.458 280.235 312.847 277.214 313.883 273.951V273.929C314.082 273.334 314.721 273.003 315.316 273.179C315.779 273.334 316.088 273.753 316.11 274.216C316.265 277.898 315.559 281.911 313.111 285.417C311.877 287.137 310.223 288.614 308.282 289.695C306.342 290.775 304.181 291.326 302.02 291.503C297.676 291.856 293.421 290.555 289.849 288.328C288.063 287.203 286.431 285.814 285.02 284.226C284.667 283.807 284.336 283.41 284.005 282.969L283.542 282.308L283.322 281.977C283.256 281.867 283.145 281.713 283.212 281.823C283.432 282.154 283.873 282.352 284.16 282.352C284.468 282.374 284.887 282.154 285.108 281.823C285.174 281.713 285.064 281.889 284.998 281.977L284.777 282.308L284.314 282.969L283.322 284.226C281.911 285.836 280.301 287.225 278.515 288.372C274.943 290.599 270.709 291.944 266.365 291.591C264.204 291.415 262.022 290.863 260.081 289.805C258.141 288.747 256.487 287.247 255.23 285.549C252.783 282.065 252.033 278.052 252.187 274.348C252.209 273.708 252.738 273.223 253.378 273.245C253.863 273.267 254.282 273.598 254.414 274.039V274.083Z" fill="#000072"/>
<path d="M224.125 272.078C240.967 272.037 254.578 254.688 254.525 233.328C254.473 211.968 240.778 194.685 223.936 194.726C207.094 194.768 193.483 212.116 193.535 233.476C193.587 254.836 207.283 272.119 224.125 272.078Z" fill="white"/>
<path d="M224.074 272.65C206.985 272.65 193.027 255.099 192.983 233.468C192.939 211.836 206.83 194.196 223.941 194.152C223.963 194.152 223.985 194.152 224.007 194.152C241.096 194.152 255.054 211.704 255.098 233.335C255.142 254.966 241.25 272.606 224.14 272.65C224.096 272.65 224.074 272.65 224.074 272.65ZM194.086 233.468C194.13 254.459 207.58 271.504 224.051 271.504C224.073 271.504 224.096 271.504 224.118 271.504C240.611 271.46 254.017 254.327 253.951 233.313C253.907 212.322 240.457 195.277 223.985 195.277C223.963 195.277 223.941 195.277 223.919 195.277C207.426 195.321 194.041 212.454 194.086 233.468Z" fill="#000072"/>
<path d="M224.073 276.046C205.11 276.046 189.653 256.972 189.587 233.489C189.521 209.984 204.934 190.822 223.919 190.778C223.941 190.778 223.963 190.778 223.985 190.778C242.948 190.778 258.405 209.852 258.471 233.335C258.537 256.84 243.125 276.002 224.139 276.046C224.117 276.046 224.095 276.046 224.073 276.046ZM197.481 233.467C197.525 252.607 209.454 268.13 224.051 268.13C224.073 268.13 224.095 268.13 224.095 268.13C238.737 268.086 250.599 252.474 250.555 233.335C250.511 214.195 238.582 198.672 223.985 198.672C223.963 198.672 223.941 198.672 223.941 198.672C209.3 198.716 197.437 214.306 197.481 233.467Z" fill="#000072"/>
<path d="M229.113 268.704C242.606 268.672 253.51 254.508 253.467 237.069C253.425 219.631 242.452 205.52 228.959 205.553C215.466 205.586 204.562 219.75 204.604 237.188C204.647 254.627 215.62 268.737 229.113 268.704Z" fill="#000072"/>
<path d="M223.301 234.791C226.467 234.784 229.025 231.026 229.014 226.398C229.002 221.771 226.427 218.026 223.26 218.033C220.094 218.041 217.536 221.799 217.548 226.426C217.559 231.054 220.135 234.799 223.301 234.791Z" fill="white"/>
<path d="M223.302 235.342C221.582 235.342 219.994 234.393 218.804 232.651C217.657 230.976 217.018 228.771 217.018 226.411C217.018 224.052 217.635 221.847 218.782 220.171C219.972 218.429 221.56 217.459 223.28 217.459C223.28 217.459 223.28 217.459 223.302 217.459C225.022 217.459 226.609 218.407 227.8 220.149C228.947 221.825 229.586 224.03 229.586 226.389C229.586 228.749 228.969 230.954 227.822 232.629C226.631 234.371 225.022 235.342 223.302 235.342ZM218.12 226.411C218.12 228.528 218.693 230.535 219.708 232.012C220.678 233.445 221.979 234.217 223.302 234.217C224.647 234.217 225.904 233.423 226.874 231.99C227.888 230.491 228.439 228.506 228.439 226.389C228.439 224.272 227.866 222.266 226.852 220.789C225.882 219.377 224.603 218.584 223.28 218.584C221.935 218.584 220.678 219.377 219.708 220.811C218.671 222.288 218.12 224.295 218.12 226.411Z" fill="#000072"/>
<path d="M361.011 271.747C377.853 271.706 391.464 254.357 391.412 232.997C391.36 211.637 377.665 194.354 360.823 194.395C343.981 194.436 330.37 211.785 330.422 233.145C330.474 254.505 344.169 271.788 361.011 271.747Z" fill="white"/>
<path d="M360.938 272.319C352.647 272.319 344.841 268.24 338.976 260.831C333.111 253.444 329.891 243.61 329.847 233.158C329.803 211.527 343.695 193.887 360.805 193.843C360.828 193.843 360.85 193.843 360.872 193.843C377.96 193.843 391.918 211.395 391.962 233.026C391.984 243.478 388.787 253.334 382.966 260.743C377.122 268.196 369.317 272.319 360.982 272.341C360.982 272.319 360.96 272.319 360.938 272.319ZM360.872 194.946C360.85 194.946 360.828 194.946 360.805 194.946C344.29 194.99 330.906 212.123 330.972 233.136C330.994 243.346 334.147 252.915 339.858 260.126C345.503 267.27 353 271.195 360.938 271.195C360.96 271.195 360.982 271.195 361.004 271.195C368.964 271.173 376.461 267.204 382.106 260.037C387.773 252.827 390.882 243.213 390.86 233.004C390.793 212.012 377.343 194.946 360.872 194.946Z" fill="#000072"/>
<path d="M360.938 275.693C351.588 275.693 342.835 271.151 336.308 262.926C329.979 254.944 326.473 244.36 326.451 233.159C326.385 209.653 341.798 190.492 360.783 190.448C360.805 190.448 360.827 190.448 360.849 190.448C379.812 190.448 395.269 209.521 395.336 233.004C395.358 244.228 391.918 254.812 385.634 262.816C379.129 271.107 370.375 275.693 361.004 275.715C360.982 275.693 360.96 275.693 360.938 275.693ZM360.871 198.342C360.849 198.342 360.827 198.342 360.827 198.342C346.186 198.386 334.323 213.997 334.367 233.137C334.389 242.596 337.278 251.416 342.504 258.031C347.509 264.337 354.058 267.821 360.938 267.821C360.96 267.821 360.982 267.821 360.982 267.821C367.883 267.799 374.432 264.293 379.415 257.943C384.619 251.328 387.464 242.464 387.442 233.004C387.42 213.865 375.491 198.342 360.871 198.342Z" fill="#000072"/>
<path d="M356.011 268.395C369.504 268.362 380.408 254.199 380.365 236.76C380.323 219.321 369.35 205.211 355.857 205.244C342.364 205.277 331.46 219.441 331.502 236.879C331.545 254.318 342.518 268.428 356.011 268.395Z" fill="#000072"/>
<path d="M361.643 234.439C364.809 234.431 367.367 230.673 367.356 226.046C367.344 221.418 364.768 217.673 361.602 217.681C358.436 217.689 355.878 221.446 355.89 226.074C355.901 230.701 358.477 234.447 361.643 234.439Z" fill="white"/>
<path d="M361.621 235.011C358.16 235.011 355.337 231.02 355.315 226.081C355.293 221.142 358.115 217.128 361.577 217.128C365.039 217.128 367.862 221.119 367.884 226.059C367.884 228.418 367.266 230.623 366.12 232.299C364.973 234.041 363.363 235.011 361.621 235.011C361.643 235.011 361.643 235.011 361.621 235.011ZM361.599 218.253C358.755 218.253 356.44 221.781 356.462 226.081C356.462 230.38 358.799 233.886 361.621 233.886C362.966 233.886 364.223 233.093 365.193 231.659C366.208 230.16 366.759 228.175 366.759 226.059C366.759 221.759 364.444 218.253 361.599 218.253Z" fill="#000072"/>
<path d="M162.642 252.342C158.431 254.261 154.153 255.495 149.831 256.532C145.509 257.546 141.165 258.296 136.799 258.825C132.434 259.354 128.024 259.641 123.592 259.663C119.159 259.663 114.705 259.464 110.163 258.582C114.375 256.664 118.652 255.407 122.974 254.371C127.296 253.356 131.64 252.607 136.006 252.1C140.372 251.592 144.782 251.284 149.214 251.262C153.646 251.262 158.1 251.46 162.642 252.342Z" fill="#000072"/>
<path d="M164.649 272.739C161.231 275.848 157.549 278.362 153.756 280.677C149.964 282.97 146.061 285.021 142.07 286.873C138.079 288.725 133.977 290.357 129.766 291.746C125.554 293.113 121.254 294.304 116.646 294.855C120.064 291.724 123.746 289.232 127.517 286.895C131.309 284.602 135.212 282.551 139.203 280.699C143.194 278.869 147.295 277.215 151.507 275.826C155.763 274.503 160.062 273.312 164.649 272.739Z" fill="#000072"/>
<path d="M433.085 251.681C437.628 250.777 442.082 250.556 446.514 250.534C450.946 250.534 455.356 250.821 459.722 251.306C464.088 251.791 468.454 252.541 472.753 253.533C477.075 254.547 481.353 255.782 485.564 257.678C481.022 258.582 476.568 258.803 472.136 258.825C467.704 258.825 463.294 258.538 458.928 258.053C454.562 257.546 450.196 256.818 445.897 255.826C441.597 254.79 437.297 253.577 433.085 251.681Z" fill="#000072"/>
<path d="M431.167 272.077C435.908 273.29 440.274 275.098 444.551 277.06C448.807 279.067 452.952 281.272 456.943 283.697C460.957 286.123 464.837 288.725 468.586 291.569C472.312 294.436 475.951 297.479 479.236 301.117C474.495 299.904 470.107 298.118 465.83 296.134C461.574 294.127 457.429 291.922 453.437 289.497C449.424 287.071 445.544 284.447 441.795 281.603C438.091 278.758 434.452 275.715 431.167 272.077Z" fill="#000072"/>
<g opacity="0.3">
<path d="M346.341 105.467L368.06 117.198C374.256 100.418 381.687 86.1514 387.221 76.5156C392.403 67.5192 394.123 56.9793 392.072 46.8142L389.956 36.2964C385.921 37.7958 382.282 40.4638 379.614 44.2564C361.136 70.4518 350.574 94.6848 346.341 105.467Z" fill="#000072"/>
</g>
<g opacity="0.3">
<path d="M167.03 322.307C174.174 328.15 182.664 333.398 192.652 337.94C217.414 349.208 251.283 356.197 296.023 357.476C297.412 357.498 298.801 357.498 300.19 357.476C173.006 334.081 129.236 237.745 183.92 151.375C183.612 151.684 179.488 155.895 174.285 161.65C171.55 164.671 166.523 163.326 165.729 159.335C156.821 115.5 164.009 75.6995 189.19 40.3974L183.722 40.1328C183.303 40.4415 182.884 40.7943 182.487 41.1692C147.207 73.5165 140.68 129.391 156.975 181.826C155.851 184.141 154.77 186.435 153.734 188.728C153.646 188.882 153.58 189.036 153.513 189.213C153.359 189.522 153.227 189.852 153.095 190.161C153.095 190.161 153.095 190.183 153.072 190.183C152.477 191.528 151.882 192.873 151.308 194.218C129.92 244.514 129.655 291.701 167.03 322.307Z" fill="#000072"/>
</g>
<g opacity="0.2">
<path d="M331.192 115.015C350.574 121.1 365.789 129.391 375.888 140.372C379.46 144.253 376.902 150.603 371.632 150.978C347.928 152.698 330.994 144.606 323.276 123.195C321.49 118.278 326.187 113.449 331.192 115.015Z" fill="white"/>
</g>
<g opacity="0.2">
<path d="M399.79 175.674C403.538 172.852 403.428 166.369 399.547 161.21C395.666 156.05 389.47 154.154 385.722 156.976C381.973 159.798 384.399 164.539 388.28 169.699C392.16 174.859 396.019 178.497 399.79 175.674Z" fill="white"/>
</g>
<path d="M330.862 420.275C324.864 420.275 319.087 417.872 314.831 413.572C310.201 408.875 307.863 402.415 308.393 395.844C309.275 384.752 310.686 374.191 317.918 366.76C319.44 365.194 321.953 365.172 323.497 366.694C325.062 368.215 325.084 370.729 323.563 372.272C318.161 377.807 317.058 386.517 316.242 396.461C315.89 400.739 317.433 404.95 320.432 408.015C323.431 411.036 327.554 412.624 331.832 412.337L332.273 412.315C339.593 411.83 345.415 405.854 345.833 398.401C346.715 382.459 351.456 368.876 359.879 358.028C361.224 356.308 363.694 355.999 365.414 357.322C367.134 358.667 367.442 361.137 366.119 362.857C358.689 372.427 354.521 384.532 353.727 398.82C353.088 410.242 344.092 419.437 332.78 420.187L332.339 420.209C331.876 420.275 331.369 420.275 330.862 420.275Z" fill="#000072"/>
<path d="M221.824 409.073C221.141 409.073 220.479 409.051 219.795 408.985C213.644 408.412 207.977 405.259 204.272 400.298C200.546 395.336 199.091 388.964 200.281 382.856C203.434 366.649 210.733 353.331 220.832 345.349C222.552 344.004 225.021 344.291 226.388 346.01C227.733 347.73 227.447 350.2 225.749 351.567C217.26 358.27 210.799 370.243 208.065 384.377C207.293 388.302 208.241 392.382 210.623 395.579C213.026 398.798 216.554 400.761 220.545 401.135C227.579 401.797 234.018 397.1 235.539 390.243C237.347 382.018 240.611 374.653 244.91 368.898C246.211 367.156 248.703 366.804 250.445 368.105C252.187 369.405 252.54 371.897 251.239 373.639C247.601 378.49 244.844 384.818 243.257 391.941C240.986 401.995 231.989 409.073 221.824 409.073Z" fill="#000072"/>
<path d="M286.629 396.394C269.121 396.394 251.129 393.131 239.618 388.434C237.59 387.619 236.62 385.303 237.458 383.275C238.273 381.246 240.589 380.276 242.617 381.114C257.148 387.045 289.319 391.852 311.942 385.458C314.037 384.862 316.22 386.097 316.815 388.192C317.411 390.287 316.198 392.47 314.081 393.065C305.879 395.402 296.331 396.394 286.629 396.394Z" fill="#000072"/>
<path d="M351.721 388.721C349.847 388.721 348.193 387.398 347.84 385.502C347.443 383.363 348.855 381.291 350.993 380.894C370.089 377.322 392.734 362.901 400.099 357.94L394.079 341.248C393.329 339.197 394.41 336.926 396.461 336.198C398.511 335.471 400.782 336.529 401.51 338.58L408.566 358.138C409.161 359.792 408.588 361.666 407.155 362.68C405.942 363.54 377.233 384.025 352.449 388.655C352.206 388.699 351.964 388.721 351.721 388.721Z" fill="#000072"/>
<path d="M404.861 363.43C403.781 363.43 402.678 362.989 401.907 362.107C400.451 360.475 400.606 357.983 402.237 356.528C402.348 356.44 412.513 347.421 417.981 342.041C419.547 340.52 422.038 340.542 423.56 342.107C425.081 343.673 425.059 346.165 423.494 347.686C417.871 353.199 407.882 362.063 407.463 362.438C406.736 363.099 405.787 363.43 404.861 363.43Z" fill="#000072"/>
<path d="M209.609 370.486C208.903 370.486 208.198 370.287 207.536 369.913C207.205 369.714 199.444 364.929 193.689 360.453C191.969 359.108 191.66 356.638 193.005 354.919C194.35 353.199 196.82 352.89 198.54 354.235C203.942 358.447 211.571 363.143 211.659 363.187C213.512 364.334 214.107 366.759 212.96 368.612C212.233 369.802 210.932 370.486 209.609 370.486Z" fill="#000072"/>
<g opacity="0.3">
<path d="M339.307 354.412C339.307 354.412 319.484 374.455 323.872 397.409C323.872 397.409 322.99 410.022 334.103 414.344C322.637 416.769 314.038 411.301 311.524 389.096L300.19 391.015C300.19 391.015 298.713 363.188 310.951 357.344L339.307 354.412Z" fill="#000072"/>
</g>
</svg>
