<svg width="626" height="604" viewBox="0 0 626 604" fill="none" xmlns="http://www.w3.org/2000/svg">
<ellipse cx="313" cy="299.5" rx="313" ry="299.5" fill="#B0A2D7"/>
<path d="M324.269 473.62C344.816 500.334 407.363 524.959 454.623 493.852C526.41 440.327 447.019 326.599 502.613 312.218C519.239 309.835 535.768 328.53 552.375 318.227C566.204 309.638 563.958 288.243 551.685 273.488C531.887 249.69 494.023 249.178 472.334 263.677C439.494 285.643 439.888 330.066 447.413 386.605C451.728 419.032 449.777 448.109 430.53 460.283C408.388 474.31 378.857 469.109 357.424 447.656" fill="white"/>
<path d="M324.269 473.621C344.816 500.315 407.363 524.959 454.604 493.853C516.974 447.341 465.222 355.401 487.05 322.66C490.34 317.715 495.304 314.13 502.613 312.239C519.239 309.855 535.768 328.55 552.375 318.247C566.204 309.678 563.958 288.264 551.685 273.509C531.887 249.711 494.023 249.199 472.334 263.698C458.563 272.898 450.644 286.057 446.625 302.408C441.07 325.044 443.04 353.806 447.413 386.626C451.728 419.052 449.777 448.129 430.53 460.304C408.388 474.33 378.857 469.13 357.424 447.676L324.269 473.621Z" fill="white"/>
<path d="M324.269 473.621C344.816 500.315 407.363 524.959 454.604 493.853C516.974 447.341 465.222 355.401 487.05 322.66C490.34 317.715 495.304 314.13 502.613 312.239C519.239 309.855 535.768 328.55 552.375 318.247C559.546 313.795 562.402 305.895 561.752 297.247C561.161 289.229 557.576 280.601 551.685 273.509C531.887 249.711 494.023 249.199 472.334 263.698C458.563 272.898 450.644 286.057 446.625 302.408C441.07 325.044 443.04 353.806 447.413 386.626C451.728 419.052 449.777 448.129 430.53 460.304C415.105 470.055 396.114 470.509 378.759 462.629C371.194 459.201 363.925 454.197 357.424 447.676L324.269 473.621Z" fill="white"/>
<path d="M324.269 473.621C344.816 500.315 407.363 524.959 454.604 493.853C516.974 447.341 465.222 355.401 487.05 322.66C490.34 317.715 495.304 314.13 502.613 312.239C519.239 309.855 535.768 328.55 552.375 318.247C559.546 313.795 562.402 305.895 561.752 297.247C558.896 304.359 552.001 313.657 535.886 310.032C526.056 307.826 513.605 299.453 501.766 297.602C493.925 296.38 479.248 297.661 472.137 314.248C457.322 348.802 489.749 418.244 468.138 459.004C447.847 497.281 398.774 495.882 378.739 462.648C371.174 459.22 363.905 454.217 357.404 447.696L324.269 473.621Z" fill="#DFE8F4"/>
<path d="M472.137 314.248C476.254 315.883 482.262 314.779 484.863 317.991C485.887 319.232 486.419 320.867 487.05 322.679C490.34 317.734 495.304 314.149 502.613 312.258C519.239 309.874 535.768 328.569 552.375 318.266C553.202 317.754 553.951 317.203 554.66 316.612C555.015 316.316 555.349 316.001 555.684 315.686C557.635 313.794 559.112 311.549 560.117 309.066C560.274 308.653 560.452 308.239 560.59 307.806C561.023 306.525 561.338 305.205 561.555 303.826C561.594 303.669 561.614 303.491 561.614 303.334C561.791 302.112 561.87 300.852 561.87 299.551C561.87 299.177 561.87 298.803 561.851 298.409C561.851 298.409 561.851 298.389 561.851 298.369C561.831 297.995 561.811 297.601 561.791 297.207C558.935 304.319 552.04 313.617 535.925 309.992C526.095 307.786 513.645 299.413 501.805 297.562C493.905 296.38 479.248 297.66 472.137 314.248Z" fill="#F47E1E"/>
<path d="M446.605 302.408C451.747 302.763 455.47 300.596 458.189 301.128C464.592 302.369 466.522 310.702 470.639 313.48C474.658 316.218 481.908 314.346 484.843 317.991C485.868 319.232 486.399 320.867 487.03 322.68C490.32 317.735 495.284 314.15 502.593 312.258C519.22 309.875 535.748 328.57 552.355 318.267C566.184 309.697 563.939 288.283 551.666 273.528C531.867 249.73 494.004 249.218 472.314 263.717C458.544 272.917 450.624 286.077 446.605 302.408Z" fill="#FFAD40"/>
<g opacity="0.5">
<path d="M446.605 302.408C448.556 302.546 450.289 302.309 451.846 302.014C456.002 288.44 463.331 277.428 475.23 269.469C480.765 265.785 487.384 263.086 494.476 261.57C493.629 262.692 493.157 263.953 493.157 265.253C493.157 270.297 500.15 274.375 508.798 274.375C517.447 274.375 524.44 270.297 524.44 265.253C524.44 264.091 524.066 262.968 523.357 261.924C533.995 264.525 543.963 270.001 551.331 278.846C558.226 287.14 561.811 297.621 560.944 306.525C563.683 296.478 559.959 283.476 551.666 273.488C531.867 249.69 494.004 249.178 472.314 263.677C458.544 272.917 450.624 286.076 446.605 302.408Z" fill="white"/>
</g>
<path d="M472.137 314.248C476.254 315.883 482.262 314.779 484.863 317.991C485.887 319.232 486.419 320.867 487.05 322.679C490.34 317.734 495.304 314.149 502.613 312.258C519.239 309.874 535.768 328.569 552.375 318.266C553.202 317.754 553.951 317.203 554.66 316.612C555.015 316.316 555.349 316.001 555.684 315.686C557.635 313.794 559.112 311.549 560.117 309.066C560.274 308.653 560.452 308.239 560.59 307.806C561.023 306.525 561.338 305.205 561.555 303.826C561.594 303.669 561.614 303.491 561.614 303.334C561.791 302.112 561.87 300.852 561.87 299.551C561.87 299.177 561.87 298.803 561.851 298.409C561.851 298.409 561.851 298.389 561.851 298.369C561.831 297.995 561.811 297.601 561.791 297.207C558.935 304.319 552.04 313.617 535.925 309.992C526.095 307.786 513.645 299.413 501.805 297.562C493.905 296.38 479.248 297.66 472.137 314.248Z" fill="#F47E1E"/>
<path d="M404.428 511.386C423.379 511.386 441.227 506.303 456.278 496.394C456.318 496.355 456.377 496.335 456.416 496.295C496.466 466.43 491.088 418.303 486.754 379.632C482.716 343.463 481.337 320.965 503.164 315.213C509.33 314.386 515.693 316.888 522.431 319.527C532.084 323.31 543.037 327.585 553.931 320.828C559.664 317.282 563.289 311.628 564.451 304.516C566.145 294.016 562.146 281.388 553.97 271.578C533.128 246.519 493.294 246.007 470.6 261.196C437.721 283.201 436.184 325.654 444.36 387.039C449.403 424.843 444.32 447.971 428.856 457.762C407.915 471.001 380.059 466.095 359.512 445.548L355.217 449.843C377.813 472.439 408.722 477.679 432.087 462.884C449.777 451.695 455.746 426.617 450.368 386.232C442.488 327.151 443.69 286.471 473.969 266.219C494.536 252.469 530.527 252.863 549.302 275.439C556.374 283.949 559.88 294.705 558.462 303.531C557.595 308.87 554.916 313.046 550.74 315.646C542.407 320.808 533.778 317.439 524.637 313.854C517.407 311.017 509.941 308.101 502.14 309.205C502.022 309.224 501.923 309.244 501.805 309.264C488.921 312.593 481.494 321.202 479.13 335.583C477.101 347.935 478.854 363.655 480.706 380.282C485.06 419.328 490.005 463.574 452.831 491.351C408.447 520.487 347.495 498.856 326.632 471.749L321.826 475.453C333.193 490.228 354.981 502.836 378.7 508.352C387.427 510.401 396.036 511.386 404.428 511.386Z" fill="#000072"/>
<path d="M333.744 317.34C358.763 321.871 377.636 330.855 395.602 329.535C395.602 329.535 434.234 306.919 441.858 312.928C451.787 336.154 470.876 374.096 442.744 393.579C418.474 409.576 378.089 396.81 353.306 387.512" fill="#B5CFDD"/>
<path d="M442.744 393.58C418.474 409.576 378.089 396.81 353.306 387.512L340.698 342.261L333.744 317.341C349.268 320.158 362.408 324.669 374.444 327.388C381.812 329.042 388.766 330.027 395.582 329.515C395.582 329.515 434.214 306.9 441.838 312.908C451.787 336.154 470.876 374.096 442.744 393.58Z" fill="#B5CFDD"/>
<path d="M442.744 393.58C421.488 407.586 387.899 399.549 363.235 391.078C359.728 389.876 356.399 388.655 353.306 387.512L340.698 342.261L333.744 317.341C349.268 320.158 362.408 324.669 374.444 327.388C381.812 329.042 388.766 330.027 395.582 329.515C395.582 329.515 434.214 306.9 441.838 312.908C446.802 324.531 454.072 339.818 456.554 354.652C459.056 369.487 456.79 383.828 442.744 393.58Z" fill="white"/>
<path d="M442.744 393.58C421.488 407.586 387.899 399.549 363.235 391.078C360.083 372.442 354.823 348.467 356.616 348.94C359.531 349.708 372.1 377.248 384.097 376.677C393.1 376.244 395.602 363.99 395.602 363.99C395.602 363.99 401.946 384.459 427.615 382.292C451.432 380.263 456.515 355.066 456.574 354.672C459.056 369.487 456.79 383.828 442.744 393.58Z" fill="#DFE8F4"/>
<path d="M374.444 327.388C366.742 333.593 355.001 338.755 340.679 342.261L333.725 317.341C349.248 320.158 362.408 324.669 374.444 327.388Z" fill="#DFE8F4"/>
<path d="M413.174 404.257C424.64 404.257 435.455 401.992 444.399 396.102C472.806 376.421 457.086 340.331 446.684 316.435C445.975 314.8 445.285 313.224 444.635 311.707C444.438 311.234 444.123 310.84 443.729 310.525C440.833 308.24 434.884 306.821 414.593 316.198C405.393 320.454 397.02 325.182 394.696 326.521C384.235 327.112 373.262 324.118 360.575 320.65C352.361 318.405 343.87 316.08 334.276 314.327C332.641 314.031 331.045 315.115 330.75 316.77C330.454 318.424 331.538 320 333.192 320.296C342.53 321.99 350.883 324.275 358.98 326.501C372.474 330.205 384.137 333.396 395.819 332.53C396.272 332.49 396.725 332.352 397.139 332.116C397.237 332.057 406.831 326.462 417.174 321.675C432.875 314.425 438.036 314.662 439.494 315.056C440.026 316.277 440.577 317.538 441.129 318.838C451.314 342.222 465.261 374.254 441.011 391.058C415.795 407.685 369.559 390.349 354.37 384.636C352.814 384.045 351.06 384.833 350.469 386.409C349.878 387.985 350.666 389.719 352.242 390.31C369.953 396.988 392.627 404.257 413.174 404.257Z" fill="#000072"/>
<path d="M395.602 363.399C395.602 363.399 393.002 352.84 393.474 341.354Z" fill="#B5CFDD"/>
<path d="M395.602 363.399C394.992 356.071 395.228 348.703 396.508 341.473L390.441 341.217C391.15 348.801 392.963 356.307 395.602 363.399Z" fill="#000072"/>
<path d="M274.526 346.044C281.598 346.832 289.025 347.245 296.669 347.245C304.312 347.245 311.739 346.832 318.831 346.044C312.113 343.66 304.746 342.32 296.688 342.32C288.611 342.32 281.244 343.66 274.526 346.044Z" fill="#93B3C1"/>
<path d="M240.09 338.499C255.378 343.955 275.117 347.226 296.688 347.226C318.063 347.226 337.664 343.995 352.893 338.636C346.116 326.009 329.115 302.526 296.688 302.526C264.38 302.546 247.104 325.851 240.09 338.499Z" fill="#93B3C1"/>
<path d="M259.633 317.34C234.614 321.871 215.741 330.855 197.775 329.535C197.775 329.535 159.143 306.919 151.519 312.928C141.59 336.154 122.501 374.096 150.632 393.579C174.903 409.576 215.288 396.81 240.07 387.512" fill="#B5CFDD"/>
<path d="M150.632 393.58C174.903 409.576 215.288 396.81 240.07 387.512L252.678 342.261L259.632 317.341C244.109 320.158 230.969 324.669 218.932 327.388C211.564 329.042 204.61 330.027 197.794 329.515C197.794 329.515 159.162 306.9 151.538 312.908C141.59 336.154 122.501 374.096 150.632 393.58Z" fill="#B5CFDD"/>
<path d="M150.633 393.58C171.889 407.586 205.477 399.549 230.142 391.078C233.648 389.876 236.978 388.655 240.071 387.512L252.679 342.261L259.633 317.341C244.109 320.158 230.969 324.669 218.933 327.388C211.565 329.042 204.611 330.027 197.794 329.515C197.794 329.515 159.163 306.9 151.539 312.908C146.574 324.531 139.305 339.818 136.823 354.652C134.301 369.487 136.567 383.828 150.633 393.58Z" fill="white"/>
<path d="M150.632 393.58C171.889 407.586 205.477 399.549 230.142 391.078C233.294 372.442 237.785 348.467 235.993 348.94C233.077 349.708 221.277 377.248 209.279 376.677C200.276 376.244 197.775 363.99 197.775 363.99C197.775 363.99 191.431 384.459 165.762 382.292C141.945 380.263 136.862 355.066 136.803 354.672C134.301 369.487 136.567 383.828 150.632 393.58Z" fill="#DFE8F4"/>
<path d="M218.913 327.388C226.615 333.593 238.357 338.755 252.678 342.261L259.632 317.341C244.109 320.158 230.969 324.669 218.913 327.388Z" fill="#DFE8F4"/>
<path d="M180.202 404.257C200.769 404.257 223.404 396.987 241.115 390.349C242.691 389.758 243.479 388.004 242.888 386.448C242.297 384.872 240.543 384.084 238.987 384.675C223.798 390.368 177.543 407.704 152.287 391.058C128.096 374.313 142.043 342.281 152.228 318.897C152.799 317.596 153.331 316.336 153.863 315.114C155.321 314.72 160.463 314.464 176.183 321.733C186.546 326.521 196.139 332.115 196.218 332.174C196.612 332.411 197.065 332.549 197.538 332.588C209.22 333.455 220.883 330.264 234.377 326.56C242.454 324.354 250.827 322.049 260.164 320.354C261.819 320.059 262.903 318.483 262.607 316.828C262.312 315.173 260.716 314.09 259.081 314.385C249.487 316.119 240.996 318.444 232.781 320.709C220.095 324.176 209.122 327.171 198.681 326.58C196.356 325.24 187.984 320.512 178.784 316.257C158.473 306.88 152.543 308.298 149.647 310.583C149.253 310.899 148.938 311.312 148.741 311.765C148.091 313.282 147.402 314.858 146.692 316.493C136.291 340.389 120.57 376.48 148.919 396.101C157.862 401.991 168.717 404.257 180.202 404.257Z" fill="#000072"/>
<path d="M197.774 363.399C197.774 363.399 200.375 352.84 199.902 341.354Z" fill="#B5CFDD"/>
<path d="M197.775 363.399C200.414 356.307 202.207 348.801 202.916 341.217L196.849 341.473C198.149 348.703 198.385 356.071 197.775 363.399Z" fill="#000072"/>
<path d="M311.365 514.242C326.849 517.493 341.368 529.096 343.003 542.965C344.087 550.195 341.723 572.83 345.486 584.571C349.189 596.116 357.838 600.43 371.076 600.43C386.048 600.43 396.39 600.43 410.909 600.43C428.679 600.43 429.683 583.133 426.965 575.47C425.527 571.431 421.725 563.138 410.22 560.065C428.895 495.173 390.638 467.1 387.841 450.375" fill="#B5CFDD"/>
<path d="M311.345 514.242C326.829 517.473 341.348 529.096 342.983 542.965C344.067 550.195 341.703 572.83 345.466 584.571C349.169 596.135 357.818 600.43 371.036 600.43H410.87C425.763 600.43 428.875 588.275 427.89 579.824C427.693 578.189 427.359 576.711 426.925 575.47C425.507 571.431 421.685 563.138 410.18 560.065C428.856 495.173 390.598 467.1 387.801 450.375L380.748 456.265L311.345 514.242Z" fill="white"/>
<path d="M311.345 514.242C326.829 517.473 341.348 529.096 342.983 542.964C344.067 550.194 341.703 572.83 345.466 584.571C349.169 596.135 357.818 600.429 371.036 600.429H410.87C425.763 600.429 428.875 588.274 427.89 579.823C424.423 582.798 418.494 585.851 408.663 585.851C386.796 585.851 356.675 591.643 355.552 566.407C354.606 545.072 355.69 539.852 348.874 525.392C342.255 511.326 386.028 499.526 388.766 466.056C389.259 459.949 385.87 457.151 380.768 456.265L311.345 514.242Z" fill="#DFE8F4"/>
<path d="M371.056 603.444H410.889C420.011 603.444 424.837 599.307 427.3 595.84C431.909 589.319 431.831 580.158 429.801 574.426C427.004 566.526 421.547 560.912 413.904 558.035C426.571 510.696 409.609 483.156 398.321 464.795C394.637 458.826 391.465 453.645 390.835 449.823L384.846 450.828C385.673 455.832 388.983 461.19 393.159 467.967C404.113 485.776 420.68 512.666 407.304 559.178C407.087 559.966 407.186 560.793 407.58 561.503C407.974 562.212 408.644 562.724 409.432 562.941C416.681 564.891 421.626 569.422 424.088 576.415C425.625 580.749 425.527 587.782 422.355 592.294C419.991 595.643 416.13 597.337 410.909 597.337H371.076C358.251 597.337 351.474 593.22 348.381 583.586C346.096 576.455 346.214 564.674 346.333 555.199C346.392 549.643 346.431 545.25 346.017 542.453C344.107 526.24 327.46 514.439 311.996 511.208L310.754 517.138C326.042 520.349 338.63 531.559 340.009 543.241C340.364 545.644 340.324 550.037 340.265 555.12C340.166 565.029 340.029 577.361 342.609 585.418C346.51 597.731 355.552 603.444 371.056 603.444Z" fill="#000072"/>
<path d="M379.192 562.684C388.707 561.483 398.538 560.931 407.994 562.645C408.388 562.724 409.294 562.901 409.649 563.039L410.752 557.07C410.279 557.011 409.964 557.011 409.589 557.011C399.188 556.893 388.964 559.454 379.192 562.684Z" fill="#000072"/>
<path d="M389.653 572.259C392.706 576.809 393.534 582.542 392.135 587.763C390.855 592.116 387.722 597.1 383.093 597.435L384.432 603.345C396.784 599.189 397.809 580.789 389.653 572.259Z" fill="#000072"/>
<path d="M408.171 572.259C415.598 578.267 412.682 594.993 403.542 597.554L405.63 603.247C416.642 598.42 418.395 578.385 408.171 572.259Z" fill="#000072"/>
<path d="M281.657 514.242C266.173 517.493 251.654 529.096 250.019 542.965C248.936 550.195 251.3 572.83 247.537 584.571C243.833 596.116 235.185 600.43 221.947 600.43C206.975 600.43 196.632 600.43 182.113 600.43C164.344 600.43 163.339 583.133 166.058 575.47C167.496 571.431 171.298 563.138 182.803 560.065C164.127 495.173 202.384 467.1 205.182 450.375" fill="#B5CFDD"/>
<path d="M281.657 514.242C266.173 517.473 251.654 529.096 250.019 542.965C248.935 550.195 251.299 572.83 247.537 584.571C243.833 596.135 235.185 600.43 221.966 600.43H182.133C167.239 600.43 164.127 588.275 165.112 579.824C165.309 578.189 165.644 576.711 166.077 575.47C167.496 571.431 171.317 563.138 182.822 560.065C164.147 495.173 202.404 467.1 205.201 450.375L212.254 456.265L281.657 514.242Z" fill="white"/>
<path d="M281.657 514.242C266.173 517.473 251.654 529.096 250.019 542.964C248.935 550.194 251.299 572.83 247.537 584.571C243.833 596.135 235.185 600.429 221.966 600.429H182.133C167.239 600.429 164.127 588.274 165.112 579.823C168.579 582.798 174.509 585.851 184.339 585.851C206.206 585.851 236.327 591.643 237.45 566.407C238.396 545.072 237.312 539.852 244.129 525.392C250.748 511.326 206.974 499.526 204.236 466.056C203.744 459.949 207.132 457.151 212.234 456.265L281.657 514.242Z" fill="#DFE8F4"/>
<path d="M182.133 603.444H221.946C237.45 603.444 246.493 597.731 250.413 585.477C252.994 577.42 252.875 565.088 252.757 555.159C252.698 550.076 252.659 545.703 252.994 543.378C254.392 531.598 266.961 520.388 282.248 517.177L281.007 511.248C265.562 514.478 248.896 526.279 246.985 542.59C246.571 545.289 246.631 549.682 246.69 555.238C246.788 564.713 246.926 576.494 244.641 583.625C241.548 593.259 234.771 597.376 221.946 597.376H182.133C176.893 597.376 173.031 595.682 170.667 592.333C167.476 587.822 167.397 580.789 168.934 576.455C171.416 569.441 176.341 564.91 183.591 562.96C184.379 562.743 185.048 562.231 185.442 561.522C185.836 560.813 185.935 559.966 185.718 559.197C172.342 512.705 188.89 485.795 199.863 467.986C204.039 461.19 207.349 455.832 208.176 450.847L202.187 449.843C201.557 453.665 198.366 458.826 194.701 464.815C183.413 483.155 166.452 510.716 179.119 558.055C171.475 560.931 166.018 566.546 163.221 574.445C161.192 580.178 161.113 589.319 165.723 595.839C168.185 599.307 173.012 603.444 182.133 603.444Z" fill="#000072"/>
<path d="M213.83 562.684C204.059 559.454 193.815 556.912 183.453 556.991C183.079 557.011 182.763 557.011 182.291 557.05L183.394 563.019C183.729 562.901 184.635 562.724 185.049 562.625C194.485 560.931 204.315 561.463 213.83 562.684Z" fill="#000072"/>
<path d="M203.369 572.259C195.214 580.769 196.218 599.189 208.61 603.365L209.949 597.455C205.3 597.12 202.187 592.136 200.907 587.782C199.489 582.542 200.316 576.809 203.369 572.259Z" fill="#000072"/>
<path d="M184.832 572.259C174.627 578.385 176.361 598.42 187.393 603.247L189.481 597.554C180.32 595.012 177.405 578.287 184.832 572.259Z" fill="#000072"/>
<path d="M235.559 348.801C224.074 376.066 180.084 438.771 213.318 484.14L249.743 516.251C258.963 520.92 274.821 525.569 296.472 525.569C318.122 525.569 333.98 520.92 343.2 516.251L379.625 484.14C412.859 438.771 368.849 376.066 357.384 348.801C357.384 348.801 349.602 324.334 296.472 324.334C243.341 324.334 235.559 348.801 235.559 348.801Z" fill="#B5CFDD"/>
<path d="M201.616 454.118C202.838 464.559 206.423 474.724 213.318 484.14L249.743 516.251C258.963 520.92 274.821 525.569 296.472 525.569C318.122 525.569 333.98 520.92 343.2 516.251L379.625 484.14C386.52 474.724 390.086 464.559 391.327 454.118C395.996 414.264 366.485 370.393 357.384 348.801C357.384 348.801 349.603 324.334 296.472 324.334C243.341 324.334 235.559 348.801 235.559 348.801C226.478 370.393 196.947 414.264 201.616 454.118Z" fill="white"/>
<path d="M201.616 454.117C202.838 464.558 206.423 474.723 213.318 484.14L249.743 516.251C258.963 520.92 274.821 525.569 296.472 525.569C318.122 525.569 333.981 520.92 343.2 516.251L379.625 484.14C386.52 474.723 390.086 464.558 391.327 454.117C377.458 465.228 346.391 479.688 296.472 479.688C246.552 479.688 215.505 465.228 201.616 454.117Z" fill="#DFE8F4"/>
<path d="M240.09 338.499C255.378 343.955 275.117 347.226 296.688 347.226C318.063 347.226 337.664 343.995 352.893 338.636C346.116 326.009 329.115 302.526 296.688 302.526C264.38 302.546 247.104 325.851 240.09 338.499Z" fill="#DFE8F4"/>
<path d="M379.645 484.141C388.53 475.453 393.593 463.082 394.716 450.71C397.474 419.328 381.832 390.527 366.564 364.424C363.491 359.223 360.319 354.101 357.404 348.782C365.185 371.004 377.577 393.048 383.605 415.782C390.362 439.343 391.189 461.841 379.645 484.141Z" fill="#000072"/>
<path d="M213.318 484.141C201.774 461.86 202.601 439.323 209.358 415.801C215.387 393.087 227.798 371.023 235.559 348.802C232.644 354.101 229.472 359.223 226.399 364.444C211.131 390.546 195.49 419.347 198.248 450.73C199.371 463.081 204.433 475.453 213.318 484.141Z" fill="#000072"/>
<path d="M249.763 516.252C273.797 532.8 319.166 532.8 343.22 516.252C315.266 524.723 277.717 524.743 249.763 516.252Z" fill="#000072"/>
<path d="M429.211 152.609C445.778 117.74 446.862 19.8903 419.932 7.77481C392.076 -4.77409 326.968 46.0519 311.542 66.6187L429.211 152.609Z" fill="#FAA625"/>
<path d="M311.542 66.6387L334.079 83.1079L429.211 152.61C442.252 125.148 445.699 58.6602 433.426 25.7021C430.117 16.7977 425.645 10.3361 419.912 7.75542C392.076 -4.77378 326.968 46.0522 311.542 66.6387Z" fill="#F9A528"/>
<g opacity="0.5">
<path d="M311.542 66.6384L315.62 69.6328C334.966 47.3521 394.755 2.39668 421.153 14.2561C426.886 16.8368 431.338 23.2984 434.668 32.2028C436.145 36.1428 437.386 40.5753 438.411 45.3427C437.189 38.0537 435.554 31.3951 433.446 25.7215C430.136 16.8171 425.665 10.3555 419.932 7.77478C392.076 -4.77412 326.968 46.0519 311.542 66.6384Z" fill="white"/>
</g>
<path d="M334.079 83.1082L429.21 152.61C442.252 125.148 445.699 58.6605 433.426 25.7024C429.013 20.541 423.911 18.0785 417.903 18.9256C388.904 23.0232 342.412 71.5837 334.079 83.1082Z" fill="#F47E1E"/>
<path d="M429.21 155.643C430.353 155.643 431.436 155.013 431.949 153.909C444.714 127.039 449.147 59.6844 436.381 24.9336C432.559 14.532 427.437 7.81427 421.173 4.99717C402.97 -3.19803 376.651 9.84336 357.798 22.2347C336.345 36.3399 316.704 54.6806 309.119 64.7867C308.114 66.1263 308.39 68.0372 309.73 69.0419C311.069 70.0466 312.98 69.7708 313.985 68.4312C321.373 58.6009 341.033 40.5163 361.147 27.2976C386.008 10.9663 406.457 4.99716 418.71 10.5132C423.379 12.6014 427.516 18.3144 430.708 27.0021C443.02 60.5118 438.785 125.423 426.492 151.289C425.763 152.806 426.413 154.619 427.93 155.328C428.324 155.545 428.777 155.643 429.21 155.643Z" fill="#000072"/>
<path d="M415.44 25.4849C406.417 19.7522 360.083 43.9438 358.251 60.6494C356.517 76.4094 378.995 96.0306 382.64 98.0597C386.264 100.089 411.165 118.745 418.178 110.096C429.782 95.7351 427.536 33.1876 415.44 25.4849Z" fill="#FF8080"/>
<path d="M382.639 98.0597C386.264 100.109 411.165 118.745 418.178 110.096C422.788 104.403 425.231 91.0859 425.704 76.6261C426.216 61.6344 424.64 45.441 421.271 35.1773C419.695 30.4296 417.745 26.9624 415.44 25.4849C406.417 19.7522 360.083 43.9438 358.251 60.6494C356.537 76.4094 379.015 96.0306 382.639 98.0597Z" fill="#FFA9A9"/>
<path d="M382.639 98.0597C386.264 100.109 411.165 118.745 418.178 110.096C422.788 104.403 425.231 91.0859 425.704 76.6261C422.335 83.5408 417.331 89.6478 411.204 84.4667C401.236 75.9957 386.737 66.2836 388.589 52.139C389.83 42.6633 411.224 29.6022 421.251 35.1773C419.675 30.4296 417.725 26.9624 415.42 25.4849C406.398 19.7522 360.063 43.9438 358.231 60.6494C356.537 76.4094 379.015 96.0306 382.639 98.0597Z" fill="#F28686"/>
<path d="M383.684 102.335C382.561 101.587 381.576 100.936 381.162 100.7C376.927 98.3163 353.306 77.9465 355.237 60.315C356.399 49.7164 374.937 34.0549 391.524 26.0961C399.463 22.294 410.338 18.6495 417.056 22.9244C421.567 25.7809 424.876 33.6412 426.945 46.2689C430.235 66.4417 429.841 100.503 420.523 112.008C418.553 114.431 415.814 115.416 412.682 115.416C403.463 115.396 390.736 107.004 383.684 102.335ZM394.164 31.5727C378.365 39.1572 362.073 53.7155 361.285 60.9848C359.729 75.09 381.103 93.7262 384.137 95.4204C384.748 95.7553 385.654 96.366 387.033 97.2722C407.304 110.649 413.864 110.589 415.814 108.186C422.887 99.4392 424.404 68.2541 420.976 47.2539C419.006 35.2172 415.992 29.4451 413.825 28.0661C410.495 25.9385 403.147 27.2584 394.164 31.5727Z" fill="#000072"/>
<path d="M163.457 152.609C146.889 117.74 145.806 19.8901 172.736 7.77461C200.592 -4.7546 265.7 46.0517 281.125 66.6382L163.457 152.609Z" fill="#FAA625"/>
<path d="M281.145 66.6387L258.608 83.1079L163.476 152.61C150.435 125.148 146.987 58.6602 159.261 25.7021C162.57 16.7977 167.042 10.3361 172.775 7.75542C200.611 -4.77378 265.7 46.0522 281.145 66.6387Z" fill="white"/>
<g opacity="0.5">
<path d="M281.145 66.6384L277.067 69.6328C257.722 47.3521 197.932 2.39668 171.534 14.2561C165.801 16.8368 161.349 23.2984 158.02 32.2028C156.542 36.1428 155.301 40.5753 154.277 45.3427C155.498 38.0537 157.133 31.3951 159.241 25.7215C162.551 16.8171 167.023 10.3555 172.755 7.77478C200.611 -4.77412 265.7 46.0519 281.145 66.6384Z" fill="white"/>
</g>
<path d="M258.588 83.1082L163.457 152.61C150.415 125.148 146.968 58.6605 159.241 25.7024C163.654 20.541 168.756 18.0785 174.765 18.9256C203.783 23.0232 250.275 71.5837 258.588 83.1082Z" fill="#DFE7F2"/>
<path d="M163.457 155.643C163.891 155.643 164.344 155.545 164.757 155.348C166.274 154.639 166.924 152.826 166.195 151.309C153.903 125.463 149.667 60.5513 161.98 27.0219C165.171 18.3342 169.328 12.6212 173.977 10.533C198.976 -0.715673 262.568 46.9386 278.702 68.451C279.707 69.7906 281.618 70.0664 282.957 69.0617C284.297 68.057 284.573 66.1461 283.568 64.8065C276.121 54.8777 255.949 36.5764 233.235 22.2151C214.263 10.2178 188.161 -2.48867 171.514 4.99733C165.25 7.81443 160.128 14.5321 156.306 24.9337C143.54 59.6845 147.973 127.059 160.739 153.91C161.231 155.013 162.334 155.643 163.457 155.643Z" fill="#000072"/>
<path d="M177.228 25.4849C186.25 19.7522 232.585 43.9438 234.417 60.6494C236.15 76.4094 213.673 96.0306 210.028 98.0597C206.403 100.089 181.502 118.745 174.489 110.096C162.886 95.7351 165.132 33.1876 177.228 25.4849Z" fill="#FF8080"/>
<path d="M210.028 98.0597C206.403 100.109 181.503 118.745 174.489 110.096C169.88 104.403 167.437 91.0859 166.964 76.6261C166.452 61.6344 168.028 45.441 171.396 35.1773C172.972 30.4296 174.923 26.9624 177.228 25.4849C186.25 19.7522 232.585 43.9438 234.417 60.6494C236.15 76.4094 213.673 96.0306 210.028 98.0597Z" fill="#FFA9A9"/>
<path d="M210.028 98.0597C206.403 100.109 181.502 118.745 174.489 110.096C169.879 104.403 167.437 91.0859 166.964 76.6261C170.333 83.5408 175.336 89.6478 181.463 84.4667C191.431 75.9957 205.93 66.2836 204.079 52.139C202.838 42.6633 181.443 29.6022 171.416 35.1773C172.992 30.4296 174.942 26.9624 177.247 25.4849C186.27 19.7522 232.604 43.9438 234.436 60.6494C236.15 76.4094 213.673 96.0306 210.028 98.0597Z" fill="#F28686"/>
<path d="M172.145 112.008C162.827 100.503 162.433 66.4419 165.723 46.2691C167.791 33.6414 171.101 25.8008 175.612 22.9246C181.68 19.0634 195.076 24.4809 202.522 28.0466C214.835 33.9566 236.032 47.392 237.45 60.2955C239.381 77.9467 215.78 98.3165 211.525 100.68C211.112 100.917 210.127 101.567 209.004 102.316C201.951 106.965 189.225 115.377 179.986 115.377C176.853 115.396 174.115 114.431 172.145 112.008ZM178.863 28.0466C176.696 29.4256 173.662 35.1977 171.712 47.2344C168.284 68.2346 169.781 99.4394 176.873 108.167C178.823 110.57 185.403 110.649 205.655 97.2527C207.034 96.3465 207.94 95.7358 208.551 95.4009C211.584 93.7067 232.959 75.0705 231.403 60.9653C230.595 53.5581 217.041 41.7578 199.883 33.5232C190.604 29.071 184.28 27.6329 181.049 27.6329C179.986 27.6526 179.257 27.8102 178.863 28.0466Z" fill="#000072"/>
<path d="M144.841 248.489C137.571 255.738 134.006 265.391 135.916 271.144C139.009 280.462 155.38 277.014 159.714 280.797C180.635 303.255 218.873 322.659 273.521 325.989C273.521 325.989 283.686 326.422 296.471 326.422C309.257 326.422 319.422 325.989 319.422 325.989C374.089 322.659 412.327 303.255 433.229 280.797C437.543 276.995 453.934 280.462 457.026 271.144C458.937 265.391 455.372 255.719 448.102 248.489C462.444 241.87 466.66 229.774 464.414 222.977C462.483 217.186 449.048 218.525 449.009 211.985C448.733 163.661 432.421 116.972 408.624 89.1552C408.624 89.1552 401.177 80.566 393.041 73.2376C385.969 66.8745 374.247 60.1568 374.247 60.1568C351.986 46.8002 325.627 39.5703 296.452 39.5703C267.276 39.5703 240.937 46.8002 218.656 60.1568C218.656 60.1568 206.935 66.8745 199.863 73.2376C191.727 80.566 184.28 89.1552 184.28 89.1552C160.482 116.991 144.171 163.68 143.895 211.985C143.856 218.525 130.42 217.186 128.49 222.977C126.303 229.774 130.499 241.87 144.841 248.489Z" fill="white"/>
<path d="M144.841 248.489C137.571 255.739 134.006 265.392 135.917 271.144C139.01 280.462 155.38 277.015 159.714 280.797C180.636 303.255 218.873 322.659 273.521 325.989C273.521 325.989 283.686 326.422 296.472 326.422C309.257 326.422 319.422 325.989 319.422 325.989C374.09 322.659 412.327 303.255 433.229 280.797C437.563 276.995 453.934 280.442 457.027 271.144C458.938 265.392 455.372 255.719 448.103 248.489C462.444 241.87 466.66 229.774 464.414 222.977C462.484 217.186 449.048 218.525 449.009 211.985C448.93 197.88 447.492 183.912 444.872 170.497C438.568 137.992 425.467 108.836 408.624 89.1357C408.624 89.1357 401.177 80.5465 393.041 73.2181C385.969 66.855 374.247 60.1373 374.247 60.1373C353.877 47.9233 330.06 40.8313 303.82 39.7084C301.397 39.6099 298.934 39.5508 296.452 39.5508C267.276 39.5508 240.937 46.7807 218.676 60.1373C218.676 60.1373 206.955 66.855 199.883 73.2181C191.746 80.5465 184.3 89.1357 184.3 89.1357C160.502 116.972 144.191 163.661 143.915 211.985C143.875 218.525 130.44 217.186 128.509 222.977C126.303 229.774 130.499 241.87 144.841 248.489Z" fill="white"/>
<path d="M444.872 170.497C438.568 137.992 425.487 108.836 408.624 89.1363C408.624 89.1363 401.177 80.5471 393.041 73.2187C385.969 66.8556 374.247 60.1379 374.247 60.1379C353.877 47.9239 330.06 40.8319 303.82 39.709C281.145 152.61 352.971 198.865 444.872 170.497Z" fill="#F9A528"/>
<path d="M194.563 306.21L194.583 306.23C215.15 316.592 241.528 324.038 273.521 326.008C273.521 326.008 283.686 326.442 296.472 326.442C309.257 326.442 319.422 326.008 319.422 326.008C351.1 324.078 377.261 316.749 397.73 306.565C397.828 306.466 397.927 306.368 398.025 306.269C377.458 309.066 353.877 316.021 296.472 316.021C238.751 316.001 215.209 308.968 194.563 306.21Z" fill="#DFE7F2"/>
<path d="M216.549 60.4728C229.058 55.1735 241.686 50.6228 254.885 47.6087C280.85 41.6987 308.292 41.6593 334.296 47.4511C347.514 50.4061 360.122 54.878 372.671 60.1379C364.653 53.5975 355.335 48.6331 345.682 44.8704C305.494 29.8393 250.768 32.9913 216.549 60.4728Z" fill="#000072"/>
<path d="M319.442 326.009C361.363 326.009 405.905 314.091 435.81 283.201L435.554 283.457C436.401 282.905 438.548 282.511 439.888 282.334C445.68 281.526 452.476 281.408 457.263 277.054C466.049 268.249 457.598 253.178 450.25 246.362L449.383 251.267C457.165 247.938 464.158 241.969 467.172 233.714C468.571 229.873 469.083 225.263 467.546 221.303C466.167 217.974 462.74 216.319 459.765 215.256C457.224 214.271 454.82 213.818 452.968 212.478C452.673 212.182 452.693 212.182 452.693 212.143C452.653 211.572 452.673 210.587 452.653 209.996C451.983 174.595 443.237 136.83 423.911 106.827C419.538 100.365 414.514 94.2779 408.584 89.1953C416.642 102.316 423.576 115.672 429.348 129.836C439.573 155.289 444.734 182.711 445.246 210.094L445.285 211.513V211.867C445.207 214.231 446.428 216.713 448.24 218.112C451.767 221.126 457.677 221.382 460.77 223.864C460.888 224.002 460.927 224.061 460.986 224.16C461.282 225.046 461.42 225.933 461.42 226.918C461.223 235.428 454.131 242.166 446.783 245.771L442.843 247.682C446.763 251.228 450.486 255.68 452.417 260.546C454.091 264.762 455.805 270.987 450.624 273.154C447.137 274.651 442.862 274.848 438.844 275.439C435.928 275.951 433.268 276.129 430.609 278.473C402.064 308.653 359.669 320.749 319.442 326.009Z" fill="#000072"/>
<path d="M273.521 326.008C233.313 320.748 190.88 308.653 162.256 278.433C159.852 276.187 156.661 275.832 153.725 275.399C149.47 274.828 144.998 274.631 141.196 273.232C135.168 271.282 137.473 265.076 139.601 260.86C142.043 255.994 145.964 251.385 150.061 247.661L146.102 245.731C138.753 242.126 131.661 235.369 131.464 226.878C131.484 225.893 131.602 225.006 131.898 224.12C131.957 224.002 131.996 223.962 132.115 223.824C134.104 222.11 138.281 221.401 141.275 220.062C144.841 218.663 147.835 215.728 147.618 211.492C147.737 202.529 148.308 193.526 149.49 184.641C151.893 165.887 156.464 147.369 163.556 129.816C169.328 115.652 176.262 102.295 184.32 89.1748C178.41 94.2574 173.386 100.325 169.013 106.806C149.451 137.184 140.684 175.559 140.251 211.433C140.231 211.591 140.251 211.926 140.231 212.024C140.211 212.221 140.31 212.083 139.955 212.457C135.503 215.353 127.879 215.353 125.377 221.283C123.841 225.243 124.353 229.872 125.751 233.694C128.766 241.948 135.779 247.917 143.541 251.247L142.674 246.341C135.267 253.374 124.195 268.799 134.794 277.586C140.034 281.506 146.811 281.526 152.78 282.333C154.1 282.57 156.582 282.826 157.37 283.437L157.114 283.18C187.058 314.09 231.6 325.989 273.521 326.008Z" fill="#000072"/>
<path d="M376.631 122.035C374.76 115.021 360.398 91.6965 347.002 101.921C342.274 105.526 343.279 115.534 349.918 117.208C359.571 119.651 361.639 118.37 376.631 122.035Z" fill="#000072"/>
<path d="M215.8 122.113C217.652 115.1 231.994 91.7558 245.409 101.96C250.137 105.565 249.133 115.573 242.513 117.248C232.86 119.71 230.792 118.449 215.8 122.113Z" fill="#000072"/>
<path d="M280.397 214.014C283.43 222.524 296.472 227.331 296.472 227.331C296.472 227.331 309.513 222.524 312.547 214.014C314.714 207.927 299.387 206.922 296.472 206.922C293.556 206.922 278.21 207.927 280.397 214.014Z" fill="#000072"/>
<path d="M289.872 224.041C291.921 225.696 295.033 228.217 296.472 235.152C296.472 235.171 296.472 235.171 296.472 235.191V235.171C297.929 228.217 301.042 225.696 303.071 224.041L296.472 222.8H296.452L289.872 224.041Z" fill="#000072"/>
<path d="M296.472 235.191V235.211V235.152C296.491 235.172 296.472 235.191 296.472 235.191Z" fill="#512717"/>
<g opacity="0.5">
<path d="M289.793 210.035C291.054 212.182 296.452 212.143 296.452 212.143C296.452 212.143 301.85 212.182 303.111 210.035C304.017 208.498 297.654 208.242 296.452 208.242C295.27 208.242 288.907 208.498 289.793 210.035Z" fill="white"/>
</g>
<path d="M233.195 268.15C235.382 279.694 243.321 288.461 255.318 294.174C266.133 299.335 280.258 301.994 296.491 301.994C312.566 301.994 326.593 299.355 337.369 294.311C349.543 288.598 357.561 279.793 359.787 268.17C363.412 249.1 355.118 236.275 346.608 232.729C344.914 232.02 343.259 231.508 341.663 231.193C327.44 228.316 315.955 239.053 296.511 239.053C277.047 239.053 265.582 228.316 251.339 231.193C249.723 231.508 248.088 232.02 246.394 232.729C237.864 236.256 229.57 249.08 233.195 268.15Z" fill="#000072"/>
<path d="M269.837 273.291C261.346 277.015 267.335 295.316 296.472 295.316C325.608 295.316 331.439 277.015 322.909 273.291C322.85 273.272 322.791 273.232 322.732 273.213C315.049 269.982 301.83 274.001 296.373 282.55C290.936 274.001 277.697 269.982 270.014 273.213C269.955 273.252 269.896 273.272 269.837 273.291Z" fill="#FF8F8F"/>
<path d="M251.319 231.469C251.319 256.409 282.347 258.694 296.491 258.694C310.616 258.694 341.664 256.409 341.664 231.469C341.664 231.37 341.664 231.272 341.664 231.173C327.44 228.297 315.955 239.033 296.511 239.033C277.048 239.033 265.582 228.297 251.359 231.173C251.319 231.272 251.319 231.37 251.319 231.469Z" fill="white"/>
<path d="M230.22 268.721C226.202 247.583 230.693 235.98 245.212 229.912C255.752 225.5 264.518 228.376 273.777 231.449C280.593 233.695 287.646 236.019 296.491 236.019C305.336 236.019 312.389 233.695 319.205 231.449C328.484 228.395 337.231 225.5 347.77 229.912C358.054 234.227 366.505 248.943 362.762 268.721C358.448 291.455 333.665 305.028 296.491 305.028C259.317 305.028 234.535 291.455 230.22 268.721ZM321.096 237.182C314.162 239.467 306.302 242.048 296.491 242.048C286.681 242.048 278.82 239.467 271.886 237.182C263.021 234.266 256.008 231.941 247.556 235.487C237.568 239.664 232.19 246.5 236.189 267.579C239.913 287.22 262.469 298.961 296.511 298.961C330.552 298.961 353.089 287.239 356.832 267.579C360.359 249.002 351.966 238.206 345.465 235.487C342.412 234.207 339.555 233.695 336.719 233.695C331.675 233.695 326.77 235.33 321.096 237.182Z" fill="#000072"/>
<path d="M360.634 227.351C376.258 227.351 388.924 212.727 388.924 194.688C388.924 176.649 376.258 162.025 360.634 162.025C345.011 162.025 332.345 176.649 332.345 194.688C332.345 212.727 345.011 227.351 360.634 227.351Z" fill="#000072"/>
<path d="M355.119 200.992C361.668 200.992 366.978 194.862 366.978 187.301C366.978 179.739 361.668 173.609 355.119 173.609C348.569 173.609 343.259 179.739 343.259 187.301C343.259 194.862 348.569 200.992 355.119 200.992Z" fill="white"/>
<g opacity="0.6">
<path d="M370.918 213.994C374.03 213.994 376.552 211.084 376.552 207.493C376.552 203.903 374.03 200.992 370.918 200.992C367.806 200.992 365.284 203.903 365.284 207.493C365.284 211.084 367.806 213.994 370.918 213.994Z" fill="white"/>
</g>
<path d="M232.328 227.351C247.952 227.351 260.617 212.727 260.617 194.688C260.617 176.649 247.952 162.025 232.328 162.025C216.705 162.025 204.039 176.649 204.039 194.688C204.039 212.727 216.705 227.351 232.328 227.351Z" fill="#000072"/>
<path d="M237.844 200.992C244.394 200.992 249.704 194.862 249.704 187.301C249.704 179.739 244.394 173.609 237.844 173.609C231.294 173.609 225.985 179.739 225.985 187.301C225.985 194.862 231.294 200.992 237.844 200.992Z" fill="white"/>
<g opacity="0.6">
<path d="M222.045 213.994C225.157 213.994 227.679 211.084 227.679 207.493C227.679 203.903 225.157 200.992 222.045 200.992C218.933 200.992 216.411 203.903 216.411 207.493C216.411 211.084 218.933 213.994 222.045 213.994Z" fill="white"/>
</g>
<path d="M182.093 298.724C199.173 301.955 202.877 289.308 200.966 282.984C198.385 274.395 189.914 275.577 182.369 271.223C177.622 268.485 171.357 264.348 164.56 267.441C156.543 271.105 156.897 281.211 151.125 285.033C144.841 289.209 177.425 298.015 177.425 298.015L182.093 298.724Z" fill="white"/>
<g opacity="0.7">
<path d="M152.327 288.657C157.626 285.092 157.311 275.793 164.718 272.424C170.983 269.548 176.775 273.37 181.168 275.911C188.142 279.93 195.982 278.847 198.366 286.786C199.134 289.307 198.917 292.932 197.164 295.986C201.301 292.4 202.089 286.628 200.986 282.984C198.405 274.394 189.934 275.576 182.389 271.223C177.641 268.484 171.377 264.347 164.58 267.46C156.562 271.124 156.917 281.211 151.145 285.052C149.608 286.037 150.337 287.298 152.327 288.657Z" fill="white"/>
</g>
<path d="M187.176 302.27C193.48 302.27 197.164 299.847 199.233 297.542C203.192 293.129 203.606 286.609 202.247 282.097C200.04 274.769 195.076 273.016 190.269 271.322C188.181 270.593 186.034 269.824 183.867 268.583L182.98 268.071C178.252 265.313 171.081 261.117 163.28 264.683C157.784 267.185 155.518 272.129 153.666 276.089C152.366 278.886 151.263 281.29 149.411 282.511C147.106 284.048 147.165 286.097 147.303 286.904C147.559 288.48 148.347 293.307 176.597 300.95L178.173 295.099C168.757 292.558 157.961 288.756 154.257 286.392C156.562 284.264 157.882 281.408 159.163 278.65C160.798 275.124 162.334 271.794 165.782 270.218C170.727 267.973 175.593 270.809 179.887 273.331L180.813 273.863C183.473 275.399 185.994 276.286 188.24 277.074C192.672 278.63 195.115 279.497 196.415 283.87C197.263 286.668 197.066 290.864 194.702 293.504C191.825 296.715 186.546 296.498 182.625 295.75L181.503 301.719C183.61 302.093 185.482 302.27 187.176 302.27Z" fill="#000072"/>
<path d="M157.173 341.06C167.968 346.95 191.884 353.274 202.621 344.882C207.467 341.789 216.687 326.245 213.535 314.485C212.333 309.973 208.097 304.851 200.493 302.862C195.647 290.588 185.009 287.988 177.996 287.358C175.612 283.142 172.086 279.576 164.245 279.576C152.09 279.576 140.842 291.12 136.527 300.852C129.416 316.908 139.62 331.505 157.173 341.06Z" fill="white"/>
<g opacity="0.7">
<path d="M136.606 300.753C141.964 292.42 151.499 284.323 161.664 284.323C169.505 284.323 173.012 287.889 175.415 292.105C182.428 292.735 193.086 295.335 197.912 307.608C205.517 309.618 209.752 314.74 210.954 319.231C212.628 325.457 210.816 332.765 208.018 338.695C212.077 332.312 215.701 322.502 213.554 314.464C212.352 309.953 208.117 304.831 200.513 302.841C195.686 290.568 185.029 287.968 178.015 287.337C175.632 283.121 172.105 279.556 164.265 279.556C152.13 279.556 140.94 291.041 136.606 300.753Z" fill="white"/>
</g>
<path d="M187.787 342.734C192.712 342.734 196.514 341.788 198.819 339.995L199.055 339.818L199.311 339.66C200.454 338.931 202.641 336.016 204.551 332.233C206.975 327.387 189.422 339.325 165.309 326.639C140.507 313.578 149.254 292.026 144.663 298.98C143.698 300.438 142.89 301.915 142.24 303.373C134.991 319.724 152.366 331.386 160.167 335.642C166.629 339.148 178.213 342.734 187.787 342.734Z" fill="#DFE8F4"/>
<path d="M155.715 343.719C134.794 332.313 126.579 315.824 133.769 299.611C138.734 288.421 151.105 276.542 164.245 276.542C168.225 276.542 176.065 279.871 179.69 284.501C190.86 285.86 198.602 291.199 202.719 300.359C210.895 303.019 215.17 308.909 216.45 313.716C219.858 326.442 210.58 343.266 204.354 347.383C200.04 350.693 194.11 351.973 187.747 351.973C176.006 351.954 162.807 347.58 155.715 343.719ZM139.325 302.073C131.011 320.828 150.042 333.711 158.631 338.4C168.638 343.857 191.293 349.905 200.769 342.498L201.005 342.34C204.591 340.055 213.476 325.93 210.619 315.272C209.693 311.825 206.344 307.53 199.745 305.796L198.267 305.402L197.696 303.964C194.445 295.73 187.925 291.278 177.74 290.371L176.164 290.233L175.376 288.854C173.622 285.762 166.984 282.61 164.265 282.61C154.06 282.59 143.56 292.499 139.325 302.073Z" fill="#000072"/>
<path d="M192.712 323.94C192.613 324.039 192.515 324.177 192.416 324.256C192.357 324.275 192.436 324.275 192.436 324.275C192.534 323.901 192.731 323.546 192.909 323.192C196.336 316.08 200.414 309.027 201.183 300.97C201.242 299.571 201.222 298.015 200.454 296.242L195.076 299.059C195.391 299.374 195.706 300.222 195.864 301.167C196.652 308.456 194.209 315.982 192.534 323.074C192.396 323.507 192.022 325.142 192.712 323.94Z" fill="#000072"/>
<path d="M163.792 301.581C163.733 301.66 163.812 301.423 163.812 301.423C164.108 300.34 164.62 299.296 165.171 298.311C167.969 293.189 173.642 290.253 179.375 290.785C181.581 290.923 183.768 291.416 185.915 292.125L187.157 286.175C179.414 285.112 170.077 287.239 166.038 294.528C164.817 296.656 163.97 298.98 163.753 301.404V301.522C163.753 301.561 163.773 301.66 163.792 301.581Z" fill="#000072"/>
<path d="M411.263 298.723C394.183 301.954 390.48 289.307 392.391 282.983C394.971 274.394 403.442 275.576 410.987 271.222C415.735 268.484 422 264.347 428.796 267.44C436.814 271.104 436.459 281.21 442.232 285.032C448.516 289.208 415.932 298.014 415.932 298.014L411.263 298.723Z" fill="white"/>
<g opacity="0.7">
<path d="M441.05 288.657C435.751 285.092 436.066 275.793 428.659 272.424C422.394 269.548 416.602 273.37 412.209 275.911C405.235 279.93 397.395 278.847 395.011 286.786C394.243 289.307 394.459 292.932 396.213 295.986C392.076 292.4 391.288 286.628 392.391 282.984C394.972 274.394 403.443 275.576 410.988 271.223C415.735 268.484 422 264.347 428.797 267.46C436.814 271.124 436.46 281.211 442.232 285.052C443.769 286.037 443.02 287.298 441.05 288.657Z" fill="white"/>
</g>
<path d="M406.082 302.27C407.836 302.27 409.747 302.092 411.835 301.698L410.712 295.729C402.576 297.266 398.281 294.744 396.134 292.341C393.671 289.603 393.041 285.998 393.691 283.831C394.853 279.969 398.045 278.866 403.561 277.27C406.398 276.443 409.609 275.517 412.524 273.823L413.45 273.291C417.745 270.769 422.63 267.933 427.555 270.178C431.003 271.754 432.54 275.084 434.175 278.61C435.455 281.388 436.775 284.225 439.08 286.372C435.376 288.736 424.581 292.538 415.164 295.079L416.74 300.93C444.99 293.287 445.778 288.48 446.034 286.884C446.172 286.076 446.231 284.008 443.926 282.491C442.074 281.27 440.971 278.846 439.671 276.069C437.839 272.109 435.554 267.164 430.057 264.662C422.256 261.097 415.105 265.273 410.357 268.051L409.471 268.563C407.186 269.883 404.487 270.671 401.847 271.439C396.311 273.055 390.047 274.867 387.86 282.077C386.481 286.628 387.998 292.38 391.603 296.379C393.75 298.783 398.222 302.27 406.082 302.27Z" fill="#000072"/>
<path d="M436.204 341.059C425.408 346.949 401.492 353.273 390.756 344.881C385.91 341.788 376.69 326.245 379.842 314.484C381.044 309.972 385.279 304.85 392.883 302.861C397.73 290.587 408.368 287.987 415.381 287.357C417.765 283.141 421.291 279.575 429.131 279.575C441.286 279.575 452.535 291.119 456.849 300.851C463.941 316.907 453.737 331.504 436.204 341.059Z" fill="white"/>
<g opacity="0.7">
<path d="M456.77 300.753C451.412 292.42 441.877 284.323 431.712 284.323C423.871 284.323 420.365 287.889 417.961 292.105C410.948 292.735 400.29 295.335 395.464 307.608C387.86 309.618 383.624 314.74 382.422 319.231C380.748 325.457 382.56 332.765 385.358 338.695C381.299 332.312 377.675 322.502 379.822 314.464C381.024 309.953 385.259 304.831 392.863 302.841C397.69 290.568 408.348 287.968 415.361 287.337C417.745 283.121 421.271 279.556 429.111 279.556C441.227 279.556 452.436 291.041 456.77 300.753Z" fill="white"/>
</g>
<path d="M405.59 342.734C400.665 342.734 396.863 341.788 394.558 339.995L394.321 339.818L394.065 339.66C392.923 338.931 390.736 336.016 388.825 332.233C386.402 327.387 403.955 339.325 428.068 326.639C452.87 313.578 444.123 292.026 448.713 298.98C449.678 300.438 450.486 301.915 451.136 303.373C458.386 319.724 441.01 331.386 433.209 335.642C426.728 339.148 415.144 342.734 405.59 342.734Z" fill="#DFE8F4"/>
<path d="M388.983 347.363C382.757 343.245 373.479 326.422 376.887 313.695C377.044 313.124 377.182 312.572 377.3 312.041C378.699 306.19 380.453 303.195 390.637 300.299C394.755 291.178 402.457 285.859 413.548 284.48C415.991 280.737 420.266 276.521 429.111 276.521C442.271 276.521 454.623 288.42 459.587 299.59C466.778 315.803 458.583 332.292 437.642 343.698C430.55 347.56 417.351 351.933 405.59 351.933C399.227 351.953 393.297 350.672 388.983 347.363ZM418.001 288.854L417.213 290.233L415.637 290.371C405.452 291.277 398.931 295.729 395.681 303.964L395.109 305.402L393.632 305.796C384.471 308.219 384.136 309.539 383.21 313.479C383.073 314.05 382.935 314.641 382.757 315.291C379.901 325.949 388.786 340.054 392.371 342.359L392.607 342.516C402.083 349.904 424.738 343.876 434.746 338.419C443.315 333.75 462.365 320.846 454.052 302.092C449.796 292.518 439.316 282.628 429.111 282.628C422.827 282.589 420.128 285.091 418.001 288.854Z" fill="#000072"/>
<path d="M399.049 323.939C396.153 317.951 393.848 311.056 394.656 304.417C394.932 302.368 395.641 300.516 396.685 299.058L391.307 296.241C387.485 306.131 393.12 316.316 399.049 323.939Z" fill="#000072"/>
<path d="M429.584 301.58C425.172 293.031 416.582 285.072 406.22 286.175L407.461 292.124C409.215 291.573 411.126 291.317 413.115 291.494C419.557 292.38 425.428 296.636 429.584 301.58Z" fill="#000072"/>
<path d="M501.273 228.415C514.394 228.415 525.031 216.728 525.031 202.312C525.031 187.896 514.394 176.21 501.273 176.21C488.152 176.21 477.515 187.896 477.515 202.312C477.515 216.728 488.152 228.415 501.273 228.415Z" fill="#FCD21D"/>
<path d="M499.224 228.474C498.988 221.224 496.387 204.361 477.515 204.361C476.392 204.361 475.466 203.435 475.466 202.312C475.466 201.19 476.392 200.264 477.515 200.264C496.387 200.264 498.988 183.4 499.224 176.151C499.263 175.048 500.17 174.161 501.273 174.161C502.376 174.161 503.282 175.028 503.322 176.151C503.558 183.4 506.158 200.264 525.031 200.264C526.154 200.264 527.08 201.19 527.08 202.312C527.08 203.435 526.154 204.361 525.031 204.361C506.158 204.361 503.558 221.224 503.322 228.474C503.282 229.577 502.376 230.464 501.273 230.464C500.17 230.464 499.263 229.577 499.224 228.474ZM501.273 187.675C499.342 193.31 495.619 199.259 488.507 202.293C495.639 205.327 499.342 211.276 501.273 216.91C503.203 211.276 506.927 205.327 514.038 202.293C506.927 199.259 503.203 193.31 501.273 187.675Z" fill="#000072"/>
<path d="M100.752 128.713C113.874 128.713 124.511 117.026 124.511 102.61C124.511 88.1943 113.874 76.5078 100.752 76.5078C87.631 76.5078 76.9941 88.1943 76.9941 102.61C76.9941 117.026 87.631 128.713 100.752 128.713Z" fill="#FCD21D"/>
<path d="M98.7035 128.772C98.4671 121.522 95.8667 104.659 76.9941 104.659C75.8712 104.659 74.9453 103.733 74.9453 102.61C74.9453 101.487 75.8712 100.561 76.9941 100.561C95.8667 100.561 98.4671 83.6983 98.7035 76.4487C98.7429 75.3455 99.6491 74.4787 100.752 74.459C101.856 74.459 102.762 75.3258 102.801 76.4487C103.038 83.6983 105.658 100.561 124.511 100.561C125.633 100.561 126.559 101.487 126.559 102.61C126.559 103.733 125.633 104.659 124.511 104.659C105.658 104.659 103.038 121.522 102.801 128.772C102.762 129.875 101.856 130.762 100.752 130.762C99.6491 130.762 98.7429 129.875 98.7035 128.772ZM100.752 87.9929C98.8217 93.6271 95.0984 99.5765 87.9867 102.61C95.1181 105.644 98.8217 111.613 100.752 117.228C102.683 111.593 106.406 105.644 113.518 102.61C106.387 99.5765 102.683 93.6074 100.752 87.9929Z" fill="#000072"/>
<path d="M108.022 399.273C117.128 399.273 124.511 391.168 124.511 381.169C124.511 371.17 117.128 363.064 108.022 363.064C98.915 363.064 91.5327 371.17 91.5327 381.169C91.5327 391.168 98.915 399.273 108.022 399.273Z" fill="#FCD21D"/>
<path d="M106.603 399.332C106.426 394.309 104.633 382.607 91.5522 382.607C90.7642 382.607 90.1338 381.977 90.1338 381.189C90.1338 380.401 90.7642 379.77 91.5522 379.77C104.633 379.77 106.445 368.069 106.603 363.045C106.623 362.277 107.253 361.666 108.021 361.666C108.79 361.666 109.42 362.277 109.44 363.045C109.617 368.069 111.41 379.77 124.491 379.77C125.279 379.77 125.909 380.401 125.909 381.189C125.909 381.977 125.279 382.607 124.491 382.607C111.41 382.607 109.597 394.309 109.44 399.332C109.42 400.101 108.79 400.711 108.021 400.711C107.253 400.692 106.623 400.101 106.603 399.332ZM108.021 371.024C106.682 374.924 104.101 379.061 99.1564 381.169C104.101 383.277 106.682 387.414 108.021 391.315C109.361 387.414 111.942 383.277 116.886 381.169C111.942 379.061 109.361 374.944 108.021 371.024Z" fill="#000072"/>
</svg>
