<svg width="626" height="619" viewBox="0 0 626 619" fill="none" xmlns="http://www.w3.org/2000/svg">
<ellipse cx="313" cy="299.5" rx="313" ry="299.5" fill="#B0A2D7"/>
<path d="M127.131 436.225C148.634 490.541 194.419 486.625 220.756 470.066C229.244 464.728 235.719 458.078 238.694 451.647L226.597 383.922L221.15 353.341L219.881 346.231C219.881 346.231 215.813 362.331 207.609 377.031C198.575 393.153 184.531 407.569 165.369 397.134C165.347 397.178 114.641 404.637 127.131 436.225Z" fill="white"/>
<g opacity="0.2">
<path d="M127.131 436.225C155.547 508.063 226.466 478.05 238.672 451.669L230.403 391.316C205.553 420.803 177.684 519.503 129.319 414.569C125.184 420.059 123.544 427.147 127.131 436.225Z" fill="#000072"/>
</g>
<path d="M184.028 484.678C195.841 484.678 208.31 481.353 219.313 475.228C230.053 469.256 238.344 461.228 242.063 453.2C242.916 451.341 242.106 449.131 240.247 448.256C238.388 447.403 236.178 448.213 235.303 450.072C229.113 463.438 205.903 477.875 182.475 477.219C166.266 476.759 144.106 469.038 130.588 434.847C128.16 428.7 128.291 423.406 131.003 418.703C135.072 411.681 144.216 407.197 151.172 404.681C157.1 402.538 162.46 401.444 164.713 401.028C172.872 405.119 180.856 405.513 188.469 402.188C211.919 391.906 222.988 348.988 223.447 347.172C223.95 345.181 222.747 343.169 220.756 342.666C218.766 342.163 216.753 343.366 216.25 345.356C216.141 345.772 205.619 386.569 185.494 395.384C179.653 397.944 173.638 397.463 167.097 393.897L166.003 393.306L164.778 393.481C163.531 393.656 134.285 398.141 124.55 414.984C120.678 421.678 120.372 429.291 123.653 437.581C129.931 453.441 138.638 465.516 149.531 473.522C159.113 480.566 170.116 484.306 182.256 484.656C182.869 484.678 183.46 484.678 184.028 484.678Z" fill="#000072"/>
<path d="M249.106 462.234C249.106 462.234 215.463 475.556 211.875 508.5C206.888 554.416 245.388 580.316 245.388 580.316H322.716V458.647" fill="white"/>
<g opacity="0.2">
<path d="M212.291 527.881C217.607 561.656 245.388 580.338 245.388 580.338H322.716V567.213H272.95C247.488 567.213 223.929 552.841 213.144 529.763C212.838 529.15 212.554 528.516 212.291 527.881Z" fill="#000072"/>
</g>
<path d="M244.25 584.056H326.435V458.669C326.435 456.612 324.772 454.95 322.716 454.95C320.66 454.95 318.997 456.612 318.997 458.669V576.619H246.591C244.075 574.737 236.594 568.766 229.594 559.228C218.328 543.85 213.603 526.919 215.572 508.916C216.95 496.316 223.163 485.247 234.057 476.016C242.369 468.972 250.397 465.734 250.485 465.691C252.388 464.925 253.328 462.759 252.563 460.856C251.797 458.953 249.653 458.012 247.75 458.778C247.378 458.931 238.672 462.431 229.463 470.175C224.016 474.747 219.51 479.887 216.075 485.422C211.722 492.4 209.075 500.034 208.2 508.106C206.997 519.109 208.113 529.916 211.482 540.262C214.172 548.509 218.307 556.428 223.775 563.844C233.05 576.444 242.916 583.137 243.332 583.422L244.25 584.056Z" fill="#000072"/>
<path d="M255.078 577.253C244.032 570.931 226.007 574.891 223.207 582.219C220.953 588.081 221.719 598.691 229.353 603.525C235.478 607.397 244.36 607.375 266.344 607.309H375.369V521.363L255.078 577.253Z" fill="white"/>
<g opacity="0.3">
<path d="M229.353 603.503C235.478 607.375 244.359 607.353 266.344 607.287H375.369V521.341L374.056 521.953V594.097H265.031C243.047 594.162 234.144 594.162 228.041 590.312C225.547 588.737 223.775 586.55 222.616 584.122C221.172 590.159 222.484 599.172 229.353 603.503Z" fill="#000072"/>
</g>
<path d="M255.385 576.706C253.635 575.328 251.6 574.256 249.456 573.491C247.313 572.703 245.081 572.244 242.806 571.981C241.669 571.872 240.531 571.784 239.372 571.784C238.213 571.784 237.075 571.828 235.916 571.937C234.756 572.047 233.597 572.244 232.46 572.484C231.3 572.725 230.163 573.053 229.003 573.447C227.866 573.841 226.728 574.344 225.613 574.978C224.497 575.612 223.381 576.378 222.353 577.384C221.85 577.887 221.347 578.456 220.888 579.112C220.778 579.266 220.669 579.441 220.559 579.616C220.45 579.791 220.363 579.966 220.253 580.141C220.166 580.316 220.056 580.512 219.969 580.709C219.925 580.797 219.881 580.906 219.838 580.994L219.75 581.234C219.269 582.503 218.941 583.75 218.722 584.997C218.285 587.491 218.241 590.006 218.591 592.522C218.941 595.016 219.641 597.509 220.866 599.872C222.091 602.212 223.841 604.378 226.028 606.041C226.575 606.456 227.144 606.85 227.713 607.178C228.281 607.528 228.872 607.834 229.463 608.119C230.644 608.687 231.869 609.125 233.05 609.475C234.253 609.825 235.435 610.087 236.594 610.284C237.753 610.481 238.913 610.656 240.05 610.766C242.325 611.006 244.535 611.137 246.722 611.203C255.494 611.466 263.981 611.247 272.556 611.181L285.397 611.072C289.685 611.028 293.972 611.05 298.238 611.028L311.078 611.05L323.919 611.137C341.047 611.269 358.175 611.509 375.303 611.356L379.394 611.312L379.372 607.309L379.285 596.569L379.153 585.828C379.066 578.675 378.935 571.5 378.694 564.347C378.475 557.194 378.147 550.019 377.71 542.866C377.491 539.278 377.25 535.712 376.966 532.125C376.681 528.537 376.353 524.972 375.938 521.384C375.894 521.034 375.588 520.794 375.238 520.837C374.953 520.881 374.713 521.1 374.691 521.384C374.275 524.972 373.947 528.537 373.663 532.125C373.378 535.712 373.116 539.278 372.919 542.866C372.481 550.019 372.153 557.194 371.935 564.347C371.716 571.5 371.585 578.675 371.475 585.828L371.344 596.569L371.256 607.309L375.303 603.262C358.175 603.109 341.047 603.35 323.919 603.481L311.078 603.569L298.238 603.591C293.95 603.569 289.663 603.569 285.397 603.547L272.556 603.437L266.125 603.372L259.716 603.328C255.45 603.306 251.185 603.262 247.006 603.131C244.928 603.044 242.85 602.956 240.86 602.759C238.869 602.562 236.944 602.278 235.238 601.797C234.385 601.556 233.575 601.272 232.809 600.944C232.066 600.594 231.344 600.2 230.731 599.741C229.484 598.844 228.435 597.641 227.625 596.219C226.816 594.797 226.269 593.134 225.963 591.406C225.678 589.678 225.613 587.862 225.853 586.112C225.963 585.259 226.16 584.406 226.4 583.662L226.488 583.422C226.51 583.378 226.51 583.312 226.553 583.247C226.575 583.181 226.597 583.137 226.619 583.072C226.641 583.006 226.685 582.941 226.706 582.897C226.838 582.656 227.035 582.372 227.253 582.109C227.713 581.562 228.303 581.016 229.003 580.512C229.703 580.009 230.491 579.55 231.322 579.134C232.153 578.719 233.05 578.347 233.947 578.019C234.866 577.691 235.806 577.406 236.747 577.166C237.709 576.925 238.672 576.728 239.656 576.553C240.641 576.4 241.647 576.269 242.653 576.203C246.656 575.919 250.791 576.291 254.728 577.778C255.056 577.909 255.406 577.734 255.538 577.406C255.691 577.166 255.603 576.881 255.385 576.706Z" fill="#000072"/>
<path d="M142.357 380.64C142.357 376.834 138.769 360.625 128.072 364.256C114.116 368.981 129.275 394.378 130.041 400.962" fill="white"/>
<path d="M130.019 404.681C130.172 404.681 130.303 404.681 130.456 404.659C132.491 404.419 133.956 402.581 133.716 400.525C133.475 398.403 132.316 395.428 130.872 391.688C128.269 384.95 124.309 374.756 126.519 370.031C127.044 368.938 127.875 368.238 129.253 367.778C130.872 367.231 132.141 367.363 133.322 368.216C136.778 370.688 138.638 378.147 138.638 380.641C138.638 382.697 140.3 384.359 142.356 384.359C144.413 384.359 146.075 382.697 146.075 380.641C146.075 377.316 144.084 366.772 137.675 362.178C134.525 359.903 130.784 359.422 126.891 360.734C123.631 361.85 121.181 363.972 119.803 366.881C116.238 374.494 120.7 385.978 123.959 394.378C125.075 397.244 126.213 400.197 126.366 401.4C126.563 403.281 128.159 404.681 130.019 404.681Z" fill="#000072"/>
<path d="M571.478 486.647C569.838 492.138 567.978 497.366 565.9 502.353C524.513 602.169 401.706 599.916 401.706 599.916L397.966 571.784C401.794 571.128 405.644 570.428 409.516 569.619C456.503 560.037 505.525 539.716 525.781 501.959C534.969 484.831 538.25 464.772 536.872 446.9C534.816 420.256 522.391 398.425 503.71 398.163C491.875 398.009 490.366 411.725 490.191 415.269C489.25 435.941 480.894 447.709 462.147 445.784C456.285 445.172 449.569 440.075 445.216 431.675C439.747 421.109 438.041 405.294 446.572 386.656C479.1 315.519 611.816 350.978 571.478 486.647Z" fill="white"/>
<path d="M554.219 372.284C557.894 385.978 562.05 415.794 530.244 419.513C524.447 406.781 515.281 398.316 503.688 398.163C491.853 398.009 490.344 411.725 490.169 415.269C489.228 435.941 480.872 447.709 462.125 445.784C456.263 445.172 449.547 440.075 445.194 431.675C439.725 421.109 438.019 405.294 446.55 386.656C466.063 344 521.581 339.669 554.219 372.284Z" fill="#FFB531"/>
<g opacity="0.5">
<path d="M446.55 395.384C443.334 402.384 441.584 408.991 440.928 415.072C439.944 406.3 441.3 395.931 446.55 384.447C475.403 321.403 582.984 342.141 578.916 442.197C575.022 351.634 474.331 334.703 446.55 395.384Z" fill="white"/>
</g>
<g opacity="0.2">
<path d="M536.85 446.878C534.794 420.234 522.369 398.403 503.688 398.141C491.853 397.987 490.344 411.703 490.169 415.247C489.228 435.919 480.872 447.687 462.125 445.762C456.263 445.15 449.547 440.053 445.194 431.653C450.663 434.519 457.05 435.328 463.35 434.803C477.809 433.622 480.719 415.947 482.775 397.397C485.159 375.762 520.488 374.319 530.638 402.953C536.281 418.856 537.288 434.869 536.85 446.878Z" fill="#000072"/>
</g>
<g opacity="0.2">
<path d="M565.9 502.353C524.513 602.169 401.706 599.916 401.706 599.916L397.966 571.784C401.794 571.128 405.644 570.428 409.516 569.619C427.563 573.819 465.428 577.494 513.4 553.672C534.728 543.106 552.119 523.703 565.9 502.353Z" fill="#000072"/>
</g>
<path d="M402.428 603.634C404.856 603.634 412.644 603.525 423.822 602.191C436.094 600.725 454.906 597.466 474.944 590.181C497.541 581.978 517.053 570.45 532.934 555.925C552.819 537.725 566.994 514.756 575.022 487.697C580.36 469.759 582.941 452.697 582.722 436.969C582.503 422.444 579.922 409.034 575 397.112C566.141 375.675 549.931 359.619 529.325 351.875C513.116 345.794 495.66 345.466 480.128 350.956C472.122 353.778 464.947 358.044 458.756 363.622C452.238 369.506 446.988 376.725 443.16 385.081C438.785 394.662 436.663 404.134 436.903 413.256C437.1 421.131 439.113 428.591 442.678 434.847C447.425 443.137 454.71 448.737 461.71 449.459C470.591 450.378 477.809 448.497 483.169 443.859C489.666 438.259 493.253 428.7 493.866 415.422C493.91 414.284 494.216 410.347 495.878 406.934C497.585 403.434 500.056 401.816 503.622 401.859C513.859 402.012 520.531 409.734 524.338 416.209C535.297 434.803 538.359 470.569 522.478 500.187C498.525 544.856 433.775 561.919 397.309 568.131C395.275 568.481 393.919 570.384 394.269 572.419C394.619 574.453 396.522 575.809 398.556 575.459C427.103 570.603 453.222 562.619 474.113 552.337C500.1 539.541 518.584 523.178 529.019 503.709C536.61 489.578 540.809 472.319 540.853 455.147C540.897 438.784 537.309 423.625 530.747 412.469C527.509 406.978 523.659 402.647 519.306 399.584C514.538 396.259 509.309 394.531 503.731 394.444C503.644 394.444 503.556 394.444 503.469 394.444C491.613 394.444 486.888 405.534 486.45 415.094C485.947 426.25 483.213 434.037 478.335 438.237C474.528 441.519 469.344 442.766 462.497 442.066C457.903 441.584 452.675 437.319 449.153 431.172C446.003 425.659 439.747 410.412 449.941 388.187C464.86 355.616 499.859 348.791 526.744 358.875C559.469 371.169 589.897 411.725 567.934 485.619C554.044 532.366 521.975 565.178 472.669 583.159C435.591 596.678 402.144 596.241 401.794 596.241C399.738 596.197 398.053 597.837 398.009 599.894C397.966 601.95 399.606 603.634 401.663 603.678C401.685 603.634 401.969 603.634 402.428 603.634Z" fill="#000072"/>
<path d="M213.341 416.516C214.391 435.831 217.147 453.834 220.756 470.066C228.434 504.672 239.897 531.272 246.372 545.666C263.391 583.531 271.988 591.406 286.731 600.659C302.591 610.591 348.659 613.828 348.659 613.828H384.009C398.228 613.828 422.75 609.759 427.541 605.603C432.309 601.425 434.016 594.688 438.325 589.897C475.141 549.034 454.447 505.481 430.8 458.975C416.45 430.756 403.238 400.525 393.394 376.725C382.719 350.934 375.981 332.669 375.981 332.669C375.981 332.669 235.456 314.994 228.019 332.669C225.897 337.744 224.016 342.797 222.397 347.784L221.172 353.384L215.375 380.094L214.194 385.475C213.013 396.128 212.794 406.497 213.341 416.516Z" fill="white"/>
<g opacity="0.2">
<path d="M230.403 505.065C236.244 522.74 242.281 536.631 246.35 545.665C263.369 583.531 271.966 591.406 286.71 600.659C302.569 610.59 348.638 613.828 348.638 613.828H378.3L367.822 556.756H348.616C348.616 556.756 304.078 464.619 301.978 483.19C293.272 559.731 248.822 533.481 230.403 505.065Z" fill="#000072"/>
</g>
<path d="M222.9 347.959C224.278 344.787 225.7 341.616 227.144 338.487C227.888 336.934 228.61 335.381 229.375 333.828L229.506 333.544C229.55 333.456 229.616 333.325 229.638 333.303C229.703 333.194 229.769 333.084 229.856 332.997C230.031 332.778 230.228 332.581 230.469 332.384C230.95 331.99 231.585 331.641 232.241 331.334C233.597 330.722 235.15 330.284 236.747 329.934C238.344 329.584 239.985 329.322 241.647 329.125C244.972 328.709 248.363 328.49 251.753 328.359C255.166 328.228 258.578 328.184 261.991 328.206C265.425 328.206 268.838 328.272 272.272 328.359C279.141 328.534 286.031 328.841 292.9 329.191C299.791 329.562 306.66 330.022 313.55 330.569C320.441 331.094 327.31 331.684 334.2 332.34C341.069 332.997 347.96 333.675 354.828 334.441C358.263 334.812 361.697 335.184 365.131 335.6C368.566 335.994 372 336.409 375.391 336.825L372.022 334.156C373.4 337.897 374.822 341.572 376.244 345.269C377.666 348.966 379.11 352.641 380.553 356.316C383.463 363.666 386.438 370.994 389.478 378.278C395.56 392.869 401.838 407.394 408.422 421.765C411.725 428.962 415.072 436.115 418.528 443.247C420.256 446.812 422.006 450.356 423.778 453.9C425.55 457.444 427.366 460.987 429.138 464.465C432.703 471.465 436.225 478.487 439.485 485.553C442.744 492.641 445.763 499.794 448.278 507.078C450.772 514.362 452.763 521.8 453.813 529.303C454.863 536.806 454.928 544.375 453.703 551.725C453.375 553.562 453.025 555.378 452.544 557.194L452.369 557.872L452.172 558.55C452.041 558.987 451.931 559.447 451.778 559.884C451.494 560.759 451.21 561.656 450.881 562.531C450.575 563.406 450.225 564.281 449.897 565.134C449.722 565.572 449.525 565.987 449.35 566.425L449.066 567.059L448.781 567.694L448.191 568.962L447.556 570.209L447.25 570.844L446.922 571.456L446.244 572.681C444.406 575.94 442.306 579.091 440.01 582.066C438.85 583.553 437.647 585.019 436.4 586.441L435.438 587.534C435.044 587.972 434.672 588.431 434.322 588.869C433.622 589.765 433.01 590.706 432.441 591.603C431.303 593.44 430.363 595.234 429.444 596.875C428.525 598.515 427.585 600.025 426.556 601.25C426.294 601.556 426.031 601.84 425.769 602.125C425.638 602.256 425.506 602.387 425.353 602.519L425.135 602.715L425.091 602.759C425.069 602.781 425.047 602.803 425.047 602.803C425.025 602.803 425.025 602.825 425.003 602.825C424.872 602.934 424.61 603.109 424.303 603.262C423.997 603.437 423.647 603.59 423.253 603.765C422.488 604.094 421.656 604.4 420.803 604.684C419.95 604.969 419.053 605.231 418.156 605.494C414.547 606.478 410.763 607.244 406.978 607.9C403.172 608.534 399.344 609.059 395.516 609.453C391.688 609.847 387.838 610.109 384.075 610.109H372.263H348.616H348.878L346.844 609.956L344.788 609.781C343.41 609.65 342.053 609.519 340.675 609.387C337.941 609.103 335.185 608.797 332.45 608.447C326.981 607.747 321.535 606.959 316.153 605.953C310.772 604.947 305.435 603.787 300.272 602.256C297.713 601.491 295.197 600.615 292.835 599.609C291.653 599.106 290.516 598.537 289.466 597.947C289.203 597.794 288.963 597.641 288.7 597.487L287.847 596.941C287.278 596.569 286.71 596.197 286.141 595.825C285.025 595.081 283.91 594.337 282.838 593.55C282.291 593.156 281.766 592.762 281.241 592.369C280.738 591.953 280.191 591.559 279.71 591.144C278.681 590.312 277.719 589.459 276.778 588.562C276.319 588.103 275.838 587.666 275.378 587.206L274.7 586.506L274.044 585.784C272.272 583.881 270.631 581.825 269.078 579.659C267.525 577.516 266.06 575.262 264.66 572.965C263.26 570.669 261.925 568.284 260.635 565.9C259.978 564.697 259.344 563.494 258.71 562.269C258.097 561.044 257.463 559.84 256.85 558.594L255.931 556.756L255.035 554.897C254.422 553.672 253.853 552.403 253.263 551.156L251.513 547.394L249.806 543.631C245.256 533.547 240.991 523.397 237.163 513.028C236.2 510.447 235.26 507.844 234.363 505.241C233.903 503.928 233.444 502.637 233.028 501.325C232.591 500.012 232.153 498.722 231.738 497.409C230.031 492.159 228.435 486.887 226.969 481.572C225.481 476.256 224.125 470.919 222.9 465.537C221.653 460.156 220.538 454.753 219.531 449.328C218.547 443.903 217.672 438.434 216.928 432.944C216.578 430.209 216.206 427.453 215.922 424.697C215.594 421.94 215.353 419.184 215.091 416.428V416.384C215.003 415.4 214.128 414.678 213.122 414.765C212.181 414.853 211.46 415.684 211.503 416.625C211.591 419.425 211.656 422.225 211.831 425.025C211.963 427.825 212.181 430.625 212.356 433.425C212.816 439.025 213.406 444.603 214.172 450.159C215.681 461.294 217.781 472.34 220.45 483.278C221.785 488.747 223.25 494.172 224.847 499.553C225.241 500.909 225.656 502.244 226.072 503.6C226.488 504.956 226.903 506.29 227.341 507.625C228.194 510.294 229.091 512.962 230.01 515.631C233.706 526.262 237.928 536.697 242.522 546.934L244.25 550.762L246.022 554.59C247.225 557.128 248.428 559.665 249.719 562.181C250.353 563.45 251.01 564.697 251.644 565.965C252.3 567.212 252.956 568.481 253.656 569.706C255.013 572.2 256.435 574.672 257.944 577.1C259.453 579.528 261.05 581.934 262.778 584.297C264.506 586.637 266.366 588.912 268.4 591.078L269.166 591.887L269.953 592.675C270.478 593.2 271.025 593.703 271.55 594.206C272.644 595.212 273.76 596.175 274.919 597.094C277.216 598.953 279.622 600.615 282.028 602.169C282.641 602.562 283.231 602.956 283.844 603.328L284.741 603.897C285.091 604.094 285.419 604.312 285.769 604.509C287.147 605.275 288.525 605.931 289.903 606.522C292.66 607.681 295.416 608.622 298.194 609.453C303.728 611.072 309.285 612.275 314.863 613.303C320.419 614.331 325.997 615.141 331.575 615.862C334.375 616.212 337.153 616.54 339.953 616.825C341.353 616.978 342.753 617.109 344.153 617.241L346.253 617.415L348.375 617.59H348.485H348.638H372.285H384.119C388.253 617.569 392.278 617.284 396.281 616.89C400.285 616.475 404.266 615.95 408.247 615.272C412.228 614.594 416.188 613.784 420.169 612.691C421.175 612.406 422.16 612.122 423.188 611.772C424.194 611.444 425.222 611.072 426.272 610.612C426.797 610.372 427.344 610.131 427.891 609.825C428.46 609.519 429.028 609.169 429.685 608.665L429.925 608.469C429.969 608.425 429.991 608.403 430.013 608.381L430.1 608.294L430.45 607.987C430.669 607.769 430.888 607.572 431.106 607.353C431.522 606.915 431.938 606.478 432.288 606.04C433.775 604.247 434.913 602.344 435.919 600.572C436.925 598.778 437.822 597.094 438.763 595.562C439.244 594.797 439.725 594.097 440.228 593.441C440.469 593.112 440.731 592.806 440.994 592.5L441.978 591.362C443.335 589.831 444.625 588.234 445.894 586.616C448.41 583.356 450.685 579.922 452.741 576.334L453.485 574.978L453.856 574.3L454.206 573.6L454.906 572.2L455.563 570.8L455.891 570.1L456.197 569.378C456.394 568.897 456.613 568.415 456.81 567.934C457.181 566.972 457.575 566.009 457.925 565.025C458.625 563.078 459.238 561.087 459.763 559.075C460.31 557.062 460.725 555.028 461.075 552.972L461.316 551.441L461.513 549.887C461.578 549.362 461.644 548.859 461.688 548.334C461.731 547.809 461.797 547.306 461.841 546.781C462.016 544.725 462.081 542.647 462.103 540.569C462.103 538.512 462.016 536.434 461.885 534.378C461.731 532.322 461.513 530.287 461.25 528.253C460.135 520.137 458.035 512.262 455.453 504.628C452.85 496.994 449.788 489.6 446.485 482.337C443.181 475.075 439.681 467.965 436.138 460.9C434.366 457.356 432.594 453.878 430.866 450.356C429.138 446.834 427.431 443.312 425.725 439.769C422.335 432.681 419.053 425.55 415.816 418.397C409.363 404.069 403.15 389.631 397.178 375.084C394.181 367.822 391.228 360.537 388.341 353.209C386.897 349.556 385.453 345.903 384.031 342.228C382.61 338.575 381.21 334.878 379.831 331.247L378.935 328.862L376.463 328.556C372.985 328.14 369.55 327.747 366.072 327.353C362.616 326.981 359.16 326.609 355.703 326.259C348.791 325.559 341.856 324.903 334.944 324.312C328.01 323.722 321.075 323.197 314.141 322.737C307.206 322.278 300.25 321.906 293.272 321.644C286.316 321.359 279.338 321.206 272.338 321.294C265.338 321.381 258.338 321.666 251.316 322.409C247.816 322.803 244.294 323.284 240.772 324.05C239.022 324.444 237.272 324.881 235.522 325.45C233.772 326.019 232.022 326.719 230.316 327.725C229.463 328.228 228.631 328.84 227.844 329.65C227.45 330.044 227.1 330.503 226.794 331.028C226.641 331.29 226.51 331.553 226.4 331.859C226.335 332.012 226.313 332.1 226.269 332.209L226.16 332.515C225.591 334.178 225.044 335.841 224.519 337.503C223.491 340.85 222.55 344.219 221.785 347.631C221.719 347.937 221.916 348.244 222.222 348.309C222.528 348.331 222.791 348.2 222.9 347.959Z" fill="#000072"/>
<path d="M147.716 321.95C147.759 322.016 147.803 322.081 147.825 322.147L147.672 321.884C147.694 321.928 147.694 321.928 147.716 321.95Z" fill="#000072"/>
<path d="M147.825 322.169L152.266 329.3C150.735 326.981 149.247 324.619 147.825 322.169Z" fill="#000072"/>
<path d="M147.694 319.653C147.716 319.675 147.738 319.719 147.76 319.741C147.803 319.784 147.825 319.85 147.869 319.894L147.694 319.653Z" fill="#000072"/>
<path d="M152.2 325.166C150.712 323.459 149.269 321.709 147.891 319.872L152.2 325.166Z" fill="#000072"/>
<path d="M448.104 325.166L452.413 319.916C451.035 321.731 449.613 323.481 448.104 325.166Z" fill="#000072"/>
<path d="M144.5 317.663C144.566 317.728 144.632 317.816 144.676 317.882L144.457 317.641C144.457 317.641 144.478 317.641 144.5 317.663Z" fill="#000072"/>
<path d="M144.675 317.881L149.094 322.825C149.072 322.825 149.072 322.803 149.05 322.781C147.541 321.206 146.075 319.565 144.675 317.881Z" fill="#000072"/>
<path d="M290.953 473.522C300.994 524.228 300.644 589.744 300.272 590.816C300.141 591.187 283.953 597.597 292.769 606.762C305.063 619.537 344.831 614.637 348.769 608.862C354.522 600.397 370.71 500.866 365.635 454.775" fill="white"/>
<path d="M289.75 473.763C289.422 474.769 289.247 475.731 289.116 476.694C288.985 477.656 288.919 478.597 288.875 479.538C288.853 480.478 288.853 481.397 288.897 482.316C288.941 483.234 289.028 484.153 289.116 485.05C289.291 486.866 289.532 488.681 289.816 490.497C290.1 492.313 290.428 494.106 290.757 495.9L290.997 497.256L291.216 498.613C291.369 499.509 291.5 500.428 291.61 501.325C291.85 503.141 292.069 504.956 292.266 506.772C292.682 510.403 293.075 514.056 293.425 517.709C294.825 532.3 295.744 546.978 296.269 561.634C296.532 568.963 296.685 576.313 296.707 583.619C296.707 585.434 296.707 587.272 296.663 589.044L296.641 589.7C296.641 589.897 296.619 590.116 296.619 590.269C296.619 590.291 296.619 590.334 296.619 590.291C296.619 590.313 296.641 590.181 296.641 590.138C296.16 590.466 297.91 587.6 297.997 587.928C298.172 587.797 298.238 587.775 298.238 587.753C298.26 587.731 298.26 587.731 298.26 587.731L298.194 587.775L297.625 588.081C296.772 588.519 295.875 589.022 295 589.547C293.25 590.619 291.5 591.866 289.882 593.55C289.072 594.403 288.307 595.388 287.672 596.569C287.038 597.75 286.557 599.194 286.469 600.725C286.425 601.491 286.469 602.256 286.6 603C286.732 603.744 286.95 604.444 287.213 605.078C287.738 606.369 288.46 607.441 289.225 608.359C290.735 610.175 292.507 611.597 294.366 612.713C296.203 613.85 298.128 614.703 300.053 615.381C301.978 616.081 303.903 616.606 305.85 617.022C309.722 617.853 313.594 618.269 317.444 618.444C321.294 618.619 325.144 618.531 328.95 618.225C332.778 617.919 336.585 617.394 340.413 616.519C342.338 616.081 344.241 615.556 346.232 614.791C346.735 614.594 347.238 614.375 347.741 614.134C348.266 613.894 348.791 613.609 349.338 613.259C349.622 613.084 349.907 612.888 350.191 612.669C350.475 612.45 350.782 612.188 351.11 611.859L351.35 611.597C351.438 611.509 351.525 611.4 351.591 611.313C351.678 611.203 351.766 611.094 351.832 610.984C351.897 610.875 351.941 610.809 352.007 610.722L352.094 610.591L352.16 610.459L352.291 610.219C352.378 610.066 352.444 609.913 352.532 609.781C352.816 609.213 353.013 608.709 353.21 608.206C353.407 607.703 353.582 607.222 353.735 606.741C354.063 605.778 354.347 604.859 354.61 603.941C355.135 602.081 355.594 600.266 356.032 598.428C356.907 594.775 357.672 591.122 358.394 587.469C359.838 580.163 361.085 572.856 362.222 565.528C363.36 558.2 364.388 550.872 365.328 543.5C366.269 536.15 367.078 528.778 367.8 521.406L368.369 515.872L368.916 510.338C369.266 506.641 369.594 502.944 369.835 499.225C370.316 491.809 370.491 484.35 370.185 476.891C370.032 473.15 369.703 469.431 369.2 465.713C368.938 463.853 368.632 461.994 368.26 460.156C367.888 458.319 367.45 456.481 366.882 454.666C366.685 454.009 365.963 453.638 365.307 453.834C364.803 453.988 364.453 454.425 364.432 454.928C364.278 456.788 364.147 458.625 364.038 460.441L363.688 465.931C363.469 469.584 363.25 473.216 363.053 476.869L361.872 498.766C361.5 506.072 361.063 513.4 360.385 520.706C359.707 528.013 358.853 535.297 357.957 542.581C357.038 549.866 356.01 557.128 354.872 564.391C353.735 571.631 352.51 578.872 351.088 586.047C350.388 589.634 349.622 593.2 348.791 596.722C348.375 598.472 347.938 600.222 347.435 601.928C347.194 602.781 346.932 603.613 346.669 604.4C346.538 604.794 346.407 605.188 346.253 605.538C346.122 605.909 345.969 606.238 345.838 606.5L345.75 606.675L345.707 606.741L345.685 606.763V606.784C345.685 606.784 345.663 606.806 345.685 606.806C345.707 606.784 345.707 606.763 345.728 606.741L345.75 606.719C345.728 606.741 345.575 606.872 345.357 607.025C345.138 607.178 344.832 607.331 344.525 607.484C344.197 607.638 343.869 607.791 343.497 607.922C342.053 608.491 340.391 608.95 338.728 609.344C335.36 610.109 331.838 610.591 328.316 610.875C324.794 611.159 321.228 611.247 317.728 611.094C314.207 610.941 310.728 610.547 307.382 609.825C305.719 609.453 304.078 609.016 302.525 608.469C300.972 607.9 299.507 607.244 298.216 606.434C296.925 605.647 295.766 604.706 294.935 603.678C294.519 603.175 294.213 602.694 294.06 602.278C293.885 601.863 293.841 601.534 293.863 601.228C293.885 600.922 293.972 600.55 294.213 600.113C294.453 599.675 294.803 599.194 295.263 598.691C296.182 597.706 297.45 596.766 298.85 595.913C299.55 595.497 300.272 595.081 301.06 594.688L301.716 594.338L301.957 594.206L302.132 594.097C302.197 594.053 302.307 593.988 302.525 593.834C302.657 594.119 304.45 591.209 303.969 591.494C303.991 591.384 304.013 591.188 304.013 591.166C304.035 591.013 304.035 590.947 304.035 590.838C304.057 590.509 304.057 590.269 304.078 590.006L304.1 589.263C304.144 587.359 304.144 585.5 304.144 583.641C304.122 576.203 303.969 568.788 303.707 561.394C303.182 546.584 302.263 531.775 300.841 517.009C300.491 513.313 300.097 509.616 299.682 505.941L299.025 500.406C298.916 499.488 298.807 498.569 298.719 497.628C298.61 496.709 298.522 495.769 298.435 494.85C298.238 492.991 298.063 491.153 297.778 489.294C297.516 487.456 297.166 485.619 296.75 483.803C296.532 482.884 296.313 481.988 296.05 481.091C295.788 480.194 295.482 479.297 295.11 478.422C294.738 477.547 294.344 476.672 293.863 475.819C293.382 474.966 292.857 474.113 292.178 473.303C291.675 472.713 290.778 472.625 290.188 473.128C289.969 473.281 289.838 473.5 289.75 473.763Z" fill="#000072"/>
<path d="M321.885 592.062C320.2 591.253 318.472 590.575 316.678 589.962C314.885 589.372 313.069 588.847 311.188 588.453L309.766 588.169L308.322 587.95C307.841 587.862 307.36 587.819 306.856 587.775C306.375 587.731 305.872 587.666 305.391 587.644L303.903 587.578C303.4 587.556 302.897 587.578 302.394 587.578L301.628 587.6C301.366 587.6 301.125 587.644 300.863 587.666L299.31 587.797C297.472 587.972 296.138 589.591 296.291 591.406C296.466 593.244 298.085 594.578 299.9 594.425C300.228 594.403 300.556 594.316 300.841 594.206L300.972 594.141L302.11 593.681C302.306 593.616 302.481 593.528 302.678 593.441L303.269 593.244C303.663 593.112 304.078 592.981 304.472 592.872L305.719 592.544C307.403 592.172 309.153 591.866 310.925 591.734C312.719 591.581 314.535 591.537 316.35 591.581C318.21 591.647 320.069 591.778 321.885 592.062Z" fill="#000072"/>
<path d="M152.266 327.003C150.778 325.275 149.313 323.503 147.913 321.688L152.266 327.003Z" fill="white"/>
<path d="M447.819 327.003L452.15 321.688C450.772 323.525 449.306 325.275 447.819 327.003Z" fill="white"/>
<g opacity="0.2">
<path d="M207.609 377.075C210.191 378.125 212.772 379.131 215.353 380.072C219.094 381.45 222.834 382.741 226.597 383.944C281.569 401.4 338.925 399.038 393.372 376.725C382.697 350.934 375.959 332.669 375.959 332.669C375.959 332.669 235.434 314.994 227.997 332.669C225.875 337.744 223.994 342.797 222.375 347.784L221.15 353.384L219.881 346.275C219.881 346.275 215.812 362.375 207.609 377.075Z" fill="#000072"/>
</g>
<path d="M488.463 290.712C487.631 297.997 472.778 291.084 469.541 289.509C469.278 289.378 468.994 289.64 469.081 289.969C469.388 291.215 470.175 294.037 472.209 298.565C474.725 304.144 476.759 308.453 475.622 311.384C474.397 314.49 469.366 315.694 463.066 314.972C459.544 314.578 455.781 317.64 452.413 321.359L452.391 321.381L452.172 321.665C452.238 321.578 452.303 321.512 452.347 321.425C450.706 323.24 449.153 325.231 447.797 327.025C442.153 333.478 435.766 339.209 428.831 344.262C419.863 350.562 409.975 355.528 399.563 359.422V359.356C399.563 359.356 385.256 364.628 364.103 369.484C364.103 369.484 345.203 373.531 327.922 375.762C327.922 375.762 314.709 377.337 300.163 377.337C285.638 377.337 272.184 375.762 272.184 375.762C254.925 373.531 236.003 369.484 236.003 369.484C214.872 364.65 200.544 359.356 200.544 359.356V359.422C190.109 355.528 180.222 350.562 171.275 344.262C164.341 339.209 157.953 333.478 152.309 327.025C150.931 325.209 149.378 323.219 147.716 321.381C147.781 321.469 147.847 321.556 147.913 321.665L147.672 321.359C147.672 321.359 147.694 321.381 147.716 321.381C144.347 317.662 140.563 314.556 137.041 314.95C130.741 315.65 125.709 314.447 124.484 311.362C123.347 308.431 125.403 304.122 127.897 298.544C129.931 294.037 130.741 291.194 131.025 289.947C131.091 289.64 130.828 289.356 130.566 289.487C127.328 291.084 112.475 297.975 111.644 290.69C111.163 286.665 117.703 274.459 119.978 261.969C126.584 225.765 128.509 218.634 128.509 218.634C128.553 218.394 134.963 192.45 144.522 173.353C134.963 147.869 128.706 73.5592 144.697 58.0498C157.538 45.5811 205.838 71.7436 223.95 90.0311C251.359 78.5904 293.863 76.8623 300.053 76.8842C302.197 76.8842 308.628 77.081 317.247 77.8029C333.719 79.2029 358.197 82.5279 376.156 90.0311C394.269 71.7436 442.569 45.5811 455.409 58.0498C471.4 73.5592 465.144 147.869 455.584 173.353C461.644 185.428 466.413 200.215 469.125 209.556C470.7 214.981 471.597 218.569 471.597 218.656C471.597 218.656 473.5 225.809 480.106 261.99C482.403 274.481 488.944 286.665 488.463 290.712Z" fill="white"/>
<path d="M459.084 161.256C463.263 143.187 465.997 116.5 465.013 94.4062C464.094 117.462 460.222 141.306 455.584 153.687C456.809 156.116 457.969 158.675 459.084 161.256Z" fill="white"/>
<g opacity="0.2">
<path d="M127.875 298.544C125.381 304.122 123.325 308.431 124.463 311.362C125.688 314.469 130.719 315.672 137.019 314.95C140.541 314.556 144.325 317.641 147.694 321.381C147.694 321.381 147.672 321.359 147.65 321.359L147.891 321.666C147.825 321.578 147.76 321.491 147.694 321.381C149.356 323.219 150.91 325.209 152.288 327.025C157.931 333.478 164.319 339.209 171.253 344.262C180.222 350.562 190.11 355.528 200.522 359.422V359.356C200.522 359.356 214.828 364.628 235.981 369.484C235.981 369.484 254.881 373.531 272.163 375.762C272.163 375.762 285.616 377.337 300.141 377.337C314.666 377.337 327.9 375.762 327.9 375.762C345.181 373.531 364.081 369.484 364.081 369.484C385.235 364.65 399.541 359.356 399.541 359.356V359.422C409.975 355.528 419.863 350.562 428.81 344.262C435.766 339.209 442.131 333.478 447.775 327.025C449.131 325.231 450.685 323.262 452.325 321.425C452.26 321.512 452.194 321.578 452.15 321.666L452.369 321.381L452.391 321.359C455.76 317.641 459.522 314.556 463.044 314.972C469.344 315.672 474.375 314.469 475.6 311.384C476.738 308.453 474.681 304.144 472.188 298.566C471.597 297.253 471.116 296.094 470.722 295.066C468.6 295.547 465.975 295.634 463.066 295.306C459.544 294.912 455.781 297.975 452.413 301.694L452.391 301.716L452.172 302C452.238 301.912 452.303 301.847 452.347 301.759C450.706 303.575 449.153 305.566 447.797 307.359C442.153 313.812 435.766 319.544 428.831 324.597C419.863 330.897 409.975 335.862 399.563 339.756V339.691C399.563 339.691 385.256 344.962 364.103 349.819C364.103 349.819 345.203 353.866 327.922 356.097C327.922 356.097 314.71 357.672 300.163 357.672C285.638 357.672 272.185 356.097 272.185 356.097C254.925 353.866 236.003 349.819 236.003 349.819C214.872 344.984 200.544 339.691 200.544 339.691V339.756C190.11 335.862 180.222 330.897 171.275 324.597C164.341 319.544 157.953 313.812 152.31 307.359C150.931 305.544 149.378 303.553 147.716 301.716C147.781 301.803 147.847 301.891 147.913 302L147.672 301.694C147.672 301.694 147.694 301.716 147.716 301.716C144.347 297.997 140.563 294.891 137.041 295.284C134.131 295.612 131.485 295.525 129.385 295.044C128.947 296.072 128.466 297.253 127.875 298.544Z" fill="#000072"/>
</g>
<path d="M469.125 209.556C463.656 210.234 458.078 210.584 452.435 210.584C378.585 210.584 318.56 151.369 317.247 77.8249C333.719 79.2249 358.197 82.5499 376.156 90.053C394.269 71.7655 442.569 45.603 455.41 58.0718C471.4 73.5812 465.144 147.891 455.585 173.375C461.644 185.428 466.413 200.237 469.125 209.556Z" fill="#FFB531"/>
<path d="M147.957 321.709L152.288 327.003C150.778 325.297 149.335 323.525 147.957 321.709Z" fill="#000072"/>
<path d="M447.819 327.003L452.15 321.709C450.75 323.525 449.306 325.297 447.819 327.003Z" fill="#000072"/>
<path d="M180.419 122.844C167.753 135.706 159.791 153.687 158.653 151.587C158.544 151.391 158.435 151.15 158.325 150.866C155.897 144.981 151.894 121.662 151.894 100.881C151.894 97.5343 152.003 94.5593 152.178 91.9562C152.66 84.9124 153.71 80.4062 155 77.5187C156.597 73.9968 160.228 72.9031 163.422 74.0843C171.932 77.2343 196.103 92.2843 203.978 101.953C205.378 103.659 193.107 109.981 180.419 122.844Z" fill="#FA508E"/>
<g opacity="0.2">
<path d="M180.419 122.844C167.753 135.706 159.791 153.687 158.653 151.587C158.544 151.391 158.434 151.15 158.325 150.866C161.147 139.95 168.913 124.878 174.884 113.984C183.022 99.1093 171.8 87.2749 162.044 83.7531C158.697 82.5281 154.738 87.7562 152.178 91.9562C152.659 84.9124 153.709 80.4062 155 77.5187C156.597 73.9968 160.228 72.9031 163.422 74.0843C171.931 77.2343 196.103 92.2843 203.978 101.953C205.378 103.659 193.106 109.981 180.419 122.844Z" fill="#000072"/>
</g>
<path d="M158.763 155.022C157.494 154.978 156.357 154.278 155.744 153.14C152.9 147.89 148.569 122.406 148.591 100.881C148.591 89.3092 149.707 81.2373 152.003 76.1623C154.213 71.306 159.485 69.1404 164.538 71.0217C173.222 74.2373 198.138 89.6373 206.494 99.8748C207.15 100.684 207.435 101.69 207.325 102.719C207.041 105.059 204.963 106.634 199.953 110.44C195.403 113.897 189.169 118.622 182.738 125.14C175.672 132.315 170.05 141.219 166.353 147.125C165.128 149.05 164.078 150.712 163.247 151.915C162.372 153.162 161.038 155.044 158.872 155.044C158.85 155.022 158.807 155.022 158.763 155.022ZM162.263 77.1685C160.885 76.6654 158.916 76.7967 157.975 78.8748C156.116 83.0092 155.153 90.4248 155.153 100.903C155.132 118.315 157.866 136.231 159.944 144.981C160.228 144.544 160.513 144.084 160.797 143.647C164.669 137.5 170.51 128.225 178.078 120.547C184.816 113.7 191.553 108.603 195.994 105.234C197.35 104.206 198.794 103.112 199.822 102.259C190.941 92.9404 169.7 79.9248 162.263 77.1685Z" fill="#000072"/>
<path d="M418.681 122.844C431.347 135.706 439.31 153.687 440.447 151.587C440.556 151.391 440.666 151.15 440.775 150.866C443.203 144.981 447.206 121.662 447.206 100.881C447.206 97.5343 447.097 94.5593 446.922 91.9562C446.441 84.9124 445.391 80.4062 444.1 77.5187C442.503 73.9968 438.872 72.9031 435.678 74.0843C427.169 77.2343 402.997 92.2843 395.122 101.953C393.722 103.659 405.994 109.981 418.681 122.844Z" fill="#FA508E"/>
<g opacity="0.2">
<path d="M418.681 122.844C431.347 135.706 439.31 153.687 440.447 151.587C440.556 151.391 440.666 151.15 440.775 150.866C437.953 139.95 430.188 124.878 424.216 113.984C416.078 99.1093 427.3 87.2749 437.056 83.7531C440.403 82.5281 444.363 87.7562 446.922 91.9562C446.441 84.9124 445.391 80.4062 444.1 77.5187C442.503 73.9968 438.872 72.9031 435.678 74.0843C427.169 77.2343 402.997 92.2843 395.122 101.953C393.722 103.659 405.994 109.981 418.681 122.844Z" fill="#000072"/>
</g>
<path d="M435.832 151.916C435 150.734 433.95 149.072 432.725 147.125C429.007 141.219 423.407 132.316 416.341 125.141C409.932 118.622 403.697 113.897 399.125 110.441C394.116 106.634 392.038 105.059 391.753 102.719C391.622 101.691 391.928 100.684 392.585 99.875C400.941 89.6375 425.857 74.2375 434.541 71.0218C439.594 69.1406 444.888 71.3062 447.075 76.1843C449.35 81.2375 450.466 89.3312 450.466 100.903C450.488 122.406 446.157 147.912 443.313 153.162C442.7 154.3 441.563 155 440.294 155.044C440.25 155.044 440.207 155.044 440.163 155.044C438.041 155.022 436.728 153.162 435.832 151.916ZM436.838 77.1687C429.4 79.925 408.16 92.9406 399.278 102.237C400.307 103.091 401.772 104.184 403.107 105.212C407.547 108.581 414.285 113.678 421.022 120.525C428.591 128.203 434.432 137.478 438.303 143.625C438.588 144.062 438.872 144.522 439.157 144.959C441.235 136.209 443.969 118.294 443.947 100.881C443.947 90.4031 442.985 83.0093 441.125 78.875C440.469 77.4312 439.31 76.9062 438.216 76.9062C437.713 76.9062 437.253 77.0156 436.838 77.1687Z" fill="#000072"/>
<path d="M272.425 373.925C266.431 372.7 260.46 371.453 254.488 370.163L245.541 368.194L241.078 367.187L238.847 366.684L237.731 366.422L237.185 366.291L236.66 366.159L232.263 365.022C230.797 364.628 229.331 364.256 227.866 363.841C224.935 363.053 222.003 362.222 219.094 361.369C216.185 360.516 213.275 359.641 210.388 358.722C208.944 358.263 207.5 357.803 206.078 357.322L203.935 356.6L202.863 356.228L201.835 355.856L196.825 354.062V359.356V359.422L201.856 355.922C197.372 354.237 192.997 352.356 188.731 350.234C184.466 348.112 180.331 345.75 176.372 343.147C175.891 342.819 175.388 342.491 174.906 342.163L173.463 341.178L172.063 340.128C171.581 339.756 171.122 339.406 170.641 339.056C168.76 337.591 166.944 336.081 165.15 334.528C163.378 332.953 161.65 331.334 159.966 329.672C159.55 329.256 159.135 328.841 158.719 328.403C158.303 327.987 157.91 327.55 157.494 327.113C157.078 326.675 156.685 326.238 156.291 325.8C156.094 325.581 155.897 325.363 155.7 325.144L155.416 324.816L155.263 324.641L155.197 324.553L155.153 324.509C155.175 324.509 155.481 324.947 155.438 324.881C155.46 324.903 155.416 324.837 155.328 324.728C155.241 324.619 155.131 324.466 154.935 324.269C154.738 324.072 154.475 323.853 154.147 323.678L155.131 324.488C153.6 322.738 152.135 320.944 150.735 319.084L150.647 318.953L150.56 318.866C150.319 318.603 150.188 318.494 150.1 318.428L149.969 318.341L150.078 318.428C150.166 318.494 150.275 318.581 150.516 318.844L144.675 323.787L149.313 329.475L155.328 324.728C153.36 322.147 151.303 319.522 148.81 317.028C147.563 315.781 146.206 314.578 144.566 313.462C143.735 312.916 142.838 312.391 141.81 311.975C140.781 311.537 139.6 311.209 138.31 311.1C137.981 311.078 137.653 311.078 137.325 311.078C137.15 311.078 136.997 311.1 136.822 311.1L136.428 311.144C136.078 311.188 135.728 311.209 135.378 311.231C134.678 311.275 134 311.297 133.322 311.297C132.644 311.297 131.988 311.253 131.375 311.166C130.763 311.078 130.172 310.969 129.647 310.816C129.144 310.663 128.706 310.466 128.422 310.291C128.138 310.116 128.05 309.984 128.05 309.962C128.05 309.984 127.985 309.853 127.985 309.525C127.985 309.197 128.05 308.694 128.181 308.103C128.313 307.534 128.531 306.9 128.772 306.244C129.013 305.587 129.297 304.909 129.581 304.209C130.172 302.809 130.828 301.387 131.485 299.9C132.163 298.369 132.819 296.816 133.41 295.219C133.694 294.409 133.978 293.6 134.241 292.747C134.372 292.331 134.503 291.894 134.613 291.434L134.7 291.084L134.744 290.909L134.766 290.822C134.766 290.866 134.81 290.647 134.81 290.559C134.831 290.45 134.853 290.341 134.853 290.209C134.941 289.247 134.7 288.175 134.044 287.278C133.716 286.819 133.278 286.403 132.71 286.075C132.141 285.747 131.441 285.528 130.719 285.506C129.997 285.484 129.297 285.659 128.75 285.944L128.619 286.009L128.378 286.141L127.875 286.381C127.525 286.534 127.197 286.687 126.847 286.841C126.169 287.147 125.469 287.453 124.769 287.716C123.391 288.284 121.991 288.787 120.613 289.181C119.256 289.575 117.878 289.881 116.741 289.969C116.172 290.012 115.669 289.991 115.363 289.947C115.21 289.925 115.122 289.881 115.122 289.881C115.122 289.881 115.188 289.903 115.275 289.991C115.363 290.078 115.45 290.209 115.472 290.253C115.494 290.319 115.472 290.297 115.472 290.209C115.472 290.275 115.472 290.144 115.494 289.947C115.516 289.728 115.56 289.466 115.625 289.159C115.756 288.569 115.953 287.869 116.172 287.191C116.391 286.491 116.631 285.769 116.894 285.047C117.922 282.137 119.081 279.097 120.131 276.012C121.203 272.928 122.188 269.756 122.997 266.497C123.194 265.687 123.391 264.856 123.566 264.025C123.653 263.609 123.741 263.194 123.806 262.778L124.025 261.597L124.9 256.894C126.06 250.637 127.241 244.359 128.466 238.125C129.078 234.997 129.691 231.891 130.347 228.784C130.675 227.231 130.981 225.678 131.331 224.147L131.835 221.85L132.097 220.712L132.228 220.166L132.338 219.684L132.403 219.4L133.081 216.775C133.344 215.812 133.606 214.872 133.869 213.909C134.394 212.006 134.963 210.103 135.531 208.222C136.669 204.437 137.894 200.675 139.185 196.934C140.475 193.194 141.853 189.519 143.319 185.866C144.063 184.05 144.828 182.256 145.616 180.462C146.425 178.691 147.256 176.919 148.11 175.191L148.919 173.594L148.285 171.909C147.585 170.028 146.972 168.059 146.403 166.047C145.835 164.034 145.331 162 144.872 159.944C143.931 155.831 143.166 151.653 142.488 147.431C141.131 139.009 140.213 130.5 139.622 121.991C139.053 113.459 138.835 104.928 139.119 96.4406C139.272 92.1969 139.556 87.975 140.06 83.8187C140.563 79.6625 141.263 75.55 142.335 71.6781C142.881 69.7531 143.516 67.8719 144.281 66.1437C145.047 64.4375 145.966 62.8406 146.994 61.6594C147.125 61.5062 147.256 61.375 147.388 61.2437L147.585 61.0469L147.738 60.8937C147.956 60.6969 148.197 60.5219 148.481 60.3469C149.028 60.0187 149.663 59.7344 150.406 59.5156C151.872 59.1 153.666 58.9469 155.525 59.0125C157.385 59.0781 159.331 59.3406 161.3 59.7344C163.247 60.1281 165.238 60.6312 167.185 61.2219C171.122 62.4031 175.016 63.9125 178.866 65.6187C182.716 67.3031 186.5 69.1844 190.197 71.2187C193.916 73.2312 197.547 75.3969 201.113 77.6719C204.678 79.9469 208.135 82.375 211.481 84.9125C214.806 87.4718 218.022 90.1625 220.866 93.0281L222.9 95.0625L225.569 93.9687C228.413 92.7875 231.344 91.7375 234.319 90.7969C235.063 90.5781 235.806 90.3156 236.572 90.0969L238.825 89.4406C240.335 89.025 241.866 88.6094 243.397 88.2594C249.522 86.75 255.778 85.5687 262.056 84.5625C268.356 83.6 274.678 82.8344 281.044 82.2437C284.216 81.9594 287.41 81.7187 290.581 81.5218C292.178 81.4343 293.753 81.3469 295.35 81.2812C296.138 81.2375 296.925 81.2156 297.713 81.1937C298.5 81.1718 299.288 81.15 300.01 81.15C300.731 81.15 301.519 81.1718 302.306 81.1937C303.094 81.2156 303.881 81.2375 304.669 81.2812C306.244 81.3469 307.841 81.4343 309.438 81.5218C312.61 81.7187 315.803 81.9594 318.975 82.2437C325.341 82.8344 331.663 83.6 337.963 84.5625C344.241 85.5469 350.497 86.7281 356.622 88.2594C358.153 88.6312 359.685 89.0469 361.194 89.4625L363.447 90.1187C364.213 90.3375 364.935 90.5781 365.7 90.8187C368.675 91.7593 371.606 92.8093 374.45 93.9906L377.119 95.1062L379.153 93.05C381.997 90.1844 385.213 87.4937 388.538 84.9344C391.863 82.3969 395.341 79.9687 398.906 77.6937C402.472 75.4187 406.103 73.2531 409.822 71.2406C413.541 69.2281 417.325 67.3468 421.153 65.6625C425.003 63.9781 428.897 62.4687 432.835 61.2875C434.803 60.6968 436.772 60.1937 438.719 59.8C440.666 59.4062 442.613 59.1656 444.472 59.1C446.331 59.0343 448.103 59.1875 449.569 59.6031C450.291 59.8219 450.947 60.0843 451.472 60.4125C451.735 60.5875 451.975 60.7625 452.194 60.9593L452.347 61.1125L452.544 61.3094C452.675 61.4406 452.806 61.5718 452.938 61.725C453.966 62.9062 454.863 64.4812 455.628 66.1875C456.394 67.9156 457.028 69.775 457.553 71.7219C458.625 75.5937 459.325 79.7062 459.828 83.8625C460.331 88.0187 460.616 92.2406 460.769 96.4625C461.075 104.928 460.835 113.481 460.266 122.012C459.675 130.544 458.735 139.053 457.4 147.453C456.722 151.653 455.935 155.831 455.016 159.944C454.556 162 454.031 164.034 453.485 166.047C452.916 168.059 452.303 170.028 451.603 171.887L450.969 173.594L451.778 175.234C452.631 176.962 453.463 178.712 454.272 180.506C455.06 182.3 455.825 184.094 456.569 185.909C458.035 189.541 459.413 193.237 460.703 196.978C461.994 200.719 463.219 204.481 464.356 208.266C464.925 210.169 465.472 212.05 466.019 213.953C466.281 214.894 466.544 215.856 466.806 216.819L467.485 219.444L467.55 219.728L467.66 220.209L467.791 220.756L468.053 221.894L468.556 224.191C468.885 225.722 469.213 227.275 469.541 228.828C470.175 231.934 470.81 235.062 471.4 238.169C472.625 244.403 473.806 250.681 474.966 256.937L475.841 261.641L476.06 262.822C476.147 263.237 476.213 263.653 476.3 264.069C476.475 264.9 476.65 265.731 476.869 266.541C477.678 269.822 478.663 272.972 479.735 276.078C480.785 279.162 481.944 282.181 482.972 285.112C483.235 285.834 483.475 286.556 483.694 287.256C483.913 287.956 484.11 288.634 484.241 289.225C484.306 289.531 484.35 289.794 484.372 289.991C484.394 290.209 484.394 290.319 484.394 290.231C484.394 290.319 484.372 290.319 484.394 290.253C484.416 290.188 484.503 290.034 484.613 289.947C484.722 289.859 484.81 289.816 484.81 289.816C484.81 289.816 484.788 289.816 484.766 289.837C484.744 289.837 484.722 289.837 484.7 289.859L484.613 289.881C484.328 289.947 483.825 289.947 483.256 289.903C482.119 289.816 480.763 289.509 479.406 289.116C478.05 288.722 476.65 288.219 475.272 287.65C474.572 287.366 473.894 287.081 473.216 286.775C472.866 286.622 472.538 286.469 472.188 286.316L471.685 286.075L471.444 285.944L471.313 285.878C470.744 285.594 470.044 285.419 469.3 285.441C468.556 285.462 467.835 285.681 467.266 286.009C466.675 286.337 466.238 286.775 465.91 287.234C465.231 288.153 464.991 289.269 465.078 290.253C465.1 290.384 465.1 290.494 465.122 290.603C465.144 290.691 465.188 290.909 465.166 290.866L465.188 290.953L465.231 291.128L465.319 291.478C465.428 291.937 465.56 292.353 465.691 292.791C465.953 293.644 466.238 294.453 466.522 295.262C467.113 296.881 467.747 298.434 468.447 299.944C469.103 301.431 469.76 302.853 470.35 304.253C470.635 304.953 470.919 305.631 471.16 306.287C471.4 306.944 471.597 307.578 471.75 308.147C471.881 308.716 471.947 309.219 471.947 309.525C471.947 309.831 471.881 309.941 471.903 309.897C471.903 309.897 471.881 309.919 471.838 309.962C471.794 310.006 471.706 310.094 471.575 310.181C471.313 310.356 470.897 310.531 470.394 310.684C469.891 310.837 469.3 310.947 468.688 311.034C468.075 311.122 467.419 311.166 466.741 311.166C466.063 311.166 465.385 311.166 464.685 311.1C464.335 311.078 463.985 311.034 463.635 311.012L463.241 310.969C463.066 310.947 462.891 310.947 462.738 310.947C462.388 310.947 462.06 310.947 461.731 310.969C460.419 311.078 459.216 311.406 458.188 311.844C457.16 312.281 456.241 312.806 455.41 313.353C453.769 314.447 452.391 315.672 451.144 316.919C448.65 319.412 446.594 322.059 444.625 324.641L450.816 329.519L455.453 323.831L449.46 318.756C449.7 318.494 449.831 318.384 449.897 318.319L450.006 318.231L449.875 318.341C449.788 318.406 449.656 318.516 449.416 318.8L449.328 318.887L449.241 319.019C447.863 320.856 446.397 322.65 444.866 324.4L445.872 323.569C445.522 323.766 445.26 323.984 445.063 324.181C444.866 324.378 444.735 324.531 444.647 324.662C444.56 324.772 444.516 324.838 444.538 324.816C444.472 324.881 444.822 324.444 444.822 324.444L444.778 324.488L444.713 324.575L444.56 324.75L444.275 325.078C444.078 325.297 443.881 325.516 443.685 325.734C443.291 326.172 442.897 326.609 442.481 327.047C442.066 327.484 441.672 327.9 441.256 328.337C440.841 328.753 440.425 329.191 440.01 329.606C438.347 331.269 436.619 332.909 434.847 334.462C433.075 336.016 431.238 337.525 429.378 338.991C428.919 339.363 428.438 339.712 427.956 340.062L426.556 341.113L425.113 342.097C424.631 342.425 424.128 342.753 423.647 343.081C419.688 345.684 415.553 348.047 411.31 350.147C407.044 352.269 402.669 354.15 398.185 355.834L403.369 359.422V359.356V353.909L398.206 355.747L397.178 356.119L396.128 356.491L393.985 357.212C392.563 357.694 391.119 358.153 389.675 358.613C386.788 359.531 383.878 360.384 380.969 361.238C378.06 362.069 375.128 362.9 372.197 363.687C370.731 364.103 369.266 364.475 367.8 364.869L363.425 366.006L363.185 366.072L362.9 366.137L362.353 366.269L361.238 366.531L359.006 367.034L354.544 368.041L345.597 370.031C339.625 371.344 333.653 372.612 327.681 373.903C326.675 374.122 326.041 375.106 326.26 376.113C326.456 377.009 327.288 377.622 328.185 377.578C334.375 377.272 340.522 376.616 346.647 375.806C349.71 375.412 352.75 374.953 355.813 374.472C357.344 374.231 358.853 373.969 360.385 373.706L362.66 373.312L363.797 373.116L364.366 373.006L364.65 372.962L364.956 372.897C366.488 372.569 368.019 372.263 369.528 371.913C371.038 371.563 372.547 371.234 374.056 370.863C377.075 370.141 380.072 369.353 383.047 368.544C386.044 367.712 389.019 366.837 391.972 365.919C393.46 365.459 394.925 364.978 396.413 364.497L398.622 363.753L399.738 363.359L400.875 362.966L395.713 359.356V359.422V364.956L400.897 363.031C405.6 361.281 410.238 359.313 414.766 357.081C419.294 354.85 423.691 352.356 427.935 349.578C428.46 349.228 428.985 348.878 429.51 348.528L431.106 347.434L432.66 346.297C433.163 345.903 433.666 345.531 434.169 345.159C436.16 343.606 438.128 342.009 440.031 340.347C441.935 338.684 443.794 336.956 445.588 335.163C446.047 334.725 446.485 334.266 446.922 333.806C447.36 333.347 447.797 332.888 448.235 332.428C448.672 331.969 449.088 331.487 449.525 331.028L450.16 330.328L450.466 329.978L450.619 329.803L450.706 329.716L450.75 329.672C450.772 329.672 451.1 329.212 451.056 329.278C451.078 329.234 451.035 329.3 450.969 329.409C450.881 329.519 450.772 329.672 450.575 329.869C450.378 330.066 450.116 330.284 449.788 330.459L450.794 329.628C452.435 327.747 454.031 325.822 455.541 323.809L455.366 324.028C455.125 324.291 454.994 324.4 454.928 324.466L454.819 324.553L454.95 324.444C455.038 324.378 455.169 324.269 455.41 323.984L449.416 318.909L444.756 324.575L450.947 329.453C451.91 328.206 452.85 327.003 453.813 325.844C454.775 324.684 455.76 323.569 456.788 322.562C457.794 321.556 458.844 320.659 459.85 319.981C460.353 319.653 460.835 319.391 461.272 319.194C461.71 319.019 462.081 318.931 462.344 318.909C462.41 318.909 462.475 318.909 462.541 318.909C462.563 318.909 462.606 318.909 462.628 318.909H462.672L462.847 318.931C463.285 318.975 463.744 319.019 464.181 319.062C465.078 319.128 465.997 319.15 466.916 319.15C467.835 319.128 468.775 319.084 469.738 318.953C470.7 318.822 471.685 318.647 472.713 318.341C473.741 318.034 474.813 317.619 475.885 316.941C476.431 316.591 476.978 316.175 477.481 315.672C478.006 315.169 478.488 314.556 478.881 313.856C479.691 312.412 479.953 310.903 479.975 309.634C479.975 308.366 479.8 307.272 479.56 306.287C479.319 305.303 479.035 304.406 478.728 303.575C478.422 302.722 478.094 301.934 477.766 301.169C477.11 299.616 476.431 298.15 475.797 296.728C475.185 295.35 474.616 293.95 474.113 292.55C473.872 291.85 473.631 291.172 473.413 290.494C473.303 290.166 473.216 289.816 473.128 289.488L473.063 289.247L473.041 289.137L473.019 289.072C472.997 289.006 473.041 289.203 473.063 289.269C473.085 289.356 473.085 289.466 473.106 289.553C473.172 290.341 472.997 291.238 472.428 292.003C472.144 292.397 471.772 292.747 471.291 293.031C470.81 293.316 470.175 293.513 469.541 293.534C468.885 293.556 468.294 293.403 467.813 293.162L467.944 293.228L468.228 293.359L468.797 293.644C469.191 293.819 469.563 293.994 469.956 294.169C470.722 294.519 471.51 294.847 472.297 295.175C473.872 295.809 475.491 296.4 477.175 296.903C478.881 297.406 480.631 297.844 482.688 298.019C483.716 298.084 484.831 298.106 486.1 297.887C486.735 297.778 487.435 297.581 488.178 297.253C488.9 296.925 489.688 296.444 490.344 295.809C491.022 295.153 491.569 294.344 491.897 293.556C492.247 292.747 492.422 291.959 492.51 291.259C492.619 290.384 492.553 289.706 492.488 289.116C492.422 288.525 492.313 288.022 492.225 287.541C492.006 286.578 491.766 285.725 491.503 284.894C491.241 284.062 490.978 283.275 490.716 282.487C489.622 279.381 488.506 276.45 487.5 273.497C486.494 270.544 485.575 267.612 484.875 264.681C484.7 263.959 484.525 263.216 484.394 262.494C484.328 262.122 484.241 261.772 484.175 261.4L483.956 260.219L483.103 255.494C481.944 249.216 480.785 242.916 479.56 236.637C478.947 233.487 478.335 230.359 477.7 227.209C477.372 225.634 477.066 224.059 476.716 222.484L476.191 220.1L475.928 218.897L475.775 218.284L475.6 217.606L475.578 217.497L475.535 217.3L475.447 216.928L475.25 216.184L474.856 214.697C474.594 213.712 474.331 212.728 474.047 211.744C473.5 209.775 472.931 207.828 472.363 205.881C471.203 201.987 469.956 198.116 468.644 194.266C467.31 190.416 465.91 186.587 464.378 182.781C463.613 180.878 462.803 178.997 461.972 177.116C461.141 175.234 460.244 173.353 459.325 171.494L459.5 174.841C460.31 172.653 461.01 170.487 461.622 168.322C462.235 166.156 462.781 163.991 463.285 161.825C464.269 157.494 465.1 153.141 465.8 148.787C467.2 140.081 468.185 131.353 468.797 122.581C469.41 113.809 469.65 105.016 469.344 96.1562C469.191 91.7375 468.885 87.2969 468.36 82.8562C467.835 78.4156 467.091 73.9312 465.866 69.4469C465.253 67.2156 464.51 64.9625 463.503 62.7312C462.497 60.5 461.272 58.2469 459.456 56.125C459.238 55.8625 458.997 55.6 458.735 55.3375L458.363 54.9656L457.925 54.5719C457.335 54.0469 456.7 53.5875 456.044 53.1719C454.731 52.3625 453.353 51.7937 452.019 51.4C449.306 50.6344 446.725 50.4812 444.253 50.5469C441.781 50.6344 439.419 50.9625 437.122 51.4C434.825 51.8375 432.594 52.4281 430.406 53.0843C426.031 54.3968 421.831 56.0156 417.741 57.8094C413.65 59.6031 409.669 61.5937 405.753 63.7156C401.86 65.8375 398.031 68.0906 394.291 70.4969C390.55 72.9031 386.897 75.4187 383.353 78.1531C379.81 80.8875 376.353 83.7531 373.094 87.0344L377.797 86.0937C374.669 84.8031 371.497 83.6656 368.325 82.6594C367.538 82.4187 366.728 82.1562 365.941 81.9156L363.535 81.2156C361.938 80.7781 360.319 80.3406 358.722 79.9469C352.291 78.35 345.816 77.125 339.319 76.0969C332.822 75.0906 326.325 74.3031 319.785 73.7125C316.525 73.4062 313.266 73.1656 309.985 72.9687C308.344 72.8594 306.703 72.7719 305.063 72.7062C304.231 72.6625 303.422 72.6406 302.591 72.6187C301.76 72.5969 300.928 72.575 300.031 72.575C299.135 72.575 298.325 72.5969 297.472 72.6187C296.641 72.6406 295.81 72.6844 295 72.7062C293.36 72.7719 291.719 72.8594 290.078 72.9687C286.797 73.1656 283.538 73.4281 280.278 73.7125C273.76 74.3031 267.241 75.1125 260.744 76.1187C254.247 77.1469 247.772 78.3719 241.341 79.9687C239.722 80.3625 238.125 80.8 236.528 81.2375L234.122 81.9375C233.313 82.1562 232.525 82.4187 231.738 82.6812C228.544 83.6875 225.394 84.825 222.266 86.1156L226.969 87.0562C223.71 83.775 220.253 80.9094 216.71 78.175C213.166 75.4625 209.491 72.925 205.772 70.5406C202.031 68.1562 198.225 65.8812 194.31 63.7812C190.416 61.6594 186.413 59.6906 182.322 57.8968C178.231 56.1031 174.031 54.4844 169.656 53.1719C167.469 52.5156 165.238 51.9469 162.941 51.4875C160.644 51.05 158.281 50.7219 155.81 50.6344C153.338 50.5687 150.756 50.7219 148.044 51.4875C146.71 51.8812 145.331 52.45 144.019 53.2594C143.363 53.6531 142.728 54.1344 142.138 54.6594L141.7 55.0531L141.328 55.425C141.088 55.6875 140.847 55.9281 140.606 56.1906C138.791 58.2906 137.566 60.5437 136.581 62.775C135.597 65.0062 134.853 67.2593 134.241 69.4906C133.016 73.975 132.272 78.4375 131.747 82.8781C131.222 87.3187 130.938 91.7593 130.785 96.1781C130.478 105.016 130.741 113.831 131.331 122.603C131.944 131.375 132.928 140.103 134.328 148.809C135.028 153.162 135.86 157.494 136.844 161.825C137.347 163.991 137.894 166.156 138.506 168.322C139.119 170.487 139.797 172.653 140.628 174.841L140.803 171.559C139.885 173.419 139.01 175.278 138.156 177.159C137.325 179.041 136.516 180.922 135.75 182.825C134.219 186.631 132.819 190.459 131.485 194.309C130.172 198.159 128.925 202.031 127.766 205.925C127.175 207.872 126.628 209.819 126.081 211.787C125.819 212.772 125.535 213.756 125.272 214.741L124.878 216.228L124.681 216.972L124.594 217.344L124.55 217.541L124.528 217.65L124.353 218.328L124.2 218.941L123.938 220.144L123.413 222.528C123.085 224.103 122.756 225.678 122.428 227.253C121.794 230.403 121.181 233.531 120.569 236.681C119.366 242.959 118.185 249.259 117.047 255.537L116.194 260.262L115.975 261.444C115.91 261.816 115.844 262.166 115.756 262.537C115.603 263.259 115.45 264.003 115.275 264.725C114.575 267.656 113.656 270.587 112.65 273.541C111.644 276.494 110.528 279.447 109.435 282.531C109.172 283.319 108.888 284.106 108.647 284.937C108.385 285.769 108.144 286.622 107.925 287.584C107.816 288.066 107.728 288.569 107.663 289.159C107.597 289.728 107.553 290.406 107.641 291.281C107.728 291.981 107.903 292.747 108.253 293.534C108.581 294.322 109.128 295.131 109.785 295.766C110.441 296.4 111.206 296.881 111.928 297.187C112.65 297.516 113.328 297.691 113.985 297.8C115.253 298.019 116.347 297.997 117.375 297.931C119.41 297.756 121.16 297.319 122.866 296.816C124.55 296.313 126.169 295.722 127.744 295.087C128.531 294.759 129.297 294.431 130.085 294.081C130.478 293.906 130.85 293.731 131.244 293.556L131.813 293.272L132.097 293.141L132.228 293.075C131.769 293.294 131.178 293.447 130.544 293.447C129.91 293.425 129.319 293.25 128.838 292.966C128.356 292.681 128.006 292.353 127.722 291.959C127.175 291.216 127 290.363 127.066 289.597C127.066 289.509 127.088 289.422 127.11 289.312C127.11 289.247 127.153 289.072 127.153 289.116L127.131 289.181L127.11 289.291L127.044 289.531C126.956 289.859 126.869 290.187 126.76 290.537C126.563 291.216 126.322 291.916 126.06 292.616C125.556 294.016 124.988 295.416 124.353 296.794C123.719 298.216 123.041 299.703 122.385 301.234C122.056 302 121.728 302.809 121.422 303.641C121.116 304.472 120.831 305.369 120.591 306.353C120.35 307.337 120.175 308.409 120.175 309.678C120.197 310.947 120.438 312.434 121.247 313.834C121.641 314.512 122.122 315.125 122.625 315.628C123.128 316.131 123.675 316.547 124.222 316.875C125.294 317.553 126.366 317.969 127.372 318.275C128.4 318.581 129.385 318.756 130.325 318.887C131.288 319.019 132.228 319.062 133.147 319.084C134.066 319.106 134.963 319.062 135.86 318.997C136.297 318.975 136.756 318.931 137.194 318.866L137.369 318.844H137.413C137.435 318.844 137.478 318.844 137.5 318.844C137.566 318.844 137.631 318.844 137.697 318.844C137.981 318.866 138.375 318.953 138.813 319.128C139.25 319.303 139.753 319.587 140.256 319.916C141.263 320.594 142.313 321.491 143.341 322.497C144.347 323.503 145.353 324.619 146.316 325.778C147.278 326.937 148.241 328.163 149.181 329.409L155.197 324.662L150.538 318.997L144.697 323.941C144.938 324.203 145.069 324.313 145.156 324.378L145.288 324.466L145.178 324.378C145.091 324.313 144.981 324.225 144.741 323.962L144.566 323.744C146.075 325.756 147.672 327.681 149.313 329.562L150.297 330.372C149.969 330.175 149.706 329.978 149.531 329.781C149.356 329.606 149.225 329.453 149.16 329.344C149.094 329.234 149.05 329.191 149.072 329.212C149.028 329.147 149.356 329.584 149.378 329.606L149.422 329.65L149.51 329.738L149.663 329.912L149.969 330.262L150.603 330.962C151.041 331.422 151.456 331.903 151.894 332.363C152.331 332.822 152.769 333.281 153.206 333.741C153.644 334.2 154.081 334.638 154.541 335.097C156.335 336.891 158.194 338.619 160.097 340.281C162 341.944 163.947 343.562 165.96 345.094C166.463 345.487 166.966 345.859 167.469 346.231L169.022 347.369L170.619 348.462C171.144 348.812 171.669 349.162 172.194 349.512C176.438 352.269 180.835 354.762 185.363 357.016C189.891 359.247 194.506 361.216 199.21 362.966L204.241 364.847V359.466V359.4L199.21 362.9L200.347 363.294L201.463 363.687L203.672 364.431C205.16 364.912 206.625 365.394 208.113 365.853C211.088 366.772 214.063 367.647 217.038 368.478C220.035 369.287 223.031 370.075 226.028 370.797C227.538 371.169 229.047 371.497 230.556 371.847C232.066 372.197 233.597 372.503 235.128 372.831C235.216 372.853 235.347 372.875 235.435 372.897L235.719 372.941L236.288 373.05L237.425 373.247L239.7 373.641C241.21 373.903 242.741 374.144 244.272 374.406C245.803 374.647 247.313 374.887 248.844 375.106C250.375 375.325 251.906 375.544 253.416 375.762C259.541 376.594 265.666 377.272 271.856 377.622C272.885 377.687 273.76 376.9 273.825 375.872C273.978 374.909 273.322 374.1 272.425 373.925Z" fill="#000072"/>
<path d="M396.653 308.519C406.33 308.519 414.175 304.758 414.175 300.119C414.175 295.48 406.33 291.719 396.653 291.719C386.976 291.719 379.131 295.48 379.131 300.119C379.131 304.758 386.976 308.519 396.653 308.519Z" fill="#F27E80"/>
<path d="M203.454 308.519C213.131 308.519 220.975 304.758 220.975 300.119C220.975 295.48 213.131 291.719 203.454 291.719C193.776 291.719 185.932 295.48 185.932 300.119C185.932 304.758 193.776 308.519 203.454 308.519Z" fill="#F27E80"/>
<path d="M273.781 287.059C273.781 287.059 278.375 299.112 289.137 296.334C301.387 293.162 299.922 278.55 299.922 278.55" fill="white"/>
<path d="M326.522 287.059C326.522 287.059 321.928 299.112 311.166 296.334C298.916 293.162 300.381 278.55 300.381 278.55" fill="white"/>
<path d="M272.053 287.715L272.163 288.109L272.272 288.459C272.359 288.7 272.425 288.919 272.513 289.159C272.688 289.619 272.884 290.056 273.103 290.515C273.519 291.39 274.022 292.265 274.591 293.075C275.728 294.715 277.172 296.247 278.988 297.45C280.781 298.653 282.991 299.397 285.222 299.55C286.338 299.615 287.431 299.55 288.503 299.375C288.766 299.331 289.028 299.265 289.291 299.222C289.553 299.156 289.816 299.112 290.056 299.025L290.8 298.806L291.172 298.697L291.544 298.565L292.288 298.281C292.528 298.194 292.769 298.062 293.009 297.953C293.25 297.822 293.491 297.734 293.731 297.581L294.431 297.187C295.35 296.619 296.203 295.962 296.991 295.219C297.384 294.847 297.734 294.453 298.084 294.037C298.413 293.622 298.763 293.206 299.047 292.769C299.353 292.331 299.594 291.872 299.856 291.412C300.097 290.953 300.338 290.494 300.513 290.012C301.322 288.131 301.759 286.162 301.978 284.215C302.066 283.253 302.131 282.269 302.088 281.306C302.066 280.825 302.044 280.344 302 279.862C301.978 279.622 301.956 279.381 301.913 279.14L301.869 278.769L301.803 278.375C301.628 277.369 300.688 276.69 299.681 276.865C298.872 276.997 298.281 277.653 298.15 278.419L298.106 278.769C298.106 278.812 298.084 278.944 298.084 279.031L298.063 279.315C298.041 279.512 298.019 279.709 298.019 279.906C297.975 280.3 297.931 280.715 297.866 281.109C297.734 281.919 297.603 282.706 297.406 283.472C297.034 285.025 296.509 286.49 295.809 287.803C295.634 288.131 295.438 288.437 295.263 288.765C295.066 289.072 294.869 289.378 294.628 289.64C294.431 289.925 294.169 290.187 293.95 290.45C293.688 290.69 293.469 290.953 293.206 291.172C292.178 292.09 290.953 292.769 289.619 293.25L289.378 293.337L289.116 293.403L288.591 293.556C288.416 293.622 288.241 293.644 288.066 293.665C287.891 293.687 287.716 293.753 287.563 293.775L287.059 293.84C286.884 293.884 286.731 293.862 286.556 293.884C286.228 293.928 285.9 293.906 285.572 293.906C284.259 293.84 283.013 293.512 281.788 292.856C280.584 292.2 279.425 291.259 278.375 290.144C277.85 289.575 277.347 288.962 276.866 288.328C276.625 288 276.384 287.694 276.166 287.344C276.056 287.169 275.947 287.015 275.838 286.84L275.684 286.6C275.641 286.534 275.575 286.425 275.553 286.381L275.269 286.031C274.634 285.244 273.475 285.134 272.688 285.769C272.053 286.25 271.856 287.015 272.053 287.715Z" fill="#000072"/>
<path d="M324.794 286.381C324.772 286.425 324.706 286.512 324.663 286.6L324.51 286.84C324.4 287.015 324.291 287.168 324.181 287.343C323.963 287.672 323.722 288 323.481 288.328C323 288.962 322.497 289.575 321.972 290.144C320.922 291.281 319.763 292.222 318.56 292.856C317.356 293.534 316.088 293.84 314.775 293.906C314.447 293.906 314.119 293.906 313.791 293.884C313.616 293.862 313.463 293.884 313.288 293.84L312.785 293.775C312.61 293.753 312.435 293.709 312.281 293.665C312.106 293.622 311.931 293.6 311.756 293.556L311.231 293.403L310.969 293.337L310.728 293.25C309.394 292.768 308.169 292.09 307.141 291.172C306.878 290.953 306.638 290.69 306.397 290.45C306.178 290.187 305.916 289.925 305.719 289.64C305.5 289.378 305.303 289.072 305.085 288.765C304.91 288.459 304.713 288.153 304.538 287.803C303.838 286.49 303.313 285.025 302.941 283.472C302.744 282.706 302.613 281.897 302.481 281.109C302.416 280.715 302.372 280.3 302.328 279.906C302.306 279.709 302.285 279.512 302.285 279.315L302.263 279.031C302.263 278.943 302.241 278.834 302.241 278.769L302.197 278.44C302.044 277.434 301.103 276.734 300.097 276.887C299.288 276.997 298.675 277.631 298.544 278.418L298.478 278.812L298.435 279.184C298.413 279.425 298.369 279.665 298.347 279.906C298.303 280.387 298.281 280.868 298.26 281.35C298.216 282.312 298.281 283.275 298.369 284.259C298.566 286.206 299.003 288.153 299.835 290.056C300.031 290.537 300.272 290.997 300.491 291.456C300.753 291.915 300.994 292.375 301.3 292.812C301.585 293.25 301.935 293.665 302.263 294.081C302.613 294.475 302.963 294.89 303.356 295.262C304.122 296.028 304.997 296.684 305.916 297.231L306.616 297.625C306.856 297.756 307.097 297.865 307.338 297.997C307.578 298.106 307.819 298.237 308.06 298.325L308.803 298.609L309.175 298.74L309.547 298.85L310.291 299.068C310.531 299.156 310.816 299.2 311.056 299.265C311.319 299.309 311.581 299.397 311.844 299.418C312.916 299.593 314.01 299.659 315.125 299.593C317.356 299.44 319.566 298.675 321.36 297.494C323.175 296.312 324.619 294.781 325.756 293.119C326.325 292.287 326.806 291.434 327.244 290.559C327.441 290.122 327.638 289.662 327.835 289.203C327.922 288.984 328.01 288.744 328.075 288.503L328.185 288.153L328.294 287.759C328.578 286.775 328.01 285.768 327.047 285.484C326.325 285.265 325.56 285.528 325.1 286.075L324.794 286.381Z" fill="#000072"/>
<path d="M314.928 270.894C314.928 274.35 310.422 277.412 306.288 279.491C301.957 281.656 297.1 281.656 292.769 279.491C288.635 277.412 284.128 274.372 284.128 270.894C284.107 260.459 314.928 260.459 314.928 270.894Z" fill="#000072"/>
<g opacity="0.5">
<path d="M305.631 268.837C305.631 269.844 303.838 270.719 302.197 271.309C300.491 271.944 298.566 271.944 296.838 271.309C295.197 270.719 293.403 269.822 293.403 268.837C293.403 265.841 305.631 265.841 305.631 268.837Z" fill="white"/>
</g>
<path d="M166.747 458.844C157.778 459.413 137.631 458.253 127.153 436.225C116.653 414.197 131.922 371.125 151.894 365.722C154.781 364.934 160.162 366.225 161.781 370.709C164.975 379.547 156.509 393.744 156.509 393.744C156.509 393.744 187.462 402.603 187.397 422.859C187.353 436.334 185.034 457.663 166.747 458.844Z" fill="white"/>
<g opacity="0.2">
<path d="M127.131 436.225C137.631 458.253 157.756 459.434 166.725 458.844C185.013 457.663 187.331 436.334 187.375 422.859C187.375 421.263 187.2 419.753 186.85 418.309C185.494 430.406 179.041 437.013 164.888 438.653C153.578 439.966 133.738 437.341 127.131 421.809C125.797 418.659 124.703 415.203 124.178 411.441C123.106 420.541 123.894 429.4 127.131 436.225Z" fill="#000072"/>
</g>
<path d="M146.141 459.478C136.275 455.541 128.75 448.278 123.785 437.844C120.613 431.194 119.41 422.575 120.285 412.906C121.072 404.156 123.588 394.837 127.35 386.656C133.41 373.509 141.985 364.562 150.91 362.156C153.25 361.522 156.16 361.762 158.719 362.812C161.869 364.103 164.188 366.466 165.282 369.462C166.9 373.969 166.419 379.809 163.838 386.853C163.182 388.647 162.46 390.287 161.803 391.666C170.882 395.1 191.16 404.812 191.116 422.903C191.072 432.812 189.847 440.666 187.375 446.878C183.503 456.547 176.46 461.972 166.988 462.584C165.96 462.65 164.822 462.694 163.597 462.694C158.719 462.672 152.463 461.994 146.141 459.478ZM166.507 455.147C173.091 454.731 177.641 451.1 180.463 444.078C182.563 438.828 183.657 431.675 183.678 422.837C183.744 405.644 155.766 397.397 155.503 397.309L150.866 395.975L153.316 391.841C155.285 388.537 160.382 377.797 158.282 371.956C157.407 369.506 154.038 368.981 152.857 369.309C146.163 371.125 139.163 378.759 134.11 389.741C126.869 405.469 125.382 423.931 130.478 434.628C139.666 453.9 156.991 455.759 166.507 455.147Z" fill="#000072"/>
<path d="M380.006 466.828C380.006 466.828 346.362 480.15 342.775 513.094C337.787 559.009 376.288 584.909 376.288 584.909" fill="white"/>
<path d="M379.306 465.1L378.716 465.297C378.519 465.363 378.344 465.428 378.147 465.494C377.775 465.625 377.403 465.756 377.031 465.909C376.288 466.194 375.566 466.5 374.866 466.806C373.422 467.419 372.022 468.119 370.644 468.841C367.866 470.306 365.197 471.969 362.638 473.806C357.519 477.481 352.838 481.922 349.031 487.128C348.528 487.763 348.091 488.441 347.631 489.097C347.413 489.425 347.172 489.753 346.953 490.103L346.319 491.131L345.685 492.159L345.531 492.422L345.378 492.684L345.094 493.209L344.525 494.281C344.328 494.631 344.131 495.003 343.978 495.375L342.95 497.584L342.031 499.859C341.966 500.056 341.878 500.231 341.813 500.428L341.616 500.997L341.222 502.156C341.091 502.55 340.96 502.922 340.828 503.316L340.5 504.497L340.172 505.678L340.019 506.269L339.888 506.859L339.385 509.244C339.253 510.053 339.144 510.863 339.013 511.65C338.947 512.044 338.881 512.459 338.838 512.853L338.706 514.034C338.378 517.206 338.269 520.378 338.335 523.572C338.422 526.766 338.706 529.959 339.188 533.109C339.297 533.897 339.45 534.684 339.581 535.472C339.735 536.259 339.888 537.047 340.063 537.813C340.238 538.6 340.413 539.366 340.61 540.153L340.916 541.313L341.244 542.472C343.016 548.597 345.553 554.503 348.747 560.016C349.535 561.394 350.366 562.75 351.241 564.063C352.094 565.397 353.013 566.688 353.931 567.978C355.791 570.538 357.803 572.966 359.925 575.306C362.047 577.647 364.278 579.878 366.619 581.978C367.21 582.503 367.8 583.028 368.391 583.531C369.003 584.034 369.616 584.538 370.228 585.041C370.841 585.544 371.475 586.025 372.131 586.506C372.46 586.747 372.788 586.988 373.116 587.228L373.619 587.578L374.188 587.95C375.894 589.109 378.191 588.65 379.35 586.966C380.466 585.303 380.072 583.072 378.497 581.891L378.344 581.781L377.972 581.519L377.556 581.213C377.272 580.994 377.01 580.775 376.725 580.556C376.178 580.119 375.631 579.659 375.085 579.178C373.991 578.238 372.919 577.275 371.869 576.269C369.769 574.278 367.756 572.178 365.853 570.013C363.95 567.825 362.156 565.572 360.472 563.209C359.619 562.028 358.81 560.847 358.044 559.622C357.256 558.419 356.513 557.172 355.813 555.925C355.463 555.313 355.113 554.678 354.763 554.044C354.435 553.409 354.085 552.775 353.778 552.119C353.122 550.85 352.531 549.538 351.963 548.225C350.847 545.6 349.863 542.909 349.053 540.153C348.266 537.419 347.61 534.619 347.15 531.819C346.691 528.997 346.406 526.153 346.297 523.309C346.188 520.444 346.275 517.578 346.516 514.734L346.603 513.663C346.625 513.313 346.691 512.963 346.735 512.613C346.822 511.913 346.91 511.234 346.997 510.534L347.391 508.478L347.478 507.953L347.61 507.45L347.872 506.444L348.135 505.438C348.222 505.109 348.353 504.781 348.441 504.431L348.747 503.425L348.9 502.922C348.966 502.747 349.031 502.594 349.075 502.441L349.819 500.472L350.672 498.547C350.803 498.219 350.978 497.913 351.131 497.606L351.613 496.666L351.853 496.184L351.963 495.944L352.094 495.725L352.619 494.806L353.144 493.888C353.319 493.581 353.516 493.297 353.713 492.991C354.085 492.4 354.456 491.788 354.872 491.219C358.044 486.516 361.96 482.272 366.335 478.466C368.522 476.563 370.841 474.791 373.225 473.084C374.428 472.253 375.653 471.444 376.9 470.656L377.841 470.088L378.781 469.519C379.088 469.344 379.416 469.147 379.722 468.972L380.641 468.469L380.75 468.403C381.647 467.9 381.975 466.784 381.472 465.866C381.078 465.166 380.138 464.816 379.306 465.1Z" fill="#000072"/>
<path d="M414.416 573.687C391.928 571.216 365.897 575.459 362.528 586.791C359.313 597.662 352.269 619.494 405.688 611.881" fill="white"/>
<path d="M414.416 582.984C412.447 581.409 410.15 580.228 407.809 579.244C405.447 578.259 402.997 577.515 400.503 576.925C395.516 575.744 390.397 575.175 385.234 575.175C382.653 575.175 380.05 575.328 377.447 575.656C374.844 576.006 372.241 576.531 369.638 577.406C368.347 577.844 367.034 578.39 365.766 579.09C364.497 579.79 363.228 580.665 362.069 581.847C361.5 582.437 360.953 583.115 360.494 583.881C360.275 584.275 360.056 584.669 359.881 585.084C359.794 585.303 359.706 585.522 359.641 585.74L359.466 586.265C359.072 587.49 358.678 588.759 358.372 590.072C358.044 591.384 357.781 592.74 357.606 594.14C357.519 594.84 357.453 595.562 357.431 596.284C357.409 597.006 357.409 597.75 357.453 598.494C357.497 599.237 357.585 600.003 357.738 600.747C357.891 601.512 358.066 602.278 358.306 603.022C358.569 603.765 358.853 604.509 359.225 605.231C359.597 605.953 360.013 606.653 360.494 607.287C361.434 608.6 362.594 609.737 363.797 610.7C365.022 611.662 366.334 612.428 367.669 613.062C369.003 613.697 370.338 614.2 371.694 614.615C373.05 615.031 374.385 615.337 375.741 615.578C378.431 616.081 381.1 616.322 383.725 616.431C386.35 616.54 388.975 616.519 391.556 616.387C394.138 616.256 396.719 616.037 399.256 615.731C401.794 615.425 404.331 615.075 406.847 614.637C408.881 614.287 410.238 612.362 409.888 610.35C409.559 608.381 407.722 607.047 405.775 607.287H405.753C403.325 607.594 400.875 607.878 398.447 608.119C396.019 608.359 393.591 608.556 391.184 608.665L389.391 608.731L387.597 608.775C386.394 608.797 385.213 608.797 384.031 608.753L383.134 608.731L382.259 608.687C381.669 608.665 381.1 608.6 380.509 608.556C380.225 608.534 379.941 608.49 379.634 608.469C379.35 608.447 379.066 608.403 378.781 608.359L377.928 608.25L377.075 608.119C374.844 607.747 372.678 607.178 370.797 606.347C368.916 605.515 367.319 604.4 366.247 603.022C365.7 602.322 365.263 601.556 364.934 600.703C364.781 600.265 364.628 599.828 364.519 599.369C364.41 598.909 364.322 598.406 364.278 597.925C364.059 595.912 364.256 593.703 364.672 591.45C364.891 590.312 365.153 589.175 365.46 587.994L365.569 587.622C365.591 587.534 365.613 587.469 365.634 587.381C365.678 587.228 365.744 587.075 365.831 586.9C365.985 586.572 366.225 586.244 366.488 585.937C367.035 585.281 367.822 584.669 368.697 584.1C369.572 583.531 370.578 583.05 371.606 582.612C373.706 581.759 375.981 581.081 378.3 580.6C380.641 580.097 383.025 579.747 385.431 579.506C390.266 579.047 395.188 579.003 400.088 579.462C402.538 579.681 404.966 580.053 407.372 580.6C408.575 580.884 409.778 581.19 410.938 581.584C412.141 581.956 413.3 582.437 414.416 582.984Z" fill="#000072"/>
<g opacity="0.2">
<path d="M438.325 589.875C434.016 594.666 432.331 601.403 427.541 605.581C422.75 609.759 398.228 613.828 384.009 613.828H366.488L364.475 593.244C364.475 593.244 396.522 605.756 415.641 593.244C429.094 584.45 421.088 575.722 423.953 569.881C427.65 562.422 449.263 570.297 458.013 533.044C459.806 552.556 454.884 571.5 438.325 589.875Z" fill="#000072"/>
</g>
<path d="M365.9 277.845C380.231 275.996 389.771 258.401 387.208 238.547C384.646 218.693 370.951 204.097 356.621 205.946C342.29 207.796 332.75 225.39 335.312 245.245C337.875 265.099 351.569 279.695 365.9 277.845Z" fill="#000072"/>
<path d="M352.679 248.16C356.534 247.737 359.047 241.825 358.293 234.956C357.538 228.087 353.801 222.862 349.947 223.285C346.092 223.709 343.579 229.621 344.333 236.49C345.088 243.359 348.824 248.584 352.679 248.16Z" fill="white"/>
<path d="M375.925 256.195C377.832 255.881 378.922 252.862 378.36 249.452C377.797 246.043 375.795 243.534 373.888 243.849C371.98 244.164 370.89 247.183 371.453 250.592C372.015 254.001 374.017 256.51 375.925 256.195Z" fill="white"/>
<path d="M260.673 245.188C263.235 225.333 253.695 207.739 239.364 205.889C225.034 204.04 211.339 218.636 208.777 238.49C206.214 258.345 215.755 275.939 230.085 277.789C244.416 279.638 258.11 265.042 260.673 245.188Z" fill="#000072"/>
<path d="M251.629 236.477C252.383 229.608 249.87 223.696 246.015 223.273C242.16 222.849 238.424 228.074 237.669 234.943C236.914 241.812 239.428 247.724 243.282 248.148C247.137 248.571 250.874 243.346 251.629 236.477Z" fill="white"/>
<path d="M224.566 250.551C225.129 247.142 224.038 244.123 222.131 243.808C220.224 243.493 218.222 246.002 217.659 249.411C217.097 252.821 218.187 255.84 220.094 256.154C222.001 256.469 224.004 253.96 224.566 250.551Z" fill="white"/>
</svg>
