<svg width="645" height="690" viewBox="0 0 645 690" fill="none" xmlns="http://www.w3.org/2000/svg">
<ellipse cx="332" cy="390.5" rx="313" ry="299.5" fill="#B0A2D7"/>
<path d="M431.752 567.749L430.813 626.786C415.241 632.808 400.883 636.816 387.693 639.174C279.536 658.456 248.621 566.604 248.621 566.604L371.869 534.063C382.082 554.124 395.548 562.849 407.135 566.444C420.76 570.658 431.752 567.749 431.752 567.749Z" fill="white"/>
<g opacity="0.2">
<path d="M432.371 570.337C427.791 588.337 415.814 611.099 384.739 618.427C344.618 627.908 324.649 621.977 304.337 628.229C266.598 606.68 253.888 568.918 253.888 568.918L375.006 536.949C385.036 556.666 398.273 565.254 409.654 568.757C420.119 571.986 429.005 570.933 432.371 570.337Z" fill="#230047"/>
</g>
<path d="M358.885 646.48C339.58 646.48 321.832 642.701 305.734 635.144C260.071 613.71 244.888 569.925 244.27 568.07C243.858 566.856 243.972 565.551 244.591 564.429C245.186 563.307 246.24 562.483 247.476 562.162L370.724 529.621C372.808 529.071 375.029 530.056 376.014 531.98C396.303 571.849 430.264 563.399 430.585 563.307C431.981 562.941 433.47 563.238 434.592 564.131C435.737 565.024 436.378 566.398 436.355 567.841L435.417 626.877C435.394 628.755 434.226 630.427 432.462 631.091C405.967 641.35 381.372 646.48 358.885 646.48ZM254.85 569.719C259.934 581.146 275.964 611.053 309.741 626.854C341.549 641.717 380.731 640.617 426.234 623.603L427.035 573.131C422.707 573.52 416.318 573.52 409.036 571.757C397.54 568.963 381.601 561.063 369.51 539.445L254.85 569.719Z" fill="#230047"/>
<path d="M511.032 665.555C508.101 671.051 502.72 674.44 496.124 675.676C493.72 676.134 491.155 676.318 488.476 676.18C475.675 675.654 460.492 668.669 449.408 655.112C449.317 654.998 449.202 654.883 449.111 654.746C443.477 647.784 438.92 639.105 436.31 628.709C436.31 628.709 420.188 641.235 414.211 633.082C408.234 624.93 427.47 609.037 427.47 609.037L422.249 561.039C422.249 561.039 426.096 552.497 433.768 558.772C433.768 558.772 436.126 554.971 439.79 554.558C441.508 554.375 443.523 554.925 445.721 556.986C445.721 556.986 452.477 548.994 461.545 545.124C465.873 543.269 470.728 542.376 475.606 543.727C485.453 546.452 492.208 553.574 496.605 568.253C498.987 576.199 500.659 586.366 501.758 599.282C502.674 610.137 504.895 618.427 507.254 625.319C512.864 641.739 519.299 650.006 511.032 665.555Z" fill="#6EC3FF"/>
<path d="M511.032 665.555C508.101 671.051 502.719 674.44 496.124 675.677C493.72 676.135 491.155 676.318 488.476 676.181C475.675 675.654 460.492 668.67 449.408 655.113C452.683 634.526 471.301 619.572 492.437 621.221C497.75 621.633 502.742 623.053 507.254 625.297C512.864 641.739 519.299 650.006 511.032 665.555Z" fill="#FF7645"/>
<path d="M490.056 680.852C489.46 680.852 488.865 680.829 488.27 680.806C472.881 680.188 457.011 671.692 445.836 658.066C445.012 657.059 444.645 655.731 444.851 654.425C448.515 631.434 469.583 614.854 492.804 616.686C498.598 617.144 504.139 618.678 509.292 621.243C510.368 621.793 511.193 622.732 511.605 623.877C512.612 626.808 513.643 629.464 514.65 632.052C519.23 643.868 522.849 653.189 515.131 667.753C511.719 674.188 505.399 678.585 497.338 680.188C497.224 680.211 497.132 680.234 497.017 680.257C494.773 680.646 492.46 680.852 490.056 680.852ZM454.332 653.853C463.652 664.387 476.636 671.142 488.659 671.623C490.88 671.715 493.01 671.6 495.002 671.234C495.094 671.211 495.185 671.188 495.277 671.165C499.101 670.455 504.254 668.509 506.979 663.402C512.727 652.57 510.368 646.456 506.063 635.35C505.284 633.334 504.414 631.09 503.544 628.686C499.926 627.106 496.079 626.167 492.071 625.846C474.278 624.472 458.11 636.632 454.332 653.853Z" fill="#230047"/>
<path d="M496.582 568.321C491.842 577.917 480.255 584.145 467.247 583.138C450.92 581.855 438.554 569.581 439.653 555.749C439.676 555.383 439.722 554.994 439.767 554.65C441.485 554.467 443.5 555.017 445.698 557.078C445.698 557.078 452.454 549.086 461.522 545.215C465.851 543.361 470.705 542.467 475.583 543.818C485.453 546.498 492.208 553.62 496.582 568.321Z" fill="#FF7645"/>
<path d="M469.995 587.832C468.965 587.832 467.934 587.787 466.904 587.718C448.057 586.229 433.79 571.734 435.073 555.36C435.119 554.902 435.164 554.444 435.21 553.986C435.485 551.879 437.18 550.254 439.263 550.025C440.775 549.864 442.79 549.979 445.034 551.032C448.08 548.078 453.347 543.635 459.713 540.933C465.667 538.368 471.415 537.842 476.819 539.33C488.659 542.605 496.353 551.399 501.002 566.993C501.322 568.116 501.231 569.306 500.727 570.337C495.437 581.054 483.346 587.832 469.995 587.832ZM444.714 561.543C446.912 570.474 456.118 577.642 467.637 578.535C477.758 579.337 487.147 575.077 491.636 567.818C487.926 556.414 482.705 550.528 474.392 548.215C471.072 547.299 467.362 547.689 463.377 549.406C455.454 552.773 449.294 559.94 449.248 560.009C448.423 560.971 447.256 561.566 445.996 561.635C445.538 561.658 445.103 561.635 444.714 561.543Z" fill="#230047"/>
<path d="M448.103 612.244L427.493 609.084L422.249 561.086C422.249 561.086 426.096 552.544 433.767 558.818C433.767 558.818 436.126 555.017 439.79 554.628C441.507 554.444 443.523 554.994 445.721 557.055L448.103 612.244Z" fill="#FF7645"/>
<path d="M448.103 612.244L436.31 628.778C436.31 628.778 420.188 641.304 414.211 633.151C408.234 624.999 427.47 609.106 427.47 609.106C427.47 609.106 437.798 599.992 448.103 612.244Z" fill="#FF7645"/>
<path d="M511.032 665.555C508.101 671.051 502.72 674.44 496.124 675.677C500.361 664.822 498.781 656.074 494.682 644.464C490.605 632.831 483.713 617.053 481.537 582.726C479.774 555.062 462.118 545.605 461.522 545.17C465.851 543.315 470.705 542.421 475.583 543.773C490.766 547.963 498.598 562.574 501.712 599.328C504.849 636.083 522.78 643.479 511.032 665.555Z" fill="white"/>
<path d="M490.101 680.852C489.483 680.852 488.888 680.829 488.269 680.806C472.881 680.188 457.011 671.692 445.859 658.066C445.767 657.975 445.63 657.814 445.515 657.654C440.363 651.288 436.401 644.029 433.676 636.037C429.416 638.487 423.44 641.12 418.15 640.388C414.989 639.952 412.356 638.395 410.501 635.876C403.333 626.098 416.753 612.45 422.638 607.183L417.669 561.589C417.577 560.764 417.715 559.94 418.058 559.184C418.333 558.589 420.806 553.436 426.142 552.177C427.814 551.787 430.172 551.696 432.943 552.91C434.523 551.581 436.653 550.322 439.286 550.047C440.798 549.887 442.813 550.001 445.08 551.055C448.126 548.101 453.393 543.635 459.759 540.956C465.713 538.391 471.461 537.864 476.842 539.353C488.682 542.627 496.376 551.421 501.025 567.016C503.498 575.26 505.238 585.702 506.36 598.961C507.322 610.434 509.841 618.678 511.627 623.877C512.635 626.831 513.666 629.487 514.673 632.075C519.253 643.891 522.871 653.212 515.154 667.753C511.742 674.188 505.422 678.585 497.338 680.188C497.223 680.211 497.132 680.234 497.017 680.256C494.773 680.646 492.46 680.852 490.101 680.852ZM436.309 624.174C436.813 624.174 437.317 624.266 437.821 624.426C439.286 624.93 440.408 626.144 440.775 627.655C443.088 636.838 447.095 644.99 452.683 651.929C452.706 651.952 452.729 651.998 452.752 652.021L452.889 652.181C462.347 663.7 476.018 671.119 488.659 671.646C490.88 671.738 492.987 671.623 494.979 671.257C495.071 671.234 495.162 671.211 495.277 671.188C499.124 670.478 504.254 668.532 506.979 663.425C512.727 652.616 510.345 646.502 506.063 635.395C505.078 632.853 503.979 629.991 502.903 626.877C500.956 621.22 498.231 612.243 497.178 599.74C496.101 587.122 494.475 577.275 492.208 569.649C488.453 557.054 483.14 550.642 474.415 548.238C471.094 547.322 467.385 547.734 463.4 549.429C455.477 552.795 449.34 559.963 449.271 560.031C448.446 560.993 447.278 561.589 446.019 561.657C444.759 561.726 443.523 561.291 442.607 560.421C442.08 559.94 441.073 559.115 440.317 559.207C439.355 559.322 438.141 560.627 437.683 561.291C436.973 562.39 435.806 563.146 434.523 563.352C433.218 563.558 431.89 563.215 430.882 562.39C429.577 561.337 428.684 561.062 428.271 561.154C427.836 561.245 427.378 561.703 427.035 562.161L432.096 608.602C432.256 610.137 431.638 611.671 430.447 612.656C422.432 619.297 416.249 628.09 417.966 630.426C418.287 630.861 418.653 631.159 419.455 631.273C423.05 631.8 429.852 627.999 433.538 625.136C434.294 624.495 435.302 624.174 436.309 624.174Z" fill="#230047"/>
<path d="M496.124 680.303C494.773 680.303 493.468 679.707 492.575 678.631C491.498 677.348 491.223 675.585 491.842 674.028C495.552 664.547 494.178 656.876 490.353 646.021C489.941 644.853 489.506 643.64 489.048 642.38C484.789 630.633 478.949 614.557 476.957 583.046C475.537 560.81 463.125 551.559 459.347 549.246C459.095 549.086 458.934 548.994 458.866 548.925C457.515 547.963 456.805 546.338 456.988 544.689C457.171 543.04 458.225 541.62 459.759 540.956C465.713 538.391 471.484 537.842 476.865 539.353C494.887 544.322 503.154 561.039 506.36 598.962C507.62 613.938 511.536 623.991 514.65 632.052C519.23 643.869 522.848 653.212 515.131 667.753C511.673 674.257 505.238 678.7 496.994 680.257C496.697 680.28 496.399 680.303 496.124 680.303ZM471.942 547.78C478.033 554.101 485.04 565.047 486.14 582.451C488.063 612.633 493.628 627.999 497.704 639.22C498.185 640.502 498.62 641.739 499.032 642.953C502.284 652.204 504.047 659.876 502.902 668.051C504.483 666.906 505.902 665.395 506.956 663.402C512.704 652.571 510.322 646.456 506.017 635.373C502.673 626.762 498.506 616.022 497.132 599.717C493.88 561.291 485.682 551.33 474.346 548.215C473.59 547.986 472.766 547.849 471.942 547.78Z" fill="#230047"/>
<path d="M420.005 640.502C419.363 640.502 418.745 640.456 418.127 640.388C414.967 639.953 412.333 638.395 410.478 635.876C402.372 624.816 420.623 608.786 424.493 605.58C425.34 604.87 430.47 600.748 437.592 601.297C442.767 601.687 447.485 604.389 451.607 609.289C452.958 610.892 453.049 613.205 451.836 614.923L440.042 631.457C439.79 631.823 439.47 632.144 439.126 632.418C438.004 633.289 428.455 640.502 420.005 640.502ZM436.332 610.457C435.92 610.457 435.485 610.48 435.073 610.549C432.416 610.961 430.493 612.564 430.47 612.587C422.386 619.274 416.203 628.09 417.921 630.426C418.241 630.861 418.608 631.159 419.409 631.273C423.165 631.8 429.829 627.861 432.966 625.548L442.103 612.747C440.225 611.213 438.302 610.457 436.332 610.457Z" fill="#230047"/>
<path d="M439.767 610.55C437.477 610.55 435.508 608.855 435.21 606.519L429.188 559.391C428.867 556.872 430.653 554.559 433.172 554.238C435.691 553.918 438.004 555.704 438.325 558.223L444.347 605.351C444.668 607.87 442.882 610.183 440.363 610.504C440.157 610.549 439.974 610.55 439.767 610.55Z" fill="#230047"/>
<path d="M448.103 616.847C447.874 616.847 447.645 616.824 447.416 616.801L426.806 613.641C424.745 613.32 423.142 611.671 422.936 609.587L417.692 561.589C417.6 560.765 417.738 559.94 418.081 559.185C418.356 558.589 420.829 553.437 426.165 552.177C427.836 551.788 430.195 551.696 432.966 552.91C434.546 551.582 436.676 550.322 439.309 550.047C441.622 549.796 445.172 550.231 448.882 553.689C449.775 554.513 450.278 555.658 450.347 556.849L452.729 612.061C452.797 613.435 452.225 614.763 451.194 615.679C450.324 616.435 449.225 616.847 448.103 616.847ZM431.661 605.076L443.248 606.839L441.187 559.414C440.867 559.253 440.546 559.162 440.248 559.185C439.286 559.299 438.073 560.604 437.615 561.268C436.905 562.368 435.737 563.123 434.455 563.329C433.149 563.536 431.821 563.192 430.813 562.368C429.531 561.314 428.615 561.039 428.203 561.131C427.791 561.223 427.333 561.658 426.943 562.139L431.661 605.076Z" fill="#230047"/>
<g opacity="0.2">
<path d="M511.811 665.326C508.811 670.708 503.407 673.959 496.834 675.059V675.081C494.43 675.471 491.888 675.608 489.231 675.425C476.568 674.646 461.706 667.387 450.966 653.762C450.874 653.647 450.782 653.51 450.691 653.395C445.263 646.388 440.912 637.686 438.554 627.358C438.554 627.358 422.34 639.426 416.593 631.228C410.822 623.03 430.218 607.687 430.218 607.687L428.409 587.031L429.073 586.642C429.073 586.642 435.485 599.947 450.966 598.435C450.966 598.435 457.584 644.693 493.01 635.075C493.01 635.075 508.009 654.7 512.223 635.075C516.116 645.701 518.475 653.372 511.811 665.326Z" fill="#230047"/>
</g>
<path d="M599.381 498.615C597.228 503.928 591.205 506.469 585.892 504.34C568.465 497.287 553.191 495.981 539.612 498.18V498.203C513.07 502.531 492.941 520.416 475.606 535.827C468.415 542.193 462.232 547.712 456.187 551.605C441.279 561.2 421.402 563.582 405.326 563.582C390.12 563.582 378.327 561.452 377.342 561.269C371.709 560.216 367.999 554.788 369.052 549.178C370.106 543.567 375.51 539.835 381.121 540.888C392.662 543.018 426.623 545.972 444.966 534.156C449.637 531.133 455.294 526.141 461.82 520.324C475.285 508.37 492.025 493.485 513.437 484.485C521.154 481.234 529.009 478.989 536.978 477.753C555.367 474.867 574.328 477.318 593.633 485.127C598.945 487.256 601.533 493.302 599.381 498.615Z" fill="white"/>
<path d="M405.326 568.162C389.41 568.162 377.021 565.872 376.495 565.757C372.579 565.024 369.167 562.803 366.9 559.505C364.632 556.208 363.808 552.223 364.541 548.307C365.274 544.391 367.495 540.979 370.793 538.712C374.09 536.445 378.075 535.598 381.991 536.331C392.273 538.231 425.501 541.185 442.492 530.262C446.935 527.4 452.683 522.27 458.797 516.866C472.537 504.66 489.598 489.523 511.696 480.226C519.78 476.836 528.047 474.455 536.314 473.195C555.481 470.173 575.381 472.76 595.396 480.844C603.044 483.958 606.754 492.683 603.663 500.332C600.571 507.958 591.823 511.667 584.175 508.599C568.832 502.393 554.588 500.446 540.642 502.668C540.55 502.691 540.436 502.713 540.344 502.736C515.108 506.858 495.735 524.056 478.652 539.262L478.423 539.468C471.186 545.903 464.935 551.445 458.66 555.475C445.561 563.879 427.607 568.162 405.326 568.162ZM379.22 545.285C378.075 545.285 376.953 545.628 375.968 546.292C374.708 547.162 373.838 548.468 373.563 549.979C373.289 551.49 373.609 553.025 374.479 554.284C375.35 555.544 376.655 556.414 378.166 556.689C378.67 556.78 390.235 558.933 405.303 558.933C419.386 558.933 439.218 556.986 453.668 547.689C459.347 544.048 465.347 538.712 472.308 532.552L472.537 532.369C489.598 517.209 510.803 498.34 538.535 493.691C538.65 493.668 538.741 493.645 538.856 493.622C554.382 491.103 570.801 493.256 587.61 500.057C590.541 501.248 593.907 499.805 595.098 496.874C596.289 493.943 594.846 490.576 591.892 489.386C573.435 481.92 555.206 479.539 537.688 482.287C530.177 483.455 522.62 485.607 515.223 488.722C494.544 497.424 478.125 512.011 464.912 523.713C458.5 529.415 452.5 534.751 447.439 538.025C423.829 553.208 380.685 545.491 380.273 545.399C379.93 545.33 379.586 545.285 379.22 545.285Z" fill="#230047"/>
<path d="M599.38 498.615C597.228 503.928 591.205 506.469 585.892 504.34C568.465 497.287 553.191 495.981 539.611 498.18C535.306 488.676 536.382 480.661 537.001 477.753C555.389 474.867 574.351 477.318 593.655 485.127C598.945 487.256 601.533 493.302 599.38 498.615Z" fill="#230047"/>
<path d="M523.742 527.629C515.291 540.11 499.239 546.018 486.804 542.812C474.049 539.514 463.606 530.995 458.545 504.844C458.545 504.844 435.943 459.273 401.158 474.89C401.158 474.89 399.303 498.569 413.547 529.644C432.096 570.132 401.616 612.382 337.107 601.001C317.458 597.543 300.421 598.528 286.2 601.573C253.659 608.558 235.889 626.305 235.889 626.305L203.004 568.093L225.561 547.025C225.561 547.025 223.889 545.789 221.645 543.064C214.088 533.927 199.981 508.073 219.446 455.517C219.446 455.517 152.968 437.128 148.388 352.811C148.273 350.864 148.204 348.872 148.159 346.857C148.159 346.857 134.831 331.01 151.823 313.56C168.814 296.11 207.63 302.66 209.096 333.552C209.096 333.552 210.172 337.101 213.012 342.277V342.299C217.889 351.162 227.919 364.787 246.468 373.398C247.888 374.062 249.354 374.68 250.888 375.275C251.369 375.459 251.85 375.642 252.331 375.825C286.498 388.466 370.014 364.444 442.126 394.809C453.118 399.435 462.438 404.977 470.339 411.022C475.652 415.099 480.3 419.427 484.422 423.869C502.719 443.609 509.887 465.73 512.681 479.928C514.444 488.951 514.467 494.768 514.467 494.768C514.467 494.768 540.871 502.302 523.742 527.629Z" fill="white"/>
<g opacity="0.2">
<path d="M522.711 528.225C514.422 540.499 498.621 546.293 486.415 543.132C473.889 539.881 463.629 531.522 458.637 505.828C458.637 505.828 436.424 461.059 402.234 476.402C402.234 476.402 400.425 499.645 414.417 530.217C432.646 569.994 402.692 611.535 339.282 600.337C319.978 596.925 303.238 597.886 289.246 600.909C257.277 607.756 239.805 625.206 239.805 625.206L231.881 611.168C262.682 572.467 325.245 562.368 353.228 570.132C385.586 579.108 400.402 557.995 392.09 537.339C383.777 516.683 383.205 485.86 383.205 485.86C383.205 485.86 391.884 441.205 436.722 452.448C481.56 463.669 480.392 526.576 500.086 524.767C519.78 522.958 524.864 504.546 524.864 504.546L526.238 505.187C529.284 510.225 529.856 517.645 522.711 528.225Z" fill="#230047"/>
</g>
<g opacity="0.2">
<path d="M470.316 410.999C446.683 427.029 410.73 435.777 370.426 432.937C316.268 429.136 269.895 405.48 250.888 375.252C251.369 375.435 251.85 375.618 252.331 375.802C286.498 388.442 370.014 364.42 442.126 394.786C453.095 399.389 462.415 404.93 470.316 410.999Z" fill="#230047"/>
</g>
<path d="M211.821 482.012C219.286 449.906 243.744 401.862 293.872 419.266C344.023 436.67 313.772 507.156 313.772 507.156C313.772 507.156 254.461 506.813 225.515 547.025C225.515 547.025 202.936 520.118 211.821 482.012Z" fill="#FFC0DA"/>
<g opacity="0.2">
<path d="M212.279 557.125L224.439 545.766C224.439 545.766 222.813 544.552 220.591 541.873C213.172 532.896 199.317 507.5 218.462 455.838C218.462 455.838 153.151 437.77 148.64 354.918C148.525 352.994 148.457 351.047 148.411 349.055C148.411 349.055 135.312 333.483 152.029 316.331H154.342C154.342 316.331 142.342 346.903 181.41 336.827C181.41 336.827 182.761 350.796 193.959 351.986C193.959 351.986 194.531 362.681 186.837 368.909C181.089 373.558 179.967 381.894 183.86 388.168C191.417 400.397 208.157 415.396 244.797 414.778C244.797 414.778 194.44 509.79 267.994 517.874L212.279 557.125Z" fill="#230047"/>
</g>
<path d="M235.866 630.908C235.66 630.908 235.454 630.885 235.248 630.862C233.828 630.679 232.568 629.809 231.858 628.572L198.951 570.361C197.898 568.506 198.264 566.193 199.821 564.727L218.851 546.957C210.836 537.911 195.081 511.737 213.515 458.311C206.897 455.746 194.188 449.769 181.318 438.09C164.761 423.045 144.861 395.336 143.579 348.437C138.381 341.109 133.778 325.468 148.525 310.331C158.693 299.866 176.188 296.499 191.073 302.133C204.539 307.24 212.737 318.323 213.653 332.636C214.981 336.323 224.736 360.665 253.911 371.474C266.506 376.146 287.46 375.436 311.711 374.634C350.686 373.329 399.212 371.726 443.889 390.527C482.568 406.809 500.933 434.197 509.544 454.326C516.666 470.997 518.452 485.333 518.887 491.516C523.055 493.371 530.108 497.516 532.925 505.256C535.581 512.584 533.772 520.988 527.543 530.194C518.383 543.728 500.361 551.056 485.636 547.254C468.621 542.858 458.889 530.24 454.149 506.355C451.63 501.523 433.035 468.318 405.669 478.005C405.715 484.944 406.952 504.18 417.715 527.698C426.783 547.506 425.043 568.574 413.043 584.101C397.929 603.657 369.945 611.443 336.259 605.512C274.819 594.657 239.438 629.191 239.095 629.534C238.247 630.427 237.08 630.908 235.866 630.908ZM208.775 569.009L237.102 619.138C249.01 609.611 283.956 586.963 337.885 596.467C368.09 601.802 392.845 595.253 405.784 578.49C415.791 565.529 417.096 548.422 409.356 531.545C394.769 499.714 396.464 475.532 396.555 474.501C396.693 472.829 397.723 471.341 399.257 470.654C415.333 463.44 431.501 466.898 446.065 480.638C456.553 490.531 462.438 502.279 462.667 502.76C462.851 503.126 462.988 503.515 463.057 503.928C468.049 529.782 477.965 535.713 487.949 538.301C499.101 541.186 512.841 535.461 519.917 524.996C524.383 518.378 525.871 512.79 524.291 508.393C521.91 501.775 513.231 499.141 513.139 499.096C511.193 498.523 509.841 496.714 509.819 494.699C509.819 494.539 509.612 477.684 500.91 457.555C489.323 430.739 468.942 411.045 440.294 398.977C397.471 380.955 350.091 382.535 311.985 383.794C286.773 384.642 264.972 385.351 250.682 380.062C214.798 366.78 205.042 336.116 204.653 334.834C204.539 334.468 204.47 334.078 204.447 333.712C203.737 318.941 193.684 312.965 187.753 310.72C176.395 306.415 162.655 308.934 155.075 316.72C141.541 330.62 150.563 342.551 151.64 343.857C152.304 344.658 152.67 345.666 152.693 346.719C153.357 382.489 165.059 410.931 187.455 431.266C204.058 446.357 220.431 451.006 220.592 451.052C221.828 451.395 222.882 452.242 223.454 453.387C224.049 454.532 224.118 455.883 223.683 457.074C199.844 521.4 227.92 543.087 228.194 543.316C229.294 544.117 229.981 545.4 230.049 546.751C230.118 548.125 229.591 549.453 228.607 550.369L208.775 569.009Z" fill="#230047"/>
<path d="M222.286 543.75C253.43 516.247 297.101 498.614 338.71 508.37C344.595 509.606 350.252 511.645 355.816 513.774C357.099 514.255 357.74 515.698 357.236 516.98C356.732 518.286 355.267 518.904 353.984 518.4C345.923 515.469 337.634 513.385 329.138 512.4C297.742 508.874 266.575 520.965 241.637 539.491C237.148 542.834 232.66 546.475 228.698 550.368C224.233 554.582 217.912 548.147 222.286 543.75Z" fill="#230047"/>
<path d="M215.324 453.41C223.912 438.777 233.255 424.762 244.453 412.007C248.232 407.816 252.193 403.763 256.659 400.19C257.415 399.595 258.514 399.709 259.132 400.465C259.705 401.198 259.613 402.228 258.949 402.847C255.033 406.579 251.552 410.77 248.278 415.121C241.751 423.892 236.118 433.35 230.919 442.968C228.332 447.799 225.79 452.746 223.523 457.624C220.637 463.28 212.347 459.043 215.324 453.41Z" fill="#230047"/>
<path d="M163.09 357.414C155.67 357.414 148.846 353.566 145.113 350.315C143.19 348.643 143.007 345.735 144.678 343.811C146.35 341.888 149.258 341.704 151.182 343.376C152.35 344.384 162.93 353.017 171.38 344.475C173.166 342.666 176.074 342.643 177.883 344.429C179.692 346.216 179.715 349.124 177.929 350.933C173.212 355.696 168.013 357.414 163.09 357.414Z" fill="#230047"/>
<path d="M190.387 330.918C187.639 334.261 184.73 337.467 182.601 340.582C181.112 342.94 179.921 344.772 179.83 347.108C180.013 348.185 181.387 349.49 182.28 350.131C186.585 353.337 191.028 349.673 194.555 345.666C195.356 344.543 196.959 344.292 198.035 345.185C200.119 346.994 197.806 349.604 196.845 351.322C192.952 357.619 185.257 361.489 178.044 357.734C175.112 356.222 172.822 354.597 170.99 351.642C164.739 340.055 177.815 329.681 187.707 326.636C190.272 325.834 192.196 329.017 190.387 330.918Z" fill="#230047"/>
<path d="M256.98 622.961C256.98 622.961 257.552 633.679 247.293 631.366C247.293 631.366 238.247 652.365 219.676 660.907C219.355 661.067 219.011 661.204 218.691 661.342C214.042 663.334 208.821 664.525 203.027 664.433C199.959 664.387 196.867 664.044 193.776 663.403C166.822 657.975 140.029 631.572 131.259 601.046C127.663 588.52 128.717 577.505 133.228 569.398C133.228 569.398 133.228 569.398 133.228 569.375C138.793 559.322 149.602 553.712 163.25 555.132C163.273 555.132 163.273 555.132 163.296 555.132C168.54 555.658 174.219 557.261 180.173 560.032C180.173 560.032 179.715 545.582 187.158 543.247C194.623 540.911 219.813 548.651 223.981 554.903C229.568 563.284 219.79 572.604 219.79 572.604C219.79 572.604 248.69 589.207 264.079 615.862C264.079 615.885 265.705 625.274 256.98 622.961Z" fill="#6EC3FF"/>
<path d="M256.98 622.962C256.98 622.962 257.552 633.679 247.293 631.366C240.057 617.374 205.729 582.085 205.729 582.085C208.34 578.123 219.79 572.65 219.79 572.65C219.79 572.65 248.69 589.253 264.079 615.908C264.079 615.908 265.705 625.297 256.98 622.962Z" fill="#FF7645"/>
<path d="M242.209 640.388C237.721 647.143 230.232 656.051 219.675 660.906C219.355 661.067 219.011 661.204 218.691 661.341C215.759 656.189 211.935 649.319 207.905 642.174C212.073 636.861 218.576 633.449 225.835 633.449C232.247 633.449 238.064 636.128 242.209 640.388Z" fill="#FF7645"/>
<path d="M219.79 572.65C192.402 575.329 180.173 560.077 180.173 560.077C180.173 560.077 179.715 545.628 187.157 543.292C194.623 540.979 219.813 548.696 223.981 554.948C229.591 563.329 219.79 572.65 219.79 572.65Z" fill="#FF7645"/>
<path d="M218.691 665.967C217.088 665.967 215.531 665.12 214.683 663.632C213.263 661.136 211.638 658.25 209.874 655.113C207.996 651.769 205.958 648.151 203.874 644.464C199.569 636.907 193.272 625.984 188.257 618.564C175.57 599.924 177.608 578.741 177.7 577.871C177.86 576.406 178.684 575.1 179.967 574.367C181.226 573.635 182.784 573.543 184.135 574.138C191.715 577.459 200.439 579.589 202.638 578.696C207.699 573.749 217.294 568.78 217.683 568.574C219.08 567.864 220.729 567.887 222.08 568.665C223.294 569.375 252.239 586.207 268.063 613.618C268.338 614.076 268.521 614.603 268.613 615.129C268.819 616.274 269.597 622.114 265.704 625.686C264.674 626.625 263.14 627.564 260.964 627.862C260.392 629.877 259.315 632.121 257.277 633.816C255.812 635.052 253.476 636.312 250.018 636.312C249.102 638.029 247.797 640.342 246.079 642.953C241.339 650.075 233.301 659.67 221.828 665.029C221.782 665.051 221.714 665.074 221.668 665.097C221.278 665.28 220.866 665.464 220.477 665.624C219.859 665.853 219.263 665.967 218.691 665.967ZM186.837 585.108C187.203 591.932 188.967 603.244 195.882 613.412C201.104 621.106 207.516 632.236 211.889 639.93C213.996 643.64 216.034 647.258 217.912 650.624C218.828 652.273 219.721 653.83 220.546 655.319C228.721 650.693 234.698 643.434 238.385 637.869C241.476 633.198 243.056 629.602 243.079 629.556C243.949 627.518 246.148 626.396 248.323 626.9C249.743 627.221 250.842 627.175 251.323 626.786C252.079 626.167 252.422 624.312 252.377 623.19C252.331 621.725 252.972 620.305 254.117 619.412C255.262 618.496 256.751 618.175 258.17 618.542C258.812 618.725 259.247 618.748 259.499 618.748C259.59 618.404 259.636 617.877 259.613 617.374C247.362 596.741 226.408 582.291 219.675 577.986C216.469 579.795 211.592 582.795 209.004 585.382C204.424 589.871 194.76 587.878 186.837 585.108Z" fill="#230047"/>
<path d="M218.691 665.967C217.088 665.967 215.531 665.12 214.683 663.631C213.264 661.135 211.638 658.25 209.874 655.113C207.997 651.769 205.959 648.151 203.875 644.464C202.959 642.838 203.096 640.823 204.264 639.357C209.485 632.693 217.363 628.869 225.836 628.869C233.324 628.869 240.309 631.823 245.53 637.205C247.041 638.762 247.27 641.144 246.056 642.953C241.316 650.075 233.278 659.67 221.805 665.028C221.76 665.051 221.691 665.074 221.645 665.097C221.256 665.28 220.844 665.463 220.454 665.624C219.859 665.853 219.263 665.967 218.691 665.967ZM213.538 642.838C215.05 645.517 216.515 648.128 217.912 650.601C218.828 652.25 219.721 653.807 220.546 655.296C227.164 651.563 232.339 646.067 236.026 641.166C233.049 639.151 229.523 638.052 225.836 638.052C221.21 638.052 216.859 639.77 213.538 642.838Z" fill="#230047"/>
<path d="M219.675 660.907C214.775 663.174 209.233 664.548 203.004 664.456C199.936 664.41 196.844 664.067 193.753 663.426C166.799 657.998 140.006 631.595 131.236 601.069C127.64 588.543 128.694 577.528 133.205 569.421C133.205 569.421 133.205 569.421 133.205 569.398C138.77 559.345 149.579 553.735 163.227 555.154C163.25 555.154 163.25 555.154 163.273 555.154C164.509 555.452 177.929 559.597 189.47 597.794C201.63 637.869 226.981 641.533 219.675 660.907Z" fill="white"/>
<path d="M203.645 669.059C203.416 669.059 203.187 669.059 202.936 669.059C199.638 669.013 196.226 668.647 192.837 667.937C163.845 662.097 136.068 634.503 126.816 602.351C123.06 589.275 123.885 576.841 129.129 567.269C129.152 567.246 129.175 567.2 129.175 567.177C135.793 555.223 148.708 549.017 163.708 550.574C163.777 550.574 163.845 550.597 163.914 550.597C167.853 551.01 171.906 551.948 176.028 553.391C176.898 547.918 179.28 540.911 185.783 538.873C194.737 536.079 222.217 543.956 227.805 552.384C232.293 559.093 230.003 566.375 226.637 571.505C235.637 577.459 255.789 592.344 268.063 613.595C268.338 614.053 268.521 614.58 268.613 615.107C268.819 616.252 269.597 622.091 265.682 625.664C264.651 626.602 263.117 627.541 260.941 627.839C260.369 629.854 259.292 632.076 257.254 633.793C255.789 635.03 253.453 636.289 249.995 636.289C246.583 642.793 237.354 657.746 221.782 665.006C221.736 665.029 221.668 665.052 221.622 665.097C221.21 665.281 220.82 665.464 220.408 665.624C215.118 667.891 209.462 669.059 203.645 669.059ZM137.281 571.551C137.258 571.574 137.258 571.619 137.235 571.642C133.136 579.062 132.587 589.046 135.678 599.787C143.899 628.366 169.25 653.762 194.692 658.891C197.554 659.487 200.371 659.785 203.096 659.83C207.859 659.899 212.485 658.983 216.882 657.105C217.156 656.991 217.385 656.899 217.592 656.808C217.66 656.785 217.729 656.739 217.798 656.716C234.56 648.999 243.033 629.717 243.102 629.534C243.972 627.496 246.194 626.373 248.346 626.877C249.789 627.198 250.888 627.152 251.369 626.763C252.193 626.053 252.445 623.946 252.422 623.213C252.354 621.748 252.972 620.328 254.117 619.389C255.262 618.45 256.773 618.129 258.193 618.519C258.834 618.702 259.27 618.725 259.499 618.725C259.59 618.381 259.636 617.855 259.613 617.351C244.934 592.619 217.798 576.795 217.523 576.635C216.286 575.925 215.462 574.688 215.256 573.268C215.05 571.871 215.531 570.452 216.515 569.421C216.538 569.398 216.584 569.352 216.63 569.307C216.698 569.238 223.523 562.482 220.179 557.467C217.248 553.048 194.188 545.88 188.554 547.643C186.012 548.445 184.638 555.315 184.799 559.872C184.867 561.75 183.768 563.49 182.028 564.246C180.723 564.818 179.28 564.727 178.066 564.108C172.799 561.681 167.692 560.192 162.861 559.712C162.792 559.712 162.746 559.689 162.677 559.689C151.342 558.589 142.113 562.895 137.281 571.551Z" fill="#230047"/>
<path d="M195.264 668.074C194.669 668.074 194.05 668.051 193.432 668.005C193.249 667.982 193.043 667.959 192.86 667.936C163.845 662.074 136.068 634.502 126.839 602.351C123.083 589.275 123.908 576.84 129.152 567.291C129.221 567.154 129.312 567.016 129.404 566.879C136.228 556.551 143.739 555.36 148.823 556.184C162.174 558.36 172.776 576.314 176.967 592.092C183.058 614.992 194.737 634.319 203.142 641.579C209.462 647.052 211.89 654.105 209.439 659.99C207.287 665.12 202.065 668.074 195.264 668.074ZM194.394 658.845C197.737 659.028 200.233 658.135 200.92 656.464C201.63 654.769 200.714 651.677 197.096 648.54C185.875 638.853 173.921 616.595 168.036 594.45C164.074 579.588 154.8 566.489 147.312 565.276C143.831 564.703 140.419 566.902 137.167 571.779C133.136 579.176 132.587 589.115 135.678 599.809C143.854 628.251 169.067 653.578 194.394 658.845Z" fill="#230047"/>
<path d="M173.784 602.42C144.243 602.42 129.77 600.061 129.175 599.97C126.656 599.558 124.961 597.176 125.396 594.68C125.808 592.184 128.19 590.466 130.686 590.901C130.915 590.947 145.228 593.237 173.784 593.237C176.326 593.237 178.387 595.298 178.387 597.84C178.387 600.382 176.326 602.42 173.784 602.42Z" fill="#230047"/>
<path d="M142.319 629.74C140.052 629.74 138.083 628.068 137.762 625.755C137.419 623.236 139.182 620.923 141.701 620.58C142.434 620.488 160.09 618.152 184.135 618.359C186.676 618.381 188.714 620.465 188.692 623.007C188.669 625.526 186.608 627.564 184.089 627.564C184.066 627.564 184.066 627.564 184.043 627.564C160.731 627.335 143.098 629.671 142.915 629.694C142.731 629.74 142.525 629.74 142.319 629.74Z" fill="#230047"/>
<path d="M165.998 655.113C163.891 655.113 162.013 653.67 161.51 651.541C160.937 649.067 162.494 646.594 164.968 646.022C165.54 645.884 178.937 642.839 199.592 640.48C202.134 640.182 204.401 642.014 204.699 644.533C204.997 647.052 203.165 649.342 200.646 649.64C180.562 651.93 167.189 654.976 167.051 654.999C166.685 655.067 166.342 655.113 165.998 655.113Z" fill="#230047"/>
<path d="M203.623 669.059C203.394 669.059 203.165 669.059 202.936 669.059C199.615 669.013 196.226 668.624 192.837 667.937C163.845 662.097 136.068 634.503 126.816 602.351C123.06 589.275 123.885 576.841 129.129 567.291C129.152 567.245 129.175 567.223 129.198 567.177C135.816 555.223 148.731 549.017 163.731 550.574C163.891 550.597 164.051 550.62 164.212 550.643C164.28 550.666 164.326 550.666 164.395 550.689C167.212 551.376 181.913 556.826 193.913 596.489C199.546 615.129 208.065 625.366 214.912 633.564C222.309 642.449 228.698 650.098 224.004 662.532C223.775 663.151 223.408 663.7 222.95 664.158C222.561 664.548 222.126 664.845 221.622 665.074C215.897 667.731 209.851 669.059 203.623 669.059ZM137.304 571.551C137.281 571.596 137.258 571.619 137.258 571.642C133.159 579.039 132.61 589.046 135.701 599.786C143.922 628.366 169.273 653.762 194.692 658.891C197.531 659.464 200.348 659.784 203.096 659.83C207.538 659.899 211.844 659.12 215.943 657.494C217.523 651.449 214.546 647.51 207.813 639.449C200.829 631.068 191.257 619.572 185.096 599.145C175.02 565.803 163.868 560.307 162.357 559.688C151.204 558.658 142.09 562.963 137.304 571.551Z" fill="#230047"/>
<path d="M256.98 627.564C255.445 627.564 253.957 626.808 253.087 625.412C242.278 608.351 210.447 580.207 210.126 579.909C208.226 578.238 208.042 575.329 209.714 573.406C211.386 571.505 214.317 571.322 216.218 572.993C217.569 574.184 249.354 602.283 260.873 620.465C262.224 622.618 261.583 625.457 259.453 626.808C258.674 627.335 257.827 627.564 256.98 627.564Z" fill="#230047"/>
<path d="M249.995 636.289C248.873 636.289 247.636 636.152 246.285 635.854C244.957 635.556 243.835 634.686 243.217 633.472C236.392 620.259 202.798 585.634 202.455 585.291C200.943 583.734 200.714 581.352 201.905 579.543C204.974 574.894 214.866 569.902 217.821 568.482C219.195 567.818 220.797 567.887 222.103 568.642C223.316 569.352 252.262 586.184 268.086 613.595C268.361 614.053 268.544 614.58 268.636 615.107C268.842 616.252 269.62 622.091 265.704 625.663C264.674 626.602 263.14 627.541 260.964 627.839C260.392 629.854 259.315 632.075 257.277 633.793C255.789 635.03 253.453 636.289 249.995 636.289ZM212.302 582.268C220.66 591.039 242.53 614.442 250.178 627.106C250.705 627.083 251.094 626.969 251.323 626.786C252.079 626.167 252.422 624.312 252.377 623.19C252.331 621.725 252.972 620.305 254.117 619.412C255.262 618.496 256.75 618.175 258.17 618.542C258.811 618.725 259.247 618.748 259.476 618.748C259.567 618.404 259.613 617.877 259.59 617.374C247.27 596.649 226.225 582.153 219.561 577.94C216.973 579.268 214.271 580.871 212.302 582.268Z" fill="#230047"/>
<path d="M213.424 577.573C188.6 577.573 177.104 563.604 176.578 562.94C175.959 562.161 175.593 561.2 175.57 560.215C175.501 558.383 175.295 542.17 185.784 538.895C194.737 536.101 222.217 543.979 227.805 552.406C233.919 561.566 227.622 571.55 222.95 575.993C222.195 576.703 221.233 577.138 220.225 577.252C217.866 577.459 215.599 577.573 213.424 577.573ZM184.799 558.268C187.936 561.314 198.31 569.581 217.615 568.207C219.401 566.077 222.698 561.291 220.156 557.49C217.225 553.07 194.165 545.925 188.532 547.666C186.242 548.398 184.982 553.895 184.799 558.268Z" fill="#230047"/>
<g opacity="0.2">
<path d="M257.209 622.824C257.209 622.824 257.781 633.61 247.499 631.251C247.499 631.251 238.408 652.342 219.767 660.907C219.424 661.067 219.103 661.205 218.759 661.342C218.485 661.456 218.21 661.571 217.958 661.685C217.637 661.8 217.34 661.937 217.019 662.052C216.492 662.235 215.943 662.441 215.416 662.601C213.08 663.357 210.607 663.907 208.019 664.204C207.653 664.227 207.309 664.273 206.943 664.296C206.577 664.319 206.21 664.365 205.867 664.365C204.951 664.411 204.012 664.433 203.073 664.433C199.981 664.388 196.89 664.021 193.798 663.403C166.731 657.953 139.846 631.435 131.03 600.817C127.915 589.986 128.259 580.299 131.327 572.604C131.304 573.269 130.663 598.985 160.708 611.809C191.165 624.794 200.142 621.267 200.142 621.267C200.142 621.267 224.622 636.999 235.247 611.809C235.247 611.809 248.186 612.176 256.499 604.161C259.338 607.756 262.018 611.603 264.376 615.702C264.353 615.725 265.979 625.16 257.209 622.824Z" fill="#230047"/>
</g>
<path d="M402.807 479.196L377.227 486.89C374.205 487.738 372.579 483.524 375.373 482.127L399.463 470.608C401.753 469.509 404.524 470.471 405.623 472.784C406.883 475.28 405.509 478.394 402.807 479.196Z" fill="#230047"/>
<path d="M516.002 499.05C516.162 498.981 516.093 498.982 516.116 498.959C516.07 498.913 515.956 498.936 515.864 498.936C512.155 499.691 510.46 503.905 509.773 507.317C509.384 509.058 506.75 508.943 506.521 507.18C505.193 501.203 506.842 494.058 512.384 490.646C518.2 487.852 522.047 496.6 516.002 499.05Z" fill="#230047"/>
<path d="M303.559 152.939C303.559 152.939 306.742 120.833 327.581 95.0709C331.542 90.1703 338.435 88.7963 343.977 91.7733C354.9 97.6586 372.74 110.254 383.663 133.451L303.559 152.939Z" fill="white"/>
<g opacity="0.2">
<path d="M359.778 146.687C332.573 152.367 303.559 150.832 303.559 150.832C303.559 150.832 310.383 111.009 327.947 95.0938C327.855 110.597 333.443 131.802 359.778 146.687Z" fill="#230047"/>
</g>
<path d="M303.558 157.543C302.459 157.543 301.383 157.153 300.536 156.42C299.414 155.436 298.818 153.97 298.978 152.482C299.116 151.108 302.528 118.704 324.008 92.163C329.367 85.5449 338.687 83.6671 346.175 87.7204C356.732 93.3996 376.151 106.659 387.853 131.482C388.449 132.742 388.449 134.185 387.83 135.421C387.235 136.658 386.113 137.574 384.762 137.917L304.658 157.405C304.291 157.497 303.925 157.543 303.558 157.543ZM337.771 94.8194C335.275 94.8194 332.825 95.9186 331.153 97.9796C316.909 115.567 311.253 136.452 309.192 146.825L376.884 130.36C366.213 111.147 350.572 100.59 341.756 95.827C340.519 95.14 339.122 94.8194 337.771 94.8194Z" fill="#230047"/>
<path d="M335.618 232.036C334.015 231.99 332.435 231.303 331.222 229.975L138.037 19.9823C135.633 17.3717 135.656 13.2726 138.083 10.8452C140.51 8.41775 144.426 8.55516 146.831 11.1658L340.015 221.159C342.42 223.769 342.397 227.868 339.969 230.296C338.779 231.51 337.199 232.082 335.618 232.036Z" fill="#BD8E59"/>
<path d="M335.825 236.639C335.71 236.639 335.596 236.639 335.481 236.639C332.573 236.547 329.848 235.288 327.833 233.089L134.671 23.0962C130.618 18.6994 130.709 11.7378 134.854 7.5929C136.892 5.5319 139.617 4.4556 142.503 4.5014C145.457 4.5701 148.205 5.8296 150.266 8.0509L343.45 218.044C347.504 222.441 347.412 229.402 343.267 233.547C341.252 235.54 338.618 236.639 335.825 236.639ZM142.274 13.7072C141.93 13.7072 141.61 13.8446 141.358 14.0965C140.671 14.7835 140.717 16.0659 141.449 16.8674L334.611 226.86C334.932 227.227 335.344 227.41 335.756 227.433C336.122 227.433 336.443 227.318 336.718 227.044C337.405 226.357 337.359 225.074 336.649 224.273L143.465 14.2797C143.03 13.7988 142.549 13.7072 142.297 13.7072H142.274Z" fill="#230047"/>
<path d="M518.658 249.348C518.658 274.401 516.414 292.102 514.17 303.598C511.857 315.3 509.544 320.544 509.544 320.544C514.147 397.717 437.89 431.54 326.275 397.419C218.302 364.398 206.6 297.392 219.08 266.317C221.141 261.187 223.569 256.722 226.156 252.829C226.179 252.806 226.179 252.806 226.179 252.806C237.446 235.837 251.69 229.975 251.69 229.975C262.888 191.434 281.941 164.87 315.237 145.977C347.412 127.726 391.426 132.192 421.493 138.672C441.508 142.977 455.317 148.199 455.317 148.199C455.317 148.199 498.414 121.52 520.971 137.413C524.978 140.229 527.795 144.535 529.673 149.825C540.94 181.656 518.658 249.348 518.658 249.348Z" fill="white"/>
<path d="M518.017 249.348C518.017 274.401 515.772 292.102 513.528 303.598C510.231 303.896 506.91 304.033 503.544 304.033C443.546 304.033 394.929 259.126 394.929 203.754C394.929 178.931 404.685 156.214 420.875 138.718C440.89 143.023 454.698 148.245 454.698 148.245C454.698 148.245 497.796 121.566 520.352 137.459C548.359 157.221 518.017 249.348 518.017 249.348Z" fill="#FFB83B"/>
<g opacity="0.2">
<path d="M518.658 249.348C518.658 274.4 516.414 292.102 514.17 303.598C511.857 315.3 509.544 320.544 509.544 320.544C514.147 397.717 437.89 431.54 326.275 397.419C218.302 364.397 206.6 297.392 219.08 266.317C221.141 261.187 223.569 256.722 226.156 252.829C225.675 254.226 201.63 325.399 298.131 369.344C407.478 419.128 499.743 375.573 495.3 316.285C495.3 316.285 510.208 281.248 495.437 240.829L445.973 184.22C445.973 184.22 492.552 127.245 520.33 141.558C523.581 143.229 526.696 146.115 529.673 149.824C540.94 181.655 518.658 249.348 518.658 249.348Z" fill="#230047"/>
</g>
<path d="M305.734 292.194C305.734 292.194 300.49 319.858 310.176 326.865C310.909 327.415 311.734 327.827 312.65 328.101C324.031 331.491 330.786 317.293 334.336 305.751C336.58 298.423 337.519 292.171 337.519 292.171C322.794 297.782 312.581 295.973 305.734 292.194C297.055 287.408 293.872 279.462 293.872 279.462Z" fill="#230047"/>
<path d="M334.336 305.751C330.786 317.292 324.031 331.49 312.649 328.101C311.733 327.826 310.909 327.414 310.176 326.865C310.382 314.224 318.145 304.033 327.718 304.033C330.076 304.033 332.298 304.652 334.336 305.751Z" fill="#FF85AB"/>
<path d="M405.692 415.259C381.166 415.259 353.64 410.816 324.306 401.84C257.3 381.367 229.774 348.895 218.485 325.285C208.729 304.881 207.126 282.187 214.179 264.623C223.912 240.44 241.224 229.815 247.224 226.723C259.178 186.9 279.33 160.726 312.329 142.016C363.121 113.208 440.202 138.215 454.194 143.161C463.263 137.94 500.842 118.086 522.963 133.681C536.153 142.978 539.932 165.809 534.23 201.533C530.497 224.914 523.948 245.914 522.62 250.081C522.551 294.759 515.452 316.377 513.551 321.323C515.085 351.414 504.758 376.054 483.644 392.68C464.591 407.679 437.706 415.259 405.692 415.259ZM371.686 137.711C352.541 137.711 333.053 140.848 316.863 150.031C285.559 167.779 266.643 192.831 255.468 231.303C255.079 232.654 254.094 233.754 252.789 234.28C252.606 234.349 232.843 242.868 222.721 268.058C216.607 283.263 218.118 303.186 226.797 321.3C237.286 343.261 263.208 373.535 327.008 393.023C391.7 412.786 446.729 410.038 477.987 385.42C496.857 370.558 505.971 348.231 504.345 320.819C504.3 320.087 504.437 319.354 504.735 318.69C504.826 318.507 513.46 297.988 513.46 249.349C513.46 248.868 513.528 248.364 513.689 247.906C521.818 223.174 538.398 155.802 517.719 141.215C501.3 129.627 468.415 145.176 457.148 152.138C455.935 152.894 454.446 153.031 453.095 152.527C452.477 152.321 412.951 137.711 371.686 137.711Z" fill="#230047"/>
<path d="M457.836 151.566L438.668 166.29C436.722 167.779 434.249 165.168 435.829 163.313L451.47 144.902C456.095 139.955 463.011 147.192 457.836 151.566Z" fill="#230047"/>
<path d="M509.086 231.669L482.041 212.456L454.652 192.991C454.652 192.991 466.194 179.16 479.636 168.259C490.674 159.305 502.994 152.321 511.284 156.534C527.612 164.801 509.086 231.669 509.086 231.669Z" fill="#FF85AB"/>
<path d="M509.086 236.272C508.147 236.272 507.208 235.975 506.429 235.425L451.996 196.747C450.943 196.014 450.256 194.869 450.095 193.587C449.935 192.304 450.302 191.022 451.126 190.037C451.607 189.465 463.103 175.748 476.751 164.664C492.277 152.069 504.597 147.924 513.391 152.413C522.345 156.97 524.727 171.42 520.879 197.869C518.269 215.708 513.735 232.196 513.551 232.906C513.162 234.349 512.063 235.517 510.666 236.02C510.139 236.181 509.613 236.272 509.086 236.272ZM461.477 192.19L506.338 224.067C513.574 195.19 516.414 164.298 509.223 160.634C504.185 158.092 494.476 162.168 482.545 171.832C473.774 178.954 465.782 187.427 461.477 192.19Z" fill="#230047"/>
<path d="M482.064 217.06C481.125 217.06 480.209 216.785 479.407 216.212L452.019 196.747C450.966 196.014 450.279 194.869 450.118 193.587C449.958 192.305 450.324 191.022 451.149 190.038C451.63 189.465 463.126 175.748 476.774 164.664C478.469 163.29 480.896 163.29 482.591 164.687C490.651 171.282 495.277 181.038 495.277 191.457C495.277 200.594 491.751 209.182 485.361 215.686C484.445 216.602 483.255 217.06 482.064 217.06ZM461.477 192.19L481.285 206.251C484.377 201.968 486.048 196.839 486.048 191.457C486.048 185.091 483.69 179.046 479.476 174.397C471.942 180.9 465.278 187.977 461.477 192.19Z" fill="#230047"/>
<path d="M411.03 296.492C417.6 279.073 413.179 261.275 401.156 256.74C389.132 252.206 374.059 262.651 367.49 280.071C360.92 297.491 365.341 315.288 377.364 319.823C389.388 324.358 404.46 313.912 411.03 296.492Z" fill="#230047"/>
<path d="M392.704 282.911C395.954 277.282 395.171 270.744 390.954 268.31C386.737 265.875 380.684 268.465 377.434 274.095C374.183 279.724 374.967 286.262 379.183 288.696C383.4 291.131 389.453 288.541 392.704 282.911Z" fill="white"/>
<g opacity="0.35">
<path d="M394.305 308.782C398.592 306.582 400.972 302.663 399.621 300.03C398.269 297.397 393.699 297.046 389.411 299.247C385.124 301.447 382.744 305.365 384.096 307.998C385.447 310.631 390.018 310.982 394.305 308.782Z" fill="white"/>
</g>
<path d="M277.246 232.975C283.131 235.997 287.826 240.806 290.62 246.829C292.291 250.562 293.047 254.661 293.07 258.76C293.139 261.096 291.284 263.042 288.948 263.111C287.345 263.248 285.994 262.035 284.803 261.187C284.734 260.981 284.482 260.592 284.299 260.271C280.956 255.004 275.872 250.424 269.529 249.394C268.75 249.302 268.201 248.592 268.361 247.814C268.475 247.241 268.956 246.806 269.506 246.738C277.91 245.638 286.223 249.875 292.177 255.623L283.91 258.05C284.963 252.142 283.246 246.096 279.422 241.448C278.116 239.822 276.422 238.173 274.773 237.005C272.483 235.265 274.704 231.715 277.246 232.975Z" fill="#230047"/>
<path d="M311.39 281.706C310.2 281.5 309.146 280.767 308.551 279.713C306.902 276.828 303.879 270.851 306.055 269.157C308.963 266.889 323.046 273.53 322.222 278.912C321.604 282.965 314.78 282.278 311.39 281.706Z" fill="#230047"/>
<path d="M315.97 333.208C314.253 333.208 312.673 332.91 311.345 332.521C309.925 332.108 308.642 331.444 307.452 330.597C297.559 323.452 299.391 303.163 300.673 294.507C292.796 289.011 289.727 281.568 289.59 281.225C288.651 278.866 289.773 276.187 292.131 275.225C294.49 274.286 297.169 275.408 298.131 277.767C298.154 277.813 300.902 284.27 307.864 288.14C307.932 288.163 307.978 288.209 308.047 288.232C315.375 292.24 324.741 292.125 335.893 287.889C337.428 287.316 339.145 287.591 340.428 288.598C341.71 289.629 342.328 291.255 342.099 292.881C342.053 293.156 341.069 299.568 338.756 307.125C332.161 328.513 322.863 333.208 315.97 333.208ZM309.421 298.766C308.368 308.407 308.757 320.155 312.879 323.132C313.222 323.384 313.589 323.567 313.978 323.681C321.947 326.063 327.397 312.62 329.939 304.399C330.535 302.453 331.039 300.598 331.451 298.903C323.344 300.896 315.993 300.85 309.421 298.766Z" fill="#230047"/>
<path d="M515.246 293.293C402.601 190.517 269.506 187.907 269.506 187.907C272.849 176.869 278.025 169.289 283.315 164.091C293.184 154.358 303.558 152.916 303.558 152.916C445.973 152 518.017 249.348 518.017 249.348C518.681 252.118 519.162 254.752 519.505 257.294C522.734 279.965 515.246 293.293 515.246 293.293Z" fill="#FF773D"/>
<g opacity="0.2">
<path d="M515.246 293.293C402.601 190.517 269.506 187.907 269.506 187.907C272.849 176.869 278.025 169.289 283.315 164.091C288.032 167.228 298.154 170.617 318.672 173.434C371.915 180.739 414.303 197.296 450.21 220.402C476.11 237.073 497.201 257.317 519.505 257.271C522.734 279.965 515.246 293.293 515.246 293.293Z" fill="#230047"/>
</g>
<path d="M515.246 297.896C514.101 297.896 513.002 297.484 512.154 296.682C454.721 244.287 391.838 218.753 349.198 206.571C302.894 193.334 269.758 192.51 269.437 192.51C267.994 192.487 266.643 191.777 265.796 190.609C264.949 189.441 264.697 187.953 265.109 186.556C275.46 152.527 301.818 148.496 302.94 148.336C303.1 148.313 303.26 148.29 303.421 148.29C377.182 145.817 432.554 172.633 466.034 195.533C502.33 220.379 520.971 245.523 521.749 246.577C522.116 247.081 522.368 247.653 522.528 248.249C529.329 277.148 519.711 294.758 519.299 295.491C518.612 296.705 517.398 297.552 516.024 297.781C515.75 297.873 515.498 297.896 515.246 297.896ZM275.895 183.648C287.78 184.472 315.466 187.403 351.396 197.64C393.853 209.731 455.889 234.738 513.368 285.415C515.269 278.935 517.284 267.141 513.757 251.34C510.437 247.081 492.277 224.639 460.515 202.952C428.272 180.945 374.96 155.206 304.016 157.496C301.886 157.908 284.94 161.572 275.895 183.648Z" fill="#230047"/>
<path d="M206.279 222.739C218.622 221.571 230.21 228.968 237.538 238.471C241.385 243.234 234.538 249.097 230.439 244.517C229.362 243.097 228.858 241.334 227.942 239.799C227.599 239.227 226.775 237.83 226.454 237.28C226.11 236.799 225.126 235.402 224.759 234.899C220.225 229.105 213.699 224.617 206.302 223.494C205.867 223.472 205.821 222.785 206.279 222.739Z" fill="#230047"/>
<path d="M192.402 266.409C199.341 259.218 210.653 257.386 219.653 261.737C225.378 264.096 222.195 272.5 216.332 270.485C215.783 270.279 215.302 269.958 214.844 269.592C212.073 267.256 208.798 265.584 205.089 265.286C201.218 264.897 197.005 265.905 193.547 267.783C192.677 268.401 191.623 267.164 192.402 266.409Z" fill="#230047"/>
<path d="M427.012 311.934C442.607 308.613 460.217 313.033 471.186 324.803C474.713 328.536 477.552 332.773 479.819 337.215C471.484 325.124 457.858 317.338 443.088 318.139C438.622 318.346 433.997 319.101 429.852 320.704C423.417 323.292 420.279 313.582 427.012 311.934Z" fill="#230047"/>
<path d="M420.165 340.055C437.088 345.551 447.966 360.23 443.455 378.137C444.004 366.71 438.691 356.405 428.089 351.825C425.364 350.589 422.455 349.696 419.501 349.215C419.135 349.169 418.631 349.077 418.425 349.1C415.837 349.192 413.662 347.154 413.593 344.566C413.433 341.108 417.028 338.795 420.165 340.055Z" fill="#230047"/>
<path d="M481.285 246.783C480.095 246.898 478.904 246.646 477.873 245.936L135.679 17.3024C132.999 15.5162 132.358 11.5545 134.259 8.44009C136.137 5.32569 139.846 4.24939 142.526 6.05849L484.72 234.692C487.4 236.478 488.041 240.44 486.14 243.554C484.972 245.455 483.14 246.6 481.285 246.783Z" fill="#BD8E59"/>
<path d="M480.713 251.409C478.789 251.409 476.934 250.86 475.308 249.76L133.114 21.1268C128.419 17.9895 127.16 11.234 130.32 6.03572C131.946 3.35642 134.556 1.45572 137.465 0.814518C140.144 0.219118 142.846 0.722919 145.09 2.21142L487.262 230.868C491.957 234.005 493.216 240.761 490.056 245.959C488.201 249.005 485.087 251.043 481.743 251.386C481.4 251.386 481.056 251.409 480.713 251.409ZM139.64 9.79132C139.571 9.79132 139.503 9.79132 139.434 9.81422C138.976 9.90582 138.495 10.2951 138.174 10.8218C137.487 11.9439 137.762 13.1576 138.22 13.4782L480.415 242.112C480.484 242.158 480.598 242.226 480.804 242.203C481.171 242.158 481.743 241.883 482.178 241.173C482.865 240.051 482.59 238.837 482.132 238.517L139.938 9.86002C139.915 9.83712 139.823 9.79132 139.64 9.79132Z" fill="#230047"/>
<path d="M428.432 180.305C428.432 180.305 426.302 207.693 416.593 227.135C432.119 234.601 446.867 242.638 460.561 251.455C460.561 251.455 471.553 227.387 469.309 203.525C454.905 192.923 441.233 185.022 428.432 180.305Z" fill="white"/>
<path d="M460.538 256.058C459.667 256.058 458.797 255.806 458.041 255.325C445.034 246.967 430.836 239.112 414.577 231.28C413.455 230.753 412.608 229.792 412.219 228.624C411.829 227.456 411.898 226.173 412.448 225.074C421.631 206.686 423.806 180.19 423.806 179.938C423.92 178.496 424.699 177.19 425.913 176.412C427.127 175.633 428.638 175.473 429.989 175.977C442.813 180.717 456.942 188.732 471.988 199.816C473.041 200.594 473.728 201.785 473.842 203.09C476.178 227.891 465.163 252.325 464.705 253.356C464.156 254.569 463.102 255.485 461.82 255.852C461.408 255.989 460.973 256.058 460.538 256.058ZM422.661 224.983C435.668 231.395 447.416 237.852 458.316 244.608C461.11 236.936 465.805 221.456 464.866 205.999C453.301 197.617 442.401 191.205 432.348 186.854C431.226 195.396 428.523 211.266 422.661 224.983Z" fill="#230047"/>
<path d="M68.0088 141.787C68.8103 142.016 69.3599 142.177 70.024 142.406C70.6423 142.612 71.2606 142.841 71.856 143.07C73.0697 143.528 74.2604 144.054 75.4283 144.604C77.787 145.68 80.0084 146.963 82.2068 148.337C86.6036 151.085 90.6569 154.474 94.2751 158.367C97.8704 162.26 101.008 166.702 103.412 171.557C105.84 176.389 107.534 181.633 108.45 186.946C109.343 192.282 109.435 197.64 108.977 202.884C108.656 205.495 108.336 208.106 107.74 210.602C107.236 213.144 106.504 215.617 105.702 218.044C102.519 227.754 97.5497 236.525 91.3896 244.173C90.3362 245.478 88.4127 245.685 87.0845 244.631C86.0769 243.807 85.7105 242.479 86.0998 241.311L86.1226 241.265C89.0538 232.265 91.8705 223.54 93.4048 214.838C93.5651 213.739 93.7484 212.663 93.9545 211.586C94.1606 210.51 94.2064 209.434 94.3438 208.358C94.6873 206.205 94.6643 204.075 94.8246 201.946C94.8704 197.709 94.6415 193.541 93.9316 189.511C92.3973 181.45 88.9622 173.939 83.8326 167.298C81.2907 163.977 78.3366 160.84 75.0848 157.978C73.4818 156.489 71.7415 155.184 70.024 153.833C69.1538 153.169 68.2607 152.527 67.3676 151.909C66.9096 151.588 66.4745 151.291 66.0165 150.993C65.5814 150.718 65.0775 150.398 64.7798 150.169L64.2073 149.756C62.1921 148.314 61.7342 145.497 63.1998 143.482C64.2532 141.879 66.2455 141.261 68.0088 141.787Z" fill="white"/>
<path d="M110.809 132.581C111.611 132.81 112.16 132.97 112.824 133.199C113.443 133.405 114.061 133.634 114.656 133.863C115.87 134.321 117.061 134.848 118.229 135.397C120.587 136.474 122.809 137.756 125.007 139.13C129.404 141.878 133.457 145.267 137.075 149.16C140.671 153.053 143.808 157.496 146.212 162.351C148.64 167.183 150.334 172.427 151.25 177.739C152.144 183.075 152.235 188.434 151.777 193.678C151.457 196.288 151.136 198.899 150.541 201.395C150.037 203.937 149.304 206.41 148.502 208.838C145.319 218.547 140.35 227.318 134.19 234.967C133.137 236.272 131.213 236.478 129.885 235.425C128.877 234.6 128.511 233.272 128.9 232.104L128.923 232.058C131.854 223.059 134.671 214.334 136.205 205.632C136.365 204.532 136.549 203.456 136.755 202.38C136.961 201.304 137.007 200.227 137.144 199.151C137.488 196.998 137.465 194.869 137.625 192.739C137.671 188.502 137.442 184.335 136.732 180.304C135.198 172.243 131.763 164.732 126.633 158.091C124.091 154.771 121.137 151.633 117.885 148.771C116.282 147.282 114.542 145.977 112.824 144.626C111.954 143.962 111.061 143.321 110.168 142.702C109.71 142.382 109.275 142.084 108.817 141.786C108.382 141.512 107.878 141.191 107.58 140.962L107.008 140.55C104.992 139.107 104.534 136.29 106 134.275C107.053 132.695 109.046 132.077 110.809 132.581Z" fill="white"/>
<path d="M88.9852 249.944C87.2906 249.944 85.596 249.394 84.1762 248.249C81.7259 246.28 80.7183 242.937 81.6801 239.937C81.6801 239.914 81.7259 239.822 81.7259 239.799C84.4739 231.372 87.3364 222.556 88.802 214.083C88.9623 213.029 89.1455 211.907 89.3516 210.808C89.4432 210.304 89.5119 209.777 89.5577 209.205C89.6035 208.724 89.6493 208.266 89.718 207.785C89.9241 206.457 89.9928 205.175 90.0615 203.823C90.0844 203.136 90.1302 202.472 90.176 201.808C90.2218 197.572 89.947 193.816 89.3516 190.358C87.9776 183.099 84.8632 176.275 80.1458 170.16C77.81 167.115 75.062 164.184 71.9934 161.458C70.6423 160.222 69.2454 159.123 67.734 157.955L67.1386 157.497C66.3829 156.901 65.5814 156.352 64.6883 155.733C64.2532 155.413 63.8868 155.184 63.5433 154.932L63.1082 154.634C62.696 154.382 62.3067 154.108 62.0319 153.924L61.4594 153.512C59.49 152.092 58.1847 149.986 57.7954 147.581C57.4061 145.177 57.9786 142.772 59.3984 140.803C61.6426 137.711 65.6043 136.337 69.2912 137.391C70.1614 137.642 70.8026 137.826 71.5125 138.078C72.1995 138.307 72.8636 138.558 73.5277 138.81C74.6956 139.268 75.9322 139.795 77.3749 140.459C79.6191 141.49 81.9549 142.772 84.6571 144.467C89.4203 147.467 93.7942 151.108 97.6643 155.275C101.695 159.626 105.015 164.435 107.534 169.542C110.145 174.763 111.977 180.351 112.984 186.19C113.9 191.618 114.084 197.366 113.557 203.343C113.557 203.388 113.557 203.434 113.534 203.48C113.213 206.251 112.847 208.953 112.206 211.655C111.633 214.541 110.786 217.243 110.053 219.533C106.801 229.449 101.718 238.723 94.9392 247.15C93.4507 248.959 91.2294 249.944 88.9852 249.944ZM67.3447 146.367L67.4134 146.413C67.5966 146.528 67.8485 146.711 68.1004 146.871L68.6729 147.238C69.1309 147.535 69.566 147.833 70.024 148.154C70.9171 148.772 71.856 149.436 72.8178 150.169L73.4132 150.627C74.9933 151.863 76.6421 153.123 78.1993 154.566C81.6343 157.611 84.7945 160.978 87.4738 164.481C93.0843 171.741 96.7712 179.87 98.4429 188.641C99.1757 192.786 99.4734 197.137 99.4276 201.991C99.4276 202.083 99.4276 202.175 99.4047 202.266C99.3589 202.907 99.336 203.549 99.2902 204.213C99.2215 205.77 99.1299 207.35 98.878 209.068C98.8551 209.297 98.8093 209.663 98.7864 210.006C98.7177 210.739 98.649 211.587 98.4658 212.503C98.2826 213.464 98.1223 214.495 97.9391 215.548C96.8857 221.525 95.2827 227.479 93.4965 233.319C96.7941 228.029 99.4276 222.441 101.351 216.602C102.015 214.564 102.748 212.136 103.252 209.686C103.252 209.64 103.275 209.571 103.298 209.526C103.824 207.304 104.122 204.991 104.443 202.404C104.901 197.251 104.74 192.282 103.962 187.679C103.115 182.778 101.557 178.015 99.336 173.595C97.1834 169.244 94.3667 165.168 90.9317 161.458C87.6341 157.886 83.8785 154.772 79.8023 152.207C77.4436 150.718 75.4513 149.642 73.5506 148.749C72.2682 148.154 71.2377 147.696 70.253 147.329C69.6805 147.1 69.108 146.917 68.5584 146.711C68.1233 146.619 67.7569 146.505 67.3447 146.367Z" fill="#230047"/>
<path d="M131.785 240.738C130.045 240.738 128.373 240.143 126.999 239.043C124.549 237.074 123.542 233.731 124.526 230.731C124.526 230.685 124.572 230.616 124.572 230.57C127.297 222.143 130.16 213.35 131.648 204.854C131.808 203.8 131.992 202.678 132.198 201.579C132.289 201.075 132.358 200.548 132.404 199.976C132.45 199.518 132.495 199.037 132.564 198.579C132.564 198.533 132.564 198.51 132.587 198.465C132.77 197.251 132.839 195.968 132.908 194.594C132.931 193.93 132.976 193.243 133.022 192.579C133.068 188.343 132.793 184.587 132.198 181.129C130.824 173.87 127.709 167.069 122.992 160.931C120.656 157.886 117.908 154.955 114.839 152.229C113.488 150.993 112.091 149.894 110.603 148.749L109.985 148.268C109.229 147.672 108.428 147.123 107.534 146.504C107.099 146.184 106.733 145.955 106.367 145.703L105.931 145.428C105.542 145.176 105.13 144.901 104.855 144.718L104.26 144.306C102.29 142.886 100.985 140.779 100.596 138.375C100.206 135.97 100.779 133.566 102.199 131.597C104.443 128.505 108.405 127.131 112.091 128.184C112.985 128.436 113.603 128.642 114.336 128.871C115 129.1 115.687 129.329 116.328 129.581C117.519 130.039 118.755 130.566 120.175 131.23C122.419 132.261 124.755 133.543 127.457 135.238C132.221 138.238 136.595 141.879 140.465 146.046C144.495 150.42 147.815 155.206 150.334 160.336C152.945 165.557 154.777 171.145 155.785 176.984C156.701 182.412 156.884 188.16 156.357 194.136C156.357 194.182 156.357 194.228 156.334 194.274C156.014 197.045 155.647 199.747 155.006 202.449C154.434 205.312 153.586 208.037 152.853 210.327C149.602 220.242 144.518 229.517 137.739 237.944C136.457 239.547 134.625 240.532 132.587 240.761C132.335 240.715 132.06 240.738 131.785 240.738ZM141.678 199.816C141.633 200.136 141.61 200.48 141.587 200.8C141.518 201.533 141.449 202.38 141.266 203.296C141.083 204.258 140.923 205.312 140.739 206.342C139.686 212.319 138.083 218.273 136.297 224.113C139.594 218.823 142.228 213.235 144.129 207.396C144.793 205.357 145.526 202.93 146.029 200.48C146.029 200.411 146.052 200.365 146.075 200.297C146.602 198.075 146.9 195.762 147.22 193.175C147.678 188.022 147.518 183.053 146.739 178.45C145.892 173.549 144.335 168.786 142.113 164.366C139.961 160.015 137.144 155.939 133.709 152.229C130.412 148.657 126.656 145.543 122.58 142.978C120.221 141.489 118.229 140.413 116.328 139.52C115.068 138.925 114.015 138.489 113.03 138.1C112.458 137.871 111.885 137.688 111.313 137.482C110.924 137.344 110.557 137.23 110.145 137.115L110.214 137.161C110.374 137.276 110.649 137.459 110.901 137.619L111.45 137.986C111.908 138.283 112.343 138.581 112.801 138.925C113.695 139.543 114.656 140.207 115.595 140.94L116.213 141.421C117.794 142.657 119.42 143.917 120.977 145.359C124.412 148.405 127.572 151.749 130.251 155.252C135.862 162.512 139.549 170.641 141.22 179.412C141.953 183.557 142.251 187.908 142.205 192.762C142.205 192.854 142.205 192.946 142.182 193.037C142.136 193.678 142.113 194.32 142.068 194.961C141.999 196.564 141.93 198.144 141.678 199.816Z" fill="#230047"/>
<path d="M181.982 172.266L56.5589 203.479C52.9636 224.478 41.7197 238.86 32.1704 247.607C27.5217 251.867 20.0792 248.271 20.583 241.974C21.8883 225.6 19.5296 207.441 19.5296 207.441C15.9343 198.785 11.1482 192.121 6.56819 187.197C3.13319 183.51 4.73618 177.946 8.72078 176.136C9.72838 175.678 10.8734 175.449 12.1329 175.564C37.0481 177.579 52.1163 187.976 52.1163 187.976L178.662 156.488L180.86 166.954L181.982 172.266Z" fill="white"/>
<g opacity="0.2">
<path d="M181.982 172.267L56.5589 203.48C52.9636 224.479 41.7197 238.86 32.1704 247.608C27.5217 251.867 20.0792 248.272 20.583 241.974C21.8883 225.601 19.5296 207.441 19.5296 207.441C15.9343 198.785 11.1482 192.121 6.56819 187.198C3.13319 183.511 4.73618 177.946 8.72078 176.137C15.6366 182.457 26.0561 193.106 28.5522 201.922C29.4453 205.06 30.1323 208.22 30.6819 211.197C31.8956 217.861 40.6434 219.624 44.3303 213.968C47.9714 208.38 51.269 202.083 52.1163 196.587L173.738 166.954H180.86L181.982 172.267Z" fill="#230047"/>
</g>
<path d="M27.4759 254.089C25.7584 254.089 24.0409 253.699 22.415 252.921C18.1327 250.837 15.6137 246.394 15.9801 241.631C17.1022 227.548 15.4076 211.884 15.0412 208.655C12.1558 201.877 8.17123 195.717 3.20193 190.358C-0.0727744 186.831 -0.82848 181.748 1.27832 177.419C3.36222 173.137 7.80483 170.618 12.5222 171.007C33.6589 172.725 48.0401 180.167 52.9178 183.076L177.563 152.046C178.776 151.749 180.059 151.955 181.112 152.619C182.165 153.283 182.921 154.359 183.173 155.573L186.494 171.328C186.997 173.755 185.509 176.137 183.104 176.755L60.5206 207.258C56.1238 228.235 44.4906 242.57 35.2848 251.02C33.0864 253.035 30.2926 254.089 27.4759 254.089ZM11.5375 180.167C10.3467 180.167 9.79713 180.946 9.54523 181.45C9.33913 181.885 8.94982 183.03 9.93452 184.106C15.774 190.404 20.4456 197.686 23.7661 205.701C23.9264 206.067 24.018 206.48 24.0867 206.869C24.1783 207.625 26.4912 225.693 25.163 242.364C25.0485 243.784 26.0332 244.425 26.4454 244.631C26.8805 244.837 27.9797 245.226 29.056 244.242C37.6435 236.364 48.5897 222.761 52.0247 202.724C52.3224 200.915 53.6735 199.472 55.4597 199.037L176.578 168.901L175.158 162.168L53.2613 192.511C51.9789 192.831 50.6278 192.579 49.5286 191.824C49.3912 191.732 35.0329 182.091 11.7894 180.213C11.6978 180.19 11.6062 180.167 11.5375 180.167Z" fill="#230047"/>
<path d="M56.5362 208.105C54.521 208.105 52.689 206.777 52.1165 204.762L47.6968 189.282C47.0098 186.831 48.4067 184.289 50.857 183.579C53.3073 182.87 55.8492 184.289 56.5591 186.74L60.9788 202.22C61.6658 204.67 60.2689 207.212 57.8186 207.922C57.3835 208.037 56.9713 208.105 56.5362 208.105Z" fill="#230047"/>
<path d="M194.784 210.486C190.684 214.105 184.204 212.021 182.967 206.708L166.021 133.771C165.151 130.062 167.258 126.672 170.372 125.436C171.884 124.795 173.647 124.703 175.433 125.298C186.196 129.008 201.883 135.512 213.172 144.924C219.882 150.534 225.057 157.152 226.729 164.824C229.523 177.488 207.745 198.991 194.784 210.486Z" fill="white"/>
<g opacity="0.2">
<path d="M194.784 210.487C190.684 214.105 184.204 212.021 182.967 206.709L166.021 133.772C165.151 130.062 167.258 126.673 170.372 125.437L183.837 169.588C187.478 181.519 203.944 182.984 209.417 171.786C213.035 164.344 215.187 155.275 213.172 144.947C219.882 150.558 225.057 157.176 226.729 164.847C229.523 177.488 207.745 198.991 194.784 210.487Z" fill="#230047"/>
</g>
<path d="M190.066 216.899C188.852 216.899 187.639 216.716 186.448 216.326C182.44 215.044 179.463 211.838 178.502 207.716L161.556 134.779C160.571 130.52 161.922 126.238 165.151 123.307C168.403 120.375 172.799 119.482 176.944 120.902C195.081 127.154 226.248 141.008 231.24 163.794C233.736 175.175 222.492 192.029 197.852 213.899C195.654 215.868 192.883 216.899 190.066 216.899ZM170.509 132.696L187.455 205.632C187.753 206.937 188.784 207.418 189.219 207.556C189.654 207.693 190.73 207.922 191.738 207.029C216.149 185.388 223.5 171.534 222.241 165.786C218.05 146.71 187.066 134.138 173.944 129.627C172.616 129.169 171.654 129.856 171.311 130.154C170.967 130.474 170.189 131.344 170.509 132.696Z" fill="#230047"/>
<path d="M193.799 161.069C197.226 161.069 200.005 158.291 200.005 154.863C200.005 151.436 197.226 148.657 193.799 148.657C190.371 148.657 187.593 151.436 187.593 154.863C187.593 158.291 190.371 161.069 193.799 161.069Z" fill="#230047"/>
<path d="M118.71 192.625C118.229 192.625 117.748 192.557 117.29 192.396C114.862 191.618 113.557 189.007 114.336 186.603C116.603 179.641 113.008 176.847 112.252 176.366C110.58 175.382 109.802 173.504 110.145 171.603C113.214 155.321 110.557 142.749 107.237 126.857C104.535 114.033 101.489 99.491 100.458 79.4077C98.031 31.9131 136.48 7.73072 138.129 6.72312C140.304 5.39492 143.121 6.05902 144.472 8.23452C145.8 10.41 145.136 13.2267 142.961 14.5549C141.472 15.4709 107.534 36.9969 109.664 78.9268C110.649 98.3002 113.626 112.452 116.259 124.956C119.488 140.39 122.328 153.81 119.671 170.641C122.946 174.053 126.015 180.443 123.084 189.442C122.465 191.389 120.656 192.625 118.71 192.625Z" fill="#230047"/>
</svg>
