<svg width="638" height="667" viewBox="0 0 638 667" fill="none" xmlns="http://www.w3.org/2000/svg">
<ellipse cx="325" cy="355.5" rx="313" ry="299.5" fill="#B0A2D7"/>
<g clip-path="url(#clip0_245_7418)">
<path d="M345.528 573.179C394.721 601.376 441.447 575.624 448.526 536.666C449.908 529.011 449.759 520.845 447.824 512.488C446.676 507.576 444.912 502.6 442.467 497.603C440.299 493.201 438.088 488.778 435.941 484.333C428.415 468.873 421.698 453.456 420.507 439.06C419.933 432.234 420.613 425.62 423.079 419.347C424.376 416.051 426.481 413.18 429.053 410.926C432.114 408.247 435.835 406.375 439.682 405.546C441.404 405.185 443.126 405.014 444.848 405.099C455.924 405.567 465.979 415.604 461.919 440.591C456.243 475.721 494.423 486.715 508.454 456.582C509.07 455.243 509.623 453.839 510.154 452.372C510.325 451.861 510.495 451.33 510.665 450.819C519.423 422.771 508.815 374.201 465.49 364.015C463.513 363.548 461.451 363.165 459.304 362.846C456.392 362.442 453.5 362.187 450.694 362.123C445.465 361.974 440.426 362.399 435.643 363.356C400.46 370.246 378.309 404.908 389.406 448.374C395.358 471.702 419.487 515.699 409.283 536.943C406.051 543.684 396.124 548.894 384.368 548.362C384.07 548.362 383.751 548.341 383.454 548.32C374.971 547.703 365.618 544.067 357.199 535.858L345.528 573.179Z" fill="#8C8CAA"/>
<path d="M345.55 573.178C394.742 601.376 441.468 575.624 448.547 536.666C442.595 556.337 410.452 569.053 384.368 548.341C384.07 548.341 383.751 548.32 383.454 548.298C374.972 547.682 365.618 544.045 357.199 535.837L345.55 573.178Z" fill="#7C7C7C"/>
<path d="M407.646 427.215C409.814 453.392 427.82 475.572 435.941 484.333C428.416 468.873 421.698 453.456 420.507 439.06C419.933 432.234 420.635 425.62 423.08 419.347C424.376 416.051 426.481 413.18 429.053 410.926C433.475 407.035 439.3 404.866 444.848 405.099C455.924 405.567 465.979 415.604 461.919 440.612C456.222 475.742 494.423 486.736 508.433 456.603C509.049 455.264 509.623 453.86 510.133 452.393C503.076 457.688 485.431 466.789 475.673 455.923C461.919 440.633 480.648 415.073 462.578 396.274C448.824 381.921 404.84 393.276 407.646 427.215Z" fill="#7C7C7C"/>
<path d="M435.282 392.723C435.622 393.085 440.086 391.915 439.959 392.404C439.427 394.531 438.471 398.847 439.682 405.546C439.704 405.546 439.725 405.546 439.746 405.546C440.086 405.461 440.405 405.397 440.745 405.355C441.043 405.312 441.319 405.27 441.617 405.227C441.851 405.206 442.085 405.163 442.318 405.163C442.531 405.142 442.744 405.121 442.977 405.121C443.594 405.078 444.21 405.078 444.827 405.121C455.903 405.588 465.958 415.626 461.897 440.612C456.221 475.742 494.402 486.736 508.432 456.603C509.049 455.264 509.602 453.86 510.133 452.393C503.075 457.688 485.431 466.789 475.652 455.923C461.897 440.612 480.648 415.073 462.578 396.253C456.838 390.278 445.826 388.768 435.154 391.511C435.027 392.064 435.048 392.489 435.282 392.723Z" fill="#686868"/>
<path d="M439.682 405.546C441.404 405.185 443.126 405.014 444.848 405.099C455.924 405.567 465.979 415.604 461.919 440.591C456.243 475.721 494.423 486.715 508.454 456.582C509.07 455.243 509.623 453.839 510.154 452.372C510.324 451.861 510.494 451.33 510.665 450.819C519.423 422.771 508.815 374.201 465.49 364.015C463.513 363.548 461.451 363.165 459.304 362.846C456.37 362.442 453.5 362.187 450.694 362.123C447.846 363.909 440.703 370.863 438.704 378.178C438.449 379.071 443.02 377.327 442.658 378.284C441.447 381.517 433.772 391.15 435.26 392.723C435.601 393.085 440.065 391.936 439.959 392.404C439.448 394.552 438.47 398.869 439.682 405.546Z" fill="white"/>
<path d="M435.282 392.723C435.622 393.085 440.086 391.915 439.959 392.404C439.427 394.531 438.471 398.847 439.682 405.546C439.704 405.546 439.725 405.546 439.746 405.546C440.086 405.482 440.405 405.418 440.745 405.355C441.043 405.312 441.319 405.27 441.617 405.227C441.851 405.206 442.085 405.163 442.318 405.163C442.531 405.142 442.765 405.121 442.977 405.121C443.594 405.078 444.21 405.078 444.827 405.121C455.903 405.588 465.958 415.626 461.897 440.612C456.221 475.742 494.402 486.736 508.432 456.603C509.049 455.264 509.602 453.86 510.133 452.393C503.075 457.688 485.431 466.789 475.652 455.923C461.897 440.612 480.648 415.073 462.578 396.253C456.838 390.278 445.826 388.768 435.154 391.511C435.027 392.064 435.048 392.489 435.282 392.723Z" fill="#E8E8E8"/>
<path d="M387.557 588.447C373.25 588.447 358.177 584.385 343.828 576.156C342.17 575.199 341.596 573.093 342.552 571.456C343.509 569.797 345.614 569.244 347.251 570.18C376.247 586.809 408.284 585.066 428.862 565.736C447.123 548.596 451.141 523.078 439.364 499.112C438.556 497.454 437.727 495.795 436.898 494.136C424.058 468.15 410.75 441.293 419.827 418.092C424.398 406.397 438.088 399.209 449.738 402.399C454.649 403.738 470.274 410.501 465.299 441.165C462.514 458.368 470.933 467.364 478.99 469.852C487.472 472.467 498.888 468.916 505.308 455.157C511.813 441.186 512.536 416.221 501.332 395.594C495.082 384.068 482.625 369.651 458.815 366.291C437.557 363.292 417.956 369.863 405.053 384.281C390.979 400.017 386.473 423.068 392.723 447.523C394.381 454.009 397.57 462.366 400.95 471.234C410.027 494.987 420.295 521.93 412.365 538.431C409.325 544.747 401.8 549.659 392.701 551.254C379.436 553.593 365.597 548.873 354.755 538.304C353.394 536.964 353.373 534.795 354.691 533.434C356.009 532.073 358.199 532.052 359.559 533.37C368.807 542.387 380.435 546.427 391.49 544.471C398.335 543.259 404.096 539.707 406.137 535.433C412.791 521.611 402.65 495.029 394.487 473.679C391.043 464.642 387.769 456.093 386.026 449.224C379.202 422.494 384.262 397.146 399.887 379.666C414.364 363.505 436.175 356.126 459.751 359.443C486.409 363.186 500.355 379.369 507.37 392.277C518.403 412.585 520.104 439.613 511.537 458.049C503.373 475.572 488.28 479.91 476.949 476.422C465.406 472.871 455.223 460.24 458.497 440.059C461.218 423.196 457.285 411.607 447.931 409.033C439.683 406.779 429.542 412.181 426.269 420.602C418.297 440.974 430.903 466.449 443.084 491.074C443.913 492.733 444.742 494.413 445.55 496.071C458.518 522.44 453.82 551.765 433.582 570.754C421.081 582.514 404.861 588.447 387.557 588.447Z" fill="#000072"/>
<path d="M360.941 406.694C360.941 406.694 403.437 453.882 404.925 486.077C407.072 532.562 365.065 519.846 365.065 519.846L321.188 456.242L360.941 406.694Z" fill="white"/>
<path d="M377.012 524.886C369.997 524.886 364.491 523.269 364.066 523.142L362.918 522.802L316.893 456.093L360.771 401.399L363.492 404.419C365.256 406.375 406.838 452.903 408.369 485.949C409.07 501.303 405.244 512.36 396.974 518.804C390.788 523.588 383.284 524.886 377.012 524.886ZM367.17 516.826C371.017 517.74 384.049 520.122 392.765 513.317C399.164 508.32 402.097 499.219 401.481 486.247C400.269 460.24 370.252 422.962 361.026 412.096L325.482 456.37L367.17 516.826Z" fill="#000072"/>
<path d="M291.255 545.279C281.37 568.202 284.176 602.439 280.094 627.681C277.012 646.777 269.975 660.705 250.566 660.705C241.404 660.705 207.582 662.747 201.055 652.263C196.74 645.352 196.697 634.294 213.003 628.85C211.068 616.559 209.984 604.055 209.431 591.998C207.964 559.569 210.451 530.372 211.408 516.932L291.255 545.279Z" fill="#8C8CAA"/>
<path d="M291.255 545.279C281.37 568.202 284.176 602.439 280.095 627.681L266.723 620.153C266.723 620.153 265.511 604.587 253.5 599.717C243.445 595.656 222.335 593.189 209.41 591.998C207.943 559.569 210.43 530.372 211.387 516.932L291.255 545.279Z" fill="#7A7A7A"/>
<path d="M200.8 443.568L204.117 419.496C204.117 419.496 204.818 431.511 200.8 443.568Z" fill="#7A7A7A"/>
<path d="M243.402 371.543L227.203 476.274C214.172 493.626 194.571 497.773 177.947 491.159C165.022 486.034 153.904 474.424 149.036 457.433C147.611 452.499 146.995 445.971 147.654 438.805C148.95 424.536 155.286 407.694 170.485 395.466C195.698 415.307 204.393 406.971 204.393 406.971C226.906 431.681 228.372 384.855 243.402 371.543Z" fill="#8C8CAA"/>
<path d="M220.55 449.628L177.926 491.159C165.001 486.034 153.883 474.424 149.015 457.433C147.59 452.499 146.974 445.971 147.633 438.805C149.886 446.97 156.094 459.091 173.015 459.687C190.979 460.325 192.616 453.244 192.616 453.244L220.55 449.628Z" fill="#7C7C7C"/>
<path d="M193.254 497.581C190.596 497.581 187.918 497.347 185.239 496.837C166.659 493.413 151.523 478.677 145.698 458.368C141.425 443.462 143.785 412.457 168.317 392.787L170.443 391.064L172.59 392.766C193.339 409.076 201.226 404.929 202.033 404.419L204.521 401.527L206.923 404.653C210.813 408.927 214.087 410.969 216.383 410.543C220.656 409.778 224.504 400.4 227.884 392.106C231.498 383.281 235.218 374.137 241.107 368.928C242.531 367.673 244.699 367.801 245.975 369.225C247.229 370.65 247.102 372.819 245.677 374.095C241 378.242 237.578 386.62 234.261 394.722C229.818 405.61 225.609 415.902 217.573 417.327C213.237 418.092 208.687 416.093 203.713 411.245C199.036 412.989 188.789 413.563 170.571 399.889C150.588 417.518 148.674 443.696 152.331 456.476C157.412 474.232 170.507 487.098 186.493 490.053C201.013 492.733 214.831 486.949 224.419 474.19C225.567 472.659 227.714 472.361 229.244 473.509C230.775 474.657 231.073 476.805 229.925 478.336C220.635 490.713 207.327 497.581 193.254 497.581Z" fill="#000072"/>
<path d="M244.933 373.648L236.791 420.729L227.182 476.274C210.94 497.9 184.473 499.027 166.297 484.333C199.95 484.843 208.134 461.494 208.666 440.314C209.091 423.175 204.52 407.46 204.393 406.992C226.905 431.66 229.903 386.96 244.933 373.648Z" fill="white"/>
<path d="M236.791 420.729L227.182 476.274C210.94 497.9 184.473 499.027 166.297 484.333C199.95 484.843 208.134 461.494 208.666 440.314C218.36 439.357 229.945 435.275 235.877 422.43C236.195 421.729 236.493 421.176 236.791 420.729Z" fill="#E8E8E8"/>
<path d="M193.211 497.581C182.858 497.581 172.696 493.924 164.129 487.013L156.349 480.739L166.34 480.888C180.286 481.101 190.639 476.933 197.037 468.512C212.641 447.949 201.183 408.353 201.077 407.97L196.825 393.595L206.923 404.653C209.729 407.736 213.747 411.288 216.893 410.777C221.485 410.054 225.503 401.229 229.393 392.702C233.135 384.515 236.982 376.073 242.637 371.054C244.061 369.799 246.23 369.927 247.505 371.352C248.76 372.777 248.632 374.946 247.208 376.222C242.637 380.262 239.108 388.045 235.664 395.573C230.796 406.248 226.204 416.306 217.956 417.603C215.384 418.007 212.748 417.497 210.005 416.051C212.663 430.192 215.129 456.051 202.522 472.659C196.57 480.505 188.045 485.333 177.076 487.055C183.602 490.096 190.702 491.287 197.76 490.394C208.198 489.097 217.403 483.483 224.397 474.19C225.545 472.659 227.692 472.361 229.223 473.509C230.754 474.658 231.051 476.805 229.903 478.336C221.867 489.011 210.749 495.731 198.589 497.241C196.825 497.475 195.018 497.581 193.211 497.581Z" fill="#000072"/>
<path d="M212.833 464.089C208.305 479.378 198.823 491.797 180.583 490.946C151.651 489.586 152.012 465.599 152.012 465.599C152.012 465.599 163.853 480.697 185.154 471.298C191.447 468.512 195.762 463.025 198.568 456.242C206.306 437.614 202.714 409.31 197.675 400.974C190.788 389.618 209.686 400.187 213.981 413.116C216.362 420.368 218.636 444.567 212.833 464.089Z" fill="white"/>
<path d="M212.833 464.089C208.305 479.378 198.823 491.797 180.583 490.946C151.651 489.585 152.012 465.598 152.012 465.598C152.012 465.598 163.853 480.697 185.154 471.297C191.447 468.512 195.762 463.025 198.568 456.242C196.655 470.298 192.339 485.8 212.833 464.089Z" fill="#E8E8E8"/>
<path d="M182.348 494.434C181.71 494.434 181.072 494.413 180.413 494.391C148.504 492.903 148.568 465.811 148.568 465.535L148.717 455.795L154.712 463.451C155.179 464.046 165.32 476.274 183.751 468.129C189.639 465.535 193.976 459.857 196.697 451.287C202.416 433.106 198.61 409.204 194.72 402.76C193.253 400.357 191.786 397.253 193.466 394.701C193.934 393.999 195.294 392.404 198.122 392.766C203.372 393.446 214.023 402.356 217.233 412.053C220.443 421.729 223.781 461.069 208.113 481.739C201.714 490.16 193.041 494.434 182.348 494.434ZM157.475 474.19C160.154 480.038 166.34 486.842 180.732 487.502C190.043 487.927 197.207 484.673 202.607 477.55C215.872 460.048 213.81 423.621 210.685 414.201C209.155 409.565 205.477 405.397 202.288 402.718C206.476 413.52 208.772 435.913 203.266 453.371C199.95 463.919 194.316 471.021 186.536 474.445C173.717 480.101 163.832 477.635 157.475 474.19Z" fill="#000072"/>
<path d="M283.369 613.093C280.095 638.739 276.141 660.727 250.567 660.727C241.404 660.727 207.603 662.768 201.056 652.284C199.461 649.733 198.462 646.628 198.632 643.438C198.632 643.311 198.653 643.183 198.675 643.034C198.717 642.503 198.802 641.992 198.908 641.482C198.93 641.354 198.972 641.227 198.993 641.099C199.036 640.865 199.1 640.631 199.185 640.397C199.227 640.248 199.27 640.121 199.334 639.972C199.376 639.866 199.397 639.759 199.44 639.674C202.522 642.162 209.431 645.139 224.695 646.841C255.222 650.243 266.468 641.078 267.659 620.259C273.972 618.686 279.415 616.325 283.369 613.093Z" fill="#E8E8E8"/>
<path d="M281.753 613.093C278.479 638.739 276.141 660.727 250.567 660.727C241.404 660.727 207.603 662.768 201.056 652.284C196.761 645.373 196.698 634.316 213.003 628.872C212.408 625.172 211.961 621.493 211.642 617.856C236.068 625.193 267.659 624.619 281.753 613.093Z" fill="white"/>
<path d="M281.753 613.093C278.479 638.739 276.14 660.727 250.566 660.727C241.425 660.727 207.603 662.768 201.055 652.284C199.439 649.69 198.419 646.479 198.653 643.204C209.495 649.988 236.684 648.393 244.741 648.393C264.065 648.393 267.254 636.974 266.723 620.153C272.696 618.579 277.883 616.262 281.753 613.093Z" fill="#E8E8E8"/>
<path d="M239.087 643.077C239.044 643.183 238.896 643.396 238.789 643.566C238.683 643.757 238.577 643.927 238.47 644.119C238.279 644.502 238.066 644.863 237.918 645.267C237.599 646.033 237.344 646.819 237.195 647.628C237.046 648.436 236.918 649.265 236.918 650.094C236.897 650.924 237.025 651.753 237.195 652.561C237.556 654.177 238.258 655.687 239.214 656.793C240.171 657.899 241.234 658.473 242.531 658.579L242.701 658.6C244.083 658.707 245.103 659.919 244.975 661.301C244.869 662.534 243.891 663.47 242.722 663.576C241.319 663.704 239.81 663.491 238.47 662.896C237.131 662.322 236.004 661.429 235.111 660.429C233.305 658.409 232.348 655.985 231.944 653.539C231.561 651.094 231.753 648.499 232.667 646.203C233.134 645.033 233.815 643.949 234.665 643.013C235.09 642.545 235.579 642.12 236.111 641.78C236.366 641.588 236.642 641.439 236.94 641.291C237.237 641.142 237.492 641.035 237.896 640.886C238.47 640.674 239.108 640.972 239.321 641.546C239.406 641.78 239.406 642.035 239.342 642.247L239.087 643.077Z" fill="#000072"/>
<path d="M216.85 639.844C216.638 640.121 216.276 640.546 216.021 640.886C215.745 641.248 215.511 641.631 215.298 642.013C214.873 642.779 214.554 643.545 214.363 644.331C213.98 645.841 213.874 647.819 214.172 649.605C214.427 651.413 215.022 653.178 215.872 654.602C216.744 656.048 217.849 657.048 219.082 657.473L219.252 657.537C220.549 657.984 221.251 659.408 220.783 660.727C220.379 661.896 219.189 662.577 217.998 662.364C216.51 662.109 215.086 661.471 213.959 660.557C212.811 659.685 211.918 658.6 211.195 657.473C209.771 655.198 209.07 652.71 208.836 650.2C208.708 648.946 208.751 647.691 208.9 646.437C209.048 645.203 209.325 643.863 209.899 642.63C210.473 641.397 211.302 640.27 212.301 639.398C212.811 638.973 213.343 638.568 213.917 638.271C214.193 638.122 214.491 637.973 214.809 637.867C215.128 637.739 215.405 637.675 215.809 637.548C216.468 637.378 217.127 637.76 217.318 638.42C217.424 638.802 217.318 639.185 217.105 639.483L216.85 639.844Z" fill="#000072"/>
<path d="M238.896 664.299C220.188 664.299 203.415 662.577 198.143 654.092C195.103 649.201 194.359 643.587 196.123 638.675C197.441 634.996 200.8 630.062 209.176 626.596C202.969 584.236 206.285 539.452 207.731 520.08L207.986 516.656C208.113 514.763 209.771 513.317 211.663 513.466C213.555 513.594 214.98 515.252 214.852 517.145L214.597 520.59C213.151 540.132 209.75 585.916 216.404 628.319L216.85 631.211L214.087 632.125C207.922 634.188 203.947 637.25 202.607 641.014C201.119 645.139 203.075 648.988 203.989 650.434C208.73 658.047 237.11 657.494 246.442 657.303C248.101 657.26 249.504 657.239 250.588 657.239C274.206 657.239 277.182 634.847 279.308 597.952C280.392 578.899 281.519 559.207 288.13 543.896C288.874 542.153 290.915 541.345 292.658 542.089C294.402 542.833 295.209 544.875 294.465 546.618C288.343 560.802 287.259 579.877 286.196 598.335C284.346 630.679 282.433 664.129 250.609 664.129C249.567 664.129 248.207 664.15 246.591 664.193C243.976 664.278 241.425 664.299 238.896 664.299Z" fill="#000072"/>
<path d="M239.087 643.077C239.044 643.183 238.896 643.396 238.789 643.566C238.683 643.757 238.577 643.927 238.47 644.119C238.279 644.502 238.066 644.863 237.918 645.267C237.599 646.033 237.344 646.819 237.195 647.628C237.046 648.436 236.918 649.265 236.918 650.094C236.897 650.924 237.025 651.753 237.195 652.561C237.556 654.177 238.258 655.687 239.214 656.793C240.171 657.899 241.234 658.473 242.531 658.579L242.701 658.6C244.083 658.707 245.103 659.919 244.975 661.301C244.869 662.534 243.891 663.47 242.722 663.576C241.319 663.704 239.81 663.491 238.47 662.896C237.131 662.322 236.004 661.429 235.111 660.429C233.305 658.409 232.348 655.985 231.944 653.539C231.561 651.094 231.753 648.499 232.667 646.203C233.134 645.033 233.815 643.949 234.665 643.013C235.09 642.545 235.579 642.12 236.111 641.78C236.366 641.588 236.642 641.439 236.94 641.291C237.237 641.142 237.492 641.035 237.896 640.886C238.47 640.674 239.108 640.972 239.321 641.546C239.406 641.78 239.406 642.035 239.342 642.247L239.087 643.077Z" fill="#000072"/>
<path d="M216.85 639.844C216.638 640.121 216.276 640.546 216.021 640.886C215.745 641.248 215.511 641.631 215.298 642.013C214.873 642.779 214.554 643.545 214.363 644.331C213.98 645.841 213.874 647.819 214.172 649.605C214.427 651.413 215.022 653.178 215.872 654.602C216.744 656.048 217.849 657.048 219.082 657.473L219.252 657.537C220.549 657.984 221.251 659.408 220.783 660.727C220.379 661.896 219.189 662.577 217.998 662.364C216.51 662.109 215.086 661.471 213.959 660.557C212.811 659.685 211.918 658.6 211.195 657.473C209.771 655.198 209.07 652.71 208.836 650.2C208.708 648.946 208.751 647.691 208.9 646.437C209.048 645.203 209.325 643.863 209.899 642.63C210.473 641.397 211.302 640.27 212.301 639.398C212.811 638.973 213.343 638.568 213.917 638.271C214.193 638.122 214.491 637.973 214.809 637.867C215.128 637.739 215.405 637.675 215.809 637.548C216.468 637.378 217.127 637.76 217.318 638.42C217.424 638.802 217.318 639.185 217.105 639.483L216.85 639.844Z" fill="#000072"/>
<path d="M339.618 364.1C339.618 364.1 353.011 413.839 358.496 444.695C363.13 470.723 379.244 525.779 348.271 561.419C315.703 598.888 230.541 593.338 211.302 543.046C191.404 491.053 245.103 414.158 234.601 369.799" fill="#8C8CAA"/>
<path d="M286.175 589.191C279.903 589.191 273.526 588.659 267.212 587.532C238.194 582.386 216.659 566.629 208.092 544.258C198.823 520.037 205.052 490.713 212.365 465.216C212.896 463.387 214.788 462.324 216.617 462.855C218.445 463.387 219.508 465.28 218.976 467.108C211.982 491.521 205.987 519.463 214.512 541.791C222.186 561.844 241.808 576.028 268.381 580.728C298.696 586.086 329.755 577.41 345.656 559.143C371.953 528.905 362.642 482.93 357.072 455.455C356.328 451.797 355.626 448.331 355.095 445.29C349.695 414.945 336.408 365.483 336.281 364.993C335.792 363.165 336.876 361.272 338.704 360.762C340.533 360.273 342.425 361.357 342.935 363.186C343.062 363.675 356.434 413.435 361.876 444.078C362.408 447.034 363.088 450.458 363.832 454.073C369.636 482.781 379.372 530.84 350.864 563.652C336.834 579.834 312.259 589.191 286.175 589.191Z" fill="#000072"/>
<path d="M388.938 654.645C382.497 665.192 346.166 663.683 337.025 663.066C322.718 662.109 313.301 648.35 307.093 632.104C305.137 626.958 303.5 621.578 302.119 616.283C297.187 597.165 295.784 579.09 295.401 577.41L371.974 567.331C371.57 569.84 371.549 573.859 371.804 578.835C372.017 583.364 372.484 588.659 373.058 594.337C373.93 602.886 375.057 612.242 376.141 620.982C376.545 624.215 376.927 627.362 377.31 630.36C385.962 633.146 390.15 638.101 391.171 643.374C391.957 647.223 391.043 651.2 388.938 654.645Z" fill="#8C8CAA"/>
<path d="M373.079 594.358C361.451 598.611 344.061 599.781 334.134 604.438C321.676 610.265 324.929 622.62 324.929 622.62C324.929 622.62 315.086 627.957 307.114 632.125C305.158 626.979 303.521 621.599 302.14 616.304C297.208 597.187 295.805 579.111 295.422 577.431L371.995 567.352C371.591 569.861 371.57 573.88 371.825 578.856C372.059 583.364 372.505 588.681 373.079 594.358Z" fill="#7A7A7A"/>
<path d="M391.468 646.075C391.468 646.5 391.447 646.926 391.405 647.351C391.383 647.606 391.362 647.84 391.32 648.095C391.298 648.244 391.277 648.393 391.256 648.542C391.234 648.648 391.213 648.755 391.192 648.861C391.107 649.307 391.001 649.754 390.894 650.179C390.831 650.413 390.767 650.626 390.682 650.839C390.66 650.902 390.639 650.945 390.639 651.009C390.448 651.54 390.257 652.072 390.023 652.582C390.001 652.646 389.98 652.689 389.938 652.752C389.789 653.05 389.661 653.327 389.513 653.603C389.321 653.943 389.151 654.283 388.939 654.602C382.497 665.15 346.166 663.64 337.025 663.023C318.19 661.769 307.816 638.313 302.119 616.24C306.328 618.367 313.598 621.067 324.908 622.556C328.097 637.42 336.005 649.775 350.907 652.157C368.722 654.985 384.347 650.69 391.192 643.332C391.234 643.545 391.277 643.779 391.298 644.012C391.341 644.225 391.362 644.459 391.383 644.693C391.405 644.906 391.426 645.139 391.426 645.373C391.447 645.629 391.468 645.841 391.468 646.075Z" fill="#686868"/>
<path d="M388.939 654.645C382.497 665.192 346.166 663.683 337.025 663.066C318.19 661.811 307.816 638.356 302.119 616.283C310.835 620.663 332.476 627.532 376.162 620.982C376.566 624.215 376.949 627.362 377.31 630.339C392.255 635.187 393.913 646.458 388.939 654.645Z" fill="white"/>
<path d="M391.468 646.075C391.468 646.5 391.447 646.926 391.405 647.351C391.383 647.606 391.362 647.84 391.32 648.095C391.298 648.244 391.277 648.393 391.256 648.542C391.234 648.648 391.213 648.755 391.192 648.861C391.107 649.307 391.001 649.754 390.894 650.179C390.831 650.392 390.767 650.626 390.682 650.839C390.66 650.902 390.639 650.945 390.639 651.009C390.448 651.54 390.257 652.072 390.023 652.582C390.001 652.646 389.98 652.689 389.938 652.752C389.789 653.05 389.661 653.327 389.513 653.603C389.321 653.943 389.151 654.283 388.939 654.602C382.497 665.15 346.166 663.64 337.025 663.023C318.19 661.769 307.816 638.313 302.119 616.24C306.328 618.367 313.598 621.067 324.908 622.556C328.097 637.42 336.005 649.775 350.907 652.157C368.722 654.985 384.347 650.69 391.192 643.332C391.234 643.545 391.277 643.779 391.298 644.012C391.341 644.225 391.362 644.459 391.383 644.693C391.405 644.906 391.426 645.139 391.426 645.373C391.447 645.629 391.468 645.841 391.468 646.075Z" fill="#E8E8E8"/>
<path d="M375.397 567.905C375.226 568.926 375.141 570.159 375.12 571.392C375.078 572.626 375.078 573.902 375.12 575.177C375.184 577.729 375.311 580.324 375.503 582.918C375.864 588.107 376.353 593.338 376.906 598.569C377.48 603.8 378.16 609.01 378.819 614.241C379.436 619.473 380.095 624.704 380.647 629.956L378.373 627.192C380.392 627.851 382.412 628.68 384.346 629.765C386.281 630.849 388.152 632.168 389.789 633.869C391.425 635.528 392.807 637.59 393.679 639.844C394.572 642.12 394.954 644.587 394.827 646.968C394.721 649.371 394.125 651.689 393.19 653.816C392.956 654.347 392.701 654.879 392.425 655.389C392.127 655.9 391.914 656.346 391.468 656.984C390.66 658.154 389.703 659.047 388.704 659.812C386.727 661.322 384.665 662.258 382.646 663.023C380.605 663.768 378.585 664.321 376.566 664.767C372.527 665.639 368.53 666.149 364.533 666.468C360.537 666.809 356.561 666.957 352.586 667C348.611 667.043 344.657 666.979 340.703 666.809C338.704 666.702 336.833 666.681 334.495 666.341C332.263 666.001 330.073 665.384 328.011 664.491C323.866 662.704 320.337 659.961 317.382 656.899C314.427 653.816 312.025 650.349 309.963 646.798C305.839 639.653 302.947 632.104 300.673 624.449C299.525 620.621 298.547 616.751 297.697 612.88C296.825 609.01 296.081 605.119 295.486 601.206C294.89 597.293 294.444 593.359 294.146 589.425C294.019 587.447 293.891 585.491 293.827 583.513C293.785 582.535 293.764 581.536 293.764 580.558V579.09V577.772V577.474C293.764 576.538 294.529 575.773 295.486 575.773C296.272 575.773 296.931 576.326 297.123 577.049L297.356 577.899L297.548 578.644C297.675 579.133 297.76 579.601 297.888 580.09C298.1 581.047 298.313 582.004 298.504 582.96L299.695 588.659L302.033 600.015C302.416 601.908 302.82 603.779 303.266 605.65C303.67 607.522 304.117 609.393 304.563 611.264C305.477 614.986 306.519 618.686 307.624 622.322C309.92 629.573 312.62 636.719 316.319 643.119C318.168 646.309 320.273 649.307 322.675 651.881C325.099 654.454 327.841 656.58 330.881 657.92C332.39 658.6 333.985 659.047 335.6 659.323C337.131 659.578 339.151 659.642 341.043 659.749C344.869 659.94 348.717 660.025 352.565 660.004C360.218 659.94 367.935 659.557 375.141 658.026C376.927 657.643 378.692 657.176 380.328 656.58C381.944 655.985 383.475 655.262 384.601 654.39C385.154 653.965 385.622 653.497 385.941 653.071C386.068 652.901 386.302 652.476 386.493 652.157C386.685 651.817 386.855 651.455 387.025 651.094C387.663 649.648 388.045 648.138 388.13 646.628C388.322 643.608 387.174 640.759 385.005 638.526C382.837 636.272 379.733 634.635 376.374 633.55L374.376 632.891L374.078 630.786C373.334 625.576 372.697 620.323 372.038 615.092L370.294 599.313C369.699 594.04 369.168 588.766 368.764 583.428C368.572 580.77 368.402 578.091 368.317 575.369C368.275 574.008 368.254 572.647 368.296 571.243C368.339 569.84 368.402 568.415 368.636 566.842C368.934 564.97 370.698 563.673 372.569 563.971C374.44 564.268 375.737 566.033 375.439 567.905H375.397Z" fill="#000072"/>
<path d="M380.414 579.664C380.414 579.664 350.567 590.977 286.685 588.574C223.441 586.193 199.418 574.391 199.418 574.391C199.291 571.116 199.333 567.437 199.546 563.375C201.14 532.265 212.344 479.591 225.822 429.512L231.944 401.399C231.944 401.399 322.399 346.238 345.039 380.177C353.713 393.191 360.282 413.244 365.235 435.679C379.053 498.283 380.414 579.664 380.414 579.664Z" fill="white"/>
<path d="M380.414 579.664C380.414 579.664 350.567 590.977 286.685 588.574C223.441 586.193 199.418 574.391 199.418 574.391C199.291 571.116 199.333 567.437 199.546 563.375C236.6 574.795 314.789 590.807 355.541 542.663C374.483 520.271 367.977 472.106 365.235 435.679C379.053 498.283 380.414 579.664 380.414 579.664Z" fill="#E8E8E8"/>
<path d="M231.923 404.823C230.754 404.823 229.627 404.228 228.968 403.164C227.969 401.548 228.5 399.422 230.116 398.422C233.921 396.104 323.675 341.942 347.867 378.22C348.93 379.794 348.505 381.942 346.91 383.005C345.316 384.068 343.19 383.643 342.127 382.048C325.078 356.466 258.071 389.448 233.687 404.313C233.156 404.653 232.539 404.823 231.923 404.823Z" fill="#000072"/>
<path d="M227.48 429.937C225.226 442.058 222.569 454.052 219.954 466.045L216.021 484.014L214.129 493.009L212.322 502.026C209.963 514.04 207.773 526.098 205.987 538.176C205.498 541.196 205.158 544.215 204.754 547.235C204.393 550.255 204.031 553.274 203.713 556.294C203.16 562.312 202.798 568.351 202.862 574.263L200.949 571.307C201.587 571.605 202.501 571.966 203.309 572.285C204.18 572.604 205.009 572.923 205.881 573.221C207.624 573.838 209.41 574.369 211.174 574.901C214.767 575.922 218.381 576.857 222.059 577.665C229.393 579.282 236.833 580.6 244.338 581.599C246.208 581.876 248.079 582.11 249.971 582.322L255.605 582.982C259.389 583.322 263.151 583.726 266.935 584.002C274.503 584.577 282.072 584.981 289.661 585.236C304.818 585.725 319.997 585.47 335.09 584.258C342.616 583.62 350.141 582.769 357.561 581.536C361.26 580.898 364.959 580.217 368.615 579.367C370.443 578.963 372.25 578.495 374.036 578.027C374.929 577.772 375.822 577.538 376.693 577.261C377.544 577.006 378.479 576.708 379.202 576.453L376.97 579.728C376.715 568.011 376.141 556.188 375.439 544.428C374.716 532.669 373.781 520.909 372.569 509.192C371.379 497.475 369.912 485.779 368.53 474.105C367.084 462.43 365.469 450.798 364.193 439.017V438.975C364.087 438.018 364.767 437.167 365.724 437.061C366.574 436.976 367.34 437.507 367.573 438.273C369.274 443.972 370.89 449.735 372.101 455.561C372.442 457.007 372.718 458.475 373.037 459.921C373.356 461.367 373.653 462.834 373.887 464.301C374.397 467.236 374.929 470.149 375.418 473.084C377.267 484.822 378.649 496.646 379.691 508.469C380.732 520.292 381.625 532.137 382.348 543.982C383.071 555.826 383.624 567.65 383.9 579.579L383.964 582.025L381.689 582.854C380.605 583.237 379.712 583.513 378.755 583.811C377.799 584.109 376.863 584.364 375.907 584.619C374.015 585.108 372.101 585.597 370.209 586.023C366.404 586.894 362.578 587.596 358.772 588.255C351.119 589.531 343.424 590.403 335.749 591.062C320.358 592.296 304.924 592.551 289.555 592.041C281.859 591.807 274.185 591.381 266.51 590.807C262.662 590.531 258.836 590.105 255.009 589.765L249.27 589.106C247.356 588.893 245.443 588.659 243.53 588.383C235.877 587.384 228.266 586.023 220.677 584.343C216.893 583.513 213.109 582.535 209.346 581.472C207.475 580.898 205.605 580.345 203.734 579.686C202.798 579.388 201.863 579.005 200.928 578.665C199.971 578.282 199.099 577.942 198.015 577.431L196.145 576.56L196.081 574.476C195.762 568.096 196.081 561.823 196.527 555.571C196.804 552.466 197.08 549.362 197.42 546.257C197.824 543.173 198.143 540.09 198.61 537.028C200.354 524.737 202.628 512.573 205.158 500.494L207.114 491.436L209.176 482.398C210.6 476.401 212.003 470.383 213.577 464.408C216.702 452.478 220.145 440.612 224.248 428.959C224.567 428.066 225.545 427.577 226.459 427.896C227.161 428.278 227.628 429.108 227.48 429.937Z" fill="#000072"/>
<path d="M277.926 472.701C277.777 475.253 275.588 477.209 273.015 477.06C270.464 476.912 268.509 474.721 268.657 472.148C268.806 469.596 270.996 467.64 273.568 467.789C276.119 467.959 278.075 470.149 277.926 472.701Z" fill="#000072"/>
<path d="M311.111 474.679C310.962 477.231 308.772 479.187 306.2 479.038C303.649 478.889 301.693 476.699 301.842 474.126C301.991 471.574 304.18 469.618 306.753 469.767C309.304 469.915 311.259 472.127 311.111 474.679Z" fill="#000072"/>
<path d="M274.716 500.239C274.567 502.791 272.378 504.747 269.805 504.599C267.254 504.45 265.299 502.259 265.447 499.686C265.596 497.135 267.786 495.178 270.358 495.327C272.909 495.476 274.865 497.687 274.716 500.239Z" fill="#000072"/>
<path d="M307.901 502.217C307.752 504.769 305.562 506.725 302.99 506.576C300.439 506.427 298.483 504.237 298.632 501.664C298.781 499.112 300.97 497.156 303.543 497.305C306.094 497.454 308.05 499.644 307.901 502.217Z" fill="#000072"/>
<path d="M273.632 528.16C273.568 530.712 271.442 532.732 268.87 532.669C266.319 532.605 264.3 530.478 264.363 527.905C264.427 525.353 266.553 523.333 269.125 523.397C271.676 523.461 273.717 525.587 273.632 528.16Z" fill="#000072"/>
<path d="M306.881 529.032C306.817 531.584 304.691 533.604 302.119 533.54C299.568 533.477 297.548 531.35 297.612 528.777C297.676 526.225 299.801 524.184 302.374 524.269C304.925 524.354 306.944 526.48 306.881 529.032Z" fill="#000072"/>
<path d="M273.696 556.039C273.717 558.591 271.634 560.696 269.083 560.696C266.532 560.717 264.427 558.633 264.427 556.081C264.406 553.529 266.489 551.424 269.04 551.424C271.591 551.403 273.674 553.466 273.696 556.039Z" fill="#000072"/>
<path d="M306.944 555.869C306.965 558.421 304.882 560.526 302.331 560.526C299.78 560.547 297.675 558.463 297.675 555.911C297.654 553.359 299.738 551.254 302.289 551.254C304.84 551.233 306.923 553.317 306.944 555.869Z" fill="#000072"/>
<path d="M350.46 642.375C350.864 642.524 351.119 642.609 351.417 642.779C351.714 642.928 351.97 643.077 352.246 643.268C352.777 643.63 353.245 644.055 353.691 644.502C354.563 645.437 355.222 646.522 355.69 647.691C356.604 650.009 356.795 652.604 356.413 655.028C356.009 657.473 355.031 659.897 353.245 661.918C352.352 662.917 351.204 663.81 349.886 664.384C348.568 664.98 347.059 665.214 345.635 665.065C344.253 664.937 343.254 663.704 343.381 662.343C343.509 661.11 344.487 660.195 345.656 660.089L345.826 660.068C347.123 659.961 348.186 659.366 349.142 658.281C350.078 657.197 350.8 655.666 351.162 654.05C351.332 653.241 351.438 652.412 351.438 651.583C351.438 650.775 351.311 649.945 351.162 649.116C351.013 648.308 350.779 647.521 350.439 646.756C350.29 646.352 350.099 645.99 349.886 645.607C349.78 645.416 349.674 645.246 349.567 645.054C349.461 644.884 349.312 644.672 349.27 644.565L349.015 643.736C348.845 643.141 349.163 642.524 349.759 642.333C349.992 642.269 350.226 642.29 350.46 642.375Z" fill="#000072"/>
<path d="M372.506 639.908C372.909 640.015 373.186 640.1 373.505 640.227C373.824 640.355 374.1 640.482 374.398 640.631C374.993 640.929 375.503 641.333 376.013 641.758C377.012 642.63 377.841 643.757 378.415 644.991C378.989 646.245 379.287 647.585 379.415 648.797C379.563 650.052 379.585 651.306 379.478 652.561C379.244 655.07 378.543 657.558 377.119 659.834C376.396 660.961 375.503 662.045 374.355 662.917C373.228 663.81 371.804 664.469 370.316 664.703C368.955 664.937 367.659 664.023 367.425 662.641C367.212 661.429 367.935 660.259 369.062 659.855L369.232 659.791C370.465 659.366 371.57 658.366 372.442 656.92C373.313 655.496 373.887 653.731 374.142 651.923C374.44 650.137 374.334 648.159 373.951 646.649C373.76 645.841 373.441 645.076 373.016 644.331C372.803 643.949 372.548 643.566 372.293 643.204C372.038 642.864 371.676 642.439 371.464 642.162L371.188 641.822C370.762 641.291 370.869 640.504 371.4 640.1C371.761 639.887 372.165 639.823 372.506 639.908Z" fill="#000072"/>
<path d="M375.439 542.642L375.97 542.854C375.907 542.833 375.715 542.769 375.439 542.642Z" fill="white"/>
<path d="M348.526 422.452C313.194 437.656 237.046 425.705 228.521 410.48C220.422 395.998 233.071 377.221 233.071 377.221C233.071 377.221 249.61 375.541 270.975 374.371C291.085 373.266 315.469 372.606 334.368 374.18C349.631 375.456 361.302 378.178 364.278 383.303C374.865 401.569 368.339 413.924 348.526 422.452Z" fill="#F94646"/>
<path d="M348.526 422.452C313.194 437.656 237.046 425.705 228.521 410.479C220.422 395.998 233.071 377.221 233.071 377.221C233.071 377.221 249.61 375.541 270.975 374.371L270.103 381.984C270.103 381.984 232.964 404.483 255.286 410.075C277.225 415.54 284.495 389.725 295.805 390.299C331.944 392.128 326.948 424.387 345.018 413.818C352.948 409.182 330.307 405.567 343.232 393.978C350.673 387.3 310.983 382.069 334.368 374.18C349.631 375.456 361.302 378.178 364.278 383.303C374.865 401.569 368.339 413.924 348.526 422.452Z" fill="#DB2A2A"/>
<path d="M227.054 401.378C227.054 401.378 235.324 412.436 259.665 412.011C259.665 412.011 235.111 408.97 227.883 394.722C226.119 391.235 227.054 401.378 227.054 401.378Z" fill="#000072"/>
<path d="M367.616 403.568C367.616 403.568 359.878 413.01 334.027 413.818C334.027 413.818 359.049 412.011 366.787 396.912C368.573 393.446 367.616 403.568 367.616 403.568Z" fill="#000072"/>
<path d="M304.202 432.935C269.444 432.935 232.114 423.983 225.503 412.181C216.468 396.019 229.627 376.158 230.201 375.307L231.115 373.967L232.731 373.797C233.028 373.776 263.385 370.735 294.635 369.97C352.884 368.566 364.002 375.924 367.276 381.58C372.548 390.682 374.036 398.933 371.676 406.078C369.04 414.052 361.919 420.432 349.908 425.62C337.96 430.745 321.4 432.935 304.202 432.935ZM235.09 380.496C232.603 384.77 225.694 398.401 231.519 408.8C234.474 414.073 251.672 421.133 278.883 424.451C306.328 427.789 331.859 425.875 347.165 419.283C357.114 414.988 363.173 409.82 365.129 403.909C366.872 398.635 365.618 392.468 361.324 385.047C360.005 382.792 351.332 375.52 294.848 376.881C268.02 377.519 241.893 379.858 235.09 380.496Z" fill="#000072"/>
<path d="M355.031 159.126L249.397 163.805C249.397 163.805 198.823 149.345 186.621 115.448C184.006 108.175 183.156 100.01 184.941 90.9081C189.066 70.0046 202.947 62.5831 215.214 60.2652C225.205 58.3726 234.112 59.8399 235.792 60.1588C235.983 60.2014 236.068 60.2226 236.068 60.2226C236.068 60.2226 241.829 10.5262 296.081 4.21044C337.025 -0.552931 363.449 19.0322 371.06 47.6124C371.783 50.3131 372.314 53.0776 372.697 55.9271C372.697 55.9271 385.792 55.1828 398.845 61.6049C405.563 64.9222 412.302 70.1534 417.212 78.3405C418.318 80.1693 419.274 82.0406 420.082 83.9332C433.666 115.469 407.178 152.896 355.031 159.126Z" fill="white"/>
<path d="M355.031 159.126L249.397 163.805C249.397 163.805 198.823 149.344 186.621 115.448C199.95 118.616 215.66 118.361 225.694 105.007C233.368 94.7996 222.505 73.0667 215.213 60.2651C225.205 58.3725 234.112 59.8398 235.792 60.1588C235.685 72.0885 238.662 83.3803 248.632 88.2925C255.902 91.865 269.04 87.8459 284.091 88.2925C324.248 89.5046 369.487 83.0188 371.06 47.6124C371.783 50.3131 372.314 53.0775 372.697 55.9271C372.697 55.9271 376.948 55.6932 383.007 56.6713C390.936 76.4266 374.674 84.9539 374.674 84.9539C374.674 84.9539 405.222 95.6502 420.103 83.9544C433.666 115.469 407.178 152.896 355.031 159.126Z" fill="#E8E8E8"/>
<path d="M249.376 167.314C249.057 167.314 248.738 167.271 248.419 167.186C247.633 166.952 229.032 161.551 211.387 149.6C187.386 133.332 177.055 112.811 181.498 90.2489C183.879 78.1491 189.576 69.0476 198.462 63.1785C211.026 54.8638 226.374 55.4593 233.22 56.2673C234.261 51.4189 236.812 42.3175 242.765 32.7482C250.652 20.0317 266.255 4.14666 295.677 0.722985C317.765 -1.85009 337.11 2.3604 351.608 12.9079C364.321 22.1582 372.803 36.0868 375.694 52.4184C384.219 52.6735 407.518 55.3955 420.231 76.5542C428.819 90.8443 429.457 107.048 422.038 122.189C411.473 143.773 386.579 158.893 355.456 162.614C353.543 162.848 351.8 161.466 351.566 159.552C351.332 157.638 352.714 155.894 354.627 155.66C383.39 152.215 406.222 138.563 415.745 119.106C422.081 106.176 421.549 92.3329 414.236 80.1693C401.035 58.1812 373.186 59.4146 372.91 59.4358L369.678 59.6059L369.253 56.3949C364.725 22.2007 336.175 3.08341 296.528 7.69793C245.571 13.6096 239.597 60.1588 239.555 60.6267L239.108 64.4544L235.345 63.6676C235.154 63.625 216.149 59.8186 202.267 69.0476C195.039 73.8535 190.362 81.4452 188.364 91.6099C178.947 139.371 249.631 160.232 250.354 160.445C252.225 160.977 253.288 162.912 252.756 164.783C252.31 166.314 250.907 167.314 249.376 167.314Z" fill="#000072"/>
<path d="M377.586 121.466C381.498 125.889 367.573 171.205 367.573 171.205H244.316C244.316 171.205 231.986 127.016 234.984 120.573C237.981 114.151 255.116 98.6912 305.945 98.6912C353.862 98.6912 372.909 116.171 377.586 121.466Z" fill="#E8E8E8"/>
<path d="M243.296 119.021C246.315 115.193 256.838 114.959 259.134 121.955C261.408 128.951 257.199 135.522 248.951 132.928C239.767 130.057 240.979 121.955 243.296 119.021Z" fill="white"/>
<path d="M269.061 113.002C273.951 111.408 284.219 114.47 286.493 121.466C288.768 128.462 284.495 131.652 276.289 128.93C268.083 126.229 264.427 114.512 269.061 113.002Z" fill="white"/>
<path d="M370.167 174.714H241.659L240.936 172.141C237.131 158.467 228.606 125.953 231.795 119.084C232.943 116.639 244.72 95.1611 305.945 95.1611C355.18 95.1611 375.227 113.492 380.201 119.127C382.051 121.232 383.369 125.251 377.437 148.834C374.461 160.658 370.954 172.098 370.932 172.226L370.167 174.714ZM246.995 167.696H364.98C370.592 149.004 375.694 127.718 374.695 123.507C369.806 118.127 351.417 102.2 305.945 102.2C248.1 102.2 238.258 121.87 238.151 122.061C236.876 125.719 241.638 148.069 246.995 167.696Z" fill="#000072"/>
<path d="M250.545 91.3122C247.186 90.5041 244.423 88.4839 242.212 86.2086C239.98 83.8907 238.236 81.2325 236.812 78.4255C234.027 72.7903 232.518 66.4958 232.56 60.0313C232.582 58.0961 234.155 56.5225 236.089 56.5438C238.024 56.5651 239.597 58.1387 239.576 60.0738C239.576 60.2014 239.576 60.3077 239.554 60.4353V60.4566C238.981 65.6878 239.661 71.2167 241.574 76.299C242.531 78.8296 243.806 81.2538 245.443 83.359C247.08 85.443 249.1 87.1655 251.417 87.9948L251.523 88.0374C252.416 88.3563 252.884 89.3345 252.565 90.2489C252.267 91.057 251.396 91.5248 250.545 91.3122Z" fill="#000072"/>
<path d="M359.091 86.7401C361.43 85.4217 363.3 83.3802 364.725 80.9985C366.149 78.6169 367.148 75.9375 367.871 73.1943C369.274 67.6441 369.614 61.7537 369.189 56.0334C369.04 54.0982 370.486 52.4183 372.42 52.2694C374.355 52.1206 376.034 53.5666 376.183 55.5017C376.183 55.6081 376.204 55.7357 376.183 55.842C376.119 59.053 375.822 62.264 375.269 65.4325C374.737 68.601 373.951 71.727 372.845 74.7679C371.74 77.8088 370.294 80.7859 368.296 83.444C366.319 86.1022 363.704 88.4839 360.558 89.8448C359.686 90.2276 358.666 89.8235 358.283 88.9517C357.922 88.1436 358.262 87.1867 359.006 86.7614L359.091 86.7401Z" fill="#000072"/>
<path d="M221.017 128.186C222.718 125.762 224.503 123.592 226.438 121.445C228.351 119.318 230.413 117.277 232.582 115.342C234.729 113.385 237.088 111.642 239.533 109.983C241.999 108.324 244.657 106.942 247.441 105.709C249.227 104.922 251.289 105.73 252.076 107.516C252.862 109.302 252.055 111.365 250.269 112.152C250.162 112.194 250.056 112.237 249.929 112.279L249.801 112.322C247.378 113.109 244.954 114.023 242.637 115.257C240.32 116.49 238.003 117.851 235.834 119.425C233.645 120.998 231.519 122.678 229.499 124.486C227.48 126.293 225.503 128.25 223.759 130.227L223.717 130.291C223.079 131.014 221.995 131.078 221.293 130.44C220.613 129.887 220.507 128.909 221.017 128.186Z" fill="#000072"/>
<path d="M388.173 131.886C386.472 130.227 384.58 128.568 382.688 127.037C380.775 125.485 378.819 124.018 376.8 122.614C374.78 121.211 372.739 119.892 370.635 118.68C368.551 117.426 366.383 116.341 364.236 115.278L364.172 115.235C362.429 114.385 361.706 112.279 362.578 110.536C363.428 108.792 365.532 108.069 367.276 108.941C367.403 109.005 367.531 109.068 367.637 109.153C369.827 110.578 371.995 112.024 374.057 113.619C376.141 115.171 378.118 116.83 380.052 118.531C381.987 120.233 383.836 122.019 385.622 123.869C387.408 125.719 389.108 127.59 390.766 129.653C391.362 130.397 391.234 131.482 390.49 132.077C389.81 132.63 388.811 132.566 388.194 131.971L388.173 131.886Z" fill="#000072"/>
<path d="M266.319 116.618C267.573 121.445 268.679 126.187 269.933 130.886C271.166 135.586 272.505 140.222 274.036 144.773C275.567 149.281 277.289 153.725 279.393 157.744C280.435 159.743 281.604 161.657 282.858 163.252C284.113 164.847 285.516 166.123 286.727 166.761C289.257 168.079 290.256 171.205 288.938 173.757C287.62 176.287 284.495 177.287 281.944 175.968C281.774 175.883 281.604 175.777 281.455 175.671L281.391 175.628C278.437 173.65 276.502 171.205 274.929 168.823C273.377 166.42 272.208 163.975 271.187 161.551C269.189 156.681 267.807 151.79 266.596 146.899C265.426 142.008 264.491 137.117 263.641 132.247C262.812 127.378 262.11 122.465 261.323 117.723V117.681C261.09 116.299 262.025 114.98 263.407 114.746C264.746 114.534 265.979 115.363 266.319 116.618Z" fill="#000072"/>
<path d="M359.495 124.252C359.219 128.76 358.688 133.247 357.901 137.691C357.114 142.136 356.094 146.559 354.755 150.961C353.394 155.341 351.757 159.701 349.44 163.954C348.271 166.08 346.953 168.164 345.316 170.142C343.7 172.119 341.766 174.033 339.385 175.628L339.3 175.692C336.919 177.287 333.709 176.628 332.114 174.246C330.52 171.864 331.179 168.653 333.56 167.058C333.73 166.952 333.9 166.846 334.049 166.761C336.813 165.336 339.512 162.529 341.723 159.254C343.977 155.958 345.847 152.215 347.484 148.345C349.121 144.454 350.482 140.413 351.651 136.266C352.799 132.141 353.756 127.931 354.436 123.699V123.678C354.648 122.295 355.966 121.338 357.348 121.572C358.666 121.806 359.58 122.976 359.495 124.252Z" fill="#000072"/>
<path d="M313.683 111.067C313.534 113.385 313.556 115.916 313.598 118.404C313.641 120.913 313.704 123.422 313.768 125.932L314.215 141.094C314.342 146.155 314.427 151.258 314.406 156.383C314.406 157.659 314.406 158.956 314.342 160.253C314.3 161.551 314.278 162.848 314.193 164.166L314.087 166.144C314.045 166.803 313.96 167.505 313.896 168.185C313.811 169.504 313.513 171.035 313.237 172.523C312.727 175.33 310.027 177.202 307.221 176.67C304.414 176.16 302.544 173.459 303.075 170.652C303.096 170.546 303.118 170.439 303.139 170.354L303.266 169.844C303.5 168.866 303.798 167.951 303.989 166.761C304.096 166.186 304.223 165.634 304.308 165.059L304.563 163.273C304.755 162.104 304.882 160.87 305.01 159.637C305.158 158.425 305.265 157.191 305.392 155.937C305.86 150.982 306.2 145.985 306.498 140.945L307.369 125.825C307.518 123.295 307.667 120.764 307.858 118.212C307.965 116.937 308.05 115.661 308.177 114.363C308.241 113.704 308.283 113.088 308.369 112.428L308.645 110.429C308.836 109.047 310.112 108.069 311.494 108.26C312.812 108.43 313.768 109.621 313.683 110.919V111.067Z" fill="#000072"/>
<path d="M450.928 323.846C443.212 379.433 388.109 394.02 346.443 400.825C329.372 403.632 312.046 404.632 294.763 403.972C277.459 403.313 260.239 400.974 243.403 396.891C220.443 391.298 193.466 382.963 173.568 366.886C166.659 361.315 160.622 354.808 155.881 347.152C152.501 341.708 149.801 335.669 147.93 328.992C146.676 324.462 145.783 319.635 145.337 314.468C145.167 312.511 145.061 310.512 145.018 308.45C144.89 302.432 145.316 295.988 146.4 289.12C147.335 283.166 152.692 262.857 159.708 243.017C162.089 236.255 164.661 229.556 167.318 223.496C159.942 183.751 158.22 133.991 172.208 117.404C181.306 106.623 204.351 118.659 238.768 150.514C264.597 140.286 299.461 140.966 304.797 141.179C310.133 141.37 344.955 143.348 369.933 155.511C406.668 126.378 430.563 116.107 438.811 127.569C451.502 145.177 445.996 194.66 435.622 233.724C444.232 258.307 450.865 292.671 451.502 300.731C452.14 309.13 451.928 316.807 450.928 323.846Z" fill="#8C8CAA"/>
<g opacity="0.5">
<path d="M445.763 173.969C445.911 158.212 443.807 144.943 438.428 137.457C430.18 126.017 406.285 136.266 369.551 165.4C344.572 153.236 309.772 151.258 304.414 151.067C299.079 150.854 264.214 150.174 238.385 160.402C203.947 128.547 180.902 116.511 171.825 127.293C165.872 134.353 162.769 147.409 161.727 163.145C162.003 143.071 165.043 125.889 172.208 117.383C181.306 106.602 204.35 118.638 238.768 150.493C264.597 140.264 299.461 140.945 304.797 141.157C310.133 141.349 344.954 143.326 369.933 155.49C406.668 126.357 430.563 116.086 438.811 127.548C445.295 136.564 447.017 153.916 445.763 173.969Z" fill="white"/>
</g>
<path d="M450.928 323.846C443.211 379.433 388.109 394.02 346.442 400.825C329.372 403.632 312.046 404.632 294.763 403.972C277.458 403.313 260.239 400.974 243.402 396.891C220.443 391.298 193.466 382.963 173.568 366.886C166.659 361.315 160.621 354.808 155.881 347.152C152.501 341.708 149.801 335.669 147.93 328.992C146.676 324.462 145.783 319.635 145.336 314.468C203.457 368.375 247.696 346.876 268.593 308.173C276.672 293.245 291.468 292.331 297.866 292.586C304.265 292.82 318.955 294.861 325.864 310.364C343.998 351.086 387.45 376.03 450.928 323.846Z" fill="white"/>
<path d="M443.19 348.832C424.887 384.153 381.115 395.147 346.57 400.825C329.457 403.632 312.11 404.653 294.784 403.994C277.48 403.334 260.26 400.995 243.424 396.912C220.464 391.32 193.487 382.984 173.589 366.907C166.68 361.336 160.643 354.829 155.902 347.173C154.074 344.196 152.437 341.07 151.013 337.753C154.074 341.028 157.369 344.069 160.855 346.897C182.603 364.483 260.09 382.452 295.762 383.813C331.434 385.174 419.402 370.778 443.19 348.832Z" fill="#E8E8E8"/>
<path d="M212.025 218.924C210.324 216.053 223.228 191.343 245.486 199.636C253.5 202.613 253.968 210.567 247.611 212.013C241.553 213.395 238.917 211.991 229.499 214.905C224.142 216.563 213.725 221.816 212.025 218.924Z" fill="#000072"/>
<path d="M391.362 225.771C393.275 223.028 382.284 197.425 359.474 203.996C351.247 206.356 350.184 214.245 356.413 216.181C362.344 218.009 365.086 216.819 374.249 220.455C379.436 222.475 389.448 228.514 391.362 225.771Z" fill="#000072"/>
<path d="M200.949 178.839C189.576 190.088 182.05 206.165 181.157 204.208C181.072 204.017 180.987 203.804 180.902 203.549C179.032 198.127 176.417 176.798 177.182 157.914C177.31 154.873 177.501 152.173 177.756 149.812C178.436 143.433 179.499 139.35 180.711 136.777C182.22 133.63 185.367 132.758 188.088 133.949C195.294 137.096 215.575 151.62 221.995 160.658C223.143 162.274 212.344 167.59 200.949 178.839Z" fill="#F27E80"/>
<path d="M200.949 178.839C189.576 190.088 182.05 206.165 181.157 204.208C181.072 204.017 180.987 203.804 180.902 203.549C183.73 193.725 190.979 180.306 196.506 170.61C204.074 157.361 194.826 146.24 186.557 142.689C183.73 141.476 180.116 146.07 177.756 149.812C178.436 143.433 179.499 139.35 180.711 136.777C182.22 133.63 185.366 132.758 188.088 133.949C195.294 137.096 215.575 151.62 221.995 160.658C223.143 162.274 212.344 167.59 200.949 178.839Z" fill="#FF5C64"/>
<path d="M181.476 208.291C181.348 208.291 181.2 208.291 181.072 208.27C179.584 208.164 178.245 207.228 177.607 205.846C175.332 200.912 172.462 177.393 173.27 157.744C173.695 147.133 174.971 139.711 177.182 135.097C179.52 130.206 184.771 128.228 189.661 130.355C197.314 133.715 218.147 148.473 225.205 158.382C225.928 159.403 227.224 162.125 223.525 165.4C222.441 166.378 220.911 167.505 218.955 168.93C214.937 171.885 209.431 175.947 203.712 181.604C197.441 187.813 192.318 195.66 188.917 200.87C185.388 206.292 184.091 208.291 181.476 208.291ZM185.706 137.33C185.196 137.33 184.644 137.606 184.24 138.436C183.07 140.902 181.561 146.304 181.093 158.042C180.541 171.779 181.816 186.665 183.155 195.383C186.706 189.94 191.829 182.348 198.206 176.032C204.329 169.993 210.324 165.548 214.299 162.635C215.213 161.976 216.17 161.253 216.978 160.636C209.495 152.13 192.403 140.094 186.493 137.521C186.259 137.415 185.983 137.33 185.706 137.33Z" fill="#000072"/>
<path d="M405.817 186.643C416.319 198.722 422.59 215.33 423.632 213.459C423.738 213.289 423.845 213.055 423.951 212.821C426.226 207.547 430.456 186.473 431.136 167.59C431.243 164.549 431.264 161.848 431.179 159.467C430.987 153.045 430.243 148.919 429.223 146.24C427.948 142.986 424.886 141.88 422.08 142.859C414.64 145.474 393.339 158.403 386.238 166.931C384.963 168.441 395.316 174.544 405.817 186.643Z" fill="#F27E80"/>
<path d="M405.817 186.643C416.319 198.722 422.59 215.33 423.632 213.459C423.738 213.289 423.845 213.055 423.951 212.821C421.889 202.826 415.681 188.876 410.898 178.797C404.372 165.017 414.427 154.618 422.952 151.705C425.864 150.705 429.117 155.554 431.179 159.467C430.987 153.045 430.243 148.919 429.223 146.24C427.948 142.986 424.886 141.88 422.08 142.859C414.64 145.474 393.339 158.403 386.238 166.931C384.963 168.441 395.316 174.544 405.817 186.643Z" fill="#FF5C64"/>
<path d="M423.42 217.499C420.507 217.499 419.402 215.479 416.149 209.525C413.152 204.081 408.645 195.851 402.863 189.195C397.591 183.135 392.404 178.669 388.62 175.394C386.791 173.821 385.346 172.566 384.325 171.524C380.903 167.973 382.391 165.357 383.199 164.4C390.979 155.044 412.876 141.902 420.763 139.159C425.822 137.394 430.882 139.775 432.837 144.815C434.687 149.6 435.388 157.085 435.006 167.696C434.304 187.366 429.691 210.588 427.034 215.33C426.311 216.67 424.929 217.499 423.42 217.499ZM391.213 167.292C391.957 167.973 392.871 168.759 393.722 169.482C397.463 172.715 403.118 177.584 408.752 184.07C414.64 190.854 419.168 198.807 422.293 204.506C424.292 195.915 426.694 181.157 427.183 167.42C427.587 155.703 426.502 150.174 425.525 147.622C424.993 146.282 424.036 146.282 423.335 146.537C417.276 148.685 399.313 159.382 391.213 167.292Z" fill="#000072"/>
<path d="M304.776 407.672C301.396 407.672 298.016 407.609 294.636 407.481C276.927 406.801 259.41 404.398 242.595 400.293C220.443 394.913 192.318 386.535 171.378 369.608C163.81 363.484 157.603 356.551 152.926 349.002C149.27 343.112 146.463 336.69 144.571 329.927C142.701 323.25 141.659 316.041 141.51 308.513C141.383 302.176 141.85 295.478 142.935 288.567C143.934 282.102 149.546 261.199 156.391 241.847C158.857 234.894 161.302 228.599 163.683 223.092C156.115 181.582 155.009 132.375 169.529 115.15C172.144 112.046 175.651 110.344 179.946 110.068C192.531 109.281 212.004 121.211 239.555 146.452C267.276 136.245 303.394 137.606 304.946 137.67C306.477 137.734 342.595 139.116 369.466 151.407C398.845 128.313 419.189 117.915 431.668 119.658C435.941 120.254 439.3 122.21 441.66 125.506C454.819 143.794 449.993 192.746 439.279 233.575C447.697 258.009 454.308 291.863 454.989 300.454C457.689 334.648 446.315 360.932 421.188 378.603C399.058 394.169 370.38 400.442 347.867 404.164C333.709 406.503 319.253 407.672 304.776 407.672ZM294.912 400.485C312.301 401.144 329.733 400.06 346.719 397.253C396.74 388.959 453.479 370.544 447.995 301.007C447.357 292.82 440.575 258.456 432.306 234.873L431.944 233.852L432.221 232.81C442.34 194.66 447.825 146.091 435.962 129.589C434.729 127.867 433.05 126.91 430.69 126.591C423.441 125.591 407.391 130.248 372.102 158.255L370.38 159.615L368.403 158.659C342.68 146.133 306.221 144.73 304.691 144.687C303.139 144.624 266.659 143.241 240.065 153.768L238.024 154.576L236.408 153.087C203.309 122.487 187.641 116.596 180.371 117.064C177.99 117.213 176.247 118.042 174.886 119.658C161.791 135.203 163.577 184.049 170.762 222.858L170.953 223.921L170.528 224.899C168.083 230.471 165.554 236.957 163.003 244.165C155.796 264.58 150.694 284.314 149.865 289.63C148.844 296.137 148.398 302.432 148.526 308.365C148.674 315.297 149.61 321.932 151.332 328.035C153.054 334.159 155.583 339.965 158.9 345.302C163.173 352.192 168.849 358.529 175.8 364.143C195.677 380.198 222.824 388.257 244.274 393.467C260.622 397.465 277.65 399.826 294.912 400.485Z" fill="#000072"/>
<path d="M163.938 307.684C163.364 307.323 162.662 306.94 162.025 306.557C161.366 306.174 160.707 305.813 160.026 305.473C159.346 305.111 158.666 304.771 157.985 304.452C157.284 304.133 156.625 303.771 155.923 303.452C153.139 302.198 150.311 300.986 147.441 299.944C141.68 297.86 135.792 296.116 129.775 294.946C129.031 294.755 128.266 294.649 127.522 294.542L125.247 294.181L122.973 293.798C122.207 293.671 121.442 293.628 120.677 293.543L116.085 293.054L111.472 292.841C108.389 292.586 105.328 292.799 102.224 292.756H101.055L99.9071 292.841L97.5899 293.011C96.0593 293.118 94.5075 293.203 92.9556 293.288H92.828C91.8714 293.352 91.0636 292.607 91.021 291.672C90.9785 290.778 91.6163 290.013 92.4879 289.864C94.061 289.63 95.6342 289.375 97.2285 289.162L99.6095 288.843L100.8 288.673L101.99 288.588C103.585 288.461 105.179 288.376 106.774 288.269C107.581 288.227 108.368 288.142 109.176 288.142L111.578 288.163C113.172 288.184 114.788 288.184 116.382 288.227L121.187 288.588C121.995 288.652 122.781 288.694 123.589 288.801L125.97 289.141C127.564 289.396 129.159 289.545 130.732 289.885L135.451 290.885C137.025 291.246 138.555 291.693 140.107 292.118C141.659 292.522 143.168 293.075 144.699 293.585C146.229 294.075 147.718 294.691 149.206 295.308C150.715 295.882 152.161 296.584 153.627 297.264C155.094 297.924 156.497 298.732 157.922 299.476C158.623 299.859 159.325 300.284 160.005 300.709C160.707 301.113 161.387 301.56 162.046 302.006C163.406 302.9 164.703 303.814 166.021 304.92C166.744 305.536 166.85 306.621 166.255 307.344C165.702 308.003 164.746 308.152 164.023 307.705L163.938 307.684Z" fill="#000072"/>
<path d="M167.127 331.82C165.851 331.629 164.469 331.437 163.151 331.288C161.812 331.14 160.452 331.033 159.091 330.906C156.391 330.693 153.691 330.565 150.97 330.523C145.571 330.459 140.171 330.693 134.856 331.522C132.199 331.926 129.584 332.437 126.991 333.138C125.694 333.457 124.44 333.883 123.143 334.266C121.889 334.712 120.613 335.116 119.401 335.648C114.427 337.604 109.792 340.284 105.498 343.537L105.477 343.558C104.712 344.132 103.627 343.984 103.053 343.218C102.522 342.516 102.628 341.517 103.245 340.921C107.433 337.009 112.301 333.734 117.552 331.373C120.167 330.183 122.888 329.141 125.651 328.375C128.415 327.567 131.221 326.908 134.048 326.461C139.703 325.526 145.443 325.228 151.14 325.568C156.838 325.908 162.429 326.759 167.977 328.481C168.891 328.758 169.401 329.736 169.104 330.629C168.849 331.459 168.041 331.948 167.212 331.82H167.127Z" fill="#000072"/>
<path d="M430.69 315.042C432.093 314.042 433.454 313.234 434.878 312.447C435.58 312.043 436.302 311.661 437.025 311.299C437.748 310.938 438.471 310.555 439.193 310.236C440.66 309.598 442.127 308.896 443.637 308.365C445.146 307.79 446.634 307.195 448.186 306.748C449.716 306.259 451.247 305.77 452.82 305.387C454.393 305.005 455.924 304.558 457.518 304.282C459.091 303.984 460.665 303.644 462.259 303.389L467.042 302.751C468.637 302.538 470.252 302.474 471.847 302.368L474.249 302.219C475.057 302.176 475.843 302.198 476.651 302.198H481.455C483.05 302.283 484.666 302.41 486.26 302.495L488.662 302.666C489.47 302.708 490.257 302.878 491.043 302.963C492.637 303.176 494.211 303.41 495.784 303.644L496.974 303.814L498.143 304.069L500.482 304.579C502.034 304.92 503.586 305.281 505.137 305.621C506.073 305.834 506.647 306.77 506.434 307.684C506.243 308.556 505.414 309.109 504.542 309.003L504.415 308.981C502.884 308.769 501.332 308.577 499.802 308.343L497.506 308.003L496.358 307.833L495.21 307.748C492.127 307.556 489.066 307.11 485.984 307.131L481.37 307.004L476.757 307.131C475.992 307.152 475.227 307.152 474.461 307.216L472.165 307.408L469.87 307.599C469.104 307.663 468.339 307.705 467.574 307.833C461.472 308.535 455.478 309.832 449.568 311.469C446.613 312.277 443.722 313.277 440.83 314.319C440.108 314.574 439.406 314.893 438.705 315.148C437.982 315.425 437.28 315.701 436.579 316.02C435.877 316.318 435.176 316.615 434.495 316.956C433.815 317.275 433.092 317.615 432.497 317.934L432.412 317.976C431.562 318.423 430.52 318.083 430.095 317.232C429.755 316.467 430.01 315.531 430.69 315.042Z" fill="#000072"/>
<path d="M426.949 338.348C432.603 337.051 438.237 336.647 443.956 336.732C449.653 336.817 455.35 337.562 460.92 338.923C463.705 339.582 466.468 340.432 469.147 341.453C471.847 342.453 474.462 343.686 476.991 345.068C482.051 347.833 486.643 351.448 490.533 355.679C491.171 356.381 491.128 357.466 490.427 358.125C489.768 358.72 488.769 358.72 488.131 358.146L488.088 358.125C484.049 354.574 479.627 351.533 474.823 349.215C473.654 348.598 472.399 348.088 471.188 347.556C469.933 347.088 468.722 346.557 467.446 346.131C464.938 345.238 462.344 344.515 459.729 343.92C454.5 342.687 449.143 342.049 443.743 341.708C441.043 341.538 438.343 341.474 435.622 341.474C434.262 341.496 432.901 341.496 431.562 341.538C430.223 341.581 428.819 341.666 427.544 341.772H427.438C426.481 341.836 425.652 341.134 425.588 340.177C425.546 339.305 426.12 338.54 426.949 338.348Z" fill="#000072"/>
<path d="M338.492 458.857C338.556 461.601 324.993 463.387 316.723 455.838C310.431 450.075 309.538 444.057 308.305 439.91C307.901 438.592 307.497 437.486 306.838 436.593C305.392 437.848 302.629 438.698 297.548 438.847C291.787 439.017 289.789 437.784 289.087 435.551C287.79 436.465 287.131 437.975 286.557 439.91C285.324 444.057 284.431 450.075 278.139 455.838C269.891 463.387 256.328 461.622 256.391 458.857C256.455 455.2 263.194 454.307 267.488 437.273C268.891 431.702 271.974 428.682 275.482 427.13C279.967 425.152 285.133 425.556 288.385 426.152C288.343 424.876 288.428 423.579 288.768 422.388C289.555 419.581 291.872 417.348 297.909 417.242C306.774 417.093 308.432 421.303 308.517 425.344C308.517 425.514 308.517 425.663 308.517 425.833C311.664 425.471 315.724 425.514 319.338 427.109C322.846 428.661 325.949 431.681 327.331 437.252C331.689 454.307 338.407 455.2 338.492 458.857Z" fill="#E8E8E8"/>
<path d="M289.066 426.598C286.961 427.47 286.068 429.405 285.303 431.957C283.921 436.593 282.943 443.291 275.907 449.735C266.702 458.156 251.566 456.178 251.63 453.116C251.715 449.033 259.219 448.034 264.023 429.023C265.596 422.813 269.04 419.453 272.952 417.71C280.966 414.18 290.979 417.497 290.979 417.497C290.979 417.497 294.955 424.153 289.066 426.598Z" fill="#F94646"/>
<path d="M289.066 426.598C286.961 427.47 286.068 429.405 285.303 431.957C279.967 419.432 277.926 433.977 270.571 441.888C265.511 447.332 261.217 448.757 263.407 446.63C266.298 443.844 268.232 439.74 271.166 432.255C275.758 420.538 279.095 422.579 277.607 419.304C277.033 418.071 275.12 417.688 272.973 417.71C280.987 414.18 291 417.497 291 417.497C291 417.497 294.954 424.153 289.066 426.598Z" fill="#DB2A2A"/>
<path d="M259.389 459.219C256.327 459.219 253.627 458.709 251.757 457.858C248.483 456.369 248.185 454.009 248.207 453.052C248.27 450.351 249.822 448.586 251.48 446.758C253.989 443.951 257.794 439.698 260.707 428.193C262.216 422.239 265.383 417.901 270.103 415.307C279.478 410.16 291.553 414.073 292.063 414.243L293.275 414.647L293.934 415.732C294.231 416.221 296.697 420.538 295.315 424.727C294.784 426.322 293.509 428.491 290.384 429.788C289.427 430.192 288.938 431.638 288.066 434.849C286.791 439.57 285.048 446.035 278.224 452.265C272.76 457.284 265.383 459.219 259.389 459.219ZM256.008 452.01C259.665 452.712 267.934 452.35 273.589 447.183C278.925 442.313 280.243 437.401 281.434 433.063C282.475 429.171 283.56 425.174 287.747 423.43C288.619 423.068 288.747 422.707 288.789 422.579C288.959 422.048 288.81 421.176 288.534 420.41C285.6 419.708 278.606 418.475 273.398 421.367C270.379 423.026 268.423 425.812 267.382 429.873C264.065 443.036 259.389 448.246 256.604 451.351C256.412 451.564 256.2 451.797 256.008 452.01Z" fill="#000072"/>
<path d="M305.796 426.598C307.901 427.47 308.794 429.405 309.559 431.957C310.941 436.593 311.919 443.291 318.955 449.735C328.16 458.156 343.296 456.178 343.232 453.116C343.147 449.033 335.643 448.034 330.839 429.023C329.266 422.813 325.822 419.453 321.91 417.71C313.896 414.18 303.883 417.497 303.883 417.497C303.883 417.497 299.908 424.153 305.796 426.598Z" fill="#F94646"/>
<path d="M305.796 426.598C307.901 427.47 308.794 429.405 309.559 431.957C314.895 419.432 316.936 433.977 324.291 441.888C329.351 447.332 333.645 448.757 331.455 446.63C328.564 443.844 326.629 439.74 323.696 432.255C319.104 420.538 315.766 422.579 317.254 419.304C317.828 418.071 319.742 417.688 321.889 417.71C313.874 414.18 303.862 417.497 303.862 417.497C303.862 417.497 299.908 424.153 305.796 426.598Z" fill="#DB2A2A"/>
<path d="M335.473 459.219C329.478 459.219 322.101 457.284 316.638 452.287C309.814 446.056 308.071 439.591 306.795 434.871C305.924 431.66 305.435 430.192 304.478 429.809C301.353 428.512 300.056 426.343 299.546 424.748C298.164 420.559 300.651 416.221 300.928 415.753L301.587 414.669L302.799 414.265C303.309 414.095 315.384 410.182 324.759 415.328C329.499 417.922 332.667 422.26 334.155 428.215C337.067 439.74 340.873 443.972 343.381 446.779C345.039 448.629 346.591 450.373 346.655 453.073C346.676 454.03 346.357 456.391 343.105 457.879C341.213 458.709 338.534 459.219 335.473 459.219ZM306.327 420.41C306.051 421.197 305.902 422.048 306.072 422.579C306.115 422.707 306.242 423.068 307.114 423.43C311.302 425.174 312.386 429.193 313.428 433.063C314.597 437.401 315.936 442.313 321.272 447.183C326.927 452.35 335.197 452.712 338.853 452.01C338.662 451.798 338.449 451.564 338.258 451.351C335.473 448.246 330.817 443.036 327.48 429.873C326.459 425.812 324.482 423.026 321.464 421.367C316.255 418.475 309.261 419.687 306.327 420.41Z" fill="#000072"/>
<path d="M297.548 430.809C287.301 431.107 287.748 427.449 287.641 421.559C287.578 418.922 286.919 415.392 287.79 412.436C288.683 409.31 291.255 406.822 297.994 406.716C307.88 406.567 309.729 411.245 309.835 415.753C309.899 418.56 309.283 421.303 309.474 422.792C309.942 426.726 309.261 430.469 297.548 430.809Z" fill="#F94646"/>
<g opacity="0.6">
<path d="M308.432 427.789C308.39 426.237 308.9 423.749 308.836 421.197C308.73 416.668 306.88 411.989 296.995 412.159C291.319 412.245 288.598 414.031 287.365 416.434C287.344 415.073 287.429 413.691 287.79 412.436C288.683 409.31 291.255 406.822 297.994 406.716C307.879 406.567 309.729 411.245 309.835 415.753C309.899 418.56 309.282 421.303 309.474 422.792C309.686 424.6 309.665 426.365 308.432 427.789Z" fill="white"/>
</g>
<path d="M297.548 430.809C287.301 431.107 287.748 427.449 287.641 421.559C287.578 418.922 286.919 415.392 287.79 412.436C287.96 413.797 288.492 415.009 289.64 415.626C293.169 417.518 299.801 417.922 295.082 421.303C292.722 423.005 290.745 424.855 296.676 425.344C302.629 425.833 306.158 425.812 304.648 423.366C303.139 420.921 301.948 421.197 305.562 418.922C307.136 417.943 308.751 416.923 309.835 415.753C309.899 418.56 309.283 421.303 309.474 422.792C309.942 426.726 309.261 430.469 297.548 430.809Z" fill="#DB2A2A"/>
<path d="M296.464 434.254C291.829 434.254 288.853 433.403 286.897 431.511C284.325 429.044 284.283 425.684 284.219 422.409L284.198 421.601C284.176 420.963 284.134 420.24 284.07 419.517C283.794 415.881 283.411 410.926 286.77 407.247C289.151 404.632 292.807 403.334 297.931 403.249C303.67 403.164 307.688 404.483 310.303 407.332C313.917 411.245 313.386 416.583 313.024 420.113C312.939 420.963 312.833 422.005 312.875 422.367C313.152 424.621 313.194 427.513 311.068 430.001C308.73 432.723 304.585 434.041 297.654 434.233C297.25 434.254 296.846 434.254 296.464 434.254ZM298.462 410.139C298.313 410.139 298.186 410.139 298.037 410.139C295.911 410.182 293.126 410.501 291.851 411.904C290.511 413.372 290.724 416.37 290.937 419.007C291 419.879 291.064 420.708 291.085 421.473L291.107 422.303C291.128 424.068 291.17 426.067 291.659 426.535C291.893 426.769 292.999 427.492 297.463 427.343C303.947 427.151 305.52 425.897 305.839 425.514C306.051 425.259 306.243 424.812 306.051 423.217C305.903 422.09 306.03 420.857 306.179 419.432C306.434 416.859 306.753 413.648 305.244 412.011C304.096 410.777 301.778 410.139 298.462 410.139Z" fill="#000072"/>
<path d="M290.958 415.052C291.043 418.794 295.996 419.007 295.783 419.73C295.571 420.453 290.958 419.411 291.213 423.643C291.34 425.918 288.449 422.664 288.385 419.624C288.364 417.029 290.936 413.329 290.958 415.052Z" fill="#000072"/>
<path d="M305.966 423.983C306.03 419.602 303.756 420.58 303.968 419.857C304.181 419.134 306.37 418.688 306.115 414.456C305.988 412.181 308.985 416.54 309.049 419.581C309.07 422.154 305.924 425.705 305.966 423.983Z" fill="#000072"/>
<path d="M161.536 481.271C161.536 481.271 176.523 489.203 190.979 478.102C190.979 478.102 180.137 490.925 166.276 486.013C152.458 481.122 161.536 481.271 161.536 481.271Z" fill="#000072"/>
<path d="M207.752 434.722C207.752 434.722 206.859 452.521 200.141 464.535C200.141 464.514 210.09 454.264 207.752 434.722Z" fill="#000072"/>
<path d="M311.536 321.825C311.536 321.825 310.58 330.183 307.37 337.668C304.648 344.026 300.333 349.746 293.594 349.236C286.876 348.726 283.454 342.41 281.732 335.712C279.691 327.822 280.01 319.422 280.01 319.422L295.826 319.784L311.536 321.825Z" fill="#000072"/>
<path d="M307.369 337.668C304.648 344.026 300.311 349.746 293.594 349.236C286.876 348.726 283.453 342.41 281.731 335.711C283.666 334.478 285.983 333.84 288.407 334.032C290.745 334.202 292.871 335.137 294.55 336.541C296.442 335.414 298.675 334.818 301.013 335.01C303.458 335.18 305.647 336.158 307.369 337.668Z" fill="#F27E80"/>
<path d="M294.466 352.702C294.083 352.702 293.722 352.681 293.318 352.66C275.567 351.299 276.502 320.592 276.566 319.274L276.693 315.871L296.273 316.339L315.342 318.806L314.959 322.187C314.81 323.484 311.239 352.702 294.466 352.702ZM283.475 322.952C283.773 331.076 285.92 345.196 293.849 345.791C294.019 345.812 294.189 345.812 294.359 345.812C301.991 345.812 306.094 332.607 307.582 324.781L295.571 323.229L283.475 322.952Z" fill="#000072"/>
<path d="M322.782 322.761C322.782 322.761 317.233 334.478 306.668 330.842C294.657 326.716 297.271 312.192 297.271 312.192L296.825 312.15C296.825 312.15 297.144 326.908 284.644 329.119C273.653 331.076 269.997 318.614 269.997 318.614C269.997 318.614 269.04 291.289 298.419 293.522C327.777 295.776 322.782 322.761 322.782 322.761Z" fill="white"/>
<path d="M321.187 325.355C318.849 328.567 313.938 333.351 306.668 330.863C294.635 326.738 297.25 312.214 297.25 312.214L296.804 312.171C296.804 312.171 297.123 326.929 284.601 329.141C277.033 330.48 272.931 324.994 271.124 321.443C273.186 321.783 275.46 321.804 277.948 321.358C298.611 317.7 297.739 297.647 297.739 297.647L298.483 297.711C298.483 297.711 294.487 317.381 314.342 324.228C316.808 325.058 319.083 325.398 321.187 325.355Z" fill="#E8E8E8"/>
<path d="M271.868 318.083C272.016 318.359 272.229 318.742 272.42 319.082C272.612 319.423 272.824 319.763 273.037 320.103C273.462 320.784 273.93 321.4 274.397 322.017C275.354 323.208 276.438 324.25 277.586 324.951C278.734 325.696 279.946 326.1 281.221 326.291C281.88 326.291 282.518 326.419 283.22 326.27C283.56 326.206 283.9 326.227 284.24 326.142L285.282 325.887C288.067 325.207 290.235 323.505 291.851 321.017C292.658 319.784 293.296 318.359 293.785 316.849C294.04 316.105 294.232 315.318 294.423 314.532C294.593 313.766 294.763 312.894 294.869 312.214L294.891 312.044C295.039 310.98 296.017 310.215 297.101 310.364C298.016 310.491 298.696 311.235 298.781 312.129C298.887 313.213 298.887 314.128 298.845 315.106C298.802 316.084 298.696 317.041 298.505 318.019C298.143 319.954 297.59 321.911 296.591 323.739C294.763 327.439 291.043 330.629 286.897 331.65L285.367 332.054C284.857 332.16 284.283 332.203 283.751 332.245C282.688 332.415 281.54 332.267 280.435 332.182C278.181 331.841 276.055 330.863 274.312 329.545C272.569 328.205 271.23 326.546 270.231 324.803C269.742 323.931 269.317 323.016 268.955 322.102C268.594 321.166 268.339 320.273 268.105 319.189C267.892 318.125 268.572 317.105 269.635 316.871C270.507 316.701 271.357 317.126 271.74 317.849L271.868 318.083Z" fill="#000072"/>
<path d="M324.546 323.612C324.163 324.654 323.76 325.483 323.271 326.355C322.782 327.205 322.208 328.035 321.591 328.822C320.337 330.395 318.743 331.82 316.829 332.883C314.916 333.925 312.641 334.542 310.367 334.542C309.261 334.436 308.113 334.414 307.093 334.095C306.561 333.946 306.03 333.84 305.52 333.649L304.053 333.011C300.12 331.352 296.931 327.609 295.698 323.675C294.997 321.719 294.763 319.699 294.699 317.742C294.678 316.764 294.72 315.786 294.827 314.829C294.933 313.851 295.082 312.958 295.358 311.895C295.635 310.853 296.697 310.215 297.739 310.491C298.632 310.725 299.227 311.533 299.206 312.426V312.596C299.185 313.298 299.227 314.17 299.27 314.957C299.334 315.765 299.397 316.573 299.546 317.338C299.801 318.912 300.205 320.422 300.8 321.762C302.012 324.462 303.904 326.482 306.54 327.588L307.518 327.992C307.858 328.12 308.177 328.162 308.517 328.269C309.176 328.524 309.835 328.481 310.473 328.609C311.749 328.609 313.024 328.396 314.278 327.843C315.533 327.312 316.744 326.461 317.892 325.44C318.445 324.909 319.019 324.377 319.529 323.76C319.805 323.463 320.061 323.165 320.294 322.846C320.55 322.548 320.805 322.187 320.996 321.953L321.145 321.762C321.804 320.911 323.037 320.741 323.887 321.4C324.61 321.91 324.844 322.825 324.546 323.612Z" fill="#000072"/>
<path d="M312.429 305.664C312.152 309.13 307.412 311.831 303.096 313.575C298.59 315.403 293.743 315.021 289.576 312.511C285.601 310.108 281.328 306.706 281.583 303.24C282.412 292.82 313.237 295.223 312.429 305.664Z" fill="#000072"/>
<g opacity="0.5">
<path d="M303.288 302.899C303.203 303.899 301.353 304.643 299.653 305.111C297.888 305.6 295.954 305.451 294.295 304.686C292.701 303.963 290.979 302.942 291.064 301.943C291.277 298.923 303.522 299.88 303.288 302.899Z" fill="white"/>
</g>
<path d="M398.143 455.221C398.143 468.342 355.031 478.996 301.842 478.996C261.238 478.996 226.523 472.807 212.344 464.025C207.943 461.303 205.52 458.347 205.52 455.221C205.52 443.058 242.594 433.02 290.405 431.617C294.146 431.511 297.973 431.447 301.842 431.447C355.031 431.447 398.143 442.101 398.143 455.221Z" fill="white"/>
<path d="M398.143 455.221C398.143 468.342 355.031 478.995 301.842 478.995C261.238 478.995 226.523 472.807 212.344 464.025C221.953 458.241 244.614 447.566 284.049 445.163C293.87 444.567 298.228 445.822 301.034 442.271C304.67 437.677 299.057 434.19 290.405 431.638C294.147 431.532 297.973 431.468 301.842 431.468C355.031 431.447 398.143 442.101 398.143 455.221Z" fill="#E8E8E8"/>
<path d="M378.628 492.265C378.628 505.385 355.031 503.982 301.842 503.982C248.653 503.982 219.593 497.454 219.593 484.333C219.593 480.931 208.432 473.573 213.662 470.638C222.016 465.96 231.136 451.819 254.266 459.538C271.974 445.141 286.834 453.647 301.842 456.433C320.38 447.566 336.813 455.731 347.569 459.283C363.917 448.927 381.838 464.046 390.597 470.957C395.019 474.466 378.628 488.969 378.628 492.265Z" fill="#F9DD95"/>
<path d="M327.331 507.469C323.717 507.469 319.912 507.469 315.873 507.448C311.451 507.427 306.774 507.427 301.842 507.427C244.55 507.427 216.51 499.963 216.149 484.631C215.809 483.95 214.512 482.44 213.641 481.441C211.004 478.4 208.283 475.253 208.9 471.744C209.112 470.532 209.814 468.852 211.982 467.64C213.534 466.768 215.256 465.407 217.106 463.961C224.163 458.411 234.729 450.118 253.585 455.71C268.573 444.418 282.008 447.927 293.913 451.032C296.506 451.712 298.972 452.35 301.417 452.839C318.488 445.205 334.028 450.777 344.381 454.519C345.358 454.86 346.273 455.2 347.187 455.519C364.576 445.928 382.816 460.41 391.723 467.449L392.744 468.257C393.913 469.171 394.614 470.468 394.785 471.978C395.21 475.976 391.723 480.569 386.324 487.119C384.751 489.033 382.603 491.627 382.093 492.69C382.008 495.752 380.903 498.347 378.841 500.388C372.378 506.81 356.881 507.469 327.331 507.469ZM216 473.275C216.617 474.317 218.041 475.955 218.87 476.933C221.124 479.527 223.058 481.76 223.058 484.354C223.058 488.161 228.734 500.558 301.863 500.558C306.795 500.558 311.494 500.58 315.915 500.58C347.739 500.665 368.764 500.707 373.972 495.518C374.823 494.668 375.205 493.668 375.205 492.286C375.205 489.904 376.991 487.65 381.009 482.759C383.05 480.293 387.089 475.359 387.812 473.169L387.45 472.871C378.947 466.13 363.109 453.562 349.44 462.217L348.058 463.089L346.506 462.579C345.125 462.111 343.636 461.579 342.063 461.027C331.455 457.199 318.254 452.457 303.352 459.58L302.331 460.07L301.226 459.857C298.164 459.283 295.124 458.496 292.17 457.73C280.414 454.668 269.338 451.776 256.455 462.239L254.988 463.429L253.203 462.834C236.749 457.326 228.585 463.748 221.379 469.405C219.529 470.83 217.786 472.191 216 473.275Z" fill="#000072"/>
<path d="M301.842 482.44C252.267 482.44 202.097 473.084 202.097 455.221C202.097 437.358 252.289 428.002 301.842 428.002C351.417 428.002 401.587 437.358 401.587 455.221C401.587 473.084 351.417 482.44 301.842 482.44ZM301.842 434.892C276.396 434.892 252.501 437.337 234.559 441.76C216.893 446.12 208.964 451.67 208.964 455.221C208.964 458.772 216.872 464.323 234.559 468.682C252.48 473.105 276.375 475.551 301.842 475.551C327.31 475.551 351.183 473.105 369.126 468.682C386.791 464.323 394.721 458.772 394.721 455.221C394.721 451.67 386.813 446.12 369.126 441.76C351.183 437.337 327.289 434.892 301.842 434.892Z" fill="#000072"/>
<path d="M249.142 476.422C246.251 478.23 242.446 477.337 240.639 474.445L183.56 382.92C181.753 380.028 182.646 376.221 185.537 374.414C188.428 372.606 192.233 373.5 194.04 376.392L251.119 467.916C252.926 470.808 252.034 474.615 249.142 476.422Z" fill="#CECECE"/>
<path d="M245.889 480.803C242.679 480.803 239.533 479.187 237.705 476.274L180.626 384.749C177.82 380.241 179.201 374.308 183.687 371.479C188.194 368.672 194.146 370.055 196.952 374.542L254.032 466.066C255.392 468.257 255.817 470.83 255.243 473.339C254.669 475.848 253.139 477.975 250.97 479.336C249.397 480.335 247.633 480.803 245.889 480.803ZM188.789 376.944C188.3 376.944 187.79 377.072 187.343 377.348C186.068 378.135 185.685 379.836 186.472 381.112L243.551 472.637C244.338 473.913 246.038 474.296 247.314 473.509C247.93 473.126 248.355 472.51 248.526 471.808C248.696 471.106 248.568 470.362 248.185 469.745L191.127 378.22C190.596 377.391 189.703 376.944 188.789 376.944Z" fill="#000072"/>
<path d="M224.631 468.895C224.631 468.895 228.925 461.218 239.639 463.982C250.205 466.726 258.177 459.687 266.595 468.512C274.461 476.741 271.974 484.291 271.974 484.291L236.791 488.437L224.631 468.895Z" fill="#F9DD95"/>
<path d="M235.026 492.116L220.634 469.001L221.633 467.215C223.568 463.749 229.988 457.943 240.511 460.665C243.997 461.558 247.186 461.218 250.566 460.856C256.285 460.24 262.769 459.517 269.104 466.151C278.287 475.763 275.375 485.014 275.247 485.396L274.567 487.48L235.026 492.116ZM228.84 469.15L238.555 484.737L268.891 481.165C268.87 478.932 268.105 475.083 264.087 470.872C260.09 466.704 256.604 467.087 251.289 467.661C247.633 468.065 243.466 468.512 238.768 467.3C233.517 465.981 230.413 467.725 228.84 469.15Z" fill="#000072"/>
<path d="M395.529 484.631C394.763 488.182 393.807 491.925 392.595 495.731C391.83 498.113 390.958 500.516 389.98 502.94C388.811 505.853 387.45 508.767 385.92 511.659C380.286 522.249 372.059 532.371 360.133 539.941C360.133 545.002 351.311 555.614 301.864 555.614C252.416 555.614 243.573 545.024 243.573 539.941C231.562 532.307 223.313 522.1 217.658 511.425C216.957 510.106 216.298 508.767 215.681 507.427C215.001 505.981 214.363 504.514 213.768 503.068C212.769 500.665 211.919 498.24 211.153 495.859C209.878 491.903 208.879 488.033 208.113 484.354C204.797 468.576 205.541 456.306 205.541 456.306H205.647C208.05 468.916 250.205 478.932 301.842 478.932C314.938 478.932 327.438 478.294 338.832 477.103C372.336 473.658 396.252 465.684 398.037 456.284H398.144C398.144 456.348 398.909 468.746 395.529 484.631Z" fill="white"/>
<path d="M395.528 484.631C394.763 488.182 393.807 491.925 392.595 495.731C391.829 498.113 390.958 500.516 389.98 502.94C388.811 505.853 387.45 508.767 385.92 511.659C380.286 522.249 372.059 532.371 360.133 539.941C360.133 545.002 351.311 555.614 301.863 555.614C252.416 555.614 243.572 545.024 243.572 539.941C231.561 532.307 223.313 522.1 217.658 511.425C216.957 510.106 216.298 508.767 215.681 507.427C224.525 517.847 244.274 532.711 284.219 531.159C335.303 529.181 308.262 501.239 338.853 477.145C372.357 473.7 396.273 465.726 398.058 456.327H398.165C398.143 456.348 398.909 468.746 395.528 484.631Z" fill="#E8E8E8"/>
<path d="M392.595 495.731C391.83 498.113 390.958 500.516 389.98 502.94C366.511 507.895 342.956 510.893 319.402 511.893C320.082 509.787 320.677 507.597 321.294 505.3C345.103 504.173 368.892 500.984 392.595 495.731Z" fill="#E8E8E8"/>
<path d="M395.529 484.631C395.422 485.162 395.295 485.694 395.167 486.226C395.04 486.779 394.933 487.31 394.785 487.842C394.381 489.479 393.956 491.138 393.467 492.818C393.318 493.371 393.148 493.945 392.956 494.498C391.405 499.58 389.385 504.811 386.77 509.957C386.494 510.532 386.175 511.106 385.877 511.68C362.195 517.23 338.407 520.399 314.619 521.228C319.891 514.87 320.337 506.087 324.079 496.688C347.952 495.157 371.783 491.138 395.529 484.631Z" fill="#DB2A2A"/>
<path d="M395.528 484.631C393.721 493.094 390.766 502.557 385.898 511.659C329.988 524.737 273.526 524.673 217.637 511.446C212.79 502.302 209.856 492.839 208.092 484.397C270.358 501.621 333.262 501.685 395.528 484.631Z" fill="#F94646"/>
<path d="M395.529 484.631C395.422 485.162 395.295 485.694 395.167 486.226C395.04 486.779 394.933 487.31 394.785 487.842C394.381 489.479 393.956 491.138 393.467 492.818C393.318 493.371 393.148 493.945 392.956 494.498C391.405 499.58 389.385 504.811 386.77 509.957C386.494 510.532 386.175 511.106 385.877 511.68C362.195 517.23 338.407 520.399 314.619 521.228C319.891 514.87 320.337 506.087 324.079 496.688C347.952 495.157 371.783 491.138 395.529 484.631Z" fill="#DB2A2A"/>
<path d="M392.595 495.731C391.83 498.113 390.958 500.516 389.98 502.94C331.413 515.337 272.335 515.38 213.768 503.089C212.769 500.686 211.919 498.262 211.153 495.88C271.443 509.128 332.284 509.086 392.595 495.731Z" fill="white"/>
<path d="M392.595 495.731C391.83 498.113 390.958 500.516 389.98 502.94C366.511 507.895 342.956 510.893 319.402 511.893C320.082 509.787 320.677 507.597 321.294 505.3C345.103 504.173 368.892 500.984 392.595 495.731Z" fill="#E8E8E8"/>
<path d="M301.842 559.08C251.948 559.08 241.914 548.362 240.362 542.004C199.057 514.551 201.948 458.56 202.097 456.157L202.288 452.925H208.496L209.027 455.732C210.579 463.834 244.508 475.551 301.842 475.551C359.155 475.551 393.105 463.834 394.657 455.732L395.188 452.925H401.396L401.587 456.157C401.736 458.56 404.627 514.551 363.322 542.004C361.77 548.362 351.715 559.08 301.842 559.08ZM209.133 465.939C210.196 482.845 216 518.4 245.401 537.049L246.995 538.07V539.962C246.995 543.131 257.072 552.19 301.842 552.19C346.591 552.19 356.668 543.131 356.668 539.962V538.07L358.262 537.049C387.663 518.4 393.466 482.845 394.529 465.939C378.883 476.805 339.64 482.44 301.821 482.44C264.044 482.44 224.78 476.805 209.133 465.939Z" fill="#000072"/>
<path d="M388.556 526.013C387.259 526.651 385.686 527.373 383.836 528.054C375.843 531.074 362.982 533.71 347.378 526.927C329.691 519.25 328.649 485.503 352.204 479.952C364.789 476.997 373.568 476.486 380.818 475.21C387.28 474.083 392.552 472.361 398.207 467.789C415.618 501.473 398.228 521.313 388.556 526.013Z" fill="#8C8CAA"/>
<path d="M388.556 526.013C387.259 526.65 385.686 527.373 383.837 528.054C375.843 531.074 362.982 533.689 347.378 526.927C332.37 520.42 329.351 495.157 343.148 484.248C340.427 495.88 344.593 509.766 354.117 514.338C368.169 521.122 379.776 518.485 386.983 515.465C388.641 514.763 390.065 514.04 391.234 513.424C396.039 510.829 402.948 503.642 405.563 492.052C406.774 511.106 395.614 522.589 388.556 526.013Z" fill="#7C7C7C"/>
<path d="M390.32 513.913C389.406 518.782 387.386 523.588 383.857 528.054C375.864 531.074 363.003 533.689 347.399 526.927C345.039 525.906 342.956 524.396 341.191 522.568C340.809 522.164 340.426 521.738 340.065 521.292C339.703 520.845 339.363 520.399 339.044 519.931C338.725 519.463 338.407 518.974 338.109 518.485C337.96 518.229 337.811 517.974 337.684 517.74C337.131 516.72 336.642 515.656 336.217 514.572C334.708 510.638 334.07 506.257 334.389 501.962C334.41 501.685 334.431 501.388 334.452 501.09C334.495 500.771 334.516 500.431 334.58 500.112C334.665 499.538 334.75 498.963 334.856 498.389C334.899 498.177 334.941 497.985 334.984 497.794C335.111 497.241 335.239 496.709 335.388 496.156C335.452 495.901 335.537 495.646 335.622 495.391C335.664 495.242 335.707 495.093 335.771 494.944C335.898 494.604 336.004 494.264 336.132 493.924C336.174 493.838 336.196 493.775 336.217 493.69C336.281 493.541 336.344 493.371 336.408 493.201C336.43 493.137 336.451 493.073 336.493 493.009C336.557 492.839 336.642 492.669 336.727 492.499C336.812 492.286 336.918 492.073 337.025 491.861C337.089 491.733 337.152 491.584 337.237 491.436C337.344 491.202 337.471 490.989 337.577 490.798C337.705 490.542 337.854 490.287 338.024 490.032C338.151 489.841 338.279 489.628 338.407 489.437C338.534 489.245 338.662 489.054 338.789 488.862C339.044 488.48 339.321 488.097 339.618 487.735C339.746 487.565 339.873 487.416 340.001 487.268C340.043 487.225 340.086 487.183 340.129 487.119C340.256 486.97 340.384 486.821 340.532 486.672C340.681 486.481 340.851 486.311 341.021 486.162C341.17 486.013 341.319 485.843 341.468 485.715C341.489 485.673 341.51 485.651 341.532 485.63C341.702 485.481 341.85 485.311 342.021 485.184C342.382 484.865 342.743 484.546 343.105 484.248C340.384 495.88 344.55 509.766 354.074 514.359C368.126 521.122 379.733 518.506 386.94 515.486C388.237 514.955 389.342 514.423 390.32 513.913Z" fill="#E8E8E8"/>
<path d="M383.857 528.054C375.864 531.074 363.003 533.711 347.399 526.927C329.712 519.25 328.67 485.503 352.225 479.952C364.81 476.997 373.589 476.486 380.839 475.21C387.726 486.864 398.037 510.128 383.857 528.054Z" fill="white"/>
<path d="M390.32 513.913C389.406 518.782 387.386 523.588 383.857 528.054C375.864 531.074 363.003 533.689 347.399 526.927C345.039 525.906 342.956 524.396 341.191 522.568C340.809 522.164 340.426 521.738 340.065 521.292C339.703 520.845 339.363 520.399 339.044 519.931C338.725 519.463 338.407 518.974 338.109 518.485C337.96 518.229 337.811 517.974 337.684 517.74C337.131 516.72 336.642 515.656 336.217 514.572C334.708 510.638 334.07 506.257 334.389 501.962C334.41 501.685 334.431 501.388 334.452 501.09C334.495 500.771 334.516 500.431 334.58 500.112C334.665 499.538 334.75 498.963 334.856 498.389C334.899 498.177 334.941 497.985 334.984 497.794C335.111 497.241 335.239 496.709 335.388 496.156C335.452 495.901 335.537 495.646 335.622 495.391C335.664 495.242 335.707 495.093 335.771 494.944C335.877 494.604 336.004 494.264 336.132 493.924C336.174 493.838 336.196 493.775 336.217 493.69C336.281 493.541 336.344 493.371 336.408 493.201C336.43 493.137 336.451 493.073 336.493 493.009C336.557 492.839 336.642 492.669 336.727 492.499C336.812 492.286 336.918 492.073 337.025 491.861C337.089 491.733 337.152 491.584 337.237 491.436C337.344 491.202 337.471 490.989 337.577 490.798C337.705 490.542 337.854 490.287 338.024 490.032C338.151 489.841 338.279 489.628 338.407 489.437C338.534 489.245 338.662 489.054 338.789 488.862C339.044 488.48 339.321 488.097 339.618 487.735C339.746 487.565 339.873 487.416 340.001 487.268C340.043 487.225 340.086 487.183 340.129 487.119C340.256 486.97 340.384 486.821 340.532 486.672C340.681 486.481 340.851 486.311 341.021 486.162C341.17 486.013 341.319 485.843 341.468 485.715C341.489 485.673 341.51 485.651 341.532 485.63C341.702 485.481 341.85 485.311 342.021 485.184C342.382 484.843 342.743 484.546 343.105 484.248C340.384 495.88 344.55 509.766 354.074 514.359C368.126 521.122 379.733 518.506 386.94 515.486C388.237 514.955 389.342 514.423 390.32 513.913Z" fill="#E8E8E8"/>
<path d="M367.063 534.646C360.048 534.646 353.033 533.115 346.017 530.074C336.026 525.736 329.861 513.806 330.988 501.069C332.093 488.671 339.938 479.293 351.417 476.592C360.048 474.572 367.042 473.637 372.676 472.914C382.901 471.574 389.066 470.766 396.06 465.109L399.355 462.451L401.29 466.215C411.196 485.396 409.836 499.75 406.966 508.426C403.309 519.399 395.848 526.31 390.086 529.117C382.476 532.796 374.78 534.646 367.063 534.646ZM396.91 472.999C389.704 477.634 382.731 478.549 373.569 479.761C367.807 480.527 361.281 481.377 352.99 483.312C344.359 485.332 338.683 492.222 337.854 501.706C336.983 511.531 341.468 520.611 348.76 523.78C361.557 529.351 374.461 529.053 387.068 522.929C391.362 520.845 397.442 515.21 400.418 506.257C403.628 496.582 402.416 485.141 396.91 472.999Z" fill="#000072"/>
<path d="M159.686 406.694C173.483 387.386 192.297 380.347 206.837 386.769C226.034 395.254 231.88 422.771 225.524 433.871C220.656 442.42 210.685 450.883 190.001 453.626C190.001 453.626 172.888 449.565 166.276 432.808C159.665 416.051 167.53 401.336 167.53 401.336L159.686 406.694Z" fill="white"/>
<path d="M156.88 404.695C160.664 399.209 165.256 394.19 170.655 390.022L171.655 389.236L172.718 388.513L174.843 387.067L177.097 385.769L178.223 385.132L179.393 384.579C182.496 383.005 185.898 381.963 189.363 381.283C192.849 380.581 196.506 380.517 200.077 381.006C201.884 381.197 203.649 381.708 205.392 382.197L207.943 383.154C208.793 383.494 209.58 383.919 210.388 384.302C213.576 386.003 216.446 388.194 218.955 390.703C221.442 393.234 223.547 396.083 225.269 399.103C228.691 405.163 230.817 411.819 231.455 418.752C231.625 420.474 231.667 422.239 231.582 424.004C231.519 425.769 231.327 427.555 230.923 429.342C230.541 431.128 229.988 432.957 229.095 434.722C228.627 435.657 228.16 436.359 227.692 437.125C227.224 437.869 226.693 438.592 226.183 439.294C224.036 442.101 221.485 444.589 218.678 446.673L217.637 447.459L216.531 448.161L215.426 448.863L214.299 449.501C212.811 450.373 211.259 451.074 209.665 451.712C206.519 453.031 203.266 453.881 199.992 454.498C199.163 454.647 198.355 454.796 197.547 454.923L195.081 455.179C193.445 455.37 191.786 455.37 190.171 455.413C189.214 455.434 188.406 454.69 188.385 453.733C188.364 452.925 188.895 452.223 189.639 452.01L189.703 451.989C195.762 450.266 201.672 448.48 207.008 445.801C212.343 443.164 217.105 439.676 220.464 435.083C220.868 434.488 221.272 433.914 221.655 433.318C222.016 432.701 222.42 432.085 222.633 431.574C223.143 430.49 223.525 429.214 223.781 427.896C224.057 426.577 224.163 425.174 224.206 423.749C224.248 422.324 224.163 420.899 224.036 419.453C223.462 413.669 221.57 407.928 218.657 402.93C217.19 400.442 215.447 398.146 213.47 396.104C211.472 394.105 209.24 392.404 206.795 391.086C206.178 390.788 205.562 390.448 204.924 390.214L203.011 389.491C201.693 389.129 200.375 388.725 199.014 388.598C196.293 388.236 193.487 388.236 190.702 388.81C187.939 389.342 185.175 390.193 182.56 391.447L181.561 391.894L180.604 392.425L178.691 393.467L176.842 394.68L175.906 395.275L175.013 395.955C170.252 399.507 166.064 403.909 162.428 408.778L162.407 408.8C161.259 410.331 159.112 410.628 157.581 409.501C156.157 408.31 155.838 406.205 156.88 404.695Z" fill="#000072"/>
<path d="M253.649 540.281C261.663 541.557 269.678 542.344 277.692 542.982C281.71 543.216 285.707 543.535 289.725 543.62C291.723 543.705 293.743 543.748 295.741 543.812C297.739 543.854 299.759 543.833 301.757 543.854C303.755 543.833 305.775 543.854 307.773 543.812C309.771 543.748 311.791 543.726 313.789 543.62C317.807 543.535 321.804 543.216 325.822 542.982C333.836 542.365 341.851 541.557 349.865 540.281C342.17 542.94 334.155 544.513 326.098 545.64C324.078 545.895 322.059 546.193 320.039 546.342L316.999 546.618L313.959 546.852C309.899 547.129 305.817 547.214 301.757 547.278C297.675 547.214 293.615 547.129 289.555 546.852L286.515 546.618L283.475 546.321C281.455 546.151 279.436 545.874 277.416 545.598C269.359 544.513 261.345 542.94 253.649 540.281Z" fill="#000072"/>
<path d="M358.135 496.348C356.264 496.858 354.521 497.198 352.671 497.496C350.843 497.794 349.015 497.964 347.144 498.07C345.295 498.177 343.402 498.198 341.51 498.091C339.618 498.006 337.705 497.751 335.792 497.411C333.9 497.092 332.646 495.306 332.965 493.413C333.283 491.521 335.069 490.266 336.961 490.585C337.131 490.606 337.301 490.649 337.471 490.713L337.578 490.755C339.108 491.265 340.66 491.776 342.297 492.095C343.913 492.456 345.571 492.733 347.25 492.903C348.93 493.073 350.63 493.179 352.331 493.201C354.032 493.222 355.796 493.137 357.412 492.988H357.497C358.454 492.903 359.283 493.583 359.389 494.519C359.495 495.37 358.942 496.135 358.135 496.348Z" fill="#000072"/>
<path d="M357.731 517.145C355.945 517.889 354.287 518.4 352.501 518.867C350.737 519.314 348.93 519.633 347.102 519.846C345.273 520.058 343.403 520.122 341.511 520.058C339.619 520.016 337.705 519.697 335.813 519.314C333.943 518.931 332.731 517.102 333.114 515.231C333.496 513.36 335.324 512.148 337.195 512.53C337.365 512.573 337.557 512.615 337.705 512.679L337.833 512.722C339.236 513.253 340.682 513.764 342.212 514.062C343.743 514.38 345.316 514.593 346.91 514.678C348.505 514.763 350.142 514.742 351.757 514.614C353.373 514.487 355.052 514.232 356.54 513.891L356.668 513.87C357.603 513.658 358.518 514.232 358.73 515.167C358.943 515.997 358.496 516.826 357.731 517.145Z" fill="#000072"/>
<path d="M197.399 398.273C198.377 397.635 199.248 397.168 200.205 396.721C201.14 396.274 202.118 395.892 203.117 395.53C205.116 394.85 207.22 394.403 209.389 394.212C210.473 394.084 211.557 394.127 212.662 394.148C213.747 394.275 214.873 394.318 215.958 394.594C218.168 394.977 220.273 395.849 222.293 396.806C224.015 397.614 224.759 399.677 223.951 401.421C223.143 403.143 221.081 403.887 219.338 403.079C219.189 403.015 219.061 402.93 218.934 402.867L218.742 402.739C217.382 401.846 215.958 400.953 214.384 400.442C213.619 400.102 212.79 399.975 211.982 399.741C211.153 399.613 210.303 399.443 209.452 399.422C207.731 399.294 205.966 399.4 204.202 399.719C203.33 399.889 202.458 400.081 201.587 400.357C200.736 400.612 199.844 400.953 199.142 401.272L198.993 401.335C198.122 401.718 197.101 401.335 196.719 400.464C196.421 399.634 196.697 398.72 197.399 398.273Z" fill="#000072"/>
<path d="M208.347 419.347C209.792 418.114 211.217 417.157 212.832 416.264C214.427 415.392 216.127 414.626 218.019 414.158C219.89 413.669 221.974 413.478 224.121 413.818C226.268 414.158 228.372 415.115 230.116 416.455L230.243 416.561C231.752 417.731 232.029 419.9 230.86 421.431C229.69 422.941 227.522 423.217 225.991 422.048C225.821 421.92 225.672 421.771 225.545 421.622C224.78 420.772 223.866 420.113 222.76 419.687C221.655 419.283 220.337 419.134 218.934 419.241C217.53 419.326 216.064 419.687 214.618 420.176C213.194 420.666 211.706 421.346 210.451 422.09L210.345 422.154C209.516 422.643 208.474 422.345 207.985 421.537C207.539 420.814 207.709 419.879 208.347 419.347Z" fill="#000072"/>
<path d="M394.374 302.078C395.523 284.511 384.118 269.461 368.898 268.465C353.679 267.468 340.41 280.902 339.26 298.47C338.111 316.038 349.516 331.087 364.736 332.083C379.955 333.08 393.224 319.646 394.374 302.078Z" fill="#000072"/>
<path d="M368.016 295.689C368.432 289.408 364.742 284.05 359.775 283.721C354.808 283.392 350.444 288.218 350.029 294.499C349.614 300.78 353.303 306.138 358.271 306.467C363.238 306.796 367.601 301.97 368.016 295.689Z" fill="white"/>
<g opacity="0.2">
<path d="M379.882 312.447C380.166 308.194 378.164 304.596 375.411 304.413C372.658 304.229 370.196 307.529 369.913 311.783C369.63 316.037 371.632 319.634 374.385 319.817C377.138 320.001 379.599 316.701 379.882 312.447Z" fill="white"/>
</g>
<path d="M257.267 295.31C260.278 277.964 250.537 261.787 235.51 259.176C220.483 256.566 205.86 268.512 202.849 285.858C199.838 303.204 209.578 319.381 224.605 321.992C239.632 324.602 254.255 312.656 257.267 295.31Z" fill="#000072"/>
<path d="M247.702 288.897C248.775 282.693 245.667 276.977 240.762 276.128C235.856 275.28 231.011 279.621 229.938 285.824C228.866 292.027 231.973 297.743 236.879 298.592C241.784 299.44 246.63 295.1 247.702 288.897Z" fill="white"/>
<g opacity="0.2">
<path d="M224.313 301.01C225.037 296.809 223.419 293.023 220.7 292.554C217.981 292.085 215.19 295.111 214.466 299.312C213.742 303.514 215.359 307.3 218.078 307.768C220.797 308.237 223.588 305.212 224.313 301.01Z" fill="white"/>
</g>
</g>
<defs>
<clipPath id="clip0_245_7418">
<rect width="426" height="667" fill="white" transform="translate(91)"/>
</clipPath>
</defs>
</svg>
