<svg width="626" height="599" viewBox="0 0 626 599" fill="none" xmlns="http://www.w3.org/2000/svg">
<ellipse cx="313" cy="299.5" rx="313" ry="299.5" fill="#B0A2D7"/>
<g clip-path="url(#clip0_237_3931)">
<path d="M146.716 571.524C90.2024 575.323 63.4918 539.669 71.6724 468.856C74.8288 446.66 72.8534 430.304 66.6052 419.099C59.4122 406.156 46.5721 400.102 29.4807 399.888C19.0241 399.759 9.38333 393.47 5.56139 383.724C4.74547 381.664 4.20868 379.496 3.97249 377.242C3.77924 375.482 3.77924 373.679 4.01543 371.833C4.05837 371.489 4.10132 371.124 4.16573 370.759C5.00312 365.737 7.55825 360.563 12.3679 355.734C17.7358 350.324 24.6926 346.826 32.1218 345.065C64.093 337.445 97.2451 354.532 114.83 383.102C123.763 397.591 128.68 415.042 127.413 433.717C127.305 435.22 127.048 436.722 126.726 438.182C124.986 446.102 124.149 453.057 124.128 459.11C124.128 460.355 124.149 461.536 124.213 462.695C124.965 476.519 130.462 485.212 139.544 489.999L145.943 562.337L146.716 571.524Z" fill="#8E8FB3"/>
<path d="M114.787 383.102C102.699 382.544 90.1166 387.996 81.3132 396.668C74.8717 403 70.1265 410.728 66.5837 419.078C59.3907 406.134 46.5507 400.081 29.4593 399.866C19.0026 399.738 9.36188 393.448 5.53993 383.703C2.23331 375.289 3.19953 364.921 12.3464 355.734C17.7143 350.325 24.6711 346.826 32.1003 345.066C64.0715 337.467 97.2022 354.553 114.787 383.102Z" fill="white"/>
<path d="M138.685 575.581C116.462 575.581 98.9842 569.077 86.7024 556.198C69.5681 538.21 63.2339 508.674 67.8718 468.405C71.3717 443.827 68.5589 426.054 59.5194 415.493C52.9276 407.809 42.793 403.816 29.4162 403.645C17.3277 403.494 6.31273 396.024 2.01841 385.077C-2.34032 374.001 0.450984 362.324 9.6623 353.051C15.2449 347.427 22.6956 343.392 31.2198 341.374C54.495 335.836 79.2947 342.361 99.2633 359.276C121.143 377.8 133.081 405.727 131.149 433.975C131.041 435.499 130.805 437.087 130.376 438.998C124.836 464.284 128.4 479.868 141.262 486.629C142.4 487.23 143.151 488.368 143.28 489.656L150.473 571.181C150.559 572.19 150.237 573.199 149.571 573.971C148.906 574.744 147.961 575.216 146.952 575.281C144.139 575.495 141.391 575.581 138.685 575.581ZM47.6456 347.041C42.7286 347.041 37.8116 347.599 32.959 348.758C25.8089 350.454 19.6037 353.802 15.0302 358.417C5.45387 368.055 7.19307 377.543 9.0611 382.33C12.2604 390.443 20.4625 395.981 29.5021 396.089C45.1763 396.282 57.2004 401.155 65.2738 410.578C75.8163 422.877 79.2088 442.647 75.3869 469.393C71.0281 507.236 76.6537 534.711 92.1777 550.982C103.665 563.024 120.606 568.734 142.55 567.961L135.872 492.339C121.25 483.431 116.891 464.971 122.946 437.409C123.29 435.885 123.483 434.64 123.548 433.503C125.308 407.637 114.379 382.072 94.3248 365.093C80.4327 353.287 64.0069 347.041 47.6456 347.041Z" fill="#000072"/>
<g opacity="0.3">
<path d="M126.597 453.573C126.231 453.23 125.866 452.886 125.501 452.543L126.94 451.233C126.854 452.028 126.725 452.8 126.597 453.573Z" fill="#000072"/>
</g>
<g opacity="0.2">
<path d="M145.9 562.337C90.6749 564.441 64.6942 529.323 72.8534 460.914C76.0957 439.019 74.0559 422.877 67.7003 411.844C60.3784 399.094 47.2593 393.105 29.8244 392.89C19.153 392.762 9.34045 386.558 5.43262 376.963C4.767 375.332 4.27316 373.593 3.97255 371.833C3.88667 371.425 3.84372 370.996 3.80078 370.588C3.90814 370.652 4.0155 370.717 4.12286 370.76C10.7361 374.43 18.0794 376.856 25.6589 377.65C37.0388 378.873 48.8697 376.77 59.8202 380.054C72.5958 383.875 82.1721 394.608 87.4112 406.521C92.6717 418.412 94.1747 431.485 95.463 444.364C96.3434 452.95 98.512 463.339 106.993 466.087C112.834 467.976 119.447 464.949 123.226 460.248C123.526 459.883 123.784 459.518 124.042 459.111C124.042 460.356 124.063 461.536 124.128 462.695C124.879 476.519 130.376 485.212 139.458 489.999L145.9 562.337Z" fill="#000072"/>
</g>
<path d="M203.98 574.895L195.048 496.59C238.292 537.696 293.345 556.714 362.054 550.21L359.649 580.261L203.98 574.895Z" fill="white"/>
<g opacity="0.2">
<path d="M203.98 574.895L195.048 496.59C238.292 537.696 293.345 556.714 362.054 550.21L359.649 580.261L203.98 574.895Z" fill="#000072"/>
</g>
<path d="M226.633 568.734C223.541 585.112 213.857 595.394 200.566 595.222H149.163C143.967 595.222 138.921 593.14 135.529 589.212C133.103 586.4 131.771 583.094 131.32 579.617C131.041 577.449 131.106 575.238 131.449 573.049C131.965 569.765 133.145 566.523 134.756 563.604C136.066 561.243 137.676 559.096 139.501 557.293C139.158 556.649 138.835 556.005 138.492 555.34C135.829 550.124 133.575 544.886 131.707 539.692C121.637 511.873 122.882 485.857 136.259 472.656C143.259 465.744 153.586 462.352 167.328 464.07L174.714 467.01C190.539 473.343 202.563 486.63 207.265 503.029C209.112 509.49 211.087 515.822 213.192 522.026C214.974 527.22 216.842 532.329 218.839 537.309C220.556 541.624 222.381 545.852 224.292 549.995C227.019 555.855 227.835 562.402 226.633 568.734Z" fill="#8E8FB3"/>
<g opacity="0.6">
<path d="M207.33 593.183H155.927C150.731 593.183 145.685 591.101 142.292 587.173C139.866 584.361 138.535 581.055 138.084 577.578C137.805 575.41 137.869 573.199 138.213 571.01C138.728 567.725 139.909 564.484 141.519 561.565C142.829 559.204 144.439 557.057 146.265 555.254C145.921 554.61 145.599 553.966 145.255 553.301C142.593 548.085 140.338 542.847 138.47 537.652C128.4 509.833 129.645 483.818 143.022 470.617C145.663 468.019 148.777 465.916 152.362 464.392C145.792 465.68 140.424 468.534 136.259 472.656C122.903 485.857 121.637 511.873 131.707 539.692C133.575 544.865 135.851 550.102 138.492 555.34C138.814 555.984 139.157 556.628 139.501 557.293C137.676 559.075 136.065 561.243 134.756 563.604C133.124 566.523 131.964 569.765 131.449 573.049C131.106 575.238 131.041 577.449 131.32 579.617C131.771 583.094 133.102 586.4 135.529 589.212C138.921 593.14 143.967 595.222 149.163 595.222H200.566C204.302 595.265 207.759 594.492 210.873 592.99C209.713 593.14 208.532 593.205 207.33 593.183Z" fill="white"/>
</g>
<path d="M226.633 568.735C223.541 585.113 213.857 595.395 200.566 595.223H149.163C143.967 595.223 138.921 593.141 135.529 589.213C133.102 586.401 131.771 583.095 131.32 579.618C132.222 574.23 133.382 568.885 134.756 563.605C135.078 562.36 135.421 561.093 135.765 559.848L135.486 560.17C135.894 558.281 137.032 556.628 138.492 555.362C139.222 554.718 140.038 554.16 140.875 553.709C143.43 552.335 146.329 551.799 149.185 551.369C159.899 549.781 170.85 549.802 181.564 551.434C186.803 552.228 192.106 553.409 197.367 552.7C203.615 551.842 209.262 548.321 213.642 543.771C215.553 541.796 217.271 539.628 218.817 537.353C220.535 541.667 222.36 545.896 224.271 550.039C227.019 555.856 227.835 562.402 226.633 568.735Z" fill="white"/>
<path d="M149.163 599C142.7 599 136.688 596.339 132.652 591.681C123.827 581.485 126.897 566.244 134.906 556.671C118.974 525.052 116.763 493.198 129.366 474.974C135.013 466.817 146.286 457.652 167.758 460.335C168.08 460.378 168.402 460.464 168.702 460.571L176.089 463.512C192.901 470.209 205.891 484.612 210.894 501.999C216.004 519.815 221.522 535.012 227.749 548.428C230.798 555.018 231.722 562.295 230.369 569.443C226.933 587.71 215.661 599.022 200.91 599.022C200.781 599.022 200.652 599.022 200.545 599.022L149.163 599ZM160.586 467.461C149.593 467.461 141.047 471.497 135.636 479.31C124.471 495.452 127.37 526.083 142.872 555.555C143.645 557.036 143.366 558.839 142.185 560.019C135.185 566.931 131.986 579.317 138.406 586.744C140.983 589.727 144.912 591.444 149.185 591.444H200.588C200.674 591.444 200.759 591.444 200.867 591.444C211.946 591.444 220.17 582.73 222.94 568.047C223.992 562.466 223.283 556.778 220.9 551.626C214.501 537.846 208.854 522.305 203.637 504.102C199.299 488.948 187.962 476.412 173.319 470.574L166.405 467.805C164.365 467.569 162.433 467.461 160.586 467.461Z" fill="#000072"/>
<path d="M137.289 554.223C153.178 542.696 174.5 546.431 191.978 551.562C192.858 551.841 193.373 552.785 193.094 553.665C192.858 554.438 192.106 554.91 191.333 554.846C182.444 554.052 173.619 553.257 165.052 553.73C156.807 554.18 148.562 555.876 141.734 560.384C137.633 563.046 133.467 557.271 137.289 554.223Z" fill="#000072"/>
<path d="M173.555 595.587C170.42 585.885 170.721 573.822 178.622 566.309C180.19 564.785 182.595 566.867 181.306 568.627C175.724 575.754 176.926 585.155 180.662 592.926C182.702 597.906 175.294 600.696 173.555 595.587Z" fill="#000072"/>
<path d="M142.958 595.48C140.768 587.967 139.995 579.166 143.495 571.782C144.633 569.314 146.2 567.081 148.004 565.171C148.691 564.463 149.808 564.441 150.516 565.107C151.182 565.729 151.246 566.738 150.731 567.446C145.084 574.959 146.351 584.769 150.087 592.904C152.062 597.905 144.633 600.589 142.958 595.48Z" fill="#000072"/>
<g opacity="0.2">
<path d="M226.633 568.734C223.541 585.112 213.857 595.394 200.566 595.222H149.163C143.967 595.222 138.921 593.14 135.529 589.212C133.102 586.4 131.771 583.094 131.32 579.617C131.041 577.449 131.105 575.238 131.449 573.049C135.915 578.329 141.755 582.472 148.261 584.812C159.019 588.697 171.451 587.602 181.349 581.935C187.018 578.694 192.085 573.65 193.416 567.253C194.747 560.856 191.14 553.279 184.784 551.841C186.61 536.923 188.435 521.639 185.107 506.957C181.778 492.296 172.224 478.108 157.902 473.493C150.902 471.239 143.559 471.411 136.259 472.656C143.258 465.744 153.586 462.352 167.328 464.07L174.714 467.01C190.539 473.343 202.563 486.63 207.265 503.029C209.112 509.49 211.087 515.822 213.191 522.026C214.974 527.22 216.842 532.329 218.838 537.309C220.556 541.624 222.381 545.852 224.292 549.995C227.019 555.855 227.835 562.402 226.633 568.734Z" fill="#000072"/>
</g>
<path d="M464.152 440.264C463.121 443.162 462.52 446.189 462.369 449.258L462.069 454.796C461.103 472.913 448.692 488.411 431.214 493.327L411.074 498.972C402.915 501.247 395.4 505.54 389.495 511.658C351.705 550.918 272.861 555.232 208.747 504.853C203.486 500.711 199.879 494.894 198.505 488.368C198.441 488.153 198.398 487.939 198.355 487.724C198.118 486.436 197.882 485.127 197.668 483.86C197.152 480.769 196.701 477.7 196.358 474.695C195.971 471.454 195.671 468.277 195.456 465.121C195.177 461 195.048 456.964 195.027 452.972C195.005 437.023 197.109 422.062 200.759 407.959C205.354 390.229 212.419 373.83 220.814 358.546C223.305 354.039 226.654 350.175 230.648 347.17C231.743 346.333 232.902 345.56 234.105 344.851C238.442 342.297 243.316 340.666 248.469 340.129C299.937 334.784 347.539 334.376 386.875 344.594C391.105 345.689 395.228 346.912 399.264 348.264C403.086 350.282 406.844 352.429 410.494 354.661C447.898 377.564 474.587 411.072 464.152 440.264Z" fill="#6E7189"/>
<g opacity="0.6">
<path d="M381.336 516.252C376.44 521.339 370.836 525.847 364.674 529.71C374.1 524.966 382.495 518.913 389.474 511.658C391.492 509.554 393.725 507.687 396.108 506.013C390.612 508.46 385.544 511.873 381.336 516.252Z" fill="white"/>
<path d="M410.516 354.64C406.865 352.386 403.108 350.261 399.286 348.243C395.249 346.891 391.127 345.667 386.897 344.572C347.561 334.355 299.958 334.763 248.491 340.108C243.338 340.644 238.442 342.276 234.126 344.83C232.967 345.517 231.872 346.247 230.798 347.062C233.826 345.86 237.025 345.045 240.353 344.701C291.821 339.356 339.423 338.948 378.759 349.166C382.989 350.261 387.112 351.484 391.148 352.836C394.97 354.854 398.728 357.001 402.378 359.233C439.76 382.179 466.449 415.687 456.014 444.858C454.983 447.756 454.382 450.782 454.232 453.852L453.931 459.39C453.244 472.441 446.588 484.139 436.41 491.481C451.118 485.213 461.21 471.067 462.09 454.796L462.391 449.258C462.563 446.189 463.143 443.162 464.173 440.264C474.587 411.072 447.898 377.564 410.516 354.64Z" fill="white"/>
</g>
<g opacity="0.4">
<path d="M361.839 480.126C359.778 492.232 357.695 504.338 355.634 516.466C354.668 522.155 353.465 528.294 349.214 532.2C346.702 534.519 343.438 535.763 340.174 536.751C322.568 542.182 303.565 541.688 285.572 537.803C267.579 533.896 250.488 526.684 233.868 518.763C223.562 513.847 213.148 508.438 205.569 499.895C202.584 496.546 200.137 492.597 198.505 488.368C196.787 483.968 195.95 479.267 196.358 474.673C196.551 472.484 197.023 470.337 197.818 468.255L197.839 468.105C197.023 467.139 196.207 466.152 195.456 465.1C195.177 460.979 195.048 456.943 195.026 452.951C195.391 452.65 195.799 452.392 196.25 452.199C197.947 451.469 199.879 451.706 201.704 451.963C253.816 459.283 305.927 466.602 358.039 473.901C359.048 474.051 360.122 474.223 360.894 474.867C362.333 476.069 362.14 478.28 361.839 480.126Z" fill="#000072"/>
</g>
<path d="M310.307 545.659C309.857 545.659 309.406 545.659 308.933 545.659C273.419 545.315 237.003 531.878 206.385 507.837C200.244 503.007 196.057 496.117 194.619 488.432C186.159 443.27 193.631 400.189 217.486 356.7C223.755 345.302 235.178 337.682 248.083 336.33C314.473 329.418 362.913 332.058 400.488 344.637C400.681 344.701 400.875 344.787 401.068 344.873C443.453 367.283 480.491 405.856 467.737 441.531C466.835 444.042 466.32 446.704 466.17 449.451L465.869 455.011C464.817 474.78 451.29 491.631 432.245 496.976L412.104 502.621C404.375 504.789 397.504 508.824 392.243 514.298C372.983 534.261 343.181 545.659 310.307 545.659ZM313.077 340.172C293.796 340.172 272.517 341.417 248.877 343.864C238.464 344.959 229.209 351.098 224.163 360.328C200.867 402.786 193.867 443.033 202.091 487.016C203.186 492.897 206.385 498.178 211.087 501.87C240.374 524.902 275.158 537.76 309.019 538.081C340.303 538.361 368.689 527.8 386.746 509.039C392.952 502.599 401.004 497.856 410.022 495.323L430.162 489.677C446.094 485.213 457.388 471.131 458.268 454.625L458.569 449.065C458.762 445.566 459.428 442.175 460.566 438.998C471.71 407.83 435.873 371.962 397.783 351.742C374.551 343.993 346.917 340.172 313.077 340.172Z" fill="#000072"/>
<path d="M239.022 474.587C234.105 480.49 226.783 483.839 219.118 483.839H192.836C185.772 483.839 178.88 481.499 173.276 477.185L170.27 474.866C161.788 468.341 156.055 458.832 154.359 448.271C147.359 404.374 157.601 380.419 185.042 353.395C190.431 348.093 196.486 342.662 203.186 336.931C214.05 339.7 223.433 343.048 230.669 347.148C245.656 355.605 251.497 367.347 242.543 384.176C239 388.211 237.368 395.81 236.96 405.748C236.917 406.757 236.552 407.702 235.994 408.453C235.822 408.668 235.672 408.861 235.479 409.054C234.599 409.891 233.439 410.406 232.129 410.406C249.693 430.433 255.834 454.431 239.022 474.587Z" fill="#6E7189"/>
<g opacity="0.6">
<path d="M227.169 482.422H200.91C193.845 482.422 186.953 480.083 181.349 475.768L178.343 473.45C169.862 466.924 164.129 457.415 162.433 446.854C155.433 402.958 165.675 379.003 193.115 351.978C197.624 347.535 202.606 343.005 208.06 338.283C206.471 337.832 204.86 337.381 203.186 336.974C196.465 342.705 190.431 348.114 185.042 353.437C157.601 380.462 147.359 404.396 154.359 448.314C156.055 458.875 161.788 468.384 170.27 474.909L173.276 477.228C178.88 481.542 185.772 483.882 192.836 483.882H219.096C222.038 483.882 224.936 483.388 227.663 482.444C227.513 482.401 227.341 482.422 227.169 482.422Z" fill="white"/>
</g>
<g opacity="0.3">
<path d="M239.022 453.058C234.105 458.96 226.783 462.309 219.118 462.309H192.837C185.772 462.309 178.88 459.969 173.276 455.655L170.27 453.337C161.789 446.811 156.056 437.302 154.36 426.741C153.608 422.105 153.093 417.683 152.728 413.476C151.719 423.693 152.255 435.091 154.36 448.271C156.056 458.832 161.789 468.341 170.27 474.866L173.276 477.184C178.88 481.499 185.772 483.839 192.837 483.839H219.096C226.762 483.839 234.084 480.469 239.001 474.587C248.663 463.017 250.724 450.16 247.439 437.538C245.914 442.862 243.166 448.078 239.022 453.058Z" fill="#000072"/>
</g>
<path d="M205.655 339.829C187.769 355.498 169.411 371.962 161.101 394.608C160.543 396.325 159.276 400.039 158.954 401.756C158.696 402.98 158.117 405.405 157.838 406.607C157.558 408.217 157.022 412.36 156.785 414.034C156.657 416.911 156.27 421.268 156.399 424.123C156.399 430.756 157.022 437.904 158.009 444.45C158.997 456.321 165.438 466.753 175.208 473.471C179.696 477.078 185.257 479.31 191.011 479.696C192.321 479.804 194.597 479.761 195.993 479.782L216.992 479.825H218.302C227.749 480.126 234.921 475.038 239.537 467.096C242.479 462.481 244.39 457.072 244.862 451.62C246 439.385 240.546 427.579 233.267 417.877C232.065 416.159 230.605 414.549 229.295 412.918C228.651 414.249 234.706 400.962 232.151 406.586C232.688 406.586 233.16 406.135 233.396 405.663C234.191 401.477 235.006 397.291 236.187 393.191C237.282 389.693 238.678 386.065 241.405 383.146C241.985 382.523 242.972 382.48 243.595 383.081C244.175 383.618 244.239 384.52 243.788 385.142C240.954 388.941 240.374 394.415 240.181 399.18C240.095 401.563 240.482 404.031 240.503 406.414C240.396 410.686 236.467 414.206 232.237 414.184C229.66 419.83 235.565 406.5 235.006 407.895L235.071 407.96C237.69 411.051 240.353 414.335 242.543 417.748C249.156 427.686 253.816 440.05 252.656 452.285C251.969 460.871 248.362 469.178 243.015 475.897C237.39 483.646 227.792 488.111 218.28 487.853H216.97L195.971 487.896C192.235 487.939 188.263 487.875 184.613 486.952C176.883 485.256 170.699 480.748 164.837 475.575C156.335 467.933 150.945 456.9 149.915 445.545C149.464 442.39 148.884 438.011 148.712 434.877C148.24 430.734 148.261 425.561 148.197 421.375C148.283 419.615 148.583 415.022 148.669 413.197C148.948 411.351 149.485 406.843 149.829 405.04C150.151 403.709 150.73 401.005 151.052 399.674C151.353 397.742 152.921 393.664 153.479 391.775C153.951 390.208 154.982 388.212 155.583 386.687C159.19 378.316 164.494 370.631 170.184 363.698C179.438 352.644 190.023 343.113 200.738 333.99C202.327 332.638 204.731 332.831 206.084 334.42C207.415 336.072 207.244 338.455 205.655 339.829Z" fill="#000072"/>
<path d="M229.703 413.325C221.007 405.726 207.866 408.367 197.388 410.685C193.459 411.608 189.551 412.703 185.643 413.84C183.947 414.313 183.067 411.866 184.72 411.179C188.521 409.655 192.364 408.174 196.272 406.821C204.367 404.117 212.612 401.755 221.415 402.55C225.924 402.979 230.648 404.524 234.556 407.465C238.614 410.792 233.718 416.717 229.703 413.325Z" fill="#000072"/>
<path d="M385.93 510.327C392.479 491.438 398.083 471.926 401.283 452.199C403.795 437.388 404.589 422.427 404.482 407.423L404.374 399.91C404.31 397.398 404.203 394.887 404.224 392.354C404.181 391.216 405.126 390.229 406.264 390.25C407.209 390.25 407.982 390.916 408.196 391.774C409.506 396.776 410.429 401.885 411.031 407.036C413.65 432.794 409.699 458.918 402.893 483.753C400.23 493.369 396.666 503.673 393.016 512.989C391.148 517.539 384.384 515.071 385.93 510.327Z" fill="#000072"/>
<path d="M200.566 494.55L200.824 496.525C202.52 509.232 208.489 521.059 217.98 529.667C253.494 561.929 299.078 570.966 351.963 553.794C369.891 547.977 383.204 532.779 386.811 514.276C339.23 562.359 232.108 540.915 200.566 494.55Z" fill="white"/>
<g opacity="0.3">
<path d="M351.963 541.451C299.1 558.624 253.494 549.587 217.98 517.324C213.084 512.86 209.112 507.558 206.192 501.698C204.109 499.379 202.22 497.018 200.545 494.55L200.803 496.525C202.499 509.232 208.468 521.059 217.958 529.667C253.472 561.929 299.057 570.966 351.941 553.794C369.87 547.977 383.182 532.779 386.79 514.276C384.234 516.852 381.508 519.213 378.63 521.403C372.296 530.719 363.021 537.867 351.963 541.451Z" fill="#000072"/>
</g>
<path d="M301.719 566.072C269.254 566.072 239.988 554.782 215.446 532.479C205.44 523.378 198.913 510.799 197.066 497.019L196.809 495.044C196.572 493.305 197.582 491.631 199.213 491.008C200.845 490.386 202.713 490.965 203.701 492.425C219.354 515.457 256.521 533.359 296.136 537.008C332.767 540.378 364.824 531.127 384.105 511.637C385.286 510.456 387.09 510.177 388.571 510.95C390.053 511.722 390.847 513.397 390.525 515.028C386.639 534.948 372.317 551.197 353.122 557.422C335.322 563.196 318.102 566.072 301.719 566.072ZM208.103 509.082C210.915 515.865 215.145 521.961 220.556 526.877C255.855 558.967 299.679 566.802 350.803 550.21C363.171 546.196 373.198 537.352 378.888 525.975C357.91 540.872 328.344 547.569 295.449 544.564C260.343 541.323 227.942 527.907 208.103 509.082Z" fill="#000072"/>
<path d="M364.309 478.344L360.959 490.708L356.106 508.631C353.165 519.471 343.438 527.113 332.187 527.328C297.897 528.015 268.094 525.052 240.203 510.113C237.776 508.803 236.338 506.163 236.574 503.415L237.24 495.173C237.605 490.794 239.365 486.651 242.264 483.345L268.245 453.938C269.039 453.036 270.005 452.328 271.057 451.834C272.475 451.169 274.063 450.911 275.674 451.105C299.464 454.088 325.144 453.745 352.091 451.147C355.656 450.804 358.962 453.015 360.014 456.428L364.137 469.779C365.017 472.548 365.06 475.532 364.309 478.344Z" fill="white"/>
<path d="M322.868 530.268C295.32 530.268 266.462 527.371 238.871 512.602C235.436 510.756 233.418 507.064 233.74 503.158L234.405 494.915C234.813 489.957 236.853 485.17 240.138 481.435L266.119 452.028C268.609 449.194 272.324 447.777 276.039 448.25C298.369 451.04 323.147 451.04 351.812 448.271C356.686 447.799 361.281 450.847 362.72 455.526L366.842 468.878C367.873 472.183 367.937 475.704 367.014 479.052L358.812 509.34C355.569 521.339 344.619 529.882 332.208 530.14C329.138 530.225 326.003 530.268 322.868 530.268ZM239.408 503.63C239.279 505.261 240.117 506.828 241.555 507.601C271.143 523.442 302.578 525.074 332.144 524.494C342.042 524.301 350.76 517.475 353.358 507.902L361.56 477.614C362.183 475.317 362.14 472.892 361.431 470.616L357.309 457.265C356.665 455.161 354.582 453.788 352.392 453.981C323.298 456.793 298.111 456.793 275.352 453.938C273.505 453.702 271.658 454.41 270.413 455.827L244.432 485.234C241.942 488.046 240.396 491.674 240.095 495.409L239.408 503.63Z" fill="#000072"/>
<path d="M293.968 384.798V421.525L305.348 423.65C306.98 410.663 307.366 399.158 307.001 388.576L293.968 384.798Z" fill="white"/>
<path d="M305.347 426.505C305.176 426.505 305.004 426.483 304.832 426.462L293.452 424.337C292.1 424.079 291.133 422.92 291.133 421.546V384.819C291.133 383.918 291.563 383.081 292.271 382.544C292.98 382.007 293.925 381.836 294.783 382.093L307.817 385.893C308.998 386.236 309.814 387.288 309.857 388.533C310.264 400.21 309.706 411.823 308.182 424.058C308.074 424.831 307.666 425.539 307.044 426.011C306.528 426.312 305.949 426.505 305.347 426.505ZM296.802 419.164L302.878 420.301C304.016 410.191 304.467 400.468 304.231 390.744L296.823 388.597V419.164H296.802Z" fill="#000072"/>
<path d="M299.657 442.776C306.251 442.776 311.596 438.038 311.596 432.194C311.596 426.349 306.251 421.611 299.657 421.611C293.064 421.611 287.719 426.349 287.719 432.194C287.719 438.038 293.064 442.776 299.657 442.776Z" fill="white"/>
<path d="M299.658 445.609C291.52 445.609 284.885 439.577 284.885 432.172C284.885 424.766 291.52 418.734 299.658 418.734C307.795 418.734 314.43 424.766 314.43 432.172C314.43 439.577 307.795 445.609 299.658 445.609ZM299.658 424.444C294.655 424.444 290.575 427.921 290.575 432.193C290.575 436.465 294.655 439.942 299.658 439.942C304.661 439.942 308.74 436.465 308.74 432.193C308.74 427.921 304.661 424.444 299.658 424.444Z" fill="#000072"/>
<path d="M344.19 383.36L348.076 419.873L359.607 420.796C359.843 407.702 359.027 396.239 357.545 385.743L344.19 383.36Z" fill="white"/>
<path d="M359.606 423.629C359.52 423.629 359.456 423.629 359.37 423.629L347.84 422.706C346.466 422.598 345.371 421.525 345.242 420.173L341.355 383.661C341.27 382.78 341.592 381.879 342.236 381.278C342.901 380.677 343.782 380.398 344.684 380.57L358.039 382.974C359.241 383.188 360.186 384.154 360.358 385.378C361.99 396.948 362.677 408.56 362.441 420.881C362.419 421.675 362.097 422.405 361.517 422.942C361.002 423.371 360.315 423.629 359.606 423.629ZM350.653 417.232L356.815 417.726C356.879 407.53 356.3 397.828 355.033 388.19L347.432 386.837L350.653 417.232Z" fill="#000072"/>
<path d="M355.971 440.399C362.527 439.703 367.342 434.428 366.724 428.616C366.107 422.804 360.291 418.657 353.735 419.353C347.179 420.049 342.364 425.325 342.982 431.136C343.599 436.948 349.414 441.095 355.971 440.399Z" fill="white"/>
<path d="M354.539 443.313C347.153 443.313 340.883 438.268 340.153 431.421C339.38 424.058 345.328 417.361 353.422 416.503C357.287 416.095 361.066 417.061 364.094 419.207C367.207 421.44 369.14 424.659 369.526 428.287C370.299 435.65 364.352 442.347 356.257 443.205C355.698 443.291 355.119 443.313 354.539 443.313ZM355.183 422.126C354.797 422.126 354.432 422.148 354.045 422.191C349.064 422.728 345.371 426.613 345.822 430.841C346.272 435.07 350.696 438.118 355.677 437.581C360.658 437.045 364.352 433.16 363.901 428.931C363.686 426.935 362.591 425.132 360.809 423.865C359.198 422.728 357.244 422.126 355.183 422.126Z" fill="#000072"/>
<g opacity="0.5">
<path d="M253.279 341.159C298.691 341.117 344.082 341.095 389.495 341.052C378.158 350.926 366.091 360.564 351.726 365.866C330.577 373.679 306.228 371.211 285.486 362.474C279.152 359.813 272.904 356.421 268.717 351.227C265.604 347.384 263.435 342.404 258.776 340.408" fill="#000072"/>
</g>
<g opacity="0.3">
<path d="M406.715 356.807C398.04 365.694 391.212 377.049 383.526 386.988C371.244 402.829 355.333 416.137 336.803 423.715C318.252 431.313 296.974 432.902 278.014 426.441C268.846 423.307 260.386 418.413 251.282 415.15C245.077 412.918 238.7 411.479 232.194 410.599C220.642 409.032 208.747 409.269 196.98 410.106C193.931 410.32 190.882 410.578 187.855 410.835C190.904 402.807 193.996 394.672 194.898 386.108C195.799 377.564 194.275 368.42 188.95 361.702C186.91 359.126 184.226 357.001 181.242 355.562C186.631 350.261 192.686 344.83 199.385 339.099C210.25 341.868 219.633 345.216 226.869 349.316C227.964 348.479 229.123 347.706 230.326 346.998C254.653 361.873 277.327 380.484 305.24 384.584C335.58 389.048 367.873 373.336 383.118 346.74C387.348 347.835 391.47 349.058 395.507 350.411C399.307 352.429 403.065 354.554 406.715 356.807Z" fill="#000072"/>
</g>
<g opacity="0.2">
<path d="M360.959 490.708L356.106 508.631C353.165 519.471 343.438 527.113 332.187 527.327C297.897 528.014 268.094 525.052 240.203 510.112C237.776 508.803 236.338 506.163 236.574 503.415L237.24 495.172C237.605 490.793 239.365 486.651 242.264 483.345L268.245 453.938C269.039 453.036 270.005 452.328 271.057 451.834C284.37 453.272 297.017 460.678 304.639 471.711C309.341 478.537 312.433 486.844 319.132 491.759C324.736 495.881 332.058 496.932 338.994 496.46C346.616 495.988 354.002 493.863 360.959 490.708Z" fill="#000072"/>
</g>
<g opacity="0.4">
<path d="M407.552 392.333C418.804 404.847 427.092 420.002 431.536 436.208C426.211 434.491 420.886 432.774 415.54 431.078C413.479 430.412 411.31 429.683 409.786 428.137C407.016 425.282 407.295 420.774 407.595 416.803C408.111 409.398 407.96 401.949 407.102 394.587" fill="#000072"/>
</g>
<path d="M294.741 486.866C291.176 489.613 286.989 489.699 284.005 485.964C271.787 502.471 255.512 503.566 247.932 495.452C246.537 493.949 246.172 491.738 246.945 489.849L248.899 485.02C242.672 485.127 237.841 482.852 233.761 479.331C244.39 468.835 249.006 458.209 248.92 447.541C248.856 438.376 245.356 429.124 239.236 419.873C237.712 417.554 236.016 415.258 234.169 412.918C233.74 412.381 233.289 411.823 232.859 411.286C247.009 398.214 293.688 428.394 301.311 465.357C302.921 475.274 299.378 483.324 294.741 486.866Z" fill="white"/>
<path d="M259.956 504.188C254.095 504.188 248.877 502.041 245.163 498.07C242.779 495.516 242.092 491.738 243.445 488.454L243.488 488.368C239.108 487.509 235.071 485.491 231.292 482.229C230.497 481.542 230.004 480.554 229.982 479.481C229.939 478.429 230.347 477.399 231.099 476.648C250.144 457.801 249.779 437.796 229.939 413.69C228.651 412.145 228.823 409.869 230.304 408.495C235.178 403.988 243.037 403.172 252.42 406.199C273.312 412.917 299.378 437.152 305.025 464.606C305.025 464.649 305.047 464.713 305.047 464.756C307.215 478.107 301.032 488.561 294.139 491.63C290.854 493.09 287.44 492.94 284.563 491.351C277.842 499.079 269.554 503.672 261.374 504.145C260.901 504.166 260.429 504.188 259.956 504.188ZM248.92 481.241C250.165 481.241 251.346 481.864 252.055 482.894C252.785 483.946 252.914 485.277 252.441 486.457L250.487 491.287C250.251 491.845 250.359 492.489 250.724 492.897C253.171 495.516 256.8 496.804 260.944 496.589C267.922 496.181 275.223 491.502 280.977 483.731C281.686 482.787 282.781 482.229 283.962 482.186C285.121 482.186 286.259 482.679 286.989 483.602C288.17 485.084 289.437 485.427 291.09 484.697C294.676 483.109 299.207 476.09 297.618 466.044C292.636 442.089 269.06 419.486 250.122 413.411C245.463 411.908 241.512 411.565 238.614 412.381C247.46 423.972 252.055 434.79 252.678 445.351C253.365 457.071 248.942 468.319 239.515 478.816C242.414 480.511 245.463 481.284 248.856 481.241C248.877 481.241 248.899 481.241 248.92 481.241Z" fill="#000072"/>
<path d="M280.312 485.19C282.545 477.914 283.21 469.993 279.99 462.91C279.109 460.913 281.922 459.368 283.124 461.171C288.106 468.555 288.922 478.15 287.719 486.757C286.818 492.145 278.937 490.471 280.312 485.19Z" fill="#000072"/>
<path d="M236.123 476.368C244.497 481.928 247.524 482.958 256.693 478.15C258.131 477.442 259.785 479.03 259.14 480.49C255.769 489.012 245.162 490.772 237.669 486.629C235.307 485.448 233.224 483.946 231.399 482.314C227.964 479.095 232.215 473.771 236.123 476.368Z" fill="#000072"/>
<g opacity="0.3">
<path d="M239.258 419.872C237.733 417.553 236.037 415.257 234.19 412.917L239.258 419.872Z" fill="#000072"/>
</g>
<g opacity="0.2">
<path d="M294.741 486.865C291.176 489.613 286.989 489.699 284.005 485.964C271.787 502.471 255.512 503.565 247.932 495.451C246.537 493.949 246.172 491.738 246.945 489.849L248.899 485.019C242.672 485.127 237.841 482.851 233.761 479.331C244.39 468.835 249.006 458.209 248.92 447.541C251.196 450.31 253.945 452.65 257.165 454.26C265.775 458.574 276.683 457.308 284.585 462.824C289.909 466.559 292.937 472.87 294.075 479.267C294.547 481.778 294.719 484.311 294.741 486.865Z" fill="#000072"/>
</g>
<path d="M466.47 267.361C464.538 273.736 461.94 280.154 458.461 286.422C427.048 343.241 346.981 346.632 318.38 347.834C296.522 348.757 207.007 352.535 164.128 292.712C163.463 291.789 162.819 290.844 162.175 289.9C150.129 271.933 145.513 253.58 143.688 240.98C142.936 235.764 142.635 231.514 142.507 228.681C140.402 184.87 158.804 142.712 191.14 113.047C258.432 51.3349 360.508 47.1921 429.26 127C441.713 141.446 451.955 157.631 459.299 175.082C462.841 183.475 465.697 192.147 467.801 201.055C470.034 210.607 475.209 238.533 466.47 267.361Z" fill="#8E8FB3"/>
<g opacity="0.3">
<path d="M468.359 203.631C469.519 221.018 467.908 244.715 455.777 266.631C424.364 323.45 344.296 326.841 315.696 328.043C293.495 328.988 201.553 332.873 159.49 270.109C150 255.942 145.126 241.56 142.571 229.926C143.172 240.422 145.813 265.494 162.174 289.9C204.237 352.643 296.157 348.757 318.38 347.834C346.98 346.632 427.048 343.241 458.461 286.422C476.411 253.967 471.344 217.691 468.359 203.631Z" fill="#000072"/>
</g>
<path d="M325.015 306.728C321.279 306.47 317.522 306.47 313.786 306.728C247.761 311.193 253.064 225.997 319.24 219.429C319.283 219.429 319.347 219.429 319.39 219.429C319.433 219.429 319.497 219.429 319.54 219.429C385.737 225.997 391.019 311.193 325.015 306.728Z" fill="white"/>
<path d="M303.243 351.956C217.743 351.956 177.677 319.843 159.04 292.025C146.865 273.843 139.823 252.013 138.728 228.895C136.602 184.527 154.788 141.317 188.585 110.3C224.442 77.3935 269.146 60.7364 314.43 63.3981C359.219 66.0169 399.93 87.1816 432.137 124.553C451.483 147.005 465.096 173.171 471.473 200.218C474.221 211.809 481.608 252.421 461.789 288.29C447.854 313.468 423.183 331.435 388.442 341.652C360.486 349.873 333.196 351.033 318.552 351.655C313.292 351.848 308.181 351.956 303.243 351.956ZM191.14 113.069L193.695 115.859C161.573 145.352 144.289 186.415 146.307 228.509C147.338 250.253 153.929 270.752 165.352 287.796C182.959 314.069 221.093 344.378 303.243 344.378C308.096 344.378 313.077 344.271 318.23 344.056C347.367 342.833 424.772 339.549 455.155 284.598C473.685 251.112 466.685 212.861 464.108 201.935C457.989 176.069 444.956 151.019 426.404 129.468C395.571 93.6856 356.707 73.4439 314 70.9324C270.799 68.3995 228.049 84.3482 193.738 115.838L191.14 113.069Z" fill="#000072"/>
<path d="M251.346 243.749C261.663 243.749 270.027 234.043 270.027 222.07C270.027 210.096 261.663 200.39 251.346 200.39C241.029 200.39 232.666 210.096 232.666 222.07C232.666 234.043 241.029 243.749 251.346 243.749Z" fill="#000072"/>
<path d="M256.671 232.974C259.256 232.974 261.352 229.793 261.352 225.869C261.352 221.945 259.256 218.764 256.671 218.764C254.086 218.764 251.99 221.945 251.99 225.869C251.99 229.793 254.086 232.974 256.671 232.974Z" fill="white"/>
<path d="M382.774 237.588C393.09 237.588 401.454 227.882 401.454 215.908C401.454 203.935 393.09 194.229 382.774 194.229C372.457 194.229 364.093 203.935 364.093 215.908C364.093 227.882 372.457 237.588 382.774 237.588Z" fill="#000072"/>
<path d="M379.789 228.251C382.374 228.251 384.47 225.07 384.47 221.146C384.47 217.222 382.374 214.041 379.789 214.041C377.204 214.041 375.108 217.222 375.108 221.146C375.108 225.07 377.204 228.251 379.789 228.251Z" fill="white"/>
<path d="M299.078 233.36C308.246 226.233 326.025 226.233 336.374 232.072C338.349 233.188 339.337 235.528 338.757 237.717C337.018 244.243 330.727 248.793 322.739 251.97C320.957 252.678 318.982 252.85 317.092 252.442C308.16 250.446 301.053 245.552 297.811 240.336C296.351 238.018 296.931 235.034 299.078 233.36Z" fill="#000072"/>
<path d="M318.295 236.3C323.382 236.3 327.506 235.205 327.506 233.853C327.506 232.502 323.382 231.406 318.295 231.406C313.208 231.406 309.083 232.502 309.083 233.853C309.083 235.205 313.208 236.3 318.295 236.3Z" fill="white"/>
<path d="M319.239 268.842C317.736 268.842 316.469 267.662 316.405 266.138L315.46 246.54C315.374 244.973 316.598 243.642 318.166 243.556C319.733 243.492 321.064 244.694 321.15 246.261L322.095 265.859C322.181 267.426 320.957 268.756 319.39 268.842C319.347 268.842 319.304 268.842 319.239 268.842Z" fill="#000072"/>
<path d="M302.878 272.964C308.611 266.181 318.466 262.274 327.398 264.678C329.009 265.065 330.662 265.751 332.165 266.46C333.84 267.361 335.751 267.662 337.683 267.297C341.097 266.61 343.867 264.013 345.821 260.965C346.272 260.149 347.625 260.6 347.496 261.523C346.83 269.808 337.404 275.497 329.331 272.492C328.171 272.148 326.99 271.783 325.81 271.59C318.702 269.916 310.93 272.341 304.188 274.831C303.071 275.282 302.083 273.844 302.878 272.964Z" fill="#000072"/>
<path d="M319.411 218.463C319.368 218.463 319.304 218.463 319.261 218.463V218.441C319.304 218.463 319.347 218.463 319.411 218.463Z" fill="white"/>
<path d="M319.561 218.463V218.484C319.519 218.484 319.454 218.484 319.411 218.484C319.454 218.463 319.519 218.463 319.561 218.463Z" fill="white"/>
<g opacity="0.3">
<path d="M466.47 267.361C444.956 252.915 421.165 241.796 396.258 234.562C350.416 221.253 301.01 221.017 254.782 232.93C234.019 238.275 213.642 246.153 196.1 258.517C183.26 267.575 171.987 279.188 164.128 292.733C163.463 291.81 162.819 290.865 162.175 289.921C150.129 271.954 145.513 253.601 143.688 241.001C145.878 236.773 148.411 232.716 151.16 228.852C161.874 213.826 175.938 201.57 189.851 189.442C206.599 174.845 223.948 159.927 244.969 152.758C262.404 146.833 281.235 146.64 299.636 147.413C353.744 149.71 407.294 159.82 459.277 175.06C462.82 183.453 465.676 192.125 467.78 201.033C470.034 210.607 475.209 238.533 466.47 267.361Z" fill="#000072"/>
</g>
<path d="M487.77 242.311C485.709 240.637 483.519 238.898 481.157 237.117C467.072 226.384 447.575 213.677 422.668 203.137C400.166 193.628 343.245 170.446 274.128 186.072C255.061 190.387 217.937 198.801 186.824 228.552C183.41 231.815 180.039 235.356 176.797 239.156C172.267 244.458 168.402 249.803 165.074 254.976C157.838 266.266 153.221 276.87 150.237 285.113C147.596 278.652 144.611 270.559 141.777 261.029C141.648 260.6 141.519 260.127 141.39 259.698C139.759 254.031 138.17 247.849 136.795 241.216C133.21 224.001 131.9 208.589 131.9 193.714C131.9 192.684 131.9 191.653 131.921 190.623C131.943 188.348 132.007 186.115 132.093 183.861C132.136 182.767 132.179 181.672 132.222 180.599C132.265 179.697 132.308 178.817 132.372 177.915C132.394 177.422 132.437 176.907 132.458 176.413C132.501 175.64 132.544 174.846 132.608 174.052C132.651 173.472 132.694 172.893 132.737 172.313C132.845 170.703 132.973 169.115 133.102 167.505C133.188 166.41 133.274 165.315 133.381 164.221C133.467 163.126 133.575 162.031 133.682 160.915C133.983 157.76 134.326 154.604 134.648 151.406C135.035 147.886 135.443 144.344 135.851 140.738C138.363 118.671 140.295 102.444 144.031 89.0922C144.955 85.851 145.964 82.76 147.123 79.8192C147.381 79.1323 147.66 78.4669 147.939 77.8015C148.175 77.2434 148.433 76.6638 148.669 76.1057C148.927 75.5262 149.206 74.9252 149.485 74.3456C149.485 74.3241 149.507 74.2812 149.528 74.2597C149.721 73.8304 149.936 73.4011 150.172 72.9718C150.731 71.8556 151.332 70.7609 151.954 69.6876C152.148 69.3227 152.362 68.9578 152.599 68.6144C152.835 68.2065 153.071 67.7987 153.329 67.4123C153.35 67.3909 153.372 67.3479 153.393 67.305C153.737 66.7469 154.102 66.1888 154.467 65.6522C155.884 63.5056 157.451 61.402 159.169 59.2985C159.212 59.1482 163.334 54.4902 168.917 49.3171C169.411 48.8663 169.905 48.4156 170.42 47.9433C170.441 47.9219 170.484 47.9004 170.506 47.8789C170.699 47.7072 170.914 47.514 171.129 47.3208C176.303 42.7487 182.315 38.1552 187.447 36.1589C297.21 -6.06325 390.933 57.7315 390.933 57.7315C408.755 69.8594 423.291 83.8332 435.122 98.5584C440.704 105.47 445.686 112.575 450.13 119.702C453.051 124.36 455.735 129.061 458.204 133.74C459.02 135.264 459.814 136.809 460.566 138.334C473.341 163.791 480.126 188.691 483.712 207.859C486.525 222.885 487.384 234.391 487.684 239.95C487.727 240.916 487.77 241.71 487.77 242.311Z" fill="#6E7189"/>
<g opacity="0.6">
<path d="M162.733 56.3792C163.226 55.9284 163.72 55.4776 164.236 55.0054C164.257 54.9839 164.3 54.9624 164.322 54.941C164.515 54.7693 164.73 54.5761 164.944 54.3829C170.119 49.8108 176.131 45.2172 181.263 43.221C291.004 0.998804 384.728 64.7935 384.728 64.7935C402.549 76.9214 417.085 90.8953 428.916 105.62C434.499 112.532 439.48 119.637 443.925 126.764C446.845 131.422 449.529 136.123 451.998 140.802C452.814 142.326 453.608 143.872 454.36 145.396C467.136 170.853 473.921 195.753 477.506 214.922C479.117 223.508 480.083 230.935 480.684 236.752C480.834 236.88 481.006 236.988 481.156 237.117C483.518 238.898 485.708 240.637 487.77 242.311C487.748 241.71 487.727 240.916 487.684 239.929C487.405 234.39 486.546 222.864 483.712 207.838C480.126 188.67 473.341 163.77 460.565 138.312C459.814 136.788 459.019 135.242 458.203 133.718C455.734 129.039 453.05 124.338 450.13 119.68C445.685 112.554 440.704 105.449 435.121 98.5369C423.269 83.8118 408.754 69.8379 390.933 57.71C390.933 57.71 297.209 -6.08473 187.446 36.1374C182.315 38.1122 176.281 42.7058 171.128 47.2994C170.913 47.4925 170.72 47.6857 170.505 47.8575C170.484 47.8789 170.462 47.9004 170.419 47.9218C169.926 48.3941 169.41 48.8448 168.916 49.2956C163.334 54.4687 159.211 59.1267 159.168 59.277C158.546 60.0282 157.944 60.801 157.365 61.5523C158.911 60.0282 160.714 58.2466 162.733 56.3792Z" fill="white"/>
<path d="M170.591 246.218C166.061 251.52 162.196 256.865 158.868 262.038C154.595 268.692 151.245 275.11 148.604 280.949C149.163 282.387 149.721 283.782 150.258 285.092C153.242 276.849 157.859 266.245 165.095 254.955C167.993 250.425 171.3 245.789 175.1 241.174C173.576 242.805 172.073 244.479 170.591 246.218Z" fill="white"/>
</g>
<path d="M150.258 288.891C148.712 288.891 147.338 287.968 146.758 286.53C140.875 272.127 136.28 257.144 133.124 241.968C124.986 202.923 128.443 172.506 132.115 140.287C136.709 99.9969 139.243 77.7588 156.163 57.0019C156.635 56.3795 157.494 55.3921 159.233 53.5675C160.801 51.9147 163.313 49.3389 166.362 46.5269C174.092 39.3575 180.726 34.6781 186.094 32.6174C243.767 10.4224 296.952 17.5703 331.392 27.4658C368.71 38.1769 392.093 53.9324 393.059 54.5978C431.837 80.9786 460.007 118.822 476.798 167.054C489.316 203.03 491.27 233.639 491.549 242.161C491.592 243.642 490.776 245.016 489.445 245.681C488.114 246.347 486.525 246.175 485.365 245.231C465.74 229.325 444.161 216.317 421.165 206.593C402.141 198.544 344.275 174.052 274.944 189.743C254.374 194.401 211.602 204.082 179.653 241.582C168.53 254.632 159.834 269.701 153.779 286.38C153.243 287.861 151.847 288.848 150.28 288.87C150.301 288.891 150.28 288.891 150.258 288.891ZM162.304 61.4667C162.261 61.5526 162.196 61.617 162.132 61.6814C147.145 79.9912 144.418 99.267 139.63 141.167C136.022 172.743 132.63 202.579 140.531 240.444C142.958 252.057 146.221 263.541 150.301 274.724C156.335 260.772 164.258 248.021 173.92 236.688C207.501 197.256 251.948 187.21 273.312 182.38C345.027 166.153 404.589 191.353 424.171 199.639C445.235 208.547 465.161 220.138 483.519 234.112C480.964 202.408 466.835 113.949 388.829 60.8657C388.593 60.7154 365.275 45.0458 329.074 34.6781C295.793 25.1475 244.454 18.3001 188.843 39.6795C178.729 43.5647 163.914 59.4919 162.304 61.4667Z" fill="#000072"/>
<path d="M265.282 76.2779C260.837 85.3362 255.705 93.6433 249.994 101.221C248.791 102.809 247.589 104.354 246.344 105.878C219.676 138.506 182.315 156.193 147.725 159.542C154.059 137.84 156.206 114.314 159.641 89.6937C159.813 88.5345 159.963 87.3754 160.135 86.2163C160.973 80.4636 162.969 74.8826 166.319 70.0959C167.607 68.2713 168.96 66.6615 170.42 65.2877C185.708 50.6913 210.529 59.3847 236.638 71.3194C239.967 72.8434 243.445 74.0026 247.009 74.7753C249.693 75.3549 252.42 75.7198 255.168 75.8486L265.282 76.2779Z" fill="#6E7189"/>
<g opacity="0.6">
<path d="M163.485 76.9647C164.773 75.1402 166.126 73.5303 167.586 72.1565C182.873 57.5601 207.695 66.2536 233.804 78.1883C237.132 79.7123 240.611 80.8714 244.175 81.6442C246.859 82.2237 249.586 82.5886 252.334 82.7174L254.245 82.8033C258.861 83.0179 263.22 80.5065 265.239 76.3637L265.281 76.2993L255.19 75.8056C252.441 75.6768 249.715 75.3119 247.031 74.7323C243.466 73.9596 239.988 72.8005 236.66 71.2764C210.529 59.3418 185.729 50.6483 170.441 65.2447C168.981 66.6185 167.607 68.2284 166.34 70.0529C164.172 73.1868 162.561 76.6428 161.466 80.2704C162.068 79.1327 162.733 78.038 163.485 76.9647Z" fill="white"/>
</g>
<path d="M458.483 119.251C458.311 132.044 457.087 145.696 455.219 159.863C455.219 159.928 455.219 159.992 455.198 160.035C455.198 160.121 455.176 160.185 455.176 160.271C455.069 161.173 454.94 162.053 454.833 162.954C454.811 162.954 454.79 162.954 454.768 162.954C405.985 154.647 363.944 127.107 345.478 89.994C344.533 88.105 343.653 86.1732 342.837 84.2413C341.205 80.4205 339.852 76.5138 338.757 72.4998L346.637 71.77C351.361 71.3192 355.935 69.881 360.1 67.5842C363.385 65.7812 366.692 64.0425 369.977 62.4111C388.7 53.1167 407.295 46.9132 425.717 44.6808C428.852 44.2944 431.987 44.9384 434.671 46.4839C435.573 46.9991 436.432 47.6216 437.205 48.3514C437.29 48.4372 437.376 48.5016 437.462 48.5875C446.373 57.3024 451.956 68.7434 455.133 82.1806C457.731 93.2996 458.698 105.792 458.483 119.251Z" fill="#6E7189"/>
<g opacity="0.6">
<path d="M346.637 78.8535C351.361 78.4027 355.935 76.9645 360.1 74.6678C363.385 72.8647 366.692 71.126 369.977 69.4946C388.7 60.2002 407.295 53.9967 425.717 51.7643C428.852 51.378 431.987 52.0219 434.671 53.5674C435.573 54.0826 436.432 54.7051 437.205 55.4349C437.291 55.5208 437.376 55.5852 437.462 55.671C446.373 64.3859 451.956 75.8269 455.133 89.2641C457.324 98.5371 458.354 108.755 458.504 119.702C458.504 119.552 458.504 119.38 458.526 119.23C458.719 105.771 457.753 93.2781 455.133 82.1591C451.977 68.7219 446.373 57.2809 437.462 48.566C437.376 48.4802 437.291 48.3943 437.205 48.3299C436.432 47.6001 435.573 46.9776 434.671 46.4624C431.987 44.9169 428.852 44.273 425.717 44.6593C407.295 46.8917 388.7 53.0952 369.977 62.3896C366.692 64.021 363.407 65.7597 360.1 67.5628C355.935 69.8595 351.383 71.2977 346.637 71.7485L338.757 72.4783C338.865 72.9076 338.994 73.3155 339.122 73.7448C340.089 77.0289 343.245 79.1755 346.637 78.8535Z" fill="white"/>
</g>
<path d="M146.587 159.198C151.332 135.049 153.221 110.236 156.485 85.851C157.838 74.6032 164.022 63.3554 174.156 57.71C192.278 48.2224 213.9 57.4739 230.97 64.6863C234.642 66.2318 238.335 68.1636 242.049 69.6018C249.457 72.6069 257.509 72.8645 265.367 74.1954C266.505 74.3885 267.278 75.4833 267.085 76.6209C266.913 77.5869 266.119 78.2952 265.174 78.3596C260.901 78.6387 256.972 78.8319 252.613 78.746C246.58 78.5099 240.568 77.0073 235.028 74.5603C234.234 74.1739 228.952 71.92 228.007 71.4907C208.725 63.4627 179.052 51.7642 167.049 76.256C165.417 79.5617 164.322 83.1678 163.721 86.9243C162.454 95.0381 161.316 103.195 160.114 111.373C158.868 119.573 157.58 127.773 155.776 135.887C154.037 144.022 151.804 152.093 148.82 159.885C148.583 160.486 147.896 160.786 147.295 160.572C146.78 160.335 146.479 159.756 146.587 159.198Z" fill="#000072"/>
<path d="M452.836 162.654C455.713 129.597 460.523 84.2627 439.287 56.5511C437.806 54.6407 436.174 52.859 434.456 51.1848C432.266 49.167 429.174 48.2226 426.233 48.5875C414.638 50.0042 403.279 52.859 392.221 56.7228C383.568 59.7494 375.066 63.3556 366.778 67.434C360.315 70.8684 353.487 74.1526 345.95 73.7447C343.61 73.7233 341.248 73.6589 338.886 73.4442C338.349 73.4013 337.963 72.9291 338.006 72.3924C338.049 71.9846 338.328 71.6411 338.714 71.5338C345.22 69.8166 352.048 69.0868 357.91 65.545C377.342 54.104 398.405 44.8954 420.843 41.3537C421.423 41.2893 424.794 40.7956 425.331 40.7526C427.907 40.4521 430.548 40.7097 433.039 41.5039C435.852 42.384 438.45 43.9939 440.511 46.119C463.293 69.5161 463.099 104.891 460.63 135.243C459.685 144.623 458.44 153.96 456.851 163.212C456.314 165.659 452.664 165.273 452.836 162.654Z" fill="#000072"/>
<g opacity="0.3">
<path d="M163.12 75.3975L160.049 83.4684C160.565 80.635 161.574 77.9089 163.12 75.3975Z" fill="#000072"/>
</g>
<g opacity="0.3">
<path d="M176.174 61.5953C178 61.5953 178 58.7618 176.174 58.7618C174.328 58.7404 174.328 61.5953 176.174 61.5953Z" fill="#000072"/>
</g>
<g opacity="0.3">
<path d="M173.34 64.4076C173.211 64.429 173.104 64.472 172.975 64.4934C173.77 63.4202 174.671 62.4113 175.659 61.4883L173.34 64.4076Z" fill="#000072"/>
</g>
<g opacity="0.3">
<path d="M487.77 242.311C485.709 240.637 483.519 238.898 481.157 237.117C467.072 226.384 447.575 213.677 422.668 203.137C400.166 193.628 343.245 170.446 274.128 186.072C255.061 190.387 217.937 198.801 186.824 228.552C183.41 231.815 180.039 235.357 176.797 239.156C172.267 244.458 168.402 249.803 165.074 254.976C157.838 266.267 153.221 276.87 150.237 285.113C147.596 278.652 144.611 270.56 141.777 261.029C141.648 260.6 141.519 260.128 141.39 259.698C139.759 254.031 138.17 247.849 136.795 241.217C133.21 224.002 131.9 208.59 131.9 193.714C131.9 192.684 131.9 191.653 131.921 190.623C131.943 188.348 132.007 186.115 132.093 183.862C132.136 182.767 132.179 181.672 132.222 180.599C132.265 179.697 132.308 178.817 132.372 177.916C132.394 177.422 132.437 176.907 132.458 176.413C132.501 175.64 132.544 174.846 132.608 174.052C132.651 173.472 132.694 172.893 132.737 172.313C132.845 170.703 132.973 169.115 133.102 167.505C133.188 166.41 133.274 165.316 133.381 164.221C133.467 163.126 133.575 162.031 133.682 160.915C133.983 157.76 134.326 154.604 134.648 151.406C135.035 147.886 135.443 144.344 135.851 140.738C138.363 118.672 140.295 102.444 144.031 89.0924C144.955 85.8512 145.964 82.7602 147.123 79.8195C147.381 79.1326 147.66 78.4671 147.939 77.8017C148.175 77.2436 148.433 76.6641 148.669 76.106C148.927 75.5264 149.206 74.9254 149.485 74.3458C149.485 74.3244 149.507 74.2814 149.528 74.26C149.721 73.8307 149.936 73.4013 150.172 72.972C150.731 71.8558 151.332 70.7611 151.954 69.6879C152.148 69.3229 152.362 68.958 152.599 68.6146C152.835 68.2068 153.071 67.7989 153.329 67.4125C153.35 67.3911 153.372 67.3481 153.393 67.3052C153.737 66.7471 154.102 66.189 154.467 65.6524C152.384 73.6804 152.384 82.3309 154.789 90.2086C156.356 89.8867 157.795 88.6631 158.589 87.2035C159.641 85.2716 159.877 83.0178 160.371 80.8713C162.626 70.6109 170.914 61.9604 181.027 59.127C172.009 66.2749 168.53 79.8624 172.395 90.9385C176.733 103.453 188.864 112.339 201.876 114.915C206.149 115.774 210.464 116.01 214.802 115.752C224.936 115.151 234.706 120.389 239.236 129.447C239.408 129.791 239.58 130.134 239.773 130.477C239.773 130.477 239.795 130.542 239.838 130.585C239.966 130.799 245.571 139.557 256.027 143.12C264.723 146.061 272.882 144.129 275.223 143.593C302.513 137.497 345.478 145.246 367.894 149.281C378.931 151.277 397.181 154.669 418.846 163.963C449.379 177.079 470.722 195.023 483.691 207.86C485.752 218.034 487.148 228.724 487.663 239.95C487.727 240.723 487.749 241.517 487.77 242.311Z" fill="#000072"/>
</g>
<g opacity="0.3">
<path d="M184.827 56.6797C183.475 57.3666 182.208 58.2037 181.027 59.1267C181.478 58.9979 181.929 58.8691 182.38 58.7618L184.827 56.6797Z" fill="#000072"/>
</g>
<path d="M491.184 249.245C491.184 249.159 491.184 249.073 491.163 248.965C491.12 248.236 491.055 247.484 490.991 246.755C490.97 246.347 490.905 245.939 490.862 245.552C490.776 244.801 490.669 244.028 490.562 243.277C490.562 243.256 490.562 243.234 490.562 243.213C483.519 197.32 424.858 166.775 336.782 163.126C324.286 162.611 311.789 163.126 299.378 164.543C208.768 174.932 149.421 208.203 141.949 252.25C141.949 252.25 141.949 252.25 141.949 252.271C141.691 253.838 141.476 255.405 141.348 256.993C141.326 257.401 141.283 257.788 141.262 258.196C141.24 258.603 141.219 259.011 141.197 259.398C141.004 264.313 141.412 269.336 142.485 274.488C143.623 279.918 145.492 285.435 148.09 291.08C149.55 294.214 151.224 297.37 153.157 300.568C161.66 314.649 173.233 326.047 186.416 334.462C187.662 335.256 188.907 336.05 190.152 336.823C191.29 337.531 192.407 338.239 193.545 338.948C197.517 341.416 201.468 343.842 205.397 346.203C206.514 346.868 207.63 347.534 208.725 348.199C209.949 348.929 211.195 349.659 212.44 350.389C213.664 351.119 214.909 351.827 216.133 352.535C217.357 353.244 218.602 353.952 219.826 354.66C222.274 356.056 224.722 357.408 227.169 358.782C227.191 358.782 227.191 358.782 227.212 358.803C229.553 360.091 231.872 361.336 234.191 362.581C235.543 363.311 236.896 364.019 238.249 364.728C239.473 365.372 240.697 366.015 241.92 366.638C242.973 367.196 244.025 367.711 245.077 368.248C245.249 368.334 245.42 368.42 245.592 368.505C266.978 379.324 288.084 388.232 308.89 394.822C309.062 394.865 309.212 394.929 309.384 394.972C310.2 395.23 311.016 395.487 311.811 395.723C312.777 396.024 313.764 396.324 314.731 396.625C323.126 399.115 331.994 398.664 340.11 395.337C342.386 394.393 344.641 393.427 346.917 392.418C347.496 392.16 348.076 391.903 348.656 391.645C351.168 390.507 353.702 389.348 356.214 388.125C356.901 387.803 357.588 387.459 358.275 387.137C360.615 386 362.934 384.819 365.253 383.617C366.22 383.123 367.207 382.608 368.173 382.093C370.192 381.041 372.21 379.946 374.207 378.83C374.98 378.422 375.731 377.993 376.483 377.564C376.483 377.564 376.483 377.564 376.504 377.564C402.292 363.118 428.272 344.786 454.382 323.707C454.919 323.278 455.456 322.827 456.014 322.355C456.057 322.312 456.121 322.269 456.164 322.226C456.701 321.776 457.216 321.325 457.753 320.853C457.882 320.745 458.011 320.616 458.139 320.509C458.741 319.973 459.342 319.436 459.922 318.878C459.986 318.813 460.05 318.77 460.115 318.706C460.544 318.298 460.974 317.89 461.403 317.483C461.725 317.182 462.047 316.86 462.369 316.517C462.799 316.087 463.228 315.658 463.636 315.229C463.765 315.1 463.894 314.95 464.044 314.821C464.602 314.263 465.139 313.683 465.676 313.082C465.762 312.996 465.826 312.932 465.891 312.846C466.363 312.331 466.814 311.816 467.265 311.301C467.587 310.957 467.866 310.614 468.167 310.249C468.424 309.948 468.682 309.648 468.94 309.326C469.262 308.961 469.541 308.596 469.841 308.231C470.249 307.737 470.657 307.222 471.044 306.707C471.13 306.621 471.173 306.535 471.237 306.471C471.774 305.784 472.289 305.097 472.805 304.389C473.277 303.745 473.728 303.101 474.179 302.435C474.522 301.942 474.866 301.448 475.188 300.954C475.381 300.675 475.574 300.396 475.746 300.117C476.111 299.581 476.455 299.065 476.777 298.507C476.97 298.228 477.142 297.971 477.292 297.692C477.657 297.112 478.001 296.532 478.344 295.931C479.976 293.162 481.501 290.265 482.896 287.302C483.412 286.186 483.927 285.07 484.378 283.954C485.924 280.305 487.212 276.742 488.243 273.221C488.565 272.148 488.844 271.096 489.102 270.044C489.187 269.701 489.273 269.336 489.359 268.993C489.638 267.855 489.874 266.717 490.068 265.601C490.111 265.343 490.154 265.086 490.218 264.828C490.347 264.077 490.476 263.326 490.583 262.596C490.776 261.351 490.927 260.127 491.034 258.904C491.098 258.26 491.141 257.594 491.184 256.951C491.184 256.865 491.184 256.779 491.206 256.693C491.27 255.577 491.313 254.482 491.313 253.387V252.829C491.27 251.627 491.249 250.425 491.184 249.245ZM451.29 282.387C450.41 284.662 449.358 286.938 448.134 289.277C442.744 299.538 434.972 308.102 425.825 314.735C395.764 336.501 365.962 354.081 336.524 365.05C330.19 367.411 323.298 367.754 316.749 366.037C284.327 357.58 250.96 342.447 216.97 323.128C206.729 317.311 197.732 309.39 191.162 299.623C188.8 296.146 186.932 292.69 185.493 289.299C180.791 278.266 180.834 267.79 185.042 258.174C188.821 249.524 195.993 241.581 206.106 234.541C227.406 219.751 261.825 208.997 305.562 204.339C315.246 203.309 324.994 202.922 334.721 203.223C390.182 205.048 430.634 219.193 446.91 241.41C448.692 243.835 450.173 246.368 451.376 248.987C455.885 258.925 456.078 270.152 451.29 282.387Z" fill="#6E7189"/>
<path d="M325.123 370.909C322.009 370.909 318.896 370.502 315.826 369.707C285.25 361.744 252.313 347.577 215.124 326.433C204.044 320.123 194.661 311.58 188.027 301.748C177.398 285.971 175.315 270.066 181.993 255.727C195.069 227.65 239.966 207.537 305.154 200.583C315.16 199.509 325.144 199.145 334.828 199.445C394.626 201.42 437.613 217.454 452.729 243.427C460.909 257.487 460.48 273.951 451.483 291.059C446.051 301.405 437.956 310.657 428.058 317.804C395.163 341.631 365.661 358.245 337.855 368.613C333.754 370.137 329.439 370.909 325.123 370.909ZM305.97 208.096C244.411 214.664 200.63 233.661 188.864 258.904C183.303 270.86 185.128 283.846 194.318 297.498C200.308 306.385 208.79 314.112 218.86 319.844C255.469 340.665 287.805 354.574 317.737 362.388C323.555 363.912 329.61 363.611 335.236 361.508C362.398 351.398 391.298 335.084 423.635 311.665C432.588 305.183 439.91 296.833 444.806 287.517C452.643 272.62 453.115 259.076 446.223 247.227C432.653 223.894 390.912 208.868 334.613 207.001C325.252 206.7 315.611 207.065 305.97 208.096Z" fill="#000072"/>
<g opacity="0.6">
<path d="M487.706 239.157C487.706 239.071 487.706 239.006 487.684 238.92C487.641 238.298 487.577 237.654 487.512 237.031C487.491 236.688 487.448 236.345 487.383 236.001C487.298 235.357 487.19 234.692 487.083 234.048C487.083 234.026 487.083 234.005 487.083 233.983C480.19 194.681 422.732 168.514 336.481 165.402C324.242 164.951 312.003 165.402 299.85 166.604C211.108 175.512 152.985 203.996 145.663 241.732C145.663 241.732 145.663 241.732 145.663 241.754C145.405 243.085 145.212 244.437 145.062 245.811C145.04 246.154 144.997 246.498 144.976 246.841C144.954 247.185 144.933 247.528 144.911 247.871C144.804 250.125 144.89 252.401 145.126 254.719C145.255 253.538 145.427 252.379 145.663 251.22C145.663 251.22 145.663 251.22 145.663 251.199C152.985 213.484 211.108 184.978 299.85 176.07C312.003 174.847 324.242 174.417 336.481 174.868C422.732 178.002 480.19 204.147 487.083 243.45C487.083 243.471 487.083 243.493 487.083 243.514C487.19 244.158 487.298 244.823 487.383 245.467C487.426 245.811 487.469 246.154 487.512 246.498C487.534 246.648 487.534 246.82 487.555 246.97C487.598 246.562 487.62 246.176 487.663 245.768C487.663 245.703 487.663 245.618 487.684 245.532C487.748 244.587 487.791 243.643 487.791 242.698V242.226C487.77 241.196 487.77 240.165 487.706 239.157Z" fill="white"/>
</g>
<path d="M325.66 402.013C321.666 402.013 317.651 401.434 313.7 400.253C274.493 388.662 232.215 368.162 184.419 337.639C170.313 328.623 158.396 316.474 149.936 302.5C135.657 278.888 133.532 255.384 143.795 234.477C162.282 196.827 218.838 169.952 298.97 160.744C311.767 159.284 324.543 158.79 336.975 159.305C410.322 162.354 464.473 183.969 485.537 218.592C497.991 239.049 498.27 263.348 486.353 288.87C479.547 303.466 469.347 316.495 456.851 326.584C414.853 360.521 377.148 384.133 341.613 398.793C336.438 400.961 331.049 402.013 325.66 402.013ZM299.829 168.299C261.545 172.7 227.663 181.479 201.833 193.693C176.647 205.606 158.933 220.868 150.602 237.825C141.412 256.543 143.366 276.999 156.42 298.572C164.279 311.558 175.358 322.849 188.499 331.242C235.672 361.379 277.327 381.578 315.847 392.976C323.469 395.23 331.371 394.822 338.693 391.796C373.541 377.414 410.623 354.167 452.041 320.703C463.636 311.344 473.105 299.216 479.439 285.671C490.39 262.231 490.239 241.002 479.01 222.542C459.277 190.108 407.38 169.823 336.632 166.883C324.607 166.41 312.218 166.883 299.829 168.299Z" fill="#000072"/>
<g opacity="0.3">
<path d="M487.77 261.566V262.918C487.77 263.991 487.727 265.108 487.663 266.181C487.641 266.267 487.641 266.353 487.641 266.439C487.598 267.082 487.555 267.726 487.491 268.37C487.384 269.594 487.233 270.796 487.04 272.041C486.933 272.771 486.825 273.501 486.697 274.252C486.654 274.509 486.611 274.767 486.546 275.025C486.353 276.141 486.117 277.257 485.859 278.373C485.773 278.717 485.687 279.06 485.602 279.404C485.365 280.455 485.086 281.507 484.764 282.559C484.635 283.01 484.506 283.482 484.356 283.933C483.884 285.049 483.39 286.165 482.875 287.281C481.479 290.265 479.954 293.141 478.323 295.91C477.979 296.49 477.636 297.091 477.271 297.67C477.099 297.95 476.948 298.229 476.755 298.486C476.433 299.023 476.09 299.559 475.725 300.096C475.553 300.375 475.36 300.654 475.166 300.933C474.844 301.427 474.522 301.921 474.157 302.414C473.706 303.058 473.234 303.724 472.783 304.368C472.268 305.076 471.752 305.763 471.216 306.45C471.151 306.536 471.108 306.621 471.022 306.686C470.636 307.201 470.228 307.695 469.82 308.21C469.541 308.575 469.24 308.94 468.918 309.305C468.682 309.627 468.424 309.927 468.145 310.228C467.866 310.571 467.565 310.936 467.243 311.279C466.792 311.795 466.341 312.31 465.869 312.825C465.805 312.911 465.74 312.975 465.654 313.061C465.118 313.641 464.581 314.22 464.023 314.8C463.894 314.95 463.765 315.079 463.615 315.208C463.207 315.637 462.777 316.066 462.348 316.495C462.026 316.839 461.704 317.139 461.382 317.461C460.952 317.869 460.523 318.299 460.093 318.685C460.029 318.749 459.964 318.814 459.9 318.857C459.32 319.415 458.719 319.951 458.118 320.488C457.989 320.595 457.86 320.724 457.731 320.831C457.216 321.304 456.679 321.754 456.142 322.205C456.1 322.248 456.035 322.291 455.992 322.334C455.455 322.806 454.919 323.236 454.36 323.686C428.251 344.765 402.27 363.097 376.483 377.543C376.483 377.543 376.483 377.543 376.461 377.543C375.71 377.972 374.937 378.401 374.185 378.809C372.167 379.925 370.149 380.999 368.152 382.072C367.186 382.587 366.198 383.102 365.232 383.596C362.913 384.798 360.572 385.979 358.253 387.116C357.566 387.438 356.879 387.782 356.192 388.104C353.68 389.327 351.146 390.486 348.634 391.624C348.054 391.881 347.475 392.139 346.895 392.397C344.619 393.405 342.364 394.371 340.088 395.316C331.972 398.664 323.126 399.115 314.709 396.604C313.743 396.325 312.755 396.024 311.789 395.702C310.973 395.466 310.157 395.209 309.363 394.951C309.191 394.908 309.041 394.844 308.869 394.801C288.063 388.232 266.956 379.303 245.57 368.484C245.399 368.398 245.227 368.313 245.055 368.227C244.003 367.69 242.951 367.175 241.899 366.617C240.675 365.994 239.451 365.35 238.227 364.706C236.874 363.998 235.522 363.29 234.169 362.56C231.85 361.315 229.531 360.048 227.191 358.782C227.191 358.782 227.169 358.761 227.148 358.761C224.722 357.408 222.274 356.034 219.805 354.639C218.581 353.931 217.335 353.223 216.111 352.514C214.888 351.806 213.642 351.076 212.418 350.368C211.194 349.638 209.949 348.908 208.704 348.178C207.587 347.534 206.471 346.847 205.376 346.182C201.425 343.821 197.474 341.395 193.523 338.927C192.385 338.218 191.269 337.51 190.131 336.802C188.885 336.007 187.64 335.235 186.395 334.44C173.211 326.005 161.638 314.607 153.135 300.547C151.203 297.37 149.507 294.193 148.068 291.059C147.274 288.634 146.651 286.208 146.157 283.804C145.105 278.717 144.697 273.737 144.89 268.864C144.912 268.456 144.933 268.07 144.955 267.662C144.976 267.254 145.019 266.868 145.04 266.481C145.169 264.914 145.363 263.348 145.62 261.802C147.123 271.054 150.709 280.649 156.614 290.501C157.43 291.875 158.31 293.249 159.19 294.579C161.788 298.465 167.822 296.812 167.972 292.111C168.208 284.491 170.635 276.742 174.671 270.367C177.57 265.816 181.091 261.781 184.999 258.131C180.791 267.748 180.748 278.223 185.45 289.256C186.631 295.524 189.379 302.028 193.824 308.704C200.265 318.384 209.069 326.219 219.117 331.972C252.398 351.119 285.1 366.123 316.856 374.495C323.255 376.19 330.018 375.847 336.224 373.507C365.038 362.646 394.24 345.216 423.677 323.665C432.61 317.097 440.232 308.618 445.514 298.443C448.413 292.884 450.302 287.496 451.268 282.344C456.057 270.109 455.863 258.861 451.333 248.944C460.05 254.225 466.621 263.348 469.369 273.35C469.648 274.359 469.884 275.39 470.099 276.42C471.065 281.099 477.442 281.851 479.439 277.536C479.461 277.472 479.482 277.429 479.525 277.364C483.454 268.864 485.924 260.664 487.062 252.83C487.062 252.851 487.062 252.872 487.062 252.894C487.169 253.645 487.276 254.397 487.362 255.148C487.405 255.534 487.448 255.942 487.47 256.328C487.534 257.058 487.598 257.788 487.641 258.518C487.77 259.57 487.77 260.557 487.77 261.566Z" fill="#000072"/>
</g>
<g opacity="0.3">
<path d="M452.815 117.341C452.643 130.134 451.483 143.786 449.744 157.953C449.744 158.018 449.744 158.082 449.723 158.125C449.315 158.018 448.928 157.91 448.542 157.803C433.018 153.36 417.73 146.877 404.267 137.69C396.473 132.388 396.967 120.325 404.89 115.259C405.276 115.023 405.641 114.765 406.006 114.508C413.328 109.356 418.782 101.779 425.181 95.3822C428.852 91.7116 432.91 88.3201 435.337 83.6192C438.278 77.9524 438.429 71.0191 436.947 64.7298C435.466 58.4619 432.502 52.6878 429.432 47.1068H430.527C431.279 46.8492 432.009 46.6131 432.76 46.4414C432.76 46.4414 432.76 46.4414 432.782 46.4414C441.306 55.1778 446.631 66.7046 449.637 80.2706C452.085 91.4111 452.986 103.904 452.815 117.341Z" fill="#000072"/>
</g>
<path d="M226.59 586.207H521.846C526.161 586.207 529.683 582.686 529.683 578.372V577.299C529.683 572.984 526.161 569.464 521.846 569.464H226.59C222.274 569.464 218.752 572.984 218.752 577.299V578.372C218.774 582.686 222.295 586.207 226.59 586.207Z" fill="#AE88DD"/>
<g opacity="0.7">
<path d="M521.846 569.484H226.59C222.274 569.484 218.752 573.005 218.752 577.319V578.392C218.752 579.38 218.946 580.303 219.268 581.183C220.406 578.242 223.24 576.139 226.568 576.139H521.824C525.152 576.139 528.008 578.242 529.124 581.183C529.447 580.324 529.64 579.38 529.64 578.392V577.319C529.683 573.005 526.14 569.484 521.846 569.484Z" fill="white"/>
</g>
<g opacity="0.3">
<path d="M521.846 578.393H226.59C223.884 578.393 221.479 576.998 220.062 574.895C219.225 576.14 218.752 577.621 218.752 579.209V580.282C218.752 584.597 222.274 588.117 226.59 588.117H521.846C526.161 588.117 529.683 584.597 529.683 580.282V579.209C529.683 577.621 529.189 576.118 528.373 574.895C526.956 576.998 524.551 578.393 521.846 578.393Z" fill="#000072"/>
</g>
<path d="M348.892 569.485H500.61C505.721 569.485 510.509 567.103 513.429 563.089C513.493 563.003 513.558 562.917 513.601 562.853C515.318 560.47 516.693 557.894 517.809 555.189L559.593 453.208C560.516 450.954 561.225 448.636 561.547 446.232C562.663 438.182 559.936 432.108 554.483 427.471C551.562 424.981 547.762 423.65 543.876 423.65H392.351C389.688 423.65 387.047 424.166 384.685 425.368C381.529 426.956 379.06 429.467 377.17 432.687C376.547 433.718 376.054 434.834 375.603 435.929L333.175 540.013C332.488 541.688 331.908 543.427 331.543 545.208C330.169 551.905 331.307 558.087 335.923 563.604C339.058 567.36 343.868 569.485 348.892 569.485Z" fill="#AE88DD"/>
<g opacity="0.3">
<path d="M348.892 569.485H500.61C505.721 569.485 510.509 567.103 513.429 563.089C513.493 563.003 513.558 562.917 513.601 562.853C515.318 560.47 516.693 557.894 517.809 555.189L559.593 453.208C560.516 450.954 561.225 448.636 561.547 446.232C562.663 438.182 559.936 432.108 554.483 427.471C551.562 424.981 547.762 423.65 543.876 423.65H392.351C389.688 423.65 387.047 424.166 384.685 425.368C381.529 426.956 379.06 429.467 377.17 432.687C376.547 433.718 376.054 434.834 375.603 435.929L333.175 540.013C332.488 541.688 331.908 543.427 331.543 545.208C330.169 551.905 331.307 558.087 335.923 563.604C339.058 567.36 343.868 569.485 348.892 569.485Z" fill="#000072"/>
</g>
<path d="M521.846 590.006H226.59C220.191 590.006 214.974 584.79 214.974 578.393V577.32C214.974 570.923 220.191 565.707 226.59 565.707H521.846C528.244 565.707 533.462 570.923 533.462 577.32V578.393C533.462 584.79 528.244 590.006 521.846 590.006ZM226.59 573.284C224.357 573.284 222.553 575.087 222.553 577.32V578.393C222.553 580.625 224.357 582.428 226.59 582.428H521.846C524.079 582.428 525.882 580.625 525.882 578.393V577.32C525.882 575.087 524.079 573.284 521.846 573.284H226.59Z" fill="#000072"/>
<path d="M352.177 589.233L347.625 583.18C348.806 582.278 349.622 580.539 349.751 578.608C349.837 577.212 349.644 574.508 347.26 572.211L352.542 566.78C355.87 570 357.61 574.508 357.33 579.101C357.051 583.223 355.119 587.022 352.177 589.233Z" fill="#000072"/>
<path d="M500.61 573.284H348.892C342.644 573.284 336.868 570.644 333.003 566.029C327.893 559.911 326.132 552.656 327.828 544.435C328.215 542.589 328.795 540.679 329.654 538.575L372.081 434.49C372.683 433.009 373.262 431.828 373.907 430.733C376.247 426.784 379.317 423.822 382.989 421.976C385.737 420.58 388.98 419.851 392.372 419.851H543.897C548.728 419.851 553.388 421.525 556.952 424.573C563.737 430.326 566.571 437.796 565.326 446.747C564.961 449.301 564.252 451.877 563.114 454.624L521.331 556.606C520.085 559.654 518.518 562.487 516.693 565.042L516.499 565.321C512.871 570.301 506.945 573.284 500.61 573.284ZM392.372 427.449C390.161 427.449 388.099 427.9 386.424 428.759C384.02 429.961 382.066 431.893 380.455 434.619C380.004 435.37 379.596 436.25 379.124 437.366L336.675 541.43C335.988 543.083 335.537 544.564 335.258 545.938C334.055 551.84 335.215 556.82 338.822 561.135C341.205 563.968 344.963 565.664 348.892 565.664H500.61C504.518 565.664 508.168 563.861 510.359 560.813L510.487 560.641C511.99 558.538 513.279 556.219 514.288 553.708L556.072 451.726C556.952 449.58 557.51 447.584 557.789 445.673C558.67 439.298 556.845 434.426 552.035 430.326C549.823 428.437 546.925 427.406 543.876 427.406H392.372V427.449Z" fill="#000072"/>
<path d="M576.964 446.232C576.642 448.614 575.911 450.954 574.988 453.208L532.968 555.189C531.852 557.873 530.456 560.47 528.738 562.853C528.674 562.938 528.61 563.024 528.567 563.089C525.625 567.124 520.794 569.485 515.662 569.485H363.085C358.039 569.485 353.208 567.36 350.03 563.604C348.699 562.015 347.668 560.384 346.874 558.71C344.941 554.503 344.641 549.995 345.629 545.208C345.994 543.427 346.573 541.709 347.26 540.014L357.374 515.328L358.812 511.83L389.924 435.929C390.397 434.812 390.891 433.718 391.513 432.687C393.424 429.467 395.894 426.978 399.071 425.368C401.433 424.187 404.096 423.672 406.78 423.672H559.142C561.461 423.672 563.759 424.144 565.841 425.046C565.841 425.046 565.863 425.046 565.884 425.046C567.301 425.668 568.633 426.484 569.814 427.471C573.27 430.39 575.654 433.868 576.62 438.075C577.264 440.522 577.393 443.248 576.964 446.232Z" fill="#AE88DD"/>
<g opacity="0.7">
<path d="M352.907 566.051C350.975 561.844 350.674 557.336 351.662 552.549C352.027 550.768 352.607 549.05 353.294 547.355L363.407 522.67L364.846 519.171L395.958 443.27C396.43 442.153 396.924 441.059 397.547 440.028C399.458 436.809 401.927 434.319 405.105 432.709C407.467 431.528 410.129 431.013 412.813 431.013H565.176C567.495 431.013 569.792 431.485 571.875 432.387C571.875 432.387 571.896 432.387 571.918 432.387C573.163 432.923 574.323 433.632 575.396 434.469C574.151 431.829 572.283 429.51 569.856 427.471C568.676 426.484 567.344 425.668 565.927 425.046C565.927 425.046 565.906 425.046 565.884 425.046C563.801 424.144 561.504 423.672 559.185 423.672H406.823C404.139 423.672 401.476 424.187 399.114 425.368C395.937 426.978 393.467 429.467 391.556 432.687C390.934 433.718 390.44 434.812 389.967 435.929L358.855 511.83L357.416 515.328L347.303 540.014C346.616 541.688 346.015 543.427 345.672 545.208C344.684 549.995 344.984 554.503 346.917 558.71C347.69 560.406 348.742 562.037 350.073 563.604C350.954 564.634 351.963 565.536 353.058 566.33C352.993 566.223 352.95 566.137 352.907 566.051Z" fill="white"/>
</g>
<path d="M515.662 573.284H363.085C356.815 573.284 350.996 570.644 347.131 566.05C341.978 559.933 340.239 552.656 341.914 544.456C342.3 542.61 342.901 540.7 343.76 538.596L386.424 434.511C387.025 433.03 387.605 431.85 388.249 430.755C390.611 426.805 393.682 423.843 397.375 421.997C400.123 420.623 403.387 419.894 406.779 419.894H559.142C563.994 419.894 568.654 421.568 572.261 424.594C579.089 430.369 581.923 437.817 580.678 446.768C580.313 449.322 579.604 451.898 578.466 454.646L536.446 556.627C535.179 559.675 533.612 562.53 531.787 565.063L531.594 565.321C527.986 570.301 522.017 573.284 515.662 573.284ZM406.822 427.449C404.589 427.449 402.528 427.9 400.81 428.759C398.405 429.961 396.43 431.893 394.798 434.619C394.347 435.37 393.918 436.25 393.467 437.366L350.803 541.451C350.116 543.104 349.665 544.585 349.364 545.959C348.14 551.862 349.321 556.842 352.95 561.156C355.333 563.99 359.134 565.707 363.106 565.707H515.683C519.613 565.707 523.306 563.904 525.517 560.856L525.646 560.684C527.171 558.559 528.459 556.241 529.489 553.729L571.509 451.748C572.39 449.601 572.969 447.605 573.227 445.695C574.107 439.32 572.282 434.447 567.43 430.369C565.197 428.48 562.277 427.449 559.206 427.449H406.822Z" fill="#000072"/>
<g opacity="0.3">
<path d="M499.451 480.791C501.619 484.504 503.788 490.235 500.932 496.332C499.923 498.435 498.055 500.002 495.779 500.603C495.135 500.775 494.448 500.861 493.782 500.882C492.086 500.904 490.411 500.388 488.994 499.401C486.718 497.791 484.657 495.967 482.832 493.949C482.445 495.537 481.35 496.911 479.74 497.598C479.096 497.877 478.409 498.006 477.743 498.027C475.789 498.049 473.921 496.976 472.976 495.151C472.44 496.267 471.516 497.19 470.271 497.705C469.627 497.984 468.961 498.113 468.296 498.135C466.213 498.156 464.194 496.933 463.336 494.872L460.437 487.982L460.308 492.318C460.222 494.657 459.17 496.868 457.367 498.392C455.885 499.637 454.038 500.324 452.127 500.346C451.719 500.346 451.333 500.324 450.925 500.281C442.701 499.165 436.303 494.657 432.867 487.595C430.591 482.894 430.849 477.335 433.576 472.677C437.376 466.151 442.959 461.944 450.131 460.141C452.793 459.476 455.563 460.077 457.732 461.837C459.879 463.576 461.103 466.237 461.017 469.006L460.866 473.6L466.599 465.529C468.296 463.146 471.602 462.567 473.986 464.262C474.758 464.799 475.338 465.529 475.703 466.345L476.154 465.636C477.722 463.168 481.007 462.438 483.455 464.026C484.292 464.563 484.915 465.271 485.323 466.087C486.461 465.057 487.641 464.134 488.865 463.318C490.819 462.009 493.224 461.601 495.479 462.202C497.712 462.803 499.58 464.305 500.61 466.366C502.328 469.693 503.273 474.78 499.451 480.791Z" fill="#000072"/>
<path d="M455.563 468.813L454.833 492.167C454.768 493.927 453.222 495.258 451.483 495.022C445.02 494.142 440.125 490.707 437.484 485.255C435.938 482.1 436.217 478.365 437.999 475.317C441.112 469.993 445.557 466.688 451.247 465.25C453.48 464.692 455.627 466.495 455.563 468.813Z" fill="#000072"/>
<path d="M480.62 480.726C483.733 474.995 487.384 470.552 491.699 467.654C493.074 466.731 494.985 467.182 495.715 468.663C497.475 472.226 496.788 476.176 492.773 480.662C496.187 485.255 498.034 489.763 495.972 494.142C495.242 495.687 493.267 496.117 491.871 495.129C486.804 491.545 483.025 486.758 480.62 480.726Z" fill="#000072"/>
<path d="M477.507 492.725L472.525 480.877L480.47 468.427" fill="#000072"/>
<path d="M468.059 492.833L462.648 479.975L470.765 468.534" fill="#000072"/>
<path d="M447.103 480.662C448.834 480.662 450.238 479.259 450.238 477.528C450.238 475.798 448.834 474.395 447.103 474.395C445.372 474.395 443.968 475.798 443.968 477.528C443.968 479.259 445.372 480.662 447.103 480.662Z" fill="#000072"/>
</g>
<path d="M499.451 477.957C501.619 481.67 503.788 487.401 500.932 493.498C499.923 495.601 498.055 497.168 495.779 497.769C495.135 497.941 494.448 498.027 493.782 498.048C492.086 498.07 490.411 497.555 488.994 496.567C486.718 494.957 484.657 493.133 482.832 491.115C482.445 492.703 481.35 494.077 479.74 494.764C479.096 495.043 478.409 495.172 477.743 495.193C475.789 495.215 473.921 494.142 472.976 492.317C472.44 493.433 471.516 494.356 470.271 494.871C469.627 495.15 468.961 495.279 468.296 495.301C466.213 495.322 464.194 494.099 463.336 492.038L460.437 485.148L460.308 489.484C460.222 491.823 459.17 494.034 457.367 495.558C455.885 496.803 454.038 497.49 452.127 497.512C451.719 497.512 451.333 497.49 450.925 497.447C442.701 496.331 436.303 491.823 432.867 484.761C430.591 480.06 430.849 474.501 433.576 469.843C437.376 463.317 442.959 459.11 450.131 457.307C452.793 456.642 455.563 457.243 457.732 459.003C459.879 460.742 461.103 463.403 461.017 466.172L460.866 470.766L466.599 462.695C468.296 460.312 471.602 459.733 473.986 461.429C474.758 461.965 475.338 462.695 475.703 463.511L476.154 462.802C477.722 460.334 481.007 459.604 483.455 461.192C484.292 461.729 484.915 462.437 485.323 463.253C486.461 462.223 487.641 461.3 488.865 460.484C490.819 459.175 493.224 458.767 495.479 459.368C497.712 459.969 499.58 461.471 500.61 463.532C502.328 466.838 503.273 471.946 499.451 477.957Z" fill="white"/>
<path d="M451.87 494.571C451.634 494.571 451.398 494.55 451.161 494.528C443.947 493.541 438.343 489.613 435.337 483.452C433.49 479.653 433.705 475.102 435.938 471.281C439.331 465.464 444.29 461.708 450.668 460.119C452.45 459.69 454.275 460.077 455.713 461.236C457.173 462.416 457.968 464.155 457.925 466.022L457.195 489.377C457.152 490.901 456.465 492.317 455.305 493.305C454.339 494.12 453.115 494.571 451.87 494.571ZM452.085 464.692C451.999 464.692 451.913 464.692 451.827 464.735C446.674 466.022 442.809 468.942 440.039 473.686C438.622 476.133 438.45 479.009 439.61 481.392C441.929 486.157 446.137 489.076 451.806 489.849C451.999 489.87 452.149 489.784 452.235 489.72C452.321 489.656 452.45 489.505 452.45 489.269L453.18 465.915C453.201 465.378 452.879 465.078 452.729 464.949C452.621 464.82 452.385 464.692 452.085 464.692Z" fill="#FF8D06"/>
<path d="M480.62 480.318C480.599 480.318 480.577 480.318 480.556 480.318L455.155 479.61C453.845 479.567 452.814 478.472 452.857 477.184C452.9 475.897 453.952 474.888 455.219 474.888C455.241 474.888 455.262 474.888 455.284 474.888L480.684 475.596C481.994 475.639 483.025 476.734 482.982 478.022C482.939 479.288 481.887 480.318 480.62 480.318Z" fill="#FF8D06"/>
<path d="M493.525 495.15C492.451 495.15 491.399 494.828 490.497 494.184C485.022 490.342 480.964 485.147 478.409 478.751C478.151 478.107 478.194 477.355 478.516 476.733C481.887 470.529 485.859 465.85 490.347 462.823C491.592 461.986 493.117 461.729 494.577 462.115C495.994 462.48 497.175 463.446 497.819 464.755C499.902 468.984 499.215 473.384 495.758 477.914C497.819 480.94 500.803 486.564 498.098 492.295C497.475 493.626 496.294 494.613 494.834 495C494.426 495.086 493.975 495.15 493.525 495.15ZM483.24 478.021C485.473 483.087 488.822 487.208 493.224 490.32C493.396 490.449 493.589 490.406 493.632 490.406C493.761 490.363 493.804 490.299 493.804 490.277C495.221 487.272 494.319 483.859 490.862 479.223C490.196 478.321 490.239 477.055 490.991 476.218C495.156 471.581 494.448 468.662 493.567 466.859C493.525 466.773 493.46 466.73 493.353 466.687C493.288 466.666 493.138 466.644 492.988 466.752C489.402 469.199 486.117 472.977 483.24 478.021Z" fill="#FF8D06"/>
<path d="M477.507 492.253C476.584 492.253 475.703 491.716 475.317 490.793L470.336 478.945C470.035 478.236 470.099 477.399 470.529 476.755L478.473 464.305C479.182 463.211 480.642 462.889 481.737 463.576C482.832 464.284 483.154 465.744 482.467 466.838L475.188 478.236L479.697 488.947C480.213 490.149 479.633 491.545 478.43 492.06C478.13 492.189 477.829 492.253 477.507 492.253Z" fill="#FF8D06"/>
<path d="M468.06 492.36C467.136 492.36 466.256 491.824 465.869 490.901L460.459 478.043C460.137 477.292 460.244 476.433 460.716 475.746L468.833 464.305C469.584 463.232 471.066 462.996 472.139 463.747C473.213 464.498 473.47 465.979 472.697 467.053L465.354 477.42L470.25 489.076C470.765 490.278 470.185 491.673 468.983 492.167C468.682 492.317 468.36 492.36 468.06 492.36Z" fill="#FF8D06"/>
<path d="M447.103 477.828C448.834 477.828 450.238 476.425 450.238 474.694C450.238 472.964 448.834 471.561 447.103 471.561C445.372 471.561 443.968 472.964 443.968 474.694C443.968 476.425 445.372 477.828 447.103 477.828Z" fill="#FF8D06"/>
<g opacity="0.3">
<path d="M565.411 436.465C551.283 466.731 526.14 496.696 492.408 520.308C442.68 555.125 387.004 567.231 345.886 556.219C346.143 557.142 346.465 558.066 346.873 558.946C347.625 560.598 348.613 562.187 349.901 563.732C352.928 567.403 357.566 569.485 362.419 569.485H508.726C513.643 569.485 518.26 567.167 521.094 563.217C521.158 563.153 521.201 563.067 521.266 562.981C522.919 560.663 524.25 558.13 525.324 555.511L565.626 455.912C566.528 453.723 567.194 451.448 567.516 449.108C567.924 446.189 567.816 443.548 567.236 441.144C566.829 439.449 566.206 437.903 565.411 436.465Z" fill="#000072"/>
</g>
</g>
<defs>
<clipPath id="clip0_237_3931">
<rect width="581" height="581" fill="white" transform="translate(0 18)"/>
</clipPath>
</defs>
</svg>
