<svg width="626" height="617" viewBox="0 0 626 617" fill="none" xmlns="http://www.w3.org/2000/svg">
<ellipse cx="313" cy="299.5" rx="313" ry="299.5" fill="#B0A2D7"/>
<g clip-path="url(#clip0_267_4584)">
<path d="M546.297 435.017C543.454 446.545 538.971 458.183 532.062 468.794C519.882 487.527 500.18 503.007 468.692 508.815C460.382 510.365 451.242 511.216 441.227 511.304L442.714 485.693C442.714 485.693 490.471 478.619 503.416 416.917C505.472 407.114 506.652 395.935 506.63 383.184C506.609 376.329 509.692 369.735 515.202 365.652C515.574 365.39 515.946 365.128 516.339 364.866C530.356 355.631 549.161 365.368 550.32 382.115C551.261 395.215 551.282 414.93 546.297 435.017Z" fill="white"/>
<path d="M532.062 468.815C519.882 487.549 500.18 503.029 468.692 508.836Z" fill="#777781"/>
<path d="M546.297 435.017C525.261 443.554 511.835 431.982 503.416 416.917C505.471 407.114 506.652 395.935 506.63 383.184C506.609 376.329 509.692 369.735 515.202 365.652C515.574 365.39 515.946 365.128 516.339 364.866C530.356 355.631 549.161 365.368 550.32 382.115C551.261 395.215 551.282 414.93 546.297 435.017Z" fill="#FFA502"/>
<g opacity="0.3">
<path d="M550.364 382.115C549.402 368.381 536.566 359.364 524.233 361.678C527.929 365.303 530.443 370.237 530.837 376.023C531.756 389.123 531.756 408.839 526.792 428.926C523.949 440.454 519.466 452.091 512.556 462.702C500.377 481.435 480.675 496.915 449.186 502.723C446.759 503.182 444.245 503.553 441.686 503.902L441.249 511.304C451.264 511.238 460.404 510.365 468.714 508.815C500.202 503.007 519.882 487.505 532.084 468.794C538.993 458.183 543.476 446.524 546.319 435.017C551.283 414.93 551.261 395.215 550.364 382.115Z" fill="#262F6A"/>
</g>
<path d="M441.227 515.496C440.09 515.496 438.996 515.037 438.209 514.208C437.422 513.378 437.007 512.243 437.072 511.085L438.559 485.475C438.668 483.51 440.155 481.894 442.102 481.588C442.386 481.545 457.518 479.034 472.365 465.89C492.133 448.358 502.563 419.777 502.476 383.228C502.454 374.909 506.303 367.093 512.753 362.333C513.191 362.028 513.628 361.7 514.065 361.416C521.762 356.329 531.362 355.761 539.737 359.888C548.331 364.124 553.863 372.333 554.519 381.853C556.224 406.459 554.759 452.397 525.808 483.619C506.412 504.514 477.963 515.256 441.271 515.518C441.249 515.496 441.249 515.496 441.227 515.496ZM446.715 489.099L445.666 507.068C477.81 506.042 502.694 496.239 519.685 477.942C546.516 449.034 547.806 405.695 546.188 382.42C545.728 375.892 541.945 370.281 536.041 367.355C530.356 364.56 523.862 364.932 518.657 368.359C518.329 368.578 518.001 368.796 517.695 369.036C513.366 372.224 510.785 377.53 510.807 383.206C510.916 432.812 492.745 459.143 477.504 472.484C465.018 483.379 452.532 487.614 446.715 489.099Z" fill="#262F6A"/>
<path d="M508.664 608.201C503.066 611.323 496.703 612.83 490.318 612.83H127.263C120.856 612.83 114.493 611.323 108.895 608.201C67.1952 584.883 65.6426 528.356 96.0594 511.391C116.92 499.732 141.499 517.941 141.499 517.941C145.763 513.771 151.229 510.758 156.63 508.574C167.28 504.295 177.579 503.313 177.579 503.313C177.579 480.016 180.618 460.65 185.735 444.537C214.424 354.67 308.758 366.416 308.758 366.416C308.758 366.416 439.937 350.085 439.937 503.313C439.937 503.313 463.378 505.54 476.017 517.941C476.017 517.941 500.617 499.732 521.456 511.391C551.917 528.356 550.386 584.883 508.664 608.201Z" fill="white"/>
<path d="M133.978 592.154C142.443 588.399 145.725 577.306 141.307 567.377C136.889 557.448 126.445 552.443 117.98 556.198C109.515 559.953 106.234 571.046 110.651 580.975C115.069 590.904 125.513 595.909 133.978 592.154Z" fill="#F490B2"/>
<path d="M100.071 566.272C104.453 564.329 106.152 558.59 103.867 553.455C101.583 548.319 96.1784 545.732 91.7967 547.676C87.4151 549.619 85.7153 555.358 88.0001 560.493C90.285 565.629 95.6893 568.216 100.071 566.272Z" fill="#F490B2"/>
<path d="M140.563 550.308C144.944 548.364 146.644 542.625 144.359 537.49C142.074 532.355 136.67 529.767 132.288 531.711C127.907 533.654 126.207 539.393 128.492 544.528C130.777 549.664 136.181 552.251 140.563 550.308Z" fill="#F490B2"/>
<path d="M115.417 547.924C119.799 545.981 121.498 540.242 119.214 535.107C116.929 529.971 111.524 527.384 107.143 529.328C102.761 531.271 101.061 537.01 103.346 542.145C105.631 547.28 111.035 549.868 115.417 547.924Z" fill="#F490B2"/>
<path d="M506.823 580.958C511.241 571.029 507.96 559.936 499.494 556.181C491.029 552.426 480.585 557.431 476.167 567.36C471.75 577.289 475.031 588.382 483.496 592.137C491.962 595.892 502.405 590.887 506.823 580.958Z" fill="#F490B2"/>
<path d="M529.472 560.463C531.756 555.327 530.057 549.589 525.675 547.645C521.293 545.701 515.889 548.289 513.604 553.424C511.319 558.56 513.019 564.298 517.401 566.242C521.782 568.185 527.187 565.598 529.472 560.463Z" fill="#F490B2"/>
<path d="M488.968 544.523C491.253 539.388 489.553 533.649 485.172 531.706C480.79 529.762 475.386 532.349 473.101 537.485C470.816 542.62 472.516 548.359 476.898 550.302C481.279 552.246 486.683 549.659 488.968 544.523Z" fill="#F490B2"/>
<path d="M514.135 542.125C516.419 536.99 514.72 531.251 510.338 529.308C505.956 527.364 500.552 529.951 498.267 535.087C495.982 540.222 497.682 545.961 502.064 547.904C506.445 549.848 511.85 547.261 514.135 542.125Z" fill="#F490B2"/>
<g opacity="0.3">
<path d="M439.981 503.313C439.981 480.016 436.941 460.65 431.824 444.537C425.352 436.721 417.523 429.188 408.011 422.594C408.011 422.594 404.294 490.453 308.801 490.453C213.309 490.453 209.592 422.594 209.592 422.594C200.08 429.188 192.251 436.742 185.779 444.537C180.64 460.65 177.622 480.016 177.622 503.313C177.622 503.313 167.323 504.295 156.674 508.575C185.626 613.856 308.823 594.555 308.823 594.555C308.823 594.555 432.021 613.856 460.973 508.575C450.302 504.295 439.981 503.313 439.981 503.313Z" fill="#262F6A"/>
</g>
<g opacity="0.3">
<path d="M508.664 590.734C503.066 593.856 496.703 595.363 490.318 595.363H127.263C120.856 595.363 114.493 593.856 108.895 590.734C89.1714 579.686 78.4347 561.237 75.8326 543.028C72.3776 565.844 82.7206 593.551 108.917 608.201C114.493 611.323 120.856 612.83 127.285 612.83H490.34C496.747 612.83 503.11 611.323 508.686 608.201C534.861 593.573 545.226 565.844 541.771 543.028C539.147 561.237 528.41 579.686 508.664 590.734Z" fill="#262F6A"/>
</g>
<g opacity="0.3">
<path d="M167.389 576.302C167.389 576.302 182.455 557.002 156.652 508.575C156.652 508.575 149.021 510.802 141.521 517.941C141.521 517.941 165.596 534.535 167.389 576.302Z" fill="#262F6A"/>
</g>
<g opacity="0.3">
<path d="M450.061 576.302C450.061 576.302 434.995 557.002 460.798 508.575C460.798 508.575 468.429 510.802 475.93 517.941C475.93 517.941 451.854 534.535 450.061 576.302Z" fill="#262F6A"/>
</g>
<path d="M143.991 514.557C144.407 514.841 144.691 515.081 145.019 515.321C145.347 515.561 145.632 515.801 145.938 516.063C146.528 516.566 147.118 517.068 147.665 517.592C148.802 518.618 149.83 519.688 150.901 520.758C151.885 521.893 152.913 522.985 153.853 524.164C154.75 525.365 155.734 526.5 156.543 527.744C158.292 530.168 159.779 532.766 161.223 535.364L163.169 539.382C163.781 540.735 164.284 542.133 164.831 543.508C166.82 549.098 168.307 554.862 168.767 560.713C169.182 563.617 169.073 566.543 169.073 569.447C169.116 570.888 168.854 572.35 168.745 573.77C168.614 575.211 168.439 576.63 168.264 578.071C168.198 578.595 167.717 578.966 167.192 578.9C166.755 578.835 166.405 578.486 166.361 578.071V577.983C166.186 576.586 166.033 575.189 165.902 573.791C165.727 572.416 165.705 571.019 165.377 569.665C164.852 566.936 164.524 564.206 163.737 561.565C162.513 556.237 160.523 551.15 158.227 546.303C155.931 541.434 153.022 536.893 149.786 532.657C148.168 530.539 146.419 528.53 144.626 526.587C143.707 525.648 142.811 524.666 141.849 523.771C141.389 523.312 140.908 522.875 140.405 522.461C140.165 522.242 139.924 522.024 139.706 521.828L139.071 521.282L138.853 521.107C137.103 519.622 136.885 516.98 138.394 515.234C139.815 513.596 142.242 513.334 143.991 514.557Z" fill="#262F6A"/>
<path d="M478.401 521.304L477.766 521.849C477.526 522.046 477.307 522.264 477.067 522.483C476.586 522.897 476.105 523.334 475.623 523.793C474.661 524.666 473.765 525.648 472.846 526.609C471.053 528.552 469.304 530.583 467.686 532.679C464.449 536.915 461.541 541.456 459.245 546.325C456.949 551.172 454.959 556.259 453.735 561.586C452.948 564.228 452.62 566.958 452.095 569.687C451.767 571.04 451.745 572.438 451.57 573.813C451.439 575.211 451.286 576.586 451.111 578.005V578.093C451.045 578.617 450.564 578.988 450.061 578.922C449.624 578.879 449.274 578.507 449.23 578.093C449.055 576.673 448.88 575.232 448.749 573.791C448.64 572.35 448.377 570.909 448.421 569.468C448.443 566.565 448.312 563.639 448.727 560.735C449.165 554.884 450.673 549.119 452.663 543.53C453.21 542.155 453.713 540.757 454.325 539.404L456.271 535.386C457.715 532.788 459.201 530.19 460.951 527.766C461.782 526.522 462.744 525.365 463.64 524.186C464.581 523.028 465.587 521.915 466.592 520.78C467.664 519.71 468.692 518.618 469.829 517.614C470.375 517.09 470.966 516.587 471.556 516.085C471.84 515.845 472.147 515.605 472.475 515.343C472.803 515.103 473.087 514.863 473.502 514.579C475.383 513.247 477.985 513.684 479.319 515.561C480.587 517.33 480.259 519.753 478.641 521.129L478.401 521.304Z" fill="#262F6A"/>
<path d="M490.296 617H308.845C308.802 617 308.758 617 308.736 617H127.263C119.96 617 112.897 615.21 106.862 611.826C84.7324 599.468 71 576.412 71 551.652C71 532.199 79.6155 515.78 94.0258 507.723C112.831 497.221 133.648 507.985 141.149 512.657C151.667 504.055 166.558 500.78 173.446 499.645C174.102 451.065 188.053 414.45 214.905 390.761C252.823 357.312 302.81 361.569 308.78 362.224C314.749 361.591 364.715 357.334 402.654 390.761C429.528 414.45 443.457 451.065 444.113 499.645C451.023 500.758 465.893 504.055 476.411 512.657C483.911 507.985 504.728 497.221 523.534 507.723C537.944 515.78 546.559 532.199 546.559 551.652C546.559 576.39 532.827 599.446 510.698 611.826C504.663 615.21 497.6 617 490.296 617ZM111.475 511.675C107.015 511.675 102.444 512.592 98.1148 515.016C86.3724 521.566 79.3531 535.277 79.3531 551.652C79.3531 568.682 87.6406 591.52 110.951 604.555C115.761 607.24 121.403 608.66 127.263 608.66H308.714C308.758 608.66 308.802 608.66 308.823 608.66H490.274C496.156 608.66 501.798 607.24 506.587 604.555C529.897 591.52 538.184 568.682 538.184 551.652C538.184 535.255 531.165 521.566 519.423 515.016C501.208 504.841 478.707 521.107 478.488 521.282C476.848 522.504 474.552 522.33 473.087 520.911C461.672 509.71 439.762 507.483 439.543 507.461C437.4 507.265 435.76 505.452 435.76 503.313C435.76 455.454 422.771 419.712 397.165 397.092C360.517 364.713 309.786 370.521 309.283 370.565C308.933 370.608 308.583 370.608 308.255 370.565C307.752 370.499 257.021 364.713 220.372 397.092C194.766 419.712 181.777 455.454 181.777 503.313C181.777 505.452 180.137 507.265 177.994 507.461C177.776 507.483 155.865 509.71 144.451 520.911C142.986 522.352 140.69 522.504 139.05 521.282C138.875 521.151 125.754 511.675 111.475 511.675Z" fill="#262F6A"/>
<path d="M308.736 594.555C358.68 594.555 386.276 586.106 400.358 579.315C408.93 575.189 415.337 567.678 418.092 558.595C430.097 519.208 408.624 480.278 381.509 480.278C351.529 480.278 348.249 504.142 348.249 504.142H308.736H269.201C269.201 504.142 265.921 480.278 235.941 480.278C208.805 480.278 187.353 519.229 199.358 558.595C202.135 567.678 208.542 575.189 217.092 579.315C231.196 586.084 258.792 594.555 308.736 594.555Z" fill="white"/>
<g opacity="0.3">
<path d="M418.092 544.403C415.315 553.486 408.908 560.997 400.358 565.124C386.276 571.892 358.68 580.363 308.736 580.363C258.792 580.363 231.196 571.914 217.114 565.124C208.542 560.997 202.135 553.486 199.38 544.403C197.784 539.163 196.8 533.923 196.319 528.792C195.422 538.246 196.275 548.399 199.38 558.595C202.157 567.678 208.564 575.189 217.114 579.315C231.196 586.084 258.792 594.555 308.736 594.555C358.68 594.555 386.276 586.106 400.358 579.315C408.93 575.189 415.337 567.678 418.092 558.595C421.197 548.399 422.05 538.246 421.153 528.792C420.694 533.923 419.688 539.163 418.092 544.403Z" fill="#262F6A"/>
</g>
<g opacity="0.3">
<path d="M235.854 483.444C235.854 483.444 247.859 492.724 244.929 499.929C239.418 513.575 191.333 502.025 203.906 553.858C203.906 553.858 187.572 544.076 200.78 509.666C200.78 509.666 207.602 498.684 231.262 496.523C231.262 496.501 239.44 493.553 235.854 483.444Z" fill="#262F6A"/>
</g>
<g opacity="0.3">
<path d="M381.618 483.444C381.618 483.444 369.613 492.724 372.543 499.929C378.054 513.575 426.139 502.025 413.565 553.858C413.565 553.858 429.9 544.076 416.692 509.666C416.692 509.666 409.87 498.684 386.21 496.523C386.188 496.501 378.01 493.553 381.618 483.444Z" fill="#262F6A"/>
</g>
<path d="M269.835 524.644C278.53 524.644 285.579 519.688 285.579 513.574C285.579 507.461 278.53 502.505 269.835 502.505C261.139 502.505 254.091 507.461 254.091 513.574C254.091 519.688 261.139 524.644 269.835 524.644Z" fill="#0096F0"/>
<g opacity="0.3">
<path d="M279.434 504.819C281.774 506.522 283.239 508.836 283.239 511.391C283.239 516.609 277.226 520.823 269.835 520.823C262.422 520.823 256.43 516.609 256.43 511.391C256.43 508.836 257.874 506.522 260.235 504.819C256.518 506.849 254.113 510.015 254.113 513.574C254.113 519.687 261.154 524.644 269.857 524.644C278.56 524.644 285.601 519.687 285.601 513.574C285.557 509.993 283.174 506.849 279.434 504.819Z" fill="#262F6A"/>
</g>
<path d="M269.835 526.281C260.257 526.281 252.451 520.583 252.451 513.574C252.451 506.566 260.257 500.867 269.835 500.867C279.412 500.867 287.219 506.566 287.219 513.574C287.219 520.583 279.412 526.281 269.835 526.281ZM269.835 504.12C262.05 504.12 255.731 508.356 255.731 513.553C255.731 518.749 262.05 522.985 269.835 522.985C277.619 522.985 283.939 518.749 283.939 513.553C283.939 508.356 277.598 504.12 269.835 504.12Z" fill="#262F6A"/>
<path d="M347.637 524.644C356.332 524.644 363.381 519.688 363.381 513.574C363.381 507.461 356.332 502.505 347.637 502.505C338.942 502.505 331.893 507.461 331.893 513.574C331.893 519.688 338.942 524.644 347.637 524.644Z" fill="#0096F0"/>
<g opacity="0.3">
<path d="M338.016 504.819C335.676 506.522 334.211 508.836 334.211 511.391C334.211 516.609 340.224 520.823 347.615 520.823C355.006 520.823 361.019 516.609 361.019 511.391C361.019 508.836 359.576 506.522 357.215 504.819C360.932 506.849 363.337 510.015 363.337 513.574C363.337 519.687 356.296 524.644 347.593 524.644C338.89 524.644 331.849 519.687 331.849 513.574C331.893 509.993 334.298 506.849 338.016 504.819Z" fill="#262F6A"/>
</g>
<path d="M347.637 526.281C338.059 526.281 330.253 520.583 330.253 513.574C330.253 506.566 338.059 500.867 347.637 500.867C357.215 500.867 365.021 506.566 365.021 513.574C365.021 520.583 357.215 526.281 347.637 526.281ZM347.637 504.12C339.852 504.12 333.533 508.356 333.533 513.553C333.533 518.749 339.852 522.985 347.637 522.985C355.422 522.985 361.741 518.749 361.741 513.553C361.741 508.356 355.4 504.12 347.637 504.12Z" fill="#262F6A"/>
<path d="M229.731 553.836C234.477 553.836 238.325 550.404 238.325 546.172C238.325 541.939 234.477 538.508 229.731 538.508C224.985 538.508 221.137 541.939 221.137 546.172C221.137 550.404 224.985 553.836 229.731 553.836Z" fill="#262F6A"/>
<path d="M230.825 527.264C235.571 527.264 239.418 523.833 239.418 519.601C239.418 515.368 235.571 511.937 230.825 511.937C226.078 511.937 222.231 515.368 222.231 519.601C222.231 523.833 226.078 527.264 230.825 527.264Z" fill="#262F6A"/>
<path d="M244.929 540.364C249.675 540.364 253.522 536.933 253.522 532.701C253.522 528.468 249.675 525.037 244.929 525.037C240.182 525.037 236.335 528.468 236.335 532.701C236.335 536.933 240.182 540.364 244.929 540.364Z" fill="#262F6A"/>
<path d="M215.518 540.364C220.264 540.364 224.111 536.933 224.111 532.701C224.111 528.468 220.264 525.037 215.518 525.037C210.772 525.037 206.924 528.468 206.924 532.701C206.924 536.933 210.772 540.364 215.518 540.364Z" fill="#262F6A"/>
<path d="M405.103 524.142H398.849C396.925 524.142 395.372 522.613 395.372 520.736V514.622C395.372 512.745 393.82 511.216 391.895 511.216H385.204C383.28 511.216 381.727 512.745 381.727 514.622V520.736C381.727 522.613 380.175 524.142 378.251 524.142H371.997C370.072 524.142 368.52 525.67 368.52 527.548V534.098C368.52 535.976 370.072 537.504 371.997 537.504H378.251C380.175 537.504 381.727 539.032 381.727 540.91V547.023C381.727 548.901 383.28 550.429 385.204 550.429H391.895C393.82 550.429 395.372 548.901 395.372 547.023V540.91C395.372 539.032 396.925 537.504 398.849 537.504H405.103C407.027 537.504 408.58 535.976 408.58 534.098V527.548C408.58 525.648 407.027 524.142 405.103 524.142Z" fill="#262F6A"/>
<path d="M288.422 546.194C292.6 546.194 295.988 543.173 295.988 539.447C295.988 535.721 292.6 532.701 288.422 532.701C284.243 532.701 280.856 535.721 280.856 539.447C280.856 543.173 284.243 546.194 288.422 546.194Z" fill="#262F6A"/>
<path d="M308.736 528.902C303.204 528.902 298.721 524.819 298.721 519.797C298.721 514.775 303.204 510.692 308.736 510.692C314.268 510.692 318.751 514.775 318.751 519.797C318.751 524.819 314.246 528.902 308.736 528.902ZM308.736 513.946C305.019 513.946 302.001 516.566 302.001 519.775C302.001 522.985 305.019 525.605 308.736 525.605C312.453 525.605 315.471 522.985 315.471 519.775C315.471 516.566 312.431 513.946 308.736 513.946Z" fill="#262F6A"/>
<path d="M329.028 546.194C333.207 546.194 336.594 543.173 336.594 539.447C336.594 535.721 333.207 532.701 329.028 532.701C324.85 532.701 321.462 535.721 321.462 539.447C321.462 543.173 324.85 546.194 329.028 546.194Z" fill="#262F6A"/>
<path d="M275.979 558.115H262.925C260.913 558.115 259.273 556.477 259.273 554.469V551.892C259.273 549.884 260.913 548.246 262.925 548.246H275.979C277.991 548.246 279.631 549.884 279.631 551.892V554.469C279.631 556.477 277.991 558.115 275.979 558.115Z" fill="#262F6A"/>
<path d="M341.471 558.115H354.525C356.537 558.115 358.177 556.477 358.177 554.469V551.892C358.177 549.884 356.537 548.246 354.525 548.246H341.471C339.459 548.246 337.819 549.884 337.819 551.892V554.469C337.819 556.477 339.459 558.115 341.471 558.115Z" fill="#262F6A"/>
<path d="M308.736 583.704C233.427 583.704 196.975 557.635 195.444 556.543C193.585 555.189 193.192 552.569 194.548 550.714C195.903 548.858 198.527 548.465 200.386 549.818C200.736 550.058 236.401 575.364 308.736 575.364C381.071 575.364 416.736 550.059 417.086 549.797C418.945 548.443 421.569 548.858 422.925 550.714C424.28 552.569 423.887 555.168 422.028 556.543C420.497 557.635 384.045 583.704 308.736 583.704Z" fill="#262F6A"/>
<path d="M308.736 598.725C258.42 598.725 230.147 590.21 215.299 583.093C205.743 578.507 198.483 570.014 195.378 559.84C188.25 536.478 191.88 511.107 204.869 493.619C213.244 482.331 224.286 476.13 235.963 476.13C261.788 476.13 270.032 492.549 272.459 499.994H345.035C347.44 492.549 355.706 476.13 381.531 476.13C393.207 476.13 404.25 482.331 412.625 493.619C425.592 511.107 429.244 536.478 422.115 559.84C419.01 570.036 411.75 578.507 402.195 583.093C387.303 590.21 359.051 598.725 308.736 598.725ZM235.941 484.448C226.976 484.448 218.317 489.47 211.56 498.553C200.123 513.967 196.975 536.5 203.36 557.394C205.787 565.364 211.472 571.979 218.929 575.56C232.989 582.328 259.995 590.385 308.736 590.385C357.477 590.385 384.483 582.328 398.543 575.56C406 571.979 411.663 565.342 414.112 557.394C420.475 536.522 417.348 513.967 405.912 498.553C399.155 489.448 390.496 484.448 381.531 484.448C355.728 484.448 352.513 503.902 352.404 504.732C352.098 506.784 350.348 508.313 348.271 508.313H269.223C267.145 508.313 265.374 506.784 265.09 504.71C264.959 503.902 261.744 484.448 235.941 484.448Z" fill="#262F6A"/>
<path d="M216.436 562.896L215.037 580.494C214.621 585.713 216.305 590.909 219.847 594.752C224.942 600.276 233.777 606.258 246.853 603.201C255.031 601.28 260.891 594.053 261.373 585.669L261.919 575.756C261.897 575.778 235.766 572.154 216.436 562.896Z" fill="#262F6A"/>
<g opacity="0.5">
<path d="M216.436 562.896L215.802 570.931C226.889 575.363 238.981 578.595 246.831 580.451C251.729 581.608 255.075 586.106 254.791 591.127C254.572 595.057 253.151 598.725 250.877 601.717C256.89 598.703 260.957 592.59 261.351 585.669L261.897 575.756C261.897 575.778 235.767 572.154 216.436 562.896Z" fill="white"/>
</g>
<path d="M240.031 608.201C231.262 608.201 223.193 604.577 216.764 597.59C212.5 592.961 210.357 586.63 210.86 580.167L212.26 562.569C212.369 561.194 213.156 559.971 214.337 559.294C215.54 558.617 216.983 558.552 218.229 559.141C236.729 567.984 262.225 571.608 262.466 571.63C264.609 571.936 266.183 573.835 266.052 575.997L265.505 585.909C264.937 596.171 257.655 604.948 247.771 607.262C245.169 607.896 242.567 608.201 240.031 608.201ZM220.132 569.097L219.192 580.844C218.864 584.992 220.219 589.031 222.909 591.957C229.25 598.835 236.991 601.258 245.891 599.162C252.167 597.699 256.824 592.066 257.196 585.473L257.546 579.315C250.374 578.071 234.433 574.927 220.132 569.097Z" fill="#262F6A"/>
<path d="M401.014 562.896L402.413 580.494C402.829 585.713 401.145 590.909 397.603 594.752C392.508 600.276 383.674 606.258 370.597 603.201C362.419 601.28 356.559 594.053 356.078 585.669L355.531 575.756C355.553 575.778 381.684 572.154 401.014 562.896Z" fill="#262F6A"/>
<g opacity="0.5">
<path d="M401.014 562.896L401.648 570.931C390.562 575.363 378.469 578.595 370.619 580.451C365.721 581.608 362.375 586.106 362.66 591.127C362.878 595.057 364.3 598.725 366.574 601.717C360.56 598.703 356.493 592.59 356.1 585.669L355.553 575.756C355.553 575.778 381.684 572.154 401.014 562.896Z" fill="white"/>
</g>
<path d="M377.42 608.201C374.883 608.201 372.281 607.895 369.657 607.284C359.795 604.97 352.513 596.193 351.923 585.931L351.376 576.018C351.267 573.857 352.819 571.957 354.962 571.652C355.225 571.608 380.7 568.005 399.199 559.163C400.445 558.573 401.889 558.617 403.091 559.316C404.272 559.993 405.059 561.237 405.169 562.591L406.568 580.189C407.071 586.651 404.928 592.983 400.664 597.612C394.257 604.577 386.188 608.201 377.42 608.201ZM359.926 579.293L360.276 585.45C360.648 592.044 365.284 597.677 371.581 599.14C380.481 601.236 388.222 598.791 394.563 591.935C397.253 589.009 398.609 584.97 398.281 580.822L397.34 569.075C383.018 574.927 367.077 578.071 359.926 579.293Z" fill="#262F6A"/>
<path d="M236.335 490.867C235.198 494.186 232.29 496.894 228.288 497.308C219.454 498.247 207.996 501.195 200.78 509.644C200.78 509.644 192.033 528.64 197.915 553.181C197.915 553.181 138.787 526.827 150.092 450.563C152.629 433.314 158.795 413.489 170.079 390.848C170.669 389.625 171.303 388.381 171.959 387.136L193.892 395.433L221.16 405.738L209.942 423.424C209.942 423.424 194.395 446.829 208.542 465.955C210.095 468.051 212.325 469.536 214.862 470.104C219.629 471.217 228.616 474.187 234.717 481.719C236.969 484.47 237.363 487.92 236.335 490.867Z" fill="white"/>
<path d="M190.262 422.397C182.215 443.401 164.809 456.261 151.361 451.13C150.923 450.977 150.508 450.781 150.092 450.584C152.782 432.397 159.473 411.371 171.937 387.158L193.87 395.454C194.985 403.467 193.87 412.943 190.262 422.397Z" fill="#FFA502"/>
<g opacity="0.3">
<path d="M236.335 490.867C235.198 494.186 232.29 496.893 228.288 497.308C219.454 498.247 207.996 501.194 200.78 509.644C200.78 509.644 192.033 528.639 197.915 553.18C197.915 553.18 138.787 526.827 150.092 450.562C152.629 433.314 158.795 413.489 170.079 390.848C156.74 445.497 160.785 478.793 168.395 498.553C172.287 508.64 185.823 510.976 192.623 502.57C204.978 487.265 235.57 490.562 236.335 490.867Z" fill="#262F6A"/>
</g>
<path d="M210.663 423.904C209.395 429.144 208.017 434.035 207.077 438.882C206.049 443.707 205.853 448.619 206.902 453.183C207.405 455.453 208.214 457.637 209.308 459.689C209.57 460.213 209.854 460.715 210.182 461.196C210.488 461.698 210.795 462.178 211.144 462.637C211.888 463.706 212.303 464.23 213.003 464.754C213.659 465.278 214.403 465.65 215.19 465.912C215.387 465.977 215.583 466.021 215.78 466.064L216.83 466.305C217.53 466.479 218.251 466.676 218.951 466.872C221.75 467.702 224.505 468.75 227.129 470.125C229.775 471.479 232.29 473.204 234.564 475.234C235.723 476.239 236.772 477.352 237.778 478.51L238.15 478.946L238.565 479.536C238.85 479.929 239.134 480.3 239.374 480.737C239.834 481.588 240.293 482.461 240.577 483.4C241.867 487.134 241.364 491.304 239.484 494.688C238.522 496.369 237.21 497.876 235.657 499.055C234.083 500.256 232.224 501.042 230.344 501.5L228.922 501.762L227.938 501.893C227.326 501.959 226.714 502.046 226.101 502.133C224.877 502.308 223.652 502.526 222.45 502.767C220.044 503.269 217.704 503.946 215.474 504.797C211.013 506.5 206.99 508.967 203.95 512.33L203.928 512.352L204.541 511.391C204.431 511.631 204.256 512.068 204.125 512.439C203.972 512.832 203.819 513.225 203.688 513.618C203.404 514.404 203.141 515.234 202.879 516.063C202.398 517.723 201.96 519.404 201.589 521.107C200.867 524.513 200.364 527.984 200.167 531.456C199.971 534.927 199.949 538.443 200.298 541.892C200.539 545.364 201.195 548.792 201.939 552.198L201.982 552.372C202.463 554.599 201.042 556.805 198.812 557.285C197.893 557.482 196.975 557.351 196.188 556.979C195.072 556.455 194.198 555.997 193.257 555.473C192.339 554.971 191.442 554.447 190.546 553.901C188.775 552.831 187.047 551.696 185.363 550.517C181.996 548.137 178.825 545.539 175.764 542.788C169.729 537.22 164.328 530.932 159.867 524.033C155.406 517.111 151.885 509.601 149.349 501.784C146.769 493.968 145.391 485.824 144.801 477.702L144.582 474.645C144.494 473.619 144.538 472.614 144.516 471.588C144.516 469.558 144.473 467.505 144.516 465.475C144.779 461.436 144.91 457.353 145.522 453.357C146.397 445.301 148.277 437.441 150.311 429.668C154.662 414.188 160.96 399.407 168.198 385.215C169.248 383.162 171.762 382.355 173.818 383.403C175.873 384.451 176.682 386.961 175.633 389.014L175.611 389.036C168.57 402.834 162.491 417.135 158.336 431.917C156.412 439.34 154.619 446.807 153.81 454.383C153.219 458.161 153.132 461.96 152.869 465.737C152.826 467.636 152.869 469.514 152.869 471.414C152.891 472.352 152.848 473.313 152.913 474.252L153.132 477.069C153.678 484.601 154.947 492.068 157.308 499.208C159.626 506.347 162.841 513.181 166.886 519.491C170.953 525.779 175.895 531.521 181.406 536.63C184.205 539.141 187.113 541.521 190.174 543.683C191.705 544.753 193.279 545.801 194.876 546.739C195.663 547.22 196.472 547.7 197.281 548.137C198.068 548.573 198.943 549.01 199.599 549.338L193.826 554.119C192.995 550.32 192.273 546.477 191.989 542.569C191.617 538.683 191.639 534.775 191.858 530.888C192.077 527.002 192.645 523.137 193.454 519.316C193.848 517.417 194.351 515.517 194.897 513.618C195.204 512.679 195.488 511.74 195.816 510.801C195.969 510.343 196.144 509.863 196.341 509.382C196.537 508.88 196.69 508.465 196.975 507.876L196.997 507.832C197.15 507.483 197.368 507.177 197.609 506.915L197.631 506.893C199.599 504.535 201.895 502.461 204.366 500.758C206.859 499.055 209.504 497.679 212.238 496.566C214.971 495.474 217.748 494.645 220.547 494.011C221.947 493.706 223.346 493.422 224.767 493.225C225.467 493.116 226.167 493.007 226.889 492.942C227.217 492.898 227.654 492.854 227.894 492.811C228.069 492.767 228.244 492.745 228.441 492.723C229.119 492.549 229.775 492.308 230.322 491.872C230.868 491.435 231.349 490.911 231.721 490.278C232.399 488.99 232.618 487.461 232.18 486.129C232.093 485.78 231.918 485.474 231.765 485.147C231.677 484.994 231.546 484.841 231.459 484.688L231.306 484.448L231.043 484.143C230.322 483.291 229.556 482.461 228.725 481.697C227.063 480.147 225.139 478.815 223.084 477.68C221.028 476.523 218.82 475.584 216.524 474.842C215.955 474.645 215.365 474.492 214.796 474.317L213.922 474.077C213.484 473.968 213.025 473.837 212.588 473.684C210.838 473.073 209.22 472.156 207.821 470.977C207.121 470.387 206.487 469.732 205.896 469.034C205.262 468.291 204.934 467.702 204.497 467.069C204.06 466.457 203.688 465.802 203.316 465.147C202.944 464.492 202.595 463.837 202.267 463.139C200.976 460.409 200.036 457.527 199.533 454.58C198.484 448.685 199.008 442.724 200.517 437.222C201.283 434.471 202.42 431.851 203.841 429.428C205.306 427.004 206.99 424.755 209.22 422.878C209.614 422.55 210.182 422.594 210.51 422.987C210.707 423.205 210.773 423.511 210.707 423.795L210.663 423.904Z" fill="#262F6A"/>
<path d="M451.133 525.888C436.985 545.342 419.448 553.18 419.448 553.18C425.308 528.639 416.561 509.644 416.561 509.644C409.323 501.195 397.887 498.269 389.053 497.308C381.487 496.522 377.835 487.592 382.624 481.697C388.725 474.165 397.712 471.217 402.479 470.082C405.016 469.514 407.246 468.029 408.799 465.933C422.946 446.807 407.399 423.402 407.399 423.402L396.181 405.716L445.382 387.114C458.283 412.179 465.018 433.838 467.489 452.462C472.037 486.173 462.722 509.928 451.133 525.888Z" fill="white"/>
<path d="M467.511 452.484C472.037 486.173 462.722 509.928 451.133 525.888Z" fill="#777781"/>
<g opacity="0.3">
<path d="M381.137 490.867C382.274 494.186 385.182 496.893 389.184 497.308C398.018 498.247 409.476 501.194 416.692 509.644C416.692 509.644 425.439 528.639 419.557 553.18C419.557 553.18 478.685 526.827 467.38 450.562C464.843 433.314 458.677 413.489 447.393 390.848C460.732 445.497 456.687 478.793 449.077 498.553C445.185 508.64 431.649 510.976 424.849 502.57C412.472 487.265 381.88 490.562 381.137 490.867Z" fill="#262F6A"/>
</g>
<path d="M408.143 422.943C410.373 424.821 412.057 427.07 413.522 429.493C414.943 431.917 416.08 434.537 416.846 437.288C418.354 442.79 418.879 448.729 417.83 454.646C417.305 457.593 416.386 460.475 415.096 463.204C414.79 463.903 414.44 464.558 414.047 465.213C413.697 465.868 413.303 466.523 412.866 467.134C412.428 467.767 412.1 468.357 411.466 469.099C410.898 469.798 410.242 470.453 409.542 471.043C408.143 472.222 406.524 473.139 404.775 473.75C404.338 473.903 403.9 474.034 403.441 474.143L402.566 474.383C401.998 474.536 401.408 474.711 400.839 474.907C398.543 475.649 396.334 476.588 394.279 477.745C392.223 478.881 390.299 480.213 388.637 481.763C387.785 482.527 387.019 483.357 386.319 484.208L386.057 484.514L385.904 484.754C385.817 484.907 385.685 485.06 385.598 485.213C385.445 485.54 385.27 485.846 385.182 486.195C384.745 487.505 384.964 489.055 385.642 490.343C386.013 490.977 386.494 491.501 387.041 491.937C387.588 492.374 388.244 492.614 388.922 492.789C389.097 492.811 389.271 492.854 389.468 492.876C389.709 492.92 390.146 492.963 390.474 493.007C391.174 493.094 391.895 493.182 392.595 493.291C393.995 493.509 395.416 493.771 396.816 494.077C399.614 494.71 402.413 495.518 405.125 496.631C407.836 497.745 410.504 499.12 412.997 500.824C415.49 502.527 417.786 504.601 419.732 506.959L419.754 506.981C420.016 507.264 420.213 507.57 420.344 507.898L420.366 507.963C420.628 508.553 420.803 508.989 421 509.47C421.197 509.95 421.372 510.408 421.525 510.889C421.875 511.828 422.159 512.766 422.443 513.705C422.99 515.583 423.493 517.482 423.887 519.404C424.696 523.225 425.264 527.089 425.483 530.976C425.702 534.862 425.723 538.77 425.352 542.657C425.067 546.543 424.346 550.386 423.515 554.207L417.742 549.425C418.398 549.119 419.273 548.661 420.06 548.224C420.869 547.787 421.656 547.307 422.465 546.827C424.062 545.866 425.614 544.84 427.167 543.77C430.228 541.609 433.136 539.229 435.935 536.718C441.446 531.609 446.388 525.888 450.455 519.579C454.5 513.269 457.715 506.435 460.032 499.295C462.394 492.156 463.662 484.688 464.209 477.156L464.428 474.339C464.515 473.401 464.45 472.44 464.471 471.501C464.471 469.602 464.515 467.724 464.471 465.824C464.209 462.025 464.122 458.226 463.531 454.471C462.722 446.895 460.929 439.428 459.005 432.004C454.85 417.201 448.771 402.922 441.73 389.123L441.708 389.101C440.658 387.049 441.468 384.538 443.523 383.49C445.579 382.442 448.093 383.25 449.143 385.302C456.381 399.494 462.678 414.275 467.03 429.755C469.063 437.528 470.922 445.388 471.819 453.445C472.431 457.44 472.562 461.523 472.825 465.562C472.868 467.593 472.825 469.623 472.825 471.676C472.803 472.702 472.846 473.706 472.759 474.732L472.54 477.789C471.95 485.911 470.572 494.055 467.992 501.872C465.477 509.688 461.935 517.199 457.474 524.12C453.013 531.041 447.612 537.307 441.577 542.875C438.537 545.626 435.345 548.224 431.977 550.604C430.294 551.783 428.566 552.918 426.795 553.988C425.898 554.512 425.002 555.058 424.083 555.56C423.143 556.084 422.268 556.521 421.153 557.067C419.076 558.027 416.627 557.154 415.643 555.08C415.249 554.228 415.162 553.311 415.337 552.46L415.38 552.285C416.124 548.879 416.758 545.451 417.02 541.98C417.37 538.508 417.348 535.015 417.152 531.543C416.955 528.05 416.452 524.6 415.73 521.194C415.38 519.491 414.921 517.81 414.44 516.151C414.178 515.343 413.937 514.513 413.631 513.705C413.5 513.29 413.347 512.897 413.194 512.526C413.063 512.155 412.866 511.718 412.778 511.478L413.391 512.439L413.369 512.417C410.351 509.077 406.328 506.588 401.845 504.885C399.614 504.011 397.275 503.356 394.869 502.854C393.667 502.614 392.442 502.374 391.218 502.221C390.605 502.134 389.993 502.046 389.381 501.981L388.397 501.85L386.975 501.588C385.095 501.129 383.214 500.365 381.662 499.142C380.087 497.941 378.797 496.457 377.835 494.776C375.955 491.413 375.452 487.221 376.742 483.488C377.026 482.549 377.485 481.675 377.944 480.824C378.185 480.409 378.469 480.016 378.754 479.623L379.169 479.034L379.541 478.597C380.547 477.418 381.618 476.304 382.755 475.322C385.029 473.291 387.544 471.588 390.19 470.213C392.836 468.837 395.569 467.767 398.368 466.96C399.068 466.763 399.768 466.567 400.489 466.392L401.539 466.152C401.736 466.108 401.932 466.064 402.129 465.999C402.916 465.759 403.66 465.366 404.316 464.842C405.016 464.296 405.431 463.794 406.175 462.724C406.524 462.265 406.831 461.763 407.137 461.283C407.465 460.803 407.749 460.3 408.011 459.776C409.105 457.746 409.914 455.563 410.417 453.27C411.466 448.707 411.248 443.794 410.242 438.969C409.301 434.122 407.924 429.231 406.656 423.991L406.634 423.926C406.524 423.445 406.809 422.943 407.312 422.834C407.618 422.681 407.924 422.769 408.143 422.943Z" fill="#262F6A"/>
<path d="M500.136 261.266C538.491 421.328 308.736 416.459 308.736 416.459C308.736 416.459 308.714 416.459 308.67 416.459C304.428 416.524 79.3313 419.821 117.336 261.266C117.336 261.266 83.5953 183.582 117.839 83.9772C128.116 54.0871 162.272 39.8298 190.983 53.1701C216.939 65.2222 248.165 84.6104 273.29 114.763C273.29 114.763 292.686 111.575 308.736 111.575C324.786 111.575 344.182 114.763 344.182 114.763C369.307 84.5886 400.511 65.2222 426.467 53.1701C455.178 39.8298 489.334 54.1089 499.611 83.9772C533.877 183.582 500.136 261.266 500.136 261.266Z" fill="white"/>
<path d="M500.136 261.266C358.33 235.983 308.736 111.553 308.736 111.553C324.786 111.553 344.182 114.741 344.182 114.741C369.307 84.5888 400.511 65.2224 426.467 53.1703C455.178 39.83 489.334 54.1092 499.611 83.9775C533.877 183.582 500.136 261.266 500.136 261.266Z" fill="#FFA502"/>
<path d="M485.507 193.669C484.851 200.438 483.889 207.599 482.599 215.088C481.353 212.905 480.106 210.743 478.794 208.625C478.772 208.582 478.729 208.538 478.707 208.494C470.682 194.521 449.274 162.775 407.683 135.745C406.415 134.893 405.737 134.479 405.737 134.479C398.915 128.409 403.026 121.968 403.682 121.029C403.725 120.964 403.747 120.92 403.747 120.92C408.23 115.767 414.703 108.802 422.443 101.968C422.509 101.903 422.618 101.837 422.684 101.772C438.669 87.973 451.679 82.2963 455.921 80.6806C455.965 80.6588 455.987 80.6588 456.009 80.6369C456.249 80.5496 456.49 80.4623 456.731 80.3749C456.862 80.3313 456.971 80.2876 457.08 80.2439C457.277 80.1784 457.387 80.1348 457.387 80.1348L457.408 80.1566L460.12 82.733C459.836 82.864 459.551 83.0168 459.267 83.1478C433.902 95.5274 429.069 129.784 450.127 148.605C466.746 163.517 477.963 179.063 485.507 193.669Z" fill="#FF5C64"/>
<g opacity="0.3">
<path d="M500.136 261.266C500.136 261.266 491.28 187.425 405.737 134.5C406.984 135.745 493.642 221.791 478.401 304.671C463.072 388.141 308.736 385.717 308.736 385.717C308.736 385.717 154.4 388.141 139.071 304.671C123.83 221.791 210.488 135.745 211.735 134.5C126.17 187.425 117.336 261.266 117.336 261.266C79.3531 419.821 304.472 416.633 308.714 416.568C312.956 416.633 538.119 419.821 500.136 261.266Z" fill="#262F6A"/>
</g>
<g opacity="0.3">
<path d="M361.851 308.273C361.195 306.09 358.177 306.024 357.368 308.142C354.941 314.561 349.693 323.164 338.934 323.164C321.812 323.164 320.916 304.911 320.916 304.911L308.67 303.95L296.425 304.911C296.425 304.911 295.529 323.164 278.407 323.164C267.67 323.164 262.4 314.561 259.973 308.142C259.164 306.024 256.125 306.09 255.49 308.273C252.035 319.911 249.39 342.465 278.407 347.246C278.407 347.246 296.403 350.499 308.692 340.347C320.981 350.499 338.978 347.246 338.978 347.246C367.951 342.443 365.305 319.889 361.851 308.273Z" fill="#262F6A"/>
</g>
<g opacity="0.7">
<path d="M117.839 94.6975C128.116 64.8074 162.272 50.5501 190.983 63.8904C216.261 75.6368 244.251 95.4399 268.916 124.326C270.141 125.767 272.043 126.444 273.902 126.116C280.418 124.937 296.294 122.295 308.736 122.295C321.178 122.295 337.053 124.937 343.57 126.116C345.428 126.444 347.331 125.767 348.555 124.326C373.199 95.4617 401.211 75.6368 426.489 63.8904C455.2 50.5501 489.356 64.8292 499.633 94.6975C510.414 126.007 514.459 155.155 514.94 180.416C515.487 152.84 511.966 119.828 499.633 83.9772C489.356 54.0871 455.2 39.8298 426.489 53.1701C400.533 65.2222 369.307 84.6104 344.182 114.763C344.182 114.763 324.786 111.575 308.736 111.575C292.686 111.575 273.29 114.763 273.29 114.763C248.165 84.5886 216.939 65.2222 190.983 53.1701C162.272 39.8298 128.116 54.1089 117.839 83.9772C105.506 119.828 101.985 152.84 102.532 180.416C103.013 155.155 107.058 126.007 117.839 94.6975Z" fill="white"/>
</g>
<path d="M211.735 134.478C211.735 134.478 211.035 134.893 209.767 135.745C167.782 163.036 146.331 195.175 138.503 208.887C138.481 208.909 138.481 208.909 138.481 208.931C137.235 210.961 136.01 212.992 134.851 215.109C133.561 207.599 132.599 200.459 131.921 193.669C139.465 179.04 150.683 163.495 167.323 148.626C188.381 129.806 183.57 95.5489 158.183 83.1693C157.899 83.0164 157.614 82.8854 157.33 82.7544L157.352 82.7326L160.042 80.1781L160.063 80.1562C160.063 80.1562 160.173 80.1999 160.37 80.2654C160.479 80.3091 160.61 80.3528 160.741 80.3964C160.982 80.4838 161.222 80.5711 161.463 80.6584C161.485 80.6803 161.529 80.6803 161.55 80.7021C165.749 82.2959 178.628 87.9072 194.482 101.509C194.591 101.619 194.722 101.706 194.832 101.837C202.638 108.715 209.198 115.767 213.725 120.963C213.725 120.963 213.768 121.007 213.812 121.072C214.468 121.968 218.557 128.43 211.735 134.478Z" fill="#FF5C64"/>
<path d="M308.736 313.142C320.063 313.142 327.847 306.112 332.877 298.754C337.644 291.789 332.527 282.313 324.065 282.313H308.714H293.385C284.923 282.313 279.806 291.789 284.573 298.754C289.624 306.112 297.387 313.142 308.736 313.142Z" fill="#262F6A"/>
<path d="M312.891 305.479C312.956 306.134 312.978 306.57 313.022 307.094C313.044 307.597 313.066 308.099 313.066 308.579C313.066 309.562 313.066 310.566 313 311.548C312.869 313.513 312.65 315.5 312.213 317.444C311.36 321.352 309.917 325.304 307.468 328.841C306.243 330.609 304.822 332.247 303.182 333.688C301.52 335.129 299.661 336.308 297.759 337.29C293.867 339.19 289.69 340.085 285.688 340.26C284.682 340.281 283.698 340.303 282.693 340.303C281.709 340.26 280.746 340.238 279.762 340.15C277.794 339.976 275.826 339.714 273.837 339.19C269.901 338.229 265.899 336.482 262.641 333.622C259.339 330.806 257.108 326.81 256.343 322.815C255.928 320.806 255.84 318.797 256.037 316.854C256.256 314.889 256.627 313.011 257.48 311.199C257.677 310.784 258.158 310.61 258.574 310.806C258.814 310.915 258.967 311.134 259.033 311.352L259.055 311.439C259.842 314.911 260.826 318.164 262.225 320.937C263.625 323.71 265.396 325.98 267.626 327.683C269.857 329.386 272.656 330.434 275.673 330.958C277.182 331.242 278.757 331.351 280.353 331.461C281.14 331.482 281.971 331.482 282.758 331.482L285.12 331.351C288.225 331.068 291.111 330.303 293.648 329.059C296.141 327.749 298.218 325.915 299.858 323.601C301.476 321.264 302.657 318.448 303.422 315.435C303.794 313.928 304.1 312.378 304.297 310.784C304.384 309.998 304.472 309.212 304.538 308.404C304.559 308.011 304.581 307.618 304.603 307.225L304.625 306.177V305.828C304.669 303.536 306.549 301.702 308.867 301.723C310.945 301.789 312.672 303.405 312.891 305.479Z" fill="#262F6A"/>
<path d="M312.891 306.177L312.913 307.225C312.934 307.618 312.956 308.011 312.978 308.404C313.044 309.19 313.109 309.976 313.219 310.784C313.394 312.356 313.722 313.928 314.093 315.435C314.859 318.448 316.061 321.242 317.658 323.6C319.298 325.915 321.375 327.771 323.868 329.059C326.383 330.303 329.291 331.068 332.396 331.351L334.757 331.482C335.567 331.461 336.376 331.482 337.163 331.461C338.759 331.373 340.334 331.242 341.842 330.958C344.86 330.434 347.659 329.386 349.889 327.683C352.12 325.98 353.891 323.731 355.29 320.937C356.69 318.164 357.674 314.911 358.461 311.439L358.483 311.374C358.592 310.937 359.03 310.653 359.467 310.762C359.729 310.828 359.926 311.003 360.036 311.221C360.888 313.033 361.282 314.911 361.479 316.876C361.676 318.819 361.566 320.849 361.173 322.836C360.407 326.832 358.177 330.827 354.875 333.644C351.617 336.526 347.615 338.273 343.679 339.211C341.711 339.735 339.721 339.976 337.753 340.172C336.769 340.259 335.807 340.281 334.823 340.325C333.839 340.325 332.833 340.303 331.827 340.281C327.826 340.107 323.649 339.211 319.757 337.312C317.833 336.329 315.974 335.15 314.334 333.709C312.694 332.268 311.273 330.609 310.048 328.862C307.621 325.325 306.156 321.373 305.303 317.465C304.866 315.5 304.647 313.535 304.516 311.57C304.45 310.588 304.428 309.605 304.45 308.601C304.45 308.099 304.472 307.618 304.494 307.116C304.516 306.592 304.559 306.155 304.625 305.5C304.866 303.208 306.921 301.549 309.195 301.789C311.316 302.007 312.891 303.776 312.934 305.872L312.891 306.177Z" fill="#262F6A"/>
<path d="M308.539 310.719C312.65 348.316 350.392 331.985 350.392 331.985C350.392 331.985 355.247 381.547 308.648 381.547C262.05 381.547 266.927 331.985 266.927 331.985C266.927 331.985 304.669 348.294 308.78 310.719" fill="#262F6A"/>
<path d="M308.78 351.133C281.818 351.133 279.281 371.023 279.281 371.023C293.101 383.883 308.78 381.547 308.78 381.547C308.78 381.547 324.458 383.883 338.278 371.023C338.278 371.023 335.742 351.133 308.78 351.133Z" fill="#F777A2"/>
<path d="M308.67 385.368C294.348 385.368 283.086 380.957 275.17 372.246C260.869 356.504 263.034 332.618 263.122 331.613C263.231 330.391 263.931 329.321 264.98 328.688C266.03 328.076 267.32 327.989 268.435 328.469C268.588 328.535 284.551 335.26 295.178 329.059C300.383 326.024 303.597 320.194 304.778 311.679C304.756 311.483 304.734 311.308 304.712 311.112C304.494 309.016 306.003 307.138 308.102 306.898C308.277 306.876 308.452 306.876 308.648 306.876C308.823 306.876 308.998 306.876 309.195 306.898C311.294 307.116 312.803 309.016 312.584 311.112C312.563 311.308 312.541 311.483 312.519 311.679C313.7 320.194 316.936 326.024 322.118 329.059C332.746 335.26 348.708 328.535 348.883 328.469C349.999 327.989 351.289 328.076 352.338 328.688C353.388 329.299 354.088 330.391 354.197 331.613C354.284 332.618 356.449 356.504 342.148 372.246C334.254 380.957 322.993 385.368 308.67 385.368ZM270.644 337.29C270.819 344.43 272.393 357.836 280.878 367.137C287.285 374.167 296.644 377.726 308.692 377.726C320.741 377.726 330.1 374.167 336.507 367.137C344.991 357.836 346.544 344.452 346.74 337.29C340.005 339.211 328.022 341.286 318.357 335.696C314.246 333.316 311.01 329.823 308.714 325.304C306.418 329.823 303.182 333.295 299.071 335.696C289.362 341.308 277.379 339.233 270.644 337.29Z" fill="#262F6A"/>
<path d="M117.336 264.847C117.03 264.847 116.702 264.803 116.395 264.716C114.493 264.192 113.378 262.227 113.881 260.327C121.84 231.376 131.462 214.608 131.877 213.909C132.861 212.206 135.048 211.616 136.775 212.621C138.481 213.603 139.071 215.787 138.087 217.511C138 217.686 128.488 234.236 120.791 262.227C120.353 263.799 118.91 264.847 117.336 264.847Z" fill="#262F6A"/>
<path d="M158.598 83.4097C157.964 83.1259 157.374 82.7329 156.783 82.3399C156.193 81.9251 155.625 81.4884 155.056 81.0081C154.487 80.5495 153.941 80.0255 153.416 79.4797C152.891 78.912 152.366 78.2789 151.907 77.5583L151.885 77.5147C151.557 77.0125 151.71 76.3575 152.191 76.03C152.323 75.9427 152.454 75.899 152.585 75.8772C153.416 75.7243 154.225 75.6807 154.99 75.6807C155.756 75.7025 156.521 75.7462 157.265 75.8772C158.008 75.9645 158.751 76.1173 159.473 76.2702C160.195 76.4448 160.916 76.6413 161.572 76.9252C163.387 77.6894 164.24 79.7854 163.475 81.5976C162.709 83.4097 160.61 84.2613 158.795 83.4971C158.773 83.4752 158.73 83.4752 158.708 83.4534L158.598 83.4097Z" fill="#262F6A"/>
<path d="M134.873 215.11C136.032 213.014 137.257 210.961 138.503 208.931C136.098 213.188 134.982 215.677 134.982 215.677C134.939 215.503 134.895 215.306 134.873 215.11Z" fill="#FF8080"/>
<path d="M160.064 80.1782L157.374 82.7327C158.927 81.1171 159.911 80.2874 160.064 80.1782Z" fill="#FF8080"/>
<path d="M167.345 148.649C150.705 163.517 139.487 179.063 131.943 193.691C124.989 123.365 148.999 91.532 157.352 82.7549C157.636 82.8859 157.921 83.0387 158.205 83.1697C183.592 95.5712 188.381 129.828 167.345 148.649Z" fill="#FF8080"/>
<path d="M161.551 80.6807C173.468 84.96 184.882 93.0821 194.482 101.488C178.629 87.8857 165.771 82.2745 161.551 80.6807Z" fill="#FF8080"/>
<path d="M211.735 134.478C218.557 128.409 214.446 121.968 213.79 121.029C217.355 125.221 216.371 131.531 211.735 134.478Z" fill="#FF8080"/>
<path d="M134.96 219.28C134.807 219.28 134.654 219.28 134.523 219.258C132.971 219.062 131.702 217.883 131.44 216.332C122.19 162.971 129.669 128.212 137.584 108.475C146.331 86.6628 157.396 77.7329 157.855 77.3836C158.795 76.6412 160.064 76.4229 161.201 76.7941C184.314 84.4795 205.721 106.291 216.414 118.605C218.82 121.378 219.913 125.046 219.366 128.692C218.842 132.317 216.742 135.548 213.637 137.535C158.708 172.534 138.394 216.747 138.197 217.206C137.65 218.45 136.36 219.28 134.96 219.28ZM160.916 84.2393C157.833 87.2742 150.245 95.8329 144.013 111.684C137.103 129.195 130.565 159.194 136.863 204.608C146.003 189.171 168.111 158.037 209.832 131.465C211.21 130.592 212.085 129.238 212.325 127.623C212.566 126.029 212.107 124.479 211.035 123.256C201.108 111.859 181.69 91.9684 160.916 84.2393Z" fill="#262F6A"/>
<path d="M500.136 264.847C498.562 264.847 497.119 263.799 496.681 262.227C488.984 234.236 479.494 217.664 479.406 217.512C478.422 215.809 478.991 213.625 480.718 212.621C482.424 211.638 484.611 212.206 485.617 213.909C486.032 214.608 495.653 231.354 503.613 260.327C504.138 262.227 503.023 264.192 501.098 264.716C500.748 264.803 500.442 264.847 500.136 264.847Z" fill="#262F6A"/>
<path d="M455.878 76.9032C456.556 76.6194 457.255 76.4229 457.977 76.2482C458.699 76.0735 459.442 75.9425 460.186 75.8552C460.929 75.746 461.694 75.6805 462.46 75.6587C463.247 75.6587 464.034 75.7024 464.865 75.8552C465.455 75.9644 465.827 76.5102 465.718 77.0997C465.696 77.2525 465.63 77.3835 465.565 77.4927L465.521 77.5364C465.04 78.2569 464.537 78.8901 464.012 79.4577C463.466 80.0036 462.941 80.5276 462.372 80.9861C461.804 81.4664 461.235 81.9031 460.645 82.3179C460.054 82.7109 459.464 83.1039 458.83 83.3878L458.72 83.4314C456.927 84.2611 454.806 83.4751 453.975 81.6629C453.144 79.8726 453.932 77.7547 455.747 76.925C455.812 76.9469 455.856 76.925 455.878 76.9032Z" fill="#262F6A"/>
<path d="M405.715 134.478C401.101 131.531 400.117 125.221 403.66 121.029C403.004 121.968 398.893 128.43 405.715 134.478Z" fill="#FF8080"/>
<path d="M455.9 80.6802C451.657 82.2959 438.647 87.9726 422.662 101.771C432.305 93.2563 443.873 85.0032 455.9 80.6802Z" fill="#FF8080"/>
<path d="M460.098 82.7546L457.387 80.1782C457.54 80.2874 458.546 81.1171 460.098 82.7546Z" fill="#FF8080"/>
<path d="M478.772 208.625C480.084 210.743 481.353 212.904 482.577 215.088C482.534 215.284 482.512 215.481 482.468 215.677C482.49 215.699 481.331 213.079 478.772 208.625Z" fill="#FF8080"/>
<path d="M485.507 193.669C477.985 179.04 466.767 163.517 450.127 148.626C429.069 129.806 433.902 95.5489 459.267 83.1692C459.551 83.0164 459.836 82.8854 460.12 82.7544C468.451 91.5097 492.461 123.343 485.507 193.669Z" fill="#FF8080"/>
<path d="M482.49 219.28C481.09 219.28 479.8 218.472 479.232 217.162C479.035 216.725 458.721 172.49 403.791 137.491C400.686 135.504 398.609 132.295 398.062 128.649C397.537 125.024 398.609 121.334 401.014 118.561C411.707 106.247 433.114 84.4355 456.228 76.7501C457.365 76.379 458.633 76.5973 459.573 77.3396C460.033 77.7108 471.119 86.6407 479.844 108.431C487.76 128.168 495.238 162.905 485.988 216.288C485.726 217.839 484.458 219.039 482.905 219.214C482.774 219.258 482.643 219.28 482.49 219.28ZM456.534 84.239C435.76 91.9681 416.343 111.858 406.437 123.277C405.387 124.5 404.928 126.05 405.147 127.644C405.387 129.238 406.262 130.614 407.64 131.487C449.362 158.058 471.469 189.193 480.609 204.629C491.761 124.282 463.291 90.8983 456.534 84.239Z" fill="#262F6A"/>
<g opacity="0.3">
<path d="M131.943 193.691C132.599 200.459 133.561 207.621 134.873 215.131C127.067 229.018 120.747 244.454 117.336 261.288C117.336 261.266 113.05 230.371 131.943 193.691Z" fill="#262F6A"/>
</g>
<g opacity="0.3">
<path d="M161.463 80.6365C161.223 80.5492 160.982 80.4618 160.741 80.3745C160.938 80.44 161.179 80.5273 161.463 80.6365Z" fill="#262F6A"/>
</g>
<g opacity="0.3">
<path d="M209.789 135.745C200.911 141.64 163.715 167.862 138.525 208.887C146.353 195.176 167.782 163.058 209.789 135.745Z" fill="#262F6A"/>
</g>
<g opacity="0.3">
<path d="M194.832 101.793C200.801 106.946 207.208 113.278 213.725 120.92C209.198 115.723 202.638 108.693 194.832 101.793Z" fill="#262F6A"/>
</g>
<g opacity="0.3">
<path d="M403.725 120.92C410.176 113.344 416.496 107.099 422.421 101.968C414.702 108.802 408.23 115.767 403.725 120.92Z" fill="#262F6A"/>
</g>
<g opacity="0.3">
<path d="M456.709 80.3745C456.468 80.4618 456.228 80.5492 455.987 80.6365C456.271 80.5273 456.512 80.44 456.709 80.3745Z" fill="#262F6A"/>
</g>
<g opacity="0.3">
<path d="M478.685 208.494C453.494 167.687 416.517 141.618 407.661 135.745C449.252 162.775 470.682 194.542 478.685 208.494Z" fill="#262F6A"/>
</g>
<g opacity="0.3">
<path d="M500.136 261.266C496.725 244.454 490.406 228.996 482.599 215.11C483.889 207.599 484.851 200.459 485.507 193.691C504.4 230.371 500.136 261.266 500.136 261.266Z" fill="#262F6A"/>
</g>
<path d="M311.141 420.651C309.851 420.651 309.02 420.629 308.736 420.629C306.506 420.672 276.22 421.087 239.418 414.057C204.584 407.398 157.439 392.507 130.609 359.255C109.835 333.535 103.909 300.675 112.962 261.593C110.994 256.659 104.216 238.297 100.608 210.503C96.759 180.984 95.95 134.827 113.903 82.6016C119.151 67.3399 130.74 54.9385 145.675 48.5849C160.741 42.1877 177.907 42.4715 192.732 49.3491C226.036 64.8291 253.675 85.2871 274.952 110.243C280.659 109.391 295.638 107.361 308.714 107.361C321.812 107.361 336.769 109.391 342.476 110.243C363.753 85.309 391.392 64.8291 424.696 49.3491C439.543 42.4497 456.687 42.1658 471.753 48.5849C486.688 54.9385 498.277 67.3399 503.526 82.6016C521.478 134.827 520.669 180.962 516.821 210.503C513.191 238.297 506.434 256.659 504.466 261.593C513.519 300.675 507.593 333.535 486.819 359.255C459.989 392.485 412.822 407.398 378.01 414.057C346.259 420.148 319.319 420.651 311.141 420.651ZM168.329 52.3403C161.725 52.3403 155.122 53.6503 148.933 56.2922C136.163 61.7069 126.257 72.2962 121.775 85.3526C88.4278 182.315 120.813 258.864 121.141 259.628C121.49 260.458 121.578 261.375 121.381 262.248C112.503 299.278 117.795 330.172 137.081 354.058C185.648 414.21 307.402 412.332 308.627 412.31C308.692 412.31 308.736 412.31 308.802 412.31C310.048 412.332 431.824 414.166 480.369 354.036C499.655 330.151 504.925 299.256 496.069 262.248C495.85 261.375 495.938 260.458 496.309 259.628C496.397 259.432 504.641 240.153 508.642 209.127C512.338 180.569 513.081 135.897 495.675 85.3526C491.193 72.318 481.287 61.7287 468.517 56.2922C455.615 50.8119 440.943 51.0521 428.238 56.9472C395.263 72.2743 368.061 92.6232 347.396 117.426C346.456 118.561 344.969 119.107 343.504 118.867C343.307 118.845 324.261 115.723 308.736 115.723C293.21 115.723 274.165 118.823 273.968 118.867C272.503 119.107 271.016 118.561 270.075 117.426C249.411 92.6232 222.209 72.2743 189.234 56.9472C182.608 53.8686 175.48 52.3403 168.329 52.3403Z" fill="#262F6A"/>
<path d="M309.086 289.802C314.605 289.802 319.079 288.834 319.079 287.641C319.079 286.447 314.605 285.479 309.086 285.479C303.567 285.479 299.093 286.447 299.093 287.641C299.093 288.834 303.567 289.802 309.086 289.802Z" fill="white"/>
<path d="M243.551 293.929C260.495 293.929 274.23 278.093 274.23 258.558C274.23 239.024 260.495 223.188 243.551 223.188C226.607 223.188 212.872 239.024 212.872 258.558C212.872 278.093 226.607 293.929 243.551 293.929Z" fill="#262F6A"/>
<path d="M251.882 260.96C257.401 260.96 261.875 255.3 261.875 248.318C261.875 241.337 257.401 235.677 251.882 235.677C246.363 235.677 241.889 241.337 241.889 248.318C241.889 255.3 246.363 260.96 251.882 260.96Z" fill="white"/>
<g opacity="0.2">
<path d="M232.115 279.038C235.17 279.038 237.647 275.207 237.647 270.48C237.647 265.753 235.17 261.921 232.115 261.921C229.059 261.921 226.582 265.753 226.582 270.48C226.582 275.207 229.059 279.038 232.115 279.038Z" fill="white"/>
</g>
<path d="M413.85 252.532C407.771 250.698 401.714 249.497 395.832 249.737C389.949 249.934 384.33 251.397 379.213 253.886C374.074 256.353 369.416 259.803 365.284 263.798C361.129 267.794 357.565 272.444 354.547 277.27L348.796 270.851C353.432 269.06 358.264 267.619 363.25 266.811C368.236 265.982 373.353 265.829 378.36 266.418C383.368 267.03 388.222 268.383 392.727 270.37C397.231 272.357 401.364 274.955 405.081 277.968C400.555 276.353 396.05 274.955 391.524 274.038C386.997 273.121 382.471 272.685 378.032 272.837C369.11 273.078 360.517 275.588 352.295 279.256C350.021 280.283 347.331 279.256 346.325 276.964C345.757 275.676 345.822 274.257 346.434 273.078L346.566 272.816C349.671 266.768 353.935 261.506 358.92 256.964C363.906 252.445 369.723 248.733 376.173 246.441C382.602 244.148 389.643 243.449 396.225 244.585C402.829 245.72 408.864 248.624 413.85 252.532Z" fill="#262F6A"/>
<path d="M285.732 504.601C285.732 498.728 278.516 493.946 269.616 493.946C260.717 493.946 253.5 498.706 253.5 504.601C253.5 508.531 256.737 511.959 261.526 513.793H261.504C261.504 513.793 261.241 519.972 269.616 519.972C277.991 519.972 277.729 513.793 277.729 513.793H277.707C282.496 511.937 285.732 508.531 285.732 504.601Z" fill="#0096F0"/>
<path d="M269.616 522.155C266.096 522.155 263.362 521.194 261.547 519.273C260.235 517.919 259.711 516.391 259.47 515.277C254.419 512.941 251.314 508.924 251.314 504.579C251.314 497.396 259.339 491.741 269.616 491.741C279.872 491.741 287.919 497.374 287.919 504.579C287.919 508.924 284.836 512.919 279.762 515.277C279.544 516.391 278.997 517.919 277.685 519.273C275.87 521.194 273.159 522.155 269.616 522.155ZM264.193 515.583C264.324 515.823 264.521 516.063 264.74 516.303C265.724 517.286 267.364 517.788 269.616 517.788C271.869 517.788 273.509 517.286 274.493 516.303C274.711 516.063 274.908 515.823 275.039 515.583L269.616 514.731L264.193 515.583ZM269.616 496.129C262.072 496.129 255.687 499.994 255.687 504.601C255.687 507.439 258.224 510.19 262.313 511.762L269.638 514.579L276.92 511.762C281.009 510.19 283.545 507.439 283.545 504.601C283.545 500.016 277.16 496.129 269.616 496.129Z" fill="#262F6A"/>
<path d="M331.718 504.601C331.718 498.728 338.934 493.946 347.834 493.946C356.734 493.946 363.95 498.706 363.95 504.601C363.95 508.531 360.713 511.959 355.925 513.793H355.946C355.946 513.793 356.209 519.972 347.834 519.972C339.459 519.972 339.721 513.793 339.721 513.793H339.743C334.954 511.937 331.718 508.531 331.718 504.601Z" fill="#0096F0"/>
<path d="M347.834 522.155C344.313 522.155 341.58 521.194 339.765 519.273C338.453 517.919 337.928 516.391 337.688 515.277C332.636 512.941 329.531 508.924 329.531 504.579C329.531 497.396 337.556 491.741 347.834 491.741C358.089 491.741 366.136 497.374 366.136 504.579C366.136 508.924 363.053 512.919 357.98 515.277C357.761 516.391 357.215 517.919 355.903 519.273C354.088 521.194 351.354 522.155 347.834 522.155ZM342.389 515.561C342.52 515.801 342.717 516.063 342.957 516.303C343.941 517.286 345.581 517.788 347.834 517.788C350.086 517.788 351.726 517.286 352.71 516.303C352.951 516.063 353.126 515.801 353.279 515.561L347.834 514.666L342.389 515.561ZM347.834 496.129C340.29 496.129 333.905 499.994 333.905 504.601C333.905 507.439 336.441 510.19 340.53 511.762L347.856 514.579L355.137 511.762C359.226 510.19 361.763 507.439 361.763 504.601C361.763 500.016 355.378 496.129 347.834 496.129Z" fill="#262F6A"/>
</g>
<defs>
<clipPath id="clip0_267_4584">
<rect width="484" height="573" fill="white" transform="translate(71 44)"/>
</clipPath>
</defs>
</svg>
