<svg width="626" height="646" viewBox="0 0 626 646" fill="none" xmlns="http://www.w3.org/2000/svg">
<ellipse cx="313" cy="299.5" rx="313" ry="299.5" fill="#B0A2D7"/>
<path d="M600.148 469.93V479.782C600.148 487.273 596.039 494.128 589.456 497.692L330.654 637.274C323.367 641.202 315.149 642.632 307.227 641.61H307.204C301.847 640.906 296.604 639.09 291.837 636.162L89.7158 511.993C72.6 501.846 77.662 486.637 77.662 486.637L21.7065 204.953C25.1342 195.351 47.5618 189.494 47.5618 189.494L357.054 88.5019C373.057 86.6405 383.34 90.9081 388.834 100.329C390.4 103.053 391.399 106.026 391.898 109.136C391.989 109.726 392.08 110.294 392.148 110.907L412.669 305.264L416.074 337.385L464.742 369.528L591.045 452.95C596.72 456.719 600.148 463.097 600.148 469.93Z" fill="#B4C5D8"/>
<g opacity="0.6">
<path d="M388.811 100.351C389.401 101.373 389.923 102.417 390.332 103.507C384.407 96.9917 375.009 94.2451 361.571 95.8114L52.0791 196.781C52.0791 196.781 29.6742 202.638 26.2465 212.24L82.1793 493.901C82.1793 493.901 80.2725 499.667 82.7922 506.477C74.1662 497.102 77.662 486.615 77.662 486.615L21.7065 204.953C25.1342 195.351 47.5618 189.494 47.5618 189.494L357.054 88.502C373.034 86.6406 383.318 90.9309 388.811 100.351Z" fill="white"/>
</g>
<path d="M472.914 500.621L386.087 542.548L355.396 522.708C370.106 496.989 402.249 485.616 451.781 488.522L472.914 500.621Z" fill="#949099"/>
<g opacity="0.3">
<path d="M600.148 469.93V479.782C600.148 487.273 596.039 494.128 589.456 497.692L330.653 637.274C323.367 641.201 315.149 642.632 307.227 641.61C439.523 575.281 506.964 509.723 506.964 509.723C563.851 480.599 527.531 457.468 527.531 457.468C454.051 535.034 297.489 542.57 297.489 542.57L394.804 394.203C404.633 385.69 449.238 370.617 449.238 370.617C449.238 370.617 455.208 370.163 464.72 369.573L591.022 452.996C596.72 456.719 600.148 463.097 600.148 469.93Z" fill="#262F6A"/>
</g>
<path d="M119.316 464.573L176.816 443.916L283.846 517.464L243.508 535.851L119.316 464.573Z" fill="#949099"/>
<path d="M386.087 545.703C385.497 545.703 384.884 545.521 384.362 545.203L353.671 525.364C352.196 524.41 351.787 522.458 352.741 520.983C353.694 519.507 355.646 519.098 357.122 520.052L386.314 538.938L466.127 500.394L450.214 491.291C448.693 490.428 448.171 488.476 449.034 486.955C449.897 485.434 451.849 484.912 453.37 485.775L474.503 497.874C475.525 498.464 476.138 499.554 476.092 500.734C476.047 501.915 475.366 502.959 474.299 503.481L387.472 545.408C387.04 545.612 386.564 545.703 386.087 545.703Z" fill="#262F6A"/>
<path d="M243.508 539.029C242.963 539.029 242.419 538.893 241.919 538.598L117.705 467.32C116.638 466.707 116.025 465.526 116.116 464.301C116.229 463.075 117.047 462.008 118.204 461.599L175.703 440.942C176.657 440.602 177.724 440.738 178.563 441.306L285.617 514.854C286.547 515.489 287.07 516.601 286.979 517.736C286.888 518.871 286.184 519.87 285.14 520.347L244.802 538.734C244.416 538.938 243.962 539.029 243.508 539.029ZM126.83 465.231L243.667 532.287L277.422 516.897L176.339 447.435L126.83 465.231Z" fill="#262F6A"/>
<path d="M83.1779 238.617L106.899 425.892C108.375 437.537 120.315 444.779 131.325 440.693L372.785 351.255C380.616 348.349 385.474 340.517 384.566 332.232L365.906 157.624C364.681 146.206 353.331 138.737 342.367 142.165L95.8445 218.959C87.4228 221.547 82.0656 229.855 83.1779 238.617Z" fill="#09CBFF"/>
<path d="M124.969 445.641C120.996 445.641 117.069 444.552 113.573 442.44C107.785 438.945 103.994 433.088 103.131 426.369L79.4098 239.094C78.0705 228.47 84.4946 218.46 94.7096 215.282L341.232 138.487C347.542 136.513 354.352 137.466 359.868 141.098C365.407 144.73 368.971 150.587 369.675 157.17L388.334 331.778C389.401 341.811 383.544 351.277 374.079 354.773L132.619 444.211C130.144 445.187 127.556 445.641 124.969 445.641ZM86.9689 238.14L110.69 425.415C111.258 429.797 113.732 433.633 117.523 435.926C121.314 438.218 125.854 438.65 130.008 437.106L371.468 347.668C377.665 345.375 381.501 339.178 380.798 332.618L362.138 158.009C361.684 153.696 359.346 149.86 355.714 147.477C352.082 145.093 347.656 144.48 343.502 145.751L96.9796 222.546C90.2831 224.634 86.0836 231.194 86.9689 238.14Z" fill="#262F6A"/>
<path d="M312.221 645.674C304.435 645.674 296.672 643.562 289.862 639.386L87.741 515.217C72.1688 505.978 71.9872 491.677 74.0529 485.412C74.7112 483.414 76.8677 482.347 78.8653 483.005C80.8402 483.664 81.9298 485.797 81.2942 487.795C81.1353 488.294 77.526 500.325 91.6681 508.702L293.834 632.916C304.458 639.454 317.874 639.817 328.86 633.915L587.663 494.355C593.02 491.472 596.357 485.888 596.357 479.805V469.976C596.357 464.391 593.588 459.238 588.934 456.174L413.985 340.608C413.032 339.973 412.419 338.974 412.306 337.839L388.38 111.361C388.017 107.933 387.063 104.891 385.565 102.304C380.73 94.0181 371.673 90.7493 357.894 92.2929L48.7424 193.104C48.6289 193.149 48.4927 193.172 48.3565 193.217C48.0387 193.285 15.7139 200.527 17.8023 219.027C18.0293 221.115 16.5311 223 14.4427 223.227C12.3543 223.476 10.4702 221.955 10.2432 219.867C7.45112 195.215 43.1809 186.566 46.5632 185.817L355.873 84.8927C356.123 84.8246 356.35 84.7565 356.623 84.7338C373.716 82.7362 385.656 87.3443 392.125 98.4219C394.168 101.94 395.462 106.004 395.939 110.498L419.683 335.183L593.157 449.75C599.944 454.244 604.007 461.758 604.007 469.907V479.737C604.007 488.635 599.149 496.784 591.318 500.984L332.515 640.543C326.159 643.994 319.168 645.674 312.221 645.674Z" fill="#262F6A"/>
<path d="M47.5616 231.149C42.2725 194.102 14.4196 196.781 13.8521 222.205L53.6906 478.17C57.1864 498.464 80.1588 494.9 81.2711 476.627L47.5616 231.149Z" fill="#B4C5D8"/>
<path d="M67.1745 495.717C59.9105 495.717 51.9655 490.587 49.9452 478.806L10.084 222.773C10.0386 222.546 10.0386 222.319 10.0386 222.114C10.3337 209.311 17.2345 199.982 26.882 199.414C36.0301 198.869 47.9249 206.701 51.3299 230.604V230.627L85.0394 476.105C85.0621 476.354 85.0848 476.604 85.0621 476.854C84.3357 488.635 75.9367 495.263 68.0144 495.695C67.7193 495.695 67.4469 495.717 67.1745 495.717ZM17.6658 221.955L57.4589 477.557C58.8436 485.639 63.6106 488.272 67.6058 488.067C71.9642 487.818 76.8674 484.186 77.4576 476.717L43.7935 231.671C41.2965 214.192 33.4877 206.61 27.336 206.996C21.888 207.337 17.9382 213.466 17.6658 221.955Z" fill="#262F6A"/>
<path d="M76.1865 483.232C81.9069 477.353 90.1924 480.985 95.2318 485.752C143.719 512.629 247.004 570.718 296.944 598.571C298.715 599.502 302.188 601.658 304.14 602.362C310.042 604.7 316.784 603.905 322.232 600.705L326.045 598.753C384.77 569.016 442.996 538.257 501.789 508.656C527.485 495.967 553.272 483.618 579.718 472.45C560.128 484.413 540.084 495.536 519.926 506.409C459.317 538.711 397.528 568.811 336.578 600.478L328.928 604.382C326.477 605.631 323.435 607.31 320.915 608.309C313.333 611.26 304.526 610.398 297.602 606.198C290.951 602.475 278.171 595.325 271.384 591.511C232.158 569.084 129.577 513.015 89.6022 489.248C87.2641 487.364 83.4505 485.366 81.0443 487.318C78.343 490.451 73.5079 486.546 76.1865 483.232Z" fill="#262F6A"/>
<path d="M314.105 606.879L310.927 626.855L307.772 606.879H314.105Z" fill="#262F6A"/>
<g opacity="0.3">
<path d="M412.669 305.264C329.746 355.772 185.101 441.85 185.101 441.85L83.0419 483.368L78.3657 455.561C246.868 391.002 367.677 287.99 390.332 105.936L391.875 109.136C391.966 109.726 392.057 110.294 392.125 110.907L412.669 305.264Z" fill="#262F6A"/>
</g>
<path d="M209.027 495.263C209.027 495.263 208.573 495.445 207.733 495.763C202.671 497.738 183.83 504.752 172.571 504.57C164.421 504.434 155.069 503.254 149.507 497.057C146.08 493.266 144.105 487.614 144.672 479.215C146.148 457.014 182.309 448.683 182.309 448.683L192.229 454.926L204.282 474.357L209.027 495.263Z" fill="white"/>
<path d="M570.774 352.912C551.434 388.097 507.055 403.328 507.055 403.328L501.993 361.787C501.993 361.787 514.546 359.131 524.716 349.643C531.73 343.105 537.632 333.344 537.496 318.975C537.314 298.591 516.408 280.249 498.906 258.684C486.171 242.998 475.207 225.61 475.366 204.522C475.638 162.527 490.62 147.726 508.508 143.096H508.531C511.981 142.188 515.545 141.688 519.109 141.438C541.309 139.849 547.643 160.461 545.418 191.22C543.421 218.755 543.738 236.642 554.748 254.416C556.019 256.505 557.472 258.57 559.061 260.659C574.27 280.635 590.114 317.727 570.774 352.912Z" fill="white"/>
<path d="M554.725 254.416C544.714 259.41 533.432 262.225 521.515 262.225C513.638 262.225 506.033 260.999 498.883 258.707C486.148 243.021 475.184 225.633 475.343 204.544C475.615 162.549 490.597 147.749 508.485 143.118H508.508C511.958 142.21 515.522 141.711 519.086 141.461C541.287 139.872 547.62 160.484 545.395 191.242C543.42 218.755 543.715 236.642 554.725 254.416Z" fill="#FFB531"/>
<g opacity="0.6">
<path d="M545.509 317.318C545.645 331.687 539.743 341.448 532.729 347.986C522.559 357.452 510.006 360.13 510.006 360.13L514.887 400.15C510.074 402.307 507.055 403.351 507.055 403.351L501.993 361.81C501.993 361.81 514.546 359.154 524.716 349.665C531.73 343.128 537.632 333.367 537.496 318.998C537.178 283.813 475.048 254.643 475.366 204.544C475.638 162.549 490.62 147.749 508.508 143.118H508.531C510.619 142.573 512.73 142.187 514.864 141.892C499.11 146.591 485.944 159.78 483.72 193.467C495.41 204.022 498.338 215.69 488.941 228.924V228.947C504.127 264.086 545.259 288.693 545.509 317.318Z" fill="white"/>
</g>
<g opacity="0.3">
<path d="M570.774 352.934C551.434 388.119 507.055 403.351 507.055 403.351L501.993 361.81C501.993 361.81 514.546 359.154 524.716 349.666L526.078 350.71C526.078 350.71 536.429 373.637 559.583 347.327C582.737 321.018 550.821 273.121 540.856 253.917C520.698 215.032 549.164 142.71 508.531 143.141C511.981 142.233 515.545 141.734 519.109 141.484C541.31 139.895 547.643 160.506 545.418 191.265C543.194 222.023 543.829 240.728 559.061 260.704C574.27 280.635 590.115 317.727 570.774 352.934Z" fill="#262F6A"/>
</g>
<path d="M507.055 407.142C505.466 407.142 503.99 406.143 503.468 404.577C502.787 402.579 503.854 400.423 505.829 399.742C506.26 399.583 549.073 384.555 567.46 351.096C584.666 319.77 572.839 285.039 556.041 262.974C539.38 241.114 539.516 220.276 541.65 190.97C543.148 170.29 540.56 156.466 533.954 149.86C530.413 146.319 525.669 144.821 519.404 145.275C500.835 146.591 479.497 154.536 479.179 204.59C479.02 230.513 496.477 250.489 513.365 269.807C527.666 286.151 541.15 301.61 541.309 318.975C541.65 356.839 503.173 365.442 502.787 365.533C500.722 365.964 498.724 364.648 498.27 362.605C497.839 360.562 499.155 358.541 501.198 358.087C502.583 357.792 533.977 350.596 533.705 319.043C533.568 304.493 520.97 290.078 507.622 274.801C490.62 255.37 471.37 233.328 471.552 204.522C471.824 161.778 487.283 139.918 518.836 137.67C527.303 137.057 534.204 139.35 539.312 144.48C547.665 152.834 550.889 168.225 549.209 191.515C546.893 223.703 548.165 240.115 562.08 258.366C580.33 282.337 593.088 320.246 574.111 354.773C554.294 390.843 510.165 406.302 508.281 406.938C507.872 407.074 507.463 407.142 507.055 407.142Z" fill="#262F6A"/>
<path d="M173.002 508.384C172.843 508.384 172.684 508.384 172.525 508.384C164.785 508.248 153.707 507.226 146.852 499.78C142.312 494.832 140.291 487.84 140.881 478.965C142.539 454.244 179.88 445.346 181.469 444.96C183.512 444.483 185.555 445.754 186.032 447.82C186.508 449.863 185.237 451.906 183.172 452.383C182.808 452.474 149.734 460.373 148.463 479.464C148.009 486.183 149.349 491.291 152.436 494.628C157.316 499.917 166.305 500.666 172.639 500.779C182.173 500.915 198.017 495.377 204.6 492.902L200.719 475.809L189.005 456.9C187.893 455.107 188.461 452.769 190.231 451.656C192.025 450.544 194.363 451.112 195.475 452.882L207.529 472.336C207.756 472.699 207.915 473.085 208.005 473.494L212.75 494.401C213.158 496.217 212.205 498.055 210.48 498.759C209.504 499.19 186.781 508.384 173.002 508.384Z" fill="#262F6A"/>
<path d="M506.851 431.249C503.332 446.231 495.569 459.919 484.446 470.543C449.397 504.094 410.807 509.86 392.17 497.806C392.17 497.806 376.417 518.735 328.86 537.122C281.304 555.509 234.065 548.222 250.863 514.604C250.863 514.604 250.273 514.558 249.229 514.422C248.956 514.377 248.661 514.331 248.343 514.286H248.321C238.31 512.674 201.241 503.821 185.056 458.989C184.443 457.286 183.853 455.561 183.308 453.745C165.874 396.677 374.805 277.275 374.805 277.275C406.108 269.693 446.423 276.231 475.298 300.497C475.298 300.497 475.298 300.52 475.321 300.52C504.399 324.923 521.856 367.281 506.851 431.249Z" fill="white"/>
<path d="M281.213 550.742C266.617 550.742 254.858 547.315 248.638 540.482C244.757 536.214 241.352 528.927 245.438 517.646C240.171 516.601 231.455 514.218 221.83 508.929C207.801 501.211 189.096 485.57 179.721 454.88C171.958 429.501 202.444 391.229 270.317 341.085C319.985 304.402 372.444 274.302 372.966 274.006C373.284 273.825 373.602 273.689 373.965 273.621C406.04 265.834 452.553 272.054 484.196 303.448C505.126 324.219 526.691 363.422 510.574 432.157C506.874 447.957 498.77 462.189 487.102 473.335C470.349 489.361 451.667 500.325 433.099 505.002C417.731 508.883 403.362 508.021 392.988 502.709C387.131 509.02 369.062 525.704 330.222 540.709C312.879 547.383 295.673 550.742 281.213 550.742ZM376.258 280.862C318.554 313.913 173.456 408.345 186.985 452.633C193.886 475.197 206.734 491.836 225.189 502.073C239.036 509.769 251.067 510.813 251.181 510.813C252.452 510.904 253.564 511.63 254.2 512.742C254.836 513.855 254.858 515.171 254.291 516.306C250.205 524.456 250.205 530.88 254.291 535.352C264.301 546.361 296.467 545.567 327.521 533.581C373.239 515.898 389.015 495.717 389.151 495.513C390.355 493.924 392.579 493.538 394.259 494.605C411.488 505.751 448.058 500.121 481.858 467.796C492.436 457.672 499.814 444.733 503.174 430.387C518.496 365.056 498.384 328.214 478.839 308.806C449.443 279.659 406.267 273.757 376.258 280.862Z" fill="#262F6A"/>
<path d="M243.508 232.761L156.227 277.275L144.037 283.495C137.113 216.553 162.469 191.537 173.955 183.774C177.088 181.663 180.992 180.959 184.624 182.026C190.186 183.66 195.566 186.18 200.651 189.267C200.651 189.267 200.651 189.267 200.673 189.267L200.696 189.29C200.741 189.313 200.855 189.381 201.037 189.517C225.734 204.658 243.508 232.761 243.508 232.761Z" fill="white"/>
<g opacity="0.3">
<path d="M243.508 232.761L156.226 277.275C151.369 274.619 149.144 270.42 151.232 264.472C160.744 237.21 184.397 224.52 201.74 212.262C217.607 201.049 203.533 191.106 201.013 189.494C225.734 204.658 243.508 232.761 243.508 232.761Z" fill="#262F6A"/>
</g>
<g opacity="0.6">
<path d="M243.508 232.761L242.555 233.237C233.452 221.025 212.909 196.713 188.642 189.631C185.01 188.564 181.106 189.267 177.973 191.378C167.032 198.779 143.515 221.819 147.283 281.838L144.037 283.495C137.113 216.553 162.469 191.537 173.955 183.774C177.088 181.663 180.992 180.959 184.624 182.026C217.471 191.605 243.508 232.761 243.508 232.761Z" fill="white"/>
</g>
<path d="M144.037 287.286C142.107 287.286 140.45 285.833 140.246 283.881C133.096 214.782 159.95 188.654 171.822 180.619C175.953 177.827 181.015 177.009 185.691 178.371C219.537 188.246 245.619 229.015 246.732 230.74C247.844 232.511 247.322 234.872 245.551 235.984C243.781 237.096 241.42 236.574 240.308 234.804C240.058 234.395 214.634 194.738 183.58 185.681C181.083 184.954 178.359 185.408 176.112 186.929C165.375 194.193 141.109 218.074 147.851 283.109C148.078 285.198 146.557 287.059 144.468 287.286C144.309 287.286 144.173 287.286 144.037 287.286Z" fill="#262F6A"/>
<path d="M382.387 381.809C379.345 404.145 371.854 427.572 354.92 441.396C354.125 442.032 353.285 442.667 352.445 443.28C309.769 474.13 266.208 470.339 266.208 470.339L229.366 468.023C151.709 455.334 103.472 413.498 102.836 379.244C102.609 366.781 106.105 349.007 112.869 330.007V329.985C124.696 296.843 146.465 260.023 175.748 241.205C198.517 226.586 230.887 224.339 257.809 225.837C258.218 225.86 258.649 225.882 259.058 225.905C286.025 227.494 307.227 232.76 307.227 232.76C307.227 232.76 338.939 205.271 363.024 215.418C370.583 218.596 375.304 230.445 378.233 245.2C384.657 277.457 382.455 323.651 382.455 323.651C382.455 323.651 386.473 351.731 382.387 381.809Z" fill="white"/>
<path d="M382.387 381.809C300.145 375.044 236.63 330.802 236.63 277.207C236.63 258.57 244.325 241.046 257.832 225.86C258.24 225.882 258.672 225.905 259.08 225.928C286.048 227.517 307.25 232.783 307.25 232.783C307.25 232.783 338.961 205.293 363.046 215.44C370.605 218.618 375.327 230.468 378.255 245.223C384.679 277.479 382.477 323.674 382.477 323.674C382.477 323.674 386.473 351.731 382.387 381.809Z" fill="#FFB531"/>
<g opacity="0.6">
<path d="M379.481 252.351C376.553 237.618 371.831 225.814 364.272 222.636C340.187 212.489 308.475 239.979 308.475 239.979L285.866 252.578L303.844 238.958C292.404 236.551 261.327 230.922 229.933 233.192C220.694 244.701 209.163 246.88 195.407 239.729C188.824 241.954 182.604 244.814 176.974 248.423C130.893 278.024 103.426 352.208 104.062 386.439C104.084 387.302 104.13 388.165 104.221 389.05C103.335 385.736 102.859 382.467 102.791 379.266C102.155 345.035 129.645 270.828 175.703 241.25C221.784 211.649 307.181 232.783 307.181 232.783C307.181 232.783 338.893 205.293 362.978 215.44C371.763 219.118 376.712 234.395 379.481 252.351Z" fill="white"/>
</g>
<path d="M212.205 368.03L200.877 373.137C197.54 385.622 198.244 399.106 201.695 407.346V407.369C203.42 411.478 205.826 414.27 208.754 415.019C211.07 415.609 215.927 414.588 218.538 411.886C223.918 406.302 226.619 399.288 227.981 393.567C229.411 387.484 229.343 382.853 229.343 382.853C215.11 382.785 212.205 368.03 212.205 368.03Z" fill="#262F6A"/>
<path d="M297.489 344.989C289.726 344.581 283.279 344.876 276.264 347.464C269.25 349.87 262.985 353.638 255.653 356.203C262.735 341.426 284.573 331.869 297.489 344.989Z" fill="#262F6A"/>
<path d="M156.726 320.473C164.58 318.249 173.07 322.834 177.247 329.508C179.721 333.617 180.788 338.656 179.335 343.31C178.132 342.106 177.383 340.903 176.452 339.791C170.732 332.164 164.149 326.716 156.726 320.473Z" fill="#262F6A"/>
<path d="M227.981 393.567C226.619 399.31 223.918 406.302 218.538 411.886C215.928 414.587 211.093 415.609 208.755 415.019C205.826 414.269 203.42 411.477 201.695 407.369V407.346C206.734 391.252 221.966 392.409 227.981 393.567Z" fill="#F7417E"/>
<path d="M207.188 349.529C211.388 349.302 219.196 351.391 223.123 353.978C224.917 355.159 225.235 357.724 223.804 359.336C221.58 361.878 218.72 363.807 215.882 364.874C214.566 365.374 213.09 365.147 211.91 364.375C207.438 361.401 205.19 357.383 204.555 352.639C204.351 351.027 205.554 349.597 207.188 349.529Z" fill="#262F6A"/>
<path d="M226.801 386.235C223.532 386.235 220.536 385.35 217.925 383.579C214.293 381.105 211.774 376.996 210.661 372.093C207.574 374.817 203.897 376.361 200.129 376.361C194.272 376.361 189.187 372.774 186.213 366.509C185.464 364.92 186.123 363.036 187.712 362.287C189.301 361.538 191.185 362.196 191.934 363.785C193.863 367.803 196.769 370.027 200.129 370.027C204.124 370.027 208.096 366.895 210.48 361.878C211.138 360.471 212.727 359.767 214.203 360.198C215.701 360.63 216.654 362.06 216.495 363.581C215.792 370.118 217.721 375.77 221.512 378.358C224.94 380.696 229.661 380.424 235.155 377.541C236.698 376.724 238.628 377.337 239.422 378.88C240.239 380.424 239.627 382.354 238.083 383.148C234.156 385.214 230.32 386.235 226.801 386.235Z" fill="#262F6A"/>
<path d="M210.276 418.356C209.458 418.356 208.687 418.265 208.006 418.106C204.169 417.13 200.991 413.838 198.789 408.595C198.767 408.527 198.744 408.481 198.721 408.413C194.84 398.993 194.476 384.873 197.836 372.32C198.29 370.618 200.015 369.619 201.718 370.073C203.42 370.527 204.419 372.252 203.965 373.955C200.991 385.123 201.264 398.039 204.646 406.12C204.669 406.166 204.691 406.234 204.714 406.279C206.076 409.48 207.801 411.5 209.572 411.954C210.82 412.249 214.52 411.523 216.291 409.684C220.377 405.439 223.305 399.764 224.94 392.818C226.256 387.257 226.211 382.944 226.211 382.898C226.188 381.15 227.596 379.72 229.344 379.675C231.069 379.652 232.522 381.037 232.567 382.785C232.567 382.989 232.635 387.892 231.114 394.271C229.207 402.33 225.757 408.981 220.854 414.065C218.13 416.903 213.703 418.356 210.276 418.356Z" fill="#262F6A"/>
<path d="M229.343 468.001C190.617 466.321 151.119 451.77 122.812 424.825C112.189 414.361 102.587 401.444 99.7264 386.303C95.6404 357.202 113.301 313.368 128.101 288.398C140.632 267.355 156.794 247.516 178.382 235.212C187.167 230.513 196.724 227.267 206.439 225.224C240.081 218.505 274.812 221.842 308.112 229.038L304.707 229.855C306.251 228.538 307.681 227.449 309.225 226.314C324.706 215.077 347.338 203.341 366.315 212.83C379.073 220.843 382.092 244.156 384.089 257.867C386.7 278.592 387.063 304.969 386.223 323.084C387.971 337.09 388.38 351.028 387.721 365.102C386.291 391.411 380.957 421.942 361.435 441.147C354.375 447.934 346.09 452.587 337.668 457.15C330.495 460.873 322.459 463.96 314.741 466.389L307.908 468.16C294.311 471.27 280.033 472.632 266.208 470.316C289.181 468.477 310.927 462.189 330.949 451.679C334.376 450.022 339.234 446.935 342.548 444.96C347.134 441.714 351.765 438.945 355.533 435.086C364.113 426.709 369.675 415.745 373.375 404.395C381.411 378.699 381.683 350.755 378.687 324.173C379.254 295.503 379.595 265.925 372.626 237.959C371.695 234.599 370.606 231.308 369.221 228.266C367.314 224.293 365.316 220.798 361.639 218.982C346.952 213.102 330.517 221.342 318.055 229.424C315.218 231.308 312.267 233.487 309.701 235.621C308.725 236.461 307.454 236.71 306.296 236.438C297.216 234.327 287.773 232.738 278.398 231.535C255.063 228.675 231.114 227.857 208.051 232.67C199.039 234.531 190.163 237.55 182.037 241.886C161.72 253.508 146.511 272.349 134.662 292.257C120.656 316.501 109.873 343.65 106.922 371.571C105.924 380.538 107.286 389.413 111.576 397.449C132.483 436.425 189.096 456.083 229.343 468.001Z" fill="#262F6A"/>
<path d="M309.792 235.553L283.959 254.325L304.616 229.968C308.498 225.837 314.219 232.011 309.792 235.553Z" fill="#262F6A"/>
<path d="M345.204 245.813C348.995 243.77 353.762 244.519 356.577 247.788C359.709 251.443 362.842 258.23 363.432 270.783C364.704 297.206 361.526 305.242 349.699 304.606C341.935 304.197 328.656 294.527 320.416 287.899C315.399 283.881 313.992 276.821 317.147 271.214C321.21 264.064 329.269 254.371 345.204 245.813Z" fill="#FD6CCB"/>
<g opacity="0.3">
<path d="M363.568 273.984C362.365 270.624 360.89 268.218 359.437 266.515C356.645 263.247 351.855 262.498 348.064 264.518C333.286 272.463 325.273 281.384 320.96 288.353C320.779 288.194 320.597 288.058 320.438 287.922C315.422 283.904 314.014 276.844 317.169 271.237C321.233 264.064 329.291 254.371 345.227 245.813C349.04 243.793 353.807 244.542 356.599 247.811C359.709 251.465 362.842 258.253 363.455 270.806C363.477 271.895 363.523 272.962 363.568 273.984Z" fill="#262F6A"/>
</g>
<path d="M350.902 308.465C350.448 308.465 349.971 308.442 349.494 308.42C342.662 308.056 332.061 302.154 318.032 290.895C311.517 285.651 309.747 276.617 313.833 269.376C317.919 262.134 326.363 251.601 343.388 242.476C348.791 239.57 355.555 240.774 359.437 245.336C364.045 250.739 366.656 259.251 367.2 270.624C368.154 290.35 366.633 299.567 361.594 304.583C358.983 307.194 355.487 308.465 350.902 308.465ZM349.676 248.492C348.768 248.492 347.837 248.719 346.997 249.173C331.584 257.458 324.048 266.765 320.461 273.121C318.214 277.094 319.19 282.065 322.799 284.97C335.035 294.777 344.909 300.565 349.903 300.838C353.853 301.042 355.374 300.066 356.259 299.181C360.254 295.208 360.163 282.019 359.641 270.987C359.074 258.956 356.077 253.077 353.694 250.262C352.672 249.104 351.197 248.492 349.676 248.492Z" fill="#262F6A"/>
<path d="M342.003 243.248C350.312 239.162 361.639 238.299 368.676 245.155L369.924 246.381C369.402 246.085 368.154 245.404 367.654 245.132C367.155 244.905 365.816 244.451 365.271 244.224C358.552 242.317 351.356 245.064 346.294 249.513C346.316 249.536 342.003 243.248 342.003 243.248Z" fill="#262F6A"/>
<g opacity="0.3">
<path d="M352.445 443.28C309.769 474.13 266.208 470.339 266.208 470.339L229.366 468.023C151.709 455.334 103.472 413.498 102.836 379.244C102.609 366.781 106.105 349.007 112.869 330.007C81.9294 460.192 377.937 510.064 366.814 329.985C380.344 305.469 377.71 244.678 377.71 244.678L378.232 245.2C384.657 277.457 382.455 323.651 382.455 323.651C382.455 323.651 395.144 412.431 352.445 443.28Z" fill="#262F6A"/>
</g>
<path d="M428.105 370.572C408.968 384.465 393.101 407.119 395.848 431.431C397.028 442.667 403.293 453.654 413.713 458.626C424.541 464.074 437.434 463.075 449.216 460.6C431.169 469.885 407.811 469.567 395.303 451.407C383.454 434.314 386.995 410.706 398.345 394.43C405.677 383.716 416.301 375.521 428.105 370.572Z" fill="#262F6A"/>
<path d="M388.947 499.803C382.545 489.384 380.752 479.714 383.612 471.042C387.971 457.831 401.568 452.247 402.136 452.02L404.973 459.079C404.86 459.125 394.032 463.642 390.808 473.471C388.697 479.895 390.263 487.409 395.416 495.808L388.947 499.803Z" fill="#262F6A"/>
<path d="M247.549 512.788C249.456 509.905 252.52 507.953 255.403 506.295C262.917 502.164 271.951 500.484 280.282 498.986C291.065 496.648 301.688 492.766 310.927 486.592C302.301 493.878 291.973 499.031 281.258 502.663C273.813 504.911 265.209 507.453 258.876 511.97C257.196 513.174 254.949 515.058 254.2 516.442C251.703 520.778 245.256 517.26 247.549 512.788Z" fill="#262F6A"/>
<path d="M275.22 548.971C272.655 542.184 272.201 533.581 276.99 527.724C274.947 533.83 277.603 540.436 281.712 544.976L275.22 548.971Z" fill="#262F6A"/>
<path d="M254.222 543.955C252.611 536.396 254.2 526.975 261.191 522.685C257.083 527.77 257.809 534.83 260.76 540.232C260.942 540.55 261.146 540.936 261.305 541.095L254.222 543.955Z" fill="#262F6A"/>
<path d="M172.775 506.976C168.802 500.484 167.849 491.2 173.206 485.298C170.891 491.086 173.297 497.42 177.769 501.392C178.019 501.619 178.359 501.914 178.518 501.982L172.775 506.976Z" fill="#262F6A"/>
<path d="M152.073 503.049C150.257 495.695 149.666 486.342 155.523 480.69C152.617 486.297 154.842 492.721 157.702 497.828C158.111 498.532 158.588 499.327 158.973 499.826L152.073 503.049Z" fill="#262F6A"/>
<g opacity="0.3">
<path d="M254.064 508.27C254.064 508.27 251.862 511.199 249.251 514.422C240.807 513.219 201.808 505.274 185.101 458.989L214.747 465.209C214.747 465.209 210.616 493.379 254.064 508.27Z" fill="#262F6A"/>
</g>
<g opacity="0.3">
<path d="M506.851 431.249C503.332 446.231 495.569 459.919 484.446 470.543C449.397 504.093 410.807 509.859 392.17 497.806C392.17 497.806 376.416 518.735 328.86 537.122C281.304 555.509 234.065 548.222 250.863 514.604C250.863 514.604 250.273 514.558 249.228 514.422C248.956 514.376 248.661 514.331 248.343 514.286L270.771 503.367C270.771 503.367 251.158 518.099 268.501 527.724C285.821 537.349 340.142 516.215 356.849 505.433C373.556 494.65 386.904 473.199 386.904 473.199L392.579 464.595C392.579 464.595 385.179 486.41 411.193 489.18C437.184 491.926 486.012 465.753 493.617 415.223C501.221 364.693 491.71 325.172 475.343 300.542C504.399 324.922 521.855 367.28 506.851 431.249Z" fill="#262F6A"/>
</g>
<g opacity="0.3">
<path d="M384.226 365.147C388.425 304.402 406.517 267.832 457.41 288.376C457.41 288.376 424.019 270.42 384.226 275.482V308.874V326.625" fill="#262F6A"/>
</g>
<g opacity="0.3">
<path d="M207.733 495.763C202.671 497.738 183.83 504.752 172.571 504.57C164.421 504.434 155.069 503.254 149.507 497.057C150.052 496.943 150.62 496.853 151.21 496.762C182.49 492.108 176.793 457.445 176.793 457.445L185.078 458.989L192.637 480.69C192.637 480.69 201.99 489.816 207.733 495.763Z" fill="#262F6A"/>
</g>
</svg>
