<svg width="626" height="620" viewBox="0 0 626 620" fill="none" xmlns="http://www.w3.org/2000/svg">
<ellipse cx="313" cy="299.5" rx="313" ry="299.5" fill="#B0A2D7"/>
<path d="M424.953 423.175C449.662 413.571 453.733 382.369 447.449 340.351C446.794 335.968 447.432 331.399 449.52 327.557C454.706 317.989 465.928 316.497 474.831 325.729C479.185 330.242 481.84 336.285 482.602 342.663C488.743 394.361 477.575 429.143 441.555 439.643" fill="#FFA502"/>
<path d="M482.602 342.664C481.841 336.285 479.186 330.243 474.831 325.729C465.928 316.516 454.707 318.008 449.52 327.557C447.432 331.418 446.795 335.968 447.45 340.351C448.6 348.035 449.397 355.364 449.786 362.265C467.415 382.444 482.814 364.018 484.106 362.377C483.929 356.129 483.416 349.545 482.602 342.664Z" fill="white"/>
<g opacity="0.55">
<path d="M470.212 323.174C464.813 322.82 459.822 325.636 456.83 331.156C454.724 335.017 454.087 339.567 454.742 343.95C461.025 385.969 456.972 417.17 432.245 426.775L443.874 438.3C442.547 438.785 441.184 439.233 439.785 439.643L423.165 423.175C447.874 413.571 451.963 382.369 445.662 340.351C445.007 335.949 445.644 331.417 447.75 327.557C452.405 318.996 461.875 316.908 470.212 323.174Z" fill="white"/>
</g>
<g opacity="0.3">
<path d="M477.38 408.33C477.38 408.33 450.83 434.44 437.767 412.396L428.085 420.826L427.023 424.686L432.829 434.44L439.219 437.517H447.697C447.697 437.517 471.698 425.096 477.38 408.33Z" fill="#390176"/>
</g>
<path d="M416.28 427.465H183.702C191.348 377.669 211.65 346.076 224.748 330.205C231.633 321.869 236.518 317.877 236.518 317.877H363.463C363.463 317.877 376.207 328.284 389.517 350.608C400.137 368.4 411.094 393.783 416.28 427.465Z" fill="white"/>
<g opacity="0.55">
<path d="M245.262 317.877C245.262 317.877 240.377 321.869 233.492 330.205C220.394 346.076 200.074 377.669 192.445 427.465H183.702C191.348 377.669 211.65 346.076 224.748 330.205C231.633 321.869 236.518 317.877 236.518 317.877H245.262Z" fill="white"/>
</g>
<path d="M434.015 559.47C434.015 590.466 375.41 615.681 302.593 616.259C301.725 616.278 300.858 616.278 299.991 616.278C225.969 616.278 165.966 590.839 165.966 559.47C165.966 558.556 166.019 557.642 166.126 556.747L169.011 547.385L184.162 498.242V498.223C189.437 473.083 239.28 453.37 299.991 453.37C355.71 453.37 402.244 469.969 413.607 492.125C413.607 492.125 413.607 492.125 413.625 492.125C414.74 494.307 415.519 496.545 415.943 498.82L415.961 498.857L432.723 551.469L432.865 551.935C433.626 554.397 434.015 556.896 434.015 559.47Z" fill="#FF1F2A"/>
<g opacity="0.3">
<path d="M408.315 429.33H175.737C176.321 425.544 176.976 421.87 177.684 418.308H376.667C373.835 399.844 369.251 383.861 363.959 370.284C360.985 362.656 353.693 357.9 345.905 358.646C320.948 360.978 295.761 359.318 271.158 353.611C259.582 350.925 248.979 347.587 239.404 343.633C231.102 340.22 223.562 336.378 216.801 332.107C223.686 323.771 228.571 319.78 228.571 319.78H355.516C355.516 319.78 368.26 330.186 381.57 352.511C392.172 370.265 403.129 395.648 408.315 429.33Z" fill="#390176"/>
</g>
<g opacity="0.55">
<path d="M174.852 560.16C174.746 561.074 174.692 561.988 174.692 562.902C174.692 578.381 189.313 592.406 212.995 602.663C184.215 592.257 165.966 576.758 165.966 559.47C165.966 558.556 166.019 557.642 166.126 556.747L169.011 547.385L184.162 498.242V498.223C189.437 473.083 239.28 453.37 299.991 453.37C332.665 453.37 362.189 459.077 383.322 468.271C363.127 461.11 337.125 456.802 308.735 456.802C248.041 456.802 198.198 476.515 192.923 501.655V501.674L177.755 550.798L174.852 560.16Z" fill="white"/>
</g>
<g opacity="0.25">
<path d="M237.793 541.845C242.465 543.654 249.262 545.911 257.546 547.627C261.103 548.373 263.546 551.842 263.21 555.646L257.776 613.368L211.614 602.644L228.553 546.713C229.704 542.591 233.934 540.372 237.793 541.845Z" fill="white"/>
</g>
<path d="M299.991 620.008C222.854 620.008 162.426 593.413 162.426 559.47C162.426 558.407 162.497 557.325 162.621 556.281C162.656 556.038 162.692 555.815 162.763 555.591L180.746 497.272C183.649 483.844 197.614 471.628 220.075 462.863C241.97 454.321 270.343 449.64 300.008 449.64C356.277 449.64 404.155 466.276 416.634 490.148C416.669 490.223 416.722 490.297 416.758 490.372C418.014 492.796 418.882 495.333 419.377 497.888L436.228 550.76C437.13 553.651 437.59 556.579 437.59 559.489C437.59 576.087 423.165 591.455 396.987 602.738C371.835 613.592 338.347 619.728 302.646 620.008C301.778 620.008 300.876 620.008 299.991 620.008ZM169.612 557.53C169.542 558.164 169.524 558.817 169.524 559.47C169.524 588.247 229.279 612.548 300.008 612.548C300.858 612.548 301.69 612.548 302.539 612.529C337.391 612.249 369.959 606.319 394.279 595.819C417.289 585.897 430.475 572.637 430.475 559.47C430.475 557.344 430.139 555.218 429.484 553.11L429.342 552.681L412.58 500.051C412.527 499.902 412.474 499.697 412.456 499.548C412.12 497.72 411.501 495.892 410.616 494.12C410.58 494.046 410.545 493.99 410.509 493.915C399.589 472.598 353.108 457.119 300.008 457.119C271.175 457.119 243.669 461.651 222.535 469.894C202.676 477.634 189.967 488.227 187.666 498.969C187.631 499.119 187.596 499.268 187.56 499.417L169.612 557.53Z" fill="#390176"/>
<path d="M166.126 560.458C165.878 560.458 165.63 560.439 165.364 560.365C163.594 559.955 162.391 558.201 162.586 556.299C162.975 552.681 164.09 549.082 165.878 545.594C166.745 543.897 168.71 543.17 170.391 543.934C172.073 544.699 172.94 546.676 172.374 548.522L169.489 557.884C169.011 559.451 167.63 560.458 166.126 560.458Z" fill="#390176"/>
<path d="M184.179 501.953C183.808 501.953 183.436 501.897 183.064 501.766C181.206 501.114 180.197 499.006 180.816 497.048L180.852 496.899C181.471 494.941 183.471 493.877 185.33 494.53C187.188 495.183 188.197 497.29 187.578 499.249L187.542 499.398C187.047 500.964 185.666 501.953 184.179 501.953Z" fill="#390176"/>
<path d="M299.991 541.528C246.678 541.528 204.924 523.718 204.924 500.965C204.924 478.212 246.678 460.401 299.991 460.401C353.303 460.401 395.057 478.212 395.057 500.965C395.057 523.718 353.303 541.528 299.991 541.528ZM299.991 466.928C246.82 466.928 211.119 484.534 211.119 500.965C211.119 517.395 246.837 535.001 299.991 535.001C353.144 535.001 388.862 517.395 388.862 500.965C388.862 484.534 353.161 466.928 299.991 466.928Z" fill="#390176"/>
<g opacity="0.3">
<path d="M299.991 538.265C350.784 538.265 391.96 521.565 391.96 500.965C391.96 480.364 350.784 463.665 299.991 463.665C249.198 463.665 208.021 480.364 208.021 500.965C208.021 521.565 249.198 538.265 299.991 538.265Z" fill="#390176"/>
</g>
<path d="M416.262 431.195C414.563 431.195 413.058 429.89 412.775 428.062C402.456 360.754 368.171 327.035 362.188 321.608H237.811C231.846 327.035 197.543 360.736 187.224 428.062C186.905 430.095 185.1 431.475 183.171 431.158C181.241 430.822 179.932 428.92 180.232 426.887C191.985 350.329 232.642 316.349 234.359 314.95C234.979 314.446 235.74 314.167 236.536 314.167H363.481C364.259 314.167 365.02 314.446 365.658 314.95C367.375 316.367 408.049 350.348 419.784 426.887C420.103 428.92 418.793 430.841 416.846 431.158C416.651 431.177 416.457 431.195 416.262 431.195Z" fill="#390176"/>
<path d="M513.081 522.095C488.531 522.021 468.689 514.71 457.025 494.736C457.273 496.06 457.468 497.328 457.627 498.615C457.751 499.435 457.857 500.237 457.945 501.039C460.477 524.203 452.211 540.167 431.059 547.59C428.298 540.969 426.333 534.236 425.165 527.354C422.988 514.467 423.714 501.114 427.661 487.238C428.864 482.967 430.387 478.641 432.227 474.239C340.187 492.889 258.767 562.51 160.231 482.949L153.488 445.071L150.16 426.383C193.861 323.193 402.279 366.442 454.653 458.088C473.84 459.711 489.062 464.579 499.275 473.549C511.045 483.844 516.161 499.622 513.081 522.095Z" fill="#00B1F7"/>
<path d="M216.907 401.001C215.845 401.001 214.8 401.094 213.774 401.281C209.526 402.064 206.145 404.433 204.216 407.939C200.145 415.361 203.897 425.694 212.552 430.953C216.836 433.564 221.65 434.534 226.093 433.713C230.341 432.93 233.722 430.561 235.651 427.055C239.722 419.632 235.969 409.3 227.314 404.041C224.004 402.045 220.411 401.001 216.907 401.001Z" fill="#5CE8FF"/>
<path d="M460.282 459.916C460.282 459.916 437.289 455.943 428.9 483.266L426.05 494.4L425.183 504.545C425.183 504.545 424.368 521.312 424.457 522.151C424.563 522.972 427.023 538.321 427.023 538.321L430.829 549.305L437.573 547.422L454.582 531.364L457.007 513.647L457.644 498.689L457.043 494.81L468.424 508.499L479.982 515.829L494.018 520.361L508.957 522.17L513.346 520.193L513.966 509.544L508.957 491.024L499.31 473.605L487.752 464.784L473.026 463.198L460.282 459.916Z" fill="#5CE8FF"/>
<g opacity="0.55">
<path d="M513.824 514.188C512.036 483.564 490.141 469.446 454.653 466.462C434.935 431.941 393.057 404.283 346.187 388.729H346.17C331.425 391.993 318.31 389.512 307.424 378.882C241.545 367.132 174.975 380.523 151.204 432.351L150.142 426.365C193.843 323.174 402.261 366.424 454.635 458.07C493.257 461.315 515.771 477.727 513.824 514.188Z" fill="white"/>
</g>
<g opacity="0.3">
<path d="M161.134 474.538C259.67 554.099 341.09 484.478 433.13 465.828C431.873 468.812 430.776 471.778 429.82 474.724C430.439 474.594 431.077 474.463 431.696 474.333C433.077 472.095 434.068 469.987 434.741 468.029C433.785 462.359 429.501 458.368 424.616 455.608C416.421 450.983 406.775 450.218 397.871 452.96C308.132 480.562 228.022 483.135 165.984 438.86L155.718 443.952L161.134 474.538Z" fill="#390176"/>
</g>
<path d="M431.059 551.32C429.696 551.32 428.404 550.48 427.82 549.082C418.474 526.627 418.014 503.165 426.457 479.275C404.916 484.217 383.658 491.808 363.056 499.193C330.912 510.7 297.69 522.58 264.024 523.848C226.146 525.284 191.49 512.863 158.09 485.896C157.399 485.336 156.921 484.534 156.762 483.62L146.691 427.055C146.549 426.309 146.638 425.544 146.939 424.854C162.373 388.431 199.154 366.536 250.537 363.235C288.344 360.81 332.045 368.96 370.419 385.633C409.925 402.791 440.493 427.204 456.724 454.526C481.185 456.857 497.859 464.318 507.682 477.298C516.161 488.488 519.134 503.744 516.55 522.655C516.302 524.501 514.78 525.863 513.028 525.844C490.425 525.769 473.574 519.708 461.892 507.362C462.406 529.331 452.441 544.028 432.156 551.152C431.82 551.245 431.431 551.32 431.059 551.32ZM432.245 470.491C433.307 470.491 434.334 470.994 435.006 471.889C435.82 472.971 435.997 474.444 435.466 475.713C425.661 499.062 424.846 521.051 433.006 542.834C451.202 535.15 457.91 519.615 453.52 495.426C453.202 493.654 454.122 491.901 455.715 491.248C457.308 490.595 459.114 491.229 460.016 492.777C469.61 509.208 485.947 517.582 509.93 518.309C511.506 503.035 508.886 490.819 502.142 481.923C493.487 470.491 477.398 463.721 454.352 461.781C453.219 461.688 452.193 461.016 451.609 459.991C436.404 433.377 406.615 409.412 367.711 392.515C330.293 376.271 287.742 368.307 250.962 370.676C202.853 373.772 168.409 393.709 153.842 426.831L163.453 480.841C234.341 537.37 295.76 515.4 360.755 492.143C383.641 483.956 407.306 475.489 431.537 470.584C431.802 470.528 432.015 470.491 432.245 470.491Z" fill="#390176"/>
<path d="M268.343 411.072C274.485 402.903 284.096 396.282 291.99 393.41C296.291 391.844 300.964 394.044 302.787 398.427C310.115 415.921 310.451 434.272 304.893 453.351C303.583 457.864 299.229 460.643 294.857 459.655C288.131 458.144 281.919 455.328 276.573 450.237" fill="#5CE8FF"/>
<path d="M250.554 523.308C249.634 523.308 248.713 522.879 248.112 522.058C247.067 520.641 247.297 518.589 248.643 517.47C265.812 503.352 274.874 478.921 273.511 450.442C271.918 417.226 256.466 385.354 235.031 371.142C233.58 370.172 233.155 368.158 234.058 366.648C234.961 365.118 236.872 364.671 238.324 365.622C261.369 380.915 277.989 414.877 279.688 450.106C281.158 480.748 271.228 507.175 252.448 522.618C251.882 523.084 251.209 523.308 250.554 523.308Z" fill="#390176"/>
<path d="M296.61 463.124C295.813 463.124 295.034 463.031 294.238 462.863C286.273 461.072 279.812 457.734 274.52 452.661C273.246 451.449 273.157 449.379 274.308 448.055C275.458 446.712 277.423 446.619 278.68 447.831C283.14 452.102 288.662 454.936 295.53 456.484C298.291 457.1 301.105 455.309 301.955 452.4C307.495 433.377 306.84 416.144 299.973 399.751C298.769 396.898 295.778 395.499 293.017 396.506C286.344 398.931 276.892 405.01 270.785 413.123C269.723 414.541 267.776 414.764 266.431 413.645C265.086 412.526 264.874 410.475 265.936 409.057C271.989 401.019 281.812 393.671 290.999 390.333C296.84 388.207 303.141 391.116 305.654 397.121C313.053 414.783 313.796 434.03 307.902 454.321C306.345 459.599 301.654 463.124 296.61 463.124Z" fill="#390176"/>
<path d="M222.943 440.52C218.358 440.52 213.686 439.177 209.455 436.604C197.826 429.535 193.083 415.212 198.853 404.675C201.703 399.472 206.623 395.984 212.694 394.846C218.571 393.746 224.854 394.996 230.412 398.371C242.041 405.44 246.785 419.763 241.014 430.3C238.165 435.503 233.244 438.991 227.173 440.129C225.775 440.408 224.359 440.52 222.943 440.52ZM216.907 401.001C215.845 401.001 214.801 401.094 213.774 401.281C209.526 402.064 206.145 404.432 204.216 407.939C200.145 415.361 203.897 425.693 212.553 430.953C216.836 433.564 221.651 434.534 226.093 433.713C230.341 432.93 233.722 430.561 235.651 427.055C239.722 419.632 235.97 409.3 227.315 404.041C224.005 402.045 220.412 401.001 216.907 401.001Z" fill="#390176"/>
<path d="M226.925 409.263C225.438 410.419 224.181 411.463 222.978 412.564C221.756 413.645 220.606 414.764 219.42 415.902C218.252 417.04 217.048 418.196 215.809 419.352C214.553 420.49 213.243 421.646 211.667 422.672C212.021 420.77 212.765 419.073 213.668 417.469C214.588 415.883 215.703 414.429 217.031 413.161C218.34 411.892 219.863 410.811 221.544 410.046C223.226 409.319 225.102 408.908 226.925 409.263Z" fill="#390176"/>
<path d="M211.667 408.442C213.597 408.125 215.544 408.479 217.349 409.225C219.155 409.971 220.801 411.128 222.199 412.545C223.597 413.962 224.73 415.622 225.562 417.431C226.376 419.24 226.925 421.199 226.925 423.25C225.544 421.814 224.411 420.397 223.243 419.054C222.093 417.711 220.942 416.443 219.739 415.231C218.553 414.018 217.314 412.881 215.986 411.78C214.659 410.661 213.243 409.636 211.667 408.442Z" fill="#390176"/>
<path d="M149.346 452.586L140 445.966C132.531 440.669 135.451 428.23 144.425 427.502C151.01 426.98 158.975 431.96 167.878 440.688C175.524 448.185 177.471 460.252 172.338 469.838C165.718 482.203 153.718 490.819 143.434 485.746C137.699 482.93 136.637 474.78 141.31 470.285C144.071 467.637 147.257 464.69 149.93 462.247C152.797 459.599 152.514 454.824 149.346 452.586Z" fill="#5CE8FF"/>
<g opacity="0.3">
<path d="M172.338 469.838C165.719 482.203 153.718 490.819 143.434 485.746C137.699 482.912 136.637 474.761 141.31 470.285C142.319 469.316 143.363 468.327 144.443 467.32C145.045 467.898 145.735 468.383 146.532 468.775C156.497 473.68 168.09 465.735 174.816 453.985C175.737 459.263 174.993 464.877 172.338 469.838Z" fill="#390176"/>
</g>
<g opacity="0.55">
<path d="M171.665 469.838C171.205 470.714 170.692 471.572 170.179 472.411C173.117 463.59 170.798 453.556 164.107 447.01C155.204 438.301 147.239 433.302 140.673 433.825C138.442 434.011 136.584 434.906 135.168 436.23C135.717 431.866 138.814 427.913 143.77 427.502C150.337 426.961 158.302 431.96 167.205 440.669C174.851 448.166 176.798 460.233 171.665 469.838Z" fill="white"/>
</g>
<path d="M149.718 490.95C147.116 490.95 144.496 490.371 141.912 489.103C138.177 487.276 135.593 483.583 134.956 479.275C134.319 474.892 135.788 470.491 138.903 467.507C141.239 465.25 144.16 462.527 147.594 459.394C148.319 458.741 148.39 457.902 148.355 457.473C148.337 457.044 148.16 456.223 147.363 455.664L138.018 449.043C133.292 445.686 131.186 439.755 132.655 433.918C134.088 428.192 138.602 424.22 144.142 423.772C151.381 423.194 159.93 427.819 170.267 437.928C179.223 446.693 181.33 460.55 175.4 471.647C169.736 482.277 159.842 490.95 149.718 490.95ZM145.399 431.195C145.151 431.195 144.921 431.214 144.691 431.232C140.868 431.549 139.752 434.85 139.505 435.839C138.956 438.002 139.328 440.986 141.983 442.87L151.328 449.491C153.753 451.206 155.258 453.967 155.435 457.044C155.612 460.121 154.443 463.031 152.249 465.045C148.868 468.141 146.001 470.808 143.7 473.027C142.337 474.351 141.699 476.216 141.983 478.156C142.248 480.039 143.328 481.569 144.939 482.352C153.576 486.604 163.718 478.342 169.258 467.991C173.577 459.916 172.02 449.808 165.471 443.411C157.169 435.298 150.426 431.195 145.399 431.195Z" fill="#390176"/>
<g opacity="0.3">
<path d="M431.059 547.571C428.298 540.95 426.333 534.218 425.165 527.336C426.174 527.112 427.201 526.907 428.245 526.758C452.281 523.065 444.246 480.674 444.033 479.573L454.547 492.125L457.928 501.039C460.477 524.203 452.211 540.167 431.059 547.571Z" fill="#390176"/>
</g>
<g opacity="0.3">
<path d="M513.081 522.095C488.531 522.021 468.689 514.71 457.025 494.736C457.273 496.06 457.467 497.328 457.627 498.615L454.564 492.125C485.911 501.991 510.85 505.571 499.275 473.531C511.045 483.844 516.16 499.622 513.081 522.095Z" fill="#390176"/>
</g>
<path d="M270.874 420.602C272.697 419.278 274.485 418.122 276.361 417.003C278.219 415.902 280.113 414.877 282.06 413.944C284.007 413.03 285.99 412.228 288.007 411.538C290.043 410.904 292.114 410.401 294.202 410.177C292.167 410.718 290.22 411.501 288.326 412.415C286.45 413.366 284.644 414.429 282.892 415.585C281.158 416.76 279.458 418.01 277.812 419.334C276.184 420.658 274.573 422.057 273.104 423.474L273.086 423.493C272.361 424.202 271.246 424.146 270.573 423.4C269.9 422.635 269.953 421.46 270.661 420.751C270.732 420.714 270.803 420.658 270.874 420.602Z" fill="#390176"/>
<path d="M273.919 428.118C275.742 427.353 277.529 426.701 279.335 426.085C281.14 425.47 282.963 424.929 284.804 424.425C286.645 423.922 288.486 423.493 290.344 423.138C292.203 422.765 294.079 422.523 295.937 422.318C294.114 422.821 292.327 423.381 290.574 424.034C288.822 424.686 287.087 425.395 285.371 426.197C283.671 426.98 281.99 427.801 280.326 428.678C278.68 429.554 277.016 430.487 275.494 431.456L275.476 431.475C274.627 431.997 273.547 431.717 273.034 430.822C272.538 429.927 272.804 428.789 273.653 428.249C273.759 428.193 273.848 428.137 273.919 428.118Z" fill="#390176"/>
<path d="M274.555 440.389C276.432 439.214 278.219 438.356 280.113 437.555C281.99 436.771 283.919 436.119 285.866 435.615C287.813 435.093 289.795 434.738 291.778 434.533C293.76 434.291 295.742 434.347 297.707 434.44C295.742 434.645 293.813 434.906 291.919 435.447C290.025 435.932 288.185 436.585 286.415 437.368C284.627 438.151 282.91 439.047 281.264 440.054C279.635 441.061 277.989 442.217 276.626 443.392L276.573 443.429C275.812 444.082 274.697 443.97 274.078 443.168C273.458 442.366 273.564 441.191 274.325 440.539C274.414 440.501 274.485 440.445 274.555 440.389Z" fill="#390176"/>
<g opacity="0.3">
<path d="M306.221 408.442C306.221 408.442 298.468 447.384 274.644 433.452L276.733 449.006L280.343 453.352L298.946 459.86C298.928 459.86 315.142 444.474 306.221 408.442Z" fill="#390176"/>
</g>
<g opacity="0.3">
<path d="M417.731 504.489L414.97 499.025C414.846 496.731 414.403 494.418 413.607 492.125C413.607 492.125 413.607 492.125 413.625 492.125C414.74 494.307 415.519 496.545 415.943 498.82L415.961 498.857L417.731 504.489Z" fill="#390176"/>
</g>
<path d="M441.555 443.374C439.998 443.374 438.582 442.292 438.139 440.632C437.626 438.655 438.723 436.585 440.599 436.044C472.813 426.645 485.398 396.264 479.079 343.111C478.407 337.404 476.017 332.164 472.353 328.378C468.689 324.573 464.494 322.801 460.565 323.361C457.273 323.846 454.441 325.991 452.582 329.404C450.954 332.388 450.37 336.062 450.936 339.773C458.282 388.916 450.193 417.338 426.174 426.663C424.333 427.372 422.298 426.384 421.625 424.463C420.952 422.523 421.891 420.378 423.714 419.67C444.069 411.762 450.688 386.006 443.945 340.929C443.148 335.558 444.033 330.15 446.44 325.692C449.414 320.228 454.087 316.778 459.591 315.976C465.751 315.08 472.035 317.598 477.309 323.044C482.106 328.005 485.239 334.812 486.106 342.179C489.345 369.408 487.681 391.564 481.15 408.013C474.035 425.973 461.025 437.816 442.493 443.225C442.192 443.336 441.874 443.374 441.555 443.374Z" fill="#390176"/>
<path d="M460.282 230.241C460.282 247.101 456.706 262.17 450.175 275.412C445.467 284.961 439.219 293.54 431.661 301.149C429.059 303.778 426.28 306.296 423.377 308.683C423.377 308.683 423.377 308.702 423.359 308.702C394.261 332.667 350.506 344.958 301.583 344.958C295.247 344.958 288.963 344.752 282.821 344.342H282.804C241.545 341.582 205.118 329.553 179.79 308.721C179.772 308.721 179.772 308.702 179.772 308.702C177.276 306.65 174.869 304.506 172.604 302.268C153.895 283.991 142.885 259.914 142.885 230.279C142.885 219.536 144.284 208.962 146.939 198.723C147.983 194.695 149.222 190.722 150.638 186.806L150.39 186.992C153.948 154.392 157.753 122.668 164.161 92.6417C167.17 78.5237 170.763 64.7973 175.17 51.5185C180.799 34.6029 200.109 27.9076 214.039 38.1651C234.023 52.8986 253.386 73.6374 264.502 90.9259C275.635 88.5574 287.229 87.2892 299.194 87.2892C305.849 87.2892 312.398 87.6808 318.841 88.4268C325.691 89.2288 332.452 90.441 339.037 92.0263L337.709 90.9259C348.825 73.6374 368.171 52.8799 388.172 38.1651C402.102 27.9076 421.412 34.6029 427.041 51.5185C437.75 83.7643 443.626 118.77 448.175 155.268C449.432 165.414 450.582 175.672 451.715 186.041C457.273 200.103 460.282 215.023 460.282 230.241Z" fill="white"/>
<path d="M205.349 145.869C205.349 175.69 184.534 199.861 158.833 199.861C155.506 199.861 152.267 199.45 149.151 198.686C150.196 194.657 151.435 190.685 152.851 186.768L152.603 186.955C156.161 154.355 159.966 122.631 166.373 92.6045C188.481 96.7634 205.349 119.032 205.349 145.869Z" fill="#FFA502"/>
<path d="M461.361 230.242C461.361 247.101 457.786 262.17 451.255 275.412C439.006 281.977 425.554 285.595 411.465 285.595C354.099 285.595 307.602 225.691 307.602 151.781C307.602 128.86 312.08 107.263 319.974 88.4083C326.824 89.2102 333.585 90.4225 340.17 92.0077L338.842 90.9074C349.958 73.6188 369.304 52.8614 389.305 38.1465C403.235 27.889 422.545 34.5844 428.174 51.4999C438.882 83.7458 444.759 118.752 449.308 155.25C450.564 165.395 451.715 175.653 452.848 186.022C458.352 200.103 461.361 215.023 461.361 230.242Z" fill="#FFA502"/>
<g opacity="0.3">
<path d="M450.547 225.635C450.547 242.495 446.972 257.564 440.44 270.805C435.732 280.354 429.484 288.933 421.926 296.542C419.324 299.172 416.545 301.69 413.642 304.077C413.642 304.077 413.642 304.096 413.625 304.096C384.526 328.061 340.772 340.351 291.849 340.351C285.512 340.351 279.229 340.146 273.087 339.736H273.069C249.953 338.188 228.377 333.749 209.402 326.438C198.835 321.496 189.26 315.565 180.887 308.702C180.87 308.702 180.87 308.683 180.87 308.683C178.374 306.632 175.967 304.487 173.701 302.249C171.896 300.496 170.161 298.668 168.515 296.803C192.215 310.866 222.359 319.127 255.635 321.347H255.652C261.794 321.757 268.06 321.962 274.414 321.962C323.337 321.962 367.091 309.672 396.19 285.707C396.208 285.707 396.208 285.688 396.208 285.688C399.111 283.301 401.89 280.783 404.492 278.153C412.049 270.544 418.298 261.965 423.006 252.416C429.537 239.194 433.112 224.124 433.112 207.246C433.112 192.028 430.103 177.126 424.581 163.008C423.448 152.639 422.298 142.381 421.041 132.236C416.722 97.5655 411.2 64.2566 401.483 33.3535C403.607 33.1484 405.748 33.223 407.819 33.5587C412.049 36.6919 416.474 40.0862 418.492 45.6998C429.272 75.5398 435.201 114.295 439.75 150.793C441.007 160.938 442.246 171.065 443.378 181.416C448.901 195.553 450.547 210.417 450.547 225.635Z" fill="#390176"/>
</g>
<g opacity="0.6">
<path d="M215.172 38.1091C216.871 39.3586 218.57 40.6641 220.252 41.9883C206.782 35.181 190.162 42.1002 185.029 57.5797C171.258 99.0759 165.47 145.123 160.249 193.053L160.497 192.867C155.452 206.761 152.744 221.401 152.744 236.359C152.744 265.993 163.753 290.071 182.462 308.348C184.746 310.586 187.135 312.73 189.631 314.782C189.631 314.782 189.631 314.8 189.649 314.8C190.657 315.64 191.702 316.46 192.764 317.262C188.604 314.595 184.639 311.723 180.94 308.665C180.922 308.665 180.922 308.646 180.922 308.646C178.427 306.594 176.02 304.45 173.754 302.212C155.045 283.935 144.036 259.858 144.036 230.223C144.036 215.265 146.744 200.625 151.788 186.731L151.54 186.917C156.762 138.987 162.55 92.9401 176.32 51.4438C181.914 34.5469 201.224 27.8516 215.172 38.1091Z" fill="white"/>
</g>
<g opacity="0.6">
<path d="M422.209 41.3726C414.563 38.1089 405.518 38.7243 398.013 44.2447C380.313 57.2811 363.109 75.0359 351.692 90.9443C349.091 94.5811 344.754 96.2969 340.506 95.5322C340.488 95.5322 340.453 95.5322 340.435 95.5136H340.418C339.763 94.2454 339.037 92.8653 338.347 91.5598C338.948 91.6903 339.55 91.8395 340.152 91.9887L338.825 90.8884C349.94 73.5998 369.286 52.8424 389.287 38.1275C399.96 30.2572 413.802 32.346 422.209 41.3726Z" fill="white"/>
</g>
<path d="M224.659 105.548C217.951 92.5858 209.26 80.3141 202.995 72.1267C199.667 67.7626 193.029 69.3665 191.826 74.8123C188.781 88.5574 184.48 111.758 183.861 135.854V135.872" fill="#F962BB"/>
<g opacity="0.6">
<path d="M230.465 112.336L201.756 132.553C196.693 136.115 190.375 137.103 184.551 135.22L224.659 105.548C217.951 92.5859 209.26 80.3142 202.995 72.1268C202.977 72.0895 202.959 72.0709 202.924 72.0523C205.349 68.9564 210.145 68.6206 212.818 72.1268C218.004 78.9154 226.235 90.2919 232.713 101.37C234.872 105.063 233.899 109.912 230.465 112.336Z" fill="white"/>
</g>
<g opacity="0.3">
<path d="M205.42 75.3344C205.207 75.8007 205.03 76.2856 204.906 76.8264C202.375 88.2402 198.994 106.163 197.543 125.689L183.843 135.872V135.854C184.463 111.758 188.764 88.5573 191.808 74.8122C193.012 69.3478 199.649 67.7625 202.977 72.1266C203.773 73.1337 204.588 74.1968 205.42 75.3344Z" fill="#390176"/>
</g>
<path d="M420.598 135.872C419.979 111.758 415.678 88.5573 412.633 74.8122C411.43 69.3478 404.792 67.7625 401.465 72.1266C395.199 80.314 386.526 92.5857 379.8 105.547" fill="#F962BB"/>
<g opacity="0.6">
<path d="M420.599 137.308L420.51 132.963C419.643 109.911 415.554 87.9977 412.634 74.7935C412.421 73.7864 411.996 72.9098 411.465 72.1825C414.775 71.1381 418.634 73.0591 419.537 77.1061C422.28 89.4338 426.015 109.352 427.201 130.706C427.413 134.604 424.262 137.756 420.599 137.308Z" fill="white"/>
</g>
<g opacity="0.3">
<path d="M413.784 80.2021C413.394 80.5191 413.04 80.8921 412.722 81.3211C406.562 89.3779 398.031 101.426 391.376 114.164L379.8 105.566C386.508 92.6043 395.199 80.3327 401.465 72.1453C404.792 67.7812 411.43 69.3851 412.633 74.8309C413.005 76.4721 413.377 78.2625 413.784 80.2021Z" fill="#390176"/>
</g>
<path d="M317.478 242.513C317.461 247.138 311.425 250.85 303.973 250.831C296.521 250.812 290.486 247.045 290.503 242.439C290.521 237.832 296.557 237.44 304.009 237.459C311.443 237.478 317.496 237.888 317.478 242.513Z" fill="#390176"/>
<path d="M335.09 247.511C335.232 251.26 334.524 255.344 332.152 258.907C330.966 260.66 329.355 262.17 327.479 263.252C325.603 264.315 323.496 264.893 321.408 265.061C319.319 265.229 317.231 264.986 315.248 264.39C313.266 263.83 311.39 262.916 309.673 261.779C307.938 260.622 306.381 259.205 305.018 257.564C304.699 257.135 304.363 256.724 304.062 256.296L303.619 255.624L303.407 255.288C303.336 255.177 303.23 255.009 303.283 255.121C303.495 255.456 303.92 255.68 304.203 255.661C304.487 255.68 304.911 255.475 305.124 255.121C305.195 255.009 305.071 255.177 305 255.288L304.77 255.624L304.327 256.296C304.009 256.724 303.69 257.153 303.354 257.564C301.991 259.186 300.416 260.604 298.681 261.741C296.946 262.879 295.07 263.774 293.088 264.334C291.105 264.912 289.017 265.154 286.928 264.968C284.84 264.781 282.733 264.203 280.875 263.121C278.999 262.04 277.406 260.51 276.22 258.757C273.866 255.195 273.175 251.111 273.317 247.362C273.335 246.728 273.866 246.225 274.467 246.243C274.945 246.262 275.335 246.598 275.476 247.045L275.494 247.082C276.485 250.402 277.83 253.498 279.919 255.456C280.928 256.445 282.078 257.172 283.3 257.62C284.521 258.067 285.813 258.216 287.123 258.161C289.76 258.049 292.415 256.948 294.628 255.288C295.743 254.449 296.752 253.479 297.601 252.379L298.221 251.54L298.893 250.495C299.478 249.6 300.309 248.836 301.248 248.351C302.186 247.847 303.195 247.605 304.203 247.605C305.212 247.605 306.221 247.866 307.159 248.351C308.08 248.854 308.912 249.619 309.496 250.514L310.168 251.558L310.788 252.398C311.637 253.498 312.646 254.486 313.744 255.326C315.956 257.004 318.611 258.105 321.231 258.235C322.541 258.291 323.833 258.161 325.054 257.713C326.275 257.265 327.408 256.557 328.435 255.568C330.541 253.61 331.904 250.533 332.913 247.232L332.93 247.194C333.125 246.579 333.745 246.243 334.311 246.448C334.771 246.598 335.072 247.026 335.09 247.511Z" fill="#390176"/>
<path d="M403.714 223.717C403.767 201.974 390.624 184.315 374.358 184.275C358.091 184.236 344.862 201.83 344.809 223.574C344.756 245.317 357.899 262.976 374.166 263.016C390.432 263.055 403.661 245.461 403.714 223.717Z" fill="white"/>
<path d="M374.225 267.038C374.207 267.038 374.171 267.038 374.154 267.038C365.091 267.019 356.648 262.357 350.365 253.908C344.294 245.758 340.966 234.978 340.984 223.565C341.037 199.674 355.976 180.259 374.295 180.259C374.313 180.259 374.348 180.259 374.366 180.259C392.703 180.315 407.589 199.804 407.536 223.732C407.518 235.146 404.138 245.907 398.013 254.039C391.712 262.413 383.269 267.038 374.225 267.038ZM374.295 188.297C360.171 188.297 348.666 204.113 348.63 223.583C348.613 233.207 351.356 242.215 356.383 248.947C361.197 255.4 367.516 258.981 374.189 259C374.207 259 374.225 259 374.242 259C380.897 259 387.216 255.475 392.048 249.04C397.093 242.326 399.89 233.337 399.907 223.714C399.96 204.225 388.491 188.335 374.348 188.297C374.331 188.297 374.313 188.297 374.295 188.297Z" fill="#390176"/>
<path d="M393.021 227.485C393.065 209.738 382.536 195.325 369.506 195.294C356.475 195.262 345.876 209.623 345.833 227.37C345.79 245.117 356.318 259.53 369.349 259.561C382.38 259.593 392.978 245.232 393.021 227.485Z" fill="#390176"/>
<path d="M380.497 216.531C380.509 211.824 378.045 208.002 374.996 207.995C371.946 207.987 369.464 211.797 369.452 216.504C369.441 221.211 371.904 225.033 374.954 225.041C378.004 225.048 380.486 221.238 380.497 216.531Z" fill="white"/>
<path d="M260.489 223.378C260.542 201.634 247.399 183.976 231.132 183.936C214.866 183.896 201.637 201.491 201.584 223.234C201.531 244.978 214.674 262.637 230.941 262.676C247.207 262.716 260.436 245.122 260.489 223.378Z" fill="white"/>
<path d="M230.996 266.702C230.978 266.702 230.961 266.702 230.925 266.702C221.863 266.684 213.42 262.021 207.136 253.573C201.065 245.423 197.738 234.643 197.755 223.229C197.773 211.815 201.154 201.054 207.278 192.923C213.579 184.53 222.022 179.924 231.067 179.924C231.085 179.924 231.12 179.924 231.138 179.924C240.2 179.942 248.643 184.605 254.926 193.053C260.998 201.203 264.325 211.983 264.307 223.397C264.254 247.288 249.316 266.702 230.996 266.702ZM231.067 187.962C224.412 187.962 218.093 191.487 213.261 197.921C208.216 204.635 205.42 213.624 205.402 223.248C205.384 232.871 208.128 241.879 213.154 248.612C217.969 255.065 224.288 258.645 230.961 258.664C230.978 258.664 230.996 258.664 231.014 258.664C245.138 258.664 256.643 242.849 256.679 223.378C256.696 213.755 253.953 204.747 248.926 198.014C244.112 191.561 237.793 187.981 231.12 187.962C231.102 187.962 231.085 187.962 231.067 187.962Z" fill="#390176"/>
<path d="M259.443 227.176C259.486 209.429 248.958 195.017 235.927 194.985C222.897 194.953 212.298 209.314 212.255 227.061C212.212 244.808 222.74 259.221 235.771 259.253C248.802 259.285 259.4 244.923 259.443 227.176Z" fill="#390176"/>
<path d="M235.872 216.201C235.884 211.493 233.42 207.672 230.371 207.664C227.321 207.657 224.839 211.467 224.827 216.174C224.816 220.881 227.279 224.703 230.329 224.71C233.379 224.718 235.861 220.908 235.872 216.201Z" fill="white"/>
<path d="M286.946 261.648C286.946 266.478 288.291 270.358 290.486 273.267C297.035 282.033 310.982 282.033 317.531 273.267C319.709 270.358 321.071 266.497 321.071 261.648C314.452 260.249 308.664 257.694 304.009 253.498C299.177 258.049 293.69 261.2 286.946 261.648Z" fill="#390176"/>
<path d="M290.468 273.267C297.017 282.033 310.965 282.033 317.514 273.267C310.983 264.464 297 264.464 290.468 273.267Z" fill="#EB5463"/>
<path d="M303.991 283.841C298.575 283.841 293.513 281.865 289.707 278.265C286.698 275.412 283.105 270.227 283.105 261.648H290.734C290.734 271.421 297.389 275.803 303.973 275.803C310.558 275.803 317.213 271.421 317.213 261.648H324.842C324.859 276.214 314.363 283.841 303.991 283.841Z" fill="#390176"/>
<path d="M183.861 139.882C183.33 139.882 182.799 139.77 182.303 139.528C180.923 138.875 180.038 137.439 180.038 135.854C180.038 135.816 180.038 135.76 180.038 135.742C180.657 111.888 184.763 88.9303 188.109 73.8798C189.011 69.8514 191.95 66.7741 195.773 65.8416C199.596 64.9278 203.508 66.3638 205.968 69.5903C212.216 77.759 221.102 90.3104 228.005 103.608C228.5 104.559 228.606 105.659 228.306 106.685C228.005 107.711 227.332 108.569 226.429 109.072C212.676 116.737 199.189 126.753 186.392 138.838C185.684 139.546 184.781 139.882 183.861 139.882ZM198.074 73.6373C197.826 73.6373 197.614 73.6746 197.472 73.7119C196.994 73.8238 195.879 74.2528 195.543 75.7261C192.711 88.4454 189.33 106.946 188.091 126.734C198.233 117.875 208.729 110.247 219.438 103.962C213.137 92.4925 205.526 81.8433 200.039 74.6444C199.401 73.8238 198.64 73.6373 198.074 73.6373Z" fill="#390176"/>
<path d="M302.681 349.508C256.838 349.508 217.243 339.195 188.126 319.668C156.408 298.388 139.628 267.448 139.628 230.241C139.628 215.471 142.16 200.774 147.151 186.507C147.151 186.47 147.151 186.451 147.151 186.414C152.372 138.446 158.213 91.9143 172.161 49.9518C175.312 40.4776 182.303 33.26 191.366 30.1828C200.339 27.1242 209.915 28.6535 217.65 34.3417C236.253 48.0495 255.563 67.9863 267.582 85.7971C290.096 81.4143 313.743 81.6381 336.435 86.4498C348.418 68.4712 367.958 48.2173 386.791 34.3417C394.526 28.6535 404.102 27.1428 413.076 30.1828C422.12 33.26 429.13 40.4589 432.28 49.9331C446.068 91.448 451.927 137.42 457.113 184.829C462.83 199.674 465.733 214.93 465.733 230.204C465.733 267.429 448.971 298.351 417.235 319.631C388.119 339.195 348.506 349.508 302.681 349.508ZM155.948 186.395C156.054 187.141 155.966 187.924 155.7 188.652C150.815 202.21 148.337 216.198 148.337 230.223C148.337 264.147 163.718 292.383 192.799 311.91C220.11 330.224 259.121 340.314 302.663 340.314C346.205 340.314 385.234 330.224 412.527 311.91C441.608 292.402 456.989 264.147 456.989 230.223C456.989 216.701 454.511 203.162 449.626 189.939C449.077 189.267 448.706 188.409 448.6 187.458C448.582 187.216 448.546 186.992 448.529 186.75C448.511 186.582 448.493 186.433 448.476 186.265C443.343 139.248 437.555 93.7047 424.032 52.9731C421.784 46.2218 416.81 41.1117 410.385 38.9296C404.031 36.7662 397.252 37.8479 391.765 41.8763C373.463 55.3603 354.506 75.0547 343.125 92.3805C342.966 93.4995 342.4 94.5439 341.55 95.2713C340.523 96.1478 339.178 96.4649 337.886 96.1665C314.416 90.702 289.742 90.4409 266.484 95.3832C264.767 95.7562 262.997 94.9915 262.006 93.4622C250.714 75.8939 231.35 55.64 212.659 41.895C207.189 37.8666 200.41 36.7849 194.038 38.9483C187.613 41.1303 182.639 46.2591 180.392 52.9917C166.869 93.7606 161.099 139.341 155.948 186.395Z" fill="#390176"/>
<path d="M420.598 139.882C419.749 139.882 418.917 139.583 418.226 139.005C403.765 126.864 390.561 117.036 377.835 108.979C376.083 107.86 375.463 105.491 376.454 103.608C383.34 90.3101 392.243 77.7587 398.491 69.59C400.951 66.3635 404.845 64.9275 408.686 65.86C412.527 66.7738 415.465 69.8511 416.35 73.8981C419.412 87.7178 424.191 133.485 424.404 135.424C424.563 137.047 423.802 138.595 422.457 139.378C421.855 139.733 421.235 139.882 420.598 139.882ZM384.933 104.13C394.809 110.564 404.969 118.024 415.784 126.79C414.191 112.299 411.058 85.3492 408.916 75.7258C408.58 74.2338 407.465 73.8235 406.987 73.7116C406.527 73.5997 405.341 73.4692 404.438 74.6441C398.898 81.8803 391.252 92.6041 384.933 104.13Z" fill="#390176"/>
<g opacity="0.2">
<path d="M286.928 104.093C267.546 107.357 251.846 113.436 240.642 122.985C236.678 126.38 238.235 133.131 243.227 134.306C265.635 139.546 282.945 133.914 293.353 113.492C295.742 108.793 291.919 103.254 286.928 104.093Z" fill="white"/>
</g>
<g opacity="0.2">
<path d="M216.217 155.902C212.588 153.03 212.694 146.428 216.447 141.187C220.199 135.928 226.182 134.007 229.81 136.879C233.439 139.751 231.085 144.563 227.332 149.822C223.598 155.063 219.845 158.774 216.217 155.902Z" fill="white"/>
</g>
<path d="M432.758 255.326C437.148 254.431 441.449 254.244 445.732 254.244C450.016 254.281 454.264 254.561 458.476 255.102C462.707 255.624 466.902 256.389 471.061 257.415C475.221 258.478 479.362 259.727 483.433 261.704C479.044 262.618 474.743 262.804 470.459 262.804C466.176 262.767 461.928 262.487 457.715 261.947C453.485 261.406 449.29 260.641 445.131 259.615C440.953 258.534 436.812 257.284 432.758 255.326Z" fill="#390176"/>
<path d="M430.811 276.083C435.254 276.661 439.396 277.873 443.467 279.254C447.538 280.671 451.485 282.331 455.343 284.214C459.202 286.079 462.972 288.168 466.636 290.518C470.282 292.887 473.857 295.423 477.15 298.612C472.707 298.053 468.565 296.822 464.494 295.442C460.423 294.024 456.476 292.364 452.617 290.481C448.759 288.597 444.989 286.508 441.325 284.177C437.679 281.809 434.103 279.272 430.811 276.083Z" fill="#390176"/>
<path d="M171.542 254.654C167.471 256.594 163.329 257.825 159.152 258.869C154.974 259.876 150.78 260.622 146.549 261.126C142.319 261.648 138.071 261.909 133.788 261.928C129.504 261.909 125.203 261.685 120.813 260.753C124.884 258.813 129.026 257.582 133.203 256.538C137.381 255.531 141.576 254.785 145.806 254.281C150.036 253.778 154.284 253.498 158.568 253.498C162.851 253.535 167.17 253.74 171.542 254.654Z" fill="#390176"/>
<path d="M173.382 275.431C171.205 278.508 168.656 280.951 166.037 283.264C163.4 285.539 160.621 287.572 157.736 289.418C154.85 291.265 151.841 292.906 148.709 294.304C145.558 295.685 142.319 296.897 138.708 297.512C140.885 294.435 143.416 291.973 146.054 289.679C148.691 287.404 151.47 285.371 154.355 283.525C157.24 281.697 160.249 280.056 163.382 278.638C166.55 277.258 169.789 276.046 173.382 275.431Z" fill="#390176"/>
<g opacity="0.3">
<path d="M389.836 594.867C412.846 584.946 426.032 571.685 426.032 558.519C426.032 556.411 425.696 554.266 425.041 552.159L424.9 551.73L408.138 499.1C408.085 498.95 408.031 498.745 408.014 498.596C407.677 496.768 407.058 494.941 406.173 493.169C406.138 493.094 406.102 493.038 406.067 492.964C404.491 489.868 402.137 486.921 399.164 484.105L401.553 483.229L388.438 488.059C388.438 488.059 399.429 503.874 386.579 513.572C386.597 513.553 386.614 513.535 386.632 513.535C386.668 513.553 386.685 513.572 386.721 513.572C386.703 513.572 386.703 513.572 386.685 513.572C396.987 513.386 401.075 527.616 392.438 533.528C374.118 546.042 346.666 555.068 317.62 557.12C311.761 557.53 307.071 562.435 306.54 568.608L302.982 611.503C335.975 610.72 366.649 604.882 389.836 594.867Z" fill="#390176"/>
</g>
</svg>
