<svg width="626" height="609" viewBox="0 0 626 609" fill="none" xmlns="http://www.w3.org/2000/svg">
<ellipse cx="313" cy="299.5" rx="313" ry="299.5" fill="#B0A2D7"/>
<path fill-rule="evenodd" clip-rule="evenodd" d="M312.622 478.3C233.501 494.364 187.644 458.097 175.05 369.52C43.2633 341.641 -9.69173 228.054 74.4578 157.411C110.748 126.95 136.891 86.2327 183.55 78.0447C230.23 69.8567 278.067 83.674 313.156 115.514C397.394 65.162 415.995 95.8893 368.914 207.718C361.817 289.197 339.945 336.812 303.299 350.585C439.291 282.144 522.907 299.699 535.1 405.987C540.707 454.937 530.85 488.713 524.709 506.379C489.598 504.555 472.043 503.643 472.043 503.643C468.238 488.401 465.813 476.008 464.745 466.463C453.331 459.477 446.033 453.291 442.873 447.884C426.097 459.788 406.962 468.354 385.468 473.583C386.759 496.656 387.248 513.299 386.937 523.512C363.508 537.707 339.344 537.107 314.402 521.687C313.534 508.538 312.933 494.097 312.622 478.3Z" fill="white"/>
<path fill-rule="evenodd" clip-rule="evenodd" d="M181.524 400.914C178.832 391.302 176.652 380.823 175.05 369.497C170.288 368.496 165.638 367.361 161.077 366.138C178.521 370.476 195.141 373.213 210.939 374.37C212.229 393.394 202.439 402.249 181.524 400.914Z" fill="#FFB531"/>
<path fill-rule="evenodd" clip-rule="evenodd" d="M354.185 328.046C414.104 305.551 460.762 303.882 491.89 323.44C468.06 364.402 437.266 370.81 399.908 342.085C389.184 333.808 374.076 328.958 354.185 328.046Z" fill="#FFB531"/>
<path fill-rule="evenodd" clip-rule="evenodd" d="M312.8 485.887V485.865V485.843V485.82V485.798V485.776V485.754V485.709V485.665V485.62V485.576V485.553V485.509V485.442V485.375V485.309V485.242L312.644 478.7V478.478V478.233C294.065 466.04 284.72 444.524 284.609 413.664C332.001 413.641 341.413 437.716 312.8 485.887Z" fill="#FFB531"/>
<g opacity="0.5">
<path fill-rule="evenodd" clip-rule="evenodd" d="M347.621 335.032C408.096 304.349 455.444 301.702 489.709 327.089C450.126 316.542 402.756 319.19 347.621 335.032Z" fill="white"/>
</g>
<path d="M352.783 538.286C339.366 538.286 325.771 534.036 312.043 525.559C310.775 524.78 309.974 523.445 309.885 521.977C309.084 510.273 308.505 497.457 308.172 483.818C271.993 490.204 242.289 485.42 219.861 469.578C194.474 451.667 178.031 419.293 170.978 373.324C135.156 365.314 103.383 350.518 78.9298 330.449C54.8108 310.668 38.6795 286.661 32.2715 261.029C27.51 242.005 28.311 223.159 34.6523 205.048C41.2828 186.068 53.676 168.869 71.4983 153.895C81.4218 145.573 90.7223 136.295 99.7335 127.328C124.364 102.831 147.616 79.669 182.748 73.5057C206.333 69.3672 230.964 70.68 253.97 77.3327C275.887 83.674 296.468 94.8657 313.712 109.818C352.004 87.3675 376.924 81.9162 389.807 93.108C405.893 107.103 400.709 143.86 373.431 208.808C369.826 249.548 362.395 282.389 351.359 306.441C347.309 315.252 342.726 322.995 337.63 329.625C403.401 302.124 454.443 297.808 489.642 316.809C517.833 332.028 534.654 361.843 539.66 405.431C545.846 459.432 533.208 495.877 529.047 507.87C528.38 509.806 526.488 511.052 524.464 510.941L471.798 508.204C469.773 508.093 468.06 506.691 467.57 504.733C464.033 490.515 461.63 478.589 460.428 469.177C451.84 463.771 445.676 458.831 441.76 454.181C426.452 464.394 409.164 472.07 390.252 477.076C391.386 498.258 391.809 513.9 391.498 523.623C391.453 525.181 390.608 526.605 389.295 527.406C377.391 534.659 365.176 538.286 352.783 538.286ZM318.874 518.973C340.924 531.9 361.75 532.501 382.442 520.82C382.62 510.607 382.108 494.832 380.929 473.828C380.796 471.625 382.286 469.622 384.422 469.111C405.226 464.06 424.027 455.649 440.247 444.124C441.293 443.367 442.628 443.1 443.874 443.39C445.142 443.657 446.233 444.458 446.878 445.57C448.769 448.819 453.82 454.381 467.17 462.547C468.371 463.281 469.173 464.549 469.328 465.951C470.285 474.562 472.421 485.754 475.692 499.215L521.482 501.596C526.199 487.578 535.989 454.181 530.538 406.477C525.91 366.071 510.669 338.614 485.282 324.886C448.925 305.262 390.652 313.717 316.248 349.294C312.621 351.497 308.839 353.366 304.923 354.835C302.631 355.702 300.072 354.612 299.093 352.387C298.114 350.162 299.049 347.537 301.229 346.446C304.789 344.644 308.327 342.909 311.843 341.24C340.479 323.395 358.123 278.428 364.33 207.295C364.375 206.828 364.486 206.36 364.664 205.915C395.859 131.823 392.254 107.437 383.755 100.05C377.08 94.265 359.836 92.93 315.492 119.43C313.756 120.475 311.554 120.253 310.063 118.896C275.753 87.7902 229.918 74.5515 184.328 82.5615C152.021 88.2352 129.771 110.396 106.186 133.848C97.0413 142.948 87.6073 152.337 77.3723 160.926C45.0208 188.093 32.1603 222.848 41.1493 258.804C53.8095 309.422 105.452 350.118 175.962 365.025C177.853 365.426 179.277 366.961 179.567 368.874C185.975 413.931 201.305 445.281 225.112 462.102C246.495 477.187 275.62 481.126 311.687 473.805C313.022 473.538 314.401 473.872 315.469 474.718C316.537 475.563 317.161 476.854 317.183 478.211C317.494 492.807 318.051 506.513 318.874 518.973Z" fill="#0C2278"/>
<path fill-rule="evenodd" clip-rule="evenodd" d="M275.397 179.95C295.778 194.701 297.247 227.476 278.668 253.13C260.089 278.784 228.517 287.617 208.113 272.843C187.732 258.092 186.264 225.317 204.843 199.663C223.421 174.009 255.016 165.176 275.397 179.95Z" fill="#FFB531"/>
<path fill-rule="evenodd" clip-rule="evenodd" d="M314.446 521.665C353.406 534.236 377.591 530.943 387.025 511.808C387.404 538.308 387.76 556.286 388.071 565.765C327.462 618.92 276.332 615.605 278.735 571.238C279.803 551.658 299.182 534.17 314.446 521.665Z" fill="#7BA2FF"/>
<g opacity="0.5">
<path fill-rule="evenodd" clip-rule="evenodd" d="M285.054 575.822C286.1 556.242 305.502 538.753 320.765 526.249C353.072 536.684 375.233 536.194 387.226 524.78C387.159 520.708 387.092 516.392 387.026 511.786C377.592 530.944 353.384 534.214 314.446 521.643C299.183 534.148 279.781 551.636 278.735 571.216C277.912 586.257 283.252 596.559 293.019 601.565C287.346 595.869 284.431 587.192 285.054 575.822Z" fill="white"/>
</g>
<path d="M309.262 608.596C302.854 608.596 297.046 607.394 292.018 604.947C280.359 599.273 274.418 587.236 275.286 571.038C276.376 550.968 294.577 533.458 312.243 518.995C313.155 518.261 314.379 518.016 315.492 518.372C352.382 530.276 375.411 527.561 383.933 510.273C384.645 508.849 386.224 508.093 387.782 508.426C389.339 508.782 390.452 510.14 390.474 511.742C390.852 538.063 391.208 556.197 391.52 565.631C391.564 566.655 391.119 567.656 390.341 568.346C360.726 594.311 331.423 608.596 309.262 608.596ZM315.202 525.514C299.16 538.798 283.096 554.528 282.183 571.416C281.449 584.855 285.899 594.311 295.044 598.761C314.446 608.195 349.467 594.645 384.6 564.252C384.333 555.819 384.066 541.757 383.777 522.288C371.117 534.748 348.155 535.861 315.202 525.514Z" fill="#0C2278"/>
<path fill-rule="evenodd" clip-rule="evenodd" d="M387.582 545.384C387.76 554.261 387.915 561.07 388.071 565.765C327.462 618.92 276.332 615.605 278.735 571.238C305.056 594.311 341.324 585.701 387.582 545.384Z" fill="white"/>
<g opacity="0.3">
<path fill-rule="evenodd" clip-rule="evenodd" d="M387.582 545.384C386.514 546.318 385.446 547.23 384.378 548.12C384.467 551.614 384.534 554.551 384.623 556.954C335.784 599.763 293.109 605.948 279.625 583.52C286.879 615.671 333.648 613.469 388.049 565.765C387.916 561.048 387.76 554.261 387.582 545.384Z" fill="#0C2278"/>
</g>
<path d="M309.262 608.596C302.854 608.596 297.046 607.394 292.018 604.947C280.359 599.273 274.418 587.236 275.286 571.038C275.353 569.725 276.176 568.568 277.4 568.056C278.623 567.545 280.025 567.767 281.004 568.635C293.375 579.493 307.726 582.786 324.881 578.714C342.392 574.553 362.728 562.472 385.312 542.78C386.313 541.89 387.737 541.69 388.961 542.224C390.185 542.758 390.986 543.96 391.008 545.317C391.164 553.683 391.342 560.714 391.498 565.653C391.542 566.677 391.097 567.678 390.318 568.346C360.726 594.311 331.423 608.596 309.262 608.596ZM282.295 578.336C283.229 588.126 287.568 595.112 295.044 598.739C314.446 608.173 349.467 594.623 384.6 564.229C384.511 561.048 384.4 557.154 384.311 552.704C342.525 587.392 308.283 595.98 282.295 578.336Z" fill="#0C2278"/>
<g opacity="0.5">
<path fill-rule="evenodd" clip-rule="evenodd" d="M289.749 401.248C285.677 447.194 294.777 472.938 317.027 478.478C304.879 463.726 295.801 437.983 289.749 401.248Z" fill="white"/>
</g>
<path fill-rule="evenodd" clip-rule="evenodd" d="M326.394 488.223C307.86 486.132 301.207 513.967 314.468 521.665C348.6 536.061 363.93 531.833 359.124 497.101C357.522 489.202 346.486 490.493 326.394 488.223Z" fill="#7BA2FF"/>
<g opacity="0.5">
<path fill-rule="evenodd" clip-rule="evenodd" d="M333.648 491.272C343.949 492.429 351.848 492.673 357.344 493.675C353.294 489.536 342.904 490.07 326.372 488.201C307.838 486.11 301.185 513.944 314.446 521.643C316.738 522.622 318.963 523.49 321.099 524.291C308.705 516.08 315.425 489.225 333.648 491.272Z" fill="white"/>
</g>
<path d="M343.26 532.879C335.717 532.879 325.905 530.209 313.111 524.825C312.977 524.758 312.844 524.691 312.71 524.624C305.012 520.152 302.008 509.873 305.39 499.615C308.728 489.514 317.138 483.707 326.75 484.775C331.133 485.264 335.116 485.598 338.632 485.887C351.937 486.977 360.704 487.712 362.461 496.389C362.484 496.456 362.484 496.523 362.506 496.612C364.842 513.477 362.684 523.801 355.72 529.141C352.516 531.633 348.422 532.879 343.26 532.879ZM316.003 518.572C334.337 526.293 345.974 527.962 351.537 523.69C356.187 520.13 357.589 511.386 355.697 497.68C354.963 494.453 350.491 493.786 338.053 492.762C334.493 492.473 330.466 492.139 325.971 491.628C318.362 490.76 313.734 496.3 311.909 501.774C309.974 507.737 310.752 515.368 316.003 518.572Z" fill="#0C2278"/>
<path fill-rule="evenodd" clip-rule="evenodd" d="M513.628 540.066C521.594 532.657 528.536 524.825 528.558 514.745C540.951 539.665 544.111 558.2 543.866 572.15C489.264 620.477 433.239 612.912 437.444 562.316C438.668 547.698 454.532 531.366 474.98 528.785C487.084 527.228 499.922 530.788 513.628 540.066Z" fill="#7BA2FF"/>
<g opacity="0.5">
<path fill-rule="evenodd" clip-rule="evenodd" d="M442.339 568.323C443.563 553.705 459.427 537.374 479.875 534.793C491.957 533.257 504.817 536.84 518.501 546.096C525.465 539.643 531.606 532.835 533.097 524.535C531.74 521.376 530.249 518.127 528.558 514.745C528.513 524.825 521.594 532.657 513.628 540.066C499.922 530.81 487.084 527.25 475.002 528.763C454.554 531.344 438.69 547.675 437.466 562.294C436.243 577.023 440.136 588.081 447.59 595.201C443.385 588.393 441.427 579.382 442.339 568.323Z" fill="white"/>
</g>
<path d="M474.179 608.106C466.614 608.106 459.65 606.638 453.575 603.59C439.335 596.447 432.371 581.673 434.018 562.004C435.308 546.607 451.884 528.207 474.557 525.336C486.95 523.779 499.944 527.25 513.228 535.683C520.414 528.718 525.087 522.333 525.109 514.723C525.109 513.121 526.222 511.742 527.779 511.386C529.337 511.03 530.939 511.786 531.651 513.21C542.509 535.037 547.626 554.328 547.315 572.217C547.292 573.174 546.87 574.086 546.158 574.731C521.794 596.292 495.583 608.106 474.179 608.106ZM480.364 531.878C478.696 531.878 477.071 531.989 475.425 532.189C456.067 534.637 441.939 549.878 440.893 562.583C439.513 579.27 445.12 591.641 456.668 597.426C473.467 605.837 505.774 600.742 540.439 570.571C540.417 556.709 536.902 541.824 529.693 525.292C526.778 531.833 521.527 537.44 515.964 542.602C514.785 543.693 513.027 543.826 511.692 542.936C500.834 535.571 490.332 531.878 480.364 531.878Z" fill="#0C2278"/>
<path fill-rule="evenodd" clip-rule="evenodd" d="M542.464 554.706C543.599 561.203 543.977 566.988 543.888 572.128C493.38 616.851 441.649 613.691 437.511 572.907C457.113 596.025 499.744 589.572 542.464 554.706Z" fill="white"/>
<path d="M474.357 608.106C468.06 608.106 462.142 607.083 456.779 604.991C443.696 599.874 435.642 588.616 434.084 573.263C433.929 571.772 434.774 570.348 436.154 569.747C437.533 569.147 439.157 569.547 440.136 570.682C458.782 592.643 499.944 584.966 540.284 552.036C541.24 551.258 542.509 551.057 543.666 551.48C544.823 551.903 545.646 552.904 545.846 554.106C546.914 560.269 547.426 566.343 547.315 572.195C547.292 573.152 546.87 574.064 546.158 574.709C521.794 596.292 495.806 608.106 474.357 608.106ZM443.274 582.586C446.211 590.128 451.64 595.58 459.294 598.584C479.875 606.638 511.626 595.646 540.462 570.571C540.462 567.478 540.284 564.319 539.928 561.137C503.059 589.417 465.657 597.404 443.274 582.586Z" fill="#0C2278"/>
<path fill-rule="evenodd" clip-rule="evenodd" d="M471.264 529.386C486.06 526.827 500.189 530.387 513.628 540.044C524.486 527.962 526.666 515.035 520.192 501.24C476.137 485.064 459.828 494.454 471.264 529.386Z" fill="#7BA2FF"/>
<g opacity="0.6">
<path fill-rule="evenodd" clip-rule="evenodd" d="M506.352 535.46C508.8 536.795 511.225 538.33 513.628 540.044C513.873 539.754 514.095 539.487 514.34 539.198C511.714 537.73 509.044 536.484 506.352 535.46Z" fill="white"/>
<path fill-rule="evenodd" clip-rule="evenodd" d="M520.637 502.263C520.481 501.929 520.347 501.596 520.192 501.24C476.137 485.064 459.828 494.431 471.264 529.386C473.356 529.03 475.425 528.807 477.472 528.674C469.195 498.992 483.568 490.181 520.637 502.263Z" fill="white"/>
</g>
<path d="M513.628 543.515C512.938 543.515 512.226 543.292 511.626 542.87C498.854 533.68 485.838 530.387 471.843 532.813C470.152 533.102 468.505 532.123 467.971 530.499C462.453 513.633 463.054 502.241 469.84 495.7C478.206 487.623 495.049 488.402 521.349 498.058C522.194 498.37 522.884 499.015 523.285 499.816C530.382 514.924 527.979 529.23 516.165 542.402C515.519 543.114 514.585 543.515 513.628 543.515ZM480.431 525.159C491.69 525.159 502.614 528.607 513.027 535.46C520.948 525.492 522.461 515.168 517.655 503.999C489.709 493.942 478.851 496.589 474.646 500.639C469.417 505.69 470.997 516.481 473.667 525.581C475.937 525.292 478.184 525.159 480.431 525.159Z" fill="#0C2278"/>
<path fill-rule="evenodd" clip-rule="evenodd" d="M442.917 447.862C444.052 449.575 444.809 450.665 445.231 451.11C443.407 478.5 438.957 499.259 431.904 513.366C409.498 524.513 395.903 518.172 387.003 508.983C386.024 485.375 385.535 473.561 385.535 473.561C408.608 467.575 427.743 459.009 442.917 447.862Z" fill="white"/>
<path d="M410.032 523.289C400.22 523.289 391.542 519.44 384.111 511.764C383.421 511.052 383.02 510.117 382.976 509.138L381.507 473.716C381.418 471.825 382.687 470.134 384.511 469.667C407.006 463.86 425.852 455.427 440.537 444.636C441.427 443.99 442.539 443.723 443.629 443.924C444.72 444.124 445.676 444.747 446.277 445.681C447.701 447.862 448.146 448.351 448.191 448.418C448.925 449.219 449.325 450.332 449.259 451.422C447.39 479.234 442.762 500.706 435.508 515.213C435.108 515.991 434.485 516.614 433.706 517.015C425.206 521.198 417.308 523.289 410.032 523.289ZM390.941 507.247C397.572 513.655 408.586 519.996 428.9 510.362C435.085 497.39 439.135 478.5 441.004 454.114C426.92 463.593 409.698 471.135 389.673 476.609L390.941 507.247Z" fill="#0C2278"/>
<path fill-rule="evenodd" clip-rule="evenodd" d="M386.247 491.272C387.048 517.905 387.537 538.731 387.737 553.727C427.12 560.069 437.644 547.342 431.881 513.366C424.672 515.435 416.507 518.394 414.66 514.278C408.83 501.195 402.511 492.518 386.247 491.272Z" fill="#7BA2FF"/>
<path d="M404.892 558.734C399.73 558.734 393.857 558.2 387.226 557.132C385.58 556.865 384.356 555.441 384.334 553.772C384.133 538.864 383.621 517.86 382.843 491.361C382.82 490.382 383.199 489.447 383.911 488.757C384.623 488.09 385.58 487.734 386.559 487.823C405.738 489.314 412.524 500.95 417.82 512.765C419.377 513.477 425.429 511.675 428.7 510.718C429.456 510.496 430.235 510.273 430.969 510.051C431.904 509.784 432.927 509.917 433.751 510.451C434.574 510.963 435.152 511.831 435.308 512.787C438.49 531.522 436.621 543.626 429.456 550.857C424.205 556.153 416.24 558.734 404.892 558.734ZM391.164 550.768C408.074 553.171 419.021 551.591 424.561 546.007C429.59 540.934 431.059 531.922 429.101 517.771C421.914 519.863 414.215 521.687 411.545 515.68C406.272 503.865 401.221 497.146 389.829 495.165C390.497 518.172 390.942 536.84 391.164 550.768Z" fill="#0C2278"/>
<path fill-rule="evenodd" clip-rule="evenodd" d="M387.493 538.798C387.604 544.293 387.693 549.255 387.76 553.727C416.751 558.4 430.101 552.726 432.838 535.861C432.682 535.66 432.504 535.482 432.326 535.282C411.322 542.825 396.37 544.004 387.493 538.798Z" fill="white"/>
<path d="M405.137 558.8C399.241 558.8 393.078 558.066 387.204 557.132C385.557 556.865 384.333 555.441 384.311 553.772C384.244 549.322 384.178 544.36 384.044 538.864C384.022 537.618 384.667 536.461 385.735 535.816C386.803 535.193 388.138 535.193 389.228 535.816C397.149 540.444 411.256 539.176 431.147 532.056C432.438 531.589 433.884 531.945 434.819 532.946C435.041 533.168 435.241 533.413 435.442 533.658C436.087 534.414 436.376 535.438 436.198 536.439C433.35 554.128 420.067 558.8 405.137 558.8ZM391.164 550.768C416.796 554.417 425.118 548.588 428.166 540.377C412.19 545.539 399.953 546.763 391.053 544.071C391.097 546.407 391.12 548.632 391.164 550.768Z" fill="#0C2278"/>
<path fill-rule="evenodd" clip-rule="evenodd" d="M182.592 404.63C194.763 447.395 219.839 472.604 257.864 480.236C226.603 482.082 205.354 478.389 194.096 469.177C186.575 485.108 181.725 496.167 179.522 502.352C144.078 484.619 122.562 471.113 115.019 461.902C134.043 412.751 156.56 393.661 182.592 404.63Z" fill="white"/>
<path d="M179.522 506.936C178.81 506.936 178.12 506.78 177.475 506.446C141.096 488.246 119.514 474.629 111.459 464.794C110.413 463.504 110.124 461.768 110.725 460.233C123.697 426.725 138.137 406.989 154.824 399.913C164.192 395.93 174.137 396.108 184.372 400.403C185.663 400.937 186.62 402.049 186.998 403.384C198.768 444.747 222.242 468.399 258.754 475.764C261.024 476.209 262.581 478.278 262.425 480.592C262.27 482.906 260.423 484.73 258.109 484.864C229.228 486.555 208.781 483.685 195.92 476.075C189.779 489.247 185.707 498.592 183.816 503.91C183.371 505.156 182.414 506.135 181.213 506.624C180.679 506.825 180.1 506.936 179.522 506.936ZM120.315 460.923C128.391 469.177 147.437 480.926 177.052 495.944C179.7 489.381 183.95 479.902 189.935 467.197C190.536 465.907 191.693 464.995 193.072 464.683C194.452 464.372 195.898 464.705 196.988 465.618C203.774 471.18 214.966 474.54 230.408 475.675C205.799 463.126 188.489 440.497 178.788 408.079C171.601 405.498 164.904 405.587 158.384 408.346C144.723 414.176 131.907 431.842 120.315 460.923Z" fill="#0C2278"/>
<path fill-rule="evenodd" clip-rule="evenodd" d="M158.918 488.691C157.005 494.409 159.541 500.684 164.904 503.465C170.244 506.246 176.83 504.733 180.434 499.905C179.945 520.642 176.763 533.08 170.867 537.263C108.722 524.157 72.4772 517.972 62.0864 518.684C60.7959 484.886 80.4649 467.932 121.093 467.843C136.869 473.539 149.507 480.481 158.918 488.691Z" fill="#7BA2FF"/>
<g opacity="0.5">
<path fill-rule="evenodd" clip-rule="evenodd" d="M120.026 467.82C149.084 481.615 159.675 489.403 151.754 491.249C123.586 469.489 96.3739 471.781 70.1189 498.125C69.6517 478.456 86.2947 468.354 120.026 467.82Z" fill="white"/>
</g>
<path d="M170.867 540.689C170.622 540.689 170.4 540.667 170.155 540.622C108.611 527.651 72.3217 521.421 62.3092 522.11C61.3747 522.177 60.4624 521.866 59.7727 521.243C59.0829 520.62 58.6602 519.752 58.6379 518.817C58.0149 502.553 62.1089 489.714 70.8309 480.659C81.1549 469.912 98.0427 464.461 121.071 464.394C121.472 464.394 121.872 464.461 122.251 464.594C138.382 470.424 151.487 477.655 161.188 486.088C162.234 487 162.634 488.446 162.189 489.781C160.81 493.92 162.612 498.392 166.484 500.417C170.355 502.441 175.05 501.351 177.653 497.858C178.543 496.656 180.123 496.167 181.547 496.656C182.971 497.146 183.905 498.503 183.861 499.994C183.327 522.377 179.834 535.127 172.825 540.066C172.269 540.467 171.579 540.689 170.867 540.689ZM65.4687 515.191C79.3527 515.658 113.662 521.688 169.91 533.525C172.38 530.921 175.606 524.224 176.696 507.092C172.513 508.849 167.641 508.76 163.324 506.513C157.161 503.287 153.935 496.59 155.092 489.937C146.303 482.728 134.688 476.453 120.493 471.269C99.7337 471.403 84.6927 476.164 75.8149 485.398C69.0064 492.451 65.5354 502.464 65.4687 515.191Z" fill="#0C2278"/>
<path fill-rule="evenodd" clip-rule="evenodd" d="M176.34 529.097C174.894 532.968 173.069 535.683 170.867 537.24C108.722 524.135 72.4771 517.949 62.0863 518.661C61.8638 512.787 62.2643 507.403 63.3101 502.552C115.464 508.671 153.133 517.505 176.34 529.097Z" fill="white"/>
<path d="M170.867 540.689C170.622 540.689 170.4 540.667 170.155 540.622C108.611 527.65 72.3216 521.42 62.3091 522.11C61.3746 522.177 60.4624 521.865 59.7726 521.242C59.0829 520.619 58.6601 519.752 58.6379 518.817C58.4154 512.676 58.8381 506.958 59.9506 501.84C60.3289 500.105 61.9309 498.948 63.7109 499.148C116.021 505.289 154.424 514.323 177.876 526.026C179.455 526.805 180.19 528.652 179.567 530.32C177.853 534.904 175.673 538.086 172.847 540.088C172.269 540.466 171.579 540.689 170.867 540.689ZM65.4686 515.19C79.3526 515.658 113.662 521.687 169.91 533.524C170.6 532.812 171.245 531.878 171.846 530.743C149.373 520.308 113.84 512.12 66.1139 506.335C65.6911 509.116 65.4686 512.075 65.4686 515.19Z" fill="#0C2278"/>
<path fill-rule="evenodd" clip-rule="evenodd" d="M120.025 467.82C108.923 460.389 112.483 451.333 121.316 438.472C145.034 438.984 158.585 444.814 169.242 458.164C171.045 470.379 167.618 480.547 158.941 488.691C145.902 478.411 132.93 471.447 120.025 467.82Z" fill="#7BA2FF"/>
<g opacity="0.5">
<path fill-rule="evenodd" clip-rule="evenodd" d="M120.137 463.659C121.739 466.307 123.674 466.641 125.966 464.705C117.734 446.549 128.414 442.744 157.962 453.335C152.288 444.458 140.073 439.496 121.294 438.45C112.683 452.29 112.305 460.678 120.137 463.659Z" fill="white"/>
</g>
<path d="M158.918 492.117C158.162 492.117 157.405 491.872 156.782 491.383C144.167 481.437 131.484 474.629 119.069 471.135C118.713 471.046 118.379 470.891 118.09 470.69C113.395 467.553 110.703 463.926 109.879 459.654C108.544 452.757 112.349 445.414 118.446 436.537C119.113 435.58 120.203 435.024 121.36 435.046C145.791 435.58 160.431 441.654 171.89 456.028C172.268 456.495 172.513 457.073 172.602 457.674C174.582 471.002 170.755 482.283 161.255 491.205C160.632 491.806 159.764 492.117 158.918 492.117ZM121.494 464.661C133.798 468.198 146.258 474.74 158.607 484.085C164.748 477.321 167.151 469.266 165.927 459.565C156.137 447.706 143.922 442.678 123.074 441.966C119.091 447.929 115.798 453.914 116.643 458.342C117.088 460.611 118.69 462.68 121.494 464.661Z" fill="#0C2278"/>
<path d="M287.501 402.516C287.724 409.547 288.102 416.556 288.903 423.476C289.748 430.396 290.928 437.249 292.752 443.857C294.577 450.443 297.091 456.806 300.606 462.302C304.055 467.865 308.839 472.159 314.335 474.74L314.602 474.873C316.893 475.964 317.895 478.7 316.804 480.992C315.714 483.284 312.977 484.285 310.686 483.195C310.552 483.128 310.419 483.061 310.285 482.972L307.682 481.415C307.259 481.148 306.814 480.903 306.414 480.614L305.212 479.702C304.433 479.079 303.61 478.5 302.876 477.833L300.74 475.763C300.006 475.096 299.405 474.317 298.782 473.561C298.159 472.804 297.491 472.07 296.935 471.269L295.311 468.866C295.044 468.465 294.755 468.065 294.51 467.664L293.82 466.418C290.082 459.743 287.79 452.601 286.255 445.481C284.72 438.339 283.919 431.13 283.474 423.965C283.051 416.779 283.096 409.636 283.296 402.494C283.318 401.337 284.297 400.425 285.454 400.447C286.567 400.469 287.457 401.359 287.501 402.472V402.516Z" fill="#0C2278"/>
<path d="M374.031 409.303C378.17 420.917 381.819 432.754 384.689 444.836C387.537 456.918 389.629 469.266 390.474 481.838C390.652 484.374 388.739 486.555 386.202 486.733C383.666 486.911 381.485 484.997 381.307 482.461C381.307 482.349 381.307 482.238 381.307 482.127V482.105C381.396 470.134 380.261 458.075 378.348 446.104C376.434 434.111 373.698 422.23 370.449 410.437C370.16 409.436 370.761 408.39 371.762 408.101C372.697 407.834 373.698 408.368 374.031 409.303Z" fill="#0C2278"/>
<path d="M434.729 383.404C433.75 390.145 433.172 396.909 433.194 403.629C433.239 410.348 433.906 417.023 435.464 423.409C437.021 429.795 439.491 435.891 442.94 441.298C446.366 446.727 450.749 451.489 455.822 455.405C457.825 456.962 458.203 459.855 456.646 461.857C455.088 463.86 452.218 464.238 450.193 462.68C450.126 462.636 450.06 462.569 449.993 462.525C444.408 457.696 439.602 451.867 436.02 445.414C432.415 438.962 430.035 431.953 428.7 424.855C427.365 417.758 427.075 410.571 427.409 403.495C427.765 396.42 428.766 389.456 430.146 382.58C430.391 381.334 431.614 380.511 432.883 380.756C434.084 381.001 434.885 382.158 434.729 383.359V383.404Z" fill="#0C2278"/>
<path d="M153.111 359.062C158.629 360.842 164.325 362.355 170.11 363.735C173.003 364.424 175.918 365.047 178.855 365.67C181.769 366.316 184.729 366.894 187.688 367.428C190.647 367.984 193.606 368.474 196.588 368.963C199.569 369.453 202.551 369.965 205.532 370.41C211.518 371.277 217.503 372.212 223.533 373.035H223.599C224.89 373.213 225.802 374.392 225.624 375.683C225.468 376.907 224.378 377.774 223.177 377.73C210.984 377.151 198.768 376.35 186.575 374.904C180.479 374.192 174.36 373.302 168.264 372.167C162.167 371.033 156.071 369.609 149.996 367.651C147.593 366.872 146.258 364.291 147.037 361.866C147.816 359.463 150.397 358.128 152.822 358.906L153.111 359.062Z" fill="#0C2278"/>
<path d="M332.246 336.078C327.774 340.817 322.634 344.933 317.183 348.427C311.732 351.942 305.947 354.879 300.006 357.282C294.065 359.707 287.991 361.665 281.828 363.156C275.664 364.669 269.434 365.782 263.182 366.427C261.869 366.56 260.69 365.604 260.557 364.291C260.445 363.156 261.135 362.11 262.181 361.777H262.203C268.055 359.841 273.862 357.927 279.536 355.769C285.21 353.611 290.772 351.297 296.157 348.649C301.541 346.024 306.725 343.131 311.687 339.905C316.649 336.701 321.366 333.163 325.883 329.381L325.927 329.336C327.863 327.712 330.778 327.957 332.402 329.915C333.937 331.784 333.826 334.409 332.246 336.078Z" fill="#0C2278"/>
<path d="M196.499 452.668C197.322 457.096 197.634 461.724 197.189 466.396C196.766 471.046 195.609 475.741 193.695 480.147L193.651 480.236C192.65 482.572 189.935 483.662 187.577 482.639C185.24 481.637 184.15 478.923 185.174 476.564C185.285 476.32 185.418 476.075 185.552 475.852C187.666 472.626 189.29 469.044 190.313 465.195C191.359 461.345 191.804 457.274 191.76 453.135V453.113C191.737 451.8 192.805 450.732 194.118 450.71C195.297 450.71 196.276 451.533 196.499 452.668Z" fill="#0C2278"/>
<path fill-rule="evenodd" clip-rule="evenodd" d="M137.536 99.1155C165.104 78.8235 196.12 71.481 230.608 77.0657C192.605 -5.05903 161.588 2.28346 137.536 99.1155Z" fill="white"/>
<path d="M137.536 103.721C136.646 103.721 135.756 103.454 134.978 102.942C133.376 101.874 132.619 99.8942 133.086 98.0252C146.347 44.6475 161.9 17.8362 180.679 16.034C197.901 14.3875 215.612 33.7227 234.769 75.1522C235.481 76.6875 235.281 78.512 234.257 79.847C233.234 81.2042 231.543 81.8717 229.874 81.6047C196.81 76.2425 166.662 83.3847 140.251 102.809C139.45 103.41 138.493 103.721 137.536 103.721ZM182.659 25.112C182.281 25.112 181.903 25.1342 181.547 25.1565C172.424 26.0242 158.963 38.0615 145.035 88.5467C168.62 74.2622 194.696 68.4995 222.82 71.392C204.308 33.7672 190.981 25.112 182.659 25.112Z" fill="#0C2278"/>
<path fill-rule="evenodd" clip-rule="evenodd" d="M137.536 99.1155C151.02 89.5035 163.925 83.051 176.251 79.758C184.105 43.9577 179.655 28.5162 162.923 33.389C152.31 49.6537 143.833 71.5477 137.536 99.1155Z" fill="#FC78A0"/>
<path d="M137.536 103.721C136.646 103.721 135.756 103.454 134.977 102.942C133.398 101.874 132.619 99.961 133.042 98.092C139.45 70.1237 148.194 47.5177 159.074 30.8969C159.675 29.9847 160.587 29.3172 161.633 29.0057C170.399 26.4469 175.606 29.0502 178.409 31.6757C185.819 38.5954 186.553 54.1927 180.723 80.7592C180.345 82.4279 179.077 83.7629 177.43 84.2079C165.705 87.3452 153.178 93.6197 140.184 102.876C139.405 103.432 138.471 103.721 137.536 103.721ZM165.816 37.4162C157.45 50.6549 150.397 67.8987 144.812 88.7915C154.246 83.0287 163.457 78.779 172.335 76.109C178.209 47.7847 174.204 40.3087 172.157 38.3729C171.645 37.8834 170.155 36.5039 165.816 37.4162Z" fill="#0C2278"/>
<path fill-rule="evenodd" clip-rule="evenodd" d="M330.132 139.989C378.459 101.63 387.693 115.603 357.834 181.908C353.851 171.25 344.617 157.277 330.132 139.989Z" fill="#FC78A0"/>
<path d="M357.834 186.491C357.789 186.491 357.745 186.491 357.678 186.491C355.809 186.424 354.185 185.245 353.517 183.51C349.735 173.408 340.679 159.747 326.595 142.948C325.794 141.991 325.415 140.767 325.549 139.544C325.682 138.32 326.283 137.185 327.262 136.406C352.227 116.582 366.867 110.485 374.766 116.626C381.174 121.61 384.645 133.492 361.994 183.799C361.282 185.445 359.636 186.491 357.834 186.491ZM336.674 140.701C346.108 152.248 353.072 162.194 357.7 170.738C374.988 130.087 369.826 124.414 369.137 123.88C368.914 123.702 363.552 120.03 336.674 140.701Z" fill="#0C2278"/>
<path fill-rule="evenodd" clip-rule="evenodd" d="M514.073 344.422C519.613 352.076 524.219 361.332 527.913 372.167C595.931 350.184 623.254 303.459 593.995 238.378C584.784 217.864 569.832 205.181 568.853 190.63C566.272 152.849 551.587 133.892 533.319 152.182C503.771 181.752 513.228 216.929 543.332 244.564C581.29 279.407 571.167 313.071 514.073 344.422Z" fill="white"/>
<path d="M527.913 376.773C525.999 376.773 524.219 375.572 523.574 373.658C520.036 363.29 515.608 354.345 510.357 347.114C509.579 346.046 509.312 344.689 509.601 343.42C509.89 342.13 510.713 341.04 511.87 340.394C542.442 323.618 558.996 306.374 561.065 289.13C562.667 275.958 555.658 262.097 540.239 247.968C521.371 230.657 511.203 211.522 510.78 192.632C510.446 176.79 516.921 162.083 530.071 148.933C539.527 139.477 547.448 139.699 552.432 141.568C563.958 145.885 571.612 163.663 573.436 190.318C573.926 197.527 578.887 204.87 584.628 213.391C589.1 220.022 594.151 227.52 598.178 236.487C612.24 267.77 614.02 295.672 603.474 319.413C592.059 345.111 567.117 364.313 529.292 376.551C528.847 376.706 528.38 376.773 527.913 376.773ZM520.659 345.979C524.486 351.964 527.846 358.817 530.716 366.405C563.134 355.124 585.362 337.635 595.108 315.697C604.542 294.448 602.762 269.083 589.812 240.269C586.096 232.015 581.491 225.184 577.018 218.553C570.521 208.941 564.937 200.642 564.269 190.963C562.467 164.352 555.013 152.382 549.206 150.201C545.624 148.866 541.374 150.624 536.568 155.452C525.265 166.755 519.68 179.193 519.969 192.454C520.325 208.786 529.47 225.651 546.447 241.226C564.158 257.469 572.146 273.978 570.165 290.265C567.829 309.667 551.186 328.402 520.659 345.979Z" fill="#0C2278"/>
<path fill-rule="evenodd" clip-rule="evenodd" d="M585.207 222.581C577.419 210.521 569.565 201.043 568.853 190.63C566.272 152.849 551.587 133.892 533.32 152.182C503.772 181.752 513.228 216.929 543.332 244.564C545.668 246.7 547.827 248.836 549.785 250.972C563.869 247.768 575.684 238.289 585.207 222.581Z" fill="#FFB531"/>
<path fill-rule="evenodd" clip-rule="evenodd" d="M217.792 238.845C212.875 242.138 207.646 241.805 208.959 238.2C212.742 227.809 225.357 223.404 236.371 224.316C247.385 225.228 256.952 232.304 261.091 242.561C244.314 228.744 229.896 227.498 217.792 238.845Z" fill="#0C2278"/>
<path d="M261.09 245.454C260.445 245.454 259.8 245.231 259.266 244.808C243.669 231.948 230.741 230.68 219.772 240.959C219.661 241.07 219.527 241.159 219.416 241.248C215.033 244.185 210.182 244.853 207.624 242.85C205.977 241.56 205.465 239.468 206.289 237.243C210.739 225.05 225.157 220.534 236.638 221.49C248.808 222.514 259.221 230.19 263.76 241.538C264.25 242.761 263.849 244.141 262.781 244.92C262.27 245.253 261.669 245.454 261.09 245.454ZM233.5 227.075C225.023 227.075 215.545 230.39 212.074 238.2C213.008 238.067 214.41 237.622 216.034 236.576C225.246 228.054 235.681 226.074 247.206 230.657C243.891 228.744 240.131 227.542 236.148 227.209C235.28 227.12 234.39 227.075 233.5 227.075Z" fill="#0C2278"/>
<path fill-rule="evenodd" clip-rule="evenodd" d="M130.194 220.712C134.8 214.549 160.454 225.562 156.694 236.064C138.515 249.681 129.682 244.564 130.194 220.712Z" fill="#0C2278"/>
<path d="M168.041 272.643C154.557 272.643 143.833 265.968 136.312 252.818C131.662 255.31 127.056 256.156 122.54 255.377C115.753 254.198 109.523 249.258 103.961 240.714C102.581 238.578 103.182 235.753 105.318 234.373C107.454 232.994 110.28 233.594 111.659 235.73C115.753 242.049 119.959 245.632 124.097 246.344C127.501 246.944 131.15 245.698 135.267 242.583C136.379 241.738 137.803 241.449 139.16 241.782C140.518 242.116 141.63 243.051 142.209 244.297C151.086 263.409 165.215 268.126 186.753 259.115C189.089 258.136 191.782 259.249 192.761 261.585C193.74 263.921 192.627 266.613 190.291 267.592C182.259 270.974 174.805 272.643 168.041 272.643Z" fill="#0C2278"/>
<path fill-rule="evenodd" clip-rule="evenodd" d="M139.094 252.618C128.792 322.906 177.453 320.191 184.951 266.057C163.458 273.355 148.172 268.883 139.094 252.618Z" fill="#0C2278"/>
<path d="M156.849 310.691C152.733 310.691 148.817 309.311 145.368 306.597C134.644 298.164 130.706 278.228 134.555 251.951C134.844 250.015 136.335 248.457 138.271 248.101C140.206 247.745 142.142 248.658 143.121 250.371C151.131 264.722 163.969 268.327 183.505 261.696C185.018 261.184 186.687 261.496 187.91 262.497C189.134 263.521 189.757 265.1 189.535 266.658C186.598 287.818 177.008 304.082 164.526 309.111C161.922 310.179 159.364 310.691 156.849 310.691ZM142.431 264.566C140.918 289.175 148.417 297.341 151.042 299.388C153.979 301.702 157.361 302.124 161.055 300.634C167.307 298.119 175.295 289.286 179.122 272.51C161.522 276.581 149.974 271.82 142.431 264.566Z" fill="#0C2278"/>
<path fill-rule="evenodd" clip-rule="evenodd" d="M143.366 297.318C153.334 313.984 173.67 306.307 182.103 279.051C165.371 274.846 152.466 280.942 143.366 297.318Z" fill="#FC78A0"/>
<path d="M156.872 310.668C149.93 310.668 143.655 306.752 139.428 299.677C138.582 298.275 138.56 296.517 139.361 295.093C149.396 277.004 164.57 269.906 183.238 274.601C184.462 274.913 185.507 275.714 186.13 276.804C186.753 277.894 186.887 279.207 186.509 280.408C181.169 297.608 170.689 309.155 159.163 310.535C158.385 310.624 157.628 310.668 156.872 310.668ZM148.795 297.118C150.864 299.677 153.868 301.902 158.029 301.412C163.302 300.789 170.822 295.405 175.984 282.567C164.548 281.187 155.781 285.904 148.795 297.118Z" fill="#0C2278"/>
<path fill-rule="evenodd" clip-rule="evenodd" d="M62.0641 518.661C98.6653 522.689 134.933 528.896 170.844 537.24C96.0176 534.17 59.7501 527.984 62.0641 518.661Z" fill="#0C2278"/>
<path d="M170.867 540.11C170.822 540.11 170.778 540.11 170.755 540.11C80.3314 536.395 64.5117 528.807 60.4844 523.423C59.2384 521.754 58.8157 519.863 59.3052 517.949C59.6612 516.548 60.9962 515.635 62.3979 515.791C98.9547 519.818 135.667 526.093 171.512 534.437C172.958 534.77 173.915 536.15 173.715 537.618C173.514 539.065 172.291 540.11 170.867 540.11ZM68.1607 522.244C74.4797 525.403 91.3007 529.43 134.065 532.39C112.193 528.207 90.1659 524.825 68.1607 522.244Z" fill="#0C2278"/>
<g opacity="0.5">
<path fill-rule="evenodd" clip-rule="evenodd" d="M545.29 145.262C501.146 179.149 505.996 216.951 559.841 258.67C517.21 213.525 512.36 175.722 545.29 145.262Z" fill="white"/>
</g>
<path d="M527.913 376.773C525.999 376.773 524.219 375.572 523.574 373.658C520.036 363.29 515.608 354.345 510.357 347.114C509.579 346.046 509.312 344.689 509.601 343.42C509.89 342.13 510.713 341.04 511.87 340.394C542.442 323.618 558.996 306.374 561.065 289.13C562.667 275.958 555.658 262.097 540.239 247.968C521.371 230.657 511.203 211.522 510.78 192.632C510.446 176.79 516.921 162.083 530.071 148.933C539.527 139.477 547.448 139.699 552.432 141.568C563.958 145.885 571.612 163.663 573.436 190.318C573.926 197.527 578.887 204.87 584.628 213.391C589.1 220.022 594.151 227.52 598.178 236.487C612.24 267.77 614.02 295.672 603.474 319.413C592.059 345.111 567.117 364.313 529.292 376.551C528.847 376.706 528.38 376.773 527.913 376.773ZM520.659 345.979C524.486 351.964 527.846 358.817 530.716 366.405C563.134 355.124 585.362 337.635 595.108 315.697C604.542 294.448 602.762 269.083 589.812 240.269C586.096 232.015 581.491 225.184 577.018 218.553C570.521 208.941 564.937 200.642 564.269 190.963C562.467 164.352 555.013 152.382 549.206 150.201C545.624 148.866 541.374 150.624 536.568 155.452C525.265 166.755 519.68 179.193 519.969 192.454C520.325 208.786 529.47 225.651 546.447 241.226C564.158 257.469 572.146 273.978 570.165 290.265C567.829 309.667 551.186 328.402 520.659 345.979Z" fill="#0C2278"/>
<g opacity="0.3">
<path fill-rule="evenodd" clip-rule="evenodd" d="M524.264 567.878C510.113 593.555 484.125 602.232 446.3 593.911C463.855 612.823 504.239 607.216 543.888 572.128C543.977 566.966 543.599 561.203 542.464 554.706C536.368 559.668 530.294 564.074 524.264 567.878Z" fill="#0C2278"/>
</g>
<g opacity="0.3">
<path fill-rule="evenodd" clip-rule="evenodd" d="M352.649 527.116C339.989 530.165 328.753 528.808 318.918 523.067C348.578 529.075 358.546 518.194 348.822 490.426C360.392 496.99 361.661 509.227 352.649 527.116Z" fill="#0C2278"/>
</g>
<g opacity="0.3">
<path fill-rule="evenodd" clip-rule="evenodd" d="M148.928 518.617C137.737 522.066 108.834 519.396 62.1978 510.562C62.0198 513.144 61.9753 515.836 62.0865 518.661C68.9618 518.194 87.1845 520.753 116.733 526.338C134.866 529.43 152.911 533.08 170.889 537.263C173.092 535.705 174.916 532.99 176.363 529.119C176.34 529.119 176.34 529.097 176.318 529.097C168.709 525.292 159.586 521.799 148.928 518.617Z" fill="#0C2278"/>
</g>
<path d="M90.2551 489.625C89.5876 489.625 88.9424 489.625 88.2749 489.625C86.3836 489.625 84.8261 488.068 84.8484 486.176C84.8484 484.285 86.3836 482.75 88.2971 482.75C105.741 482.794 120.359 482.349 131.751 481.482C133.665 481.326 135.311 482.75 135.445 484.664C135.601 486.555 134.177 488.223 132.285 488.357C121.138 489.18 107.009 489.625 90.2551 489.625Z" fill="#0C2278"/>
<path d="M118.891 500.372C117.778 500.372 116.666 499.838 116.02 498.837C112.505 493.519 106.52 487.111 98.2203 479.835C96.7963 478.589 96.6406 476.409 97.9088 474.985C99.1548 473.561 101.335 473.405 102.759 474.673C111.504 482.349 117.912 489.202 121.761 495.054C122.807 496.634 122.384 498.77 120.782 499.838C120.203 500.172 119.558 500.372 118.891 500.372Z" fill="#0C2278"/>
<path d="M329.042 562.917C328.352 562.917 327.64 562.716 327.039 562.271C319.897 557.132 313.511 548.654 308.082 537.062C307.281 535.349 308.016 533.28 309.729 532.479C311.464 531.678 313.511 532.412 314.312 534.125C319.252 544.627 324.881 552.214 331.067 556.664C332.602 557.777 332.958 559.935 331.845 561.47C331.178 562.405 330.11 562.917 329.042 562.917Z" fill="#0C2278"/>
<path d="M303.321 554.351C303.187 554.351 303.054 554.351 302.92 554.351C301.029 554.306 299.516 552.748 299.538 550.835C299.583 548.966 301.118 547.453 302.987 547.453C303.009 547.453 303.032 547.453 303.054 547.453C307.014 547.542 317.183 545.918 342.57 537.774C344.372 537.196 346.33 538.197 346.909 539.999C347.487 541.802 346.486 543.759 344.684 544.338C323.702 551.08 310.152 554.351 303.321 554.351Z" fill="#0C2278"/>
<path d="M488.819 565.876C488.107 565.876 487.373 565.654 486.75 565.186C479.741 559.935 472.287 551.903 464.611 541.312C463.499 539.777 463.832 537.619 465.39 536.506C466.925 535.394 469.083 535.727 470.196 537.285C477.472 547.32 484.436 554.862 490.888 559.691C492.401 560.825 492.713 562.984 491.578 564.519C490.888 565.387 489.865 565.876 488.819 565.876Z" fill="#0C2278"/>
<path d="M454.465 560.959C453.063 560.959 451.751 560.091 451.239 558.711C450.571 556.931 451.484 554.951 453.264 554.284C464.188 550.234 477.694 545.74 493.358 540.911C495.183 540.355 497.096 541.379 497.652 543.181C498.209 545.005 497.185 546.919 495.383 547.475C479.83 552.259 466.48 556.709 455.667 560.714C455.266 560.892 454.866 560.959 454.465 560.959Z" fill="#0C2278"/>
<g opacity="0.3">
<path fill-rule="evenodd" clip-rule="evenodd" d="M388.961 498.503C385.846 446.482 379.661 416.378 370.405 408.19C384.089 485.131 381.107 521.242 361.46 516.548C356.565 528.14 363.24 529.853 381.485 521.687C387.871 518.216 390.363 510.496 388.961 498.503Z" fill="#0C2278"/>
</g>
<g opacity="0.3">
<path fill-rule="evenodd" clip-rule="evenodd" d="M176.051 369.208C57.9034 343.621 3.79143 248.992 56.1012 179.015C31.8042 275.158 85.2042 339.304 217.102 344.733C297.625 348.048 347.71 304.572 367.178 241.026C363.218 265.99 357.455 286.861 349.89 303.615C337.163 325.354 317.472 342.597 290.839 355.369C311.887 348.538 333.759 339.438 356.454 328.068C319.385 369.364 271.681 389.389 213.364 388.165H213.342C212.074 388.143 210.805 388.098 209.537 388.054C204.375 388.566 200.682 392.015 198.501 398.378C202.217 426.925 221.441 448.174 257.441 458.52C269.768 460.166 276.799 456.651 278.512 447.973C278.779 424.611 279.335 408.835 284.653 400.136C279.647 424.766 290.505 452.001 311.264 477.032C310.953 477.766 310.597 478.5 310.152 479.212C205.465 497.969 186.397 434.401 176.051 369.208Z" fill="#0C2278"/>
</g>
<g opacity="0.3">
<path fill-rule="evenodd" clip-rule="evenodd" d="M198.924 437.76C212.875 460.678 233.278 474.851 260.112 480.236C228.85 482.082 207.602 478.389 196.343 469.177C188.823 485.108 183.972 496.167 181.769 502.352C170.088 508.449 162.189 504.755 158.362 490.159L161.166 488.691C173.96 454.07 186.553 437.093 198.88 437.738L198.924 437.76Z" fill="#0C2278"/>
</g>
<g opacity="0.3">
<path fill-rule="evenodd" clip-rule="evenodd" d="M523.663 356.548C526.088 361.332 528.246 366.538 530.182 372.19C598.2 350.207 625.523 303.482 596.264 238.401C587.053 217.886 572.101 205.203 571.122 190.652C569.542 167.334 563.334 151.203 554.523 146.552C543.91 173.586 560.731 204.914 584.205 252.729C609.659 304.572 582.069 342.197 523.663 356.548Z" fill="#0C2278"/>
</g>
<g opacity="0.3">
<path fill-rule="evenodd" clip-rule="evenodd" d="M447.434 452.067C445.565 478.99 441.137 499.437 434.151 513.366C424.472 518.172 418.865 515.079 412.146 514.545C418.598 504.666 417.619 491.227 414.059 464.928C423.337 461.145 431.748 456.806 439.291 451.911C442.561 451.199 445.276 451.244 447.434 452.067Z" fill="#0C2278"/>
</g>
<g opacity="0.3">
<path fill-rule="evenodd" clip-rule="evenodd" d="M474.045 314.384C509.823 325.22 531.606 355.636 537.391 405.965C542.998 454.915 533.141 488.691 527 506.357L518.768 502.464C516.432 500.973 513.584 502.775 511.092 501.04C536.167 418.203 529.804 344.911 474.045 314.384Z" fill="#0C2278"/>
</g>
<g opacity="0.3">
<path fill-rule="evenodd" clip-rule="evenodd" d="M444.853 448.107C432.549 427.147 429.167 405.431 434.729 383.003C424.205 433.066 403.223 441.921 371.762 409.547C381.463 437.605 386.625 457.118 387.248 468.109C396.148 474.562 415.349 467.887 444.853 448.107Z" fill="#0C2278"/>
</g>
<g opacity="0.3">
<path fill-rule="evenodd" clip-rule="evenodd" d="M512.982 538.175C503.17 531.744 492.713 528.496 481.588 528.451C510.846 532.701 520.392 522.288 510.246 497.235C521.037 497.346 526.221 502.308 525.798 512.164C527.356 524.624 523.084 533.302 512.982 538.175ZM515.897 540.066C532.117 556.931 515.541 572.306 466.168 586.212C487.773 588.571 516.231 577.98 544.733 554.706C542.797 543.626 538.659 530.454 530.849 514.745C530.805 524.825 523.863 532.657 515.897 540.066Z" fill="#0C2278"/>
</g>
<g opacity="0.3">
<path fill-rule="evenodd" clip-rule="evenodd" d="M371.272 560.247C358.011 588.349 329.932 599.852 287.012 594.757C302.097 614.203 343.371 606.927 390.341 565.743C390.229 562.65 390.14 558.645 390.029 553.705L389.762 538.954C389.762 538.887 389.762 538.842 389.762 538.776C389.718 536.35 389.651 533.814 389.584 531.188V531.166L389.317 519.73L389.117 512.142C388.627 513.121 388.093 514.034 387.515 514.924C385.846 517.527 383.844 519.774 381.485 521.665C376.523 525.648 370.071 528.051 362.15 528.83C362.573 530.276 362.929 531.7 363.218 533.102C368.892 561.181 344.528 576.044 290.082 577.691C311.509 589.795 338.587 583.988 371.272 560.247ZM390.029 553.728C389.962 551.191 389.918 548.41 389.851 545.384C389.896 548.41 389.962 551.191 390.029 553.728Z" fill="#0C2278"/>
</g>
<g opacity="0.3">
<path fill-rule="evenodd" clip-rule="evenodd" d="M140.651 506.869C100.646 498.125 76.5934 496.79 68.5166 502.909C84.2029 503.954 100.601 506.491 117.689 510.496C143.699 515.613 163.991 521.799 178.565 529.074C179.856 524.802 180.835 520.664 181.502 516.659C181.969 513.299 182.303 509.584 182.503 505.467C181.235 504.889 180.011 504.31 178.832 503.732C178.699 503.665 178.565 503.598 178.432 503.531C174.983 505.289 170.8 505.356 167.195 503.465C163.079 501.307 160.609 497.101 160.587 492.651C159.92 492.117 159.274 491.583 158.651 491.049C157.917 490.404 157.227 489.781 156.582 489.136C157.227 502.842 151.932 508.738 140.651 506.869Z" fill="#0C2278"/>
</g>
<g opacity="0.3">
<path fill-rule="evenodd" clip-rule="evenodd" d="M161.188 488.691C154.224 482.861 146.926 478.144 139.338 474.54C157.917 477.699 165.682 469.289 162.59 449.353C175.495 460.211 175.027 473.338 161.188 488.691Z" fill="#0C2278"/>
</g>
<g opacity="0.3">
<path fill-rule="evenodd" clip-rule="evenodd" d="M434.173 513.366C426.497 517.794 420.245 516.97 415.394 510.918C420.645 530.12 412.057 536.884 389.606 531.21C389.762 540.644 389.896 547.942 390.007 553.082C419.777 557.666 434.64 551.747 434.596 535.304C435.975 528.407 435.842 521.087 434.173 513.366Z" fill="#0C2278"/>
</g>
<g opacity="0.3">
<path fill-rule="evenodd" clip-rule="evenodd" d="M139.094 252.618C118.646 251.973 108.211 247.167 107.833 238.2C120.092 243.562 129.46 244.875 135.934 242.116C152.355 255.577 170.11 261.518 189.223 259.894C173.359 272.932 156.649 270.507 139.094 252.618Z" fill="#0C2278"/>
</g>
<path d="M131.096 191.295C136.931 174.537 132.864 157.89 122.013 154.112C111.163 150.334 97.6366 160.857 91.8023 177.614C85.9679 194.372 90.0346 211.02 100.885 214.797C111.736 218.575 125.262 208.053 131.096 191.295Z" fill="#0C2278"/>
<path d="M120.626 161.593C116.733 161.905 113.506 167.134 113.395 173.275C113.284 179.416 116.354 184.155 120.248 183.866C124.142 183.554 127.368 178.325 127.479 172.184C127.591 166.021 124.52 161.282 120.626 161.593Z" fill="white"/>
<path d="M97.9757 193.834C95.951 194.546 94.794 197.661 95.3502 200.776C95.9287 203.891 98.0203 205.849 100.023 205.137C102.048 204.425 103.204 201.31 102.648 198.195C102.092 195.08 100 193.122 97.9757 193.834Z" fill="#B199C5"/>
</svg>
