<svg width="638" height="611" viewBox="0 0 638 611" fill="none" xmlns="http://www.w3.org/2000/svg">
<ellipse cx="325" cy="299.5" rx="313" ry="299.5" fill="#B0A2D7"/>
<g clip-path="url(#clip0_244_6600)">
<path d="M533.327 412.19C532.798 418.051 531.993 423.889 530.934 429.658C530.52 431.979 530.06 434.278 529.554 436.576C527.116 447.861 523.688 458.893 519.363 469.58C500.591 515.915 464.657 555.377 415.472 577.602C366.195 599.873 312.662 600.724 265.363 584.107C254.988 580.452 244.889 575.971 235.227 570.661C233.248 569.581 231.293 568.478 229.337 567.306C223.839 564.065 218.479 560.549 213.303 556.779C262.81 544.345 320.023 524.281 379.239 497.528C438.431 470.798 491.297 441.104 533.327 412.19Z" fill="#FFB200"/>
<path d="M379.239 497.551C438.454 470.798 491.297 441.127 533.35 412.19C532.591 420.419 531.348 428.555 529.577 436.599C497.232 460.088 445.539 489.07 385.335 516.26C327.684 542.3 273.944 561.422 235.227 570.684C227.635 566.547 220.319 561.905 213.303 556.802C262.81 544.368 320.023 524.304 379.239 497.551Z" fill="#D66B09"/>
<path d="M525.137 334.346C492.309 360.868 427.457 397.987 349.999 432.991C272.541 467.971 201.8 492.104 160.184 499.229C155.859 492.173 151.925 484.749 148.428 477.004C148.267 476.636 148.083 476.291 147.945 475.901C146.427 472.476 145.001 469.052 143.689 465.581C140.607 457.491 138.053 449.309 136.075 441.081C135.983 440.736 135.914 440.414 135.822 440.092C132.923 427.865 131.221 415.523 130.668 403.25C129.587 379.899 132.624 356.708 139.387 334.713C144.425 318.349 151.534 302.628 160.552 288.011C180.935 254.961 211.071 227.404 249.145 210.189C252.941 208.488 256.736 206.902 260.578 205.431C311.88 185.872 366.816 188.653 413.999 209.522C414.298 209.66 414.598 209.775 414.897 209.936C435.371 219.084 454.35 231.656 470.937 247.261C477.309 253.283 483.337 259.741 488.904 266.636C490.445 268.521 491.941 270.429 493.39 272.359C493.988 273.141 494.563 273.922 495.138 274.704C495.277 274.91 495.438 275.117 495.599 275.324C496.197 276.151 496.795 276.956 497.37 277.806C502.247 284.747 506.71 292.056 510.759 299.71C512.254 302.536 513.704 305.432 515.084 308.374C515.452 309.179 515.82 309.983 516.188 310.811C519.708 318.556 522.699 326.416 525.137 334.346Z" fill="#FFB200"/>
<path d="M515.084 308.397C515.475 309.202 515.843 310.006 516.211 310.81C519.708 318.556 522.699 326.416 525.16 334.323C492.332 360.845 427.48 397.987 350.022 432.968C272.564 467.971 201.823 492.104 160.207 499.206C155.882 492.127 151.948 484.726 148.428 476.981C148.267 476.613 148.106 476.268 147.945 475.901C187.399 471.534 259.405 448.206 338.382 412.512C420.464 375.44 487.57 335.196 515.084 308.397Z" fill="#D66B09"/>
<path d="M133.406 406.95C132.394 406.95 131.405 406.927 130.484 406.881L130.852 399.642C158.827 401.09 231.362 378.152 307.279 343.838C387.29 307.685 454.81 266.269 467.854 245.377L474.02 249.215C460.102 271.555 392.766 313.178 310.269 350.457C234.652 384.587 164.509 406.95 133.406 406.95Z" fill="#D66B09"/>
<path d="M139.917 338.322L138.858 331.151C170.053 326.531 224.023 308.029 279.696 282.863C338.037 256.501 388.579 227.357 411.607 206.833L416.438 212.234C392.904 233.241 341.648 262.821 282.686 289.482C226.439 314.878 171.733 333.587 139.917 338.322Z" fill="#D66B09"/>
<path d="M136.12 443.724C136.005 443.724 135.913 443.724 135.798 443.724L135.844 436.461C135.936 436.461 136.051 436.461 136.143 436.461C168.282 436.461 242.933 412.489 322.163 376.681C405.556 338.988 475.699 296.446 492.677 273.187L498.543 277.461C480.599 302.008 410.917 344.527 325.153 383.277C245.073 419.476 169.225 443.724 136.12 443.724Z" fill="#D66B09"/>
<path d="M265.501 585.945L265.363 584.153L264.535 582.521L264.857 582.36L265.225 582.337C293.131 580.338 344.133 563.858 398.356 539.358C452.05 515.088 497.922 487.875 518.098 468.316L520.628 470.913C500.177 490.748 453.89 518.236 399.851 542.668C345.283 567.306 293.798 583.9 265.501 585.945Z" fill="#D66B09"/>
<path d="M332.423 599C289.565 599 246.959 585.647 211.233 559.652L205.159 555.24L212.429 553.401C263.5 540.576 320.668 520.144 377.767 494.356C434.842 468.569 487.961 439.15 531.326 409.318L537.514 405.066L536.824 412.535C530.06 485.99 484.119 550.482 416.921 580.843C389.982 593.001 361.134 599 332.423 599ZM221.585 558.296C278.407 596.426 351.449 602.7 414.046 574.431C476.643 546.138 520.145 487.186 529.002 419.407C486.512 447.999 435.394 476.039 380.688 500.769C325.959 525.476 271.138 545.288 221.585 558.296Z" fill="#000072"/>
<path d="M500.337 405.341C500.498 405.686 500.613 406.031 500.682 406.399L500.337 405.341Z" fill="#D66B09"/>
<path d="M632.318 289.712C644.511 316.625 604.344 363.351 533.327 412.19C491.297 441.104 438.431 470.798 379.216 497.551C320.001 524.304 262.787 544.368 213.28 556.802C129.679 577.809 68.0256 577.097 55.8559 550.183C44.7905 525.752 76.8826 484.979 136.029 441.104C138.03 449.332 140.561 457.514 143.643 465.604C127.287 478.957 119.235 489.553 122.042 495.735C124.894 502.033 138.628 502.906 160.161 499.229C201.777 492.127 272.518 467.994 349.976 432.99C427.435 397.987 492.286 360.868 525.114 334.345C542.092 320.624 550.512 309.73 547.659 303.433C544.876 297.25 531.579 296.285 510.736 299.732C506.687 292.056 502.224 284.77 497.347 277.829C569.422 262.43 621.253 265.257 632.318 289.712Z" fill="#FFD766"/>
<path d="M131.335 519.523C116.474 519.523 105.041 516.558 101.383 508.445C96.0456 496.678 108.675 478.59 138.858 454.664L142.24 458.916C115.439 480.153 102.349 497.39 106.352 506.193C110.999 516.466 144.494 519.96 223.632 496.057C264.029 483.853 309.717 466.385 355.727 445.608C401.738 424.808 445.033 402.078 480.898 379.83C551.133 336.253 570.618 308.811 565.971 298.537C561.991 289.735 540.389 288.149 506.733 294.239L505.767 288.884C543.679 282.035 565.603 284.517 570.94 296.285C581.799 320.28 513.612 365.925 483.774 384.449C447.702 406.812 404.222 429.681 357.982 450.573C311.742 471.465 265.823 489.001 225.196 501.274C202.927 508.031 160.552 519.523 131.335 519.523Z" fill="#FFEC90"/>
<path d="M120.822 546.897C96.2985 546.897 80.655 541.289 75.5939 530.096C67.3581 511.916 88.9369 482.129 136.327 446.229L139.617 450.573C95.1023 484.29 73.5695 512.467 80.54 527.866C89.1669 546.92 141.481 545.862 217.052 525.108C263.063 512.467 314.824 493.414 366.724 469.948C418.6 446.505 467.118 420.281 507.009 394.08C572.527 351.078 607.863 312.534 599.236 293.481C592.266 278.082 556.884 275.623 502.132 286.747L501.051 281.415C559.346 269.578 595.97 273.049 604.205 291.229C614.305 313.546 579.958 352.686 510 398.607C469.879 424.946 421.108 451.308 368.978 474.866C316.826 498.447 264.788 517.616 218.502 530.325C178.289 541.358 145.184 546.897 120.822 546.897Z" fill="#FFEC90"/>
<path d="M114.381 575.166C81.1846 575.166 59.7438 567.283 52.6583 551.631C46.6769 538.416 51.439 521.339 66.8064 500.838C80.8625 482.083 104.075 460.456 133.935 438.3L138.191 435.128L139.434 440.276C141.412 448.412 143.92 456.525 146.933 464.34L147.83 466.707L145.875 468.316C123.376 486.703 124.733 493.184 125.239 494.287C125.746 495.436 129.84 500.838 159.563 495.781C202.146 488.495 274.543 463.214 348.527 429.796C422.488 396.378 489.318 358.754 522.906 331.61C546.348 312.649 544.968 306.007 544.462 304.881C543.955 303.777 539.999 298.468 511.334 303.203L508.827 303.617L507.653 301.364C503.743 293.941 499.326 286.701 494.495 279.852L491.435 275.508L496.634 274.405C533.005 266.636 564.591 263.487 587.987 265.326C613.546 267.349 629.535 275.048 635.516 288.264C648.215 316.326 611.706 362.546 535.329 415.086C491.619 445.172 438.132 474.774 380.688 500.746C323.221 526.717 265.64 547.264 214.177 560.204C174.401 570.202 140.699 575.166 114.381 575.166ZM133.958 447.056C77.4578 489.76 49.5066 527.59 59.0767 548.712C69.9121 572.638 128.667 574.431 212.452 553.378C263.523 540.553 320.691 520.121 377.79 494.333C434.865 468.546 487.984 439.127 531.349 409.294C602.504 360.34 639.956 315.085 629.12 291.137C619.55 270.015 572.666 265.993 503.259 280.173C506.641 285.253 509.793 290.493 512.692 295.848C534.984 292.447 547.498 294.446 550.88 301.962C554.515 309.983 547.038 321.13 527.346 337.057C492.815 364.959 427.043 402.032 351.449 436.185C275.831 470.339 204.561 495.207 160.782 502.699C135.822 506.951 122.502 505.204 118.867 497.183C115.416 489.576 121.973 479.141 139.503 464.501C137.409 458.778 135.546 452.94 133.958 447.056Z" fill="#390075"/>
<g opacity="0.41">
<path d="M525.137 334.322C521.318 337.402 517.062 340.643 512.415 343.999C510.529 338.689 508.412 333.426 506.043 328.209C505.675 327.404 505.307 326.6 504.916 325.796C503.535 322.854 502.109 319.958 500.591 317.108C496.565 309.454 492.079 302.146 487.202 295.205C486.627 294.377 486.029 293.55 485.43 292.722C478.023 282.495 469.741 273.118 460.746 264.637C443.929 248.801 424.651 236.068 403.831 226.898C353.128 204.489 293.453 202.926 238.977 227.564C202.605 243.998 173.481 269.877 153.167 300.973C173.297 262.154 206.148 229.587 249.145 210.166C303.621 185.551 363.296 187.113 413.976 209.499C434.796 218.693 454.097 231.403 470.914 247.261C479.909 255.719 488.191 265.096 495.599 275.324C496.22 276.151 496.795 276.979 497.37 277.806C502.247 284.747 506.71 292.033 510.759 299.686C512.254 302.536 513.704 305.432 515.084 308.374C515.475 309.179 515.843 309.983 516.211 310.81C519.708 318.556 522.699 326.416 525.137 334.322Z" fill="white"/>
</g>
<path d="M158.435 503.09L157.193 501.068C152.776 493.851 148.75 486.243 145.23 478.452C143.505 474.614 141.872 470.729 140.399 466.845C137.294 458.732 134.694 450.343 132.647 441.931C109.504 346.366 157.906 247.56 247.695 206.994C337.484 166.428 443.699 195.365 500.268 275.807C505.261 282.909 509.839 290.401 513.887 298.078C515.82 301.732 517.683 305.524 519.409 309.363C522.928 317.154 525.988 325.198 528.496 333.288L529.209 335.564L527.345 337.058C492.815 364.96 427.043 402.032 351.448 436.185C275.831 470.339 204.561 495.207 160.782 502.699L158.435 503.09ZM332.239 195.778C304.748 195.778 276.958 201.478 250.594 213.384C163.865 252.57 117.141 347.975 139.456 440.253C141.435 448.389 143.942 456.503 146.933 464.317C148.359 468.063 149.924 471.833 151.603 475.533C154.686 482.336 158.159 488.978 161.932 495.345C204.791 487.553 275.9 462.593 348.527 429.773C421.154 396.953 486.879 360.087 521.042 333.082C518.765 326.049 516.05 319.062 512.99 312.258C511.311 308.558 509.516 304.904 507.653 301.364C503.742 293.941 499.325 286.701 494.494 279.852C456.49 225.749 395.227 195.778 332.239 195.778Z" fill="#390075"/>
<path d="M539.009 173.53C539.009 182.333 537.606 190.538 535.19 197.479C532.66 204.719 529.002 210.58 524.654 214.257C521.456 216.969 517.867 218.486 514.095 218.486C500.338 218.486 489.203 198.375 489.203 173.553C489.203 148.731 500.361 128.621 514.095 128.621C517.867 128.621 521.456 130.138 524.654 132.85C529.002 136.504 532.66 142.365 535.19 149.627C537.606 156.523 539.009 164.728 539.009 173.53Z" fill="white"/>
<path d="M514.095 219.037C500.038 219.037 488.628 198.628 488.628 173.53C488.628 148.432 500.061 128.023 514.095 128.023C517.936 128.023 521.617 129.494 525.022 132.39C529.439 136.113 533.143 141.997 535.719 149.421C538.25 156.614 539.584 164.957 539.584 173.553C539.584 182.126 538.25 190.469 535.719 197.686C533.12 205.109 529.416 210.993 525.022 214.694C521.594 217.566 517.936 219.037 514.095 219.037ZM514.095 129.172C500.683 129.172 489.778 149.076 489.778 173.53C489.778 197.985 500.683 217.888 514.095 217.888C517.66 217.888 521.088 216.509 524.286 213.797C528.542 210.212 532.131 204.489 534.661 197.272C537.146 190.193 538.457 181.988 538.457 173.53C538.457 165.072 537.146 156.867 534.661 149.788C532.131 142.571 528.542 136.849 524.309 133.263C521.065 130.551 517.637 129.172 514.095 129.172Z" fill="#390075"/>
<path d="M560.082 173.53C560.082 198.352 548.924 218.463 535.167 218.463H514.071C517.844 218.463 521.433 216.946 524.631 214.234C528.979 210.579 532.636 204.719 535.167 197.456C537.583 190.538 538.986 182.333 538.986 173.507C538.986 164.704 537.583 156.499 535.167 149.558C532.636 142.296 528.979 136.435 524.631 132.78C521.433 130.068 517.844 128.552 514.071 128.552H535.167C548.947 128.597 560.082 148.708 560.082 173.53Z" fill="white"/>
<path d="M535.167 219.037H514.071V217.888C517.637 217.888 521.065 216.509 524.263 213.797C528.518 210.212 532.107 204.489 534.638 197.272C537.122 190.193 538.434 181.988 538.434 173.53C538.434 165.072 537.122 156.867 534.638 149.788C532.107 142.571 528.519 136.849 524.286 133.263C521.088 130.551 517.66 129.172 514.094 129.172V128.023H535.19C549.246 128.023 560.68 148.432 560.68 173.53C560.657 198.628 549.223 219.037 535.167 219.037ZM519.846 217.888H535.167C548.579 217.888 559.506 197.985 559.506 173.53C559.506 149.076 548.579 129.172 535.167 129.172H519.846C521.617 129.908 523.342 130.965 525.022 132.39C529.439 136.113 533.143 141.997 535.719 149.421C538.25 156.614 539.584 164.957 539.584 173.553C539.584 182.126 538.25 190.469 535.719 197.686C533.12 205.109 529.416 210.993 525.022 214.694C523.342 216.096 521.617 217.153 519.846 217.888Z" fill="#390075"/>
<g opacity="0.3">
<path d="M559.644 182.011C557.459 202.788 547.337 218.463 535.19 218.463H514.094C517.867 218.463 521.456 216.946 524.654 214.234C529.002 210.579 532.659 204.719 535.19 197.456C536.708 193.089 537.836 188.217 538.457 182.999L538.94 183.321C545.105 187.504 553.18 186.975 559.023 182.356C559.276 182.195 559.483 182.057 559.644 182.011Z" fill="#390075"/>
</g>
<path d="M514.094 221.979C498.152 221.979 485.683 200.697 485.683 173.53C485.683 146.364 498.175 125.081 514.094 125.081C518.58 125.081 523.02 126.828 526.931 130.137C531.739 134.183 535.742 140.526 538.503 148.432C541.125 155.948 542.529 164.613 542.529 173.53C542.529 182.448 541.148 191.113 538.503 198.628C535.742 206.534 531.716 212.855 526.908 216.923C523.02 220.233 518.58 221.979 514.094 221.979ZM514.094 132.114C502.5 132.114 492.7 151.075 492.7 173.53C492.7 195.985 502.5 214.946 514.094 214.946C516.947 214.946 519.731 213.797 522.376 211.568C526.241 208.304 529.508 203.041 531.877 196.307C534.247 189.527 535.512 181.666 535.512 173.53C535.512 165.394 534.27 157.534 531.877 150.754C529.531 144.019 526.241 138.756 522.399 135.493C519.708 133.24 516.924 132.114 514.094 132.114Z" fill="#390075"/>
<path d="M535.167 221.979H514.071V214.946C516.924 214.946 519.708 213.797 522.353 211.568C526.218 208.304 529.485 203.041 531.854 196.307C534.224 189.527 535.489 181.666 535.489 173.53C535.489 165.394 534.247 157.534 531.854 150.754C529.508 144.019 526.218 138.756 522.376 135.493C519.708 133.24 516.924 132.091 514.094 132.091V125.058H535.19C551.133 125.058 563.624 146.341 563.624 173.507C563.601 200.697 551.11 221.979 535.167 221.979ZM529.002 214.946H535.167C546.762 214.946 556.562 195.985 556.562 173.53C556.562 151.075 546.762 132.114 535.167 132.114H529.002C532.866 136.136 536.133 141.721 538.48 148.432C541.102 155.948 542.506 164.613 542.506 173.53C542.506 182.448 541.125 191.113 538.48 198.628C536.133 205.362 532.889 210.947 529.002 214.946Z" fill="#390075"/>
<g opacity="0.3">
<path d="M195.474 247.445C197.59 245.492 199.776 243.561 201.984 241.699C199.753 243.584 197.59 245.492 195.474 247.445Z" fill="#293856"/>
<path d="M195.842 247.859L195.06 247.009C197.268 244.963 199.477 243.032 201.593 241.263L202.329 242.136C200.236 243.929 198.05 245.836 195.842 247.859Z" fill="#390075"/>
</g>
<g opacity="0.3">
<path d="M208.771 236.229C206.447 238.022 204.193 239.838 201.961 241.699C204.193 239.815 206.47 237.999 208.771 236.229Z" fill="#293856"/>
<path d="M202.352 242.136L201.616 241.263C203.917 239.309 206.217 237.47 208.449 235.77L209.139 236.689C206.792 238.482 204.515 240.32 202.352 242.136Z" fill="#390075"/>
</g>
<path d="M219.123 243.584C219.123 243.584 101.705 255.949 63.0794 158.062C36.0254 89.5717 65.2879 47.443 100.394 37.2154C124.089 30.3204 150.476 37.9509 164.026 61.8077C175.966 82.8375 171.226 100.765 163.29 109.246C160.69 112.004 157.769 113.773 154.962 114.302C138.812 117.405 130.645 107.821 128.276 89.9394C127.862 86.8826 125.515 75.0921 115.255 76.1264C113.622 76.2873 112.08 76.632 110.608 77.1377C95.1946 82.4238 89.0982 105.568 91.8588 131.126C93.1701 143.491 96.5749 156.385 102.004 168.106C116.796 200.099 175.92 215.245 220.227 218.854L219.123 243.584Z" fill="#8C8CAA"/>
<g opacity="0.3">
<path d="M219.123 243.584C219.123 243.584 101.705 255.949 63.0794 158.063C37.7047 93.8009 61.8831 52.7524 93.9752 39.491C73.2706 59.2108 62.0211 101.569 81.7825 151.627C110.723 224.921 184.776 230.047 219.652 231.173L219.123 243.584Z" fill="#390075"/>
</g>
<path d="M154.985 114.325C138.835 117.405 130.668 107.844 128.299 89.9626C127.885 86.9058 125.538 75.1153 115.278 76.1496C113.645 76.3104 112.103 76.6552 110.631 77.1608L113.829 70.9783C114.841 69.0477 113.921 66.6804 111.896 65.8989L101.636 61.9688C98.9903 60.9575 98.4611 57.441 100.693 55.6713L109.366 48.8912C111.321 47.3513 111.206 44.3405 109.136 42.9615L100.44 37.2156C124.135 30.3206 150.522 37.9511 164.072 61.8309C179.876 89.7098 166.372 112.142 154.985 114.325Z" fill="white"/>
<path d="M206.263 247.606C194.301 247.606 175.436 246.48 154.686 240.918C108.837 228.668 76.0312 200.467 59.7896 159.35C48.2871 130.184 45.9175 102.925 52.9801 80.5623C59.0765 61.2103 72.0053 45.9722 89.3742 37.6752C119.005 23.5404 151.695 32.9636 167.109 60.0841C175.597 75.0463 177.139 90.8589 171.295 103.5C167.776 111.13 161.771 116.6 155.652 117.773C147.922 119.243 141.435 118.14 136.374 114.486C130.254 110.073 126.366 101.983 124.825 90.4222C124.457 87.7102 122.732 78.9305 115.623 79.643C106.881 80.5164 101.705 87.6642 98.9213 93.502C90.8465 110.395 90.8695 141.56 106.858 165.992C130.99 202.857 188.434 212.763 220.526 215.383C222.459 215.544 223.908 217.245 223.747 219.176C223.586 221.106 221.884 222.531 219.951 222.393C186.571 219.658 126.758 209.201 100.992 169.83C85.7394 146.502 82.1276 112.394 92.5949 90.4912C97.633 79.9418 105.57 73.5984 114.933 72.656C125.584 71.5758 130.668 81.068 131.796 89.5029C133.061 99.064 135.983 105.568 140.492 108.809C143.988 111.314 148.497 112.004 154.341 110.878C158.206 110.142 162.369 106.097 164.923 100.558C167.224 95.5705 171.456 81.9873 161.012 63.5546C145.668 36.549 114.91 33.2854 92.4339 44.0187C65.0118 57.0962 41.7536 94.4903 66.3461 156.775C81.8975 196.215 112.172 222.209 156.273 234.069C189.469 242.986 218.456 240.113 218.755 240.067C220.71 239.861 222.413 241.263 222.62 243.193C222.827 245.124 221.424 246.848 219.491 247.054C219.008 247.123 214.108 247.606 206.263 247.606Z" fill="#390075"/>
<g opacity="0.3">
<path d="M163.313 109.269C160.713 112.027 157.791 113.796 154.985 114.325C138.835 117.428 130.668 107.844 128.299 89.9625C127.885 86.9057 125.538 75.1152 115.278 76.1495C113.645 76.3104 112.103 76.6551 110.631 77.1607C95.2176 82.4469 89.1212 105.591 91.8818 131.149L87.7869 129.701C87.7869 129.701 84.8883 77.0458 114.013 65.7609C144.172 54.0624 145.576 83.1364 150.844 97.9608C154.019 106.832 159.448 108.97 163.313 109.269Z" fill="#000072"/>
<path d="M92.5487 131.999L87.2345 130.115L87.1885 129.724C87.1655 129.195 84.589 76.5172 113.782 65.2094C122.409 61.8538 129.219 61.555 134.625 64.29C143.275 68.6569 146.289 79.8039 148.957 89.6638C149.762 92.6056 150.499 95.3636 151.35 97.7539C154.409 106.281 159.54 108.418 163.335 108.694L164.532 108.786L163.704 109.659C161.081 112.463 158.021 114.325 155.077 114.9C148.175 116.233 142.47 115.29 138.076 112.119C132.624 108.188 129.15 100.765 127.724 90.0315C127.401 87.6412 125.308 75.6898 115.324 76.7011C113.782 76.862 112.264 77.1837 110.815 77.6894C96.6666 82.5389 89.466 103.477 92.4337 131.08L92.5487 131.999ZM88.3388 129.287L91.2144 130.298C88.4308 102.603 95.9535 81.5736 110.447 76.6092C111.988 76.0805 113.598 75.7358 115.209 75.5749C126.274 74.4487 128.529 87.2965 128.874 89.8936C130.254 100.282 133.567 107.453 138.766 111.199C142.884 114.164 148.313 115.037 154.893 113.773C157.308 113.314 159.816 111.889 162.093 109.705C158.136 109.062 153.259 106.419 150.315 98.1446C149.44 95.7084 148.681 92.9274 147.899 89.9625C145.299 80.3555 142.332 69.4613 134.165 65.3243C129.058 62.7501 122.547 63.0719 114.243 66.2896C87.0965 76.793 88.1548 124.507 88.3388 129.287Z" fill="#390075"/>
</g>
<path d="M394.974 264.659C396.792 265.924 398.402 267.119 399.805 268.199C424.168 287.298 434.681 300.146 440.639 309.5C445.263 316.763 447.127 321.934 450.6 326.301C453.361 329.772 457.111 332.736 464.104 335.839C475.722 341.01 496.381 335.403 495.691 317.475C495.391 309.661 492.953 302.858 489.847 297.273C489.41 296.492 488.95 295.71 488.49 294.975C482.486 285.368 474.94 279.966 474.94 279.966L394.974 264.659Z" fill="#8C8CAA"/>
<path d="M473.352 338.253C469.994 338.253 466.681 337.632 463.851 336.368C457.341 333.472 453.246 330.576 450.14 326.669C448.185 324.21 446.735 321.498 445.056 318.372C443.722 315.867 442.203 313.04 440.156 309.822C435.118 301.916 425.433 289.022 399.46 268.659C397.873 267.418 396.285 266.245 394.675 265.119L392.42 263.579L475.262 279.53C475.331 279.576 482.969 285.115 488.973 294.699C489.433 295.457 489.893 296.216 490.353 297.02C494.011 303.594 496.012 310.466 496.289 317.476C496.634 326.324 491.987 331.358 488.053 334.024C483.912 336.805 478.552 338.253 473.352 338.253ZM397.459 265.74C398.356 266.406 399.253 267.073 400.15 267.785C426.261 288.264 436.038 301.249 441.122 309.224C443.193 312.488 444.711 315.338 446.068 317.843C447.725 320.923 449.151 323.589 451.037 325.979C454.028 329.726 457.985 332.53 464.311 335.357C471.19 338.413 480.898 337.471 487.363 333.104C491.066 330.599 495.414 325.864 495.092 317.544C494.839 310.718 492.884 304.007 489.318 297.595C488.881 296.813 488.444 296.055 487.984 295.319C482.485 286.517 475.584 281.231 474.687 280.564L397.459 265.74Z" fill="#390075"/>
<g opacity="0.3">
<path d="M437.994 288.746C433.922 289.551 429.712 290.217 425.341 290.677C419.106 284.31 410.894 276.91 399.805 268.222C398.425 267.142 396.815 265.924 394.974 264.659L419.843 269.44C428.147 277.048 433.853 283.368 437.994 288.746Z" fill="#6B184E"/>
<path d="M425.134 291.274L424.95 291.068C418.14 284.104 409.559 276.565 399.46 268.659C397.896 267.441 396.285 266.245 394.675 265.119L392.443 263.579L420.165 268.889L420.28 269.003C427.779 275.875 433.738 282.219 438.477 288.378L439.052 289.114L438.132 289.298C433.945 290.125 429.666 290.792 425.433 291.251L425.134 291.274ZM397.458 265.717C398.379 266.383 399.276 267.073 400.15 267.762C410.203 275.623 418.738 283.138 425.548 290.079C429.344 289.666 433.185 289.068 436.958 288.355C432.38 282.518 426.675 276.496 419.589 269.969L397.458 265.717Z" fill="#390075"/>
</g>
<path d="M442.364 311.937C446.16 317.912 448.116 322.463 450.6 326.301C453.361 329.772 457.111 332.737 464.104 335.839C475.722 341.011 496.38 335.403 495.69 317.476C495.391 309.661 492.953 302.858 489.847 297.273C483.543 295.021 470.5 292.952 453.315 303.662C450.255 305.57 447.057 307.891 443.745 310.672C443.215 311.109 442.778 311.523 442.364 311.937Z" fill="white"/>
<g opacity="0.3">
<path d="M464.081 335.862C457.087 332.76 453.338 329.795 450.577 326.324C447.126 321.957 445.24 316.809 440.616 309.523C439.097 307.133 437.257 304.513 434.98 301.594C432.403 298.33 429.274 294.722 425.317 290.677C429.665 290.194 433.898 289.551 437.97 288.746C458.491 284.701 475.423 276.956 488.881 268.452C490.422 270.337 491.917 272.244 493.366 274.175C493.965 274.956 494.54 275.738 495.115 276.519C493.735 277.53 492.308 278.519 490.882 279.461C481.657 285.483 470.706 291.206 458.008 295.618C450.968 298.055 448.207 306.696 452.808 312.557C452.832 312.603 452.854 312.626 452.9 312.672C455.661 316.143 459.411 319.107 466.405 322.21C475.33 326.186 489.571 323.796 495.391 314.35C495.506 315.384 495.598 316.441 495.644 317.522C496.357 335.403 475.722 341.034 464.081 335.862Z" fill="#000072"/>
<path d="M473.352 338.253C469.993 338.253 466.681 337.632 463.851 336.368C457.341 333.472 453.246 330.576 450.14 326.669C448.184 324.21 446.735 321.498 445.033 318.349C443.699 315.867 442.18 313.04 440.133 309.822C438.407 307.11 436.567 304.536 434.542 301.939C431.736 298.376 428.607 294.837 424.926 291.068L424.098 290.217L425.271 290.079C429.481 289.62 433.714 288.976 437.855 288.149C455.914 284.586 472.984 277.783 488.581 267.946L489.019 267.67L489.341 268.061C490.813 269.854 492.331 271.807 493.85 273.807C494.333 274.428 494.793 275.071 495.276 275.692L495.966 276.611L495.506 276.956C494.034 278.013 492.607 279.001 491.227 279.898C480.898 286.655 469.786 292.102 458.238 296.101C455.017 297.204 452.532 299.824 451.589 303.065C450.646 306.237 451.29 309.546 453.315 312.12L453.407 312.235C456.374 315.982 460.354 318.786 466.704 321.613C475.423 325.497 489.364 323.061 494.977 313.982L495.851 312.58L496.035 314.212C496.15 315.223 496.242 316.28 496.288 317.43C496.633 326.278 491.986 331.312 488.052 333.978C483.888 336.805 478.551 338.253 473.352 338.253ZM464.311 335.334C471.19 338.39 480.898 337.448 487.362 333.081C491.066 330.576 495.414 325.842 495.092 317.522C495.069 316.993 495.046 316.464 495 315.959C488.627 324.44 474.916 326.6 466.198 322.716C459.687 319.82 455.569 316.901 452.463 312.994L452.371 312.879C450.117 310.006 449.404 306.306 450.462 302.766C451.52 299.158 454.281 296.285 457.847 295.044C469.303 291.068 480.323 285.666 490.583 278.955C491.779 278.174 493.044 277.3 494.333 276.381C493.873 275.761 493.413 275.14 492.929 274.519C491.526 272.658 490.123 270.865 488.766 269.187C473.168 278.955 456.121 285.735 438.085 289.275C434.289 290.033 430.402 290.631 426.56 291.091C429.918 294.561 432.817 297.894 435.44 301.203C437.51 303.823 439.351 306.444 441.099 309.179C443.169 312.442 444.688 315.269 446.045 317.774C447.701 320.877 449.128 323.543 451.037 325.933C454.028 329.726 457.985 332.53 464.311 335.334Z" fill="#390075"/>
</g>
<path d="M473.49 341.355C469.626 341.355 465.83 340.597 462.586 339.034C450.899 333.426 447.863 327.956 443.676 320.395C438.454 310.971 430.54 296.745 397.666 270.98C380.527 257.535 350.022 243.032 302.033 250.203L300.998 243.262C351.448 235.724 383.77 251.168 402.014 265.464C436.015 292.102 444.343 307.087 449.841 316.993C453.821 324.141 456.007 328.071 465.669 332.714C471.397 335.449 479.702 334.713 485.43 330.944C488.674 328.807 492.493 324.784 492.217 317.637C491.411 296.377 469.488 280.403 469.257 280.242L473.352 274.543C474.365 275.278 498.29 292.654 499.233 317.384C499.532 325.52 496.012 332.415 489.295 336.828C484.671 339.816 478.989 341.355 473.49 341.355Z" fill="#390075"/>
<g opacity="0.3">
<path d="M177.185 267.234C204.929 262.867 262.787 278.496 283.906 292.125C286.413 293.734 288.599 295.251 290.439 296.584C290.738 296.814 291.06 297.021 291.336 297.25C301.482 304.766 309.211 311.339 315.17 317.108C321.565 323.291 325.959 328.554 329.203 333.15C340.383 349.032 337.485 356.548 354.716 364.224C366.333 369.395 388.027 363.719 386.302 345.86C385.588 338.598 383.518 332.714 381.056 328.14C380.55 327.198 380.044 326.324 379.515 325.474C374.914 318.211 369.784 314.948 369.784 314.948L364.378 263.534C356.28 264.361 348.113 264.867 339.946 264.867C294.741 264.867 246.384 260.408 213.027 253.099C204.837 251.306 197.084 250.686 189.976 251.123C185.513 251.398 174.47 267.648 177.185 267.234Z" fill="#000072"/>
<path d="M364.078 366.637C360.674 366.637 357.315 366.017 354.462 364.753C342.73 359.535 340.199 354.456 336.38 346.734C334.517 342.964 332.377 338.689 328.72 333.472C325.039 328.255 320.484 323.038 314.755 317.522C308.314 311.293 300.308 304.628 290.968 297.71C290.784 297.572 290.623 297.457 290.462 297.319L290.071 297.02C288.277 295.71 286.091 294.193 283.583 292.585C261.936 278.634 204.354 263.534 177.277 267.785C176.748 267.854 176.472 267.579 176.38 267.464C176.035 267.027 176.15 266.292 176.725 265.027C178.611 260.936 186.111 250.778 189.953 250.548C197.291 250.088 205.09 250.778 213.165 252.547C246.177 259.81 294.764 264.315 339.946 264.315C347.653 264.315 355.866 263.878 364.331 263.005L364.907 262.936L370.336 314.649C371.417 315.384 375.903 318.694 379.998 325.198C380.527 326.049 381.056 326.968 381.562 327.887C384.461 333.288 386.232 339.31 386.876 345.837C387.705 354.295 383.403 359.283 379.676 361.972C375.42 365.005 369.646 366.637 364.078 366.637ZM187.859 265.924C217.49 265.924 264.949 279.231 284.205 291.642C286.735 293.297 288.944 294.791 290.761 296.124L291.152 296.423C291.336 296.561 291.497 296.676 291.681 296.814C301.067 303.755 309.096 310.466 315.584 316.717C321.335 322.279 325.959 327.542 329.686 332.829C333.413 338.115 335.552 342.436 337.438 346.228C341.165 353.721 343.627 358.662 354.968 363.695C362.123 366.89 372.475 365.718 379.009 361.006C382.505 358.501 386.508 353.836 385.749 345.906C385.128 339.54 383.38 333.656 380.573 328.393C380.09 327.473 379.584 326.6 379.055 325.773C374.592 318.717 369.554 315.453 369.508 315.43L369.278 315.292L363.917 264.177C355.613 265.027 347.561 265.441 339.992 265.441C294.741 265.441 246.062 260.913 212.958 253.651C204.998 251.904 197.291 251.237 190.068 251.674C188.549 251.766 185.628 254.34 182.43 258.408C179.462 262.2 177.622 265.533 177.415 266.59C180.498 266.154 184.04 265.924 187.859 265.924Z" fill="#390075"/>
</g>
<path d="M189.446 250.778C223.471 248.847 271.989 272.704 294.833 287.436C297.34 289.045 299.526 290.562 301.366 291.895C301.665 292.125 301.988 292.332 302.264 292.562C312.409 300.077 320.139 306.65 326.097 312.419C332.492 318.602 336.886 323.865 340.13 328.462C351.31 344.343 348.412 351.859 365.643 359.535C377.26 364.707 398.954 359.03 397.229 341.172C396.516 333.909 394.445 328.025 391.984 323.451C391.477 322.509 390.971 321.636 390.442 320.785C385.841 313.522 386.393 306.306 386.393 306.306L373.004 236.896L372.912 235.999L364.193 153.075L363.135 142.939C314.824 101.086 254.229 107.223 219.675 127.862C212.935 131.884 207.206 136.458 202.72 141.353C157.515 190.699 189.446 250.778 189.446 250.778Z" fill="#8C8CAA"/>
<g opacity="0.5">
<path d="M179.715 187.941C183.304 175.76 189.815 163.257 200.719 151.351C205.297 146.364 211.186 141.675 218.065 137.561C253.24 116.554 314.801 110.234 364.101 152.317L363.112 142.985C314.801 101.133 254.206 107.269 219.652 127.908C212.912 131.93 207.183 136.504 202.697 141.4C188.802 156.569 182.2 172.772 179.715 187.941Z" fill="white"/>
</g>
<g opacity="0.3">
<path d="M220.158 127.449C245.51 117.796 263.362 110.326 249.122 113.383C237.596 115.865 227.888 120.737 220.158 127.449Z" fill="#6B184E"/>
<path d="M217.329 129.149L219.767 127.035C227.773 120.071 237.619 115.29 248.984 112.854C254.045 111.774 254.505 112.096 254.712 112.739C254.965 113.613 255.287 114.716 220.365 128.023L217.329 129.149ZM252.895 113.314C252.227 113.383 251.123 113.567 249.237 113.957C239.322 116.095 230.603 120.025 223.287 125.656C244.038 117.704 250.87 114.555 252.895 113.314Z" fill="#390075"/>
</g>
<path d="M340.13 328.485C351.31 344.366 348.412 351.882 365.643 359.558C377.26 364.73 398.954 359.053 397.229 341.195C396.377 332.438 393.525 325.704 390.442 320.808C380.872 317.223 362.767 314.166 340.59 328.163C340.429 328.278 340.291 328.393 340.13 328.485Z" fill="white"/>
<path d="M375.075 364.937C371.256 364.937 367.483 364.224 364.216 362.776C351.518 357.145 348.504 351.077 344.685 343.401C339.67 333.288 332.791 319.452 299.25 294.768C281.789 281.897 244.245 259.534 189.101 254.294L187.215 254.11L186.318 252.433C185.973 251.789 177.99 236.574 175.62 214.97C173.412 194.928 175.874 165.463 200.098 139.009C215.35 122.369 242.611 110.763 271.276 108.694C305.576 106.235 339.026 117.451 365.413 140.296L360.812 145.605C302.448 95.0419 229.636 117.152 205.297 143.744C166.372 186.24 187.215 237.677 191.747 247.491C247.534 253.237 285.608 275.968 303.437 289.091C338.336 314.787 345.95 330.117 350.988 340.252C354.669 347.653 356.694 351.721 367.069 356.341C373.257 359.099 382.528 358.041 388.211 353.95C392.375 350.94 394.238 346.757 393.732 341.516C391.708 320.762 374.776 290.976 374.592 290.677L380.688 287.183C381.424 288.448 398.563 318.579 400.703 340.85C401.439 348.526 398.471 355.215 392.283 359.65C387.544 363.121 381.217 364.937 375.075 364.937Z" fill="#390075"/>
<path d="M482.094 218.693C481.565 218.739 480.99 218.762 480.438 218.785C480.438 218.785 480.46 218.808 480.483 218.831C480.507 218.831 480.506 218.831 480.506 218.831C480.599 218.899 480.806 219.014 481.105 219.221C481.45 219.06 481.772 218.876 482.094 218.693Z" fill="#982E20"/>
<path d="M481.059 219.888L480.783 219.704C480.622 219.589 480.507 219.52 480.392 219.451C480.369 219.428 480.346 219.428 480.323 219.405L480.024 219.175L479.149 218.279L480.53 218.21C481.036 218.187 481.565 218.164 482.048 218.118L484.878 217.888L481.979 219.405C481.772 219.52 481.588 219.612 481.381 219.727L481.059 219.888Z" fill="#390075"/>
<path d="M301.481 246.732L394.974 264.66C379.814 254.202 349.631 239.539 301.481 246.732Z" fill="#8C8CAA"/>
<path d="M397.551 265.74L298.077 246.664L301.412 246.158C347.446 239.263 377.881 252.157 395.319 264.177L397.551 265.74ZM305.001 246.825L392.306 263.579C375.19 252.455 346.779 241.377 305.001 246.825Z" fill="#390075"/>
<path d="M346.709 230.138C347.445 229.564 348.158 228.989 348.871 228.392C348.181 228.874 347.468 229.449 346.709 230.138Z" fill="white"/>
<path d="M347.054 230.598L346.318 229.702C347.123 228.989 347.836 228.415 348.526 227.932L349.24 228.828C348.526 229.426 347.79 230.023 347.054 230.598Z" fill="#390075"/>
<g opacity="0.3">
<path d="M325.591 206.489C325.361 207.431 325.061 208.373 324.67 209.27C324.946 208.097 325.2 206.948 325.407 205.799C325.43 205.799 325.476 206.052 325.591 206.489Z" fill="#6B184E"/>
<path d="M325.199 209.499L324.118 209.132C324.417 207.891 324.647 206.764 324.854 205.684L325.383 202.857L325.982 205.684C325.982 205.684 326.028 205.937 326.143 206.351L326.189 206.489L326.143 206.626C325.913 207.638 325.59 208.603 325.199 209.499Z" fill="#390075"/>
</g>
<g opacity="0.3">
<path d="M325.706 206.879C325.66 206.741 325.637 206.604 325.591 206.489C325.614 206.397 325.637 206.328 325.66 206.236C325.683 206.443 325.706 206.65 325.706 206.879Z" fill="#6B184E"/>
<path d="M326.557 211.821L324.993 206.512L325.039 206.351C325.062 206.236 325.085 206.19 325.085 206.121L325.913 202.099L326.235 206.328C326.258 206.512 326.258 206.673 326.281 206.856L326.557 211.821Z" fill="#390075"/>
</g>
<path d="M485.706 313.591C486.764 314.649 487.661 315.798 488.49 316.993C489.318 318.188 490.077 319.452 490.744 320.762C491.411 322.072 492.032 323.451 492.424 324.922C492.792 326.393 493.068 327.933 492.907 329.565C492.769 330.829 491.641 331.771 490.376 331.633C489.387 331.541 488.605 330.829 488.375 329.91L488.329 329.749C488.03 328.554 487.823 327.335 487.569 326.071L486.856 322.164C486.327 319.498 485.683 316.786 485.154 313.936C485.108 313.752 485.246 313.568 485.43 313.545C485.522 313.476 485.637 313.522 485.706 313.591Z" fill="#390075"/>
<path d="M471.972 320.073C473.007 321.199 473.766 322.486 474.434 323.842C475.078 325.198 475.607 326.623 475.975 328.117C476.32 329.588 476.619 331.105 476.642 332.622C476.665 334.139 476.527 335.678 476.09 337.149C475.722 338.368 474.434 339.08 473.191 338.712C472.225 338.436 471.581 337.563 471.535 336.621V336.483C471.466 335.15 471.604 333.863 471.65 332.553C471.742 331.243 471.834 329.933 471.88 328.6C471.949 325.933 471.811 323.198 471.42 320.371V320.348C471.397 320.165 471.512 319.981 471.719 319.958C471.788 319.935 471.903 319.981 471.972 320.073Z" fill="#390075"/>
<g opacity="0.35">
<path d="M508.183 73.8513C469.902 25.2413 407.305 27.5396 407.305 27.5396C407.305 27.5396 344.708 25.2413 306.405 73.8513C276.268 112.119 273.53 157.143 276.981 189.343C280.386 221.244 297.387 249.996 323.681 267.188C343.489 280.128 371.233 291.688 407.259 291.688H407.305C443.331 291.688 471.098 280.105 490.906 267.165C517.201 249.973 534.224 221.198 537.606 189.32C541.057 157.12 538.342 112.096 508.183 73.8513Z" fill="white"/>
<path d="M407.305 292.263C376.547 292.263 348.32 283.989 323.359 267.648C296.996 250.41 279.88 221.888 276.406 189.389C273.047 157.902 275.44 112.234 305.945 73.4835C343.995 25.2182 406.661 26.919 407.305 26.965C407.88 26.942 470.592 25.2182 508.62 73.4835C539.147 112.211 541.54 157.879 538.181 189.366C534.707 221.865 517.592 250.387 491.205 267.625C466.221 283.966 437.994 292.263 407.305 292.263ZM406.27 28.0912C397.919 28.0912 341.856 29.7919 306.865 74.196C276.59 112.647 274.22 157.994 277.556 189.274C280.984 221.428 297.916 249.629 324.004 266.705C348.78 282.909 376.8 291.114 407.259 291.114C437.764 291.114 465.807 282.886 490.607 266.682C516.694 249.629 533.626 221.405 537.054 189.251C540.39 157.971 538.02 112.624 507.745 74.196C470.063 26.3904 407.949 28.0912 407.328 28.1142C407.282 28.1142 406.914 28.0912 406.27 28.0912Z" fill="#390075"/>
</g>
<path d="M508.183 73.851C469.902 25.241 407.305 27.5394 407.305 27.5394C407.305 27.5394 344.708 25.241 306.405 73.851C276.268 112.118 273.53 157.143 276.981 189.343C280.386 221.244 297.387 249.996 323.681 267.188C343.489 280.128 371.233 291.688 407.259 291.688H407.305C443.331 291.688 471.098 280.105 490.906 267.165C517.201 249.973 534.224 221.198 537.606 189.32C541.057 157.12 538.342 112.095 508.183 73.851Z" fill="#390075"/>
<path d="M384.415 104.212C375.235 97.7309 333.113 68.8178 324.578 75.6209C309.671 87.5263 325.406 139.078 328.604 149.26" fill="#8C8CAA"/>
<path d="M439.765 102.718C448.369 95.4784 487.869 63.0718 496.933 69.1164C512.806 79.7118 503.627 125.633 501.327 136.044" fill="#8C8CAA"/>
<path d="M501.879 136.205L500.752 135.952C502.799 126.713 512.277 80.0795 496.611 69.622C489.755 65.0483 461.919 84.8371 440.133 103.178L439.397 102.305C450.623 92.8583 488.007 62.4972 497.255 68.6797C513.128 79.2521 504.801 123.036 501.879 136.205Z" fill="#390075"/>
<g opacity="0.5">
<path d="M439.765 102.741L446.299 106.281C459.043 95.8001 491.872 70.1046 500.016 75.5517C501.442 76.494 502.661 77.7352 503.696 79.2061C502.27 74.8163 500.085 71.2768 496.91 69.1393C487.869 63.0947 448.369 95.4784 439.765 102.741Z" fill="white"/>
</g>
<path d="M501.304 139.584C501.05 139.584 500.797 139.561 500.544 139.492C498.658 139.078 497.462 137.193 497.876 135.309C503.351 110.694 505.882 79.3441 494.977 72.0583C494.931 72.0354 490.928 69.6681 470.155 83.8488C457.87 92.2378 445.516 102.488 442.019 105.407C440.524 106.648 438.316 106.465 437.073 104.994C435.831 103.5 436.015 101.293 437.487 100.052C441.03 97.0643 453.614 86.6298 466.175 78.057C488.26 62.9799 495.253 63.8073 498.865 66.2205C515.82 77.5284 508.619 119.381 504.731 136.826C504.386 138.458 502.914 139.584 501.304 139.584Z" fill="#390075"/>
<path d="M493.666 82.9524C493.666 82.9524 495.69 81.9411 496.173 87.0205C496.979 95.7082 495.828 117.864 486.741 126.897C486.741 126.897 469.327 106.533 465.025 104.442C460.723 102.35 469.004 98.5811 471.098 95.1336C473.191 91.6631 491.964 82.3548 493.666 82.9524Z" fill="#FC7E81"/>
<g opacity="0.3">
<path d="M465.001 104.419C467.509 105.637 474.457 113.061 479.84 119.037C484.418 108.51 484.97 93.571 484.349 86.8138C484.349 86.7449 484.326 86.6529 484.326 86.584C478.643 89.4109 472.271 93.1573 471.098 95.0879C468.981 98.5584 460.699 102.328 465.001 104.419Z" fill="#390075"/>
</g>
<path d="M493.689 83.2512C490.836 84.4924 487.984 85.9633 485.223 87.5032C482.463 89.0661 479.794 90.7209 477.217 92.5366C472.087 96.145 467.348 100.259 463.69 105.017L462.885 100.374C464.381 101.362 465.577 102.305 466.819 103.316C468.061 104.327 469.235 105.361 470.408 106.419C472.731 108.556 474.917 110.785 477.01 113.107C479.081 115.451 481.082 117.818 482.946 120.324C484.832 122.783 486.558 125.357 488.26 127.954C488.674 128.575 488.49 129.402 487.869 129.793C487.294 130.16 486.512 130.046 486.097 129.517L486.074 129.494C484.188 127.127 482.279 124.805 480.231 122.599C478.23 120.37 476.067 118.255 473.882 116.21C471.673 114.187 469.396 112.256 467.026 110.464C465.853 109.567 464.634 108.694 463.437 107.89C462.241 107.085 460.93 106.258 459.826 105.66L456.651 103.982L459.02 101.017C463.69 95.9611 469.189 92.0539 474.871 88.7673C477.724 87.1125 480.645 85.6415 483.636 84.2855C486.627 82.9295 489.617 81.7114 492.769 80.6771C493.482 80.4473 494.241 80.815 494.494 81.5275C494.724 82.194 494.379 82.9295 493.758 83.2053L493.689 83.2512Z" fill="#390075"/>
<path d="M531.026 217.245C530.52 222.37 518.971 216.463 518.971 216.463C518.971 216.463 518.327 218.072 520.674 222.623C522.422 226.002 523.964 228.461 523.273 230.299C522.56 232.253 519.224 232.69 515.36 232.322C512.645 232.046 510.344 232.437 507.377 235.724C506.802 236.367 506.204 237.103 505.559 237.976C505.559 237.976 505.559 237.976 505.536 237.999C496.702 248.525 484.579 256.34 470.224 261.718C470.224 261.718 390.373 284.357 345.72 253.398C338.818 248.433 332.814 242.389 328.052 235.103C326.902 234.804 325.774 234.827 324.578 234.965C320.713 235.471 317.378 235.103 316.595 233.172C315.859 231.357 317.102 228.622 318.597 225.105C319.816 222.255 320.276 220.486 320.437 219.704C320.483 219.497 320.299 219.336 320.161 219.428C318.183 220.463 309.096 224.898 308.521 220.348C308.406 219.451 308.82 217.888 309.487 215.912C310.66 212.326 312.593 207.339 313.421 202.283C315.537 189.504 317.217 180.494 318.275 175.047C318.298 174.909 318.321 174.748 318.367 174.611C318.39 174.473 318.413 174.335 318.459 174.174C318.482 174.036 318.505 173.898 318.551 173.76C318.873 172.174 319.241 170.611 319.655 169.049C321.541 161.832 324.279 154.661 327.776 146.525L356.67 114.785L375.949 93.6169C387.152 88.0089 399.874 84.4925 414.091 83.665C416.967 83.5042 419.773 83.4352 422.534 83.5042C422.603 83.5042 422.672 83.5042 422.741 83.5042C433.093 83.734 442.272 86.515 451.152 89.5488C485.637 101.477 504.363 133.309 504.363 133.309C508.872 141.032 512.461 148.042 515.176 155.19C516.51 158.706 517.637 162.245 518.534 165.946C518.534 165.946 518.557 166.015 518.58 166.153C518.971 167.693 521.571 178.426 525.62 199.295C527.161 207.109 531.279 214.694 531.026 217.245Z" fill="#8C8CAA"/>
<path d="M406.845 227.61C407.719 241.079 422.189 244.503 439.673 243.354C457.157 242.205 471.052 236.919 470.155 223.45C469.281 209.982 455.017 198.008 437.534 199.134C420.05 200.306 405.971 214.142 406.845 227.61Z" fill="white"/>
<path d="M374.43 211.545C373.74 209.155 373.579 206.81 373.694 204.351C373.855 201.915 374.384 199.41 375.488 197.019C376.57 194.652 378.272 192.308 380.596 190.699C380.872 190.492 381.148 190.262 381.447 190.078L382.367 189.573C382.988 189.274 383.586 188.86 384.253 188.676C384.898 188.446 385.565 188.24 386.209 188.033C386.876 187.803 387.497 187.757 388.164 187.619C390.764 187.205 393.594 187.251 396.262 188.102C398.931 188.929 401.346 190.538 403.118 192.538C406.66 196.583 408.018 201.708 407.65 206.443C407.604 207.109 407.029 207.592 406.361 207.546C405.855 207.5 405.464 207.178 405.326 206.718V206.695C404.015 202.627 401.921 198.95 399.069 196.698C396.239 194.422 392.903 193.802 389.338 194.514C387.52 194.813 385.979 195.456 384.599 196.353C383.195 197.226 381.999 198.467 381.01 200.007C378.962 203.064 377.72 207.178 376.777 211.384L376.754 211.476C376.616 212.119 375.972 212.533 375.327 212.395C374.89 212.28 374.545 211.959 374.43 211.545Z" fill="#390075"/>
<path d="M464.472 200.835C463.782 198.582 463.621 196.33 463.713 193.986C463.851 191.664 464.357 189.274 465.392 186.976C466.428 184.7 468.038 182.471 470.27 180.908C470.546 180.701 470.799 180.471 471.075 180.31L471.949 179.828C472.547 179.529 473.122 179.138 473.743 178.977C474.364 178.748 474.986 178.564 475.63 178.357C476.251 178.15 476.872 178.104 477.493 177.966C479.978 177.575 482.669 177.621 485.246 178.426C487.822 179.23 490.123 180.77 491.802 182.701C493.505 184.608 494.655 186.838 495.345 189.113C496.012 191.388 496.288 193.71 496.058 195.985C495.989 196.652 495.414 197.111 494.747 197.065C494.264 197.019 493.873 196.698 493.735 196.261V196.238C492.446 192.377 490.422 188.975 487.753 186.861C485.108 184.746 482.025 184.195 478.666 184.861C476.964 185.137 475.538 185.757 474.249 186.562C472.938 187.366 471.834 188.515 470.891 189.94C468.935 192.79 467.739 196.675 466.796 200.628L466.773 200.743C466.612 201.386 465.968 201.777 465.323 201.639C464.909 201.547 464.587 201.225 464.472 200.835Z" fill="#390075"/>
<g opacity="0.3">
<path d="M454.788 227.312C449.474 230.575 444.113 228.185 441.675 224.967C441.675 224.967 436.522 232.667 428.332 228.622C423.202 226.093 425.249 218.969 425.249 218.969L456.306 218.44C456.306 218.44 458.906 224.783 454.788 227.312Z" fill="#390075"/>
</g>
<path d="M455.11 216.211C455.11 216.211 457.502 222.048 453.706 224.393C448.806 227.404 443.906 223.45 441.652 220.486C441.652 220.486 436.453 228.852 429.298 225.611C424.513 223.428 426.445 216.716 426.445 216.716" fill="white"/>
<path d="M432.611 226.944C431.483 226.944 430.31 226.714 429.068 226.139C423.869 223.772 425.87 216.601 425.893 216.532L427.043 216.854C426.974 217.107 425.295 223.106 429.551 225.036C436.13 228.024 440.962 220.463 441.146 220.141L441.606 219.405L442.135 220.095C442.71 220.83 447.817 227.289 453.407 223.864C456.72 221.819 454.581 216.486 454.558 216.417L455.662 215.958C455.777 216.211 458.192 222.301 454.028 224.852C449.128 227.863 444.205 224.37 441.698 221.428C440.501 223.06 437.143 226.944 432.611 226.944Z" fill="#390075"/>
<path d="M432.611 228.621C431.253 228.621 429.85 228.346 428.378 227.679C423.178 225.312 423.432 219.06 424.283 216.096C424.628 214.9 425.893 214.188 427.112 214.556C428.309 214.9 429.022 216.164 428.654 217.383C428.654 217.429 427.319 222.232 430.241 223.565C435.463 225.932 439.558 219.589 439.719 219.313L441.468 216.532L443.469 219.152C443.929 219.773 448.185 225.151 452.51 222.508C454.557 221.244 453.016 217.176 452.993 217.13C452.51 215.958 453.085 214.648 454.235 214.165C455.409 213.682 456.72 214.257 457.203 215.406C458.353 218.233 459.181 223.749 454.88 226.369C450.302 229.196 445.332 227.426 441.767 224.071C439.673 226.323 436.429 228.621 432.611 228.621Z" fill="#390075"/>
<g opacity="0.3">
<path d="M429.321 225.588C436.475 228.852 441.674 220.463 441.674 220.463C443.929 223.427 448.829 227.381 453.729 224.37C456.214 222.853 455.017 218.509 454.603 216.601C454.327 217.613 453.867 219.543 453.246 220.44C450.876 223.887 445.01 217.728 442.779 214.763C442.779 214.763 435.785 226.162 429.298 221.727C427.503 220.486 427.457 217.911 427.112 216.349C426.79 218.348 425.709 223.956 429.321 225.588Z" fill="#390075"/>
</g>
<path d="M443.814 210.166C444.09 211.039 444.32 211.844 444.527 212.694C444.734 213.545 444.895 214.395 445.033 215.291C445.148 216.188 445.24 217.107 445.217 218.072C445.194 219.061 445.102 220.095 444.734 221.244L444.619 221.589C444.159 223.06 442.572 223.864 441.1 223.404C439.627 222.945 438.822 221.359 439.282 219.888C439.374 219.566 439.535 219.29 439.719 219.038C439.995 218.67 440.248 218.095 440.455 217.452C440.662 216.808 440.801 216.073 440.893 215.337C441.008 214.602 441.054 213.82 441.1 213.039C441.123 212.257 441.123 211.453 441.1 210.695V210.626C441.077 209.867 441.652 209.224 442.434 209.201C443.078 209.201 443.63 209.591 443.814 210.166Z" fill="#390075"/>
<path d="M428.447 208.603C429.091 212.28 436.383 214.395 441.675 214.372C445.678 214.349 452.05 211.66 451.981 207.661C451.935 204.512 448.346 202.26 438.845 203.133C431.092 203.845 428.01 206.144 428.447 208.603Z" fill="#390075"/>
<g opacity="0.7">
<path d="M437.971 205.753C437.925 206.443 439.788 206.925 441.145 206.695C441.927 206.557 444.711 206.052 444.734 205.316C444.78 204.581 443.883 204.052 441.26 204.259C438.914 204.443 438.017 205.064 437.971 205.753Z" fill="white"/>
</g>
<g opacity="0.5">
<path d="M531.026 217.245C530.934 218.233 530.405 218.808 529.646 219.106C528.381 215.659 526.609 211.2 525.735 206.672C521.686 185.803 519.087 175.093 518.696 173.53C518.673 173.392 518.65 173.323 518.65 173.323C517.752 169.623 516.625 166.084 515.291 162.567C512.576 155.396 510.644 147.444 506.135 139.722C506.135 139.722 485.729 108.855 451.245 96.9264C442.365 93.8696 433.186 91.0886 422.833 90.8817C422.764 90.8817 422.695 90.8587 422.626 90.8817C419.866 90.8128 417.059 90.8588 414.183 91.0426C399.966 91.87 388.119 94.3752 376.616 101.247L372.82 103.729C359.224 94.3752 329.64 76.1493 321.979 82.2859C320.645 83.3432 319.54 84.6762 318.62 86.2161C319.678 81.7113 321.542 78.011 324.532 75.6207C331.825 69.8059 359.822 86.7907 373.51 95.8691L373.096 95.1337C385.657 87.8709 399.874 84.5153 414.068 83.6879C416.944 83.527 419.751 83.4581 422.511 83.527C422.58 83.504 422.649 83.527 422.718 83.527C433.071 83.7569 442.25 86.5379 451.13 89.5717C485.614 101.5 504.34 133.332 504.34 133.332C508.849 141.055 512.438 148.042 515.153 155.212C516.487 158.729 517.614 162.268 518.512 165.969C518.512 165.969 518.535 166.038 518.558 166.176C518.949 167.715 521.548 178.449 525.597 199.318C527.161 207.109 531.279 214.694 531.026 217.245Z" fill="white"/>
</g>
<path d="M359.385 108.05C356.993 109.475 350.689 117.451 345.858 123.886C342.385 128.483 339.67 132.298 339.67 132.298C329.847 124.07 326.787 102.098 326.856 93.3639C326.902 88.2846 328.996 89.112 328.996 89.112C329.732 88.7902 333.942 90.1003 338.612 91.9619C344.524 94.3062 351.196 97.478 352.53 99.3166C354.922 102.534 363.503 105.591 359.385 108.05Z" fill="#FC7E81"/>
<g opacity="0.3">
<path d="M359.385 108.05C356.993 109.475 350.689 117.451 345.858 123.886C340.406 113.773 338.566 98.9489 338.635 92.1688C338.635 92.0998 338.635 92.0079 338.635 91.939C344.547 94.2833 351.218 97.455 352.553 99.2937C354.922 102.534 363.503 105.591 359.385 108.05Z" fill="#390075"/>
</g>
<path d="M329.709 86.7908C332.929 87.5722 336.035 88.5375 339.118 89.6177C342.2 90.6979 345.237 91.939 348.228 93.341C354.186 96.145 359.983 99.5695 365.067 104.189L367.667 106.924L364.653 108.878C363.595 109.567 362.353 110.51 361.226 111.406C360.075 112.325 358.948 113.291 357.867 114.279C355.658 116.256 353.565 118.37 351.54 120.576C349.539 122.806 347.584 125.081 345.766 127.471C343.926 129.839 342.2 132.321 340.544 134.849L340.521 134.872C340.107 135.493 339.279 135.654 338.658 135.24C338.082 134.849 337.898 134.091 338.22 133.493C339.67 130.758 341.188 128.069 342.844 125.449C344.478 122.806 346.272 120.255 348.136 117.749C350.022 115.267 352.024 112.854 354.14 110.533C355.198 109.36 356.302 108.234 357.453 107.131C358.626 106.005 359.707 104.971 361.134 103.844L360.719 108.533C356.671 104.097 351.586 100.397 346.18 97.2482C343.466 95.6624 340.659 94.2374 337.783 92.9273C334.908 91.6173 331.94 90.3992 328.995 89.4109L328.949 89.3879C328.236 89.158 327.845 88.3766 328.098 87.6641C328.328 86.9976 329.041 86.6299 329.709 86.7908Z" fill="#390075"/>
<path d="M417.841 274.014C405.648 274.014 393.525 272.589 381.539 269.762C364.055 265.625 347.169 256.914 332.699 244.595C327.776 240.389 325.292 239.608 324.256 239.493C320.368 239.125 315.031 238.619 313.375 234.482C312.271 231.724 313.283 228.759 314.686 225.404C311.903 226.093 309.671 226.001 307.992 225.151C306.335 224.278 305.3 222.738 305.047 220.807C304.794 218.785 305.645 216.302 306.91 212.579C307.992 209.43 309.326 205.523 309.947 201.754C313.49 180.287 314.686 174.955 314.847 174.312C315.215 172.496 318.482 157.051 323.796 145.238C320.714 136.228 304.886 86.8597 322.347 72.9087C331.342 65.7149 354.715 79.0223 373.441 92.0309C385.335 85.4807 400.61 80.9759 413.861 80.2174C416.76 80.0336 419.659 79.9876 422.465 80.0566C422.626 80.0566 422.764 80.0566 422.879 80.0566C433.968 80.3094 443.86 83.4121 452.257 86.3081C487.57 98.5353 506.572 130.252 507.354 131.585C512.438 140.296 515.843 147.191 518.419 154.017C519.823 157.741 520.973 161.372 521.893 165.164C521.893 165.164 521.893 165.187 521.916 165.233C522.169 166.267 524.815 176.909 529.025 198.674C529.761 202.443 531.21 206.305 532.361 209.43C533.741 213.131 534.661 215.59 534.454 217.613C534.27 219.566 533.258 221.129 531.624 222.025C529.968 222.945 527.737 223.083 524.953 222.485C526.448 225.795 527.553 228.737 526.517 231.54C525.62 233.977 522.882 236.712 514.9 235.838C511.449 235.448 508.481 239.861 508.458 239.906C507.86 240.872 506.342 242.596 505.146 243.906L505.007 244.066C494.977 254.317 480.208 262.614 463.414 267.464C448.277 271.808 433.002 274.014 417.841 274.014ZM319.977 231.632C320.737 231.954 322.416 232.253 324.946 232.483C328.328 232.805 332.262 234.942 337.277 239.217C350.896 250.824 366.77 259.006 383.172 262.89C408.892 268.981 435.256 268.222 461.551 260.638C477.171 256.133 490.836 248.502 500.015 239.125C501.35 237.654 502.385 236.413 502.592 236.091C502.799 235.769 507.837 227.932 515.751 228.805C517.936 229.035 519.248 228.897 519.915 228.714C519.685 227.656 518.788 225.68 518.074 224.163L517.867 223.726C516.533 220.807 515.935 218.877 515.659 217.75C515.314 216.348 515.82 214.832 516.947 213.912C518.051 213.016 519.616 212.832 520.881 213.453C523.596 214.763 525.85 215.452 527.207 215.705C526.862 214.625 526.31 213.131 525.827 211.844C524.562 208.488 523.021 204.305 522.169 199.984C518.12 179.092 515.498 168.29 515.153 166.98L515.13 166.911C514.256 163.303 513.197 159.947 511.886 156.477C509.447 150.041 506.204 143.445 501.327 135.102C501.143 134.803 482.785 104.258 450.002 92.9043C441.72 90.0544 432.794 87.2734 422.695 87.0435H422.672H422.442C419.797 86.9746 417.059 87.0205 414.298 87.2044C401.346 87.9629 386.301 92.5596 375.052 99.1788L373.096 100.328L371.233 99.0179C346.686 81.7114 330.284 75.5288 326.741 78.3558C315.652 87.2274 323.957 125.587 330.882 144.157L331.411 145.536L330.767 146.869C325.292 158.384 321.772 175.53 321.749 175.691L321.703 175.875C321.657 176.058 320.529 180.747 316.895 202.834C316.182 207.201 314.732 211.407 313.582 214.809C313.145 216.119 312.616 217.613 312.317 218.716C313.674 218.44 315.905 217.681 318.574 216.302C319.839 215.636 321.404 215.774 322.531 216.647C323.681 217.521 324.233 219.015 323.911 220.439C323.704 221.359 323.175 223.381 321.864 226.484L321.68 226.921C321.013 228.507 320.115 230.621 319.977 231.632Z" fill="#390075"/>
<g opacity="0.3">
<path d="M481.773 336.391C475.216 343.93 462.609 345.63 454.42 341.999C447.426 338.896 443.676 335.931 440.916 332.461C437.465 328.094 435.578 322.946 430.954 315.66C428.7 312.098 425.778 308.053 421.683 303.341C417.036 303.755 412.228 303.961 407.282 303.961H407.236C371.21 303.961 343.466 292.401 323.658 279.461C297.364 262.27 280.363 233.517 276.958 201.616C276.061 193.204 275.578 183.919 275.9 174.105C276.061 179.414 276.452 184.516 276.958 189.32C280.363 221.221 297.364 249.973 323.658 267.165C343.466 280.105 371.21 291.665 407.236 291.665H407.282C408.317 291.665 409.352 291.665 410.388 291.619C404.959 286.494 398.333 280.771 390.12 274.336C388.74 273.256 387.13 272.037 385.289 270.773L408.478 275.232C426.744 290.516 435.417 301.341 440.593 309.478C445.217 316.763 447.081 321.912 450.555 326.278C453.315 329.749 457.065 332.714 464.059 335.817C469.12 338.092 475.814 338.322 481.773 336.391Z" fill="#390075"/>
</g>
<path d="M508.183 73.8513C469.902 25.2413 407.305 27.5396 407.305 27.5396C407.305 27.5396 344.708 25.2413 306.405 73.8513C276.268 112.119 273.53 157.143 276.981 189.343C280.386 221.244 297.387 249.996 323.681 267.188C343.489 280.128 371.233 291.688 407.259 291.688H407.305C443.331 291.688 471.098 280.105 490.906 267.165C517.201 249.973 534.224 221.198 537.606 189.32C541.057 157.12 538.342 112.096 508.183 73.8513ZM528.841 192.4C525.988 217.084 511.748 239.332 489.755 252.64C473.169 262.637 449.934 271.601 419.797 271.601H419.751C389.614 271.601 366.379 262.637 349.815 252.64C327.822 239.332 313.605 217.084 310.753 192.423C307.877 167.509 310.154 132.666 335.391 103.063C367.437 65.4623 419.797 67.232 419.797 67.232C419.797 67.232 472.156 65.4623 504.203 103.063C529.439 132.666 531.717 167.509 528.841 192.4Z" fill="white"/>
<path d="M407.305 292.263C376.547 292.263 348.32 283.989 323.359 267.648C296.996 250.41 279.88 221.888 276.406 189.389C273.047 157.902 275.44 112.234 305.945 73.4835C343.995 25.2182 406.661 26.919 407.305 26.965C407.88 26.942 470.592 25.2182 508.62 73.4835C539.147 112.211 541.54 157.879 538.181 189.366C534.707 221.865 517.592 250.387 491.205 267.625C466.221 283.966 437.994 292.263 407.305 292.263ZM406.27 28.0912C397.919 28.0912 341.856 29.7919 306.865 74.196C276.59 112.647 274.22 157.994 277.556 189.274C280.984 221.428 297.916 249.629 324.004 266.705C348.78 282.909 376.8 291.114 407.259 291.114C437.764 291.114 465.807 282.886 490.607 266.682C516.694 249.629 533.626 221.405 537.054 189.251C540.39 157.971 538.02 112.624 507.745 74.196C470.063 26.3904 407.949 28.0912 407.328 28.1142C407.282 28.1142 406.914 28.0912 406.27 28.0912ZM419.797 272.198C394.031 272.198 370.405 265.786 349.516 253.145C327.431 239.792 313.076 217.682 310.177 192.492C307.371 168.106 309.372 132.712 334.954 102.695C366.816 65.3244 419.314 66.6344 419.82 66.6574C420.303 66.6344 472.801 65.3244 504.64 102.695C530.198 132.689 532.223 168.06 529.416 192.469C526.518 217.659 512.162 239.769 490.054 253.145C469.12 265.786 445.471 272.198 419.797 272.198ZM418.946 67.8066C411.998 67.8066 365.068 69.1166 335.828 103.454C310.523 133.149 308.544 168.198 311.328 192.354C314.203 217.176 328.329 238.987 350.114 252.157C370.819 264.683 394.261 271.026 419.751 271.049C445.264 271.049 468.706 264.683 489.456 252.157C511.265 238.964 525.413 217.176 528.266 192.354C531.05 168.175 529.048 133.126 503.766 103.454C472.272 66.4965 420.326 67.8066 419.82 67.8296C419.774 67.8066 419.475 67.8066 418.946 67.8066Z" fill="#390075"/>
<g opacity="0.3">
<path d="M537.629 189.32C534.224 221.221 517.223 249.973 490.905 267.165C471.098 280.105 443.331 291.665 407.305 291.665H407.259C371.233 291.665 343.489 280.105 323.681 267.165C297.386 249.973 280.386 221.221 276.981 189.343C275.623 176.771 275.232 162.245 277.027 146.938C280.547 178.656 297.501 207.201 323.681 224.324C343.489 237.263 371.233 248.824 407.259 248.824H407.305C443.331 248.824 471.098 237.24 490.905 224.301C517.062 207.201 534.063 178.656 537.583 146.961C539.377 162.268 538.963 176.771 537.629 189.32Z" fill="#390075"/>
</g>
<path d="M407.305 295.205C375.972 295.205 347.215 286.747 321.749 270.13C294.649 252.387 277.05 223.083 273.484 189.711C270.056 157.672 272.518 111.199 303.644 71.6677C342.108 22.8738 403.233 23.9081 407.305 24.023C411.377 23.8851 472.501 22.8738 510.943 71.6677C542.069 111.176 544.53 157.649 541.103 189.688C537.537 223.06 519.938 252.364 492.815 270.107C467.348 286.747 438.569 295.182 407.305 295.205ZM406.224 31.0329C398.333 31.0329 343.351 32.6418 309.165 76.0116C279.488 113.681 277.188 158.223 280.478 188.952C283.813 220.21 300.262 247.652 325.614 264.223C349.907 280.105 377.375 288.149 407.259 288.149C437.188 288.149 464.68 280.082 488.996 264.2C514.348 247.629 530.796 220.187 534.132 188.906C537.422 158.154 535.098 113.612 505.422 75.9656C468.728 29.4011 408.041 30.964 407.42 30.987H407.305H407.167C407.144 31.0329 406.799 31.0329 406.224 31.0329Z" fill="#390075"/>
<path d="M419.796 275.14C393.502 275.14 369.346 268.59 347.997 255.673C325.107 241.837 310.269 218.946 307.255 192.86C304.357 167.877 306.427 131.632 332.699 100.834C365.021 62.9111 416.277 63.6695 419.796 63.7615C423.316 63.6695 474.572 62.9111 506.871 100.834C533.12 131.609 535.19 167.854 532.337 192.837C529.324 218.923 514.462 241.837 491.572 255.673C470.178 268.567 446.022 275.117 419.796 275.14ZM418.899 70.7484C412.366 70.7484 366.494 71.9896 338.059 105.362C313.421 134.252 311.511 168.428 314.249 192.032C317.01 215.958 330.652 236.965 351.655 249.652C371.9 261.902 394.813 268.107 419.773 268.107C444.757 268.107 467.67 261.879 487.961 249.652C508.987 236.942 522.629 215.935 525.39 192.009C528.105 168.405 526.172 134.229 501.557 105.362C470.96 69.4614 420.464 70.7484 419.934 70.7484H419.819H419.704C419.658 70.7484 419.382 70.7484 418.899 70.7484Z" fill="#390075"/>
<path d="M290.37 173.531C290.37 182.333 288.967 190.538 286.551 197.479C284.021 204.719 280.363 210.58 276.015 214.257C272.817 216.969 269.228 218.486 265.456 218.486C251.698 218.486 240.564 198.376 240.564 173.553C240.564 148.731 251.721 128.621 265.456 128.621C269.228 128.621 272.817 130.138 276.015 132.85C280.363 136.504 284.021 142.365 286.551 149.628C288.967 156.523 290.37 164.728 290.37 173.531Z" fill="white"/>
<path d="M265.455 219.038C251.399 219.038 239.989 198.628 239.989 173.53C239.989 148.432 251.422 128.023 265.455 128.023C269.297 128.023 272.978 129.494 276.383 132.39C280.8 136.113 284.504 141.997 287.08 149.421C289.611 156.615 290.945 164.958 290.945 173.553C290.945 182.126 289.611 190.469 287.08 197.686C284.481 205.11 280.777 210.993 276.383 214.694C272.955 217.567 269.297 219.038 265.455 219.038ZM265.455 129.172C252.043 129.172 241.139 149.076 241.139 173.53C241.139 197.985 252.043 217.888 265.455 217.888C269.021 217.888 272.449 216.509 275.647 213.797C279.903 210.212 283.491 204.489 286.022 197.272C288.507 190.193 289.818 181.988 289.818 173.53C289.818 165.073 288.507 156.867 286.022 149.789C283.491 142.572 279.903 136.849 275.67 133.263C272.426 130.551 268.998 129.172 265.455 129.172Z" fill="#390075"/>
<g opacity="0.3">
<path d="M290.37 173.53C290.37 182.333 288.967 190.538 286.551 197.479C284.021 204.719 280.363 210.58 276.015 214.257C272.817 216.969 269.228 218.486 265.456 218.486C251.698 218.486 240.564 198.376 240.564 173.553C240.564 170.887 240.702 168.267 240.932 165.739C242.933 180.609 253.171 191.894 265.456 191.894C269.228 191.894 272.817 190.837 276.015 188.929C280.363 186.355 284.021 182.241 286.551 177.139C288.254 173.737 289.45 169.899 290.002 165.785C290.232 168.29 290.37 170.887 290.37 173.53Z" fill="#390075"/>
</g>
<path d="M311.443 173.53C311.443 198.352 300.285 218.463 286.528 218.463H265.433C269.205 218.463 272.794 216.946 275.992 214.234C280.34 210.58 283.998 204.719 286.528 197.456C288.944 190.538 290.347 182.333 290.347 173.507C290.347 164.705 288.944 156.5 286.528 149.559C283.998 142.296 280.34 136.435 275.992 132.781C272.794 130.069 269.205 128.552 265.433 128.552H286.528C300.308 128.598 311.443 148.708 311.443 173.53Z" fill="white"/>
<path d="M286.528 219.038H265.433V217.888C268.998 217.888 272.426 216.509 275.624 213.797C279.88 210.212 283.469 204.489 285.999 197.272C288.484 190.193 289.795 181.988 289.795 173.53C289.795 165.073 288.484 156.867 285.999 149.789C283.469 142.572 279.88 136.849 275.647 133.263C272.449 130.551 269.021 129.172 265.456 129.172V128.023H286.551C300.607 128.023 312.041 148.432 312.041 173.53C312.018 198.628 300.584 219.038 286.528 219.038ZM271.207 217.888H286.528C299.94 217.888 310.868 197.985 310.868 173.53C310.868 149.076 299.94 129.172 286.528 129.172H271.207C272.978 129.908 274.704 130.965 276.383 132.39C280.8 136.113 284.504 141.997 287.08 149.421C289.611 156.615 290.945 164.958 290.945 173.553C290.945 182.126 289.611 190.469 287.08 197.686C284.481 205.11 280.777 210.993 276.383 214.694C274.704 216.096 272.978 217.153 271.207 217.888Z" fill="#390075"/>
<g opacity="0.3">
<path d="M311.42 175.185C310.937 199.249 299.986 218.463 286.528 218.463H265.433C269.205 218.463 272.794 216.946 275.992 214.234C280.34 210.58 283.998 204.719 286.528 197.456C287.932 193.48 289.703 176.587 290.324 171.875L292.763 175.231C297.318 181.483 306.681 181.574 311.282 175.346C311.351 175.3 311.397 175.231 311.42 175.185Z" fill="#390075"/>
</g>
<path d="M265.455 221.98C249.513 221.98 237.044 200.697 237.044 173.53C237.044 146.364 249.536 125.081 265.455 125.081C269.941 125.081 274.381 126.828 278.292 130.138C283.1 134.183 287.103 140.526 289.864 148.432C292.486 155.948 293.89 164.613 293.89 173.53C293.89 182.448 292.509 191.113 289.864 198.628C287.103 206.535 283.077 212.855 278.269 216.923C274.381 220.233 269.941 221.98 265.455 221.98ZM265.455 132.114C253.861 132.114 244.061 151.076 244.061 173.53C244.061 195.985 253.861 214.947 265.455 214.947C268.308 214.947 271.092 213.797 273.737 211.568C277.602 208.304 280.869 203.041 283.238 196.307C285.608 189.527 286.873 181.644 286.873 173.53C286.873 165.394 285.631 157.534 283.238 150.754C280.892 144.02 277.602 138.756 273.76 135.493C271.069 133.24 268.285 132.114 265.455 132.114Z" fill="#390075"/>
<path d="M286.528 221.98H265.433V214.947C268.285 214.947 271.069 213.797 273.714 211.568C277.579 208.304 280.846 203.041 283.216 196.307C285.585 189.527 286.85 181.644 286.85 173.53C286.85 165.394 285.608 157.534 283.216 150.754C280.869 144.02 277.579 138.756 273.737 135.493C271.069 133.24 268.285 132.091 265.456 132.091V125.058H286.551C302.494 125.058 314.986 146.341 314.986 173.507C314.963 200.697 302.471 221.98 286.528 221.98ZM280.363 214.947H286.528C298.123 214.947 307.923 195.985 307.923 173.53C307.923 151.076 298.123 132.114 286.528 132.114H280.363C284.251 136.136 287.495 141.721 289.841 148.433C292.464 155.948 293.867 164.613 293.867 173.53C293.867 182.448 292.487 191.113 289.841 198.628C287.495 205.363 284.251 210.948 280.363 214.947Z" fill="#390075"/>
<g opacity="0.3">
<path d="M365.643 359.558C348.412 351.905 351.31 344.389 340.107 328.485C336.886 323.911 332.492 318.625 326.074 312.442C320.093 306.673 312.386 300.1 302.241 292.585C301.942 292.355 301.642 292.148 301.343 291.918C299.526 290.562 297.317 289.068 294.81 287.459C271.966 272.727 223.448 248.87 189.423 250.801C189.423 250.801 179.255 231.678 178.519 206.144C178.542 206.259 178.588 206.351 178.611 206.466C181.349 215.912 189.515 222.807 199.293 223.956C231.523 227.679 270.655 247.33 290.485 260.109C292.969 261.718 295.178 263.235 297.018 264.568C297.317 264.798 297.617 265.004 297.916 265.234C308.061 272.75 315.791 279.323 321.749 285.092C328.144 291.274 332.538 296.538 335.782 301.111C346.962 316.993 348.504 333.104 365.758 340.758C375.167 344.941 395.848 341.7 391.546 322.716C391.684 322.969 391.822 323.221 391.961 323.474C394.422 328.048 396.493 333.932 397.206 341.195C398.954 359.053 377.26 364.73 365.643 359.558Z" fill="#390075"/>
</g>
<path d="M389.775 339.517C390.557 340.781 391.133 342.114 391.685 343.47C392.191 344.826 392.651 346.228 392.973 347.676C393.295 349.124 393.571 350.595 393.617 352.112C393.64 353.629 393.525 355.192 392.973 356.731C392.536 357.95 391.225 358.57 390.005 358.133C389.062 357.812 388.464 356.915 388.464 355.973V355.789C388.441 354.571 388.556 353.33 388.602 352.043L388.832 348.067C388.947 345.355 388.97 342.551 389.131 339.655C389.131 339.471 389.292 339.31 389.499 339.333C389.614 339.356 389.729 339.425 389.775 339.517Z" fill="#390075"/>
<path d="M375.466 344.159C376.202 345.515 376.639 346.94 376.961 348.411C377.26 349.882 377.444 351.399 377.444 352.916C377.444 354.433 377.375 355.973 377.007 357.467C376.685 358.961 376.156 360.409 375.397 361.719C374.753 362.822 373.326 363.19 372.222 362.546C371.348 362.041 370.934 361.052 371.118 360.133L371.141 359.995C371.394 358.685 371.831 357.467 372.176 356.203C372.567 354.962 372.958 353.698 373.326 352.434C374.016 349.859 374.545 347.17 374.822 344.32V344.297C374.845 344.114 375.006 343.976 375.19 343.999C375.305 343.999 375.42 344.068 375.466 344.159Z" fill="#390075"/>
<g opacity="0.3">
<path d="M525.137 334.345C492.309 360.868 427.457 397.987 349.999 432.99C272.541 467.971 201.8 492.104 160.184 499.229C155.859 492.173 151.925 484.749 148.428 477.004C148.267 476.636 148.083 476.291 147.945 475.9C146.427 472.476 145.001 469.051 143.689 465.581C140.607 457.491 138.053 449.309 136.075 441.081C135.983 440.736 135.914 440.414 135.822 440.092C132.923 427.865 131.221 415.523 130.668 403.25C129.587 379.899 132.624 356.708 139.387 334.713C144.425 318.349 151.534 302.628 160.552 288.011C163.014 284.035 165.59 280.15 168.328 276.335C165.912 282.196 163.75 288.172 161.886 294.239C155.123 316.234 152.086 339.402 153.167 362.776C153.72 375.049 155.445 387.391 158.321 399.618C158.39 399.963 158.482 400.285 158.574 400.607C160.552 408.835 163.106 417.017 166.188 425.107C167.5 428.578 168.926 432.002 170.444 435.427C170.605 435.794 170.766 436.162 170.927 436.53C170.973 436.599 170.996 436.691 171.042 436.76C177.139 450.182 192.092 457.238 206.424 453.676C248.639 443.103 308.268 421.568 372.521 392.54C431.023 366.109 482.325 338.459 518.075 315.062C520.766 321.406 523.136 327.864 525.137 334.345Z" fill="#390075"/>
</g>
<g opacity="0.3">
<path d="M381.861 511.594C356.003 523.269 330.537 533.681 305.921 542.736C302.609 543.955 302.632 548.643 305.944 549.815C305.967 549.815 306.013 549.838 306.036 549.838C353.335 566.455 406.868 565.605 456.145 543.334C465.14 539.266 473.675 534.623 481.749 529.475C463.736 549.333 441.444 565.881 415.449 577.625C366.172 599.896 312.639 600.747 265.34 584.13C254.965 580.475 244.866 575.993 235.204 570.684C233.225 569.604 231.27 568.501 229.314 567.329C228.348 566.754 227.382 566.179 226.416 565.582C225.725 565.168 225.035 564.732 224.368 564.295C224.184 564.203 224.023 564.088 223.839 563.973C222.988 563.444 222.16 562.893 221.309 562.341C221.263 562.318 221.239 562.295 221.193 562.272C220.365 561.744 219.56 561.192 218.755 560.64C217.812 559.997 216.869 559.353 215.948 558.71C215.051 558.089 214.177 557.469 213.303 556.825C215.856 556.182 218.433 555.515 221.009 554.826C222.091 554.55 223.172 554.274 224.253 553.975C225.772 553.562 227.313 553.148 228.854 552.734C230.165 552.389 231.5 552.022 232.811 551.631C235.457 550.896 238.125 550.137 240.817 549.356C241.76 549.08 242.703 548.804 243.646 548.528C246.361 547.724 249.076 546.919 251.836 546.069C253.148 545.678 254.436 545.265 255.77 544.851C256.299 544.69 256.851 544.506 257.404 544.345C260.072 543.495 262.764 542.644 265.478 541.771C266.261 541.518 267.02 541.265 267.802 541.013C268.952 540.645 270.102 540.277 271.253 539.886C273.53 539.151 275.808 538.37 278.108 537.588C310.361 526.694 344.455 513.272 379.239 497.551C438.454 470.798 491.297 441.127 533.35 412.213C532.821 418.074 532.016 423.912 530.957 429.681C489.755 457.491 438.73 485.898 381.861 511.594Z" fill="#390075"/>
</g>
<g opacity="0.3">
<path d="M374.73 499.573C317.102 525.315 261.545 544.69 213.303 556.802C129.702 577.809 68.0486 577.074 55.8789 550.16C44.8134 525.729 76.9056 484.956 136.052 441.081C138.03 449.309 140.584 457.491 143.666 465.581C127.31 478.934 119.258 489.553 122.065 495.712C124.917 502.01 138.651 502.883 160.184 499.206C172.791 497.045 188.066 493.322 205.389 488.22C205.688 490.771 206.332 493.207 207.368 495.482C219.56 522.396 281.191 523.109 364.815 502.102C368.081 501.32 371.394 500.447 374.73 499.573Z" fill="#390075"/>
</g>
</g>
<defs>
<clipPath id="clip0_244_6600">
<rect width="589" height="575" fill="white" transform="translate(49 24)"/>
</clipPath>
</defs>
</svg>
