<svg width="659" height="643" viewBox="0 0 659 643" fill="none" xmlns="http://www.w3.org/2000/svg">
<ellipse cx="316" cy="343.5" rx="313" ry="299.5" fill="#B0A2D7"/>
<path d="M158.941 536.855C159.774 512.1 141.776 510.951 133.915 509.6C67.8269 498.202 62.7362 462.027 70.1244 433.307C75.5304 412.314 57.8708 405.827 27.8901 409.273C-3.3296 412.877 -11.2359 366.498 43.9954 358.705C44.9415 358.569 45.8875 358.457 46.8111 358.367C89.4959 353.591 108.214 381.049 109.476 406.525C109.791 412.674 109.07 418.734 107.403 424.185C98.3257 454.165 114.296 471.082 146.822 481.714C156.057 484.732 178.312 487.57 184.214 521.267L158.941 536.855Z" fill="white"/>
<path d="M109.453 406.525C107.989 406.638 106.502 406.683 105.016 406.683C76.026 406.683 51.9017 385.847 46.811 358.344C89.4734 353.569 108.214 381.027 109.453 406.525Z" fill="#FFA124"/>
<path d="M549.569 83.2013C548.803 84.0798 548.015 85.0033 547.204 85.9494C542.181 91.7383 534.996 95.7703 529.252 98.3156C525.107 100.163 520.692 96.3334 521.954 91.9635C523.665 85.9268 526.684 78.2458 531.707 72.4569C532.901 71.0829 534.027 69.7764 535.131 68.5601C542.857 59.8879 548.128 55.4956 554.93 61.4196C562.003 67.5915 557.768 73.6732 549.569 83.2013Z" fill="#FC4F4F"/>
<path d="M549.569 83.2013C543.667 79.5523 538.689 74.5067 535.108 68.5601C542.834 59.8879 548.105 55.4956 554.907 61.4196C562.003 67.5915 557.768 73.6732 549.569 83.2013Z" fill="white"/>
<g opacity="0.3">
<path d="M549.569 83.2011C548.803 84.0795 548.015 85.0031 547.204 85.9491C542.181 91.738 534.996 95.77 529.252 98.3153C525.107 100.162 520.692 96.3331 521.954 91.9633C522.382 90.4992 522.877 88.9224 523.44 87.3231C524.904 88.6972 527.112 89.2603 529.252 88.2917C534.996 85.7464 542.181 81.7144 547.204 75.9255C548.015 74.9794 548.826 74.0784 549.569 73.1774C552.745 69.5059 555.313 66.3524 556.867 63.4917C561.012 68.9878 556.867 74.7317 549.569 83.2011Z" fill="#000072"/>
</g>
<path d="M527.044 101.604C525.13 101.604 523.238 100.929 521.706 99.5996C519.296 97.5047 518.327 94.2837 519.206 91.1977C520.895 85.2962 524.049 76.9394 529.545 70.6099C534.568 64.821 538.532 60.2709 542.542 57.8382C547.497 54.8199 552.137 55.2929 556.732 59.3023C561.328 63.3118 562.454 67.8393 560.156 73.1552C558.309 77.4575 554.322 82.0075 549.299 87.7965C543.803 94.126 535.964 98.4057 530.356 100.883C529.297 101.357 528.171 101.604 527.044 101.604ZM548.759 61.5323C547.655 61.5323 546.596 61.9603 545.492 62.636C542.249 64.6182 538.532 68.898 533.825 74.304C529.004 79.8451 526.188 87.391 524.657 92.7294C524.251 94.171 525.152 95.0946 525.423 95.3423C525.715 95.5901 526.752 96.3559 528.103 95.7478C533.194 93.4953 540.267 89.6435 545.087 84.1024C549.795 78.6964 553.511 74.4166 555.021 70.9252C556.124 68.3799 556.169 66.2626 553.061 63.5596C551.394 62.0954 550.02 61.5323 548.759 61.5323Z" fill="#000072"/>
<g opacity="0.4">
<path d="M184.191 520.141L176.893 524.646C170.023 494.598 149.165 491.872 140.29 488.967C107.764 478.335 91.7709 461.418 100.871 431.438C102.515 425.987 103.236 419.95 102.943 413.778C101.704 388.28 82.9637 360.844 40.2788 365.62C39.3553 365.71 38.4092 365.822 37.4632 365.957C22.6868 368.052 12.4379 372.895 5.95068 378.797C10.726 369.359 22.6417 360.574 43.9954 357.556C44.9415 357.42 45.8875 357.308 46.811 357.218C89.4959 352.442 108.214 379.9 109.476 405.376C109.791 411.526 109.07 417.585 107.403 423.036C98.3257 453.017 114.296 469.933 146.822 480.565C156.057 483.606 178.289 486.444 184.191 520.141Z" fill="white"/>
</g>
<g opacity="0.3">
<path d="M158.941 536.855C159.774 512.1 141.777 510.951 133.915 509.599C67.8269 498.202 62.7363 462.027 70.1245 433.307C75.5305 412.314 57.8709 405.827 27.8901 409.273C6.4238 411.751 -4.0278 390.577 9.53225 374.584C8.0456 386.996 17.889 398.168 33.8142 396.321C63.8175 392.875 84.8558 402.831 79.4724 423.824C72.0842 452.544 73.7736 485.227 139.862 496.647C147.723 497.999 165.721 499.148 164.887 523.903L182.344 513.136C183.087 515.614 183.718 518.317 184.236 521.245L158.941 536.855Z" fill="#000072"/>
</g>
<path d="M158.941 540.008C158.896 540.008 158.873 540.008 158.828 540.008C157.094 539.941 155.72 538.476 155.787 536.742C156.485 516.357 143.579 514.33 135.042 512.978C134.456 512.888 133.893 512.798 133.375 512.708C103.349 507.527 82.8286 496.715 72.3995 480.61C63.9977 467.613 62.1957 451.417 67.0386 432.519C68.6604 426.212 68.0297 421.504 65.124 418.17C59.9207 412.201 47.1716 410.219 28.2055 412.404C11.8524 414.296 1.85125 404.025 0.432171 392.92C-1.45993 378.121 11.1991 360.123 43.5 355.551C74.0213 351.249 90.8926 362.556 99.6548 372.805C111.571 386.703 115.76 407.223 110.354 425.063C102.47 451.102 113.981 467.635 147.746 478.673C148.624 478.965 149.638 479.236 150.719 479.551C161.508 482.637 181.601 488.358 187.255 520.682C187.547 522.394 186.399 524.038 184.687 524.331C182.975 524.624 181.33 523.475 181.038 521.763C176.06 493.336 159.121 488.493 149.007 485.61C147.813 485.272 146.755 484.957 145.786 484.642C127.969 478.808 115.918 471.42 108.913 462.004C101.186 451.643 99.6548 438.578 104.317 423.171C108.259 410.197 106.84 390.848 94.857 376.86C87.1084 367.805 72.0617 357.848 44.3785 361.745C16.3123 365.71 5.16243 380.238 6.69413 392.041C7.68523 399.835 14.6229 407.539 27.4622 406.052C48.8834 403.597 63.1418 406.232 69.8768 413.936C74.2016 418.891 75.2828 425.649 73.1429 434.006C68.7505 451.125 70.2597 465.631 77.6704 477.096C87.1084 491.67 106.187 501.535 134.411 506.401C134.906 506.491 135.425 506.559 135.988 506.649C144.052 507.933 162.95 510.906 162.072 536.877C162.049 538.679 160.63 540.008 158.941 540.008Z" fill="#000072"/>
<path d="M236.945 591.117C231.066 608.394 214.014 629.658 188.899 625.22C188.899 625.22 145.854 614.949 185.025 558.929" fill="white"/>
<path d="M236.944 591.117C231.065 608.394 214.014 629.635 188.899 625.198C188.899 625.198 156.755 617.539 173.311 579.269C175.902 573.255 179.708 566.498 185.024 558.907L235.323 590.104L236.944 591.117Z" fill="white"/>
<path d="M187.885 609.272C188.291 611.615 188.178 614.093 187.818 616.548C187.615 617.764 187.345 619.003 186.984 620.22C186.646 621.436 186.196 622.652 185.723 623.846L185.7 623.891C185.025 625.558 183.133 626.369 181.466 625.693C179.799 625.017 178.988 623.125 179.664 621.459C179.844 620.985 180.137 620.58 180.497 620.265C181.285 619.544 182.074 618.801 182.795 617.99C183.538 617.179 184.214 616.3 184.867 615.399C186.128 613.575 187.255 611.547 187.885 609.272Z" fill="#000072"/>
<g opacity="0.3">
<path d="M235.323 590.104C226.989 603.641 212.393 615.535 193.021 612.111C193.021 612.111 168.491 606.254 173.312 579.292C175.902 573.278 179.709 566.52 185.025 558.929L235.323 590.104Z" fill="#000072"/>
</g>
<path d="M195.499 628.96C193.178 628.96 190.791 628.757 188.358 628.329L188.178 628.284C187.547 628.126 172.793 624.455 167.342 610.151C162.207 596.636 167.275 578.774 182.434 557.105C183.425 555.663 185.407 555.326 186.826 556.317C188.268 557.308 188.606 559.29 187.615 560.709C173.942 580.261 168.964 596.546 173.221 607.831C177.253 618.553 188.538 621.842 189.574 622.112C214.577 626.437 229.534 603.078 233.971 590.082C234.534 588.437 236.336 587.536 237.981 588.099C239.625 588.662 240.526 590.464 239.963 592.109C233.611 610.737 217.37 628.96 195.499 628.96Z" fill="#000072"/>
<path d="M281.815 604.678C271.724 625.13 246.833 647.655 215.546 635.176C215.546 635.176 162.32 610.399 220.592 549.469" fill="white"/>
<path d="M281.815 604.678C271.724 625.13 246.833 647.655 215.546 635.176C215.546 635.176 162.32 610.399 220.592 549.469" fill="white"/>
<path d="M281.792 604.677C280.238 607.831 278.345 611.007 276.116 614.138C263.907 631.234 242.013 645.74 215.523 635.199C215.523 635.199 191.264 623.914 193.449 597.83C194.485 585.283 201.648 569.291 220.591 549.514L281.792 604.677Z" fill="white"/>
<g opacity="0.3">
<path d="M281.792 604.677C280.238 607.831 278.345 611.007 276.115 614.138C261.519 627.27 241.089 635.064 217.483 625.671C217.483 625.671 199.08 617.089 193.449 597.807C194.485 585.261 201.648 569.268 220.591 549.491L281.792 604.677Z" fill="#000072"/>
</g>
<path d="M233.363 641.889C227.281 641.889 220.907 640.718 214.352 638.105L214.194 638.037C213.406 637.677 194.643 628.712 190.814 608.327C187.435 590.419 196.693 569.877 218.294 547.284C219.51 546.023 221.493 545.978 222.754 547.194C224.015 548.41 224.06 550.392 222.844 551.654C202.752 572.647 194.057 591.298 196.985 607.088C200.071 623.711 215.614 631.708 216.785 632.271C248.455 644.817 271.295 618.801 278.931 603.259C279.697 601.682 281.589 601.051 283.166 601.817C284.743 602.583 285.373 604.475 284.608 606.052C275.215 625.175 256.339 641.889 233.363 641.889Z" fill="#000072"/>
<path d="M211.311 560.303C196.152 577.355 166.171 592.424 139.321 572.084C139.321 572.084 87.7614 594.113 78.1882 552.622C74.1337 535.12 82.941 513.834 113.305 500.049C136.798 489.395 144.299 508.451 174.866 476.285" fill="white"/>
<path d="M111.165 554.289C110.332 556.406 109.25 558.456 108.011 560.438C106.773 562.421 105.354 564.29 103.732 566.07C102.132 567.849 100.263 569.426 98.1906 570.822C96.1408 572.241 93.7757 573.278 91.2979 574.111C89.6311 574.674 87.8291 573.773 87.2659 572.106C86.7028 570.439 87.6038 568.637 89.2707 568.074C89.4959 568.007 89.7212 567.939 89.9464 567.917L90.1041 567.894C92.0412 567.691 94.0685 567.376 96.0056 566.61C97.9428 565.867 99.8799 564.921 101.659 563.682C103.461 562.466 105.173 561.047 106.773 559.47C108.372 557.893 109.858 556.181 111.165 554.289Z" fill="#000072"/>
<path d="M105.151 541.585C103.574 543.455 101.84 545.212 100.06 546.901C98.2582 548.59 96.3661 550.212 94.3163 551.676C92.2665 553.14 90.1041 554.537 87.6714 555.596C85.2387 556.654 82.5132 557.488 79.4273 557.488H79.3372C77.5802 557.465 76.1611 556.046 76.1611 554.289C76.1837 552.532 77.6027 551.113 79.3597 551.113C79.6075 551.113 79.8552 551.158 80.0805 551.203C81.8374 551.631 83.9998 551.541 86.1622 551.113C88.3472 550.708 90.5546 549.897 92.717 548.951C94.8794 548.005 97.0193 546.878 99.0916 545.639C101.164 544.378 103.214 543.049 105.151 541.585Z" fill="#000072"/>
<path d="M167.387 585.013C157.859 585.013 148.128 582.243 138.871 575.665C132.428 578.12 109.363 585.734 92.2439 577.039C83.4817 572.579 77.7153 564.605 75.1024 553.343C71.1154 536.089 78.7289 512.28 111.998 497.188C121.279 492.976 128.419 493.089 134.704 493.179C145.155 493.336 154.188 493.471 172.591 474.123C173.784 472.861 175.789 472.816 177.051 474.01C178.312 475.204 178.357 477.208 177.163 478.47C156.868 499.824 145.561 499.643 134.613 499.486C128.442 499.396 122.608 499.305 114.611 502.932C89.2931 514.42 76.8368 532.733 81.2742 551.901C83.4366 561.249 88.0768 567.804 95.1046 571.385C112.111 580.035 137.834 569.268 138.082 569.156L139.772 568.435L141.236 569.538C168.446 590.171 197.436 571.115 208.946 558.186C210.095 556.879 212.099 556.767 213.406 557.916C214.712 559.064 214.825 561.069 213.676 562.375C202.211 575.282 185.182 585.013 167.387 585.013Z" fill="#000072"/>
<path d="M129.478 538.432C129.591 541.495 129.906 544.558 130.379 547.509C130.852 550.46 131.55 553.321 132.474 556.024C133.42 558.727 134.726 561.182 136.123 563.457C137.564 565.732 139.366 567.601 141.236 569.539L141.461 569.786C142.655 571.048 142.61 573.052 141.349 574.246C140.267 575.282 138.646 575.373 137.452 574.607C134.523 572.692 132.001 570.057 130.266 567.016C128.554 563.975 127.518 560.664 126.955 557.398C126.437 554.109 126.369 550.82 126.617 547.622C126.933 544.423 127.496 541.27 128.577 538.251C128.667 538.004 128.915 537.891 129.163 537.981C129.343 538.049 129.455 538.206 129.455 538.386L129.478 538.432Z" fill="#000072"/>
<path d="M475.191 481.308C454.987 529.016 367.702 520.772 367.702 520.772C367.702 520.772 345.29 581.094 299.857 604.768C297.041 606.232 294.158 607.561 291.162 608.71C260.821 620.49 230.277 618.913 205.477 608.597C171.96 594.676 148.894 564.808 150.899 530.458C152.566 502.121 161.846 489.124 176.037 474.618C183.403 467.095 187.705 461.959 190.205 458.693C192.773 455.314 193.404 453.918 193.404 453.918C193.404 453.918 139.546 412.562 150.313 357.398C152.115 348.23 155.269 341.113 159.076 335.661C167.995 322.935 180.519 319.444 187.502 320.502C220.118 325.435 209.284 398.912 241.652 421.347L371.058 456.778C392.052 460.923 432.034 443.173 446.314 437.069C470.168 426.865 489.788 446.822 475.191 481.308Z" fill="white"/>
<path d="M467.399 474.218C469.906 473.92 471.698 471.646 471.4 469.138C471.102 466.63 468.828 464.839 466.32 465.137C463.813 465.434 462.021 467.709 462.319 470.216C462.617 472.724 464.891 474.516 467.399 474.218Z" fill="#FC7E81"/>
<g opacity="0.3">
<path d="M475.192 481.308C454.987 529.016 367.702 520.772 367.702 520.772C367.702 520.772 345.29 581.094 299.857 604.768C297.042 606.232 294.158 607.561 291.163 608.71C260.821 620.49 230.277 618.914 205.477 608.597C177.929 597.154 157.432 574.922 152.138 548.298C161.418 566.34 178.11 580.982 198.787 589.586C223.587 599.903 257.105 603.709 293.753 589.631C322.855 578.459 348.353 544.739 357.476 524.241C364.752 507.888 364.752 503.766 384.191 506.086C422.934 510.704 463.659 494.778 472.579 462.928C474.966 454.414 476.341 448.197 473.502 440.516C480.958 448.152 483.098 462.59 475.192 481.308Z" fill="#000072"/>
</g>
<g opacity="0.3">
<path d="M195.949 454.459C194.124 455.833 192.187 457.229 190.205 458.693C192.773 455.314 193.404 453.918 193.404 453.918C193.404 453.918 139.546 412.562 150.313 357.398C152.115 348.231 155.269 341.113 159.076 335.662C156.373 348.996 154.3 371.566 164.031 393.573C171.532 410.512 184.709 422.541 195.634 430.154C204.013 435.988 204.126 448.354 195.949 454.459Z" fill="#000072"/>
</g>
<path d="M298.82 562.967C316.618 536.948 312.342 503.061 289.269 487.278C266.197 471.496 233.065 479.795 215.266 505.814C197.468 531.834 201.744 565.721 224.817 581.503C247.889 597.286 281.021 588.987 298.82 562.967Z" fill="#FFB3BC"/>
<path d="M188.414 377.108C193.735 371.786 193.735 363.157 188.414 357.836C183.092 352.514 174.463 352.514 169.141 357.836C163.82 363.157 163.82 371.786 169.141 377.108C174.463 382.43 183.092 382.43 188.414 377.108Z" fill="#FC7E81"/>
<path d="M175.586 348.478C178.821 348.478 181.443 345.856 181.443 342.622C181.443 339.387 178.821 336.765 175.586 336.765C172.352 336.765 169.73 339.387 169.73 342.622C169.73 345.856 172.352 348.478 175.586 348.478Z" fill="#FC7E81"/>
<path d="M192.889 351.975C195.877 350.738 197.296 347.312 196.058 344.323C194.82 341.335 191.394 339.916 188.406 341.154C185.418 342.392 183.999 345.818 185.236 348.806C186.474 351.794 189.9 353.213 192.889 351.975Z" fill="#FC7E81"/>
<path d="M165.172 355.517C167.551 354.531 168.681 351.804 167.695 349.425C166.71 347.045 163.982 345.916 161.603 346.901C159.224 347.887 158.094 350.614 159.08 352.993C160.065 355.373 162.793 356.502 165.172 355.517Z" fill="#FC7E81"/>
<path d="M449.219 484.247C456.368 481.893 460.254 474.19 457.9 467.041C455.546 459.893 447.843 456.006 440.694 458.36C433.545 460.715 429.659 468.418 432.013 475.567C434.367 482.715 442.071 486.602 449.219 484.247Z" fill="#FC7E81"/>
<path d="M464.724 461.34C467.955 461.196 470.458 458.46 470.314 455.229C470.17 451.997 467.434 449.495 464.203 449.638C460.972 449.782 458.469 452.518 458.613 455.75C458.757 458.981 461.493 461.484 464.724 461.34Z" fill="#FC7E81"/>
<path d="M452.092 453.365C454.897 451.754 455.865 448.175 454.255 445.37C452.644 442.565 449.065 441.597 446.26 443.207C443.455 444.818 442.487 448.397 444.097 451.202C445.708 454.007 449.287 454.975 452.092 453.365Z" fill="#FC7E81"/>
<path d="M163.198 572.85C170.383 581.116 178.132 588.414 186.872 594.496C191.242 597.537 195.814 600.24 200.567 602.628C205.32 604.993 210.275 607.02 215.343 608.687C235.661 615.332 257.983 615.309 278.593 609.543C281.184 608.822 283.729 608.034 286.252 607.133C287.513 606.705 288.775 606.209 290.036 605.736L293.685 604.182C298.528 601.997 303.168 599.407 307.606 596.433C316.413 590.397 324.387 583.098 331.415 574.922C338.487 566.79 344.772 557.916 350.313 548.613C353.106 543.973 355.697 539.197 358.129 534.354C360.539 529.534 362.837 524.533 364.752 519.623C365.27 518.272 366.621 517.483 368.018 517.573C373.446 518.024 379.123 518.136 384.709 518.091C390.295 518.024 395.904 517.753 401.467 517.235C412.572 516.222 423.632 514.285 434.106 510.816C439.332 509.081 444.423 506.964 449.175 504.329C453.928 501.693 458.388 498.562 462.172 494.778C465.979 491.016 469.11 486.669 471.408 481.894L472.286 480.114L473.052 478.222C473.592 476.961 473.998 475.677 474.448 474.393C475.259 471.825 476.003 469.212 476.431 466.577C477.354 461.351 477.422 455.967 476.025 451.125C474.674 446.282 471.745 442.047 467.533 439.772C465.461 438.623 463.118 437.88 460.686 437.632C458.253 437.384 455.708 437.587 453.23 438.128C451.991 438.398 450.752 438.781 449.536 439.186L447.711 439.885L445.774 440.718L437.913 444.052C432.642 446.259 427.326 448.376 421.943 450.336C419.262 451.35 416.559 452.318 413.834 453.242C411.108 454.188 408.383 455.111 405.612 455.945C400.071 457.612 394.395 458.918 388.538 459.526C387.074 459.684 385.61 459.797 384.123 459.797C383.38 459.797 382.636 459.842 381.893 459.797C381.15 459.752 380.406 459.729 379.663 459.684C376.69 459.459 373.694 458.918 370.923 457.724C370.383 457.499 370.113 456.868 370.36 456.305C370.518 455.9 370.901 455.652 371.306 455.652H371.329C376.893 455.472 382.231 454.526 387.614 453.422C392.998 452.318 398.359 450.922 403.742 449.458C409.126 448.016 414.464 446.282 419.758 444.39C425.029 442.452 430.254 440.358 435.48 438.195L443.296 434.884L445.256 434.051L447.418 433.217C448.883 432.722 450.369 432.271 451.901 431.933C454.964 431.257 458.163 431.01 461.361 431.325C464.56 431.64 467.781 432.632 470.642 434.231C473.502 435.83 476.07 438.06 477.962 440.718C479.877 443.353 481.251 446.327 482.107 449.368C483.841 455.472 483.706 461.756 482.67 467.658C482.174 470.631 481.364 473.514 480.485 476.353C479.99 477.749 479.539 479.168 478.976 480.52L478.142 482.569L477.151 484.619C474.561 490.093 470.934 495.048 466.655 499.283C462.375 503.518 457.465 506.987 452.284 509.847C447.103 512.708 441.674 514.96 436.133 516.807C425.029 520.479 413.563 522.461 402.076 523.52C396.332 524.038 390.565 524.331 384.821 524.398C379.032 524.443 373.356 524.331 367.477 523.858L370.743 521.808C368.671 527.146 366.351 532.147 363.851 537.17C361.35 542.171 358.692 547.059 355.809 551.856C350.088 561.429 343.601 570.597 336.235 579.067C328.914 587.558 320.535 595.24 311.187 601.659C306.479 604.813 301.501 607.606 296.298 609.948L292.356 611.615C291.027 612.111 289.721 612.629 288.392 613.079C285.734 614.025 283.031 614.859 280.328 615.625C269.448 618.643 258.163 620.197 246.856 620.085C241.202 620.062 235.548 619.544 229.962 618.711C224.376 617.855 218.835 616.616 213.406 614.949C208 613.282 202.684 611.255 197.594 608.709C192.503 606.187 187.615 603.236 183.087 599.812C174.01 593.009 166.126 584.292 161.486 573.976C161.238 573.435 161.486 572.805 162.027 572.579C162.387 572.377 162.883 572.489 163.198 572.85Z" fill="#000072"/>
<path d="M241.044 422.203C238.183 420.919 235.435 419.184 233.138 416.977C232.575 416.436 231.944 415.918 231.403 415.332L229.849 413.53C228.768 412.359 227.912 411.03 226.988 409.746C223.497 404.475 221.019 398.731 219.037 392.92C215.208 381.252 212.798 369.426 209.757 357.961C208.248 352.24 206.626 346.564 204.441 341.27C203.382 338.59 202.098 336.089 200.679 333.702C199.215 331.359 197.503 329.287 195.589 327.575C193.629 325.886 191.376 324.759 188.944 324.061L187.097 323.633C186.489 323.566 185.903 323.521 185.295 323.475C184.664 323.498 184.033 323.498 183.403 323.543L181.465 323.813C178.875 324.309 176.33 325.255 173.92 326.471L172.14 327.462C171.554 327.778 171.014 328.228 170.451 328.589C169.302 329.309 168.288 330.255 167.23 331.134C163.108 334.783 159.977 339.491 157.611 344.604C157.093 345.91 156.463 347.172 156.012 348.523L154.706 352.578C154.03 355.348 153.309 358.119 152.926 360.98C151.169 372.332 152.183 384.045 155.607 395.06C159.008 406.12 164.594 416.504 171.442 425.964C174.866 430.694 178.605 435.222 182.614 439.502C184.619 441.642 186.669 443.714 188.809 445.719C190.926 447.701 193.156 449.706 195.318 451.417L197.323 452.994L196.287 455.202C196.084 455.63 195.994 455.765 195.859 456.013L195.498 456.621C195.251 457.004 195.025 457.387 194.778 457.724C194.305 458.445 193.809 459.144 193.291 459.797C192.3 461.148 191.264 462.432 190.205 463.716C188.11 466.239 185.948 468.694 183.74 471.059C181.556 473.424 179.235 475.789 177.051 478.065C174.866 480.34 172.726 482.637 170.744 485.025C168.761 487.412 166.892 489.868 165.27 492.458C163.671 495.071 162.297 497.774 160.99 500.522C158.31 505.996 156.44 511.739 153.377 517.641V517.663C153.106 518.204 152.431 518.407 151.89 518.137C151.552 517.956 151.349 517.641 151.304 517.281C150.516 510.546 152.093 503.856 154.841 497.684C157.656 491.534 161.734 486.083 165.923 480.993C168.041 478.447 170.27 476.037 172.523 473.695C174.798 471.352 176.96 469.122 179.123 466.78C181.263 464.459 183.358 462.094 185.362 459.684C186.353 458.49 187.322 457.274 188.223 456.035C188.673 455.427 189.124 454.796 189.529 454.188C189.732 453.873 189.935 453.58 190.115 453.287L190.52 452.611L191.489 456.395C188.966 454.391 186.736 452.386 184.484 450.291C182.254 448.196 180.091 446.011 178.019 443.781C173.829 439.322 169.933 434.591 166.329 429.636C159.166 419.725 153.197 408.755 149.57 396.884C145.898 385.059 144.772 372.31 146.687 359.988C147.092 356.903 147.881 353.862 148.624 350.821L150.088 346.338C150.606 344.852 151.282 343.41 151.89 341.946C154.548 336.202 158.152 330.729 163.017 326.426C164.256 325.39 165.45 324.286 166.847 323.408C167.522 322.957 168.176 322.462 168.874 322.056L171.014 320.863C173.942 319.376 177.051 318.205 180.339 317.596L182.862 317.259C183.718 317.191 184.596 317.191 185.452 317.168C186.331 317.214 187.232 317.281 188.11 317.394L190.633 317.957C193.967 318.88 197.143 320.525 199.733 322.755C202.279 325.007 204.396 327.62 206.085 330.368C207.73 333.139 209.171 335.977 210.32 338.86C212.685 344.626 214.374 350.505 215.906 356.339C218.947 368.007 221.492 379.698 225.479 390.668C227.461 396.141 229.579 401.525 232.349 406.48C235.075 411.481 238.273 416.031 242.238 420.446L242.26 420.491C242.666 420.941 242.621 421.617 242.17 422C241.877 422.315 241.427 422.36 241.044 422.203Z" fill="#000072"/>
<path d="M457.194 410.062C457.262 419.387 460.37 429.028 459.559 431.911C457.87 437.7 445.842 428.397 445.842 428.397C445.842 428.397 444.738 430.109 446.472 435.875C447.756 440.155 448.995 443.331 447.801 445.313C446.562 447.408 442.62 447.205 438.228 445.922C435.165 445.021 432.417 444.975 428.295 448.129C427.484 448.737 426.628 449.48 425.727 450.359H425.704C413.225 460.608 398.674 469.505 380.542 474.506C363.715 479.146 291.027 491.354 238.139 433.6C231.404 426.257 225.615 418.103 221.718 408.688C220.479 408.079 219.172 407.877 217.753 407.787C213.181 407.516 209.419 406.413 208.946 404.003C208.496 401.75 210.5 398.867 212.978 395.128C214.983 392.109 215.906 390.172 216.267 389.271C216.357 389.046 216.199 388.821 215.996 388.888C213.496 389.654 202.076 392.83 202.369 387.447C202.549 384.451 208.721 376.432 211.919 367.67C217.123 353.366 221.02 343.343 223.43 337.306C223.475 337.148 223.565 336.991 223.632 336.81C223.7 336.653 223.768 336.495 223.813 336.337C223.88 336.18 223.948 336.022 223.993 335.887C224.714 334.13 225.479 332.396 226.268 330.684C229.984 322.755 234.692 315.074 240.504 306.447C236.246 294.891 218.654 243.782 235.638 228.443C245.324 219.658 296.343 249.211 307.493 255.856C321.616 251.801 337.068 250.495 353.624 252.589C356.958 253.017 360.224 253.558 363.377 254.234C363.468 254.234 363.535 254.256 363.625 254.279C370.811 255.788 377.298 258.266 383.425 261.217C386.375 262.613 389.236 264.145 392.052 265.699C393.065 266.262 394.079 266.848 395.093 267.411C399.192 269.753 403.021 272.321 406.58 275.047C419.375 272.907 479.111 263.469 484.967 275.159C495.194 295.567 460.55 336.63 452.261 346.023C453.252 349.74 454.063 353.366 454.716 356.993C455.392 360.754 455.888 364.516 456.158 368.345C456.203 368.954 456.248 369.539 456.271 370.147C456.271 370.147 456.271 370.215 456.271 370.373C456.338 371.612 456.654 377.603 456.924 388.663C457.014 394.384 457.127 401.502 457.194 410.062Z" fill="white"/>
<path d="M452.779 348.028C452.599 347.352 452.419 346.654 452.239 345.955C456.496 341.112 467.759 327.89 476.273 313.407C469.606 326.787 459.357 340.099 452.779 348.028Z" fill="white"/>
<path d="M454.694 356.925C455.369 360.687 455.865 364.449 456.135 368.278C413.405 364.922 379.753 329.174 379.753 285.566C379.753 277.074 381.037 268.875 383.402 261.149C386.353 262.545 389.213 264.077 392.029 265.631C393.043 266.195 394.056 266.78 395.07 267.343C399.169 269.686 402.999 272.254 406.558 274.979C419.352 272.839 479.088 263.401 484.945 275.092C495.171 295.5 460.528 336.563 452.238 345.956C453.229 349.672 454.04 353.299 454.694 356.925Z" fill="#FFA124"/>
<g opacity="0.3">
<path d="M446.45 435.875C447.734 440.155 448.972 443.331 447.801 445.313C446.54 447.408 442.62 447.205 438.228 445.944C435.142 445.043 432.417 444.998 428.294 448.151C427.484 448.76 426.628 449.503 425.704 450.359H425.682C413.203 460.608 398.652 469.505 380.519 474.506C363.693 479.146 291.005 491.332 238.116 433.6C231.381 426.257 225.592 418.103 221.695 408.665C220.434 408.057 219.15 407.854 217.731 407.764C213.158 407.494 209.397 406.367 208.923 403.98C208.473 401.727 210.478 398.844 212.955 395.105C213.316 394.564 213.631 394.046 213.924 393.573C215.501 394.204 217.618 394.564 219.961 394.699C221.38 394.79 222.686 395.015 223.925 395.6C227.822 405.038 233.611 413.17 240.346 420.536C293.235 478.267 365.945 466.059 382.749 461.441C400.882 456.441 415.433 447.543 427.912 437.294H427.934C428.858 436.416 429.691 435.672 430.524 435.064C434.647 431.911 437.372 431.956 440.458 432.857C442.44 433.442 444.332 433.803 445.909 433.825C446.044 434.434 446.224 435.109 446.45 435.875Z" fill="#000072"/>
</g>
<path d="M246.45 245.899C246.45 245.899 244.063 244.728 243.522 250.675C242.599 260.878 244.018 286.895 254.717 297.459C254.717 297.459 275.102 273.492 280.148 271.037C285.193 268.559 275.44 264.144 272.985 260.113C270.507 256.058 248.455 245.201 246.45 245.899Z" fill="#EBA7A4"/>
<path d="M280.148 271.038C277.219 272.479 269.065 281.196 262.781 288.247C258.276 293.292 254.717 297.482 254.717 297.482C244.04 286.895 242.598 260.901 243.544 250.697C244.085 244.751 246.473 245.922 246.473 245.922C247.351 245.607 252.149 247.566 257.442 250.179C264.132 253.491 271.611 257.86 272.985 260.135C275.44 264.145 285.171 268.56 280.148 271.038Z" fill="#FA508E"/>
<path d="M256.992 293.382C260.754 288.089 264.943 283.088 269.516 278.426C270.665 277.254 271.836 276.128 273.03 275.002C273.638 274.439 274.246 273.898 274.854 273.358L275.778 272.547C275.958 272.389 276.025 272.321 276.138 272.209C276.228 272.119 276.341 272.029 276.431 271.916C277.895 270.339 278.03 267.839 276.949 266.15C276.679 265.744 276.386 265.339 275.98 265.023L275.845 264.888L275.62 264.708L275.17 264.348L274.269 263.627C273.075 262.658 271.791 261.78 270.529 260.879C267.984 259.122 265.349 257.477 262.646 255.946C259.943 254.414 257.172 252.972 254.356 251.621C251.563 250.292 248.635 249.008 245.864 247.927L250.189 245.809C249.896 246.756 249.581 247.949 249.333 249.053C249.086 250.179 248.838 251.328 248.658 252.499C248.275 254.819 247.937 257.162 247.779 259.505C247.374 264.212 247.441 268.943 247.914 273.65C248.432 278.313 249.333 283.066 250.662 287.616C251 288.765 251.361 289.891 251.744 290.995C251.924 291.513 252.172 292.166 252.352 292.594C252.464 292.932 252.667 293.202 252.892 293.472C253.816 294.486 255.843 294.666 256.992 293.382ZM259.334 295.184C258.861 295.837 258.276 296.423 257.555 296.874C256.834 297.324 256.023 297.617 255.19 297.73C253.523 297.977 251.721 297.527 250.324 296.423C249.649 295.883 249.018 295.207 248.613 294.418C248.23 293.743 248.004 293.247 247.712 292.639C247.148 291.49 246.653 290.296 246.18 289.125C244.333 284.372 242.959 279.484 242.125 274.394C241.292 269.326 241.022 264.19 241.292 259.077C241.405 256.509 241.652 253.963 242.058 251.418C242.261 250.157 242.486 248.873 242.756 247.611C243.026 246.328 243.319 245.134 243.747 243.715C244.265 241.98 246.09 240.989 247.824 241.507L248.004 241.575L248.072 241.597C251.293 242.791 254.221 244.12 257.195 245.584C260.145 247.048 263.051 248.603 265.844 250.337C268.637 252.071 271.408 253.896 274.043 255.901C275.35 256.937 276.679 257.928 277.918 259.032L278.864 259.843L279.337 260.248L279.562 260.451L279.855 260.721C280.666 261.464 281.319 262.388 281.837 263.356C283.977 267.253 283.166 272.389 280.035 275.385C279.855 275.587 279.652 275.745 279.449 275.925C279.247 276.106 279.021 276.286 278.886 276.376L277.963 277.097L276.116 278.561C274.899 279.552 273.705 280.566 272.512 281.602C267.849 285.791 263.457 290.364 259.334 295.184Z" fill="#000072"/>
<path d="M428.317 298.811C430.525 301.221 434.962 312.303 438.273 321.133C440.638 327.463 442.44 332.666 442.44 332.666C456.226 326.674 466.97 302.955 469.808 293.089C471.452 287.345 468.817 287.593 468.817 287.593C468.096 286.985 462.938 287.053 457.036 287.593C449.603 288.246 441.044 289.621 438.949 291.242C435.187 294.08 424.51 294.689 428.317 298.811Z" fill="#FA508E"/>
<path d="M438.476 327.372C436.381 321.538 433.926 315.817 431.02 310.388C430.299 309.037 429.556 307.685 428.768 306.356L427.574 304.397C427.394 304.126 427.123 303.586 426.876 303.158C426.673 302.685 426.448 302.212 426.312 301.694C425.074 297.662 426.673 292.886 430.299 290.431C430.75 290.138 431.2 289.846 431.696 289.62L432.439 289.305C432.687 289.192 432.845 289.147 433.047 289.08L435.345 288.246C436.877 287.728 438.431 287.233 440.008 286.805C443.116 285.904 446.292 285.25 449.468 284.665C452.644 284.079 455.843 283.674 459.064 283.403C462.307 283.133 465.438 282.93 468.817 282.998H468.885C470.597 283.02 471.993 284.395 472.083 286.084C472.128 286.962 472.106 287.571 472.106 288.291C472.083 288.967 472.038 289.643 471.971 290.319C471.926 290.994 471.858 291.648 471.745 292.301C471.678 292.954 471.565 293.607 471.452 294.26C471.25 295.567 470.934 296.851 470.664 298.135C470.281 299.396 469.988 300.68 469.538 301.896C467.894 306.852 465.618 311.582 462.78 315.884C459.987 320.232 456.654 324.196 453.05 327.71L450.369 330.413C450.189 330.616 449.806 330.931 449.468 331.201C449.108 331.449 448.747 331.697 448.364 331.877C447.576 332.26 446.72 332.485 445.887 332.575C444.175 332.711 442.485 332.26 441.134 331.292C439.782 330.346 438.859 328.881 438.476 327.372ZM441.314 326.494C442.012 328.183 443.882 329.017 445.391 328.656C445.751 328.544 446.112 328.408 446.405 328.206C446.562 328.116 446.697 327.98 446.833 327.868C446.968 327.71 447.058 327.643 447.283 327.372L449.558 324.557C452.734 320.885 455.46 316.988 457.825 312.889C460.145 308.767 462.06 304.442 463.389 299.982C464.042 297.752 464.56 295.477 464.92 293.202C465.01 292.639 465.1 292.076 465.145 291.49C465.213 290.927 465.281 290.364 465.303 289.801C465.348 289.237 465.371 288.674 465.393 288.111C465.393 287.593 465.393 286.962 465.371 286.602L468.637 289.688C465.731 289.688 462.6 289.801 459.582 290.026C456.541 290.251 453.5 290.589 450.482 291.017C447.463 291.467 444.468 291.985 441.517 292.684C440.03 293.022 438.566 293.405 437.124 293.81L434.962 294.463C434.804 294.508 434.557 294.576 434.466 294.621L434.129 294.756C433.903 294.846 433.678 294.959 433.475 295.094C431.763 296.062 430.772 298.315 431.268 300.342C431.313 300.59 431.426 300.838 431.493 301.086C431.628 301.333 431.673 301.514 431.899 301.919C432.282 302.617 432.642 303.338 433.002 304.059C433.723 305.5 434.399 306.942 435.052 308.406C437.642 314.263 439.737 320.299 441.382 326.426L441.314 326.494Z" fill="#000072"/>
<g opacity="0.35">
<path d="M298.46 376.522C298.933 375.688 299.429 374.877 299.97 374.066C299.654 374.99 299.136 375.823 298.46 376.522Z" fill="white"/>
</g>
<g opacity="0.35">
<path d="M366.216 384.023C366.103 383.707 365.99 383.392 365.923 383.077C366.035 383.392 366.126 383.707 366.216 384.023Z" fill="white"/>
</g>
<path d="M414.014 195.736C416.852 198.754 418.564 204.363 418.789 211.143C418.902 214.635 418.609 218.464 417.865 222.383C415.117 237.047 407.144 247.859 400.071 246.53C398.426 246.215 396.985 245.291 395.768 243.849C395.633 243.692 395.521 243.557 395.408 243.399C395.408 243.399 395.408 243.376 395.386 243.376C395.273 243.241 395.183 243.106 395.093 242.948C395.048 242.881 395.003 242.813 394.958 242.768C394.89 242.678 394.822 242.566 394.755 242.453C394.62 242.228 394.485 242.002 394.349 241.755C394.259 241.597 394.169 241.417 394.079 241.237C393.989 241.079 393.921 240.921 393.831 240.741C393.539 240.133 393.268 239.48 393.043 238.781C392.975 238.624 392.93 238.443 392.863 238.286C392.818 238.128 392.75 237.948 392.705 237.79C392.638 237.61 392.592 237.407 392.547 237.205C392.547 237.182 392.525 237.182 392.525 237.16C392.457 236.912 392.39 236.664 392.322 236.416C392.277 236.191 392.21 235.988 392.164 235.763C392.097 235.47 392.029 235.177 391.984 234.884C391.038 229.974 391.061 223.937 392.255 217.585C392.525 216.189 392.84 214.837 393.178 213.508C391.827 213.643 390.43 213.733 389.011 213.779C374.099 214.184 361.846 208.688 361.666 201.48C361.463 194.272 373.401 188.123 388.313 187.717C394.237 187.559 399.733 188.325 404.238 189.767C407.459 190.803 410.162 192.177 412.144 193.799C412.257 193.889 412.347 193.979 412.459 194.069C412.572 194.159 412.662 194.249 412.752 194.339C412.82 194.407 412.91 194.475 412.978 194.542C413.09 194.655 413.225 194.767 413.315 194.903C413.451 195.038 413.586 195.195 413.721 195.353C413.788 195.466 413.901 195.601 414.014 195.736Z" fill="#F75727"/>
<g opacity="0.35">
<path d="M414.847 196.772C413.09 195.601 410.905 194.61 408.405 193.821C403.923 192.38 398.404 191.614 392.48 191.772C377.568 192.177 365.63 198.349 365.833 205.534C365.855 206.728 366.238 207.877 366.869 208.958C363.625 206.908 361.688 204.341 361.621 201.502C361.418 194.294 373.356 188.145 388.268 187.74C394.192 187.582 399.688 188.348 404.193 189.789C407.414 190.826 410.117 192.2 412.099 193.821C412.212 193.911 412.302 194.002 412.415 194.092C412.527 194.182 412.617 194.272 412.707 194.362C412.775 194.43 412.865 194.497 412.933 194.565C413.045 194.677 413.18 194.79 413.27 194.925C413.406 195.06 413.541 195.218 413.676 195.376C413.789 195.511 413.901 195.646 413.991 195.781C414.307 196.051 414.577 196.389 414.847 196.772Z" fill="white"/>
</g>
<g opacity="0.3">
<path d="M414.014 195.736C416.852 198.755 418.564 204.363 418.789 211.143C418.902 214.635 418.609 218.464 417.866 222.383C415.118 237.047 407.144 247.859 400.071 246.53C398.427 246.215 396.985 245.291 395.769 243.85C395.633 243.692 395.521 243.557 395.408 243.399C395.408 243.399 395.408 243.377 395.386 243.377C395.273 243.241 395.183 243.106 395.093 242.949C395.048 242.881 395.003 242.814 394.958 242.768C394.89 242.678 394.823 242.566 394.755 242.453C394.62 242.228 394.485 242.003 394.35 241.755C394.259 241.597 394.169 241.417 394.079 241.259C393.989 241.102 393.899 240.921 393.831 240.741C393.539 240.133 393.268 239.48 393.043 238.782C392.976 238.624 392.93 238.444 392.863 238.286C392.818 238.128 392.75 237.948 392.705 237.79C392.638 237.61 392.593 237.408 392.548 237.205C392.548 237.182 392.525 237.182 392.525 237.16C392.457 236.912 392.39 236.664 392.322 236.416C392.277 236.191 392.21 235.988 392.165 235.763C392.097 235.47 392.029 235.178 391.984 234.885C392.66 235.29 393.381 235.56 394.124 235.696C401.197 237.025 409.171 226.213 411.919 211.549V211.526C412.167 210.197 411.469 208.868 410.252 208.283C408.292 207.359 406.873 206.413 406.108 205.49C404.215 203.282 403.54 197.561 404.215 189.745C407.437 190.781 410.14 192.155 412.122 193.777C412.234 193.867 412.324 193.957 412.437 194.047C412.55 194.137 412.64 194.227 412.73 194.317C412.797 194.385 412.888 194.452 412.955 194.52C413.068 194.633 413.203 194.745 413.293 194.88C413.428 195.015 413.563 195.173 413.699 195.331C413.789 195.466 413.901 195.601 414.014 195.736Z" fill="#000072"/>
</g>
<path d="M401.264 249.458C400.679 249.458 400.116 249.413 399.53 249.301C394.98 248.445 391.511 244.368 389.732 237.79C388.155 231.911 388.042 224.568 389.461 217.067C389.484 216.91 389.529 216.752 389.551 216.572C389.394 216.572 389.214 216.572 389.056 216.594C381.442 216.797 374.189 215.558 368.626 213.058C362.409 210.265 358.94 206.188 358.805 201.57C358.67 196.953 361.936 192.673 367.972 189.564C373.378 186.771 380.541 185.127 388.177 184.924C400.611 184.586 411.536 188.1 416.108 193.934C421.131 199.385 422.888 210.738 420.591 222.946C419.172 230.447 416.424 237.272 412.82 242.16C409.306 246.913 405.274 249.458 401.264 249.458ZM396.94 210.287L395.881 214.229C395.543 215.491 395.25 216.797 395.002 218.104C393.741 224.793 393.809 231.258 395.183 236.326C396.354 240.629 398.314 243.354 400.589 243.782C402.841 244.21 405.679 242.385 408.315 238.804C411.423 234.569 413.833 228.578 415.095 221.888C417.347 209.927 415.05 200.962 411.964 197.673L411.784 197.448C409.036 193.889 400.521 190.195 388.38 190.533C381.578 190.713 375.271 192.155 370.608 194.565C366.643 196.615 364.414 199.115 364.481 201.413C364.549 203.71 366.914 206.098 370.991 207.922C375.789 210.062 382.163 211.143 388.966 210.963C390.272 210.918 391.624 210.85 392.93 210.715L396.94 210.287Z" fill="#000072"/>
<path d="M403.382 238.444C404.891 235.313 406.355 232.159 407.572 228.916C408.855 225.695 409.914 222.406 410.86 219.095C411.829 215.784 412.595 212.427 413.225 209.049C413.856 205.692 414.352 202.224 414.532 198.935V198.867C414.577 197.944 415.388 197.223 416.311 197.268C417.235 197.313 417.956 198.124 417.91 199.048C417.91 199.093 417.91 199.138 417.888 199.183C417.392 202.809 416.604 206.188 415.681 209.589C414.757 212.991 413.698 216.324 412.437 219.59C411.198 222.857 409.846 226.1 408.315 229.231C406.851 232.43 405.139 235.471 403.382 238.444Z" fill="#000072"/>
<path d="M397.683 231.776L400.093 227.542C400.859 226.1 401.648 224.703 402.368 223.239C403.855 220.356 405.206 217.405 406.49 214.455C407.752 211.481 408.923 208.463 409.937 205.422C410.928 202.404 411.874 199.25 412.437 196.254L412.46 196.187C412.64 195.263 413.518 194.655 414.442 194.835C415.365 195.016 415.973 195.894 415.793 196.818C415.793 196.863 415.771 196.908 415.748 196.953C414.802 200.286 413.608 203.282 412.302 206.346C410.995 209.364 409.554 212.315 408.022 215.198C406.468 218.081 404.846 220.919 403.112 223.69C402.278 225.086 401.332 226.438 400.454 227.789L397.683 231.776Z" fill="#000072"/>
<path d="M396.242 219.838C399.846 215.243 402.932 210.332 405.837 205.309C407.279 202.786 408.675 200.241 410.004 197.673C411.333 195.105 412.64 192.493 413.856 189.902V189.88C414.262 189.024 415.253 188.663 416.109 189.069C416.965 189.474 417.325 190.465 416.92 191.321C416.897 191.366 416.875 191.411 416.852 191.456C415.343 194.002 413.789 196.479 412.189 198.935C410.59 201.39 408.946 203.823 407.256 206.21C403.878 210.986 400.274 215.626 396.242 219.838Z" fill="#000072"/>
<path d="M370.518 199.926C373.762 198.665 377.028 197.448 380.361 196.457C383.695 195.421 387.096 194.61 390.52 193.912C393.944 193.191 397.413 192.673 400.904 192.29C404.418 191.93 407.887 191.682 411.536 191.749C412.46 191.772 413.203 192.538 413.203 193.484C413.18 194.407 412.415 195.151 411.468 195.151C411.423 195.151 411.378 195.151 411.333 195.151H411.266C407.977 194.813 404.486 194.768 401.084 194.858C397.661 194.948 394.214 195.173 390.791 195.601C387.367 196.029 383.943 196.547 380.564 197.313C377.185 197.966 373.852 198.912 370.518 199.926Z" fill="#000072"/>
<path d="M376.217 206.593L380.632 204.498C382.118 203.845 383.605 203.147 385.114 202.539C388.11 201.255 391.173 200.106 394.259 199.025C397.368 197.966 400.499 196.998 403.675 196.187C406.896 195.376 410.049 194.677 413.473 194.272C414.397 194.159 415.253 194.835 415.343 195.759C415.455 196.682 414.78 197.538 413.856 197.628C413.811 197.628 413.766 197.628 413.721 197.628H413.631C410.59 197.718 407.324 198.146 404.17 198.642C400.994 199.16 397.841 199.836 394.71 200.624C391.579 201.412 388.448 202.291 385.385 203.305C383.83 203.778 382.321 204.341 380.767 204.881L376.217 206.593Z" fill="#000072"/>
<path d="M387.772 209.905C392.57 206.593 397.728 203.778 402.976 201.165C405.612 199.881 408.247 198.62 410.928 197.426C413.608 196.232 416.289 195.083 419.059 194.002C419.938 193.664 420.906 194.092 421.244 194.948C421.582 195.826 421.154 196.795 420.298 197.133C420.253 197.155 420.208 197.178 420.14 197.178H420.118C417.37 197.966 414.577 198.845 411.851 199.768C409.103 200.692 406.378 201.66 403.652 202.697C398.224 204.791 392.863 207.066 387.772 209.905Z" fill="#000072"/>
<path d="M451.968 100.298L423.362 155.574C423.362 155.574 415.658 157.016 410.004 154.493C406.017 152.713 403.044 148.952 404.531 141.293C408.135 122.823 403.202 118.701 403.157 107.055C403.134 95.4098 414.442 94.5989 426.245 95.0269C431.178 95.2071 436.471 96.1531 440.954 97.1893C447.238 98.6534 451.968 100.298 451.968 100.298Z" fill="#F75727"/>
<g opacity="0.35">
<path d="M451.968 100.298L451.766 100.703C450.775 100.455 449.716 100.185 448.635 99.9373C443.927 98.8561 438.363 97.8425 433.205 97.6623C420.839 97.2118 408.968 98.0902 408.991 110.276C409.013 122.485 414.194 126.81 410.432 146.181C409.712 149.875 409.982 152.691 410.883 154.853C410.59 154.741 410.297 154.628 410.004 154.493C406.017 152.713 403.044 148.952 404.531 141.293C408.135 122.823 403.202 118.701 403.157 107.055C403.134 95.4098 414.442 94.5989 426.245 95.0269C431.178 95.2071 436.471 96.1531 440.954 97.1893C447.238 98.6534 451.968 100.298 451.968 100.298Z" fill="white"/>
</g>
<path d="M418.316 158.795C414.104 158.795 408.45 158.007 404.823 154.335C401.647 151.137 400.634 146.587 401.76 140.753C403.967 129.468 402.864 124.039 401.715 118.273C401.039 114.962 400.363 111.538 400.341 107.055C400.341 102.843 401.625 99.4418 404.17 96.9866C409.306 92.0311 418.293 91.9185 426.335 92.1888C438.431 92.6168 452.306 97.3921 452.892 97.5948L455.955 98.6535L425.231 158.097L423.879 158.345C423.654 158.39 421.379 158.795 418.316 158.795ZM422.235 97.775C416.446 97.775 410.837 98.3832 408.089 101.064C406.67 102.438 405.972 104.42 405.972 107.078C405.972 110.997 406.58 113.993 407.233 117.192C408.45 123.228 409.711 129.49 407.301 141.856C406.558 145.731 407.053 148.591 408.833 150.371C411.829 153.389 418.136 153.389 421.537 153.006L447.936 101.987C443.251 100.591 434.106 98.1579 426.154 97.8651C424.848 97.82 423.542 97.775 422.235 97.775Z" fill="#000072"/>
<path d="M408.63 105.884C411.536 105.613 414.487 105.636 417.415 105.794C420.366 105.951 423.294 106.289 426.222 106.807C429.151 107.325 432.056 108.001 434.917 108.902C437.8 109.758 440.571 110.907 443.341 112.146C444.49 112.664 444.986 113.993 444.49 115.119C443.972 116.268 442.643 116.763 441.517 116.268C441.427 116.223 441.359 116.178 441.269 116.133L441.179 116.088C438.791 114.624 436.336 113.204 433.723 112.056C431.133 110.862 428.452 109.848 425.704 108.992C422.956 108.114 420.163 107.438 417.302 106.897C414.442 106.379 411.536 105.996 408.63 105.884Z" fill="#000072"/>
<path d="M410.478 118.07C412.685 117.822 414.937 117.754 417.19 117.754C419.442 117.777 421.695 117.89 423.947 118.115C426.2 118.34 428.452 118.655 430.682 119.083C432.935 119.489 435.142 120.074 437.372 120.705C438.566 121.043 439.287 122.282 438.949 123.498C438.611 124.692 437.372 125.413 436.156 125.075C436.043 125.053 435.931 125.007 435.818 124.94L435.751 124.917C433.813 123.994 431.831 123.093 429.781 122.349C427.754 121.561 425.659 120.908 423.542 120.322C421.425 119.737 419.262 119.264 417.1 118.881C414.915 118.498 412.708 118.205 410.478 118.07Z" fill="#000072"/>
<path d="M412.189 128.161C415.613 127.711 419.105 127.62 422.596 127.711C426.087 127.823 429.601 128.184 433.093 128.792C434.331 128.995 435.165 130.166 434.94 131.405C434.737 132.644 433.566 133.477 432.327 133.252C432.169 133.229 431.989 133.184 431.854 133.117C428.768 131.855 425.569 130.774 422.281 129.941C418.992 129.107 415.613 128.431 412.189 128.161Z" fill="#000072"/>
<path d="M411.423 136.856C414.216 136.405 417.077 136.225 419.938 136.158C422.798 136.112 425.704 136.225 428.587 136.518C429.826 136.631 430.75 137.757 430.637 138.996C430.525 140.235 429.398 141.158 428.159 141.045C427.957 141.023 427.754 140.978 427.574 140.91C425.006 139.942 422.371 139.108 419.668 138.41C416.965 137.712 414.216 137.149 411.423 136.856Z" fill="#000072"/>
<path d="M409.374 145.437C411.716 144.987 414.126 144.762 416.536 144.604C418.947 144.469 421.402 144.446 423.857 144.536H423.88C425.141 144.582 426.132 145.64 426.087 146.902C426.042 148.163 424.983 149.154 423.722 149.109C423.474 149.109 423.226 149.041 423.024 148.974C420.861 148.163 418.631 147.465 416.356 146.879C414.059 146.248 411.739 145.73 409.374 145.437Z" fill="#000072"/>
<path d="M453.68 200.849C454.446 204.453 454.897 209.634 453.545 215.941C453.117 218.036 452.464 220.243 451.585 222.541C445.391 238.669 440.368 235.245 438.746 228.803C437.98 225.74 437.755 221.122 438.251 216.279C438.949 209.364 441.066 201.998 445.053 198.101C447.959 195.263 452.847 196.885 453.68 200.849Z" fill="#F75727"/>
<path d="M443.026 236.416C442.913 236.416 442.823 236.416 442.711 236.416C439.873 236.236 437.62 233.668 436.539 229.343C434.444 220.987 436.156 203.62 443.477 196.48C445.391 194.61 448.094 193.957 450.685 194.745C453.32 195.533 455.302 197.696 455.865 200.376C456.946 205.444 457.419 213.531 453.658 223.329C450.302 232.137 446.81 236.416 443.026 236.416ZM446.63 199.701C440.728 205.444 439.107 220.987 440.931 228.24C441.562 230.785 442.598 231.889 443.003 231.911C443.049 231.911 445.639 231.731 449.468 221.73C452.847 212.945 452.419 205.782 451.473 201.322C451.248 200.241 450.459 199.385 449.401 199.07C448.905 198.912 447.689 198.687 446.63 199.701Z" fill="#000072"/>
<path d="M440.3 233.646C440.278 233.646 440.233 233.646 440.21 233.646C439.557 233.601 439.061 233.038 439.106 232.385C439.151 231.709 440.368 215.851 444.4 206.548C444.67 205.94 445.368 205.67 445.954 205.94C446.562 206.211 446.832 206.909 446.562 207.494C442.688 216.414 441.471 232.407 441.449 232.565C441.426 233.173 440.908 233.646 440.3 233.646Z" fill="#000072"/>
<path d="M445.346 234.389C445.233 234.389 445.143 234.366 445.03 234.344C444.4 234.164 444.017 233.51 444.197 232.88C444.242 232.7 449.062 214.815 447.621 206.458C447.508 205.805 447.936 205.197 448.589 205.084C449.243 204.971 449.851 205.399 449.963 206.052C451.518 214.927 446.697 232.745 446.495 233.488C446.337 234.051 445.864 234.389 445.346 234.389Z" fill="#000072"/>
<g opacity="0.3">
<path d="M453.68 200.849C454.446 204.453 454.896 209.634 453.545 215.941C451.157 216.189 448.837 216.324 446.54 216.392C443.679 216.482 440.908 216.437 438.25 216.279C438.949 209.364 441.066 201.998 445.053 198.101C447.959 195.263 452.847 196.885 453.68 200.849Z" fill="#000072"/>
</g>
<g opacity="0.3">
<path d="M451.968 100.298L423.362 155.574C423.362 155.574 415.658 157.016 410.004 154.493C411.649 148.501 413.834 142.149 416.559 135.73C419.195 129.49 422.348 123.206 426.065 117.147C428.34 113.407 430.84 109.736 433.543 106.222C436.043 102.956 438.521 99.96 440.954 97.2119C447.238 98.6535 451.968 100.298 451.968 100.298Z" fill="#000072"/>
</g>
<path d="M532.09 115.479C532.563 117.597 532.878 119.827 532.991 122.124C533.396 130.819 532.608 139.356 530.198 147.69C481.138 184.586 447.193 126.246 443.747 106.379C461.136 87.3006 476.836 80.6332 492.153 81.6469C511.457 82.9533 527.968 96.5359 532.09 115.479Z" fill="#FCD8BB"/>
<path d="M530.198 147.69C529.95 148.546 529.679 149.402 529.409 150.258C529.274 150.686 529.139 151.092 528.981 151.519C528.846 151.925 528.688 152.353 528.531 152.758C527.9 154.47 527.179 156.16 526.413 157.826C526.233 158.209 526.075 158.57 525.895 158.93C525.265 160.214 524.589 161.521 523.868 162.805C523.688 163.165 523.463 163.503 523.26 163.863C523.192 163.976 523.125 164.088 523.057 164.201C522.854 164.516 522.674 164.854 522.471 165.17C522.404 165.282 522.359 165.372 522.291 165.462C522.089 165.778 521.908 166.093 521.706 166.409C520.895 167.67 520.039 168.931 519.138 170.17C518.935 170.44 518.732 170.711 518.53 171.004C518.304 171.296 518.102 171.589 517.876 171.882C517.831 171.95 517.764 172.04 517.696 172.107C517.516 172.355 517.313 172.603 517.133 172.828C512.448 178.797 506.614 184.586 499.406 190.172C498.865 190.6 498.325 191.006 497.762 191.434C491.252 196.322 484.382 200.016 477.512 202.741C476.948 202.967 476.385 203.169 475.822 203.395C475.462 203.53 475.101 203.665 474.741 203.777C474.313 203.935 473.885 204.093 473.435 204.228C473.344 204.273 473.254 204.296 473.142 204.318C472.691 204.476 472.218 204.633 471.745 204.769C470.281 205.242 468.817 205.67 467.375 206.053C466.812 206.188 466.249 206.345 465.686 206.48C465.123 206.616 464.582 206.751 464.019 206.886C457.442 208.373 451.022 209.093 445.008 209.274C426.875 209.769 412.549 205.242 409.306 201.435C406.49 198.146 406.378 187.086 409.419 172.941C410.342 168.616 411.581 163.998 413.113 159.246C413.18 158.998 413.27 158.773 413.338 158.525C413.518 157.962 413.698 157.421 413.901 156.858C414.014 156.543 414.126 156.205 414.239 155.889C414.419 155.371 414.599 154.876 414.779 154.358C414.96 153.885 415.117 153.434 415.298 152.961C415.433 152.556 415.59 152.15 415.748 151.745C415.973 151.182 416.176 150.596 416.424 150.033C416.874 148.884 417.347 147.735 417.82 146.587C420.456 140.347 423.609 134.063 427.326 128.003C429.533 124.422 431.898 120.885 434.489 117.507C434.601 117.372 434.714 117.236 434.804 117.079C437.823 113.159 440.796 109.6 443.724 106.379C447.193 126.224 481.138 184.586 530.198 147.69Z" fill="#FFA124"/>
<path d="M434.736 117.169C434.759 117.124 434.782 117.101 434.827 117.056C434.714 117.191 434.601 117.326 434.511 117.484C434.579 117.394 434.669 117.281 434.736 117.169Z" fill="#66C6BA"/>
<path d="M413.225 158.908C413.27 158.773 413.315 158.638 413.361 158.502C413.27 158.728 413.203 158.975 413.135 159.223C413.158 159.111 413.203 159.021 413.225 158.908Z" fill="#66C6BA"/>
<g opacity="0.35">
<path d="M489.112 181.771C495.577 174.878 496.23 147.983 486.522 145.393C481.927 144.176 478.21 159.178 465.461 171.251C454.649 181.478 478.435 193.146 489.112 181.771Z" fill="#4F034E"/>
</g>
<path d="M481.701 181.252C489.112 175.396 493.752 148.907 484.517 144.897C480.147 143.005 474.268 157.308 459.852 167.355C447.666 175.869 469.47 190.938 481.701 181.252Z" fill="#F75727"/>
<g opacity="0.3">
<path d="M484.539 144.897C493.752 148.907 489.134 175.396 481.724 181.252C481.498 181.433 481.251 181.613 481.025 181.771C483.436 169.855 482.557 156.745 475.507 153.682C475.169 153.547 474.831 153.457 474.471 153.457C479.133 147.893 482.062 143.816 484.539 144.897Z" fill="#000072"/>
</g>
<g opacity="0.35">
<path d="M460.077 167.197C456.496 175.486 473.728 185.623 484.449 177.964C483.593 179.338 482.67 180.464 481.701 181.23C469.47 190.916 447.666 175.847 459.875 167.332C459.942 167.31 460.01 167.265 460.077 167.197Z" fill="white"/>
</g>
<path d="M472.309 186.658C469.583 186.658 466.745 186.073 463.952 184.902C458.321 182.536 454.536 178.392 454.086 174.067C453.748 170.823 455.347 167.783 458.591 165.507C465.574 160.62 470.619 154.56 474.291 150.145C478.593 144.965 481.702 141.226 485.418 142.825C487.761 143.838 490.757 146.496 491.635 153.321C492.874 162.737 489.315 178.076 483.076 183.009C480.057 185.42 476.296 186.658 472.309 186.658ZM483.639 146.947C482.693 147.06 479.967 150.348 477.76 153.006C473.908 157.624 468.66 163.976 461.159 169.202C459.267 170.531 458.388 172.017 458.546 173.594C458.816 176.184 461.699 179.068 465.686 180.757C471.002 182.987 476.476 182.514 480.305 179.496C484.72 176.004 488.324 162.624 487.175 153.93C486.905 151.767 486.071 148.006 483.639 146.947Z" fill="#000072"/>
<g opacity="0.35">
<path d="M531.301 112.416C524.611 98.3608 510.511 88.8102 494.45 87.729C479.133 86.6929 463.433 93.3603 446.044 112.461C443.116 115.66 440.143 119.219 437.124 123.161C434.421 126.675 431.921 130.346 429.646 134.085C425.952 140.167 422.776 146.452 420.14 152.669C416.244 161.859 413.473 170.936 411.739 179C409.689 188.483 409.081 196.592 409.756 201.886C409.576 201.728 409.441 201.57 409.306 201.435C406.513 198.147 406.355 187.087 409.419 172.941C411.153 164.877 413.924 155.8 417.82 146.609C420.456 140.37 423.609 134.085 427.326 128.026C429.623 124.287 432.101 120.616 434.804 117.102C437.823 113.182 440.796 109.623 443.702 106.402C461.091 87.3236 476.791 80.6562 492.108 81.6698C510.398 82.8862 526.143 95.0947 531.301 112.416Z" fill="white"/>
</g>
<path d="M441.99 212.427C424.578 212.427 410.793 207.967 406.941 203.44C398.719 193.821 408.18 146.541 432.349 115.142C452.779 88.5847 471.993 76.9392 492.806 78.5385C513.461 80.1153 530.896 95.0268 535.221 114.804C535.739 117.191 536.054 119.602 536.167 121.967C537.541 150.934 525.602 174.472 499.699 193.934C481.161 207.809 459.694 212.427 441.99 212.427ZM489.134 84.7104C471.813 84.7104 455.257 95.68 437.327 118.993C422.821 137.847 416.153 158.705 413.473 169.449C409.261 186.298 409.937 197.245 411.739 199.34C417.032 205.557 461.789 214.454 495.869 188.866C519.971 170.778 531.099 148.974 529.837 122.26C529.747 120.255 529.477 118.205 529.026 116.155C525.31 99.0813 510.195 86.2195 492.31 84.8455C491.252 84.7554 490.193 84.7104 489.134 84.7104Z" fill="#000072"/>
<path d="M484.99 144.965C484.156 148.569 482.985 152.015 481.589 155.417C480.192 158.795 478.548 162.084 476.656 165.26C474.763 168.436 472.488 171.364 469.966 174.112C467.42 176.86 464.447 179.181 461.248 181.23C460.46 181.726 459.424 181.501 458.906 180.712C458.41 179.924 458.636 178.888 459.424 178.37C459.446 178.347 459.469 178.347 459.492 178.325L459.582 178.28C462.555 176.545 465.416 174.54 467.916 172.085C470.394 169.607 472.691 166.927 474.651 163.954C476.61 161.003 478.367 157.894 479.877 154.651C481.363 151.407 482.692 148.051 483.638 144.65V144.627C483.751 144.267 484.134 144.042 484.494 144.154C484.855 144.244 485.08 144.605 484.99 144.965Z" fill="#000072"/>
<path d="M487.625 146.789C487.58 150.461 487.175 154.042 486.499 157.624C485.846 161.205 484.855 164.719 483.548 168.143C482.197 171.544 480.485 174.855 478.255 177.851C477.151 179.36 475.89 180.757 474.538 182.063C473.164 183.37 471.655 184.519 470.078 185.555C469.29 186.073 468.254 185.848 467.736 185.082C467.218 184.293 467.443 183.257 468.209 182.739C468.231 182.717 468.254 182.717 468.276 182.694L468.321 182.672C469.763 181.816 471.159 180.847 472.443 179.743C473.705 178.617 474.921 177.423 476.002 176.072C478.165 173.414 479.944 170.395 481.363 167.219C482.76 164.021 483.886 160.665 484.674 157.241C485.485 153.817 486.048 150.281 486.251 146.789V146.767C486.274 146.384 486.612 146.091 486.972 146.114C487.355 146.114 487.625 146.429 487.625 146.789Z" fill="#000072"/>
<g opacity="0.3">
<path d="M527.607 110.975C528.08 113.114 528.395 115.322 528.486 117.619C528.891 126.292 528.103 134.851 525.692 143.185C521.39 158.164 511.885 172.468 494.901 185.645C494.36 186.073 493.82 186.478 493.256 186.906C486.747 191.794 479.877 195.488 473.007 198.214C461.834 202.606 450.594 204.453 440.525 204.746C422.393 205.264 408.067 200.714 404.823 196.907C404.012 195.961 403.427 194.34 403.066 192.177C409.509 194.835 420.456 197.02 433.317 196.637C443.386 196.344 454.649 194.497 465.799 190.105C472.669 187.402 479.539 183.708 486.048 178.797C486.612 178.369 487.152 177.964 487.693 177.536C504.654 164.359 514.16 150.055 518.484 135.076C520.895 126.742 521.683 118.183 521.278 109.51C521.165 107.213 520.85 105.005 520.399 102.866C519.205 97.392 516.998 92.3915 513.957 87.9766C520.692 93.8781 525.602 101.784 527.607 110.975Z" fill="#000072"/>
</g>
<path d="M512.043 87.8416C512.043 87.8416 511.66 95.4776 495.78 115.637C485.486 128.724 495.442 132.554 509.452 123.364C523.846 113.926 533.306 103.046 530.108 97.5949C526.909 92.1438 522.9 95.9281 522.9 95.9281C522.9 95.9281 526.256 91.378 523.778 87.9542C520.422 83.3141 512.043 87.8416 512.043 87.8416Z" fill="#FFB133"/>
<path d="M496.297 130.661C493.955 130.661 492.04 129.986 490.756 128.589C489.134 126.832 487.4 122.62 494 114.241C508.911 95.3197 509.767 87.7513 509.767 87.6837L509.88 86.4899L510.939 85.8592C514.7 83.832 521.998 81.6921 525.58 86.6251C526.774 88.2694 527.179 90.2741 526.774 92.459C528.418 92.6843 530.378 93.6303 532.022 96.4685C536.64 104.352 523.395 116.899 510.646 125.255C505.262 128.814 500.194 130.661 496.297 130.661ZM514.047 89.3731C513.304 92.5266 510.24 100.906 497.536 117.034C493.707 121.877 493.369 124.782 494.067 125.548C495.104 126.675 500.329 126.652 508.191 121.494C523.035 111.763 530.107 102.1 528.148 98.7435C526.864 96.5361 525.873 96.8739 525.445 97.0091C524.364 97.3695 523.192 97.0541 522.426 96.2207C521.661 95.3873 521.435 94.1484 521.908 93.1123C522.607 91.4905 522.607 90.2065 521.953 89.3055C520.422 87.1657 516.3 88.4045 514.047 89.3731Z" fill="#000072"/>
<path d="M499.969 120.548C504.407 116.246 508.731 111.853 512.718 107.213C514.701 104.893 516.615 102.505 518.327 100.05C519.994 97.6174 521.571 94.9594 522.156 92.5267L522.179 92.4591C522.472 91.2428 523.688 90.4994 524.904 90.7923C526.121 91.0851 526.864 92.3015 526.571 93.5178C526.549 93.6079 526.504 93.7205 526.481 93.8106C525.13 97.2795 523.08 99.7347 520.985 102.145C518.868 104.51 516.638 106.695 514.34 108.812C509.745 112.979 504.902 116.831 499.969 120.548Z" fill="#000072"/>
<path d="M552.114 61.6899C552.024 60.6538 552.024 59.9104 552.047 59.032C552.069 58.1985 552.137 57.3651 552.249 56.5317C552.475 54.8874 552.835 53.243 553.353 51.6438C554.367 48.4452 556.056 45.3818 558.309 42.8365C560.561 40.2686 563.354 38.2189 566.328 36.7322C569.301 35.2456 572.454 34.277 575.608 33.6913C581.915 32.4525 588.222 32.6552 594.349 33.3084C595.88 33.4661 597.39 33.7139 598.921 33.9391L603.336 34.6599C606.264 35.1104 609.193 35.5609 612.121 35.8763C617.955 36.5295 623.834 36.9124 629.6 36.4844C635.322 36.0114 641.066 34.8852 645.818 31.8893C648.183 30.4027 650.256 28.4881 651.9 26.1905C653.544 23.9155 654.716 21.2575 655.549 18.5095C656.36 15.7389 656.878 12.8332 657.036 9.90494C657.261 6.95416 657.193 4.00339 657.058 1.03009V1.00756C657.058 0.782313 657.216 0.602115 657.441 0.57959C657.644 0.57959 657.824 0.71474 657.869 0.917465C658.275 3.89076 658.635 6.90912 658.59 9.94999C658.635 12.9909 658.342 16.0543 657.689 19.0726C657.036 22.091 655.955 25.0868 654.22 27.7447C652.531 30.4252 650.278 32.7903 647.665 34.6374C645.052 36.4844 642.147 37.8359 639.151 38.8045C636.155 39.7731 633.092 40.3813 630.006 40.7417C623.856 41.4625 617.707 41.3048 611.648 40.8993C608.607 40.6966 605.611 40.3813 602.615 40.0209L598.155 39.4803C596.714 39.3451 595.272 39.1199 593.831 39.0298C590.947 38.827 588.064 38.6694 585.226 38.8045C582.365 38.8721 579.55 39.1649 576.847 39.728C574.144 40.2912 571.508 41.1021 569.143 42.2959C566.778 43.4897 564.683 45.0665 562.949 46.9586C562.093 47.9271 561.327 48.9408 560.674 50.067C559.998 51.1707 559.457 52.3646 559.029 53.5809C558.601 54.8198 558.264 56.1037 558.061 57.4102C557.948 58.0634 557.881 58.7166 557.813 59.3698C557.768 60.0005 557.746 60.7439 557.746 61.1944V61.3971C557.791 62.9513 556.574 64.2578 555.02 64.3028C553.488 64.2803 552.249 63.154 552.114 61.6899Z" fill="#000072"/>
<g opacity="0.4">
<path d="M476.273 313.429C481.949 302.054 484.99 290.656 480.913 282.525C475.057 270.834 415.32 280.272 402.526 282.412C398.967 279.687 395.138 277.119 391.038 274.776C390.025 274.213 389.011 273.627 387.997 273.064C385.182 271.51 382.321 270.001 379.37 268.582C373.244 265.631 366.756 263.153 359.571 261.644C359.503 261.622 359.413 261.599 359.323 261.599C356.17 260.923 352.903 260.36 349.57 259.955C333.014 257.837 317.562 259.166 303.439 263.221C292.311 256.576 241.292 227.023 231.606 235.808C231.133 236.236 230.683 236.686 230.277 237.159C231.426 233.623 233.161 230.627 235.661 228.397C245.347 219.612 296.366 249.165 307.516 255.81C321.639 251.756 337.091 250.449 353.647 252.544C356.98 252.972 360.247 253.513 363.4 254.188C363.49 254.188 363.558 254.211 363.648 254.233C370.833 255.743 377.321 258.22 383.447 261.171C386.398 262.568 389.259 264.099 392.074 265.654C393.088 266.217 394.102 266.802 395.115 267.365C399.215 269.708 403.044 272.276 406.603 275.001C419.397 272.862 479.134 263.424 484.99 275.114C489.901 285.003 484.292 299.756 476.273 313.429Z" fill="white"/>
</g>
<path d="M237.35 434.299C233.566 430.942 230.075 427.181 226.966 423.081C223.858 418.982 221.177 414.522 219.037 409.769L220.456 411.278C219.826 411.03 219.15 410.873 218.317 410.805L217.663 410.76L216.83 410.715C216.244 410.67 215.659 410.625 215.073 410.557C213.879 410.422 212.685 410.219 211.379 409.836C210.726 409.634 210.072 409.408 209.374 409.026C208.676 408.643 207.955 408.192 207.257 407.426C206.559 406.683 205.95 405.557 205.748 404.43C205.545 403.372 205.658 402.381 205.838 401.592C206.221 399.993 206.806 398.822 207.392 397.763C208.541 395.691 209.802 393.889 210.861 392.199C211.379 391.343 211.897 390.487 212.347 389.654C212.573 389.226 212.775 388.798 212.956 388.415L213.091 388.122L213.136 387.987C213.203 387.83 213.023 388.258 212.978 388.528C212.911 388.821 212.911 389.136 212.933 389.451C213.001 390.105 213.271 390.78 213.902 391.389C214.51 391.997 215.659 392.38 216.56 392.199C216.672 392.177 216.785 392.154 216.897 392.132C216.965 392.109 216.897 392.132 216.92 392.132L216.875 392.154L216.785 392.177L216.605 392.244C214.42 392.898 212.212 393.393 209.847 393.709C208.653 393.844 207.437 393.956 206.04 393.866C205.365 393.821 204.621 393.731 203.788 393.528C202.977 393.303 202.031 392.965 201.085 392.177C200.116 391.411 199.328 390.082 199.125 388.888C198.99 388.28 198.99 387.762 199.013 387.221C199.035 386.951 199.08 386.703 199.125 386.433L199.193 386.05C199.215 385.937 199.238 385.847 199.283 385.757C199.756 384.203 200.297 383.212 200.815 382.176C201.873 380.149 202.955 378.347 203.991 376.522C205.027 374.698 206.018 372.895 206.896 371.071C207.324 370.17 207.752 369.246 208.135 368.323C208.518 367.399 208.856 366.521 209.262 365.485L211.559 359.516L220.772 335.459L220.682 335.662C221.245 334.198 221.876 332.891 222.461 331.495C223.069 330.12 223.678 328.746 224.331 327.418C225.637 324.737 227.034 322.124 228.52 319.556C231.449 314.421 234.647 309.488 237.913 304.622L237.575 307.483C235.233 301.131 233.183 294.711 231.359 288.179C229.557 281.669 227.98 275.069 226.876 268.334C225.75 261.622 225.052 254.752 225.367 247.724C225.525 244.21 225.998 240.651 227.034 237.115C228.047 233.601 229.759 230.042 232.507 227.136L233.543 226.078C233.769 225.875 234.062 225.65 234.332 225.447C234.602 225.244 234.895 225.086 235.188 224.929C236.337 224.321 237.485 224.005 238.544 223.825C240.684 223.465 242.599 223.622 244.446 223.825C248.095 224.298 251.473 225.244 254.762 226.303C261.317 228.443 267.534 231.168 273.66 234.006C285.869 239.773 297.627 246.237 309.205 253.085L306.727 252.77C316.053 250.112 325.693 248.67 335.356 248.445C340.199 248.332 345.02 248.512 349.817 248.963C354.615 249.413 359.391 250.112 364.143 251.125L363.603 251.058C363.986 251.08 364.369 251.148 364.729 251.26L364.369 251.17C368.446 252.026 372.455 253.22 376.352 254.684C380.226 256.148 383.988 257.86 387.637 259.707C389.462 260.631 391.264 261.577 393.043 262.568C394.822 263.559 396.534 264.505 398.359 265.586C401.918 267.704 405.319 270.024 408.585 272.524L406.13 271.916C419.487 269.708 432.912 267.906 446.472 266.87C453.252 266.375 460.077 266.082 467.015 266.352C470.484 266.51 473.975 266.803 477.579 267.569C479.381 267.974 481.206 268.447 483.075 269.371C484.021 269.844 484.967 270.384 485.891 271.218C486.342 271.646 486.792 272.096 487.197 272.659C487.4 272.93 487.58 273.245 487.761 273.56C487.941 273.876 487.986 274.056 488.098 274.304C489.788 277.975 490.216 281.985 489.991 285.679C489.765 289.395 488.932 292.932 487.851 296.31C485.643 303.068 482.512 309.262 479.021 315.186C475.53 321.111 471.655 326.764 467.578 332.215C463.501 337.689 459.221 342.96 454.716 348.095L455.392 345.19C457.532 353.231 459.041 361.543 459.492 369.945V370.215L460.167 389.541L460.438 409.093L460.483 411.436C460.505 412.202 460.55 412.967 460.618 413.733C460.731 415.265 460.933 416.819 461.159 418.373C461.609 421.527 462.262 424.613 462.735 428.059C462.848 428.96 462.961 429.839 462.916 430.987C462.916 431.483 462.825 432.361 462.555 433.105C462.307 433.826 461.879 434.637 461.181 435.357C460.483 436.056 459.559 436.574 458.748 436.754C457.915 436.979 457.194 437.002 456.518 436.979C455.234 436.889 454.221 436.596 453.275 436.281C451.405 435.605 449.828 434.772 448.319 433.871C446.81 432.947 445.414 432.024 443.972 430.92L448.567 430.132C448.725 429.884 448.68 429.929 448.725 429.861L448.77 429.794L448.792 429.726C448.792 429.704 448.792 429.726 448.792 429.749C448.792 429.794 448.77 429.884 448.747 429.996C448.725 430.222 448.725 430.537 448.747 430.83C448.77 431.46 448.882 432.181 449.04 432.925C449.198 433.668 449.401 434.389 449.626 435.177L450.392 437.655C450.639 438.511 450.91 439.389 451.135 440.38C451.36 441.372 451.563 442.43 451.518 443.827C451.473 444.525 451.36 445.313 451.022 446.124C450.707 446.913 450.144 447.791 449.423 448.377C447.981 449.593 446.495 449.886 445.301 450.044C442.891 450.269 440.954 449.886 439.062 449.48C438.588 449.368 438.138 449.255 437.665 449.12C437.192 448.985 436.944 448.917 436.584 448.85C435.931 448.715 435.367 448.647 434.872 448.692C433.858 448.76 432.8 449.188 431.628 449.954C431.065 450.336 430.412 450.809 429.894 451.26L428.97 452.071L428.497 452.499L428.272 452.724L428.159 452.837L428.092 452.904L428.047 452.949C428.159 452.859 427.664 453.287 427.439 453.377C426.808 453.738 425.997 453.85 425.389 453.76L427.867 453.084C426.312 454.368 424.533 455.787 422.798 457.116C421.042 458.423 419.262 459.752 417.438 460.968C413.766 463.423 409.959 465.676 406.017 467.658C402.075 469.64 397.976 471.352 393.786 472.681C389.597 474.033 385.294 475.069 380.947 475.587C380.361 475.655 379.843 475.249 379.753 474.663C379.686 474.19 379.956 473.74 380.384 473.56C384.326 471.803 388.178 470.068 391.962 468.199C395.746 466.307 399.44 464.347 403.044 462.207C406.648 460.09 410.184 457.815 413.608 455.405C415.32 454.188 417.032 452.994 418.721 451.733C420.411 450.472 422.01 449.188 423.767 447.769L426.245 447.093C425.659 447.003 424.848 447.115 424.24 447.453C423.992 447.543 423.519 447.971 423.632 447.881L423.654 447.859L423.699 447.814L423.812 447.701L424.06 447.476L424.578 447.048L425.637 446.147C426.448 445.494 427.236 444.93 428.114 444.39C429.849 443.309 432.079 442.34 434.579 442.25C437.012 442.092 439.332 442.971 440.571 443.286C442.035 443.647 443.589 443.872 444.625 443.759C445.143 443.714 445.414 443.556 445.301 443.624C445.256 443.669 445.143 443.782 445.188 443.782C445.188 443.782 445.211 443.692 445.233 443.534C445.256 443.174 445.166 442.52 445.008 441.822C444.85 441.101 444.625 440.335 444.377 439.524L443.612 437.047C443.341 436.168 443.093 435.222 442.891 434.254C442.688 433.285 442.53 432.294 442.463 431.19C442.44 430.627 442.418 430.064 442.485 429.433C442.508 429.118 442.553 428.78 442.643 428.397C442.688 428.194 442.733 428.014 442.801 427.789C442.846 427.676 442.868 427.564 442.936 427.429L443.026 427.203C443.094 427.068 443.071 427.091 443.251 426.775L445.008 423.87L447.846 425.987C450.166 427.721 452.937 429.501 455.37 430.379C455.955 430.582 456.518 430.717 456.856 430.74C457.014 430.74 457.104 430.74 457.059 430.74C457.036 430.762 456.811 430.83 456.721 430.965C456.586 431.1 456.563 431.19 456.586 431.145C456.586 431.123 456.586 431.168 456.609 430.852C456.631 430.402 456.563 429.658 456.473 428.938C456.068 425.964 455.392 422.676 454.919 419.365C454.694 417.698 454.469 416.031 454.333 414.319C454.266 413.463 454.221 412.607 454.176 411.751L454.131 409.206L453.86 389.744L453.185 370.08V370.35C452.757 362.444 451.338 354.605 449.288 346.879L448.86 345.257L449.986 343.973C454.356 338.995 458.568 333.815 462.533 328.499C466.497 323.183 470.259 317.709 473.592 312.033C476.926 306.379 479.877 300.478 481.859 294.441C482.828 291.423 483.526 288.337 483.706 285.341C483.886 282.345 483.503 279.462 482.377 277.007C482.084 275.61 479.179 274.439 476.228 273.808C473.232 273.155 469.988 272.884 466.745 272.749C460.213 272.479 453.568 272.772 446.945 273.267C433.678 274.281 420.366 276.061 407.189 278.245L405.837 278.471L404.756 277.637C401.67 275.272 398.471 273.087 395.138 271.105C393.493 270.136 391.714 269.145 390.002 268.199C388.29 267.253 386.533 266.33 384.799 265.451C381.307 263.672 377.771 262.072 374.144 260.698C370.54 259.347 366.846 258.243 363.107 257.455L362.747 257.365C362.95 257.455 363.175 257.477 363.4 257.477L362.859 257.41C353.917 255.518 344.682 254.684 335.559 254.864C326.414 255.09 317.291 256.441 308.507 258.964L307.2 259.347L306.029 258.649C294.631 251.891 282.963 245.494 271.025 239.863C265.056 237.07 258.997 234.457 252.87 232.452C249.807 231.461 246.721 230.628 243.747 230.245C242.283 230.064 240.819 230.019 239.67 230.2C239.085 230.29 238.612 230.447 238.296 230.628C238.229 230.673 238.139 230.718 238.094 230.763C238.026 230.83 238.003 230.83 237.913 230.92L237.215 231.641C235.368 233.601 234.039 236.191 233.206 239.074C232.372 241.958 231.944 245.066 231.787 248.22C231.516 254.549 232.147 261.036 233.228 267.478C234.309 273.921 235.818 280.318 237.575 286.67C239.355 292.999 241.36 299.306 243.635 305.478L244.198 306.987L243.297 308.339C240.098 313.114 236.967 317.934 234.152 322.867C232.733 325.345 231.404 327.845 230.165 330.368C229.534 331.63 228.948 332.914 228.408 334.198C227.867 335.481 227.236 336.765 226.763 338.027L226.673 338.23L217.776 361.903L215.546 367.872C215.186 368.841 214.78 369.945 214.352 370.981C213.924 372.04 213.474 373.053 213.001 374.067C211.131 378.076 208.834 381.883 206.964 385.419C206.513 386.275 206.085 387.199 205.95 387.672C205.95 387.694 205.928 387.739 205.928 387.762C205.928 387.762 205.928 387.762 205.905 387.762C205.928 387.762 205.905 387.785 205.905 387.694C205.905 387.537 205.68 387.176 205.545 387.086C205.275 386.929 205.86 387.221 206.604 387.221C207.347 387.266 208.248 387.199 209.171 387.086C211.018 386.861 212.978 386.388 214.87 385.847L215.05 385.802L215.163 385.78L215.208 385.757L215.276 385.735C215.411 385.69 215.546 385.667 215.659 385.645C216.695 385.442 217.979 385.87 218.677 386.568C219.42 387.266 219.736 388.077 219.826 388.866C219.871 389.249 219.848 389.632 219.781 389.992C219.736 390.33 219.533 390.803 219.555 390.713L219.443 390.961L219.24 391.389C218.97 391.952 218.699 392.47 218.429 392.988C217.866 394.024 217.28 394.993 216.672 395.939L214.87 398.642C214.285 399.498 213.721 400.331 213.271 401.142C212.798 401.93 212.438 402.696 212.325 403.169C212.257 403.394 212.257 403.507 212.257 403.507C212.257 403.417 212.145 403.259 212.167 403.304C212.19 403.394 212.798 403.777 213.519 404.048C214.262 404.318 215.141 404.521 216.064 404.678C216.515 404.746 216.988 404.813 217.483 404.858L218.249 404.926C218.564 404.949 218.857 404.994 219.173 405.039C220.434 405.196 221.853 405.534 223.159 406.232L224.241 406.796L224.601 407.742C226.268 412.224 228.408 416.594 230.863 420.784C233.318 424.996 236.134 429.05 239.107 433.06C239.445 433.533 239.355 434.186 238.882 434.546C238.274 434.659 237.711 434.614 237.35 434.299Z" fill="#000072"/>
<path d="M319.047 342.719C324.271 328.086 319.349 312.955 308.055 308.923C296.761 304.891 283.37 313.485 278.146 328.119C272.922 342.752 277.843 357.884 289.138 361.916C300.432 365.947 313.823 357.353 319.047 342.719Z" fill="#000072"/>
<path d="M313.124 334.45C314.818 329.363 313.722 324.417 310.676 323.404C307.631 322.39 303.79 325.692 302.097 330.779C300.403 335.867 301.499 340.812 304.545 341.826C307.59 342.84 311.431 339.537 313.124 334.45Z" fill="white"/>
<path d="M288.91 340.392C287.852 342.847 285.824 344.288 284.36 343.568C282.919 342.869 282.603 340.302 283.662 337.846C284.721 335.391 286.748 333.949 288.212 334.67C289.676 335.369 289.991 337.936 288.91 340.392Z" fill="white"/>
<path d="M394.327 383.843C406.319 383.843 416.041 371.247 416.041 355.709C416.041 340.171 406.319 327.575 394.327 327.575C382.335 327.575 372.613 340.171 372.613 355.709C372.613 371.247 382.335 383.843 394.327 383.843Z" fill="#000072"/>
<path d="M392.65 350.092C392.766 344.731 390.259 340.329 387.05 340.26C383.841 340.19 381.145 344.479 381.029 349.84C380.913 355.201 383.42 359.603 386.629 359.672C389.838 359.742 392.534 355.453 392.65 350.092Z" fill="white"/>
<path d="M401.783 363.638C401.963 366.318 403.382 368.345 404.981 368.165C406.58 367.985 407.729 365.687 407.572 363.007C407.391 360.326 405.972 358.299 404.373 358.479C402.774 358.66 401.625 360.957 401.783 363.638Z" fill="white"/>
<path d="M327.765 362.714C327.337 367.557 336.054 372.783 342.947 374.63C348.15 376.026 357.386 374.922 358.714 369.899C359.773 365.935 355.876 361.858 343.217 359.56C332.856 357.691 328.058 359.47 327.765 362.714Z" fill="#000072"/>
<g opacity="0.7">
<path d="M339.05 362.894C338.735 363.727 340.942 365.034 342.812 365.259C343.871 365.372 347.655 365.777 347.993 364.854C348.331 363.93 347.385 362.961 343.916 362.263C340.762 361.61 339.366 362.06 339.05 362.894Z" fill="white"/>
</g>
<path d="M345.155 394.384C344.907 396.073 344.434 398.011 343.465 399.813C341.776 402.966 339.433 405.759 336.28 406.277C335.334 406.457 334.32 406.412 333.216 406.12C329.387 405.083 327.315 401.637 327.518 396.434C327.563 395.443 327.675 394.362 327.9 393.235C328.036 392.469 328.238 391.659 328.464 390.825C329.274 387.942 332.676 385.104 335.672 385.847L341.213 387.221C344.028 387.942 345.538 391.658 345.155 394.384Z" fill="#000072"/>
<path d="M338.532 403.349C338.487 404.318 338.33 405.354 338.104 406.457C337.158 406.638 336.145 406.593 335.041 406.3C331.212 405.264 329.139 401.817 329.342 396.614C329.387 395.623 329.5 394.542 329.725 393.415C330.716 393.235 331.797 393.28 332.924 393.596C336.775 394.677 338.803 398.146 338.532 403.349Z" fill="#FA508E"/>
<path d="M335.446 409.205C334.477 409.205 333.509 409.07 332.518 408.8C329.319 407.944 326.909 405.984 325.58 403.146C323.665 399.047 324.161 393.618 327.022 387.424C327.675 386.027 329.319 385.419 330.716 386.072C332.112 386.725 332.721 388.37 332.067 389.766C329.972 394.294 329.454 398.303 330.626 400.803C331.256 402.155 332.36 403.011 333.959 403.461C335.469 403.867 336.73 403.709 337.901 402.943C341.348 400.736 343.105 394.249 343.51 391.929C343.758 390.419 345.199 389.406 346.709 389.654C348.218 389.901 349.231 391.343 348.984 392.852C348.803 393.956 347.024 403.687 340.92 407.629C339.253 408.665 337.406 409.205 335.446 409.205Z" fill="#000072"/>
<path d="M360.021 383.257C360.652 384.608 360.99 386.05 361.035 387.582C361.08 389.091 360.855 390.758 360.044 392.357C359.255 393.956 357.656 395.42 355.876 396.096C355.403 396.321 355.021 396.389 354.615 396.502C354.21 396.592 353.804 396.727 353.376 396.794C352.52 396.907 351.664 396.997 350.786 396.93C349.051 396.862 347.294 396.366 345.808 395.578C344.299 394.79 343.015 393.776 341.888 392.65C339.704 390.352 338.104 387.807 336.888 384.991L341.303 386.005C340.582 386.636 339.974 387.064 339.298 387.559C338.622 388.01 337.947 388.46 337.248 388.866C335.829 389.676 334.32 390.375 332.721 390.915C331.076 391.388 329.365 391.794 327.517 391.726C326.616 391.749 325.693 391.569 324.792 391.433L323.463 391.051L322.81 390.848C322.607 390.758 322.382 390.668 322.179 390.555C321.346 390.15 320.535 389.744 319.836 389.181C319.476 388.911 319.116 388.663 318.755 388.393C318.395 388.077 318.057 387.694 317.719 387.334C316.39 385.847 315.467 383.843 315.377 381.905C315.241 379.968 315.714 378.211 316.458 376.725C317.224 375.238 318.215 373.954 319.544 372.963C319.769 372.805 320.062 372.85 320.242 373.076C320.309 373.188 320.355 373.301 320.332 373.413V373.459C319.994 376.432 319.836 379.202 320.49 381.094C320.805 382.018 321.233 382.716 321.909 383.324L322.449 383.752C322.697 383.888 322.922 384.045 323.17 384.18C323.621 384.518 324.116 384.698 324.612 384.924C326.526 385.802 328.756 385.757 331.076 385.217C332.225 384.901 333.397 384.451 334.523 383.843C335.086 383.55 335.649 383.234 336.167 382.874C336.663 382.536 337.248 382.108 337.631 381.793L340.605 379.27L342.069 382.806C342.947 384.924 344.366 386.928 345.988 388.415C347.655 389.857 349.434 390.78 351.281 390.96C351.754 391.051 352.227 391.005 352.7 391.028C352.948 391.028 353.196 390.96 353.444 390.938C353.692 390.915 353.962 390.893 354.12 390.825C354.885 390.69 355.516 390.397 356.169 389.744C357.521 388.46 358.422 385.937 359.12 383.324L359.143 383.279C359.21 383.032 359.48 382.874 359.728 382.942C359.863 383.032 359.976 383.144 360.021 383.257Z" fill="#000072"/>
<g opacity="0.3">
<path d="M320.58 386.05C329.229 393.055 339.478 383.91 339.478 383.91C341.46 388.685 346.776 395.758 354.615 393.618C358.579 392.537 358.557 386.343 358.714 383.662C357.949 384.879 356.597 387.289 355.426 388.235C350.898 391.929 343.24 382.333 341.258 377.558C341.258 377.558 329.252 389.248 321.976 380.914C319.949 378.594 320.85 375.193 320.963 372.985C319.791 375.508 316.21 382.536 320.58 386.05Z" fill="#000072"/>
</g>
<path d="M344.682 372.647C344.749 373.909 344.772 375.058 344.727 376.274C344.682 377.49 344.614 378.684 344.434 379.923C344.254 381.162 344.051 382.423 343.646 383.73C343.24 385.036 342.722 386.388 341.776 387.784L341.438 388.28C340.199 390.104 337.721 390.6 335.897 389.361C334.072 388.122 333.577 385.644 334.816 383.82C335.086 383.414 335.446 383.054 335.829 382.784C336.325 382.446 336.888 381.793 337.384 381.049C337.902 380.283 338.352 379.382 338.758 378.459C339.186 377.513 339.546 376.522 339.884 375.508C340.222 374.495 340.515 373.413 340.74 372.422L340.762 372.31C341.01 371.251 342.069 370.598 343.127 370.845C344.051 371.048 344.637 371.791 344.682 372.647Z" fill="#000072"/>
<path d="M465.573 98.5181C467.736 99.374 469.605 100.568 471.362 101.829C473.119 103.113 474.741 104.532 476.25 106.041C477.759 107.551 479.178 109.172 480.462 110.929C481.746 112.686 482.917 114.556 483.773 116.718C481.588 115.862 479.741 114.668 477.984 113.407C476.228 112.123 474.606 110.704 473.097 109.195C471.587 107.686 470.168 106.041 468.884 104.307C467.623 102.55 466.452 100.703 465.573 98.5181Z" fill="#000072"/>
<path d="M483.796 98.5181C482.94 100.68 481.746 102.55 480.485 104.307C479.201 106.064 477.782 107.686 476.273 109.195C474.763 110.704 473.142 112.123 471.385 113.407C469.628 114.691 467.758 115.862 465.596 116.718C466.452 114.533 467.645 112.686 468.907 110.929C470.191 109.172 471.61 107.551 473.119 106.041C474.628 104.532 476.273 103.113 478.007 101.829C479.764 100.568 481.634 99.3965 483.796 98.5181Z" fill="#000072"/>
<g opacity="0.3">
<path d="M280.148 271.037C277.219 272.479 269.065 281.196 262.781 288.246C257.397 275.88 256.677 258.378 257.42 250.427C257.42 250.337 257.442 250.247 257.442 250.179C264.132 253.49 271.611 257.86 272.985 260.135C275.44 264.145 285.171 268.56 280.148 271.037Z" fill="#000072"/>
</g>
<g opacity="0.3">
<path d="M428.317 298.811C430.525 301.221 434.962 312.303 438.273 321.133C447.779 311.56 454.784 295.5 456.969 287.841C456.991 287.751 457.014 287.661 457.036 287.593C449.603 288.246 441.044 289.621 438.949 291.242C435.187 294.08 424.51 294.689 428.317 298.811Z" fill="#000072"/>
</g>
<path d="M55.9337 267.726C43.7927 267.726 33.9268 257.86 33.9268 245.719C33.9268 233.578 43.7927 223.712 55.9337 223.712C68.0747 223.712 77.9406 233.578 77.9406 245.719C77.9406 257.86 68.0521 267.726 55.9337 267.726ZM55.9337 231.596C48.14 231.596 41.8105 237.925 41.8105 245.719C41.8105 253.513 48.14 259.842 55.9337 259.842C63.7273 259.842 70.0569 253.513 70.0569 245.719C70.0569 237.925 63.7048 231.596 55.9337 231.596Z" fill="white"/>
<path d="M56.0239 240.786C59.4325 240.786 62.1957 238.648 62.1957 236.011C62.1957 233.373 59.4325 231.235 56.0239 231.235C52.6153 231.235 49.8521 233.373 49.8521 236.011C49.8521 238.648 52.6153 240.786 56.0239 240.786Z" fill="white"/>
<path d="M579.775 355.393C567.634 355.393 557.768 345.527 557.768 333.386C557.768 321.245 567.634 311.379 579.775 311.379C591.916 311.379 601.782 321.245 601.782 333.386C601.782 345.527 591.916 355.393 579.775 355.393ZM579.775 319.263C571.981 319.263 565.652 325.593 565.652 333.386C565.652 341.18 571.981 347.509 579.775 347.509C587.569 347.509 593.898 341.18 593.898 333.386C593.898 325.593 587.569 319.263 579.775 319.263Z" fill="white"/>
<path d="M579.865 328.453C583.274 328.453 586.037 326.315 586.037 323.678C586.037 321.041 583.274 318.903 579.865 318.903C576.457 318.903 573.693 321.041 573.693 323.678C573.693 326.315 576.457 328.453 579.865 328.453Z" fill="white"/>
<path d="M499.293 605.353C487.468 605.353 477.85 595.735 477.85 583.91C477.85 572.084 487.468 562.466 499.293 562.466C511.119 562.466 520.737 572.084 520.737 583.91C520.737 595.735 511.119 605.353 499.293 605.353ZM499.293 569.223C491.184 569.223 484.607 575.801 484.607 583.91C484.607 592.019 491.184 598.596 499.293 598.596C507.402 598.596 513.98 592.019 513.98 583.91C513.98 575.801 507.38 569.223 499.293 569.223Z" fill="white"/>
<path d="M499.383 578.976C502.792 578.976 505.555 576.838 505.555 574.201C505.555 571.564 502.792 569.426 499.383 569.426C495.975 569.426 493.211 571.564 493.211 574.201C493.211 576.838 495.975 578.976 499.383 578.976Z" fill="white"/>
<path d="M575.766 526.583C557.566 526.583 542.744 511.762 542.744 493.562C542.744 475.361 557.566 460.54 575.766 460.54C593.966 460.54 608.787 475.361 608.787 493.562C608.787 511.784 593.966 526.583 575.766 526.583ZM575.766 467.59C561.44 467.59 549.772 479.258 549.772 493.584C549.772 507.91 561.44 519.578 575.766 519.578C590.092 519.578 601.76 507.91 601.76 493.584C601.76 479.258 590.092 467.59 575.766 467.59Z" fill="white"/>
<path d="M588.357 481.421C588.357 485.768 582.478 481.421 575.225 481.421C567.972 481.421 562.093 485.768 562.093 481.421C562.093 477.074 567.972 473.56 575.225 473.56C582.478 473.56 588.357 477.096 588.357 481.421Z" fill="white"/>
<path d="M592.232 495.634C594.06 495.634 595.543 493.718 595.543 491.354C595.543 488.991 594.06 487.075 592.232 487.075C590.403 487.075 588.92 488.991 588.92 491.354C588.92 493.718 590.403 495.634 592.232 495.634Z" fill="white"/>
<path d="M157.116 212.269C138.916 212.269 124.094 197.448 124.094 179.248C124.094 161.048 138.916 146.226 157.116 146.226C175.316 146.226 190.138 161.048 190.138 179.248C190.138 197.448 175.316 212.269 157.116 212.269ZM157.116 153.254C142.79 153.254 131.122 164.922 131.122 179.248C131.122 193.574 142.79 205.242 157.116 205.242C171.442 205.242 183.11 193.574 183.11 179.248C183.11 164.922 171.442 153.254 157.116 153.254Z" fill="white"/>
<path d="M169.708 167.084C169.708 171.432 163.828 167.084 156.575 167.084C149.322 167.084 143.443 171.432 143.443 167.084C143.443 162.737 149.322 159.223 156.575 159.223C163.828 159.246 169.708 162.76 169.708 167.084Z" fill="white"/>
<path d="M173.559 181.298C175.388 181.298 176.87 179.382 176.87 177.018C176.87 174.654 175.388 172.738 173.559 172.738C171.73 172.738 170.248 174.654 170.248 177.018C170.248 179.382 171.73 181.298 173.559 181.298Z" fill="white"/>
</svg>
