<svg width="638" height="611" viewBox="0 0 638 611" fill="none" xmlns="http://www.w3.org/2000/svg">
<ellipse cx="325" cy="299.5" rx="313" ry="299.5" fill="#B0A2D7"/>
<g clip-path="url(#clip0_249_10094)">
<path d="M266.264 465.196C252.035 455.967 235.564 455.289 220.883 459.441C210.087 462.503 200.176 467.95 191.088 474.588C187.798 476.973 184.631 479.521 181.567 482.152C171.43 490.887 155.494 508.295 137.934 495.491C134.438 492.963 131.868 488.708 130.655 483.426C127.097 468.155 134.87 444.293 164.521 428.282C167.832 426.494 171.286 424.973 174.823 423.719C188.702 418.807 204.042 417.965 218.621 420.493C223.761 421.376 228.799 422.671 233.734 424.316C246.38 428.508 258.306 434.921 269.204 442.649C271.528 450.233 269.533 458.002 266.264 465.196Z" fill="#8C8CAA"/>
<path d="M219.875 440.08C219.916 444.993 217.551 449.658 214.385 453.419C211.239 457.181 207.291 460.181 203.507 463.305C199.189 466.882 195.036 470.622 191.067 474.568C187.777 476.953 184.61 479.501 181.547 482.132C171.409 490.867 155.474 508.276 137.913 495.471C124.322 485.564 124.589 449.802 164.5 428.262C167.811 426.474 171.265 424.953 174.802 423.7C178.503 422.61 182.307 421.788 186.153 421.254C193.391 420.267 201.019 420.288 207.681 423.268C214.364 426.289 219.834 432.784 219.875 440.08Z" fill="white"/>
<g opacity="0.3">
<path d="M266.264 465.196C252.035 455.968 235.564 455.29 220.883 459.442C210.087 462.504 200.176 467.951 191.088 474.589C187.798 476.973 184.631 479.522 181.567 482.153C171.43 490.888 155.494 508.296 137.934 495.492C134.438 492.964 131.868 488.709 130.655 483.427C138.736 485.626 147.66 481.906 154.466 476.768C161.766 471.26 167.79 464.087 175.604 459.359C183.521 454.571 192.753 452.577 201.698 450.152C210.622 447.726 219.752 444.582 226.393 438.149C230.156 434.49 232.891 429.475 233.755 424.337C246.4 428.53 258.327 434.942 269.225 442.67C271.528 450.234 269.533 458.003 266.264 465.196Z" fill="#000072"/>
</g>
<path d="M150.868 504.884C145.377 504.884 140.093 503.055 135.076 499.396C128.064 494.299 124.342 484.577 125.103 473.417C125.699 464.661 128.989 455.762 134.644 447.643C141.121 438.333 150.415 430.399 162.218 424.028C165.673 422.158 169.374 420.513 173.219 419.157C187.448 414.142 203.425 412.95 219.443 415.725C237.168 418.807 254.852 426.535 272.001 438.703C272.864 439.319 273.502 440.203 273.831 441.231C276.175 448.877 275.147 457.365 270.664 467.189C270.088 468.464 268.978 469.43 267.621 469.82C266.264 470.211 264.824 470.005 263.632 469.245C251.952 461.661 237.23 459.831 222.199 464.086C212.802 466.737 203.569 471.444 193.946 478.473C190.882 480.693 187.798 483.159 184.734 485.79C183.767 486.633 182.739 487.558 181.629 488.524C176.365 493.251 169.806 499.108 162.218 502.376C158.332 504.062 154.548 504.884 150.868 504.884ZM202.603 423.946C193.473 423.946 184.631 425.405 176.447 428.282C173.096 429.475 169.867 430.893 166.845 432.537C147.824 442.793 135.837 458.331 134.767 474.075C134.253 481.782 136.556 488.503 140.792 491.586C146.385 495.655 151.978 496.272 158.414 493.518C164.562 490.887 170.443 485.605 175.193 481.351C176.324 480.343 177.393 479.377 178.421 478.494C181.67 475.678 184.981 473.047 188.25 470.683C198.799 462.976 209.039 457.776 219.567 454.796C235.256 450.356 250.739 451.61 263.837 458.228C265.421 453.46 265.791 449.349 264.989 445.609C249.485 434.859 233.611 428.036 217.798 425.282C212.699 424.398 207.599 423.946 202.603 423.946Z" fill="#000072"/>
<path d="M473.265 603.745C469.564 606.355 464.691 606.17 460.147 606.17C439.235 606.17 418.94 605.82 398.439 605.45C380.776 605.163 362.969 604.896 344.524 604.875C339.816 604.875 335.148 604.896 330.521 604.937C314.832 605.039 299.513 605.307 284.256 605.553C265.894 605.862 247.655 606.149 228.902 606.149C224.358 606.149 219.505 606.334 215.804 603.724C202.521 594.352 210.231 573.799 227.504 561.631C214.467 550.533 207.784 529.199 211.26 509.344C214.735 489.51 228.306 471.711 246.503 463.079C249.814 446.883 253.906 430.256 258.964 413.69C262.707 401.44 266.963 389.211 271.795 377.229C282.015 376.941 299.637 376.16 314.956 375.42C330.295 374.68 343.311 374.002 344.36 373.94C344.36 373.94 344.38 373.94 344.401 373.94C344.422 373.94 344.442 373.94 344.442 373.94C346.519 374.064 396.814 376.674 417.274 377.229C422.312 389.725 426.733 402.489 430.578 415.273C435.41 431.325 439.379 447.397 442.566 463.079C454.389 468.67 464.239 478.124 470.654 489.51C470.654 489.531 470.654 489.531 470.654 489.531C474.129 495.676 476.576 502.377 477.81 509.344C481.285 529.178 474.581 550.533 461.565 561.631C478.817 573.799 486.528 594.372 473.265 603.745Z" fill="#8C8CAA"/>
<path d="M406.129 576.697C406.129 587.117 403.353 596.9 398.439 605.471C380.776 605.286 362.969 605.08 344.524 605.08C323.88 605.101 304.016 605.327 284.256 605.553C279.321 596.962 276.524 587.138 276.524 576.697C276.524 543.072 305.517 515.818 341.316 515.818C377.136 515.818 406.129 543.092 406.129 576.697Z" fill="white"/>
<path d="M329.452 462.442C329.493 492.429 329.657 553.678 329.719 585.042C329.74 595.935 320.877 604.711 309.979 604.711C288.286 604.711 260.629 606.15 257.915 601.299C250.307 592.77 257.381 575.053 273.81 564.9C270.767 535.735 267.723 506.57 264.701 477.405" fill="#8C8CAA"/>
<path d="M420.317 477.405C417.274 506.57 414.231 535.735 411.208 564.9C427.617 575.053 434.711 592.77 427.103 601.299C424.389 606.15 396.732 604.711 375.039 604.711C364.141 604.711 355.258 595.935 355.299 585.042C355.381 553.657 355.525 492.429 355.566 462.442" fill="#8C8CAA"/>
<path d="M329.719 571.578V584.897C329.719 595.975 320.816 604.998 309.733 605.162C282.652 605.553 256.291 606.169 228.923 606.169C224.378 606.169 219.526 606.354 215.824 603.744C202.541 594.372 210.252 573.819 227.524 561.651C227.524 561.651 252.302 548.97 273.543 562.309C274.263 562.761 274.982 563.254 275.681 563.748C275.681 563.748 310.452 548.559 329.699 571.537L329.719 571.578Z" fill="white"/>
<path d="M359.35 571.578V584.897C359.35 595.975 368.253 604.998 379.336 605.162C406.417 605.553 432.778 606.169 460.146 606.169C464.691 606.169 469.543 606.354 473.245 603.744C486.528 594.372 478.817 573.819 461.545 561.651C461.545 561.651 436.767 548.97 415.526 562.309C414.806 562.761 414.087 563.254 413.388 563.748C413.388 563.748 378.617 548.559 359.37 571.537C359.37 571.537 359.37 571.578 359.35 571.578Z" fill="white"/>
<g opacity="0.3">
<path d="M430.578 415.293C406.972 424.624 377.999 430.091 346.704 430.091C313.66 430.091 283.227 423.987 258.964 413.711C262.706 401.461 266.963 389.232 271.795 377.249C282.014 376.962 299.636 376.181 314.955 375.441C330.295 374.701 343.311 374.023 344.359 373.961C344.359 373.961 344.38 373.961 344.401 373.961C344.421 373.961 344.442 373.961 344.442 373.961C346.518 374.084 396.814 376.694 417.274 377.249C422.311 389.766 426.732 402.509 430.578 415.293Z" fill="#000072"/>
</g>
<g opacity="0.3">
<path d="M461.565 561.652C474.602 550.553 481.284 529.219 477.809 509.365C476.576 502.397 474.129 495.697 470.654 489.552C471.6 499.746 471.065 510.084 468.988 520.114C466.726 531.048 461.874 542.538 451.88 547.491C443.84 551.478 433.6 550.081 426.527 544.572C419.433 539.085 415.588 529.877 415.999 520.916C411.413 532.405 406.828 543.874 402.243 555.363C400.783 559.042 399.282 562.844 399.323 566.79C399.364 569.976 400.392 573.121 400.145 576.286C399.57 583.644 391.612 588.946 384.251 588.289C376.889 587.631 370.618 582.267 366.978 575.834C363.359 569.421 361.94 562.001 360.768 554.705C360.151 550.821 359.555 546.895 358.691 543.051C358.897 541.161 359.226 538.961 359.226 537.584C358.671 537.913 358.075 538.201 357.499 538.448C356.964 536.68 356.327 534.933 355.566 533.227C352.564 536.166 348.636 538.283 344.503 539.29C340.37 538.283 336.443 536.166 333.441 533.227C332.68 534.933 332.063 536.659 331.508 538.448C330.912 538.18 330.336 537.913 329.781 537.584C329.781 538.961 330.11 541.161 330.315 543.051C329.452 546.895 328.855 550.821 328.239 554.705C327.067 562.001 325.648 569.421 322.029 575.834C318.389 582.267 312.118 587.631 304.756 588.289C297.395 588.946 289.458 583.623 288.862 576.286C288.594 573.121 289.643 569.976 289.684 566.79C289.725 562.824 288.224 559.042 286.764 555.363C282.179 543.874 277.593 532.405 273.008 520.916C273.419 529.877 269.574 539.085 262.48 544.572C255.407 550.081 245.167 551.458 237.127 547.491C227.133 542.538 222.281 531.048 220.019 520.114C217.963 510.084 217.407 499.767 218.353 489.552C214.878 495.697 212.431 502.397 211.198 509.365C207.722 529.199 214.426 550.553 227.442 561.652C210.169 573.819 202.459 594.393 215.742 603.745C219.443 606.355 224.316 606.17 228.861 606.17C249.752 606.17 270.068 605.821 290.568 605.451C303.728 605.245 316.95 605.04 330.459 604.937C330.809 604.937 331.179 604.937 331.529 604.937C335.806 604.916 340.124 604.875 344.462 604.875C348.801 604.875 353.119 604.896 357.396 604.937C357.746 604.937 358.116 604.937 358.465 604.937C371.975 605.04 385.217 605.245 398.356 605.451C418.857 605.8 439.152 606.17 460.064 606.17C464.608 606.17 469.461 606.355 473.183 603.745C486.528 594.373 478.817 573.799 461.565 561.652Z" fill="#000072"/>
</g>
<path d="M461.874 611C461.586 611 461.298 611 461.01 611C460.722 611 460.434 611 460.146 611C440.427 611 420.872 610.671 401.975 610.363C383.408 610.054 364.202 609.725 344.545 609.705C339.589 609.725 334.613 609.746 329.76 609.766C315.326 609.89 300.994 610.116 287.134 610.342C268.217 610.65 248.662 610.979 228.943 610.979C228.655 610.979 228.367 610.979 228.079 610.979C223.494 611 217.778 611 213.048 607.67C207.394 603.683 204.268 597.62 204.289 590.632C204.289 580.807 210.396 569.709 220.225 561.241C215.146 555.609 211.177 548.457 208.627 540.215C205.42 529.959 204.7 519.004 206.551 508.522C210.149 487.928 223.761 469.471 242.288 459.811C248.621 429.393 257.052 401.009 267.374 375.441C268.094 373.653 269.8 372.46 271.733 372.419C282.405 372.132 301.035 371.268 314.791 370.611C321.124 370.302 331.261 369.809 343.578 369.172L344.175 369.131C344.257 369.131 344.339 369.131 344.421 369.131H344.504C344.586 369.131 344.689 369.131 344.771 369.131C347.67 369.295 397.349 371.864 417.459 372.419C419.392 372.481 421.098 373.653 421.818 375.441C432.14 401.029 440.571 429.393 446.904 459.811C465.431 469.471 479.043 487.907 482.642 508.522C484.472 519.004 483.752 529.959 480.565 540.215C477.994 548.436 474.026 555.609 468.968 561.241C478.776 569.729 484.883 580.828 484.903 590.632C484.903 597.64 481.799 603.683 476.144 607.67C471.6 610.815 466.315 611 461.874 611ZM275.126 381.997C265.297 406.928 257.278 434.51 251.253 464.066C250.945 465.566 249.958 466.82 248.58 467.477C231.719 475.473 219.238 491.833 216.03 510.207C212.863 528.294 218.867 547.943 230.65 557.973C231.781 558.939 232.418 560.377 232.336 561.878C232.274 563.378 231.513 564.755 230.3 565.598C220.512 572.483 213.932 582.554 213.932 590.652C213.932 594.537 215.495 597.62 218.6 599.798C220.8 601.36 224.316 601.34 228.018 601.34C228.326 601.34 228.614 601.34 228.902 601.34C248.539 601.34 268.053 601.011 286.929 600.703C300.808 600.477 315.182 600.23 329.658 600.127C334.531 600.086 339.527 600.065 344.504 600.065C364.243 600.086 383.49 600.415 402.099 600.723C420.975 601.031 440.489 601.36 460.126 601.36C460.414 601.36 460.722 601.36 461.01 601.36C464.732 601.36 468.227 601.381 470.448 599.819C473.553 597.64 475.116 594.557 475.116 590.673C475.116 582.575 468.536 572.524 458.748 565.618C457.535 564.755 456.774 563.378 456.712 561.898C456.651 560.398 457.268 558.959 458.399 557.993C470.181 547.963 476.185 528.315 473.018 510.228C469.811 491.853 457.329 475.493 440.468 467.498C439.09 466.84 438.103 465.587 437.795 464.086C431.77 434.531 423.73 406.928 413.922 382.018C392.558 381.319 348.781 379.079 344.36 378.832L343.989 378.852C331.652 379.49 321.515 379.983 315.161 380.291C302.68 380.867 286.127 381.648 275.126 381.997Z" fill="#000072"/>
<path d="M331.323 462.442C331.899 471.033 332.248 479.645 332.536 488.236C332.804 496.827 332.989 505.439 333.092 514.03L333.503 565.618L333.564 578.505L333.606 584.959V585.185V585.431V585.904C333.606 586.233 333.585 586.541 333.564 586.87C333.544 587.199 333.523 587.507 333.482 587.836C333.441 588.165 333.4 588.473 333.359 588.802C333.174 590.076 332.845 591.33 332.454 592.563C331.652 595.03 330.418 597.332 328.856 599.387C327.293 601.442 325.381 603.23 323.263 604.669C321.124 606.087 318.739 607.197 316.251 607.875C314.997 608.204 313.742 608.451 312.447 608.574C311.809 608.636 311.172 608.677 310.514 608.697L310.041 608.718H309.63H308.828C300.274 608.739 291.679 608.965 283.002 608.903C278.663 608.882 274.304 608.8 269.842 608.492C267.621 608.327 265.38 608.122 263.015 607.711C262.419 607.608 261.822 607.485 261.205 607.341C260.589 607.197 259.972 607.012 259.293 606.786C258.615 606.539 257.915 606.272 257.134 605.799L256.99 605.717L256.826 605.614L256.517 605.409C256.414 605.347 256.291 605.245 256.188 605.162C256.085 605.08 255.983 604.998 255.859 604.895C255.407 604.505 254.934 603.97 254.523 603.251L255.016 603.95C253.392 602.079 252.199 599.818 251.603 597.496C251.007 595.173 250.883 592.851 251.109 590.652C251.336 588.453 251.829 586.356 252.528 584.363C253.227 582.369 254.111 580.499 255.119 578.71C257.155 575.155 259.663 571.969 262.501 569.174C263.92 567.776 265.421 566.461 267.004 565.228C268.587 564.015 270.212 562.885 271.898 561.857L270.191 565.31C269.41 558.014 268.711 550.717 268.032 543.421L267.539 537.954L267.066 532.466L266.593 526.978L266.14 521.491L265.688 516.003L265.256 510.515C264.968 506.857 264.701 503.198 264.434 499.54C263.92 492.223 263.426 484.906 263.077 477.569C263.036 476.664 263.735 475.883 264.639 475.842C265.482 475.801 266.223 476.418 266.346 477.219C267.518 484.475 268.546 491.73 269.554 499.006C270.047 502.643 270.541 506.281 271.014 509.919L271.713 515.366L272.391 520.833L273.07 526.3L273.728 531.767L274.386 537.234L275.023 542.701C275.866 549.977 276.689 557.274 277.429 564.57C277.573 565.988 276.895 567.283 275.784 568.002L275.743 568.023C274.304 568.948 272.905 569.934 271.569 571.003C270.232 572.072 268.978 573.223 267.806 574.435C265.421 576.84 263.365 579.553 261.781 582.431C260.979 583.869 260.321 585.349 259.807 586.87C259.293 588.37 258.944 589.891 258.82 591.371C258.676 592.851 258.8 594.249 259.129 595.523C259.149 595.687 259.211 595.831 259.273 595.975C259.334 596.119 259.375 596.283 259.437 596.427C259.499 596.571 259.56 596.715 259.622 596.859C259.663 596.921 259.684 597.003 259.725 597.064L259.848 597.27C259.931 597.393 259.992 597.537 260.075 597.681C260.157 597.804 260.239 597.928 260.342 598.051C260.383 598.113 260.424 598.174 260.465 598.236L260.609 598.4C260.712 598.524 260.794 598.626 260.897 598.75L261.391 599.449C261.267 599.202 261.123 599.079 261.082 599.037C261.062 599.017 261.082 599.017 261.062 599.017C261.062 599.017 261.082 599.017 261.082 599.037C261.082 599.037 261.082 599.037 261.103 599.037L261.123 599.058C261.267 599.14 261.555 599.264 261.905 599.387C262.254 599.51 262.665 599.613 263.097 599.716C263.529 599.818 263.981 599.901 264.454 599.983C266.346 600.312 268.382 600.517 270.438 600.641C274.571 600.908 278.827 600.969 283.084 600.99C291.617 600.99 300.212 600.826 308.869 600.805H309.692H310.103H310.432C310.864 600.805 311.295 600.764 311.727 600.743C312.591 600.661 313.434 600.497 314.256 600.271C315.079 600.045 315.901 599.757 316.683 599.407C317.464 599.058 318.225 598.626 318.945 598.154C320.363 597.188 321.659 596.016 322.708 594.639C323.756 593.283 324.599 591.741 325.134 590.117C325.401 589.295 325.627 588.473 325.751 587.63C325.792 587.425 325.812 587.199 325.833 586.993C325.874 586.788 325.874 586.562 325.895 586.356C325.915 586.151 325.936 585.925 325.936 585.719L325.956 585.061V578.608L325.977 565.7L326.162 514.112C326.224 505.521 326.368 496.909 326.594 488.318C326.841 479.727 327.149 471.115 327.704 462.524C327.766 461.496 328.671 460.695 329.699 460.756C330.521 460.756 331.262 461.517 331.323 462.442Z" fill="#000072"/>
<path d="M421.941 477.569C421.777 481.228 421.551 484.907 421.324 488.565C421.098 492.224 420.852 495.882 420.584 499.541L420.173 505.028L419.741 510.516C419.453 514.174 419.145 517.833 418.836 521.471L417.911 532.426L416.945 543.38C416.266 550.677 415.588 557.973 414.827 565.269L413.12 561.816C414.806 562.865 416.431 563.995 417.993 565.228C419.556 566.461 421.037 567.777 422.455 569.195C425.293 572.011 427.76 575.196 429.776 578.752C430.763 580.54 431.647 582.411 432.325 584.384C433.004 586.357 433.497 588.453 433.724 590.632C433.929 592.81 433.806 595.112 433.21 597.394C432.634 599.675 431.441 601.916 429.837 603.745L430.31 603.087C429.92 603.765 429.447 604.279 429.015 604.67C428.912 604.772 428.809 604.855 428.686 604.937C428.583 605.019 428.46 605.101 428.377 605.183L428.069 605.389L427.925 605.492L427.781 605.574C427 606.026 426.321 606.293 425.663 606.519C425.005 606.745 424.388 606.91 423.771 607.054C423.155 607.198 422.558 607.321 421.982 607.424C419.638 607.835 417.397 608.04 415.176 608.184C410.735 608.472 406.376 608.534 402.037 608.554C393.36 608.575 384.765 608.349 376.211 608.287H375.409H374.997L374.524 608.266C373.887 608.266 373.27 608.205 372.633 608.143C371.378 607.999 370.124 607.773 368.89 607.444C366.443 606.787 364.12 605.697 362.002 604.3C359.905 602.881 358.033 601.114 356.512 599.1C354.99 597.086 353.777 594.804 352.996 592.399C352.605 591.187 352.297 589.954 352.111 588.7C352.05 588.392 352.029 588.063 351.988 587.754C351.947 587.446 351.926 587.117 351.906 586.809C351.885 586.501 351.865 586.172 351.865 585.864V585.391V585.165V584.939L351.906 578.485L351.988 565.598L352.399 514.01L352.543 501.123C352.626 496.828 352.667 492.532 352.769 488.236C352.955 479.645 353.181 471.033 353.551 462.442C353.592 461.332 354.538 460.469 355.648 460.51C356.697 460.551 357.54 461.415 357.581 462.442C357.91 471.033 358.116 479.645 358.26 488.236C358.342 492.532 358.383 496.828 358.445 501.144L358.548 514.051L358.712 565.639L358.733 578.547L358.753 585L358.774 585.679C358.774 585.905 358.794 586.131 358.815 586.336C358.835 586.562 358.835 586.788 358.877 586.994C358.918 587.22 358.918 587.426 358.959 587.652C359.103 588.535 359.329 589.378 359.596 590.221C360.151 591.886 361.015 593.468 362.084 594.866C363.153 596.263 364.49 597.476 365.95 598.463C366.69 598.956 367.472 599.367 368.274 599.737C369.075 600.107 369.918 600.395 370.762 600.621C371.605 600.847 372.489 601.011 373.373 601.093C373.805 601.114 374.257 601.155 374.689 601.155H375.018H375.429H376.231C384.888 601.155 393.483 601.319 402.016 601.278C406.273 601.258 410.529 601.176 414.683 600.888C416.739 600.744 418.795 600.538 420.708 600.189C421.181 600.107 421.633 600.004 422.085 599.901C422.517 599.798 422.928 599.675 423.298 599.552C423.648 599.429 423.956 599.285 424.121 599.202L424.162 599.182C424.162 599.182 424.183 599.182 424.183 599.161C424.203 599.161 424.203 599.141 424.224 599.141C424.203 599.161 424.08 599.264 423.956 599.49L424.429 598.833C424.532 598.709 424.614 598.586 424.717 598.463L424.861 598.278C424.902 598.216 424.943 598.154 424.985 598.072C425.067 597.949 425.149 597.805 425.252 597.682C425.334 597.538 425.396 597.394 425.478 597.271L425.601 597.065C425.643 597.003 425.663 596.921 425.704 596.839L425.889 596.407C425.951 596.263 425.992 596.099 426.054 595.935C426.115 595.77 426.157 595.626 426.198 595.462C426.527 594.167 426.65 592.728 426.486 591.248C426.342 589.748 425.992 588.227 425.457 586.706C424.943 585.185 424.244 583.705 423.442 582.267C421.818 579.389 419.741 576.697 417.335 574.292C416.143 573.1 414.868 571.949 413.531 570.88C412.195 569.832 410.797 568.846 409.337 567.921L409.275 567.88C408.082 567.119 407.507 565.763 407.63 564.468C408.391 557.171 409.213 549.896 410.056 542.599L411.352 531.686L412.688 520.772C413.141 517.134 413.593 513.496 414.066 509.858L414.765 504.412L415.505 498.965C415.999 495.327 416.513 491.689 417.047 488.072C417.582 484.434 418.117 480.817 418.713 477.179C418.857 476.295 419.7 475.678 420.584 475.822C421.407 476.028 421.982 476.747 421.941 477.569Z" fill="#000072"/>
<path d="M447.11 461.393C447.171 461.846 447.213 462.154 447.254 462.524L447.356 463.572L447.439 464.6L447.5 465.607C447.583 466.963 447.665 468.299 447.706 469.635C447.809 472.307 447.85 474.958 447.871 477.61C447.891 480.261 447.85 482.892 447.809 485.523L447.706 489.469L447.562 493.415C447.521 494.566 446.555 495.47 445.403 495.429C444.375 495.388 443.552 494.607 443.409 493.641V493.621L442.874 489.757L442.298 485.913C441.887 483.344 441.476 480.795 441.003 478.247C440.55 475.698 440.057 473.17 439.502 470.683C439.234 469.43 438.947 468.196 438.638 466.963L438.412 466.059L438.165 465.155L437.918 464.271L437.795 463.839L437.733 463.634L437.713 463.531L437.692 463.469C436.705 460.962 437.918 458.125 440.427 457.118C442.936 456.132 445.773 457.344 446.781 459.852C446.925 460.201 447.007 460.551 447.069 460.9L447.11 461.393Z" fill="#000072"/>
<path d="M251.192 466.183L251.171 466.244L251.151 466.347L251.089 466.553L250.966 466.984L250.719 467.868L250.472 468.772L250.246 469.677C249.937 470.889 249.65 472.143 249.382 473.397C248.827 475.884 248.334 478.412 247.881 480.96C247.408 483.509 246.997 486.057 246.586 488.627L246.01 492.47L245.475 496.334V496.355C245.311 497.506 244.262 498.307 243.111 498.143C242.083 497.999 241.342 497.136 241.301 496.128L241.157 492.182L241.054 488.236C241.013 485.605 240.972 482.954 240.993 480.323C241.013 477.672 241.054 475.02 241.157 472.349C241.219 471.013 241.281 469.677 241.363 468.32L241.445 467.313L241.527 466.285L241.63 465.237C241.671 464.867 241.692 464.559 241.774 464.107L241.836 463.675C242.247 461.003 244.735 459.174 247.408 459.585C250.081 459.996 251.911 462.483 251.5 465.155C251.438 465.484 251.336 465.854 251.192 466.183Z" fill="#000072"/>
<path d="M386.266 401.276C369.61 402.55 350.96 402.756 330.151 401.728C287.69 399.632 253.721 390.67 227.812 377.105C173.671 348.783 154.816 300.483 167.461 253.396C174.658 226.595 192.033 200.184 218.929 178.09C218.929 178.09 219.587 159.058 222.836 137.004C226.866 109.73 234.844 77.7701 250.451 71.4192C257.052 67.1236 267.559 68.2746 279.814 74.1322C291.268 79.5994 304.263 89.136 317.094 102.126C322.81 107.922 328.485 114.396 333.976 121.507C334.634 122.37 335.292 123.234 335.97 124.117C335.97 124.117 348.719 122.411 363.997 123.604C379.521 124.816 392.948 128.577 392.948 128.577C392.948 128.577 395.745 124.528 400.433 118.753C400.433 118.753 400.433 118.753 400.454 118.732C412.647 103.708 437.507 77.0508 458.625 79.7638C467.261 80.8942 474.828 88.6838 481.141 100.687C490.414 118.321 497.035 145.102 500.572 173.527C502.525 189.168 503.533 205.323 503.533 220.717C503.554 220.717 585.31 386.149 386.266 401.276Z" fill="#8C8CAA"/>
<g opacity="0.6">
<path d="M397.822 140.91C397.863 141.362 397.843 141.814 397.74 142.266C396.814 146.233 390.235 148.083 383.058 146.418C375.882 144.732 370.824 140.149 371.749 136.203C371.872 135.689 372.078 135.196 372.407 134.744C368.994 134.209 365.519 133.798 362.085 133.531C302.413 129.03 244.118 158.729 239.122 161.339C244.283 158.421 307.491 123.46 361.509 123.46C417.007 123.46 474.437 181.461 476.226 183.269C474.725 182.077 440.181 154.66 397.822 140.91Z" fill="white"/>
</g>
<g opacity="0.6">
<path d="M500.593 173.547C494.321 142.923 476.247 94.4795 457.515 88.8479C438.309 83.0725 401.688 117.766 400.475 118.753C412.668 103.728 437.528 77.071 458.646 79.784C467.282 80.9144 474.849 88.704 481.161 100.707C490.414 118.342 497.056 145.122 500.593 173.547Z" fill="white"/>
</g>
<g opacity="0.6">
<path d="M317.073 102.146C298.156 89.8554 272.371 72.8991 255.263 78.7361C242.206 83.1962 230.506 111.868 222.856 137.025C226.866 109.73 234.844 77.7701 250.451 71.4192C257.052 67.1236 267.559 68.2746 279.814 74.1322C291.247 79.5994 304.242 89.136 317.073 102.146Z" fill="white"/>
</g>
<g opacity="0.3">
<path d="M333.955 121.508C301.878 130.9 270.54 142.883 240.375 157.25C244.036 145.863 251.829 136.306 259.499 127.119C267.168 117.931 275.064 108.518 279.074 97.2345C280.966 91.9318 281.809 86.1769 281.356 80.5659C281.192 78.5723 280.431 76.3525 279.773 74.1328C296.346 82.0252 316.127 98.4677 333.955 121.508Z" fill="#000072"/>
</g>
<g opacity="0.3">
<path d="M395.046 125.7C424.265 138.566 449.577 160.763 473.718 182.344C472.546 160.393 468.783 138.566 462.532 117.478C460.887 111.95 458.831 106.113 454.245 102.598C449.989 99.3506 444.355 98.7135 439.399 96.6993C435.842 95.24 432.346 92.3626 431.154 88.9508C430.681 87.5943 430.578 86.1761 430.948 84.6963C415.937 94.3562 403.086 107.325 393.524 122.391" fill="#000072"/>
</g>
<path d="M238.772 161.524C241.096 139.162 245.126 120.788 253.639 99.5771C264.742 107.839 275.558 124.631 281.213 138.669C281.213 138.669 254.667 150.487 238.772 161.524Z" fill="#FF85BE"/>
<path d="M419.865 140.602C431.112 127.776 440.838 118.589 452.991 110.039C463.005 126.05 472.71 162.532 476.247 183.311C476.247 183.311 449.084 151.618 419.865 140.602Z" fill="#FF85BE"/>
<path d="M457.473 360.56C454.348 372.029 443.902 398.378 386.266 401.297C372.263 402.016 350.96 402.777 330.151 401.749C287.69 399.652 253.721 390.691 227.812 377.126C224.09 374.783 220.389 372.378 216.914 369.686C205.893 361.198 196.496 348.044 198.922 334.335C200.505 325.312 207.003 317.81 214.549 312.59C222.075 307.39 230.711 304.039 238.977 300.073C255.016 292.386 269.862 282.233 282.837 270.086C289.026 264.269 294.887 257.959 302.104 253.479C309.321 249.019 318.369 246.552 326.409 249.327C335.806 252.574 341.46 261.864 348.39 269.017C360.316 281.349 376.91 287.864 393.092 293.537C409.296 299.209 426.054 304.594 439.378 315.405C452.723 326.216 461.976 343.995 457.473 360.56Z" fill="white"/>
<path d="M355.607 407.216C347.32 407.216 338.746 406.99 329.925 406.558C288.718 404.523 253.618 396.055 225.591 381.401C186.769 361.095 163.287 329.402 159.421 292.18C158.373 282.047 158.825 271.648 160.737 261.268C162.65 250.93 166.042 240.571 170.792 230.521C175.604 220.368 181.814 210.502 189.278 201.171C196.475 192.169 204.844 183.639 214.2 175.767C214.508 169.273 215.701 149.418 219.34 128.249C221.931 113.265 225.221 100.769 229.128 91.1298C234.351 78.2841 240.581 70.4122 248.189 67.1443C257.73 61.2661 272.473 63.7119 289.828 74.0707C306.216 83.854 323.304 99.762 338.15 119.041C342.858 118.589 352.872 117.91 364.367 118.815C375.738 119.699 385.937 121.898 390.954 123.11C394.347 118.506 401.831 108.867 411.413 99.3715C429.467 81.4492 445.567 73.2486 459.262 74.9956C467.508 76.0849 475.033 81.7986 481.654 91.993C487.247 100.605 492.203 112.382 496.357 126.974C503.903 153.488 508.283 187.195 508.386 219.648C508.529 219.957 508.673 220.285 508.838 220.614C509.352 221.765 510.195 223.656 511.182 226.081C512.909 230.356 515.48 237.201 517.906 245.545C522.183 260.364 526.789 282.87 524.362 306.033C521.607 332.361 510.606 354.024 491.668 370.426C480.523 380.065 466.521 387.916 450.029 393.774C432.12 400.125 410.796 404.277 386.677 406.126C376.848 406.846 366.485 407.216 355.607 407.216ZM260.259 73.6596C257.381 73.6596 254.954 74.2557 253.083 75.4888C252.816 75.6533 252.548 75.7971 252.261 75.9205C242.514 79.8872 234.207 99.0221 228.902 129.811C224.645 154.433 223.782 178.049 223.761 178.275C223.72 179.652 223.062 180.967 221.993 181.831C184.343 212.804 165.035 252.657 169.024 291.194C172.54 325.086 194.213 354.086 230.053 372.83C256.825 386.848 290.589 394.946 330.377 396.898C350.364 397.885 369.034 397.72 385.875 396.446C445.547 391.904 485.109 373.283 503.492 341.096C518.358 315.076 516.467 284.493 512.272 263.426C507.789 240.921 499.79 224.088 499.215 222.916C498.865 222.259 498.68 221.498 498.68 220.717C498.68 189.25 494.321 155.194 487.021 129.585C479.269 102.393 468.68 85.9709 457.967 84.5528C447.583 83.2168 433.847 90.6776 418.281 106.092C405.964 118.301 396.958 131.208 396.876 131.332C395.704 133.017 393.586 133.798 391.591 133.222C391.468 133.181 378.39 129.564 363.565 128.413C349.006 127.283 336.669 128.886 336.546 128.906C334.818 129.132 333.091 128.413 332.043 127.015C317.567 107.737 300.788 91.8697 284.831 82.333C275.311 76.6604 266.675 73.6596 260.259 73.6596Z" fill="#000072"/>
<path d="M476.247 188.141C475.301 188.141 474.376 187.771 473.676 187.072C462.223 175.624 440.592 157.784 418.528 145.185C418.22 145.061 417.911 144.897 417.623 144.671C408.72 139.635 399.775 135.484 391.427 132.976C389.515 132.401 388.425 130.387 389.001 128.455C389.576 126.543 391.591 125.454 393.524 126.029C401.708 128.496 410.406 132.442 419.083 137.21C430.249 124.714 439.605 116.225 450.893 108.271C451.716 107.696 452.723 107.49 453.69 107.675C454.656 107.881 455.52 108.456 456.055 109.299C466.541 126.07 476.267 163.004 479.804 183.886C480.071 185.448 479.29 186.99 477.892 187.709C477.378 187.997 476.823 188.141 476.247 188.141ZM425.519 140.91C442.504 151.042 458.892 163.765 470.53 174.165C466.5 155.523 459.386 130.633 451.86 116.534C442.751 123.255 434.752 130.674 425.519 140.91Z" fill="#000072"/>
<path d="M238.772 166.355C238.134 166.355 237.497 166.19 236.921 165.841C235.708 165.121 235.009 163.744 235.153 162.347C237.682 138.135 242.062 119.905 250.266 99.4336C250.678 98.3854 251.562 97.6044 252.651 97.2961C253.741 96.9878 254.893 97.2139 255.798 97.8716C267.107 106.298 277.388 122.206 283.228 135.36C299.04 129.441 316.313 125.002 335.888 121.754C337.862 121.425 339.733 122.761 340.062 124.735C340.391 126.708 339.055 128.578 337.081 128.907C297.807 135.443 268.114 146.788 240.828 165.697C240.211 166.128 239.492 166.355 238.772 166.355ZM255.181 106.812C249.238 122.576 245.599 137.354 243.275 155.379C253.824 148.617 264.763 142.883 276.483 138.053C271.795 127.591 263.879 114.869 255.181 106.812Z" fill="#000072"/>
<path d="M288.985 290.721C288.78 292.735 289.355 295.037 290.589 296.825C290.898 297.277 291.247 297.688 291.617 298.079C292.008 298.448 292.399 298.777 292.851 299.086C293.303 299.373 293.797 299.641 294.332 299.867C294.866 300.072 295.401 300.237 295.977 300.36C296.532 300.463 297.107 300.524 297.683 300.545C298.259 300.545 298.835 300.504 299.39 300.401C299.945 300.278 300.5 300.134 301.014 299.908C301.528 299.682 302.042 299.394 302.536 299.045C304.489 297.667 306.011 295.324 306.34 292.858L310.905 293.166C310.843 296.578 312.344 299.969 314.709 302.251C315.305 302.806 315.943 303.32 316.621 303.731C317.3 304.142 318.019 304.471 318.76 304.738C319.52 304.984 320.281 305.169 321.063 305.272C321.844 305.354 322.646 305.375 323.427 305.334C324.209 305.272 324.99 305.128 325.73 304.943C326.471 304.717 327.17 304.45 327.848 304.121C328.506 303.772 329.103 303.361 329.658 302.909C330.213 302.436 330.706 301.901 331.159 301.326C331.591 300.73 331.981 300.113 332.331 299.456C332.639 298.798 332.907 298.099 333.092 297.421C333.277 296.722 333.379 296.023 333.421 295.324C333.441 294.626 333.4 293.947 333.318 293.29C332.927 290.638 334.757 288.172 337.41 287.781C340.062 287.391 342.53 289.22 342.92 291.871C342.941 292.036 342.962 292.221 342.962 292.385V292.447C343.023 293.824 342.92 295.181 342.715 296.517C342.468 297.832 342.118 299.127 341.646 300.36C341.152 301.593 340.556 302.744 339.857 303.854C339.137 304.943 338.335 305.971 337.43 306.916C336.505 307.841 335.497 308.684 334.408 309.424C333.297 310.143 332.125 310.76 330.912 311.233C329.699 311.685 328.465 312.014 327.211 312.219C325.956 312.404 324.702 312.486 323.448 312.445C322.194 312.383 320.96 312.219 319.747 311.931C318.533 311.623 317.361 311.212 316.23 310.678C315.1 310.123 314.03 309.465 313.043 308.704C312.077 307.923 311.193 307.06 310.391 306.135C309.609 305.19 308.951 304.183 308.376 303.135C307.82 302.066 307.348 300.956 306.998 299.826C306.669 298.675 306.422 297.503 306.299 296.332C306.196 295.139 306.217 293.947 306.34 292.776C306.484 291.522 307.615 290.618 308.869 290.762C310.041 290.885 310.905 291.892 310.905 293.043V293.084C310.884 294.05 310.781 295.016 310.576 295.962C310.35 296.907 310.062 297.811 309.671 298.695C309.28 299.579 308.787 300.422 308.232 301.223C307.656 302.004 307.019 302.765 306.319 303.443C305.6 304.121 304.798 304.738 303.934 305.272C303.05 305.807 302.125 306.238 301.158 306.567C300.192 306.896 299.205 307.122 298.197 307.266C297.19 307.389 296.182 307.43 295.154 307.369C294.146 307.307 293.139 307.142 292.131 306.896C291.144 306.629 290.157 306.3 289.211 305.848C288.266 305.395 287.34 304.861 286.497 304.224C285.654 303.587 284.873 302.888 284.153 302.127C283.454 301.346 282.796 300.524 282.22 299.661C281.665 298.777 281.172 297.852 280.74 296.886C280.329 295.92 280 294.913 279.753 293.886C279.506 292.858 279.362 291.789 279.28 290.7L279.259 290.433C279.095 287.761 281.13 285.438 283.804 285.274C286.477 285.11 288.8 287.144 288.965 289.816C289.026 290.166 289.006 290.453 288.985 290.721Z" fill="#000072"/>
<path d="M306.833 294.605C315.017 295.345 325.607 283.836 322.625 279.129C319.664 274.443 301.734 271.75 296.429 277.711C291.144 283.692 301.302 294.092 306.833 294.605Z" fill="#000072"/>
<path d="M409.871 257.939C402.099 258.041 394.47 259.768 387.499 262.748C380.508 265.728 374.154 269.983 368.746 275.121L364.346 266.756C368.315 265.872 372.263 265.482 376.169 265.399C380.076 265.338 383.921 265.584 387.705 266.057C391.488 266.55 395.21 267.249 398.87 268.154C402.53 269.058 406.129 270.127 409.666 271.36C410.838 271.771 411.455 273.045 411.043 274.196C410.673 275.285 409.542 275.881 408.452 275.635C404.936 274.854 401.4 274.237 397.842 273.806C394.285 273.374 390.748 273.127 387.211 273.086C383.695 273.066 380.179 273.251 376.786 273.723C373.373 274.196 370.062 274.936 366.958 276.046L366.258 276.169C363.668 276.663 361.179 274.977 360.686 272.387C360.336 270.538 361.118 268.708 362.537 267.66C369.446 262.604 377.177 258.781 385.258 256.479C393.339 254.177 401.811 253.396 410.015 254.342C411.002 254.465 411.701 255.349 411.598 256.336C411.537 257.26 410.755 257.939 409.871 257.939Z" fill="#000072"/>
<g opacity="0.3">
<path d="M178.339 329.545C188.887 344.2 203.939 357.23 223.72 367.589C249.629 381.134 283.598 390.115 326.059 392.212C346.868 393.239 365.498 393.013 382.174 391.76C581.197 376.612 499.441 211.18 499.441 211.18C499.441 173.856 493.498 132.092 482.642 103.729C487.988 128.598 495.596 182.303 490.496 210.029C484.718 241.373 507.872 266.735 478.94 313.021C466.829 332.402 447.048 346.214 425.478 353.736C403.888 361.259 262.85 381.627 187.9 307.019C184.343 303.463 181.341 299.476 178.832 295.201C171.45 285.5 167.235 273.579 165.117 261.206C161.066 286.158 165.94 310.986 180.292 332.546C179.593 331.56 178.956 330.573 178.339 329.545Z" fill="#000072"/>
</g>
<path d="M270.417 215.024C259.725 212.619 249.012 224.15 246.483 240.798C243.954 257.446 250.595 272.881 261.288 275.306C271.98 277.711 282.693 266.181 285.222 249.533C287.731 232.885 281.11 217.449 270.417 215.024Z" fill="#000072"/>
<path d="M269.224 221.992C265.708 223.143 263.878 228.692 265.153 234.406C266.428 240.12 270.314 243.799 273.851 242.648C277.367 241.497 279.197 235.948 277.922 230.234C276.647 224.541 272.761 220.841 269.224 221.992Z" fill="white"/>
<path d="M272.535 243.511C271.61 243.511 270.664 243.244 269.759 242.73C267.312 241.332 265.359 238.27 264.516 234.55C263.159 228.425 265.133 222.65 269.039 221.375C270.438 220.923 271.918 221.108 273.337 221.91C275.784 223.307 277.737 226.37 278.58 230.09C279.937 236.215 277.964 241.99 274.057 243.264C273.543 243.429 273.049 243.511 272.535 243.511ZM270.54 222.444C270.17 222.444 269.8 222.506 269.43 222.629C266.222 223.677 264.598 228.898 265.791 234.262C266.551 237.633 268.258 240.387 270.397 241.6C271.486 242.216 272.597 242.36 273.645 242.031C276.853 240.983 278.478 235.763 277.285 230.398C276.524 227.027 274.817 224.273 272.679 223.061C271.959 222.629 271.24 222.444 270.54 222.444Z" fill="#000072"/>
<path d="M255.489 256.808C253.782 257.918 253.392 261.042 254.625 263.796C255.839 266.55 258.224 267.886 259.931 266.776C261.637 265.666 262.028 262.542 260.794 259.788C259.56 257.055 257.196 255.698 255.489 256.808Z" fill="#B199C5"/>
<path d="M258.614 267.845C258.285 267.845 257.956 267.804 257.627 267.701C256.188 267.27 254.831 265.913 254.008 264.084C252.631 261.001 253.124 257.569 255.119 256.274C255.9 255.76 256.805 255.637 257.751 255.924C259.19 256.356 260.547 257.713 261.37 259.542C262.747 262.625 262.254 266.057 260.259 267.352C259.766 267.681 259.19 267.845 258.614 267.845ZM255.838 257.363C254.42 258.288 254.132 261.124 255.201 263.55C255.859 265.05 256.908 266.119 257.997 266.448C258.573 266.612 259.087 266.55 259.54 266.263C260.958 265.338 261.246 262.501 260.177 260.076C259.519 258.576 258.47 257.507 257.381 257.178C256.825 257.014 256.291 257.075 255.838 257.363Z" fill="#000072"/>
</g>
<defs>
<clipPath id="clip0_249_10094">
<rect width="400" height="547" fill="white" transform="translate(125 64)"/>
</clipPath>
</defs>
</svg>
