<svg width="626" height="611" viewBox="0 0 626 611" fill="none" xmlns="http://www.w3.org/2000/svg">
<ellipse cx="313" cy="299.5" rx="313" ry="299.5" fill="#B0A2D7"/>
<path d="M260.296 468.183C260.296 468.183 299.329 510.661 296.902 536.793C294.474 562.926 259.905 557.856 254.972 540.611C250.039 523.345 240.389 508.664 238.372 510.602C236.356 512.54 201.297 536.891 188.358 511.013C175.439 485.135 217.036 471.08 225.022 467.322C236.767 461.782 242.562 458.591 248.395 454.441C248.884 454.598 260.296 468.183 260.296 468.183Z" fill="#FFDB45"/>
<g opacity="0.5">
<path d="M268.048 510.896C268.479 509.095 272.1 505.649 276.974 509.055C284.217 514.106 292.576 532.859 286.39 540.865C280.204 548.871 273.431 538.124 271.787 525.166C271.004 519.019 266.874 515.828 268.048 510.896Z" fill="white"/>
</g>
<path d="M215.411 476.992C220.167 474.936 230.621 471.374 231.717 477.814C232.813 484.254 216.39 490.577 211.926 499.229C207.463 507.881 205.917 518.843 197.226 514.536C188.515 510.249 185.441 489.97 215.411 476.992Z" fill="#FFA124"/>
<path d="M252.212 487.347C251.82 497.858 256.616 507.352 260.57 516.827C264.407 525.909 271.317 540.14 260.277 546.933C259.572 547.364 258.848 547.677 258.123 548.049L255.716 541.706C260.198 540.532 261.236 536.695 260.825 532.624C260.414 527.749 258.808 522.758 257.379 517.982C254.463 508.174 250.646 497.761 252.212 487.347Z" fill="#000072"/>
<path d="M260.864 484.078C264.231 496.899 272.1 507.548 278.892 518.745C285.313 529.218 291.929 542.215 283.179 553.549C282.181 554.861 280.576 556.466 279.362 557.601L275.075 552.336C286.957 544.114 281.124 530.901 275.917 520.37C270.162 508.762 263.076 497.095 260.864 484.078Z" fill="#000072"/>
<path d="M235.064 489.618C233.498 494.57 233.459 499.503 233.674 504.632C234.027 510.446 232.774 516.416 228.154 520.625L223.906 515.339C228.037 513.01 229.466 509.017 230.307 504.338C231.169 499.346 232.461 494.061 235.064 489.618Z" fill="#000072"/>
<path d="M229.289 483.53C221.694 487.738 216.566 494.962 210.615 501.147C204.625 507.274 195.033 519.117 185.5 512.188L189.944 507.059C194.955 512.716 213.238 493.767 218.229 490.361C221.635 487.719 225.179 484.978 229.289 483.53Z" fill="#000072"/>
<path d="M277.444 558.091C267.069 558.091 255.03 552.14 251.977 541.472C248.199 528.219 241.759 517.277 238.861 514.145C233.459 518.001 216.8 528.024 202.55 525.577C195.013 524.285 189.298 519.861 185.578 512.403C182.407 506.06 181.937 499.836 184.13 493.865C189.65 478.91 210.458 470.121 220.441 465.912C221.772 465.344 222.927 464.855 223.671 464.503C235.338 459.002 240.917 455.929 246.574 451.896C247.357 451.329 248.375 451.172 249.295 451.466C250.391 451.799 250.646 451.877 262.606 466.127C264.818 468.535 302.461 510.093 299.975 537.087C298.859 549.086 291.342 556.897 279.832 557.973C279.068 558.052 278.266 558.091 277.444 558.091ZM238.822 507.333C239.175 507.333 239.527 507.372 239.879 507.47C245.282 508.918 254.032 526.007 257.967 539.749C260.296 547.912 270.886 552.571 279.284 551.788C283.258 551.416 292.654 549.184 293.828 536.519C296.099 512.05 258.397 470.708 258.025 470.297C257.986 470.258 257.967 470.238 257.927 470.199C254.228 465.795 250.176 461.038 247.983 458.532C242.679 462.095 236.923 465.168 226.353 470.16C225.492 470.571 224.337 471.06 222.888 471.667C214.412 475.249 194.563 483.628 189.983 496.058C188.377 500.403 188.769 504.866 191.157 509.662C193.937 515.222 197.911 518.412 203.294 519.43C216.742 521.955 234.633 509.838 236.238 508.39C236.923 507.685 237.844 507.333 238.822 507.333ZM240.525 512.853C240.506 512.873 240.506 512.873 240.486 512.892C240.506 512.873 240.525 512.853 240.525 512.853Z" fill="#000072"/>
<path d="M200.769 358.563C200.769 358.563 187.007 382.523 175.869 386.066C159.563 391.234 164.144 370.288 156.373 366.843C148.21 363.202 141.789 353.591 152.262 346.818C161.893 340.613 181.017 347.288 190.472 343.803C190.472 343.803 198.38 340.006 202.256 345.917C205.467 350.831 200.769 358.563 200.769 358.563Z" fill="#FFDB45"/>
<path d="M187.34 346.544C179.823 347.875 164.203 347.209 158.526 348.932C151.264 351.163 150.852 356.644 154.591 360.364C158.33 364.083 163.165 365.825 163.968 372.539C164.751 379.234 167.902 369.818 166.18 365.238C163.909 359.228 158.33 355.333 168.02 353.591C183.327 350.85 194.877 345.232 187.34 346.544Z" fill="#FFA124"/>
<path d="M200.769 358.563C196.873 369.603 184.756 388.884 171.817 389.393C168.333 389.804 164.203 387.671 162.441 384.656C159.837 380.506 159.407 376.572 157.743 372.52C157.156 371.13 156.627 370.171 155.707 369.486C150.422 366.96 145.293 362.771 144.334 356.605C143.571 352.123 146.311 347.777 149.913 345.33L150.892 344.625L151.988 344.038C152.614 343.686 153.534 343.255 154.239 343.059C154.904 342.824 155.844 342.511 156.529 342.413C162.441 341.141 168.176 342.139 173.931 342.922C179.432 343.627 184.933 344.958 190.472 343.842C188.632 344.723 186.361 345.252 184.326 345.545C174.988 346.779 164.986 344.919 156.02 347.914L155.179 348.208L154.435 348.619L153.691 349.01L152.967 349.539C152.281 349.969 151.596 350.674 151.029 351.222C150.578 351.809 150.089 352.494 149.815 353.14C148.366 356.821 151.361 360.481 154.239 362.556C155.374 363.457 156.725 364.063 157.997 364.729C160.248 365.864 161.834 368.487 162.617 370.503C164.163 374.144 164.907 378.823 166.806 381.818C169.253 385.948 174.793 384.323 178.257 382.248C182.681 379.488 186.361 375.26 189.846 371.286C193.467 367.097 196.971 362.791 200.769 358.563Z" fill="#000072"/>
<path d="M185.911 352.69C180.626 356.175 174.44 358.328 168.098 358.994C165.103 359.405 154.2 360.227 155.864 364.572L150.813 365.669C150.344 363.496 151.205 360.56 153.045 359.189C157.547 355.881 163.048 356.586 168.02 356.605C174.147 356.762 180.372 355.431 185.911 352.69Z" fill="#000072"/>
<path d="M189.2 359.875C185.578 364.768 181.057 368.957 176.045 372.461C174.225 373.792 165.103 379.391 167.511 381.427L161.677 384.891C160.444 382.856 160.503 379.41 161.912 377.472C165.044 373.029 170.055 371.58 174.401 369.525C179.745 367.117 184.835 363.907 189.2 359.875Z" fill="#3A3A3A"/>
<path d="M238.196 480.32C253.21 487.347 324.228 426.391 296.138 320.372C275.076 240.917 183.856 213.375 150.637 260.277C145.215 267.911 144.138 283.317 147.818 297.274C153.593 319.178 167.315 341.376 194.935 368.312C242.875 415.076 230.268 476.6 238.196 480.32Z" fill="#29CDFF"/>
<path d="M238.196 480.319C237.746 480.124 237.374 479.713 237.041 479.145C231.521 469.69 240.193 412.453 194.916 368.292C167.315 341.376 153.574 319.158 147.799 297.254C144.119 283.317 145.195 267.911 150.618 260.277C169.273 233.948 206.172 231.071 238.705 247.67C264.133 260.629 286.899 285.509 296.138 320.372C324.228 426.39 253.21 487.347 238.196 480.319Z" fill="#29CDFF"/>
<path d="M267.206 464.425C255.129 477.129 243.364 482.727 238.196 480.319C237.746 480.124 237.374 479.713 237.041 479.145C231.521 469.69 240.193 412.453 194.935 368.292C167.315 341.357 153.593 319.159 147.818 297.254C144.138 283.317 145.215 267.911 150.637 260.277C169.292 233.949 206.211 231.071 238.725 247.651C248.297 252.525 257.497 259.102 265.719 267.246C279.362 280.752 290.383 298.605 296.138 320.353C314.578 389.961 290.305 440.152 267.206 464.425Z" fill="#29CDFF"/>
<path d="M267.206 464.425C257.458 470.982 246.163 475.954 248.669 461.547C252.956 437.02 265.601 415.213 252.036 358.25C242.64 318.708 249.765 282.494 265.699 267.265C279.343 280.772 290.363 298.624 296.119 320.372C314.578 389.961 290.305 440.152 267.206 464.425Z" fill="#2CAAFF"/>
<path d="M238.45 426.332C240.114 451.583 239.214 469.494 237.021 479.145C231.501 469.69 240.173 412.453 194.896 368.292C167.295 341.376 153.554 319.158 147.779 297.254C144.099 283.317 145.175 267.911 150.598 260.277C169.253 233.948 206.152 231.071 238.685 247.67C250.9 263.898 262.058 296.021 218.797 323.621C189.591 342.237 235.064 374.888 238.45 426.332Z" fill="#E3FBFF"/>
<path d="M240.956 483.412C239.527 483.412 238.235 483.158 237.1 482.629C233.439 480.926 232.93 475.308 231.913 464.131C229.955 442.599 226.295 402.509 193.115 370.132C166.708 344.371 151.518 321.429 145.313 297.92C141.398 283.082 142.709 266.991 148.523 258.809C161.991 239.782 186.048 231.326 212.827 236.161C231.188 239.469 249.491 248.826 264.388 262.509C280.831 277.621 292.654 297.411 298.585 319.726C307.824 354.629 307.413 387.632 297.352 417.797C286.683 449.763 268.753 467.244 261.53 473.273C253.66 479.83 246.32 483.412 240.956 483.412ZM239.351 478.049C242.17 479.263 249.51 476.679 258.28 469.358C265.17 463.603 282.279 446.905 292.536 416.172C302.285 386.966 302.657 354.961 293.672 321.018C281.163 273.784 243.599 246.888 211.946 241.152C186.792 236.611 165.201 244.108 152.712 261.745C147.799 268.675 146.781 283.336 150.265 296.608C156.216 319.198 170.976 341.396 196.697 366.471C231.227 400.16 234.986 441.463 237.022 463.661C237.57 469.847 238.196 476.855 239.351 478.049Z" fill="#000072"/>
<path d="M249.628 275.957C254.15 293.868 241.622 311.309 226.803 320.137C221.831 323.152 216.507 325.618 210.85 326.91C220.148 320.568 229.074 313.873 236.415 305.515C243.794 297.235 248.492 287.036 249.628 275.957Z" fill="#000072"/>
<path d="M206.034 354.061C206.034 354.061 209.421 381.485 202.667 390.999C192.743 404.936 183.817 385.439 175.517 387.338C166.806 389.335 155.883 385.518 160.209 373.812C164.163 363.065 183.484 356.899 188.945 348.443C188.945 348.443 192.978 340.652 199.633 343.059C205.153 345.037 206.034 354.061 206.034 354.061Z" fill="#FFDB45"/>
<path d="M188.104 352.514C182.877 358.093 169.997 366.941 166.512 371.737C162.049 377.883 165.005 382.523 170.232 383.247C175.458 383.971 180.372 382.464 185.03 387.338C189.689 392.212 186.538 382.797 182.407 380.174C176.985 376.729 170.173 376.963 176.887 369.76C187.477 358.367 193.33 346.935 188.104 352.514Z" fill="#FFA124"/>
<path d="M206.035 354.061C209.558 365.238 211.457 387.906 201.415 396.088C198.89 398.516 194.29 399.299 191.079 397.928C187.869 396.715 185.54 394.855 183.288 393.25C181.233 391.841 178.943 389.883 176.574 389.844C170.839 390.999 164.222 390.725 159.74 386.399C156.451 383.267 156.001 378.138 157.43 374.027L157.782 372.872L158.311 371.737C158.604 371.072 159.074 370.171 159.505 369.603C159.877 369.016 160.464 368.194 160.934 367.705C164.888 363.124 170.075 360.481 175.145 357.643C179.98 354.903 185.168 352.671 188.906 348.443C187.967 350.244 186.46 352.045 185.011 353.493C178.277 360.09 169.175 364.612 163.811 372.383L163.322 373.127L162.97 373.89L162.617 374.654L162.363 375.515C162.089 376.279 161.952 377.238 161.834 378.04C161.834 378.784 161.854 379.626 162.03 380.311C163.087 384.109 167.687 385.244 171.23 385.185C172.679 385.224 174.127 384.892 175.537 384.657C178.023 384.206 180.861 385.361 182.701 386.477C186.127 388.454 189.533 391.743 192.861 392.996C197.285 394.836 200.769 390.196 202.276 386.458C204.136 381.583 204.566 376.004 204.958 370.719C205.349 365.258 205.565 359.718 206.035 354.061Z" fill="#000072"/>
<path d="M190.668 358.289C188.534 364.259 184.874 369.682 180.215 374.027C178.081 376.161 169.86 383.365 173.794 385.851L170.408 389.766C168.724 388.317 167.648 385.44 168.313 383.247C169.938 377.903 174.753 375.143 178.727 372.187C183.68 368.605 187.849 363.809 190.668 358.289Z" fill="#000072"/>
<path d="M197.598 362.047C197.5 368.096 196.286 374.125 194.27 379.841C193.448 382.562 189.083 392.134 192.9 393.035L190.923 397.83C188.906 397.028 187.106 394.581 187.047 392.408C186.851 387.182 189.826 383.032 191.921 378.804C194.642 373.597 196.658 367.92 197.598 362.047Z" fill="#000072"/>
<path d="M172.639 271.728C168.999 275.349 162.891 275.623 158.408 273.157C153.652 270.691 151.694 264.427 153.691 259.689C154.591 261.98 155.335 263.996 156.431 265.66C159.974 270.984 166.493 272.041 172.639 271.728Z" fill="#000072"/>
<path d="M203.744 286.135C205.016 281.183 204.938 274.704 201.219 271.043C197.186 267.363 191.236 268.224 185.637 269.242C190.472 261.628 202.667 260.316 207.874 268.479C211.457 274.116 209.851 283.082 203.744 286.135Z" fill="#000072"/>
<path d="M306.474 467.381C308.451 460.51 287.604 561.145 199.516 559.031C123.174 557.21 131.258 479.83 117.321 452.484C103.383 425.138 87.919 457.985 64.1941 449.489C46.8702 443.284 41.8394 410.437 69.5577 392.271C100.29 372.129 149.189 383.874 158.761 438.37C168.039 491.282 162.519 522.425 209.636 522.367C259.709 522.288 278.717 459.414 278.717 459.414" fill="white"/>
<path d="M306.474 467.381C308.451 460.51 287.604 561.145 199.516 559.031C123.174 557.21 131.258 479.83 117.321 452.484C103.383 425.138 87.919 457.985 64.1941 449.489C46.8702 443.284 41.8394 410.437 69.5577 392.271C100.29 372.129 149.189 383.874 158.761 438.37C168.039 491.282 162.519 522.425 209.636 522.367C259.709 522.288 278.717 459.414 278.717 459.414L306.474 467.381Z" fill="white"/>
<path d="M199.516 559.03C130.416 557.366 130.475 493.865 120.785 461.527C119.768 458.121 118.632 455.087 117.321 452.484C103.383 425.137 87.919 457.965 64.1941 449.469C46.8702 443.264 41.8394 410.417 69.5577 392.251C100.29 372.109 149.189 383.854 158.761 438.35C159.407 442.031 159.975 445.593 160.503 449.058C167.531 495.431 165.788 522.405 209.636 522.347C259.709 522.268 278.717 459.394 278.717 459.394L306.474 467.38C308.451 460.509 287.604 561.144 199.516 559.03Z" fill="white"/>
<path d="M199.516 559.03C130.416 557.386 130.494 493.865 120.785 461.527C119.767 458.141 118.632 455.087 117.32 452.484C103.383 425.137 87.9187 457.984 64.1742 449.489C56.2855 446.65 50.9415 438.292 50.0998 428.309C49.0819 416.387 54.465 402.137 69.5378 392.251C100.271 372.128 149.169 383.854 158.721 438.351C159.367 442.031 159.935 445.593 160.464 449.058C167.491 495.431 165.749 522.406 209.597 522.347C237.354 522.288 255.559 502.968 266.266 485.742C274.899 471.883 278.677 459.394 278.677 459.394L306.434 467.38C308.451 460.509 287.603 561.145 199.516 559.03Z" fill="white"/>
<g opacity="0.25">
<path d="M199.516 559.031C130.416 557.386 130.495 493.865 120.785 461.528C119.768 458.141 118.632 455.087 117.321 452.484C103.383 425.138 87.919 457.985 64.1745 449.489C56.2858 446.651 50.9418 438.292 50.1001 428.309C55.0526 433.966 62.6085 439.369 72.768 437.959C96.2384 434.729 108.12 414.822 126.756 440.21C145.391 465.599 125.992 525.91 181.253 545.935C221.381 560.479 268.831 532.487 266.286 485.742C274.919 471.883 278.697 459.394 278.697 459.394L306.454 467.381C308.451 460.51 287.604 561.145 199.516 559.031Z" fill="#000072"/>
</g>
<path d="M132.472 452.132C130.632 451.877 128.889 452.347 127.558 454.657C125.62 458.004 122.86 460.236 120.805 461.547C119.787 458.161 118.652 455.107 117.34 452.504C103.403 425.157 87.9385 458.004 64.194 449.509C63.1957 449.156 62.2169 448.687 61.3165 448.158C61.1207 448.041 60.925 447.943 60.7488 447.806C60.7097 447.806 60.6901 447.766 60.6705 447.747C60.5139 447.649 60.3573 447.551 60.2203 447.434C59.8875 447.218 59.5743 446.983 59.2611 446.729C59.1241 446.612 58.9675 446.494 58.8109 446.377C58.6151 446.22 58.4194 446.044 58.2236 445.868C57.2253 444.987 56.3249 444.008 55.5027 442.912C55.3461 442.697 55.1895 442.481 55.0133 442.246C54.8567 442.031 54.7001 441.796 54.5435 441.561C54.3869 441.326 54.2499 441.091 54.0933 440.856C53.9563 440.622 53.7997 440.387 53.6627 440.132C53.5256 439.878 53.3886 439.643 53.2516 439.388C53.1341 439.134 52.9971 438.879 52.8797 438.625C52.7622 438.37 52.6448 438.116 52.5273 437.842C52.0575 436.785 51.6464 435.689 51.3137 434.553C51.2354 434.279 51.1571 433.986 51.0788 433.692C51.0005 433.398 50.9222 433.124 50.8634 432.811C50.7264 432.224 50.609 431.637 50.4915 431.03C50.3349 430.129 50.2175 429.19 50.1392 428.27C55.0916 433.927 62.6476 439.33 72.807 437.92C96.2774 434.69 108.159 414.783 126.795 440.171C129.261 443.636 131.082 447.649 132.472 452.132Z" fill="#F47E1E"/>
<path d="M160.503 449.078C156.96 449.195 152.477 447.297 149.874 446.768C145.43 445.829 146.194 454.05 140.458 454.5C136.974 454.794 130.945 448.784 127.539 454.657C125.601 458.004 122.821 460.236 120.785 461.547C119.768 458.141 118.632 455.107 117.321 452.504C103.383 425.157 87.919 457.985 64.1941 449.489C46.8702 443.284 41.8394 410.437 69.5576 392.271C100.29 372.129 149.189 383.874 158.761 438.37C159.387 442.031 159.975 445.613 160.503 449.078Z" fill="#FFA124"/>
<g opacity="0.2">
<path d="M132.472 452.131C130.632 451.877 128.889 452.347 127.558 454.657C125.62 458.004 122.86 460.236 120.805 461.547C119.787 458.161 118.652 455.107 117.34 452.503C103.403 425.157 87.9385 458.004 64.194 449.508C63.1957 449.156 62.2169 448.686 61.3165 448.158C61.1207 448.04 60.925 447.942 60.7488 447.805C60.7097 447.805 60.6901 447.766 60.6705 447.747C60.5139 447.649 60.3573 447.551 60.2203 447.433C59.8875 447.218 59.5743 446.983 59.2611 446.729C59.1241 446.611 58.9675 446.494 58.8109 446.376C58.6151 446.22 58.4194 446.044 58.2236 445.867C57.2253 444.987 56.3249 444.008 55.5027 442.912C55.3461 442.696 55.1895 442.481 55.0133 442.246C54.8567 442.031 54.7001 441.796 54.5435 441.561C54.3869 441.326 54.2499 441.091 54.0933 440.856C53.9563 440.621 53.7997 440.386 53.6627 440.132C53.5256 439.878 53.3886 439.643 53.2516 439.388C53.1341 439.134 52.9971 438.879 52.8797 438.625C52.7622 438.37 52.6448 438.116 52.5273 437.842C52.0575 436.785 51.6464 435.688 51.3137 434.553C51.2354 434.279 51.1571 433.985 51.0788 433.692C51.0005 433.398 50.9222 433.124 50.8634 432.811C50.7264 432.224 50.609 431.636 50.4915 431.03C50.3349 430.129 50.2175 429.209 50.1392 428.27C53.5256 436.863 62.5693 439.936 72.807 439.31C98.9396 437.705 108.159 414.782 126.795 440.171C129.261 443.636 131.082 447.649 132.472 452.131Z" fill="#000072"/>
</g>
<path d="M202.178 562.456C201.278 562.456 200.358 562.436 199.438 562.417C139.166 560.968 129.163 514.497 121.862 480.554C119.532 469.71 117.516 460.353 114.286 454.03C107.846 441.404 102.639 443.812 92.2449 448.627C84.3757 452.268 74.5687 456.81 63.0194 452.679C54.3281 449.567 48.1228 440.797 46.8113 429.777C44.9713 414.273 52.7621 399.201 67.6587 389.433C84.2974 378.529 105.889 376.631 123.996 384.48C144.021 393.152 157.547 412.081 162.049 437.783C163.654 446.944 164.849 455.616 165.886 463.25C170.956 500.325 173.52 518.96 209.421 518.96C209.48 518.96 209.519 518.96 209.577 518.96C256.597 518.882 275.232 459.022 275.408 458.415C275.956 456.614 277.835 455.616 279.636 456.144C281.437 456.692 282.436 458.571 281.907 460.372C281.711 461.038 276.876 476.796 265.679 492.789C250.607 514.321 231.208 525.714 209.597 525.733C209.538 525.733 209.48 525.733 209.44 525.733C167.609 525.733 164.261 501.225 159.172 464.15C158.134 456.575 156.96 447.981 155.374 438.938C151.264 415.546 139.166 398.418 121.314 390.685C105.262 383.736 86.1375 385.439 71.3975 395.09C58.6934 403.409 52.0378 416.074 53.5647 428.955C54.563 437.391 59.0653 444.027 65.3293 446.278C74.2555 449.469 81.968 445.906 89.4065 442.461C99.5072 437.783 110.939 432.478 120.335 450.937C123.956 458.043 126.051 467.811 128.498 479.106C135.701 512.618 144.667 554.313 199.594 555.624C278.168 557.504 301.051 475.445 303.068 467.282C303.068 466.989 303.107 466.715 303.205 466.421C304.144 463.132 307.12 463.681 307.237 463.7C308.96 464.033 310.154 465.716 309.958 467.459C309.684 469.886 303.381 493.983 287.134 516.846C265.934 546.737 236.591 562.456 202.178 562.456Z" fill="#000072"/>
<path d="M382.444 290.188C411.376 292.967 434.064 304.947 454.617 321.429C494.707 353.61 507.998 403.155 481.279 417.112C461.743 427.31 440.445 411.964 431.088 400.16L382.444 290.188Z" fill="white"/>
<path d="M481.259 417.112C461.743 427.31 440.425 411.964 431.069 400.16L427.056 391.057L382.464 290.188C411.376 292.987 434.083 304.947 454.617 321.429C477.853 340.084 492.084 364.553 494.746 384.559C496.645 399.083 492.495 411.239 481.259 417.112Z" fill="white"/>
<g opacity="0.25">
<path d="M481.259 417.112C461.743 427.31 440.425 411.964 431.069 400.16L427.056 391.057C442.774 390.666 467.674 390.451 470.238 393.074C474.016 396.93 474.173 400.003 479.321 402C488.795 405.7 493.63 395.266 494.746 384.578C496.645 399.083 492.495 411.239 481.259 417.112Z" fill="#000072"/>
</g>
<g opacity="0.25">
<path d="M429.072 304.36C418.893 312.327 407.814 317.925 396.362 321.703L382.444 290.207C399.964 291.871 415.213 296.941 429.072 304.36Z" fill="#371A45"/>
</g>
<g opacity="0.25">
<path d="M429.072 304.36C418.893 312.327 407.814 317.925 396.362 321.703L382.444 290.207C399.964 291.871 415.213 296.941 429.072 304.36Z" fill="#371A45"/>
</g>
<g opacity="0.25">
<path d="M331.314 310.35L322.976 325.814C305.064 322.956 289.365 318.062 278.442 313.677C287.917 308.196 299.603 303.381 314.01 300.092L331.314 310.35Z" fill="#371A45"/>
</g>
<g opacity="0.25">
<path d="M418.423 311.661C377.981 335.856 327.321 329.103 294.924 319.413C302.147 303.459 318.023 285.333 352.905 285.255C390.842 285.137 409.379 298.487 418.423 311.661Z" fill="#371A45"/>
</g>
<path d="M467.576 423.924C450.604 423.924 435.336 411.024 428.406 402.274C427.232 400.806 427.486 398.672 428.954 397.517C430.423 396.343 432.556 396.597 433.711 398.065C440.699 406.874 454.069 417.033 467.733 417.053C471.745 417.053 475.778 416.172 479.673 414.136C488.423 409.556 490.988 401.178 491.594 394.953C493.689 373.42 477.598 344.293 452.464 324.111C429.522 305.71 407.167 296.001 382.092 293.593C380.232 293.417 378.862 291.753 379.038 289.894C379.214 288.034 380.878 286.664 382.738 286.84C409.184 289.385 432.693 299.544 456.692 318.825C483.53 340.358 500.658 371.932 498.328 395.618C497.212 406.933 491.849 415.428 482.786 420.165C477.716 422.788 472.568 423.924 467.576 423.924Z" fill="#000072"/>
<path d="M358.7 441.522C359.267 463.485 361.01 476.679 361.656 491.301C363.437 516.455 357.427 572.714 360.97 591.506C362.595 600.079 376.983 606.089 409.83 606.089C428.387 606.089 439.055 601.078 441.11 593.737C445.3 578.801 428.935 571.754 428.935 571.754C428.935 571.754 448.392 511.718 452.405 463.603" fill="#FFAD40"/>
<path d="M359.835 569.895C359.757 578.88 360.011 586.514 360.951 591.506C362.576 600.079 376.963 606.089 409.81 606.089C428.367 606.089 439.036 601.058 441.091 593.737C445.28 578.801 428.915 571.754 428.915 571.754C428.915 571.754 428.935 571.676 428.994 571.539C430.246 567.624 448.51 510.054 452.405 463.603L358.68 441.522C359.248 463.505 360.99 476.679 361.636 491.301C362.948 509.76 360.05 545.035 359.835 569.895Z" fill="#FFAD40"/>
<path d="M359.835 569.895C359.757 578.88 360.011 586.514 360.951 591.506C362.576 600.079 376.963 606.089 409.81 606.089C428.367 606.089 439.035 601.058 441.091 593.737C441.796 591.212 441.913 588.902 441.639 586.827C440.21 576.629 428.935 571.754 428.935 571.754C428.935 571.754 428.954 571.676 429.013 571.539C430.031 568.348 442.305 529.688 448.96 490.362C450.487 481.338 451.7 472.274 452.425 463.603L358.7 441.522C359.267 463.505 361.01 476.679 361.656 491.301C362.967 509.76 360.05 545.035 359.835 569.895Z" fill="white"/>
<g opacity="0.25">
<path d="M359.835 569.895C359.757 578.88 360.011 586.514 360.951 591.506C362.576 600.079 376.963 606.089 409.81 606.089C428.367 606.089 439.035 601.058 441.091 593.737C441.796 591.212 441.913 588.902 441.639 586.827C434.807 590.546 416.837 598.846 384.441 592.7C361.969 588.452 373.616 541.276 376.219 531.508C380.819 514.165 428.935 525.362 448.96 490.362C450.487 481.338 451.7 472.274 452.425 463.603L358.7 441.522C359.267 463.505 361.01 476.679 361.656 491.301C362.967 509.76 360.05 545.035 359.835 569.895Z" fill="#000072"/>
</g>
<path d="M362.086 441.443C362.4 458.043 364.201 474.701 365.042 491.34C365.943 508.155 364.749 525.009 364.122 541.746C363.574 555.605 362.811 569.366 363.457 583.127C363.613 585.809 363.848 588.53 364.298 590.938C364.475 591.76 364.827 592.562 365.395 593.326C372.833 601.841 395.188 602.35 406.248 602.663C414.156 602.781 422.28 602.526 429.679 599.786C433.339 598.317 436.883 596.34 437.881 592.543C438.018 592.132 438.155 591.29 438.214 590.879C439.212 584.987 435.414 579.8 430.619 576.648C429.659 576.002 428.544 575.336 427.506 574.867C425.921 574.142 425.138 572.341 425.666 570.717C432.478 548.851 438.429 526.536 442.775 504.025C444.673 495.196 446.709 485.937 448.314 477.05C449.195 472.509 449.861 467.968 450.703 463.407C451.035 461.469 454.109 461.586 454.069 463.759C453.913 472.92 453.071 482.512 451.857 491.614C450.722 500.854 448.804 509.956 446.65 519.019C442.461 537.165 437.724 555.037 432.126 572.811L430.247 568.642C433.163 569.992 435.728 571.754 438.116 573.927C444.556 579.702 447.12 588.706 443.518 596.81C439.682 604.347 430.971 607.048 423.395 608.418C412.003 610.2 400.591 609.495 389.159 608.477C378.667 607.146 360.56 604.738 357.623 592.249C356.566 586.357 356.508 580.817 356.41 574.984C356.351 552.61 358.171 530.412 358.524 508.155C358.935 485.859 355.627 463.916 355.274 441.62C355.314 437.196 361.793 436.882 362.086 441.443Z" fill="#000072"/>
<path d="M393.328 570.932C401.98 567.839 411.376 566.508 420.577 567.115C423.728 567.271 426.86 567.839 430.012 568.524C434.377 569.62 433.007 576.022 428.563 575.199C425.666 574.142 422.847 572.831 419.774 572.146C418.56 571.774 416.779 571.461 415.526 571.186C408.225 569.914 400.688 569.758 393.328 570.932Z" fill="#000072"/>
<path d="M317.651 464.483C325.951 501.089 410.064 511.307 436.451 471.785C438.194 469.162 439.74 466.46 441.091 463.7C429.874 475.641 410.749 486.995 378.823 485.879C321.703 483.902 323.68 438.018 318.727 409.517C318.336 407.305 317.651 405.191 316.731 403.155C316.202 428.25 314.558 450.839 317.651 464.483Z" fill="#F9D3B7"/>
<path d="M318.238 466.676C329.318 501.48 410.593 510.485 436.432 471.765C441.991 463.426 445.456 454.344 447.257 444.811C437.783 458.748 418.423 476.189 380.311 478.44C349.872 480.241 329.337 472.627 318.238 466.676Z" fill="#F9D3B7"/>
<path d="M316.477 457.006C320.881 453.893 325.364 447.727 325.09 435.551C324.62 415.859 325.501 400.806 316.868 393.739C316.712 418.267 314.871 441.267 316.477 457.006Z" fill="#F9D3B7"/>
<path d="M281.692 480.946C281.692 480.946 294.552 504.044 320.45 508.781C384.128 520.448 424.119 497.232 424.119 497.232C442.285 483.96 451.642 466.597 454.598 446.161C456.085 435.884 455.948 424.844 454.5 413.158C452.014 393.211 441.287 363.809 427.055 336.972C427.055 336.972 427.604 285.02 352.905 285.215C290.618 285.372 288.934 343.118 288.934 343.118C285.215 356.723 282.69 368.233 280.948 377.864C276.974 399.749 277.033 411.924 276.524 417.112C272.354 459.609 278.755 474.408 281.692 480.946Z" fill="white"/>
<g opacity="0.25">
<path d="M418.423 311.661C377.981 335.856 327.321 329.103 294.924 319.413C302.147 303.459 318.023 285.333 352.905 285.255C390.842 285.137 409.379 298.487 418.423 311.661Z" fill="#000072"/>
</g>
<g opacity="0.25">
<path d="M281.692 480.946C281.692 480.946 294.552 504.044 320.45 508.782C384.128 520.448 424.119 497.232 424.119 497.232C442.285 483.96 451.642 466.597 454.598 446.161C454.598 446.161 427.995 484.724 374.732 480.926C315.811 476.718 303.694 440.054 302.187 417.092C300.679 394.424 306.376 371.463 306.376 371.463L280.909 377.844C276.935 399.729 276.994 411.905 276.485 417.092C272.354 459.609 278.755 474.408 281.692 480.946Z" fill="#000072"/>
</g>
<path d="M290.559 343.569C286.018 366.295 281.809 388.983 280.263 412.101C279.95 418.091 279.206 423.787 278.951 429.542C278.227 443.636 278.09 458.161 281.888 471.804C282.651 474.467 283.61 476.972 284.785 479.556C285.548 481.259 284.804 483.275 283.082 484.039C281.359 484.822 279.343 484.039 278.579 482.316C277.346 479.595 276.211 476.639 275.369 473.703C269.751 453.541 271.983 432.165 273.431 411.69C273.979 399.945 275.33 388.102 277.855 376.611C280.322 365.101 283.434 353.748 287.271 342.688C287.975 340.789 290.951 341.454 290.559 343.569Z" fill="#3A3A3A"/>
<path d="M424.12 497.252C446.846 475.523 453.756 450.663 451.192 419.95C448.784 390.959 437.215 364.103 427.056 337.011C442.227 359.6 454.48 386.633 458.552 413.706C462.976 445.867 454.715 480.946 424.12 497.252Z" fill="#000072"/>
<path d="M277.013 574.886C277.111 583.069 276.504 588.334 278.364 593.6C282.533 605.521 293.828 608.105 326.792 607.107C344.371 606.578 349.656 599.473 351.183 593.404C353.63 583.597 348.403 573.986 348.403 573.986C348.403 573.986 348.403 573.986 348.403 573.966C348.54 572.655 355.078 511.679 356.194 511.405C357.975 510.954 378.451 512.129 403.154 505.571C403.154 505.571 346.465 509.017 307.668 483.784C284.53 468.751 274.449 441.972 274.449 441.972C276.426 467.674 275.388 533.838 276.935 570.658C276.974 572.165 277.013 573.555 277.013 574.886Z" fill="#F87B38"/>
<path d="M274.429 441.992C275.565 456.634 275.702 484.43 275.917 512.442C276.073 533.583 276.25 554.842 276.915 570.678C276.974 572.165 277.013 573.575 277.013 574.906C277.111 583.088 276.504 588.354 278.364 593.62C282.533 605.541 293.828 608.125 326.792 607.126C344.371 606.598 349.656 599.492 351.163 593.424C353.61 583.617 348.384 574.005 348.384 574.005C348.384 574.005 348.384 574.005 348.384 573.986C348.481 573.007 352.181 538.555 354.491 521.192C355.274 515.378 355.9 511.483 356.174 511.424C357.956 510.974 378.431 512.148 403.135 505.591C403.135 505.591 346.446 509.036 307.648 483.804C284.51 468.77 274.429 441.992 274.429 441.992Z" fill="white"/>
<g opacity="0.25">
<path d="M274.429 441.992C275.565 456.634 275.702 484.43 275.917 512.442C304.007 501.813 342.002 515.907 354.511 521.192C355.294 515.378 355.92 511.483 356.194 511.424C357.975 510.974 378.451 512.148 403.154 505.591C403.154 505.591 346.465 509.036 307.668 483.804C284.51 468.77 274.429 441.992 274.429 441.992Z" fill="#000072"/>
</g>
<g opacity="0.25">
<path d="M278.364 593.619C282.534 605.541 293.828 608.125 326.793 607.126C344.371 606.598 349.656 599.492 351.164 593.424C352.123 589.587 351.907 585.77 351.281 582.56C351.242 582.736 351.203 582.912 351.164 583.069C349.656 589.117 344.352 596.243 326.793 596.771C293.828 597.769 282.534 595.186 278.364 583.264C277.425 580.602 277.131 577.94 277.033 574.886C277.033 574.886 277.033 574.886 277.014 574.886C277.111 583.069 276.505 588.334 278.364 593.619Z" fill="#000072"/>
</g>
<path d="M277.796 441.718C280.106 487.093 278.716 532.507 280.419 577.823C280.38 584.772 279.676 592.817 284.883 597.946C287.819 600.843 292.654 602.194 297.606 602.918C302.598 603.642 307.844 603.838 313.071 603.897C318.18 603.936 323.7 603.857 328.789 603.603C338.166 603.074 348.129 599.766 348.384 589.215C348.658 584.635 347.425 579.682 345.369 575.552C345.036 574.945 344.939 574.26 344.997 573.634L348.051 546.131C349.245 535.834 350.4 525.46 351.927 515.144C352.201 513.597 352.377 511.796 352.964 510.191C353.297 509.428 353.904 508.645 354.863 508.253C355.666 507.979 355.216 508.136 355.47 508.057C355.901 507.979 356.41 507.901 356.782 507.901C358.445 507.842 360.403 507.744 362.047 507.666C375.867 507.314 389.237 507.47 403.116 505.552C392.388 510.074 380.839 512.853 369.251 514.321C365.336 514.83 361.088 514.635 357.153 514.693L356.86 514.713C356.84 514.713 356.742 514.713 356.86 514.713C357.897 514.517 358.856 513.695 359.189 512.853L359.228 512.736C359.248 512.697 359.228 512.716 359.228 512.736C357.212 523.972 356.175 535.502 354.785 546.894L351.751 574.338L351.359 572.361C358.817 587.551 356.155 604.895 337.735 609.104C333.546 610.161 329.318 610.454 325.109 610.533C321.194 610.572 316.907 610.748 312.992 610.67C302.304 610.298 288.602 610.63 280.145 602.8C273.294 596.243 273.392 586.338 273.607 577.764C272.961 553.765 272.492 529.805 272.433 505.885C272.198 484.704 272.335 463.27 271.004 442.207C270.808 437.803 277.307 437.157 277.796 441.718Z" fill="#000072"/>
<path d="M288.915 574.397C292.164 571.089 296.628 569.19 301.032 567.957C314.265 564.394 329.611 566.567 340.378 575.376C331.706 573.281 323.406 571.637 314.617 571.441C305.945 571.265 297.371 571.696 288.915 574.397Z" fill="#000072"/>
<path d="M402.371 579.976C409.438 582.442 413.333 591.27 411.141 598.533C408.811 606.872 398.965 610.317 391.116 608.673C387.103 607.772 387.768 601.939 391.84 601.919C396.851 601.567 403.037 601.214 405.66 596.458C408.4 591.016 406.932 584.341 402.371 579.976Z" fill="#000072"/>
<path d="M423.043 579.31C430.54 581.972 434.063 591.505 431.166 598.924C428.211 606.97 418.247 610.16 410.632 609.456C406.58 609.123 406.365 603.329 410.339 602.683C416.172 601.684 422.69 601.606 426.057 596.516C429.326 590.977 428.074 583.734 423.043 579.31Z" fill="#000072"/>
<path d="M330.238 580.641C334.427 587.003 336.619 595.322 333.624 602.741C332.606 605.345 330.923 607.713 328.946 609.73L324.62 604.503C326.342 603.407 327.908 602.076 329.102 600.373C333.115 594.774 332.528 586.944 330.238 580.641Z" fill="#000072"/>
<path d="M306.298 582.305C309.547 590.879 311.485 601.802 304.829 609.417L300.308 604.366C301.658 603.525 302.872 602.252 303.792 600.627C306.767 595.205 306.963 588.413 306.298 582.305Z" fill="#000072"/>
<path d="M314.01 300.092C251.664 314.245 240.075 357.427 240.075 357.427C240.075 357.427 225.786 377.139 245.537 403.155C268.4 433.241 289.972 387.025 289.972 387.025L331.314 310.35L314.01 300.092Z" fill="white"/>
<g opacity="0.25">
<path d="M331.314 310.35L322.976 325.814C305.064 322.956 289.365 318.062 278.442 313.677C287.917 308.196 299.603 303.381 314.01 300.092L331.314 310.35Z" fill="#000072"/>
</g>
<path d="M261.803 416.72C255.011 416.72 248.649 412.844 242.835 405.191C223.378 379.567 234.653 359.522 236.963 355.959C238.646 350.42 252.818 310.487 313.266 296.784C315.087 296.373 316.907 297.509 317.318 299.349C317.729 301.169 316.594 302.99 314.754 303.401C283.669 310.467 265.914 325.011 256.479 335.973C246.28 347.855 243.364 358.211 243.325 358.308C243.227 358.7 243.031 359.072 242.796 359.405C242.287 360.129 230.327 377.531 248.218 401.08C253.053 407.442 258.025 410.378 262.997 409.849C273.783 408.695 283.884 391.919 286.859 385.557C287.662 383.854 289.678 383.13 291.362 383.913C293.065 384.715 293.789 386.731 293.006 388.415C292.497 389.491 280.517 414.782 263.722 416.583C263.095 416.701 262.449 416.72 261.803 416.72Z" fill="#000072"/>
<path d="M309.156 307.942C320.45 323.054 367.646 429.738 275.663 455.812C275.663 455.812 267.402 442.618 275.467 430.521C286.82 413.53 336.169 391.253 286.664 306.865C286.664 306.865 286.625 298.703 298.546 298.703C310.467 298.703 309.156 307.942 309.156 307.942Z" fill="#FFDB45"/>
<path d="M275.663 455.812C275.663 455.812 267.402 442.618 275.467 430.54C286.037 414.743 329.396 394.385 295.708 323.817C293.143 318.473 290.148 312.836 286.664 306.885C286.664 306.787 286.703 298.722 298.546 298.722C310.487 298.722 309.156 307.942 309.156 307.942C311.191 310.663 314.421 316.398 317.769 324.111C332.978 359.013 351.026 434.455 275.663 455.812Z" fill="#FFDB45"/>
<path d="M317.768 324.111C308.059 318.747 300.307 321.116 295.707 323.798C293.143 318.454 290.148 312.816 286.664 306.865C286.664 306.768 286.703 298.703 298.546 298.703C310.486 298.703 309.155 307.922 309.155 307.922C311.211 310.663 314.421 316.398 317.768 324.111Z" fill="#FFA124"/>
<path d="M275.663 458.924C274.606 458.924 273.607 458.396 273.04 457.476C272.668 456.869 263.8 442.422 272.903 428.818C274.997 425.686 278.09 422.593 281.653 418.991C298.487 402.059 323.915 376.494 284.002 308.451C283.727 307.981 283.571 307.433 283.571 306.885C283.571 306.474 283.649 302.774 286.742 299.662C289.424 296.98 293.398 295.61 298.565 295.61C303.537 295.61 307.276 297.019 309.684 299.799C311.896 302.363 312.307 305.319 312.327 307.022C320.861 319.511 343.94 371.228 330.081 412.159C322.271 435.258 304.242 450.957 276.524 458.807C276.23 458.885 275.956 458.924 275.663 458.924ZM289.874 306.2C331.432 377.688 303.048 406.248 286.037 423.356C282.69 426.723 279.793 429.62 278.051 432.263C272.863 440.015 275.526 448.334 277.229 452.112C301.482 444.634 317.279 430.54 324.169 410.163C337.422 371.032 313.873 319.452 306.65 309.821C306.16 309.175 305.945 308.353 306.063 307.551C306.082 307.453 306.278 305.339 304.927 303.831C303.459 302.167 300.64 301.835 298.526 301.835C291.792 301.815 290.246 304.712 289.874 306.2Z" fill="#000072"/>
<path d="M255.168 367.391C257.947 364.807 267.852 356.938 277.092 351.007C287.212 344.508 288.915 337.931 299.838 336.874C302.657 336.6 304.262 347.581 306.905 347.816C317.24 348.736 326.695 351.986 331.315 356.723C347.542 373.42 336.737 404.995 327.106 411.2C320.842 415.252 314.656 416.446 304.458 415.976C302.481 418.541 290.011 433.241 268.596 434.67C260.394 435.218 248.023 433.281 239.567 423.689C218.523 399.866 222.986 358.876 262.88 324.776L255.168 367.391Z" fill="white"/>
<path d="M327.106 411.2C320.842 415.252 314.656 416.446 304.458 415.957C302.48 418.521 290.011 433.222 268.596 434.651C260.394 435.199 248.023 433.261 239.566 423.669C229.935 412.766 225.649 398.261 227.645 382.484C230.014 363.77 241.23 343.255 262.88 324.757L255.168 367.391C257.947 364.807 267.852 356.938 277.111 351.007C287.232 344.508 288.935 337.931 299.838 336.874C302.657 336.6 304.262 347.581 306.885 347.797C317.24 348.717 326.675 351.986 331.295 356.723C334.818 360.344 337.05 364.651 338.322 369.251C342.903 385.909 334.642 406.326 327.106 411.2Z" fill="white"/>
<g opacity="0.25">
<path d="M327.106 411.2C320.842 415.252 314.656 416.446 304.458 415.957C302.48 418.521 290.011 433.222 268.596 434.651C260.394 435.199 248.023 433.261 239.566 423.669C229.935 412.766 225.649 398.261 227.645 382.484C228.859 388.356 230.777 394.561 233.459 395.384C239.39 397.204 244.891 385.498 245.204 384.813C244.95 385.87 238.216 413.353 259.278 419.872C277.052 425.353 294.944 417.621 291.303 404.877C291.303 404.877 305.123 408.655 315.811 405.954C329.514 402.489 337.97 382.993 338.322 369.251C342.903 385.909 334.642 406.326 327.106 411.2Z" fill="#000072"/>
</g>
<path d="M255.167 367.391C259.65 361.225 265.268 356.155 271.18 351.418C274.038 349.147 277.052 347.249 279.773 344.821C285.9 339.262 290.442 333.957 299.446 333.194C305.651 332.959 306.18 340.828 308.725 344.665C308.529 344.43 307.863 344.058 307.433 344.038C316.046 344.763 327.184 347.033 334.25 353.904C344.762 364.475 345.643 381.035 341.63 394.601C339.516 401.452 336.482 408.479 330.903 413.373C323.562 419.265 313.246 420.283 304.301 419.363C304.281 419.363 307.159 418.032 307.139 418.032C288.543 441.404 248.59 447.61 231.834 418.932C220.539 401.178 222.105 378.021 230.953 359.679C237.804 345.095 248.531 332.587 260.668 322.173C264.152 319.354 268.4 324.307 265.092 327.321C256.459 334.76 248.669 343.158 242.542 352.73C236.571 362.126 232.108 372.814 230.934 383.854C229.211 398.3 233.674 413.588 244.342 423.669C249.491 428.309 256.499 430.814 263.643 431.265C278.129 432.087 292.673 425.02 301.776 413.902C302.48 413.001 303.557 412.531 304.633 412.57C308.216 412.59 311.759 412.453 315.028 411.866C318.297 411.259 321.233 410.182 323.993 408.46C325.187 407.716 326.264 406.874 327.164 405.7C335.523 394.581 338.733 375.476 331.295 363.32C326.381 354.902 315.654 352.788 306.591 351.594C301.188 350.811 300.758 343.999 298.526 340.221C298.409 340.006 298.272 339.888 298.487 340.084C298.585 340.202 299.387 340.593 299.857 340.534C299.935 340.534 299.994 340.534 300.072 340.534C300.131 340.534 300.249 340.515 300.19 340.534C299.701 340.593 299.192 340.632 298.702 340.711C292.458 341.513 289.189 345.996 284.138 350.048C282.592 351.262 280.987 352.456 279.264 353.454C271.317 358.152 263.448 362.909 255.167 367.391Z" fill="#000072"/>
<path d="M290.207 352.886C295.727 351.379 311.524 348.188 311.524 348.188Z" fill="white"/>
<path d="M290.207 352.886C296.099 350.439 304.849 347.464 310.937 345.271L312.111 351.085C305.652 351.555 296.549 352.103 290.207 352.886Z" fill="#000072"/>
<path d="M434.044 343.588C436.882 324.581 463.426 339.869 466.206 352.886C469.866 369.975 436.922 358.817 436.922 358.817C436.922 358.817 431.206 362.595 434.044 343.588Z" fill="white"/>
<path d="M455.753 365.512C448.49 365.512 440.426 363.202 436.98 362.106C435.865 362.36 434.553 362.282 433.3 361.48C430.051 359.405 429.346 353.924 430.971 343.118C432.048 335.954 436.334 331.745 442.755 331.549C442.912 331.549 443.068 331.549 443.225 331.549C453.619 331.549 467.106 342.198 469.26 352.24C470.414 357.682 468.477 360.775 466.617 362.419C464.013 364.709 460.02 365.512 455.753 365.512ZM436.922 355.705C437.254 355.705 437.587 355.764 437.92 355.862C445.946 358.582 458.885 360.971 462.487 357.76C462.819 357.467 463.818 356.566 463.172 353.532C461.606 346.231 450.409 337.5 442.951 337.774C440.837 337.833 437.94 338.557 437.117 344.058C436.041 351.301 436.334 354.472 436.628 355.724C436.726 355.705 436.824 355.705 436.922 355.705Z" fill="#000072"/>
<path d="M398.711 296.804C434.161 339.967 443.949 376.905 455.655 430.521C455.655 430.521 466.01 347.112 414.214 293.691L398.711 296.804Z" fill="#FFDB45"/>
<path d="M455.655 430.521C445.691 384.833 437.098 351.261 412.844 315.635C408.635 309.449 403.957 303.205 398.711 296.823L414.214 293.711C419.441 299.094 424.021 304.79 428.054 310.663C464.033 363.085 455.655 430.521 455.655 430.521Z" fill="#FFDB45"/>
<path d="M428.054 310.643C420.968 310.311 415.741 313.325 412.844 315.615C408.635 309.43 403.957 303.185 398.711 296.804L414.214 293.691C419.441 299.075 424.021 304.771 428.054 310.643Z" fill="#FFA124"/>
<path d="M455.655 433.105C454.441 433.105 453.384 432.263 453.13 431.069C441.306 376.885 431.597 340.907 396.715 298.448C395.814 297.352 395.971 295.708 397.067 294.807C398.163 293.907 399.807 294.064 400.708 295.16C432.028 333.292 443.44 366.139 453.893 410.868C453.834 402.979 453.306 393.172 451.779 382.347C448.275 357.663 438.585 322.545 412.355 295.473C411.357 294.455 411.376 292.811 412.414 291.812C413.432 290.814 415.076 290.834 416.074 291.871C443.323 319.981 453.325 356.273 456.927 381.76C460.823 409.321 458.337 429.953 458.219 430.815C458.063 432.067 457.025 433.027 455.772 433.085C455.733 433.105 455.694 433.105 455.655 433.105Z" fill="#000072"/>
<path d="M447.257 135.976L399.592 104.421L344.527 67.972C369.76 36.0061 422.142 -1.44093 440.288 7.19165C443.733 8.83595 446.709 13.0641 449.136 19.2498C458.278 42.5049 459.57 93.1455 447.257 135.976Z" fill="white"/>
<g opacity="0.25">
<path d="M447.257 135.976L399.592 104.421C408.205 74.5102 430.403 5.88027 449.136 19.25C458.278 42.5051 459.57 93.1456 447.257 135.976Z" fill="#371A45"/>
</g>
<g opacity="0.5">
<path d="M450.154 22.0099C448.236 18.5647 446.063 16.157 443.655 15.0216C426.175 6.72181 377.022 41.0759 350.85 72.1806L344.527 67.9916C369.76 36.0256 422.142 -1.4214 440.288 7.21118C444.203 9.05123 447.551 14.3365 450.154 22.0099Z" fill="white"/>
</g>
<path d="M447.257 139.382C446.944 139.382 446.63 139.343 446.317 139.245C444.516 138.736 443.479 136.857 443.988 135.056C451.094 110.332 454.147 80.9307 452.346 54.387C450.526 27.491 444.242 12.8489 438.82 10.265C424.021 3.23758 374.34 35.6538 347.17 70.0862C346.015 71.5543 343.881 71.8088 342.413 70.6539C340.945 69.4989 340.691 67.3653 341.845 65.8971C366.51 34.6554 420.498 -5.9431 441.737 4.1576C461.038 13.3187 465.697 84.0627 450.506 136.935C450.095 138.403 448.725 139.382 447.257 139.382Z" fill="#000072"/>
<path d="M439.682 94.2025C429.287 82.7511 420.772 75.0777 413.451 69.4597C407.03 64.5268 401.53 61.1795 396.46 58.2432C397.067 52.3707 429.796 16.8813 436.51 26.336C438.527 29.1548 440.171 33.5983 441.424 38.9619C445.3 55.5419 445.241 80.9111 439.682 94.2025Z" fill="#FF67A0"/>
<path d="M441.424 38.9423C438.762 36.2214 434.788 33.0698 431.597 34.2248C426.155 36.1823 416.309 56.0117 413.451 69.4402C407.03 64.5073 401.53 61.16 396.46 58.2237C397.067 52.3512 429.796 16.8617 436.51 26.3165C438.527 29.1548 440.191 33.5984 441.424 38.9423Z" fill="#FF5C64"/>
<path d="M440.758 100.408L437.176 96.4732C418.168 75.5475 405.817 67.5609 394.776 61.1794L392.877 60.0832L393.112 57.8908C393.837 50.9613 418.031 24.9657 430.305 21.7554C435.551 20.3851 438.194 22.7929 439.309 24.3589C448.529 37.3371 450.506 77.2309 442.833 95.514L440.758 100.408ZM400.766 56.8142C410.828 62.7846 422.201 70.6146 438.291 87.684C443.263 69.029 440.347 37.5524 433.75 28.2739C433.574 28.0194 432.889 28.1173 432.497 28.176C423.865 29.7811 405.249 49.591 400.766 56.8142Z" fill="#000072"/>
<path d="M472.881 197.793C484.312 180.45 506.824 170.134 526.868 167.295C527.651 167.198 529.374 167.061 530.157 166.982C531.625 166.845 533.074 166.747 534.542 166.63C531.743 167.53 528.924 168.235 526.164 169.135C518.021 171.798 509.995 175.145 502.517 179.354C492.71 184.952 483.588 191.862 475.602 199.77C474.27 201.336 471.804 199.575 472.881 197.793Z" fill="#000072"/>
<path d="M477.383 219.189C494.1 207.424 519.567 203.959 537.537 214.687C527.711 211.75 517.61 211.418 507.627 213.179C497.8 214.941 488.267 218.367 479.047 222.125C477.227 222.869 475.798 220.363 477.383 219.189Z" fill="#000072"/>
<path d="M286.233 55.6984C299.211 48.9842 312.62 44.2862 324.326 42.407C343.196 39.3728 378.412 33.8135 412.178 49.9629C473.898 79.5016 480.162 144.53 487.542 172.62C489.03 178.277 500.873 199.027 495.842 225.942C490.87 252.525 469.827 304.634 353.395 310.252C270.397 314.265 229.876 284.354 216.898 250.822C201.923 212.181 209.753 159.935 222.418 127.695" fill="white"/>
<path d="M495.862 225.942C493.239 239.958 486.153 261.06 462.976 278.716C442.187 294.553 408.479 307.589 353.415 310.252C309.371 312.385 277.288 304.947 254.933 292.497C235.182 281.496 223.026 266.56 216.918 250.822C201.943 212.181 209.773 159.935 222.438 127.695L286.253 55.6984C299.231 48.9842 312.66 44.2862 324.346 42.407C343.216 39.3728 378.412 33.8135 412.198 49.9629C473.918 79.5016 480.182 144.53 487.562 172.62C489.03 178.277 500.873 199.027 495.862 225.942Z" fill="white"/>
<g opacity="0.25">
<path d="M462.976 278.697C442.187 294.533 408.479 307.57 353.414 310.232C309.371 312.366 277.287 304.927 254.933 292.478C256.968 292.967 361.068 316.751 462.976 278.697Z" fill="#000072"/>
</g>
<path d="M318.923 70.0472L256.89 134.155L230.092 161.854C206.583 121.255 196.364 68.5399 202.022 45.1087C203.176 40.2932 205.017 36.711 207.542 34.7339C224.024 21.8144 285.92 45.2065 318.923 70.0472Z" fill="#FFA124"/>
<g opacity="0.2">
<path d="M256.89 134.155L230.092 161.854C206.583 121.255 196.364 68.54 202.022 45.1087C207.346 37.9834 216.174 32.6786 225.512 54.5634C235.201 77.2509 249.021 113.347 256.89 134.155Z" fill="#000072"/>
</g>
<g opacity="0.5">
<path d="M318.923 70.0472L315.008 74.0797C281.007 50.942 220.539 31.9934 208.697 38.9425C199.046 44.5997 201.884 79.1496 207.503 106.633C198.361 72.7681 197.969 42.2507 207.561 34.7339C224.024 21.8144 285.92 45.2065 318.923 70.0472Z" fill="white"/>
</g>
<path d="M230.092 165.241C228.917 165.241 227.782 164.634 227.156 163.557C199.516 115.833 187.966 45.7939 205.466 32.0718C217.016 23.0281 243.422 30.036 258.143 35.0276C280.458 42.5836 304.536 54.9745 320.979 67.3459C322.466 68.4813 322.779 70.5954 321.644 72.1027C320.509 73.5904 318.395 73.9036 316.887 72.7682C300.973 60.8079 277.639 48.8084 255.95 41.4482C233.459 33.814 216.135 32.3067 209.636 37.4158C204.683 41.2916 201.63 57.1278 205.975 83.7694C210.262 110.039 220.109 137.875 233.028 160.171C233.968 161.795 233.42 163.87 231.795 164.81C231.247 165.103 230.659 165.241 230.092 165.241Z" fill="#000072"/>
<path d="M339.086 82.1445C337.676 132.041 287.173 171.074 226.295 169.371C221.283 169.234 216.37 168.823 211.574 168.138C211.613 167.903 211.633 167.687 211.672 167.452C212.161 164.497 212.71 161.58 213.316 158.722C213.414 158.311 213.473 157.919 213.571 157.528C215.137 150.266 217.016 143.356 219.091 136.994C220.148 133.744 221.264 130.632 222.419 127.676C222.419 127.676 232.696 109.53 246.046 92.441C259.396 75.352 286.233 55.6791 286.233 55.6791C299.211 48.9649 312.64 44.2669 324.326 42.3877C325.736 42.1724 327.223 41.9375 328.809 41.7222C335.758 54.0348 339.497 67.7569 339.086 82.1445Z" fill="#FFA124"/>
<path d="M263.859 73.512C254.267 82.3207 243.07 93.4981 228.174 119.278C227.234 118.045 226.334 116.655 225.472 115.128C219.424 104.538 215.156 87.8213 214.001 73.6882C213.277 64.899 213.766 57.1082 215.763 52.4102C220.442 41.5265 261.882 67.9331 263.859 73.512Z" fill="#FF67A0"/>
<g opacity="0.3">
<path d="M263.859 73.512C254.267 82.3207 243.07 93.4981 228.174 119.278C227.234 118.045 226.334 116.655 225.472 115.128C226.177 104.91 233.615 93.4198 236.278 84.6697C241.778 66.5041 227.547 56.1881 222.536 58.3218C219.58 59.5942 215.606 69.3817 214.001 73.6882C213.277 64.899 213.766 57.1082 215.763 52.4102C220.442 41.5265 261.882 67.9331 263.859 73.512Z" fill="#000072"/>
</g>
<path d="M228.174 122.665C227.117 122.665 226.118 122.175 225.472 121.314C213.453 105.4 206.269 66.0148 212.67 51.0595C213.453 49.239 215.587 46.2245 221.381 46.4202C229.681 46.6943 241.876 53.2715 248.414 57.1669C251.213 58.8503 265.327 67.4633 267.05 72.3571C267.5 73.6295 267.147 75.0584 266.149 75.9785C256.381 84.9634 245.635 95.8275 231.11 120.942C230.542 121.921 229.524 122.567 228.389 122.626C228.311 122.665 228.252 122.665 228.174 122.665ZM220.95 53.1932C220.794 53.1932 220.637 53.1932 220.481 53.2127C219.972 53.2323 219.071 53.3498 218.915 53.7413C214.334 64.4488 218.641 95.9645 228.056 112.819C240.584 91.9908 250.391 81.479 259.298 73.1205C253.112 67.2872 230.699 53.1932 220.95 53.1932Z" fill="#000072"/>
<path d="M274.259 254.678C289.225 253.449 300.663 244.006 299.807 233.587C298.951 223.169 286.126 215.719 271.16 216.948C256.195 218.178 244.757 227.62 245.613 238.039C246.468 248.458 259.294 255.907 274.259 254.678Z" fill="#FF67A0"/>
<path d="M499.268 225.747C486.348 226.804 475.23 219.835 474.447 210.165C473.644 200.495 483.49 191.804 496.429 190.747C498.72 200.652 500.951 214.021 499.268 225.747Z" fill="#FF67A0"/>
<path d="M326.812 310.35C288.954 313.697 246.672 301.639 223.456 269.81C201.199 238.823 202.765 193.741 210.811 158.076C213.297 147.486 216.566 137.072 220.853 127.069C221.734 125.19 224.67 126.149 224.024 128.302C212.396 163.146 207.855 201.728 216.468 237.707C223.495 268.205 244.578 285.666 272.824 296.667C290.168 303.498 308.51 306.885 326.812 310.35Z" fill="#000072"/>
<path d="M285.45 54.1911C296.236 47.9075 308.02 42.8767 320.313 40.1166C327.654 38.5898 335.092 37.4153 342.57 36.5736C384.069 31.5232 424.824 43.9729 452.522 76.2325C474.388 101.191 483.177 134.077 489.832 165.729C490.107 166.865 490.831 169.918 491.124 171.034C492.71 176.104 495.255 181.233 496.782 186.479C506.941 215.998 498.152 250.705 475.856 272.413C464.072 284.119 449.41 292.517 433.887 298.174C420.889 302.637 407.206 305.456 393.504 305.965C402.724 302.989 412.452 300.014 421.496 296.53C434.983 291.401 448.294 285.274 459.785 276.524C478.773 262.469 491.516 240.271 492.984 216.624C493.767 204.919 491.261 193.056 486.975 182.055C485.722 178.708 483.921 174.832 483.177 171.113C478.146 148.543 473.546 125.483 462.858 104.871C450.095 79.0709 427.486 58.3214 400.238 48.8275C377.374 40.6647 352.475 41.3499 328.671 44.8538C323.973 45.5389 319.021 46.2045 314.44 47.4573C305.084 49.7867 295.923 53.2123 286.996 57.2056C286.135 57.5971 285.137 57.2056 284.745 56.3443C284.412 55.5613 284.726 54.6413 285.45 54.1911Z" fill="#000072"/>
<path d="M241.837 230.777C222.81 223.965 202.1 221.773 182.055 224.533C179.138 224.905 176.241 225.472 173.266 225.864C174.655 225.335 176.045 224.787 177.435 224.298C178.668 223.848 180.43 223.163 181.683 222.869C197.539 218.19 214.921 217.466 230.855 222.243C235.299 223.593 239.449 225.277 243.442 227.802C244.225 228.311 244.46 229.368 243.951 230.151C243.481 230.875 242.581 231.11 241.837 230.777Z" fill="#000072"/>
<path d="M247.494 257.517C227.332 258.417 205.956 261.823 190.59 276.054C201.219 260.336 221.303 252.995 239.762 253.289C242.464 253.347 245.106 253.563 247.827 254.13C248.747 254.326 249.334 255.227 249.158 256.147C248.982 256.969 248.277 257.517 247.494 257.517Z" fill="#000072"/>
<path d="M328.182 41.8399C339.457 39.6671 353.297 43.7191 373.107 21.0512C386.907 5.25421 391.566 22.2845 390.431 32.8941C390.431 32.8941 425.568 19.3482 432.106 28.0787C440.092 38.747 415.604 52.6257 422.671 58.7331" fill="white"/>
<path d="M422.671 62.1194C421.888 62.1194 421.105 61.8453 420.459 61.2972C414.782 56.4035 419.911 49.7284 424.022 44.3844C428.778 38.1987 431.949 33.5595 429.385 30.1143C426.41 26.121 407.461 29.9772 391.644 36.0651L386.457 38.0617L387.044 32.5416C387.71 26.2188 386.007 19.2306 383.54 18.1539C382.346 17.645 379.645 18.702 375.652 23.2826C358.837 42.5248 345.859 43.5623 335.425 44.404C333.076 44.5998 330.845 44.7759 328.809 45.1674C326.969 45.5198 325.187 44.3257 324.835 42.4857C324.483 40.6456 325.677 38.8643 327.517 38.5119C329.925 38.0421 332.332 37.866 334.877 37.6506C344.567 36.8676 355.529 35.9868 370.543 18.8391C376.317 12.2423 381.603 9.91287 386.261 11.9487C391.566 14.2585 393.622 21.5991 393.935 28.0197C405.719 23.8894 428.367 17.4492 434.827 26.0622C440.68 33.8922 434.161 42.3486 429.424 48.5343C427.721 50.7463 424.589 54.8375 424.785 56.0707C424.785 56.0707 424.824 56.1099 424.902 56.1882C426.312 57.4018 426.488 59.5551 425.255 60.9645C424.589 61.7279 423.63 62.1194 422.671 62.1194Z" fill="#000072"/>
<path d="M371.443 229.72C372.07 235.378 377.159 239.038 380.859 239.841C391.723 242.229 398.026 233.674 399.455 229.172C399.71 228.35 401.158 228.272 401.608 229.016C403.605 232.167 412.198 239.684 420.439 234.869C425.353 231.991 425.803 225.081 425.803 225.081C425.803 225.081 426.958 207.013 399.005 209.049C371.013 211.085 371.443 229.72 371.443 229.72Z" fill="white"/>
<path d="M371.424 229.72C376.513 240.565 391.86 239.782 396.636 229.29C396.832 228.879 396.949 228.487 397.126 228.076C397.556 226.999 398.75 226.177 399.768 226.021C401.138 225.708 403.018 226.334 403.84 227.763C404.642 228.898 405.778 229.857 406.972 230.738C410.75 233.44 415.82 234.888 420.067 232.559C422.671 231.071 424.315 228.35 425.744 225.062C426.097 226.647 426.038 228.311 425.725 229.955C425.137 233.459 422.514 236.787 419.089 238.079C413.921 240.408 407.833 238.412 403.722 234.966C402.137 233.675 400.59 232.148 399.416 230.366C399.631 230.797 400.395 231.13 400.708 231.012C401.138 230.973 401.706 230.445 401.843 229.955C401.706 230.327 401.53 230.914 401.334 231.306C398.535 237.903 392.036 243.227 384.617 242.953C382.757 242.836 381.113 242.601 379.293 241.974C374.438 240.193 370.347 234.829 371.424 229.72Z" fill="#000072"/>
<path d="M399.435 231.717C398.965 231.717 398.496 231.599 398.085 231.325C396.91 230.581 396.558 229.055 397.262 227.861C397.36 227.665 399.611 223.182 397.791 210.772C397.595 209.382 398.554 208.09 399.944 207.874C401.334 207.679 402.626 208.638 402.841 210.028C404.995 224.67 401.98 229.955 401.628 230.523C401.099 231.306 400.277 231.717 399.435 231.717Z" fill="#000072"/>
<path d="M386.32 210.556C386.986 216.057 396.754 222.928 400.395 222.399C404.584 221.812 414.9 217.094 414.175 210.047C413.823 206.739 409.536 203.686 400.904 203.646C392.78 203.607 385.772 205.956 386.32 210.556Z" fill="#000072"/>
<g opacity="0.5">
<path d="M399.377 207.679C399.475 208.579 402.528 210.047 403.938 209.969C404.956 209.91 407.657 209.382 407.97 208.207C408.146 207.522 406.913 206.446 403.899 206.269C400.884 206.113 399.279 206.818 399.377 207.679Z" fill="white"/>
</g>
<path d="M305.769 128.361C305.769 128.361 313.638 102.17 330.179 105.791C335.875 107.044 336.756 114.365 333.292 118.769C327.967 125.483 305.769 128.361 305.769 128.361Z" fill="#000072"/>
<path d="M448.98 108.493C448.98 108.493 437.587 86.3728 423.61 95.9058C418.795 99.1944 420.713 106.32 425.568 109.099C433.006 113.367 448.98 108.493 448.98 108.493Z" fill="#000072"/>
<path d="M482.551 374.301C477.246 358.876 468.79 346.074 455.674 344.41C441.717 342.649 429.561 351.829 428.054 364.964C425.96 383.345 438.077 412.316 466.088 399.377L482.551 374.301Z" fill="white"/>
<path d="M482.551 374.301L470.238 393.074L466.088 399.396C438.077 412.336 425.96 383.364 428.054 364.984C428.739 359.072 431.578 353.943 435.767 350.283C440.876 345.8 448.001 343.451 455.674 344.43C468.79 346.074 477.246 358.876 482.551 374.301Z" fill="white"/>
<g opacity="0.25">
<path d="M470.219 393.074L466.069 399.396C438.057 412.335 425.94 383.364 428.035 364.984C428.72 359.072 431.558 353.943 435.747 350.283C433.633 358.583 431.343 373.577 438.801 383.501C449.019 397.087 464.268 388.63 470.219 393.074Z" fill="#000072"/>
</g>
<path d="M482.551 374.301C476.58 364.533 471.217 353.395 460.392 348.736C450.604 344.919 437.959 348.952 433.202 358.524C428.543 367.9 431.577 381.505 436.804 390.059C441.091 397.361 448.823 401.354 457.24 400.688C460.137 400.571 463.073 400.003 466.108 399.377C463.641 401.256 460.842 402.705 457.788 403.664C451.505 405.719 444.066 404.603 438.644 400.649C427.819 392.702 423.963 378.314 424.902 365.493C425.568 355.177 433.085 345.8 442.833 342.59C464.816 335.328 479.947 354.159 482.551 374.301Z" fill="#000072"/>
<path d="M292.908 409.536C292.908 409.536 304.457 415.976 315.811 415.135Z" fill="white"/>
<path d="M292.908 409.536C298.507 411.494 304.32 412.59 310.154 412.433C312.033 412.394 313.853 412.12 315.596 411.748C317.455 411.357 319.276 412.531 319.667 414.391C320.059 416.25 318.884 418.071 317.025 418.462C314.499 418.638 311.916 418.032 309.567 417.503C303.537 415.918 297.939 413.118 292.908 409.536Z" fill="#000072"/>
<path d="M443.949 362.106C439.701 363.222 435.825 365.767 433.476 369.407C432.204 371.443 431.519 373.773 431.264 376.122C431.088 377.883 429.463 379.175 427.702 378.921C425.666 378.666 424.413 376.396 425.255 374.536C426.468 371.619 428.211 368.938 430.579 366.843C434.24 363.633 439.153 361.969 443.949 362.106Z" fill="#000072"/>
<path d="M447.335 376.905C443.577 378.804 440.445 381.857 438.644 385.596C437.704 387.671 437.254 389.961 437.235 392.212C437.235 393.994 435.747 395.423 433.966 395.344C432.223 395.286 430.873 393.818 430.932 392.075C431.558 388.826 433.32 385.87 435.434 383.384C438.566 380.017 442.833 377.688 447.335 376.905Z" fill="#000072"/>
<g opacity="0.5">
<path d="M94.8483 404.662C91.0312 404.917 84.1408 405.152 81.1066 400.982C79.5406 398.849 80.7151 394.894 84.8455 392.917C108.179 381.642 141.73 405.778 136.66 410.359C132.745 413.882 127.773 402.47 94.8483 404.662Z" fill="white"/>
</g>
<path d="M460.764 190.981C455.596 178.766 447.022 169.762 433.594 176.378C427.193 180.117 425.646 188.084 424.902 195.112C424.785 196.286 423.728 197.128 422.573 197.01C421.79 196.932 421.144 196.423 420.831 195.738C419.558 192.841 419.03 189.611 419.128 186.322C419.617 170.682 434.846 161.619 449.273 166.806C458.845 170.506 463.935 180.509 464.835 190.159C464.992 192.606 461.547 193.271 460.764 190.981Z" fill="#000072"/>
<path d="M314.773 204.018C313.56 193.271 316.692 181.155 326.205 174.812C332.959 170.506 341.063 169.507 348.677 171.974C356.116 174.519 361.695 181.272 363.633 188.613C364.572 192.156 364.846 195.797 364.259 199.281C364.063 200.436 362.967 201.219 361.832 201.023C360.99 200.886 360.344 200.26 360.129 199.477C358.484 193.878 356.174 188.417 352.22 184.365C348.501 180.587 343.549 179.256 338.146 179.804C332.782 180.098 327.986 182.877 324.972 187.321C321.801 191.843 319.902 197.969 318.923 203.94C318.669 206.387 315.126 206.465 314.773 204.018Z" fill="#000072"/>
</svg>
