<svg width="656" height="622" viewBox="0 0 656 622" fill="none" xmlns="http://www.w3.org/2000/svg">
<ellipse cx="313" cy="322.5" rx="313" ry="299.5" fill="#B0A2D7"/>
<path d="M465.892 519.285C434.053 538.153 396.892 548.966 357.213 548.966C326.693 548.966 297.635 542.564 271.359 531.008C282.747 527.076 294.423 521.778 306.362 515.089C307.969 514.178 309.383 513.075 310.558 511.78L310.582 511.756L310.606 511.78C311.373 511.277 347 487.757 390.946 508.76C435.324 530.025 430.025 491.953 465.892 519.285Z" fill="#35EF4B"/>
<path d="M570.758 335.852C570.758 335.852 560.521 350.333 550.38 335.42C544.985 327.485 539.519 330.601 537.697 334.294C536.45 336.859 536.139 339.76 536.45 342.613C537.601 352.802 533.645 360.283 530.457 364.55C528.179 367.571 527.124 371.359 527.436 375.123C530.217 408.28 518.565 404.492 518.565 404.492C462.967 392.385 530.001 296.006 482.554 265.773C435.108 235.541 481.524 203.989 444.602 184.594C408.136 165.438 422.641 132.952 423.001 132.16C423.001 132.136 423.001 132.136 423.001 132.136C404.78 126.239 385.48 122.714 365.461 121.947C365.461 121.947 378.695 142.398 355.775 160.595C332.879 178.792 334.892 205.308 348.223 225.927C361.553 246.569 344.003 270.208 318.781 264.742C293.56 259.276 292.169 309.216 311.205 323.169C330.217 337.099 320.579 385.24 270.496 390.419C255.319 418.302 223.792 447.743 177.736 451.388C190.875 471.646 207.345 489.556 226.382 504.3C245.37 503.749 266.3 497.156 288.956 484.545C297.372 479.87 307.969 482.891 312.644 491.306C316.432 498.091 315.161 506.314 310.102 511.685L310.126 511.709C310.893 511.205 346.592 487.758 390.466 508.856C434.82 530.169 429.594 492.097 465.412 519.524C483.729 508.736 500.296 495.286 514.585 479.726C514.585 479.726 514.585 479.726 514.585 479.702C514.585 478.839 514.154 435.636 528.946 411.589C533.789 403.701 545.585 405.763 547.551 414.802C548.462 419.021 548.869 424.32 548.246 430.817C562.607 402.239 570.687 369.968 570.758 335.852ZM397.515 437.242C361.697 463.087 373.9 429.762 379.75 416.336C381.212 412.98 381.572 409.239 380.733 405.691C376.993 389.508 368.553 343.092 395.022 340.935C427.076 338.297 410.797 366.06 435.516 363.807C460.234 361.529 441.605 405.427 397.515 437.242Z" fill="#00BDFF"/>
<path d="M548.318 430.817C539.375 448.678 528.011 465.101 514.657 479.702C514.657 478.839 514.225 435.636 529.018 411.589C533.861 403.701 545.656 405.763 547.622 414.802C548.533 419.045 548.941 424.32 548.318 430.817Z" fill="#35EF4B"/>
<path d="M355.799 160.619C332.902 178.816 334.916 205.332 348.246 225.951C361.576 246.593 344.027 270.232 318.805 264.766C293.583 259.3 292.193 309.24 311.229 323.193C330.241 337.123 320.603 385.265 270.519 390.443C283.082 367.331 284.425 345.274 273.468 339.856C245.322 325.902 218.062 364.766 218.062 364.766V364.79C211.565 359.851 202.55 355.631 190.011 353.594C168.674 350.117 154.361 356.159 145.346 363.16C144.771 358.7 144.339 354.193 144.027 349.614C227.293 317.655 255.175 277.137 242.373 255.608C232.04 238.226 218.23 243.117 212.548 246.186C211.109 246.953 209.287 246.761 208.112 245.634C197.468 235.469 180.781 260.547 176.298 267.835C175.507 269.13 174.404 270.185 173.085 270.928L149.709 284.306C166.828 214.515 218.278 158.221 285.072 134.27C287.086 137.507 291.282 140.791 299.601 137.291C301.735 136.404 304.228 136.931 305.691 138.73C309.143 143.021 317.942 149.279 338.632 145.61C349.925 143.597 354.384 137.027 355.559 129.571C355.966 126.91 355.966 124.297 355.559 121.803C356.254 121.803 356.925 121.803 357.597 121.803C360.234 121.803 362.847 121.851 365.46 121.971C365.484 121.947 378.719 142.398 355.799 160.619Z" fill="#35EF4B"/>
<path d="M570.758 335.852C570.758 335.852 560.521 350.333 550.38 335.42C544.985 327.485 539.519 330.601 537.697 334.294C536.45 336.859 536.139 339.76 536.45 342.613C537.601 352.802 533.645 360.283 530.456 364.55C528.179 367.571 527.124 371.359 527.436 375.123C530.217 408.28 518.565 404.492 518.565 404.492C462.967 392.385 530.001 296.006 482.554 265.773C435.108 235.541 481.523 203.989 444.602 184.594C408.136 165.438 422.641 132.952 423 132.16C430.409 134.558 437.649 137.339 444.698 140.504L442.876 143.309C441.653 145.203 441.054 147.337 441.054 149.422C441.054 153.234 442.996 156.975 446.52 159.108C451.723 162.249 458.507 160.691 461.816 155.608L464.861 150.909C528.347 188.022 570.926 256.998 570.758 335.852Z" fill="#35EF4B"/>
<path d="M397.515 437.242C361.696 463.087 373.899 429.762 379.749 416.336C381.212 412.98 381.571 409.239 380.732 405.691C376.992 389.508 368.553 343.092 395.021 340.935C427.076 338.297 410.797 366.06 435.515 363.807C460.233 361.529 441.605 405.427 397.515 437.242Z" fill="#35EF4B"/>
<g opacity="0.3">
<path d="M176.178 268.195C180.661 260.882 197.3 235.756 207.969 245.922C209.144 247.049 210.966 247.264 212.404 246.473C212.788 246.257 213.195 246.042 213.651 245.826C225.638 201.904 251.292 163.64 285.768 135.853C286.871 134.966 287.973 134.078 289.1 133.215C287.686 133.695 286.295 134.198 284.881 134.702C281.596 135.901 278.36 137.171 275.147 138.514C254.6 152.515 183.251 205.332 165.485 275.267C165.485 275.267 165.413 275.435 165.317 275.723L172.989 271.311C174.308 270.544 175.387 269.489 176.178 268.195Z" fill="#0F227A"/>
</g>
<g opacity="0.3">
<path d="M190.083 353.929C200.656 355.631 208.736 358.868 214.922 362.824C210.654 348.463 207.873 333.454 206.746 317.99C193.584 327.173 176.873 336.379 156.351 345.082C156.542 348.87 156.878 352.778 157.31 356.782C165.677 353.45 176.418 351.723 190.083 353.929Z" fill="#0F227A"/>
<path d="M215.952 364.19L214.586 363.327C207.873 359.036 199.601 356.063 189.987 354.504C177.952 352.562 167.019 353.521 157.525 357.334L156.782 357.621L156.686 356.83C156.255 352.922 155.919 348.966 155.727 345.082L155.703 344.675L156.087 344.507C175.626 336.212 192.553 327.125 206.362 317.487L207.225 316.888L207.297 317.943C208.4 333.095 211.157 348.127 215.449 362.632L215.952 364.19ZM178.264 352.347C182.1 352.347 186.079 352.682 190.179 353.33C199.338 354.816 207.297 357.549 213.914 361.481C209.935 347.696 207.345 333.43 206.218 319.069C192.577 328.468 176.034 337.338 156.974 345.442C157.166 348.918 157.453 352.419 157.837 355.919C164.094 353.545 170.927 352.347 178.264 352.347Z" fill="#0F227A"/>
</g>
<g opacity="0.3">
<path d="M457.165 512.116C444.937 514.298 432.351 515.449 419.5 515.449C379.078 515.449 341.318 504.204 309.095 484.689C308.807 484.521 308.52 484.353 308.256 484.185C307.896 483.97 307.537 483.73 307.177 483.514C306.865 483.322 306.554 483.13 306.242 482.915C305.954 482.747 305.691 482.555 305.427 482.387C281.308 467.115 260.45 447.096 244.171 423.672C230.457 435.684 213.027 445.418 192.097 449.733C200.249 461.817 210.102 473.996 221.994 486.055C228.084 492.241 234.869 497.827 242.109 502.838C256.854 500.057 272.629 494.015 289.364 484.665C294.207 481.956 299.769 481.812 304.516 483.778C304.828 483.922 305.115 484.041 305.427 484.185C305.763 484.353 306.098 484.521 306.434 484.713C306.818 484.929 307.177 485.144 307.537 485.384C307.824 485.576 308.088 485.768 308.352 485.959C310.246 487.374 311.852 489.196 313.075 491.378C316.863 498.163 315.64 506.386 310.582 511.757L310.558 511.78C309.383 513.075 307.968 514.178 306.362 515.089C299.625 518.853 292.96 522.186 286.391 525.063C326.477 538.92 390.61 546.928 457.165 512.116Z" fill="#0F227A"/>
</g>
<g opacity="0.3">
<path d="M365.053 121.947C362.44 121.851 359.827 121.803 357.189 121.803C356.806 121.803 356.398 121.803 356.015 121.803C358.484 128.924 360.282 142.829 344.195 155.656C321.323 173.901 323.409 200.417 336.787 221.012C350.165 241.606 332.663 265.294 307.441 259.899C282.219 254.481 280.925 304.445 299.985 318.35C316.887 330.697 311.229 370.016 274.715 382.388C273.541 385.097 272.198 387.878 270.688 390.635C320.747 385.336 330.289 337.195 311.253 323.313C292.193 309.408 293.488 259.468 318.709 264.862C343.931 270.28 361.457 246.593 348.055 225.975C334.677 205.38 332.615 178.864 355.463 160.619C378.335 142.374 365.053 121.947 365.053 121.947Z" fill="#0F227A"/>
</g>
<g opacity="0.3">
<path d="M493.391 260.307C445.873 230.17 492.216 198.523 455.271 179.199C429.785 165.869 429.114 146.018 431.176 134.966C428.347 133.935 425.494 132.928 422.617 131.993C422.257 132.784 407.824 165.294 444.338 184.378C481.308 203.678 434.964 235.349 482.459 265.485C529.953 295.598 463.135 392.145 518.757 404.133C518.757 404.133 523.552 405.667 526.237 398.019C476.968 382.771 539.855 289.772 493.391 260.307Z" fill="#0F227A"/>
</g>
<g opacity="0.3">
<path d="M391.114 413.195C392.576 409.839 392.912 406.099 392.073 402.551C388.788 388.477 381.907 351.508 397.635 340.695C396.82 340.719 395.981 340.767 395.07 340.839C368.625 343.069 377.136 389.46 380.924 405.643C381.764 409.192 381.428 412.932 379.965 416.288C374.763 428.3 364.526 456.231 387.973 443.452C380.013 441.414 387.062 422.522 391.114 413.195Z" fill="#0F227A"/>
</g>
<g opacity="0.3">
<path d="M539.303 409.168C539.855 408.28 540.502 407.513 541.197 406.89C537.026 405.451 531.967 406.698 529.21 411.229C514.465 435.3 514.969 478.503 514.993 479.366C518.613 475.41 522.041 471.311 525.35 467.091C526.093 452.658 528.898 426.166 539.303 409.168Z" fill="#0F227A"/>
<path d="M514.394 480.901L514.37 479.39C514.346 477.592 513.938 434.989 528.683 410.918C531.799 405.811 537.314 404.924 541.389 406.314L542.348 406.65L541.605 407.321C540.886 407.993 540.311 408.688 539.807 409.479C529.474 426.382 526.669 452.85 525.926 467.115V467.307L525.806 467.451C522.425 471.766 518.925 475.914 515.401 479.75L514.394 480.901ZM537.793 406.914C534.844 406.914 531.728 408.232 529.714 411.517C516.527 433.047 515.616 469.728 515.568 477.808C518.661 474.356 521.754 470.687 524.751 466.875C525.518 452.442 528.347 425.902 538.776 408.856C539.136 408.256 539.567 407.705 540.047 407.178C539.328 407.01 538.56 406.914 537.793 406.914Z" fill="#0F227A"/>
</g>
<g opacity="0.3">
<path d="M368.745 410.534C369.584 414.082 369.249 417.823 367.786 421.179C362.392 433.646 351.555 463.255 378.599 446.736C367.906 447.024 375.65 426.214 379.966 416.288C381.428 412.932 381.764 409.192 380.925 405.643C377.808 392.289 371.454 358.293 384.257 345.634C383.802 345.658 383.346 345.682 382.891 345.73C356.446 347.959 364.957 394.351 368.745 410.534Z" fill="#0F227A"/>
<path d="M366.228 452.227C364.717 452.227 363.471 451.819 362.536 450.98C357.285 446.425 363.255 430.194 367.259 420.939C368.673 417.655 369.009 414.106 368.194 410.678C365.197 397.899 359.347 366.612 369.704 352.395C372.869 348.055 377.304 345.61 382.866 345.154C383.346 345.106 383.801 345.082 384.257 345.058L385.839 344.962L384.712 346.089C372.197 358.484 378.311 391.786 381.548 405.523C382.411 409.215 382.075 413.027 380.541 416.552C374.451 430.625 372.389 440.814 374.883 444.507C375.674 445.657 376.897 446.209 378.623 446.161L380.876 446.113L378.958 447.288C373.468 450.572 369.249 452.227 366.228 452.227ZM369.344 410.39C370.208 414.082 369.872 417.894 368.337 421.419C361.72 436.667 359.898 447.12 363.303 450.093C365.484 451.987 370.088 450.956 376.729 447.144C375.506 446.832 374.547 446.185 373.852 445.154C370.112 439.64 375.722 424.559 379.414 416.048C380.828 412.764 381.164 409.215 380.349 405.787C377.184 392.241 371.238 359.923 382.794 346.353C377.64 346.832 373.564 349.086 370.639 353.09C360.594 366.924 366.372 397.779 369.344 410.39Z" fill="#0F227A"/>
</g>
<g opacity="0.3">
<path d="M410.438 136.883C410.078 137.699 395.645 170.209 432.159 189.269C469.129 208.569 422.785 240.24 470.279 270.376C517.774 300.489 450.956 397.036 506.578 409.024C506.578 409.024 511.397 410.582 514.082 402.838C467.019 386.439 528.515 294.711 482.459 265.509C434.94 235.373 481.284 203.726 444.338 184.402C407.825 165.318 422.258 132.808 422.617 132.017C422.617 131.993 422.617 131.993 422.617 131.993C404.372 126.143 385.072 122.666 365.077 121.947C365.077 121.947 366.54 124.201 367.666 127.869C382.411 129.427 396.724 132.472 410.438 136.883Z" fill="#0F227A"/>
<path d="M507.56 409.743C506.865 409.743 506.41 409.599 506.41 409.599C477.376 403.342 481.14 374.572 485.12 344.099C488.884 315.21 492.792 285.361 469.992 270.904C444.386 254.673 445.729 237.842 446.904 223.026C447.935 209.959 448.846 198.691 431.919 189.844C397.347 171.791 407.729 142.062 409.67 137.291C396.029 132.952 381.883 130.003 367.618 128.492L367.235 128.444L367.115 128.061C366.036 124.512 364.621 122.307 364.597 122.283L363.974 121.324L365.125 121.372C384.76 122.067 404.18 125.471 422.833 131.465L423.24 131.609L423.192 132.304C422.593 133.647 408.759 165.174 444.626 183.898C462.248 193.105 461.289 205.332 460.258 218.255C459.107 232.76 457.812 249.182 482.794 265.03C506.242 279.894 502.286 310.151 498.474 339.4C494.782 367.643 491.305 394.303 514.297 402.311L514.873 402.503L514.681 403.078C512.619 408.88 509.311 409.743 507.56 409.743ZM368.098 127.317C382.531 128.876 396.844 131.897 410.629 136.308L411.037 136.452L410.989 137.147C410.39 138.49 396.556 170.017 432.423 188.741C450.044 197.948 449.085 210.175 448.054 223.098C446.904 237.602 445.609 254.025 470.591 269.873C494.038 284.737 490.083 314.994 486.271 344.243C482.363 374.164 478.695 402.407 506.697 408.448C506.913 408.52 510.845 409.623 513.314 403.198C490.035 394.639 493.559 367.691 497.275 339.209C501.039 310.343 504.923 280.47 482.147 266.013C456.542 249.782 457.884 232.951 459.059 218.135C460.09 205.068 461.001 193.8 444.075 184.953C409.503 166.9 419.884 137.171 421.826 132.4C403.821 126.67 385.096 123.386 366.132 122.618C366.635 123.529 367.403 125.16 368.098 127.317Z" fill="#0F227A"/>
</g>
<g opacity="0.3">
<path d="M528.898 411.733C524.726 410.342 519.763 411.637 517.006 416.12C502.262 440.191 502.765 483.394 502.789 484.257C502.789 484.281 502.789 484.281 502.789 484.281C491.209 496.964 478.119 508.184 463.806 517.774C464.477 518.254 465.172 518.757 465.867 519.309C484.16 508.472 500.703 494.998 514.968 479.39C514.968 479.39 514.968 479.39 514.968 479.366C514.968 478.503 514.465 435.9 528.898 411.733Z" fill="#0F227A"/>
<path d="M465.844 520.028L465.532 519.788C464.837 519.261 464.141 518.757 463.47 518.278L462.775 517.774L463.494 517.295C477.711 507.753 490.754 496.58 502.214 484.065C502.19 480.229 502.19 439.256 516.527 415.833C519.62 410.774 525.062 409.863 529.114 411.205L529.833 411.445L529.449 412.092C515.184 435.995 515.568 477.664 515.592 479.414V479.654L515.424 479.846C501.039 495.597 484.472 509.047 466.203 519.86L465.844 520.028ZM464.861 517.798C465.22 518.062 465.556 518.326 465.916 518.589C483.897 507.921 500.176 494.638 514.369 479.174C514.345 475.41 514.345 435.732 527.987 412.116C524.487 411.253 520.099 412.236 517.534 416.456C502.981 440.239 503.365 482.507 503.389 484.281V484.521L503.221 484.713C491.857 497.132 478.958 508.256 464.861 517.798Z" fill="#0F227A"/>
</g>
<g opacity="0.6">
<path d="M528.443 462.991C554.887 427.604 570.615 383.73 570.806 336.188C571.238 218.47 475.17 122.019 357.453 122.019C281.212 122.019 214.298 162.033 176.585 222.187C215.497 170.137 277.592 136.452 347.575 136.452C391.689 136.452 432.662 149.854 466.683 172.774C469.44 174.62 471.046 177.737 471.094 181.045C471.238 191.594 479.51 208.737 493.295 225.255C507.56 242.35 523.552 253.762 533.885 255.2C537.241 255.656 540.142 257.837 541.557 260.93C553.976 287.974 560.905 318.087 560.905 349.806C560.905 391.402 549.013 430.194 528.443 462.991Z" fill="white"/>
</g>
<path d="M180.182 53.4024C171.047 52.2516 162.848 52.1797 156.087 52.5633C153.354 44.8194 153.018 35.589 153.569 27.3176L162.153 22.5706C162.153 22.5706 168.985 30.9378 166.012 39.3051C166.036 39.3051 178 41.2471 180.182 53.4024Z" fill="white"/>
<path d="M156.087 52.5874C143.716 53.3066 136.092 55.5363 136.092 55.5363C134.773 49.6864 132.735 44.4838 130.458 40.0245C130.458 40.0245 140.263 20.269 157.262 4.80518C157.262 4.80518 154.409 14.9946 153.569 27.3177C153.018 35.5891 153.354 44.8434 156.087 52.5874Z" fill="white"/>
<path d="M276.034 341.75C284.161 349.182 282.123 369.465 270.663 390.611C255.559 418.542 224.08 448.031 178.048 451.771C167.307 452.634 155.775 452.107 143.5 449.829C139.928 449.158 136.26 448.367 132.543 447.384C119.213 443.907 107.753 438.465 97.8996 431.536V431.512C96.2453 430.361 94.663 429.163 93.1046 427.916C75.7467 414.154 63.7831 395.598 55.6316 375.411C44.0277 346.689 40.1198 314.706 39.2807 288.669C38.6094 267.26 39.976 249.902 40.8151 241.678C41.1507 238.346 40.3836 235.013 38.6813 232.16C29.0194 216.073 -2.10014 157.574 13.9871 95.1669C13.9871 95.1669 35.157 95.8382 54.4808 100.37C54.5528 100.178 55.2241 97.8042 56.4228 94.112C59.7074 83.9227 66.78 63.6638 74.6198 51.8921C74.6198 51.8921 83.107 59.2284 85.4326 66.9484L116.312 20.9883C116.312 20.9883 116.312 20.9883 116.336 21.0123C116.72 21.3239 124.416 28.0849 130.458 39.9765C132.735 44.4358 134.773 49.6384 136.092 55.4883C136.092 55.4883 138.537 54.7691 142.925 54.0258C144.555 53.7381 146.473 53.4504 148.631 53.1867C150.86 52.899 153.354 52.6832 156.087 52.5154C162.872 52.1318 171.047 52.2037 180.182 53.3545C186.535 54.1457 193.32 55.4644 200.417 57.4783C207.513 59.5161 214.922 62.2493 222.474 65.9174C233.502 71.2639 244.842 78.5762 256.015 88.4779C259.036 91.1391 262.032 94.0161 265.005 97.061C265.005 97.061 270.711 97.5405 277.76 101.4C277.76 101.4 275.914 109.312 274.284 112.98C274.284 112.98 279.726 112.045 283.754 112.98C282.219 116.073 281.524 119.837 281.956 124.369C282.099 126.095 282.411 127.917 282.915 129.883C282.915 129.883 283.298 132.112 284.713 134.366C222.594 156.783 173.828 207.178 153.689 270.352C152.179 275.051 150.836 279.822 149.662 284.665L173.013 271.239C174.332 270.496 175.411 269.417 176.202 268.147C180.685 260.834 197.324 235.708 207.993 245.874C209.168 247.001 210.99 247.216 212.428 246.425C217.918 243.452 230.961 238.753 241.222 254.097C241.582 254.649 241.917 255.2 242.277 255.775C255.152 277.305 227.341 317.847 144.147 349.997C144.459 354.552 144.915 359.06 145.49 363.543C154.505 356.518 168.794 350.453 190.131 353.881C202.67 355.895 211.709 360.091 218.206 365.03V365.006C218.206 365.006 222.234 359.204 228.827 352.898C239.304 342.853 256.254 331.441 273.564 339.976C274.451 340.479 275.291 341.079 276.034 341.75Z" fill="white"/>
<path d="M355.151 129.571C354.001 137.003 349.541 143.596 338.249 145.634C317.559 149.35 308.76 143.093 305.284 138.825C303.821 137.027 301.328 136.5 299.194 137.387C290.875 140.887 286.703 137.651 284.665 134.39C283.25 132.136 282.867 129.907 282.867 129.907C281.093 122.81 281.596 117.296 283.73 113.004C290.515 99.2426 313.771 98.3556 330.793 99.7221C343.26 100.729 353.281 110.103 355.128 121.779C355.559 124.297 355.583 126.934 355.151 129.571Z" fill="white"/>
<path d="M310.558 511.804C309.359 513.099 307.944 514.226 306.338 515.113C294.399 521.802 282.723 527.1 271.335 531.032C254.936 536.714 239.16 539.544 224.032 539.544C219.453 539.544 214.921 539.28 210.462 538.752C200.584 537.602 191.018 535.156 181.764 531.44C121.443 507.225 99.4099 437.29 98.4988 434.317C98.2111 433.382 98.0193 432.471 97.8755 431.536C107.729 438.441 119.213 443.907 132.519 447.384C136.235 448.367 139.88 449.158 143.476 449.829C153.402 467.427 170.04 489.292 194.902 499.218C196.916 500.033 198.978 500.752 201.064 501.351C209.191 503.797 217.774 504.876 226.765 504.588C245.753 503.989 266.659 497.348 289.292 484.713C297.683 480.014 308.304 483.01 313.003 491.426C316.839 498.187 315.616 506.41 310.558 511.804Z" fill="white"/>
<path d="M651.507 130.123L599.169 210.103L477.544 130.506L529.426 50.2378H529.45L651.507 130.123Z" fill="white"/>
<path d="M610.845 145.73C610.437 144.628 609.334 143.932 608.159 144.076L586.486 146.665L581.092 142.206L587.397 134.198C588.26 133.096 588.068 131.489 586.966 130.626C585.863 129.763 584.256 129.955 583.393 131.058L577.088 139.065L573.084 135.925L582.53 123.913C583.393 122.81 583.202 121.204 582.099 120.341C580.996 119.478 579.39 119.67 578.526 120.772L569.08 132.784L565.076 129.643L577.687 113.628C578.55 112.525 578.359 110.919 577.256 110.056C576.153 109.192 574.547 109.384 573.683 110.487L561.073 126.502L555.966 122.499C564.957 110.799 568.912 103.271 567.594 100.202C566.851 98.4517 564.669 96.4857 554.144 95.0712C549.205 94.4238 523.288 92.1462 519.332 97.157C515.4 102.144 523.672 126.742 525.446 131.369C529.306 141.367 531.751 143.021 533.621 143.357C533.885 143.405 534.173 143.405 534.508 143.381C538.009 142.973 544.194 137.267 552.825 126.502L557.932 130.506L545.321 146.522C544.458 147.624 544.65 149.231 545.753 150.094C546.855 150.957 548.462 150.765 549.325 149.662L561.936 133.647L565.94 136.788L556.493 148.799C555.63 149.902 555.822 151.508 556.925 152.371C558.028 153.235 559.634 153.043 560.497 151.94L569.943 139.928L573.947 143.069L567.642 151.077C566.779 152.18 566.97 153.786 568.073 154.649C569.176 155.512 570.782 155.32 571.646 154.218L577.951 146.21L583.154 150.525L585.767 172.415C585.911 173.589 586.846 174.5 588.02 174.644C588.212 174.668 588.404 174.668 588.62 174.644C589.555 174.524 590.394 173.901 590.706 172.966C594.254 163.112 601.135 154.481 609.886 148.727C610.821 148.08 611.228 146.833 610.845 145.73ZM548.054 115.042C546.76 116.697 544.889 117.68 542.947 117.895C541.005 118.135 538.968 117.632 537.313 116.313C534.005 113.7 533.429 108.881 536.043 105.572C538.656 102.264 543.475 101.688 546.783 104.302C550.092 106.915 550.667 111.734 548.054 115.042Z" fill="#FFB531"/>
<path d="M256.015 88.5258C196.197 151.005 136.092 82.6999 136.092 82.6999C139.76 69.8253 136.092 55.5122 136.092 55.5122C136.092 55.5122 143.716 53.2825 156.087 52.5633C162.872 52.1797 171.047 52.2516 180.182 53.4024C186.535 54.1936 193.32 55.5122 200.417 57.5261C207.513 59.564 214.922 62.2971 222.474 65.9653C233.478 71.3117 244.842 78.6241 256.015 88.5258Z" fill="#FFB531"/>
<path d="M310.558 511.804C309.359 513.099 307.945 514.226 306.338 515.113C294.399 521.802 282.723 527.1 271.335 531.032C254.936 536.714 239.16 539.543 224.032 539.543C219.453 539.543 214.922 539.28 210.462 538.752C200.441 525.638 200.129 510.294 201.088 501.327C209.216 503.773 217.799 504.852 226.789 504.564C245.777 503.965 266.684 497.323 289.316 484.689C297.707 479.99 308.328 482.986 313.027 491.402C316.839 498.187 315.617 506.41 310.558 511.804Z" fill="#FFB531"/>
<path d="M112.836 373.325C112.836 394.087 105.428 413.147 93.1046 427.94C51.0285 394.591 40.7432 332.999 39.2808 288.693C80.8294 294.495 112.836 330.17 112.836 373.325Z" fill="#FFB531"/>
<path d="M200.416 57.5262C193.32 55.5123 186.535 54.1937 180.182 53.4025C178 41.2472 166.012 39.3052 166.012 39.3052C168.961 30.9379 162.152 22.5707 162.152 22.5707L153.569 27.3177C154.408 14.9946 157.261 4.80518 157.261 4.80518C157.261 4.80518 181.5 20.9643 200.416 57.5262Z" fill="#FF789F"/>
<path d="M63.3279 173.589C72.8939 144.124 47.7921 148.104 47.7921 148.104C48.3675 129.763 39.1131 120.676 39.1131 120.676L27.3893 141.535L13.9873 95.1909C13.9873 95.1909 35.1572 95.8622 54.4811 100.394L72.6781 105.021C77.9047 144.939 63.3279 173.589 63.3279 173.589Z" fill="#FF789F"/>
<g opacity="0.3">
<path d="M345.058 133.287C324.368 137.003 315.569 130.746 312.093 126.478C310.63 124.68 308.137 124.153 306.003 125.04C297.684 128.54 293.512 125.303 291.474 122.043C290.06 119.789 289.676 117.56 289.676 117.56C288.669 113.508 288.429 109.959 288.765 106.867C286.655 108.569 284.929 110.583 283.73 113.028C281.62 117.296 281.117 122.834 282.867 129.931C282.867 129.931 283.251 132.16 284.665 134.414C286.703 137.651 290.875 140.911 299.194 137.411C301.328 136.5 303.821 137.027 305.284 138.849C308.76 143.117 317.559 149.374 338.249 145.658C349.541 143.62 353.977 137.027 355.152 129.595C355.176 129.451 355.176 129.307 355.2 129.163C352.706 131.057 349.398 132.496 345.058 133.287Z" fill="#0F227A"/>
</g>
<g opacity="0.3">
<path d="M153.665 270.4C152.155 275.099 150.812 279.87 149.638 284.713C149.638 284.713 125.711 299.122 121.587 300.944C120.22 301.544 118.59 301.879 117.056 302.071C114.874 302.335 113.555 299.769 114.97 298.091C118.422 294.015 121.011 289.724 122.714 286.511C124.032 284.018 122.618 280.949 119.885 280.326C93.5121 274.524 94.5191 260.858 95.8377 255.895C96.1734 254.649 95.8857 253.354 95.1425 252.299C86.1518 239.257 103.342 232.472 103.342 232.472C89.1247 243.093 111.637 251.987 111.637 251.987C107.777 254.792 108.544 258.94 108.544 258.94C114.011 271.287 153.665 270.424 153.665 270.4Z" fill="#0F227A"/>
</g>
<g opacity="0.3">
<path d="M144.1 350.045C144.411 354.601 144.867 359.108 145.442 363.591C140.288 367.667 135.708 373.685 132.616 378.336C131.033 380.709 127.341 379.534 127.413 376.681C127.509 372.438 128.444 368.65 129.571 365.557C131.081 361.409 129.475 356.83 125.903 354.241C125.375 353.857 124.896 353.474 124.44 353.09C122.858 351.747 123.241 349.254 125.111 348.343C236.044 294.975 237.866 269.705 241.174 254.145C241.534 254.697 241.87 255.248 242.229 255.824C255.104 277.353 227.293 317.919 144.1 350.045Z" fill="#0F227A"/>
</g>
<g opacity="0.3">
<path d="M284.689 134.414C222.57 156.831 173.805 207.226 153.666 270.4L140.743 270.017C140.743 270.017 170.137 157.071 281.932 124.393C282.076 126.119 282.387 127.941 282.891 129.907C282.915 129.931 283.275 132.16 284.689 134.414Z" fill="#0F227A"/>
</g>
<g opacity="0.3">
<path d="M71.5992 146.689C69.0818 155.081 66.6364 159.852 66.6364 159.852C71.5512 142.446 64.095 136.836 58.8684 135.037C56.3511 134.174 54.6009 131.897 54.1694 129.259C52.8507 121.3 48.0797 115.594 45.9459 111.854C44.5554 109.408 40.9831 109.456 39.6165 111.926L30.6978 127.797L21.3955 95.5986C16.8403 95.2629 14.0112 95.167 14.0112 95.167L27.4133 141.511L39.137 120.652C39.137 120.652 48.3914 129.715 47.816 148.08C47.816 148.08 72.9418 144.1 63.3518 173.565C63.3278 173.589 68.5064 163.376 71.5992 146.689Z" fill="#0F227A"/>
</g>
<g opacity="0.3">
<path d="M270.664 390.611C255.559 418.542 224.08 448.031 178.048 451.771C167.307 452.634 155.775 452.107 143.5 449.829C139.928 449.158 136.26 448.367 132.544 447.384C119.214 443.907 107.753 438.465 97.8998 431.536V431.512C96.2455 430.361 94.6631 429.163 93.1048 427.916C75.7469 414.154 63.7833 395.598 55.6318 375.411C73.4932 397.228 101.88 416.408 147.072 422.641C248.055 436.571 271.023 367.187 276.034 341.726C284.186 349.182 282.124 369.465 270.664 390.611Z" fill="#0F227A"/>
</g>
<g opacity="0.3">
<path d="M47.2165 187.854L37.2429 142.518C36.8113 140.576 36.7394 138.562 37.0031 136.596L39.1129 120.652L27.3892 141.511C27.3892 141.535 37.171 168.554 47.2165 187.854Z" fill="#0F227A"/>
</g>
<g opacity="0.3">
<path d="M234.893 393.704C231.153 373.493 218.158 365.054 218.158 365.054C218.158 365.054 222.186 359.252 228.779 352.946C243.716 378.815 234.893 393.704 234.893 393.704Z" fill="#0F227A"/>
</g>
<g opacity="0.3">
<path d="M313.051 491.402C308.352 483.011 297.755 479.99 289.34 484.689C266.708 497.348 245.778 503.965 226.813 504.564C217.799 504.852 209.216 503.773 201.112 501.327C199.026 500.704 196.965 499.985 194.951 499.194C170.089 489.268 153.45 467.403 143.524 449.805C139.952 449.134 136.284 448.343 132.568 447.36C119.238 443.883 107.778 438.441 97.9238 431.512C98.0677 432.447 98.2595 433.358 98.5472 434.293C98.8349 435.18 101.041 442.229 105.644 452.251C112.093 455.439 119.094 458.101 126.742 460.09C126.79 460.09 126.814 460.114 126.862 460.114C133.551 461.865 139.449 465.868 143.261 471.646C153.426 487.11 168.434 503.629 189.125 511.9C191.139 512.716 193.2 513.435 195.286 514.034C203.414 516.48 211.997 517.559 220.988 517.271C239.976 516.671 260.882 510.03 283.514 497.396C291.906 492.696 302.526 495.693 307.226 504.109C308.784 506.89 309.479 509.91 309.431 512.883C309.839 512.524 310.222 512.164 310.582 511.757L310.606 511.733C315.617 506.41 316.84 498.187 313.051 491.402Z" fill="#0F227A"/>
</g>
<g opacity="0.3">
<path d="M153.569 27.3177C154.409 14.9946 157.262 4.80518 157.262 4.80518C151.987 9.60018 147.432 14.8028 143.62 19.6937C143.524 20.6047 143.452 21.5397 143.38 22.4987C143.068 27.1978 143.044 32.2086 143.572 37.0755C144.219 42.8535 140.072 48.0561 134.318 48.9671L134.222 48.9911C134.941 51.0769 135.588 53.2347 136.092 55.5363C136.092 55.5363 143.716 53.3066 156.087 52.5874C153.354 44.8434 153.018 35.5891 153.569 27.3177Z" fill="#0F227A"/>
</g>
<g opacity="0.3">
<path d="M159.851 38.634C159.108 33.9109 158.94 28.996 159.132 24.2729L153.594 27.3417C153.018 35.6131 153.378 44.8675 156.111 52.5874C162.896 52.2038 171.072 52.2758 180.206 53.4266C179.703 50.6455 178.696 48.4158 177.425 46.5937C174.428 46.4019 171.551 46.33 168.842 46.33C164.359 46.33 160.547 43.0454 159.851 38.634Z" fill="#0F227A"/>
</g>
<g opacity="0.3">
<path d="M78.2161 98.6194L72.7019 105.021L54.5049 100.394C54.5768 100.202 56.9503 92.29 58.1491 88.6218L66.7081 95.8383C68.1946 97.109 70.1366 97.7084 72.1025 97.5166L76.2981 95.9102C77.9524 95.2389 79.3669 97.2768 78.2161 98.6194Z" fill="#0F227A"/>
</g>
<g opacity="0.3">
<path d="M141.822 90.6837C146.737 82.724 150.716 70.6406 148.631 53.2347C143.596 53.8341 139.904 54.6013 137.89 55.0808C137.866 55.0808 137.866 55.0808 137.842 55.0808C137.602 55.1288 137.386 55.2007 137.195 55.2486C137.147 55.2726 137.099 55.2726 137.051 55.2966C136.883 55.3445 136.715 55.3925 136.595 55.4165C136.547 55.4165 136.523 55.4405 136.499 55.4405C136.403 55.4644 136.331 55.4884 136.284 55.4884C136.236 55.4884 136.236 55.5124 136.212 55.5124C136.164 55.5363 136.14 55.5363 136.14 55.5363C134.821 49.6864 132.783 44.4839 130.506 40.0245C124.464 28.1089 116.768 21.372 116.384 21.0603C116.792 22.0673 134.533 65.9175 122.69 102.527C121.611 105.836 125.519 108.497 128.156 106.219C130.745 103.966 133.67 101.089 136.739 97.4446C138.417 95.6465 140.191 93.4168 141.87 90.7316C141.798 90.7077 141.798 90.7077 141.822 90.6837Z" fill="#0F227A"/>
</g>
<g opacity="0.6">
<path d="M153.522 64.1434C160.306 63.7598 168.482 63.8317 177.616 64.9825C183.97 65.7737 190.755 67.0923 197.851 69.1062C204.948 71.1441 212.356 73.8773 219.908 77.5454C229.259 82.0767 238.849 88.0465 248.391 95.8144C250.932 93.6087 253.497 91.2112 256.039 88.55C244.842 78.6483 233.502 71.3359 222.498 65.9895C214.946 62.3213 207.537 59.5881 200.441 57.5503C193.344 55.5364 186.559 54.2178 180.206 53.4266C171.071 52.2758 162.872 52.2039 156.111 52.5875C143.74 53.3067 136.116 55.5364 136.116 55.5364C136.116 55.5364 137.243 59.9718 137.626 66.1333C141.055 65.4381 146.521 64.551 153.522 64.1434Z" fill="white"/>
</g>
<path d="M532.039 42.9014C532.039 44.9873 531.44 47.121 530.217 49.0151L529.426 50.2378L477.544 130.506L464.502 150.669L461.457 155.368C458.148 160.475 451.387 162.057 446.161 158.916C442.636 156.783 440.67 153.043 440.67 149.231C440.67 147.145 441.27 145.011 442.492 143.117L444.315 140.312L511.253 36.7638C514.561 31.6572 521.322 30.0748 526.549 33.2155C530.097 35.3493 532.039 39.0894 532.039 42.9014Z" fill="#656982"/>
<g opacity="0.6">
<path d="M526.573 33.2154C525.854 32.7839 525.11 32.4482 524.367 32.2085C525.47 33.9826 526.045 36.0445 526.045 38.1063C526.045 40.1922 525.446 42.3259 524.223 44.22L523.432 45.4427L471.55 125.711L458.508 145.874L455.463 150.573C452.61 154.984 447.168 156.759 442.373 155.128C443.284 156.615 444.554 157.933 446.161 158.916C451.387 162.057 458.148 160.475 461.457 155.368L464.501 150.669L477.544 130.506L529.426 50.2377L530.217 49.015C531.44 47.1209 532.039 44.9872 532.039 42.9013C532.039 39.0893 530.097 35.3492 526.573 33.2154Z" fill="white"/>
</g>
<g opacity="0.3">
<path d="M449.469 152.443C449.469 150.357 450.069 148.224 451.291 146.33L453.113 143.525L520.052 39.9766C522.042 36.9078 525.254 35.1336 528.659 34.8699C528.035 34.2465 527.34 33.6951 526.573 33.2156C521.346 30.0749 514.585 31.6333 511.277 36.7639L444.339 140.312L442.516 143.117C441.294 145.011 440.694 147.145 440.694 149.231C440.694 153.043 442.636 156.783 446.185 158.917C448.27 160.163 450.596 160.667 452.874 160.475C450.668 158.341 449.469 155.416 449.469 152.443Z" fill="#0F227A"/>
</g>
<g opacity="0.3">
<path d="M534.317 64.8865L539.519 56.8309L529.45 50.2378H529.426L477.544 130.506L599.169 210.103L606.745 198.523L555.511 165.006C522.114 143.141 512.643 98.4036 534.317 64.8865Z" fill="#0F227A"/>
</g>
<path d="M214.61 140.815C215.401 137.795 215.569 134.774 215.281 131.801C215.257 131.513 215.065 131.225 214.778 131.082C214.346 130.866 213.795 131.058 213.603 131.489V131.513C212.26 134.366 210.942 137.075 209.359 139.377C207.777 141.702 205.979 143.548 203.989 144.675C202.023 145.826 199.841 146.282 197.468 146.306C197.3 146.306 197.132 146.306 196.964 146.282C195.79 146.234 194.831 145.323 194.711 144.148C194.399 141.079 193.56 138.873 192.649 137.339C191.618 135.565 189.172 135.277 187.71 136.692L173.733 150.214C172.222 151.676 172.486 154.217 174.332 155.248C176.538 156.495 179.894 157.526 184.306 156.519C185.792 156.183 187.254 157.31 187.183 158.821C187.159 159.18 187.135 159.564 187.087 159.947C187.039 160.739 186.799 161.554 186.655 162.369C186.367 163.184 186.224 164.023 185.864 164.838C185.528 165.653 185.241 166.493 184.809 167.308C184.425 168.123 184.018 168.962 183.538 169.705C181.74 172.846 179.415 175.675 176.562 177.857C175.147 178.984 173.613 179.967 171.934 180.782C170.28 181.645 168.434 182.316 166.612 182.796L166.492 182.82C166.228 182.891 165.989 183.107 165.917 183.395C165.797 183.826 166.061 184.282 166.492 184.402C168.698 185.001 170.903 184.977 173.133 184.666C175.339 184.306 177.521 183.611 179.511 182.556C179.606 182.508 179.678 182.46 179.774 182.412C182.795 184.786 189.244 188.669 200.537 190.204C200.537 190.204 214.13 173.325 231.225 162.896C231.201 162.896 222.402 145.946 214.61 140.815Z" fill="#0F227A"/>
<path d="M201.759 185.217C201.759 185.217 196.005 165.27 221.707 157.142C221.707 157.142 223.553 159.372 224.679 164.503C224.703 164.503 211.997 173.757 201.759 185.217Z" fill="#FF789F"/>
<path d="M357.189 553.185C326.741 553.185 297.299 547.024 269.656 534.868L273.037 527.172C299.601 538.848 327.915 544.77 357.189 544.77C472.653 544.77 566.587 450.836 566.587 335.372C566.587 261.098 526.668 191.69 462.391 154.289L466.611 147.025C498.977 165.869 526.117 192.913 545.105 225.207C564.645 258.485 575.002 296.581 575.002 335.396C575.002 455.487 477.304 553.185 357.189 553.185Z" fill="#0F227A"/>
<path d="M442.612 144.148C415.688 132.112 386.942 125.999 357.189 125.999C356.518 125.999 355.847 125.999 355.175 125.999L355.104 117.583C355.799 117.583 356.494 117.583 357.189 117.583C388.117 117.583 418.014 123.937 446.041 136.476L442.612 144.148Z" fill="#0F227A"/>
<path d="M153.738 285.72L145.562 283.73C154.025 248.918 171.263 216.36 195.382 189.604C219.357 163.016 249.757 142.541 283.274 130.458L286.127 138.37C219.861 162.273 170.352 217.367 153.738 285.72Z" fill="#0F227A"/>
<path d="M141.27 364.166C140.671 359.611 140.216 354.96 139.88 350.357L148.271 349.781C148.583 354.217 149.014 358.676 149.59 363.064L141.27 364.166Z" fill="#0F227A"/>
<path d="M224.248 507.921C204.708 492.84 187.973 474.715 174.523 454.049L181.572 449.469C194.519 469.345 210.582 486.775 229.378 501.255L224.248 507.921Z" fill="#0F227A"/>
<path d="M121.06 300.513C131.369 292.817 142.038 285.696 152.778 278.743C158.149 275.243 163.759 272.222 169.345 269.081L171.311 267.979C171.719 267.739 172.078 267.427 172.414 267.092C172.582 266.924 172.726 266.732 172.846 266.54L173.037 266.228L173.373 265.701L174.692 263.615C176.49 260.858 178.384 258.173 180.422 255.536C182.459 252.922 184.641 250.381 187.063 247.96C189.532 245.586 192.193 243.26 195.67 241.534C197.396 240.695 199.41 239.976 201.687 239.856C203.965 239.712 206.458 240.335 208.4 241.582L209.12 242.038L209.767 242.565L210.39 243.093L210.534 243.236C210.51 243.212 210.534 243.236 210.558 243.236C210.582 243.236 210.606 243.236 210.606 243.212C210.606 243.212 210.63 243.212 210.63 243.188C210.63 243.188 210.606 243.188 210.654 243.188L210.798 243.117L211.11 242.949C211.901 242.517 212.74 242.134 213.555 241.774C216.912 240.383 220.604 239.472 224.464 239.616C228.3 239.712 232.208 240.911 235.42 242.949C238.657 244.963 241.246 247.672 243.428 250.477L244.914 252.659L245.658 253.761L246.329 255.008L247 256.279L247.528 257.597L248.031 258.94C248.175 259.396 248.295 259.851 248.415 260.307C249.398 263.975 249.518 267.787 249.038 271.407C248.583 275.051 247.456 278.432 246.137 281.668C244.818 284.929 243.068 287.878 241.27 290.779C239.376 293.608 237.362 296.317 235.157 298.858C226.43 309.024 216.072 317.319 205.164 324.464C183.227 338.585 159.276 349.23 133.958 354.528C133.598 354.6 133.239 354.361 133.167 354.001C133.095 353.713 133.263 353.402 133.503 353.258C144.891 347.216 156.303 341.654 167.523 335.828C173.133 332.927 178.695 329.954 184.186 326.885C189.676 323.816 194.974 320.436 200.201 317.008C205.428 313.555 210.39 309.791 215.185 305.883C219.956 301.951 224.464 297.708 228.468 293.128C232.447 288.549 235.972 283.61 238.345 278.312C240.743 273.061 241.846 267.379 240.599 262.321C240.527 262.009 240.455 261.697 240.383 261.386L240.047 260.474L239.712 259.563L239.28 258.7L238.849 257.837L238.249 256.95L237.075 255.152C235.372 252.898 233.478 250.908 231.321 249.518C229.163 248.103 226.741 247.336 224.2 247.24C221.659 247.096 218.997 247.696 216.432 248.703C215.809 248.966 215.161 249.254 214.562 249.566L213.963 249.854C213.603 250.021 213.243 250.165 212.884 250.285C212.141 250.525 211.349 250.645 210.582 250.645C209.024 250.645 207.441 250.165 206.123 249.182C205.955 249.062 205.811 248.943 205.643 248.799L205.428 248.607L205.356 248.559L205.068 248.319L204.78 248.079L204.493 247.912C203.725 247.432 203.006 247.24 202.071 247.288C201.16 247.336 200.057 247.672 198.93 248.223C196.653 249.326 194.375 251.22 192.265 253.282C190.155 255.368 188.166 257.693 186.272 260.115C184.401 262.536 182.603 265.078 180.901 267.691L179.654 269.657L179.343 270.16C179.223 270.376 179.055 270.64 178.887 270.856C178.552 271.311 178.216 271.767 177.832 272.174C177.065 272.989 176.202 273.733 175.243 274.332L173.061 275.627C167.547 278.863 162.105 282.22 156.375 285.097C144.963 290.875 133.455 296.509 121.611 301.568C121.323 301.687 120.988 301.568 120.868 301.256C120.772 300.968 120.868 300.681 121.06 300.513Z" fill="#0F227A"/>
<path d="M132.376 378.935C133.718 373.349 136.787 368.29 140.623 363.879C144.507 359.515 149.35 355.847 154.744 353.306C160.139 350.716 165.989 349.158 171.862 348.415C173.325 348.271 174.811 348.079 176.298 348.055L178.504 347.959C179.247 347.935 179.966 347.959 180.709 347.983C182.196 347.983 183.658 348.103 185.097 348.223C186.559 348.319 187.998 348.511 189.46 348.702C195.214 349.542 200.92 350.956 206.41 353.186C211.877 355.439 217.151 358.436 221.683 362.368C230.793 370.16 236.499 382.1 235.42 393.632C235.396 393.943 235.133 394.159 234.821 394.135C234.605 394.111 234.413 393.967 234.341 393.751L234.317 393.68C230.913 383.274 224.488 374.811 216.36 369.057C212.308 366.108 207.753 363.903 202.982 362.2C198.187 360.546 193.128 359.443 188.022 358.7C182.915 357.957 177.808 357.669 172.75 357.957C170.232 358.125 167.715 358.412 165.245 358.94C162.776 359.419 160.354 360.114 157.981 360.978C148.535 364.43 139.904 370.568 132.711 379.055L132.687 379.079C132.615 379.175 132.472 379.175 132.4 379.103C132.376 379.103 132.352 379.007 132.376 378.935Z" fill="#0F227A"/>
<path d="M214.706 362.656C215.881 361.002 216.983 359.611 218.158 358.173C219.333 356.734 220.532 355.344 221.802 353.977C224.296 351.244 226.957 348.655 229.786 346.209C235.444 341.366 241.845 337.027 249.374 334.485C253.114 333.239 257.165 332.495 261.265 332.543C265.365 332.567 269.489 333.43 273.277 334.965L274.667 335.564L275.362 335.876C275.578 335.972 275.89 336.164 276.154 336.307C277.257 336.907 278.287 337.674 279.198 338.513C281.045 340.215 282.363 342.277 283.274 344.339C285.096 348.487 285.528 352.658 285.528 356.614C285.456 364.55 283.562 371.91 281.069 378.935C278.527 385.936 275.195 392.577 271.335 398.882C263.591 411.445 253.665 422.593 242.061 431.752C230.457 440.886 217.151 447.959 202.934 452.131C188.741 456.446 173.78 457.813 159.108 456.83C151.771 456.35 144.483 455.247 137.338 453.689C130.242 452.131 123.049 450.069 116.216 447.216C102.503 441.582 89.8439 433.118 79.5107 422.474C74.3081 417.199 69.681 411.373 65.5573 405.259C61.4336 399.146 57.8613 392.721 54.7445 386.103C51.6038 379.486 48.9426 372.677 46.6889 365.773C44.4113 358.868 42.4933 351.867 40.9349 344.795C37.8182 330.649 35.9481 316.312 34.9891 301.975C34.0301 287.614 33.9582 273.229 34.6775 258.892C34.8693 255.296 35.085 251.724 35.3727 248.127L35.8522 242.757L35.9961 241.414C36.044 240.983 36.044 240.767 36.068 240.431C36.092 239.832 36.044 239.209 35.9721 238.609C35.8043 237.387 35.4207 236.212 34.8453 235.133L32.256 230.626C30.4818 227.461 28.8036 224.248 27.1733 221.012C20.772 208.041 15.5214 194.471 11.7094 180.494C7.89739 166.516 5.52386 152.083 5.04436 137.507C4.56486 122.954 6.05131 108.257 9.71948 94.1119L9.74347 94.064C10.2709 92.0741 12.117 90.7554 14.0829 90.8513C20.0048 91.1151 25.7108 91.5946 31.4888 92.2419C37.2428 92.9132 42.9968 93.7523 48.7508 94.8552C54.4808 95.958 60.2108 97.3725 65.8689 99.2905C67.2835 99.7221 68.698 100.321 70.0885 100.873L71.1434 101.28L71.4072 101.376C71.4311 101.376 71.527 101.424 71.5031 101.4L71.4072 101.376C71.2873 101.328 71.1674 101.304 71.0236 101.28C70.5201 101.209 69.8967 101.424 69.5371 101.856C69.3693 102.072 69.5851 101.832 69.7049 101.736C69.8248 101.616 69.9687 101.496 70.1125 101.376C70.3762 101.137 70.64 100.897 70.9516 100.681C71.527 100.226 72.1264 99.794 72.7498 99.4104C74.0204 98.6192 75.435 97.9479 77.1851 97.5643C77.9284 97.3965 78.6716 97.876 78.8394 98.6192C78.8634 98.7391 78.8874 98.883 78.8634 99.0028C78.7675 100.801 78.3359 102.287 77.7605 103.678C77.4728 104.373 77.1612 105.045 76.8015 105.668C76.6337 106.004 76.4419 106.291 76.2501 106.603C76.1542 106.747 76.0583 106.915 75.9624 107.058C75.8425 107.226 75.8425 107.274 75.435 107.73C74.0684 109.192 71.9826 109.911 70.0406 109.648C69.5611 109.6 69.0816 109.48 68.6261 109.312L67.8828 109.024L66.9478 108.665C65.6771 108.185 64.4784 107.658 63.1598 107.274C58.0051 105.548 52.6108 104.253 47.1445 103.222C41.6782 102.192 36.116 101.4 30.5298 100.801C24.9676 100.202 19.2855 99.7461 13.7952 99.5303L18.1587 96.2697C14.8022 109.6 13.4596 123.409 13.987 137.171C14.4905 150.957 16.8401 164.67 20.5562 178.024C24.2723 191.379 29.355 204.373 35.5885 216.792C37.1469 219.885 38.7772 222.954 40.4794 225.95L43.2126 230.65C44.2914 232.687 45.0347 234.917 45.3943 237.219C45.5621 238.37 45.634 239.52 45.6101 240.695C45.5861 241.247 45.5381 241.918 45.4902 242.373L45.3703 243.668L44.9388 248.871C44.675 252.347 44.4593 255.847 44.3154 259.348C43.6921 273.325 43.8359 287.35 44.8429 301.28C45.8738 315.209 47.7438 329.067 50.8126 342.613C52.347 349.374 54.1452 356.087 56.3029 362.632C58.4607 369.201 60.9541 375.626 63.903 381.812C66.8279 388.021 70.1365 394.015 73.9485 399.649C77.7366 405.307 81.9801 410.63 86.7272 415.449C96.1494 425.183 107.537 432.807 120.052 437.961C126.31 440.575 132.807 442.421 139.544 443.931C146.233 445.418 153.018 446.425 159.827 446.88C173.421 447.791 187.158 446.52 200.129 442.613C203.39 441.678 206.554 440.503 209.719 439.28C212.836 437.961 215.952 436.619 218.925 435.012C224.967 431.92 230.673 428.204 236.043 424.056C246.784 415.713 256.039 405.427 263.255 393.895C266.827 388.117 269.92 382.028 272.27 375.746C274.571 369.465 276.226 362.872 276.298 356.59C276.345 353.473 275.914 350.429 274.883 348.079C274.38 346.88 273.732 345.921 272.965 345.202C272.581 344.842 272.174 344.531 271.718 344.291C271.598 344.219 271.526 344.147 271.359 344.075L270.831 343.86L269.8 343.404C267.019 342.253 264.094 341.63 261.121 341.582C258.148 341.534 255.104 342.037 252.107 342.996C246.113 344.914 240.479 348.559 235.348 352.85C232.783 355.008 230.313 357.333 228.012 359.827C226.837 361.05 225.734 362.344 224.631 363.615C223.553 364.886 222.45 366.276 221.563 367.499L221.491 367.595C220.124 369.465 217.487 369.896 215.617 368.53C213.795 367.115 213.387 364.526 214.706 362.656Z" fill="#0F227A"/>
<path d="M50.4531 99.2426C51.7238 94.9031 53.0903 90.7314 54.5288 86.5118C55.9673 82.3162 57.4778 78.1206 59.132 73.9729C60.7863 69.8252 62.4885 65.7015 64.4545 61.6258C66.4204 57.55 68.5302 53.5222 71.0956 49.5903L71.1195 49.5664C72.3902 47.6484 74.9555 47.1209 76.8735 48.3676C77.0414 48.4635 77.2092 48.6074 77.353 48.7272C78.7436 49.9739 79.8464 51.1008 81.0212 52.3475C82.172 53.5942 83.2509 54.8888 84.3058 56.2554C86.3676 59.0125 88.2617 62.0334 89.4364 65.7735L81.9083 64.6466L112.836 18.6865L112.86 18.6626C114.155 16.7446 116.744 16.2411 118.662 17.5358C118.806 17.6317 118.95 17.7515 119.07 17.8474C120.005 18.6146 120.7 19.238 121.467 19.9572C122.21 20.6525 122.906 21.3718 123.601 22.091C124.991 23.5535 126.262 25.0639 127.485 26.6463C129.93 29.787 132.112 33.1674 133.958 36.6918C137.674 43.7644 140.168 51.5323 141.031 59.492C141.294 61.4819 141.366 63.4718 141.462 65.4618C141.438 67.4517 141.438 69.4416 141.246 71.4076C141.127 73.3735 140.839 75.3395 140.527 77.2815C140.383 78.2644 140.12 79.1995 139.928 80.1585C139.712 81.1175 139.52 82.0765 139.233 83.0115C137.075 90.5396 133.718 97.5883 129.187 103.702C129.139 103.75 129.067 103.774 129.019 103.726C128.971 103.702 128.971 103.654 128.971 103.606C131.129 96.3176 132.879 89.1251 133.598 81.9326C134.39 74.7641 134.15 67.6195 132.831 60.7147C132.687 59.8516 132.496 58.9885 132.28 58.1494C132.064 57.3103 131.896 56.4472 131.608 55.6081C131.369 54.7689 131.153 53.9298 130.889 53.0907L130.05 50.5973C128.827 47.3127 127.413 44.124 125.735 41.0312C124.08 37.9385 122.21 34.9656 120.148 32.1365C119.141 30.698 118.039 29.3314 116.936 27.9888C116.384 27.3175 115.809 26.6702 115.234 26.0229C114.682 25.3995 114.035 24.7043 113.579 24.2248L119.813 23.3856L88.909 69.3457C87.6144 71.2637 85.0011 71.7912 83.0831 70.4965C82.2679 69.9451 81.7165 69.1539 81.4288 68.2908L81.4048 68.2189C81.0452 67.116 80.5178 65.9413 79.8944 64.7905C79.2231 63.6397 78.4559 62.4889 77.6168 61.3621C76.7537 60.2352 75.8426 59.1564 74.8596 58.1015C73.9006 57.0705 72.7978 55.9677 71.8628 55.1286L78.1203 54.2894C75.8906 57.6939 73.9006 61.458 72.0785 65.294C70.2325 69.13 68.5782 73.1098 66.9719 77.1136C65.3656 81.1174 63.9031 85.1932 62.4885 89.2929C61.098 93.3687 59.7314 97.5403 58.5327 101.616L58.5087 101.664C57.8614 103.894 55.5118 105.164 53.2821 104.517C51.0764 103.798 49.8058 101.472 50.4531 99.2426Z" fill="#0F227A"/>
<path d="M18.087 94.232L24.8239 117.727C25.9268 121.659 27.1016 125.567 28.2763 129.475C29.4032 133.407 30.6499 137.267 31.8486 141.175C34.2461 148.967 36.9553 156.639 39.4966 164.383L47.5522 187.663C47.6242 187.878 47.5283 188.118 47.2885 188.19C47.1207 188.262 46.9289 188.19 46.809 188.07C41.5105 181.573 37.243 174.332 33.4549 166.9C29.6669 159.468 26.6221 151.724 23.6252 143.956C22.2107 140.048 20.8201 136.14 19.5015 132.208C18.8062 130.242 18.2308 128.252 17.6075 126.287C16.9841 124.297 16.3608 122.331 15.8093 120.341C13.5317 112.357 11.4459 104.373 9.86354 96.126C9.43199 93.8484 10.9184 91.6427 13.22 91.2111C15.3778 90.8035 17.4396 92.0982 18.039 94.16L18.087 94.232Z" fill="#0F227A"/>
<path d="M23.6731 139.569L34.6057 118.71L34.6297 118.662C35.7086 116.624 38.2259 115.833 40.2638 116.912C40.7193 117.152 41.1029 117.464 41.4146 117.823C41.99 118.471 42.3976 118.974 42.8531 119.549C43.2847 120.101 43.7162 120.676 44.1238 121.228C44.9389 122.355 45.7301 123.529 46.4494 124.752C47.8879 127.15 49.1585 129.715 50.1415 132.424C51.1245 135.133 51.7958 138.034 52.0595 141.031C52.3232 144.052 51.9876 147.145 51.2444 150.142L46.3774 144.891C47.0008 144.771 47.3844 144.699 47.8879 144.627C48.3434 144.555 48.8229 144.507 49.2784 144.483C50.2134 144.412 51.1485 144.388 52.0835 144.435C53.9535 144.507 55.8715 144.795 57.8135 145.371C59.7315 145.922 61.6495 146.857 63.3757 148.224C65.1019 149.566 66.4685 151.412 67.3316 153.354C68.2426 155.296 68.5303 157.334 68.5783 159.228C68.6502 161.146 68.4344 162.944 68.0508 164.67C67.1877 168.099 65.6054 171.168 63.2798 173.757C62.9921 170.281 63.112 167.092 62.9681 164.143C62.8962 161.218 62.3448 158.413 61.0741 156.615C59.8514 154.817 58.0772 153.858 55.6797 153.354C54.505 153.114 53.2103 152.995 51.8677 152.971C51.1964 152.971 50.5251 152.971 49.8538 153.019L48.8469 153.09L47.9838 153.186L47.6721 153.21C45.2986 153.402 43.2127 151.604 43.0209 149.23C42.997 148.799 43.0209 148.343 43.1168 147.936C43.5724 145.946 43.8361 143.884 43.6443 141.75C43.4285 139.617 42.973 137.459 42.2058 135.349C41.4146 133.239 40.4077 131.153 39.2089 129.139C38.6095 128.132 37.9622 127.15 37.2909 126.214C36.9553 125.735 36.5956 125.279 36.236 124.824C35.9004 124.392 35.4928 123.889 35.2051 123.601L42.014 122.69L31.0814 143.548C30.0025 145.61 27.4612 146.401 25.3993 145.323C23.3854 144.172 22.5942 141.63 23.6731 139.569Z" fill="#0F227A"/>
<path d="M200.537 61.9136C199.002 61.9136 197.54 61.0745 196.797 59.636C182.196 31.3215 164.263 15.522 157.597 10.2714C142.949 24.5605 134.318 41.7027 134.222 41.8705C133.191 43.9563 130.65 44.7954 128.588 43.7645C126.502 42.7336 125.663 40.2162 126.694 38.1304C127.101 37.2913 137.051 17.4639 154.433 1.66441C155.871 0.369762 157.981 0.201943 159.587 1.28082C160.618 1.97609 185.049 18.5428 204.253 55.752C205.308 57.8139 204.517 60.3552 202.455 61.4101C201.831 61.7697 201.184 61.9136 200.537 61.9136Z" fill="#0F227A"/>
<path d="M283.754 117.248C283.442 117.248 283.13 117.224 282.795 117.128C280.181 116.529 276.249 116.96 274.979 117.176C273.444 117.44 271.91 116.84 270.951 115.594C269.992 114.371 269.8 112.717 270.424 111.302C271.215 109.528 272.15 106.291 272.845 103.702C268.146 101.64 264.67 101.281 264.622 101.281C263.639 101.185 262.68 100.729 261.984 100.034C231.872 69.1301 199.625 59.7799 177.88 57.3584C154.217 54.7211 137.434 59.5161 137.266 59.5641C135.037 60.2114 132.711 58.9407 132.04 56.7111C131.393 54.4814 132.663 52.1558 134.893 51.4845C135.636 51.2687 153.162 46.234 178.407 48.9431C201.376 51.4365 235.3 61.1225 267.019 93.1291C269.441 93.5606 274.284 94.7354 279.774 97.7323C281.428 98.6433 282.267 100.537 281.86 102.359C281.74 102.839 281.14 105.476 280.301 108.377C281.764 108.425 283.274 108.569 284.713 108.881C286.966 109.408 288.381 111.662 287.853 113.915C287.398 115.929 285.672 117.248 283.754 117.248Z" fill="#0F227A"/>
<path d="M156.087 55.5842C154.84 55.5842 153.689 54.8169 153.258 53.5702C146.233 33.671 154.049 5.18869 154.385 3.98994C154.84 2.38362 156.494 1.44859 158.077 1.90412C159.683 2.35964 160.618 4.01392 160.163 5.59627C160.091 5.88397 152.539 33.4792 158.916 51.5563C159.467 53.1147 158.652 54.8409 157.094 55.3923C156.758 55.5362 156.423 55.5842 156.087 55.5842Z" fill="#0F227A"/>
<path d="M180.182 56.4233C178.743 56.4233 177.497 55.3923 177.233 53.9538C175.435 44.0042 165.629 42.302 165.533 42.278C164.646 42.1342 163.879 41.6067 163.423 40.8395C162.968 40.0723 162.872 39.1373 163.184 38.2982C164.766 33.8388 162.728 29.1397 161.194 26.5264L155.032 29.9309C153.594 30.7221 151.747 30.2186 150.956 28.7561C150.165 27.2936 150.669 25.4715 152.131 24.6804L160.714 19.9333C161.985 19.238 163.567 19.5257 164.502 20.6526C164.79 21.0122 170.832 28.5403 169.633 37.1713C173.948 38.7057 181.357 42.7815 183.179 52.851C183.466 54.4813 182.388 56.0397 180.757 56.3274C180.541 56.3993 180.374 56.4233 180.182 56.4233Z" fill="#0F227A"/>
<path d="M326.645 150.957C312.236 150.957 305.187 145.37 302.047 141.463C301.783 141.151 301.303 141.055 300.848 141.247C295.166 143.644 290.227 143.716 286.151 141.487C280.517 138.394 279.031 132.16 278.767 130.794C276.321 120.916 277.712 112.812 282.867 106.723C290.802 97.3485 307.057 93.5845 331.152 95.5264C339.807 96.2217 347.839 100.513 353.209 107.322C358.412 113.915 360.593 122.043 359.323 130.194C358.172 137.651 353.689 147.121 339.016 149.758C334.389 150.597 330.289 150.957 326.645 150.957ZM301.303 132.784C304.084 132.784 306.77 133.982 308.568 136.188C311.349 139.616 318.829 144.867 337.506 141.511C345.609 140.048 349.901 136.068 351.003 128.948C351.915 123.122 350.356 117.296 346.616 112.573C342.684 107.61 336.81 104.469 330.481 103.966C309.838 102.311 295.214 105.236 289.292 112.237C285.911 116.217 285.168 121.683 286.99 128.948C287.014 129.043 287.038 129.163 287.062 129.259C287.062 129.259 287.805 132.856 290.251 134.174C291.953 135.085 294.422 134.869 297.587 133.551C298.786 133.023 300.057 132.784 301.303 132.784Z" fill="#0F227A"/>
<path d="M154.097 274.068C150.309 274.356 146.761 274.38 143.069 274.332C139.424 274.284 135.756 273.996 132.088 273.589C124.776 272.654 117.271 271.311 110.079 267.092L108.76 266.229L108.113 265.797L107.777 265.581C107.682 265.533 107.49 265.341 107.346 265.222C106.123 264.191 105.14 262.8 104.589 261.29C104.013 259.755 103.869 258.077 104.109 256.471C104.253 255.656 104.493 254.864 104.828 254.121C104.996 253.738 105.212 253.402 105.404 253.042L105.74 252.539C105.859 252.371 105.979 252.227 106.051 252.107C106.794 251.172 107.705 250.261 108.784 249.47L109.192 249.182L109.288 249.11L109.144 249.206C109.024 249.302 108.928 249.398 108.808 249.494C108.377 249.925 108.041 250.549 107.945 251.196C107.849 251.844 107.945 252.515 108.257 253.138C108.569 253.762 109.168 254.313 109.743 254.553C109.815 254.577 109.887 254.625 109.959 254.649C110.031 254.673 110.127 254.697 110.055 254.673L109.887 254.601L109.552 254.481L108.88 254.217L107.538 253.666C106.627 253.282 105.74 252.85 104.876 252.371C103.126 251.412 101.376 250.285 99.7697 248.751C98.2114 247.216 96.6051 245.178 96.1016 242.445C95.5502 239.736 96.4133 236.979 97.8038 235.301C99.1704 233.551 100.825 232.376 102.695 231.681C103.27 231.465 103.917 231.752 104.133 232.328C104.253 232.616 104.229 232.927 104.109 233.167L104.085 233.215C103.342 234.917 102.599 236.404 102.239 237.746C101.856 239.113 101.904 240.072 102.287 240.815C103.03 242.301 105.596 243.98 108.401 245.178C109.12 245.49 109.839 245.778 110.582 246.066L111.709 246.473L112.285 246.665L112.572 246.761L112.716 246.809L112.956 246.905L113.316 247.048C114.299 247.48 115.234 248.343 115.737 249.374C116.265 250.405 116.408 251.532 116.241 252.611C116.073 253.69 115.545 254.72 114.778 255.464C114.586 255.656 114.395 255.823 114.179 255.967L113.867 256.183L113.747 256.279C113.412 256.543 113.052 256.902 112.716 257.358C112.596 257.55 112.62 257.526 112.572 257.621C112.548 257.693 112.548 257.741 112.524 257.813C112.524 257.933 112.548 258.077 112.596 258.221C112.668 258.341 112.74 258.461 112.884 258.556L114.562 259.611C117.104 261.05 120.101 262.177 123.265 262.968C126.454 263.759 129.738 264.406 133.095 264.79C136.451 265.174 139.856 265.437 143.284 265.605C146.689 265.749 150.213 265.773 153.498 265.701H153.618C155.943 265.653 157.861 267.499 157.909 269.801C158.029 272.03 156.303 273.9 154.097 274.068Z" fill="#0F227A"/>
<path d="M224.032 543.763C208.808 543.763 194.063 540.934 180.206 535.372C118.015 510.39 95.4302 438.609 94.4952 435.564C94.1356 434.437 93.8959 433.262 93.728 432.112L102.071 430.985C102.167 431.704 102.335 432.399 102.527 433.119C103.414 435.996 124.824 504.085 183.323 527.58C196.173 532.735 209.887 535.372 224.032 535.372C248.894 535.372 275.914 527.34 304.276 511.469C310.63 507.921 312.931 499.841 309.359 493.488C305.811 487.134 297.731 484.833 291.378 488.405C254.073 509.263 221.107 514.202 193.368 503.15C167.068 492.673 149.734 469.513 139.832 451.939L147.168 447.815C156.423 464.214 172.486 485.768 196.509 495.358C221.778 505.451 252.347 500.632 287.302 481.093C297.707 475.267 310.918 479.007 316.743 489.412C322.569 499.817 318.829 513.027 308.424 518.853C278.743 535.348 250.357 543.763 224.032 543.763Z" fill="#0F227A"/>
<path d="M147.106 187.874C154.815 182.042 154.373 168.471 146.12 157.563C137.867 146.655 124.927 142.54 117.218 148.372C109.51 154.205 109.951 167.776 118.205 178.684C126.458 189.592 139.398 193.707 147.106 187.874Z" fill="#0F227A"/>
<path d="M143.515 179.528C146.543 177.78 146.989 172.887 144.513 168.598C142.037 164.31 137.576 162.25 134.549 163.998C131.521 165.745 131.075 170.639 133.551 174.927C136.027 179.216 140.488 181.276 143.515 179.528Z" fill="white"/>
<path d="M141.15 180.734C138.273 180.734 135.037 178.672 133.047 175.219C130.409 170.664 130.961 165.39 134.269 163.472C135.9 162.513 137.938 162.536 139.999 163.472C141.989 164.383 143.787 166.109 145.034 168.267C146.281 170.448 146.88 172.846 146.664 175.027C146.449 177.281 145.442 179.055 143.811 180.014C143.02 180.518 142.109 180.734 141.15 180.734ZM136.979 163.975C136.211 163.975 135.492 164.167 134.869 164.526C132.136 166.109 131.776 170.64 134.078 174.644C136.379 178.648 140.479 180.59 143.212 179.007C144.507 178.264 145.322 176.826 145.49 174.956C145.658 173.014 145.13 170.856 144.003 168.89C142.876 166.924 141.27 165.39 139.496 164.574C138.633 164.191 137.77 163.975 136.979 163.975Z" fill="#0F227A"/>
<path d="M223.47 124.672C231.675 120.654 233.72 107.988 228.036 96.3817C222.352 84.7753 211.093 78.6238 202.888 82.642C194.682 86.6601 192.638 99.3263 198.322 110.933C204.006 122.539 215.265 128.69 223.47 124.672Z" fill="#0F227A"/>
<path d="M219.707 118.234C222.68 116.778 223.423 112.195 221.367 107.997C219.312 103.799 215.235 101.577 212.262 103.032C209.289 104.488 208.546 109.071 210.601 113.269C212.657 117.467 216.734 119.69 219.707 118.234Z" fill="white"/>
<path d="M217.751 119.286C214.898 119.286 211.781 117.08 210.055 113.532C209 111.398 208.616 109.072 208.952 107.035C209.288 104.901 210.367 103.294 211.997 102.503C215.258 100.897 219.693 103.271 221.899 107.754C222.953 109.888 223.337 112.213 223.001 114.251C222.666 116.385 221.587 117.991 219.957 118.782C219.261 119.142 218.518 119.286 217.751 119.286ZM214.227 103.199C213.627 103.199 213.052 103.318 212.524 103.582C211.278 104.206 210.415 105.5 210.151 107.226C209.863 109.049 210.223 111.086 211.158 113.004C213.052 116.888 216.792 119.022 219.453 117.703C220.7 117.08 221.563 115.785 221.827 114.059C222.114 112.237 221.755 110.199 220.82 108.281C219.285 105.165 216.6 103.199 214.227 103.199Z" fill="#0F227A"/>
<path d="M452.01 164.766C449.277 164.766 446.52 164.047 444.003 162.537C440.382 160.355 437.841 156.878 436.906 152.755C435.947 148.631 436.69 144.411 438.992 140.839L507.752 34.4861C512.307 27.4375 521.538 25.2797 528.754 29.6192C532.375 31.8009 534.916 35.2773 535.851 39.401C536.81 43.5247 536.067 47.7443 533.765 51.3166L465.005 157.67C462.032 162.249 457.093 164.766 452.01 164.766ZM520.747 35.8048C518.421 35.8048 516.167 36.9556 514.801 39.0414L446.041 145.394C444.986 147.025 444.65 148.943 445.082 150.837C445.513 152.731 446.664 154.313 448.318 155.296C451.603 157.262 455.822 156.303 457.908 153.066L526.668 46.7134C527.723 45.0831 528.059 43.1651 527.627 41.271C527.196 39.377 526.045 37.7947 524.391 36.8117C523.24 36.1404 521.993 35.8048 520.747 35.8048Z" fill="#0F227A"/>
<path d="M271.119 394.782L270.232 386.415C297.324 383.562 311.085 367.331 314.921 353.09C317.87 342.133 315.401 331.512 308.76 326.693C293.991 315.905 290.467 288.453 297.444 272.918C301.831 263.112 309.911 258.676 319.596 260.762C330.002 262.992 339.735 259.635 344.986 252.011C349.805 245.011 349.637 236.14 344.554 228.3C327.844 202.575 331.104 174.74 352.874 157.358C372.533 141.678 362.008 124.968 361.553 124.273L368.601 119.693C368.745 119.933 383.658 143.548 358.1 163.951C336.067 181.525 340.287 206.363 351.579 223.721C358.484 234.366 358.604 247.025 351.891 256.782C344.674 267.283 331.608 271.959 317.822 268.986C315.689 268.53 309.239 267.14 305.116 276.37C299.577 288.765 302.526 311.757 313.723 319.933C323.289 326.909 326.957 340.815 323.049 355.32C318.47 372.222 302.454 391.498 271.119 394.782Z" fill="#0F227A"/>
<path d="M519.739 408.472C518.972 408.472 518.301 408.376 517.702 408.209C485.527 401.184 489.675 369.441 493.679 338.729C497.299 310.966 501.039 282.268 480.181 269.034C452.753 251.628 454.24 232.879 455.439 217.823C456.445 205.068 457.189 195.862 442.372 188.118C402.334 167.188 418.613 130.602 418.781 130.242L426.429 133.743C425.877 134.942 413.41 163.496 446.256 180.662C466.011 190.971 464.837 205.596 463.806 218.494C462.631 233.287 461.528 247.264 484.664 261.937C510.054 278.048 505.762 310.87 501.998 339.832C497.539 373.972 496.508 395.07 519.596 400.033C519.644 400.033 519.692 400.057 519.739 400.081C519.859 400.081 520.147 400.033 520.579 399.625C521.634 398.595 524.918 393.8 523.312 375.147C522.904 370.304 524.247 365.509 527.148 361.673C530.049 357.813 533.285 351.388 532.302 342.709C531.871 338.849 532.422 335.181 533.933 332.088C535.659 328.54 538.967 326.166 542.588 325.902C545.489 325.663 549.78 326.694 553.856 332.639C555.366 334.845 557.716 337.482 560.305 337.53C563.374 337.602 566.491 334.15 567.354 332.975L574.211 337.842C573.635 338.681 568.265 345.969 560.353 345.969C560.329 345.969 560.281 345.969 560.257 345.969C555.246 345.946 550.763 343.044 546.903 337.41C545.273 335.037 543.882 334.222 543.187 334.318C542.612 334.366 541.868 334.989 541.485 335.78C540.694 337.434 540.406 339.496 540.646 341.774C541.94 353.186 537.673 361.649 533.861 366.732C532.23 368.914 531.439 371.647 531.679 374.452C533.142 391.522 531.152 401.975 525.589 406.41C523.695 407.921 521.538 408.472 519.739 408.472Z" fill="#0F227A"/>
<path d="M510.773 479.438C510.749 477.592 510.269 434.101 525.613 409.024C528.754 403.893 534.364 401.304 540.238 402.311C546.064 403.294 550.643 407.681 551.914 413.507C553.041 418.686 553.328 424.511 552.729 430.817L544.362 430.026C544.865 424.583 544.649 419.645 543.714 415.305C543.163 412.764 541.341 411.014 538.848 410.582C536.378 410.174 534.124 411.229 532.806 413.387C518.709 436.403 519.188 478.863 519.188 479.294L510.773 479.438Z" fill="#0F227A"/>
<path d="M463.326 522.641C446.975 510.174 441.006 512.548 432.71 515.832C423.744 519.381 412.595 523.816 389.1 512.572C347.335 492.6 313.243 515.065 312.907 515.281L308.208 508.304C309.766 507.249 346.664 482.939 392.72 504.972C412.907 514.634 421.394 511.253 429.593 507.992C438.776 504.348 448.294 500.584 468.409 515.928L463.326 522.641Z" fill="#0F227A"/>
<path d="M378.311 450.98C376.058 450.98 374.163 450.333 372.557 449.062C370.471 447.384 364.118 442.301 376.105 414.634C377.208 412.092 377.472 409.311 376.825 406.626C372.965 390.155 368.098 360.306 378.911 345.418C382.699 340.191 388.021 337.242 394.71 336.691C414.681 334.989 419.189 344.555 422.473 351.555C425.134 357.19 426.597 360.306 435.228 359.491C445.177 358.58 448.702 363.879 449.924 367.115C455.942 383.059 433.19 416.72 400.248 440.599C390.562 447.575 383.49 450.98 378.311 450.98ZM377.856 442.493C377.88 442.493 381.284 443.907 395.309 433.742C428.707 409.527 445.561 379.367 442.061 370.04C441.773 369.297 441.054 367.331 436.019 367.811C421.514 369.177 417.678 361.026 414.873 355.08C411.9 348.798 409.551 343.836 395.429 345.01C391.234 345.37 388.069 347.096 385.743 350.309C376.321 363.303 382.818 395.19 385.048 404.66C386.103 409.119 385.672 413.723 383.849 417.942C376.945 433.862 376.825 441.366 377.856 442.493Z" fill="#0F227A"/>
<path d="M599.169 214.299C598.354 214.299 597.563 214.059 596.867 213.603L475.242 134.006L479.845 126.958L597.946 204.253L645.68 131.321L527.124 53.7381L531.727 46.6895L653.808 126.574C654.743 127.174 655.39 128.133 655.63 129.235C655.87 130.338 655.654 131.465 655.031 132.4L602.693 212.405C602.094 213.34 601.135 213.987 600.032 214.227C599.744 214.275 599.457 214.299 599.169 214.299Z" fill="#0F227A"/>
</svg>
