<svg width="626" height="599" viewBox="0 0 626 599" fill="none" xmlns="http://www.w3.org/2000/svg">
<ellipse cx="313" cy="299.5" rx="313" ry="299.5" fill="#B0A2D7"/>
<path d="M536.625 585.49C461.612 585.49 340.069 585.49 311.874 585.49C249.277 585.49 216.442 553.707 203.387 513.303C189.692 470.898 224.465 406.115 224.465 406.115C224.465 406.115 308.45 409.229 373.481 414.035C424.92 417.83 437.914 423.192 456.889 440.662C486.815 468.217 486.259 509.425 486.259 509.425C486.259 509.425 521.569 509.199 553.95 518.129C592.106 528.669 600.109 585.49 536.625 585.49Z" fill="#9E9E9E"/>
<path d="M536.625 585.49H311.895C249.298 585.49 216.463 553.707 203.407 513.303C191.94 477.828 214.4 426.719 222.052 410.941C223.558 407.847 224.486 406.115 224.486 406.115C224.486 406.115 297.87 408.837 360.57 413.107C364.942 413.395 369.253 413.705 373.502 414.014C424.94 417.809 437.914 423.172 456.909 440.662C486.836 468.217 486.279 509.425 486.279 509.425C486.279 509.425 502.346 509.322 522.765 512.004C532.603 513.282 543.431 515.221 553.97 518.129C592.106 528.669 600.088 585.49 536.625 585.49Z" fill="#8E8FB3"/>
<g opacity="0.15">
<path d="M459.591 585.49H311.874C249.277 585.49 216.442 553.707 203.387 513.303C191.919 477.828 214.38 426.719 222.032 410.941C223.537 407.847 224.466 406.115 224.466 406.115C224.466 406.115 297.849 408.837 360.549 413.107C367.108 423.399 372.594 435.175 369.459 442.518C359.992 464.772 284.525 483.83 274.007 511.24C265.055 534.567 284.01 550.861 304.717 554.615C367.087 565.938 396.602 486.387 419.021 505.775C431.994 517.015 448.226 555.234 459.591 585.49Z" fill="#000072"/>
</g>
<path d="M440.017 585.491H311.895C249.298 585.491 216.463 553.708 203.407 513.303C191.94 477.828 214.4 426.72 222.052 410.941C278.977 417.645 337.099 440.518 339.14 452.212C339.924 456.729 338.295 461.885 336.026 467.805C311.008 480.922 280.442 494.535 274.027 511.261C265.076 534.588 284.03 550.882 304.738 554.636C323.362 558.018 339.079 553.295 352.526 545.52C382.309 564.845 429.705 566.846 429.705 566.846L440.017 585.491Z" fill="#686868"/>
<path d="M536.625 585.491H518.042C525.9 573.817 535.243 550.222 522.723 512.004C532.562 513.283 543.39 515.221 553.929 518.13C592.106 528.669 600.088 585.491 536.625 585.491Z" fill="white"/>
<g opacity="0.15">
<path d="M536.625 585.491H518.042C525.9 573.817 535.243 550.222 522.723 512.004C526.25 512.458 529.901 512.994 533.613 513.654C544.648 521.388 561.705 532.711 563.912 556.946C564.386 562.267 571.337 564.082 574.245 559.627C577.277 554.986 579.855 548.469 580.143 539.518C589.755 559.586 579.483 585.491 536.625 585.491Z" fill="#000072"/>
</g>
<path d="M557.642 571.177C558.425 571.301 559.395 571.424 560.302 571.445C561.231 571.486 562.138 571.486 563.046 571.424C564.861 571.321 566.655 571.012 568.346 570.517C569.192 570.29 569.996 569.939 570.8 569.63C571.192 569.444 571.564 569.238 571.955 569.053C572.347 568.867 572.698 568.661 573.049 568.413C574.513 567.568 575.73 566.392 576.864 565.237L577.009 565.072C578.494 563.587 580.886 563.587 582.371 565.051C583.856 566.536 583.856 568.929 582.392 570.414C582.268 570.538 582.103 570.682 581.959 570.785C580.082 572.188 578.143 573.466 575.977 574.312C575.462 574.559 574.925 574.766 574.369 574.91C573.832 575.075 573.296 575.261 572.739 575.405C571.646 575.653 570.553 575.921 569.439 576.024C567.232 576.313 565.046 576.333 562.901 576.106C561.829 575.983 560.777 575.838 559.725 575.611C558.652 575.384 557.683 575.137 556.549 574.745C555.559 574.415 555.043 573.343 555.373 572.353C555.682 571.466 556.569 570.95 557.456 571.094L557.642 571.177Z" fill="#000072"/>
<path d="M563.747 541.993C565.5 541.869 567.109 541.848 568.8 541.889C570.47 541.951 572.162 542.096 573.853 542.323C575.544 542.57 577.256 542.941 578.968 543.457C580.68 543.993 582.412 544.715 584.104 545.664L584.124 545.684C585.939 546.716 586.579 549.046 585.547 550.861C584.516 552.676 582.185 553.316 580.37 552.284C580.144 552.161 579.937 551.996 579.752 551.851C578.803 551.026 577.71 550.263 576.472 549.583C575.235 548.923 573.894 548.345 572.512 547.85C571.11 547.355 569.666 546.943 568.181 546.592C566.717 546.241 565.149 545.953 563.726 545.788L563.623 545.767C562.592 545.643 561.849 544.694 561.973 543.663C562.138 542.735 562.88 542.054 563.747 541.993Z" fill="#000072"/>
<path d="M440.017 585.491H311.895C249.298 585.491 216.463 553.708 203.407 513.303C191.94 477.828 214.4 426.72 222.052 410.941C278.977 417.645 337.099 440.518 339.14 452.212C341.801 467.413 317.072 489.873 332.561 523.843C350.67 563.525 429.684 566.846 429.684 566.846L440.017 585.491Z" fill="white"/>
<g opacity="0.15">
<path d="M440.017 585.491H311.895C249.298 585.491 216.463 553.708 203.407 513.303C191.94 477.828 214.4 426.72 222.052 410.941C278.977 417.645 337.099 440.518 339.14 452.212C339.924 456.729 338.295 461.885 336.026 467.805C311.008 480.922 280.442 494.535 274.027 511.261C265.076 534.588 284.03 550.882 304.738 554.636C323.362 558.018 339.079 553.295 352.526 545.52C382.309 564.845 429.705 566.846 429.705 566.846L440.017 585.491Z" fill="#000072"/>
</g>
<path d="M536.625 589.265H311.874C281.617 589.265 256.372 581.964 236.82 567.588C219.536 554.863 207.079 537.001 199.798 514.458C185.752 471.022 219.701 407.023 221.145 404.321L222.259 402.258L224.61 402.341C225.456 402.361 309.399 405.496 373.749 410.261C426.343 414.159 439.956 419.955 459.426 437.878C485.207 461.638 489.27 494.555 489.909 505.672C499.871 505.858 528.169 507.095 554.94 514.479C575.441 520.13 589.507 539.229 586.971 557.936C585.96 565.278 579.401 589.265 536.625 589.265ZM226.734 409.972C221.083 421.254 195.281 475.89 206.976 512.128C217.226 543.87 243.75 581.696 311.874 581.696H536.625C561.354 581.696 577.38 572.435 579.484 556.905C581.278 543.725 571.832 526.957 552.919 521.739C521.445 513.056 486.609 513.159 486.259 513.18L482.402 513.2L482.464 509.343C482.464 508.951 482.587 469.455 454.311 443.405C436.057 426.596 423.909 421.501 373.192 417.748C315.092 413.499 240.924 410.529 226.734 409.972Z" fill="#3A3A3A"/>
<path d="M536.625 589.265H311.874C281.617 589.265 256.372 581.964 236.82 567.588C219.536 554.863 207.079 537.001 199.798 514.458C185.752 471.022 219.701 407.023 221.145 404.321L222.259 402.258L224.61 402.341C225.456 402.361 309.399 405.496 373.749 410.261C426.343 414.159 439.956 419.955 459.426 437.878C485.207 461.638 489.27 494.555 489.909 505.672C499.871 505.858 528.169 507.095 554.94 514.479C575.441 520.13 589.507 539.229 586.971 557.936C585.96 565.278 579.401 589.265 536.625 589.265ZM226.734 409.972C221.083 421.254 195.281 475.89 206.976 512.128C217.226 543.87 243.75 581.696 311.874 581.696H536.625C561.354 581.696 577.38 572.435 579.484 556.905C581.278 543.725 571.832 526.957 552.919 521.739C521.445 513.056 486.609 513.159 486.259 513.18L482.402 513.2L482.464 509.343C482.464 508.951 482.587 469.455 454.311 443.405C436.057 426.596 423.909 421.501 373.192 417.748C315.092 413.499 240.924 410.529 226.734 409.972Z" fill="#000072"/>
<path d="M595.2 335.619C595.117 336.196 595.035 336.774 594.952 337.351C594.684 339.001 594.375 340.569 593.983 342.095C585.094 376.333 542.977 372.187 542.173 334.299C541.616 307.342 529.138 298.762 517.444 300.412C515.629 300.659 513.834 301.175 512.122 301.876C508.245 303.464 504.718 306.146 502.016 309.549C499.747 312.416 498.097 315.819 497.376 319.511C496.014 326.544 496.571 333.598 498.489 340.631C502.491 355.481 512.535 370.331 523.384 385.078C526.477 389.306 529.654 393.493 532.768 397.7C536.316 402.464 539.121 407.332 541.266 412.241C544.916 420.635 546.649 429.153 546.669 437.444C546.669 444.725 545.391 451.799 542.936 458.441C531.201 490.348 492.941 512.107 445.792 495.504L450.784 454.151C460.086 460.4 469.491 462.669 477.802 462.359C478.772 462.339 479.741 462.256 480.669 462.153C480.999 462.112 481.329 462.071 481.639 462.029C494.055 460.359 503.439 452.954 505.543 445.282C512.164 421.068 478.442 379.653 467.696 356.368C447.711 312.993 464.252 272.444 499.789 258.461C504.636 256.563 509.833 255.14 515.319 254.274C518.289 253.799 521.342 253.511 524.497 253.387C526.787 253.284 529.035 253.284 531.201 253.408C578.514 255.738 598.974 304.558 595.2 335.619Z" fill="#8E8FB3"/>
<g opacity="0.15">
<path d="M542.915 458.461C531.18 490.368 492.92 512.128 445.771 495.525L450.763 454.171C460.065 460.421 469.47 462.69 477.781 462.38C489.393 478.942 525.59 486.511 542.915 458.461Z" fill="#000072"/>
</g>
<g opacity="0.15">
<path d="M482.732 330.731C490.033 357.729 513.174 377.467 523.363 385.098C512.514 370.351 502.491 355.501 498.489 340.651C496.592 333.598 496.035 326.564 497.396 319.531C498.118 315.819 499.768 312.436 502.037 309.549C505.914 304.619 511.607 301.237 517.464 300.412C529.159 298.762 541.616 307.342 542.173 334.299C542.977 372.187 585.094 376.333 593.983 342.095C594.375 340.569 594.684 338.981 594.952 337.351C588.579 344.261 571.852 357.193 559.519 347.684C542.173 334.319 556.879 303.959 534.335 287.728C517.175 275.373 473.265 295.73 482.732 330.731Z" fill="#000072"/>
</g>
<path d="M505.048 289.295C505.481 289.604 509.936 287.542 509.895 288.078C509.75 290.409 509.585 295.111 512.122 301.897C512.143 301.876 512.164 301.876 512.205 301.876C512.535 301.732 512.865 301.608 513.215 301.484C513.504 301.381 513.814 301.278 514.102 301.196C514.329 301.134 514.577 301.051 514.824 300.989C515.051 300.928 515.278 300.866 515.505 300.824C516.144 300.659 516.804 300.556 517.444 300.453C529.138 298.803 541.595 307.383 542.152 334.34C542.957 372.228 585.073 376.374 593.962 342.136C594.354 340.61 594.664 339.043 594.932 337.393C588.559 344.302 571.832 357.213 559.498 347.726C542.152 334.34 556.858 304.001 534.315 287.769C527.137 282.613 515.34 283.149 504.677 288.078C504.677 288.635 504.759 289.089 505.048 289.295Z" fill="#686868"/>
<path d="M512.123 301.876C513.855 301.175 515.649 300.659 517.464 300.412C529.159 298.762 541.616 307.342 542.173 334.299C542.978 372.187 585.094 376.333 593.983 342.095C594.375 340.569 594.684 339.001 594.953 337.351C595.035 336.774 595.118 336.196 595.2 335.619C598.974 304.558 578.514 255.738 531.18 253.408C529.014 253.284 526.766 253.284 524.477 253.387C521.342 253.531 518.269 253.82 515.319 254.294C512.679 256.708 506.533 265.391 505.853 273.414C505.77 274.404 510.204 271.681 510.019 272.754C509.379 276.363 503.192 287.934 505.048 289.295C505.481 289.604 509.936 287.542 509.895 288.058C509.771 290.409 509.586 295.091 512.123 301.876Z" fill="white"/>
<g opacity="0.15">
<path d="M505.048 289.295C505.481 289.604 509.936 287.542 509.895 288.078C509.75 290.409 509.585 295.111 512.122 301.897C512.143 301.876 512.164 301.876 512.205 301.876C512.535 301.732 512.865 301.608 513.215 301.484C513.504 301.381 513.814 301.278 514.102 301.196C514.329 301.134 514.577 301.051 514.824 300.989C515.051 300.928 515.278 300.866 515.505 300.824C516.144 300.659 516.804 300.556 517.444 300.453C529.138 298.803 541.595 307.383 542.152 334.34C542.957 372.228 585.073 376.374 593.962 342.136C594.354 340.61 594.664 339.043 594.932 337.393C588.559 344.302 571.832 357.213 559.498 347.726C542.152 334.34 556.858 304.001 534.315 287.769C527.137 282.613 515.34 283.149 504.677 288.078C504.677 288.635 504.759 289.089 505.048 289.295Z" fill="#000072"/>
</g>
<path d="M477.617 505.012C466.871 505.012 455.692 503.032 444.534 499.093C442.575 498.391 441.544 496.246 442.224 494.287C442.925 492.328 445.07 491.296 447.03 491.977C480.566 503.795 513.731 495.813 531.551 471.641C547.35 450.232 546.649 422.76 529.736 399.99C528.56 398.401 527.385 396.834 526.209 395.246C507.729 370.496 488.63 344.9 493.684 318.81C496.241 305.63 509.235 295.421 522.105 296.535C527.529 296.988 545.267 301.072 545.968 334.237C546.36 352.717 556.858 360.493 565.727 361.545C575.049 362.638 586.29 356.76 590.353 341.167C594.478 325.306 590.435 299.071 574.76 279.643C566.015 268.815 550.217 256.11 524.662 257.182C501.851 258.131 482.608 268.753 471.883 286.325C460.189 305.486 459.92 330.442 471.14 354.821C474.11 361.297 479.081 369.423 484.32 378.065C498.407 401.227 514.35 427.462 509.214 446.313C507.234 453.532 500.284 460.153 491.023 463.597C477.534 468.63 462.107 466.34 448.68 457.327C446.947 456.172 446.494 453.821 447.649 452.088C448.804 450.356 451.155 449.902 452.887 451.057C464.272 458.688 477.204 460.689 488.383 456.523C495.292 453.945 500.614 449.16 501.934 444.313C506.224 428.596 490.507 402.753 477.864 381.984C472.502 373.177 467.449 364.845 464.293 357.976C451.98 331.267 452.413 303.712 465.448 282.386C477.514 262.648 498.984 250.706 524.353 249.633C553.063 248.416 570.8 262.71 580.639 274.899C596.107 294.06 603.12 322.089 597.675 343.065C592.477 363.05 577.462 370.516 564.881 369.052C552.052 367.546 538.914 356.265 538.46 334.423C538.069 316.293 531.737 304.95 521.507 304.083C512.473 303.3 502.965 310.89 501.15 320.274C496.736 343.085 514.824 367.32 532.314 390.77C533.49 392.358 534.686 393.946 535.862 395.535C554.548 420.697 555.249 452.356 537.697 476.178C528.437 488.739 515.257 497.711 499.603 502.125C492.529 504.022 485.165 505.012 477.617 505.012Z" fill="#000072"/>
<path d="M545.947 580.499C534.975 590.09 514.824 582.17 499.83 575.343C499.685 575.426 499.52 575.529 499.376 575.611C483.33 584.934 455.032 590.42 435.232 582.83C390.785 565.794 406.749 502.599 416.67 492.266L422.568 437.506L424.321 421.274C494.818 442.333 491.002 511.571 491.002 511.571C491.002 511.571 492.487 511.199 495.065 510.911C502.366 510.044 518.495 509.776 534.624 520.233C542.152 525.101 547.35 530.628 550.773 536.362C561.086 553.687 554.836 572.744 545.947 580.499Z" fill="#8E8FB3"/>
<g opacity="0.15">
<path d="M545.947 580.499C534.975 590.09 514.824 582.17 499.83 575.343C499.685 575.425 499.52 575.529 499.376 575.611C483.33 584.934 455.032 590.42 435.232 582.83C390.785 565.794 406.749 502.599 416.67 492.266L422.568 437.506L425.91 433.34C425.91 433.34 437.315 449.366 432.963 484.944C431.994 492.802 418.588 511.096 416.917 520.81C408.152 571.94 455.011 573.219 472.068 570.909C493.374 568.021 510.307 546.86 510.307 546.86C510.307 546.86 511.359 559.73 519.011 568.021C528.767 578.581 557.724 567.279 550.753 536.362C561.086 553.687 554.836 572.744 545.947 580.499Z" fill="#000072"/>
</g>
<path d="M545.947 580.499C534.975 590.09 514.824 582.17 499.83 575.343C499.685 575.425 499.52 575.529 499.376 575.611C503.253 569.857 509.276 559.338 510.513 548.324C511.029 551.913 512.947 561.442 519.032 568.042C528.787 578.602 557.745 567.299 550.774 536.382C551 536.774 551.227 537.187 551.454 537.579C551.887 538.383 552.3 539.187 552.671 539.992C552.857 540.384 553.022 540.775 553.207 541.188C553.207 541.188 553.207 541.188 553.207 541.209C553.372 541.6 553.537 542.013 553.682 542.405C553.847 542.817 553.991 543.209 554.115 543.622C554.115 543.622 554.115 543.622 554.115 543.642C554.259 544.034 554.383 544.447 554.507 544.839C554.63 545.23 554.734 545.622 554.837 546.014C554.837 546.035 554.837 546.055 554.857 546.076C554.96 546.468 555.064 546.86 555.146 547.252C555.229 547.582 555.29 547.891 555.352 548.221C555.455 548.695 555.538 549.19 555.62 549.665C555.682 549.995 555.724 550.325 555.765 550.675C557.477 563.236 552.403 574.848 545.947 580.499Z" fill="#E8E8E8"/>
<path d="M545.947 580.499C534.975 590.09 514.824 582.17 499.83 575.343C499.686 575.425 499.521 575.529 499.376 575.611C504.966 567.279 515.092 549.026 508.657 533.66C502.573 519.14 497.747 514.685 495.045 510.931C502.346 510.065 518.475 509.797 534.604 520.254C564.922 539.868 557.766 570.166 545.947 580.499Z" fill="white"/>
<g opacity="0.15">
<path d="M545.947 580.499C534.975 590.09 514.824 582.17 499.83 575.343C499.685 575.425 499.52 575.529 499.376 575.611C503.253 569.857 509.276 559.338 510.513 548.324C511.029 551.913 512.947 561.442 519.032 568.042C528.787 578.602 557.745 567.299 550.774 536.382C551 536.774 551.227 537.187 551.454 537.579C551.908 538.383 552.32 539.187 552.671 539.992C552.857 540.384 553.022 540.775 553.207 541.188C553.207 541.188 553.207 541.188 553.207 541.209C553.372 541.6 553.537 542.013 553.682 542.405C553.847 542.817 553.991 543.209 554.115 543.622C554.115 543.622 554.115 543.622 554.115 543.642C554.259 544.034 554.383 544.447 554.507 544.839C554.63 545.23 554.734 545.622 554.837 546.014C554.837 546.035 554.837 546.055 554.857 546.076C554.96 546.468 555.064 546.86 555.146 547.252C555.229 547.582 555.29 547.891 555.352 548.221C555.455 548.695 555.538 549.19 555.62 549.665C555.682 549.995 555.724 550.325 555.765 550.675C557.477 563.236 552.403 574.848 545.947 580.499Z" fill="#000072"/>
</g>
<path d="M418.031 493.565C417.144 494.741 416.36 496.226 415.659 497.752C414.978 499.278 414.38 500.887 413.844 502.537C412.751 505.796 411.926 509.178 411.245 512.561C409.905 519.346 409.203 526.276 409.306 533.124C409.41 539.971 410.317 546.736 412.318 553.089C414.318 559.421 417.556 565.258 422.094 569.919C426.611 574.58 432.427 577.983 438.718 580.046C445.008 582.067 451.856 582.768 458.662 582.603C465.489 582.438 472.357 581.407 479.019 579.674C485.66 577.921 492.178 575.488 497.911 572.105C499.005 571.466 500.325 571.445 501.397 571.919C507.585 574.724 513.793 577.364 520.104 579.159C523.26 580.066 526.415 580.726 529.53 581.036C532.623 581.324 535.676 581.18 538.357 580.396C539.698 580.004 540.935 579.448 542.049 578.726C542.606 578.354 543.121 577.963 543.637 577.509L544.421 576.787L545.163 575.983C546.133 574.889 546.999 573.673 547.803 572.373C548.566 571.053 549.268 569.692 549.866 568.269C552.217 562.556 552.918 556.162 551.908 550.078C550.876 543.973 548.092 538.239 544.05 533.392C540.028 528.545 534.81 524.523 529.179 521.368C523.528 518.233 517.361 516.108 510.988 515.077C507.791 514.561 504.573 514.314 501.335 514.334C499.726 514.355 498.118 514.417 496.509 514.582C495.705 514.664 494.921 514.747 494.137 514.871L492.982 515.056C492.631 515.118 492.178 515.221 491.951 515.263H491.93C489.888 515.737 487.826 514.479 487.351 512.416C487.269 512.086 487.248 511.715 487.248 511.385C487.29 510.374 487.29 509.096 487.248 507.92C487.207 506.724 487.145 505.507 487.063 504.311C486.898 501.898 486.609 499.484 486.258 497.071C485.536 492.266 484.485 487.501 483.082 482.861C480.256 473.579 476.049 464.731 470.377 456.935C464.726 449.118 457.672 442.374 449.628 437.032C441.585 431.669 432.613 427.709 423.249 424.904H423.228C421.228 424.306 420.093 422.203 420.691 420.202C421.29 418.201 423.393 417.067 425.394 417.665C435.356 420.656 445.029 424.904 453.795 430.741C462.54 436.558 470.315 443.941 476.482 452.501C482.67 461.039 487.248 470.651 490.301 480.654C491.827 485.666 492.961 490.781 493.725 495.937C494.116 498.515 494.405 501.114 494.591 503.733C494.673 505.033 494.756 506.353 494.797 507.673C494.838 509.013 494.838 510.271 494.776 511.756L490.095 507.899C490.713 507.755 491.105 507.673 491.6 507.59L493.003 507.363C493.931 507.219 494.838 507.116 495.766 507.033C497.602 506.848 499.438 506.765 501.253 506.744C504.903 506.724 508.554 507.013 512.163 507.59C519.382 508.766 526.415 511.179 532.809 514.726C534.397 515.613 535.985 516.562 537.491 517.593C538.233 518.109 538.996 518.624 539.739 519.14L541.925 520.811C544.792 523.1 547.473 525.678 549.845 528.545C554.63 534.258 558.095 541.291 559.353 548.799C560.611 556.286 559.725 564.082 556.858 571.115C556.136 572.868 555.27 574.58 554.28 576.251C553.269 577.901 552.135 579.468 550.815 580.974L549.804 582.067L548.711 583.098C547.948 583.779 547.102 584.459 546.215 585.016C544.441 586.171 542.503 587.038 540.543 587.615C536.604 588.77 532.623 588.873 528.89 588.523C525.136 588.172 521.548 587.388 518.083 586.398C511.153 584.398 504.635 581.634 498.303 578.767L501.789 578.581C495.189 582.459 488.135 585.058 480.937 586.976C473.739 588.853 466.355 589.966 458.868 590.152C451.402 590.317 443.771 589.595 436.408 587.223C432.716 586.027 429.21 584.459 425.848 582.479C422.506 580.479 419.371 578.107 416.628 575.323C413.844 572.559 411.451 569.424 409.492 566.062C407.533 562.7 405.986 559.132 404.831 555.461C402.48 548.139 401.716 540.528 401.881 533.062C402.088 525.596 403.243 518.212 405.264 511.076C406.275 507.508 407.533 504.022 409.08 500.619C409.863 498.928 410.73 497.257 411.72 495.628C412.71 493.998 413.803 492.41 415.35 490.946C416.113 490.224 417.309 490.265 418.01 491.028C418.65 491.709 418.691 492.74 418.134 493.462L418.031 493.565Z" fill="#000072"/>
<path d="M431.685 470.733C429.684 479.788 425.6 487.151 421.022 492.967C411.782 504.723 400.582 510.127 400.582 510.127C400.582 510.127 399.077 532.67 382.288 545.231C373.213 552.016 346.503 555.688 336.397 534.63C331.282 523.966 330.292 501.898 339.738 484.428C345.782 473.25 356.135 463.948 372.408 460.71L363.911 417.397C415.226 406.425 438.986 437.671 431.685 470.733Z" fill="#8E8FB3"/>
<g opacity="0.15">
<path d="M432.964 460.132C432.902 463.617 432.469 467.165 431.664 470.733C429.664 479.767 425.58 487.151 421.001 492.967C411.761 504.723 400.541 510.127 400.541 510.127C400.541 510.127 399.036 532.67 382.247 545.231C373.172 552.016 346.462 555.687 336.356 534.609C334.892 531.556 333.778 527.576 333.139 523.017C333.324 523.451 333.51 523.863 333.696 524.276C343.802 545.354 370.511 541.662 379.586 534.877C396.354 522.337 390.311 503.816 391.817 498.206C393.302 492.596 405.677 490.595 418.32 482.634C424.569 478.694 430.922 469.207 432.922 460.152C432.964 460.152 432.964 460.132 432.964 460.132Z" fill="#000072"/>
</g>
<path d="M411.761 502.516C411.72 502.558 411.699 502.578 411.658 502.619C411.328 502.888 411.019 503.156 410.709 503.403C410.297 503.733 409.926 504.043 409.513 504.352C409.162 504.641 408.791 504.909 408.441 505.156C408.09 505.424 407.76 505.672 407.409 505.899C407.121 506.105 406.852 506.291 406.584 506.476C406.543 506.518 406.481 506.538 406.44 506.579C406.11 506.806 405.801 507.013 405.512 507.198C402.521 509.178 400.541 510.127 400.541 510.127C400.541 510.127 399.036 532.67 382.247 545.231C373.172 552.016 346.462 555.688 336.356 534.609C336.253 534.423 336.171 534.217 336.088 534.031C335.985 533.825 335.902 533.639 335.82 533.433C335.428 532.526 335.077 531.556 334.768 530.525C334.665 530.216 334.582 529.906 334.479 529.597C334.314 529.019 334.149 528.421 334.026 527.803C333.922 527.369 333.819 526.936 333.737 526.503C333.696 526.359 333.675 526.214 333.654 526.07C333.551 525.637 333.489 525.183 333.407 524.75V524.729C333.304 524.173 333.221 523.616 333.139 523.059C333.324 523.492 333.51 523.904 333.696 524.317C343.802 545.396 370.511 541.704 379.586 534.918C396.354 522.378 390.311 503.857 391.817 498.247C392.023 497.463 392.436 496.783 393.034 496.123C400.067 502.805 400.706 507.549 411.761 502.516Z" fill="#E8E8E8"/>
<path d="M411.761 502.516C405.635 507.693 400.562 510.127 400.562 510.127C400.562 510.127 399.056 532.67 382.267 545.231C373.192 552.016 346.483 555.688 336.377 534.629C331.262 523.966 330.272 501.898 339.718 484.428C350.34 479.953 369.892 479.54 387.341 491.461C400.293 500.248 398.293 508.663 411.761 502.516Z" fill="white"/>
<g opacity="0.15">
<path d="M411.761 502.516C411.72 502.558 411.699 502.578 411.658 502.619C411.328 502.888 411.019 503.156 410.709 503.403C410.297 503.733 409.926 504.043 409.513 504.352C409.162 504.641 408.791 504.909 408.441 505.156C408.09 505.424 407.76 505.672 407.409 505.899C407.141 506.105 406.852 506.291 406.584 506.476C406.543 506.518 406.481 506.538 406.44 506.579C406.11 506.806 405.801 507.013 405.512 507.198C402.521 509.178 400.541 510.127 400.541 510.127C400.541 510.127 399.036 532.67 382.247 545.231C373.172 552.016 346.462 555.688 336.356 534.609C336.253 534.423 336.171 534.217 336.088 534.031C335.985 533.825 335.902 533.639 335.82 533.433C335.428 532.526 335.077 531.556 334.768 530.525C334.665 530.216 334.582 529.906 334.479 529.597C334.314 529.019 334.149 528.421 334.026 527.803C333.922 527.369 333.819 526.936 333.737 526.503C333.696 526.359 333.675 526.214 333.654 526.07C333.551 525.637 333.489 525.183 333.407 524.75V524.729C333.304 524.173 333.221 523.616 333.139 523.059C333.324 523.492 333.51 523.904 333.696 524.317C343.802 545.396 370.511 541.704 379.586 534.918C396.354 522.378 390.311 503.857 391.817 498.247C392.023 497.463 392.436 496.783 393.034 496.123C400.067 502.805 400.706 507.549 411.761 502.516Z" fill="#000072"/>
</g>
<path d="M363.106 413.684C369.748 412.261 376.554 411.416 383.443 411.395H386.021L388.62 411.539C390.352 411.601 392.064 411.869 393.796 412.034C397.241 412.571 400.685 413.21 404.026 414.344C410.75 416.448 417.144 419.996 422.424 424.863C427.683 429.772 431.705 436.001 434.056 442.745C436.346 449.51 437.171 456.729 436.531 463.721C436.49 464.608 436.366 465.474 436.243 466.34C436.119 467.206 436.036 468.093 435.851 468.939L435.356 471.517L434.675 474.054L433.974 476.591C433.706 477.416 433.376 478.241 433.066 479.066L432.138 481.541C431.788 482.345 431.396 483.129 431.004 483.913C427.972 490.244 423.826 495.978 418.959 500.928C416.505 503.383 413.906 505.672 411.142 507.776C409.74 508.807 408.337 509.818 406.873 510.766C406.13 511.241 405.388 511.694 404.645 512.148C403.861 512.602 403.16 513.014 402.211 513.468L404.336 510.313V510.333C404.274 510.973 404.233 511.468 404.15 512.004C404.088 512.54 404.006 513.056 403.923 513.571C403.779 514.603 403.552 515.634 403.346 516.644C402.892 518.666 402.397 520.687 401.737 522.646C400.479 526.606 398.829 530.463 396.746 534.093C396.189 535.001 395.694 535.908 395.096 536.795L393.281 539.394C391.94 541.044 390.62 542.714 389.053 544.179L387.918 545.313C387.526 545.684 387.114 546.014 386.701 546.365C385.856 547.046 385.113 547.726 384.165 548.407C382.185 549.789 380.184 550.779 378.142 551.563C374.058 553.109 369.851 553.955 365.581 554.203C361.312 554.45 356.96 554.079 352.732 552.883C348.504 551.728 344.42 549.686 340.955 546.819C339.223 545.375 337.696 543.725 336.315 541.972C334.953 540.198 333.819 538.28 332.829 536.321C330.911 532.237 329.9 528.091 329.281 523.966C328.663 519.821 328.456 515.675 328.621 511.55C328.993 503.3 330.725 495.091 334.046 487.439C335.737 483.624 337.841 479.994 340.378 476.632C342.956 473.311 345.905 470.279 349.267 467.763C352.608 465.247 356.28 463.164 360.136 461.699C363.993 460.235 367.995 459.266 372.016 458.771C373.048 458.647 373.996 459.369 374.12 460.421C374.244 461.349 373.666 462.194 372.8 462.463L372.738 462.483C369.108 463.597 365.602 464.896 362.323 466.588L359.91 467.908L357.6 469.393C356.115 470.444 354.63 471.517 353.289 472.734C347.844 477.519 343.719 483.644 340.976 490.389C338.191 497.113 336.748 504.476 336.541 511.818C336.418 515.489 336.583 519.181 337.119 522.77C337.635 526.359 338.563 529.865 339.945 532.876C340.708 534.403 341.533 535.888 342.543 537.208C343.554 538.528 344.688 539.765 345.946 540.838C348.483 542.962 351.495 544.571 354.795 545.478C358.074 546.427 361.621 546.757 365.148 546.571C368.675 546.386 372.223 545.705 375.44 544.488C377.049 543.869 378.555 543.106 379.771 542.24C380.411 541.766 381.112 541.147 381.793 540.59C382.123 540.301 382.494 540.054 382.803 539.744L383.731 538.796C385.031 537.599 386.124 536.176 387.258 534.815L388.805 532.608C389.321 531.866 389.733 531.061 390.208 530.298C392.002 527.163 393.446 523.801 394.539 520.316C395.116 518.583 395.55 516.789 395.962 515.015C396.148 514.128 396.333 513.221 396.457 512.334C396.54 511.88 396.601 511.447 396.643 510.993C396.705 510.56 396.746 510.086 396.787 509.756V509.714C396.911 508.333 397.756 507.178 398.911 506.6C399.448 506.332 400.17 505.919 400.809 505.548C401.469 505.156 402.129 504.764 402.768 504.331C404.068 503.486 405.326 502.578 406.584 501.671C409.059 499.794 411.39 497.731 413.576 495.545C417.928 491.131 421.558 486.078 424.198 480.551C424.528 479.849 424.878 479.189 425.188 478.488L425.992 476.343C426.26 475.621 426.549 474.92 426.776 474.198L427.374 471.991L427.972 469.784L428.405 467.536C428.57 466.794 428.632 466.031 428.756 465.268C428.859 464.504 428.962 463.762 429.003 462.999C429.56 456.914 428.838 450.789 426.92 445.117C424.94 439.466 421.64 434.351 417.288 430.267C412.895 426.245 407.553 423.234 401.737 421.419C398.85 420.449 395.818 419.893 392.765 419.398C391.218 419.253 389.692 419.006 388.145 418.944L385.815 418.82H383.463C377.214 418.841 370.903 419.604 364.695 420.944C362.653 421.378 360.652 420.078 360.219 418.036C359.765 416.139 361.065 414.118 363.106 413.684Z" fill="#000072"/>
<path d="M405.12 373.424C407.12 446.581 322.372 466.773 282.896 479.994L231.787 486.511C204.954 484.655 159.063 484.737 125.527 465.762C117.421 461.184 110.058 455.491 103.83 448.396C99.3952 443.343 95.559 437.568 92.4652 430.968C90.3821 426.492 88.629 421.646 87.2677 416.386C86.7521 414.386 86.2983 412.323 85.8858 410.219C84.7102 404.011 84.0502 397.267 83.9884 389.966C83.9265 383.634 85.9683 361.709 89.8046 339.991C91.104 332.587 92.6096 325.224 94.3215 318.5C79.8427 278.652 69.489 227.482 81.1009 207.909C88.6496 195.183 114.575 203.681 155.681 230.679C180.658 215.643 216.834 210.342 222.403 209.641C227.971 208.919 264.313 204.959 292.26 213.23C325.26 176.765 348.215 162.018 358.713 172.434C374.863 188.459 377.709 240.599 373.708 282.798C386.867 306.723 399.633 341.146 401.675 349.376C403.82 357.997 404.934 365.979 405.12 373.424Z" fill="#8E8FB3"/>
<g opacity="0.5">
<path d="M373.935 219.273C371.377 202.938 366.922 189.573 360.054 182.767C349.556 172.351 326.58 187.077 293.6 223.563C265.653 215.292 229.312 219.232 223.743 219.974C218.175 220.655 181.998 225.976 157.021 241.012C115.916 214.014 89.9902 205.516 82.4414 218.242C77.512 226.574 76.5427 240.62 78.172 257.058C74.9958 236.247 75.1814 217.953 81.1214 207.929C88.6702 195.204 114.596 203.701 155.701 230.699C180.678 215.664 216.855 210.363 222.423 209.662C227.992 208.94 264.333 204.98 292.28 213.25C325.28 176.785 348.236 162.039 358.734 172.454C367.005 180.663 371.769 198.318 373.935 219.273Z" fill="white"/>
</g>
<path d="M405.12 373.424C407.121 446.581 322.372 466.773 282.896 479.994L231.787 486.511C204.954 484.655 159.064 484.737 125.527 465.762C117.422 461.184 110.059 455.491 103.83 448.396C99.3956 443.343 95.5593 437.568 92.4656 430.968C90.3824 426.492 88.6293 421.646 87.2681 416.386C156.692 462.132 198.787 432.267 213.741 388.625C219.516 371.774 234.675 368.289 241.337 367.443C247.999 366.597 263.55 366.164 273.367 381.014C299.149 420.057 348.422 438.372 405.12 373.424Z" fill="white"/>
<g opacity="0.15">
<path d="M401.407 400.608C384.763 451.985 316.969 468.567 282.896 479.994L231.787 486.511C204.954 484.655 159.064 484.737 125.527 465.762C117.422 461.184 110.059 455.491 103.83 448.396C101.417 445.653 99.1893 442.683 97.1475 439.486C100.881 442.353 104.799 444.931 108.904 447.241C134.437 461.679 216.607 460.09 253.774 455.326C290.94 450.562 380.576 427.42 401.407 400.608Z" fill="#000072"/>
</g>
<path d="M139.821 306.084C137.572 303.403 146.668 275.621 171.109 280.365C179.916 282.076 181.772 290.203 175.44 292.801C169.417 295.276 166.427 294.286 157.187 298.927C151.969 301.567 142.069 308.786 139.821 306.084Z" fill="#000072"/>
<path d="M326.58 282.241C328.086 279.065 312.287 254.48 289.826 265.205C281.741 269.062 281.989 277.415 288.774 278.322C295.23 279.209 297.87 277.497 307.976 279.663C313.669 280.901 325.074 285.397 326.58 282.241Z" fill="#000072"/>
<path d="M121.464 266.525C111.626 280.138 106.614 298.04 105.356 296.184C105.232 295.998 105.108 295.792 104.964 295.544C102.097 290.244 95.7033 268.629 93.2489 248.973C92.857 245.797 92.5889 242.992 92.4445 240.496C92.032 233.773 92.4445 229.379 93.2695 226.513C94.2802 222.986 97.3945 221.563 100.406 222.326C108.408 224.368 131.9 235.876 140.109 244.126C141.553 245.549 131.302 252.913 121.464 266.525Z" fill="#F27E80"/>
<path d="M121.464 266.525C111.626 280.138 106.614 298.04 105.356 296.184C105.232 295.998 105.108 295.792 104.964 295.544C106.202 284.902 111.378 269.763 115.421 258.77C120.969 243.776 109.481 233.855 100.303 231.607C97.1678 230.844 94.2184 236.206 92.424 240.496C92.0115 233.773 92.424 229.379 93.249 226.513C94.2597 222.986 97.374 221.563 100.385 222.326C108.388 224.368 131.88 235.876 140.088 244.126C141.553 245.549 131.302 252.913 121.464 266.525Z" fill="#FF5C64"/>
<path d="M105.562 300.597C104.077 300.597 102.675 299.855 101.809 298.597C98.5912 293.874 91.5581 269.99 89.0006 249.489C87.6187 238.413 87.66 230.493 89.145 225.316C90.7537 219.747 95.9306 216.757 101.458 218.139C109.976 220.284 134.128 231.999 143.141 241.053C144.111 242.022 145.967 244.704 142.646 248.849C141.677 250.046 140.295 251.489 138.521 253.304C134.871 257.058 129.879 262.214 124.95 269.021C119.546 276.507 115.586 285.5 112.987 291.461C110.1 298.061 109.131 300.267 105.996 300.577C105.831 300.597 105.686 300.597 105.562 300.597ZM97.4981 248.437C99.3131 262.977 103.129 277.559 105.913 286.201C108.656 279.993 112.575 271.475 117.979 264.009C123.279 256.687 128.724 251.077 132.354 247.344C133.138 246.539 133.942 245.694 134.644 244.951C125.404 237.485 105.851 228.101 99.3337 226.451C98.3231 226.203 97.6631 226.616 97.3537 227.688C96.5906 230.411 95.9719 236.247 97.4981 248.437Z" fill="#000072"/>
<path d="M334.788 239.279C347.741 249.963 357.084 266.051 357.847 263.947C357.93 263.741 357.991 263.514 358.053 263.225C359.497 257.388 360.24 234.866 357.682 215.21C357.27 212.034 356.816 209.249 356.341 206.795C355.042 200.195 353.536 196.049 352.031 193.451C350.154 190.295 346.792 189.697 344.07 191.182C336.83 195.163 317.01 212.219 311.131 222.264C310.059 224.038 321.836 228.575 334.788 239.279Z" fill="#F27E80"/>
<path d="M334.788 239.279C347.741 249.963 357.084 266.051 357.847 263.947C357.93 263.741 357.991 263.514 358.053 263.225C354.196 253.243 345.369 239.878 338.687 230.266C329.55 217.128 338.171 204.65 346.483 200.174C349.329 198.628 353.516 203.103 356.341 206.795C355.042 200.195 353.536 196.049 352.031 193.451C350.154 190.295 346.792 189.697 344.07 191.182C336.83 195.163 317.01 212.219 311.131 222.264C310.059 224.038 321.836 228.575 334.788 239.279Z" fill="#FF5C64"/>
<path d="M357.435 268.423C354.898 268.423 353.269 266.36 349.267 261.286C345.245 256.171 339.161 248.458 332.045 242.58C325.569 237.217 319.423 233.505 314.947 230.782C312.782 229.462 311.07 228.431 309.832 227.503C305.563 224.326 306.697 221.253 307.378 220.078C313.834 209.043 334.273 191.636 341.966 187.408C346.978 184.665 352.732 186.273 355.682 191.244C358.425 195.905 360.446 203.536 361.91 214.612C364.592 235.093 363.787 259.966 361.849 265.35C361.292 266.917 359.93 268.051 358.322 268.32C358.033 268.402 357.724 268.423 357.435 268.423ZM316.597 221.728C317.464 222.264 318.454 222.883 319.402 223.46C323.837 226.162 330.54 230.225 337.49 235.98C344.585 241.837 350.525 249.097 354.754 254.418C355.29 245.364 355.31 230.287 353.413 215.746C351.825 203.578 349.762 198.091 348.319 195.616C347.762 194.668 347.019 194.441 346.112 194.936C340.234 198.153 323.672 212.178 316.597 221.728Z" fill="#000072"/>
<path d="M282.318 478.241C292.858 473.786 303.603 470.156 314.122 466.113C324.641 462.112 335.077 457.966 345.039 452.975C347.514 451.696 349.989 450.438 352.402 449.056C354.857 447.736 357.187 446.251 359.559 444.808C364.179 441.776 368.737 438.641 372.883 435.052L374.471 433.732C374.987 433.278 375.461 432.804 375.977 432.329L378.967 429.524L381.752 426.554C382.205 426.059 382.7 425.585 383.133 425.049L384.412 423.461C387.96 419.336 390.847 414.736 393.384 409.993L395.137 406.342C395.282 406.033 395.426 405.744 395.57 405.434L395.921 404.486L396.643 402.588L397.365 400.691C397.488 400.381 397.612 400.072 397.715 399.742L397.983 398.773L399.077 394.874L399.345 393.905L399.53 392.915L399.902 390.935C400.128 389.594 400.458 388.295 400.603 386.954L401.015 382.912L401.222 380.891L401.242 378.849L401.304 374.765C401.345 374.084 401.304 373.404 401.242 372.723L401.118 370.681L400.85 366.598C400.685 365.236 400.479 363.875 400.293 362.534L399.716 358.471L398.85 354.429L397.983 350.386L397.468 348.509L396.849 346.55C395.137 341.291 393.178 335.99 391.157 330.731C389.135 325.471 387.011 320.253 384.804 315.076C380.39 304.723 375.626 294.493 370.284 284.716L369.707 283.664L369.81 282.468C371.295 266.298 371.769 249.984 371.006 233.793C370.593 225.708 369.892 217.644 368.655 209.703C367.417 201.783 365.664 193.946 362.797 186.768C361.374 183.2 359.58 179.838 357.393 177.095C357.125 176.724 356.837 176.435 356.548 176.105L356.115 175.631C355.97 175.466 355.826 175.301 355.702 175.218C355.434 175.012 355.207 174.744 354.939 174.599L354.547 174.311C354.403 174.228 354.258 174.166 354.114 174.084C353 173.506 351.68 173.217 350.154 173.279C347.081 173.362 343.554 174.723 340.213 176.414C336.851 178.147 333.572 180.333 330.395 182.664C324.022 187.387 318.02 192.811 312.225 198.442C306.429 204.093 300.84 210.013 295.374 216.056L293.642 217.974L291.105 217.252C285.722 215.705 280.153 214.612 274.502 213.828C268.85 213.044 263.137 212.653 257.383 212.426C251.649 212.219 245.874 212.261 240.12 212.508C234.365 212.756 228.57 213.189 222.96 213.869C217.35 214.633 211.616 215.664 206.006 216.881C200.375 218.098 194.786 219.5 189.279 221.15C183.772 222.8 178.327 224.615 173.068 226.801C167.808 228.987 162.693 231.442 157.867 234.288L155.578 235.629L153.392 234.185C146.585 229.709 139.697 225.399 132.663 221.377C125.63 217.396 118.453 213.643 111.11 210.693C107.439 209.229 103.727 207.95 100.035 207.125C96.3841 206.321 92.6303 205.908 89.6397 206.589C88.1547 206.919 86.9584 207.517 86.0303 208.362C85.9066 208.466 85.7828 208.569 85.6797 208.672L85.3703 209.043C85.1434 209.27 84.9784 209.579 84.7928 209.848C84.6897 209.971 84.6072 210.157 84.5041 210.342L84.1947 210.899C83.9885 211.271 83.7822 211.642 83.6172 212.054C82.1941 215.251 81.3072 218.943 80.8328 222.759C79.8634 230.411 80.1522 238.454 80.9359 246.416C81.7197 254.397 83.081 262.379 84.7103 270.32C88.0516 286.181 92.6097 301.835 98.1166 317.118L98.5291 318.273L98.2197 319.469C95.4972 330.277 93.4966 341.373 91.8053 352.511C90.9597 358.079 90.2378 363.669 89.5984 369.258C88.9591 374.848 88.4022 380.478 88.0722 385.985C87.9897 387.367 87.9484 388.708 87.9484 389.986C87.9691 391.368 87.9897 392.75 88.0516 394.111C88.1753 396.854 88.3816 399.598 88.6909 402.32C89.3097 407.765 90.3409 413.128 91.8878 418.346C94.9403 428.761 100.117 438.455 107.336 446.458C114.513 454.501 123.588 460.813 133.468 465.536C143.368 470.259 154.031 473.497 164.921 475.848C175.811 478.22 186.948 479.581 198.148 480.695L214.998 482.448C220.65 483.046 226.301 483.706 231.952 484.655C232.963 484.82 233.643 485.769 233.458 486.779C233.313 487.666 232.55 488.285 231.705 488.326C220.361 488.698 208.955 488.718 197.529 487.955C186.103 487.192 174.656 485.686 163.333 483.273C152.03 480.839 140.79 477.478 130.168 472.445C119.567 467.413 109.605 460.544 101.602 451.634C93.5584 442.766 87.7628 431.938 84.4216 420.573C82.7303 414.881 81.5959 409.064 80.9153 403.227C80.5853 400.299 80.3584 397.391 80.2141 394.462C80.1522 392.997 80.1109 391.533 80.0903 390.069C80.0903 388.501 80.1316 387.016 80.2347 385.552C80.5647 379.736 81.1216 374.064 81.7609 368.351C82.4003 362.658 83.1428 356.986 83.9678 351.314C85.6591 339.991 87.6597 328.709 90.4647 317.469L90.5885 319.82C84.9166 304.207 80.2347 288.243 76.7697 271.949C75.0578 263.803 73.6553 255.553 72.8097 247.199C71.9847 238.846 71.6134 230.349 72.6859 221.686C73.2428 217.355 74.2122 212.962 76.1097 208.651C76.3159 208.115 76.6047 207.579 76.8934 207.042L77.3266 206.238C77.4709 205.97 77.5947 205.723 77.8216 205.413C78.2134 204.836 78.5641 204.258 79.0591 203.722L79.7603 202.917C80.0078 202.67 80.2759 202.422 80.5441 202.196C82.6684 200.277 85.3084 199.061 87.8247 198.504C90.3616 197.926 92.7953 197.864 95.126 198.009C97.4566 198.174 99.7047 198.504 101.85 198.999C106.181 199.968 110.244 201.371 114.204 202.938C122.103 206.114 129.528 209.992 136.809 214.076C144.048 218.201 151.102 222.594 158.032 227.111L153.557 227.028C164.117 220.779 175.419 216.406 186.866 212.982C192.6 211.25 198.375 209.786 204.212 208.507C210.048 207.249 215.885 206.156 221.887 205.351C227.91 204.629 233.808 204.196 239.79 203.969C245.75 203.722 251.732 203.701 257.692 203.928C269.634 204.382 281.679 205.764 293.456 209.167L289.187 210.363C294.755 204.238 300.468 198.215 306.45 192.399C312.452 186.603 318.66 180.993 325.528 175.94C328.972 173.424 332.561 171.031 336.5 169.01C338.46 167.999 340.543 167.092 342.77 166.37C344.977 165.648 347.37 165.091 349.948 165.009C352.526 164.926 355.372 165.421 357.888 166.741C358.198 166.906 358.528 167.071 358.817 167.257L359.683 167.855C360.281 168.247 360.776 168.721 361.292 169.175C361.56 169.402 361.766 169.629 361.972 169.856L362.591 170.516C363.003 170.949 363.416 171.402 363.746 171.877C366.675 175.569 368.717 179.591 370.325 183.633C373.522 191.759 375.317 200.071 376.616 208.362C377.895 216.674 378.596 224.986 379.008 233.319C379.751 249.963 379.215 266.566 377.668 283.107L377.193 280.839C382.7 291.007 387.506 301.423 391.982 311.941C394.23 317.201 396.354 322.522 398.396 327.864C400.438 333.226 402.418 338.568 404.192 344.116L404.852 346.22L405.47 348.448L406.378 352.738L407.285 357.028L407.904 361.379C408.09 362.844 408.317 364.287 408.502 365.752L408.77 370.166L408.915 372.373C408.977 373.115 408.997 373.837 408.977 374.579L408.894 379.014L408.853 381.241L408.626 383.448L408.172 387.883C408.007 389.368 407.657 390.811 407.388 392.276L406.976 394.462L406.749 395.555L406.44 396.628L405.223 400.938L404.913 402.011C404.79 402.361 404.645 402.712 404.522 403.063L403.717 405.146L402.913 407.229L402.521 408.281C402.377 408.631 402.191 408.961 402.047 409.291L400.108 413.313C397.282 418.552 394.085 423.626 390.208 428.101L388.805 429.813C388.331 430.391 387.795 430.906 387.3 431.443L384.268 434.66L381.05 437.671C380.514 438.166 379.978 438.682 379.421 439.177L377.73 440.579C373.275 444.436 368.448 447.736 363.581 450.913C361.085 452.418 358.631 453.986 356.073 455.347C353.557 456.791 350.979 458.111 348.401 459.41C343.203 461.968 337.965 464.401 332.623 466.505C329.962 467.619 327.26 468.588 324.579 469.619C321.877 470.568 319.175 471.538 316.453 472.404C305.563 475.972 294.549 478.88 283.535 481.561H283.515C282.525 481.809 281.535 481.19 281.287 480.2C281.019 479.499 281.493 478.591 282.318 478.241Z" fill="#000072"/>
<path d="M273.924 392.626C273.924 392.626 276.09 409.498 260.869 410.55C250.082 411.292 246.741 402.774 246.493 402.073C246.411 402.795 245.317 411.89 234.696 413.891C219.701 416.716 217.556 399.825 217.556 399.825L242.822 374.373L243.069 374.332L273.924 392.626Z" fill="#E8E8E8"/>
<path d="M273.78 392.75C273.78 392.75 270.5 406.218 258.641 404.692C245.152 402.96 244.76 387.181 244.76 387.181L244.286 387.243C244.286 387.243 247.813 402.63 235.17 407.641C224.073 412.055 217.556 399.804 217.556 399.804C217.556 399.804 210.646 371.383 241.914 367.381C273.181 363.401 273.78 392.75 273.78 392.75Z" fill="white"/>
<g opacity="0.15">
<path d="M272.666 395.802C270.913 399.68 266.808 405.744 258.641 404.692C245.152 402.959 244.76 387.181 244.76 387.181L244.286 387.243C244.286 387.243 247.813 402.629 235.17 407.641C227.538 410.673 222.052 405.826 219.392 402.505C221.619 402.423 224.012 401.949 226.528 400.938C247.4 392.647 242.162 371.836 242.162 371.836L242.966 371.733C242.966 371.733 243.028 393.204 265.303 396.07C268.025 396.421 270.48 396.297 272.666 395.802Z" fill="#000072"/>
</g>
<path d="M219.453 398.814C219.928 399.37 220.526 400.072 221.124 400.649C221.702 401.268 222.341 401.825 222.96 402.34C224.218 403.372 225.579 404.217 226.92 404.712C228.281 405.228 229.622 405.393 230.983 405.331C231.663 405.187 232.365 405.166 233.045 404.877C233.396 404.754 233.747 404.671 234.097 404.527L235.128 404.032C237.872 402.732 239.769 400.484 240.924 397.555C241.502 396.091 241.852 394.462 242.058 392.791C242.182 391.945 242.203 391.1 242.244 390.234C242.265 389.388 242.265 388.439 242.203 387.717L242.182 387.532C242.1 386.356 243.007 385.325 244.183 385.263C245.193 385.201 246.08 385.84 246.369 386.769C246.72 387.882 246.926 388.831 247.091 389.883C247.256 390.914 247.338 391.945 247.38 393.018C247.421 395.122 247.256 397.287 246.617 399.432C245.503 403.722 242.285 407.889 238.14 409.869L236.613 410.611C236.098 410.838 235.52 411.003 234.963 411.168C233.87 411.56 232.633 411.663 231.457 411.828C229.023 411.952 226.548 411.395 224.445 410.384C222.32 409.353 220.567 407.889 219.123 406.28C218.422 405.455 217.762 404.609 217.205 403.722C216.628 402.815 216.174 401.949 215.7 400.855C215.246 399.762 215.741 398.504 216.834 398.05C217.721 397.679 218.711 397.947 219.309 398.628L219.453 398.814Z" fill="#000072"/>
<path d="M275.863 393.265C275.677 394.441 275.45 395.39 275.12 396.421C274.79 397.432 274.378 398.422 273.883 399.391C272.893 401.309 271.552 403.165 269.758 404.692C267.963 406.197 265.715 407.352 263.323 407.827C262.147 407.95 260.93 408.177 259.775 408.054C259.198 408.012 258.6 408.012 258.043 407.93L256.372 407.579C251.876 406.692 247.71 403.454 245.565 399.577C244.41 397.659 243.708 395.596 243.234 393.554C243.007 392.523 242.822 391.492 242.739 390.46C242.636 389.409 242.595 388.439 242.657 387.264C242.718 386.088 243.729 385.16 244.905 385.222C245.915 385.263 246.72 386.005 246.905 386.954L246.947 387.14C247.091 387.862 247.318 388.79 247.545 389.594C247.792 390.419 248.04 391.244 248.349 392.028C248.947 393.616 249.71 395.101 250.618 396.359C252.474 398.917 254.867 400.608 257.837 401.185L258.95 401.412C259.322 401.474 259.672 401.454 260.043 401.495C260.786 401.619 261.446 401.454 262.147 401.433C263.488 401.165 264.746 400.69 265.942 399.845C267.138 399.04 268.232 397.885 269.201 396.565C269.675 395.905 270.15 395.204 270.562 394.462C270.995 393.76 271.408 392.915 271.717 392.255L271.841 392.007C272.357 390.955 273.635 390.502 274.708 391.017C275.553 391.43 276.007 392.358 275.863 393.265Z" fill="#000072"/>
<path d="M259.239 377.075C259.693 380.767 255.3 384.624 251.175 387.387C246.843 390.275 241.687 390.935 236.778 389.202C232.097 387.552 226.878 384.892 226.404 381.2C225.002 370.083 257.837 365.958 259.239 377.075Z" fill="#000072"/>
<g opacity="0.5">
<path d="M249.05 376.147C249.174 377.219 247.4 378.395 245.73 379.241C243.977 380.127 241.935 380.396 240.017 379.962C238.181 379.55 236.16 378.849 236.036 377.776C235.623 374.579 248.658 372.929 249.05 376.147Z" fill="white"/>
</g>
<path d="M177.23 402.602C191.195 400.818 200.999 387.492 199.127 372.838C197.255 358.184 184.417 347.75 170.452 349.534C156.486 351.318 146.683 364.643 148.555 379.298C150.427 393.952 163.265 404.385 177.23 402.602Z" fill="#3A3A3A"/>
<path d="M179.316 393.036C185.225 392.281 189.373 386.64 188.581 380.437C187.788 374.235 182.356 369.818 176.447 370.573C170.537 371.328 166.389 376.968 167.182 383.171C167.974 389.374 173.407 393.79 179.316 393.036Z" fill="white"/>
<path d="M165.484 372.636C168.896 372.2 171.292 368.952 170.836 365.382C170.38 361.812 167.244 359.271 163.832 359.706C160.42 360.142 158.024 363.39 158.48 366.96C158.936 370.531 162.071 373.072 165.484 372.636Z" fill="white"/>
<path d="M313.864 385.156C327.829 383.373 337.632 370.047 335.761 355.392C333.889 340.738 321.05 330.305 307.085 332.088C293.12 333.872 283.317 347.198 285.189 361.852C287.06 376.507 299.899 386.94 313.864 385.156Z" fill="#3A3A3A"/>
<path d="M315.981 375.575C321.89 374.82 326.038 369.179 325.246 362.977C324.453 356.774 319.021 352.357 313.112 353.112C307.202 353.867 303.054 359.507 303.847 365.71C304.639 371.913 310.072 376.329 315.981 375.575Z" fill="white"/>
<path d="M302.12 355.19C305.532 354.754 307.928 351.507 307.472 347.936C307.016 344.366 303.881 341.825 300.468 342.261C297.056 342.696 294.66 345.944 295.116 349.515C295.572 353.085 298.708 355.626 302.12 355.19Z" fill="white"/>
<path d="M105.315 406.28C104.655 406.012 103.871 405.723 103.129 405.455C102.386 405.166 101.623 404.919 100.86 404.671C100.097 404.424 99.3335 404.176 98.5704 403.97C97.7866 403.764 97.0441 403.496 96.2604 403.31C93.146 402.506 90.0316 401.722 86.876 401.165C80.5648 400.01 74.1916 399.206 67.7566 399.061C66.1479 398.958 64.5391 399.061 62.9304 399.041H60.5173C59.7129 399.041 58.9085 399.123 58.1041 399.164C56.4954 399.268 54.8866 399.371 53.2779 399.453L48.4723 399.989C45.2548 400.237 42.0991 401.041 38.9023 401.516L37.706 401.722L36.5304 402.011L34.1585 402.568C32.591 402.959 31.0029 403.289 29.4148 403.661L29.291 403.681C28.2804 403.908 27.2698 403.269 27.0429 402.258C26.8366 401.309 27.3935 400.361 28.301 400.051C29.8891 399.536 31.4773 398.999 33.086 398.504L35.4785 397.741L36.6748 397.37L37.8916 397.081C39.521 396.669 41.1504 396.298 42.8004 395.926C43.6254 395.761 44.4298 395.514 45.2754 395.39L47.771 394.998L52.7623 394.214C54.4329 394.049 56.1241 393.905 57.7948 393.761C58.6404 393.699 59.4654 393.596 60.311 393.575L62.8479 393.513C64.5391 393.493 66.2304 393.389 67.901 393.472L72.9541 393.678C74.6454 393.781 76.316 393.988 78.0073 394.153C79.6985 394.297 81.3485 394.627 83.0191 394.874C84.6898 395.122 86.3398 395.493 87.9898 395.864C94.6104 397.391 100.984 399.515 107.068 402.939C107.975 403.454 108.305 404.589 107.79 405.496C107.315 406.342 106.305 406.672 105.439 406.321L105.315 406.28Z" fill="#000072"/>
<path d="M112.802 430.7C110.059 430.741 107.151 430.906 104.346 431.174C101.52 431.422 98.6944 431.752 95.8894 432.185C90.3 433.051 84.7519 434.227 79.41 435.98C76.7494 436.846 74.1094 437.836 71.5725 439.012C70.2937 439.569 69.0562 440.229 67.7981 440.827C66.5812 441.507 65.3231 442.147 64.1681 442.91C59.3625 445.777 55.0312 449.345 51.1331 453.429L51.1125 453.449C50.3906 454.212 49.1944 454.233 48.4519 453.511C47.7506 452.851 47.6887 451.758 48.2456 450.995C51.9169 446.21 56.3719 441.982 61.4044 438.62C63.9206 436.929 66.54 435.382 69.2625 434.103C71.985 432.783 74.7694 431.607 77.6362 430.679C83.3494 428.741 89.2275 427.441 95.1881 426.822C101.149 426.204 107.089 426.121 113.132 426.967C114.163 427.111 114.885 428.06 114.741 429.091C114.617 430.019 113.812 430.7 112.905 430.721L112.802 430.7Z" fill="#000072"/>
<path d="M382.597 367.752C387.63 362.905 393.26 359.255 399.283 356.099C400.789 355.336 402.294 354.552 403.841 353.892C405.388 353.232 406.914 352.49 408.523 351.933C410.111 351.335 411.679 350.716 413.287 350.2L418.134 348.736C419.743 348.241 421.414 347.911 423.043 347.499L425.497 346.921C426.322 346.735 427.147 346.632 427.993 346.467C429.664 346.179 431.314 345.89 432.984 345.642L438.017 345.147L440.533 344.9C441.379 344.817 442.204 344.838 443.049 344.797C444.72 344.735 446.411 344.694 448.082 344.673L449.34 344.652L450.598 344.714L453.114 344.838C454.785 344.92 456.455 345.024 458.126 345.127C459.157 345.189 459.962 346.096 459.879 347.127C459.817 348.097 459.034 348.86 458.064 348.901H457.92C456.29 348.963 454.661 349.025 453.052 349.045L450.619 349.087L449.402 349.107L448.185 349.21C444.967 349.561 441.729 349.582 438.532 350.139L433.747 350.819C432.18 351.149 430.592 351.459 429.004 351.768C428.22 351.933 427.415 352.057 426.632 352.242L424.301 352.84C422.754 353.274 421.166 353.583 419.64 354.078C413.452 355.852 407.492 358.224 401.655 360.925C398.726 362.266 395.921 363.792 393.116 365.36C392.415 365.752 391.755 366.185 391.054 366.597C390.352 366.989 389.672 367.422 389.012 367.855C388.331 368.289 387.671 368.722 387.011 369.175C386.351 369.609 385.67 370.083 385.114 370.516L384.99 370.599C384.144 371.217 382.969 371.052 382.35 370.207C381.814 369.464 381.917 368.392 382.597 367.752Z" fill="#000072"/>
<path d="M382.762 392.503C388.393 390.172 394.147 388.749 400.087 387.862C406.006 386.975 412.029 386.748 418.051 387.181C421.063 387.367 424.053 387.8 427.023 388.398C429.993 388.955 432.922 389.78 435.768 390.791C441.502 392.771 446.885 395.761 451.629 399.474C452.454 400.113 452.598 401.31 451.959 402.135C451.361 402.898 450.288 403.083 449.484 402.588L449.443 402.568C444.658 399.598 439.563 397.226 434.18 395.658C432.86 395.225 431.478 394.916 430.138 394.565C428.756 394.297 427.415 393.967 426.013 393.761C423.249 393.266 420.464 392.977 417.659 392.791C412.049 392.42 406.398 392.688 400.768 393.245C397.942 393.534 395.137 393.926 392.332 394.4C389.548 394.854 386.701 395.431 384.02 396.071L383.917 396.091C382.906 396.339 381.875 395.72 381.648 394.689C381.421 393.761 381.916 392.853 382.762 392.503Z" fill="#000072"/>
<path d="M189.403 585.491C127.425 588.564 156.382 515.922 156.815 514.809C156.815 514.809 153.887 514.355 149.762 512.684C141.965 509.508 129.941 502.042 125.589 485.171C119.608 462.071 144.729 447.138 161.765 476.426C161.765 476.426 210.358 458.564 218.195 498.927C219.392 505.012 220.547 511.488 221.434 518.067C222.155 523.389 222.712 528.772 222.98 534.052C224.28 560.287 218.216 584.068 189.403 585.491Z" fill="#8E8FB3"/>
<g opacity="0.15">
<path d="M189.403 585.491C127.425 588.564 156.382 515.923 156.815 514.809C156.815 514.809 153.886 514.355 149.761 512.685C170.283 517.985 182.411 515.902 182.844 515.82C182.308 516.211 161.6 531.577 170.675 555.09C177.894 573.796 218.484 571.899 222.98 534.052C224.28 560.287 218.216 584.068 189.403 585.491Z" fill="#000072"/>
</g>
<path d="M221.454 518.047C214.71 515.263 205.428 513.262 193.631 514.788C169.747 517.882 156.815 514.788 156.815 514.788C156.815 514.788 132.251 510.911 125.589 485.15C124.352 480.365 124.455 475.931 125.548 472.177C129.673 457.781 148.277 453.202 161.765 476.405C161.765 476.405 204.108 460.833 216.112 491.606C216.978 493.792 217.68 496.226 218.195 498.907C219.412 504.991 220.567 511.488 221.454 518.047Z" fill="white"/>
<g opacity="0.15">
<path d="M216.133 491.606C200.788 476.9 176.409 477.601 171.377 481.169C169.025 482.84 171.81 485.872 170.448 487.646C169.52 488.863 163.147 482.881 159.146 482.613C154.361 482.283 150.298 486.058 149.658 483.851C148.895 481.19 154.567 470.609 142.254 466.629C137.263 464.999 130.725 468.464 125.548 472.177C129.673 457.781 148.277 453.202 161.765 476.405C161.786 476.426 204.129 460.854 216.133 491.606Z" fill="#000072"/>
</g>
<path d="M185.67 589.347C170.448 589.347 159.393 584.645 152.773 575.322C140.068 557.44 148.194 528.153 151.845 517.407C143.883 514.912 127.445 507.322 121.959 486.078C118.762 473.682 123.547 461.761 133.365 457.739C141.491 454.398 153.453 456.522 163.436 471.888C170.861 469.681 190.64 465.143 205.552 473.558C214.173 478.426 219.68 486.697 221.928 498.164C227.497 526.75 231.292 558.389 217.329 576.23C211.038 584.253 201.716 588.625 189.588 589.244C188.248 589.327 186.948 589.347 185.67 589.347ZM140.253 463.968C138.789 463.968 137.428 464.257 136.211 464.752C130.828 466.958 126.703 474.363 129.24 484.222C135.18 507.157 156.506 510.931 157.413 511.075C158.548 511.261 159.538 511.962 160.095 512.952C160.652 513.942 160.734 515.159 160.301 516.211C160.157 516.582 145.843 552.614 158.919 570.97C164.508 578.828 174.697 582.438 189.197 581.716C199.179 581.221 206.418 577.9 211.368 571.589C223.537 556.058 219.433 524.977 214.503 499.628C212.709 490.43 208.46 483.892 201.86 480.158C186.577 471.537 163.292 479.87 163.065 479.952C161.353 480.571 159.414 479.89 158.507 478.302C152.36 467.701 145.595 463.968 140.253 463.968Z" fill="#000072"/>
<path d="M157.682 511.117C158.548 511.385 159.703 511.653 160.755 511.901C161.827 512.128 162.92 512.355 164.034 512.54C166.241 512.911 168.468 513.2 170.717 513.427C172.965 513.613 175.234 513.778 177.502 513.819C179.771 513.881 182.06 513.84 184.329 513.757H184.37C185.422 513.716 186.288 514.541 186.33 515.593C186.371 516.541 185.67 517.366 184.762 517.511C182.432 517.903 180.08 518.274 177.709 518.521C175.337 518.81 172.965 518.955 170.572 519.078C168.18 519.181 165.787 519.181 163.374 519.12C162.157 519.078 160.961 519.016 159.744 518.913C158.507 518.81 157.352 518.707 155.97 518.48C153.907 518.15 152.505 516.211 152.835 514.149C153.165 512.086 155.103 510.684 157.166 511.014C157.331 511.035 157.517 511.076 157.682 511.117Z" fill="#000072"/>
<path d="M512.205 547.004C512.102 548.881 511.875 550.572 511.565 552.326C511.277 554.058 510.864 555.791 510.41 557.502C509.482 560.926 508.203 564.267 506.553 567.485C504.945 570.723 502.779 573.734 500.304 576.477L498.365 578.478C497.664 579.097 496.942 579.674 496.22 580.293L495.127 581.18L493.952 581.964L491.58 583.511C489.827 584.645 487.496 584.15 486.341 582.397C485.207 580.644 485.702 578.313 487.455 577.158C487.558 577.096 487.64 577.034 487.743 576.993L488.115 576.807L490.095 575.756L491.105 575.24L492.033 574.601L493.91 573.301L495.643 571.816C497.891 569.733 499.974 567.382 501.645 564.68C503.336 561.999 504.78 559.111 505.914 556.079C506.471 554.553 506.987 553.006 507.42 551.439C507.853 549.892 508.203 548.242 508.451 546.736L508.472 546.633C508.637 545.602 509.606 544.901 510.617 545.066C511.586 545.189 512.267 546.056 512.205 547.004Z" fill="#000072"/>
<path d="M482.979 514.706C482.917 514.747 482.856 514.788 482.814 514.829C482.752 514.871 482.711 514.933 482.711 514.912H482.691C482.691 514.891 482.711 514.85 482.711 514.809L482.814 514.561L483.082 514.025C483.268 513.654 483.495 513.303 483.722 512.953C484.196 512.251 484.691 511.55 485.331 510.869C485.97 510.189 486.692 509.529 487.867 508.931C488.466 508.663 489.249 508.374 490.322 508.415C490.837 508.436 491.436 508.559 491.951 508.807C492.219 508.931 492.446 509.075 492.673 509.24C492.879 509.364 493.312 509.776 493.477 510.044C493.581 510.189 493.663 510.333 493.766 510.478C493.849 510.622 493.89 510.725 493.952 510.849C494.076 511.117 494.117 511.303 494.179 511.529C494.282 511.942 494.323 512.272 494.364 512.581C494.406 513.2 494.385 513.695 494.344 514.19C494.241 515.139 494.076 515.985 493.828 516.81C493.374 518.439 492.756 519.924 491.889 521.388C491.353 522.316 490.157 522.605 489.229 522.069C488.61 521.698 488.259 521.038 488.28 520.378V520.274C488.301 518.769 488.466 517.243 488.589 515.84C488.631 515.139 488.692 514.458 488.692 513.86C488.672 513.571 488.672 513.303 488.651 513.138C488.651 512.994 488.507 512.932 488.857 513.489C488.919 513.592 489.208 513.881 489.249 513.881C489.311 513.943 489.394 513.963 489.476 514.004C489.641 514.087 489.868 514.128 489.992 514.128C490.281 514.128 490.301 514.066 490.198 514.108C489.951 514.149 489.456 514.479 488.94 514.829C488.424 515.201 487.867 515.634 487.311 516.088L485.062 517.861C484.196 518.439 483.021 518.212 482.443 517.346C481.866 516.459 482.113 515.283 482.979 514.706Z" fill="#000072"/>
<path d="M378.678 527.968C378.988 530.443 379.05 532.753 378.885 535.186C378.72 537.599 378.348 540.033 377.544 542.467C376.76 544.88 375.523 547.314 373.666 549.438C372.738 550.49 371.625 551.418 370.428 552.223C369.232 553.027 367.912 553.625 366.571 554.099L366.53 554.12C364.571 554.842 362.385 553.811 361.683 551.851C360.961 549.892 361.993 547.706 363.952 547.005C364.138 546.943 364.344 546.881 364.53 546.839C366.159 546.53 367.665 545.87 368.985 544.777C370.284 543.663 371.418 542.158 372.285 540.384C373.171 538.631 373.77 536.63 374.203 534.568C374.636 532.526 374.883 530.319 374.904 528.298V528.195C374.925 527.143 375.77 526.318 376.822 526.338C377.791 526.338 378.555 527.06 378.678 527.968Z" fill="#000072"/>
<path d="M350.03 524.956C349.845 527.122 349.865 529.452 350.051 531.68C350.237 533.907 350.608 536.094 351.247 538.135C351.866 540.157 352.753 542.034 353.908 543.457C354.485 544.179 355.125 544.797 355.805 545.292C356.507 545.787 357.249 546.159 358.033 546.468C359.992 547.21 360.962 549.397 360.219 551.356C359.477 553.316 357.29 554.285 355.331 553.542C355.187 553.48 355.042 553.419 354.898 553.336L354.857 553.316C353.516 552.594 352.237 551.686 351.144 550.634C350.051 549.562 349.143 548.366 348.401 547.128C346.916 544.632 346.132 541.972 345.699 539.394C345.266 536.795 345.183 534.258 345.307 531.742C345.431 529.225 345.74 526.833 346.277 524.296C346.503 523.285 347.514 522.625 348.525 522.852C349.453 523.059 350.072 523.925 350.01 524.853L350.03 524.956Z" fill="#000072"/>
<path d="M530.912 572.497C532.644 572.971 534.645 573.281 536.501 573.404C538.399 573.528 540.255 573.425 542.008 573.116C543.761 572.765 545.349 572.146 546.71 571.321C548.092 570.496 549.144 569.321 550.072 568.104L550.217 567.918C551.495 566.268 553.867 565.959 555.538 567.237C557.188 568.516 557.497 570.888 556.219 572.559C556.115 572.682 555.992 572.827 555.868 572.951C554.053 574.745 551.97 576.333 549.639 577.261C547.309 578.21 544.916 578.684 542.585 578.767C540.255 578.829 538.007 578.561 535.82 578.107C533.634 577.612 531.613 576.993 529.509 576.044C528.56 575.611 528.148 574.497 528.56 573.549C528.952 572.682 529.901 572.27 530.788 572.497H530.912Z" fill="#000072"/>
<path d="M535.325 545.911C537.285 545.293 539.141 544.901 541.121 544.633C543.08 544.385 545.122 544.282 547.226 544.488C549.33 544.694 551.516 545.21 553.64 546.324C554.692 546.881 555.703 547.603 556.61 548.448C557.518 549.314 558.302 550.304 558.962 551.377L559.003 551.459C560.096 553.233 559.56 555.584 557.765 556.678C555.992 557.771 553.64 557.234 552.547 555.44C552.423 555.254 552.32 555.028 552.238 554.842C552.011 554.285 551.763 553.769 551.413 553.274C551.062 552.8 550.629 552.346 550.134 551.934C549.103 551.129 547.762 550.469 546.236 550.057C544.71 549.624 543.06 549.418 541.348 549.335C539.657 549.273 537.862 549.356 536.233 549.562L536.109 549.583C535.078 549.727 534.129 549.005 533.985 547.974C533.902 547.025 534.459 546.179 535.325 545.911Z" fill="#000072"/>
<g opacity="0.5">
<path d="M428.921 539.27C431.747 553.254 446.061 566.846 465.221 559.771C479.906 554.326 454.063 549.933 443.111 538.466C435.501 530.484 426.261 526.173 428.921 539.27Z" fill="white"/>
</g>
<g opacity="0.5">
<path d="M412.483 435.67C411.761 435.67 415.473 445.88 413.267 459.08C412.297 464.896 423.043 458.461 421.929 448.479C420.918 439.672 413.225 435.67 412.483 435.67Z" fill="white"/>
</g>
<path d="M142.316 426.781C130.684 426.781 121.526 424.121 114.988 418.841C93.9919 401.887 94.9201 373.425 97.3538 357.976C97.3951 357.646 97.4363 357.399 97.4569 357.234C97.4776 357.11 97.4982 356.945 97.5188 356.78C98.7769 348.613 104.366 341.6 112.121 338.445C117.422 336.3 123.383 334.753 129.818 333.845C150.669 330.916 171.563 331.783 187.155 336.217C196.931 339.001 204.171 347.313 205.573 357.378L208.688 379.612C211.08 396.669 201.015 413.045 184.763 418.552C174.285 422.1 164.447 424.533 155.537 425.771C150.834 426.451 146.421 426.781 142.316 426.781ZM153.99 337.826C146.421 337.826 138.521 338.383 130.601 339.476C124.62 340.321 119.113 341.745 114.246 343.725C108.326 346.117 104.057 351.459 103.108 357.626L103.067 357.935C103.046 358.162 102.984 358.451 102.923 358.863C100.695 373.115 99.7463 399.288 118.536 414.448C126.105 420.573 138.294 422.491 154.753 420.181C163.313 418.985 172.8 416.634 182.948 413.21C196.622 408.59 205.099 394.792 203.078 380.416L199.963 358.183C198.87 350.325 193.219 343.848 185.608 341.683C176.595 339.125 165.664 337.826 153.99 337.826Z" fill="#3A3A3A"/>
<path d="M396.396 351.83C396.664 363.545 394.23 376.374 386.083 387.965C371.089 409.291 337.078 412.55 309.956 411.271C291.208 410.384 275.286 398.277 268.954 381.262C267.799 378.168 266.974 374.909 266.479 371.527L262.849 345.684C260.91 344.797 258.909 344.075 256.888 343.497C250.721 341.703 244.307 341.27 238.099 342.157C231.891 343.044 225.827 345.209 220.402 348.633C218.629 349.747 216.917 351.005 215.287 352.387L218.917 378.23C219.392 381.612 219.495 384.974 219.227 388.274C217.824 406.362 205.841 422.388 188.062 428.411C162.343 437.094 128.766 443.322 108.471 426.946C97.4568 418.057 91.5994 406.383 88.6294 395.039C84.4631 379.096 85.9894 363.792 86.8762 357.729C87.1444 355.976 87.3506 354.986 87.3506 354.986C87.3506 354.986 74.5219 343.889 87.0412 336.011C108.202 322.707 179.833 311.57 213.225 337.578C226.466 326.358 244.967 323.759 260.786 330.896C285.742 296.699 357.682 287.707 381.669 294.678C395.88 298.803 386.599 313.014 386.599 313.014C386.599 313.014 387.073 313.901 387.795 315.53C390.332 321.078 396.024 335.371 396.396 351.83Z" fill="#68D8FF"/>
<path d="M88.6294 395.019L219.227 388.254C217.824 406.342 205.841 422.368 188.063 428.39C162.343 437.073 128.766 443.302 108.471 426.926C97.4569 418.016 91.62 406.342 88.6294 395.019Z" fill="#4CA9FC"/>
<path d="M396.396 351.83C396.664 363.545 394.23 376.374 386.083 387.965C371.089 409.291 337.078 412.55 309.956 411.271C291.208 410.384 275.285 398.278 268.954 381.262L396.396 351.83Z" fill="#4CA9FC"/>
<path d="M386.599 312.972C386.599 312.972 387.073 313.859 387.795 315.489L287.392 336.98C272.955 340.074 258.249 341.435 243.482 341.724C241.687 341.765 239.893 341.909 238.119 342.157C236.346 342.404 234.572 342.755 232.839 343.229C218.567 347.004 204.047 349.747 189.321 350.757L86.8762 357.729C87.1444 355.976 87.3506 354.986 87.3506 354.986C87.3506 354.986 74.5219 343.889 87.0412 336.011C108.202 322.707 179.833 311.57 213.225 337.578C226.466 326.358 244.967 323.759 260.786 330.896C285.742 296.699 357.682 287.707 381.669 294.678C395.901 298.762 386.599 312.972 386.599 312.972Z" fill="#69F1FF"/>
<path d="M205.883 380.024C208.089 395.741 198.829 410.818 183.855 415.891C173.522 419.377 163.869 421.769 155.145 422.986C137.882 425.399 124.971 423.275 116.762 416.654C92.5688 397.123 99.8494 360.781 100.262 357.626C100.283 357.502 100.303 357.358 100.324 357.213C101.438 349.953 106.388 343.869 113.194 341.105C117.443 339.373 123.073 337.681 130.209 336.671C147.699 334.216 169.149 334.051 186.371 338.96C195.075 341.435 201.51 348.819 202.768 357.791L205.883 380.024Z" fill="#68D8FF"/>
<path d="M142.399 439.919C129.116 439.919 116.494 437.011 106.717 429.112C77.595 405.599 82.8337 364.535 84.2981 355.914C82.2356 353.769 78.3375 348.901 78.7706 343.415C79.0594 339.517 81.3487 336.217 85.5356 333.577C97.3744 326.131 121.444 320.336 145.41 319.181C162.096 318.376 192.641 319.284 213.163 333.948C226.425 323.759 244.307 321.243 259.879 327.389C275.574 307.631 304.697 298.37 320.949 294.554C344.318 289.068 369.047 288.016 382.474 291.914C387.238 293.296 390.353 295.854 391.693 299.525C393.611 304.702 391.198 310.436 389.816 313.076C393.611 320.954 409.946 359.008 388.393 389.615C372.512 412.179 336.913 415.396 309.833 414.118C286.382 413.004 266.974 395.266 263.694 371.939L260.291 347.664C253.402 344.859 245.895 343.91 238.511 344.962C231.127 345.993 224.177 348.963 218.319 353.563L221.722 377.838C225.002 401.165 211.224 423.564 188.97 431.092C175.007 435.774 158.239 439.919 142.399 439.919ZM154.361 324.688C126.951 324.688 99.7669 331.308 88.5469 338.362C85.9275 340.012 84.5662 341.806 84.4012 343.828C84.1125 347.499 87.7837 351.562 89.2069 352.799C89.97 353.48 90.3206 354.511 90.1144 355.522C90.0112 355.976 81.0187 401.103 110.265 424.698C129.735 440.414 162.838 433.918 187.176 425.688C206.852 419.047 219.021 399.226 216.133 378.581L212.503 352.738C212.359 351.768 212.73 350.819 213.472 350.18C220.382 344.343 228.776 340.569 237.727 339.331C246.679 338.073 255.774 339.373 264.024 343.106C264.911 343.498 265.53 344.323 265.674 345.292L269.304 371.135C272.192 391.781 289.352 407.476 310.101 408.446C335.758 409.663 369.377 406.816 383.773 386.336C405.409 355.584 384.309 314.684 384.103 314.272C383.629 313.364 383.67 312.271 384.227 311.405C385.258 309.796 387.671 304.888 386.372 301.443C385.671 299.546 383.856 298.184 380.886 297.318C358.198 290.739 287.207 299.422 263.076 332.504C262.292 333.577 260.848 333.969 259.631 333.412C244.884 326.75 227.394 329.225 215.061 339.661C214.029 340.528 212.544 340.548 211.492 339.744C197.323 328.73 175.77 324.688 154.361 324.688ZM142.316 426.781C130.684 426.781 121.526 424.121 114.988 418.841C93.9919 401.887 94.92 373.424 97.3537 357.976C97.395 357.646 97.4362 357.399 97.4569 357.234C97.4775 357.11 97.4981 356.945 97.5187 356.78C98.7769 348.613 104.366 341.6 112.121 338.444C117.422 336.299 123.382 334.753 129.817 333.845C150.669 330.916 171.562 331.783 187.155 336.217C196.931 339.001 204.171 347.313 205.573 357.378L208.687 379.612C211.08 396.669 201.015 413.045 184.762 418.552C174.285 422.099 164.447 424.533 155.537 425.771C150.834 426.451 146.421 426.781 142.316 426.781ZM153.99 337.826C146.421 337.826 138.521 338.383 130.601 339.476C124.62 340.321 119.113 341.744 114.246 343.724C108.326 346.117 104.057 351.459 103.108 357.626L103.067 357.935C103.046 358.162 102.984 358.451 102.922 358.863C100.695 373.115 99.7462 399.288 118.536 414.448C126.105 420.573 138.294 422.491 154.753 420.181C163.312 418.985 172.8 416.634 182.947 413.21C196.622 408.59 205.099 394.792 203.077 380.416L199.963 358.183C198.87 350.324 193.219 343.848 185.608 341.683C176.595 339.125 165.664 337.826 153.99 337.826ZM319.959 401.165C316.886 401.165 313.71 401.083 310.472 400.938C293.333 400.134 279.163 387.161 276.771 370.083L273.656 347.849C272.254 337.784 276.915 327.802 285.536 322.439C299.293 313.901 319.134 307.321 340.007 304.393C346.442 303.485 352.588 303.341 358.281 303.959C366.593 304.846 373.894 310.044 377.338 317.531C377.421 317.737 377.503 317.881 377.544 318.026C377.586 318.129 377.689 318.356 377.833 318.665C384.413 332.855 393.137 359.956 377.627 382.025C371.089 391.327 358.611 397.329 340.543 399.866C334.253 400.732 327.343 401.165 319.959 401.165ZM351.186 309.239C347.844 309.239 344.359 309.487 340.77 310.003C320.661 312.828 301.624 319.119 288.506 327.266C281.782 331.453 278.132 339.228 279.246 347.066L282.36 369.299C284.381 383.675 296.302 394.606 310.719 395.287C321.424 395.803 331.179 395.452 339.739 394.235C356.197 391.925 367.376 386.707 372.986 378.746C386.867 359.008 378.761 334.093 372.698 321.016C372.533 320.645 372.388 320.377 372.326 320.191L372.182 319.861C369.583 314.189 364.014 310.25 357.662 309.569C355.579 309.343 353.413 309.239 351.186 309.239Z" fill="#000072"/>
<path d="M202.768 357.791L205.882 380.024C208.089 395.741 198.829 410.818 183.855 415.891C175.069 418.861 166.757 421.048 159.105 422.368C157.764 422.594 156.444 422.801 155.165 422.986C143.945 424.554 134.54 424.203 127.095 421.955C123.094 420.738 119.649 418.964 116.782 416.654C116.638 416.531 116.494 416.407 116.349 416.283C108.45 409.745 103.974 401.371 101.561 393.018C96.7349 376.353 100.014 359.709 100.282 357.605C100.303 357.481 100.324 357.337 100.344 357.193C101.458 349.933 106.408 343.848 113.214 341.084C117.463 339.352 123.094 337.661 130.23 336.65C134.953 335.99 139.965 335.495 145.121 335.227C155.454 334.67 166.282 335.021 176.347 336.712C179.812 337.289 183.174 338.032 186.412 338.96C187.299 339.208 188.165 339.517 189.011 339.868C196.333 342.961 201.634 349.747 202.768 357.791Z" fill="#000072"/>
<g opacity="0.3">
<path d="M176.306 336.732L116.329 416.304C108.429 409.765 103.954 401.392 101.541 393.039L145.101 335.268C155.413 334.69 166.262 335.041 176.306 336.732Z" fill="white"/>
</g>
<g opacity="0.3">
<path d="M202.768 357.791L203.552 363.421L159.105 422.388C157.765 422.615 156.445 422.821 155.166 423.007C143.946 424.574 134.541 424.224 127.095 421.976L188.97 339.909C196.333 342.961 201.634 349.747 202.768 357.791Z" fill="white"/>
</g>
<path d="M142.316 426.781C130.684 426.781 121.526 424.121 114.988 418.841C93.9919 401.887 94.9201 373.425 97.3538 357.976C97.3951 357.646 97.4363 357.399 97.4569 357.234C97.4776 357.11 97.4982 356.945 97.5188 356.78C98.7769 348.613 104.366 341.6 112.121 338.445C117.422 336.3 123.383 334.753 129.818 333.845C150.669 330.916 171.563 331.783 187.155 336.217C196.931 339.001 204.171 347.313 205.573 357.378L208.688 379.612C211.08 396.669 201.015 413.045 184.763 418.552C174.285 422.1 164.447 424.533 155.537 425.771C150.834 426.451 146.421 426.781 142.316 426.781ZM153.99 337.826C146.421 337.826 138.521 338.383 130.601 339.476C124.62 340.321 119.113 341.745 114.246 343.725C108.326 346.117 104.057 351.459 103.108 357.626L103.067 357.935C103.046 358.162 102.984 358.451 102.923 358.863C100.695 373.115 99.7463 399.288 118.536 414.448C126.105 420.573 138.294 422.491 154.753 420.181C163.313 418.985 172.8 416.634 182.948 413.21C196.622 408.59 205.099 394.792 203.078 380.416L199.963 358.183C198.87 350.325 193.219 343.848 185.608 341.683C176.595 339.125 165.664 337.826 153.99 337.826Z" fill="#000072"/>
<path d="M276.585 347.437L279.699 369.671C281.906 385.387 294.962 397.329 310.74 398.092C320.021 398.525 328.601 398.339 336.335 397.514C337.676 397.37 339.017 397.205 340.296 397.019C351.516 395.452 360.446 392.523 367.005 388.295C370.511 386.026 373.357 383.386 375.461 380.354C375.564 380.189 375.667 380.045 375.791 379.88C381.587 371.403 383.587 362.142 383.608 353.439C383.67 336.072 375.915 320.996 375.09 319.057C375.049 318.933 374.987 318.809 374.925 318.665C371.852 312.003 365.417 307.507 358.116 306.723C353.557 306.228 347.659 306.146 340.543 307.156C335.82 307.816 330.87 308.724 325.837 309.879C315.752 312.189 305.439 315.509 296.22 319.882C293.044 321.387 290.012 323.037 287.166 324.811C286.382 325.306 285.639 325.822 284.917 326.399C278.689 331.411 275.471 339.372 276.585 347.437Z" fill="#000072"/>
<g opacity="0.3">
<path d="M296.22 319.903L375.791 379.88C381.587 371.403 383.587 362.143 383.608 353.439L325.837 309.899C315.752 312.209 305.418 315.53 296.22 319.903Z" fill="white"/>
</g>
<g opacity="0.3">
<path d="M276.585 347.437L277.369 353.067L336.335 397.514C337.676 397.37 339.017 397.205 340.295 397.019C351.515 395.452 360.446 392.523 367.005 388.295L284.938 326.42C278.689 331.411 275.471 339.372 276.585 347.437Z" fill="white"/>
</g>
<path d="M320.103 401.144C317.03 401.144 313.854 401.062 310.616 400.918C293.477 400.113 279.307 387.14 276.915 370.063L273.8 347.829C272.398 337.764 277.059 327.781 285.68 322.419C299.437 313.88 319.299 307.28 340.151 304.372C346.586 303.464 352.732 303.32 358.425 303.939C366.737 304.826 374.058 310.023 377.503 317.51C377.585 317.696 377.647 317.861 377.709 318.005C377.75 318.108 377.853 318.335 377.998 318.644C384.577 332.834 393.302 359.936 377.792 382.004C371.253 391.306 358.775 397.308 340.708 399.845C334.397 400.711 327.508 401.144 320.103 401.144ZM279.39 347.045L282.504 369.279C284.525 383.654 296.447 394.586 310.863 395.266C321.568 395.782 331.324 395.431 339.883 394.214C356.342 391.904 367.52 386.686 373.13 378.725C387.011 358.987 378.905 334.072 372.842 320.996C372.677 320.624 372.532 320.356 372.47 320.171L372.326 319.82C369.727 314.169 364.158 310.229 357.806 309.549C352.588 308.992 346.895 309.136 340.914 309.961C320.805 312.787 301.768 319.078 288.65 327.224C281.927 331.411 278.297 339.187 279.39 347.045Z" fill="#3A3A3A"/>
<path d="M319.959 401.165C316.886 401.165 313.71 401.082 310.472 400.938C293.333 400.134 279.163 387.161 276.771 370.083L273.656 347.849C272.254 337.784 276.915 327.802 285.536 322.439C299.293 313.901 319.134 307.321 340.007 304.392C346.442 303.485 352.588 303.341 358.281 303.959C366.593 304.846 373.894 310.044 377.338 317.531C377.421 317.737 377.503 317.881 377.544 318.026C377.586 318.129 377.689 318.356 377.833 318.665C384.413 332.855 393.137 359.956 377.627 382.025C371.089 391.327 358.611 397.329 340.543 399.866C334.253 400.732 327.343 401.165 319.959 401.165ZM351.186 309.239C347.844 309.239 344.359 309.487 340.77 310.002C320.661 312.828 301.624 319.119 288.506 327.266C281.783 331.452 278.132 339.228 279.246 347.066L282.36 369.299C284.381 383.675 296.303 394.606 310.719 395.287C321.424 395.802 331.179 395.452 339.739 394.235C356.198 391.925 367.376 386.707 372.986 378.746C386.867 359.007 378.761 334.092 372.698 321.016C372.533 320.645 372.388 320.377 372.326 320.191L372.182 319.861C369.583 314.189 364.014 310.25 357.662 309.569C355.579 309.342 353.413 309.239 351.186 309.239Z" fill="#000072"/>
<path d="M107.975 496.515L96.8791 497.34C92.2385 497.69 88.5466 501.382 88.196 506.023L87.371 517.119L86.546 506.023C86.1953 501.382 82.5035 497.69 77.8628 497.34L66.7666 496.515L77.8628 495.69C82.5035 495.339 86.1953 491.647 86.546 487.006L87.371 475.91L88.196 487.006C88.5466 491.647 92.2385 495.339 96.8791 495.69L107.975 496.515Z" fill="#000072"/>
<path d="M447.195 256.213L434.49 257.161C429.169 257.553 424.941 261.781 424.549 267.103L423.6 279.808L422.651 267.103C422.259 261.781 418.031 257.553 412.71 257.161L400.005 256.213L412.71 255.264C418.031 254.872 422.259 250.644 422.651 245.323L423.6 232.618L424.549 245.323C424.941 250.644 429.169 254.872 434.49 255.264L447.195 256.213Z" fill="#000072"/>
<path d="M71.6549 321.552L64.8074 322.068C61.9405 322.274 59.6511 324.564 59.4449 327.43L58.9292 334.278L58.4136 327.43C58.2074 324.564 55.918 322.274 53.0511 322.068L46.2036 321.552L53.0511 321.037C55.918 320.83 58.2074 318.541 58.4136 315.674L58.9292 308.827L59.4449 315.674C59.6511 318.541 61.9405 320.83 64.8074 321.037L71.6549 321.552Z" fill="#000072"/>
</svg>
