<svg width="626" height="599" viewBox="0 0 626 599" fill="none" xmlns="http://www.w3.org/2000/svg">
<ellipse cx="313" cy="299.5" rx="313" ry="299.5" fill="#B0A2D7"/>
<g clip-path="url(#clip0_242_1665)">
<path d="M277.909 561.527C277.909 561.527 161.34 611.919 90.2293 523.728C40.472 462.027 56.9763 409.354 89.7403 387.571C111.868 372.879 141.393 372.248 162.97 392.42C181.96 410.189 182.877 430.138 177.457 441.406C175.685 445.074 173.24 447.825 170.55 449.272C154.963 457.646 143.512 450.413 135.341 432.787C133.935 429.771 127.741 418.401 117.533 422.761C115.903 423.454 114.436 424.31 113.091 425.288C98.9705 435.66 100.132 461.416 111.175 486.785C116.494 499.052 124.134 511.237 133.466 521.528C158.936 549.647 224.484 546.245 271.145 535.73L277.909 561.527Z" fill="#8E8FB3"/>
<g opacity="0.3">
<path d="M277.91 561.527C277.91 561.527 161.341 611.919 90.2296 523.728C43.5286 465.838 55.1835 415.874 83.8724 391.952C68.9371 418.87 70.995 466.001 107.386 511.115C160.648 577.156 238.299 558.654 274.486 548.608L277.91 561.527Z" fill="#000072"/>
</g>
<path d="M170.55 449.272C154.963 457.626 143.512 450.413 135.321 432.807C133.915 429.792 127.72 418.421 117.512 422.782C115.882 423.475 114.415 424.331 113.07 425.309L114.374 417.932C114.782 415.63 113.091 413.47 110.748 413.327L98.95 412.573C95.8937 412.369 94.2229 408.926 95.9548 406.419L102.679 396.659C104.207 394.438 103.107 391.381 100.519 390.648L89.7402 387.551C111.848 372.859 141.392 372.227 162.97 392.421C188.195 415.996 181.553 443.383 170.55 449.272Z" fill="white"/>
<path d="M170.55 449.272C154.963 457.626 143.512 450.413 135.321 432.807C133.915 429.792 127.72 418.421 117.512 422.782C115.882 423.475 114.415 424.331 113.07 425.309L114.374 417.932C114.782 415.63 113.091 413.47 110.748 413.327L98.95 412.573C95.8937 412.369 94.2229 408.926 95.9548 406.419L102.679 396.659C104.207 394.438 103.107 391.381 100.519 390.648L89.7402 387.551C111.848 372.859 141.392 372.227 162.97 392.421C188.195 415.996 181.553 443.383 170.55 449.272Z" fill="white"/>
<path d="M203.09 579.622C155.533 579.622 115.618 561.221 87.3159 526.092C66.1252 499.806 54.9594 472.562 55.0001 447.295C55.0409 425.472 63.4152 405.665 78.5951 391.565C90.5352 380.48 105.634 373.939 121.139 373.164C137.542 372.349 153.313 378.198 165.579 389.67C179.108 402.324 185.751 418.075 183.815 432.929C182.653 441.895 178.252 449.435 172.364 452.593C164.906 456.587 157.897 457.524 151.54 455.405C143.838 452.838 137.257 445.767 131.959 434.397C130.716 431.727 126.111 423.23 119.041 426.246C110.34 429.954 107.325 438.961 106.347 445.869C103.474 465.838 113.519 497.85 137.786 517.819C174.401 547.977 236.567 539.724 270.35 532.103C272.388 531.655 274.385 532.918 274.853 534.956C275.301 536.994 274.038 538.99 272.001 539.459C236.873 547.365 172.079 555.822 132.998 523.626C109.79 504.554 95.1401 470.667 98.8485 444.789C100.642 432.339 106.754 423.291 116.046 419.318C126.62 414.794 134.893 422.904 138.744 431.218C143.125 440.652 148.219 446.378 153.883 448.273C158.284 449.74 163.154 448.986 168.778 445.971C172.506 443.974 175.481 438.472 176.337 431.972C177.111 426.103 177.091 410.76 160.424 395.192C135.993 372.349 103.351 378.87 83.7298 397.107C59.7884 419.338 47.9094 465.227 93.1637 521.365C121.853 556.963 161.361 573.977 210.568 571.94C247.468 570.411 276.116 558.206 276.402 558.083C278.317 557.248 280.518 558.145 281.353 560.04C282.188 561.955 281.292 564.156 279.397 564.991C278.174 565.521 249.18 577.89 210.894 579.459C208.266 579.561 205.678 579.622 203.09 579.622Z" fill="#000072"/>
<path d="M464.693 460.133L439.468 499.949L370.7 580.885L330.397 577.38L315.401 576.076L259.816 519.673V382.049L263.891 382.028L457.989 381.193C462.187 396.353 466.669 413.449 468.788 424.881C468.972 425.9 469.155 426.898 469.277 427.856C472.701 450.637 464.693 460.133 464.693 460.133Z" fill="#8E8FB3"/>
<path d="M266.193 380.093C266.193 380.093 254.355 407.133 230.72 415.813C207.063 424.514 180.555 411.554 180.555 411.554C180.555 411.554 192.393 384.514 216.029 375.834C239.685 367.153 266.193 380.093 266.193 380.093Z" fill="#FF1212"/>
<g opacity="0.4">
<path d="M221.897 381.723C237.892 375.854 255.191 379.848 264.706 383.068C265.684 381.213 266.173 380.093 266.173 380.093C266.173 380.093 239.664 367.153 216.008 375.834C192.352 384.535 180.534 411.554 180.534 411.554C180.534 411.554 183.326 412.92 187.89 414.448C191.741 407.214 203.07 388.651 221.897 381.723Z" fill="white"/>
</g>
<g opacity="0.3">
<path d="M266.193 380.093C266.193 380.093 254.355 407.133 230.699 415.813C207.043 424.514 180.534 411.554 180.534 411.554C180.534 411.554 182.572 406.868 186.688 400.775C196.59 403.689 211.892 406.317 226.155 401.081C239.95 396.007 249.73 384.677 255.496 376.14C262.016 378.055 266.193 380.093 266.193 380.093Z" fill="#000072"/>
</g>
<path d="M212.728 422.598C194.838 422.598 179.74 415.365 178.884 414.957L175.644 413.368L177.091 410.067C177.6 408.905 189.846 381.458 214.725 372.309C239.603 363.18 266.703 376.16 267.844 376.71L271.084 378.299L269.637 381.6C269.127 382.762 256.882 410.209 232.003 419.359C225.564 421.722 218.983 422.598 212.728 422.598ZM185.71 409.68C193.412 412.655 212.422 418.543 229.415 412.288C246.409 406.052 257.065 389.262 261.018 382.008C253.316 379.033 234.305 373.144 217.312 379.4C200.339 385.615 189.662 402.405 185.71 409.68Z" fill="#000072"/>
<path d="M259.816 371.881C259.816 371.881 232.105 382.028 209.468 370.943C186.83 359.858 177.845 331.759 177.845 331.759C177.845 331.759 205.556 321.611 228.193 332.696C250.83 343.781 259.816 371.881 259.816 371.881Z" fill="#FF1212"/>
<g opacity="0.3">
<path d="M259.816 371.881C259.816 371.881 232.105 382.028 209.468 370.943C186.83 359.879 177.845 331.759 177.845 331.759C177.845 331.759 182.878 329.925 190.396 328.662C195.083 337.852 203.844 351.076 217.74 357.882C230.719 364.24 245.39 363.587 255.537 361.896C258.471 367.683 259.816 371.881 259.816 371.881Z" fill="#000072"/>
</g>
<path d="M233.939 379.909C225.646 379.909 216.436 378.544 207.797 374.326C183.998 362.671 174.625 334.123 174.238 332.92L173.138 329.477L176.52 328.234C177.722 327.806 206.004 317.658 229.802 329.314C253.601 340.969 262.974 369.517 263.361 370.74L264.461 374.183L261.079 375.426C260.345 375.691 248.548 379.909 233.939 379.909ZM182.796 334.184C185.974 341.805 194.879 359.614 211.118 367.561C227.378 375.508 246.877 371.616 254.844 369.456C251.665 361.835 242.761 344.026 226.522 336.079C210.282 328.112 190.763 332.024 182.796 334.184Z" fill="#000072"/>
<path d="M330.397 577.401C329.195 579.703 327.891 581.578 326.465 582.923C314.382 594.293 299.243 585.755 299.243 585.755C299.12 585.816 298.998 585.877 298.876 585.939C240.378 614.548 211.566 561.262 211.566 561.262C190.579 508.792 220.878 439.797 242.782 400.531C246.816 393.276 250.565 387.062 253.662 382.13L259.816 382.11L263.891 382.09L270.656 424.31L288.831 537.707L290.359 547.202C280.599 484.157 317.01 490.474 325.201 498.156C341.339 513.316 339.974 558.919 330.397 577.401Z" fill="#8E8FB3"/>
<path d="M326.465 582.923C326.22 583.167 325.955 583.391 325.711 583.616C315.095 592.805 298.407 587.385 294.76 573.814C291.663 562.281 289.87 548.914 288.811 537.686L290.339 547.182C280.579 484.136 316.99 490.453 325.181 498.135C343.356 515.19 339.363 570.758 326.465 582.923Z" fill="white"/>
<g opacity="0.3">
<path d="M337.468 537.483C337.447 536.769 337.427 536.077 337.407 535.384C337.407 535.119 337.386 534.874 337.386 534.609C337.305 532.939 337.182 531.268 337.019 529.597C335.715 543.861 332.007 556.678 326.485 561.629C326.383 561.711 326.281 561.812 326.18 561.874C324.305 568.15 320.637 572.408 316.44 572.408C313.078 572.408 310.062 569.678 308.025 565.378C298.774 562.954 291.113 556.168 291.113 556.168C290.991 556.229 289.096 562.505 287.119 565.175C272.999 584.186 235.875 575.363 222.182 557.187C215.723 548.629 210.853 539.418 208.205 529.047C206.595 522.73 205.372 516.209 204.945 510.789C203.62 528.252 205.291 545.491 211.587 561.222C211.587 561.222 240.398 614.507 298.897 585.898C299.019 585.837 299.141 585.796 299.263 585.714C299.263 585.714 312.732 593.315 324.386 584.634C324.611 584.471 324.814 584.308 325.039 584.145C325.263 583.962 325.487 583.779 325.731 583.575C325.996 583.351 326.241 583.127 326.506 582.882C327.341 582.087 328.136 581.109 328.91 579.968C329.338 579.316 329.745 578.644 330.153 577.91C330.275 577.666 330.418 577.421 330.56 577.156C331.436 575.444 332.231 573.509 332.965 571.39C333.678 569.352 334.289 567.151 334.839 564.808C335.797 560.753 336.53 556.29 336.979 551.644C337.06 550.728 337.142 549.811 337.223 548.873C337.447 545.98 337.549 543.025 337.549 540.05C337.508 539.235 337.488 538.359 337.468 537.483Z" fill="#000072"/>
</g>
<path d="M336.999 529.576C337.162 531.227 337.284 532.898 337.366 534.589C337.284 532.918 337.162 531.247 336.999 529.576Z" fill="white"/>
<path d="M262.913 370.312C261.181 374.244 259.266 378.075 257.309 381.865C255.374 385.655 253.377 389.405 251.339 393.113C247.264 400.551 243.25 408.009 239.338 415.507C235.406 423.006 231.677 430.607 228.315 438.35C224.933 446.093 221.958 454.019 219.248 462.007C216.517 469.995 214.297 478.125 212.463 486.317C212.035 488.375 211.525 490.412 211.179 492.47L210.099 498.665C209.569 502.801 208.938 506.958 208.714 511.115C207.328 527.722 209.121 544.553 215.05 559.836L214.867 559.449C215.254 560.162 215.825 561.059 216.354 561.874C216.905 562.709 217.475 563.524 218.066 564.339C219.227 565.969 220.491 567.538 221.795 569.046C224.423 572.082 227.276 574.915 230.373 577.462C236.526 582.556 243.617 586.428 251.197 588.587C254.966 589.708 258.899 590.299 262.831 590.503C264.808 590.666 266.784 590.564 268.761 590.523C269.759 590.483 270.737 590.34 271.735 590.258L273.223 590.116C273.712 590.055 274.201 589.953 274.69 589.871C282.575 588.628 290.277 585.979 297.572 582.373L299.324 581.517L301.097 582.474C301.321 582.597 301.789 582.821 302.177 582.984C302.584 583.147 302.992 583.33 303.42 583.493C304.275 583.819 305.131 584.084 306.007 584.308C307.76 584.777 309.553 585.022 311.305 585.042C313.078 585.123 314.769 584.838 316.419 584.431C317.214 584.145 318.049 583.982 318.803 583.554L319.965 583.025C320.331 582.801 320.678 582.556 321.044 582.332C321.391 582.087 321.798 581.904 322.124 581.619L323.123 580.783C323.856 580.233 324.325 579.683 324.855 579.072C325.894 577.829 326.77 576.178 327.585 574.507C329.154 571.084 330.336 567.294 331.212 563.422C332.964 555.659 333.739 547.549 333.698 539.48C333.637 531.431 332.801 523.362 330.641 515.822C329.541 512.073 328.135 508.446 326.159 505.328C325.649 504.554 325.181 503.779 324.59 503.107C324.305 502.761 324.06 502.373 323.754 502.068L322.858 501.13C322.552 500.764 322.308 500.621 322.043 500.377C321.717 500.173 321.432 499.928 321.085 499.725C320.392 499.317 319.639 498.909 318.824 498.604C315.604 497.3 311.937 496.811 308.554 497.3C305.192 497.85 302.116 499.317 299.793 501.803C298.57 502.985 297.612 504.472 296.736 506.021C295.942 507.631 295.229 509.322 294.719 511.135C293.68 514.742 293.171 518.573 292.804 522.485C292.152 530.351 292.417 538.42 291.5 546.897C291.418 547.61 290.787 548.119 290.073 548.038C289.584 547.977 289.197 547.671 289.014 547.263C285.591 539.296 284.45 530.677 284.776 521.915C285.02 517.534 285.795 513.092 287.262 508.731C288.729 504.411 290.889 500.071 294.373 496.525C297.735 492.898 302.564 490.555 307.413 489.821C312.303 489.129 317.153 489.801 321.635 491.615C322.756 492.063 323.877 492.613 324.957 493.285C325.507 493.611 326.037 493.999 326.587 494.386C327.116 494.834 327.707 495.303 328.074 495.731L329.337 497.035C329.765 497.463 330.091 497.952 330.478 498.42C331.253 499.337 331.864 500.315 332.496 501.294C334.981 505.226 336.591 509.465 337.834 513.683C340.259 522.18 341.114 530.819 341.196 539.398C341.237 547.997 340.422 556.576 338.527 565.052C337.549 569.291 336.285 573.509 334.37 577.666C333.351 579.724 332.271 581.802 330.662 583.758C329.847 584.736 328.889 585.735 327.972 586.448L326.566 587.609C326.098 587.997 325.548 588.282 325.038 588.628C324.529 588.954 323.999 589.28 323.469 589.586L321.798 590.381C320.698 590.951 319.496 591.257 318.335 591.644C315.951 592.235 313.505 592.602 311.101 592.52C308.697 592.479 306.333 592.153 304.051 591.542C302.91 591.257 301.79 590.89 300.689 590.483C300.139 590.279 299.589 590.055 299.039 589.81C298.468 589.545 298 589.341 297.307 588.954L300.832 589.056C293.008 592.928 284.572 595.862 275.749 597.248C275.199 597.329 274.649 597.451 274.099 597.512L272.428 597.676C271.308 597.777 270.207 597.92 269.087 597.961C266.845 598.022 264.604 598.124 262.363 597.94C257.88 597.716 253.397 597.023 249.057 595.76C240.377 593.295 232.349 588.873 225.503 583.208C222.08 580.376 218.922 577.258 216.008 573.896C214.561 572.225 213.176 570.493 211.872 568.7C211.22 567.803 210.588 566.886 209.977 565.949C209.345 564.991 208.795 564.115 208.163 562.974L208.062 562.791L207.98 562.587C201.501 545.939 199.687 527.906 201.113 510.504C201.358 506.123 202.01 501.803 202.581 497.483L203.701 491.044C204.048 488.884 204.598 486.785 205.026 484.646C206.921 476.149 209.223 467.774 212.014 459.582C217.536 443.159 224.444 427.285 232.064 411.799C235.915 404.076 240.174 396.557 244.778 389.262C247.081 385.615 249.567 382.09 252.195 378.646C254.824 375.223 257.595 371.901 260.773 368.824C261.283 368.335 262.077 368.356 262.587 368.845C262.954 369.232 263.035 369.782 262.831 370.251L262.913 370.312Z" fill="#000072"/>
<path d="M267.008 475.884C271.063 477.636 274.568 480.306 277.767 483.362C280.925 486.459 283.696 489.984 285.958 493.856C286.528 494.814 287.017 495.833 287.547 496.811L288.321 498.298C288.545 498.808 288.749 499.337 288.953 499.847C289.36 500.886 289.809 501.925 290.196 502.985L291.153 506.204C291.296 506.734 291.48 507.284 291.622 507.835L291.928 509.485C292.132 510.585 292.315 511.686 292.498 512.786C292.784 515.007 292.845 517.228 292.865 519.449C292.885 521.528 291.215 523.219 289.157 523.239C287.343 523.26 285.815 521.996 285.448 520.285L285.367 519.877C284.939 517.901 284.735 515.924 284.409 513.988C283.961 512.073 283.798 510.076 283.268 508.181L282.616 505.308L281.801 502.475C281.658 502.007 281.516 501.538 281.394 501.049L280.905 499.663C280.558 498.746 280.273 497.789 279.886 496.872C278.419 493.184 276.565 489.638 274.344 486.256C272.123 482.873 269.515 479.633 266.479 476.821L266.438 476.78C266.214 476.577 266.214 476.23 266.417 476.026C266.56 475.843 266.805 475.802 267.008 475.884Z" fill="#000072"/>
<path d="M472.151 514.172C471.988 514.172 471.845 514.172 471.682 514.151C469.624 513.886 468.157 512.012 468.402 509.954C476.205 446.989 452.284 367.846 452.04 367.051C451.429 365.055 452.549 362.956 454.546 362.344C456.543 361.733 458.642 362.854 459.253 364.851C460.272 368.152 483.907 446.317 475.879 510.891C475.635 512.766 474.025 514.172 472.151 514.172Z" fill="#000072"/>
<path d="M483.581 580.233C468.014 586 457.419 572.184 457.419 572.184C457.296 572.225 457.195 572.266 457.072 572.307C420.6 585.368 330.091 577.992 330.091 577.992L462.798 533.693L464.306 533.183C479.954 471.34 511.007 491.39 515.55 501.66C525.616 524.503 500.207 574.079 483.581 580.233Z" fill="#A5A5A5"/>
<g opacity="0.3">
<path d="M481.89 580.783C467.26 585.001 457.419 572.184 457.419 572.184C457.297 572.225 457.175 572.266 457.052 572.306C420.58 585.368 330.071 577.992 330.071 577.992L334.493 556.209C363.406 556.82 460.598 547.304 460.598 547.304C459.599 551.38 458.703 555.496 458.153 559.652C456.4 573.203 468.911 584.431 481.89 580.783Z" fill="#000072"/>
</g>
<g opacity="0.3">
<path d="M483.581 580.233C483.011 580.437 482.44 580.641 481.89 580.783C482.135 580.722 482.379 580.641 482.624 580.559C482.929 580.457 483.255 580.355 483.581 580.233Z" fill="#000072"/>
</g>
<path d="M483.581 580.233C483.255 580.355 482.929 580.457 482.623 580.559C469.399 584.838 456.379 573.468 458.173 559.673C459.212 551.624 461.636 543.779 463.389 536.036C463.613 535.058 463.918 534.1 464.306 533.163C479.954 471.319 511.007 491.37 515.55 501.64C525.616 524.503 500.207 574.079 483.581 580.233Z" fill="white"/>
<g opacity="0.3">
<path d="M517.832 514.131C517.832 516.148 517.71 518.206 517.445 520.325C517.364 521.039 517.262 521.752 517.16 522.485C516.753 525.175 516.182 527.926 515.449 530.697C515.286 531.329 515.102 531.961 514.939 532.592C513.757 536.749 512.25 540.947 510.518 545.022C510.273 545.613 510.008 546.204 509.743 546.795C508.134 550.463 506.32 554.029 504.425 557.37C504.14 557.859 503.875 558.348 503.59 558.817C503.284 559.347 502.979 559.856 502.653 560.366C502.204 561.099 501.736 561.833 501.287 562.546C500.737 563.402 500.167 564.258 499.596 565.073C499.311 565.48 499.046 565.867 498.761 566.255C496.764 569.046 494.727 571.512 492.689 573.611C492.444 573.875 492.2 574.1 491.955 574.344C489.062 577.217 486.23 579.255 483.601 580.233C483.275 580.355 482.949 580.457 482.623 580.559C482.379 580.641 482.155 580.702 481.89 580.783C468.931 584.431 456.4 573.223 458.173 559.693C458.723 555.536 459.619 551.42 460.618 547.345C460.72 547.732 463.796 558.756 472.456 563.137C475.961 564.91 480.362 565.582 485.843 564.054C487.371 563.626 488.96 562.831 490.57 561.69C501.104 554.334 512.902 533.244 517.832 514.131Z" fill="#000072"/>
</g>
<path d="M517.832 514.131C512.168 536.178 497.335 560.855 485.863 564.054C466.771 569.372 460.781 547.875 460.618 547.325C461.555 543.534 462.553 539.785 463.389 536.056C463.613 535.078 463.919 534.12 464.306 533.203C472.782 499.684 485.802 490.208 496.642 490.208C505.811 490.208 513.452 496.974 515.53 501.681C517.119 505.247 517.832 509.485 517.832 514.131Z" fill="white"/>
<path d="M476.083 585.368C467.362 585.368 460.251 580.661 456.258 576.565C418.298 588.791 333.454 582.047 329.786 581.741C327.708 581.578 326.179 579.764 326.342 577.686C326.505 575.607 328.319 574.059 330.397 574.242C331.294 574.324 421.089 581.456 456.135 568.659L458.723 567.701L460.414 569.902C460.781 570.371 469.583 581.394 482.277 576.708C489.531 574.018 500.187 559.775 507.054 543.555C514.063 527.009 515.938 511.93 512.087 503.189C510.477 499.521 503.529 493.347 495.399 494.019C483.989 494.977 474.229 509.22 467.933 534.12C467.423 536.138 465.386 537.36 463.369 536.851C461.351 536.341 460.129 534.304 460.638 532.287C469.807 496.077 484.254 487.417 494.768 486.541C506.219 485.583 516.182 493.836 518.974 500.173C525.698 515.455 517.731 537.666 513.982 546.509C507.36 562.159 495.786 579.744 484.885 583.779C481.829 584.899 478.875 585.368 476.083 585.368Z" fill="#000072"/>
<path d="M337.508 543.881C337.508 543.881 343.275 598.552 374.47 594.374C396.598 591.42 393.338 534.752 390.933 523.198" fill="#8E8FB3"/>
<path d="M469.644 485.216C467.057 515.17 460.924 534.365 457.765 542.964C454.179 552.765 441.465 594.7 416.749 592.011C399.43 590.136 397.637 550.789 398.839 532.694L418.705 505.165L470.113 433.989C471.295 453.632 470.887 470.688 469.644 485.216Z" fill="#8E8FB3"/>
<g opacity="0.3">
<path d="M469.644 485.216C467.057 515.17 460.924 534.365 457.765 542.964C454.179 552.765 441.465 594.701 416.749 592.011C399.43 590.136 397.637 550.789 398.839 532.694L405.156 528.986C415.669 522.832 422.006 514.009 427.997 503.413L429.973 499.928C429.973 499.928 431.236 510.015 424.736 520.835C417.34 533.142 419.378 541.599 432.703 538.726C452.223 534.528 464.673 501.416 469.644 485.216Z" fill="#000072"/>
</g>
<g opacity="0.3">
<path d="M374.449 594.354C347.044 598.022 337.916 538.522 336.123 524.014C342.928 536.627 354.4 548.282 373.288 546.265C382.62 545.266 388.366 538.216 391.748 528.863C393.745 547.162 394.01 591.746 374.449 594.354Z" fill="#000072"/>
</g>
<g opacity="0.3">
<path d="M390.872 520.061L393.623 532.103C419.276 532.103 428.506 500.071 428.506 500.071C428.506 500.071 416.892 518.532 390.872 520.061Z" fill="#000072"/>
</g>
<path d="M429.28 500.112C428.506 504.635 427.059 508.955 425.246 513.193C423.371 517.391 421.069 521.487 418.074 525.216C415.119 528.945 411.472 532.368 407.01 534.772C404.789 535.954 402.384 536.871 399.899 537.462C397.413 538.033 394.825 538.216 392.319 538.053C390.24 537.931 388.672 536.138 388.794 534.059C388.916 532.225 390.302 530.799 392.054 530.554L392.319 530.514C394.254 530.249 396.109 529.984 397.942 529.495C399.756 528.965 401.549 528.333 403.281 527.498C405.013 526.642 406.704 525.644 408.334 524.503C409.964 523.341 411.553 522.057 413.061 520.631C416.097 517.799 418.827 514.498 421.354 510.972C423.881 507.447 426.183 503.677 428.282 499.765L428.302 499.745C428.445 499.48 428.771 499.378 429.036 499.521C429.219 499.643 429.321 499.887 429.28 500.112Z" fill="#000072"/>
<path d="M253.846 370.617C253.846 370.617 259.306 384.657 274.608 400.551C293.619 420.255 375.121 479.857 425.368 469.852C425.368 469.852 436.045 462.333 442.055 451.452C454.77 428.406 465.386 390.77 455.87 369.578" fill="#FF7673"/>
<g opacity="0.3">
<path d="M469.257 427.876C469.013 428.691 468.748 429.527 468.483 430.362C464.632 442.262 458.988 453.816 452.957 463.046C445.846 473.928 433.192 481.447 433.192 481.447C383.211 489.842 307.128 449.211 270.636 424.269C268.496 422.802 266.479 421.396 264.625 420.051C262.893 418.788 261.283 417.586 259.796 416.445C257.738 414.855 255.945 413.388 254.478 412.105C249.832 408.05 245.961 404.096 242.762 400.49C246.796 393.236 250.545 387.021 253.642 382.09L259.796 382.069L263.871 382.049L457.969 381.213C462.167 396.374 466.649 413.47 468.768 424.901C468.952 425.92 469.135 426.918 469.257 427.876Z" fill="#000072"/>
</g>
<path d="M455.137 418.788C451.877 430.688 447.129 442.242 442.035 451.472C436.024 462.353 425.368 469.872 425.368 469.872C380.725 478.757 311.387 432.705 283.166 408.498C279.621 405.462 276.728 402.772 274.608 400.571C259.286 384.698 253.846 370.658 253.846 370.658L455.87 369.619C461.575 382.314 460.027 400.938 455.137 418.788Z" fill="#FF1212"/>
<path d="M390.974 443.098C393.011 429.975 404.137 428.121 409.536 440.591C410.29 442.344 409.719 444.463 408.089 445.482C404.666 447.58 397.922 448.558 393.908 447.54C391.932 447.03 390.648 445.115 390.974 443.098Z" fill="white"/>
<path d="M388.177 435.961C390.63 435.623 392.313 433.126 391.935 430.384C391.558 427.641 389.264 425.691 386.811 426.029C384.358 426.366 382.676 428.863 383.053 431.606C383.431 434.348 385.725 436.298 388.177 435.961Z" fill="white"/>
<path d="M401.895 421.865C402.282 424.616 400.591 427.102 398.146 427.428C395.701 427.774 393.398 425.818 393.031 423.067C392.665 420.316 394.335 417.83 396.781 417.504C399.226 417.178 401.508 419.114 401.895 421.865Z" fill="white"/>
<path d="M410.036 432.602C412.489 432.264 414.171 429.767 413.794 427.025C413.417 424.282 411.123 422.332 408.67 422.67C406.217 423.007 404.535 425.504 404.912 428.247C405.29 430.989 407.584 432.939 410.036 432.602Z" fill="white"/>
<g opacity="0.3">
<path d="M455.137 418.788C451.877 430.688 447.129 442.242 442.035 451.472C436.024 462.354 425.368 469.873 425.368 469.873C380.725 478.757 311.387 432.705 283.166 408.498C279.621 405.462 276.728 402.772 274.609 400.571C270.065 395.864 266.397 391.32 263.483 387.245C263.932 387.632 264.38 388.019 264.849 388.427C293.721 413.205 362.591 461.09 411.737 460.194C418.746 460.071 425.327 456.73 429.708 451.269C433.07 447.071 437.084 441.59 440.222 435.905C445.845 425.737 451.082 412.981 454.688 399.838C456.543 393.093 457.948 386.267 458.743 379.624C460.658 391.117 458.865 405.197 455.137 418.788Z" fill="#000072"/>
</g>
<g opacity="0.2">
<path d="M455.137 415.609C407.56 433.52 331.498 419.644 283.146 405.299C279.601 402.263 276.708 399.573 274.588 397.372C259.266 381.499 253.826 367.459 253.826 367.459L455.85 366.42C461.576 379.135 460.027 397.759 455.137 415.609Z" fill="#000072"/>
</g>
<path d="M413.408 474.498C387.632 474.498 358.149 461.416 336.571 449.435C309.023 434.152 282.779 414.101 272.082 402.996C256.454 386.796 250.79 372.492 250.566 371.901C249.852 370.088 250.769 368.03 252.583 367.337C254.396 366.624 256.434 367.52 257.147 369.354C257.249 369.599 262.648 383.068 277.176 398.106C296.125 417.749 375.957 475.333 423.942 466.551C426.163 464.86 434.232 458.38 438.979 449.781C452.081 426.022 461.331 390.362 452.651 371.045C451.856 369.273 452.651 367.174 454.424 366.379C456.196 365.584 458.295 366.379 459.09 368.152C469.95 392.339 456.706 432.257 445.153 453.184C438.836 464.656 427.874 472.44 427.406 472.746L426.794 473.174L426.061 473.316C421.986 474.131 417.748 474.498 413.408 474.498Z" fill="#000072"/>
<path d="M506.565 280.756C506.565 280.756 506.259 283.038 510.966 287.582C513.248 286.4 514.715 284.994 514.878 283.385C514.96 282.61 514.776 281.877 514.389 281.123C510.212 281.184 506.565 280.756 506.565 280.756Z" fill="#A5A5A5"/>
<path d="M287.18 261.561C288.362 260.664 289.523 259.727 290.644 258.769C289.544 259.523 288.403 260.461 287.18 261.561Z" fill="white"/>
<path d="M400.041 137.365C414.324 128.807 479.669 90.7224 491.487 101.705C512.189 120.941 487.941 185.943 482.114 200.635" fill="#8E8FB3"/>
<g opacity="0.4">
<path d="M400.041 137.365L408.782 144.11C429.891 131.802 483.887 101.95 494.523 111.833C496.377 113.544 497.864 115.643 499.046 118.027C497.987 111.262 495.644 105.577 491.507 101.705C479.669 90.7428 414.324 128.807 400.041 137.365Z" fill="white"/>
</g>
<path d="M482.114 204.404C481.645 204.404 481.177 204.323 480.728 204.139C478.793 203.365 477.855 201.185 478.63 199.249C492.607 164.099 503.692 118.19 488.94 104.477C487.982 103.6 481.564 99.9734 448.311 115.623C428.322 125.037 407.804 137.12 401.997 140.605C400.204 141.685 397.901 141.094 396.842 139.321C395.782 137.528 396.353 135.225 398.125 134.166C404.014 130.64 424.797 118.394 445.112 108.837C480.565 92.1691 490.04 95.2257 494.074 98.9954C516.121 119.494 493.178 183.07 485.639 202.061C485.028 203.508 483.601 204.404 482.114 204.404Z" fill="#000072"/>
<path d="M483.459 121.145C483.459 121.145 486.658 120.146 486.169 127.665C485.313 140.564 478.385 172.698 462.981 183.763C462.981 183.763 442.32 149.876 436.534 145.801C430.747 141.725 443.747 138.16 447.618 133.616C451.489 129.051 481.116 119.861 483.459 121.145Z" fill="#FF66A4"/>
<g opacity="0.3">
<path d="M436.534 145.801C439.916 148.185 448.331 160.655 454.75 170.66C463.919 156.336 468.259 134.634 468.911 124.609C468.911 124.487 468.931 124.385 468.931 124.283C459.945 127.075 449.758 131.048 447.598 133.595C443.747 138.16 430.727 141.725 436.534 145.801Z" fill="#000072"/>
</g>
<path d="M483.336 121.063C478.813 122.164 474.29 123.57 469.868 125.139C465.447 126.708 461.086 128.481 456.848 130.478C452.61 132.454 448.514 134.675 444.602 137.141C440.69 139.606 437.002 142.357 433.661 145.414L433.599 140.36C434.598 141.257 435.372 142.031 436.208 142.887C437.023 143.722 437.838 144.578 438.612 145.434C440.181 147.166 441.689 148.918 443.135 150.732C446.029 154.339 448.739 158.068 451.285 161.878C453.771 165.729 456.196 169.642 458.356 173.676C459.497 175.653 460.475 177.731 461.514 179.769C462.533 181.807 463.45 183.905 464.428 185.963C464.774 186.677 464.469 187.532 463.735 187.879C463.042 188.205 462.248 187.94 461.881 187.288L461.84 187.227C460.74 185.271 459.701 183.294 458.56 181.358C457.398 179.443 456.298 177.487 455.055 175.632C452.691 171.842 450.063 168.215 447.414 164.649C444.704 161.124 441.852 157.701 438.836 154.461C437.328 152.831 435.8 151.262 434.211 149.734C433.416 148.98 432.621 148.226 431.806 147.512C431.012 146.799 430.136 146.066 429.402 145.475L426.346 143.091L429.341 140.421C433.233 137.304 437.389 134.594 441.689 132.25C445.988 129.907 450.43 127.89 454.933 126.117C459.436 124.344 464.02 122.816 468.666 121.491C473.312 120.187 477.957 119.046 482.745 118.211C483.54 118.068 484.294 118.598 484.437 119.393C484.579 120.146 484.09 120.88 483.357 121.063H483.336Z" fill="#000072"/>
<path d="M194.838 319.064C195.694 325.809 209.142 319.207 212.076 317.699C212.32 317.577 212.565 317.821 212.504 318.127C212.259 319.288 211.567 321.937 209.773 326.135C207.573 331.331 205.759 335.386 206.819 338.076C207.96 340.949 212.911 341.458 218.637 340.725C220.41 340.501 222.08 340.46 223.772 340.929C230.781 351.728 239.705 360.674 249.913 368.03C315.971 413.898 434.15 380.358 434.15 380.358C455.381 372.37 473.332 360.837 486.413 345.228C486.413 345.228 486.434 345.228 486.434 345.208C487.371 343.904 488.268 342.803 489.123 341.866C493.504 336.996 496.907 336.425 500.921 336.833C506.667 337.403 511.577 336.751 512.637 333.858C513.635 331.127 511.374 327.48 508.786 322.488C505.302 315.763 506.259 313.359 506.259 313.359C506.259 313.359 523.334 322.121 524.088 314.52C524.455 310.771 518.342 299.523 516.101 287.969C510.131 257.078 506.259 241.184 505.689 238.882C505.648 238.678 505.628 238.596 505.628 238.596C504.283 233.136 502.632 227.878 500.656 222.662C496.662 212.046 491.344 201.674 484.661 190.242C484.661 190.242 456.93 143.111 405.889 125.444C392.767 120.921 379.156 116.805 363.854 116.479C363.752 116.479 363.65 116.458 363.548 116.479C359.473 116.377 355.317 116.458 351.058 116.703C330.03 117.925 311.183 123.162 294.618 131.456C279.234 125.75 209.121 100.972 199.137 114.115C181.635 137.1 215.336 196.417 223.303 209.743C218.107 221.786 214.073 232.402 211.302 243.1C210.69 245.423 210.161 247.746 209.672 250.089C209.631 250.293 209.59 250.497 209.549 250.7C209.509 250.904 209.468 251.128 209.427 251.332C209.386 251.556 209.346 251.78 209.305 251.984C207.716 260.033 205.23 273.38 202.112 292.31C200.177 303.904 194.369 315.315 194.838 319.064Z" fill="#8E8FB3"/>
<g opacity="0.3">
<path d="M209.753 326.135C207.553 331.331 205.739 335.386 206.799 338.076C207.94 340.949 212.891 341.458 218.617 340.725C220.389 340.501 222.06 340.46 223.751 340.929C230.76 351.728 239.685 360.674 249.893 368.03C315.951 413.898 434.13 380.358 434.13 380.358C455.361 372.37 473.312 360.837 486.393 345.228C486.393 345.228 486.414 345.228 486.414 345.208C487.351 343.904 488.247 342.803 489.103 341.866C493.484 336.996 496.887 336.425 500.901 336.833C506.647 337.403 511.557 336.751 512.617 333.858C513.615 331.127 511.353 327.48 508.766 322.488C508.521 322.039 508.317 321.611 508.134 321.204C506.076 321.632 503.488 321.632 500.676 321.347C496.662 320.939 493.26 321.51 488.879 326.38C488.023 327.317 487.127 328.438 486.189 329.721C486.189 329.721 486.169 329.721 486.169 329.742C473.088 345.35 455.137 356.904 433.906 364.871C433.906 364.871 315.727 398.411 249.669 352.543C240.418 345.88 232.248 337.913 225.565 328.458C223.955 326.176 221.225 324.912 218.454 325.259C218.433 325.259 218.413 325.259 218.392 325.259C215.255 325.666 212.341 325.687 210.161 325.137C210.038 325.442 209.916 325.768 209.753 326.135Z" fill="#000072"/>
</g>
<g opacity="0.4">
<path d="M294.74 142.276C311.305 133.982 330.152 128.745 351.18 127.523C355.439 127.258 359.595 127.197 363.67 127.299C363.772 127.278 363.874 127.299 363.976 127.299C379.298 127.625 392.889 131.741 406.011 136.264C457.052 153.931 487.228 199.657 487.228 199.657C493.911 211.088 496.764 222.886 500.758 233.502C502.734 238.698 504.384 243.956 505.729 249.437C505.729 249.437 505.75 249.539 505.79 249.722C506.361 252.004 510.232 267.919 516.202 298.81C517.506 305.534 520.114 312.136 521.989 317.23C523.11 316.802 523.884 315.947 524.027 314.479C524.393 310.73 518.281 299.482 516.039 287.929C510.069 257.037 506.198 241.144 505.627 238.841C505.587 238.637 505.566 238.556 505.566 238.556C504.221 233.095 502.571 227.838 500.595 222.621C496.601 212.005 491.283 201.633 484.6 190.202C484.6 190.202 456.868 143.07 405.827 125.404C392.706 120.88 379.095 116.764 363.793 116.438C363.691 116.438 363.589 116.418 363.487 116.438C359.412 116.336 355.255 116.418 350.997 116.662C329.969 117.885 311.122 123.121 294.556 131.415C279.234 125.75 209.121 100.972 199.137 114.115C194.553 120.126 193.493 128.644 194.532 138.139C195.062 133.086 196.549 128.582 199.28 124.996C209.264 111.853 279.397 136.631 294.74 142.276Z" fill="white"/>
</g>
<path d="M341.889 328.376C343.152 347.653 363.813 352.543 388.794 350.913C413.774 349.283 433.62 341.723 432.357 322.447C431.093 303.17 410.718 286.054 385.737 287.684C360.757 289.335 340.626 309.12 341.889 328.376Z" fill="white"/>
<path d="M216.619 133.33C216.619 133.33 213.38 132.434 214.093 139.932C215.315 152.79 223.14 184.72 238.829 195.357C238.829 195.357 258.532 160.9 264.217 156.682C269.902 152.444 256.8 149.244 252.786 144.802C248.813 140.36 218.922 131.985 216.619 133.33Z" fill="#FF66A4"/>
<g opacity="0.3">
<path d="M264.217 156.662C260.916 159.127 252.847 171.842 246.694 182.031C237.138 167.95 232.187 146.392 231.249 136.387C231.229 136.285 231.229 136.163 231.208 136.061C240.276 138.608 250.565 142.296 252.786 144.782C256.8 149.224 269.902 152.444 264.217 156.662Z" fill="#000072"/>
</g>
<path d="M217.211 130.376C222.04 131.089 226.706 132.087 231.392 133.269C236.058 134.451 240.683 135.857 245.247 137.507C249.812 139.158 254.294 141.053 258.655 143.274C263.015 145.495 267.253 148.083 271.226 151.099L274.303 153.687L271.308 156.152C270.595 156.743 269.739 157.517 268.965 158.251C268.17 159.005 267.396 159.759 266.621 160.554C265.073 162.123 263.585 163.732 262.118 165.403C259.205 168.725 256.454 172.229 253.826 175.836C251.258 179.484 248.752 183.172 246.49 187.023C245.309 188.918 244.269 190.895 243.149 192.851C242.069 194.807 241.07 196.824 240.031 198.821L240.011 198.882C239.644 199.575 238.788 199.86 238.075 199.494C237.403 199.147 237.138 198.332 237.423 197.639C238.34 195.561 239.216 193.442 240.174 191.363C241.172 189.305 242.089 187.206 243.169 185.189C245.207 181.093 247.529 177.12 249.913 173.208C252.358 169.316 254.946 165.505 257.758 161.837C259.144 160.003 260.611 158.19 262.118 156.417C262.872 155.52 263.647 154.665 264.441 153.788C265.256 152.912 266.031 152.097 266.988 151.18L267.07 156.234C263.647 153.279 259.877 150.63 255.904 148.266C251.931 145.903 247.754 143.804 243.475 141.95C239.196 140.075 234.795 138.424 230.312 136.978C225.85 135.531 221.265 134.247 216.721 133.269H216.681C215.886 133.106 215.397 132.332 215.56 131.537C215.743 130.742 216.457 130.253 217.211 130.376Z" fill="#000072"/>
<path d="M295.473 391.096C291.133 390.301 286.814 389.323 282.555 388.039C278.297 386.756 274.12 385.248 270.024 383.434C267.987 382.538 265.929 381.519 263.993 380.439C262.037 379.379 260.122 378.238 258.227 377.056C256.332 375.875 254.478 374.632 252.685 373.307C251.788 372.655 250.892 371.983 250.015 371.29L248.711 370.251L248.059 369.721L247.733 369.456L247.57 369.313L247.489 369.252L247.448 369.211C247.428 369.191 247.142 368.926 247.183 368.946C247.163 368.926 247.204 368.967 247.265 369.028C247.387 369.15 247.693 369.436 248.222 369.66L247.55 369.293C246.592 368.559 246.001 367.948 245.349 367.316C244.718 366.685 244.106 366.073 243.516 365.442L239.991 361.733C237.668 359.288 235.325 356.904 232.92 354.622C230.516 352.36 228.01 350.2 225.422 348.407C224.118 347.51 222.794 346.695 221.469 346.104C220.817 345.819 220.165 345.554 219.533 345.411C218.861 345.228 218.494 345.187 217.496 345.085C215.764 344.902 214.012 344.719 212.157 344.352C211.241 344.168 210.283 343.924 209.305 343.577C208.327 343.211 207.267 342.762 206.208 341.947C205.678 341.54 205.148 341.01 204.72 340.358C204.496 340.032 204.313 339.685 204.15 339.319C203.987 338.952 203.905 338.626 203.783 338.279C203.437 336.894 203.518 335.651 203.681 334.571C204.028 332.411 204.7 330.72 205.332 329.049C205.984 327.398 206.676 325.809 207.308 324.301C207.919 322.793 208.49 321.265 208.958 319.757C209.203 319.003 209.407 318.249 209.549 317.556L209.57 317.495C209.57 317.454 209.57 317.495 209.549 317.597C209.529 317.679 209.529 317.74 209.529 317.821C209.509 318.147 209.529 318.494 209.651 318.84C209.875 319.512 210.385 320.226 211.424 320.572C211.933 320.735 212.565 320.715 213.054 320.572C213.726 320.307 213.36 320.429 213.38 320.45L213.074 320.613L211.872 321.204C210.263 321.978 208.632 322.691 206.921 323.323C205.209 323.955 203.457 324.525 201.481 324.872C200.482 325.035 199.443 325.157 198.261 325.096C197.1 325.014 195.653 324.79 194.207 323.751C193.514 323.241 192.882 322.508 192.515 321.754C192.128 321 191.924 320.226 191.823 319.553C191.66 317.923 191.904 316.945 192.087 315.967C192.515 314.052 193.065 312.421 193.616 310.771C195.816 304.271 198.037 298.035 199.056 291.657L202.418 271.525L204.191 261.459L205.128 256.426C205.454 254.714 205.759 253.125 206.187 251.271L206.147 251.495L206.33 250.639L206.493 249.946L206.819 248.561L207.512 245.83C207.98 244.017 208.469 242.203 208.958 240.39C209.957 236.763 211.037 233.176 212.178 229.59C214.48 222.438 217.088 215.326 220.328 208.398L220.471 211.495C216.09 204.18 212.035 196.722 208.245 189.081C204.476 181.44 201.012 173.635 198.037 165.587C195.083 157.538 192.597 149.244 191.354 140.523C190.743 136.163 190.478 131.68 190.926 127.115C191.354 122.571 192.597 117.844 195.246 113.667C195.572 113.137 195.938 112.648 196.285 112.138C196.753 111.507 197.365 110.875 197.956 110.406C199.178 109.408 200.482 108.797 201.725 108.328C204.231 107.431 206.595 107.146 208.897 106.983C213.482 106.718 217.863 107.085 222.162 107.615C230.76 108.735 239.094 110.63 247.326 112.729C263.789 117.008 279.886 122.245 295.84 128.012L292.926 128.175C298.387 125.444 303.99 123.06 309.757 121.043C315.523 119.046 321.391 117.396 327.341 116.112C333.291 114.828 339.322 113.931 345.373 113.381C351.425 112.831 357.497 112.566 363.61 112.729L363.121 112.75C363.773 112.688 364.241 112.77 364.099 112.75L364.486 112.77L365.26 112.79L366.829 112.852L370.069 113.076C372.228 113.279 374.388 113.504 376.528 113.83C380.807 114.461 385.024 115.358 389.181 116.397C393.338 117.457 397.413 118.7 401.427 120.004C403.444 120.656 405.42 121.328 407.438 122.041C409.455 122.816 411.492 123.468 413.469 124.344C429.443 130.803 443.91 140.442 456.645 151.791C463.022 157.477 468.952 163.63 474.453 170.151C477.204 173.411 479.832 176.773 482.359 180.217C483.622 181.949 484.845 183.701 486.026 185.515C486.638 186.432 487.188 187.308 487.799 188.307L489.388 191.057C497.803 205.688 505.261 221.174 509.295 238.107L501.96 239.778L501.899 239.493L509.214 237.7C511.476 246.971 513.452 256.141 515.408 265.392L518.24 279.248L519.605 286.176C519.83 287.378 520.033 288.377 520.298 289.477C520.543 290.557 520.848 291.617 521.154 292.697C522.397 297.017 524.068 301.275 525.739 305.758C526.146 306.879 526.574 308.04 526.961 309.263C527.328 310.526 527.756 311.708 527.919 313.624C527.939 313.889 527.959 314.113 527.939 314.439C527.939 314.744 527.898 315.05 527.858 315.315C527.776 315.865 527.654 316.436 527.409 317.047C526.961 318.249 525.983 319.512 524.842 320.226C523.721 320.959 522.621 321.285 521.684 321.428C520.726 321.591 519.891 321.591 519.096 321.571C515.999 321.387 513.533 320.592 511.109 319.757C509.907 319.329 508.745 318.86 507.584 318.371L505.872 317.597L505.139 317.251C505.913 317.617 507.136 317.679 508.012 317.291C508.908 316.925 509.479 316.293 509.805 315.682C510.151 315.05 510.253 314.398 510.233 313.787C510.212 313.624 510.212 313.481 510.171 313.338C510.131 313.135 510.131 313.175 510.131 313.196L510.151 313.277C510.64 315.152 511.455 317.271 512.331 319.288C513.228 321.326 514.287 323.486 515.245 325.87C515.714 327.072 516.182 328.356 516.488 329.925C516.651 330.699 516.753 331.576 516.712 332.554C516.692 333.532 516.508 334.612 515.979 335.794C515.428 336.975 514.552 337.953 513.696 338.605C512.82 339.258 511.965 339.685 511.15 339.991C509.519 340.582 508.052 340.806 506.647 340.928C505.241 341.03 503.896 341.01 502.592 340.928C501.94 340.888 501.288 340.827 500.636 340.765L500.249 340.725L499.963 340.704C499.78 340.684 499.576 340.704 499.393 340.684C497.865 340.704 496.255 341.214 494.706 342.192C493.158 343.149 491.67 344.515 490.407 346.063C490.101 346.451 489.796 346.858 489.551 347.204L489.286 347.592C489.144 347.795 489.042 347.918 488.94 348.081L488.308 348.875C487.493 349.874 486.699 350.77 485.884 351.687L484.661 353.032C484.498 353.216 484.457 353.236 484.417 353.297L484.254 353.46L483.928 353.786L483.276 354.418C482.399 355.253 481.544 356.129 480.627 356.924C479.71 357.719 478.834 358.575 477.897 359.349L475.085 361.672C471.274 364.688 467.22 367.377 463.063 369.843C458.886 372.268 454.587 374.469 450.186 376.364C441.383 380.194 432.296 383.088 423.066 385.248C422.312 385.431 421.558 384.963 421.395 384.209C421.232 383.536 421.599 382.864 422.21 382.599H422.23C426.55 380.745 430.87 378.951 435.108 377.016C437.227 376.038 439.346 375.1 441.424 374.061C443.523 373.083 445.581 372.023 447.639 370.964C451.734 368.824 455.707 366.542 459.538 364.056C463.389 361.611 467.077 358.921 470.602 356.048L473.19 353.847C474.045 353.114 474.861 352.319 475.716 351.565C476.572 350.811 477.346 349.996 478.141 349.201L479.262 348.101L480.382 346.817C481.136 345.962 481.87 345.085 482.522 344.25L482.97 343.659C483.031 343.577 483.113 343.476 483.133 343.435L483.357 343.088C483.765 342.477 484.172 341.927 484.6 341.397C486.291 339.278 488.247 337.363 490.692 335.814C493.097 334.265 496.072 333.124 499.25 333.022C499.637 333.022 500.045 333.002 500.432 333.043L501.512 333.124C502.042 333.165 502.571 333.206 503.081 333.246C504.12 333.287 505.139 333.287 506.076 333.206C507.013 333.124 507.889 332.961 508.46 332.737C508.745 332.635 508.929 332.513 509.01 332.452C509.071 332.391 509.01 332.452 508.949 332.574C508.888 332.737 509.03 332.268 508.867 331.514C508.725 330.76 508.419 329.823 508.012 328.845C507.217 326.848 506.219 324.79 505.22 322.528C504.222 320.246 503.305 317.964 502.612 315.294L502.571 315.172L502.51 314.928C502.47 314.744 502.449 314.561 502.449 314.378C502.408 313.624 502.551 312.809 502.959 312.055C503.366 311.321 504.038 310.567 505.078 310.139C506.096 309.691 507.482 309.752 508.378 310.18L509.234 310.587L510.742 311.26C511.761 311.688 512.78 312.095 513.778 312.462C515.775 313.175 517.894 313.746 519.483 313.827C520.257 313.909 520.848 313.664 520.522 313.807C520.38 313.889 520.156 314.174 520.135 314.296C520.115 314.357 520.115 314.357 520.115 314.316C520.115 314.296 520.115 314.276 520.115 314.316C520.115 314.357 520.115 314.276 520.115 314.255C520.094 313.807 519.83 312.727 519.524 311.749C519.198 310.73 518.831 309.671 518.424 308.591C516.834 304.25 515.082 299.727 513.737 294.999C513.391 293.817 513.085 292.615 512.8 291.413C512.515 290.211 512.27 288.927 512.046 287.806L510.701 280.899L507.93 267.103C506.035 257.934 504.079 248.703 501.899 239.697L509.214 237.904L509.275 238.189L501.94 239.86C500.086 232.137 497.335 224.312 494.075 216.875C490.794 209.397 486.964 202.102 482.848 194.929L481.299 192.26C480.831 191.485 480.26 190.589 479.71 189.774C478.61 188.082 477.428 186.412 476.246 184.761C473.842 181.46 471.315 178.24 468.687 175.123C463.409 168.888 457.704 162.978 451.612 157.538C439.427 146.677 425.653 137.548 410.616 131.455C408.762 130.64 406.826 130.029 404.931 129.296C402.996 128.603 401.019 127.951 399.063 127.319C395.151 126.035 391.219 124.853 387.286 123.835C383.333 122.836 379.38 122.001 375.387 121.41C373.39 121.104 371.393 120.88 369.396 120.697L366.401 120.493L364.832 120.432L364.058 120.411L363.671 120.391C363.284 120.371 363.467 120.411 363.854 120.371L363.365 120.391C357.599 120.228 351.792 120.493 346.025 121.023C340.259 121.552 334.513 122.408 328.869 123.59C323.205 124.792 317.622 126.341 312.161 128.216C306.7 130.111 301.362 132.352 296.187 134.92L294.76 135.633L293.273 135.083C277.584 129.336 261.629 124.079 245.512 119.82C237.464 117.722 229.334 115.867 221.225 114.787C217.19 114.258 213.115 113.931 209.305 114.135C207.41 114.258 205.556 114.522 204.089 115.052C203.355 115.317 202.744 115.643 202.336 115.969C202.112 116.153 201.99 116.275 201.827 116.499C201.582 116.866 201.297 117.192 201.073 117.579C199.178 120.534 198.139 124.161 197.752 127.971C197.365 131.782 197.568 135.775 198.098 139.749C199.199 147.716 201.521 155.663 204.333 163.427C207.165 171.19 210.507 178.811 214.175 186.289C217.842 193.768 221.795 201.124 226.054 208.276L226.95 209.784L226.196 211.373C223.12 217.894 220.552 224.761 218.291 231.729C217.17 235.214 216.09 238.739 215.092 242.264C214.603 244.037 214.113 245.81 213.645 247.583L212.972 250.252L212.361 252.738L212.32 252.962C211.974 254.429 211.628 256.161 211.322 257.791L210.364 262.763L208.551 272.768L205.128 292.839C203.966 299.91 201.542 306.533 199.382 312.89C198.852 314.459 198.343 316.048 198.017 317.454C197.854 318.127 197.793 318.84 197.813 318.922C197.833 319.085 197.874 319.146 197.854 319.146C197.854 319.146 197.813 319.085 197.793 319.064C197.731 319.044 198.017 319.207 198.547 319.207C199.056 319.248 199.708 319.186 200.401 319.064C201.786 318.84 203.274 318.371 204.761 317.842C206.249 317.291 207.736 316.66 209.183 315.947L210.263 315.417L210.527 315.274C210.65 315.233 210.364 315.315 211.139 315.009C211.73 314.805 212.463 314.805 213.074 314.989C214.317 315.396 214.99 316.293 215.275 317.169C215.418 317.617 215.458 318.066 215.438 318.494C215.438 318.596 215.418 318.697 215.397 318.799L215.356 318.983L215.336 319.064C215.112 320.022 214.867 320.898 214.603 321.774C214.052 323.506 213.421 325.177 212.748 326.807C212.076 328.437 211.404 329.945 210.792 331.474C210.201 332.961 209.651 334.469 209.468 335.692C209.366 336.283 209.386 336.772 209.447 337.057C209.468 337.098 209.488 337.179 209.509 337.22C209.529 337.24 209.529 337.261 209.549 337.301C209.59 337.362 209.651 337.444 209.794 337.566C210.364 338.035 211.791 338.544 213.258 338.83C214.745 339.135 216.355 339.339 218.005 339.502C218.698 339.563 220.022 339.706 220.98 339.991C221.999 340.256 222.936 340.643 223.833 341.03C225.605 341.845 227.195 342.823 228.682 343.863C231.657 345.962 234.306 348.264 236.832 350.669C239.359 353.073 241.763 355.539 244.106 358.025L247.591 361.733C248.161 362.344 248.752 362.935 249.323 363.506C249.873 364.056 250.484 364.647 250.892 364.953L250.219 364.586C250.769 364.81 251.095 365.095 251.218 365.238C251.299 365.299 251.319 365.36 251.319 365.34C251.36 365.381 251.095 365.116 251.075 365.095L251.116 365.136L251.197 365.197L251.34 365.319L251.645 365.564L252.257 366.073L253.5 367.051C254.335 367.703 255.17 368.335 256.006 368.967C257.697 370.21 259.429 371.432 261.202 372.574C262.974 373.715 264.788 374.815 266.622 375.854C268.476 376.914 270.289 377.851 272.225 378.727C279.886 382.314 287.996 384.942 296.329 386.858H296.35C297.592 387.143 298.367 388.386 298.081 389.608C297.857 390.546 296.676 391.32 295.473 391.096Z" fill="#000072"/>
<path d="M292.661 306.023C291.806 302.539 291.683 299.095 291.948 295.529C292.254 292.004 293.069 288.397 294.699 284.974C296.309 281.571 298.774 278.331 302.014 275.988C305.213 273.604 309.105 272.218 312.793 271.668C316.521 271.057 320.535 271.118 324.325 272.3C328.135 273.461 331.558 275.703 334.126 278.535C334.737 279.269 335.369 279.982 335.919 280.736C336.428 281.53 336.958 282.305 337.427 283.099C337.855 283.914 338.303 284.729 338.67 285.565C339.016 286.4 339.362 287.256 339.648 288.112C340.768 291.535 341.278 295.081 341.094 298.565C341.054 299.34 340.402 299.931 339.627 299.89C339.016 299.849 338.527 299.441 338.364 298.871V298.851C337.508 295.753 336.367 292.839 334.859 290.19L333.678 288.275C333.27 287.664 332.801 287.093 332.374 286.482C331.905 285.911 331.395 285.402 330.927 284.872C330.438 284.363 329.888 283.914 329.378 283.425C327.239 281.632 324.814 280.369 322.247 279.798C319.679 279.207 316.929 279.269 314.158 279.758C308.554 280.675 304.133 283.588 301.117 288.458C298.061 293.267 296.39 299.523 295.371 305.799L295.351 305.901C295.229 306.655 294.516 307.164 293.762 307.042C293.232 306.981 292.804 306.553 292.661 306.023Z" fill="#000072"/>
<path d="M425.918 290.15C425.062 286.849 424.94 283.568 425.164 280.185C425.449 276.823 426.203 273.4 427.752 270.119C429.28 266.879 431.623 263.762 434.741 261.541C437.797 259.259 441.526 257.934 445.03 257.425C448.576 256.854 452.406 256.915 456.054 258.036C459.681 259.136 462.961 261.296 465.406 264.006C467.872 266.696 469.583 269.875 470.643 273.135C471.702 276.395 472.171 279.778 471.967 283.079C471.926 283.853 471.254 284.424 470.5 284.383C469.889 284.342 469.4 283.935 469.257 283.385V283.364C468.401 280.45 467.321 277.699 465.875 275.214C464.428 272.748 462.696 270.568 460.679 268.876C458.662 267.205 456.4 266.044 453.996 265.514C451.591 264.964 449.024 265.025 446.436 265.494C441.179 266.37 437.084 269.06 434.231 273.624C431.338 278.127 429.728 284.016 428.689 289.946L428.669 290.048C428.547 290.802 427.813 291.311 427.059 291.189C426.468 291.067 426.061 290.659 425.918 290.15Z" fill="#000072"/>
<path d="M390.648 316.028C437.41 316.028 470.581 323.853 495.908 339.665C506.544 346.308 517.588 360.062 513.798 374.774C507.747 398.33 458.662 404.076 390.648 404.076C322.634 404.076 273.549 398.33 267.497 374.774C263.708 360.042 274.751 346.308 285.387 339.665C310.714 323.873 343.886 316.028 390.648 316.028Z" fill="#FF9A3E"/>
<g opacity="0.35">
<path d="M514.084 373.531C512.087 363.139 503.875 354.173 495.909 349.201C470.582 333.409 437.41 325.564 390.648 325.564C343.886 325.564 310.714 333.389 285.388 349.201C277.421 354.194 269.209 363.159 267.212 373.531C264.34 359.288 275.037 346.125 285.388 339.665C310.714 323.873 343.886 316.028 390.648 316.028C437.41 316.028 470.582 323.853 495.909 339.665C506.259 346.125 516.957 359.288 514.084 373.531Z" fill="white"/>
</g>
<g opacity="0.3">
<path d="M513.819 374.774C507.767 398.33 458.682 404.076 390.668 404.076C322.654 404.076 273.57 398.33 267.518 374.774C265.949 368.661 266.927 362.732 269.393 357.393C280.457 377.077 327.361 382.069 390.689 382.069C454.016 382.069 500.921 377.077 511.985 357.393C514.389 362.732 515.367 368.661 513.819 374.774Z" fill="#000072"/>
</g>
<path d="M390.648 407.846C352.036 407.846 324.855 405.971 305.091 401.957C280.599 396.965 267.111 388.386 263.85 375.732C259.714 359.634 270.697 344.413 283.391 336.486C294.149 329.762 305.947 324.627 319.435 320.756L321.88 320.063L323.449 322.06C327.769 327.582 331.905 333.369 335.919 338.972C337.162 340.704 338.405 342.436 339.648 344.148C339.974 344.596 340.361 345.167 340.789 345.778C343.988 350.424 346.29 353.134 347.655 353.888C348.348 352.075 348.328 346.838 347.126 341.051C345.761 334.428 343.234 327.765 339.627 321.265L337.019 316.578L342.317 315.722C351.242 314.296 360.94 313.298 371.149 312.768L373.003 312.666L374.205 314.072C375 315.009 375.794 315.947 376.589 316.884C382.498 323.995 387.979 331.657 393.276 339.054C394.499 340.745 395.722 342.457 396.944 344.148C397.27 344.596 397.657 345.167 398.085 345.799C401.284 350.424 403.587 353.155 404.931 353.888C405.624 352.075 405.604 346.838 404.402 341.051C402.792 333.328 399.654 325.605 395.049 318.086L391.463 312.218L398.33 312.34C409.801 312.564 420.641 313.298 430.564 314.52L432.011 314.704L432.968 315.824C433.274 316.171 433.559 316.517 433.844 316.864C439.753 323.975 445.234 331.637 450.532 339.033C451.755 340.745 452.977 342.436 454.2 344.128C454.526 344.576 454.913 345.146 455.341 345.778C458.54 350.404 460.842 353.134 462.207 353.868C462.9 352.054 462.88 346.817 461.678 341.03C460.618 335.916 458.866 330.76 456.461 325.687L452.916 318.229L460.862 320.45C474.738 324.342 486.841 329.579 497.865 336.446C510.579 344.372 521.541 359.594 517.405 375.691C514.145 388.366 500.656 396.944 476.165 401.916C456.461 405.971 429.26 407.846 390.648 407.846ZM319.089 328.702C307.291 332.289 296.9 336.935 287.405 342.864C277.36 349.14 267.987 361.509 271.165 373.857C277.197 397.311 338.201 400.327 390.668 400.327C443.136 400.327 504.14 397.311 510.171 373.857C513.35 361.509 503.977 349.14 493.932 342.864C485.558 337.648 476.491 333.409 466.425 330.027C467.546 333.185 468.442 336.344 469.094 339.522C470.602 346.777 471.988 359.268 464.408 361.366C458.173 363.078 452.773 355.253 449.187 350.078C448.8 349.507 448.433 348.998 448.128 348.57C446.905 346.858 445.662 345.146 444.44 343.435C439.244 336.201 433.885 328.702 428.2 321.835C420.885 320.98 413.041 320.389 404.829 320.063C408.11 326.461 410.453 332.982 411.798 339.522C413.306 346.777 414.691 359.268 407.112 361.366C400.856 363.078 395.477 355.253 391.891 350.078C391.504 349.507 391.137 348.998 390.831 348.57C389.609 346.858 388.386 345.167 387.164 343.455C381.948 336.16 376.528 328.621 370.802 321.693C370.435 321.265 370.089 320.837 369.722 320.389C362.387 320.817 355.337 321.489 348.695 322.386C351.384 328.03 353.34 333.776 354.522 339.522C356.03 346.777 357.415 359.268 349.836 361.366C343.601 363.078 338.181 355.253 334.615 350.057C334.228 349.487 333.882 348.977 333.576 348.57C332.333 346.838 331.09 345.106 329.827 343.353C326.322 338.483 322.756 333.491 319.089 328.702Z" fill="#000072"/>
<path d="M348.817 357.719C344.599 358.88 339.036 349.731 336.591 346.349C331.273 338.972 326.057 331.494 320.474 324.362C327.463 322.365 334.92 320.715 342.908 319.431C346.514 325.931 349.285 332.961 350.793 340.276C351.628 344.189 353.503 356.435 348.817 357.719Z" fill="#FF9A3E"/>
<g opacity="0.3">
<path d="M351.771 352.115C351.506 354.927 350.691 357.21 348.817 357.719C344.599 358.88 339.036 349.711 336.612 346.349C331.294 338.972 326.078 331.494 320.495 324.362C323.103 323.608 325.772 322.915 328.523 322.284C333.229 328.478 337.712 334.877 342.276 341.193C344.212 343.883 348.124 350.241 351.771 352.115Z" fill="#000072"/>
</g>
<path d="M406.093 357.719C401.875 358.88 396.312 349.731 393.867 346.349C387.265 337.2 380.827 327.908 373.675 319.288C372.901 318.371 372.126 317.454 371.352 316.538C377.526 316.211 383.944 316.048 390.648 316.048C393.235 316.048 395.762 316.069 398.268 316.13C402.812 323.547 406.317 331.718 408.11 340.297C408.904 344.189 410.779 356.435 406.093 357.719Z" fill="#FF9A3E"/>
<path d="M463.389 357.719C459.171 358.88 453.608 349.731 451.163 346.349C444.562 337.2 438.123 327.908 430.971 319.288C430.686 318.942 430.4 318.616 430.115 318.27C440.894 319.594 450.776 321.55 459.884 324.097C462.329 329.253 464.224 334.673 465.385 340.297C466.2 344.189 468.055 356.435 463.389 357.719Z" fill="#FF9A3E"/>
<g opacity="0.5">
<path d="M348.817 357.719C344.599 358.88 339.036 349.731 336.591 346.349C331.273 338.972 326.057 331.494 320.474 324.362C327.463 322.365 334.92 320.715 342.908 319.431C346.514 325.931 349.285 332.961 350.793 340.276C351.628 344.189 353.503 356.435 348.817 357.719Z" fill="white"/>
</g>
<g opacity="0.5">
<path d="M406.093 357.719C401.875 358.88 396.312 349.731 393.867 346.349C387.265 337.2 380.827 327.908 373.675 319.288C372.901 318.371 372.126 317.454 371.352 316.538C377.526 316.211 383.944 316.048 390.648 316.048C393.235 316.048 395.762 316.069 398.268 316.13C402.812 323.547 406.317 331.718 408.11 340.297C408.904 344.189 410.779 356.435 406.093 357.719Z" fill="white"/>
</g>
<g opacity="0.5">
<path d="M463.389 357.719C459.171 358.88 453.608 349.731 451.163 346.349C444.562 337.2 438.123 327.908 430.971 319.288C430.686 318.942 430.4 318.616 430.115 318.27C440.894 319.594 450.776 321.55 459.884 324.097C462.329 329.253 464.224 334.673 465.385 340.297C466.2 344.189 468.055 356.435 463.389 357.719Z" fill="white"/>
</g>
<g opacity="0.3">
<path d="M466.262 352.849C465.916 355.314 465.08 357.25 463.389 357.719C459.171 358.88 453.609 349.711 451.184 346.349C444.582 337.2 438.144 327.908 430.992 319.288C430.706 318.942 430.421 318.616 430.156 318.27C434.048 318.759 437.818 319.309 441.485 319.961C447.435 327.459 452.936 335.366 458.56 343.17C460.17 345.432 463.185 350.261 466.262 352.849Z" fill="#000072"/>
</g>
<path d="M348.042 361.591C342.541 361.591 337.814 354.724 334.594 350.037C334.207 349.466 333.861 348.957 333.555 348.549C332.312 346.817 331.069 345.085 329.806 343.333C325.833 337.791 321.737 332.065 317.52 326.665L314.076 322.263L319.435 320.735C326.546 318.697 334.248 317.006 342.317 315.722L344.925 315.295L346.209 317.597C350.182 324.77 352.973 332.146 354.501 339.502C356.009 346.756 357.395 359.247 349.815 361.346C349.224 361.509 348.633 361.591 348.042 361.591ZM326.892 326.543C329.99 330.659 332.985 334.856 335.919 338.952C337.162 340.684 338.405 342.416 339.648 344.128C339.974 344.576 340.361 345.146 340.789 345.758C343.988 350.404 346.29 353.114 347.655 353.868C348.348 352.054 348.328 346.817 347.125 341.03C345.923 335.203 343.804 329.334 340.87 323.588C336.041 324.423 331.355 325.422 326.892 326.543Z" fill="#000072"/>
<path d="M405.339 361.591C399.837 361.591 395.13 354.744 391.891 350.057C391.503 349.487 391.137 348.977 390.831 348.549C389.609 346.838 388.386 345.146 387.163 343.435C381.947 336.14 376.527 328.601 370.802 321.672C370.048 320.756 369.294 319.859 368.52 318.962L363.507 313.155L371.169 312.747C377.383 312.421 383.944 312.258 390.668 312.258C393.337 312.258 395.925 312.279 398.35 312.34L400.408 312.381L401.488 314.133C406.561 322.386 410.025 330.924 411.798 339.502C413.305 346.756 414.691 359.247 407.111 361.346C406.5 361.509 405.909 361.591 405.339 361.591ZM379.095 319.981C384.046 326.196 388.732 332.717 393.276 339.054C394.499 340.745 395.721 342.457 396.944 344.148C397.27 344.596 397.657 345.167 398.085 345.799C401.284 350.424 403.586 353.155 404.931 353.888C405.624 352.075 405.603 346.838 404.401 341.051C402.934 333.919 400.143 326.807 396.088 319.839C394.336 319.818 392.502 319.798 390.627 319.798C386.736 319.798 382.864 319.859 379.095 319.981Z" fill="#000072"/>
<path d="M462.615 361.591C457.113 361.591 452.407 354.744 449.167 350.057C448.78 349.487 448.413 348.977 448.107 348.549C446.885 346.838 445.642 345.126 444.419 343.414C439.203 336.12 433.804 328.58 428.058 321.672C427.793 321.346 427.508 321.02 427.243 320.694L420.987 313.338L430.564 314.52C441.404 315.865 451.612 317.862 460.883 320.45L462.533 320.919L463.267 322.467C465.916 328.071 467.872 333.797 469.053 339.502C470.561 346.756 471.947 359.247 464.367 361.346C463.776 361.509 463.185 361.591 462.615 361.591ZM439.04 323.364C443.013 328.539 446.824 333.858 450.552 339.033C451.775 340.745 452.997 342.436 454.22 344.128C454.546 344.576 454.933 345.146 455.361 345.778C458.56 350.404 460.862 353.134 462.228 353.868C462.92 352.054 462.9 346.817 461.698 341.03C460.74 336.446 459.232 331.82 457.195 327.235C451.49 325.727 445.397 324.423 439.04 323.364Z" fill="#000072"/>
<g opacity="0.3">
<path d="M419.968 330.72C408.721 337.627 397.412 328.539 392.257 321.713C392.257 321.713 390.974 323.771 388.671 326.298C392.441 331.372 396.088 336.568 399.796 341.682C401.691 344.311 405.44 350.383 409.006 352.462C408.721 355.111 407.885 357.23 406.092 357.719C401.875 358.88 396.312 349.711 393.867 346.349C390.24 341.336 386.674 336.262 382.986 331.29C378.056 334.714 371.413 336.955 363.813 333.491C352.79 328.478 357.272 313.012 357.272 313.012L423.167 311.871C423.188 311.892 428.709 325.34 419.968 330.72Z" fill="#000072"/>
</g>
<path d="M420.661 307.185C420.661 307.185 425.735 319.594 417.707 324.546C407.335 330.923 396.923 322.549 392.156 316.252C392.156 316.252 381.132 334.041 365.953 327.133C355.785 322.508 359.921 308.265 359.921 308.265" fill="white"/>
<path d="M372.901 331.025C370.354 331.025 367.705 330.496 364.954 329.232C355.439 324.912 356.009 313.155 357.64 307.551C358.006 306.308 359.31 305.595 360.553 305.942C361.796 306.308 362.509 307.613 362.163 308.855C362.02 309.345 358.719 321.204 366.91 324.933C380.012 330.903 389.731 315.621 390.139 314.948L391.952 312.055L394.01 314.785C395.151 316.293 405.441 329.273 416.464 322.508C422.699 318.677 418.522 308.163 418.481 308.04C417.992 306.838 418.563 305.473 419.765 304.984C420.967 304.495 422.332 305.065 422.821 306.268C423.066 306.859 428.547 320.593 418.909 326.522C409.536 332.289 399.206 327.704 392.278 320.083C388.325 325.157 381.316 331.025 372.901 331.025Z" fill="#000072"/>
<g opacity="0.3">
<path d="M365.932 327.093C381.112 334 392.136 316.212 392.136 316.212C396.903 322.508 407.315 330.883 417.687 324.505C422.944 321.265 420.417 312.075 419.561 308.02C418.97 310.16 417.992 314.276 416.688 316.171C411.676 323.506 399.226 310.384 394.458 304.087C394.458 304.087 379.625 328.295 365.871 318.861C362.041 316.232 361.959 310.791 361.266 307.47C360.594 311.688 358.292 323.629 365.932 327.093Z" fill="#000072"/>
</g>
<path d="M395.212 294.653C395.681 296.426 396.027 298.137 396.333 299.91C396.638 301.683 396.883 303.456 397.005 305.269C397.127 307.083 397.209 308.917 397.066 310.832C396.924 312.727 396.638 314.683 395.905 316.701V316.721C395.375 318.188 393.745 318.942 392.278 318.412C390.811 317.882 390.057 316.252 390.587 314.785C390.628 314.663 390.689 314.541 390.75 314.418C391.382 313.216 391.85 311.749 392.176 310.2C392.523 308.652 392.665 307.001 392.767 305.351C392.869 303.68 392.869 301.988 392.808 300.297C392.747 298.606 392.624 296.874 392.421 295.244V295.203C392.319 294.429 392.889 293.716 393.664 293.614C394.377 293.512 395.029 293.98 395.212 294.653Z" fill="#000072"/>
<path d="M372.779 298.891C373.716 304.149 384.107 307.185 391.667 307.144C397.372 307.124 406.48 303.272 406.398 297.546C406.337 293.023 401.203 289.844 387.632 291.067C376.528 292.085 372.147 295.366 372.779 298.891Z" fill="#000072"/>
<g opacity="0.7">
<path d="M388.081 294.001C387.877 294.959 390.363 296.1 392.339 296.079C393.46 296.079 397.494 295.998 397.739 294.959C397.983 293.919 396.842 292.962 393.093 292.656C389.69 292.371 388.305 293.043 388.081 294.001Z" fill="white"/>
</g>
<path d="M424.41 428.569C427.731 426.959 430.89 425.329 433.946 423.577C436.982 421.804 439.916 419.97 442.626 417.871C445.377 415.813 447.801 413.449 450.002 410.943L451.612 409.028L453.038 406.99L453.771 405.971L454.403 404.891C454.811 404.178 455.259 403.465 455.687 402.772L455.87 402.487C456.726 401.101 458.539 400.694 459.905 401.549C461.209 402.364 461.657 404.035 460.964 405.38C460.516 406.236 460.088 407.112 459.619 407.968L458.926 409.252L458.091 410.454C457.541 411.249 456.991 412.043 456.4 412.818L454.485 414.998C451.815 417.79 448.841 420.255 445.58 422.171C442.341 424.127 438.938 425.757 435.372 426.837C433.6 427.387 431.786 427.835 429.952 428.141C428.119 428.447 426.264 428.61 424.41 428.569Z" fill="#000072"/>
<path d="M337.508 425.105C329.929 423.903 322.532 421.783 315.299 419.236C308.045 416.689 300.995 413.531 294.169 409.883C287.364 406.236 280.783 401.998 274.731 397.005C271.736 394.458 268.822 391.809 266.194 388.855C263.565 385.9 261.12 382.762 259.021 379.339C258.166 377.953 258.593 376.14 259.979 375.284C261.324 374.469 263.056 374.835 263.952 376.119L263.993 376.18C266.031 379.176 268.252 382.049 270.717 384.739C273.203 387.408 275.852 389.975 278.643 392.38C284.226 397.189 290.359 401.468 296.757 405.339C303.155 409.231 309.859 412.655 316.664 415.935C323.469 419.216 330.418 422.232 337.508 425.105Z" fill="#000072"/>
<path d="M399.267 550.259C399.857 569.535 404.014 592.561 417.442 594.354C441.363 597.574 450.328 566.112 453.201 551.318C443.013 554.416 436.636 555.455 421.924 554.701C413.265 554.253 403.973 552.154 399.267 550.259Z" fill="white"/>
<g opacity="0.3">
<path d="M392.645 550.259C392.054 569.535 387.897 592.561 374.47 594.354C350.549 597.574 341.583 566.112 338.71 551.318C348.898 554.416 355.276 555.455 369.987 554.701C378.626 554.253 387.938 552.154 392.645 550.259Z" fill="#000072"/>
</g>
<g opacity="0.3">
<path d="M399.267 550.259C399.857 569.535 404.014 592.561 417.442 594.354C441.363 597.574 450.328 566.112 453.201 551.318C443.013 554.416 436.636 555.455 421.924 554.701C413.265 554.253 403.973 552.154 399.267 550.259Z" fill="#000072"/>
</g>
<path d="M419.092 595.903C418.196 595.903 417.279 595.862 416.362 595.76C391.3 593.03 394.764 535.751 394.927 533.326C395.069 531.247 396.842 529.719 398.92 529.821C400.999 529.964 402.568 531.757 402.425 533.815C400.999 555.618 404.605 586.917 417.157 588.282C437.145 590.462 449.33 555.699 453.323 544.268C453.67 543.27 453.975 542.393 454.24 541.68C460.21 525.358 469.705 489.699 466.364 434.234C466.242 432.155 467.81 430.382 469.889 430.24C471.967 430.118 473.74 431.687 473.882 433.765C477.306 490.596 467.484 527.376 461.311 544.268C461.066 544.941 460.761 545.776 460.434 546.754C455.646 560.427 443.217 595.903 419.092 595.903Z" fill="#000072"/>
<g opacity="0.3">
<path d="M177.478 441.406C175.705 445.074 173.26 447.825 170.571 449.272C154.983 457.647 143.532 450.413 135.362 432.787C133.956 429.771 127.762 418.401 117.553 422.762C115.923 423.454 114.456 424.31 113.112 425.288C98.9912 435.66 100.153 461.416 111.196 486.785L106.53 486.622C106.53 486.622 86.6436 433.439 112.908 412.492C140.109 390.79 150.888 420.235 161.055 433.765C167.148 441.895 173.423 442.344 177.478 441.406Z" fill="#000072"/>
</g>
<g opacity="0.3">
<path d="M326.18 561.874C324.305 568.15 320.637 572.408 316.44 572.408C313.078 572.408 310.062 569.678 308.025 565.378C313.934 566.947 320.515 566.744 326.18 561.874Z" fill="#000072"/>
</g>
<g opacity="0.3">
<path d="M490.57 561.69C486.006 567.151 480.484 569.821 476.409 567.925C474.555 567.07 473.23 565.378 472.436 563.117C475.94 564.889 480.341 565.562 485.822 564.034C487.371 563.626 488.96 562.811 490.57 561.69Z" fill="#000072"/>
</g>
<path d="M493.787 551.98C498.215 542.41 497.542 532.68 492.283 530.245C487.023 527.811 479.17 533.596 474.741 543.165C470.313 552.734 470.986 562.465 476.245 564.899C481.505 567.334 489.358 561.549 493.787 551.98Z" fill="#FC7E81"/>
<path d="M487.317 518.654C488.957 515.111 488.706 511.506 486.755 510.603C484.804 509.7 481.894 511.841 480.254 515.385C478.614 518.929 478.865 522.534 480.816 523.437C482.766 524.339 485.677 522.198 487.317 518.654Z" fill="#FC7E81"/>
<path d="M502.498 516.812C504.771 511.9 504.42 506.902 501.714 505.65C499.007 504.397 494.971 507.364 492.697 512.276C490.424 517.189 490.775 522.186 493.481 523.439C496.187 524.692 500.224 521.725 502.498 516.812Z" fill="#FC7E81"/>
<path d="M506.507 530.273C508.015 527.015 507.789 523.704 506.001 522.876C504.214 522.049 501.543 524.02 500.036 527.278C498.528 530.536 498.754 533.847 500.542 534.674C502.329 535.501 505 533.531 506.507 530.273Z" fill="#FC7E81"/>
<path d="M392.645 550.259C392.054 569.535 387.897 592.561 374.47 594.354C350.549 597.574 341.583 566.112 338.71 551.318C348.898 554.416 355.276 555.455 369.987 554.701C378.626 554.253 387.938 552.154 392.645 550.259Z" fill="white"/>
<g opacity="0.3">
<path d="M392.645 550.259C392.054 569.535 387.897 592.561 374.47 594.354C350.549 597.574 341.583 566.112 338.71 551.318C348.898 554.416 355.276 555.455 369.987 554.701C378.626 554.253 387.938 552.154 392.645 550.259Z" fill="#000072"/>
</g>
<path d="M339.505 520.529C339.953 523.932 340.544 527.457 341.176 530.921C341.787 534.385 342.5 537.849 343.254 541.293C344.742 548.18 346.596 554.946 348.817 561.527C351.058 568.068 353.809 574.426 357.395 579.887C359.188 582.597 361.246 585.022 363.548 586.835C365.851 588.649 368.337 589.749 370.945 589.994C371.597 590.055 372.269 590.075 372.942 590.034C373.268 589.994 373.634 589.994 373.94 589.953C374.225 589.892 374.51 589.871 374.755 589.79C375.835 589.525 376.813 589.015 377.791 588.221C379.706 586.652 381.357 584.044 382.579 581.109C383.822 578.175 384.719 574.935 385.432 571.614C386.145 568.292 386.654 564.869 387.041 561.425C387.775 554.518 387.999 547.467 387.897 540.417C387.816 533.367 388.02 526.337 389.059 519.021V519.001C389.12 518.614 389.466 518.349 389.833 518.41C390.057 518.451 390.24 518.573 390.342 518.756C392.237 522.139 393.236 525.725 394.03 529.312C394.805 532.898 395.253 536.545 395.416 540.193C395.742 547.488 395.722 554.803 395.151 562.179C394.866 565.868 394.417 569.576 393.725 573.285C393.032 576.993 392.054 580.722 390.587 584.431C389.833 586.285 388.936 588.119 387.795 589.912C386.634 591.705 385.269 593.458 383.455 594.986C381.662 596.514 379.441 597.757 377.037 598.389C376.446 598.572 375.835 598.674 375.224 598.776C374.633 598.857 374.103 598.898 373.553 598.959C372.432 599.041 371.312 599.041 370.17 598.939C365.586 598.593 361.287 596.575 357.986 593.947C354.644 591.298 352.036 588.16 349.876 584.92C347.696 581.659 345.923 578.277 344.395 574.813C342.867 571.369 341.563 567.864 340.381 564.36C338.038 557.33 336.367 550.157 334.961 543.005C333.617 535.791 332.598 528.66 332.007 521.263C331.844 519.184 333.392 517.371 335.45 517.208C337.447 517.045 339.22 518.492 339.485 520.468L339.505 520.529Z" fill="#000072"/>
<path d="M314.871 572.408C320.464 572.408 324.998 564.161 324.998 553.988C324.998 543.814 320.464 535.567 314.871 535.567C309.278 535.567 304.744 543.814 304.744 553.988C304.744 564.161 309.278 572.408 314.871 572.408Z" fill="#FC7E81"/>
<path d="M302.075 534.243C304.145 534.243 305.824 531.187 305.824 527.417C305.824 523.647 304.145 520.59 302.075 520.59C300.004 520.59 298.326 523.647 298.326 527.417C298.326 531.187 300.004 534.243 302.075 534.243Z" fill="#FC7E81"/>
<path d="M313.159 529.108C316.029 529.108 318.355 524.875 318.355 519.653C318.355 514.431 316.029 510.198 313.159 510.198C310.29 510.198 307.963 514.431 307.963 519.653C307.963 524.875 310.29 529.108 313.159 529.108Z" fill="#FC7E81"/>
<path d="M323.897 536.097C325.799 536.097 327.341 533.287 327.341 529.821C327.341 526.355 325.799 523.545 323.897 523.545C321.995 523.545 320.454 526.355 320.454 529.821C320.454 533.287 321.995 536.097 323.897 536.097Z" fill="#FC7E81"/>
</g>
<defs>
<clipPath id="clip0_242_1665">
<rect width="473" height="503" fill="white" transform="translate(55 96)"/>
</clipPath>
</defs>
</svg>
