<svg width="638" height="693" viewBox="0 0 638 693" fill="none" xmlns="http://www.w3.org/2000/svg">
<ellipse cx="325" cy="346.5" rx="313" ry="299.5" fill="#B0A2D7"/>
<g clip-path="url(#clip0_246_9404)">
<path d="M469.485 575.029C467.269 609.926 462.328 639.003 452.932 653.9C428.045 693.393 167.794 704.132 107.285 664.847C81.2442 647.941 70.8092 618.241 70.6014 589.117C70.4398 566.9 76.2345 545.028 85.6075 529.416C119.383 473.271 210.896 500.754 227.218 486.481C234.006 480.546 235.876 450.522 235.737 417.472C235.552 371.005 231.397 318.509 231.397 318.509L459.789 330.218C459.789 330.218 464.429 372.644 467.731 427.265C470.524 473.918 472.348 529.416 469.485 575.029Z" fill="#FFBBF1"/>
<path d="M469.485 575.029C467.269 609.926 462.328 639.003 452.932 653.9C428.045 693.393 167.795 704.132 107.286 664.847C81.2443 647.941 70.8093 618.24 70.6016 589.117C85.0766 608.032 116.243 632.582 182.5 641.59C268.866 653.322 416.41 663.854 469.485 575.029Z" fill="#F291E5"/>
<path d="M182.477 641.59C184.555 641.867 186.679 642.144 188.826 642.445C185.201 657.734 180.353 671.776 174.489 684.155C173.889 684.062 173.312 683.993 172.712 683.901C171.857 683.785 171.003 683.647 170.126 683.531C169.387 683.416 168.672 683.323 167.956 683.208C166.848 683.046 165.763 682.861 164.678 682.677C163.962 682.561 163.269 682.446 162.554 682.33C161.746 682.192 160.915 682.053 160.107 681.915C152.765 680.644 145.886 679.189 139.514 677.55C137.505 677.018 135.52 676.51 133.627 675.956C132.195 675.54 130.787 675.125 129.425 674.686C128.94 674.524 128.432 674.362 127.948 674.224C127.509 674.085 127.093 673.947 126.678 673.785C126.078 673.577 125.477 673.369 124.9 673.185C123.907 672.838 122.915 672.469 121.968 672.099C121.437 671.891 120.906 671.683 120.398 671.499C119.89 671.291 119.383 671.083 118.875 670.875C118.436 670.69 118.02 670.529 117.605 670.344C117.305 670.205 117.005 670.09 116.705 669.928C116.312 669.743 115.943 669.582 115.55 669.397C114.95 669.12 114.35 668.843 113.773 668.565C113.357 668.358 112.965 668.15 112.572 667.965C112.087 667.711 111.626 667.457 111.164 667.203C110.702 666.949 110.24 666.695 109.802 666.441C108.901 665.933 108.047 665.401 107.239 664.87C104.215 662.907 101.398 660.759 98.7665 658.473C98.5357 658.288 98.3279 658.08 98.097 657.895C95.9962 656.002 94.0108 654.015 92.1639 651.914C91.8638 651.567 91.5867 651.244 91.2866 650.897C90.9865 650.551 90.6864 650.205 90.3862 649.835C90.0861 649.489 89.8091 649.119 89.532 648.75C88.9549 648.034 88.4008 647.295 87.8468 646.532C87.5697 646.163 87.3158 645.816 87.0618 645.447C85.8152 643.669 84.6378 641.867 83.5296 639.996C83.2988 639.604 83.0679 639.211 82.8601 638.842C81.2903 636.07 79.882 633.23 78.6123 630.273C78.4507 629.881 78.2891 629.488 78.1275 629.095C77.9428 628.68 77.7812 628.264 77.6196 627.848C77.458 627.433 77.2964 626.994 77.1347 626.578C76.9962 626.209 76.8577 625.816 76.7192 625.446C76.4652 624.777 76.2344 624.107 76.0266 623.414C75.8881 623.021 75.7496 622.629 75.6341 622.213C74.8492 619.788 74.1797 617.363 73.5795 614.869C73.464 614.43 73.3717 613.991 73.2793 613.552C73.187 613.16 73.1177 612.767 73.0254 612.374C72.6329 610.527 72.2866 608.656 71.9865 606.785C71.9173 606.347 71.848 605.908 71.7787 605.469C71.7095 605.007 71.6402 604.568 71.5941 604.106C71.4786 603.206 71.3632 602.305 71.2708 601.404C71.1785 600.526 71.0862 599.649 71.0169 598.748C70.9246 597.824 70.8553 596.877 70.8091 595.93C70.786 595.469 70.763 595.03 70.7168 594.568C70.6706 593.667 70.6244 592.743 70.6013 591.82C70.5783 591.358 70.5783 590.919 70.5783 590.457C70.5783 589.995 70.5552 589.556 70.5552 589.094C85.0533 608.032 116.22 632.583 182.477 641.59Z" fill="#E872CF"/>
<path d="M469.485 575.029C469.347 577.223 469.185 579.371 469.047 581.496C468.954 582.558 468.885 583.62 468.793 584.683C468.77 585.122 468.723 585.56 468.677 585.999C468.354 589.764 468.008 593.436 467.615 596.992C467.5 597.986 467.408 598.979 467.269 599.972C467.154 600.965 467.038 601.935 466.923 602.905C466.807 603.875 466.669 604.822 466.553 605.792V605.815C466.415 606.762 466.299 607.686 466.161 608.609C465.63 612.351 465.03 615.954 464.383 619.395C464.222 620.273 464.06 621.104 463.875 621.959C463.714 622.813 463.529 623.645 463.367 624.453C463.275 624.869 463.206 625.284 463.114 625.677C462.929 626.485 462.744 627.294 462.559 628.079C462.467 628.495 462.375 628.91 462.259 629.326C462.098 630.042 461.913 630.758 461.728 631.451C461.521 632.259 461.313 633.067 461.082 633.853C460.874 634.592 460.666 635.308 460.459 636.024C460.043 637.456 459.604 638.841 459.143 640.181C459.004 640.643 458.843 641.082 458.681 641.52C458.589 641.774 458.496 642.005 458.427 642.259C458.312 642.56 458.219 642.837 458.104 643.137C457.434 644.939 456.719 646.624 455.98 648.241C455.864 648.518 455.726 648.772 455.61 649.05C455.564 649.142 455.518 649.257 455.472 649.35C455.357 649.581 455.241 649.812 455.126 650.043C455.033 650.25 454.918 650.435 454.826 650.62C454.664 650.943 454.479 651.267 454.295 651.59C453.856 652.398 453.417 653.16 452.956 653.876C452.84 654.061 452.725 654.223 452.609 654.408C452.517 654.546 452.402 654.708 452.286 654.846C452.217 654.962 452.124 655.077 452.032 655.17C451.917 655.331 451.778 655.516 451.617 655.678C451.547 655.77 451.478 655.863 451.386 655.955C451.132 656.255 450.878 656.532 450.601 656.81C450.508 656.902 450.439 656.994 450.347 657.064C450.139 657.271 449.931 657.479 449.747 657.664C449.423 657.964 449.1 658.265 448.731 658.565C448.592 658.703 448.431 658.819 448.269 658.957C447.877 659.281 447.461 659.627 447.022 659.927C446.815 660.089 446.607 660.251 446.376 660.389C446.145 660.551 445.914 660.713 445.66 660.897C445.199 661.221 444.714 661.521 444.229 661.844C443.721 662.168 443.19 662.491 442.636 662.814C442.382 662.953 442.151 663.115 441.874 663.253C441.066 663.715 440.189 664.177 439.312 664.616C439.035 664.754 438.758 664.893 438.457 665.031C437.811 665.355 437.165 665.655 436.472 665.955C435.549 666.394 434.579 666.81 433.563 667.226C432.201 667.803 430.793 668.357 429.315 668.912C428.577 669.189 427.838 669.466 427.076 669.72C425.391 670.32 423.636 670.898 421.812 671.475C421.351 671.614 420.866 671.775 420.381 671.914C418.719 672.422 417.01 672.907 415.256 673.392C414.24 673.669 413.201 673.946 412.139 674.223C411.447 674.408 410.754 674.593 410.038 674.778C409.023 675.032 407.984 675.286 406.922 675.54C401.496 676.856 395.702 678.08 389.607 679.212C388.545 679.42 387.46 679.605 386.375 679.789C381.319 680.69 376.055 681.522 370.63 682.307C369.822 682.422 369.037 682.538 368.206 682.653C364.905 683.115 361.534 683.554 358.117 683.97C353.754 671.452 351.284 658.057 351.007 644.13C400.458 635.816 445.014 615.977 469.485 575.029Z" fill="#E872CF"/>
<path d="M467.731 427.288C411.7 438.605 294.815 425.417 235.737 417.472C235.553 371.005 231.397 318.509 231.397 318.509L459.789 330.218C459.789 330.218 464.429 372.644 467.731 427.288Z" fill="#F291E5"/>
<path d="M467.731 427.288C411.7 438.605 294.815 425.417 235.737 417.472C235.737 416.733 235.737 416.017 235.737 415.301C235.714 413.846 235.714 412.391 235.691 410.913C235.691 410.036 235.668 409.158 235.645 408.28C235.645 407.149 235.622 406.017 235.599 404.862C235.599 404.677 235.599 404.493 235.599 404.308C235.576 402.83 235.529 401.375 235.506 399.897C235.506 399.781 235.506 399.666 235.506 399.55C273.252 404.978 377.994 417.565 466.299 405.024C466.784 412.137 467.269 419.597 467.731 427.288Z" fill="#F9A0E8"/>
<path d="M358.186 687.526C356.709 687.526 355.347 686.58 354.839 685.148C349.968 671.152 347.521 656.509 347.521 641.567C347.521 607.801 360.218 575.629 383.281 550.987C406.229 526.459 437.257 511.678 470.639 509.346C471.609 509.276 472.579 509.623 473.294 510.269C474.01 510.939 474.425 511.863 474.425 512.833C475.095 587.154 468.862 635.262 455.933 655.77C444.136 674.501 389.907 683.67 358.625 687.48C358.486 687.503 358.325 687.526 358.186 687.526ZM467.384 516.713C403.851 523.087 354.608 577.2 354.608 641.567C354.608 654.754 356.64 667.688 360.633 680.113C409.415 673.946 442.705 663.484 449.954 652.006C461.751 633.275 467.777 586.53 467.384 516.713Z" fill="#D871C2"/>
<path d="M341.472 689.328C339.948 689.328 338.586 688.335 338.101 686.857C337.432 684.732 336.785 682.584 336.208 680.459C335.7 678.565 336.808 676.625 338.701 676.117C340.595 675.609 342.534 676.718 343.042 678.612C343.342 679.72 343.665 680.852 343.988 681.984C345.189 681.868 346.389 681.73 347.567 681.614C349.506 681.406 351.237 682.815 351.445 684.755C351.653 686.695 350.245 688.427 348.305 688.635C346.158 688.866 343.965 689.074 341.795 689.282C341.703 689.328 341.587 689.328 341.472 689.328Z" fill="#D871C2"/>
<path d="M335.239 658.403C333.438 658.403 331.891 657.018 331.73 655.193C331.337 650.944 331.129 646.648 331.129 642.352C331.129 640.389 332.699 638.818 334.639 638.795C336.624 638.795 338.171 640.366 338.194 642.306C338.217 646.394 338.402 650.505 338.771 654.546C338.956 656.487 337.524 658.219 335.562 658.38C335.447 658.403 335.331 658.403 335.239 658.403ZM336.647 620.896C336.462 620.896 336.255 620.873 336.047 620.85C334.131 620.527 332.815 618.702 333.138 616.786C333.854 612.582 334.731 608.356 335.816 604.222C336.301 602.328 338.24 601.196 340.133 601.681C342.026 602.166 343.157 604.106 342.673 606C341.657 609.926 340.803 613.968 340.133 617.963C339.833 619.672 338.332 620.896 336.647 620.896ZM347.59 585.006C347.105 585.006 346.597 584.914 346.135 584.683C344.358 583.875 343.573 581.773 344.381 579.995C346.135 576.115 348.098 572.258 350.199 568.539C351.168 566.83 353.315 566.23 355.024 567.2C356.732 568.17 357.332 570.318 356.363 572.004C354.377 575.537 352.507 579.209 350.822 582.905C350.222 584.221 348.929 585.006 347.59 585.006ZM367.398 553.112C366.613 553.112 365.828 552.857 365.158 552.303C363.658 551.056 363.427 548.839 364.651 547.338C367.352 544.035 370.214 540.802 373.192 537.753C374.555 536.344 376.794 536.321 378.179 537.684C379.587 539.046 379.61 541.287 378.248 542.696C375.409 545.606 372.685 548.677 370.099 551.841C369.429 552.673 368.414 553.112 367.398 553.112ZM394.686 527.337C393.601 527.337 392.516 526.829 391.823 525.882C390.669 524.312 391.038 522.094 392.608 520.94C396.048 518.445 399.649 516.043 403.32 513.849C405.005 512.833 407.152 513.388 408.168 515.05C409.184 516.713 408.63 518.907 406.968 519.9C403.482 522.002 400.065 524.265 396.764 526.667C396.117 527.129 395.401 527.337 394.686 527.337ZM427.63 509.392C426.222 509.392 424.883 508.537 424.328 507.129C423.636 505.304 424.536 503.272 426.36 502.556C430.354 501.008 434.44 499.623 438.526 498.445C440.396 497.914 442.359 498.976 442.913 500.847C443.467 502.717 442.382 504.681 440.512 505.235C436.61 506.367 432.709 507.683 428.923 509.138C428.484 509.3 428.045 509.392 427.63 509.392Z" fill="#D871C2"/>
<path d="M470.755 506.459C468.839 506.459 467.246 504.911 467.223 502.971C467.2 502.048 467.2 501.124 467.176 500.2C466.276 500.269 465.399 500.362 464.522 500.454C462.582 500.662 460.828 499.253 460.62 497.313C460.412 495.373 461.82 493.618 463.76 493.41C465.93 493.179 468.169 492.971 470.409 492.832C471.378 492.786 472.325 493.11 473.017 493.756C473.733 494.403 474.148 495.327 474.148 496.297C474.195 498.468 474.241 500.662 474.264 502.833C474.287 504.796 472.74 506.389 470.778 506.436C470.801 506.459 470.778 506.459 470.755 506.459Z" fill="#D871C2"/>
<path d="M374.208 685.355C372.5 685.355 370.976 684.108 370.722 682.353C370.422 680.413 371.761 678.612 373.7 678.334C378.133 677.665 382.496 676.949 386.675 676.21C388.591 675.863 390.438 677.133 390.784 679.073C391.13 681.014 389.861 682.838 387.921 683.184C383.697 683.947 379.264 684.686 374.762 685.355C374.578 685.332 374.393 685.355 374.208 685.355ZM413.155 677.526C411.585 677.526 410.153 676.487 409.738 674.893C409.23 672.999 410.361 671.059 412.254 670.574C416.733 669.373 420.912 668.126 424.698 666.833C426.545 666.209 428.553 667.179 429.177 669.027C429.8 670.875 428.83 672.884 426.983 673.507C423.036 674.847 418.695 676.163 414.078 677.411C413.755 677.503 413.455 677.526 413.155 677.526ZM449.262 661.683C448.292 661.683 447.322 661.29 446.63 660.505C445.337 659.05 445.452 656.81 446.907 655.516C448.2 654.361 449.215 653.184 449.954 652.029C451.108 650.204 452.217 648.103 453.255 645.747C454.04 643.969 456.141 643.16 457.919 643.945C459.697 644.731 460.505 646.832 459.72 648.611C458.542 651.267 457.272 653.692 455.933 655.793C454.848 657.502 453.417 659.165 451.639 660.782C450.947 661.382 450.093 661.683 449.262 661.683ZM463.921 625.331C463.69 625.331 463.46 625.307 463.229 625.261C461.313 624.892 460.066 623.021 460.458 621.104C461.243 617.109 461.982 612.79 462.652 608.217C462.929 606.277 464.729 604.937 466.645 605.214C468.585 605.492 469.924 607.293 469.647 609.21C468.977 613.898 468.215 618.356 467.407 622.467C467.061 624.176 465.583 625.331 463.921 625.331ZM468.977 585.93C468.885 585.93 468.792 585.93 468.7 585.93C466.761 585.791 465.306 584.082 465.445 582.142C465.768 577.939 466.045 573.528 466.299 569.001C466.415 567.061 468.054 565.537 470.016 565.652C471.955 565.768 473.456 567.43 473.364 569.37C473.11 573.943 472.833 578.424 472.509 582.673C472.348 584.521 470.801 585.93 468.977 585.93ZM470.755 546.206C470.732 546.206 470.709 546.206 470.686 546.206C468.723 546.16 467.176 544.566 467.223 542.603C467.315 538.353 467.361 533.896 467.384 529.392C467.384 527.452 468.977 525.882 470.916 525.882H470.939C472.902 525.882 474.472 527.475 474.449 529.439C474.426 533.965 474.379 538.446 474.287 542.741C474.264 544.681 472.671 546.206 470.755 546.206Z" fill="#D871C2"/>
<path d="M262.494 693C254.76 693 247.049 692.885 239.408 692.677C175.782 690.875 126.932 681.822 105.346 667.803C57.627 636.809 59.9125 565.237 82.5832 527.568C106.085 488.514 154.889 488.167 190.534 487.913C205.91 487.798 220.431 487.705 224.887 483.802C227.588 481.447 233.659 468.328 231.905 397.264C230.935 357.609 227.911 319.178 227.888 318.786C227.819 317.77 228.165 316.776 228.881 316.037C229.596 315.298 230.566 314.929 231.605 314.975L459.997 326.684C461.728 326.777 463.136 328.116 463.321 329.825C464.522 340.749 492.202 598.24 455.933 655.77C449.769 665.54 431.647 673.808 402.027 680.321C365.435 688.381 313.607 693 262.494 693ZM235.229 322.25C236.014 333.151 238.161 364.699 238.969 397.056C240.793 470.615 234.467 484.842 229.55 489.137C223.109 494.773 209.465 494.865 190.58 495.004C156.621 495.234 110.079 495.558 88.6318 531.24C67.4386 566.461 65.0146 633.206 109.202 661.891C153.181 690.437 313.168 692.631 400.503 673.438C436.818 665.447 447.068 656.602 449.954 652.029C482.875 599.764 459.65 363.083 456.603 333.613L235.229 322.25Z" fill="#000072"/>
<path d="M468.608 442.739C426.499 447.219 321.133 455.372 235.553 436.803C235.853 425.048 235.784 412.23 235.483 399.527C273.229 404.955 377.972 417.542 466.276 405.001C467.107 416.826 467.915 429.528 468.608 442.739Z" fill="#F492DB"/>
<path d="M468.608 442.739C426.499 447.219 321.133 455.372 235.553 436.803C235.853 425.048 235.784 412.23 235.483 399.527C273.229 404.955 377.972 417.542 466.276 405.001C467.107 416.826 467.915 429.528 468.608 442.739Z" fill="#F492DB"/>
<path d="M467.731 427.288C411.7 438.605 294.815 425.417 235.737 417.472C235.737 416.733 235.737 416.017 235.737 415.301C235.737 413.846 235.714 412.391 235.691 410.913C235.691 410.036 235.668 409.158 235.645 408.28C235.645 407.149 235.622 406.017 235.599 404.862C235.599 404.677 235.599 404.493 235.599 404.308C235.576 402.83 235.529 401.375 235.506 399.897C235.506 399.781 235.506 399.666 235.506 399.55C273.252 404.978 377.994 417.565 466.299 405.024C466.784 412.137 467.269 419.597 467.731 427.288Z" fill="#E872CF"/>
<path d="M362.434 451.954C321.433 451.954 275.838 449.159 234.791 440.267C233.129 439.898 231.974 438.42 231.997 436.734C232.274 425.994 232.251 413.5 231.928 399.643C231.905 398.603 232.344 397.61 233.106 396.917C233.89 396.224 234.929 395.924 235.945 396.063C276.046 401.837 378.71 413.892 465.745 401.536C466.715 401.398 467.708 401.675 468.469 402.299C469.231 402.922 469.693 403.823 469.762 404.793C470.663 417.772 471.448 430.498 472.094 442.577C472.186 444.448 470.801 446.087 468.931 446.272C447.138 448.582 407.568 451.954 362.434 451.954ZM239.154 433.962C321.618 451.191 421.928 443.986 464.891 439.574C464.36 429.713 463.737 419.481 463.021 409.042C378.803 420.267 281.448 409.527 239.108 403.615C239.316 414.724 239.339 424.909 239.154 433.962Z" fill="#D871C2"/>
<path d="M362.434 451.954C321.433 451.954 275.838 449.159 234.791 440.267C233.129 439.898 231.974 438.42 231.997 436.734C232.274 425.994 232.251 413.5 231.928 399.643C231.905 398.603 232.344 397.61 233.106 396.917C233.89 396.224 234.929 395.924 235.945 396.063C276.046 401.837 378.71 413.892 465.745 401.536C466.715 401.398 467.708 401.675 468.469 402.299C469.231 402.922 469.693 403.823 469.762 404.793C470.663 417.772 471.448 430.498 472.094 442.577C472.186 444.448 470.801 446.087 468.931 446.272C447.138 448.582 407.568 451.954 362.434 451.954ZM239.154 433.962C321.618 451.191 421.928 443.986 464.891 439.574C464.36 429.713 463.737 419.481 463.021 409.042C378.803 420.267 281.448 409.527 239.108 403.615C239.316 414.724 239.339 424.909 239.154 433.962Z" fill="#D871C2"/>
<path d="M186.448 689.143C186.31 689.143 186.194 689.143 186.056 689.12C181.6 688.635 177.214 688.081 173.012 687.503C171.073 687.226 169.734 685.448 169.988 683.508C170.265 681.568 172.042 680.228 173.981 680.482C178.114 681.06 182.431 681.591 186.817 682.076C188.757 682.284 190.165 684.039 189.934 685.979C189.749 687.804 188.226 689.143 186.448 689.143ZM147.848 683.046C147.594 683.046 147.34 683.023 147.086 682.954C142.561 681.961 138.244 680.898 134.227 679.767C132.357 679.235 131.249 677.295 131.78 675.401C132.311 673.531 134.25 672.422 136.143 672.953C140.022 674.039 144.2 675.078 148.587 676.025C150.503 676.441 151.703 678.335 151.288 680.228C150.941 681.914 149.464 683.046 147.848 683.046ZM198.892 670.944C198.568 670.944 198.222 670.898 197.899 670.806C196.029 670.251 194.944 668.288 195.498 666.417C196.675 662.353 197.783 658.172 198.799 653.969C199.261 652.075 201.154 650.897 203.07 651.359C204.963 651.821 206.141 653.738 205.679 655.632C204.64 659.928 203.509 664.223 202.285 668.38C201.823 669.928 200.415 670.944 198.892 670.944ZM110.91 670.551C110.333 670.551 109.756 670.413 109.202 670.113C107.839 669.374 106.547 668.588 105.346 667.803C102.761 666.14 100.267 664.293 97.9355 662.353C96.4349 661.105 96.2271 658.865 97.4738 657.364C98.7204 655.863 100.96 655.655 102.46 656.902C104.584 658.68 106.847 660.343 109.202 661.868C110.264 662.56 111.418 663.253 112.618 663.9C114.327 664.847 114.95 666.995 114.004 668.704C113.38 669.905 112.157 670.551 110.91 670.551ZM83.4835 643.345C82.26 643.345 81.0826 642.722 80.4362 641.59C78.1968 637.779 76.1883 633.668 74.503 629.395C73.7873 627.571 74.6646 625.515 76.4884 624.8C78.3122 624.084 80.3669 624.961 81.0826 626.786C82.6524 630.712 84.4762 634.5 86.554 638.01C87.5467 639.696 86.9696 641.867 85.3073 642.86C84.7071 643.183 84.1069 643.345 83.4835 643.345ZM207.272 632.767C207.087 632.767 206.902 632.744 206.741 632.721C204.802 632.421 203.486 630.62 203.786 628.68C204.432 624.476 205.009 620.18 205.471 615.885C205.679 613.945 207.433 612.559 209.373 612.767C211.312 612.975 212.697 614.73 212.489 616.67C212.004 621.035 211.404 625.446 210.758 629.742C210.481 631.52 208.98 632.767 207.272 632.767ZM71.4556 606.416C69.7011 606.416 68.1774 605.099 67.9465 603.321C67.4155 598.956 67.1154 594.452 67.0462 589.925C67.0231 587.962 68.5698 586.369 70.5322 586.346C72.4483 586.276 74.0874 587.893 74.1105 589.833C74.1567 594.083 74.4568 598.332 74.9647 602.443C75.1956 604.383 73.8335 606.138 71.8943 606.393C71.7557 606.416 71.5941 606.416 71.4556 606.416ZM210.896 593.852C210.85 593.852 210.804 593.852 210.758 593.852C208.819 593.782 207.295 592.143 207.364 590.18C207.526 585.907 207.595 581.565 207.595 577.269C207.595 576.761 207.687 576.299 207.895 575.86C207.71 575.422 207.595 574.96 207.595 574.452C207.572 570.156 207.457 565.814 207.249 561.541C207.156 559.601 208.68 557.938 210.619 557.846C212.559 557.777 214.221 559.278 214.313 561.218C214.498 565.56 214.613 569.994 214.659 574.382C214.659 574.89 214.567 575.375 214.359 575.814C214.544 576.253 214.659 576.738 214.659 577.246C214.659 581.634 214.59 586.069 214.429 590.41C214.359 592.35 212.789 593.852 210.896 593.852ZM72.9101 567.477C72.6792 567.477 72.4714 567.454 72.2406 567.408C70.3244 567.038 69.0777 565.19 69.4471 563.273C70.3013 558.839 71.3864 554.451 72.6792 550.271C73.2563 548.4 75.2187 547.361 77.0887 547.915C78.9586 548.492 79.9975 550.455 79.4204 552.326C78.1968 556.299 77.181 560.41 76.373 564.613C76.0498 566.322 74.5723 567.477 72.9101 567.477ZM208.634 538.954C206.879 538.954 205.356 537.638 205.125 535.836C204.617 531.563 203.994 527.268 203.324 523.064C203.001 521.147 204.317 519.323 206.256 519C208.172 518.699 209.996 519.993 210.319 521.933C211.012 526.228 211.635 530.617 212.166 534.982C212.397 536.922 211.012 538.677 209.073 538.908C208.934 538.954 208.772 538.954 208.634 538.954ZM86.7156 531.148C86.0692 531.148 85.3997 530.963 84.7995 530.593C83.1603 529.531 82.6755 527.337 83.7375 525.697C86.2308 521.84 89.0935 518.214 92.2563 514.958C93.6184 513.549 95.8577 513.526 97.2429 514.889C98.6512 516.251 98.6743 518.491 97.3122 519.877C94.4726 522.787 91.91 526.044 89.6706 529.508C89.0242 530.57 87.893 531.148 86.7156 531.148ZM116.035 506.135C114.696 506.135 113.426 505.373 112.826 504.08C112.018 502.302 112.78 500.2 114.558 499.392C118.482 497.59 122.73 495.974 127.186 494.611C129.056 494.057 131.018 495.096 131.595 496.967C132.172 498.837 131.11 500.8 129.24 501.378C125.085 502.648 121.137 504.126 117.513 505.812C117.051 506.02 116.543 506.135 116.035 506.135ZM201.57 500.523C199.977 500.523 198.545 499.461 198.153 497.844C197.899 496.874 197.668 495.904 197.414 494.934C195.936 494.957 194.436 494.957 192.912 494.98H192.889C190.95 494.98 189.38 493.41 189.357 491.47C189.334 489.507 190.904 487.913 192.866 487.913C195.359 487.89 197.76 487.867 200.069 487.821C201.662 487.821 203.116 488.86 203.532 490.431C204.04 492.301 204.548 494.195 205.032 496.112C205.517 498.006 204.363 499.923 202.47 500.408C202.147 500.477 201.847 500.523 201.57 500.523ZM153.781 496.551C152.003 496.551 150.48 495.211 150.272 493.387C150.064 491.447 151.472 489.692 153.412 489.484C157.567 489.022 161.884 488.698 166.617 488.444C168.556 488.352 170.218 489.853 170.334 491.793C170.426 493.733 168.926 495.396 166.986 495.512C162.392 495.743 158.214 496.089 154.197 496.505C154.035 496.551 153.896 496.551 153.781 496.551Z" fill="#D871C2"/>
<path d="M196.167 577.269C196.167 618.194 187.995 655.609 174.489 684.155C145.17 680.136 121.045 673.785 107.285 664.847C61.3901 635.054 63.9296 565.467 85.6075 529.415C106.477 494.726 149.372 491.955 182.962 491.539C191.342 516.413 196.167 545.79 196.167 577.269Z" fill="#F492DB"/>
<path d="M196.167 577.269C196.167 618.194 187.995 655.609 174.489 684.155C145.17 680.136 121.045 673.785 107.285 664.847C61.3901 635.054 63.9296 565.467 85.6075 529.415C106.477 494.726 149.372 491.955 182.962 491.539C191.342 516.413 196.167 545.79 196.167 577.269Z" fill="#F492DB"/>
<path d="M188.826 642.445C185.201 657.734 180.353 671.776 174.489 684.155C173.889 684.062 173.312 683.993 172.712 683.901C171.857 683.785 171.003 683.647 170.126 683.531C169.387 683.416 168.672 683.323 167.956 683.208C166.848 683.046 165.763 682.861 164.678 682.677C163.962 682.561 163.269 682.446 162.554 682.33C161.746 682.192 160.915 682.053 160.107 681.915C152.765 680.621 145.886 679.166 139.514 677.55C137.482 677.018 135.52 676.51 133.627 675.956C132.195 675.54 130.787 675.125 129.425 674.686C128.94 674.524 128.432 674.362 127.948 674.224C127.509 674.085 127.093 673.947 126.678 673.785C126.078 673.577 125.477 673.369 124.9 673.185C123.907 672.838 122.915 672.469 121.968 672.099C121.437 671.891 120.906 671.683 120.398 671.475C119.89 671.268 119.383 671.06 118.875 670.852C118.436 670.667 118.02 670.505 117.605 670.321C117.305 670.182 116.982 670.067 116.705 669.928C116.312 669.743 115.943 669.582 115.55 669.397C114.95 669.12 114.35 668.843 113.773 668.542C113.357 668.334 112.965 668.127 112.572 667.942C112.087 667.688 111.626 667.457 111.164 667.18C110.702 666.926 110.24 666.672 109.802 666.418C108.901 665.909 108.047 665.378 107.239 664.847C104.215 662.884 101.398 660.736 98.7665 658.45C98.5357 658.265 98.3279 658.057 98.097 657.872C95.9962 655.978 94.0108 653.992 92.1639 651.891C91.8638 651.544 91.5867 651.221 91.2866 650.874C90.9865 650.528 90.6864 650.182 90.3862 649.812C90.0861 649.466 89.8091 649.096 89.532 648.726C88.9549 648.011 88.4008 647.272 87.8468 646.509C87.5697 646.14 87.3158 645.793 87.0618 645.424C85.8152 643.646 84.6378 641.844 83.5296 639.973C83.2988 639.581 83.0679 639.188 82.8601 638.819C81.2903 636.047 79.882 633.206 78.6123 630.25C78.4507 629.858 78.2891 629.465 78.1275 629.072C77.9659 628.657 77.7812 628.241 77.6196 627.825C77.458 627.409 77.2964 626.971 77.1347 626.555C76.9962 626.185 76.8577 625.793 76.7192 625.423C76.4652 624.754 76.2344 624.084 76.0266 623.391C75.8881 622.998 75.7496 622.606 75.6341 622.19C74.8492 619.765 74.1797 617.317 73.5795 614.846C73.464 614.407 73.3717 613.968 73.2793 613.529C73.187 613.137 73.0947 612.744 73.0254 612.351C72.6329 610.504 72.2866 608.633 71.9865 606.762C71.9173 606.323 71.848 605.885 71.7787 605.446C71.7095 604.984 71.6402 604.545 71.5941 604.083C71.4786 603.182 71.3632 602.282 71.2708 601.381C71.1785 600.503 71.0862 599.626 71.0169 598.725C70.9246 597.801 70.8553 596.854 70.8091 595.907C70.786 595.445 70.7399 595.007 70.7168 594.545C70.6706 593.644 70.6244 592.72 70.6013 591.82C70.5783 591.358 70.5783 590.919 70.5783 590.457C70.5783 589.995 70.5552 589.556 70.5552 589.094C85.0302 608.009 116.197 632.56 182.454 641.567C184.555 641.867 186.679 642.144 188.826 642.445Z" fill="#E872CF"/>
<path d="M174.489 687.688C174.328 687.688 174.166 687.688 174.005 687.665C141.984 683.277 118.875 676.602 105.346 667.826C57.627 636.855 59.9125 565.282 82.5601 527.591C105.808 488.952 155.951 488.329 182.893 488.005C184.393 488.005 185.802 488.952 186.286 490.407C195.059 516.436 199.676 546.46 199.676 577.269C199.676 617.132 191.85 655.632 177.652 685.656C177.098 686.903 175.828 687.688 174.489 687.688ZM180.423 495.119C145.701 495.696 107.724 499.507 88.6318 531.24C67.4386 566.46 65.0377 633.206 109.202 661.89C121.322 669.766 143.138 676.094 172.389 680.298C185.455 651.544 192.635 615.099 192.635 577.269C192.635 548.192 188.41 519.831 180.423 495.119Z" fill="#D871C2"/>
<path d="M186.448 689.143C186.31 689.143 186.194 689.143 186.056 689.12C181.6 688.635 177.214 688.081 173.012 687.503C171.073 687.226 169.734 685.448 169.988 683.508C170.265 681.568 172.042 680.228 173.981 680.482C178.114 681.06 182.431 681.591 186.817 682.076C188.757 682.284 190.165 684.039 189.934 685.979C189.749 687.804 188.226 689.143 186.448 689.143ZM147.848 683.046C147.594 683.046 147.34 683.023 147.086 682.954C142.561 681.961 138.244 680.898 134.227 679.767C132.357 679.235 131.249 677.295 131.78 675.401C132.311 673.531 134.25 672.422 136.143 672.953C140.022 674.039 144.2 675.078 148.587 676.025C150.503 676.441 151.703 678.335 151.288 680.228C150.941 681.914 149.464 683.046 147.848 683.046ZM198.892 670.944C198.568 670.944 198.222 670.898 197.899 670.806C196.029 670.251 194.944 668.288 195.498 666.417C196.675 662.353 197.783 658.172 198.799 653.969C199.261 652.075 201.154 650.897 203.07 651.359C204.963 651.821 206.141 653.738 205.679 655.632C204.64 659.928 203.509 664.223 202.285 668.38C201.823 669.928 200.415 670.944 198.892 670.944ZM110.91 670.551C110.333 670.551 109.756 670.413 109.202 670.113C107.839 669.374 106.547 668.588 105.346 667.803C102.761 666.14 100.267 664.293 97.9355 662.353C96.4349 661.105 96.2271 658.865 97.4738 657.364C98.7204 655.863 100.96 655.655 102.46 656.902C104.584 658.68 106.847 660.343 109.202 661.868C110.264 662.56 111.418 663.253 112.618 663.9C114.327 664.847 114.95 666.995 114.004 668.704C113.38 669.905 112.157 670.551 110.91 670.551ZM83.4835 643.345C82.26 643.345 81.0826 642.722 80.4362 641.59C78.1968 637.779 76.1883 633.668 74.503 629.395C73.7873 627.571 74.6646 625.515 76.4884 624.8C78.3122 624.084 80.3669 624.961 81.0826 626.786C82.6524 630.712 84.4762 634.5 86.554 638.01C87.5467 639.696 86.9696 641.867 85.3073 642.86C84.7071 643.183 84.1069 643.345 83.4835 643.345ZM207.272 632.767C207.087 632.767 206.902 632.744 206.741 632.721C204.802 632.421 203.486 630.62 203.786 628.68C204.432 624.476 205.009 620.18 205.471 615.885C205.679 613.945 207.433 612.559 209.373 612.767C211.312 612.975 212.697 614.73 212.489 616.67C212.004 621.035 211.404 625.446 210.758 629.742C210.481 631.52 208.98 632.767 207.272 632.767ZM71.4556 606.416C69.7011 606.416 68.1774 605.099 67.9465 603.321C67.4155 598.956 67.1154 594.452 67.0462 589.925C67.0231 587.962 68.5698 586.369 70.5322 586.346C72.4483 586.276 74.0874 587.893 74.1105 589.833C74.1567 594.083 74.4568 598.332 74.9647 602.443C75.1956 604.383 73.8335 606.138 71.8943 606.393C71.7557 606.416 71.5941 606.416 71.4556 606.416ZM210.896 593.852C210.85 593.852 210.804 593.852 210.758 593.852C208.819 593.782 207.295 592.143 207.364 590.18C207.526 585.907 207.595 581.565 207.595 577.269C207.595 576.761 207.687 576.299 207.895 575.86C207.71 575.422 207.595 574.96 207.595 574.452C207.572 570.156 207.457 565.814 207.249 561.541C207.156 559.601 208.68 557.938 210.619 557.846C212.559 557.777 214.221 559.278 214.313 561.218C214.498 565.56 214.613 569.994 214.659 574.382C214.659 574.89 214.567 575.375 214.359 575.814C214.544 576.253 214.659 576.738 214.659 577.246C214.659 581.634 214.59 586.069 214.429 590.41C214.359 592.35 212.789 593.852 210.896 593.852ZM72.9101 567.477C72.6792 567.477 72.4714 567.454 72.2406 567.408C70.3244 567.038 69.0777 565.19 69.4471 563.273C70.3013 558.839 71.3864 554.451 72.6792 550.271C73.2563 548.4 75.2187 547.361 77.0887 547.915C78.9586 548.492 79.9975 550.455 79.4204 552.326C78.1968 556.299 77.181 560.41 76.373 564.613C76.0498 566.322 74.5723 567.477 72.9101 567.477ZM208.634 538.954C206.879 538.954 205.356 537.638 205.125 535.836C204.617 531.563 203.994 527.268 203.324 523.064C203.001 521.147 204.317 519.323 206.256 519C208.172 518.699 209.996 519.993 210.319 521.933C211.012 526.228 211.635 530.617 212.166 534.982C212.397 536.922 211.012 538.677 209.073 538.908C208.934 538.954 208.772 538.954 208.634 538.954ZM86.7156 531.148C86.0692 531.148 85.3997 530.963 84.7995 530.593C83.1603 529.531 82.6755 527.337 83.7375 525.697C86.2308 521.84 89.0935 518.214 92.2563 514.958C93.6184 513.549 95.8577 513.526 97.2429 514.889C98.6512 516.251 98.6743 518.491 97.3122 519.877C94.4726 522.787 91.91 526.044 89.6706 529.508C89.0242 530.57 87.893 531.148 86.7156 531.148ZM116.035 506.135C114.696 506.135 113.426 505.373 112.826 504.08C112.018 502.302 112.78 500.2 114.558 499.392C118.482 497.59 122.73 495.974 127.186 494.611C129.056 494.057 131.018 495.096 131.595 496.967C132.172 498.837 131.11 500.8 129.24 501.378C125.085 502.648 121.137 504.126 117.513 505.812C117.051 506.02 116.543 506.135 116.035 506.135ZM201.57 500.523C199.977 500.523 198.545 499.461 198.153 497.844C197.899 496.874 197.668 495.904 197.414 494.934C195.936 494.957 194.436 494.957 192.912 494.98H192.889C190.95 494.98 189.38 493.41 189.357 491.47C189.334 489.507 190.904 487.913 192.866 487.913C195.359 487.89 197.76 487.867 200.069 487.821C201.662 487.821 203.116 488.86 203.532 490.431C204.04 492.301 204.548 494.195 205.032 496.112C205.517 498.006 204.363 499.923 202.47 500.408C202.147 500.477 201.847 500.523 201.57 500.523ZM153.781 496.551C152.003 496.551 150.48 495.211 150.272 493.387C150.064 491.447 151.472 489.692 153.412 489.484C157.567 489.022 161.884 488.698 166.617 488.444C168.556 488.352 170.218 489.853 170.334 491.793C170.426 493.733 168.926 495.396 166.986 495.512C162.392 495.743 158.214 496.089 154.197 496.505C154.035 496.551 153.896 496.551 153.781 496.551Z" fill="#D871C2"/>
<path d="M341.472 689.328C339.948 689.328 338.586 688.335 338.101 686.857C337.432 684.732 336.785 682.584 336.208 680.459C335.7 678.565 336.808 676.625 338.701 676.117C340.595 675.609 342.534 676.718 343.042 678.612C343.342 679.72 343.665 680.852 343.988 681.984C345.189 681.868 346.389 681.73 347.567 681.614C349.506 681.406 351.237 682.815 351.445 684.755C351.653 686.695 350.245 688.427 348.305 688.635C346.158 688.866 343.965 689.074 341.795 689.282C341.703 689.328 341.587 689.328 341.472 689.328Z" fill="#D871C2"/>
<path d="M335.239 658.403C333.438 658.403 331.891 657.018 331.73 655.193C331.337 650.944 331.129 646.648 331.129 642.352C331.129 640.389 332.699 638.818 334.639 638.795C336.624 638.795 338.171 640.366 338.194 642.306C338.217 646.394 338.402 650.505 338.771 654.546C338.956 656.487 337.524 658.219 335.562 658.38C335.447 658.403 335.331 658.403 335.239 658.403ZM336.647 620.896C336.462 620.896 336.255 620.873 336.047 620.85C334.131 620.527 332.815 618.702 333.138 616.786C333.854 612.582 334.731 608.356 335.816 604.222C336.301 602.328 338.24 601.196 340.133 601.681C342.026 602.166 343.157 604.106 342.673 606C341.657 609.926 340.803 613.968 340.133 617.963C339.833 619.672 338.332 620.896 336.647 620.896ZM347.59 585.006C347.105 585.006 346.597 584.914 346.135 584.683C344.358 583.875 343.573 581.773 344.381 579.995C346.135 576.115 348.098 572.258 350.199 568.539C351.168 566.83 353.315 566.23 355.024 567.2C356.732 568.17 357.332 570.318 356.363 572.004C354.377 575.537 352.507 579.209 350.822 582.905C350.222 584.221 348.929 585.006 347.59 585.006ZM367.398 553.112C366.613 553.112 365.828 552.857 365.158 552.303C363.658 551.056 363.427 548.839 364.651 547.338C367.352 544.035 370.214 540.802 373.192 537.753C374.555 536.344 376.794 536.321 378.179 537.684C379.587 539.046 379.61 541.287 378.248 542.696C375.409 545.606 372.685 548.677 370.099 551.841C369.429 552.673 368.414 553.112 367.398 553.112ZM394.686 527.337C393.601 527.337 392.516 526.829 391.823 525.882C390.669 524.312 391.038 522.094 392.608 520.94C396.048 518.445 399.649 516.043 403.32 513.849C405.005 512.833 407.152 513.388 408.168 515.05C409.184 516.713 408.63 518.907 406.968 519.9C403.482 522.002 400.065 524.265 396.764 526.667C396.117 527.129 395.401 527.337 394.686 527.337ZM427.63 509.392C426.222 509.392 424.883 508.537 424.328 507.129C423.636 505.304 424.536 503.272 426.36 502.556C430.354 501.008 434.44 499.623 438.526 498.445C440.396 497.914 442.359 498.976 442.913 500.847C443.467 502.717 442.382 504.681 440.512 505.235C436.61 506.367 432.709 507.683 428.923 509.138C428.484 509.3 428.045 509.392 427.63 509.392Z" fill="#D871C2"/>
<path d="M470.755 506.459C468.839 506.459 467.246 504.911 467.223 502.971C467.2 502.048 467.2 501.124 467.176 500.2C466.276 500.269 465.399 500.362 464.522 500.454C462.582 500.662 460.828 499.253 460.62 497.313C460.412 495.373 461.82 493.618 463.76 493.41C465.93 493.179 468.169 492.971 470.409 492.832C471.378 492.786 472.325 493.11 473.017 493.756C473.733 494.403 474.148 495.327 474.148 496.297C474.195 498.468 474.241 500.662 474.264 502.833C474.287 504.796 472.74 506.389 470.778 506.436C470.801 506.459 470.778 506.459 470.755 506.459Z" fill="#D871C2"/>
<path d="M374.208 685.355C372.5 685.355 370.976 684.108 370.722 682.353C370.422 680.413 371.761 678.612 373.7 678.334C378.133 677.665 382.496 676.949 386.675 676.21C388.591 675.863 390.438 677.133 390.784 679.073C391.13 681.014 389.861 682.838 387.921 683.184C383.697 683.947 379.264 684.686 374.762 685.355C374.578 685.332 374.393 685.355 374.208 685.355ZM413.155 677.526C411.585 677.526 410.153 676.487 409.738 674.893C409.23 672.999 410.361 671.059 412.254 670.574C416.733 669.373 420.912 668.126 424.698 666.833C426.545 666.209 428.553 667.179 429.177 669.027C429.8 670.875 428.83 672.884 426.983 673.507C423.036 674.847 418.695 676.163 414.078 677.411C413.755 677.503 413.455 677.526 413.155 677.526ZM449.262 661.683C448.292 661.683 447.322 661.29 446.63 660.505C445.337 659.05 445.452 656.81 446.907 655.516C448.2 654.361 449.215 653.184 449.954 652.029C451.108 650.204 452.217 648.103 453.255 645.747C454.04 643.969 456.141 643.16 457.919 643.945C459.697 644.731 460.505 646.832 459.72 648.611C458.542 651.267 457.272 653.692 455.933 655.793C454.848 657.502 453.417 659.165 451.639 660.782C450.947 661.382 450.093 661.683 449.262 661.683ZM463.921 625.331C463.69 625.331 463.46 625.307 463.229 625.261C461.313 624.892 460.066 623.021 460.458 621.104C461.243 617.109 461.982 612.79 462.652 608.217C462.929 606.277 464.729 604.937 466.645 605.214C468.585 605.492 469.924 607.293 469.647 609.21C468.977 613.898 468.215 618.356 467.407 622.467C467.061 624.176 465.583 625.331 463.921 625.331ZM468.977 585.93C468.885 585.93 468.792 585.93 468.7 585.93C466.761 585.791 465.306 584.082 465.445 582.142C465.768 577.939 466.045 573.528 466.299 569.001C466.415 567.061 468.054 565.537 470.016 565.652C471.955 565.768 473.456 567.43 473.364 569.37C473.11 573.943 472.833 578.424 472.509 582.673C472.348 584.521 470.801 585.93 468.977 585.93ZM470.755 546.206C470.732 546.206 470.709 546.206 470.686 546.206C468.723 546.16 467.176 544.566 467.223 542.603C467.315 538.353 467.361 533.896 467.384 529.392C467.384 527.452 468.977 525.882 470.916 525.882H470.939C472.902 525.882 474.472 527.475 474.449 529.439C474.426 533.965 474.379 538.446 474.287 542.741C474.264 544.681 472.671 546.206 470.755 546.206Z" fill="#D871C2"/>
<path d="M452.932 653.9C444.182 667.803 406.275 678.127 358.209 683.97C353.592 670.69 351.076 656.417 351.076 641.567C351.076 573.389 403.943 517.568 470.893 512.879C471.424 573.158 467.523 630.735 452.932 653.9Z" fill="#F492DB"/>
<path d="M469.485 575.029C469.347 577.223 469.185 579.371 469.047 581.496C468.954 582.558 468.885 583.62 468.793 584.683C468.77 585.122 468.723 585.56 468.677 585.999C468.354 589.764 468.008 593.413 467.615 596.992C467.5 597.986 467.408 598.979 467.269 599.972C467.154 600.965 467.038 601.935 466.923 602.905C466.807 603.875 466.669 604.822 466.553 605.792V605.815C466.415 606.762 466.299 607.686 466.161 608.609C465.63 612.351 465.053 615.954 464.383 619.395C464.222 620.273 464.06 621.104 463.875 621.959C463.714 622.813 463.529 623.645 463.367 624.453C463.275 624.869 463.206 625.284 463.114 625.677C462.929 626.485 462.744 627.294 462.559 628.079C462.467 628.495 462.375 628.91 462.259 629.326C462.098 630.042 461.913 630.758 461.728 631.451C461.521 632.259 461.313 633.067 461.082 633.853C460.874 634.592 460.666 635.308 460.459 636.024C460.043 637.456 459.604 638.841 459.143 640.181C459.004 640.643 458.843 641.082 458.681 641.52C458.589 641.774 458.496 642.005 458.427 642.259C458.312 642.56 458.219 642.837 458.104 643.137C457.434 644.939 456.719 646.624 455.98 648.241C455.864 648.518 455.726 648.772 455.61 649.05C455.564 649.142 455.518 649.257 455.472 649.35C455.357 649.581 455.241 649.812 455.126 650.043C455.033 650.25 454.918 650.435 454.826 650.62C454.664 650.943 454.479 651.267 454.295 651.59C453.856 652.398 453.417 653.16 452.956 653.876C452.84 654.061 452.725 654.223 452.609 654.408C452.517 654.546 452.402 654.708 452.286 654.846C452.217 654.962 452.124 655.077 452.032 655.17C451.917 655.331 451.778 655.516 451.617 655.678C451.547 655.77 451.478 655.863 451.386 655.955C451.132 656.255 450.878 656.532 450.601 656.81C450.508 656.902 450.439 656.994 450.347 657.064C450.139 657.271 449.931 657.479 449.747 657.664C449.423 657.964 449.1 658.265 448.731 658.565C448.592 658.703 448.431 658.819 448.269 658.957C447.877 659.281 447.461 659.627 447.022 659.927C446.815 660.089 446.607 660.251 446.376 660.389C446.145 660.551 445.914 660.713 445.66 660.897C445.199 661.221 444.714 661.521 444.229 661.844C443.721 662.168 443.19 662.491 442.636 662.814C442.382 662.953 442.151 663.115 441.874 663.253C441.066 663.715 440.189 664.177 439.312 664.616C439.035 664.754 438.758 664.893 438.457 665.031C437.811 665.355 437.165 665.655 436.472 665.955C435.549 666.394 434.579 666.81 433.563 667.226C432.201 667.803 430.793 668.357 429.315 668.912C428.577 669.189 427.838 669.466 427.076 669.72C425.391 670.32 423.636 670.898 421.812 671.475C421.351 671.614 420.866 671.775 420.381 671.914C418.719 672.422 417.01 672.907 415.256 673.392C414.24 673.669 413.201 673.946 412.139 674.223C411.447 674.408 410.754 674.593 410.038 674.778C409.023 675.032 407.984 675.286 406.922 675.54C401.496 676.856 395.702 678.08 389.607 679.212C388.545 679.42 387.46 679.605 386.375 679.789C381.319 680.69 376.055 681.522 370.63 682.307C369.822 682.422 369.037 682.538 368.206 682.653C364.905 683.115 361.534 683.554 358.117 683.97C353.754 671.452 351.284 658.057 351.007 644.13C400.458 635.816 445.014 615.977 469.485 575.029Z" fill="#E872CF"/>
<path d="M358.186 687.526C356.709 687.526 355.347 686.58 354.839 685.148C349.968 671.152 347.521 656.509 347.521 641.567C347.521 607.801 360.218 575.629 383.281 550.987C406.229 526.459 437.257 511.678 470.639 509.346C471.609 509.276 472.579 509.623 473.294 510.269C474.01 510.939 474.425 511.863 474.425 512.833C475.095 587.154 468.862 635.262 455.933 655.77C444.136 674.501 389.907 683.67 358.625 687.48C358.486 687.503 358.325 687.526 358.186 687.526ZM467.384 516.713C403.851 523.087 354.608 577.2 354.608 641.567C354.608 654.754 356.64 667.688 360.633 680.113C409.415 673.946 442.705 663.484 449.954 652.006C461.751 633.275 467.777 586.53 467.384 516.713Z" fill="#D871C2"/>
<path d="M262.494 693C254.76 693 247.049 692.885 239.408 692.677C175.782 690.875 126.932 681.822 105.346 667.803C57.627 636.809 59.9125 565.237 82.5832 527.568C106.085 488.514 154.889 488.167 190.534 487.913C205.91 487.798 220.431 487.705 224.887 483.802C227.588 481.447 233.659 468.328 231.905 397.264C230.935 357.609 227.911 319.178 227.888 318.786C227.819 317.77 228.165 316.776 228.881 316.037C229.596 315.298 230.566 314.929 231.605 314.975L459.997 326.684C461.728 326.777 463.136 328.116 463.321 329.825C464.522 340.749 492.202 598.24 455.933 655.77C449.769 665.54 431.647 673.808 402.027 680.321C365.435 688.381 313.607 693 262.494 693ZM235.229 322.25C236.014 333.151 238.161 364.699 238.969 397.056C240.793 470.615 234.467 484.842 229.55 489.137C223.109 494.773 209.465 494.865 190.58 495.004C156.621 495.234 110.079 495.558 88.6318 531.24C67.4386 566.461 65.0146 633.206 109.202 661.891C153.181 690.437 313.168 692.631 400.503 673.438C436.818 665.447 447.068 656.602 449.954 652.029C482.875 599.764 459.65 363.083 456.603 333.613L235.229 322.25Z" fill="#000072"/>
<path d="M524.13 218.575C516.65 293.173 427.976 302.689 386.144 311.003H333.392C306.381 305.622 259.747 299.755 228.165 276.129C220.523 270.424 213.782 263.68 208.38 255.666C204.547 249.962 201.385 243.587 199.099 236.474C197.552 231.67 196.398 226.52 195.705 220.977C195.428 218.875 195.244 216.728 195.105 214.533C194.713 208.067 194.92 201.138 195.798 193.725C196.56 187.281 201.477 165.271 208.195 143.677C210.481 136.332 212.974 129.034 215.583 122.429C206.048 80.0721 202.17 26.7218 216.506 8.33788C225.833 -3.62553 251.066 8.38407 289.297 41.1564C316.608 29.1237 354.054 28.4078 359.802 28.4309C365.551 28.4078 402.996 29.1237 430.307 41.1564C468.561 8.38407 493.795 -3.62553 503.098 8.33788C517.435 26.7218 513.556 80.0721 503.999 122.429C514.249 148.458 522.768 185.087 523.784 193.725C524.799 202.709 524.892 210.977 524.13 218.575Z" fill="#8C8CAA"/>
<g opacity="0.5">
<path d="M512.426 57.8771C511.941 40.9482 509.147 26.7907 503.053 18.9845C493.726 7.0211 468.493 19.0307 430.262 51.803C402.951 39.7703 365.505 39.0775 359.756 39.0775C354.008 39.0544 316.562 39.7703 289.251 51.803C251.02 19.0076 225.787 7.0211 216.46 18.9614C210.366 26.7676 207.572 40.9251 207.087 57.854C206.556 36.2829 209.119 17.7143 216.46 8.31444C225.787 -3.64896 251.02 8.36063 289.251 41.133C316.562 29.1003 354.008 28.3843 359.756 28.4074C365.505 28.3843 402.951 29.1003 430.262 41.133C468.516 8.36063 493.749 -3.64896 503.053 8.31444C510.394 17.7374 512.957 36.306 512.426 57.8771Z" fill="white"/>
</g>
<path d="M524.13 218.575C516.65 293.173 427.976 302.688 386.144 311.002H333.392C306.381 305.621 259.747 299.755 228.165 276.128C220.523 270.424 213.782 263.68 208.38 255.666C204.548 249.961 201.385 243.587 199.099 236.474C197.552 231.67 196.398 226.52 195.706 220.977C260.301 276.475 306.912 251.578 327.759 209.198C335.816 192.823 351.653 191.253 358.533 191.253C365.412 191.253 381.273 192.823 389.307 209.198C410.43 252.202 458.103 277.191 524.13 218.575Z" fill="white"/>
<path d="M516.812 245.689C493.241 295.737 422.228 303.797 386.144 310.98H333.392C306.381 305.598 259.747 299.732 228.165 276.106C220.523 270.401 213.782 263.657 208.38 255.643C206.279 252.525 204.409 249.246 202.747 245.712C206.164 249.107 270.136 270.147 359.779 270.147C449.423 270.17 492.179 270.239 516.812 245.689Z" fill="#E8E8E8"/>
<path d="M263.372 115.708C261.432 112.683 274.268 85.6612 298.509 93.6291C307.235 96.516 308.043 105.015 301.302 106.84C294.861 108.572 291.952 107.163 281.979 110.697C276.3 112.683 265.311 118.734 263.372 115.708Z" fill="#000072"/>
<path d="M456.164 115.708C458.104 112.683 445.268 85.6612 421.027 93.6291C412.301 96.516 411.493 105.015 418.234 106.84C424.675 108.572 427.584 107.163 437.557 110.697C443.236 112.683 454.225 118.734 456.164 115.708Z" fill="#000072"/>
<path d="M249.843 73.1201C238.092 85.6609 230.681 103.213 229.62 101.181C229.527 100.973 229.412 100.742 229.319 100.465C227.103 94.7142 223.409 71.9191 223.456 51.6183C223.479 48.3387 223.571 45.4518 223.733 42.9113C224.194 36.0289 225.187 31.6177 226.387 28.8C227.888 25.3588 231.236 24.2964 234.191 25.4512C242.063 28.546 264.41 43.3039 271.683 52.7499C272.999 54.4128 261.617 60.5562 249.843 73.1201Z" fill="#F27E80"/>
<path d="M249.843 73.1202C238.092 85.661 230.681 103.213 229.619 101.181C229.527 100.973 229.412 100.742 229.319 100.465C231.951 89.8182 239.177 75.1064 244.718 64.4594C252.29 49.9324 241.901 38.3617 232.898 34.8974C229.804 33.6964 226.133 38.7774 223.732 42.8884C224.194 36.0059 225.187 31.5947 226.387 28.7771C227.888 25.3359 231.235 24.2735 234.19 25.4282C242.063 28.523 264.41 43.281 271.682 52.727C272.998 54.413 261.617 60.5563 249.843 73.1202Z" fill="#FF5C64"/>
<path d="M229.919 105.269C229.85 105.269 229.781 105.269 229.712 105.269C228.188 105.223 226.826 104.322 226.11 102.959C223.455 97.7628 219.461 72.7043 219.531 51.5951C219.554 40.2091 220.616 32.2412 222.786 27.2295C225.048 22.0099 230.45 19.7235 235.645 21.779C243.979 25.0585 266.881 40.0243 274.822 50.3479C275.792 51.5951 276.877 54.2049 273.345 57.623C272.236 58.7085 270.62 59.9787 268.612 61.5954C264.41 64.9442 258.662 69.5402 252.729 75.8452C246.218 82.7739 241.047 91.4346 237.607 97.1623C234.006 103.144 232.736 105.269 229.919 105.269ZM231.836 28.9385C231.212 28.9385 230.497 29.2388 230.012 30.3473C228.857 33.0726 227.449 38.985 227.403 51.6182C227.357 66.7457 229.458 83.0972 231.282 92.3123C234.883 86.3075 240.17 77.6467 246.957 70.3947C253.26 63.674 259.516 58.6854 263.672 55.3596C264.71 54.5513 265.795 53.6737 266.673 52.9346C258.362 44.066 239.246 31.6638 232.736 29.1002C232.505 29.0078 232.182 28.9385 231.836 28.9385Z" fill="#000072"/>
<path d="M470.085 73.1201C481.836 85.6609 489.247 103.213 490.309 101.181C490.401 100.973 490.517 100.742 490.609 100.465C492.848 94.7142 496.519 71.9191 496.473 51.6183C496.45 48.3387 496.357 45.4518 496.196 42.9113C495.734 36.0289 494.741 31.6177 493.541 28.8C492.04 25.3588 488.693 24.2964 485.738 25.4512C477.865 28.546 455.518 43.3039 448.246 52.7499C446.953 54.4128 458.311 60.5562 470.085 73.1201Z" fill="#F27E80"/>
<path d="M470.085 73.1202C481.836 85.661 489.247 103.213 490.309 101.181C490.401 100.973 490.517 100.742 490.609 100.465C487.977 89.8182 480.751 75.1064 475.21 64.4594C467.638 49.9324 478.027 38.3617 487.031 34.8974C490.124 33.6964 493.795 38.7774 496.196 42.8884C495.734 36.0059 494.741 31.5947 493.541 28.7771C492.04 25.3359 488.693 24.2735 485.738 25.4282C477.865 28.523 455.518 43.281 448.246 52.727C446.953 54.413 458.311 60.5563 470.085 73.1202Z" fill="#FF5C64"/>
<path d="M490.032 105.269C487.215 105.269 485.945 103.144 482.344 97.1393C478.904 91.4117 473.71 82.7509 467.222 75.8223C461.312 69.5173 455.541 64.9213 451.339 61.5724C449.308 59.9558 447.715 58.6855 446.606 57.6C443.074 54.1819 444.159 51.5952 445.129 50.325C453.071 40.0014 475.972 25.0356 484.306 21.756C489.524 19.7005 494.926 21.987 497.165 27.2065C499.312 32.2413 500.374 40.2092 500.42 51.5952C500.467 72.7044 496.473 97.7629 493.841 102.959C493.148 104.345 491.763 105.223 490.239 105.269C490.147 105.269 490.078 105.269 490.032 105.269ZM453.255 52.9579C454.133 53.6969 455.241 54.5745 456.256 55.3829C460.412 58.6855 466.668 63.6741 472.971 70.418C479.758 77.6699 485.045 86.3307 488.646 92.3355C490.47 83.0973 492.548 66.7458 492.525 51.6414C492.502 38.9852 491.094 33.0958 489.916 30.3475C489.177 28.6384 487.885 28.8463 487.192 29.1234C480.682 31.687 461.566 44.0892 453.255 52.9579Z" fill="#000072"/>
<path d="M385.821 309.317C391.477 307.746 397.156 306.453 402.812 305.183L411.285 303.266L419.734 301.303C430.954 298.624 442.105 295.783 452.909 291.972C463.69 288.184 474.125 283.473 483.591 277.33C493.056 271.232 501.482 263.565 507.785 254.419C514.134 245.296 518.151 234.672 519.905 223.656C520.806 218.136 521.175 212.524 521.106 206.889L520.967 202.662L520.69 198.436L520.252 194.209L519.951 192.2L519.582 190.121C518.52 184.532 517.227 178.897 515.842 173.285C514.457 167.673 513.002 162.084 511.41 156.541C508.27 145.432 504.761 134.415 500.605 123.745L500.19 122.706L500.42 121.62C504.045 105.361 506.631 88.8251 507.97 72.2657C508.616 63.9744 508.939 55.6832 508.708 47.4381C508.478 39.2162 507.716 30.9942 505.73 23.2804C504.738 19.4465 503.352 15.7744 501.459 12.6334C501.252 12.2177 500.975 11.8712 500.721 11.5017L500.328 10.9474C500.19 10.7627 500.074 10.5779 499.959 10.4624C499.705 10.2084 499.497 9.88504 499.22 9.67718L498.828 9.33075C498.689 9.21527 498.55 9.14598 498.412 9.03051C497.281 8.24526 495.896 7.76026 494.303 7.62169C492.687 7.46002 490.909 7.62169 489.108 7.96812C487.284 8.33765 485.461 8.84574 483.614 9.53861C479.943 10.8781 476.318 12.6796 472.763 14.6427C465.653 18.6151 458.842 23.3727 452.216 28.3382C445.591 33.3269 439.127 38.6388 432.801 44.0662L430.977 45.6136L428.738 44.6667C423.451 42.4033 417.91 40.5557 412.254 39.0083C406.598 37.484 400.827 36.3293 395.009 35.3592C389.191 34.3892 383.327 33.6964 377.417 33.1883C371.53 32.6802 365.597 32.3799 359.756 32.3337C353.938 32.3799 347.982 32.6802 342.095 33.1883C336.208 33.6964 330.321 34.4123 324.527 35.3592C318.709 36.3293 312.937 37.484 307.281 39.0083C301.648 40.5557 296.107 42.3802 290.821 44.6667L288.581 45.6367L286.758 44.0662C280.409 38.6388 273.968 33.3499 267.342 28.3382C260.693 23.3727 253.883 18.6151 246.795 14.6427C243.24 12.6796 239.615 10.8781 235.945 9.53861C234.121 8.86884 232.274 8.33765 230.45 7.99122C228.65 7.62169 226.872 7.48312 225.256 7.64478C223.64 7.80645 222.278 8.26836 221.147 9.0536C221.008 9.14598 220.869 9.23837 220.731 9.35384L220.339 9.70027C220.061 9.90813 219.854 10.2084 219.6 10.4624C219.484 10.5779 219.346 10.7627 219.23 10.9474L218.838 11.5017C218.584 11.8712 218.307 12.2177 218.099 12.6334C216.206 15.7513 214.821 19.4234 213.828 23.2804C211.843 30.9942 211.081 39.2162 210.85 47.4381C210.619 55.6832 210.942 63.9744 211.589 72.2657C212.928 88.8251 215.537 105.361 219.138 121.62L219.392 122.729L218.976 123.791C214.798 134.438 211.335 145.478 208.172 156.564C206.602 162.13 205.125 167.719 203.74 173.308C202.377 178.897 201.062 184.555 200.023 190.144C199.746 191.553 199.538 192.916 199.376 194.209C199.215 195.618 199.076 197.027 198.938 198.436C198.707 201.253 198.545 204.071 198.522 206.889C198.453 212.524 198.799 218.136 199.699 223.656C201.454 234.672 205.494 245.273 211.82 254.396C218.099 263.542 226.526 271.186 235.991 277.283C245.479 283.381 255.914 288.069 266.673 291.88C272.052 293.82 277.546 295.436 283.087 296.961C285.88 297.677 288.651 298.416 291.444 299.109L299.847 301.118L304.072 302.111C305.48 302.434 306.889 302.734 308.297 303.058L316.77 305.021C322.426 306.337 328.105 307.7 333.738 309.34C334.638 309.594 335.146 310.541 334.892 311.441C334.661 312.25 333.877 312.735 333.092 312.666C321.548 311.465 309.959 309.94 298.462 307.654C286.965 305.414 275.561 302.365 264.387 298.462C253.236 294.536 242.293 289.662 232.182 283.196C222.093 276.729 212.905 268.484 205.979 258.438C199.007 248.437 194.551 236.751 192.635 224.811C191.665 218.829 191.273 212.801 191.342 206.796C191.388 203.794 191.527 200.815 191.781 197.835C191.896 196.357 192.058 194.856 192.22 193.378C192.427 191.784 192.658 190.306 192.935 188.828C194.02 182.985 195.336 177.28 196.721 171.576C198.106 165.871 199.584 160.213 201.177 154.578C204.363 143.307 207.849 132.106 212.166 121.066L212.004 123.237C208.287 106.655 205.61 89.8413 204.201 72.8661C203.532 64.367 203.162 55.8218 203.393 47.2534C203.624 38.6619 204.363 30.0242 206.556 21.3865C207.664 17.0908 209.234 12.772 211.681 8.68408C211.958 8.17598 212.328 7.66788 212.674 7.18288L213.205 6.44383C213.366 6.18978 213.551 5.95882 213.782 5.68168C214.244 5.17358 214.659 4.61929 215.213 4.15738L215.998 3.46452C216.275 3.23357 216.575 3.0488 216.852 2.84095C219.184 1.20117 221.955 0.346644 224.517 0.11569C227.103 -0.138359 229.573 0.11569 231.882 0.554502C234.19 1.01641 236.407 1.63999 238.53 2.42523C242.778 3.94952 246.703 5.91263 250.512 8.01431C258.108 12.2408 265.126 17.137 271.959 22.2411C278.77 27.3682 285.349 32.7264 291.79 38.2462L287.727 37.6457C293.476 35.1745 299.363 33.2114 305.296 31.5716C311.252 29.9549 317.254 28.754 323.28 27.7147C329.305 26.6985 335.377 25.9594 341.449 25.4282C347.544 24.897 353.592 24.5506 359.779 24.5275C365.966 24.5737 372.015 24.897 378.11 25.4282C384.181 25.9594 390.253 26.6985 396.279 27.7147C402.304 28.7309 408.33 29.9318 414.263 31.5716C420.196 33.2114 426.083 35.1745 431.831 37.6457L427.791 38.2462C434.232 32.7495 440.812 27.3682 447.622 22.2642C454.456 17.1601 461.497 12.287 469.069 8.03741C472.879 5.93573 476.803 3.99571 481.051 2.44832C483.175 1.68618 485.368 1.03951 487.7 0.577598C490.009 0.138786 492.456 -0.115264 495.041 0.138786C497.604 0.369739 500.374 1.22427 502.683 2.86404C502.96 3.0719 503.26 3.25666 503.537 3.48762L504.322 4.18048C504.876 4.64239 505.292 5.17358 505.753 5.68168C506.007 5.95882 506.169 6.18978 506.331 6.44383L506.862 7.18288C507.208 7.66788 507.577 8.17598 507.854 8.68408C510.301 12.772 511.871 17.0677 512.979 21.3634C515.173 29.978 515.911 38.6388 516.142 47.2072C516.373 55.7987 516.004 64.3439 515.334 72.82C513.926 89.7951 511.248 106.609 507.531 123.191L507.369 121.066C511.64 132.083 515.173 143.284 518.335 154.555C519.928 160.19 521.406 165.871 522.791 171.553C524.176 177.257 525.492 182.962 526.577 188.805L526.97 191.022L527.293 193.332L527.731 197.789L528.032 202.27L528.17 206.75C528.239 212.755 527.824 218.783 526.854 224.741C524.938 236.659 520.505 248.345 513.533 258.322C506.608 268.345 497.442 276.591 487.354 283.057C477.265 289.547 466.345 294.443 455.172 298.323C443.998 302.203 432.593 305.183 421.073 307.4C409.576 309.64 398.01 311.187 386.49 312.573C385.567 312.689 384.712 312.019 384.597 311.095C384.481 310.31 385.012 309.548 385.821 309.317Z" fill="#000072"/>
<path d="M388.36 221.046C388.36 221.046 388.36 238.483 372.777 237.559C361.741 236.913 359.433 227.813 359.271 227.097C359.11 227.836 356.801 236.936 345.766 237.559C330.16 238.483 330.183 221.046 330.183 221.046L359.133 198.459H359.41L388.36 221.046Z" fill="#E8E8E8"/>
<path d="M215.444 212.87C214.798 212.501 214.059 212.108 213.343 211.739C212.628 211.346 211.889 210.999 211.15 210.63C210.411 210.26 209.673 209.914 208.911 209.591C208.149 209.267 207.41 208.898 206.648 208.598C203.601 207.35 200.53 206.149 197.391 205.156C191.111 203.147 184.716 201.507 178.183 200.514C177.375 200.353 176.544 200.26 175.736 200.168L173.289 199.868L170.842 199.567C170.034 199.475 169.203 199.452 168.371 199.382L163.431 199.059C161.769 199.013 160.13 199.036 158.467 199.013C155.143 198.874 151.842 199.244 148.54 199.313L147.294 199.359L146.047 199.498L143.577 199.775C141.915 199.96 140.275 200.122 138.613 200.283H138.498C137.551 200.376 136.697 199.683 136.605 198.736C136.512 197.835 137.136 197.027 138.013 196.865C139.698 196.542 141.384 196.218 143.069 195.941L145.608 195.502L146.878 195.272L148.148 195.133C149.856 194.948 151.565 194.763 153.273 194.602C154.127 194.532 154.981 194.394 155.836 194.371L158.421 194.302C160.13 194.255 161.861 194.186 163.569 194.186L168.741 194.394C169.595 194.44 170.472 194.44 171.326 194.532L173.889 194.81L176.452 195.087C177.306 195.179 178.16 195.272 179.014 195.433L184.047 196.311C185.732 196.634 187.418 197.05 189.103 197.442C190.788 197.789 192.427 198.343 194.089 198.828C195.752 199.29 197.368 199.891 199.007 200.468C200.646 201.022 202.239 201.715 203.832 202.385C205.448 203.032 206.972 203.84 208.541 204.579C209.326 204.948 210.065 205.387 210.827 205.803C211.589 206.219 212.328 206.658 213.066 207.096C214.567 207.974 215.998 208.921 217.453 210.029C218.215 210.607 218.353 211.692 217.776 212.454C217.245 213.147 216.275 213.332 215.537 212.916L215.444 212.87Z" fill="#000072"/>
<path d="M219.808 238.622C218.422 238.46 216.945 238.322 215.491 238.206C214.036 238.091 212.582 238.021 211.127 237.952C208.218 237.837 205.309 237.79 202.401 237.86C196.583 237.998 190.788 238.483 185.132 239.592C182.293 240.146 179.499 240.816 176.752 241.67C175.367 242.063 174.028 242.594 172.666 243.033C171.327 243.564 169.988 244.072 168.695 244.696C163.431 247.005 158.537 250.1 154.081 253.772L154.058 253.795C153.319 254.396 152.211 254.304 151.611 253.564C151.034 252.872 151.103 251.855 151.726 251.232C156.067 246.89 161.146 243.195 166.686 240.446C168.048 239.73 169.48 239.153 170.888 238.506C172.319 237.952 173.751 237.352 175.228 236.89C178.16 235.897 181.138 235.088 184.139 234.511C190.165 233.287 196.306 232.732 202.401 232.848C208.518 232.987 214.544 233.656 220.569 235.227C221.493 235.481 222.047 236.428 221.816 237.352C221.585 238.206 220.777 238.737 219.923 238.645L219.808 238.622Z" fill="#000072"/>
<path d="M502.083 210.029C503.537 208.921 504.969 207.974 506.469 207.096C507.208 206.634 507.947 206.196 508.709 205.803C509.471 205.387 510.232 204.972 510.994 204.579C512.541 203.84 514.088 203.032 515.704 202.385C517.297 201.715 518.89 201.022 520.529 200.468C522.145 199.891 523.784 199.29 525.446 198.828C527.108 198.366 528.748 197.812 530.433 197.442C532.118 197.05 533.78 196.634 535.489 196.311L540.591 195.433C541.445 195.272 542.299 195.179 543.153 195.087L545.716 194.81L548.278 194.532C549.133 194.44 549.987 194.44 550.864 194.394L556.035 194.186C557.767 194.209 559.475 194.278 561.207 194.302L563.792 194.371C564.647 194.394 565.501 194.532 566.355 194.602C568.063 194.763 569.772 194.948 571.48 195.133L572.75 195.272L574.02 195.502L576.559 195.941C578.244 196.218 579.93 196.542 581.615 196.865C582.562 197.05 583.185 197.951 583 198.897C582.839 199.798 582.007 200.399 581.13 200.306L581.015 200.283C579.353 200.122 577.69 199.96 576.051 199.775L573.581 199.498L572.334 199.359L571.088 199.313C567.763 199.221 564.462 198.851 561.161 199.013C559.498 199.036 557.859 199.013 556.197 199.059L551.257 199.382C550.426 199.452 549.594 199.475 548.786 199.567L546.339 199.868L543.892 200.168C543.084 200.26 542.253 200.353 541.445 200.514C534.912 201.507 528.517 203.17 522.237 205.156C519.097 206.149 516.027 207.35 512.98 208.598C512.218 208.898 511.479 209.267 510.717 209.591C509.955 209.914 509.217 210.26 508.478 210.63C507.739 210.976 507 211.346 506.285 211.739C505.569 212.108 504.807 212.501 504.184 212.87L504.091 212.916C503.26 213.401 502.198 213.101 501.714 212.27C501.206 211.508 501.413 210.538 502.083 210.029Z" fill="#000072"/>
<path d="M498.966 235.227C504.969 233.633 510.994 232.963 517.135 232.848C523.253 232.732 529.371 233.264 535.396 234.511C538.42 235.088 541.399 235.897 544.307 236.89C545.785 237.352 547.216 237.929 548.648 238.506C550.056 239.13 551.487 239.73 552.849 240.446C558.39 243.195 563.469 246.867 567.809 251.232C568.479 251.902 568.479 253.01 567.809 253.703C567.163 254.35 566.17 254.373 565.477 253.819L565.454 253.795C560.976 250.123 556.104 247.028 550.841 244.719C549.548 244.095 548.186 243.61 546.87 243.056C545.508 242.594 544.169 242.086 542.784 241.67C540.036 240.816 537.22 240.146 534.403 239.592C528.724 238.483 522.93 238.021 517.135 237.86C514.226 237.79 511.317 237.837 508.408 237.952C506.954 238.021 505.499 238.091 504.045 238.206C502.614 238.322 501.113 238.46 499.728 238.622H499.636C498.689 238.737 497.812 238.044 497.696 237.097C497.581 236.243 498.158 235.458 498.966 235.227Z" fill="#000072"/>
<path d="M484.075 376.362C465.629 398.673 225.21 380.751 215.744 374.977C209.742 371.305 205.933 354.884 205.171 336.962C204.363 317.7 207.11 296.66 214.544 287.769C216.46 285.459 220.2 283.542 225.371 281.925C242.594 276.59 275.976 274.904 313.076 275.182C339.81 275.389 368.46 276.59 394.432 278.207C439.773 281.002 476.849 284.997 480.936 286.822C500.282 295.529 496.75 361.05 484.075 376.362Z" fill="white"/>
<path d="M317.347 289.131C317.347 307.492 296.523 322.412 270.828 322.412C245.133 322.412 224.31 307.515 224.31 289.131C224.31 286.66 224.679 284.258 225.395 281.925C242.617 276.59 276 274.904 313.099 275.182C315.823 279.431 317.347 284.166 317.347 289.131Z" fill="#E8E8E8"/>
<path d="M484.075 376.362C465.63 398.673 225.21 380.751 215.744 374.977C209.742 371.305 205.933 354.884 205.171 336.962C211.473 343.913 223.848 353.244 247.326 358.787C280.824 366.732 388.291 371.05 420.104 353.775C444.483 340.541 445.96 321.742 445.96 321.742C445.96 321.742 387.921 328.37 394.409 278.207C439.75 281.002 476.826 284.997 480.913 286.822C500.282 295.529 496.75 361.05 484.075 376.362Z" fill="#E8E8E8"/>
<path d="M398.91 390.844C383.396 390.844 365.897 390.474 346.412 389.735C291.698 387.656 220.385 381.952 213.921 377.979C207.826 374.261 204.778 362.713 203.301 353.706C200 333.59 200.461 299.132 211.843 285.505C221.585 273.842 268.658 269.477 351.745 272.549C411.215 274.743 475.764 280.632 482.367 283.612C488.554 286.383 493.01 293.45 495.596 304.605C501.182 328.648 496.657 366.686 486.8 378.626C480.082 386.756 450.577 390.844 398.91 390.844ZM217.522 371.928C222.74 374.238 279.762 380.197 348.075 382.737C438.319 386.086 476.088 380.474 481.351 374.122C489.085 364.769 494.141 329.502 488.716 306.222C486.707 297.584 483.429 291.834 479.481 290.078C474.864 288.185 416.225 281.995 350.937 279.616C275.007 276.845 225.048 280.748 217.245 290.078C208.611 300.402 206.672 330.749 210.25 352.621C212.258 364.676 215.398 370.543 217.522 371.928Z" fill="#000072"/>
<path d="M310.721 285.459C310.721 286.267 310.698 287.053 310.652 287.838C309.636 301.649 298.208 313.243 262.771 312.896C242.155 312.688 229.596 303.589 226.687 292.572C224.886 285.736 226.826 278.161 232.874 271.532C245.987 257.19 310.421 249.43 310.721 285.459Z" fill="white"/>
<path d="M310.629 287.838C309.613 301.649 298.185 313.243 262.748 312.897C242.132 312.689 229.573 303.589 226.664 292.573C229.804 294.651 233.428 296.476 235.945 295.991C241.855 294.836 242.617 285.251 242.617 285.251C242.617 285.251 254.044 298.485 268.358 297.492C285.003 296.337 291.121 284.166 291.121 284.166C291.121 284.166 301.717 300.818 310.629 287.838Z" fill="#E8E8E8"/>
<path d="M264.272 316.453C263.764 316.453 263.233 316.453 262.725 316.453C244.002 316.268 229.689 308.97 224.448 296.915C220.5 287.838 222.671 277.468 230.266 269.177C240.239 258.253 274.222 251.532 295.277 259.616C307.605 264.35 314.161 273.288 314.254 285.459C314.323 293.127 311.806 299.547 306.82 304.513C298.878 312.435 284.565 316.453 264.272 316.453ZM273.345 263.057C257.323 263.057 240.747 268.138 235.46 273.935C229.735 280.217 228.073 287.561 230.912 294.074C234.952 303.358 247.142 309.201 262.771 309.363C281.887 309.548 295.046 306.222 301.81 299.478C305.458 295.829 307.212 291.256 307.166 285.482C307.097 276.337 302.226 269.847 292.737 266.198C286.989 264.004 280.224 263.057 273.345 263.057Z" fill="#000072"/>
<path d="M244.395 284.743C244.464 287.283 244.787 289.986 245.295 292.526C245.803 295.09 246.519 297.584 247.534 299.87C248.527 302.157 249.82 304.259 251.39 305.875C252.175 306.684 253.029 307.353 253.952 307.908C254.876 308.439 255.845 308.831 256.861 309.109H256.884C258.777 309.64 259.862 311.58 259.331 313.474C258.8 315.367 256.861 316.453 254.968 315.922C254.853 315.899 254.714 315.852 254.599 315.806C253.029 315.183 251.528 314.351 250.189 313.358C248.85 312.342 247.696 311.164 246.703 309.894C244.718 307.353 243.448 304.513 242.571 301.672C241.694 298.831 241.209 295.967 240.955 293.127C240.724 290.263 240.678 287.491 240.909 284.558C240.978 283.611 241.832 282.895 242.779 282.965C243.679 283.034 244.348 283.773 244.372 284.627L244.395 284.743Z" fill="#000072"/>
<path d="M292.46 281.394C293.198 284.558 293.614 287.607 293.753 290.817C293.891 294.004 293.753 297.238 293.037 300.517C292.321 303.774 291.005 307.123 288.581 309.94C287.381 311.326 285.926 312.55 284.31 313.52C282.694 314.49 280.94 315.114 279.185 315.599C277.292 316.13 275.353 315.021 274.822 313.127C274.291 311.234 275.399 309.294 277.292 308.762C277.384 308.739 277.5 308.716 277.592 308.693L277.731 308.67C278.931 308.462 280.086 308.162 281.147 307.677C282.186 307.169 283.179 306.522 284.056 305.714C285.788 304.074 287.081 301.741 287.912 299.132C288.743 296.522 289.205 293.681 289.343 290.794C289.505 287.93 289.389 284.905 289.02 282.087V281.995C288.904 281.048 289.551 280.17 290.52 280.055C291.421 279.939 292.252 280.54 292.46 281.394Z" fill="#000072"/>
<path d="M402.004 285.459C402.004 286.267 402.027 287.053 402.073 287.838C403.089 301.649 414.517 313.243 449.954 312.896C470.57 312.688 483.129 303.589 486.038 292.572C487.838 285.736 485.899 278.161 479.851 271.532C466.715 257.19 402.281 249.43 402.004 285.459Z" fill="white"/>
<path d="M402.073 287.838C403.089 301.649 414.517 313.243 449.954 312.897C470.57 312.689 483.129 303.589 486.038 292.573C482.898 294.651 479.274 296.476 476.757 295.991C470.847 294.836 470.085 285.251 470.085 285.251C470.085 285.251 458.658 298.485 444.344 297.492C427.699 296.337 421.581 284.166 421.581 284.166C421.581 284.166 411.008 300.818 402.073 287.838Z" fill="#E8E8E8"/>
<path d="M448.453 316.453C428.161 316.453 413.847 312.434 405.906 304.489C400.919 299.501 398.426 293.103 398.472 285.436C398.564 273.265 405.121 264.327 417.449 259.592C438.503 251.509 472.486 258.229 482.459 269.154C490.032 277.445 492.225 287.815 488.277 296.891C483.037 308.947 468.723 316.245 450 316.43C449.469 316.453 448.961 316.453 448.453 316.453ZM439.358 263.056C432.501 263.056 425.714 263.98 419.965 266.197C410.454 269.846 405.605 276.336 405.536 285.482C405.49 291.256 407.245 295.829 410.892 299.478C417.656 306.222 430.793 309.524 449.931 309.363C465.56 309.201 477.773 303.358 481.79 294.073C484.63 287.537 482.967 280.193 477.242 273.934C471.955 268.137 455.379 263.056 439.358 263.056Z" fill="#000072"/>
<path d="M471.794 284.558C472.024 287.468 471.978 290.263 471.747 293.127C471.493 295.968 471.009 298.831 470.131 301.672C469.254 304.513 467.984 307.331 465.999 309.894C465.006 311.164 463.852 312.342 462.513 313.358C461.174 314.352 459.673 315.183 458.103 315.807C456.28 316.522 454.225 315.645 453.509 313.82C452.794 311.996 453.671 309.94 455.495 309.224C455.61 309.178 455.726 309.132 455.841 309.109H455.864C456.88 308.832 457.85 308.439 458.773 307.908C459.673 307.377 460.527 306.684 461.336 305.876C462.905 304.259 464.198 302.18 465.191 299.871C466.184 297.584 466.899 295.067 467.43 292.526C467.938 289.986 468.261 287.284 468.331 284.743V284.651C468.354 283.681 469.162 282.942 470.108 282.965C471.009 282.988 471.724 283.704 471.794 284.558Z" fill="#000072"/>
<path d="M423.659 282.11C423.289 284.928 423.174 287.93 423.336 290.817C423.474 293.704 423.936 296.545 424.767 299.155C425.598 301.765 426.914 304.074 428.622 305.737C429.5 306.545 430.469 307.192 431.531 307.7C432.593 308.185 433.771 308.485 434.948 308.693L435.087 308.716C437.003 309.063 438.295 310.91 437.949 312.827C437.603 314.744 435.756 316.038 433.84 315.691C433.724 315.668 433.632 315.645 433.517 315.622C431.762 315.137 430.008 314.49 428.392 313.543C426.775 312.573 425.321 311.349 424.121 309.963C421.72 307.146 420.381 303.774 419.665 300.541C418.972 297.261 418.811 294.028 418.949 290.841C419.111 287.653 419.503 284.582 420.242 281.418C420.473 280.494 421.396 279.893 422.32 280.124C423.197 280.332 423.751 281.164 423.636 282.041L423.659 282.11Z" fill="#000072"/>
<path d="M375.824 221.046C375.824 221.046 375.478 230.261 372.592 238.691C370.145 245.85 365.897 252.479 358.509 252.479C351.122 252.479 346.874 245.85 344.427 238.691C341.541 230.238 341.195 221.046 341.195 221.046L358.509 220.122L375.824 221.046Z" fill="#000072"/>
<path d="M372.592 238.714C370.145 245.873 365.897 252.502 358.51 252.502C351.122 252.502 346.874 245.873 344.427 238.714C346.436 237.213 348.906 236.312 351.584 236.312C354.17 236.312 356.548 237.143 358.51 238.529C360.472 237.143 362.85 236.312 365.436 236.312C368.114 236.312 370.584 237.19 372.592 238.714Z" fill="#F27E80"/>
<path d="M358.51 255.967C339.279 255.967 337.778 222.617 337.732 221.185L337.594 217.767L358.51 216.658H358.695L379.426 217.767L379.287 221.185C379.241 222.594 377.741 255.967 358.51 255.967ZM344.981 224.326C345.812 231.809 348.791 249.015 358.51 249.015C368.252 249.015 371.23 231.832 372.061 224.326L358.51 223.61L344.981 224.326Z" fill="#000072"/>
<path d="M388.199 221.161C388.199 221.161 383.12 234.418 371.276 231.347C357.794 227.836 359.456 211.762 359.456 211.762H358.948C358.948 211.762 360.541 227.836 347.059 231.3C335.216 234.349 330.183 221.046 330.183 221.046C330.183 221.046 326.859 191.253 359.133 191.253C391.408 191.253 388.199 221.161 388.199 221.161Z" fill="white"/>
<path d="M386.675 224.118C384.389 227.836 379.426 233.471 371.276 231.323C357.794 227.813 359.433 211.739 359.433 211.739H358.948C358.948 211.739 360.541 227.836 347.036 231.3C338.886 233.402 333.946 227.744 331.66 224.025C333.946 224.233 336.416 224.048 339.117 223.356C361.395 217.628 358.763 195.803 358.763 195.803H359.594C359.594 195.803 356.87 217.628 379.125 223.448C381.873 224.141 384.389 224.326 386.675 224.118Z" fill="#E8E8E8"/>
<path d="M332.03 220.33C332.215 220.63 332.469 221.046 332.699 221.392C332.953 221.762 333.184 222.131 333.461 222.478C333.969 223.194 334.546 223.864 335.1 224.487C336.255 225.734 337.524 226.797 338.886 227.513C340.225 228.252 341.634 228.598 343.088 228.714C343.827 228.644 344.566 228.737 345.328 228.506C345.697 228.413 346.089 228.39 346.459 228.298C346.828 228.182 347.244 228.09 347.613 227.951C349.114 227.42 350.453 226.658 351.607 225.642C352.184 225.134 352.715 224.579 353.2 223.933C353.685 223.309 354.123 222.639 354.516 221.9C355.278 220.445 355.878 218.829 356.27 217.12C356.478 216.265 356.64 215.387 356.755 214.51C356.871 213.655 356.963 212.685 357.009 211.9V211.738C357.055 210.653 357.979 209.798 359.087 209.868C360.033 209.914 360.795 210.63 360.934 211.507C361.119 212.662 361.211 213.655 361.234 214.741C361.257 215.803 361.211 216.866 361.095 217.928C360.865 220.053 360.38 222.201 359.479 224.256C358.602 226.312 357.309 228.321 355.601 229.938C353.916 231.6 351.838 232.801 349.668 233.61C349.137 233.841 348.583 233.956 348.029 234.141C347.475 234.303 346.874 234.372 346.297 234.487C345.166 234.741 343.919 234.672 342.719 234.695C340.272 234.51 337.917 233.656 335.931 232.386C333.946 231.092 332.353 229.429 331.13 227.605C330.529 226.704 329.975 225.757 329.513 224.787C329.029 223.794 328.682 222.87 328.336 221.716C328.036 220.676 328.636 219.568 329.675 219.268C330.552 219.013 331.453 219.383 331.914 220.122L332.03 220.33Z" fill="#000072"/>
<path d="M390.045 221.854C389.699 223.009 389.33 223.933 388.868 224.926C388.406 225.896 387.852 226.82 387.229 227.72C385.982 229.522 384.389 231.185 382.404 232.478C380.418 233.748 378.041 234.603 375.593 234.765C374.393 234.741 373.169 234.811 372.038 234.534C371.461 234.418 370.861 234.349 370.33 234.187C369.776 234.002 369.245 233.887 368.691 233.656C366.544 232.848 364.443 231.624 362.781 229.961C361.072 228.344 359.779 226.335 358.925 224.279C358.025 222.224 357.563 220.053 357.332 217.928C357.24 216.866 357.171 215.803 357.217 214.741C357.24 213.655 357.332 212.685 357.517 211.508C357.702 210.422 358.717 209.706 359.803 209.891C360.726 210.053 361.395 210.838 361.442 211.738V211.9C361.488 212.685 361.58 213.632 361.696 214.51C361.834 215.388 361.973 216.265 362.18 217.12C362.573 218.829 363.15 220.469 363.912 221.924C364.281 222.663 364.72 223.332 365.205 223.956C365.666 224.58 366.197 225.157 366.775 225.665C367.929 226.681 369.268 227.443 370.768 227.975C371.138 228.136 371.53 228.205 371.923 228.321C372.315 228.413 372.685 228.46 373.054 228.529C373.816 228.76 374.555 228.667 375.293 228.737C376.748 228.621 378.156 228.275 379.495 227.536C380.857 226.843 382.127 225.78 383.281 224.533C383.858 223.91 384.435 223.24 384.943 222.524C385.22 222.178 385.474 221.808 385.705 221.439C385.936 221.092 386.213 220.676 386.398 220.376L386.513 220.191C387.09 219.268 388.314 218.967 389.237 219.545C389.953 220.099 390.299 221.023 390.045 221.854Z" fill="#000072"/>
<path d="M375.455 203.332C375.455 207.143 370.492 210.492 365.92 212.755C361.165 215.134 355.809 215.134 351.053 212.732C346.505 210.445 341.541 207.073 341.565 203.263C341.588 191.784 375.478 191.854 375.455 203.332Z" fill="#000072"/>
<g opacity="0.5">
<path d="M365.251 201.069C365.251 202.154 363.288 203.124 361.465 203.794C359.571 204.487 357.471 204.487 355.578 203.794C353.777 203.124 351.814 202.154 351.814 201.069C351.814 197.743 365.251 197.766 365.251 201.069Z" fill="white"/>
</g>
<path d="M456.058 196.072C457.195 178.685 445.895 163.79 430.818 162.803C415.741 161.815 402.596 175.11 401.458 192.497C400.321 209.884 411.621 224.779 426.698 225.767C441.775 226.754 454.92 213.459 456.058 196.072Z" fill="#000072"/>
<path d="M429.925 189.754C430.336 183.543 426.687 178.245 421.777 177.92C416.866 177.595 412.552 182.366 412.142 188.577C411.731 194.788 415.379 200.086 420.29 200.411C425.2 200.736 429.514 195.965 429.925 189.754Z" fill="white"/>
<g opacity="0.2">
<path d="M441.693 206.326C441.974 202.114 439.994 198.551 437.272 198.37C434.549 198.188 432.115 201.456 431.834 205.669C431.554 209.882 433.533 213.444 436.256 213.625C438.978 213.807 441.413 210.539 441.693 206.326Z" fill="white"/>
</g>
<path d="M318.156 191.568C318.498 174.148 306.529 159.785 291.423 159.489C276.317 159.192 263.794 173.073 263.452 190.493C263.11 207.913 275.079 222.276 290.185 222.573C305.291 222.869 317.814 208.988 318.156 191.568Z" fill="#000072"/>
<path d="M307.815 186.743C307.933 180.52 304.04 175.399 299.119 175.306C294.199 175.213 290.114 180.182 289.996 186.406C289.878 192.629 293.772 197.749 298.692 197.843C303.613 197.936 307.697 192.967 307.815 186.743Z" fill="white"/>
<g opacity="0.2">
<path d="M286.774 202.118C286.852 197.897 284.704 194.434 281.976 194.384C279.248 194.333 276.973 197.714 276.895 201.936C276.817 206.157 278.965 209.619 281.693 209.67C284.421 209.72 286.696 206.339 286.774 202.118Z" fill="white"/>
</g>
</g>
<defs>
<clipPath id="clip0_246_9404">
<rect width="516" height="693" fill="white" transform="translate(67)"/>
</clipPath>
</defs>
</svg>
