<svg width="626" height="599" viewBox="0 0 626 599" fill="none" xmlns="http://www.w3.org/2000/svg">
<ellipse cx="313" cy="299.5" rx="313" ry="299.5" fill="#B0A2D7"/>
<path fill-rule="evenodd" clip-rule="evenodd" d="M370.839 229.988C383.909 281.822 391.539 365.071 348.867 396.228C285.07 442.833 102.604 437.181 55.3866 362.009C1.03325 275.51 62.9462 162.47 168.851 134.87C163.481 123.542 178.718 111.414 203.304 113.298C185.006 76.1361 266.183 103.219 284.881 126.651C368.06 25.48 390.998 189.624 370.839 229.988Z" fill="white"/>
<path d="M225.841 431.058C204.223 431.058 182.038 429.08 160.561 424.959C108.162 414.903 69.3281 393.496 51.1946 364.647C27.4091 326.802 23.7824 282.081 40.9504 238.749C50.9356 213.574 67.609 190.306 89.1572 171.443C110.234 153.003 135.621 139.227 162.845 131.384C162.586 127.852 163.575 124.343 165.789 121.093C171.135 113.322 182.415 108.635 196.168 108.188C194.214 99.4035 198.429 94.9996 201.561 92.9979C212.865 85.8151 236.51 93.4689 246.165 97.0956C258.976 101.9 274.92 109.954 284.669 119.209C315.426 83.9076 337.068 86.0977 349.973 94.458C365.045 104.231 376.255 128.464 380.73 160.94C384.474 188.116 382.59 215.646 376.043 230.483C391.516 293.055 393.164 369.969 351.763 400.208C324.681 420.037 276.921 431.058 225.841 431.058ZM198.217 118.055C185.594 118.055 177.046 122.2 173.937 126.698C172.548 128.723 172.336 130.725 173.301 132.75C173.937 134.069 173.937 135.623 173.301 136.966C172.689 138.308 171.488 139.297 170.075 139.65C115.58 153.851 69.6107 193.227 50.1349 242.376C34.1444 282.717 37.4885 324.259 59.5549 359.372C76.2047 385.866 112.731 405.718 162.398 415.233C231.046 428.397 309.962 418.506 345.923 392.224C383.768 364.576 380.4 288.204 366.011 231.189C365.728 230.035 365.846 228.834 366.388 227.775C372.629 215.269 374.489 188.352 370.909 162.306C366.882 133.104 357.038 110.849 344.581 102.771C326.423 90.9961 304.145 110.967 288.649 129.807C287.707 130.937 286.318 131.62 284.834 131.62C284.834 131.62 284.811 131.62 284.787 131.62C283.303 131.62 281.89 130.937 280.948 129.759C266.489 111.626 217.411 94.6464 206.813 101.382C204.317 102.96 205.895 107.575 207.661 111.155C208.438 112.756 208.32 114.64 207.308 116.1C206.318 117.561 204.599 118.385 202.833 118.267C201.279 118.102 199.724 118.055 198.217 118.055Z" fill="#000273"/>
<g opacity="0.3">
<path fill-rule="evenodd" clip-rule="evenodd" d="M37.1591 314.792C31.0832 279.514 40.15 243.223 60.2852 212.161C45.0013 248.899 49.6406 290.912 72.6254 323.411C95.6102 355.934 133.738 374.326 173.49 372.112C165.483 379.813 157.782 389.445 150.34 401.008L150.388 400.702C98.6953 397.711 53.9267 363.776 37.1591 314.792Z" fill="#000273"/>
</g>
<path fill-rule="evenodd" clip-rule="evenodd" d="M370.839 229.988C371.074 230.954 371.333 231.943 371.569 232.955C370.415 233.426 369.284 233.874 368.13 234.251C301.107 225.584 247.931 165.932 279.441 130.277C282.879 127.381 283.751 127.687 284.858 126.651C368.06 25.48 390.997 189.624 370.839 229.988Z" fill="#FFAD40"/>
<path d="M225.841 431.058C204.223 431.058 182.038 429.08 160.561 424.959C108.162 414.903 69.3281 393.496 51.1946 364.647C27.4091 326.802 23.7824 282.081 40.9504 238.749C50.9356 213.574 67.609 190.306 89.1572 171.443C110.234 153.003 135.621 139.227 162.845 131.384C162.586 127.852 163.575 124.343 165.789 121.093C171.135 113.322 182.415 108.635 196.168 108.188C194.214 99.4035 198.429 94.9996 201.561 92.9979C212.865 85.8151 236.51 93.4689 246.165 97.0956C258.976 101.9 274.92 109.954 284.669 119.209C315.426 83.9076 337.068 86.0977 349.973 94.458C365.045 104.231 376.255 128.464 380.73 160.94C384.474 188.116 382.59 215.646 376.043 230.483C391.516 293.055 393.164 369.969 351.763 400.208C324.681 420.037 276.921 431.058 225.841 431.058ZM198.217 118.055C185.594 118.055 177.046 122.2 173.937 126.698C172.548 128.723 172.336 130.725 173.301 132.75C173.937 134.069 173.937 135.623 173.301 136.966C172.689 138.308 171.488 139.297 170.075 139.65C115.58 153.851 69.6107 193.227 50.1349 242.376C34.1444 282.717 37.4885 324.259 59.5549 359.372C76.2047 385.866 112.731 405.718 162.398 415.233C231.046 428.397 309.962 418.506 345.923 392.224C383.768 364.576 380.4 288.204 366.011 231.189C365.728 230.035 365.846 228.834 366.388 227.775C372.629 215.269 374.489 188.352 370.909 162.306C366.882 133.104 357.038 110.849 344.581 102.771C326.423 90.9961 304.145 110.967 288.649 129.807C287.707 130.937 286.318 131.62 284.834 131.62C284.834 131.62 284.811 131.62 284.787 131.62C283.303 131.62 281.89 130.937 280.948 129.759C266.489 111.626 217.411 94.6464 206.813 101.382C204.317 102.96 205.895 107.575 207.661 111.155C208.438 112.756 208.32 114.64 207.308 116.1C206.318 117.561 204.599 118.385 202.833 118.267C201.279 118.102 199.724 118.055 198.217 118.055Z" fill="#000273"/>
<path fill-rule="evenodd" clip-rule="evenodd" d="M7.72143 273.226C20.3913 246.073 39.4904 249.558 65.0186 283.682C92.6663 274.569 122.952 278.266 147.608 293.762C172.265 309.258 188.703 334.951 192.495 363.823C170.805 369.569 148.032 369.899 126.178 364.789C121.656 380.284 110.305 380.402 92.054 365.118C98.3418 362.999 102.722 360.691 105.242 358.195C81.7155 348.563 63.2759 329.534 54.3975 305.725C11.301 311.589 -4.26552 300.733 7.72143 273.226Z" fill="#43C0FF"/>
<g opacity="0.3">
<path fill-rule="evenodd" clip-rule="evenodd" d="M179.095 366.673C188.161 360.126 191.011 352.472 187.62 343.711C137.835 364.906 80.2081 342.652 57.6001 293.503C60.8029 316.393 75.9927 337.023 103.122 355.392C107.385 357.606 110.588 357.253 112.707 354.379C114.638 365.471 113.107 372.442 108.115 375.315C118.854 379.931 124.859 376.422 126.178 364.789C148.291 368.863 165.93 369.499 179.095 366.673Z" fill="#000273"/>
</g>
<g opacity="0.3">
<path fill-rule="evenodd" clip-rule="evenodd" d="M54.3504 304.218C55.2688 301.58 56.4463 298.472 57.8829 294.869C58.4952 293.361 57.0351 291.831 55.4808 292.372C24.3948 303.04 7.72137 287.45 22.4872 258.036C7.43877 267.927 1.78677 280.762 5.53122 296.541C19.1902 308.08 35.4633 310.647 54.3504 304.218Z" fill="#000067"/>
</g>
<path d="M114.144 380.214C107.526 380.214 99.4486 376.163 89.6754 367.968C88.6392 367.096 88.1682 365.754 88.4037 364.435C88.6628 363.116 89.6048 362.033 90.8765 361.609C93.726 360.644 95.9633 359.725 97.706 358.854C77.0997 348.633 60.756 331.136 52.019 309.776C26.5379 312.861 10.7829 309.941 3.88277 300.803C-1.25113 293.997 -1.10984 284.224 4.33021 271.719C4.35376 271.695 4.35376 271.672 4.37731 271.625C10.1706 259.214 17.5653 252.455 26.3495 251.56C38.0067 250.359 51.1241 259.449 66.408 279.349C94.5032 270.895 124.671 274.945 149.587 290.606C175.256 306.761 192.236 333.255 196.169 363.328C196.404 365.165 195.25 366.908 193.437 367.403C172.312 373.007 149.963 373.573 128.604 369.122C126.343 374.703 122.928 378.212 118.43 379.578C117.064 380.025 115.627 380.214 114.144 380.214ZM99.4486 366.225C108.445 372.748 113.508 373.337 116.24 372.513C119.019 371.665 121.138 368.721 122.598 363.776C123.14 361.892 125.071 360.761 127.002 361.209C147.114 365.919 168.238 365.872 188.303 361.068C183.899 334.55 168.474 311.306 145.607 296.917C121.798 281.963 92.8547 278.407 66.149 287.215C64.6418 287.709 62.9697 287.191 62.0277 285.92C48.1568 267.362 36.0521 258.06 27.0795 258.978C21.0978 259.591 15.7049 264.913 11.0891 274.78C6.80296 284.624 6.37907 291.878 9.77027 296.376C13.4205 301.203 24.0416 306.125 53.8794 302.098C55.5986 301.863 57.2471 302.852 57.8594 304.477C66.3609 327.25 84.1412 345.595 106.655 354.803C107.809 355.274 108.633 356.287 108.892 357.512C109.128 358.736 108.751 359.984 107.856 360.856C105.878 362.787 103.122 364.577 99.4486 366.225Z" fill="#000273"/>
<path d="M58.0477 293.762C57.7651 295.716 57.4589 297.553 57.3647 299.343C57.2234 301.109 57.2941 302.781 57.5531 304.312C57.8122 305.843 58.3303 307.162 58.8719 308.41C59.4371 309.658 60.1436 310.859 60.8737 312.249L60.9914 312.461C61.9099 314.203 61.2269 316.37 59.4842 317.288C58.1654 317.971 56.6347 317.759 55.5514 316.888C53.8087 315.451 52.4663 313.403 51.7127 311.142C50.9356 308.881 50.8414 306.408 51.1946 304.171C51.5479 301.91 52.3486 299.861 53.3612 298.071C54.421 296.258 55.6691 294.68 57.1763 293.314C57.3883 293.126 57.7415 293.126 57.9299 293.361C58.0241 293.432 58.0712 293.597 58.0477 293.762Z" fill="#000273"/>
<path fill-rule="evenodd" clip-rule="evenodd" d="M176.128 313.826C161.15 292.207 138.871 276.711 113.367 270.212C112.66 270.706 111.954 271.201 111.224 271.695C102.204 277.889 99.7313 290.206 104.559 300.026C109.363 309.846 120.455 314.933 131.029 312.131C131.901 313.285 132.584 314.156 133.149 314.792C139.437 321.786 148.833 325.248 158.277 323.882C165.389 322.893 171.724 319.219 176.128 313.826Z" fill="white"/>
<path fill-rule="evenodd" clip-rule="evenodd" d="M147.679 563.08C103.358 572.617 74.5563 541.225 119.961 510.987C118.289 370.558 242.115 295.881 358.805 317.995V317.971C375.219 303.111 398.487 299.013 426.935 293.173C506.699 276.759 530.814 234.298 481.971 206.274C455.054 190.825 446.693 164.307 478.109 156.065C591.031 126.392 588.04 320.256 456.231 317.006C428.842 316.323 409.579 322.87 398.345 329.417L398.322 329.44C410.238 334.127 421.895 339.896 433.152 346.844C483.125 379.672 517.249 437.464 512.327 520.831C542.33 541.178 541.364 556.297 509.313 565.741C491.085 571.11 448.318 576.88 430.138 570.215C348.513 584.439 336.809 570.851 340.106 542.238C311.87 547.348 282.738 543.957 256.456 532.441C262.839 560.089 255.255 570.804 232.412 570.969C182.156 576.574 153.92 573.96 147.679 563.08Z" fill="white"/>
<g opacity="0.3">
<path fill-rule="evenodd" clip-rule="evenodd" d="M170.429 454.585C165.836 446.507 158.818 437.299 155.215 431.152C146.384 464.852 144.382 494.125 143.37 514.731C139.036 519.865 135.669 524.646 133.267 529.026C126.979 535.691 120.926 537.787 115.11 535.267C108.633 530.109 111.318 523.398 123.164 515.155C104.677 523.021 96.1754 531.829 97.6826 541.555L97.0703 540.99C97.612 542.803 98.2949 544.546 99.1192 546.194C99.755 547.56 100.556 548.926 101.568 550.339L101.615 550.41C105.336 555.779 110.635 559.994 116.876 562.444C126.414 566.164 137.129 565.293 145.96 560.065C141.768 551.728 141.745 541.884 145.889 533.524C150.058 525.164 157.9 519.253 167.084 517.581C165.577 490.734 166.684 469.751 170.429 454.585Z" fill="#000273"/>
</g>
<g opacity="0.3">
<path fill-rule="evenodd" clip-rule="evenodd" d="M382.378 340.132C367.141 356.358 361.466 367.662 365.328 374.067C389.208 336.599 410.45 340.98 456.985 365.613C420.529 330.123 395.66 321.645 382.378 340.132Z" fill="#000273"/>
</g>
<path d="M377.998 580.813C360.571 580.813 349.314 577.68 342.579 571.322C335.82 564.94 334.454 556.179 334.713 548.102C310.457 551.446 285.918 548.808 262.98 540.377C264.558 552.035 263.051 560.418 258.388 566.329C253.419 572.641 245.011 575.773 232.718 575.914C170.923 582.814 152.366 575.891 145.607 568.543C121.256 572.853 100.249 565.717 93.891 550.692C91.1592 544.24 87.9329 527.425 115.015 508.396C114.992 447.308 138.966 393.614 182.722 356.923C229.256 317.924 294.372 301.463 357.345 312.696C373.689 299.013 395.826 294.492 421.283 289.287L425.946 288.322C478.321 277.536 499.563 257.518 501.989 242.352C503.779 231.189 495.795 219.885 479.522 210.536C461.813 200.362 451.474 185.502 453.193 172.668C453.97 166.78 458.092 156.183 476.885 151.261C506.605 143.466 531.78 149.918 547.794 169.441C567.27 193.203 569.577 232.885 553.422 265.973C535.524 302.617 500.081 323.011 456.137 321.928C435.295 321.433 420.2 325.201 410.332 329.11C419.116 333.09 427.642 337.612 435.766 342.604C435.813 342.628 435.837 342.652 435.884 342.675C492.263 379.719 521.159 442.033 517.438 518.287C533.334 529.521 540.375 539.6 538.892 549.02C537.455 558.275 528.247 565.27 510.726 570.451C492.899 575.702 450.061 581.802 429.738 575.278C408.378 578.952 391.375 580.813 377.998 580.813ZM340.106 537.269C341.354 537.269 342.555 537.74 343.497 538.611C344.628 539.671 345.217 541.225 345.028 542.779C343.78 553.683 345.075 560.065 349.361 564.116C358.593 572.829 384.003 573.206 429.29 565.317C430.138 565.175 431.033 565.246 431.834 565.552C448.578 571.699 490.614 566.094 507.924 560.984C520.829 557.168 528.365 552.388 529.119 547.536C529.613 544.381 527.729 537.222 509.572 524.905C508.135 523.916 507.311 522.267 507.405 520.525C511.762 446.695 484.444 386.502 430.515 351.012C419.799 344.418 408.354 338.695 396.509 334.032C394.836 333.373 393.635 331.842 393.423 330.052C393.188 328.262 393.965 326.496 395.425 325.436C395.566 325.342 395.731 325.225 395.873 325.154C404.845 319.926 424.627 311.259 456.373 312.084C496.266 313.049 528.412 294.68 544.52 261.663C559.027 231.943 557.237 196.618 540.116 175.753C526.504 159.15 505.498 153.992 479.381 160.869C472.457 162.682 464.003 166.45 462.99 174.034C461.836 182.747 470.455 194.004 484.444 202.034C504.556 213.574 514.258 228.481 511.762 244.001C507.947 267.833 476.602 288.063 427.948 298.071L423.285 299.037C397.309 304.336 376.797 308.551 362.29 321.574C361.16 322.681 359.559 323.223 357.91 322.917C297.057 311.377 233.966 326.967 189.08 364.577C147.02 399.831 124.223 451.853 124.93 511.01C124.953 512.683 124.129 514.26 122.716 515.179C106.537 525.965 99.1662 537.81 103.005 546.901C106.914 556.156 123.54 563.315 146.667 558.322C148.762 557.875 150.929 558.817 151.989 560.701C154.32 564.752 166.778 573.394 231.87 566.117C232.035 566.094 232.2 566.094 232.389 566.094C241.62 566.023 247.602 564.116 250.64 560.253C254.384 555.52 254.714 546.806 251.676 533.595C251.252 531.782 251.888 529.874 253.324 528.673C254.761 527.472 256.739 527.189 258.458 527.943C283.939 539.082 311.893 542.356 339.258 537.386C339.517 537.292 339.824 537.269 340.106 537.269Z" fill="#000273"/>
<path fill-rule="evenodd" clip-rule="evenodd" d="M147.679 563.08C103.358 572.617 74.5563 541.225 119.961 510.987C119.937 509.009 119.937 507.054 119.984 505.099C139.625 504.534 155.309 508.679 167.061 517.557C213.124 512.164 243.575 521.066 258.411 544.216C260.06 563.174 251.652 570.804 232.388 570.945C182.156 576.574 153.92 573.96 147.679 563.08Z" fill="#FFAD40"/>
<path fill-rule="evenodd" clip-rule="evenodd" d="M512.657 514.025C512.586 516.262 512.469 518.523 512.351 520.807C542.353 541.155 541.388 556.274 509.336 565.717C491.109 571.087 448.342 576.856 430.161 570.192C348.537 584.416 336.833 570.828 340.13 542.214L338.764 542.45C358.499 536.233 374.842 529.591 387.842 522.479C422.366 528.673 463.979 525.847 512.657 514.025Z" fill="#FFAD40"/>
<g opacity="0.3">
<path fill-rule="evenodd" clip-rule="evenodd" d="M260.507 532.253C269.48 524.175 273.978 517.204 274.025 511.34C349.832 520.266 404.798 512.282 447.235 485.317C445.964 501.661 452.699 514.048 459.104 524.528C462.095 550.198 477.944 560.159 506.675 554.437C523.82 550.056 524.573 539.977 508.936 524.175C525.657 532.582 534.017 539.789 534.088 545.841C534.111 548.997 531.874 551.823 527.376 554.319C511.503 569.885 481.501 575.796 437.391 572.028C425.381 571.628 421.589 571.251 425.993 570.898C393.942 576.95 369.968 577.516 354.119 572.617C348.914 558.699 348.985 546.877 354.354 537.198C321.69 548.314 290.416 546.689 260.507 532.253Z" fill="#000273"/>
</g>
<path fill-rule="evenodd" clip-rule="evenodd" d="M483.196 272.473C514.588 252.596 516.19 225.891 481.971 206.274C455.054 190.825 446.694 164.307 478.109 156.065C575.018 130.607 586.557 269.764 504.556 307.68C501.565 305.231 498.81 302.475 496.29 299.461C489.743 291.572 485.292 282.293 483.196 272.473Z" fill="#FFAD40"/>
<g opacity="0.5">
<path fill-rule="evenodd" clip-rule="evenodd" d="M483.196 272.473C514.588 252.596 516.19 225.891 481.971 206.274C455.054 190.825 446.694 164.307 478.109 156.065C429.714 186.021 528.459 186.586 514.635 244.589C510.891 260.344 499.775 273.156 484.939 278.949C484.232 276.806 483.667 274.639 483.196 272.473Z" fill="white"/>
</g>
<g opacity="0.3">
<path fill-rule="evenodd" clip-rule="evenodd" d="M493.675 153.263C590.442 144.667 581.682 320.067 456.231 316.982C452.84 316.911 443.914 318.372 441.3 316.276C530.861 327.061 587.522 176.106 493.675 153.263Z" fill="#000067"/>
</g>
<path d="M147.679 568.025C146.078 568.025 144.5 567.248 143.558 565.811C137.129 556.109 135.998 543.886 140.567 533.171C145.136 522.456 154.697 514.802 166.166 512.682C168.851 512.188 171.418 513.978 171.912 516.662C172.407 519.347 170.617 521.914 167.932 522.409C159.737 523.916 152.907 529.379 149.657 537.033C146.408 544.687 147.185 553.4 151.801 560.348C153.308 562.632 152.695 565.694 150.411 567.201C149.563 567.766 148.621 568.025 147.679 568.025Z" fill="#000273"/>
<path d="M162.139 517.934C160.938 502.038 160.938 485.953 162.892 469.963C164.823 453.996 168.756 438.147 175.232 423.24C178.459 415.798 182.321 408.615 186.701 401.762C191.105 394.933 195.956 388.339 201.585 382.428C207.19 376.517 213.478 371.288 220.166 366.767C226.901 362.292 234.037 358.501 241.62 355.793C242.491 355.486 243.457 355.934 243.763 356.805C243.998 357.488 243.786 358.218 243.268 358.642C237.216 363.705 231.211 368.557 225.512 373.667C219.789 378.754 214.396 384.053 209.286 389.61C204.175 395.168 199.324 400.961 195.132 407.249C190.917 413.514 187.337 420.202 184.323 427.149C178.27 441.044 174.573 455.951 172.736 471.14C170.899 486.33 170.876 501.779 172.03 517.134V517.157C172.242 519.889 170.193 522.244 167.461 522.456C164.706 522.715 162.327 520.666 162.139 517.934Z" fill="#000273"/>
<path d="M155.78 430.964C158.677 434.873 161.526 438.382 164.564 441.703L169.086 446.578C170.546 448.203 171.983 449.804 173.231 451.547L173.349 451.712C174.691 453.596 174.244 456.186 172.36 457.529C170.923 458.565 169.039 458.518 167.626 457.599C165.412 456.139 163.67 454.255 162.162 452.253C160.632 450.252 159.407 448.038 158.347 445.777C157.288 443.516 156.393 441.161 155.733 438.736C155.097 436.31 154.65 433.837 154.65 431.317C154.65 430.964 154.932 430.705 155.262 430.705C155.474 430.705 155.663 430.823 155.78 430.964Z" fill="#000273"/>
<path d="M238.723 495.326C256.527 499.494 273.577 503.828 291.028 506.748C295.384 507.384 299.765 508.02 304.098 508.75L317.262 510.186C321.666 510.422 326.094 510.634 330.498 510.822C334.925 510.775 339.329 510.634 343.756 510.516C361.419 509.527 378.822 505.924 395.778 501.143L402.09 499.188C404.186 498.529 406.329 497.964 408.424 497.281C412.569 495.774 416.738 494.313 420.977 492.948C425.121 491.37 429.313 489.886 433.599 488.544C437.791 486.966 442.077 485.506 446.575 484.328L446.623 484.305C447.07 484.187 447.541 484.446 447.659 484.893C447.753 485.2 447.635 485.529 447.4 485.741C443.938 488.826 440.264 491.629 436.496 494.337C432.61 496.81 428.607 499.094 424.556 501.308C420.411 503.31 416.149 505.099 411.886 506.913C407.577 508.538 403.173 509.998 398.816 511.505C381.13 516.992 362.667 519.559 344.274 520.478C339.658 520.572 335.043 520.666 330.45 520.807L316.603 520.478C312.011 520.124 307.395 519.818 302.803 519.394C298.234 518.758 293.642 518.075 289.097 517.275C271.01 513.672 253.301 507.29 238.04 496.88C237.663 496.621 237.569 496.103 237.828 495.726C238.04 495.373 238.393 495.255 238.723 495.326Z" fill="#000273"/>
<path fill-rule="evenodd" clip-rule="evenodd" d="M242.586 226.291C264.181 236.135 272.47 264.277 261.119 289.169C249.768 314.062 223.063 326.261 201.491 316.417C179.895 306.573 171.606 278.407 182.957 253.538C194.308 228.646 220.99 216.447 242.586 226.291Z" fill="#FFAD40"/>
<path d="M256.456 537.363C254.855 537.363 253.277 536.586 252.335 535.149C250.828 532.865 251.464 529.803 253.725 528.296C264.016 521.49 270.257 514.59 272.282 507.808C273.059 505.194 275.815 503.71 278.429 504.487C281.043 505.264 282.526 508.02 281.749 510.634C278.994 519.842 271.623 528.32 259.165 536.562C258.34 537.104 257.398 537.363 256.456 537.363Z" fill="#000273"/>
<path d="M327.648 538.941C332.476 537.834 337.351 536.774 342.296 535.455C347.218 534.137 352.234 532.841 357.227 531.358C362.219 529.874 367.236 528.296 372.275 526.671C377.315 525.07 382.355 523.374 387.512 521.844C387.889 521.726 388.289 521.938 388.407 522.315C388.501 522.621 388.383 522.927 388.148 523.092C383.815 526.318 379.317 529.238 374.701 532.017C370.085 534.773 365.328 537.339 360.43 539.671C355.531 541.979 350.515 544.169 345.24 545.77C339.988 547.372 334.478 548.596 328.778 548.761C326.047 548.832 323.762 546.689 323.692 543.933C323.621 541.531 325.293 539.483 327.53 538.964L327.648 538.941Z" fill="#000273"/>
<path d="M434.118 576.315C433.552 576.315 432.964 576.221 432.398 576.009C420.341 571.511 412.993 556.344 409.955 529.709C404.303 524.151 399.004 516.969 394.224 508.349C392.905 505.971 393.753 502.956 396.131 501.638C398.51 500.319 401.524 501.167 402.843 503.545C407.506 511.929 412.616 518.735 418.033 523.751C418.904 524.575 419.469 525.659 419.587 526.86C421.989 549.868 427.618 563.645 435.86 566.73C438.427 567.695 439.722 570.545 438.757 573.088C438.003 575.09 436.119 576.315 434.118 576.315Z" fill="#000273"/>
<path d="M154.132 329.157C144.476 329.157 135.339 324.966 129.004 317.594C117.229 319.219 105.454 313.096 100.108 302.216C94.0794 289.923 97.659 275.04 108.421 267.645C124.859 256.341 134.373 246.497 138.353 236.653C139.39 234.133 142.263 232.909 144.783 233.921C147.302 234.957 148.527 237.831 147.514 240.374C142.757 252.102 132.113 263.359 114.003 275.793C107.244 280.456 105.077 289.947 108.963 297.883C112.731 305.56 121.468 309.564 129.734 307.397C131.736 306.879 133.855 307.656 135.033 309.328C140.12 316.582 148.739 320.303 157.523 319.031C166.307 317.759 173.514 311.754 176.34 303.347C177.211 300.756 180.013 299.367 182.604 300.238C185.194 301.109 186.584 303.912 185.712 306.502C181.685 318.466 171.418 326.991 158.936 328.804C157.358 329.04 155.733 329.157 154.132 329.157Z" fill="#000273"/>
<path d="M133.149 319.761C131.783 319.761 130.393 319.196 129.428 318.065C127.803 316.205 125.165 312.602 121.115 306.785C119.56 304.548 120.126 301.463 122.363 299.908C124.6 298.354 127.685 298.919 129.239 301.156C132.96 306.526 135.527 310.035 136.87 311.566C138.659 313.614 138.447 316.747 136.399 318.536C135.457 319.361 134.303 319.761 133.149 319.761Z" fill="#000273"/>
<path fill-rule="evenodd" clip-rule="evenodd" d="M137.105 270.541C144.359 272.237 149.704 275.934 149.045 278.784C148.386 281.633 139.978 290.936 132.725 289.217C125.471 287.521 122.08 275.44 122.763 272.59C123.423 269.741 129.852 268.822 137.105 270.541Z" fill="#000273"/>
<path d="M134.538 291.878C133.738 291.878 132.96 291.784 132.16 291.595C123.234 289.499 119.466 275.746 120.338 272.002C121.562 266.821 130.182 266.35 137.67 268.092C141.486 268.987 144.947 270.424 147.444 272.166C151.706 275.11 151.777 277.913 151.447 279.302C150.67 282.74 142.687 291.878 134.538 291.878ZM130.205 272.143C127.214 272.143 125.448 272.779 125.118 273.25C124.741 275.275 127.709 285.496 133.29 286.815C138.871 288.11 146.078 280.291 146.643 278.195C146.502 277.418 143.322 274.521 136.54 272.944C134.067 272.355 131.924 272.143 130.205 272.143Z" fill="#000273"/>
<g opacity="0.3">
<path fill-rule="evenodd" clip-rule="evenodd" d="M277.039 509.221C258.152 504.723 246.306 502.014 237.64 495.915C235.45 511.081 229.115 520.595 222.521 529.686C226.925 571.558 120.809 561.808 165.671 521.938C136.187 523.469 116.452 597.769 226.948 571.558C255.844 570.121 265.688 557.074 256.48 532.441C268.043 524.623 274.896 516.875 277.039 509.221Z" fill="#000273"/>
</g>
<g opacity="0.3">
<path fill-rule="evenodd" clip-rule="evenodd" d="M170.428 454.585C181.19 411.912 206.13 379.978 242.35 354.615C204.458 370.205 173.89 389.516 155.215 431.152C164.47 447.284 170.428 454.585 170.428 454.585Z" fill="#000273"/>
</g>
<g opacity="0.3">
<path fill-rule="evenodd" clip-rule="evenodd" d="M238.817 494.737C304.569 531.475 385.699 527.566 447.235 484.14C380.117 501.802 322.42 511.222 238.817 494.737Z" fill="#000273"/>
</g>
<path d="M378.375 311.212C368.343 316.699 359.417 324 352.658 332.996L350.233 336.434C349.503 337.635 348.726 338.813 348.066 340.061C347.43 341.333 346.794 342.581 346.206 343.853C345.664 345.148 345.052 346.42 344.463 347.691C343.921 348.987 343.262 350.235 342.603 351.506C341.99 352.802 341.307 354.05 340.601 355.321C339.941 356.617 339.188 357.888 338.364 359.16C337.61 360.455 336.739 361.751 335.679 363.022L335.608 363.093C334.972 363.87 333.842 363.964 333.065 363.328C332.735 363.046 332.523 362.693 332.453 362.292C332.123 360.644 331.981 359.019 331.934 357.417C331.911 355.792 332.076 354.215 332.264 352.613C332.476 351.035 332.853 349.481 333.253 347.927C333.677 346.396 334.242 344.889 334.831 343.405C335.467 341.945 336.197 340.509 336.951 339.096C337.728 337.706 338.599 336.364 339.4 334.974L341.99 330.947L344.746 327.038C348.584 321.928 353.035 317.265 357.91 313.191C362.785 309.093 368.084 305.56 373.594 302.522C375.996 301.204 378.987 302.075 380.306 304.477C381.648 306.879 380.777 309.894 378.375 311.212Z" fill="#000273"/>
<path d="M414.265 327.65C403.314 331.818 392.881 337.353 384.403 344.959L382.826 346.396L381.342 347.903L379.882 349.434C379.434 349.976 378.987 350.517 378.54 351.082C377.621 352.166 376.844 353.32 376.043 354.497C375.219 355.628 374.512 356.829 373.712 357.983C372.134 360.29 370.603 362.622 368.908 364.977C368.06 366.154 367.283 367.379 366.294 368.556C365.422 369.781 364.48 371.006 363.326 372.207L363.232 372.301C362.549 373.007 361.419 373.031 360.712 372.348C360.406 372.042 360.218 371.665 360.171 371.265C359.982 369.593 359.935 367.897 360.076 366.249C360.265 364.624 360.5 362.952 360.924 361.374C361.795 358.194 363.091 355.109 364.833 352.307C365.728 350.918 366.623 349.528 367.707 348.28L369.261 346.372C369.779 345.737 370.368 345.171 370.909 344.559C371.474 343.947 372.016 343.358 372.558 342.746L374.277 341.003L375.996 339.26L377.809 337.635C382.637 333.302 387.983 329.605 393.541 326.449C399.099 323.293 404.892 320.679 410.803 318.442C413.346 317.477 416.219 318.748 417.185 321.315C418.151 323.882 416.879 326.732 414.312 327.697L414.265 327.65Z" fill="#000273"/>
<path d="M172.359 128.488C173.796 130.631 175.091 132.256 176.834 133.716C178.553 135.129 180.837 136.33 183.546 137.201C186.254 138.073 189.292 138.614 192.448 138.991C195.627 139.368 198.9 139.509 202.291 139.768H202.315C202.715 139.792 203.022 140.145 202.998 140.545C202.974 140.804 202.81 141.016 202.598 141.134C199.536 142.712 196.31 143.937 192.919 144.855C189.504 145.679 185.924 146.197 182.109 146.009C178.341 145.797 174.196 144.902 170.57 142.406C166.943 139.957 164.188 136.094 163.198 132.114C162.539 129.453 164.14 126.745 166.802 126.062C168.898 125.544 171.017 126.415 172.147 128.111L172.359 128.488Z" fill="#000067"/>
<path d="M148.103 371.029C147.255 371.029 146.431 370.676 145.842 369.969C133.855 355.604 135.292 334.456 149.115 321.857C150.317 320.75 152.177 320.844 153.284 322.045C154.391 323.246 154.297 325.107 153.095 326.214C141.627 336.693 140.426 354.262 150.387 366.225C151.423 367.473 151.259 369.334 150.01 370.37C149.422 370.817 148.762 371.029 148.103 371.029Z" fill="#000273"/>
<path d="M102.228 357.064C103.24 356.263 104.347 355.698 105.478 355.157C106.608 354.615 107.785 354.191 108.987 353.72C111.365 352.801 113.744 351.789 116.405 350.823C116.64 350.729 116.899 350.847 116.994 351.082C117.041 351.2 117.017 351.318 116.97 351.436C115.745 354.05 113.908 356.263 111.836 358.171C110.8 359.136 109.717 360.031 108.516 360.761C107.314 361.491 106.066 362.08 104.677 362.386C103.052 362.74 101.451 361.703 101.097 360.078C100.838 358.924 101.309 357.771 102.181 357.088L102.228 357.064Z" fill="#000067"/>
<path d="M101.827 370.841C104.347 369.899 106.843 368.933 109.293 367.873C111.742 366.814 114.191 365.683 116.523 364.317C114.686 366.296 112.613 368.109 110.517 369.875C108.421 371.618 106.255 373.313 104.088 374.962C103.052 375.763 101.545 375.551 100.744 374.515C99.9433 373.478 100.155 371.971 101.191 371.17C101.403 371.029 101.615 370.935 101.827 370.841Z" fill="#000067"/>
<path d="M121.633 348.28C121.232 348.28 120.832 348.115 120.526 347.785L81.7389 304.171C81.1972 303.559 81.2443 302.64 81.8566 302.098C82.4689 301.557 83.3874 301.604 83.929 302.216L122.716 345.831C123.258 346.443 123.21 347.362 122.598 347.903C122.339 348.162 121.986 348.28 121.633 348.28Z" fill="#000273"/>
<path d="M130.016 341.05C129.592 341.05 129.168 340.862 128.886 340.532L91.7004 296.117C91.1823 295.505 91.253 294.563 91.8888 294.044C92.5011 293.526 93.4431 293.597 93.9612 294.233L131.147 338.648C131.665 339.26 131.594 340.202 130.958 340.721C130.676 340.932 130.346 341.05 130.016 341.05Z" fill="#000273"/>
<path d="M136.446 334.762C135.998 334.762 135.574 334.574 135.292 334.197L118.712 312.79C118.218 312.154 118.336 311.212 118.971 310.718C119.607 310.223 120.549 310.341 121.044 310.977L137.623 332.384C138.118 333.02 138 333.962 137.364 334.456C137.081 334.668 136.775 334.762 136.446 334.762Z" fill="#000273"/>
<path d="M107.974 347.15C107.503 347.15 107.055 346.938 106.773 346.514C106.302 345.854 106.467 344.936 107.126 344.465L140.261 321.245C140.92 320.774 141.839 320.939 142.31 321.598C142.781 322.257 142.616 323.176 141.956 323.647L108.822 346.867C108.539 347.079 108.256 347.15 107.974 347.15Z" fill="#000273"/>
<path d="M93.7963 339.119C93.3488 339.119 92.8778 338.907 92.5952 338.507C92.1242 337.848 92.2655 336.929 92.9249 336.458L127.449 311.754C128.109 311.283 129.027 311.424 129.498 312.084C129.969 312.743 129.828 313.662 129.168 314.133L94.6441 338.837C94.385 339.025 94.1024 339.119 93.7963 339.119Z" fill="#000273"/>
<path d="M87.8382 328.003C87.4143 328.003 87.0139 327.815 86.7077 327.485C86.1896 326.873 86.2603 325.931 86.8962 325.413L110.399 305.607C111.011 305.089 111.953 305.16 112.471 305.796C112.99 306.408 112.919 307.35 112.283 307.868L88.7802 327.674C88.5211 327.886 88.1914 328.003 87.8382 328.003Z" fill="#000273"/>
<path d="M77.2173 316.417C76.6992 316.417 76.1811 316.134 75.922 315.64C75.5452 314.933 75.8043 314.038 76.5343 313.662L102.322 300.003C103.052 299.626 103.923 299.885 104.3 300.615C104.677 301.321 104.418 302.216 103.687 302.593L77.9002 316.252C77.6883 316.37 77.4528 316.417 77.2173 316.417Z" fill="#000273"/>
<path fill-rule="evenodd" clip-rule="evenodd" d="M160.82 333.137C162.986 333.137 164.753 335.327 164.753 338.036C164.753 340.744 162.986 342.934 160.82 342.934C158.653 342.934 156.887 340.744 156.887 338.036C156.863 335.327 158.63 333.137 160.82 333.137Z" fill="#000273"/>
<path d="M283.515 120.575C285.376 118.573 288.484 118.479 290.486 120.316C292.488 122.176 292.582 125.285 290.745 127.287C287.684 130.584 263.451 156.088 270.045 137.696C271.74 135.011 273.718 132.232 276.003 129.312C278.287 126.439 280.807 123.519 283.515 120.575Z" fill="#000273"/>
<path fill-rule="evenodd" clip-rule="evenodd" d="M211.782 95.0705C139.013 50.6081 108.115 70.8375 119.042 155.782C134.138 146.716 150.858 139.556 168.851 134.87C168.121 133.363 167.791 131.832 167.791 130.325C167.744 120.552 182.015 111.673 203.304 113.322C197.252 101.076 202.009 95.8005 211.782 95.0705Z" fill="#FFAD40"/>
<path d="M119.042 160.728C118.312 160.728 117.559 160.563 116.899 160.233C115.392 159.503 114.356 158.067 114.144 156.418C108.351 111.367 114.003 83.9783 131.453 72.6743C148.833 61.4174 175.939 67.352 214.373 90.8314C216.21 91.9618 217.104 94.1284 216.61 96.2008C216.115 98.2967 214.302 99.8039 212.182 99.9688C208.933 100.204 206.648 101.052 205.965 102.253C205.117 103.76 205.777 107.057 207.755 111.084C208.532 112.686 208.414 114.57 207.402 116.03C206.413 117.49 204.694 118.314 202.927 118.196C189.151 117.137 179.801 120.905 175.633 124.767C174.314 125.992 172.713 127.946 172.736 130.254C172.736 131.055 172.948 131.879 173.325 132.703C173.961 134.022 173.961 135.576 173.349 136.919C172.736 138.261 171.535 139.25 170.122 139.603C153.001 144.078 136.681 150.931 121.609 159.974C120.808 160.492 119.914 160.728 119.042 160.728ZM151.706 77.0546C145.819 77.0546 140.85 78.3499 136.822 80.9875C123.941 89.3242 119.325 111.791 123.069 147.775C135.645 140.875 148.998 135.388 162.869 131.384C162.845 131.031 162.822 130.678 162.822 130.348C162.798 125.709 164.894 121.282 168.874 117.584C174.95 111.932 184.841 108.612 196.168 108.235C195.226 104.043 195.627 100.416 197.322 97.4018C198.076 96.1066 199.018 94.9762 200.172 94.0106C180.178 82.7066 163.952 77.0546 151.706 77.0546Z" fill="#000273"/>
<path fill-rule="evenodd" clip-rule="evenodd" d="M168.497 134.069C166.943 129.453 168.05 125.285 171.771 121.635C136.846 82.0471 125.189 90.2896 136.775 146.362C147.326 141.817 157.876 137.719 168.497 134.069Z" fill="#FF6A9F"/>
<path d="M134.09 151.567L133.172 147.116C126.507 114.899 127.379 98.6263 135.951 94.3638C143.981 90.3603 155.898 98.014 174.573 119.185L176.904 121.823L174.385 124.296C171.653 126.981 170.923 129.642 172.03 132.915L173.207 136.401L169.722 137.602C159.242 141.205 148.668 145.302 138.282 149.8L134.09 151.567ZM140.402 100.769C139.813 100.769 139.436 100.887 139.248 100.981C138.07 101.57 132.819 106.209 139.531 141.158C147.702 137.719 155.945 134.54 164.187 131.643C163.811 128.111 164.729 124.743 166.872 121.682C150.199 103.242 143.039 100.769 140.402 100.769Z" fill="#000273"/>
<path fill-rule="evenodd" clip-rule="evenodd" d="M340.624 185.691C359.111 119.468 329.226 102.936 286.224 150.931C274.519 163.978 334.477 207.686 340.624 185.691Z" fill="#FF6A9F"/>
<path d="M331.864 195.488C316.321 195.488 290.157 176.577 283.044 162.518C279.206 154.958 281.655 150.46 283.445 148.435C304.946 124.437 324.728 114.782 337.704 121.894C351.245 129.312 353.6 152.933 344.18 186.68C342.767 191.767 338.976 194.852 333.559 195.393C333.018 195.464 332.452 195.488 331.864 195.488ZM328.378 127.028C318.511 127.028 304.122 136.495 288.979 153.404C287.802 154.723 288.696 157.266 289.662 159.173C296.232 172.15 321.619 189.153 332.853 188.022C335.255 187.787 336.479 186.821 337.068 184.702C346.841 149.73 341.967 132.703 334.171 128.417C332.476 127.475 330.521 127.028 328.378 127.028Z" fill="#000067"/>
<g opacity="0.48">
<path fill-rule="evenodd" clip-rule="evenodd" d="M291.31 145.491C290.604 146.221 289.874 146.975 289.167 147.728C287.024 150.201 285.564 152.768 284.716 155.476V155.523C285.305 157.713 285.988 159.762 286.789 161.693C289.968 167.416 296.444 173.939 303.862 179.426C306.312 180.486 308.949 181.31 311.822 181.876C287.472 164.802 287.354 148.717 311.493 133.598C302.638 137.178 295.903 141.158 291.31 145.491Z" fill="white"/>
</g>
<path d="M331.864 195.488C316.321 195.488 290.157 176.577 283.044 162.518C279.206 154.958 281.655 150.46 283.445 148.435C304.946 124.437 324.728 114.782 337.704 121.894C351.245 129.312 353.6 152.933 344.18 186.68C342.767 191.767 338.976 194.852 333.559 195.393C333.018 195.464 332.452 195.488 331.864 195.488ZM328.378 127.028C318.511 127.028 304.122 136.495 288.979 153.404C287.802 154.723 288.696 157.266 289.662 159.173C296.232 172.15 321.619 189.153 332.853 188.022C335.255 187.787 336.479 186.821 337.068 184.702C346.841 149.73 341.967 132.703 334.171 128.417C332.476 127.475 330.521 127.028 328.378 127.028Z" fill="#000067"/>
<path d="M377.998 580.813C360.571 580.813 349.314 577.68 342.579 571.322C335.82 564.94 334.454 556.179 334.713 548.102C310.457 551.446 285.918 548.808 262.98 540.377C264.558 552.035 263.051 560.418 258.388 566.329C253.419 572.641 245.011 575.773 232.718 575.914C170.923 582.814 152.366 575.891 145.607 568.543C121.256 572.853 100.249 565.717 93.891 550.692C91.1592 544.24 87.9329 527.425 115.015 508.396C114.992 447.308 138.966 393.614 182.722 356.923C229.256 317.924 294.372 301.463 357.345 312.696C373.689 299.013 395.826 294.492 421.283 289.287L425.946 288.322C478.321 277.536 499.563 257.518 501.989 242.352C503.779 231.189 495.795 219.885 479.522 210.536C461.813 200.362 451.474 185.502 453.193 172.668C453.97 166.78 458.092 156.183 476.885 151.261C506.605 143.466 531.78 149.918 547.794 169.441C567.27 193.203 569.577 232.885 553.422 265.973C535.524 302.617 500.081 323.011 456.137 321.928C435.295 321.433 420.2 325.201 410.332 329.11C419.116 333.09 427.642 337.612 435.766 342.604C435.813 342.628 435.837 342.652 435.884 342.675C492.263 379.719 521.159 442.033 517.438 518.287C533.334 529.521 540.375 539.6 538.892 549.02C537.455 558.275 528.247 565.27 510.726 570.451C492.899 575.702 450.061 581.802 429.738 575.278C408.378 578.952 391.375 580.813 377.998 580.813ZM340.106 537.269C341.354 537.269 342.555 537.74 343.497 538.611C344.628 539.671 345.217 541.225 345.028 542.779C343.78 553.683 345.075 560.065 349.361 564.116C358.593 572.829 384.003 573.206 429.29 565.317C430.138 565.175 431.033 565.246 431.834 565.552C448.578 571.699 490.614 566.094 507.924 560.984C520.829 557.168 528.365 552.388 529.119 547.536C529.613 544.381 527.729 537.222 509.572 524.905C508.135 523.916 507.311 522.267 507.405 520.525C511.762 446.695 484.444 386.502 430.515 351.012C419.799 344.418 408.354 338.695 396.509 334.032C394.836 333.373 393.635 331.842 393.423 330.052C393.188 328.262 393.965 326.496 395.425 325.436C395.566 325.342 395.731 325.225 395.873 325.154C404.845 319.926 424.627 311.259 456.373 312.084C496.266 313.049 528.412 294.68 544.52 261.663C559.027 231.943 557.237 196.618 540.116 175.753C526.504 159.15 505.498 153.992 479.381 160.869C472.457 162.682 464.003 166.45 462.99 174.034C461.836 182.747 470.455 194.004 484.444 202.034C504.556 213.574 514.258 228.481 511.762 244.001C507.947 267.833 476.602 288.063 427.948 298.071L423.285 299.037C397.309 304.336 376.797 308.551 362.29 321.574C361.16 322.681 359.559 323.223 357.91 322.917C297.057 311.377 233.966 326.967 189.08 364.577C147.02 399.831 124.223 451.853 124.93 511.01C124.953 512.683 124.129 514.26 122.716 515.179C106.537 525.965 99.1662 537.81 103.005 546.901C106.914 556.156 123.54 563.315 146.667 558.322C148.762 557.875 150.929 558.817 151.989 560.701C154.32 564.752 166.778 573.394 231.87 566.117C232.035 566.094 232.2 566.094 232.389 566.094C241.62 566.023 247.602 564.116 250.64 560.253C254.384 555.52 254.714 546.806 251.676 533.595C251.252 531.782 251.888 529.874 253.324 528.673C254.761 527.472 256.739 527.189 258.458 527.943C283.939 539.082 311.893 542.356 339.258 537.386C339.517 537.292 339.824 537.269 340.106 537.269Z" fill="#000273"/>
<g opacity="0.3">
<path fill-rule="evenodd" clip-rule="evenodd" d="M371.098 229.612C371.098 230.224 371.145 230.86 371.216 231.472C373.877 255.729 386.547 289.17 381.036 301.651C376.491 311.966 375.172 310.388 367.777 314.015C372.04 286.862 353.812 206.25 325.882 193.698C339.776 159.998 341.095 134.046 325.246 123.589C338.717 123.236 344.628 132.727 347.524 144.313C348.749 125.568 343.144 108.965 330.757 94.4817C334.431 94.6936 337.963 95.4472 341.307 96.6954C339.093 97.5432 337.892 98.0142 335.749 99.0739C359.441 115.747 371.663 162.871 366.317 229.824C368.366 229.847 369.049 229.753 371.098 229.612Z" fill="#000273"/>
</g>
<g opacity="0.3">
<path fill-rule="evenodd" clip-rule="evenodd" d="M203.281 113.298C195.862 111.414 190.634 111.697 187.62 114.099C173.089 91.632 153.213 81.0345 127.991 82.3062C152.46 66.4335 178.694 71.0022 206.672 96.0358C201.279 100.086 200.148 105.833 203.281 113.298Z" fill="#000273"/>
</g>
<g opacity="0.3">
<path fill-rule="evenodd" clip-rule="evenodd" d="M168.85 134.87C162.798 136.613 161.456 136.989 161.456 136.989C150.764 108.07 137.788 97.5903 134.467 113.51C134.679 96.7896 139.719 92.48 149.539 100.605C162.492 108.965 169.651 115.7 171.064 120.811C169.039 126.298 168.309 130.961 168.85 134.87Z" fill="#000273"/>
</g>
<path fill-rule="evenodd" clip-rule="evenodd" d="M224.217 243.388C234.649 244.943 241.455 257.189 239.406 270.73C237.381 284.271 227.278 293.974 216.845 292.419C206.413 290.865 199.607 278.619 201.656 265.078C203.681 251.537 213.784 241.81 224.217 243.388Z" fill="#000072"/>
<path fill-rule="evenodd" clip-rule="evenodd" d="M228.291 257.777C231.329 258.225 233.283 261.969 232.671 266.091C232.059 270.235 229.092 273.226 226.054 272.755C223.016 272.308 221.061 268.563 221.673 264.419C222.286 260.321 225.253 257.33 228.291 257.777Z" fill="white"/>
<path fill-rule="evenodd" clip-rule="evenodd" d="M121.326 226.173C129.734 228.104 134.42 239.032 131.759 250.571C129.122 262.111 120.149 269.906 111.742 267.975C103.334 266.043 98.6478 255.14 101.309 243.577C103.947 232.037 112.919 224.242 121.326 226.173Z" fill="#000072"/>
<path fill-rule="evenodd" clip-rule="evenodd" d="M123.611 238.796C126.06 239.361 127.402 242.682 126.578 246.214C125.777 249.747 123.116 252.149 120.667 251.584C118.218 251.019 116.875 247.698 117.7 244.166C118.524 240.657 121.161 238.231 123.611 238.796Z" fill="white"/>
<path d="M13.8677 261.216C16.3169 261.899 18.5306 262.911 20.7208 264.042C22.9109 265.149 25.0304 266.467 27.0793 267.857C29.1281 269.246 31.1299 270.73 33.0374 272.355C34.9214 274.003 36.7348 275.77 38.2184 277.818C38.3597 278.007 38.3126 278.289 38.1242 278.431C37.9829 278.525 37.8181 278.525 37.6768 278.454C33.3671 276.17 29.0104 274.357 24.6065 272.52C22.4164 271.601 20.1791 270.753 18.0125 269.788C15.8459 268.822 13.6558 267.833 11.654 266.632L11.6069 266.609C10.1939 265.784 9.72293 263.971 10.5472 262.558C11.2066 261.381 12.596 260.862 13.8677 261.216Z" fill="#000273"/>
<path d="M8.63967 275.746C10.5708 276.806 12.5254 278.124 14.4094 279.396L20.085 283.282C21.9925 284.53 23.9472 285.778 25.9489 286.909C27.9507 288.039 30.0231 289.075 32.2368 290.017H32.2603C32.4723 290.111 32.59 290.37 32.4958 290.582C32.4252 290.747 32.2839 290.841 32.119 290.841C29.6463 290.983 27.1735 290.677 24.7243 290.182C22.2987 289.64 19.9437 288.887 17.6593 287.968C15.375 287.05 13.1377 286.014 11.0182 284.766C8.89873 283.494 6.92053 282.175 5.06008 280.385C3.88258 279.255 3.83547 277.371 4.98942 276.193C5.93142 275.204 7.41508 275.016 8.54548 275.652L8.63967 275.746Z" fill="#000273"/>
</svg>
