<svg width="626" height="694" viewBox="0 0 626 694" fill="none" xmlns="http://www.w3.org/2000/svg">
<ellipse cx="313" cy="361.5" rx="313" ry="299.5" fill="#B0A2D7"/>
<path d="M400.873 373.502C415.802 373.882 448.778 443.669 395.019 424.79C395.019 424.79 385.712 389.074 385.691 387.81" fill="#8E8FB3"/>
<g opacity="0.7">
<path d="M421.362 423.926C426.731 398.725 399.42 376.853 398.367 378.897L386.196 390.359C385.86 388.926 385.649 387.999 385.649 387.831L400.852 373.523C400.852 373.523 421.656 382.036 424.204 410.419C424.815 416.909 423.594 421.208 421.362 423.926Z" fill="white"/>
</g>
<path d="M410.749 431.427C406.032 431.427 400.389 430.289 393.882 427.993C392.808 427.613 392.008 426.728 391.713 425.633C382.301 389.517 382.28 388.358 382.259 387.873C382.217 385.998 383.712 384.438 385.607 384.396C387.397 384.396 388.892 385.724 389.06 387.473C389.418 389.58 394.43 409.071 397.841 422.135C408.201 425.527 415.423 425.464 418.75 421.924C422.435 418.026 421.951 408.944 417.508 398.219C412.139 385.323 404.011 376.958 400.789 376.874C398.915 376.832 397.42 375.272 397.462 373.376C397.504 371.501 399.041 369.984 400.957 370.047C409.064 370.258 418.582 383.048 423.783 395.585C429.447 409.218 429.426 420.512 423.699 426.581C420.688 429.826 416.35 431.427 410.749 431.427ZM389.06 387.536C389.06 387.62 389.06 387.683 389.081 387.768C389.081 387.704 389.081 387.62 389.06 387.536Z" fill="#000072"/>
<path d="M223.215 628.78C216.75 630.824 205.464 639.231 199.042 633.036C173.921 616.875 163.455 570.392 167.73 553.324C167.582 543.589 187.629 539.944 193.735 536.13C211.297 561.563 220.499 596.162 223.215 628.78Z" fill="#0096F0"/>
<g opacity="0.3">
<path d="M223.215 628.78L209.865 634.49C196.768 638.726 186.197 619.446 180.196 611.776C207.065 613.124 209.907 603.537 209.907 603.537L219.404 601.282C221.11 610.132 222.352 619.298 223.215 628.78Z" fill="#000072"/>
</g>
<g opacity="0.5">
<path d="M213.297 577.282C208.833 565.103 203.211 553.851 196.283 543.632C190.113 547.488 170.215 551.112 170.278 560.826C169.456 568.643 169.014 582.866 173.542 598.459C166.319 580.043 166.761 562.406 167.73 553.345C167.603 543.653 187.629 539.944 193.735 536.151C202.053 548.436 208.517 562.216 213.297 577.282Z" fill="white"/>
</g>
<path d="M182.596 619.719C171.773 659.291 123.826 662.957 91.2086 654.381C72.9311 647.638 29.9327 647.428 20.436 650.336C84.3019 626.209 68.6144 529.914 164.929 563.291C169.288 577.177 178.3 606.002 182.596 619.719Z" fill="#E81818"/>
<g opacity="0.5">
<path d="M182.596 619.719C182.512 620.141 182.406 620.562 182.322 620.962L166.929 571.803C166.929 571.803 127.153 553.261 95.3989 578.63C69.5409 599.28 66.4876 629.981 42.5458 648.418C29.5747 648.671 21.0045 650.23 20.457 650.336C84.3229 626.209 68.6354 529.914 164.95 563.291L182.596 619.719Z" fill="white"/>
</g>
<path d="M120.562 661.588C110.623 661.588 100.305 660.282 90.3454 657.669C54.359 647.512 21.3838 653.623 21.0469 653.686C19.3202 654.023 17.6146 652.97 17.1303 651.263C16.646 649.556 17.5514 647.786 19.1939 647.154C43.3041 638.03 55.6646 618.139 67.6039 598.901C77.248 583.372 86.3657 568.706 101.021 560.172C117.593 550.522 138.25 550.501 166.024 560.088C167.793 560.699 168.741 562.638 168.13 564.408C167.519 566.178 165.582 567.126 163.813 566.515C107.739 547.193 91.7984 572.815 73.3735 602.504C64.1084 617.423 53.8958 633.858 37.5555 645.152C51.0952 644.52 70.9519 645.152 92.0932 651.116C109.844 655.772 128.838 656.046 144.146 651.832C157.033 648.292 173.584 639.695 179.29 618.835C179.796 617.022 181.649 615.948 183.48 616.454C185.291 616.959 186.365 618.813 185.86 620.647C180.68 639.611 166.888 652.675 145.957 658.427C138.187 660.534 129.532 661.588 120.562 661.588Z" fill="#000072"/>
<path d="M165.54 575.976C125.448 558.761 109.634 613.672 79.396 627.432C97.863 621.384 164.403 648.208 175.816 609.331" fill="#EFDC30"/>
<g opacity="0.3">
<path d="M182.596 619.719C171.773 659.291 123.826 662.957 91.2086 654.381C77.1425 650.42 63.5818 648.861 52.1689 648.481V646.185C82.7648 631.477 164.929 656.488 169.793 592.432C169.793 592.432 171.836 593.465 174.952 595.277L182.596 619.719Z" fill="#000072"/>
</g>
<path d="M204.811 638.705C201.947 638.705 199.168 637.862 196.788 635.607C162.718 608.088 162.697 568.938 164.318 553.177C164.403 543.969 175.521 539.818 184.47 536.467C187.523 535.33 190.408 534.255 191.882 533.286C193.44 532.274 195.504 532.696 196.557 534.234C213.297 558.929 223.131 589.756 226.605 628.485C226.752 630.065 225.784 631.519 224.289 632.025C222.962 632.468 221.193 633.289 219.34 634.174C215.045 636.197 209.781 638.705 204.811 638.705ZM192.598 540.576C190.935 541.314 188.976 542.051 186.87 542.831C180.216 545.317 171.099 548.731 171.141 553.303C171.141 553.43 171.141 553.556 171.12 553.682C169.604 568.243 169.477 604.843 201.189 630.382C201.273 630.445 201.358 630.508 201.421 630.592C204.327 633.416 209.949 631.098 216.435 628.022C217.529 627.516 218.582 627.01 219.593 626.568C216.14 591.505 207.296 563.312 192.598 540.576Z" fill="#000072"/>
<path d="M571.329 450.076C551.283 497.106 524.856 533.222 493.313 560.573V560.594C427.742 617.444 340.06 636.429 241.556 636.935C233.975 636.977 226.816 633.5 222.141 627.516C205.99 606.445 183.67 543.063 199.063 520.727C287.797 410.125 436.922 373.503 563.012 429.068C570.992 432.608 574.783 441.984 571.329 450.076Z" fill="white"/>
<path d="M571.329 450.075C551.283 497.106 524.856 533.222 493.313 560.573C504.031 490.448 473.309 424.685 434.901 403.529C457.39 401.907 585.227 413.643 571.329 450.075Z" fill="#E81818"/>
<g opacity="0.5">
<path d="M571.329 450.075C566.528 461.391 561.327 472.053 555.789 482.125C561.664 468.597 579.457 445.861 559.348 435.873C522.772 419.649 483.964 411.262 445.135 410.356C441.808 407.743 438.375 405.447 434.901 403.529C457.39 401.907 585.227 413.643 571.329 450.075Z" fill="white"/>
</g>
<path d="M289.671 635.038C284.659 643.972 280.785 657.205 272.025 663.337C249.663 680.236 178.764 713.886 220.52 666.181C232.249 651.537 230.206 653.707 234.881 636.028L289.671 635.038Z" fill="#E81818"/>
<path d="M231.385 486.002L195.041 528.102L193.82 527.196L173.773 512.299C169.499 511.077 145.094 503.997 141.409 502.943C129.069 495.8 167.351 477.152 178.027 475.108C198.157 469.44 231.385 486.002 231.385 486.002Z" fill="#E81818"/>
<g opacity="0.5">
<path d="M231.385 486.002L228.058 489.858C198.199 474.687 165.056 478.416 141.577 502.985C128.627 496.137 167.435 477.068 178.048 475.108C198.157 469.44 231.385 486.002 231.385 486.002Z" fill="white"/>
</g>
<path d="M241.429 640.327C232.796 640.327 224.773 636.429 219.446 629.602C219.404 629.538 219.362 629.496 219.32 629.433C203.421 606.423 179.459 548.52 196.094 519.041C196.178 518.873 196.283 518.725 196.41 518.578C285.375 407.406 436.691 369.31 564.38 425.949C574.088 430.247 578.615 441.668 574.467 451.403C544.861 520.874 500.725 569.675 439.534 600.545C387.333 626.884 322.583 639.906 241.556 640.306C241.535 640.327 241.471 640.327 241.429 640.327ZM224.858 625.472C228.922 630.613 234.965 633.5 241.535 633.5C411.043 632.636 514.833 573.932 568.213 448.727C570.908 442.405 567.96 434.967 561.622 432.165C436.838 376.832 288.955 414.044 201.884 522.623C195.841 533.623 195.841 551.891 201.905 574.1C206.896 592.306 215.887 612.45 224.858 625.472Z" fill="#000072"/>
<g opacity="0.25">
<path d="M571.329 450.075C551.283 497.106 524.856 533.222 493.313 560.573V560.594C427.742 617.444 340.06 636.429 241.556 636.935C218.603 635.797 212.265 611.333 204.095 591.568C227.174 578.041 259.517 560.931 259.517 560.931L270.783 579.157C308.812 579.937 344.566 576.861 377.858 569.549C337.976 542.241 358.127 473.78 407.4 474.792C441.092 474.16 466.381 509.517 456.337 541.904C501.546 518.894 540.207 484.653 571.371 437.686C572.972 441.499 573.098 445.945 571.329 450.075Z" fill="#000072"/>
</g>
<path d="M493.313 563.417C493.166 563.417 493.018 563.417 492.871 563.375C491.313 563.143 490.26 561.689 490.491 560.13C495.398 527.996 491.629 494.114 479.879 464.72C469.055 437.664 452.168 416.256 433.532 405.973C432.164 405.215 431.658 403.487 432.416 402.117C433.174 400.748 434.901 400.242 436.27 401C474.488 422.072 507.316 487.687 496.114 560.973C495.903 562.406 494.703 563.417 493.313 563.417Z" fill="#000072"/>
<path d="M459.875 508.379C458.717 576.987 358.907 576.987 357.77 508.379C358.928 439.771 458.717 439.792 459.875 508.379Z" fill="#E81818"/>
<g opacity="0.25">
<path d="M458.464 508.379C456.59 581.138 350.062 574.416 356.695 502.227C363.054 562.511 451.747 562.49 458.106 502.227C458.337 504.249 458.464 506.314 458.464 508.379Z" fill="#000072"/>
</g>
<g opacity="0.5">
<path d="M459.306 516.175C459.706 452.519 366.592 445.735 357.77 508.253C360.002 434.483 468.15 443.227 459.306 516.175Z" fill="white"/>
</g>
<g opacity="0.5">
<path d="M436.059 514.342C435.554 552.629 379.437 553.008 378.742 514.342C379.269 476.056 435.364 475.677 436.059 514.342Z" fill="white"/>
</g>
<path d="M260.275 559.414C235.66 606.887 196.178 611.48 165.624 595.846C190.387 563.544 217.887 549.32 260.275 559.414Z" fill="#E81818"/>
<g opacity="0.5">
<path d="M260.275 559.414C259.496 560.952 258.696 562.448 257.875 563.881C218.372 556.085 194.851 569.886 171.436 598.627C167.498 597.11 165.624 595.825 165.624 595.825C190.387 563.544 217.887 549.321 260.275 559.414Z" fill="white"/>
</g>
<path d="M437.47 508.379C436.965 546.665 380.848 547.045 380.153 508.379C380.7 470.093 436.775 469.714 437.47 508.379Z" fill="#22A7F0"/>
<g opacity="0.55">
<path d="M437.47 508.379C437.47 513.183 436.333 517.735 434.312 521.738L385.67 491.101C388.428 487.245 392.092 484.105 396.346 481.998L437.449 507.894C437.47 508.063 437.47 508.232 437.47 508.379Z" fill="white"/>
</g>
<g opacity="0.55">
<path d="M431.258 526.585C429.447 528.903 427.299 530.946 424.899 532.632L380.405 504.608C380.784 501.594 381.606 498.729 382.806 496.095L431.258 526.585Z" fill="white"/>
</g>
<path d="M213.634 693.995C211.065 693.995 208.939 693.489 207.38 692.352C205.169 690.729 203.022 687.379 205.464 680.573C205.591 680.236 205.759 679.92 205.97 679.646L227.216 651.811L231.638 635.122C232.122 633.31 233.996 632.214 235.807 632.699C237.618 633.184 238.713 635.038 238.229 636.871L233.638 654.213C233.533 654.655 233.323 655.056 233.049 655.414L211.739 683.333C211.002 685.588 211.192 686.662 211.423 686.831C211.592 686.957 215.908 689.781 238.418 679.013C251.137 672.924 264.466 664.875 270.004 660.618C270.088 660.555 270.193 660.492 270.278 660.429C275.331 657.289 279.627 648.144 283.08 640.79C284.365 638.051 285.586 635.459 286.744 633.373C287.65 631.73 289.734 631.14 291.377 632.046C293.019 632.952 293.609 635.038 292.703 636.682C291.65 638.578 290.492 641.064 289.25 643.677C285.439 651.79 280.701 661.862 274.026 666.118C267.161 671.322 230.859 693.995 213.634 693.995Z" fill="#000072"/>
<path d="M195.02 531.515C194.325 531.515 193.609 531.304 192.998 530.841L172.236 515.417C167.856 514.153 140.714 506.293 140.461 506.23C140.187 506.145 139.935 506.04 139.703 505.914C136.629 504.144 135.155 501.341 135.681 498.265C137.618 486.844 169.52 473.401 177.226 471.842C198.389 465.984 231.49 482.293 232.901 482.988C234.586 483.831 235.26 485.875 234.438 487.561C233.596 489.246 231.554 489.921 229.869 489.099C229.553 488.93 197.568 473.19 178.953 478.437C178.869 478.458 178.764 478.479 178.658 478.5C174.636 479.259 165.245 483.009 156.485 487.919C144.63 494.577 142.356 498.728 142.377 499.487C142.377 499.487 142.503 499.656 142.904 499.908C145.43 500.604 152.695 502.69 174.7 509.053C175.1 509.159 175.458 509.348 175.795 509.58L197.062 525.383C198.578 526.5 198.894 528.628 197.757 530.146C197.083 531.031 196.072 531.515 195.02 531.515Z" fill="#000072"/>
<path d="M204.285 607.287C176.848 607.287 164.277 599.027 163.729 598.669C162.95 598.142 162.424 597.321 162.276 596.393C162.129 595.466 162.36 594.518 162.929 593.781C176.469 576.144 189.777 564.976 204.832 558.697C221.215 551.828 239.619 550.985 261.076 556.126C262.086 556.379 262.929 557.054 263.371 558.002C263.813 558.95 263.792 560.046 263.329 560.973C243.514 600.334 210.77 606.929 209.381 607.182C209.212 607.224 209.044 607.224 208.854 607.245C207.296 607.266 205.759 607.287 204.285 607.287ZM170.867 594.708C176.279 597.068 188.471 601.029 208.349 600.418C211.086 599.807 237.66 593.022 255.18 561.774C220.625 554.736 195.02 564.745 170.867 594.708Z" fill="#000072"/>
<path d="M408.812 562.68C383.291 562.68 355.537 545.696 354.927 508.443C355.558 471.083 383.312 454.1 408.812 454.1C434.333 454.1 462.065 471.083 462.696 508.337C462.696 508.379 462.696 508.4 462.696 508.443C462.065 545.696 434.333 562.68 408.812 562.68ZM408.812 459.768C385.986 459.768 361.16 475.003 360.591 508.422C361.16 541.756 385.986 556.991 408.812 556.991C431.637 556.991 456.443 541.777 457.032 508.379C456.443 474.982 431.637 459.768 408.812 459.768Z" fill="#000072"/>
<path d="M408.769 540.092C393.882 540.092 377.71 530.188 377.31 508.443C377.605 487.603 393.355 476.731 408.79 476.688C408.811 476.688 408.832 476.688 408.853 476.688C423.741 476.688 439.912 486.592 440.292 508.337C440.292 508.358 440.292 508.401 440.292 508.422C440.018 529.156 424.246 540.049 408.832 540.092C408.832 540.092 408.79 540.092 408.769 540.092ZM408.853 482.357C408.832 482.357 408.811 482.357 408.811 482.357C396.556 482.378 383.248 490.553 382.995 508.422C383.311 526.248 396.577 534.402 408.769 534.402C408.79 534.402 408.811 534.402 408.832 534.402C421.067 534.381 434.375 526.227 434.627 508.379C434.29 490.49 421.045 482.357 408.853 482.357Z" fill="#000072"/>
<g opacity="0.25">
<path d="M216.498 499.34L193.799 527.196L173.752 512.299L147.242 504.629L146.799 502.985C166.846 494.873 189.461 490.469 216.498 499.34Z" fill="#000072"/>
</g>
<g opacity="0.25">
<path d="M250.8 574.669C216.498 612.534 203.969 604.801 176.827 600.439L174.321 597.552C174.342 597.552 216.645 566.725 250.8 574.669Z" fill="#000072"/>
</g>
<g opacity="0.25">
<path d="M289.671 635.038C286.891 642.666 263.476 662.283 220.52 666.16C232.248 651.516 230.206 653.707 234.88 636.007L289.671 635.038Z" fill="#000072"/>
</g>
<g opacity="0.3">
<path d="M388.344 415.898C388.344 415.898 404.874 455.975 350.673 451.74C296.472 447.505 362.633 510.55 362.633 510.55C362.633 510.55 359.643 548.92 322.204 540.218C284.765 531.515 268.888 519.399 267.372 505.788C265.856 492.176 266.235 476.646 266.235 476.646L249.789 472.853C249.789 472.853 275.205 451.276 322.625 437.664" fill="#000072"/>
</g>
<path d="M409.57 104.593L318.14 70.015C318.14 70.015 325.868 34.194 351.136 7.4968C366.824 -6.11517 382.785 19.7181 391.018 30.4854L391.039 30.5065C403.968 50.5663 409.422 76.9684 409.57 104.593Z" fill="#8E8FB3"/>
<path d="M409.57 104.593L318.14 70.015C318.14 70.015 325.868 34.194 351.136 7.4968C366.824 -6.11517 382.785 19.7181 391.018 30.4854L391.039 30.5065C403.968 50.5663 409.422 76.9684 409.57 104.593Z" fill="#B7B7BC"/>
<g opacity="0.7">
<path d="M407.169 74.8611C401.631 50.4185 390.113 29.8952 370.277 14.8083C346.399 -0.700126 323.552 66.4748 321.846 71.4265L318.14 70.0358C318.14 70.0358 325.868 34.2148 351.136 7.51763C355.727 2.65019 363.223 2.0602 368.551 6.10586C390.703 22.9417 402.494 46.5625 407.169 74.8611Z" fill="#CACACC"/>
<path d="M407.169 74.8611C401.631 50.4185 390.113 29.8952 370.277 14.8083C346.399 -0.700126 323.552 66.4748 321.846 71.4265L318.14 70.0358C318.14 70.0358 325.868 34.2148 351.136 7.51763C355.727 2.65019 363.223 2.0602 368.551 6.10586C390.703 22.9417 402.494 46.5625 407.169 74.8611Z" fill="white"/>
</g>
<path d="M246.188 453.405C104.791 542.009 64.7612 297.288 196.41 336.291C203.948 340.779 210.581 347.838 215.403 357.763L212.981 369.584C157.117 361.871 176.069 443.185 221.341 429.763L246.188 453.405Z" fill="#8E8FB3"/>
<g opacity="0.7">
<path d="M214.919 356.836C198.663 334.711 171.036 333.489 149.853 346.448C148.673 359.807 141.072 366.044 129.175 367.477C116.204 386.778 119.109 422.135 130.101 441.963C80.3646 374.557 165.982 282.644 214.919 356.836Z" fill="white"/>
</g>
<path d="M347.831 71.4686C347.831 71.4686 351.537 42.4958 362.234 25.7864C364.15 22.7942 368.424 22.4992 370.677 25.2385C384.301 41.8215 391.482 64.3677 393.756 91.423" fill="#F27E80"/>
<g opacity="0.3">
<path d="M393.756 91.4232L390.703 90.0957C386.997 72.417 380.532 57.309 370.677 45.2984C359.686 36.1535 354.063 66.2432 351.494 73.0491L347.831 71.4688C347.831 71.4688 351.537 42.4749 362.234 25.7865C364.15 22.7944 368.424 22.4994 370.677 25.2597C384.28 41.8427 391.461 64.3678 393.756 91.4232Z" fill="#000072"/>
</g>
<path d="M501.863 265.07C484.722 304.642 443.135 326.156 403.526 341.137C402.916 358.226 399.862 374.219 395.019 389.39C395.019 389.39 400.284 392.53 403.526 397.945C407.338 404.267 408.348 413.685 395.019 424.79C372.888 441.773 353.453 428.456 339.976 416.087C354.295 434.757 351.958 458.651 352.189 479.09C354.653 480.081 356.78 481.303 358.633 482.693V482.715C402.179 536.214 274.994 542.831 277.606 489.31V461.496C200.263 456.649 189.672 367.835 251.137 285.509C217.109 259.782 214.835 201.119 214.835 201.119C176.658 170.018 162.613 133.628 157.391 113.527C156.844 108.343 159.455 103.244 164.172 100.715C203.569 79.4756 254.548 92.8979 254.548 92.8979C316.014 51.9145 388.26 67.8022 427.237 125.579C459.517 168.227 476.51 209.527 428.079 259.508C446.335 250.763 459.959 240.333 473.73 228.87C498.999 213.509 508.79 246.022 501.863 265.07Z" fill="#8E8FB3"/>
<g opacity="0.7">
<path d="M458.632 196.041C457.158 172.526 437.217 149.39 427.215 132.744C408.432 104.845 377.121 82.9524 344.103 78.0007C331.49 85.4178 318.856 85.7128 306.222 78.9068C289.187 82.236 271.941 89.3791 254.506 100.062C259.475 100.8 181.269 83.0999 157.791 115.781C156.106 109.881 158.738 103.602 164.129 100.694C203.527 79.4546 254.506 92.877 254.506 92.877C315.971 51.9146 388.218 67.7812 427.194 125.558C438.481 144.312 460.843 169.281 458.632 196.041Z" fill="white"/>
</g>
<path d="M430.521 257C429.932 257.633 429.321 258.244 428.689 258.855C429.111 258.433 429.742 257.801 430.521 257Z" fill="white"/>
<path d="M501.862 265.071C490.892 289.998 470.93 307.74 446.188 321.689C447.999 271.603 428.037 259.508 428.037 259.508C446.272 250.742 459.938 240.333 473.709 228.849C498.346 213.573 508.98 245.285 501.862 265.071Z" fill="white"/>
<path d="M395.019 424.79C365.413 447.947 339.976 414.886 319.277 399.82C359.075 388.084 358.633 355.782 358.633 355.782L403.547 397.945C407.338 404.266 408.348 413.685 395.019 424.79Z" fill="white"/>
<path d="M360.128 517.693C317.571 541.251 276.616 515.459 277.584 489.31V468.302C277.584 468.302 332.48 482.209 351.747 450.097C352.526 453.826 352.084 475.066 352.189 479.091C371.751 486.95 370.909 510.023 360.128 517.693Z" fill="white"/>
<path d="M259.37 290.609C259.37 290.609 248.652 277.081 269.835 268.041C291.019 259.023 297.925 229.27 322.415 215.911C336.965 191.701 356.864 176.866 393.145 190.647C393.145 190.647 447.599 173.242 457.959 203.163C452.589 217.218 437.87 264.944 398.262 280.115C403.231 302.451 407.401 365.222 393.145 387.81C371.456 369.899 351.705 349.819 333.975 327.546C333.975 327.546 335.639 312.459 333.87 299.943C307.254 303.462 282.154 301.46 259.37 290.609Z" fill="white"/>
<path d="M325.805 530.42C314.581 530.42 303.779 527.533 294.346 521.717C281.269 513.689 273.731 501.552 274.173 489.268V464.657C246.63 462.044 225.868 448.369 215.466 425.886C207.17 407.933 205.696 385.282 211.255 360.439C216.729 335.933 228.858 310.31 246.42 286.163C216.624 261.067 212.097 212.393 211.486 202.826C175.184 173.39 160.234 136.368 154.548 116.793C152.4 109.397 155.748 101.369 162.529 97.7023C199.315 77.8743 244.946 87.1246 253.895 89.2106C315.466 49.0279 389.313 63.3563 429.995 123.557C457.916 160.368 478.068 200.719 442.924 247.476C452.715 241.387 461.643 234.496 471.561 226.236C471.688 226.131 471.814 226.047 471.94 225.962C484.68 218.061 493.208 222.233 497.145 225.436C507.632 233.927 509.716 253.397 505.084 266.229C505.063 266.293 505.021 266.377 505 266.44C486.701 308.014 443.324 329.506 406.853 343.519C406.116 358.648 403.547 373.292 398.978 388.168C406.937 394.806 410.433 402.918 408.832 411.178C406.811 421.65 396.956 430.627 383.732 434.061C372.383 437.011 360.844 435.326 350.841 429.594C356.085 442.722 355.811 453.046 355.495 463.814C355.39 467.986 355.263 472.263 355.474 476.815C364.234 481.029 369.814 488.636 370.93 497.97C372.004 507.073 368.55 515.902 362.107 520.474C362.002 520.537 361.896 520.622 361.791 520.685C350.062 527.154 337.702 530.42 325.805 530.42ZM217.719 92.1606C201.611 92.1606 182.491 94.668 165.751 103.708C161.792 105.836 159.812 110.556 161.076 114.896C166.614 133.903 181.227 170.061 216.919 198.486C217.698 199.097 218.161 200.024 218.203 201.014C218.225 201.583 220.836 258.37 253.158 282.812C254.653 283.95 254.948 286.057 253.832 287.575C218.267 335.217 205.632 388.379 221.636 423.02C231.469 444.302 250.884 456.418 277.774 458.104C279.564 458.209 280.974 459.705 280.974 461.496V489.31C280.974 489.352 280.974 489.394 280.974 489.436C280.616 499.108 287.102 509.264 297.925 515.902C315.192 526.522 337.744 526.121 358.296 514.806C362.57 511.666 364.908 505.24 364.149 498.771C363.265 491.291 358.443 485.264 350.926 482.251C349.704 481.766 348.883 480.629 348.799 479.322C348.399 473.675 348.546 468.555 348.694 463.624C349.094 449.443 349.431 437.201 336.944 417.731C335.975 416.214 336.354 414.212 337.786 413.159C339.239 412.084 341.261 412.337 342.419 413.707C352.821 426.075 367.624 431.217 382.027 427.466C392.555 424.727 400.641 417.668 402.157 409.872C403.379 403.592 400.22 397.44 393.019 392.109C391.839 391.245 391.355 389.728 391.797 388.337C396.851 372.555 399.567 357.067 400.157 340.99C400.199 339.62 401.062 338.419 402.347 337.935C440.165 323.585 481.184 303.547 498.725 263.785C502.894 252.07 500.178 236.624 492.871 230.704C488.407 227.079 482.637 227.374 475.73 231.61C463.623 241.682 449.072 253.186 429.552 262.542C428.057 263.258 426.289 262.795 425.32 261.467C424.351 260.119 424.499 258.286 425.657 257.106C470.972 210.559 457.979 171.662 424.541 127.602C424.499 127.56 424.457 127.497 424.436 127.455C385.691 70.0148 315.045 56.6557 256.443 95.7005C255.643 96.2484 254.632 96.3959 253.685 96.1641C253.369 96.1009 237.892 92.1606 217.719 92.1606Z" fill="#000072"/>
<path d="M400.684 278.704C410.265 272.825 418.708 265.429 425.678 257.063C428.605 253.713 433.617 257.864 430.9 261.362C428.163 265.576 422.246 261.657 425.152 257.59C425.299 257.401 425.468 257.232 425.657 257.084L430.437 261.931C421.362 269.2 411.254 274.869 400.684 278.704Z" fill="#000072"/>
<path d="M341.977 413.264C343.43 414.697 343.451 417.12 341.829 418.427C340.692 419.375 339.134 419.459 337.913 418.743C334.986 417.036 332.354 415.182 329.742 413.222C327.468 411.557 324.331 408.903 322.162 407.048C312.476 398.367 303.569 388.737 295.988 378.16C293.293 374.367 290.408 369.942 288.197 365.854C287.418 364.442 286.681 363.009 285.923 361.577C293.756 371.733 302.558 380.962 312.139 389.391C320.309 396.744 332.901 406.184 341.682 413.054L337.534 418.427L337.26 418.153C333.512 414.802 338.607 409.598 341.977 413.264Z" fill="#000072"/>
<path d="M231.427 114.833C218.856 133.354 215.656 155.416 215.55 178.025C215.887 178.931 183.165 149.263 177.121 120.164C176.342 117.003 178.132 113.737 181.248 112.768C189.271 110.26 206.327 107.226 231.427 114.833Z" fill="#F27E80"/>
<path d="M215.55 180.87C214.898 180.87 214.266 180.638 213.739 180.217C212.476 179.163 182.449 153.941 174.363 120.838C173.226 116.203 175.879 111.462 180.406 110.05C188.682 107.458 206.412 104.276 232.27 112.115C233.133 112.368 233.828 113.042 234.123 113.885C234.417 114.749 234.291 115.676 233.786 116.435C223.341 131.711 218.456 151.286 218.393 178.047C218.393 179.142 217.761 180.154 216.751 180.617C216.372 180.786 215.971 180.87 215.55 180.87ZM201.105 112.831C192.451 112.831 186.092 114.222 182.091 115.465C180.427 115.992 179.438 117.762 179.859 119.49C185.67 143.3 204.158 163.339 212.813 171.683C213.55 148.695 218.098 130.932 226.963 116.498C216.856 113.78 208.222 112.831 201.105 112.831Z" fill="#000072"/>
<path d="M253.305 282.897C262.613 289.682 273.962 293.264 285.186 295.497C290.913 296.614 296.83 297.541 302.642 298.194C305.064 298.447 310.812 298.679 313.318 298.869C315.613 298.848 321.804 298.806 324.057 298.785C326.605 298.658 332.248 298.258 334.817 298.11C343.219 297.373 355.053 295.434 363.434 293.833C355.39 296.446 347.156 298.89 338.839 300.597C334.712 301.566 328.563 302.388 324.394 303.104C322.12 303.315 315.761 303.863 313.381 304.073L305.99 304.242C303.863 304.368 300.747 304.221 298.578 304.094C296.114 303.947 293.609 303.968 291.166 303.568C281.227 302.472 271.562 299.648 262.36 295.729C257.58 293.643 253.116 291.325 248.926 288.101C245.409 285.173 249.726 279.947 253.305 282.897Z" fill="#000072"/>
<path d="M392.829 392.024C382.469 383.427 372.488 374.388 362.739 365.116C346.988 349.187 333.301 331.002 322.183 311.638C336.376 328.937 351.852 344.572 367.793 359.996C377.037 369.457 386.975 378.37 397.167 386.799C400.557 389.706 396.367 394.806 392.829 392.024Z" fill="#000072"/>
<path d="M313.887 399.462C304.221 393.078 292.261 389.98 280.68 391.371C285.017 390.001 289.608 389.222 294.177 389.116C302.074 389.032 309.991 390.423 317.277 393.562C317.319 393.584 313.887 399.462 313.887 399.462Z" fill="#000072"/>
<path d="M352.232 482.504C344.504 482.103 337.429 487.35 332.417 492.913C334.333 489.057 336.692 485.496 339.808 482.462C343.177 479.28 347.41 476.456 352.105 475.698C356.611 475.719 356.738 482.314 352.232 482.504Z" fill="#000072"/>
<path d="M400.115 341.159C400.957 320.994 401.105 300.66 398.22 280.6C402.136 295.35 404.137 310.627 405.674 325.84C406.158 330.939 406.6 335.996 406.916 341.159C407.022 343.034 405.59 344.656 403.716 344.762C401.694 344.888 399.989 343.181 400.115 341.159Z" fill="#000072"/>
<path d="M486.007 264.08C486.175 281.211 466.255 281.211 466.445 264.08C466.255 246.949 486.196 246.949 486.007 264.08Z" fill="#000072"/>
<path d="M483.796 239.385C483.859 245.221 476.152 245.221 476.236 239.385C476.152 233.569 483.859 233.569 483.796 239.385Z" fill="#000072"/>
<path d="M493.713 245.011C495.945 252.028 487.67 254.577 485.585 247.518C483.353 240.481 491.629 237.931 493.713 245.011Z" fill="#000072"/>
<path d="M497.209 257.611C497.272 262.9 490.428 262.9 490.492 257.611C490.45 252.322 497.272 252.322 497.209 257.611Z" fill="#000072"/>
<path d="M273.036 228.175C267.014 208.136 278.111 185.148 301.442 188.055C307.906 188.983 313.823 191.996 318.14 196.379C312.328 194.398 306.622 193.218 301.105 193.386C281.122 193.997 275.837 211.149 273.036 228.175Z" fill="#000072"/>
<path d="M382.532 171.978C378.195 151.771 399.252 134.029 417.382 147.367C422.162 150.844 425.678 155.606 428.036 160.916C424.646 158.366 421.551 155.901 418.013 153.772C400.704 142.858 387.312 154.405 382.532 171.978Z" fill="#000072"/>
<path d="M371.583 192.501C367.098 192.354 340.734 203.796 348.462 210.496C350.673 211.255 361.77 216.185 368.361 212.667C371.098 208.768 380.132 193.302 371.583 192.501Z" fill="#000072"/>
<path d="M372.867 249.878C365.898 249.878 358.675 245.854 352.884 238.416L358.254 234.222C364.023 241.64 371.246 244.674 377.142 242.187C383.501 239.49 386.512 231.146 384.996 220.421L391.734 219.473C394.072 236.119 387.102 245.348 379.795 248.446C377.563 249.415 375.226 249.878 372.867 249.878Z" fill="#000072"/>
<path d="M388.386 219.957C392.092 246.338 370.341 255.272 355.58 236.308C363.413 233.99 368.677 229.355 371.457 222.486C377.353 223.497 383.038 222.97 388.386 219.957Z" fill="#000072"/>
<path d="M340.84 227.037C346.567 241.049 365.856 230.556 368.382 219.704C368.888 218.082 370.614 217.155 372.236 217.66C377.647 219.978 383.901 219.009 388.892 215.848C394.451 212.35 396.957 205.966 392.872 200.213C396.114 202.131 398.304 205.945 398.01 209.885C397.02 222.465 380.743 230.956 369.92 224.108L374.826 221.516C374.363 230.303 366.235 236.856 358.17 238.521C349.979 240.586 340.356 236.582 340.84 227.037Z" fill="#000072"/>
<path d="M371.477 224.487C370.193 224.487 368.972 223.771 368.382 222.528L363.56 212.224C362.76 210.517 363.497 208.494 365.202 207.694C366.908 206.893 368.93 207.63 369.73 209.337L374.552 219.641C375.352 221.348 374.615 223.371 372.909 224.171C372.446 224.382 371.962 224.487 371.477 224.487Z" fill="#000072"/>
<path d="M366.634 245.411C369.709 237.762 375.52 233.801 385.775 235.908C385.775 235.908 394.893 246.549 396.367 252.238C397.841 257.927 389.902 273.204 379.963 266.335C370.045 259.445 366.634 245.411 366.634 245.411Z" fill="#FF67A0"/>
<path d="M385.038 271.455C382.659 271.455 380.279 270.675 378.026 269.137C367.161 261.615 363.476 246.844 363.328 246.233C363.16 245.537 363.223 244.821 363.476 244.147C367.435 234.307 375.394 230.303 386.47 232.579C387.207 232.726 387.881 233.127 388.365 233.695C389.355 234.854 398.03 245.116 399.652 251.374C401.041 256.747 397.209 265.429 391.755 269.243C389.65 270.696 387.354 271.455 385.038 271.455ZM370.256 245.643C371.225 248.825 374.678 258.517 381.922 263.511C384.048 264.986 385.902 265.028 387.881 263.638C391.566 261.067 393.608 255.041 393.082 253.06C392.219 249.752 387.333 243.072 383.964 239.005C377.184 237.91 372.888 239.996 370.256 245.643Z" fill="#000072"/>
<path d="M375.941 235.423L383.669 252.491L371.183 238.521L375.941 235.423Z" fill="#000072"/>
<path d="M409.591 108.006C407.717 108.006 406.201 106.51 406.18 104.635C405.758 60.1534 392.766 28.7995 366.508 8.80298C362.571 5.78981 357.012 6.25337 353.621 9.83547C329.343 35.5002 321.552 70.394 321.467 70.7311C321.067 72.5643 319.256 73.7443 317.424 73.344C315.592 72.9436 314.413 71.1315 314.813 69.2983C315.129 67.8023 323.047 32.2341 348.673 5.15767C354.464 -0.974039 363.897 -1.7326 370.635 3.38769C398.704 24.7539 412.56 57.8567 413.002 104.593C413.023 106.468 411.507 108.006 409.633 108.027C409.612 108.006 409.591 108.006 409.591 108.006Z" fill="#000072"/>
<path d="M393.756 94.2677C392.303 94.2677 391.06 93.1509 390.934 91.6759C388.576 63.7356 381.248 42.6012 368.487 27.0507C367.834 26.25 366.971 26.1657 366.529 26.2078C365.75 26.25 365.055 26.6714 364.613 27.3246C354.379 43.2755 350.673 71.553 350.631 71.8269C350.441 73.3862 349.01 74.4819 347.451 74.2711C345.893 74.0815 344.798 72.6487 344.988 71.0894C345.135 69.8883 348.904 41.2737 359.833 24.2271C361.223 22.0357 363.602 20.645 366.192 20.4975C368.782 20.35 371.225 21.4036 372.867 23.4054C386.365 39.8619 394.114 62.0077 396.577 91.1492C396.704 92.7084 395.545 94.078 393.987 94.2255C393.903 94.2677 393.819 94.2677 393.756 94.2677Z" fill="#000072"/>
<path d="M192.114 475.045C180.427 475.045 168.804 472.916 158.339 468.512C131.365 457.176 115.088 432.86 112.498 400.073C108.518 361.239 133.449 335.891 158.296 328.811C183.27 321.689 206.875 332.456 218.435 356.245C218.772 356.92 218.856 357.678 218.709 358.416L216.287 370.237C215.908 372.049 214.182 373.229 212.371 372.913C200.158 370.763 190.64 373.903 185.586 381.784C179.817 390.76 180.68 404.604 187.629 414.676C191.819 420.765 201.695 430.395 220.625 426.412C222.457 426.033 224.268 427.213 224.647 429.046C225.026 430.879 223.847 432.691 222.015 433.092C205.38 436.59 190.787 431.301 182.028 418.553C173.458 406.121 172.573 389.475 179.859 378.117C183.481 372.47 192.156 363.683 210.265 365.748L211.802 358.226C199.505 334.078 177.142 330.538 160.149 335.385C137.955 341.706 115.677 364.463 119.257 399.483C121.636 429.678 136.439 451.951 160.95 462.254C187.692 473.506 222.605 468.681 243.977 450.792C245.409 449.591 247.557 449.78 248.778 451.213C249.979 452.667 249.789 454.795 248.357 456.017C233.554 468.407 212.75 475.045 192.114 475.045Z" fill="#000072"/>
<g opacity="0.3">
<path d="M231.427 114.833C225.363 123.725 221.383 133.713 218.92 144.459C216.835 114.011 181.838 123.873 180.28 125.706L178.216 124.189C170.004 105.983 206.706 107.838 231.427 114.833Z" fill="#000072"/>
</g>
<g opacity="0.3">
<path d="M320.414 62.1342C320.414 62.1342 345.367 61.8182 354.168 39.1245L347.22 68.9402L321.551 67.2334" fill="#000072"/>
</g>
<g opacity="0.3">
<path d="M409.506 100.652L393.103 88.1572L390.576 69.5724C404.326 62.5347 391.018 30.4644 391.018 30.4644L391.039 30.4854C403.379 49.8498 408.812 73.7024 409.506 100.652Z" fill="#000072"/>
</g>
<g opacity="0.3">
<path d="M360.128 517.693C317.572 541.25 276.616 515.459 277.585 489.31V461.496C200.242 456.65 189.651 367.835 251.116 285.51C217.088 259.782 214.814 201.12 214.814 201.12C176.637 170.019 162.592 133.629 157.349 113.527C157.897 114.517 186.429 165.762 215.551 178.026L218.014 154.953C235.302 260.625 303.611 294.676 414.371 269.116C414.371 269.116 370.341 298.3 326.037 300.807C281.733 303.315 280.617 300.807 280.617 300.807C280.617 300.807 224.668 381.405 272.952 425.549C329.659 432.313 276.827 490.659 319.277 505.408C344.525 514.869 365.055 496.369 358.633 482.715C371.393 492.492 369.54 510.992 360.128 517.693Z" fill="#000072"/>
</g>
<g opacity="0.3">
<path d="M501.862 265.071C485.206 303.526 445.408 324.997 406.811 339.852C406.285 339.389 406.011 339.157 406.011 339.157L401.61 314.272C454.21 298.11 486.764 270.507 497.209 230.282C504.178 238.331 505.968 253.671 501.862 265.071Z" fill="#000072"/>
</g>
<g opacity="0.3">
<path d="M405.485 410.44C379.858 439.224 297.862 343.265 293.84 338.103C293.84 338.103 264.318 362.23 289.671 390.275C289.671 390.275 304.158 386.588 312.286 393.373C320.414 400.158 355.306 427.698 355.306 427.698C355.306 427.698 388.155 444.26 405.485 410.44Z" fill="#000072"/>
</g>
<g opacity="0.3">
<path d="M215.403 357.763L212.982 369.583C173.394 362.588 169.457 407.912 192.704 424.685C153.559 424.958 150.148 369.9 176.258 361.576C202.348 353.253 196.431 336.291 196.431 336.291C203.948 340.779 210.581 347.817 215.403 357.763Z" fill="#000072"/>
</g>
<g opacity="0.3">
<path d="M246.188 453.405C207.233 486.002 122.142 479.091 115.909 399.821C143.514 449.97 168.509 445.988 192.682 424.685C199.779 429.826 209.402 432.27 221.341 429.763L246.188 453.405Z" fill="#000072"/>
</g>
</svg>
