<svg width="696" height="605" viewBox="0 0 696 605" fill="none" xmlns="http://www.w3.org/2000/svg">
<ellipse cx="329" cy="299.5" rx="313" ry="299.5" fill="#B0A2D7"/>
<path d="M661.935 464.368C658.317 497.076 644.256 528.147 617.979 549.1C603.158 560.924 584.441 569.545 561.507 573.417C561.852 572.357 562.129 571.274 562.313 570.167C570.058 523.86 501.346 516.668 430.214 524.39C386.788 496.016 369.569 422.279 397.368 368.157C406.288 350.778 419.864 335.426 438.696 324.247C458.035 312.768 482.906 305.669 513.978 305.3C525.088 295.619 549.521 281.697 587.576 298.592C592.762 300.897 597.119 304.747 600 309.633C603.435 315.488 605.901 322.541 607.238 330.102C634.529 347.942 652.831 380.028 659.746 415.225C662.95 431.314 663.733 448.049 661.935 464.368Z" fill="white"/>
<g opacity="0.3">
<path d="M661.935 464.368C658.317 497.076 644.256 528.147 617.979 549.1C603.158 560.924 584.441 569.545 561.507 573.418C561.852 572.357 562.129 571.274 562.313 570.168C570.058 523.86 501.346 516.668 430.214 524.39C386.788 496.016 369.569 422.279 397.368 368.157C406.288 350.778 419.864 335.426 438.696 324.247C351.452 413.727 430.076 509.477 550.535 523.929C614.499 535.132 670.925 481.771 658.639 414.995L659.769 415.202C662.95 431.314 663.733 448.049 661.935 464.368Z" fill="#000072"/>
</g>
<path d="M607.261 330.102C611.064 351.308 606.339 376.525 591.195 390.493C547.193 384.638 524.396 362.095 520.962 324.385C520.962 324.385 499.595 321.666 515.845 303.733C532.095 285.823 580.684 288.819 597.695 306.268C597.695 306.268 606.016 316.779 607.261 330.102Z" fill="#FFAD40"/>
<g opacity="0.3">
<path d="M590.319 389.57C547.239 383.831 524.488 362.141 520.339 325.837C528.891 352.299 550.719 368.364 586.862 373.182C600.807 360.297 605.947 337.869 603.665 317.839C604.956 321.204 606.016 325.054 606.408 329.179C610.211 350.409 605.463 375.602 590.319 389.57Z" fill="#000072"/>
</g>
<g opacity="0.3">
<path d="M603.665 317.839C600.807 310.348 596.819 305.369 596.819 305.369C596.819 305.369 597.326 305.876 598.779 307.375C598.986 307.582 599.17 307.766 599.355 307.951L599.654 308.25C599.724 308.32 599.77 308.366 599.839 308.435C600.623 309.242 601.96 310.602 602.282 310.947C602.351 311.039 602.444 311.109 602.513 311.178L602.766 311.431C602.766 311.454 602.812 311.477 602.812 311.5C602.881 311.938 602.928 312.376 602.974 312.814C603.227 314.451 603.481 316.133 603.665 317.839Z" fill="#3E1C5F"/>
</g>
<g opacity="0.66">
<path d="M601.337 376.801C605.74 364.4 606.593 350.04 604.265 337.178C603.02 323.855 594.676 313.367 594.676 313.367C577.665 295.919 529.076 292.922 512.848 310.832C511.627 312.169 510.612 313.437 509.806 314.612C510.059 311.823 511.765 308.273 515.868 303.779C532.118 285.846 580.707 288.865 597.718 306.314C597.718 306.314 606.062 316.802 607.307 330.125C610.027 345.522 608.275 363.017 601.337 376.801Z" fill="white"/>
</g>
<path d="M525.152 488.379C539.626 473.904 539.626 450.437 525.152 435.962C510.678 421.488 487.21 421.488 472.736 435.962C458.261 450.437 458.261 473.904 472.736 488.379C487.21 502.853 510.678 502.853 525.152 488.379Z" fill="#FFAD40"/>
<path d="M611.18 329.41C613.162 340.635 612.908 352.16 610.35 363.294C609.036 368.849 607.123 374.311 604.426 379.452C601.729 384.592 598.248 389.409 593.892 393.443C593.039 394.227 591.956 394.572 590.872 394.48L590.642 394.457C581.629 393.697 572.594 391.714 563.973 388.418C555.375 385.122 547.193 380.235 540.439 373.781C533.639 367.373 528.453 359.375 525.272 350.847C522.114 342.272 520.847 333.259 520.939 324.408C522.667 333.098 525.203 341.534 529.214 349.095C533.201 356.655 538.641 363.224 545.164 368.388C551.664 373.574 559.202 377.308 567.085 380.166C574.991 383.024 583.289 384.868 591.702 386.551L588.475 387.565C592.071 384.223 595.045 380.166 597.373 375.718C599.701 371.269 601.429 366.428 602.582 361.45C604.887 351.469 605.117 340.912 603.343 330.793V330.77C602.951 328.603 604.403 326.529 606.57 326.16C608.736 325.791 610.788 327.243 611.18 329.41Z" fill="#000072"/>
<path d="M507.039 316.64C506.256 316.64 505.449 316.41 504.758 315.926C502.96 314.658 502.522 312.192 503.789 310.394C503.905 310.232 506.44 306.637 511.396 302.326C513.056 300.874 515.568 301.058 517.02 302.718C518.472 304.378 518.288 306.89 516.628 308.342C512.479 311.984 510.336 314.958 510.313 315.004C509.506 316.041 508.284 316.64 507.039 316.64Z" fill="#000072"/>
<path d="M562.313 570.168C562.129 571.274 561.852 572.357 561.507 573.418C560.815 575.584 559.801 577.59 558.51 579.388C558.51 579.388 558.51 579.388 558.51 579.411C554.984 584.413 549.452 587.87 543.113 588.654C490.605 595.2 448.308 594.186 422.146 581.301C380.864 604.374 293.412 607.762 235.741 583.214C204.693 598.012 161.013 599.764 133.929 581.969C122.819 573.694 121.989 559.449 128.789 546.034C130.656 542.369 133.076 538.75 136.05 535.362V535.339H136.073V535.316C147.068 522.615 165.254 512.704 187.889 512.727C178.116 466.005 193.398 437.469 196.648 432.052C179.614 458.214 153.107 535.016 102.166 554.355C110.441 557.352 116.711 561.57 119.615 567.033C119.615 567.033 119.615 567.033 119.615 567.056C120.698 569.107 121.321 571.366 121.367 573.787C119.846 584.758 100.829 593.102 61.3678 588.008C25.3637 585.242 3.71972 568.416 4.82612 552.719C5.70202 540.433 20.454 528.862 53.0928 525.197C63.788 523.999 74.368 521.97 84.6252 518.697C84.9479 518.582 85.2706 518.49 85.5933 518.374C115.558 508.624 140.268 487.118 154.743 459.136C171.939 425.944 189.549 396.255 210.063 388.603C267.135 346.928 330.269 344.831 397.345 368.111C369.546 422.233 386.765 495.97 430.191 524.344C501.323 516.646 570.058 523.86 562.313 570.168Z" fill="white"/>
<path d="M50.4192 586.694C33.5696 575.169 38.1335 550.16 65.6783 548.823C65.6783 548.823 92.8312 546.679 109.565 557.674C126.3 568.669 129.435 583.26 89.3737 587.893C89.3737 587.916 68.0985 589.529 50.4192 586.694Z" fill="#FFAD40"/>
<path d="M51.0646 549.423C51.0646 549.423 15.6598 552.189 14.7609 568.254C14.7609 568.254 2.68269 560.556 7.63844 548.086C12.5942 535.616 41.6833 525.727 50.9955 526.442C50.9955 526.442 60.3077 533.265 63.8113 548.293L51.0646 549.423Z" fill="#FFAD40"/>
<path d="M85.2935 520.979C85.2935 520.979 100.437 525.635 94.1446 549.653L102.258 552.142C102.258 552.142 127.913 542.738 137.133 527.156C137.133 527.156 137.686 502.954 122.22 502.078C122.197 502.078 104.01 512.635 85.2935 520.979Z" fill="#FFAD40"/>
<path d="M138.401 485.897C138.401 485.897 154.098 491.751 155.135 503.092L174.451 468.748L183.763 450.169C183.763 450.169 179.545 434.564 166.107 438.114C166.107 438.114 149.903 473.335 137.594 486.058" fill="#FFAD40"/>
<path d="M378.928 362.372C375.032 488.57 206.375 519.941 216.54 385.675C271.445 351.469 325.567 343.747 378.928 362.372Z" fill="#FFAD40"/>
<path d="M266.129 552.179C280.961 542.322 287.186 525.607 280.035 514.847C272.883 504.086 255.061 503.354 240.23 513.211C225.398 523.069 219.172 539.783 226.324 550.544C233.476 561.305 251.297 562.037 266.129 552.179Z" fill="#FFAD40"/>
<g opacity="0.66">
<path d="M397.368 368.157C396.169 370.462 395.063 372.836 394.048 375.211C328.794 353.682 267.296 356.678 211.608 397.339C191.093 404.968 173.46 434.657 156.288 467.872C141.812 495.854 117.103 517.36 87.1377 527.11C86.815 527.225 86.4923 527.318 86.1696 527.433C75.9123 530.706 65.3324 532.734 54.6372 533.933C22.2058 537.575 7.43075 549.031 6.3935 561.201C-0.1066 546.195 12.9858 529.738 53.1158 525.243C63.811 524.044 74.391 522.016 84.6483 518.743C84.971 518.628 85.2936 518.535 85.6163 518.42C115.581 508.67 140.291 487.164 154.766 459.182C171.962 425.99 189.572 396.301 210.086 388.649C267.158 346.974 330.292 344.877 397.368 368.157Z" fill="white"/>
</g>
<path d="M561.506 577.405C560.354 577.405 559.248 576.898 558.487 576.022C557.588 574.962 557.288 573.51 557.726 572.196C558.003 571.32 558.233 570.421 558.395 569.499C560.077 559.403 557.888 551.29 551.687 544.743C535.621 527.709 491.504 521.739 430.675 528.378C429.753 528.47 428.831 528.263 428.07 527.755C406.288 513.511 389.945 487.648 383.215 456.808C376.438 425.69 380.31 392.729 393.841 366.382C414.839 325.469 456.952 302.419 512.525 301.381C524.88 291.101 550.442 277.778 589.236 294.997C595.252 297.67 600.184 302.05 603.481 307.674C606.846 313.39 609.381 320.305 610.88 327.774C649.396 353.958 671.985 410.039 665.9 464.852C661.889 501.064 645.754 532.089 620.468 552.258C604.356 565.119 584.741 573.579 562.175 577.382C561.944 577.382 561.714 577.405 561.506 577.405ZM475.668 517.775C507.593 517.775 541.476 522.339 557.45 539.257C564.849 547.094 567.914 556.891 566.577 568.393C585.386 564.428 601.821 556.914 615.49 545.988C639.116 527.156 654.214 497.998 657.971 463.93C663.802 411.284 642.043 357.646 605.071 333.444C604.149 332.845 603.527 331.9 603.319 330.816C602.028 323.625 599.7 317.009 596.566 311.662C594.145 307.559 590.388 304.217 585.963 302.234C550.005 286.261 527.07 299.169 516.605 308.296C515.891 308.919 514.992 309.264 514.047 309.288C460.87 309.933 420.694 331.485 400.917 369.978C374.894 420.642 389.369 491.797 431.228 520.264C443.813 518.95 459.51 517.775 475.668 517.775Z" fill="#000072"/>
<path d="M329.255 604.143C294.795 604.143 261.903 598.311 235.833 587.547C206.03 601.123 161.266 604.673 131.739 585.288C131.67 585.242 131.601 585.196 131.555 585.15C128.651 582.983 126.3 580.402 124.525 577.52C120.353 588.469 101.959 597.297 60.9759 592.019C21.8601 588.976 1.09204 570.721 0.815436 554.263C0.515786 537.275 19.9008 524.943 52.6549 521.278C63.9724 520.011 74.0453 517.936 83.4036 514.94L84.3256 514.64C113.207 505.235 136.949 484.905 151.217 457.361C170.694 419.743 187.866 393.051 208.173 385.145C262.617 345.591 324.921 338.815 398.681 364.423C399.765 364.792 400.641 365.645 401.079 366.705C401.517 367.765 401.447 368.987 400.917 370.001C374.894 420.665 389.369 491.82 431.228 520.287C468.684 516.323 533.409 513.787 557.473 539.257C565.402 547.648 568.353 558.274 566.255 570.813C566.255 570.813 566.255 570.813 566.255 570.836C566.048 572.127 565.725 573.394 565.31 574.662C562.175 584.32 553.67 591.35 543.62 592.595C487.286 599.602 447.547 597.366 422.285 585.772C401.517 596.767 369.938 603.429 335.179 604.097C333.196 604.12 331.214 604.143 329.255 604.143ZM235.741 579.203C236.271 579.203 236.801 579.318 237.308 579.526C295.717 604.42 382.039 599.141 420.21 577.82C421.363 577.175 422.746 577.151 423.921 577.728C447.617 589.414 486.456 591.696 542.629 584.689C549.613 583.836 555.537 578.926 557.727 572.196C558.026 571.32 558.234 570.421 558.395 569.522C560.078 559.426 557.888 551.312 551.687 544.743C535.622 527.709 491.504 521.739 430.675 528.378C429.753 528.47 428.831 528.262 428.07 527.755C406.288 513.51 389.946 487.648 383.215 456.807C376.784 427.28 379.942 396.117 391.836 370.508C322.409 347.481 263.701 354.488 212.461 391.899C212.161 392.106 211.838 392.29 211.492 392.406C192.269 399.551 174.589 429.608 158.316 461.026C143.103 490.437 117.725 512.174 86.8611 522.223L85.916 522.523C75.9815 525.681 65.4246 527.871 53.5769 529.207C20.3157 532.919 8.65243 544.513 8.81378 554.125C9.04428 566.871 28.8903 581.554 61.7135 584.09C61.7827 584.09 61.8518 584.113 61.921 584.113C100.322 589.068 116.019 580.632 117.402 573.579C116.987 565.626 108.182 560.809 100.829 558.135C99.262 557.559 98.2017 556.084 98.2017 554.424C98.1786 552.765 99.2159 551.266 100.783 550.667C138.447 536.376 163.157 487.648 179.522 455.401C184.754 445.098 189.272 436.178 193.352 429.931C194.551 428.11 196.971 427.58 198.815 428.733C200.659 429.885 201.235 432.305 200.106 434.172C197.063 439.22 182.357 466.696 191.831 511.966C192.084 513.142 191.785 514.363 191.024 515.285C190.263 516.207 189.134 516.76 187.935 516.76C187.889 516.76 187.843 516.76 187.82 516.76C157.924 516.76 136.165 535.131 130.126 553.295C126.599 563.875 128.858 573.141 136.28 578.719C160.644 594.646 201.765 595.038 234.081 579.618C234.565 579.318 235.165 579.203 235.741 579.203ZM111.847 554.401C115.674 556.568 118.486 558.919 120.514 561.316C120.652 557.905 121.321 554.355 122.519 550.736C122.957 549.376 123.488 548.039 124.087 546.679C120.168 549.584 116.112 552.188 111.847 554.401ZM181.412 469.139C173.529 484.421 164.009 501.847 152.346 517.475C161.174 512.75 171.547 509.569 183.095 508.9C180.352 493.618 180.237 480.295 181.412 469.139Z" fill="#000072"/>
<path d="M35.7129 551.52C46.5925 548.777 57.8409 547.279 69.2045 546.91C74.8748 546.748 80.5912 546.887 86.3307 547.44C92.0701 547.993 97.8096 548.961 103.526 550.644C105.647 551.266 106.845 553.479 106.223 555.6C105.6 557.72 103.388 558.919 101.267 558.296C101.129 558.25 100.967 558.204 100.852 558.135L100.806 558.112C95.9656 556.038 90.7332 554.493 85.4087 553.341C80.0611 552.188 74.5982 551.381 69.0893 550.897C58.0714 549.929 46.846 550.091 35.7129 551.52Z" fill="#000072"/>
<path d="M261.626 564.151C258.63 568.692 254.942 572.864 250.839 576.644C246.736 580.402 242.218 583.79 237.447 586.786L237.424 586.81C235.557 587.985 233.067 587.432 231.892 585.565C230.716 583.698 231.269 581.208 233.137 580.033C233.413 579.848 233.736 579.71 234.035 579.618C238.991 577.981 243.878 575.953 248.534 573.441C253.19 570.859 257.639 567.839 261.626 564.151Z" fill="#000072"/>
<path d="M419.334 584.113L414.839 576.76C413.341 574.339 411.843 571.942 410.16 569.637C412.719 570.928 415.208 572.449 417.651 573.948L424.958 578.465L419.334 584.113Z" fill="#000072"/>
<path d="M188.511 508.809C190.701 509.5 192.73 510.261 194.804 511.044C196.855 511.828 198.907 512.658 200.912 513.557C202.918 514.456 204.9 515.378 206.836 516.438C208.772 517.498 210.639 518.628 212.368 519.942C210.34 519.227 208.242 518.72 206.168 518.328C204.093 517.913 201.973 517.66 199.875 517.406C197.777 517.176 195.657 517.014 193.536 516.876C191.439 516.761 189.272 516.669 187.267 516.669C185.031 516.669 183.233 514.871 183.233 512.635C183.233 510.399 185.031 508.601 187.267 508.601C187.682 508.601 188.096 508.67 188.488 508.785L188.511 508.809Z" fill="#000072"/>
<path d="M127.268 564.843C127.475 564.981 128.005 565.166 128.42 565.304C128.858 565.465 129.319 565.581 129.803 565.696C130.748 565.949 131.716 566.111 132.685 566.272C134.644 566.549 136.672 566.595 138.701 566.41C139.738 566.364 140.729 566.134 141.766 565.949C142.757 565.673 143.795 565.465 144.763 565.05C146.791 564.382 148.658 563.299 150.502 562.123C149.096 563.783 147.575 565.465 145.708 566.802C144.832 567.54 143.818 568.093 142.85 568.738C141.835 569.269 140.798 569.845 139.692 570.283C137.525 571.205 135.22 571.873 132.846 572.265C131.647 572.449 130.449 572.611 129.227 572.68C128.605 572.703 128.005 572.726 127.36 572.726C126.692 572.726 126.161 572.726 125.309 572.611L124.571 572.519C122.312 572.242 120.699 570.168 120.998 567.909C121.275 565.65 123.349 564.036 125.608 564.336C126.231 564.359 126.784 564.566 127.268 564.843Z" fill="#000072"/>
<path d="M691.14 538.22C689.896 547.417 682.957 554.816 673.945 557.052C658.271 560.947 630.127 565.096 617.979 549.099C644.28 528.147 658.317 497.076 661.936 464.368C677.979 479.35 694.413 513.787 691.14 538.22Z" fill="#FFAD40"/>
<g opacity="0.66">
<path d="M691.14 538.22C690.471 543.222 688.097 547.693 684.64 551.082C685.216 549.584 685.608 548.016 685.815 546.38C688.858 523.744 674.982 492.512 660.138 476.146C660.898 472.251 661.475 468.309 661.913 464.368C677.978 479.35 694.413 513.787 691.14 538.22Z" fill="white"/>
</g>
<path d="M539.679 586.602C539.863 586.441 540.163 586.049 540.393 585.726C540.624 585.38 540.9 585.035 541.108 584.666C541.569 583.928 542.007 583.168 542.352 582.384C543.09 580.817 543.597 579.157 543.758 577.451C543.92 575.746 543.551 574.017 542.698 572.403C541.891 570.721 540.393 569.407 538.826 568.162C540.693 568.831 542.698 569.614 544.265 571.182C545.856 572.657 547.147 574.731 547.723 576.99C548.322 579.249 548.391 581.6 548.161 583.859C548.069 585.012 547.861 586.118 547.585 587.248C547.469 587.801 547.285 588.354 547.147 588.93C546.962 589.506 546.824 589.99 546.524 590.705L539.679 586.602Z" fill="#000072"/>
<path d="M647.944 564.566C635.244 564.566 622.428 561.547 614.821 551.52C613.508 549.791 613.807 547.348 615.513 545.988C639.139 527.156 654.237 497.998 657.994 463.93C658.155 462.432 659.147 461.164 660.576 460.634C661.982 460.104 663.572 460.426 664.679 461.464C681.828 477.483 698.539 513.142 695.105 538.75C693.675 549.376 685.562 558.297 674.936 560.924C667.629 562.722 657.81 564.566 647.944 564.566ZM623.742 549.492C635.705 560.256 659.331 556.568 673 553.18C680.491 551.312 686.207 545.089 687.198 537.69C689.872 517.821 678.278 489.654 664.748 473.219C659.561 504.244 645.224 530.959 623.742 549.492Z" fill="#000072"/>
<path d="M511.742 485.643C507.155 483.361 502.96 480.273 499.087 476.746C497.151 474.948 495.353 473.035 493.602 471.006C491.873 469.001 490.236 466.857 488.761 464.599C485.834 460.104 483.552 455.056 482.538 449.777C481.5 444.522 481.777 439.151 483.091 434.242C483.16 433.942 483.46 433.781 483.759 433.85C483.99 433.919 484.151 434.126 484.151 434.334C484.474 439.29 485.58 443.992 487.516 448.187C489.476 452.382 492.219 456.07 495.399 459.343C498.603 462.616 502.222 465.498 506.072 468.148C509.852 470.891 513.793 473.496 517.551 476.562L517.574 476.585C519.879 478.475 520.201 481.886 518.311 484.168C516.675 486.219 513.932 486.75 511.742 485.643Z" fill="#000072"/>
<path d="M587.691 542.254C585.87 543.153 583.911 543.522 581.906 543.66C580.892 543.775 579.9 543.683 578.863 543.66C577.849 543.568 576.858 543.406 575.844 543.222C571.833 542.392 568.03 540.571 564.687 538.266C562.936 537.183 561.437 535.823 559.87 534.532C558.395 533.172 556.989 531.72 555.583 530.268C554.292 528.77 553.024 527.202 551.941 525.543C550.927 523.86 549.982 522.131 549.267 520.31C548.184 517.544 549.544 514.41 552.31 513.326C554.522 512.473 556.943 513.165 558.395 514.871L558.694 515.239C559.824 516.599 560.723 518.028 561.553 519.55C561.967 520.31 562.429 521.002 562.866 521.739C563.281 522.477 563.696 523.215 564.088 523.998C564.941 525.451 565.84 526.903 566.762 528.309C567.776 529.6 568.698 531.098 569.851 532.273C570.911 533.587 572.133 534.67 573.377 535.823L575.36 537.344C576.051 537.805 576.766 538.243 577.48 538.704C580.384 540.318 583.819 541.447 587.346 541.263H587.438C587.737 541.24 587.991 541.47 587.991 541.77C587.991 541.977 587.876 542.162 587.691 542.254Z" fill="#000072"/>
<path d="M529.605 496.638C528.776 499.704 527.992 504.406 528.753 509.592C528.937 510.791 529.813 511.782 530.988 512.058C533.132 512.566 537.074 513.119 542.79 512.519C544.749 512.312 545.994 510.307 545.279 508.463C543.896 504.959 540.808 499.473 534.146 494.955C532.464 493.849 530.136 494.679 529.605 496.638Z" fill="#000072"/>
<path d="M518.749 527.456L513.793 522.316C520.27 516.092 529.582 506.342 529.674 506.25L534.838 511.183C534.722 511.275 525.318 521.14 518.749 527.456Z" fill="#000072"/>
<g opacity="0.3">
<path d="M594.284 387.312C594.284 387.312 640.084 359.537 622.727 342.641C621.391 341.35 607.768 333.306 607.768 333.306C607.768 333.306 613.853 365.576 594.284 387.312Z" fill="#000072"/>
</g>
<g opacity="0.3">
<path d="M690.633 540.779C688.559 548.777 682.105 555.047 673.945 557.052C658.271 560.948 630.127 565.097 617.979 549.1C622.543 545.458 626.739 541.516 630.565 537.321C631.256 538.036 631.994 538.704 632.755 539.327L645.271 522.984L654.375 507.172C653.799 508.463 636.996 547.071 665.693 546.357C672.723 545.758 679.431 544.444 684.709 543.13C686.83 542.623 688.812 541.816 690.633 540.779Z" fill="#000072"/>
</g>
<g opacity="0.3">
<path d="M197.155 434.703C197.155 434.703 181.389 501.916 213.59 519.988L188.004 509.477L184.017 455.286" fill="#000072"/>
</g>
<g opacity="0.3">
<path d="M558.533 578.258C555.007 583.26 549.475 586.74 543.136 587.524C490.628 594.07 448.331 593.056 422.17 580.171C380.887 603.244 293.435 606.632 235.764 582.084C204.716 596.882 161.036 598.634 133.952 580.839C122.842 572.564 122.013 558.32 128.812 544.904L136.05 534.255C135.405 535.754 121.667 568.139 170.072 578.073C219.26 588.192 267.112 550.459 267.781 549.952C267.435 550.851 259.091 573.486 295.095 579.848C331.814 586.348 389.992 582.776 402.024 559.933C402.024 559.933 412.765 549.63 432.519 565.396C452.273 581.139 563.19 576.575 549.728 540.11C549.728 540.11 570.058 548.5 558.533 578.258Z" fill="#000072"/>
</g>
<g opacity="0.3">
<path d="M121.39 573.809C119.869 584.781 100.852 593.125 61.3907 588.031C25.3866 585.265 3.74267 568.439 4.84907 552.742L6.67002 551.428C6.67002 551.428 22.8742 575.031 64.9404 575.953C106.984 576.852 108.321 559.426 108.321 559.426C108.321 559.426 114.36 562.146 119.592 567.079C119.592 567.079 119.592 567.079 119.592 567.102C120.721 569.13 121.321 571.389 121.39 573.809Z" fill="#000072"/>
</g>
<g opacity="0.3">
<path d="M184.247 447.426C184.247 447.426 140.752 548.362 63.6035 547.44L108.367 552.35C147.598 524.459 171.915 488.985 184.247 447.426Z" fill="#000072"/>
</g>
<g opacity="0.3">
<path d="M430.214 524.39C339.12 528.286 367.426 412.044 389.485 373.735L391.559 381.411C372.474 433.735 390.245 498.275 430.214 524.39Z" fill="#000072"/>
</g>
</svg>
