<svg width="626" height="629" viewBox="0 0 626 629" fill="none" xmlns="http://www.w3.org/2000/svg">
<ellipse cx="313" cy="299.5" rx="313" ry="299.5" fill="#B0A2D7"/>
<g clip-path="url(#clip0_244_4924)">
<path d="M585.643 422.711C574.037 425.45 568.454 433.209 570.775 465.939C571.34 473.927 572.364 483.401 573.912 494.653C579.641 536.626 566.927 561.345 555.28 574.709C544.198 587.403 523.036 602.524 485.146 602.524C436.988 602.524 409.24 575.901 400.437 560.153L442.404 536.647C442.404 536.647 442.362 536.563 442.279 536.396C443.366 537.985 449.744 546.601 464.256 551.328L464.277 551.349C468.354 552.666 473.08 553.691 478.496 554.151C480.608 554.339 482.825 554.423 485.146 554.423C496.103 554.423 510.866 552.457 519.063 543.067C528.305 532.506 528.075 514.437 526.256 501.136C524.562 488.797 523.099 477.064 522.429 465.918C521.677 453.662 521.886 442.097 523.831 431.139C527.26 411.815 535.499 398.911 545.369 390.337C554.59 382.306 565.213 378.061 574.664 375.823C585.893 373.167 597.122 378.876 601.869 388.873C602.601 390.4 603.187 392.031 603.584 393.725C606.595 406.712 598.565 419.657 585.643 422.711Z" fill="#8C8CAA"/>
<path d="M585.643 422.71C574.037 425.45 568.454 433.209 570.775 465.938C546.979 446.008 522.409 465.938 522.409 465.938C521.656 453.683 521.865 442.118 523.81 431.159C530.439 393.787 555.113 380.466 574.644 375.865C587.566 372.832 600.531 380.842 603.563 393.766C606.595 406.712 598.566 419.657 585.643 422.71Z" fill="white"/>
<g opacity="0.6">
<path d="M535.938 495.719C541.876 530.101 536.523 547.919 512.852 559.212C489.642 570.275 465.218 552.06 464.277 551.349C468.354 552.666 473.08 553.691 478.496 554.151C480.608 554.339 482.825 554.423 485.146 554.423C496.103 554.423 510.866 552.457 519.063 543.067C528.305 532.506 528.075 514.437 526.256 501.136C524.562 488.797 523.099 477.064 522.429 465.918C521.677 453.662 521.886 442.097 523.83 431.139C527.26 411.815 535.499 398.911 545.368 390.337C545.389 390.337 545.389 390.337 545.389 390.337C525.901 408.887 529.978 461.338 535.938 495.719Z" fill="white"/>
</g>
<path d="M485.125 607.355C434.751 607.355 405.539 579.184 396.213 562.516C395.585 561.408 395.439 560.09 395.774 558.857C396.129 557.623 396.945 556.598 398.053 555.971L438.703 533.217C438.996 532.882 439.352 532.589 439.749 532.338C441.944 531 444.788 531.586 446.231 533.719C447.339 535.35 457.753 549.613 485.125 549.613C495.079 549.613 508.42 547.919 515.404 539.909C523.454 530.707 523.141 514.102 521.447 501.805C519.586 488.211 518.227 476.96 517.578 466.231C516.721 452.198 517.181 440.801 519.042 430.323C526.131 390.358 552.583 376.116 573.515 371.18C581.021 369.423 588.758 370.678 595.324 374.735C601.869 378.793 606.47 385.171 608.226 392.658C609.983 400.166 608.728 407.904 604.671 414.471C600.615 421.038 594.237 425.618 586.751 427.374C580.352 428.88 573.096 430.595 575.564 465.583C576.128 473.509 577.132 482.816 578.679 493.983C584.639 537.734 571.214 563.75 558.919 577.867C547.167 591.335 524.855 607.355 485.125 607.355ZM407.191 561.889C417.646 576.8 443.199 597.735 485.146 597.735C521.238 597.735 541.249 583.492 551.663 571.572C562.662 558.961 574.623 535.496 569.144 495.322C567.597 483.924 566.551 474.429 565.966 466.294C563.707 434.422 568.559 421.79 584.534 418.026C589.532 416.855 593.777 413.802 596.495 409.431C599.193 405.06 600.05 399.894 598.858 394.896C596.433 384.565 586.04 378.123 575.731 380.57C557.601 384.837 534.725 397.217 528.536 432.017C526.8 441.721 526.382 452.408 527.197 465.646C527.825 476.081 529.163 487.124 531.003 500.508C532.948 514.792 533.094 534.325 522.66 546.246C513.271 556.995 497.065 559.254 485.125 559.254C460.241 559.254 446.921 548.881 441.254 542.816L407.191 561.889Z" fill="#000072"/>
<g opacity="0.2">
<path d="M585.643 422.711C574.037 425.45 568.454 433.209 570.775 465.939C571.34 473.928 572.364 483.401 573.912 494.653C579.641 536.626 566.927 561.345 555.28 574.709C544.198 587.403 523.036 602.524 485.146 602.524C436.988 602.524 409.24 575.901 400.437 560.153L442.404 536.647C442.404 536.647 442.362 536.563 442.279 536.396C443.659 538.445 453.759 552.018 478.517 554.13C477.053 566.323 479.563 583.221 506.245 578.453C546.937 571.196 555.594 539.826 553.001 494.213C550.408 448.601 546.079 436.764 563.143 412.066C573.723 396.736 590.598 391.027 601.89 388.894C602.622 390.42 603.207 392.052 603.605 393.746C606.595 406.712 598.565 419.657 585.643 422.711Z" fill="#000072"/>
</g>
<path d="M190.514 613.357C140.015 613.357 146.016 584.496 149.634 577.281C150.24 576.068 151.056 575.002 152.06 574.04C157.852 568.372 168.872 566.469 168.872 566.469C168.872 566.469 172.636 556.431 176.316 541.959C179.85 528.093 183.3 510.17 183.3 493.105C183.3 458.661 256.655 454.624 257.847 507.535C259.039 560.446 241.035 613.357 190.514 613.357Z" fill="#FFD85A"/>
<path d="M190.515 618.167C167.973 618.167 153.084 612.604 146.288 601.604C140.099 591.565 142.755 580.23 145.327 575.127C149.3 567.201 159.985 563.625 165.234 562.328C168.307 553.419 178.491 521.735 178.491 493.105C178.491 473.384 197.478 462.843 216.214 462.634C216.402 462.634 216.59 462.634 216.799 462.634C238.526 462.634 261.966 476.563 262.677 507.431C263.221 530.958 260.356 574.249 235.305 599.91C223.428 612.018 208.372 618.167 190.515 618.167ZM216.82 472.254C216.653 472.254 216.486 472.254 216.318 472.254C202.308 472.422 188.11 479.616 188.11 493.105C188.11 528.449 173.974 566.553 173.368 568.163C172.761 569.752 171.36 570.924 169.688 571.216C164.753 572.095 156.096 575.106 153.921 579.456C152.666 581.945 150.345 589.892 154.465 596.563C159.316 604.406 171.779 608.568 190.494 608.568C205.654 608.568 218.409 603.402 228.384 593.196C244.903 576.298 253.874 545.117 253.038 507.661C252.494 483.129 234.532 472.254 216.82 472.254Z" fill="#000072"/>
<path d="M168.559 561.659C177.571 561.91 186.563 564.796 193.651 570.401C196.035 572.199 197.98 574.479 199.778 576.8C200.677 577.95 200.468 579.624 199.318 580.523C198.189 581.401 196.6 581.192 195.68 580.167C188.946 573.14 178.7 570.317 169.186 571.258C162.223 572.074 161.512 561.805 168.559 561.659Z" fill="#000072"/>
<g opacity="0.2">
<path d="M190.514 613.357C140.015 613.357 146.016 584.496 149.634 577.281C150.24 576.068 151.056 575.002 152.06 574.04C156.409 585.103 170.419 591.816 183.3 591.816C195.805 591.816 198.67 589.453 203.333 587.571C215.294 582.719 212.805 572.534 207.933 568.853C197.875 561.241 181.962 542.649 178.804 531.335C182.338 517.469 183.3 510.17 183.3 493.105C183.3 458.661 256.655 454.624 257.847 507.535C259.039 560.446 241.035 613.357 190.514 613.357Z" fill="#000072"/>
</g>
<path d="M357.633 605.891C349.039 605.995 339.838 605.703 330.01 604.95C314.515 603.779 300.442 601.373 287.666 597.986C265.187 592.025 246.681 582.991 231.416 571.99C216.904 561.534 205.34 549.278 196.161 536.228C186.981 523.199 180.164 509.355 175.083 495.636C156.535 445.381 161.658 396.883 161.658 396.883L307.155 365.617C307.155 365.617 324.28 370.971 347.638 382.452C357.696 387.409 368.925 393.495 380.447 400.773C390.693 407.277 401.169 414.701 411.248 423.108C411.813 423.589 412.398 424.07 412.963 424.551C421.912 432.184 431.427 441.679 439.728 452.847C448.845 465.123 456.541 479.428 460.493 495.51C460.702 496.305 460.869 497.099 461.057 497.915C472.914 551.537 453.927 604.678 357.633 605.891Z" fill="#FFD85A"/>
<path d="M380.467 400.751C366.959 478.486 299.166 537.588 217.573 537.588C210.317 537.588 203.145 537.128 196.139 536.207C186.96 523.178 180.143 509.334 175.062 495.614C188.382 500.215 202.685 502.704 217.552 502.704C286.16 502.704 342.431 449.71 347.637 382.431C357.716 387.388 368.945 393.474 380.467 400.751Z" fill="#561E13"/>
<path d="M439.749 452.847C414.677 521.986 358.239 576.089 287.666 597.985C265.187 592.025 246.681 582.991 231.416 571.99C318.279 566.072 389.898 504.754 411.29 423.108C411.854 423.589 412.44 424.07 413.004 424.551C421.933 432.163 431.448 441.679 439.749 452.847Z" fill="#561E13"/>
<path d="M357.633 605.891C401.462 579.582 437.261 541.268 460.513 495.489C460.723 496.284 460.89 497.078 461.078 497.894C472.913 551.537 453.927 604.678 357.633 605.891Z" fill="#561E13"/>
<g opacity="0.6">
<path d="M450.497 570.735C459.531 552.332 459.928 530.142 455.035 507.87C454.847 507.054 454.68 506.259 454.47 505.465C450.518 489.403 442.823 475.078 433.706 462.801C425.405 451.634 415.89 442.118 406.94 434.506C406.376 434.025 405.79 433.544 405.226 433.063C395.147 424.635 384.671 417.21 374.424 410.727C362.903 403.449 351.674 397.364 341.616 392.407C318.258 380.926 301.132 375.572 301.132 375.572L161.156 405.645C161.344 400.061 161.679 396.862 161.679 396.862L307.176 365.596C307.176 365.596 324.301 370.95 347.659 382.431C357.717 387.388 368.946 393.474 380.468 400.752C390.714 407.256 401.19 414.68 411.269 423.087C411.834 423.568 412.419 424.049 412.984 424.53C421.933 432.163 431.448 441.658 439.749 452.826C448.866 465.102 456.562 479.407 460.514 495.489C460.723 496.284 460.89 497.078 461.078 497.894C466.912 524.37 465.26 550.7 450.497 570.735Z" fill="white"/>
</g>
<path d="M354.245 610.722C346.404 610.722 338.123 610.387 329.633 609.739C314.39 608.568 299.836 606.184 286.411 602.628C264.643 596.856 245.175 587.863 228.572 575.88C214.52 565.758 202.287 553.335 192.187 538.968C183.468 526.566 176.17 512.534 170.545 497.267C151.83 446.531 156.639 398.368 156.848 396.339C157.058 394.268 158.584 392.574 160.612 392.135L306.109 360.87C306.924 360.703 307.761 360.744 308.555 360.974C309.266 361.204 326.309 366.579 349.729 378.082C361.376 383.812 372.563 390.065 382.998 396.653C394.31 403.826 404.849 411.459 414.322 419.365L416.057 420.828C426.68 429.863 435.943 439.65 443.576 449.919C454.136 464.14 461.413 479.072 465.156 494.297C465.365 495.092 465.553 495.949 465.741 496.807C472.788 528.783 468.313 556.012 452.797 575.566C434.793 598.278 402.779 610.073 357.654 610.659C356.566 610.722 355.416 610.722 354.245 610.722ZM166.195 400.835C165.485 412.63 164.46 452.951 179.599 493.983C184.952 508.455 191.832 521.756 200.092 533.468C209.564 546.957 221.065 558.606 234.239 568.1C249.88 579.394 268.281 587.884 288.899 593.343C301.759 596.752 315.707 599.052 330.386 600.16C339.859 600.892 349.018 601.206 357.591 601.102C399.684 600.579 429.189 589.997 445.311 569.669C462.563 547.919 460.869 519.226 456.394 498.961C456.227 498.229 456.059 497.455 455.871 496.723C452.421 482.69 445.709 468.908 435.902 455.733C428.708 446.05 419.947 436.806 409.868 428.232L408.153 426.789C399.036 419.176 388.832 411.773 377.895 404.851C367.754 398.451 356.859 392.365 345.526 386.781C326.225 377.308 311.107 372.017 306.904 370.615L166.195 400.835Z" fill="#000072"/>
<g opacity="0.2">
<path d="M464.215 525.27C464.089 568.289 437.365 604.887 357.633 605.891C349.038 605.995 339.838 605.703 330.01 604.95C314.515 603.779 300.442 601.373 287.666 597.986C265.187 592.025 246.681 582.991 231.416 571.99C216.904 561.534 205.34 549.278 196.16 536.228C186.981 523.199 180.164 509.355 175.082 495.636C170.649 483.589 167.555 471.648 165.422 460.438C165.234 459.414 165.045 458.389 164.878 457.364C164.543 455.503 164.251 453.662 163.979 451.864C163.958 451.822 163.958 451.78 163.958 451.738C163.833 450.881 163.707 450.023 163.582 449.187C163.456 448.35 163.352 447.535 163.226 446.719C162.85 443.791 162.515 440.968 162.243 438.228C162.181 437.601 162.118 436.994 162.076 436.367C161.658 431.913 161.407 427.751 161.24 423.882C161.198 423.066 161.177 422.292 161.156 421.498V421.435C161.135 420.703 161.114 420.013 161.093 419.323C161.072 419.197 161.072 419.093 161.072 418.988C161.051 418.57 161.051 418.172 161.051 417.775C160.8 404.892 161.658 396.883 161.658 396.883L176.17 393.767L307.175 365.617C307.175 365.617 324.301 370.971 347.658 382.452C356.796 386.949 366.896 392.386 377.31 398.807C363.404 441.324 306.004 473.196 237.313 473.196C231.52 473.196 225.833 472.965 220.229 472.526C210.589 471.773 204.253 482.523 209.815 490.428C209.857 490.491 209.92 490.574 209.961 490.637C219.141 503.708 230.726 515.942 245.217 526.399C260.482 537.399 278.988 546.434 301.467 552.394C314.264 555.782 328.337 558.187 343.811 559.359C353.639 560.111 362.84 560.425 371.434 560.3C420.135 559.693 449.054 545.786 464.215 525.27Z" fill="#000072"/>
</g>
<g opacity="0.5">
<path d="M357.444 387.66C357.444 387.66 360.267 215.585 434.354 249.109C492.193 275.292 435.128 377.161 357.444 387.66Z" fill="#FFE485"/>
</g>
<path d="M357.444 392.47C356.273 392.47 355.144 392.052 354.245 391.257C353.199 390.316 352.614 388.977 352.635 387.576C352.718 382.871 354.998 272.093 396.631 245.721C408.215 238.38 421.577 238.046 436.34 244.717C456.122 253.668 465.511 272.072 462.123 295.244C459.133 315.697 446.712 337.991 428.06 356.415C407.944 376.262 383.102 389.04 358.113 392.428C357.862 392.449 357.653 392.47 357.444 392.47ZM416.266 249.59C411.059 249.59 406.25 251.012 401.775 253.856C369.489 274.309 363.487 358.946 362.463 381.971C409.616 372.707 447.444 329.186 452.609 293.863C454.554 280.5 452.63 262.661 432.388 253.501C426.596 250.886 421.264 249.59 416.266 249.59Z" fill="#000072"/>
<path d="M354.119 384.167C369.865 369.235 384.44 352.714 397.446 335.314C407.149 322.201 415.973 308.356 422.874 293.571C425.132 288.635 427.161 283.616 428.896 278.513C429.377 277.07 430.945 276.275 432.388 276.756C433.789 277.237 434.563 278.743 434.124 280.165C432.472 285.561 430.527 290.831 428.352 296.017C421.745 311.472 413.109 325.944 403.573 339.747C390.713 358.088 376.494 375.237 360.727 391.173C356.022 395.565 349.435 388.726 354.119 384.167Z" fill="#000072"/>
<g opacity="0.5">
<path d="M360.079 405.311C360.079 405.311 444.266 255.236 493.552 319.921C532.028 370.427 433.434 432.958 360.079 405.311Z" fill="#FFE485"/>
</g>
<path d="M398.869 416.897C384.67 416.897 370.911 414.533 358.386 409.807C357.068 409.305 356.044 408.28 355.563 406.963C355.082 405.645 355.207 404.181 355.897 402.968C358.197 398.869 412.816 302.48 461.977 299.029C475.653 298.067 487.572 304.132 497.4 317.015C510.553 334.268 510.072 354.951 496.103 373.711C483.745 390.295 462.228 404.014 437.073 411.355C424.317 415.056 411.415 416.897 398.869 416.897ZM367.189 402.655C413.088 416.897 467.038 396.569 488.346 367.939C496.396 357.105 503.192 340.5 489.705 322.808C481.863 312.518 472.997 307.854 462.625 308.586C424.526 311.263 379.045 382.913 367.189 402.655Z" fill="#000072"/>
<path d="M358.824 400.647C379.777 394.979 400.437 387.367 420.155 378.249C434.918 371.306 449.263 363.338 462.353 353.592C466.682 350.329 470.843 346.879 474.795 343.198C475.903 342.152 477.66 342.194 478.705 343.323C479.709 344.411 479.667 346.105 478.622 347.151C474.607 351.103 470.383 354.826 466.033 358.36C452.881 368.817 438.41 377.454 423.459 385.066C403.448 395.105 382.767 403.449 361.334 409.953C355.06 411.585 352.53 402.445 358.824 400.647Z" fill="#000072"/>
<path d="M385.319 270.608C399.747 306.683 405.769 354.784 375.7 395.69C345.63 436.597 280.284 440.194 247.036 440.194C213.788 440.194 148.421 436.576 118.373 395.69C88.3241 354.805 94.3255 306.683 108.754 270.608C108.754 270.608 71.8465 188.125 83.6401 161.314C84.2465 159.892 85.0202 158.637 85.9194 157.571C103.965 135.926 183.321 168.404 183.321 168.404C183.321 168.404 201.346 146.738 247.036 146.738C292.726 146.738 310.772 168.383 310.772 168.383C310.772 168.383 390.128 135.905 408.174 157.55C426.22 179.195 385.319 270.608 385.319 270.608Z" fill="#FFD85A"/>
<g opacity="0.6">
<path d="M412.356 183.002C411.729 178.505 410.411 174.783 408.174 172.127C390.128 150.481 310.772 182.96 310.772 182.96C310.772 182.96 292.726 161.293 247.036 161.293C201.346 161.293 183.3 182.96 183.3 182.96C183.3 182.96 103.944 150.481 85.8984 172.127C84.9992 173.214 84.2464 174.469 83.6191 175.87C82.6991 177.941 82.0926 180.346 81.7163 183.022C80.8589 174.281 81.2562 166.668 83.6191 161.293C84.2255 159.871 84.9992 158.617 85.8984 157.55C103.944 135.905 183.3 168.383 183.3 168.383C183.3 168.383 201.346 146.738 247.036 146.738C292.726 146.738 310.772 168.383 310.772 168.383C310.772 168.383 390.128 135.905 408.174 157.55C412.523 162.757 413.443 171.98 412.356 183.002Z" fill="white"/>
</g>
<path d="M247.036 444.983C181.753 444.983 137.15 429.361 114.483 398.514C80.2732 351.981 92.506 299.196 103.547 270.691C100.954 264.668 92.6314 244.968 85.9818 223.615C74.7319 187.54 73.4982 164.932 82.197 154.476C90.9586 143.977 111.242 142.513 142.503 150.168C159.901 154.434 175.689 160.248 182.108 162.737C188.695 156.651 208.623 141.928 247.036 141.928C285.449 141.928 305.356 156.651 311.964 162.737C318.383 160.248 334.192 154.434 351.569 150.168C382.83 142.513 403.113 143.956 411.875 154.476C420.595 164.932 419.361 187.561 408.111 223.636C401.461 244.989 393.139 264.689 390.546 270.712C401.587 299.217 413.82 352.002 379.589 398.535C356.922 429.361 312.319 444.983 247.036 444.983ZM108.503 154.915C99.8038 154.915 92.9869 156.567 89.5785 160.645C77.8476 174.72 97.7964 234.365 113.124 268.642C113.647 269.834 113.689 271.193 113.208 272.385C102.752 298.548 89.9967 348.991 122.241 392.825C142.984 421.058 184.973 435.363 247.036 435.363C309.099 435.363 351.088 421.058 371.831 392.825C404.054 348.991 391.32 298.548 380.864 272.385C380.383 271.172 380.404 269.813 380.948 268.642C396.276 234.365 416.224 174.72 404.493 160.645C393.014 146.863 342.033 160.812 312.612 172.838C310.667 173.632 308.43 173.068 307.091 171.457C306.945 171.269 289.61 151.548 247.057 151.548C204.504 151.548 187.169 171.29 187.001 171.478C185.663 173.068 183.426 173.611 181.502 172.838C160.738 164.347 129.288 154.915 108.503 154.915Z" fill="#000072"/>
<path d="M374.507 342.759C373.023 364.174 364.47 379.692 352.447 390.943C315.853 425.178 274.345 424.53 247.036 424.53C219.726 424.53 178.219 425.157 141.625 390.943C129.601 379.692 121.049 364.153 119.564 342.759C113.542 256.157 186.897 206.864 247.036 206.864C307.175 206.864 380.509 256.177 374.507 342.759Z" fill="#8C8CAA"/>
<path d="M352.447 390.943C315.853 425.178 274.345 424.53 247.036 424.53C219.726 424.53 178.219 425.157 141.625 390.943C144.197 381.428 150.805 368.817 167.68 363.191C196.536 353.571 206.155 316.282 247.036 316.282C287.916 316.282 297.535 353.571 326.392 363.191C343.267 368.838 349.875 381.448 352.447 390.943Z" fill="white"/>
<path d="M250.047 429.361C249.524 429.361 249.023 429.361 248.5 429.361H245.551C245.05 429.361 244.527 429.361 244.004 429.361C216.172 429.361 174.957 428.755 138.321 394.478C124.123 381.177 116.198 363.902 114.755 343.114C111.493 295.808 131.149 264.083 148.212 245.804C173.389 218.826 211.258 202.054 247.057 202.054C282.856 202.054 320.725 218.826 345.902 245.804C362.965 264.104 382.6 295.829 379.338 343.093C377.895 363.881 369.97 381.177 355.772 394.457C319.094 428.755 277.879 429.361 250.047 429.361ZM247.036 211.674C213.83 211.674 178.658 227.275 155.238 252.371C139.471 269.269 121.321 298.611 124.374 342.445C125.629 360.744 132.55 375.886 144.908 387.451C179.453 419.762 219.246 419.783 245.551 419.741H248.5C274.805 419.804 314.598 419.762 349.143 387.451C361.501 375.865 368.423 360.723 369.677 342.445C372.73 298.611 354.58 269.269 338.813 252.371C315.435 227.254 280.242 211.674 247.036 211.674Z" fill="#000072"/>
<path d="M247.036 348.782C247.036 348.782 222.989 341.567 225.394 333.139C227.798 324.71 241.223 324.71 247.036 324.71C252.849 324.71 266.274 324.71 268.679 333.139C271.084 341.567 247.036 348.782 247.036 348.782Z" fill="#000072"/>
<path d="M249.253 341.567C250.716 348.259 252.243 355.16 251.846 362.02C251.155 367.813 242.875 367.771 242.227 362.02C241.892 358.611 242.373 355.202 242.854 351.793C243.356 348.364 243.962 344.955 244.82 341.567C245.133 340.333 246.367 339.601 247.601 339.894C248.437 340.103 249.064 340.772 249.253 341.567Z" fill="#000072"/>
<path d="M285.428 355.621C280.619 376.074 252.473 380.926 242.666 361.685H251.448C251.323 361.978 251.239 362.104 251.156 362.25C241.913 379.399 216.465 376.471 209.941 358.611C209.334 356.875 207.912 353.676 210.631 352.985C211.593 352.776 212.45 353.278 212.931 354.052C216.987 359.887 223.156 365.366 230.663 364.885C235.514 364.864 240.115 362.187 242.519 357.984L242.624 357.796C242.645 357.754 242.687 357.67 242.666 357.733C240.282 363.609 248.688 367.332 251.448 361.623C252.013 360.326 251.971 358.925 251.448 357.733C251.532 357.837 251.72 358.214 251.846 358.402C254.522 362.752 259.541 365.094 264.58 364.802C271.543 364.634 277.106 359.469 280.828 353.948C282.208 351.417 286.035 352.797 285.428 355.621Z" fill="#000072"/>
<path d="M187.964 330.817C198.046 330.817 206.219 320.583 206.219 307.959C206.219 295.335 198.046 285.101 187.964 285.101C177.882 285.101 169.708 295.335 169.708 307.959C169.708 320.583 177.882 330.817 187.964 330.817Z" fill="#000072"/>
<path d="M192.815 311.744C196.441 311.744 199.381 308.065 199.381 303.525C199.381 298.986 196.441 295.306 192.815 295.306C189.189 295.306 186.249 298.986 186.249 303.525C186.249 308.065 189.189 311.744 192.815 311.744Z" fill="white"/>
<g opacity="0.35">
<path d="M184.337 322.806C186.844 322.038 188.095 318.864 187.131 315.717C186.167 312.569 183.354 310.64 180.847 311.407C178.341 312.175 177.09 315.349 178.054 318.497C179.017 321.644 181.831 323.574 184.337 322.806Z" fill="white"/>
</g>
<path d="M304.457 330.817C314.539 330.817 322.712 320.583 322.712 307.959C322.712 295.335 314.539 285.101 304.457 285.101C294.375 285.101 286.202 295.335 286.202 307.959C286.202 320.583 294.375 330.817 304.457 330.817Z" fill="#000072"/>
<path d="M299.606 311.744C303.232 311.744 306.171 308.065 306.171 303.525C306.171 298.986 303.232 295.306 299.606 295.306C295.979 295.306 293.04 298.986 293.04 303.525C293.04 308.065 295.979 311.744 299.606 311.744Z" fill="white"/>
<g opacity="0.35">
<path d="M314.374 318.484C315.338 315.336 314.087 312.162 311.581 311.395C309.074 310.627 306.26 312.556 305.297 315.704C304.333 318.851 305.584 322.025 308.091 322.793C310.597 323.561 313.411 321.631 314.374 318.484Z" fill="white"/>
</g>
<path d="M191.766 266.978C199.691 265.941 205.527 260.607 204.802 255.064C204.077 249.52 197.065 245.867 189.141 246.903C181.216 247.94 175.38 253.274 176.105 258.818C176.83 264.361 183.841 268.014 191.766 266.978Z" fill="white"/>
<path d="M317.981 258.785C318.706 253.242 312.869 247.908 304.945 246.871C297.02 245.835 290.008 249.488 289.283 255.031C288.558 260.575 294.395 265.909 302.319 266.945C310.244 267.982 317.256 264.329 317.981 258.785Z" fill="white"/>
<path d="M268.678 615.762C221.232 615.762 223.679 590.269 227.129 581.213C227.359 580.627 227.589 580.105 227.798 579.665C231.897 571.467 247.036 568.832 247.036 568.832C247.036 568.832 247.14 516.235 251.845 494.276C257.199 469.306 297.598 460.857 318.592 479.762C325.911 486.35 330.888 496.242 331.201 509.919C332.414 562.851 319.199 615.762 268.678 615.762Z" fill="#FFD85A"/>
<g opacity="0.6">
<path d="M328.839 495.573C327.019 492.624 324.845 490.052 322.377 487.856C301.362 468.971 260.816 477.378 255.63 502.369C245.593 550.7 260.21 570.672 260.21 570.672C260.21 570.672 236.079 576.445 231.583 587.759C231.395 588.219 231.144 588.7 230.914 589.306C229.68 592.527 228.593 597.797 229.806 603.276C223.762 595.476 225.31 586.065 227.129 581.234C227.359 580.648 227.589 580.125 227.798 579.686C231.897 571.488 247.036 568.853 247.036 568.853C247.036 568.853 247.141 516.256 251.846 494.297C257.199 469.326 297.598 460.877 318.592 479.783C323.046 483.778 326.643 489.006 328.839 495.573Z" fill="white"/>
</g>
<g opacity="0.2">
<path d="M268.678 615.762C221.232 615.762 223.679 590.268 227.129 581.213C237.145 592.966 264.245 602.482 290.614 585.082C316.815 567.787 318.864 504.733 318.592 479.762C325.911 486.35 330.888 496.242 331.201 509.919C332.414 562.851 319.199 615.762 268.678 615.762Z" fill="#000072"/>
</g>
<path d="M268.679 620.572C246.137 620.572 231.249 615.009 224.453 604.009C218.263 593.97 220.919 582.635 223.491 577.532C227.192 570.15 236.727 566.553 242.248 565.026C242.373 552.394 243.084 512.262 247.141 493.293C251.636 472.359 275.119 463.053 294.942 464.914C305.858 465.939 315.79 470.309 322.921 477.211C331.181 485.221 335.718 496.493 336.011 509.815C336.701 540.16 332.874 581.108 310.688 603.82C299.815 614.946 285.679 620.572 268.679 620.572ZM256.55 495.301C252.013 516.528 251.846 568.351 251.846 568.874C251.846 571.216 250.152 573.203 247.852 573.601C242.917 574.479 234.26 577.49 232.085 581.84C230.83 584.329 228.509 592.276 232.629 598.968C237.48 606.811 249.943 610.973 268.658 610.973C282.982 610.973 294.796 606.309 303.788 597.107C323.632 576.8 327.019 538.55 326.371 510.045C325.681 479.825 301.425 475.203 294.001 474.492C278.13 472.986 259.75 480.369 256.55 495.301Z" fill="#000072"/>
<path d="M246.723 564.064C255.735 564.315 264.727 567.201 271.815 572.806C274.199 574.604 276.144 576.884 277.942 579.205C278.841 580.355 278.632 582.029 277.482 582.928C276.353 583.806 274.764 583.597 273.844 582.572C267.111 575.545 256.864 572.722 247.35 573.663C240.387 574.479 239.676 564.21 246.723 564.064Z" fill="#000072"/>
<path d="M422.602 596.522C422.602 596.522 424.024 624.19 374.508 624.19C328.19 624.19 327.626 604.259 327.605 597.965V597.735C327.605 591.711 336.032 580.899 350.46 580.899C350.46 580.899 326.413 559.254 338.437 515.963C348.725 478.884 391.654 477.817 417.375 494.276C421.682 497.037 425.509 500.299 428.625 503.938C449.054 527.968 450.267 571.258 422.602 596.522Z" fill="#FFD85A"/>
<g opacity="0.6">
<path d="M328.839 603.256C328.839 603.256 336.701 584.224 376.871 587.592C376.871 587.592 332.289 564.775 327.605 603.256" fill="white"/>
</g>
<g opacity="0.6">
<path d="M441.15 528.156C438.808 523.011 435.839 518.264 432.305 514.081C429.21 510.421 425.383 507.18 421.055 504.419C395.335 487.96 352.405 489.027 342.117 526.106C337.412 543.025 338.228 556.661 340.967 566.971C335.907 556.201 331.975 539.198 338.437 515.963C348.725 478.884 391.654 477.817 417.375 494.276C421.682 497.037 425.509 500.299 428.625 503.938C434.396 510.735 438.662 519.1 441.15 528.156Z" fill="white"/>
</g>
<g opacity="0.2">
<path d="M422.602 596.521C422.602 596.521 424.024 624.19 374.508 624.19C328.19 624.19 327.626 604.259 327.605 597.964C338.855 613.649 398.116 613.022 405.33 597.985C412.377 583.283 418.901 580.899 422.226 563.52C426.889 539.114 423.899 510.191 417.375 494.255C421.682 497.016 425.509 500.278 428.625 503.917C449.054 527.967 450.267 571.258 422.602 596.521Z" fill="#000072"/>
</g>
<path d="M374.508 629C340.193 629 322.795 618.481 322.795 597.734C322.795 590.624 329.8 580.92 341.343 577.407C334.422 567.306 324.97 546.413 333.794 514.667C338.792 496.702 351.464 484.635 369.468 480.662C391.759 475.747 418.169 484.217 432.284 500.822C443.22 513.684 449.117 531.586 448.448 549.968C447.779 568.937 440.272 586.169 427.286 598.738C426.91 602.189 425.404 608.714 419.57 614.842C410.662 624.232 395.481 629 374.508 629ZM382.454 488.901C378.731 488.901 375.072 489.278 371.559 490.052C361.397 492.289 348.202 498.835 343.079 517.239C332.059 556.891 352.823 576.528 353.701 577.344C355.165 578.682 355.667 580.795 354.935 582.635C354.224 584.475 352.447 585.709 350.46 585.709C338.039 585.709 332.414 594.932 332.414 597.734C332.414 603.088 332.414 619.38 374.508 619.38C392.491 619.38 405.664 615.511 412.607 608.212C417.939 602.586 417.814 596.835 417.793 596.793C417.709 595.35 418.295 593.97 419.361 592.987C445.458 569.167 443.241 528.574 424.944 507.054C415.43 495.824 398.492 488.901 382.454 488.901Z" fill="#000072"/>
<path d="M350.46 576.068C358.825 576.968 366.875 579.791 374.403 583.409C376.85 584.58 379.212 585.918 381.534 587.278C382.621 587.905 382.976 589.306 382.349 590.394C381.784 591.377 380.593 591.753 379.568 591.356C370.325 587.759 360.393 585.291 350.46 585.688C342.849 586.588 342.765 575.315 350.46 576.068Z" fill="#000072"/>
<path d="M178.491 180.408C178.491 180.408 160.445 109.449 133.993 107.044C113.187 105.162 104.258 124.862 101.414 133.332C105.534 136.825 107.311 142.346 105.471 147.323C103.045 153.869 95.2874 157.027 88.1151 154.371C80.9427 151.715 77.0951 144.27 79.5208 137.724C81.4655 132.454 86.9022 129.38 92.6945 129.777C95.7475 120.952 107.792 92.1749 135.206 95.0191C170.085 98.6371 192.919 155.145 198.942 176.79" fill="#FFD85A"/>
<path d="M313.302 180.408C313.302 180.408 331.348 109.449 357.8 107.044C378.606 105.162 387.535 124.862 390.379 133.332C386.26 136.825 384.482 142.346 386.322 147.323C388.748 153.869 396.506 157.027 403.678 154.371C410.851 151.715 414.698 144.27 412.273 137.724C410.328 132.454 404.891 129.38 399.099 129.777C396.046 120.952 384.001 92.1749 356.608 95.0191C321.729 98.6371 298.895 155.145 292.873 176.79" fill="#FFD85A"/>
<path d="M178.491 185.218C176.337 185.218 174.392 183.775 173.828 181.6C167.178 155.438 150.345 113.36 133.554 111.834C118.352 110.453 110.594 122.918 106.955 132.14C110.886 136.95 112.099 143.245 109.987 148.976C106.662 157.989 96.1026 162.423 86.4627 158.868C81.8624 157.174 78.1403 153.911 75.9656 149.708C73.7072 145.358 73.3726 140.506 75.0246 136.051C77.262 129.986 82.7825 125.866 89.3275 125.072C94.0533 113.067 107.603 87.323 135.707 90.23C171.695 93.9526 195.847 147.637 203.584 175.515C204.294 178.066 202.789 180.722 200.238 181.433C197.666 182.144 195.031 180.638 194.32 178.087C188.591 157.425 166.697 103.113 134.725 99.8083C119.104 98.1771 109.088 108.759 103.233 118.505C109.067 109.554 118.812 100.833 134.453 102.255C163.456 104.89 181.251 171.625 183.175 179.216C183.823 181.789 182.276 184.403 179.704 185.072C179.285 185.156 178.888 185.218 178.491 185.218ZM91.7113 134.545C88.1774 134.545 85.1454 136.428 84.058 139.376C83.368 141.259 83.5352 143.35 84.518 145.295C85.5845 147.365 87.4665 148.997 89.8084 149.854C94.4715 151.569 99.4901 149.687 100.975 145.65C102.062 142.702 101.017 139.293 98.2982 136.992C96.9808 135.863 96.3744 134.148 96.6881 132.475C95.7471 133.855 94.1161 134.671 92.3805 134.566C92.1504 134.545 91.9204 134.545 91.7113 134.545Z" fill="#000072"/>
<path d="M313.302 185.218C312.905 185.218 312.508 185.177 312.11 185.072C309.538 184.424 307.97 181.81 308.639 179.216C310.563 171.625 328.358 104.89 357.361 102.255C372.981 100.833 382.726 109.533 388.56 118.484C382.705 108.738 372.689 98.1771 357.089 99.8083C325.117 103.113 303.223 157.446 297.494 178.087C296.783 180.638 294.127 182.144 291.576 181.433C289.025 180.722 287.519 178.066 288.23 175.515C295.967 147.637 320.119 93.9526 356.106 90.23C384.19 87.323 397.74 113.067 402.466 125.072C409.011 125.866 414.531 129.986 416.768 136.051C418.42 140.506 418.086 145.358 415.827 149.708C413.653 153.932 409.931 157.174 405.33 158.868C395.69 162.423 385.131 157.989 381.806 148.976C379.694 143.245 380.886 136.93 384.838 132.14C381.199 122.897 373.441 110.432 358.239 111.834C341.448 113.36 324.636 155.438 317.965 181.6C317.422 183.755 315.456 185.218 313.302 185.218ZM395.105 132.496C395.398 134.169 394.791 135.884 393.495 137.013C390.776 139.314 389.731 142.723 390.818 145.671C392.303 149.708 397.321 151.59 401.985 149.875C404.327 149.017 406.188 147.386 407.275 145.316C408.279 143.392 408.446 141.28 407.735 139.397C406.585 136.26 403.218 134.315 399.392 134.587C397.698 134.692 396.067 133.876 395.105 132.496Z" fill="#000072"/>
<g opacity="0.2">
<path d="M374.508 342.759C373.023 364.174 364.471 379.692 352.447 390.943C315.853 425.178 274.346 424.53 247.036 424.53C219.727 424.53 178.219 425.157 141.626 390.943C129.602 379.692 121.049 364.153 119.565 342.759C119.021 334.728 119.126 327.032 119.857 319.649C121.949 339.329 130.229 353.822 141.605 364.488C178.198 398.723 219.706 398.075 247.015 398.075C274.325 398.075 315.832 398.702 352.426 364.488C363.823 353.822 372.082 339.35 374.173 319.649C374.947 327.032 375.052 334.749 374.508 342.759Z" fill="#000072"/>
</g>
<g opacity="0.2">
<path d="M383.039 270.608C397.468 306.683 403.49 354.784 373.421 395.69C344.041 435.656 280.933 440.006 247.057 440.173C246.681 440.194 246.284 440.194 245.907 440.194C245.531 440.194 245.133 440.194 244.757 440.173C210.861 440.006 147.773 435.656 118.394 395.69C88.3242 354.805 94.3465 306.683 108.775 270.608C108.775 270.608 71.8675 188.125 83.6611 161.314C91.168 184.11 104.07 210.168 125.357 221.294C133.449 225.518 136.649 235.473 132.822 243.755C109.967 292.818 63.0432 429.319 245.886 429.884C428.729 429.319 381.806 292.818 358.992 243.734C355.145 235.452 358.365 225.497 366.457 221.273C387.744 210.147 400.625 184.089 408.153 161.293C419.926 188.104 383.039 270.608 383.039 270.608Z" fill="#000072"/>
</g>
<g opacity="0.2">
<path d="M247.036 440.173L245.886 440.194C246.263 440.173 246.66 440.173 247.036 440.173Z" fill="#300000"/>
</g>
<g opacity="0.2">
<path d="M245.886 440.173H244.736V440.152C245.133 440.173 245.51 440.173 245.886 440.173Z" fill="#300000"/>
</g>
</g>
<defs>
<clipPath id="clip0_244_4924">
<rect width="535" height="539" fill="white" transform="translate(74 90)"/>
</clipPath>
</defs>
</svg>
