<svg width="626" height="691" viewBox="0 0 626 691" fill="none" xmlns="http://www.w3.org/2000/svg">
<ellipse cx="313" cy="378.5" rx="313" ry="299.5" fill="#B0A2D7"/>
<path d="M243.46 603.293C235.476 602.513 230.177 603.866 222.422 607.836C215.769 611.231 207.326 616.531 193.836 624.033C191.702 625.203 189.477 626.442 187.091 627.727C172.889 635.412 158.16 637.454 144.464 636.124C129.23 634.632 115.258 628.943 104.613 622.129C101.148 619.903 98.0282 617.563 95.3669 615.2C89.2642 609.854 82.6797 605.84 75.9805 603.293C62.5821 598.2 48.9084 599.094 38.699 607.445C23.3964 619.972 -5.28167 604.486 10.0209 579.616C22.7769 558.899 53.1069 550.938 75.0169 549.975C79.376 549.791 83.3909 549.86 86.8782 550.181C86.8782 550.181 110.669 576.358 132.717 586.683C154.765 597.007 179.29 598.544 194.226 582.094C195.579 580.603 197.048 579.157 198.631 577.781C204.412 572.642 211.547 568.099 219.118 564.36H219.141C232.356 557.844 246.833 553.714 257.432 552.98" fill="white"/>
<path d="M76.0034 603.293C62.605 598.2 48.9313 599.094 38.722 607.445C23.4193 619.972 -5.25872 604.486 10.0439 579.616C22.7999 558.899 53.1298 550.938 75.0398 549.975C77.5635 555.297 78.9859 559.289 78.9859 559.289C78.9859 559.289 90.1589 575.143 76.0034 603.293Z" fill="#FFAD40"/>
<g opacity="0.6">
<path d="M257.455 552.98L255.757 559.083C245.731 560.482 233.296 564.337 221.802 570.003H221.779C214.208 573.743 207.05 578.263 201.292 583.425C199.709 584.824 198.24 586.247 196.887 587.738C181.951 604.188 157.426 602.65 135.378 592.326C113.33 582.002 89.562 555.825 89.562 555.825C86.0748 555.504 82.0598 555.412 77.7237 555.618C55.8137 556.582 25.4838 564.543 12.7048 585.26C8.41457 592.212 7.58864 598.429 8.94224 603.499C4.83554 597.764 4.00963 589.413 10.0435 579.616C22.7995 558.899 53.1294 550.938 75.0394 549.975C79.3985 549.791 83.4134 549.86 86.9007 550.181C86.9007 550.181 110.669 576.381 132.717 586.705C154.764 597.03 179.29 598.567 194.225 582.117C195.579 580.626 197.047 579.18 198.607 577.804C204.389 572.665 211.524 568.122 219.095 564.382H219.118C232.379 557.867 246.855 553.737 257.455 552.98Z" fill="white"/>
</g>
<path d="M222.422 607.812C215.769 611.208 207.326 616.531 193.859 624.01C197.644 610.795 201.361 592.533 198.654 577.804C204.435 572.665 211.57 568.122 219.141 564.382H219.164C221.94 575.441 225.084 592.739 222.422 607.812Z" fill="#FFAD40"/>
<path d="M144.487 636.1C129.253 634.609 115.281 628.919 104.659 622.105C107.825 603.063 113.331 582.117 113.331 582.117L139.325 597.832C147.4 611.208 147.171 624.996 144.487 636.1Z" fill="#FFAD40"/>
<g opacity="0.3">
<path d="M257.455 552.98L243.461 603.293C235.477 602.513 230.177 603.866 222.422 607.835C215.769 611.231 207.326 616.553 193.859 624.033C191.725 625.226 189.5 626.465 187.114 627.749C172.913 635.435 158.183 637.477 144.487 636.146C129.253 634.655 115.281 628.965 104.659 622.151C101.194 619.926 98.0972 617.586 95.39 615.246C89.3102 609.9 82.7028 605.862 76.0266 603.339C62.6282 598.245 48.9545 599.14 38.7451 607.491C24.9337 618.825 0.132948 607.239 6.83214 586.545C11.283 598.796 28.811 603.247 39.2498 594.116C49.1839 585.421 62.8117 584.067 76.3707 588.701C83.1387 591.019 89.8609 594.804 96.1241 599.966C98.9002 602.214 102.066 604.463 105.622 606.574C116.474 613.02 130.63 618.228 145.886 619.215C159.629 620.11 174.266 617.563 188.215 609.395C190.555 608.042 192.735 606.711 194.823 605.472C208.037 597.534 216.297 591.936 222.835 588.334C230.452 584.113 235.706 582.576 243.713 583.103L250.802 553.852C253.165 553.416 255.391 553.141 257.455 552.98Z" fill="#262F6A"/>
</g>
<path d="M152.356 640.506C149.626 640.506 146.873 640.368 144.074 640.093C129.735 638.693 114.96 633.508 102.456 625.478C98.9 623.184 95.6192 620.752 92.7285 618.205C87.0158 613.204 80.9131 609.441 74.581 607.033C61.802 602.169 49.9867 603.431 41.2685 610.543C32.1145 618.045 18.3261 617.655 9.17205 609.671C2.15166 603.545 -2.2074 591.868 6.62544 577.506C19.955 555.848 50.6291 547.015 74.8792 545.96C79.3301 545.753 83.5056 545.822 87.2681 546.189C88.2776 546.281 89.1953 546.74 89.8836 547.497C90.113 547.749 113.4 573.215 134.438 583.081C157.954 594.093 179.199 592.716 191.266 579.433C192.689 577.873 194.272 576.313 195.969 574.798C201.728 569.659 208.932 564.933 217.352 560.781C217.421 560.758 217.467 560.712 217.535 560.689C230.796 554.173 245.594 549.791 257.157 548.988C259.359 548.828 261.287 550.502 261.447 552.705C261.608 554.907 259.933 556.834 257.731 556.995C247.269 557.729 233.159 561.951 220.931 567.984C220.862 568.007 220.816 568.03 220.747 568.076C213.153 571.839 206.431 576.244 201.315 580.809C199.801 582.14 198.424 583.494 197.231 584.824C182.663 600.861 157.931 602.926 131.042 590.353C110.968 580.947 90.0442 559.427 85.0427 554.081C82.0373 553.875 78.7565 553.852 75.2463 554.013C54.0704 554.93 25.1859 562.754 13.4852 581.75C8.13965 590.445 8.50673 598.429 14.4718 603.66C19.8403 608.34 29.4302 609.9 36.1983 604.371C47.073 595.492 62.1003 593.726 77.4488 599.553C84.6986 602.306 91.6272 606.551 98.0511 612.195C100.667 614.466 103.603 616.691 106.838 618.756C118.286 626.098 131.799 630.847 144.9 632.132C159.307 633.554 172.866 630.893 185.232 624.216C187.618 622.932 189.821 621.716 191.932 620.546C198.103 617.127 203.15 614.191 207.601 611.598C212.832 608.57 216.939 606.161 220.633 604.279C229.42 599.783 235.499 598.498 243.896 599.324C246.099 599.553 247.705 601.503 247.498 603.706C247.269 605.908 245.319 607.514 243.116 607.308C236.302 606.62 231.714 607.629 224.303 611.415C220.816 613.204 216.778 615.544 211.662 618.504C207.188 621.119 202.095 624.056 195.855 627.52C193.721 628.713 191.473 629.952 189.064 631.26C177.638 637.408 165.341 640.506 152.356 640.506Z" fill="#262F6A"/>
<path d="M177.255 617.455C220.986 599.33 237.197 538.216 213.462 480.954C189.728 423.692 135.037 391.965 91.3062 410.091C47.5754 428.217 31.3649 489.331 55.0991 546.593C78.8333 603.855 133.524 635.581 177.255 617.455Z" fill="#B4B2B7"/>
<g opacity="0.3">
<path d="M159.514 566.011C158.551 566.539 157.541 566.998 156.486 567.434C153.825 568.535 151.117 569.292 148.364 569.751C152.012 568.191 155.775 566.929 159.514 566.011Z" fill="#262F6A"/>
</g>
<g opacity="0.3">
<path d="M177.203 617.471C133.474 635.595 78.7797 603.866 55.0343 546.602C53.933 543.963 52.9236 541.302 52.0059 538.664C77.3114 590.881 128.955 618.87 170.618 601.595C174.381 600.035 177.937 598.176 181.264 595.997C181.287 595.997 181.287 595.997 181.31 595.974C212.121 569.2 186.747 559.22 159.491 566.011C155.752 566.929 151.989 568.168 148.341 569.751C148.135 569.796 147.928 569.819 147.722 569.865C125.445 573.123 100.552 556.215 88.9891 528.317C75.889 496.702 84.8594 462.931 108.995 452.928C133.153 442.925 163.346 460.43 176.446 492.067C182.801 507.416 183.971 523.246 180.713 536.645C188.766 532.63 202.417 530.014 206.363 531.07C208.405 531.597 212.58 534.19 216.297 537.012C219.417 517.166 217.49 494.958 209.804 473.025C211.066 475.618 212.259 478.256 213.36 480.963C237.151 538.228 220.954 599.346 177.203 617.471Z" fill="#262F6A"/>
</g>
<g opacity="0.6">
<path d="M66.8722 441.319C48.3347 469.102 45.2375 511.316 61.9396 551.603C71.4607 574.546 85.9144 593.382 102.685 606.574C83.0237 593.382 65.8398 572.619 55.0568 546.602C31.3114 489.338 47.5317 428.242 91.26 410.117C117.552 399.243 147.767 406.332 172.866 426.154C149.259 410.209 122.072 405.208 98.1428 415.119C94.082 416.817 90.2276 418.881 86.6486 421.267C85.3179 434.666 77.6093 439.943 66.8722 441.319Z" fill="white"/>
</g>
<path d="M151.438 626.556C112.275 626.556 71.1624 595.974 51.3401 548.139C26.7917 488.925 44.0215 425.328 89.7228 406.401C112.069 397.155 137.673 399.77 161.854 413.811C185.691 427.645 205.307 450.955 217.122 479.449C241.671 538.664 224.441 602.26 178.739 621.188C169.975 624.813 160.753 626.556 151.438 626.556ZM117.254 408.993C108.788 408.993 100.575 410.576 92.7971 413.811C51.1795 431.064 35.8998 489.934 58.7505 545.065C77.288 589.803 115.35 618.549 151.277 618.549C159.606 618.549 167.819 617.012 175.642 613.754C217.26 596.502 232.54 537.631 209.689 482.501C198.539 455.612 180.116 433.679 157.816 420.74C144.418 412.939 130.56 408.993 117.254 408.993Z" fill="#262F6A"/>
<path d="M209.184 565.667C206.087 575.027 200.948 583.929 193.859 591.179C190.303 594.781 186.265 597.97 181.86 600.608C177.455 603.224 172.66 605.197 167.704 606.596C157.747 609.441 147.079 609.372 137.03 607.262C126.936 605.082 117.46 600.723 108.926 595.125C100.368 589.527 92.866 582.507 86.3504 574.752C79.9495 566.906 74.4203 558.348 70.1989 549.194C61.6643 531.001 57.4659 510.674 59.3242 490.966C60.4025 510.697 66.0004 529.739 75.0627 546.762C84.125 563.763 96.9269 578.767 112.757 589.298C120.672 594.529 129.345 598.566 138.499 600.815C147.63 603.109 157.197 603.315 166.397 601.319C170.985 600.31 175.436 598.681 179.703 596.593C183.948 594.483 187.917 591.798 191.564 588.678C198.883 582.484 204.688 574.431 209.184 565.667Z" fill="#262F6A"/>
<path d="M511.979 177.343L469.306 219.42L314.444 59.6025L302.193 4.90771L303.707 5.16008L360.696 14.4747L510.006 175.232L511.979 177.343Z" fill="#B4B2B7"/>
<g opacity="0.6">
<path d="M475.385 213.409L469.306 219.42L314.444 59.6025L302.193 4.90771L311.462 6.42192L322.474 55.5876L475.385 213.409Z" fill="white"/>
</g>
<path d="M158.94 539.077C158.825 546.143 157.793 553.668 155.178 561.01C153.227 566.539 145.519 567.457 142.674 562.318C141.504 560.207 140.93 557.202 141.573 552.98C141.619 552.659 141.664 552.315 141.664 551.948C141.802 548.07 139.875 542.587 136.869 536.507C127.578 517.626 107.939 492.871 107.365 492.16C107.365 492.137 107.365 492.137 107.365 492.137C107.365 492.137 102.57 478.67 115.579 472.75C121.085 470.25 127.348 473.53 132.694 478.165C139.967 484.451 145.611 493.192 145.611 493.192L152.47 503.241C152.47 503.241 152.493 503.264 152.493 503.287C152.906 504.25 159.238 520.081 158.94 539.077Z" fill="#C46949"/>
<path d="M148.478 569.154C144.785 569.154 141.481 567.227 139.692 563.992C137.994 560.941 137.512 557.064 138.2 552.475C139.714 542.61 118.447 511.546 104.704 494.293C104.475 493.995 104.291 493.674 104.154 493.307C102.135 487.617 101.607 475.366 114.18 469.63C129.459 462.656 146.62 488.397 148.524 491.357L155.338 501.314C155.476 501.497 155.591 501.727 155.682 501.933C156.21 503.218 168.599 533.548 158.435 562.18C157.059 566.057 153.503 568.787 149.35 569.131C149.075 569.131 148.777 569.154 148.478 569.154ZM110.486 490.508C115.785 497.207 147.377 537.907 144.991 553.531C144.532 556.582 144.762 558.991 145.702 560.689C146.574 562.295 148.157 562.341 148.777 562.272C149.924 562.18 151.369 561.492 151.943 559.886C160.707 535.177 150.681 508.082 149.442 504.893L142.789 495.165C138.728 488.902 125.421 472.062 117.024 475.893C108.146 479.931 109.889 488.351 110.486 490.508Z" fill="#262F6A"/>
<path d="M495.483 243.027C495.483 243.027 464.419 243.716 459.739 237.682C456.275 233.231 464.97 215.863 469.719 207.168C471.485 203.933 474.032 201.18 477.152 199.184L508.56 179.11C512.162 176.815 516.361 175.622 520.628 175.668C527.947 175.76 539.074 176.379 542.813 179.178C542.813 179.178 543.685 198.404 535.357 206.136" fill="#FEBD1C"/>
<g opacity="0.3">
<path d="M535.357 206.159L495.483 243.027C495.483 243.027 492.065 243.119 487.315 242.982L522.486 210.449C530.814 202.695 529.943 183.492 529.943 183.492C526.203 180.693 515.099 180.073 507.757 179.982H507.207L508.537 179.133C512.139 176.815 516.338 175.622 520.605 175.691C527.924 175.783 539.051 176.38 542.79 179.179C542.813 179.201 543.662 198.404 535.357 206.159Z" fill="#262F6A"/>
</g>
<g opacity="0.6">
<path d="M542.813 179.706C537.903 178.743 531.502 178.467 526.73 178.399C522.463 178.353 518.242 179.546 514.64 181.84L483.232 201.915C480.111 203.888 477.565 206.641 475.798 209.876C471.049 218.594 462.354 235.938 465.818 240.389C465.933 240.527 466.048 240.664 466.185 240.779C463.134 240.022 460.771 239.012 459.716 237.659C456.251 233.185 464.946 215.841 469.673 207.145C471.462 203.888 474.009 201.157 477.106 199.161L508.514 179.11C512.116 176.793 516.315 175.6 520.582 175.668C527.9 175.76 539.028 176.357 542.767 179.156C542.813 179.201 542.813 179.362 542.813 179.706Z" fill="white"/>
</g>
<path d="M495.827 240.275L483.782 231.212C483.782 231.212 480.524 217.263 484.929 211.895C488.073 208.086 503.696 197.969 512.437 192.462C515.993 190.237 520.536 190.489 523.817 193.082L531.365 199.093" fill="#C46949"/>
<path d="M465.428 219.443C464.373 219.443 463.341 219.03 462.538 218.227L311.553 62.3787C311.049 61.851 310.682 61.1857 310.521 60.4515L298.293 5.77967C297.994 4.47195 298.384 3.11835 299.279 2.15477C300.197 1.19119 301.528 0.732332 302.858 0.938814L361.361 10.5058C362.233 10.6435 363.059 11.0794 363.656 11.7447L514.938 174.613C516.452 176.242 516.361 178.789 514.732 180.28C513.103 181.771 510.556 181.702 509.065 180.073L358.723 18.2145L307.447 9.81754L318.138 57.6067L468.342 212.629C469.879 214.212 469.856 216.758 468.25 218.296C467.447 219.076 466.438 219.443 465.428 219.443Z" fill="#262F6A"/>
<path d="M491.101 247.088C479.813 247.088 461.207 246.147 456.573 240.159C454.921 238.026 451.044 233.047 466.186 205.241C468.273 201.409 471.325 198.152 474.973 195.811L506.381 175.737C510.648 173.007 515.558 171.584 520.674 171.676C539.785 171.905 543.869 174.98 545.222 175.966C546.186 176.677 546.76 177.802 546.828 178.995C546.92 181.151 547.494 200.308 538.087 209.072C536.458 210.586 533.935 210.495 532.42 208.866C530.906 207.237 530.998 204.713 532.627 203.199C537.582 198.588 538.753 187.621 538.844 181.656C536.068 180.715 530.218 179.821 520.605 179.706C517.141 179.66 513.676 180.624 510.74 182.505L479.332 202.58C476.808 204.208 474.697 206.457 473.252 209.095C463.777 226.486 462.652 233.781 463.02 235.318C465.474 237.613 480.479 239.356 495.414 239.012C495.437 239.012 495.483 239.012 495.506 239.012C497.686 239.012 499.475 240.756 499.521 242.935C499.567 245.161 497.823 246.996 495.598 247.042C494.29 247.065 492.776 247.088 491.101 247.088Z" fill="#262F6A"/>
<path d="M495.827 244.289C494.979 244.289 494.13 244.037 493.418 243.486L481.374 234.424C480.617 233.851 480.089 233.048 479.882 232.13C479.263 229.469 476.464 215.91 481.832 209.371C484.494 206.136 494.061 199.322 510.304 189.09C515.283 185.947 521.729 186.314 526.318 189.962L533.866 195.973C535.61 197.349 535.885 199.873 534.508 201.616C533.132 203.36 530.608 203.635 528.864 202.259L521.316 196.248C519.366 194.711 516.659 194.55 514.571 195.881C497.319 206.733 489.541 212.606 488.027 214.464C486.1 216.827 486.467 223.985 487.408 228.918L498.236 237.085C500.003 238.416 500.37 240.94 499.039 242.706C498.236 243.739 497.043 244.289 495.827 244.289Z" fill="#262F6A"/>
<path d="M572.96 293.18C570.711 305.041 568.325 313.369 568.325 313.369C556.235 355.583 533.315 386.831 502.136 409.681C501.379 410.232 500.622 410.783 499.888 411.333C499.75 411.425 499.636 411.517 499.498 411.609C511.612 442.994 508.331 479.151 495.391 512.968C495.391 512.968 495.391 512.968 495.368 512.968C480.548 551.764 453.04 587.462 421.471 609.372L404.08 622.656L397.771 614.833C397.771 614.833 380.954 635.664 365.468 631.076C355.878 628.231 351.267 622.289 349.156 618.205C349.133 618.205 349.133 618.182 349.133 618.182C347.848 615.682 347.481 613.846 347.481 613.846L343.765 616.783L340.667 619.215L306.621 646.103L305.611 646.906C305.611 646.906 313.068 660.098 296.136 678.452C279.205 696.806 236.761 680.746 223.867 662.392C222.812 660.855 221.894 659.249 221.114 657.597C212.74 639.243 222.789 613.273 236.188 596.708C238.964 593.29 241.464 588.77 243.667 583.746C243.667 583.746 243.667 583.723 243.69 583.723C249.54 570.347 253.417 553.209 255.528 542.174C256.79 535.498 257.409 531.047 257.409 531.047C247.475 535.475 236.44 539.1 225.473 542.059C216.159 544.56 206.913 546.579 198.401 548.185C193.859 549.057 189.546 549.768 185.531 550.433C182.043 550.984 178.786 551.443 175.872 551.856L175.803 551.879C166.098 553.209 159.927 553.714 159.927 553.714C160.707 541.715 160.087 532.011 158.894 524.44C156.784 510.605 152.861 503.883 152.493 503.287C152.493 503.264 152.471 503.241 152.471 503.241C144.785 510.582 137.466 505.374 132.602 499.524C132.189 499.019 131.776 498.515 131.386 497.987L131.363 497.964C130.905 497.344 130.469 496.725 130.079 496.151C126.913 491.494 126.729 485.277 130.056 480.734C130.836 479.679 131.708 478.83 132.671 478.142C142.215 471.19 159.147 481.331 159.147 481.331L166.305 477.637L178.808 471.213L194.226 463.275L194.249 463.252L231.438 444.118C231.438 444.118 388.181 366.985 443.931 337.481C499.705 307.977 495.437 266.039 495.437 266.039C478.804 239.93 504.041 230.18 504.041 230.18C504.041 230.18 497.433 210.954 512.644 200.354C527.855 189.755 565.228 202.947 574.015 232.657C579.315 250.415 576.263 275.652 572.96 293.18Z" fill="white"/>
<path d="M557.795 341.887C538.477 304.513 486.168 302.77 486.168 302.77C491.124 292.606 494.405 281.158 495.552 268.081C516.567 273.518 533.499 255.807 533.499 255.807C533.499 255.807 543.456 269.48 547.287 274.734L563.347 296.759C563.347 296.759 559.148 308.23 567.477 316.26C565.343 325.896 562.131 334.43 557.795 341.887Z" fill="#8E99A5"/>
<g opacity="0.3">
<path d="M572.96 293.18C570.712 305.041 568.326 313.369 568.326 313.369C555.96 356.616 532.214 388.322 499.888 411.311L484.907 388.276C556.923 335.555 549.352 277.556 549.352 277.556L572.96 293.18Z" fill="#262F6A"/>
</g>
<path d="M523.404 642.754C522.647 644.382 521.661 646.057 520.445 647.801C504.661 670.17 442.142 663.287 429.249 652.963C420.462 645.943 422.045 621.876 423.949 607.262C423.972 607.078 423.995 606.894 424.018 606.711C424.89 600.149 425.807 595.63 425.807 595.63L474.308 542.243L474.331 542.22L490.757 524.141C490.757 524.141 514.182 541.302 517.026 573.743C517.99 584.594 516.614 597.167 511.291 611.391C511.268 611.368 532.49 623.321 523.404 642.754Z" fill="white"/>
<path d="M225.519 542.083L198.7 547.359L185.668 549.929L175.918 551.856L175.849 551.879C176.859 541.05 176.285 531.139 174.908 522.398C171.054 497.896 160.822 482.616 160.822 482.616L167.452 478.784L179.543 471.81L194.295 463.321L194.318 463.298C194.318 463.298 222.193 480.436 226.988 514.001C228.181 522.352 227.951 531.713 225.519 542.083Z" fill="#8E99A5"/>
<g opacity="0.6">
<path d="M562.429 213.133C547.838 202.304 529.002 199.345 519.274 206.136C504.064 216.758 510.671 235.961 510.671 235.961C510.671 235.961 485.434 245.712 502.068 271.82C502.068 271.82 506.335 313.759 450.585 343.263C394.812 372.767 238.092 449.899 238.092 449.899L165.777 487.089C165.777 487.089 145.312 474.838 136.686 486.493C133.337 491.035 133.52 497.253 136.709 501.91C137.466 503.034 138.338 504.204 139.325 505.351C135.562 503.286 132.373 499.455 130.148 496.174C126.981 491.517 126.798 485.3 130.125 480.757C138.751 469.102 159.216 481.353 159.216 481.353L231.507 444.164C231.507 444.164 388.25 367.031 444 337.527C499.773 308.023 495.506 266.085 495.506 266.085C478.873 239.976 504.109 230.225 504.109 230.225C504.109 230.225 497.502 211 512.713 200.4C523.978 192.554 547.471 197.785 562.429 213.133Z" fill="white"/>
</g>
<path d="M520.445 647.801C504.661 670.17 442.142 663.287 429.249 652.963C420.347 645.828 422.091 621.279 424.018 606.688L444.85 589.963C494.566 594.093 517.004 573.72 517.004 573.72C517.967 584.572 516.591 597.144 511.268 611.368C511.268 611.368 536.206 625.432 520.445 647.801Z" fill="#8E99A5"/>
<g opacity="0.3">
<path d="M523.266 642.616C522.509 644.245 521.523 645.92 520.307 647.663C504.522 670.032 442.004 663.149 429.111 652.825C420.324 645.782 421.907 621.738 423.811 607.124C433.538 595.79 455.77 567.938 455.77 567.938L474.147 542.082L474.169 542.059C474.169 542.059 447.166 603.476 458.637 608.363L448.451 606.069C448.451 606.069 429.661 627.589 451.181 645.644C472.701 663.7 521.729 638.463 521.729 638.463C521.729 638.463 522.394 640.046 523.266 642.616Z" fill="#262F6A"/>
</g>
<path d="M475.386 666.636C455.564 666.636 434.686 662.438 426.748 656.083C418.764 649.682 416.516 632.888 420.049 606.16C420.921 599.53 421.838 594.987 421.884 594.804C422.022 594.092 422.366 593.427 422.848 592.899L487.798 521.434C489.174 519.92 491.492 519.69 493.144 520.906C494.153 521.64 518.059 539.535 521.019 573.398C522.051 585.076 520.399 597.304 516.132 609.785C520.124 612.722 527.098 618.962 529.14 628.024C530.769 635.297 528.98 642.73 523.749 650.118C518.151 658.056 507.093 663.402 491.79 665.581C486.605 666.292 481.03 666.636 475.386 666.636ZM429.547 597.465C429.226 599.163 428.606 602.719 428.01 607.216C425.05 629.63 426.45 645.552 431.773 649.82C438.678 655.349 466.439 661.039 490.666 657.62C503.72 655.762 512.897 651.563 517.187 645.484C521.042 640.023 522.418 634.746 521.294 629.791C519.252 620.706 509.41 614.947 509.318 614.878C507.597 613.915 506.84 611.827 507.528 609.969C512.186 597.557 514.021 585.489 513.035 574.087C510.97 550.341 497.113 535.199 491.148 529.693L429.547 597.465Z" fill="#262F6A"/>
<path d="M296.182 678.475C279.25 696.829 236.807 680.77 223.913 662.416C211.019 644.062 221.619 614.81 236.256 596.731C236.256 596.731 245.754 645.599 306.667 646.127L305.657 646.93C305.634 646.93 313.09 660.121 296.182 678.475Z" fill="#8E99A5"/>
<g opacity="0.6">
<path d="M240.547 676.617C233.481 672.533 227.538 667.578 223.914 662.416C222.858 660.878 221.94 659.272 221.16 657.621C212.786 639.267 222.835 613.296 236.234 596.731C236.394 596.548 236.532 596.364 236.67 596.181C237.863 598.911 239.193 601.985 240.249 604.394C228.181 620.959 219.922 644.773 227.745 661.934C228.502 663.586 229.42 665.192 230.475 666.729C232.907 670.17 236.394 673.543 240.547 676.617Z" fill="white"/>
</g>
<path d="M495.391 512.946C480.571 551.741 453.063 587.44 421.494 609.35L404.103 622.634L397.794 614.81C397.794 614.81 380.977 635.642 365.491 631.054C350.005 626.465 347.527 613.847 347.527 613.847C346.243 614.994 345.004 615.98 343.811 616.783C329.38 626.694 321.717 613.663 321.717 613.663C300.679 633.921 288.267 607.148 288.267 607.148C270.877 616.531 257.685 598.177 257.685 598.177C252.064 598.911 248.622 597.649 246.558 595.584C242.29 591.34 243.759 583.792 243.759 583.792C243.759 583.792 243.759 583.769 243.782 583.769C244.011 583.31 247.774 576.015 248.691 575.831C249.058 575.762 252.041 575.12 255.39 574.386C260.14 573.33 265.669 572.091 265.669 572.091C322.474 606.39 468.503 558.624 495.391 512.946Z" fill="#8E99A5"/>
<g opacity="0.6">
<path d="M255.322 574.385C253.853 579.111 252.178 583.769 250.297 588.059C250.274 588.082 250.274 588.082 250.274 588.082C249.081 590.766 247.842 593.29 246.489 595.584C242.221 591.34 243.69 583.792 243.69 583.792C243.69 583.792 243.69 583.769 243.713 583.769C243.942 583.31 247.705 576.014 248.622 575.831C249.012 575.762 251.972 575.119 255.322 574.385Z" fill="white"/>
</g>
<path d="M274.57 690.589C273.423 690.589 272.23 690.543 271.037 690.474C252.041 689.212 229.901 677.902 220.632 664.71C207.028 645.369 216.618 614.603 233.136 594.208C235.499 591.294 237.816 587.233 240.065 582.163C240.065 582.14 240.088 582.117 240.088 582.117C246.489 567.48 250.526 547.91 252.362 537.586C213.039 553.118 162.565 557.546 160.317 557.729C159.147 557.821 158 557.408 157.174 556.605C156.348 555.802 155.912 554.655 155.981 553.485C157.518 530.106 153.457 515.767 150.956 509.343C148.501 510.605 145.932 511.11 143.293 510.835C137.558 510.238 132.029 506.063 126.844 498.469C122.622 492.251 122.645 484.199 126.913 478.417C135.86 466.303 153.319 473.806 159.284 476.857L229.695 440.631C231.324 439.828 387.08 363.154 442.165 334.017C490.917 308.23 491.835 273.472 491.583 267.392C486.054 258.376 484.494 250.025 486.948 242.569C489.449 234.929 495.575 230.363 499.406 228.161C497.64 219.649 498.282 205.654 510.441 197.166C517.967 191.912 529.874 191.384 542.309 195.72C559.791 201.846 573.143 215.267 577.961 231.602C586.977 262.093 572.845 312.383 572.226 314.493C560.479 355.537 537.674 388.689 504.362 413.077C514.755 442.558 512.965 478.371 499.2 514.345C499.177 514.437 499.131 514.505 499.085 514.597C484.104 553.645 456.022 590.284 423.88 612.607L406.558 625.845C404.837 627.176 402.36 626.878 401.006 625.18L397.656 621.004C391.554 627.268 377.926 638.945 364.39 634.93C353.699 631.764 348.376 625.18 345.806 620.362L310.452 648.283C312.035 653.927 312.999 666.224 299.164 681.205C293.429 687.377 284.986 690.589 274.57 690.589ZM247.383 585.444C244.86 591.156 242.175 595.814 239.376 599.255C225.129 616.875 216.021 644.176 227.217 660.098C235.109 671.34 255.023 681.366 271.588 682.467C278.241 682.903 287.395 682.1 293.245 675.768C307.745 660.029 302.376 649.315 302.147 648.856C301.183 647.136 301.619 645.025 303.179 643.786L304.189 642.983L345.049 610.703C346.151 609.831 347.619 609.602 348.927 610.084C350.234 610.566 351.198 611.69 351.473 613.066C351.565 613.456 353.836 623.413 366.661 627.199C377.215 630.319 390.475 617.471 394.697 612.263C395.454 611.323 396.601 610.772 397.817 610.772C399.033 610.772 400.18 611.323 400.937 612.263L404.792 617.058L419.085 606.138C419.131 606.092 419.176 606.069 419.222 606.023C450.172 584.526 477.244 549.194 491.652 511.477C491.675 511.408 491.697 511.339 491.743 511.271C505.188 476.008 506.633 441.113 495.758 412.985C495.093 411.264 495.689 409.314 497.181 408.259C530.791 384.468 552.793 353.059 564.471 312.222C564.609 311.717 578.581 262.047 570.207 233.805C565.366 217.447 551.21 207.283 539.578 203.222C529.736 199.781 520.307 199.942 514.984 203.658C502.503 212.376 507.665 228.23 507.895 228.895C508.583 230.937 507.551 233.162 505.532 233.942C505.463 233.965 496.997 237.407 494.519 245.046C492.799 250.346 494.267 256.678 498.879 263.882C499.223 264.41 499.429 265.006 499.498 265.626C499.681 267.438 503.375 310.616 445.881 341.015C390.705 370.197 234.834 446.94 233.274 447.697L161.028 484.864C159.789 485.506 158.321 485.46 157.128 484.726C156.967 484.634 139.577 474.632 133.336 483.074C131.088 486.126 131.134 490.439 133.428 493.834C137.122 499.249 140.885 502.415 144.074 502.736C145.932 502.92 147.767 502.117 149.717 500.258C150.589 499.432 151.782 499.019 152.975 499.18C154.168 499.318 155.247 500.006 155.889 501.015C156.302 501.658 165.433 516.57 164.194 549.172C178.533 547.588 223.477 541.738 255.803 527.307C257.134 526.711 258.694 526.894 259.841 527.766C261.011 528.638 261.608 530.083 261.401 531.529C261.218 532.837 256.882 563.534 247.36 585.283C247.406 585.398 247.383 585.421 247.383 585.444Z" fill="#262F6A"/>
<path d="M198.699 547.359C198.608 547.657 198.539 547.933 198.447 548.208C198.011 549.562 197.506 550.824 196.956 552.017C193.79 561.859 183.902 560.368 184.613 555.458C185.003 553.829 185.301 552.177 185.576 550.456C185.599 550.296 185.622 550.112 185.645 549.952C186.976 540.958 186.815 530.795 185.301 520.792C182.823 504.434 176.721 488.512 167.452 478.784C167.085 478.394 166.718 478.027 166.351 477.683C165.295 476.651 164.217 475.71 163.116 474.861C160.34 469.883 166.351 464.789 174.839 468.552C176.216 469.263 177.569 470.158 178.854 471.259C179.084 471.443 179.313 471.626 179.52 471.81C190.991 481.904 199.089 505.26 200.466 525.61C201.017 533.663 200.489 541.279 198.699 547.359Z" fill="#C46949"/>
<path d="M188.788 562.731C188.077 562.731 187.389 562.662 186.701 562.501C182.938 561.63 180.667 558.532 181.194 554.953C181.217 554.862 181.217 554.77 181.24 554.678C186.861 530.428 179.244 491.495 161.005 477.614C160.638 477.316 160.317 476.972 160.087 476.559C158.298 473.347 158.665 469.722 161.074 467.084C164.355 463.482 170.297 462.817 176.216 465.432C176.285 465.455 176.331 465.478 176.399 465.524C186.563 470.732 195.625 485.598 200.627 505.26C205.422 524.096 205.238 542.45 200.145 553.302C197.988 559.748 193.17 562.731 188.788 562.731ZM188.077 555.733C188.352 555.825 188.903 555.917 189.614 555.733C191.381 555.252 192.849 553.508 193.675 550.961C193.721 550.801 193.79 550.663 193.859 550.526C203.678 530.061 190.853 480.803 173.371 471.672C169.608 470.043 167.016 470.801 166.19 471.718C165.984 471.948 165.8 472.246 165.915 472.705C185.829 488.65 194.019 529.235 188.077 555.733Z" fill="#262F6A"/>
<path d="M225.542 545.523C225.29 545.523 225.015 545.501 224.762 545.432C222.904 544.996 221.757 543.137 222.193 541.302C233.687 492.343 194.203 467.267 192.505 466.234C190.899 465.225 190.395 463.114 191.381 461.508C192.368 459.902 194.501 459.397 196.107 460.384C196.566 460.682 207.693 467.588 217.306 481.193C226.231 493.811 235.476 514.735 228.869 542.885C228.502 544.445 227.102 545.523 225.542 545.523Z" fill="#262F6A"/>
<path d="M175.849 555.32C175.734 555.32 175.642 555.32 175.527 555.297C173.646 555.114 172.247 553.439 172.43 551.557C176.101 512.234 158.16 484.795 157.976 484.52C156.921 482.937 157.357 480.803 158.917 479.748C160.5 478.692 162.634 479.105 163.689 480.688C164.492 481.881 183.167 510.33 179.267 552.2C179.107 553.989 177.592 555.32 175.849 555.32Z" fill="#262F6A"/>
<path d="M506.909 460.315C506.243 473.323 504.018 485.896 500.439 498.032L483.301 488.626C443.817 516.134 390.132 532.515 332.775 545.982C332.775 545.982 294.806 566.217 255.276 574.546C252.431 575.165 249.586 575.693 246.718 576.151L246.741 576.129C248.691 570.324 250.504 564.359 252.087 558.188C252.11 558.142 252.133 558.073 252.133 558.004C252.27 557.499 252.385 556.995 252.5 556.467C253.303 553.278 254.037 550.02 254.702 546.693C254.794 546.257 254.863 545.845 254.955 545.432C255.046 544.927 255.161 544.399 255.253 543.894H255.276C257.868 543.367 260.438 542.793 262.962 542.174C282.761 537.333 300.266 529.509 312.357 514.597L312.93 488.787C297.375 474.585 282.256 461.646 268.376 452.698L299.922 447.284L315.018 447.077L342.159 466.395C342.159 466.395 415.185 424.754 447.304 409.337C447.304 409.337 447.878 377.309 446.157 352.921L459.716 333.352C459.395 334.453 470.453 343.263 472.357 365.838C474.261 388.391 474.651 411.539 474.651 411.539C474.651 411.539 484.402 434.665 487.843 450.358L506.909 460.315Z" fill="#8E99A5"/>
<g opacity="0.6">
<path d="M316.601 495.119L316.027 520.929C303.914 535.842 286.409 543.665 266.632 548.506C264.958 548.919 263.237 549.309 261.516 549.676C260.071 556.811 258.006 565.805 255.276 574.523C254.45 574.706 253.624 574.867 252.798 575.028C250.756 575.441 248.737 575.808 246.718 576.129L246.741 576.106C248.829 570.233 250.596 564.038 252.087 558.165C252.11 558.119 252.133 558.05 252.133 557.981C252.27 557.477 252.385 556.972 252.5 556.444C252.637 555.871 252.775 555.297 252.913 554.724C253.555 552.085 254.152 549.401 254.702 546.671C254.794 546.235 254.863 545.822 254.955 545.409C255.046 544.881 255.161 544.377 255.276 543.872C257.868 543.344 260.438 542.771 262.962 542.151C282.761 537.31 300.266 529.487 312.357 514.574L312.861 491.655C314.077 492.825 315.339 493.972 316.601 495.119Z" fill="white"/>
</g>
<g opacity="0.6">
<path d="M246.741 576.129C248.691 570.325 250.503 564.36 252.086 558.188C250.595 564.061 248.828 570.256 246.741 576.129Z" fill="white"/>
</g>
<g opacity="0.6">
<path d="M255.253 543.918C255.138 544.423 255.046 544.927 254.932 545.455C255.046 544.95 255.138 544.423 255.253 543.918Z" fill="white"/>
</g>
<g opacity="0.6">
<path d="M459.716 333.398C459.532 334.04 463.203 337.298 466.668 344.364C464.717 341.543 463.295 340.097 463.433 339.707L449.874 359.277C451.594 383.665 451.021 415.693 451.021 415.693C418.901 431.11 345.876 472.75 345.876 472.75L318.735 453.433L303.616 453.639L276.452 458.297C273.699 456.301 271.014 454.442 268.353 452.745L299.899 447.33L314.995 447.124L342.136 466.441C342.136 466.441 415.162 424.801 447.281 409.383C447.281 409.383 447.855 377.356 446.134 352.968L459.716 333.398Z" fill="white"/>
</g>
<g opacity="0.3">
<path d="M506.909 460.315C506.243 473.324 504.018 485.896 500.439 498.033L483.301 488.626C443.817 516.134 390.132 532.515 332.775 545.982C332.775 545.982 294.806 566.218 255.276 574.546C252.431 575.165 249.586 575.693 246.718 576.152L246.741 576.129C248.026 572.343 249.242 568.466 250.366 564.52C250.848 564.428 251.353 564.313 251.857 564.199C291.387 555.871 329.357 535.635 329.357 535.635C386.713 522.145 440.398 505.787 479.882 478.279L497.02 487.686C499.842 478.096 501.815 468.276 502.848 458.159L506.909 460.315Z" fill="#262F6A"/>
</g>
<g opacity="0.6">
<path d="M254.679 546.717C254.129 549.447 253.555 552.131 252.89 554.77C253.28 553.072 253.67 551.397 254.014 549.791C254.243 548.759 254.473 547.749 254.679 546.717Z" fill="white"/>
</g>
<path d="M246.718 580.167C245.548 580.167 244.424 579.662 243.667 578.744C242.749 577.666 242.474 576.198 242.933 574.867C246.604 564.015 249.357 553.645 251.307 543.183C251.605 541.578 252.844 540.316 254.45 539.994C280.421 534.672 297.123 526.367 308.365 513.129L308.869 490.553C296.435 479.243 280.65 465.454 266.196 456.117C264.797 455.222 264.109 453.57 264.43 451.941C264.751 450.312 266.059 449.074 267.688 448.798L299.234 443.384C299.44 443.338 299.647 443.338 299.853 443.315L314.949 443.131C315.821 443.131 316.624 443.384 317.335 443.866L342.388 461.692C354.594 454.763 413.739 421.313 443.312 406.859C443.404 398.921 443.565 373.295 442.142 353.266C441.981 351.063 443.656 349.136 445.859 348.976C448.038 348.815 449.988 350.49 450.149 352.692C451.87 376.965 451.319 409.154 451.296 409.475C451.273 410.989 450.378 412.366 449.025 413.031C417.41 428.196 344.843 469.538 344.132 469.951C342.778 470.731 341.081 470.639 339.819 469.745L313.733 451.184L300.266 451.345L278.769 455.039C291.777 464.468 305.015 476.192 315.615 485.873C316.463 486.653 316.945 487.777 316.922 488.925L316.349 514.735C316.326 515.63 316.005 516.478 315.454 517.167C303.34 532.079 285.766 541.44 258.671 547.313C257.111 555.159 255.115 562.983 252.615 571.013C291.754 563.143 330.481 542.679 330.894 542.449C331.192 542.289 331.537 542.174 331.858 542.082C382.4 530.198 439.618 514.184 480.984 485.346C482.245 484.474 483.874 484.382 485.205 485.116L497.892 492.091C500.416 482.455 502.022 472.59 502.71 462.678L485.962 453.96C484.907 453.41 484.15 452.423 483.897 451.253C480.571 436.134 471.027 413.375 470.935 413.146C470.728 412.664 470.637 412.159 470.614 411.654C470.614 411.425 470.201 388.391 468.342 366.228C466.943 349.733 460.473 341.313 457.697 337.711C456.366 335.967 455.196 334.476 455.839 332.274C456.458 330.14 458.684 328.901 460.794 329.52C462.079 329.888 463.066 330.851 463.479 332.044C463.639 332.251 463.869 332.549 464.052 332.801C466.966 336.587 474.72 346.681 476.326 365.517C478.024 385.661 478.529 406.492 478.621 410.714C480.249 414.66 487.889 433.358 491.308 447.651L508.721 456.713C510.121 457.448 510.969 458.916 510.878 460.476C510.189 473.53 507.964 486.539 504.247 499.134C503.903 500.304 503.054 501.245 501.93 501.704C500.806 502.162 499.544 502.094 498.466 501.52L483.507 493.307C441.362 521.916 384.511 537.907 334.175 549.745C329.082 552.406 288.061 573.445 247.338 580.098C247.154 580.144 246.948 580.167 246.718 580.167Z" fill="#262F6A"/>
<path d="M496.011 413.559C494.382 410.026 492.615 406.447 490.826 402.914C489.036 399.381 487.178 395.87 485.251 392.406C481.419 385.455 477.359 378.618 472.839 372.033C478.391 377.769 483.599 383.894 488.6 390.181C491.101 393.324 493.533 396.513 495.942 399.748C498.351 402.983 500.691 406.217 503.008 409.613C504.27 411.448 503.788 413.949 501.953 415.211C500.117 416.473 497.617 415.991 496.355 414.155C496.24 413.972 496.125 413.788 496.034 413.582L496.011 413.559Z" fill="#262F6A"/>
<path d="M255.62 527.514C257.57 526.872 259.612 526.137 261.585 525.38C263.581 524.646 265.554 523.843 267.504 523.04C269.477 522.214 271.404 521.365 273.331 520.425C275.236 519.484 277.14 518.498 278.884 517.259C277.599 519.002 276.039 520.563 274.479 522.077C272.919 523.591 271.267 525.059 269.615 526.459C267.963 527.881 266.265 529.258 264.545 530.634C262.824 531.988 261.126 533.319 259.314 534.649L259.291 534.672C257.478 536.003 254.932 535.613 253.601 533.8C252.27 531.988 252.66 529.441 254.473 528.111C254.84 527.835 255.23 527.629 255.62 527.514Z" fill="#262F6A"/>
<path d="M318.78 587.83C296.09 587.83 277.094 583.723 263.558 575.556C261.654 574.408 261.057 571.931 262.204 570.049C263.351 568.145 265.829 567.549 267.71 568.696C290.561 582.484 333.028 583.402 381.344 571.174C433.355 558.005 478.85 533.227 491.973 510.927C493.097 509.022 495.552 508.38 497.479 509.504C499.383 510.628 500.026 513.083 498.901 515.01C484.539 539.398 438.104 565.094 383.317 578.974C359.87 584.87 338.006 587.83 318.78 587.83Z" fill="#262F6A"/>
<path d="M306.438 625.272C305.291 625.272 304.166 625.157 303.042 624.95C294.829 623.413 289.277 616.577 286.547 612.309C273.125 617.242 261.494 609.005 255.827 602.375C250.481 602.65 246.283 601.228 243.369 598.131C238.092 592.51 239.561 583.952 239.767 583.012C240.203 580.832 242.314 579.41 244.47 579.846C246.65 580.282 248.049 582.369 247.636 584.549C247.361 586.04 247.109 590.422 249.219 592.67C250.688 594.208 253.326 594.735 257.089 594.231C258.557 594.047 260.025 594.666 260.874 595.859C261.333 596.479 272.276 611.208 286.294 603.66C287.258 603.132 288.428 603.04 289.46 603.385C290.516 603.729 291.365 604.509 291.846 605.495C291.892 605.587 296.71 615.659 304.511 617.081C308.87 617.884 313.711 615.774 318.873 610.795C319.767 609.946 320.983 609.533 322.199 609.717C323.415 609.877 324.493 610.611 325.113 611.667C325.113 611.69 327.682 615.796 332.133 616.439C335.827 616.967 340.071 615.108 344.775 610.887C346.426 609.395 348.973 609.533 350.441 611.185C351.933 612.837 351.795 615.383 350.143 616.852C343.536 622.794 337.043 625.318 330.826 624.354C326.535 623.689 323.323 621.44 321.213 619.398C316.326 623.299 311.347 625.272 306.438 625.272Z" fill="#262F6A"/>
<path d="M319.216 601.503C282.325 601.503 255.459 593.336 243.988 578.24C242.841 576.725 243.139 574.569 244.653 573.422C246.167 572.275 248.324 572.573 249.471 574.087C261.562 590.009 295.93 597.351 341.379 593.726C397.198 589.275 463.777 568.145 478.552 540.476C479.446 538.802 481.534 538.159 483.209 539.054C484.884 539.949 485.526 542.036 484.631 543.711C468.136 574.569 398.804 596.043 341.929 600.586C334.014 601.205 326.42 601.503 319.216 601.503Z" fill="#262F6A"/>
<path d="M306.667 650.141C306.644 650.141 306.644 650.141 306.621 650.141C273.584 649.866 255.138 635.642 245.48 623.78C234.972 610.864 232.402 598.062 232.288 597.511C231.875 595.332 233.297 593.221 235.454 592.808C237.633 592.372 239.744 593.795 240.157 595.974C240.547 597.901 249.953 641.63 306.667 642.111C308.892 642.134 310.659 643.947 310.659 646.149C310.659 648.375 308.87 650.141 306.667 650.141Z" fill="#262F6A"/>
<path d="M286.982 663.287C281.682 663.287 276.566 661.337 273.607 658.01C273.056 657.414 272.437 657.345 269.11 658.056C264.957 658.951 258.671 660.304 252.729 654.339C249.724 651.334 247.773 648.351 246.053 645.713C242.933 640.964 241.373 638.578 236.05 638.303C233.113 638.142 230.567 636.834 228.639 634.517C222.307 626.831 224.625 608.89 224.9 606.871C225.198 604.669 227.24 603.132 229.442 603.453C231.645 603.751 233.159 605.793 232.861 607.996C231.92 614.741 231.897 625.868 234.857 629.424C235.453 630.158 236.004 630.273 236.486 630.296C245.869 630.778 249.379 636.146 252.775 641.331C254.358 643.763 256.01 646.264 258.419 648.673C261.149 651.403 263.397 651.082 267.435 650.21C270.968 649.453 275.786 648.42 279.595 652.665C281.132 654.362 284.848 655.762 289.001 655.097C292.649 654.523 297.742 652.229 301.229 644.474C302.147 642.455 304.51 641.56 306.529 642.455C308.548 643.373 309.443 645.736 308.548 647.755C303.34 659.364 294.828 662.3 290.24 663.012C289.139 663.195 288.06 663.287 286.982 663.287Z" fill="#262F6A"/>
<path d="M510.373 615.292C510.12 615.2 509.616 615.062 509.203 614.947C508.767 614.833 508.331 614.741 507.895 614.649C507 614.466 506.106 614.305 505.188 614.167C503.375 613.892 501.517 613.731 499.659 613.686C495.942 613.594 492.202 613.938 488.577 614.901C484.953 615.842 481.442 617.402 478.276 619.582C475.11 621.738 472.311 624.56 469.948 627.749C471.738 624.216 474.055 620.867 476.992 618.045C479.905 615.2 483.415 612.86 487.201 611.139C491.009 609.395 495.093 608.317 499.246 607.698C501.333 607.399 503.444 607.216 505.555 607.17C506.61 607.147 507.689 607.147 508.744 607.193C509.272 607.216 509.822 607.239 510.373 607.285C510.946 607.33 511.428 607.376 512.116 607.468L512.392 607.514C514.594 607.858 516.108 609.923 515.764 612.148C515.42 614.374 513.355 615.865 511.13 615.521C510.901 615.452 510.625 615.383 510.373 615.292Z" fill="#262F6A"/>
<path d="M457.926 594.529C453.682 594.529 449.208 594.345 444.505 593.955C442.303 593.772 440.651 591.821 440.834 589.619C441.018 587.416 442.945 585.765 445.17 585.948C492.294 589.848 514.112 570.921 514.319 570.714C515.971 569.246 518.494 569.384 519.986 571.013C521.454 572.664 521.339 575.188 519.71 576.656C518.816 577.482 499.498 594.529 457.926 594.529Z" fill="#262F6A"/>
<path d="M437.943 615.429C437.048 615.429 436.131 615.246 435.236 614.902C430.303 612.975 427.069 606.092 426.472 604.715C425.715 602.972 426.495 600.953 428.239 600.173C429.982 599.416 432.001 600.196 432.758 601.939C433.791 604.279 436.085 607.835 437.714 608.455C437.897 608.524 437.943 608.501 438.012 608.478C442.692 606.39 446.432 603.499 446.455 603.453C447.166 602.88 448.084 602.627 449.001 602.742C449.919 602.857 450.745 603.316 451.296 604.05C451.296 604.05 453.934 607.262 457.788 607.4C460.84 607.468 464.075 605.725 467.424 602.1C468.503 600.93 470.269 600.654 471.646 601.434C475.385 603.545 486.122 608.019 490.94 603.385L497.479 596.846C498.42 595.905 499.819 595.584 501.058 596.043C502.618 596.594 507.711 597.81 510.579 596.318C511.588 595.791 512.231 594.942 512.598 593.634C513.103 591.799 515.007 590.743 516.842 591.248C518.678 591.753 519.756 593.657 519.228 595.492C518.357 598.636 516.452 601.022 513.745 602.444C509.363 604.715 503.903 603.912 500.897 603.155L495.735 608.317C488.187 615.59 475.798 611.047 470.613 608.638C466.369 612.585 461.895 614.489 457.421 614.282C453.361 614.099 450.217 612.24 448.221 610.634C446.432 611.827 443.794 613.433 440.765 614.764C439.893 615.223 438.93 615.429 437.943 615.429Z" fill="#262F6A"/>
<path d="M531.388 252.916L563.37 296.782C561.053 303.779 562.957 311.442 568.693 315.732C576.057 321.238 586.932 319.104 592.989 310.983C599.045 302.884 598.013 291.826 590.671 286.343C587.092 283.681 582.71 282.81 578.443 283.521L556.625 252.916" fill="#C46949"/>
<g opacity="0.3">
<path d="M592.989 310.983C586.909 319.105 576.034 321.238 568.693 315.732C565.205 313.14 563.14 309.331 562.59 305.156C569.954 310.455 580.646 308.276 586.634 300.246C589.845 295.956 591.061 290.839 590.396 286.159C590.488 286.228 590.58 286.274 590.648 286.343C598.013 291.826 599.045 302.861 592.989 310.983Z" fill="#262F6A"/>
</g>
<path d="M507.642 228.368C510.671 234.034 515.489 238.99 521.018 242.821C523.794 244.749 526.799 246.309 529.874 247.708C532.948 249.085 536.045 250.369 539.211 251.287C542.4 252.182 545.681 252.71 548.824 252.549C550.384 252.411 551.944 252.228 553.344 251.654C554.812 251.195 556.074 250.392 557.267 249.429C559.538 247.41 561.052 244.336 561.672 240.917C562.36 237.499 562.245 233.851 561.993 230.203C563.163 233.667 563.989 237.292 564.058 241.124C564.104 244.909 563.163 249.062 560.456 252.434C560.158 252.87 559.745 253.214 559.378 253.604C558.988 253.971 558.643 254.407 558.208 254.683C557.359 255.325 556.51 255.99 555.546 256.449C553.688 257.505 551.669 258.078 549.65 258.56C545.589 259.409 541.528 259.225 537.628 258.652C533.705 258.078 529.897 256.977 526.341 255.371C522.784 253.765 519.504 251.654 516.338 249.406C510.051 244.863 504.339 239.265 500.507 232.061C499.475 230.111 500.209 227.679 502.159 226.624C504.109 225.592 506.541 226.326 507.597 228.276L507.642 228.368Z" fill="#262F6A"/>
<path d="M512.438 273.885C507.207 273.885 501.058 272.532 494.038 269.825C491.973 269.022 490.941 266.704 491.744 264.64C492.547 262.575 494.864 261.542 496.929 262.345C507.781 266.521 515.833 267.003 520.192 263.699C525.079 260.005 524.437 252.159 524.437 252.067C524.23 249.865 525.859 247.915 528.062 247.708C530.264 247.502 532.214 249.085 532.444 251.287C532.49 251.792 533.568 263.607 525.125 270.054C521.752 272.601 517.531 273.885 512.438 273.885Z" fill="#262F6A"/>
<path d="M577.984 322.821C573.716 322.821 569.679 321.491 566.283 318.967C559.882 314.195 557.083 305.798 558.965 297.608L528.13 255.302L534.623 250.576L566.604 294.442C567.361 295.497 567.568 296.828 567.178 298.067C565.343 303.619 566.926 309.423 571.078 312.543C573.717 314.516 577.089 315.228 580.553 314.562C584.155 313.851 587.436 311.74 589.776 308.62C592.116 305.5 593.218 301.76 592.873 298.089C592.552 294.579 590.9 291.551 588.262 289.578C585.738 287.697 582.549 286.962 579.269 287.49C579.016 287.536 578.718 287.536 578.466 287.582C578.03 287.582 577.594 287.513 577.204 287.375C576.401 287.1 575.713 286.595 575.208 285.907L553.389 255.302L559.928 250.644L580.393 279.346C585.004 279.116 589.432 280.447 593.103 283.177C597.577 286.526 600.353 291.551 600.903 297.355C601.431 302.999 599.779 308.712 596.246 313.438C592.713 318.164 587.711 321.376 582.136 322.454C580.714 322.684 579.337 322.821 577.984 322.821Z" fill="#262F6A"/>
<path d="M557.818 345.328C556.579 345.328 555.363 344.64 554.767 343.47C536.619 308.368 486.582 306.234 486.077 306.211C484.173 306.142 482.682 304.559 482.75 302.655C482.819 300.751 484.425 299.26 486.306 299.328C488.532 299.397 540.864 301.577 560.869 340.304C561.741 342.001 561.076 344.066 559.401 344.938C558.873 345.213 558.346 345.328 557.818 345.328Z" fill="#262F6A"/>
<path d="M485.205 193.793L327.453 30.1675L490.895 188.126C492.501 189.663 492.524 192.21 490.986 193.793C489.449 195.399 486.903 195.422 485.32 193.885C485.274 193.862 485.228 193.816 485.205 193.793Z" fill="#262F6A"/>
<g opacity="0.3">
<path d="M510.006 175.233L508.4 175.691L498.075 181.496L488.027 190.948L327.43 30.1445L303.707 5.16016L360.696 14.4748L510.006 175.233Z" fill="#262F6A"/>
</g>
<path d="M141.986 551.879C141.986 551.879 141.871 551.902 141.688 551.948C140.082 552.361 132.166 554.127 124.779 551.879C122.416 551.168 120.099 550.044 118.08 548.346C112.459 543.643 100.85 531.575 96.8122 519.048C94.2656 511.179 94.7015 503.149 101.447 496.634C103.488 494.66 105.484 493.169 107.389 492.137C119.204 485.529 128.404 494.408 131.409 497.964L131.432 497.987C132.144 498.813 132.511 499.318 132.511 499.318C132.556 499.387 132.602 499.455 132.648 499.524C138.889 507.508 142.353 515.171 144.074 522.054C144.441 523.522 144.739 524.922 144.945 526.298C147.469 541.463 141.986 551.879 141.986 551.879Z" fill="white"/>
<g opacity="0.6">
<path d="M144.808 525.449C142.789 519.783 139.577 513.68 134.621 507.394C134.621 507.394 121.085 487.778 103.58 504.709C98.441 509.688 96.9498 515.561 97.6839 521.549C94.2426 512.923 93.9902 503.861 101.447 496.657C118.952 479.725 132.488 499.341 132.488 499.341C139.875 508.747 143.408 517.718 144.808 525.449Z" fill="white"/>
</g>
<path d="M132.947 557.018C127.486 557.018 120.833 555.871 115.533 551.443C107.435 544.698 91.9945 527.674 91.398 511.661C91.1457 504.709 93.6005 498.698 98.6708 493.766C104.773 487.846 111.243 485.185 117.874 485.85C128.175 486.86 134.874 495.739 135.723 496.932C159.216 526.917 146.116 552.659 145.542 553.737C145.037 554.724 144.143 555.435 143.087 555.733C142.743 555.848 138.453 557.018 132.947 557.018ZM115.969 493.788C112.138 493.788 108.215 495.716 104.269 499.547C100.85 502.851 99.2673 506.728 99.4279 511.362C99.9326 525.036 114.937 540.476 120.673 545.271C126.431 550.066 135.379 549.08 139.164 548.391C141.344 542.839 146.689 523.889 129.368 501.818C129.322 501.749 129.276 501.704 129.23 501.635C129.161 501.543 124.137 494.523 117.048 493.834C116.681 493.811 116.314 493.788 115.969 493.788Z" fill="#262F6A"/>
<g opacity="0.3">
<path d="M148.341 569.751C148.089 569.866 147.859 569.957 147.607 570.072C147.607 570.072 147.653 570.003 147.722 569.866C147.928 569.82 148.135 569.797 148.341 569.751Z" fill="#262F6A"/>
</g>
<g opacity="0.3">
<path d="M520.445 243.028C541.873 249.061 558.69 246.125 557.795 208.912C557.795 208.912 586.313 240.573 576.034 272.119L575.713 275.101L559.722 261.978C559.722 261.978 542.997 258.881 549.352 275.101L532.765 255.829L523.588 247.593" fill="#262F6A"/>
</g>
<g opacity="0.3">
<path d="M518.724 242.5C519.802 261.313 508.95 265.075 494.106 263.768C494.106 263.768 500.668 269.893 512.002 268.104C523.335 266.314 527.625 259.271 527.625 259.271L526.845 252.893" fill="#262F6A"/>
</g>
<g opacity="0.3">
<path d="M141.986 551.878C141.986 551.878 127.257 556.008 118.08 548.345C112.459 543.642 100.85 531.574 96.812 519.048C97.5921 519.736 98.3721 520.516 99.1522 521.365C124.779 549.148 141.596 521.365 141.596 521.365L144.073 522.03C148.501 539.467 141.986 551.878 141.986 551.878Z" fill="#262F6A"/>
</g>
<g opacity="0.3">
<path d="M158.94 539.077C158.826 546.143 157.793 553.668 155.178 561.01C153.228 566.539 145.519 567.457 142.674 562.318C141.504 560.207 140.931 557.202 141.573 552.98C141.619 552.659 141.665 552.315 141.665 551.948C141.848 551.902 141.963 551.879 141.963 551.879C141.963 551.879 147.446 541.463 144.923 526.298L145.611 525.449C145.634 525.449 156.325 541.922 158.94 539.077Z" fill="#262F6A"/>
</g>
<g opacity="0.3">
<path d="M255.574 542.197C256.836 535.52 257.455 531.07 257.455 531.07C247.521 535.497 236.486 539.122 225.519 542.082C216.205 544.583 206.959 546.602 198.447 548.208C198.011 549.561 197.507 550.823 196.956 552.016C193.79 561.858 183.902 560.367 184.613 555.457C185.003 553.828 185.301 552.177 185.577 550.456C182.089 551.007 178.832 551.465 175.918 551.878L175.849 551.901C166.144 553.232 159.973 553.737 159.973 553.737C160.753 541.738 160.133 532.033 158.94 524.462C158.94 524.37 158.94 524.37 158.94 524.37C158.94 524.37 167.131 524.187 174.908 522.42C178.258 521.64 181.562 520.562 184.039 519.094C184.039 519.094 184.498 519.805 185.301 520.791C187.917 524.003 194.18 530.267 200.466 525.632C200.535 525.586 200.604 525.54 200.673 525.472V517.258C200.948 517.258 211.433 517.235 226.965 514.023C239.354 511.477 254.955 506.888 271.152 498.675C271.152 498.675 284 510.536 271.152 523.109C258.327 535.681 286.042 534.396 286.042 534.396L255.574 542.197Z" fill="#262F6A"/>
</g>
<g opacity="0.3">
<path d="M257.455 449.326C391.37 475.618 451.663 419.019 451.617 352.463Z" fill="#262F6A"/>
</g>
<path d="M378.064 428.976C305.91 469.493 183.282 464.147 161.487 365.885C41.039 313.369 54.9421 264.892 171.146 247.593C171.146 247.593 183.19 225.362 197.529 212.17C184.613 164.565 225.749 107.231 219.049 189.801C235.109 127.008 258.923 145.912 243.162 180.9C243.575 180.601 254.725 172.48 271.198 165.872C274.639 164.473 278.31 163.165 282.164 161.995C303.019 125.379 327.017 95.5307 363.128 91.5617C366.845 91.1487 370.516 92.8006 372.695 95.829C380.45 106.704 397.817 136.024 396.028 178.904C428.491 194.872 450.378 223.802 459.785 257.068C476.716 316.948 453.2 391.007 378.064 428.976Z" fill="white"/>
<g opacity="0.3">
<path d="M378.063 428.976C315.843 463.917 216.09 464.766 175.849 401.307C223.408 439.185 291.96 448.477 360.581 409.406C467.975 345.236 462.629 257.137 420.094 194.642C487.269 251.218 483.576 375.635 378.063 428.976Z" fill="#262F6A"/>
</g>
<g opacity="0.6">
<path d="M201.177 221.072C188.49 234.332 178.396 252.939 178.396 252.939C87.7041 266.452 59.3243 298.938 108.513 337.527C49.5967 296.621 76.2788 261.726 171.146 247.593C171.146 247.593 183.191 225.362 197.53 212.17C187.481 175.164 210.125 132.261 217.535 153.827C208.955 157.59 198.401 185.924 203.678 212.789C204.275 215.772 203.288 218.869 201.177 221.072Z" fill="white"/>
</g>
<g opacity="0.6">
<path d="M247.613 154.217C241.602 156.167 233.251 168.052 226.299 195.147C221.367 197.624 215.012 199.161 226.712 169.703C235.889 148.413 245.021 144.834 247.613 154.217Z" fill="white"/>
</g>
<path d="M459.739 257.068C440.238 269.985 416.355 277.579 390.59 277.579C324.631 277.579 271.152 227.817 271.152 166.423C271.152 166.239 271.152 166.033 271.152 165.872C274.593 164.473 278.264 163.165 282.118 161.995C302.973 125.379 326.971 95.5307 363.082 91.5617C366.799 91.1487 370.47 92.8006 372.649 95.829C380.404 106.704 397.771 136.024 395.982 178.904C428.445 194.872 450.332 223.802 459.739 257.068Z" fill="#FFAD40"/>
<g opacity="0.6">
<path d="M373.498 97.0449C372.489 96.8384 371.433 96.7925 370.355 96.9073C334.267 100.876 310.246 130.747 289.391 167.341C267.091 174.109 242.474 190.581 241.969 190.948C243.988 186.475 245.342 182.276 246.145 178.468C253.027 174.659 271.037 165.345 282.119 161.995C302.973 125.379 326.971 95.5307 363.105 91.5617C366.822 91.1487 370.47 92.8006 372.649 95.829C372.925 96.219 373.2 96.609 373.498 97.0449Z" fill="white"/>
</g>
<path d="M370.63 287.1C364.871 289.142 360.237 293.134 357.415 298.892C356.681 300.406 357.53 302.265 359.205 302.563C369.689 304.375 374.14 296.001 374.071 289.417C374.025 287.673 372.259 286.503 370.63 287.1Z" fill="#262F6A"/>
<path d="M291.915 335.554C281.384 338.353 270.188 330.484 266.862 318.026C266.288 315.847 265.99 313.667 265.944 311.557C265.921 310.501 266.678 309.584 267.733 309.423L301.986 304.261C302.973 304.1 303.937 304.697 304.281 305.637C304.556 306.372 304.785 307.129 304.992 307.886C308.296 320.389 302.445 332.778 291.915 335.554Z" fill="#262F6A"/>
<path d="M296.388 321.651C298.846 321.651 300.839 319.258 300.839 316.306C300.839 313.353 298.846 310.96 296.388 310.96C293.93 310.96 291.938 313.353 291.938 316.306C291.938 319.258 293.93 321.651 296.388 321.651Z" fill="white"/>
<path d="M399.767 259.684C393.871 263.791 384.878 261.244 378.844 254.017C377.926 252.916 377.811 251.379 378.477 250.117L388.961 230.639C389.787 229.125 391.714 228.551 393.183 229.446C395.867 231.029 398.391 233.346 400.433 236.283C406.398 244.771 406.099 255.256 399.767 259.684Z" fill="#262F6A"/>
<path d="M397.197 252.686C399.3 252.686 401.006 250.406 401.006 247.593C401.006 244.78 399.3 242.5 397.197 242.5C395.094 242.5 393.389 244.78 393.389 247.593C393.389 250.406 395.094 252.686 397.197 252.686Z" fill="white"/>
<path d="M398.826 345.236C398.023 345.924 397.197 346.704 396.394 347.53C387.791 356.432 381.206 364.026 371.02 372.492C363.128 379.03 343.26 377.08 334.335 363.062C334.358 363.062 334.358 363.062 334.358 363.062C334.358 363.062 337.914 344.387 360.581 349.847C360.558 349.824 369.85 335.623 398.826 345.236Z" fill="#E84242"/>
<path d="M397.197 291.046C396.715 296.163 395.086 301.325 392.127 305.913C390.613 308.161 388.823 310.318 386.689 312.13C384.579 313.966 382.216 315.526 379.692 316.719C379.371 316.88 379.004 316.971 378.66 316.971L378.292 316.994L379.692 316.719C375.654 318.623 371.272 319.472 367.028 319.793C364.894 319.954 362.76 320 360.65 320.023L359.067 320C358.585 320 358.149 319.977 357.69 320C356.795 320.023 355.901 320.069 355.006 320.183C351.427 320.596 348.146 321.697 345.141 323.602C342.089 325.483 339.497 327.915 337.547 330.829C335.619 333.742 334.358 337.092 333.784 340.648C333.188 344.181 333.165 348.012 333.692 351.546C334.243 355.079 335.482 358.474 337.363 361.388C339.267 364.325 341.837 366.756 344.865 368.5C350.899 372.01 358.768 372.859 365.536 371.024C366.385 370.794 367.188 370.496 367.968 370.175C368.748 369.831 369.391 369.487 370.24 368.982C371.868 368.064 373.36 366.963 374.828 365.839C377.719 363.499 380.311 360.768 382.766 357.763C385.244 354.78 387.745 351.614 390.567 348.563C391.301 347.829 391.989 347.072 392.769 346.338L393.893 345.236C394.283 344.869 394.696 344.502 395.109 344.158C396.784 342.736 398.551 341.428 400.547 340.327C402.543 339.248 404.699 338.423 406.97 337.987C409.242 337.597 411.582 337.62 413.761 338.101C418.143 339.111 421.722 341.589 424.544 344.548C420.851 342.85 416.996 341.612 413.371 341.703C411.559 341.726 409.838 342.07 408.232 342.713C406.626 343.309 405.112 344.204 403.736 345.305C400.891 347.416 398.551 350.33 396.073 353.358C393.595 356.364 391.163 359.53 388.387 362.604C385.634 365.678 382.537 368.684 379.118 371.322C377.398 372.607 375.608 373.869 373.75 374.924C372.878 375.452 371.754 376.071 370.698 376.507C369.62 376.943 368.519 377.333 367.441 377.631C363.059 378.824 358.585 379.077 354.18 378.572C349.775 378.067 345.416 376.713 341.493 374.442C337.57 372.194 334.128 368.959 331.673 365.128C329.196 361.296 327.635 356.983 326.97 352.578C326.305 348.173 326.351 343.86 327.085 339.478C327.819 335.119 329.379 330.783 331.903 326.997C334.404 323.212 337.799 320.046 341.607 317.728C343.466 316.558 345.576 315.526 347.733 314.815C349.89 314.081 352.092 313.599 354.318 313.346C355.419 313.209 356.543 313.14 357.644 313.117H360.718C362.623 313.094 364.504 312.956 366.362 312.704C370.079 312.176 373.612 311.259 377.008 310.066L377.398 309.928C377.719 309.813 378.086 309.767 378.407 309.79L377.008 310.066C379.118 309.309 381.206 308.368 383.133 307.198C385.06 306.005 386.919 304.628 388.594 302.976C390.314 301.348 391.851 299.489 393.297 297.493C394.627 295.451 395.912 293.272 397.197 291.046Z" fill="#262F6A"/>
<path d="M381.482 314.677C380.679 314.677 379.876 314.332 379.303 313.667C376.894 310.868 369.873 303.068 366.225 300.544C364.918 299.649 364.596 297.86 365.514 296.552C366.409 295.244 368.198 294.923 369.506 295.841C374.485 299.305 383.272 309.515 383.639 309.95C384.671 311.143 384.533 312.956 383.34 313.988C382.813 314.47 382.147 314.677 381.482 314.677Z" fill="#262F6A"/>
<path d="M386.07 342.254C379.669 341.29 373.704 341.887 368.45 345.236L358.7 348.815C358.7 348.815 351.68 348.678 344.063 348.976C338.373 349.182 334.61 356.983 333.073 360.883C331.169 357.166 329.999 352.738 329.861 347.53C329.448 331.379 337.914 323.464 345.026 319.632C349.316 317.361 354.157 316.42 358.998 316.512C366.248 316.673 372.718 315.663 378.27 313.346H378.293C378.293 313.369 360.948 331.677 386.07 342.254Z" fill="#262F6A"/>
<path d="M337.731 363.728L330.963 362.42C331.032 362.076 332.707 353.725 340.3 348.838C345.394 345.557 351.772 344.617 359.297 346.039C363.289 342.001 375.081 333.742 399.928 341.978L397.771 348.517C371.617 339.845 363.541 351.614 363.472 351.729C362.669 352.945 361.201 353.541 359.779 353.197C353.286 351.637 348.009 352.096 344.109 354.597C338.97 357.832 337.731 363.659 337.731 363.728Z" fill="#262F6A"/>
<path d="M362.118 346.75L373.039 356.134L358.998 352.899L362.118 346.75Z" fill="#262F6A"/>
<path d="M386.07 345.695C385.634 345.695 385.175 345.603 384.739 345.42C375.883 341.703 370.721 336.541 369.368 330.094C367.28 320.137 375.448 311.35 375.792 310.983C377.099 309.607 379.279 309.538 380.656 310.846C382.032 312.153 382.101 314.333 380.793 315.709C380.701 315.824 374.736 322.317 376.09 328.695C376.962 332.779 380.77 336.266 387.401 339.065C389.144 339.799 389.97 341.818 389.236 343.561C388.685 344.915 387.401 345.695 386.07 345.695Z" fill="#262F6A"/>
<path d="M332.316 156.259C332.316 156.259 354.41 158.278 373.039 167.455C373.705 152.589 372.374 138.066 366.386 124.346C365.17 121.547 361.729 120.538 359.182 122.19C351.932 126.847 338.442 137.653 332.316 156.259Z" fill="#F78DE8"/>
<g opacity="0.3">
<path d="M373.039 167.432C372.741 167.294 372.489 167.156 372.19 167.019C371.525 157.452 369.575 148.091 365.675 139.098C364.459 136.322 361.017 135.289 358.471 136.941C353.263 140.291 344.889 146.784 338.281 157.039C334.588 156.465 332.316 156.259 332.316 156.259C338.442 137.652 351.932 126.847 359.159 122.189C361.729 120.537 365.17 121.57 366.386 124.346C372.374 138.065 373.705 152.565 373.039 167.432Z" fill="#262F6A"/>
</g>
<path d="M161.67 291.046C161.67 291.046 156.692 312.75 159.95 335.119C137.65 329.383 118.86 320.573 108.146 304.674C106.792 302.678 107.503 299.925 109.706 298.893C117.506 295.222 136.548 288.064 161.67 291.046Z" fill="#F78DE8"/>
<g opacity="0.3">
<path d="M128.565 313.576C133.658 321.124 140.563 327.066 148.777 331.861C131.432 326.148 117.025 317.843 108.146 304.674C106.792 302.655 107.526 299.925 109.706 298.893C117.506 295.245 136.549 288.11 161.671 291.069C161.671 291.069 160.913 294.396 160.156 299.81C146.001 301.21 135.447 305.339 130.125 307.84C127.945 308.827 127.234 311.58 128.565 313.576Z" fill="#262F6A"/>
</g>
<path d="M284.504 456.759C261.08 456.759 239.147 452.423 220.334 444.026C187.825 429.504 166.305 403.487 158.023 368.752C99.611 343.011 70.4282 316.902 73.5714 293.203C76.6457 270.008 109.499 252.985 168.599 243.922C171.65 238.554 181.378 222.311 193.056 210.885C186.563 183.377 196.291 154.149 205.995 146.417C209.184 143.87 212.763 143.32 215.769 144.926C217.627 145.912 222.17 148.344 223.454 164.014C228.525 152.726 234.214 146.073 240.088 144.788C243.483 144.054 246.718 145.201 248.943 147.954C252.729 152.611 253.28 161.33 250.756 171.31C257.616 167.363 267.619 162.362 279.434 158.622C298.339 125.7 323.048 91.9286 362.669 87.5696C367.831 86.996 372.924 89.2673 375.93 93.5117C383.616 104.295 401.144 133.661 400.088 176.494C442.394 198.427 468.732 243.303 469.007 294.258C469.329 352.486 436.039 404.175 379.968 432.532C357.209 445.288 329.334 453.639 301.436 456.048C295.7 456.507 290.056 456.759 284.504 456.759ZM212.052 152.061C211.616 152.176 210.262 152.978 208.427 155.571C202.003 164.725 195.327 188.723 201.384 211.115C201.774 212.56 201.338 214.097 200.237 215.13C186.563 227.702 174.771 249.291 174.656 249.497C174.059 250.599 172.958 251.379 171.719 251.562C116.91 259.73 84.0331 275.285 81.5095 294.258C78.894 314.012 107.87 338.124 163.07 362.214C164.24 362.718 165.112 363.774 165.387 365.036C172.752 398.187 192.872 422.988 223.592 436.708C267.045 456.14 329.747 451.506 376.068 425.489C376.113 425.466 376.159 425.443 376.228 425.397C429.569 398.44 461.23 349.412 460.932 294.281C460.679 245.459 435.098 202.649 394.169 182.505C392.747 181.794 391.875 180.326 391.921 178.743C393.664 137.011 376.71 108.493 369.345 98.169C368.015 96.3106 365.766 95.3012 363.495 95.5535C326.902 99.5685 303.569 132.399 285.583 163.968C285.078 164.863 284.252 165.528 283.265 165.826C261.585 172.411 245.64 184.02 245.479 184.134C244.011 185.213 241.992 185.167 240.569 184.02C239.147 182.873 238.688 180.922 239.422 179.248C245.456 165.849 244.951 155.846 242.657 153.001C242.244 152.497 242.061 152.543 241.762 152.611C238.413 153.346 230.177 162.27 222.881 190.765C222.353 192.784 220.38 194.068 218.338 193.724C216.273 193.38 214.828 191.522 214.989 189.434C217.627 157.682 212.648 152.543 212.052 152.061Z" fill="#262F6A"/>
<path d="M373.039 171.447C372.443 171.447 371.823 171.309 371.273 171.034C353.515 162.293 332.179 160.274 331.949 160.251C330.733 160.136 329.632 159.471 328.967 158.462C328.301 157.429 328.118 156.167 328.508 154.997C335.001 135.313 349.133 123.887 357.002 118.817C359.228 117.395 361.935 117.005 364.459 117.762C366.982 118.519 369.024 120.331 370.08 122.74C375.655 135.519 377.88 149.789 377.054 167.639C376.985 168.992 376.251 170.231 375.081 170.919C374.462 171.264 373.75 171.447 373.039 171.447ZM337.868 152.91C344.636 153.919 357.048 156.282 369.185 161.307C369.254 147.495 367.143 136.139 362.715 125.952C362.577 125.631 362.325 125.493 362.141 125.448C361.958 125.379 361.66 125.356 361.361 125.562C355.029 129.623 344.109 138.364 337.868 152.91Z" fill="#262F6A"/>
<path d="M159.95 339.11C159.606 339.11 159.285 339.064 158.94 338.973C132.121 332.067 114.914 321.88 104.819 306.876C103.511 304.926 103.121 302.54 103.741 300.269C104.36 298.043 105.898 296.208 108.008 295.221C115.465 291.711 135.677 283.911 162.152 287.031C163.277 287.169 164.309 287.765 164.974 288.706C165.64 289.646 165.869 290.793 165.617 291.918C165.571 292.124 160.868 313.185 163.965 334.522C164.148 335.852 163.667 337.183 162.68 338.078C161.9 338.766 160.936 339.11 159.95 339.11ZM111.541 302.448C119.801 314.654 133.773 323.372 155.293 329.658C154.008 314.906 155.751 301.37 156.899 294.602C134.736 292.996 118.034 299.42 111.541 302.448Z" fill="#262F6A"/>
<path d="M281.729 157.98L302.583 159.976L282.509 165.987C280.352 166.629 278.058 165.413 277.416 163.234C276.773 161.077 277.989 158.783 280.169 158.14C280.696 157.98 281.224 157.934 281.729 157.98Z" fill="#262F6A"/>
<path d="M175.023 248.602L166.557 264.937L167.268 246.56C167.36 244.289 169.264 242.522 171.536 242.614C173.807 242.706 175.574 244.61 175.482 246.882C175.459 247.501 175.298 248.098 175.023 248.602Z" fill="#262F6A"/>
<g opacity="0.3">
<path d="M395.844 294.854C395.844 294.854 379.234 334.063 413.992 339.936C413.992 339.936 402.452 343.928 391.875 341.887C381.299 339.845 371.617 335.096 373.039 327.066C374.462 319.036 387.287 308.712 387.287 308.712L390.912 302.77" fill="#262F6A"/>
</g>
<g opacity="0.3">
<path d="M396.372 293.455C396.578 293.042 397.978 286.159 397.978 286.159C397.978 286.159 383.225 306.188 359.526 307.289C353.997 307.542 348.537 308.712 343.604 311.189C332.5 316.764 318.505 329.429 329.838 356.157C329.838 356.157 324.057 326.263 347.114 318.692C370.171 311.121 384.166 318.256 396.372 293.455Z" fill="#262F6A"/>
</g>
<g opacity="0.3">
<path d="M495.414 512.946C480.593 551.741 453.062 587.44 421.516 609.373L404.126 622.656L397.817 614.833C397.817 614.833 381 635.665 365.514 631.076C355.924 628.231 351.312 622.289 349.202 618.206C356.773 629.195 372.58 623.23 384.441 611.988C396.303 600.746 393.618 604.509 410.825 598.062C428.032 591.638 439.159 554.999 439.159 554.999C408.164 572.39 334.358 583.792 334.358 583.792C440.283 548.117 513.493 494.982 483.943 386.854L502.159 409.659C501.402 410.209 500.645 410.76 499.911 411.311C499.773 411.402 499.658 411.494 499.521 411.586C511.611 442.971 508.353 479.129 495.414 512.946Z" fill="#262F6A"/>
</g>
<g opacity="0.3">
<path d="M305.634 646.93C305.634 646.93 313.091 660.121 296.159 678.475C279.227 696.829 236.784 680.77 223.89 662.416C222.835 660.879 221.917 659.273 221.137 657.621C265.278 675.218 287.487 676.663 278.837 655.326C291.066 654.179 278.837 644.245 278.837 644.245C290.699 643.855 310.2 618.183 310.2 618.183H321.671C321.671 618.183 331.238 621.303 332.385 621.234C333.073 621.211 337.364 620.11 340.667 619.215L306.621 646.104L305.634 646.93Z" fill="#262F6A"/>
</g>
<g opacity="0.3">
<path d="M462.446 572.344C484.838 550.25 505.83 534.374 515.948 566.264C511.153 551.833 505.968 537.471 492.913 524.119L484.012 537.953L474.055 551.948" fill="#262F6A"/>
</g>
</svg>
