<svg width="626" height="599" viewBox="0 0 626 599" fill="none" xmlns="http://www.w3.org/2000/svg">
<ellipse cx="313" cy="299.5" rx="313" ry="299.5" fill="#B0A2D7"/>
<g clip-path="url(#clip0_237_3932)">
<path d="M370.496 595.313C356.817 594.855 343.163 589.939 330.907 579.625H288.013C277.446 588.541 265.818 593.433 254.021 594.879C200.97 601.458 144.614 538.754 165.482 460.072C167.654 451.878 170.645 443.54 174.577 435.057H444.319C449.095 445.323 452.497 455.445 454.692 465.277C471.194 538.754 420.628 597 370.496 595.313Z" fill="#8E8FB3"/>
<g opacity="0.3">
<path d="M370.496 595.313C356.817 594.855 343.163 589.939 330.907 579.625H288.013C277.446 588.541 265.818 593.433 254.021 594.879C204.999 600.976 153.13 547.839 162.032 477.639C169.125 531.644 212.574 568.78 254.021 563.623C265.818 562.153 277.446 557.261 288.013 548.369H330.907C343.163 558.683 356.817 563.599 370.496 564.057C410.158 565.383 450.133 529.186 456.864 477.615C465.476 545.164 417.781 596.904 370.496 595.313Z" fill="#000072"/>
</g>
<path d="M402.365 514.968C397.106 520.318 389.603 523.523 378.602 523.427C372.065 523.354 365.768 521.186 360.243 517.667C343.911 507.232 331.173 529.644 348.446 537.91L333.537 581.745C332.644 581.071 331.776 580.348 330.907 579.625H288.013C287.145 580.372 286.252 581.071 285.359 581.745H284.443L270.474 537.91C287.748 529.644 274.986 507.232 258.677 517.667C253.177 521.186 246.88 523.379 240.318 523.427C232.936 523.499 227.098 522.077 222.49 519.499C222.803 483.206 241.259 451.661 268.472 435.057C281.499 427.08 296.505 422.55 312.5 422.55C328.495 422.55 343.525 427.08 356.528 435.057C382.607 450.962 400.653 480.603 402.365 514.968Z" fill="#E6EAED"/>
<path d="M348.446 537.91L346.082 544.899C340.292 541.043 339.182 535.259 341.04 530.632C342.15 533.428 344.514 536.03 348.446 537.91Z" fill="white"/>
<g opacity="0.6">
<path d="M277.905 530.632C275.42 524.415 267.58 520.318 258.677 526.005C253.177 529.523 246.88 531.716 240.318 531.765C232.936 531.837 227.098 530.415 222.49 527.837C211.585 522.824 205.048 510.172 204.782 492.484C204.782 492.484 209.583 513.498 222.707 521.691C222.755 521.017 222.804 520.342 222.852 519.667C227.411 522.101 233.105 523.475 240.318 523.378C246.856 523.306 253.153 521.137 258.677 517.619C271.295 509.594 281.765 521.137 277.905 530.632Z" fill="white"/>
</g>
<g opacity="0.6">
<path d="M402.366 523.306C397.106 528.656 389.604 531.861 378.603 531.765C372.065 531.693 365.768 529.524 360.243 526.005C351.317 520.318 343.477 524.391 341.016 530.632C337.132 521.162 347.626 509.618 360.243 517.667C365.744 521.186 372.041 523.379 378.603 523.427C385.912 523.499 391.678 522.101 396.262 519.595C396.262 519.595 396.262 519.595 396.286 519.595C396.72 519.354 397.131 519.113 397.517 518.872C397.565 518.848 397.589 518.824 397.637 518.8C399.085 517.957 400.436 516.896 401.69 515.643C409.458 507.956 413.415 494.002 413.415 494.002C414.139 512.245 402.366 523.306 402.366 523.306Z" fill="white"/>
</g>
<g opacity="0.6">
<path d="M401.714 515.619C400.46 516.872 399.109 517.956 397.661 518.8C399.133 517.86 400.484 516.799 401.714 515.619Z" fill="white"/>
</g>
<path d="M246.277 599C245.553 599 244.83 599 244.082 598.976C228.425 598.47 212.84 592.614 198.968 582.011C180.054 567.576 166.423 545.959 160.561 521.162C153.951 493.159 157.642 462.867 171.272 433.539C172.117 431.707 174.288 430.912 176.122 431.756C177.955 432.599 178.751 434.768 177.907 436.599C149.608 497.545 171.297 551.695 203.431 576.227C230.258 596.711 261.765 596.952 285.673 576.854C287.217 575.552 289.533 575.745 290.812 577.287C292.114 578.83 291.921 581.143 290.377 582.42C277.446 593.289 262.248 599 246.277 599Z" fill="#000072"/>
<g opacity="0.3">
<path d="M454.693 465.277C454.693 465.301 454.668 465.301 454.668 465.301C418.819 491.881 369.411 506.268 313.441 506.268C287 506.268 262.006 503.063 239.232 496.87C219.353 491.472 201.163 483.784 185.12 474C185.12 474 185.12 474 185.12 473.976C178.148 469.735 171.61 465.084 165.482 460.047C167.654 451.854 170.645 443.515 174.578 435.033H444.319C449.096 445.323 452.497 455.444 454.693 465.277Z" fill="#000072"/>
</g>
<path d="M351.124 579.625H267.073C255.831 579.625 246.711 570.515 246.711 559.285V558.225C246.711 546.995 255.831 537.886 267.073 537.886H351.124C362.367 537.886 371.486 546.995 371.486 558.225V559.285C371.486 570.515 362.367 579.625 351.124 579.625Z" fill="#F21CA0"/>
<g opacity="0.3">
<path d="M371.486 558.225V559.285C371.486 570.515 362.366 579.601 351.148 579.601H267.073C255.83 579.601 246.735 570.491 246.735 559.285V558.225C246.735 556.201 247.049 554.225 247.604 552.369C250.113 560.731 257.905 566.828 267.097 566.828H351.148C360.34 566.828 368.108 560.731 370.641 552.369C371.172 554.225 371.486 556.201 371.486 558.225Z" fill="#000072"/>
</g>
<g opacity="0.6">
<path d="M371.486 558.225V559.286C371.486 560.466 371.389 561.623 371.196 562.732C369.556 553.141 361.208 545.839 351.148 545.839H267.073C257.013 545.839 248.665 553.141 247.025 562.732C246.832 561.599 246.735 560.466 246.735 559.286V558.225C246.735 546.995 255.855 537.91 267.073 537.91H351.124C362.366 537.91 371.486 547.019 371.486 558.225Z" fill="white"/>
</g>
<path d="M270.474 541.549C269.123 541.549 267.797 540.778 267.169 539.477C266.301 537.669 267.073 535.476 268.882 534.609C272.742 532.753 274.938 529.982 275.058 526.752C275.155 523.861 273.587 521.065 271.029 519.619C268.086 517.932 264.395 518.342 260.631 520.728C254.238 524.825 247.218 527.018 240.342 527.066C240.149 527.066 239.98 527.066 239.812 527.066C212.189 527.066 205.048 507.16 201.887 489.785C201.525 487.809 202.852 485.905 204.83 485.544C206.809 485.182 208.715 486.508 209.076 488.484C213.081 510.655 222.007 519.764 239.787 519.764C239.956 519.764 240.125 519.764 240.27 519.764C245.77 519.716 251.44 517.908 256.699 514.559C262.779 510.679 269.316 510.197 274.672 513.257C279.545 516.053 282.561 521.427 282.368 526.993C282.151 532.97 278.387 538.127 272.067 541.163C271.536 541.453 271.005 541.549 270.474 541.549Z" fill="#000072"/>
<path d="M351.124 583.264H267.073C253.828 583.264 243.068 572.516 243.068 559.286V558.225C243.068 544.995 253.828 534.247 267.073 534.247H351.124C364.369 534.247 375.128 544.995 375.128 558.225V559.286C375.128 572.516 364.369 583.264 351.124 583.264ZM267.073 541.549C257.857 541.549 250.378 549.02 250.378 558.225V559.286C250.378 568.491 257.857 575.962 267.073 575.962H351.124C360.34 575.962 367.819 568.491 367.819 559.286V558.225C367.819 549.02 360.34 541.549 351.124 541.549H267.073Z" fill="#000072"/>
<path d="M274.648 568.395H253.514C249.775 568.395 246.735 565.359 246.735 561.623C246.735 557.888 249.775 554.852 253.514 554.852H274.648C278.387 554.852 281.427 557.888 281.427 561.623C281.427 565.359 278.387 568.395 274.648 568.395Z" fill="#000072"/>
<path d="M364.707 568.395H343.573C339.834 568.395 336.794 565.359 336.794 561.623C336.794 557.888 339.834 554.852 343.573 554.852H364.707C368.446 554.852 371.486 557.888 371.486 561.623C371.486 565.359 368.446 568.395 364.707 568.395Z" fill="#000072"/>
<path d="M301.716 531.572H292.548C291.366 531.572 290.401 532.536 290.401 533.717V536.537C290.401 537.717 291.366 538.681 292.548 538.681H301.716C302.898 538.681 303.863 537.717 303.863 536.537V533.717C303.887 532.536 302.922 531.572 301.716 531.572Z" fill="#000072"/>
<path d="M325.648 531.572H316.481C315.299 531.572 314.333 532.536 314.333 533.717V536.537C314.333 537.717 315.299 538.681 316.481 538.681H325.648C326.83 538.681 327.795 537.717 327.795 536.537V533.717C327.819 532.536 326.854 531.572 325.648 531.572Z" fill="#000072"/>
<path d="M268.134 527.09H279.738C281.982 527.09 283.791 528.897 283.791 531.138V537.91H264.081V531.138C264.081 528.897 265.89 527.09 268.134 527.09Z" fill="#000072"/>
<path d="M372.62 599C356.673 599 341.474 593.289 328.543 582.42C326.999 581.119 326.806 578.83 328.109 577.287C329.412 575.745 331.704 575.552 333.248 576.854C357.131 596.952 388.638 596.711 415.49 576.227C447.624 551.695 469.312 497.545 441.014 436.599C440.169 434.768 440.966 432.599 442.799 431.756C444.633 430.912 446.804 431.707 447.648 433.539C461.279 462.867 464.97 493.159 458.36 521.162C452.497 545.959 438.867 567.576 419.953 582.011C406.081 592.59 390.496 598.446 374.839 598.976C374.091 599 373.367 599 372.62 599Z" fill="#000072"/>
<path d="M348.446 541.549C347.915 541.549 347.385 541.428 346.878 541.187C340.533 538.151 336.794 532.994 336.577 527.017C336.384 521.451 339.399 516.077 344.272 513.281C349.628 510.221 356.166 510.703 362.246 514.583C367.505 517.932 373.174 519.74 378.675 519.788C396.793 519.981 405.815 510.895 409.868 488.508C410.23 486.532 412.112 485.206 414.114 485.568C416.093 485.929 417.419 487.833 417.058 489.809C413.897 507.305 406.708 527.355 378.602 527.09C371.727 527.017 364.73 524.824 358.313 520.752C354.55 518.342 350.859 517.956 347.915 519.643C345.358 521.089 343.79 523.909 343.886 526.776C344.007 530.006 346.202 532.777 350.062 534.633C351.872 535.5 352.644 537.693 351.775 539.501C351.1 540.802 349.797 541.549 348.446 541.549Z" fill="#000072"/>
<path d="M350.787 527.09H339.182C336.939 527.09 335.129 528.897 335.129 531.138V537.91H354.839V531.138C354.839 528.897 353.03 527.09 350.787 527.09Z" fill="#000072"/>
<path d="M557.513 322.396H519.951C519.951 219.808 426.973 136.354 312.693 136.354C198.413 136.354 105.435 219.808 105.435 322.396H67.8486C67.8486 198.914 177.472 98.8086 312.693 98.8086C447.913 98.8086 557.513 198.914 557.513 322.396Z" fill="#00A4FF"/>
<g opacity="0.6">
<path d="M557.513 323.336H557.296C551.82 204.288 444.391 109.292 312.669 109.292C180.946 109.292 73.518 204.264 68.0416 323.336H67.8486C67.8486 199.854 177.472 99.7485 312.693 99.7485C447.913 99.7485 557.513 199.878 557.513 323.336Z" fill="white"/>
</g>
<path d="M309.098 565.792C312.989 565.792 316.143 562.641 316.143 558.755C316.143 554.869 312.989 551.718 309.098 551.718C305.208 551.718 302.054 554.869 302.054 558.755C302.054 562.641 305.208 565.792 309.098 565.792Z" fill="#000072"/>
<path d="M561.18 326.034H516.284V322.396C516.284 221.832 424.946 140.017 312.693 140.017C200.439 140.017 109.078 221.832 109.078 322.396V326.034H64.1816V322.396C64.1816 197.107 175.663 95.1694 312.669 95.1694C449.699 95.1694 561.156 197.107 561.156 322.396V326.034H561.18ZM523.545 318.733H553.822C551.675 199.131 444.319 102.447 312.669 102.447C181.019 102.447 73.6869 199.155 71.5398 318.733H101.817C103.988 215.807 197.737 132.691 312.693 132.691C427.648 132.691 521.374 215.831 523.545 318.733Z" fill="#000072"/>
<path d="M514.643 313.214C514.643 364.785 492.014 405.657 454.669 433.322C418.819 459.903 369.411 474.29 313.441 474.29C287 474.29 262.007 471.084 239.233 464.891C219.354 459.493 201.163 451.805 185.12 442.021C185.12 442.021 185.12 442.021 185.12 441.997C163.48 428.815 145.821 411.754 133.3 391.27C119.766 369.123 112.239 342.952 112.239 313.19C112.239 289.043 117.209 265.981 126.304 244.87V126.594C126.304 97.2662 155.857 79.4573 178.486 95.1455L244.395 140.837C265.77 133.944 288.978 130.185 313.441 130.185C330.28 130.185 346.565 131.968 362.029 135.342C368.012 136.643 373.898 138.186 379.64 139.945L446.804 94.278C469.457 78.8789 498.721 96.7119 498.721 125.895V240.677C506.561 257.594 511.724 275.837 513.726 294.947C514.33 300.948 514.643 307.045 514.643 313.214Z" fill="#8E8FB3"/>
<g opacity="0.3">
<path d="M514.643 313.214C514.643 364.785 492.014 405.657 454.669 433.322C418.819 459.903 369.411 474.29 313.441 474.29C287 474.29 262.007 471.084 239.233 464.891C219.354 459.493 201.163 451.805 185.12 442.021C185.12 442.021 185.12 442.021 185.12 441.997C163.48 428.815 145.821 411.754 133.3 391.27C119.766 369.123 112.239 342.952 112.239 313.19C112.239 303.719 113.011 294.417 114.482 285.332C117.643 304.008 124.084 320.998 133.3 336.084C145.821 356.592 163.504 373.629 185.12 386.811C185.12 386.811 185.12 386.811 185.12 386.836C201.163 396.62 219.354 404.283 239.233 409.705C262.007 415.898 287 419.104 313.441 419.104C369.411 419.104 418.819 404.693 454.669 378.136C485.163 355.555 505.838 324.155 512.4 285.332C512.93 288.513 513.34 291.718 513.678 294.947C514.33 300.948 514.643 307.045 514.643 313.214Z" fill="#000072"/>
</g>
<path d="M513.678 294.972C451.532 307.021 389.072 278.151 365.116 222.097C353.054 193.878 352.716 163.345 362.004 135.342C367.987 136.643 373.874 138.186 379.616 139.945L446.779 94.278C469.433 78.8789 498.696 96.7119 498.696 125.895V240.677C506.537 257.595 511.676 275.861 513.678 294.972Z" fill="#8E8FB3"/>
<g opacity="0.6">
<path d="M498.697 125.895V145.247C497.925 145.054 497.153 144.933 496.357 144.813V138.33C496.357 109.147 467.093 91.338 444.44 106.713L377.276 152.38C371.534 150.621 365.672 149.078 359.665 147.777C344.2 144.403 327.94 142.62 311.077 142.62C288.158 142.62 266.349 145.921 246.108 151.994C243.479 152.79 240.632 152.308 238.388 150.741L176.122 107.58C157.328 94.5431 133.758 104.616 126.304 125.197C127.245 96.712 156.195 79.7224 178.486 95.1456L244.395 140.837C265.77 133.944 288.978 130.185 313.441 130.185C330.28 130.185 346.565 131.968 362.029 135.342C368.012 136.643 373.898 138.186 379.64 139.945L446.804 94.278C469.433 78.9031 498.697 96.712 498.697 125.895Z" fill="white"/>
</g>
<path d="M313.441 477.953C255.975 477.953 204.227 462.529 167.75 434.551C129.03 404.837 108.572 362.882 108.572 313.214C108.572 289.26 113.3 266.029 122.661 244.147V126.594C122.661 110.761 130.839 96.6397 144.011 89.7474C155.833 83.5782 169.487 84.4698 180.585 92.1332L244.998 136.812C266.759 129.992 289.774 126.546 313.441 126.546C336.046 126.546 358.096 129.703 379.013 135.945L444.729 91.2657C455.802 83.7228 469.433 82.9275 481.158 89.145C494.233 96.0613 502.339 110.135 502.339 125.895V239.882C512.93 262.993 518.286 287.646 518.286 313.214C518.286 362.882 497.828 404.861 459.108 434.551C422.655 462.529 370.907 477.953 313.441 477.953ZM160.344 92.9526C155.977 92.9526 151.562 94.037 147.365 96.23C136.629 101.845 129.946 113.485 129.946 126.594V245.642L129.657 246.34C120.514 267.523 115.882 290.007 115.882 313.214C115.882 407.392 195.277 470.651 313.441 470.651C431.605 470.651 511 407.392 511 313.214C511 288.465 505.741 264.583 495.391 242.22L495.054 241.497V125.895C495.054 112.834 488.419 101.242 477.756 95.5793C468.323 90.5909 457.781 91.2175 448.854 97.2903L380.243 143.945L378.554 143.439C357.831 137.077 335.925 133.848 313.441 133.848C289.919 133.848 267.049 137.366 245.505 144.331L243.792 144.885L176.387 98.1579C171.393 94.6877 165.893 92.9526 160.344 92.9526Z" fill="#000072"/>
<path d="M205.844 148.428L172.648 124.907C164.976 119.485 154.868 125.558 154.964 135.559C155.133 153.536 155.302 177.418 155.109 190.383C155.061 194.119 158.921 196.336 161.695 194.143L206.085 159.368C209.535 156.669 209.414 150.958 205.844 148.428Z" fill="#F25FC1"/>
<g opacity="0.6">
<path d="M209.052 169.803L164.662 204.578C161.888 206.747 158.028 204.554 158.076 200.794C158.1 199.011 158.124 196.987 158.149 194.818C159.282 195.179 160.561 195.011 161.695 194.143L206.085 159.369C206.64 158.935 207.098 158.429 207.46 157.875L208.835 158.863C212.406 161.393 212.526 167.104 209.052 169.803Z" fill="white"/>
</g>
<g opacity="0.6">
<path d="M412.86 167.442L457.25 202.216C460.024 204.385 463.884 202.192 463.836 198.432C463.812 196.649 463.788 194.625 463.763 192.456C462.63 192.817 461.351 192.649 460.217 191.781L415.827 157.007C415.272 156.573 414.814 156.067 414.452 155.513L413.077 156.501C409.531 159.031 409.386 164.718 412.86 167.442Z" fill="white"/>
</g>
<path d="M469.843 187.54C469.699 174.165 469.867 152.283 470.036 135.559C470.133 125.558 460.024 119.461 452.353 124.907L418.457 148.934C415.224 151.223 415.104 156.38 418.24 158.838L461.182 192.48C464.825 195.348 469.892 192.456 469.843 187.54Z" fill="#F25FC1"/>
<g opacity="0.3">
<path d="M470.036 135.559C470.012 138.619 469.963 141.849 469.939 145.174C466.321 141.584 460.699 140.596 455.995 143.921L426.177 165.056L418.24 158.838C415.103 156.38 415.2 151.223 418.457 148.91L452.352 124.883C460.024 119.461 470.132 125.558 470.036 135.559Z" fill="#000072"/>
</g>
<g opacity="0.3">
<path d="M154.506 135.559C154.53 138.619 154.578 141.849 154.602 145.174C158.221 141.584 163.842 140.595 168.546 143.921L198.365 165.08L206.302 158.862C209.438 156.404 209.342 151.247 206.085 148.934L172.189 124.907C164.518 119.461 154.433 125.558 154.506 135.559Z" fill="#000072"/>
</g>
<path d="M122.805 244.919V244.895H129.801L122.805 244.919Z" fill="#1B75BC"/>
<path d="M159.282 198.649C158.148 198.649 157.015 198.384 155.953 197.854C153.155 196.456 151.418 193.564 151.466 190.311C151.659 177.346 151.49 153.392 151.321 135.583C151.249 129.269 154.506 123.63 159.813 120.859C164.662 118.329 170.259 118.714 174.77 121.919L207.966 145.44C210.572 147.295 212.188 150.38 212.261 153.729C212.333 157.079 210.861 160.26 208.328 162.26L163.938 197.035C162.563 198.095 160.923 198.649 159.282 198.649ZM166.423 126.522C165.338 126.522 164.228 126.787 163.19 127.341C160.344 128.836 158.583 131.968 158.607 135.535C158.776 153.392 158.944 177.394 158.751 190.432C158.751 191.082 159.089 191.299 159.162 191.323C159.234 191.372 159.282 191.372 159.427 191.275L203.817 156.501C204.541 155.922 204.975 154.958 204.951 153.898C204.927 152.838 204.468 151.922 203.72 151.392L170.524 127.872C169.246 126.98 167.847 126.522 166.423 126.522Z" fill="#000072"/>
<path d="M502.17 240.701H495.198V244.918H502.17V240.701Z" fill="#1B75BC"/>
<path d="M464.367 197.252C462.437 197.252 460.531 196.601 458.915 195.348L415.972 161.706C413.584 159.85 412.209 156.838 412.281 153.705C412.353 150.573 413.873 147.681 416.31 145.946L450.206 121.919C454.717 118.714 460.314 118.329 465.163 120.859C470.47 123.63 473.727 129.269 473.655 135.583C473.486 151.826 473.341 174.02 473.462 187.492C473.51 191.323 471.484 194.721 468.179 196.336C466.996 196.962 465.694 197.252 464.367 197.252ZM458.577 126.522C457.153 126.522 455.754 126.98 454.476 127.872L420.556 151.898C419.977 152.308 419.615 153.055 419.591 153.898C419.567 154.742 419.905 155.513 420.484 155.971L463.426 189.612C463.933 189.998 464.463 190.07 464.994 189.805C465.573 189.516 466.2 188.769 466.2 187.588C466.056 174.045 466.224 151.802 466.393 135.535C466.417 131.968 464.68 128.836 461.81 127.341C460.772 126.787 459.662 126.522 458.577 126.522Z" fill="#000072"/>
<path d="M543.545 330.71L539.468 378.184L537.851 397.077C536.621 411.247 525.427 422.261 511.242 423.273L378.265 432.719L377.01 415.031L509.987 405.56C515.415 405.175 519.685 400.957 520.168 395.535L521.471 380.449L525.861 329.167L543.545 330.71Z" fill="#F21CA0"/>
<g opacity="0.6">
<path d="M543.545 330.71L542.99 337.168L525.861 335.698L521.471 386.98L520.168 402.066C519.709 407.488 515.415 411.705 509.987 412.091L377.469 421.513L377.01 415.031L509.987 405.56C515.415 405.175 519.685 400.957 520.168 395.535L521.471 380.449L525.861 329.167L543.545 330.71Z" fill="white"/>
</g>
<path d="M374.887 436.648L373.102 411.681L509.722 401.97C513.34 401.705 516.211 398.885 516.525 395.27L522.532 325.264L547.501 327.408L541.494 397.415C540.119 413.392 527.502 425.803 511.507 426.936L374.887 436.648ZM380.919 418.429L381.666 428.84L511 419.634C523.401 418.742 533.171 409.127 534.233 396.764L539.613 334.036L529.215 333.144L523.811 395.873C523.183 403.102 517.49 408.717 510.252 409.223L380.919 418.429Z" fill="#000072"/>
<g opacity="0.3">
<path d="M543.545 330.71L539.468 378.184C531.193 376.328 525.162 378.353 521.471 380.473L525.861 329.191L543.545 330.71Z" fill="#000072"/>
</g>
<path d="M112.094 361.315H111.684C103.867 361.387 97.5225 354.495 97.5225 345.916L97.5466 218C97.5466 209.445 103.891 202.457 111.708 202.384H112.118C119.935 202.312 126.279 209.204 126.279 217.783L126.255 345.699C126.255 354.278 119.91 361.267 112.094 361.315Z" fill="#5B28A5"/>
<path d="M96.823 343.819H97.5467L97.5709 220.145H96.8471C69.1275 220.362 46.6672 245.135 46.6431 275.451V289.26C46.6431 319.624 69.1034 344.036 96.823 343.819Z" fill="#F21CA0"/>
<g opacity="0.3">
<path d="M97.5464 345.94C97.5464 354.495 103.891 361.387 111.708 361.339H112.118C119.934 361.267 126.279 354.278 126.279 345.723L126.303 217.807C126.303 217.663 126.303 217.518 126.303 217.374L126.279 300.924C126.279 309.479 119.934 316.491 112.118 316.539H111.708C104.012 316.612 97.7635 309.936 97.5705 301.574L97.5464 345.94Z" fill="#000072"/>
</g>
<g opacity="0.6">
<path d="M97.5708 218.024V227.182C97.5708 218.627 103.916 211.614 111.756 211.566H112.142C119.935 211.493 126.255 218.337 126.304 226.844V217.783C126.304 209.228 119.959 202.336 112.142 202.408H111.756C103.916 202.456 97.5708 209.445 97.5708 218.024Z" fill="white"/>
</g>
<g opacity="0.3">
<path d="M48.4038 289.284C48.4038 319.624 70.8642 344.036 98.5837 343.819H99.2834L99.3075 220.145L99.2834 312.515H98.5837C73.5903 312.708 52.8669 292.875 49.0552 266.728C48.6451 269.571 48.4279 272.487 48.4279 275.451L48.4038 289.284Z" fill="#000072"/>
</g>
<g opacity="0.6">
<path d="M46.667 289.79V285.91C46.667 255.57 69.1515 230.796 96.8711 230.604H97.5707V220.169H96.8711C69.1515 220.362 46.667 245.135 46.667 275.475V289.284C46.6429 289.453 46.6429 289.621 46.667 289.79Z" fill="white"/>
</g>
<path d="M111.587 364.978C107.124 364.978 102.854 363.195 99.5729 359.941C95.9541 356.351 93.8794 351.242 93.8794 345.94L93.9035 218.024C93.9035 207.469 101.889 198.842 111.708 198.77H112.118C112.166 198.77 112.214 198.77 112.238 198.77C116.726 198.77 120.972 200.553 124.253 203.806C127.871 207.397 129.946 212.506 129.946 217.807L129.922 345.723C129.922 356.278 121.937 364.906 112.118 364.978H111.708C111.684 364.978 111.635 364.978 111.587 364.978ZM112.238 206.047C112.214 206.047 112.19 206.047 112.166 206.047H111.756C105.942 206.096 101.213 211.47 101.213 218L101.189 345.916C101.189 349.29 102.468 352.519 104.736 354.736C106.642 356.616 109.078 357.652 111.611 357.652C111.635 357.652 111.66 357.652 111.684 357.652H112.094C117.908 357.604 122.636 352.23 122.636 345.675L122.66 217.759C122.66 214.385 121.382 211.156 119.114 208.939C117.208 207.084 114.772 206.047 112.238 206.047Z" fill="#000072"/>
<path d="M96.4609 347.458C83.0716 347.458 70.2853 342.084 60.4424 332.324C49.3449 321.335 43 305.647 43 289.284V275.475C43 243.183 67.1491 216.747 96.8228 216.506L101.214 216.482L101.165 347.434L96.8228 347.458C96.7263 347.458 96.5816 347.458 96.4609 347.458ZM93.9037 223.928C69.6098 225.808 50.3099 248.268 50.3099 275.475V289.284C50.3099 303.719 55.8827 317.503 65.581 327.143C73.4216 334.927 83.3852 339.457 93.8796 340.084L93.9037 223.928Z" fill="#000072"/>
<path d="M512.906 361.315H513.316C521.133 361.388 527.477 354.495 527.477 345.916L527.429 218.025C527.429 209.47 521.084 202.481 513.268 202.409H512.858C505.041 202.336 498.696 209.229 498.696 217.808L498.72 345.723C498.72 354.278 505.065 361.267 512.906 361.315Z" fill="#5B28A5"/>
<g opacity="0.3">
<path d="M527.453 345.94C527.453 354.495 521.108 361.388 513.292 361.339H512.882C505.065 361.267 498.72 354.278 498.72 345.723L498.696 217.808C498.696 217.663 498.696 217.519 498.696 217.374L498.72 300.924C498.72 309.479 505.065 316.492 512.882 316.54H513.292C520.988 316.612 527.236 309.937 527.429 301.575L527.453 345.94Z" fill="#000072"/>
</g>
<g opacity="0.6">
<path d="M527.429 218.025V227.182C527.429 218.627 521.084 211.614 513.244 211.566H512.858C505.065 211.494 498.745 218.338 498.696 226.845V217.784C498.696 209.229 505.041 202.336 512.858 202.409H513.244C521.084 202.457 527.405 209.446 527.429 218.025Z" fill="white"/>
</g>
<path d="M528.177 343.82H527.453L527.429 220.146H528.153C555.873 220.362 578.333 245.136 578.357 275.452V289.26C578.357 319.625 555.897 344.037 528.177 343.82Z" fill="#F21CA0"/>
<g opacity="0.3">
<path d="M576.596 289.285C576.596 319.625 554.135 344.037 526.416 343.82H525.716L525.692 220.146L525.716 312.516H526.416C551.409 312.708 572.132 292.875 575.944 266.728C576.354 269.572 576.571 272.488 576.571 275.452L576.596 289.285Z" fill="#000072"/>
</g>
<g opacity="0.6">
<path d="M578.333 289.79V285.911C578.333 255.57 555.848 230.797 528.129 230.604H527.429V220.169H528.129C555.848 220.386 578.333 245.136 578.333 275.476V289.284C578.333 289.453 578.333 289.622 578.333 289.79Z" fill="white"/>
</g>
<path d="M513.413 364.978C513.364 364.978 513.316 364.978 513.268 364.978H512.858C503.039 364.906 495.078 356.254 495.053 345.723L495.029 217.808C495.029 212.506 497.104 207.397 500.723 203.806C504.028 200.529 508.322 198.746 512.882 198.77H513.292C523.087 198.842 531.072 207.493 531.072 218.025L531.096 345.94C531.096 351.242 529.021 356.351 525.403 359.942C522.146 363.195 517.876 364.978 513.413 364.978ZM512.93 357.676H513.34C513.364 357.676 513.388 357.676 513.413 357.676C515.946 357.676 518.382 356.64 520.288 354.76C522.532 352.543 523.835 349.314 523.835 345.94L523.81 218.025C523.81 211.47 519.082 206.096 513.268 206.072H512.858C512.834 206.072 512.809 206.072 512.785 206.072C510.252 206.072 507.816 207.108 505.91 208.988C503.666 211.205 502.363 214.434 502.363 217.808L502.387 345.723C502.387 352.254 507.116 357.628 512.93 357.676Z" fill="#000072"/>
<path d="M528.539 347.459C528.418 347.459 528.274 347.459 528.153 347.459L523.81 347.434L523.762 216.482L528.153 216.507C557.827 216.748 581.976 243.184 581.976 275.476V289.284C581.976 305.647 575.631 321.336 564.533 332.325C554.715 342.109 541.928 347.459 528.539 347.459ZM531.072 223.929L531.096 340.084C541.591 339.458 551.554 334.903 559.395 327.143C569.093 317.528 574.666 303.72 574.666 289.284V275.476C574.666 248.269 555.366 225.809 531.072 223.929Z" fill="#000072"/>
<path d="M388.783 440.576L361.691 442.624C356.432 443.034 351.848 439.105 351.462 433.852L350.111 416.115C349.701 410.862 353.633 406.283 358.892 405.898L385.961 403.849C391.22 403.439 395.804 407.368 396.19 412.621L397.541 430.358C397.951 435.611 394.018 440.166 388.783 440.576Z" fill="#00A4FF"/>
<g opacity="0.3">
<path d="M388.783 440.576L361.691 442.624C356.432 443.034 351.848 439.106 351.462 433.852L350.111 416.091C350.015 414.645 350.208 413.272 350.69 411.995L351.366 420.815C351.752 426.068 356.335 429.996 361.595 429.587L388.687 427.538C392.499 427.249 395.611 424.743 396.889 421.417L397.565 430.358C397.951 435.611 394.018 440.19 388.783 440.576Z" fill="#000072"/>
</g>
<g opacity="0.6">
<path d="M397.13 434.045L396.214 422.116C395.804 416.862 391.22 412.934 385.961 413.344L358.892 415.392C354.936 415.706 351.703 418.381 350.545 421.923L350.087 416.115C349.701 410.862 353.633 406.283 358.868 405.897L385.936 403.849C391.196 403.463 395.779 407.367 396.19 412.621L397.54 430.382C397.661 431.635 397.492 432.888 397.13 434.045Z" fill="white"/>
</g>
<path d="M360.967 446.311C357.831 446.311 354.815 445.203 352.403 443.13C349.725 440.841 348.109 437.636 347.843 434.141L346.492 416.405C346.227 412.886 347.337 409.488 349.628 406.813C351.92 404.139 355.129 402.524 358.627 402.259L385.695 400.21C389.218 399.945 392.619 401.054 395.297 403.343C397.975 405.633 399.591 408.838 399.857 412.332L401.208 430.069C401.473 433.587 400.363 436.985 398.071 439.66C395.78 442.335 392.571 443.949 389.073 444.215L362.005 446.263C361.643 446.311 361.305 446.311 360.967 446.311ZM386.709 407.464C386.564 407.464 386.395 407.464 386.25 407.488L359.182 409.537C357.614 409.657 356.19 410.38 355.153 411.561C354.14 412.742 353.633 414.26 353.754 415.826L355.105 433.563C355.225 435.129 355.949 436.551 357.131 437.587C358.313 438.6 359.833 439.106 361.401 438.985L388.47 436.937C390.038 436.816 391.461 436.093 392.499 434.912C393.512 433.732 394.018 432.213 393.898 430.647L392.547 412.91C392.426 411.344 391.702 409.922 390.52 408.886C389.459 407.946 388.108 407.464 386.709 407.464Z" fill="#000072"/>
<path d="M333.416 373.075C336.818 382.98 334.333 392.354 328.084 398.499C325.817 400.74 323.042 402.572 319.834 403.825C311.245 407.199 301.571 405.223 294.358 399.463C291.197 396.933 288.64 393.969 286.71 390.74C280.679 380.714 280.486 368.207 285.311 359.267C287.53 355.17 292.983 354.158 296.553 357.17C307.072 366.038 319.375 371.268 333.416 373.075Z" fill="#000072"/>
<path d="M349.411 330.42C349.411 336.638 339.93 341.674 328.23 341.674C316.529 341.674 307.048 336.638 307.048 330.42C307.048 324.203 316.891 322.685 328.591 322.685C340.292 322.685 349.411 324.203 349.411 330.42Z" fill="#000072"/>
<path d="M328.109 398.523C325.841 400.764 323.067 402.596 319.858 403.849C311.269 407.223 301.595 405.247 294.382 399.487C291.222 396.957 288.664 393.993 286.734 390.764C300.582 378.353 320.678 381.751 328.109 398.523Z" fill="#D94452"/>
<path d="M311.125 409.127C304.466 409.127 297.711 406.789 292.114 402.331C288.689 399.608 285.818 396.33 283.622 392.619C277.085 381.751 276.506 367.99 282.151 357.556C283.719 354.64 286.493 352.615 289.75 351.989C293.031 351.362 296.385 352.254 298.942 354.399C308.737 362.665 320.51 367.725 333.899 369.46L336.143 369.75L336.89 371.894C340.606 382.715 338.29 393.631 330.666 401.102C328.012 403.729 324.804 405.801 321.209 407.223C317.976 408.5 314.551 409.127 311.125 409.127ZM291.825 359.098C291.584 359.098 291.367 359.122 291.125 359.17C290.474 359.291 289.292 359.7 288.592 361.026C284.226 369.123 284.732 380.305 289.895 388.884C291.656 391.848 293.948 394.451 296.674 396.644C303.115 401.777 311.487 403.223 318.531 400.451C321.209 399.391 323.573 397.873 325.528 395.921C330.618 390.908 332.451 383.727 330.594 376.377C316.746 374.184 304.539 368.689 294.237 359.99C293.538 359.411 292.693 359.098 291.825 359.098Z" fill="#000072"/>
<path d="M333.392 369.436C338.917 369.725 344.417 369.556 349.725 368.448C355.032 367.339 360.098 365.17 364.513 361.869C365.213 361.339 366.178 361.483 366.709 362.182C367.191 362.809 367.119 363.725 366.54 364.255C362.245 368.4 356.866 371.533 351.124 373.485C345.382 375.461 339.375 376.352 333.464 376.762H333.44C331.414 376.907 329.677 375.388 329.532 373.364C329.387 371.34 330.907 369.605 332.934 369.46C333.078 369.436 333.247 369.436 333.392 369.436Z" fill="#000072"/>
<path d="M324.707 376.762L318.941 372.28C328.012 360.64 326.927 339.795 326.903 339.578L334.188 339.144C334.285 340.108 335.467 362.978 324.707 376.762Z" fill="#000072"/>
<path d="M279.811 295.285C277.253 295.405 274.913 295.212 272.67 294.899C270.402 294.61 268.255 294.152 266.156 293.622C261.982 292.537 258.05 291.091 254.335 289.332C252.477 288.465 250.692 287.501 248.931 286.489C247.17 285.476 245.408 284.464 243.696 283.38C240.27 281.235 236.941 278.922 233.756 276.415C227.387 271.403 221.621 265.547 215.783 259.811C212.864 256.944 210.065 253.907 207.556 250.437C205.047 246.991 202.707 243.256 200.97 238.725C205.843 238.846 210.138 239.761 214.239 240.966C218.34 242.147 222.176 243.762 225.843 245.545C233.225 249.112 240.68 252.558 247.556 256.847C250.981 258.992 254.286 261.33 257.471 263.836C259.063 265.089 260.631 266.366 262.175 267.692C263.719 268.993 265.239 270.367 266.687 271.813C269.606 274.704 272.284 277.909 274.72 281.476C275.926 283.283 277.084 285.139 278.122 287.163C279.183 289.188 280.148 291.308 280.896 293.742C281.089 294.369 280.751 295.044 280.124 295.236C280.028 295.261 279.907 295.285 279.811 295.285Z" fill="#000072"/>
<path d="M271.053 287.982C271.174 290.85 271.077 293.766 270.667 296.73C267.772 318.443 251.439 334.18 234.166 331.89C216.893 329.601 205.24 310.129 208.135 288.416C209.993 274.439 217.423 262.944 227.122 257.136L271.053 287.982Z" fill="#000072"/>
<path d="M257.446 297.658C258.225 291.8 255.077 286.55 250.415 285.931C245.752 285.313 241.341 289.56 240.562 295.418C239.783 301.276 242.931 306.526 247.593 307.145C252.256 307.764 256.667 303.516 257.446 297.658Z" fill="white"/>
<path d="M257.471 297.646C257.229 300.152 256.313 302.683 254.576 304.635C253.731 305.623 252.67 306.442 251.464 306.996C250.257 307.551 248.858 307.792 247.507 307.647C246.156 307.478 244.829 306.948 243.768 306.105C242.682 305.261 241.838 304.201 241.21 303.02C239.932 300.658 239.594 297.911 239.932 295.308C240.294 292.706 241.403 290.175 243.237 288.248C245.022 286.32 247.748 285.042 250.45 285.452C253.152 285.838 255.348 287.838 256.457 290.151C257.615 292.489 257.857 295.164 257.398 297.622L257.471 297.646ZM257.422 297.646C257.615 295.14 257.157 292.585 255.951 290.44C254.769 288.32 252.718 286.633 250.354 286.368C247.99 286.079 245.649 287.235 244.057 288.995C242.441 290.778 241.524 293.091 241.186 295.477C240.897 297.863 241.235 300.321 242.32 302.442C243.406 304.538 245.336 306.201 247.652 306.562C249.968 306.924 252.38 305.888 254.093 304.153C255.806 302.418 256.94 300.08 257.374 297.622L257.422 297.646Z" fill="#000072"/>
<path d="M359.785 293.766C360.533 291.332 361.522 289.187 362.559 287.187C363.597 285.163 364.755 283.283 365.961 281.5C368.398 277.933 371.075 274.728 373.995 271.836C375.442 270.391 376.962 269.017 378.506 267.716C380.05 266.39 381.618 265.113 383.21 263.86C386.395 261.354 389.676 259.016 393.126 256.871C400.001 252.582 407.456 249.136 414.838 245.569C418.529 243.786 422.341 242.195 426.442 240.99C430.543 239.785 434.838 238.87 439.711 238.749C437.95 243.28 435.634 247.015 433.125 250.461C430.616 253.931 427.817 256.968 424.898 259.835C419.036 265.571 413.27 271.427 406.925 276.439C403.741 278.946 400.435 281.259 396.986 283.404C395.273 284.488 393.536 285.5 391.75 286.513C389.989 287.525 388.204 288.489 386.346 289.356C382.655 291.115 378.723 292.561 374.525 293.646C372.426 294.176 370.279 294.634 368.012 294.923C365.744 295.236 363.404 295.429 360.871 295.309C360.219 295.284 359.713 294.73 359.737 294.08C359.737 293.959 359.761 293.839 359.785 293.766Z" fill="#000072"/>
<path d="M369.628 287.982C369.507 290.85 369.604 293.766 370.014 296.73C372.909 318.443 389.242 334.18 406.515 331.89C423.789 329.601 435.441 310.129 432.546 288.416C430.688 274.439 423.258 262.944 413.56 257.136L369.628 287.982Z" fill="#000072"/>
<path d="M393.096 307.144C397.758 306.526 400.906 301.275 400.127 295.417C399.348 289.559 394.937 285.312 390.275 285.931C385.612 286.55 382.464 291.8 383.243 297.658C384.022 303.516 388.434 307.763 393.096 307.144Z" fill="white"/>
<path d="M383.307 297.646C383.741 300.128 384.875 302.466 386.588 304.177C388.277 305.912 390.713 306.948 393.029 306.587C395.345 306.225 397.275 304.563 398.361 302.466C399.447 300.345 399.808 297.887 399.495 295.502C399.157 293.14 398.24 290.802 396.624 289.019C395.056 287.26 392.692 286.103 390.327 286.392C387.963 286.657 385.888 288.32 384.73 290.465C383.524 292.61 383.066 295.164 383.259 297.67L383.307 297.646ZM383.259 297.646C382.8 295.164 383.042 292.513 384.2 290.176C385.309 287.862 387.505 285.886 390.207 285.476C392.909 285.067 395.635 286.344 397.42 288.272C399.253 290.2 400.363 292.73 400.725 295.333C401.063 297.935 400.701 300.683 399.447 303.044C398.819 304.225 397.975 305.286 396.889 306.129C395.828 306.972 394.501 307.503 393.15 307.671C391.799 307.816 390.4 307.599 389.193 307.021C387.987 306.466 386.926 305.623 386.081 304.659C384.368 302.683 383.452 300.177 383.186 297.67L383.259 297.646Z" fill="#000072"/>
<g opacity="0.3">
<path d="M321.497 332.09C324.888 331.868 327.567 330.633 327.481 329.331C327.396 328.029 324.578 327.154 321.188 327.376C317.797 327.598 315.118 328.833 315.204 330.135C315.289 331.437 318.107 332.312 321.497 332.09Z" fill="white"/>
</g>
<g opacity="0.6">
<path d="M397.517 518.872C397.131 519.113 396.72 519.354 396.286 519.595C396.648 519.354 397.058 519.113 397.517 518.872Z" fill="white"/>
</g>
</g>
<defs>
<clipPath id="clip0_237_3932">
<rect width="539" height="514" fill="white" transform="translate(43 85)"/>
</clipPath>
</defs>
</svg>
