<svg width="626" height="638" viewBox="0 0 626 638" fill="none" xmlns="http://www.w3.org/2000/svg">
<ellipse cx="313" cy="318.5" rx="313" ry="299.5" fill="#B0A2D7"/>
<path d="M315.755 586.883C315.534 597.279 316.396 607.674 325.245 612.826C336.13 619.154 355.487 624.374 389.688 620.894C414.243 618.385 424.929 608.239 424.929 597.708C424.929 585.505 410.527 572.805 386.657 571.065C378.494 571.2 362.101 573.46 346.792 572.737C321.507 571.562 320.29 566.387 315.688 559.155C315.932 568.036 315.976 577.347 315.755 586.883Z" fill="white"/>
<path d="M368.893 622.566C350.31 622.566 335.599 619.47 324.98 613.301C315.998 608.08 314.981 597.504 315.202 586.861C315.401 578.002 315.379 568.669 315.136 559.155L315.091 557.167L316.153 558.839C316.507 559.381 316.839 559.923 317.149 560.443C320.976 566.613 323.719 571.087 346.815 572.149C356.947 572.624 367.455 571.788 375.906 571.132C380.175 570.793 383.87 570.522 386.635 570.454C411.876 572.307 425.46 585.844 425.46 597.663C425.46 607.38 416.08 618.724 389.732 621.413C382.343 622.204 375.397 622.566 368.893 622.566ZM316.308 586.906C316.043 598.815 317.503 607.696 325.533 612.329C339.448 620.419 361.615 623.176 389.644 620.329C415.261 617.707 424.376 606.928 424.376 597.708C424.376 586.409 411.146 573.415 386.635 571.629C383.958 571.675 380.264 571.968 376.016 572.307C367.543 572.963 356.969 573.799 346.793 573.324C323.254 572.24 320.268 567.607 316.308 561.189C316.507 570.002 316.507 578.657 316.308 586.906Z" fill="#000072"/>
<path d="M393.183 620.871C358.982 624.351 339.603 619.109 328.741 612.804C319.892 607.651 319.405 597.256 319.25 586.861C318.83 557.393 317.923 529.642 317.126 509.507C316.927 504.49 316.728 499.948 316.551 495.971C316.042 484.513 315.688 477.711 315.688 477.711L345.885 470.118L412.783 453.305C412.053 464.559 410.704 474.909 408.978 484.4C408.049 489.372 407.032 494.095 405.925 498.592C403.979 506.456 401.766 513.597 399.421 520.06C387.431 553.212 372.078 568.376 372.078 568.376L375.131 571.336C431.455 565.257 451.763 614.905 393.183 620.871Z" fill="#8E8FB3"/>
<path d="M372.455 625.617C353.319 625.617 338.076 622.385 326.993 615.945C316.043 609.572 315.844 596.488 315.711 586.929C314.892 529.778 312.193 478.412 312.171 477.892C312.061 475.903 313.565 474.186 315.512 474.096C317.481 474.005 319.14 475.519 319.228 477.508C319.25 478.028 321.971 529.507 322.79 586.816C322.945 597.301 323.608 605.663 330.489 609.663C339.824 615.086 358.208 620.804 392.829 617.278C409.133 615.606 420.46 610.205 423.867 602.454C425.703 598.25 424.995 593.505 421.854 589.053C416.036 580.85 400.417 572.24 375.485 574.929L373.87 575.11L366.946 568.398L369.601 565.777C369.933 565.438 404.156 530.546 409.244 453.079C409.377 451.091 411.08 449.599 413.005 449.712C414.952 449.848 416.434 451.565 416.301 453.554C411.877 520.851 386.679 556.67 377.653 567.472C403.846 565.438 420.571 574.952 427.561 584.805C432.185 591.335 433.18 598.838 430.304 605.392C425.769 615.719 412.695 622.498 393.515 624.442C386.06 625.233 379.025 625.617 372.455 625.617Z" fill="#000072"/>
<path d="M402.452 572.94C437.45 579.991 442.538 607.515 439.374 617.142C434.507 631.989 402.939 636.125 365.242 631.673C314.45 625.684 312.458 607.47 312.458 607.47C311.596 599.99 314.162 580.962 315.755 570.341C316.374 566.274 320.157 563.562 324.117 564.33C331.439 565.776 342.832 567.878 350.73 568.556C352.057 568.669 352.987 567.268 352.389 566.07C350.708 562.703 348.606 556.805 351.128 551.72C355.885 542.206 382.962 545.98 385.152 551.72C387.32 557.46 385.44 569.505 402.452 572.94Z" fill="white"/>
<path d="M392.365 637.029C384.025 637.029 374.822 636.464 364.844 635.266C312.768 629.119 309.185 610.046 308.941 607.877C308.079 600.397 310.269 583.042 312.26 569.799C312.702 566.861 314.251 564.285 316.64 562.567C319.029 560.85 321.905 560.217 324.781 560.782C330.356 561.89 340.178 563.743 347.899 564.624C345.93 559.246 345.93 554.161 347.987 550.071C351.859 542.342 363.849 542.093 368.826 542.342C370.552 542.432 385.794 543.427 388.449 550.387C389.002 551.856 389.312 553.46 389.644 555.178C390.772 561.031 391.944 567.087 403.138 569.347C423.8 573.505 433.778 584.307 438.512 592.623C444.042 602.34 444.618 612.51 442.737 618.25C438.755 630.475 420.504 637.029 392.365 637.029ZM315.954 606.996C316.109 607.696 320.179 622.747 365.641 628.102C403.89 632.622 432.163 627.763 436.012 616.012C437.118 612.6 437.074 604.555 432.384 596.307C428.38 589.279 419.818 580.126 401.744 576.488C385.883 573.302 383.87 562.861 382.653 556.624C382.387 555.313 382.166 554.048 381.857 553.189C380.463 551.517 371.813 548.918 363.23 549.686C358.562 550.116 355.199 551.494 354.248 553.393C352.39 557.121 354.226 561.912 355.509 564.443C356.372 566.161 356.239 568.24 355.199 569.822C354.137 571.426 352.323 572.353 350.421 572.172C342.523 571.494 331.373 569.46 323.409 567.901C322.458 567.72 321.485 567.923 320.688 568.488C319.892 569.053 319.383 569.912 319.228 570.906C316.574 588.646 315.379 601.775 315.954 606.996Z" fill="#000072"/>
<path d="M439.375 604.487C434.685 618.77 405.284 623.154 369.468 619.493C368.052 619.357 366.658 619.199 365.221 619.041C314.428 613.052 312.415 594.838 312.415 594.838C311.552 587.358 314.118 568.33 315.711 557.709C316.308 553.641 320.113 550.93 324.051 551.698C331.373 553.167 342.766 555.246 350.664 555.924C351.991 556.037 352.921 554.658 352.323 553.438C350.642 550.071 348.54 544.173 351.084 539.088C355.841 529.574 388.029 533.551 390.219 539.269C392.409 545.009 385.418 556.873 402.43 560.285C419.398 563.698 429.331 571.946 434.707 580.601C440.459 589.821 441.012 599.516 439.375 604.487Z" fill="#5F5272"/>
<path d="M439.374 604.487C434.684 618.769 405.284 623.154 369.468 619.493C372.211 604.397 382.653 567.991 427.141 578.477C429.817 579.109 432.339 579.833 434.706 580.601C440.458 589.821 441.011 599.516 439.374 604.487Z" fill="white"/>
<g opacity="0.5">
<path d="M349.956 543.517C358.141 537.642 381.237 538.41 383.184 543.517C385.374 549.257 381.856 564.059 398.869 567.471C431.61 574.07 438.158 598.589 436.299 609.617C437.737 608.08 438.755 606.386 439.375 604.51C442.538 594.86 437.45 567.358 402.452 560.285C385.44 556.85 392.431 545.009 390.241 539.269C388.051 533.529 355.885 529.574 351.106 539.088C350.399 540.512 350.067 542.026 349.956 543.517Z" fill="white"/>
</g>
<g opacity="0.3">
<path d="M312.459 594.838C312.459 594.838 314.45 613.03 365.243 619.041C402.939 623.493 434.53 619.335 439.374 604.51C439.905 602.906 440.193 600.804 440.149 598.386C427.097 605.007 402.983 606.295 375.662 603.064C324.869 597.075 322.878 578.861 322.878 578.861C322.237 573.415 323.431 561.845 324.737 551.834C324.515 551.788 324.294 551.743 324.073 551.698C320.135 550.907 316.33 553.641 315.733 557.686C314.14 568.33 311.596 587.358 312.459 594.838Z" fill="#000072"/>
</g>
<path d="M365.641 570.183C365.11 570.183 364.579 569.935 364.247 569.483C363.65 568.692 363.804 567.562 364.579 566.952C377.741 556.602 392.94 555.223 415.372 562.342C416.301 562.636 416.832 563.652 416.544 564.602C416.256 565.551 415.261 566.093 414.332 565.799C393.139 559.065 378.892 560.263 366.747 569.822C366.415 570.07 366.017 570.183 365.641 570.183Z" fill="#000072"/>
<path d="M372.654 576.375C372.123 576.375 371.614 576.127 371.26 575.675C370.663 574.884 370.795 573.754 371.57 573.144C384.467 562.907 400.838 561.189 424.663 567.607C425.615 567.856 426.168 568.85 425.924 569.822C425.681 570.793 424.708 571.358 423.756 571.11C401.103 565.008 385.684 566.522 373.738 576.014C373.406 576.262 373.03 576.375 372.654 576.375Z" fill="#000072"/>
<path d="M382.011 583.042C381.436 583.042 380.861 582.748 380.529 582.206C379.998 581.369 380.242 580.24 381.06 579.697C399.2 567.833 411.677 568.24 431.211 573.505C432.163 573.754 432.716 574.748 432.472 575.72C432.229 576.692 431.256 577.257 430.304 577.008C411.412 571.923 400.107 571.539 382.963 582.748C382.675 582.951 382.343 583.042 382.011 583.042Z" fill="#000072"/>
<path d="M392.365 624.374C384.025 624.374 374.822 623.809 364.844 622.611C312.768 616.465 309.185 597.392 308.941 595.222C308.079 587.742 310.269 570.387 312.26 557.144C312.702 554.207 314.251 551.63 316.64 549.913C319.029 548.195 321.905 547.563 324.781 548.128C331.55 549.461 340.643 551.133 347.899 551.969C345.93 546.591 345.93 541.506 347.987 537.416C351.726 529.913 364.291 529.416 371.459 529.8C374.689 529.959 390.993 531.156 393.581 537.936C394.444 540.218 394.333 542.749 394.223 545.19C393.98 550.794 393.803 554.839 403.16 556.715C423.823 560.873 433.8 571.675 438.534 579.991C444.064 589.708 444.64 599.878 442.759 605.618C438.755 617.821 420.504 624.374 392.365 624.374ZM315.954 594.341C316.109 595.042 320.179 610.092 365.641 615.448C403.89 619.967 432.163 615.109 436.012 603.358C437.118 599.945 437.074 591.9 432.384 583.652C428.38 576.624 419.818 567.472 401.744 563.833C386.414 560.737 386.834 550.817 387.1 544.896C387.166 543.314 387.232 541.71 386.989 540.783C384.954 538.794 372.831 535.992 362.676 537.303C357.411 537.981 354.867 539.518 354.27 540.738C352.412 544.467 354.248 549.257 355.531 551.811C356.394 553.529 356.261 555.608 355.221 557.212C354.159 558.817 352.345 559.72 350.443 559.562C342.545 558.884 331.396 556.873 323.454 555.291C322.502 555.11 321.529 555.314 320.733 555.879C319.936 556.444 319.427 557.302 319.272 558.297C316.574 575.991 315.379 589.121 315.954 594.341Z" fill="#000072"/>
<path d="M407.651 504.264C407.651 504.264 530.43 506.885 561.91 399.679C583.944 324.675 549.942 282.643 512.622 274.937C487.446 269.739 460.767 280.202 448.821 306.687C438.291 330.031 444.772 348.607 453.732 356.901C456.652 359.612 459.86 361.194 462.802 361.511C479.814 363.341 487.424 352.471 488.331 333.308C488.486 330.031 489.88 317.308 500.631 317.489C502.335 317.512 503.972 317.76 505.542 318.145C521.979 322.348 530.342 346.347 529.722 373.691C529.435 386.911 527.045 400.899 522.444 413.803C509.901 449.034 449.971 470.366 404.355 478.14L407.651 504.264Z" fill="#8E8FB3"/>
<g opacity="0.3">
<path d="M407.651 504.264C407.651 504.264 530.43 506.886 561.91 399.68C582.594 329.309 553.902 287.954 519.479 276.768C542.663 295.818 558.038 339.704 541.933 394.527C518.351 474.796 442.051 486.841 405.992 491.157L407.651 504.264Z" fill="#000072"/>
</g>
<path d="M462.802 361.533C479.814 363.364 487.424 352.494 488.331 333.331C488.486 330.054 489.88 317.331 500.631 317.512C502.335 317.535 503.972 317.761 505.542 318.167L501.693 311.908C500.477 309.941 501.207 307.343 503.264 306.348L513.551 301.264C516.205 299.953 516.449 296.179 513.971 294.507L504.392 288.089C502.224 286.643 502.091 283.434 504.127 281.784L512.644 274.914C487.469 269.717 460.811 280.157 448.843 306.687C434.862 337.67 450.812 360.245 462.802 361.533Z" fill="white"/>
<path d="M408.624 507.88C408.049 507.88 407.717 507.88 407.585 507.88C405.638 507.835 404.089 506.185 404.111 504.196C404.156 502.208 405.793 500.581 407.717 500.648C408.027 500.648 438.335 501.123 471.983 488.694C516.714 472.175 545.827 441.87 558.503 398.662C578.568 330.37 551.114 292.767 521.537 281.332C497.246 271.954 465.589 278.168 452.028 308.224C442.781 328.721 448.378 342.799 451.21 347.884C454.351 353.534 459.041 357.488 463.156 357.94C469.328 358.596 473.996 357.466 477.403 354.483C481.805 350.618 484.283 343.455 484.769 333.173C485.19 324.246 489.526 313.919 500.366 313.919C500.454 313.919 500.565 313.919 500.653 313.919C510.387 314.077 519.148 320.066 525.275 330.755C538.04 353.014 537.266 389.442 523.506 415.475C500.277 459.452 439.22 475.881 404.886 481.756C402.961 482.073 401.125 480.762 400.815 478.796C400.483 476.83 401.789 474.954 403.713 474.638C436.764 468.988 495.477 453.35 517.289 412.063C531.735 384.697 529.036 351.635 519.17 334.415C515.741 328.45 509.746 321.309 500.543 321.15C500.498 321.15 500.454 321.15 500.388 321.15C492.999 321.15 491.959 330.619 491.826 333.512C491.251 345.873 487.933 354.754 482.004 359.974C477.093 364.268 470.501 366.03 462.404 365.149C456.01 364.471 449.352 359.228 445.038 351.477C437.892 338.664 438.091 321.783 445.569 305.196C452.36 290.168 464.328 278.937 479.283 273.581C493.419 268.519 509.303 268.858 524.014 274.553C542.73 281.784 557.441 296.744 565.427 316.676C574.697 339.749 574.63 368.81 565.25 400.719C552.043 445.689 520.541 478.479 474.129 495.564C442.472 507.247 414.376 507.88 408.624 507.88Z" fill="#000072"/>
<g opacity="0.3">
<path d="M453.732 356.901C456.652 359.613 459.86 361.194 462.802 361.511C479.814 363.341 487.424 352.471 488.331 333.308C488.486 330.031 489.88 317.309 500.631 317.489C502.335 317.512 503.972 317.761 505.542 318.145C521.979 322.348 530.342 346.347 529.722 373.691L533.837 371.793C533.837 371.793 532.244 315.727 501.052 306.371C468.775 296.676 469.859 327.613 465.7 343.794C463.178 353.511 457.714 356.268 453.732 356.901Z" fill="#000072"/>
</g>
<path d="M291.708 586.883C291.93 597.279 291.067 607.674 282.218 612.826C271.334 619.154 251.977 624.374 217.776 620.894C193.22 618.385 182.535 608.239 182.535 597.708C182.535 585.505 196.936 572.805 220.806 571.065C228.969 571.2 245.362 573.46 260.671 572.737C285.957 571.562 287.173 566.387 291.775 559.155C291.531 568.036 291.487 577.347 291.708 586.883Z" fill="white"/>
<path d="M238.57 622.566C232.089 622.566 225.142 622.182 217.709 621.436C191.361 618.747 181.981 607.403 181.981 597.686C181.981 585.867 195.565 572.308 220.762 570.477C223.571 570.522 227.266 570.816 231.535 571.155C239.986 571.811 250.516 572.624 260.626 572.172C283.722 571.087 286.487 566.636 290.292 560.466C290.624 559.946 290.956 559.404 291.288 558.862L292.35 557.189L292.305 559.178C292.062 568.692 292.04 578.025 292.239 586.884C292.482 597.527 291.465 608.103 282.461 613.324C271.864 619.47 257.153 622.566 238.57 622.566ZM220.784 571.607C196.317 573.392 183.088 586.386 183.088 597.686C183.088 606.906 192.224 617.685 217.82 620.306C245.849 623.154 268.015 620.397 281.93 612.307C289.938 607.651 291.398 598.77 291.155 586.884C290.956 578.635 290.978 569.98 291.177 561.144C287.217 567.562 284.231 572.172 260.693 573.279C250.516 573.754 239.942 572.94 231.469 572.262C227.199 571.946 223.505 571.652 220.784 571.607Z" fill="#000072"/>
<path d="M291.774 477.711C291.774 477.711 291.398 484.626 290.889 496.287C290.712 500.287 290.535 504.829 290.314 509.846C289.518 529.959 288.611 557.574 288.19 586.906C288.058 597.301 287.549 607.697 278.7 612.849C267.816 619.154 248.459 624.397 214.258 620.917C155.678 614.951 175.986 565.302 232.309 571.381L235.362 568.421C235.362 568.421 217.045 550.32 204.789 510.434C203.683 506.863 202.643 503.134 201.67 499.225C200.52 494.66 199.48 489.869 198.551 484.852C197.511 479.248 196.604 473.373 195.896 467.158C195.387 462.729 194.967 458.119 194.657 453.373L197.577 454.096L240.008 464.763L291.774 477.711Z" fill="#8E8FB3"/>
<path d="M235.008 625.617C228.438 625.617 221.403 625.233 213.926 624.464C194.746 622.498 181.672 615.741 177.136 605.414C174.261 598.86 175.256 591.335 179.88 584.827C186.87 574.952 203.573 565.438 229.788 567.494C220.784 556.715 195.564 520.874 191.14 453.576C191.007 451.588 192.489 449.87 194.436 449.735C196.405 449.622 198.064 451.113 198.197 453.102C203.285 530.591 237.508 565.46 237.84 565.822L240.473 568.443L233.571 575.155L231.956 574.974C207.046 572.285 191.405 580.895 185.609 589.098C182.468 593.527 181.738 598.296 183.596 602.499C187.003 610.25 198.33 615.651 214.634 617.323C249.255 620.849 267.639 615.131 276.975 609.708C283.855 605.708 284.518 597.369 284.673 586.861C285.492 529.552 288.213 478.05 288.235 477.553C288.345 475.564 290.005 474.05 291.951 474.141C293.898 474.254 295.402 475.949 295.292 477.937C295.27 478.457 292.571 529.8 291.752 586.974C291.619 596.533 291.42 609.64 280.47 615.99C269.387 622.385 254.144 625.617 235.008 625.617Z" fill="#000072"/>
<g opacity="0.3">
<path d="M201.692 499.202C200.52 498.908 199.48 498.637 198.573 498.389C195.454 497.53 193.839 496.987 193.839 496.987L195.52 483.948C196.272 484.174 197.312 484.468 198.595 484.83C199.502 489.846 200.542 494.637 201.692 499.202Z" fill="#6B184E"/>
<path d="M202.466 499.971L201.559 499.745C200.387 499.451 199.347 499.18 198.418 498.908C195.321 498.05 193.662 497.507 193.662 497.507L193.219 497.372L195.033 483.203L195.653 483.383C196.405 483.609 197.445 483.903 198.706 484.265L199.037 484.355L199.104 484.694C199.989 489.508 201.051 494.344 202.223 499.044L202.466 499.971ZM194.436 496.581C195.122 496.784 196.56 497.236 198.706 497.824C199.369 498.004 200.121 498.208 200.918 498.411C199.856 494.095 198.905 489.688 198.086 485.259C197.268 485.033 196.56 484.83 195.962 484.649L194.436 496.581Z" fill="#000072"/>
</g>
<g opacity="0.3">
<path d="M437.826 491.112C428.003 493.711 418.38 495.993 408.978 497.959C407.961 498.185 406.943 498.388 405.925 498.592C407.031 494.095 408.071 489.372 408.978 484.4C417.827 482.547 426.853 480.423 436.078 478.005L437.826 491.112Z" fill="#6B184E"/>
<path d="M405.173 499.338L405.395 498.479C406.523 493.892 407.563 489.123 408.447 484.31L408.514 483.948L408.868 483.881C417.805 482.005 426.92 479.836 435.946 477.485L436.543 477.327L438.423 491.564L437.959 491.7C428.291 494.253 418.579 496.558 409.089 498.547L408.824 498.592C407.894 498.795 406.965 498.999 406.014 499.18L405.173 499.338ZM409.465 484.898C408.647 489.304 407.695 493.666 406.678 497.892C407.319 497.756 407.961 497.62 408.602 497.485L408.868 497.44C418.181 495.474 427.716 493.214 437.206 490.728L435.614 478.751C426.897 480.988 418.115 483.067 409.465 484.898Z" fill="#000072"/>
</g>
<path d="M437.826 477.553C428.003 480.152 418.38 482.434 408.978 484.4C386.9 489.056 366.127 492.106 346.814 493.959C336.284 494.976 326.174 495.632 316.551 495.971C307.569 496.31 298.986 496.377 290.867 496.264C262.241 495.858 239.101 493.01 222.598 490.073C211.404 488.084 203.263 486.073 198.551 484.785C195.431 483.926 193.816 483.383 193.816 483.383L195.896 467.09L197.577 454.028L214.965 318.394L269.607 313.558L363.672 305.219L414.398 300.722L437.826 477.553Z" fill="white"/>
<path d="M297.371 499.925C283.678 499.925 271.444 499.36 260.914 498.547C218.196 495.202 193.75 487.202 192.733 486.863L189.945 485.937L211.492 317.964C211.736 315.975 213.528 314.597 215.452 314.845C217.399 315.094 218.749 316.924 218.505 318.89L197.754 480.807C205.32 482.954 227.885 488.694 261.754 491.338C300.468 494.343 362.278 493.778 436.963 474.05C438.866 473.53 440.79 474.706 441.277 476.649C441.764 478.592 440.636 480.558 438.733 481.056C383.272 495.722 334.78 499.925 297.371 499.925Z" fill="#000072"/>
<path d="M53.185 289.242C54.2468 293.716 56.26 297.626 58.8704 300.767V300.79C57.1227 308.428 52.1231 314.484 45.1546 316.202C34.558 318.846 23.4526 310.416 20.3554 297.4C17.2583 284.406 23.342 271.728 33.9385 269.084C40.9071 267.344 48.0747 270.395 53.0522 276.338C52.1231 280.338 52.101 284.767 53.185 289.242Z" fill="#E89442"/>
<path d="M571.843 160.387C573.502 167.324 573.723 173.019 573.236 177.629C572.307 186.352 566.002 193.493 557.64 195.572L403.912 233.763C367.388 242.848 272.483 256.158 245.826 260.361C219.169 264.542 58.8481 300.767 58.8481 300.767C56.2377 297.626 54.2246 293.716 53.1627 289.242C52.1008 284.767 52.123 280.338 53.03 276.338C53.03 276.338 211.736 233.311 237.287 224.52C262.838 215.73 353.141 183.053 389.665 173.991L543.393 135.8C551.756 133.721 560.56 137.11 565.295 144.432C567.839 148.274 570.206 153.471 571.843 160.387Z" fill="#E89442"/>
<g opacity="0.5">
<path d="M55.3971 297.151C55.7732 298.71 56.2599 300.179 56.8351 301.603C57.2112 300.608 57.5209 299.591 57.7642 298.529V298.507C56.6802 297.196 55.7069 295.772 54.8662 294.213C54.9768 295.185 55.1538 296.179 55.3971 297.151Z" fill="white"/>
<path d="M36.1285 276.993C41.3936 275.682 46.7914 277.106 51.2601 280.451C51.238 278.236 51.4592 276.112 51.9238 274.078C46.9463 268.112 39.7787 265.084 32.8101 266.824C22.2135 269.468 16.1299 282.146 19.227 295.14C19.8464 297.761 20.8198 300.202 22.0144 302.416C20.3995 290.484 26.3283 279.434 36.1285 276.993Z" fill="white"/>
</g>
<g opacity="0.5">
<path d="M56.3706 286.507C56.3706 286.507 215.076 243.48 240.627 234.689C266.179 225.899 356.482 193.221 393.006 184.16L546.734 145.968C555.096 143.889 563.901 147.279 568.635 154.601C569.763 156.364 570.87 158.398 571.909 160.748C571.887 160.635 571.865 160.522 571.843 160.386C570.184 153.448 567.839 148.273 565.339 144.409C560.583 137.087 551.778 133.698 543.438 135.777L389.71 173.968C353.186 183.052 262.883 215.729 237.331 224.497C211.78 233.288 53.0744 276.315 53.0744 276.315C52.1674 280.315 52.1453 284.744 53.2071 289.219C53.8266 291.84 54.7778 294.258 55.9946 296.45C55.4857 293.015 55.6406 289.626 56.3706 286.507Z" fill="white"/>
</g>
<g opacity="0.3">
<path d="M58.8705 300.79C57.1228 308.428 52.1011 314.484 45.1546 316.202C34.5581 318.846 23.4527 310.416 20.3555 297.4C19.9794 295.863 19.7582 294.327 19.6255 292.79C24.5809 300.247 32.6555 304.315 40.4647 302.371C46.5262 300.857 51.0834 296.089 53.3399 289.852C54.4239 294.078 56.3707 297.761 58.8705 300.79Z" fill="#000072"/>
<path d="M573.237 177.629C572.308 186.352 566.003 193.493 557.641 195.572L403.913 233.763C367.389 242.848 272.484 256.158 245.826 260.339C219.169 264.519 58.8486 300.744 58.8486 300.744C56.3709 297.761 54.4241 294.055 53.318 289.829C53.2738 289.626 53.2074 289.423 53.1631 289.242C52.7871 287.683 52.5437 286.123 52.4331 284.609C52.964 285.423 53.5392 286.191 54.1586 286.937C54.1586 286.937 214.479 250.689 241.137 246.531C267.772 242.328 362.677 229.017 399.223 219.933L552.973 181.742C561.335 179.663 567.618 172.522 568.547 163.799C568.989 159.596 568.835 154.443 567.529 148.296C569.188 151.573 570.671 155.55 571.843 160.386C573.502 167.324 573.724 173.019 573.237 177.629Z" fill="#000072"/>
</g>
<g opacity="0.3">
<path d="M54.1806 286.937C53.9594 287.954 53.6718 288.926 53.34 289.852C53.2957 289.649 53.2294 289.445 53.1851 289.264C52.809 287.705 52.5657 286.146 52.4551 284.632C52.986 285.423 53.5612 286.191 54.1806 286.937Z" fill="#6B184E"/>
<path d="M53.2514 291.705L52.7868 290.01C52.7426 289.807 52.6762 289.603 52.632 289.4C52.2559 287.841 52.0125 286.259 51.9019 284.677L51.7471 282.553L52.9196 284.315C53.4505 285.129 54.0257 285.897 54.6008 286.598L54.7336 286.756L54.7115 287.118C54.4681 288.135 54.1805 289.129 53.8487 290.078L53.2514 291.705ZM53.2293 286.666C53.2735 287.027 53.3399 287.366 53.4062 287.728C53.4726 287.524 53.5169 287.298 53.5611 287.095C53.4505 286.937 53.3399 286.801 53.2293 286.666Z" fill="#000072"/>
</g>
<path d="M41.239 320.292C30.3548 320.292 20.0016 311.297 16.9045 298.258C13.3428 283.343 20.621 268.677 33.098 265.581C41.0621 263.593 49.734 266.824 55.7513 274.01L56.9238 275.389L56.5256 277.174C55.707 280.745 55.7513 284.631 56.6583 288.405C57.5432 292.157 59.2687 295.637 61.5916 298.439L62.1004 299.049L62.5428 300.721L62.3437 301.625C60.2421 310.823 53.9815 317.761 46.0175 319.727C44.4025 320.111 42.8097 320.292 41.239 320.292ZM37.8986 272.225C36.8588 272.225 35.7969 272.361 34.7793 272.609C26.0852 274.779 21.1741 285.513 23.8066 296.563C26.4392 307.614 35.6421 314.845 44.3362 312.699C49.3137 311.456 53.2293 307.365 54.9991 301.603C52.5657 298.236 50.7516 294.304 49.7561 290.123C48.7606 285.92 48.5836 281.581 49.2473 277.468C45.9068 274.055 41.8806 272.225 37.8986 272.225Z" fill="#000072"/>
<path d="M57.5432 304.766L56.1716 303.117C53.1188 299.456 50.9065 294.959 49.7562 290.1C48.6058 285.242 48.5616 280.202 49.6234 275.524L50.1101 273.4L52.1675 272.835C53.7603 272.406 211.05 229.74 236.203 221.085C241.092 219.413 248.216 216.904 257.197 213.741C295.336 200.317 359.181 177.832 388.869 170.465L542.597 132.274C552.442 129.833 562.773 133.901 568.303 142.42C571.378 147.166 573.723 152.906 575.316 159.527C576.887 166.149 577.396 172.363 576.798 178.013C575.714 188.159 568.37 196.634 558.525 199.074L404.797 237.265C375.109 244.632 308.3 254.621 268.369 260.587C258.945 261.988 251.512 263.095 246.424 263.909C220.187 268.022 61.2819 303.908 59.667 304.269L57.5432 304.766ZM56.1053 279.253C55.7071 282.236 55.8841 285.355 56.6141 288.383C57.3441 291.411 58.583 294.258 60.2864 296.721C80.3735 292.179 220.209 260.677 245.295 256.768C250.428 255.954 257.861 254.847 267.285 253.446C307.083 247.502 373.715 237.537 403.072 230.237L556.8 192.046C563.746 190.306 568.945 184.363 569.697 177.222C570.206 172.408 569.763 167.03 568.392 161.222C567.02 155.414 564.985 150.443 562.375 146.398C558.481 140.409 551.203 137.562 544.256 139.279L390.528 177.47C361.172 184.77 297.526 207.165 259.498 220.565C250.494 223.729 243.371 226.237 238.46 227.932C214.39 236.248 75.9932 273.852 56.1053 279.253Z" fill="#000072"/>
<path d="M483.376 196.815C485.677 209.289 492.092 221.469 491.694 225.515C490.853 233.695 472.868 224.159 472.868 224.159C472.868 224.159 471.85 226.735 475.5 234.012C478.221 239.413 480.588 243.39 479.504 246.328C478.376 249.446 473.177 250.147 467.094 249.491C462.846 249.039 459.24 249.627 454.595 254.87C453.665 255.887 452.736 257.084 451.741 258.485C451.741 258.485 451.719 258.485 451.719 258.508C437.804 275.299 418.779 287.682 396.28 296.202C396.28 296.202 271.156 331.817 201.537 281.965C190.786 273.965 181.406 264.271 174.017 252.565C172.225 252.068 170.478 252.09 168.575 252.316C162.514 253.084 157.315 252.497 156.098 249.401C154.97 246.486 156.917 242.147 159.262 236.52C161.164 231.978 161.916 229.153 162.182 227.887C162.248 227.571 161.983 227.3 161.739 227.435C158.642 229.062 144.395 236.113 143.511 228.837C143.024 224.791 149.218 212.498 151.298 199.979C154.704 179.505 157.425 165.109 159.129 156.409C159.173 156.183 159.217 155.935 159.262 155.709C159.306 155.483 159.35 155.257 159.394 155.031C159.439 154.805 159.483 154.579 159.527 154.375C160.036 151.844 160.633 149.336 161.275 146.85C164.261 135.325 168.597 123.868 174.128 110.874C165.766 96.4333 130.436 32.2316 149.063 7.46388C159.682 -6.66004 233.725 20.4353 249.919 26.6272C267.484 17.7461 287.438 12.1869 309.671 10.9892C314.162 10.7406 318.564 10.6728 322.878 10.8084C322.989 10.8084 323.1 10.8084 323.21 10.8084C339.404 11.2378 353.761 15.7574 367.61 20.7065C373.561 22.8307 379.18 25.3617 384.511 28.1413C400.815 22.1302 476.938 -5.14595 487.424 9.06836C505.741 33.9265 470.125 97.4502 461.497 112.071C463.687 116.794 465.634 121.472 467.337 126.173C469.417 131.8 471.12 137.494 472.514 143.415C472.514 143.415 472.536 143.528 472.58 143.731C473.199 146.217 477.204 163.415 483.376 196.815Z" fill="#8E8FB3"/>
<path d="M217.686 53.7674C214.169 56.4114 205.585 70.106 199.037 81.0887C194.325 88.9529 190.675 95.4386 190.675 95.4386C174.128 83.8683 166.009 49.3608 164.792 35.4402C164.062 27.3275 167.491 28.3218 167.491 28.3218C168.575 27.689 175.344 29.1353 182.91 31.35C192.467 34.1521 203.351 38.1746 205.696 40.8864C209.877 45.6999 223.726 49.2252 217.686 53.7674Z" fill="#FF6470"/>
<path d="M418.801 54.7168C422.274 57.406 430.747 71.1683 437.206 82.1963C441.83 90.1057 445.436 96.614 445.436 96.614C462.094 85.2019 470.523 50.7621 471.872 36.8642C472.668 28.7514 469.239 29.7231 469.239 29.7231C468.155 29.0903 461.386 30.4462 453.798 32.5931C444.197 35.3049 433.291 39.237 430.924 41.9036C426.698 46.717 412.828 50.1293 418.801 54.7168Z" fill="#FF6470"/>
<g opacity="0.3">
<path d="M475.478 234.034C474.903 232.882 474.438 231.842 474.062 230.916C472.049 231.187 469.638 231.164 467.072 230.893C464.483 230.622 462.138 230.735 459.638 232.045C463.753 225.176 466.098 217.108 466.098 208.453V179.052C466.098 178.51 466.319 178.013 466.673 177.651C466.762 177.561 466.85 177.471 466.961 177.403C467.271 177.177 467.647 177.064 468.045 177.064C468.089 177.064 468.111 177.064 468.156 177.064C468.355 177.064 468.576 177.041 468.775 177.019C468.841 177.019 468.908 176.996 468.996 176.973C469.24 176.928 469.483 176.86 469.704 176.793C469.704 176.793 469.704 176.793 469.726 176.793C469.748 176.793 469.748 176.793 469.77 176.77C469.925 176.725 470.058 176.657 470.213 176.589C470.279 176.544 470.346 176.521 470.412 176.499C470.501 176.454 470.589 176.408 470.677 176.341C470.766 176.295 470.832 176.25 470.921 176.205L471.098 176.07C471.186 176.002 471.275 175.934 471.363 175.866C471.363 175.866 471.385 175.866 471.385 175.844C471.518 175.731 471.629 175.64 471.739 175.527C471.983 175.279 472.204 174.985 472.403 174.668C472.845 173.99 473.155 173.177 473.244 172.296C473.266 172.115 473.266 171.934 473.266 171.753C473.266 171.346 473.199 170.94 473.111 170.533C472.602 168.341 470.766 166.646 468.465 166.465C466.695 166.33 464.461 166.149 461.873 165.923C461.165 165.878 460.457 165.81 459.683 165.742C452.648 165.2 443.379 164.499 433.158 163.799C432.45 163.753 431.764 163.708 431.056 163.663H431.034C430.658 163.64 430.282 163.618 429.884 163.595C423.734 163.188 417.274 162.782 410.792 162.398C408.315 162.262 405.859 162.126 403.381 161.991C399.598 161.787 395.86 161.607 392.187 161.448C391.811 161.426 391.435 161.403 391.059 161.403C390.617 161.381 390.174 161.358 389.754 161.358C388.936 161.335 388.117 161.29 387.298 161.268C387.033 161.245 386.745 161.245 386.48 161.222C385.728 161.2 384.998 161.177 384.268 161.132C384.069 161.132 383.869 161.132 383.693 161.109C382.852 161.087 382.033 161.064 381.215 161.019C380.905 161.019 380.595 160.996 380.286 160.996C379.533 160.974 378.803 160.951 378.073 160.929C377.697 160.929 377.321 160.906 376.945 160.906C376.481 160.883 376.016 160.883 375.529 160.861C375.109 160.861 374.689 160.838 374.29 160.838C373.671 160.838 373.052 160.816 372.432 160.793C371.946 160.793 371.481 160.77 371.016 160.77C370.751 160.77 370.508 160.77 370.264 160.77C369.401 160.748 368.561 160.748 367.72 160.748H367.211C366.725 160.748 366.238 160.748 365.751 160.748H365.464C364.601 160.748 363.76 160.748 362.92 160.748C362.698 160.748 362.499 160.748 362.278 160.748C361.659 160.748 361.039 160.77 360.442 160.77C360.132 160.77 359.845 160.77 359.535 160.793L358.562 160.816C358.163 160.816 357.787 160.838 357.411 160.861C357.234 160.861 357.057 160.861 356.88 160.861C353.363 160.996 349.956 161.155 346.704 161.335C344.293 161.471 341.948 161.607 339.713 161.765C334.139 162.126 328.586 162.375 323.011 162.488C316.242 162.624 309.494 162.601 302.725 162.375C298.278 162.239 293.809 162.013 289.363 161.72C285.646 161.471 281.664 161.245 277.572 161.064C276.045 160.996 274.519 160.929 272.948 160.861C272.749 160.861 272.528 160.861 272.329 160.838C251.29 160.138 210.63 162.714 183.552 164.703C183.331 164.725 183.109 164.748 182.866 164.748C182.578 164.77 182.291 164.793 181.981 164.816C181.627 164.838 181.295 164.861 180.964 164.906C180.809 164.906 180.654 164.929 180.521 164.929C180.079 164.974 179.636 164.996 179.194 165.019C179.172 165.019 179.149 165.019 179.149 165.019C178.619 165.064 178.11 165.087 177.601 165.132C170.721 165.652 165.08 166.104 161.385 166.397C160.146 166.488 159.04 167.053 158.2 167.889C157.226 168.861 156.607 170.194 156.607 171.685C156.607 172.047 156.651 172.409 156.717 172.77C156.917 173.697 157.337 174.533 157.934 175.211C158.001 175.301 158.067 175.369 158.133 175.437C158.155 175.459 158.178 175.482 158.2 175.505C158.31 175.618 158.421 175.731 158.554 175.821C158.576 175.844 158.62 175.866 158.642 175.889C158.775 175.979 158.885 176.07 159.018 176.16C159.062 176.183 159.107 176.205 159.151 176.228C159.284 176.295 159.394 176.363 159.527 176.431C159.571 176.454 159.615 176.476 159.66 176.499C159.815 176.567 159.969 176.634 160.124 176.68C160.124 176.68 160.146 176.702 160.169 176.702C160.39 176.77 160.633 176.838 160.876 176.883C160.943 176.906 161.009 176.906 161.098 176.928C161.297 176.951 161.496 176.973 161.717 176.973C161.761 176.973 161.806 176.973 161.828 176.973C162.093 176.973 162.381 177.041 162.624 177.154C162.845 177.245 163.044 177.38 163.199 177.561C163.398 177.764 163.553 178.036 163.642 178.329C163.708 178.533 163.752 178.736 163.752 178.962V208.385C163.752 209.153 163.774 209.922 163.819 210.69C163.819 210.735 163.819 210.78 163.819 210.848C163.863 211.526 163.907 212.204 163.974 212.882C163.974 213.063 164.018 213.221 164.018 213.402C164.084 213.944 164.151 214.509 164.217 215.052C164.261 215.278 164.283 215.481 164.328 215.707C164.416 216.204 164.482 216.701 164.593 217.198C164.637 217.447 164.682 217.673 164.748 217.922C164.836 218.373 164.947 218.848 165.058 219.3C165.124 219.549 165.19 219.797 165.235 220.068C165.345 220.52 165.478 220.95 165.589 221.379C165.677 221.628 165.743 221.899 165.81 222.147C165.942 222.577 166.097 223.006 166.252 223.458C166.341 223.684 166.407 223.933 166.496 224.181C166.673 224.678 166.872 225.153 167.071 225.65C167.137 225.808 167.203 225.989 167.27 226.147C167.535 226.78 167.823 227.435 168.11 228.068C168.155 228.181 168.221 228.294 168.287 228.407C168.531 228.927 168.796 229.447 169.062 229.944C169.15 230.125 169.261 230.305 169.371 230.486C169.615 230.916 169.858 231.345 170.101 231.774C170.212 231.955 170.323 232.136 170.433 232.317C170.699 232.746 170.964 233.175 171.23 233.582C171.296 233.672 171.34 233.763 171.407 233.853C170.522 233.627 169.571 233.56 168.619 233.673C168.597 233.673 168.575 233.673 168.575 233.673C165.5 234.057 162.646 234.102 160.412 233.627C160.102 234.486 159.704 235.435 159.284 236.475C156.917 242.102 154.992 246.463 156.098 249.356C157.293 252.452 162.514 253.039 168.575 252.293C170.478 252.067 172.225 252.022 174.017 252.519C181.384 264.225 190.764 273.92 201.537 281.92C271.156 331.794 396.28 296.157 396.28 296.157C418.779 287.637 437.804 275.253 451.719 258.463C451.719 258.463 451.741 258.463 451.741 258.44C452.736 257.039 453.665 255.841 454.595 254.824C459.24 249.582 462.846 248.994 467.094 249.446C473.155 250.101 478.376 249.401 479.504 246.282C480.566 243.412 478.177 239.458 475.478 234.034ZM396.258 277.604C396.258 277.604 271.134 313.218 201.515 263.367C194.436 258.124 187.976 252.113 182.269 245.311C182.578 245.559 182.91 245.785 183.242 246.011C183.286 246.056 183.353 246.102 183.419 246.124C183.95 246.508 184.525 246.87 185.078 247.209C185.189 247.277 185.299 247.344 185.41 247.412C185.853 247.683 186.317 247.955 186.782 248.226C186.937 248.316 187.069 248.384 187.224 248.474C187.799 248.791 188.375 249.085 188.95 249.378C188.95 249.378 188.972 249.378 188.994 249.401C189.569 249.672 190.144 249.943 190.719 250.192C190.896 250.26 191.073 250.35 191.25 250.418C191.693 250.599 192.157 250.779 192.6 250.96C192.777 251.028 192.932 251.096 193.109 251.164C193.662 251.367 194.215 251.57 194.768 251.751C194.812 251.751 194.834 251.774 194.856 251.774C195.321 251.909 195.785 252.045 196.25 252.18C196.516 252.248 196.781 252.339 197.046 252.406C197.4 252.497 197.799 252.587 198.153 252.678C198.529 252.768 198.883 252.858 199.259 252.949C199.369 252.971 199.458 252.994 199.568 252.994C200.498 253.175 201.449 253.333 202.4 253.469C202.842 253.536 203.285 253.604 203.727 253.649C203.727 253.649 203.75 253.649 203.772 253.649C203.949 253.649 204.103 253.672 204.28 253.695C204.457 253.717 204.634 253.717 204.811 253.74C205.21 253.785 205.586 253.808 205.962 253.83C206.714 253.875 207.466 253.898 208.218 253.898H246.224C252.352 253.898 258.215 252.632 263.524 250.327C264.121 250.079 264.697 249.785 265.294 249.514C265.36 249.491 265.427 249.446 265.493 249.423C280.381 242.102 290.668 226.531 290.668 208.521V207.662C290.668 205.357 290.978 203.12 291.509 200.995C291.796 199.888 292.128 198.803 292.571 197.741C300.667 177.493 329.36 177.493 337.435 197.741C337.833 198.758 338.187 199.798 338.452 200.86C339.028 203.029 339.337 205.312 339.337 207.662V208.521C339.337 209.379 339.359 210.215 339.404 211.052C339.404 211.165 339.426 211.278 339.426 211.391C339.47 212.091 339.514 212.792 339.603 213.492C339.625 213.718 339.669 213.944 339.691 214.148C339.758 214.735 339.824 215.3 339.935 215.888C339.979 216.159 340.023 216.407 340.067 216.679C340.156 217.198 340.266 217.718 340.377 218.238C340.443 218.532 340.51 218.803 340.576 219.074C340.687 219.571 340.819 220.068 340.93 220.543C341.019 220.837 341.085 221.13 341.173 221.402C341.306 221.876 341.461 222.328 341.616 222.803C341.704 223.097 341.793 223.39 341.903 223.661C342.058 224.113 342.235 224.565 342.39 225.017C342.501 225.289 342.611 225.582 342.722 225.853C342.899 226.305 343.12 226.78 343.319 227.232C343.43 227.481 343.54 227.752 343.651 228C343.894 228.497 344.138 228.995 344.403 229.492C344.492 229.673 344.58 229.876 344.691 230.057C345.045 230.735 345.421 231.413 345.819 232.068C345.908 232.204 345.996 232.339 346.085 232.497C346.394 232.995 346.704 233.514 347.058 234.011C347.213 234.237 347.368 234.463 347.522 234.689C347.81 235.096 348.098 235.503 348.385 235.91C348.562 236.136 348.739 236.362 348.916 236.588C349.204 236.972 349.491 237.356 349.801 237.718C349.978 237.944 350.177 238.17 350.376 238.396C350.686 238.757 350.996 239.119 351.328 239.48C351.505 239.684 351.704 239.887 351.903 240.09C352.257 240.452 352.611 240.814 352.965 241.175C353.142 241.356 353.319 241.537 353.496 241.695C353.894 242.079 354.292 242.441 354.712 242.802C354.801 242.893 354.911 242.983 355.022 243.073C355.088 243.141 355.177 243.186 355.243 243.254C355.464 243.458 355.708 243.638 355.929 243.842C356.194 244.068 356.482 244.294 356.77 244.52C356.969 244.678 357.19 244.859 357.389 245.017C357.831 245.356 358.296 245.695 358.761 246.011C358.982 246.169 359.203 246.328 359.446 246.463C359.756 246.667 360.044 246.87 360.353 247.051C360.597 247.209 360.84 247.367 361.061 247.503C361.437 247.729 361.814 247.955 362.19 248.158C362.499 248.339 362.831 248.52 363.163 248.7C363.517 248.881 363.871 249.062 364.203 249.243C364.468 249.378 364.734 249.514 365.021 249.649C365.331 249.785 365.641 249.943 365.95 250.079C366.216 250.214 366.503 250.327 366.769 250.44C367.278 250.644 367.787 250.847 368.295 251.051C368.605 251.164 368.915 251.277 369.224 251.39C369.512 251.48 369.778 251.593 370.065 251.683C370.397 251.796 370.729 251.909 371.061 252C371.326 252.09 371.592 252.158 371.857 252.226C372.476 252.406 373.074 252.565 373.715 252.7C373.959 252.745 374.202 252.813 374.423 252.881C374.799 252.971 375.175 253.039 375.551 253.107C375.795 253.152 376.038 253.197 376.282 253.243C376.658 253.31 377.056 253.378 377.432 253.423C377.432 253.423 377.432 253.423 377.454 253.423C377.985 253.491 378.516 253.559 379.069 253.627C379.29 253.649 379.534 253.672 379.777 253.695C380.264 253.74 380.728 253.785 381.215 253.808C381.392 253.808 381.591 253.83 381.768 253.853C382.432 253.875 383.139 253.898 383.825 253.898H421.809C430.548 253.898 438.711 251.322 445.569 246.847C432.317 260.135 415.571 270.282 396.258 277.604Z" fill="#000072"/>
</g>
<g opacity="0.5">
<path d="M384.489 38.4688C379.157 35.6892 373.516 33.1582 367.588 31.0339C353.717 26.0849 339.359 21.5653 323.188 21.1359C323.1 21.1359 322.967 21.1359 322.856 21.1359C318.542 21.0003 314.14 21.0681 309.649 21.3167C287.416 22.537 267.462 28.0962 249.897 36.9547C233.681 30.7628 159.638 3.66743 149.019 17.7914C146.298 21.4071 144.727 25.8589 144.064 30.8757C143.046 20.7065 144.241 11.622 149.063 5.20412C159.682 -8.9198 233.725 18.1755 249.919 24.3674C267.484 15.4863 287.438 9.92716 309.671 8.72945C314.162 8.48087 318.564 8.41307 322.878 8.54866C322.989 8.54866 323.1 8.54866 323.21 8.54866C339.404 8.97803 353.761 13.4977 367.61 18.4467C373.561 20.5709 379.18 23.1019 384.511 25.8815C400.815 19.8704 476.938 -7.40572 487.424 6.80859C492.203 13.2717 493.309 22.3562 492.203 32.5254C491.583 27.5086 490.057 23.0342 487.38 19.3958C476.872 5.15892 400.749 32.4576 384.489 38.4688Z" fill="white"/>
</g>
<path d="M267.904 242.576C267.882 264.022 289.828 275.728 316.507 275.954C342.988 276.18 363.716 264.858 363.738 243.412C363.76 221.198 341.35 202.803 315.954 202.577C289.496 202.351 267.949 218.803 267.904 242.576Z" fill="white"/>
<path d="M168.133 25.0904C173.044 25.5876 177.778 26.5141 182.534 27.6666C187.269 28.8191 191.959 30.2202 196.56 31.9151C197.71 32.3219 198.861 32.7512 200.011 33.2258C201.139 33.7004 202.312 34.1071 203.418 34.6269C205.652 35.6438 207.909 36.6833 210.099 37.8584C212.333 38.9432 214.457 40.2539 216.603 41.542L219.722 43.621L220.496 44.1408L220.585 44.2086L220.74 44.3215L221.049 44.5701C221.249 44.7283 221.448 44.9317 221.647 45.1125C222.399 45.8808 222.996 46.8074 223.416 47.8017C224.235 49.8129 224.235 52.1179 223.394 54.1292C223.195 54.6264 222.93 55.1235 222.62 55.5529C222.465 55.7789 222.31 56.0049 222.133 56.2082C221.979 56.389 221.735 56.6828 221.669 56.728L220.474 58.0161C218.881 59.7336 217.355 61.5188 215.851 63.3493C212.842 66.9876 209.944 70.7615 207.201 74.671C201.67 82.4448 196.737 90.6706 191.936 99.0997V99.1223C191.516 99.8681 190.565 100.139 189.813 99.6873C189.149 99.3031 188.884 98.4896 189.127 97.789C192.379 88.456 196.693 79.4618 201.936 71.0553C204.568 66.852 207.4 62.7617 210.475 58.8522C212.024 56.9088 213.616 54.9879 215.298 53.1349L216.559 51.7564C216.713 51.5982 216.647 51.6434 216.691 51.5982C216.713 51.5756 216.736 51.553 216.758 51.5078C216.802 51.4626 216.824 51.3948 216.846 51.327C216.957 51.101 216.979 50.762 216.868 50.5135C216.824 50.3779 216.758 50.2649 216.647 50.1745C216.625 50.1519 216.603 50.1293 216.581 50.1067L216.536 50.0615L216.514 50.0389L216.426 49.9711L215.718 49.4739L212.864 47.5079C211.891 46.8752 210.873 46.3102 209.9 45.6774C208.926 45.0447 207.909 44.4571 206.891 43.8922C202.843 41.5646 198.595 39.5533 194.304 37.6551C185.698 33.8811 176.672 30.7626 167.58 28.1864L167.513 28.1638C166.673 27.9378 166.186 27.0565 166.429 26.1977C166.651 25.4972 167.381 25.0226 168.133 25.0904Z" fill="#000072"/>
<path d="M249.72 306.484C245.141 305.693 240.583 304.608 236.115 303.275C231.646 301.897 227.244 300.27 222.93 298.349C220.784 297.422 218.616 296.292 216.603 295.14C214.545 293.987 212.532 292.767 210.541 291.479C206.581 288.903 202.754 286.1 199.148 282.982L198.971 282.824C199.148 283.004 199.392 283.185 199.635 283.298L199.237 283.05C198.263 282.281 197.622 281.626 196.958 280.948C196.294 280.27 195.653 279.592 195.034 278.914L191.339 274.892C188.883 272.248 186.428 269.649 183.862 267.163C181.318 264.7 178.685 262.35 175.92 260.384C174.548 259.389 173.132 258.508 171.717 257.853C171.009 257.536 170.301 257.242 169.615 257.062C168.885 256.858 168.442 256.813 167.403 256.7C165.589 256.497 163.73 256.271 161.806 255.864C159.881 255.412 157.846 254.983 155.656 253.288C155.125 252.858 154.594 252.316 154.151 251.638C153.908 251.322 153.753 250.938 153.576 250.576C153.421 250.214 153.333 249.853 153.222 249.491C152.89 248.045 152.957 246.757 153.134 245.627C153.488 243.345 154.196 241.537 154.881 239.751C156.297 236.181 157.78 233.017 158.775 229.718C159.018 228.904 159.262 228.091 159.417 227.322L159.439 227.255C159.439 227.209 159.417 227.3 159.417 227.368L159.394 227.571C159.372 227.865 159.394 228.181 159.505 228.497C159.704 229.13 160.169 229.831 161.164 230.17C161.651 230.328 162.248 230.328 162.713 230.17C162.823 230.125 162.934 230.102 163.045 230.034C163.199 229.944 163.067 230.012 163.089 230.012L163 230.057L162.691 230.215L161.43 230.848C159.726 231.684 158.023 232.43 156.231 233.108C154.439 233.785 152.581 234.373 150.523 234.735C149.484 234.915 148.4 235.028 147.183 234.961C145.988 234.87 144.528 234.622 143.09 233.559C142.405 233.017 141.785 232.294 141.409 231.503C141.188 231.119 141.099 230.735 140.944 230.328C140.834 229.944 140.79 229.582 140.723 229.221C140.657 228.475 140.657 227.661 140.745 227.119C140.812 226.486 140.922 225.966 141.033 225.469C141.497 223.435 142.073 221.65 142.648 219.888C145.015 212.882 147.36 206.148 148.488 199.21L152.138 177.471L154.063 166.601L155.081 161.155C155.435 159.324 155.766 157.584 156.209 155.618L156.165 155.821L156.541 154.172L156.895 152.68L157.625 149.742C158.133 147.776 158.642 145.833 159.195 143.867C160.279 139.957 161.43 136.093 162.646 132.229C165.124 124.523 167.889 116.885 171.341 109.427L171.473 112.478C166.894 104.569 162.624 96.4784 158.664 88.23C154.727 79.9816 151.076 71.5525 148.001 62.8295C144.926 54.1292 142.382 45.1577 141.099 35.7794C140.48 31.1016 140.237 26.2655 140.723 21.3843C141.188 16.5257 142.559 11.4637 145.347 7.05701L146.409 5.42994C146.63 5.13616 146.94 4.77459 147.227 4.45821C147.515 4.16444 147.824 3.89326 148.134 3.62208C149.395 2.58256 150.723 1.94981 152.028 1.47524C154.638 0.526115 157.094 0.254936 159.505 0.0741495C164.328 -0.174431 168.929 0.232337 173.464 0.842491C182.534 2.10799 191.317 4.18703 200.011 6.51466C217.377 11.2377 234.367 16.9777 251.18 23.3052L248.459 23.4408C254.233 20.5482 260.162 17.9946 266.245 15.8703C272.329 13.7461 278.523 12.006 284.806 10.6501C291.089 9.31684 297.46 8.36771 303.831 7.80276C310.202 7.2378 316.618 6.98922 323.055 7.17001L322.657 7.1926C322.989 7.17001 323.321 7.17001 323.653 7.1926L323.387 7.17001C328.918 7.35079 334.426 7.91575 339.824 8.93267C345.178 9.94959 350.487 11.3281 355.708 12.91C358.318 13.7009 360.885 14.537 363.451 15.4184C366.017 16.3223 368.517 17.1358 371.171 18.198C376.304 20.277 381.149 22.5368 386.06 24.887L383.339 24.7515C400.351 18.5143 417.518 12.797 435.061 8.09653C443.843 5.76891 452.714 3.71247 461.829 2.37917C466.408 1.74642 471.032 1.27186 475.876 1.43005C478.31 1.54304 480.765 1.74642 483.376 2.51476C484.681 2.89893 486.031 3.3961 487.358 4.25483C487.69 4.48081 488.022 4.72939 488.353 4.95538C488.685 5.20396 488.995 5.52033 489.305 5.81411C489.614 6.13049 489.902 6.46946 490.19 6.83103C490.433 7.14741 490.566 7.39599 490.765 7.68977C493.773 12.0964 495.233 17.2262 495.809 22.1753C496.384 27.1469 496.14 32.0507 495.521 36.7963C494.238 46.3102 491.605 55.3721 488.464 64.1402C485.301 72.9084 481.584 81.4053 477.536 89.7215C473.487 98.0376 469.129 106.15 464.439 114.128L464.616 110.738C465.767 113.291 466.895 115.822 468.001 118.399C468.554 119.687 469.107 120.975 469.638 122.286C470.169 123.596 470.7 124.997 471.164 126.308C473.089 131.641 474.704 137.087 476.009 142.601L476.12 143.483C476.12 143.121 476.076 142.737 475.943 142.375L476.12 143.528C476.12 143.099 476.053 142.624 475.854 142.149C475.677 141.697 475.39 141.291 475.102 140.974L475.943 142.398C476.009 142.579 476.053 142.76 476.076 142.963L476.142 143.686C476.142 143.438 476.12 143.166 476.053 142.918L469.063 144.432L469.041 144.319L476.031 142.827C478.354 152.816 480.411 162.736 482.425 172.702L485.345 187.662L486.761 195.142C487.004 196.431 487.225 197.515 487.491 198.713C487.756 199.888 488.066 201.041 488.398 202.216C489.703 206.916 491.451 211.526 493.176 216.362C493.596 217.582 494.039 218.825 494.437 220.136C494.636 220.814 494.835 221.469 494.99 222.238C495.079 222.622 495.167 222.961 495.211 223.435L495.3 224.091L495.344 224.43V224.859C495.388 226.034 495.211 227.096 494.702 228.339C494.194 229.582 493.132 230.78 492.026 231.435C490.92 232.113 489.836 232.407 488.884 232.543C487.955 232.656 487.07 232.678 486.274 232.633C483.11 232.384 480.544 231.548 478.022 230.622C476.761 230.147 475.545 229.65 474.35 229.108L472.558 228.271L472.116 228.045L471.917 227.955L471.872 227.932C471.917 227.955 471.695 227.842 471.983 227.978C472.359 228.136 472.779 228.249 473.244 228.249C474.173 228.271 475.058 227.865 475.589 227.345C476.142 226.825 476.452 226.192 476.584 225.605C476.651 225.288 476.673 224.995 476.651 224.724C476.651 224.475 476.54 224 476.584 224.159L476.629 224.317C477.182 226.441 478.022 228.701 478.951 230.915C479.903 233.13 481.009 235.48 481.982 238.034C482.469 239.345 482.933 240.701 483.243 242.35C483.376 243.186 483.486 244.068 483.42 245.107C483.354 246.147 483.177 247.231 482.579 248.429C482.004 249.582 481.119 250.553 480.257 251.164C479.814 251.525 479.394 251.728 478.951 251.977C478.531 252.158 478.089 252.384 477.69 252.519C476.031 253.107 474.527 253.31 473.067 253.423C471.607 253.514 470.213 253.491 468.864 253.401C468.178 253.356 467.514 253.288 466.828 253.22L465.457 253.13C463.731 253.175 461.961 253.808 460.236 254.87C458.533 255.954 456.94 257.468 455.568 259.141C455.236 259.547 454.904 259.999 454.639 260.406L454.329 260.858L453.975 261.355L453.312 262.191C452.449 263.254 451.608 264.225 450.768 265.197L449.396 266.734L448.002 268.09C447.073 268.994 446.188 269.92 445.215 270.756C444.241 271.615 443.312 272.519 442.317 273.332L439.33 275.796C431.234 282.191 422.318 287.389 413.049 291.501C408.425 293.558 403.691 295.366 398.935 296.993C394.157 298.575 389.356 299.998 384.489 301.219C383.781 301.399 383.073 300.948 382.896 300.224C382.741 299.569 383.073 298.914 383.671 298.665C388.272 296.767 392.851 294.891 397.386 292.88C401.899 290.869 406.346 288.744 410.704 286.485C419.398 281.92 427.672 276.677 435.149 270.485C436.985 268.903 438.844 267.321 440.591 265.626C441.498 264.813 442.339 263.932 443.202 263.073L444.485 261.785L445.591 260.497C446.387 259.57 447.184 258.621 447.892 257.717L448.4 257.062L448.6 256.79L448.821 256.452C449.263 255.796 449.661 255.231 450.104 254.666C451.874 252.429 453.931 250.418 456.431 248.768C458.931 247.164 461.961 245.943 465.213 245.83L466.43 245.876L467.027 245.898L467.558 245.943C468.111 246.011 468.687 246.056 469.24 246.079C470.346 246.147 471.452 246.147 472.47 246.056C473.487 245.966 474.461 245.785 475.146 245.537C475.899 245.288 476.076 244.949 475.987 245.062C475.987 245.13 476.12 244.542 475.943 243.683C475.788 242.825 475.456 241.785 475.058 240.723C474.239 238.554 473.177 236.316 472.138 233.898C471.098 231.435 470.147 228.972 469.417 226.192L469.35 225.899C469.372 225.989 469.24 225.424 469.24 225.108C469.218 224.746 469.24 224.362 469.328 223.978C469.505 223.209 469.881 222.464 470.545 221.831C471.186 221.198 472.226 220.724 473.31 220.746C473.841 220.746 474.328 220.882 474.792 221.063L475.058 221.176L475.279 221.289L475.677 221.492L477.27 222.238C478.332 222.712 479.416 223.164 480.5 223.571C482.646 224.362 484.88 225.017 486.694 225.13C487.137 225.153 487.513 225.13 487.8 225.108C488.066 225.062 488.199 224.995 488.154 225.017C488.11 225.017 487.933 225.243 487.911 225.311C487.867 225.379 487.933 225.198 487.911 225.085V225.04L487.889 224.904L487.845 224.611C487.845 224.452 487.756 224.181 487.712 223.933C487.623 223.458 487.446 222.893 487.292 222.373C486.96 221.266 486.562 220.113 486.163 218.938C484.504 214.238 482.69 209.379 481.274 204.295C480.92 203.029 480.588 201.741 480.301 200.43C480.013 199.142 479.726 197.741 479.527 196.543L478.133 189.086L475.279 174.171C473.332 164.251 471.297 154.307 469.041 144.545L476.031 143.053L476.053 143.166L469.063 144.68C468.996 144.364 468.952 144.025 468.952 143.686L469.018 144.409C469.041 144.522 469.063 144.613 469.107 144.726L469.948 146.149C469.66 145.833 469.372 145.426 469.173 144.952C468.974 144.477 468.908 143.98 468.908 143.551L469.085 144.703C468.974 144.319 468.908 143.912 468.908 143.505L468.996 144.387C467.758 139.121 466.253 133.946 464.439 128.862C463.975 127.574 463.532 126.376 463.023 125.11C462.515 123.867 461.984 122.602 461.453 121.359C460.369 118.851 459.263 116.342 458.134 113.856L457.338 112.116L458.311 110.467C462.891 102.693 467.16 94.7157 471.12 86.5803C475.058 78.4449 478.686 70.174 481.739 61.7222C484.792 53.2931 487.269 44.6153 488.42 35.9376C488.973 31.5987 489.172 27.2599 488.707 23.1018C488.221 18.9663 487.026 15.0568 484.88 11.893C483.863 9.65582 479.615 8.91007 475.545 8.75188C471.386 8.61629 467.05 9.02306 462.714 9.63322C454.042 10.8761 445.37 12.91 436.742 15.1698C419.509 19.7798 402.475 25.452 385.662 31.6213L384.268 32.1185L382.918 31.4857C378.162 29.2033 373.295 26.9435 368.495 25C366.194 24.0735 363.583 23.2148 361.106 22.356C358.606 21.4973 356.106 20.6838 353.584 19.9154C348.562 18.4013 343.496 17.0906 338.408 16.1415C333.32 15.1698 328.166 14.6274 323.033 14.4692L322.768 14.4466C322.878 14.4692 322.989 14.4692 323.1 14.4466L322.701 14.4692C316.574 14.2659 310.424 14.4918 304.296 15.0342C298.168 15.5766 292.084 16.4579 286.067 17.7234C280.072 19.0115 274.143 20.6612 268.325 22.6498C262.529 24.6837 256.865 27.1017 251.357 29.8361L250.03 30.514L248.636 29.9943C232.044 23.7119 215.187 17.972 198.153 13.3167C189.636 11.0343 181.03 8.97787 172.447 7.75756C168.177 7.17001 163.863 6.78584 159.771 7.01182C157.757 7.14741 155.744 7.41859 154.151 8.00614C153.355 8.29992 152.669 8.66149 152.183 9.04566L151.851 9.33944C151.762 9.45243 151.696 9.52023 151.563 9.67841L150.789 10.8761C148.731 14.1077 147.581 18.0624 147.161 22.2205C146.74 26.3785 146.917 30.7174 147.493 35.0337C148.665 43.6888 151.054 52.2987 154.019 60.7053C156.983 69.1119 160.478 77.3828 164.328 85.473C168.155 93.5632 172.336 101.54 176.783 109.292L177.645 110.783L176.915 112.342C173.619 119.393 170.876 126.805 168.442 134.33C167.226 138.104 166.075 141.901 165.014 145.72C164.483 147.618 163.952 149.539 163.465 151.46L162.735 154.33L162.071 157.042L162.027 157.245C161.651 158.85 161.275 160.725 160.943 162.465L159.903 167.844L157.934 178.646L154.196 200.295C152.935 207.888 150.369 215.029 148.024 221.876C147.471 223.571 146.895 225.288 146.564 226.825C146.364 227.594 146.342 228.294 146.342 228.52C146.409 228.949 146.453 228.882 146.453 228.904C146.475 228.949 146.851 229.108 147.426 229.13C148.001 229.175 148.709 229.108 149.462 228.995C150.944 228.746 152.559 228.249 154.129 227.684C155.722 227.096 157.293 226.418 158.841 225.65L159.992 225.085L160.279 224.95L160.346 224.904L160.478 224.837C160.611 224.769 160.744 224.724 160.877 224.678C161.452 224.498 162.16 224.475 162.757 224.678C163.952 225.085 164.593 225.989 164.859 226.825C164.991 227.255 165.036 227.707 164.991 228.091C164.991 228.204 164.969 228.294 164.947 228.384L164.903 228.588L164.881 228.678C164.66 229.695 164.394 230.644 164.084 231.571C162.934 235.277 161.297 238.757 160.014 241.989C159.372 243.616 158.797 245.243 158.576 246.599C158.465 247.277 158.487 247.842 158.554 248.203C158.598 248.271 158.598 248.384 158.62 248.429C158.664 248.474 158.642 248.52 158.687 248.565C158.753 248.655 158.841 248.791 159.018 248.926C159.704 249.514 161.231 250.056 162.801 250.373C164.394 250.712 166.098 250.938 167.845 251.141C168.597 251.209 169.947 251.367 170.942 251.683C172.004 251.977 172.955 252.384 173.907 252.813C175.743 253.695 177.402 254.757 178.973 255.864C182.092 258.124 184.857 260.632 187.512 263.231C190.167 265.83 192.689 268.519 195.166 271.208L198.839 275.231C199.436 275.886 200.055 276.541 200.653 277.152C201.25 277.762 201.891 278.394 202.334 278.756L201.936 278.507C202.201 278.643 202.467 278.846 202.666 279.072L202.489 278.914C205.896 281.852 209.479 284.632 213.218 287.117C216.979 289.603 220.85 291.931 224.877 293.852C228.903 295.84 233.084 297.58 237.331 299.072C241.579 300.609 245.937 301.851 250.317 303.004C251.291 303.253 251.866 304.247 251.622 305.241C251.534 306.055 250.627 306.642 249.72 306.484Z" fill="#000072"/>
<path d="M469.129 29.6778C464.616 30.8981 460.081 32.2766 455.634 33.8133C451.166 35.3274 446.785 36.9997 442.472 38.8301C441.388 39.2595 440.326 39.7566 439.264 40.2538C438.202 40.7284 437.14 41.2255 436.1 41.7453L432.959 43.282L429.884 44.9316C428.844 45.4514 427.871 46.0842 426.875 46.6717C425.88 47.2593 424.862 47.8242 423.911 48.457L421.057 50.31C420.659 50.6038 420.394 50.9654 420.261 51.4174C420.128 51.8693 420.106 52.3439 420.239 52.7732C420.327 52.9766 420.371 53.2026 420.526 53.3834C420.593 53.4964 420.637 53.519 420.77 53.6998L421.389 54.4003C423.026 56.276 424.597 58.1742 426.123 60.1403C429.132 64.0498 431.919 68.1627 434.485 72.3659C439.596 80.7951 443.821 89.7666 446.962 99.0771C447.25 99.8906 446.808 100.795 446.011 101.088C445.303 101.337 444.529 101.021 444.175 100.365C439.485 91.936 434.64 83.7329 429.242 75.9365C426.544 72.0496 423.734 68.2531 420.77 64.5921C419.309 62.7617 417.783 60.9764 416.212 59.2364L415.637 58.581C415.394 58.2872 415.018 57.8805 414.774 57.4737C414.221 56.6827 413.801 55.7562 413.513 54.8071C412.96 52.9088 413.027 50.8524 413.69 48.9993C414.332 47.1463 415.593 45.4966 417.164 44.4119L420.349 42.378C421.389 41.7001 422.473 41.0899 423.557 40.5024C424.641 39.9148 425.725 39.2821 426.831 38.7623C431.211 36.5025 435.769 34.6494 440.348 33.0224C444.927 31.3501 449.617 30.062 454.329 28.9547C459.063 27.87 463.775 26.9886 468.664 26.5367C469.527 26.4463 470.279 27.1016 470.368 27.9829C470.434 28.7739 469.925 29.4744 469.217 29.6778H469.129Z" fill="#000072"/>
<path d="M336.417 215.617C336.395 221.515 327.436 228.339 316.419 228.272C305.402 228.204 296.509 221.311 296.531 215.413C296.553 209.515 305.49 207.617 316.507 207.662C327.524 207.73 336.439 209.718 336.417 215.617Z" fill="#000072"/>
<g opacity="0.5">
<path d="M323.962 211.91C323.962 213.153 320.6 214.577 316.463 214.577C312.326 214.554 308.963 213.085 308.985 211.842C309.008 210.599 312.348 209.741 316.485 209.763C320.622 209.786 323.984 210.667 323.962 211.91Z" fill="white"/>
<path d="M316.551 215.142C316.529 215.142 316.485 215.142 316.463 215.142C312.658 215.119 308.41 213.763 308.432 211.842C308.432 209.876 312.812 209.153 316.485 209.198C320.201 209.221 324.537 209.944 324.515 211.91C324.515 212.791 323.608 213.628 321.949 214.238C320.423 214.825 318.52 215.142 316.551 215.142ZM316.33 210.328C311.861 210.328 309.538 211.3 309.538 211.842C309.538 212.475 312.215 213.989 316.463 214.012C318.299 213.967 320.157 213.718 321.573 213.198C322.922 212.701 323.409 212.159 323.409 211.933C323.409 211.39 321.042 210.373 316.463 210.351C316.44 210.328 316.374 210.328 316.33 210.328Z" fill="#000072"/>
</g>
<path d="M246.313 295.004C246.313 295.004 316.618 308.405 375.773 295.004L376.105 317.06C376.105 317.06 316.441 332.924 249.631 317.49L246.313 295.004Z" fill="white"/>
<path d="M310.91 324.766C292.372 324.766 271.289 323.071 249.521 318.055L249.145 317.964L245.649 294.304L246.424 294.439C247.132 294.575 317.304 307.659 375.662 294.439L376.326 294.281L376.68 317.49L376.26 317.603C375.861 317.738 348.717 324.766 310.91 324.766ZM250.14 317.038C313.012 331.455 370.11 317.987 375.574 316.631L375.242 295.705C320.091 307.998 254.764 297.083 246.977 295.705L250.14 317.038Z" fill="#000072"/>
<path d="M310.866 327.817C292.15 327.817 270.847 326.099 248.857 321.037L246.49 320.495L242.065 290.53L246.954 291.456C247.64 291.592 317.259 304.563 374.998 291.479L379.246 290.53L379.711 319.862L377.012 320.585C376.613 320.676 349.137 327.817 310.866 327.817ZM252.773 314.507C309.118 326.913 360.398 316.947 372.521 314.213L372.3 299.456C323.077 309.49 267.13 302.032 250.538 299.388L252.773 314.507Z" fill="#000072"/>
<g opacity="0.3">
<path d="M290.889 496.287C290.712 500.287 290.535 504.829 290.314 509.846C261.953 509.416 239.012 506.569 222.62 503.676C220.142 503.247 217.797 502.795 215.629 502.366C212.665 506.027 208.926 508.738 204.811 510.411C203.705 506.84 202.665 503.111 201.692 499.202C200.542 494.637 199.502 489.846 198.573 484.829C197.29 484.468 196.272 484.174 195.498 483.948C194.392 483.632 193.816 483.428 193.816 483.428L195.896 467.135C195.387 462.706 194.967 458.096 194.657 453.35L197.577 454.073L214.965 318.438L263.369 314.597C266.355 319.636 269.497 321.263 273.59 332.698C278.036 345.127 285.115 359.319 283.943 378.075C281.421 418.617 259.807 439.633 239.986 464.717C233.791 472.536 227.796 480.762 222.598 490.095C239.123 493.01 262.263 495.88 290.889 496.287Z" fill="#000072"/>
</g>
<path d="M274.231 369.036C270.736 425.17 230.65 443.859 209.391 487.813C201.382 504.355 180.145 508.603 166.429 496.581C163.155 493.711 159.859 491.067 156.629 488.83C135.369 474.096 117.716 476.627 91.2573 466.683C90.7485 466.503 90.2397 466.254 89.753 466.028C80.8156 461.87 76.3027 453.396 76.0814 444.786C75.8602 435.407 80.7271 425.848 90.5052 421.464C116.875 409.623 152.625 391.318 169.526 372.742C173.84 367.997 176.915 363.251 178.309 358.596C186.826 329.964 174.437 297.513 169.283 285.965C168.553 284.315 170.057 282.575 171.76 283.095C192.622 289.468 212.797 288.293 226.027 286.168C237.906 284.27 249.83 289.445 256.688 299.524C262.042 307.366 267.572 318.032 271.023 331.681C271.488 333.534 271.93 335.433 272.306 337.376C274.12 346.664 274.961 357.195 274.231 369.036Z" fill="#5F5272"/>
<g opacity="0.3">
<path d="M272.284 337.353C267.639 341.263 258.546 346.574 241.003 351.206C228.327 354.551 227.465 361.669 227.465 361.669C227.465 361.669 222.465 348.223 230.717 345.805C240.893 342.822 254.52 341.647 260.626 337.308C263.214 335.455 267.263 333.376 270.979 331.659C271.466 333.512 271.908 335.41 272.284 337.353Z" fill="white"/>
</g>
<g opacity="0.3">
<path d="M190.941 371.906C190.941 371.906 177.756 399.973 121.963 420.221C96.1464 429.577 82.143 436.989 76.0814 444.74C75.8602 435.362 80.7271 425.803 90.5052 421.419C116.875 409.578 152.625 391.273 169.526 372.697L190.941 371.906Z" fill="#000072"/>
</g>
<g opacity="0.3">
<path d="M259.719 304.269C252.308 296.473 241.534 292.699 230.805 294.417C216.846 296.654 195.564 297.897 173.552 291.162C172.822 290.936 172.137 291.117 171.606 291.501C170.743 289.309 169.947 287.434 169.261 285.92C168.531 284.27 170.035 282.53 171.738 283.05C192.6 289.422 212.775 288.247 226.004 286.123C237.884 284.225 249.808 289.4 256.666 299.479C257.706 300.993 258.723 302.575 259.719 304.269Z" fill="white"/>
</g>
<path d="M184.525 507.066C177.092 507.066 169.902 504.377 164.128 499.315C160.766 496.355 157.558 493.824 154.638 491.813C142.249 483.225 131.1 480.762 118.18 477.915C109.929 476.084 100.571 474.028 90.0407 470.073C89.4877 469.87 88.9346 469.621 88.3816 469.35L88.2709 469.305C78.4929 464.762 72.4535 455.045 72.542 443.949C72.6083 432.583 78.9574 422.684 89.0895 418.12C139.55 395.454 170.035 373.917 174.924 357.511C183.021 330.325 171.429 299.433 166.075 287.411C165.146 285.355 165.478 283.005 166.938 281.287C168.398 279.57 170.632 278.914 172.778 279.57C193.131 285.807 212.864 284.586 225.828 282.485C238.659 280.406 251.821 286.123 259.365 297.083C268.944 311.004 279.917 334.822 277.749 369.24C275.47 405.781 258.546 426.549 240.605 448.514C230.584 460.808 220.231 473.508 212.532 489.372C208.262 498.208 200.365 504.422 190.874 506.388C188.773 506.863 186.627 507.066 184.525 507.066ZM168.73 493.824C174.482 498.863 182.047 500.874 189.481 499.315C196.803 497.778 202.909 493.01 206.205 486.186C214.258 469.553 224.898 456.514 235.185 443.904C252.352 422.865 268.568 403.001 270.692 368.788C272.705 336.472 262.484 314.235 253.569 301.264C247.574 292.541 237.11 287.999 226.934 289.648C213.882 291.773 194.325 293.016 173.796 287.411C179.813 301.806 189.879 332.156 181.694 359.635C174.659 383.296 128.998 408.109 91.9432 424.763C84.3995 428.153 79.6875 435.52 79.6211 444.017C79.5769 452.333 83.9128 459.339 91.2132 462.751L91.3238 462.796C91.6999 462.977 92.0981 463.158 92.4742 463.294C102.562 467.09 111.256 469.011 119.685 470.864C132.759 473.734 145.081 476.468 158.62 485.847C161.761 487.993 165.168 490.683 168.73 493.824Z" fill="#000072"/>
<path d="M190.144 372.562C106.721 385.081 74.7764 297.264 74.7764 297.264L157.248 278.869C157.248 278.869 170.035 300.45 196.67 307.953" fill="#5F5272"/>
<g opacity="0.3">
<path d="M196.67 307.953L196.007 314.574C165.788 307.931 147.979 287.185 143.842 281.852L157.248 278.869C157.226 278.869 170.035 300.45 196.67 307.953Z" fill="white"/>
</g>
<g opacity="0.3">
<path d="M190.144 372.562C106.699 385.081 74.7544 297.264 74.7544 297.264L93.9123 292.993C102.584 311.253 129.374 357.014 181.406 361.669C186.782 362.144 190.697 367.093 190.144 372.562Z" fill="#000072"/>
</g>
<path d="M190.322 373.759C188.839 374.46 187.335 375.002 185.786 375.499C185.012 375.748 184.238 375.974 183.464 376.177C182.689 376.426 181.915 376.539 181.119 376.674C179.548 376.923 177.955 377.149 176.362 377.307C175.566 377.42 174.77 377.443 173.973 377.443L171.584 377.488C165.168 377.669 158.775 376.539 152.537 375.07L147.869 373.872C146.32 373.398 144.816 372.855 143.289 372.381C142.537 372.132 141.763 371.906 141.011 371.612L138.776 370.709C137.294 370.076 135.768 369.579 134.33 368.833L129.972 366.754L125.746 364.404C124.309 363.658 123.003 362.709 121.632 361.873L119.596 360.585L117.628 359.183C107.119 351.749 98.0935 342.393 90.395 332.156C86.5457 327.026 83.0504 321.625 79.8648 316.066C78.2941 313.264 76.7676 310.439 75.3739 307.546C74.666 306.1 73.9802 304.631 73.3387 303.162C72.675 301.671 72.0556 300.225 71.4361 298.575L69.9761 294.688L74.0023 293.784L156.474 275.389L158.864 274.847L160.257 277.039C160.678 277.717 161.275 278.598 161.85 279.366C162.425 280.157 163.045 280.948 163.642 281.717C164.903 283.253 166.208 284.745 167.58 286.191C170.345 289.061 173.309 291.728 176.539 294.033C179.769 296.338 183.264 298.145 186.693 300.066C190.1 302.078 193.573 303.818 196.958 306.823L197.025 306.868C197.556 307.343 197.6 308.157 197.157 308.699C196.936 308.947 196.648 309.106 196.339 309.128C191.826 309.671 187.423 308.699 183.441 306.868C181.406 306.055 179.526 304.88 177.668 303.75C176.738 303.162 175.876 302.484 174.969 301.852L173.641 300.902L172.358 299.886C170.611 298.575 168.929 297.174 167.27 295.773L164.859 293.535C164.062 292.79 163.31 291.976 162.536 291.208C161.009 289.626 159.571 287.976 158.178 286.259C157.492 285.377 156.806 284.519 156.165 283.615C155.501 282.688 154.904 281.83 154.218 280.722L158.001 282.372L75.5288 300.812L78.095 296.021C78.5817 297.309 79.2011 298.778 79.7984 300.134C80.4178 301.535 81.0594 302.914 81.723 304.292C83.0504 307.049 84.5104 309.738 86.0148 312.405C89.0455 317.716 92.4081 322.868 96.0583 327.749C103.381 337.489 111.898 346.325 121.72 353.24C131.476 360.223 142.471 365.375 154.107 367.839C159.925 368.968 165.832 369.624 171.761 369.895C174.725 370.189 177.712 370.098 180.72 370.37C181.473 370.415 182.225 370.528 182.999 370.55C183.751 370.573 184.525 370.618 185.278 370.709C186.804 370.844 188.353 371.025 189.945 371.386L190.034 371.409C190.698 371.545 191.118 372.223 190.985 372.901C190.919 373.285 190.653 373.601 190.322 373.759Z" fill="#000072"/>
<path d="M224.921 466.254C224.567 466.254 224.213 466.209 223.859 466.073C222 465.463 220.961 463.429 221.558 461.531C237.066 411.498 229.433 382.844 224.898 365.714C222.598 357.036 221.071 351.296 223.947 346.777C225.805 343.862 229.035 342.189 234.455 341.353C261.887 337.105 267.152 327.613 267.196 327.523C268.015 325.715 270.094 324.969 271.864 325.806C273.634 326.642 274.386 328.834 273.568 330.642C272.97 331.952 266.864 343.636 235.495 348.494C232.42 348.969 230.473 349.737 229.854 350.709C228.703 352.494 230.097 357.737 231.712 363.793C236.159 380.516 244.432 411.634 228.305 463.678C227.819 465.282 226.425 466.254 224.921 466.254Z" fill="#000072"/>
<path d="M185.167 410.73C177.446 415.837 161.363 424.967 135.591 432.65C132.206 433.667 130.348 437.373 131.498 440.786L134.308 449.079C135.348 452.13 138.467 453.915 141.542 453.169C149.749 451.203 167.403 445.689 196.051 430.639C199.148 429.012 200.343 425.125 198.684 421.984L193.927 413.035C192.246 409.781 188.198 408.719 185.167 410.73Z" fill="white"/>
<path d="M140.148 453.892C137.338 453.892 134.772 452.085 133.799 449.26L130.989 440.966C130.37 439.158 130.525 437.237 131.365 435.543C132.206 433.87 133.666 432.65 135.436 432.108C161.43 424.379 177.557 415.114 184.857 410.255C186.45 409.216 188.33 408.877 190.167 409.374C191.981 409.848 193.551 411.091 194.436 412.764L199.192 421.712C200.055 423.362 200.254 425.238 199.701 427.023C199.148 428.808 197.954 430.277 196.317 431.136C167.447 446.299 149.683 451.791 141.674 453.712C141.188 453.825 140.657 453.892 140.148 453.892ZM185.477 411.204C178.132 416.063 161.894 425.396 135.768 433.192C134.286 433.622 133.091 434.639 132.361 436.062C131.653 437.486 131.52 439.091 132.051 440.605L134.861 448.898C135.812 451.7 138.644 453.305 141.453 452.627C149.417 450.706 167.071 445.237 195.83 430.142C197.201 429.419 198.197 428.198 198.662 426.707C199.104 425.215 198.971 423.633 198.241 422.277L193.485 413.329C192.733 411.927 191.428 410.888 189.923 410.481C188.375 410.052 186.804 410.323 185.477 411.204Z" fill="#000072"/>
<g opacity="0.3">
<path d="M196.095 430.639C167.425 445.689 149.793 451.203 141.586 453.169C138.489 453.915 135.37 452.13 134.33 449.079L131.52 440.786C130.37 437.373 132.228 433.667 135.613 432.65C136.631 432.356 137.626 432.04 138.599 431.746L141.099 439.159C142.139 442.209 145.258 443.995 148.333 443.249C156.165 441.373 172.601 436.243 199.015 422.707C200.21 425.645 198.971 429.125 196.095 430.639Z" fill="#000072"/>
</g>
<path d="M140.148 456.944C136.099 456.944 132.383 454.345 130.989 450.254L128.18 441.961C127.317 439.385 127.516 436.537 128.733 434.142C129.972 431.701 132.051 429.939 134.617 429.193C160.235 421.555 176.097 412.47 183.242 407.725C185.499 406.233 188.308 405.758 190.919 406.436C193.551 407.114 195.785 408.9 197.069 411.34L201.825 420.289C203.086 422.662 203.351 425.374 202.555 427.95C201.781 430.526 200.055 432.628 197.688 433.871C168.531 449.17 150.523 454.752 142.382 456.695C141.63 456.853 140.878 456.944 140.148 456.944ZM187.091 413.758C179.592 418.73 163.089 428.221 136.586 436.108C135.9 436.311 135.347 436.786 135.015 437.441C134.684 438.119 134.617 438.865 134.861 439.588L137.67 447.882C138.113 449.192 139.44 449.961 140.745 449.644C148.576 447.769 165.965 442.368 194.458 427.408C195.1 427.069 195.586 426.481 195.808 425.781C196.029 425.08 195.94 424.334 195.608 423.702L190.852 414.753C190.498 414.075 189.901 413.6 189.171 413.419C188.463 413.216 187.711 413.352 187.091 413.758Z" fill="#000072"/>
<g opacity="0.3">
<path d="M437.826 477.553C437.251 477.711 436.676 477.869 436.1 478.005C426.875 480.423 417.827 482.547 409.001 484.4C408.072 489.372 407.054 494.095 405.948 498.592C404.001 506.456 401.789 513.597 399.444 520.06L388.073 522.026C373.981 524.467 360.774 518.004 352.898 506.885C350.863 507.111 348.85 507.315 346.859 507.495C336.528 508.49 326.617 509.123 317.171 509.484C316.972 504.467 316.773 499.925 316.596 495.948C326.219 495.586 336.307 494.953 346.859 493.937C345.775 489.824 345.288 485.417 345.554 480.852C345.753 477.485 345.864 473.892 345.952 470.095C346.284 451.565 345.023 427.814 340.952 397.577C333.475 342.099 350.598 324.721 360.509 309.58C361.526 308.021 362.61 306.552 363.76 305.196L414.487 300.699L437.826 477.553Z" fill="#000072"/>
</g>
<path d="M454.882 501.485L398.67 511.202C375.53 515.202 354.735 495.202 356.15 470.05C357.257 450.209 356.46 423.204 351.549 386.776C344.072 331.297 358.894 313.535 368.782 298.417C375.795 287.683 387.852 282.101 399.908 284.157C413.58 286.485 434.618 287.863 456.409 280.858C458.156 280.293 459.727 282.191 458.975 283.976C455.9 291.253 453.245 305.626 451.542 322.755C450.303 335.274 449.595 349.263 449.639 363.025C449.728 403.951 462.515 441.351 473.487 465.915C474.018 467.09 474.461 468.31 474.77 469.508C478.73 483.745 469.726 498.909 454.882 501.485Z" fill="#5F5272"/>
<g opacity="0.3">
<path d="M353.828 326.8C353.828 326.8 355.841 336.201 374.932 342.008C394.024 347.816 398.072 343.545 396.17 353.421C394.267 363.296 389.887 368.833 389.887 368.833C389.887 368.833 391.723 354.867 386.989 353.014C382.255 351.138 360.155 350.279 351.792 338.122C348.784 333.805 353.828 326.8 353.828 326.8Z" fill="white"/>
</g>
<g opacity="0.3">
<path d="M456.232 292.518C433.955 298.755 412.761 297.264 398.714 294.868C385.551 292.609 372.388 298.733 364.734 310.439C361.017 316.111 356.681 322.122 352.898 330.031C356.858 315.229 363.495 306.439 368.76 298.394C375.773 287.66 387.83 282.078 399.886 284.134C413.558 286.462 434.596 287.84 456.387 280.835C458.134 280.27 459.705 282.168 458.953 283.953C457.979 286.191 457.072 289.083 456.232 292.518Z" fill="white"/>
</g>
<path d="M392.785 515.315C383.25 515.315 373.959 511.699 366.592 504.965C356.947 496.151 351.858 483.338 352.611 469.847C353.872 447.045 352.345 419.272 348.031 387.273C340.819 333.873 354.181 313.851 363.937 299.23C364.579 298.258 365.22 297.332 365.818 296.383C373.583 284.496 387.188 278.282 400.461 280.564C413.867 282.846 434.264 284.157 455.302 277.4C457.426 276.722 459.661 277.355 461.165 279.05C462.691 280.767 463.09 283.276 462.183 285.423C457.05 297.535 453.09 331.614 453.134 363.025C453.201 403.453 465.965 440.492 476.673 464.424C480.345 472.649 480.079 481.982 475.92 490.005C471.739 498.072 464.284 503.564 455.479 505.078L399.267 514.795C397.099 515.134 394.931 515.315 392.785 515.315ZM394.997 287.344C385.905 287.344 377.078 292.18 371.702 300.405C371.083 301.354 370.441 302.326 369.778 303.298C360.154 317.716 348.208 335.636 355.022 386.279C359.402 418.73 360.951 447 359.668 470.254C359.048 481.553 363.274 492.242 371.304 499.564C378.715 506.343 388.471 509.281 398.072 507.631L454.285 497.914C460.899 496.762 466.496 492.649 469.638 486.592C472.757 480.581 472.978 473.576 470.213 467.407C459.24 442.82 446.122 404.742 446.055 363.025C445.989 332.224 449.639 299.818 454.683 285.151C433.291 291.411 412.872 290.033 399.289 287.728C397.851 287.456 396.413 287.344 394.997 287.344Z" fill="#000072"/>
<path d="M430.68 410.255C433.313 419.498 441.1 443.995 453.378 459.994C455.059 462.186 454.019 465.418 451.365 466.118L435.392 470.344C434.242 470.638 433.025 470.389 432.118 469.644C427.539 465.892 414.155 452.13 408.956 416.154C408.691 414.233 409.819 412.402 411.633 411.86L425.968 407.634C428.003 407.024 430.105 408.222 430.68 410.255Z" fill="white"/>
<path d="M434.463 471.045C433.49 471.045 432.538 470.706 431.786 470.096C426.477 465.757 413.557 451.814 408.425 416.244C408.115 414.052 409.443 411.928 411.5 411.317L425.835 407.092C428.136 406.414 430.525 407.77 431.189 410.12C433.932 419.747 441.631 443.836 453.798 459.655C454.705 460.853 454.97 462.412 454.506 463.813C454.041 465.214 452.913 466.299 451.497 466.661L435.525 470.887C435.193 471 434.817 471.045 434.463 471.045ZM427.052 408.041C426.765 408.041 426.455 408.086 426.167 408.176L411.832 412.402C410.283 412.854 409.31 414.436 409.531 416.063C414.73 452.22 428.424 465.87 432.472 469.214C433.246 469.847 434.286 470.073 435.259 469.802L451.232 465.576C452.294 465.282 453.112 464.514 453.466 463.452C453.82 462.39 453.621 461.237 452.935 460.333C440.657 444.356 432.915 420.086 430.149 410.414C429.751 408.967 428.446 408.041 427.052 408.041Z" fill="#000072"/>
<g opacity="0.3">
<path d="M474.726 469.486C464.948 472.514 452.648 473.101 437.693 470.48L425.283 424.854C425.283 424.854 453.821 415.815 441.255 390.505L446.786 317.105C446.786 317.105 448.555 319.139 451.498 322.732C450.259 335.252 449.551 349.24 449.595 363.003C449.684 403.928 462.47 441.328 473.443 465.892C473.974 467.068 474.394 468.288 474.726 469.486Z" fill="#000072"/>
</g>
<path d="M438.092 381.059C450.635 406.369 425.283 414.007 425.283 414.007L445.901 462.774C491.008 457.757 512.179 434.91 500.322 396.222C486.694 351.681 446.786 306.258 446.786 306.258L438.092 381.059Z" fill="#5F5272"/>
<g opacity="0.3">
<path d="M445.901 462.774L437.693 443.362C481.407 435.543 501.184 410.459 488.796 369.918C488.353 368.471 487.889 367.025 487.38 365.556C492.557 375.432 497.158 385.849 500.322 396.199C512.157 434.933 491.008 457.78 445.901 462.774Z" fill="#000072"/>
</g>
<path d="M439.131 380.516C441.631 383.205 443.401 386.55 444.396 390.346C445.392 394.12 445.193 398.482 443.732 402.436C442.25 406.391 439.573 409.713 436.521 412.131C434.994 413.351 433.357 414.391 431.676 415.272C430.835 415.702 429.972 416.131 429.11 416.493L427.782 417.035C427.296 417.216 426.919 417.351 426.3 417.555L428.601 412.56C430.26 416.651 431.963 420.718 433.689 424.786L438.843 436.989L449.152 461.373L445.524 459.203C453.798 458.232 462.028 456.695 469.748 453.915C477.447 451.181 484.725 447.204 490.211 441.531C492.933 438.684 495.167 435.43 496.804 431.859C498.441 428.311 499.392 424.402 499.79 420.425C500.587 412.425 499.127 404.131 496.561 396.154L494.503 390.143C493.817 388.132 492.932 386.188 492.158 384.2L490.964 381.239L489.636 378.324C488.729 376.381 487.867 374.437 486.937 372.516C483.132 364.855 478.907 357.398 474.416 350.099C469.859 342.845 465.081 335.704 459.992 328.811C458.687 327.116 457.36 325.421 456.01 323.772C454.661 322.1 453.4 320.382 452.139 318.642C449.683 315.117 447.383 311.478 445.945 307.026L445.923 306.981C445.701 306.303 446.055 305.558 446.741 305.332C447.073 305.219 447.405 305.264 447.692 305.399C451.896 307.501 455.059 310.574 457.913 313.874C460.811 317.151 463.222 320.834 465.722 324.427C470.832 331.523 475.766 338.754 480.411 346.189C485.013 353.669 489.327 361.33 493.264 369.24C494.238 371.228 495.123 373.239 496.074 375.251C496.538 376.268 497.003 377.262 497.468 378.256L498.729 381.352C499.547 383.431 500.454 385.442 501.184 387.544L503.352 393.872C506.095 402.414 507.821 411.679 506.892 421.103C506.405 425.78 505.277 430.481 503.286 434.82C501.295 439.159 498.552 443.136 495.322 446.526C488.751 453.305 480.5 457.667 472.138 460.672C463.731 463.678 455.015 465.305 446.343 466.322L443.755 466.615L442.715 464.152L432.406 439.769L427.251 427.566C425.548 423.498 423.8 419.43 422.03 415.408L420.416 411.724L424.331 410.414C424.53 410.346 424.928 410.188 425.238 410.075C425.57 409.939 425.924 409.781 426.256 409.623C426.919 409.306 427.583 408.945 428.247 408.583C429.53 407.837 430.747 406.956 431.853 406.029C434.065 404.154 435.813 401.962 436.897 399.499C437.45 398.278 437.848 396.968 438.025 395.567C438.246 394.188 438.335 392.742 438.29 391.228C438.268 388.199 437.671 384.99 437.118 381.533V381.51C437.007 380.832 437.472 380.177 438.136 380.064C438.467 380.064 438.866 380.222 439.131 380.516Z" fill="#000072"/>
<path d="M430.68 410.255C433.313 419.498 441.1 443.995 453.378 459.994C455.059 462.186 454.019 465.418 451.365 466.118L435.392 470.344C434.242 470.638 433.025 470.389 432.118 469.644C427.539 465.892 414.155 452.13 408.956 416.154C408.691 414.233 409.819 412.402 411.633 411.86L425.968 407.634C428.003 407.024 430.105 408.222 430.68 410.255Z" fill="white"/>
<path d="M434.463 471.045C433.49 471.045 432.538 470.706 431.786 470.096C426.477 465.757 413.557 451.814 408.425 416.244C408.115 414.052 409.443 411.928 411.5 411.317L425.835 407.092C428.136 406.414 430.525 407.77 431.189 410.12C433.932 419.747 441.631 443.836 453.798 459.655C454.705 460.853 454.97 462.412 454.506 463.813C454.041 465.214 452.913 466.299 451.497 466.661L435.525 470.887C435.193 471 434.817 471.045 434.463 471.045ZM427.052 408.041C426.765 408.041 426.455 408.086 426.167 408.176L411.832 412.402C410.283 412.854 409.31 414.436 409.531 416.063C414.73 452.22 428.424 465.87 432.472 469.214C433.246 469.847 434.286 470.073 435.259 469.802L451.232 465.576C452.294 465.282 453.112 464.514 453.466 463.452C453.82 462.39 453.621 461.237 452.935 460.333C440.657 444.356 432.915 420.086 430.149 410.414C429.751 408.967 428.446 408.041 427.052 408.041Z" fill="#000072"/>
<g opacity="0.3">
<path d="M451.387 466.118L435.415 470.344C434.264 470.638 433.047 470.39 432.14 469.644C427.561 465.892 414.177 452.13 409 416.131C408.735 414.21 409.863 412.38 411.699 411.837L412.252 411.679C418.159 441.464 429.773 453.35 433.977 456.785C434.906 457.554 436.1 457.78 437.251 457.486L449.418 454.254C450.701 456.243 452.028 458.164 453.4 459.972C455.081 462.186 454.019 465.418 451.387 466.118Z" fill="#000072"/>
</g>
<path d="M434.463 474.095C432.826 474.095 431.211 473.53 429.928 472.491C424.331 467.926 410.77 453.328 405.483 416.696C404.952 413.012 407.187 409.442 410.682 408.402L425.017 404.176C428.889 403.046 432.937 405.329 434.065 409.261C436.764 418.707 444.33 442.367 456.143 457.779C457.67 459.768 458.112 462.412 457.338 464.808C456.541 467.203 454.639 469.011 452.25 469.644L436.277 473.869C435.702 474.005 435.083 474.095 434.463 474.095ZM427.052 411.091C427.03 411.091 427.008 411.091 426.986 411.091L412.651 415.317C412.54 415.363 412.474 415.476 412.474 415.611C417.518 450.661 430.481 463.655 434.331 466.819C434.375 466.841 434.441 466.864 434.508 466.841L450.48 462.615C450.524 462.593 450.591 462.593 450.635 462.48C450.679 462.344 450.613 462.277 450.591 462.231C438.003 445.825 430.083 421.125 427.274 411.272C427.251 411.159 427.163 411.091 427.052 411.091Z" fill="#000072"/>
<path d="M356.305 470.299C356.15 470.299 356.018 470.299 355.863 470.276C353.916 470.028 352.544 468.22 352.788 466.231C357.809 425.69 373.251 395.453 383.471 375.431C389.113 364.403 394.444 353.963 392.763 350.618C392.143 349.376 389.909 348.788 388.117 348.517C356.77 343.658 350.62 332.156 350.022 330.868C349.182 329.06 349.934 326.913 351.704 326.054C353.451 325.218 355.509 325.941 356.371 327.681C356.571 328.02 362.123 337.172 389.179 341.353C394.223 342.144 397.453 344.088 399.068 347.342C402.386 354.008 397.608 363.319 389.732 378.753C379.733 398.301 364.645 427.859 359.8 467.112C359.579 468.965 358.053 470.299 356.305 470.299Z" fill="#000072"/>
<path d="M135.524 260.384C137.759 265.446 142.891 281.513 137.117 288.021C131.321 294.53 101.257 308.699 87.2091 298.484C77.6744 291.524 71.9668 278.756 76.1701 267.751C82.9837 249.988 125.967 238.667 135.524 260.384Z" fill="white"/>
<path d="M100.217 302.643C95.1953 302.643 90.5275 301.58 86.8773 298.936C77.8514 292.36 71.082 279.457 75.6613 267.525C79.6433 257.107 96.036 248.316 112.163 247.932C123.999 247.616 132.427 251.977 136.011 260.158C138.29 265.355 143.466 281.694 137.515 288.406C133.047 293.422 115.039 302.643 100.217 302.643ZM113.203 249.039C112.849 249.039 112.517 249.039 112.185 249.062C96.7218 249.446 80.4619 258.101 76.6789 267.954C72.3208 279.344 78.8248 291.705 87.5189 298.032C101.434 308.179 131.476 293.513 136.697 287.66C142.272 281.4 137.228 265.672 135.016 260.632C130.657 250.689 119.884 249.039 113.203 249.039Z" fill="#000072"/>
<g opacity="0.3">
<path d="M137.117 287.999C131.321 294.507 101.235 308.699 87.2092 298.462C78.1833 291.886 72.5642 280.089 75.5729 269.491C77.2763 276.089 81.568 282.214 87.2092 286.304C101.235 296.518 131.321 282.349 137.117 275.841C138.024 274.824 138.666 273.581 139.064 272.18C140.17 278.078 140.259 284.451 137.117 287.999Z" fill="#000072"/>
</g>
<path d="M100.151 305.625C94.554 305.625 89.311 304.428 85.152 301.399C75.1748 294.123 67.7638 279.773 72.8741 266.395C77.7852 253.559 97.0538 245.22 112.097 244.859C124.972 244.542 134.684 249.649 138.754 258.892C138.843 259.118 148.267 280.858 139.728 290.439C134.839 295.931 116.035 305.625 100.151 305.625ZM113.203 252.09C112.871 252.09 112.562 252.09 112.252 252.09C98.1156 252.452 82.7849 260.361 79.4665 269.039C75.6615 278.959 81.5018 289.874 89.2446 295.524C101.124 304.179 128.954 291.75 134.463 285.581C138.356 281.219 134.949 267.977 132.273 261.875C128.6 253.491 119.132 252.09 113.203 252.09Z" fill="#000072"/>
<path d="M294.738 243.661C297.99 241.469 301.442 240 305.07 238.825C308.698 237.695 312.481 236.949 316.33 236.723C320.179 236.497 324.161 236.814 327.988 237.876C329.913 238.418 331.771 239.186 333.541 240.113C335.289 241.107 336.926 242.26 338.342 243.683L338.165 243.593L338.297 243.706C339.027 244.316 339.116 245.423 338.519 246.169C338.076 246.712 337.412 246.915 336.793 246.757L336.616 246.712L336.439 246.621C334.78 246.034 333.209 245.491 331.594 245.107C329.979 244.7 328.342 244.452 326.705 244.226C323.409 243.842 320.069 243.796 316.684 243.977C313.299 244.158 309.892 244.565 306.441 245.085C303.012 245.582 299.495 246.26 296.022 246.847L295.911 246.87C294.982 247.028 294.119 246.395 293.964 245.446C293.876 244.7 294.185 244.022 294.738 243.661Z" fill="#000072"/>
<path d="M474.15 161.81C474.15 163.279 473.553 164.589 472.624 165.561C472.071 166.126 471.363 166.578 470.611 166.827C470.08 167.007 469.527 167.12 468.952 167.12C468.421 167.12 467.934 167.346 467.58 167.708C467.226 168.069 467.005 168.567 467.005 169.109V198.509C467.005 223.571 447.117 243.887 422.583 243.887H384.599C382.431 243.887 380.307 243.729 378.228 243.412C369.733 242.169 362.012 238.486 355.796 233.04C346.239 224.723 340.178 212.34 340.178 198.509V197.651C340.178 194.148 339.492 190.803 338.275 187.73C330.178 167.482 301.486 167.482 293.389 187.73C292.172 190.781 291.486 194.148 291.486 197.651V198.509C291.486 223.571 271.598 243.887 247.065 243.887H209.081C207.576 243.887 206.094 243.796 204.634 243.661C201.515 243.344 198.506 242.712 195.63 241.762C187.622 239.164 180.587 234.305 175.256 227.932C168.641 220 164.659 209.741 164.659 198.509V169.109C164.659 168.567 164.46 168.069 164.106 167.708C163.752 167.346 163.265 167.12 162.734 167.12C162.137 167.12 161.584 167.03 161.075 166.827C160.301 166.555 159.637 166.126 159.062 165.561C158.133 164.589 157.536 163.279 157.536 161.81C157.536 159.03 159.615 156.725 162.314 156.522C172.247 155.686 196.205 153.81 220.474 152.432C230.561 151.844 240.716 151.369 249.941 151.098C253.524 150.985 256.975 150.917 260.227 150.872C265.338 150.804 269.961 150.827 273.899 150.963C276.664 151.053 279.363 151.189 281.996 151.324C284.872 151.46 287.659 151.641 290.314 151.821C307.083 152.929 323.896 152.974 340.686 151.844C345.885 151.505 351.681 151.166 357.831 150.94C369.158 150.511 386.48 151.098 404.332 152.025C413.668 152.522 423.136 153.109 431.963 153.697H431.985C435.348 153.923 438.578 154.149 441.719 154.375C449.926 154.963 457.227 155.527 462.802 155.957C465.39 156.16 467.602 156.341 469.394 156.499C472.049 156.748 474.15 159.03 474.15 161.81Z" fill="#000072"/>
<path d="M378.228 243.435L431.941 153.72C423.092 153.132 413.646 152.545 404.31 152.047L355.796 233.062L378.228 243.435Z" fill="url(#paint0_linear_237_3934)"/>
<path d="M462.758 155.979L410.129 243.887H388.095L441.675 154.397C449.882 154.985 457.183 155.55 462.758 155.979Z" fill="url(#paint1_linear_237_3934)"/>
<path d="M249.919 151.076L195.631 241.763C187.622 239.164 180.587 234.305 175.256 227.932L220.474 152.432C230.562 151.844 240.694 151.369 249.919 151.076Z" fill="url(#paint2_linear_237_3934)"/>
<path d="M281.952 151.324L226.535 243.91H209.081C207.577 243.91 206.094 243.819 204.634 243.684L260.206 150.872C265.316 150.805 269.961 150.827 273.877 150.963C276.62 151.053 279.341 151.166 281.952 151.324Z" fill="url(#paint3_linear_237_3934)"/>
<path d="M378.449 244.135L355 233.288L404 151.459H404.31C412.628 151.889 421.654 152.454 431.985 153.132L432.892 153.2L378.449 244.135ZM356.57 232.813L378.007 242.711L430.99 154.216C421.167 153.561 412.518 153.041 404.598 152.612L356.57 232.813Z" fill="#000072"/>
<path d="M410.438 244.452H387.099L441.365 153.81L441.697 153.833C450.303 154.443 457.868 155.03 462.78 155.415L463.687 155.482L410.438 244.452ZM389.068 243.322H409.819L461.806 156.477C456.961 156.092 449.927 155.55 441.962 154.985L389.068 243.322Z" fill="#000072"/>
<path d="M195.874 242.44L195.453 242.305C187.445 239.706 180.322 234.87 174.835 228.294L174.57 227.977L220.142 151.866L220.429 151.844C231.955 151.188 241.578 150.759 249.896 150.51L250.914 150.488L250.383 151.369L195.874 242.44ZM175.941 227.887C181.162 234.034 187.865 238.576 195.387 241.107L248.923 151.685C240.915 151.934 231.712 152.363 220.783 152.974L175.941 227.887Z" fill="#000072"/>
<path d="M226.845 244.452H209.08C207.598 244.452 206.138 244.384 204.568 244.226L203.683 244.135L259.873 150.285H260.183C265.47 150.217 270.072 150.239 273.877 150.375C276.487 150.465 279.23 150.601 281.974 150.737L282.903 150.782L226.845 244.452ZM205.563 243.186C206.758 243.276 207.908 243.322 209.08 243.322H226.225L281 151.821C278.567 151.686 276.155 151.595 273.833 151.505C270.116 151.369 265.625 151.347 260.493 151.392L205.563 243.186Z" fill="#000072"/>
<path d="M422.583 247.503H384.599C358.163 247.503 336.638 225.514 336.638 198.509V197.651C336.638 194.69 336.085 191.82 335.001 189.109C331.196 179.572 322.59 176.16 315.843 176.16C309.074 176.16 300.49 179.55 296.685 189.109C295.601 191.82 295.048 194.713 295.048 197.673V198.532C295.048 225.537 273.523 247.525 247.087 247.525H209.081C182.645 247.525 161.12 225.537 161.12 198.532V170.601C159.394 170.284 157.801 169.426 156.54 168.137C154.881 166.443 153.974 164.205 153.974 161.832C153.974 157.2 157.514 153.29 162.005 152.929C181.14 151.347 245.715 146.307 273.988 147.347C279.297 147.55 284.85 147.844 290.513 148.206C307.26 149.313 324.051 149.336 340.421 148.251C346.239 147.867 352.035 147.573 357.676 147.347C385.949 146.307 450.524 151.347 469.66 152.929C474.173 153.29 477.69 157.222 477.69 161.832C477.69 164.205 476.783 166.465 475.124 168.137C473.885 169.403 472.27 170.262 470.545 170.601V198.532C470.545 225.537 449.02 247.503 422.583 247.503ZM315.821 168.928C327.391 168.928 337.235 175.617 341.549 186.374C342.987 189.967 343.717 193.764 343.717 197.651V198.509C343.717 221.537 362.057 240.271 384.599 240.271H422.583C445.126 240.271 463.465 221.537 463.465 198.509V169.109C463.465 167.64 464.063 166.194 465.08 165.154C466.098 164.115 467.514 163.527 468.952 163.527C469.549 163.527 469.947 163.211 470.124 163.03C470.346 162.804 470.633 162.397 470.633 161.832C470.633 160.951 469.969 160.205 469.107 160.138C450.081 158.578 385.838 153.562 357.942 154.578C352.367 154.782 346.637 155.076 340.886 155.46C324.228 156.567 307.127 156.567 290.071 155.415C284.474 155.053 278.987 154.759 273.744 154.556C245.87 153.516 181.627 158.556 162.58 160.115C161.717 160.183 161.053 160.929 161.053 161.81C161.053 162.397 161.319 162.782 161.54 163.008C161.761 163.234 162.159 163.505 162.712 163.505C164.173 163.505 165.544 164.092 166.584 165.154C167.601 166.194 168.199 167.64 168.199 169.109V198.509C168.199 221.537 186.538 240.271 209.081 240.271H247.065C269.608 240.271 287.947 221.537 287.947 198.509V197.651C287.947 193.741 288.677 189.945 290.115 186.374C294.407 175.617 304.251 168.928 315.821 168.928Z" fill="#000072"/>
<path d="M205.011 572.94C170.013 579.991 164.925 607.515 168.089 617.142C172.955 631.989 204.524 636.125 242.22 631.673C293.013 625.684 295.004 607.47 295.004 607.47C295.867 599.99 293.301 580.962 291.708 570.341C291.089 566.274 287.306 563.562 283.346 564.33C276.023 565.776 264.63 567.878 256.733 568.556C255.405 568.669 254.476 567.268 255.074 566.07C256.755 562.703 258.856 556.805 256.335 551.72C251.578 542.206 224.501 545.98 222.31 551.72C220.142 557.46 222.023 569.505 205.011 572.94Z" fill="white"/>
<path d="M215.12 637.029C186.959 637.029 168.73 630.476 164.748 618.295C162.867 612.533 163.443 602.386 168.973 592.669C173.707 584.353 183.685 573.551 204.347 569.392C215.563 567.133 216.713 561.076 217.841 555.223C218.173 553.528 218.483 551.901 219.036 550.433C221.691 543.45 236.933 542.478 238.659 542.388C243.636 542.116 255.626 542.365 259.498 550.094C261.555 554.184 261.555 559.268 259.586 564.647C267.307 563.743 277.107 561.912 282.704 560.805C285.558 560.24 288.456 560.873 290.845 562.59C293.234 564.308 294.783 566.884 295.225 569.822C297.216 583.064 299.406 600.442 298.544 607.923C298.3 610.047 294.717 629.142 242.641 635.289C232.663 636.464 223.438 637.029 215.12 637.029ZM205.696 576.488C187.622 580.127 179.061 589.279 175.057 596.307C170.367 604.555 170.323 612.6 171.429 616.013C175.278 627.764 203.55 632.622 241.8 628.103C287.239 622.747 291.332 607.719 291.487 606.996C292.062 601.753 290.867 588.624 288.213 570.907C288.058 569.912 287.549 569.076 286.752 568.489C285.956 567.924 284.983 567.698 284.031 567.901C276.067 569.483 264.94 571.494 257.02 572.172C255.14 572.33 253.281 571.426 252.242 569.822C251.18 568.217 251.069 566.161 251.932 564.421C253.193 561.89 255.051 557.076 253.193 553.37C252.242 551.472 248.879 550.094 244.211 549.664C235.606 548.896 226.978 551.472 225.584 553.167C225.275 554.048 225.031 555.291 224.788 556.602C223.571 562.839 221.558 573.279 205.696 576.488Z" fill="#000072"/>
<path d="M168.089 604.487C172.778 618.77 202.179 623.154 237.995 619.493C239.411 619.357 240.805 619.199 242.243 619.041C293.035 613.052 295.049 594.838 295.049 594.838C295.911 587.358 293.345 568.33 291.752 557.709C291.155 553.641 287.35 550.93 283.412 551.698C276.09 553.167 264.697 555.246 256.799 555.924C255.472 556.037 254.543 554.658 255.14 553.438C256.821 550.071 258.923 544.173 256.379 539.088C251.622 529.574 219.434 533.551 217.244 539.269C215.054 545.009 222.045 556.873 205.033 560.285C188.065 563.698 178.132 571.946 172.756 580.601C167.005 589.821 166.452 599.516 168.089 604.487Z" fill="#5F5272"/>
<path d="M168.089 604.487C172.778 618.769 202.179 623.154 237.995 619.493C235.252 604.397 224.81 567.991 180.322 578.477C177.645 579.109 175.123 579.833 172.756 580.601C167.005 589.821 166.452 599.516 168.089 604.487Z" fill="white"/>
<g opacity="0.5">
<path d="M257.507 543.517C249.322 537.642 226.226 538.41 224.279 543.517C222.089 549.257 225.607 564.059 208.595 567.471C175.854 574.07 169.305 598.589 171.164 609.617C169.726 608.08 168.708 606.386 168.089 604.51C164.925 594.86 170.013 567.358 205.011 560.285C222.023 556.85 215.032 545.009 217.222 539.269C219.412 533.529 251.578 529.574 256.357 539.088C257.065 540.512 257.396 542.026 257.507 543.517Z" fill="white"/>
</g>
<g opacity="0.3">
<path d="M295.004 594.838C295.004 594.838 293.013 613.03 242.22 619.041C204.524 623.493 172.933 619.335 168.088 604.51C167.557 602.906 167.27 600.804 167.314 598.386C180.366 605.007 204.48 606.295 231.801 603.064C282.593 597.075 284.584 578.861 284.584 578.861C285.226 573.415 284.031 561.845 282.726 551.834C282.947 551.788 283.169 551.743 283.39 551.698C287.328 550.907 291.133 553.641 291.73 557.686C293.323 568.33 295.867 587.358 295.004 594.838Z" fill="#000072"/>
</g>
<path d="M241.822 570.183C241.446 570.183 241.07 570.07 240.738 569.799C228.593 560.24 214.368 559.043 193.153 565.777C192.224 566.071 191.229 565.551 190.941 564.579C190.653 563.63 191.162 562.613 192.113 562.319C214.545 555.201 229.743 556.579 242.906 566.929C243.681 567.539 243.835 568.669 243.238 569.46C242.862 569.958 242.353 570.183 241.822 570.183Z" fill="#000072"/>
<path d="M234.809 576.375C234.433 576.375 234.057 576.262 233.725 575.991C221.779 566.522 206.36 565.008 183.707 571.087C182.778 571.336 181.782 570.771 181.539 569.799C181.295 568.827 181.848 567.856 182.8 567.585C206.625 561.167 222.996 562.884 235.893 573.121C236.668 573.731 236.8 574.861 236.203 575.652C235.871 576.149 235.34 576.375 234.809 576.375Z" fill="#000072"/>
<path d="M225.451 583.042C225.12 583.042 224.788 582.951 224.5 582.748C207.377 571.539 196.051 571.923 177.158 577.008C176.207 577.257 175.234 576.692 174.99 575.72C174.747 574.748 175.3 573.776 176.251 573.505C195.785 568.24 208.262 567.833 226.403 579.697C227.221 580.24 227.465 581.347 226.934 582.206C226.602 582.748 226.027 583.042 225.451 583.042Z" fill="#000072"/>
<path d="M215.12 624.374C186.959 624.374 168.73 617.821 164.748 605.64C162.867 599.877 163.443 589.731 168.973 580.014C173.707 571.697 183.685 560.895 204.347 556.737C213.705 554.862 213.528 550.817 213.284 545.212C213.174 542.772 213.063 540.241 213.926 537.958C216.514 531.179 232.796 529.981 236.026 529.823C243.172 529.461 255.737 529.958 259.498 537.439C261.555 541.529 261.555 546.613 259.586 551.992C266.82 551.156 275.935 549.483 282.704 548.15C285.558 547.585 288.456 548.218 290.845 549.935C293.234 551.653 294.783 554.229 295.225 557.167C297.216 570.409 299.406 587.787 298.544 595.267C298.3 597.392 294.717 616.487 242.641 622.634C232.663 623.809 223.438 624.374 215.12 624.374ZM220.452 540.76C220.209 541.664 220.275 543.291 220.341 544.873C220.607 550.794 221.027 560.715 205.696 563.811C187.622 567.449 179.061 576.601 175.057 583.629C170.367 591.878 170.323 599.923 171.429 603.335C175.278 615.086 203.55 619.945 241.8 615.425C287.726 610.002 291.465 594.567 291.487 594.409C292.084 589.234 290.889 576.059 288.213 558.229C288.058 557.235 287.549 556.398 286.752 555.811C285.956 555.246 284.983 555.02 284.031 555.223C276.067 556.805 264.918 558.816 257.02 559.494C255.14 559.653 253.281 558.771 252.242 557.144C251.18 555.54 251.069 553.483 251.932 551.743C253.193 549.212 255.051 544.399 253.193 540.693C252.573 539.472 250.052 537.913 244.764 537.258C234.61 535.992 222.487 538.794 220.452 540.76Z" fill="#000072"/>
<path d="M97.7396 279.343C98.3369 281.061 99.0448 282.801 99.797 284.496C100.549 286.191 101.368 287.84 102.253 289.422C103.137 291.004 104.089 292.541 105.106 293.964C106.146 295.388 107.252 296.676 108.403 297.806C109.818 299.185 109.885 301.49 108.535 302.936C107.186 304.382 104.929 304.45 103.514 303.072C103.359 302.913 103.204 302.733 103.071 302.552L103.049 302.529C100.571 298.959 99.0006 295.207 97.7617 291.433C97.1644 289.535 96.6335 287.66 96.191 285.739C95.7486 283.818 95.3725 281.942 95.0849 279.954C94.9743 279.185 95.4831 278.462 96.2574 278.349C96.9211 278.259 97.5405 278.643 97.7617 279.276L97.7396 279.343Z" fill="#000072"/>
<path d="M122.782 271.525C123.844 273.197 124.751 274.847 125.635 276.564C126.498 278.282 127.317 280.022 128.025 281.83C129.485 285.4 130.679 289.151 131.586 292.993C132.051 294.937 130.856 296.903 128.954 297.377C127.051 297.852 125.127 296.631 124.662 294.688C124.618 294.462 124.574 294.213 124.574 293.965C124.463 290.44 124.043 286.869 123.335 283.321C122.981 281.536 122.56 279.773 122.074 278.033C121.587 276.293 121.012 274.508 120.37 272.903L120.348 272.835C120.061 272.112 120.415 271.299 121.123 271.005C121.72 270.734 122.428 270.982 122.782 271.525Z" fill="#000072"/>
<g opacity="0.3">
<path d="M228.571 365.873C228.571 365.873 216.514 368.087 216.514 376.584C216.514 385.081 234.92 426.029 218.527 471.768C218.527 471.768 237.818 434.345 234.278 409.713C230.739 385.058 228.571 365.873 228.571 365.873Z" fill="#000072"/>
</g>
<g opacity="0.3">
<path d="M390.749 365.873C390.749 365.873 405.217 376.042 405.217 384.539C405.217 393.036 372.056 420.357 356.128 474.841C356.128 474.841 357.345 436.696 372.233 407.476C384.113 384.245 390.749 365.873 390.749 365.873Z" fill="#000072"/>
</g>
<g opacity="0.3">
<path d="M386.701 379.341C386.701 379.341 372.056 399.159 360.796 396.674C349.536 394.188 350.819 382.776 350.819 382.776L355.818 429.825L354.911 458.412L368.738 424.424L386.701 379.341Z" fill="#000072"/>
</g>
<g opacity="0.3">
<path d="M229.788 394.527C229.788 394.527 233.792 418.617 244.035 412.493C260.98 402.369 273.944 372.72 273.944 372.72C273.944 372.72 252.043 446.142 226.89 456.017C226.868 456.017 235.34 406.888 229.788 394.527Z" fill="#000072"/>
</g>
<g opacity="0.2">
<path d="M217.686 53.7677C214.169 56.4117 205.586 70.1063 199.037 81.089C188.994 65.8352 183.884 42.5138 182.932 31.6892C182.91 31.5762 182.91 31.4406 182.91 31.3276C192.467 34.1298 203.351 38.1523 205.696 40.8641C209.877 45.7001 223.726 49.2255 217.686 53.7677Z" fill="#000072"/>
</g>
<g opacity="0.2">
<path d="M418.801 54.7168C422.274 57.406 430.747 71.1684 437.206 82.1963C447.383 67.0329 452.714 43.7793 453.754 32.9773C453.776 32.8643 453.776 32.7287 453.798 32.6157C444.197 35.3275 433.291 39.2596 430.924 41.9262C426.698 46.717 412.828 50.1294 418.801 54.7168Z" fill="#000072"/>
</g>
<defs>
<linearGradient id="paint0_linear_237_3934" x1="404.213" y1="53.6565" x2="388.287" y2="259.618" gradientUnits="userSpaceOnUse">
<stop stop-color="white"/>
<stop offset="1" stop-color="#000072"/>
</linearGradient>
<linearGradient id="paint1_linear_237_3934" x1="436.083" y1="56.1206" x2="420.157" y2="262.082" gradientUnits="userSpaceOnUse">
<stop stop-color="white"/>
<stop offset="1" stop-color="#000072"/>
</linearGradient>
<linearGradient id="paint2_linear_237_3934" x1="223.69" y1="39.6974" x2="207.764" y2="245.659" gradientUnits="userSpaceOnUse">
<stop stop-color="white"/>
<stop offset="1" stop-color="#000072"/>
</linearGradient>
<linearGradient id="paint3_linear_237_3934" x1="254.808" y1="42.1034" x2="238.882" y2="248.065" gradientUnits="userSpaceOnUse">
<stop stop-color="white"/>
<stop offset="1" stop-color="#000072"/>
</linearGradient>
</defs>
</svg>
