<svg width="626" height="599" viewBox="0 0 626 599" fill="none" xmlns="http://www.w3.org/2000/svg">
<ellipse cx="313" cy="299.5" rx="313" ry="299.5" fill="#FEB16C"/>
<path d="M479.159 391.42C479.159 391.42 515.087 378.716 516.179 339.711C517.271 300.686 517.588 290.344 535.136 285.302C552.683 280.26 558.757 298.542 574.081 292.746C589.406 286.949 583.649 257.909 554.291 249.294C524.933 240.679 498.076 257.432 489.064 284.071C480.052 310.71 487.913 338.341 476.419 354.618C464.926 370.895 462.763 388.958 479.159 391.42Z" fill="white"/>
<path d="M526.838 255.13L524.258 249.969C524.258 249.969 537.597 242.267 558.658 250.802C579.719 259.358 582.835 274.563 580.811 284.071C578.766 293.579 571.382 294.671 563.7 292.15C556.018 289.629 547.899 285.183 543.354 284.547C538.808 283.912 536.664 284.071 536.664 284.071L534.123 280.935C534.123 280.935 535.83 271.804 534.739 266.305C533.647 260.787 526.838 255.13 526.838 255.13Z" fill="#FFA748"/>
<g opacity="0.25">
<path d="M477.035 356.226C477.035 356.226 491.228 362.776 497.143 351.283C503.038 339.79 493.629 310.233 513.102 284.091C532.575 257.929 560.028 277.56 568.484 277.56C576.94 277.56 578.21 267.993 578.21 267.993C578.21 267.993 587.679 285.54 576.106 291.773C564.534 298.006 550.857 283.039 540.575 284.428C530.292 285.818 523.464 285.758 518.799 299.733C514.134 313.707 517.132 341.735 514.075 353.804C511.018 365.873 496.845 384.572 484.24 389.098C471.636 393.643 466.792 386.1 466.991 377.962C467.229 369.823 477.035 356.226 477.035 356.226Z" fill="#000072"/>
</g>
<g opacity="0.4">
<path d="M485.908 334.49C485.908 334.49 488.965 294.453 501.192 275.456C513.42 256.46 534.004 252.152 534.004 252.152L552.782 249.949C552.782 249.949 529.578 239.826 508.973 256.678C488.369 273.531 485.928 291.892 484.518 302.909C483.109 313.926 485.908 334.49 485.908 334.49Z" fill="white"/>
</g>
<path d="M479.159 394C479.04 394 478.901 394 478.782 393.981C470.921 392.809 467.546 388.502 466.078 385.088C462.683 377.148 465.76 365.198 474.295 353.129C480.072 344.951 480.588 333.458 481.223 320.139C481.759 308.745 482.355 295.842 486.602 283.237C496.527 253.939 525.925 238.277 555.025 246.813C574.935 252.649 584.463 267.516 584.9 278.851C585.197 286.612 581.485 292.706 574.995 295.167C566.261 298.462 559.909 294.83 554.311 291.634C548.832 288.498 543.651 285.54 535.85 287.783C520.566 292.17 519.871 299.832 518.779 339.77C517.668 380.105 480.409 393.722 480.032 393.861C479.754 393.961 479.456 394 479.159 394ZM539.126 249.691C518.005 249.691 498.85 263.169 491.505 284.905C487.476 296.815 486.92 308.784 486.384 320.377C485.749 333.914 485.173 346.718 478.524 356.127C471.258 366.409 468.241 376.989 470.842 383.063C472.132 386.1 474.851 388.006 478.901 388.76C483.625 386.894 512.626 374.091 513.579 339.631C514.67 300.269 515.008 288.379 534.401 282.821C544.306 279.982 550.976 283.793 556.852 287.148C562.35 290.284 566.677 292.765 573.129 290.324C577.496 288.676 579.898 284.567 579.679 279.049C579.322 269.501 570.985 256.896 553.517 251.775C548.713 250.366 543.87 249.691 539.126 249.691Z" fill="#000072"/>
<path d="M532.893 288.597C532.654 288.597 532.396 288.557 532.158 288.498C530.789 288.101 530.014 286.652 530.411 285.282C537.359 261.859 521.201 252.629 520.526 252.251C519.276 251.557 518.819 249.989 519.494 248.738C520.169 247.487 521.737 247.031 522.987 247.706C523.186 247.825 543.532 259.219 535.374 286.751C535.056 287.862 534.024 288.597 532.893 288.597Z" fill="#000072"/>
<path d="M302.275 230.119C308.091 226.268 317.679 225.871 331.594 228.868C348.387 232.501 366.391 234.287 375.204 235.022C373.041 233.771 370.897 232.501 368.793 231.151C359.086 224.938 350.709 218.05 343.881 210.805C341.697 209.892 315.158 199.093 285.859 196.533C290.842 200.046 294.196 206.597 294.196 214.1C294.196 220.75 291.556 226.645 287.487 230.357L298.444 233.95C299.457 232.402 300.727 231.131 302.275 230.119Z" fill="white"/>
<path d="M277.522 196.215C269.682 196.215 263.31 204.234 263.31 214.08C263.31 223.926 269.682 231.945 277.522 231.945C285.363 231.945 291.735 223.926 291.735 214.08C291.735 204.215 285.363 196.215 277.522 196.215Z" fill="white"/>
<path d="M457.383 257.572C431.519 257.572 404.265 250.545 380.345 237.841C377.725 237.682 353.369 236.074 331.078 231.25C317.838 228.392 308.866 228.69 303.625 232.144C300.767 234.029 298.98 236.927 298.206 240.977C296.32 250.743 306.9 265.015 334.829 274.861C362.798 284.726 420.978 271.506 421.574 271.387C421.733 271.347 421.891 271.347 422.05 271.367C423.003 271.526 444.699 275.298 459.984 284.051C459.944 279.069 460.639 267.099 467.348 257.135C465.621 257.294 463.874 257.413 462.088 257.472C460.52 257.552 458.951 257.572 457.383 257.572Z" fill="#FA9B27"/>
<path d="M461.274 288.875C460.797 288.875 460.321 288.736 459.904 288.478C446.426 280.022 425.385 275.873 421.891 275.218C415.599 276.627 361.428 288.299 333.559 278.454C301.442 267.119 292.43 250.783 294.454 240.242C295.427 235.201 297.809 231.409 301.521 228.948C307.655 224.898 317.6 224.422 331.872 227.499C355.037 232.501 380.544 234.01 380.782 234.029C382.211 234.109 383.303 235.34 383.224 236.769C383.144 238.198 381.914 239.29 380.484 239.21C380.226 239.19 354.322 237.662 330.76 232.58C318.096 229.841 309.203 230.079 304.36 233.275C301.819 234.962 300.231 237.563 299.536 241.235C297.75 250.426 308.111 264.003 335.266 273.571C362.858 283.297 420.661 270.176 421.236 270.037C421.574 269.958 421.911 269.958 422.249 270.017C423.182 270.176 443.31 273.67 458.614 281.769C458.852 275.298 460.381 263.407 467.904 254.018C468.797 252.907 470.425 252.728 471.536 253.621C472.648 254.515 472.827 256.142 471.933 257.254C462.584 268.946 463.815 285.897 463.815 286.056C463.894 287.029 463.418 287.962 462.584 288.478C462.207 288.756 461.75 288.875 461.274 288.875Z" fill="#000072"/>
<path d="M344.516 212.314C344.179 212.314 343.841 212.254 343.504 212.115C343.206 211.996 313.59 199.51 281.889 197.585C280.46 197.505 279.368 196.275 279.468 194.846C279.547 193.416 280.778 192.344 282.207 192.424C314.821 194.409 344.298 206.835 345.528 207.351C346.839 207.907 347.454 209.435 346.898 210.745C346.481 211.718 345.528 212.314 344.516 212.314Z" fill="#000072"/>
<path d="M277.522 235.736C267.578 235.736 259.499 226.01 259.499 214.06C259.499 202.111 267.578 192.384 277.522 192.384C287.467 192.384 295.546 202.111 295.546 214.06C295.566 226.01 287.467 235.736 277.522 235.736ZM277.522 197.565C270.436 197.565 264.679 204.969 264.679 214.06C264.679 223.152 270.436 230.556 277.522 230.556C284.609 230.556 290.365 223.152 290.365 214.06C290.385 204.969 284.609 197.565 277.522 197.565Z" fill="#000072"/>
<path d="M298.96 237.96C298.702 237.96 298.424 237.92 298.146 237.821L284.172 233.235C282.822 232.799 282.068 231.33 282.525 229.96C282.961 228.61 284.43 227.856 285.8 228.313L299.774 232.898C301.124 233.335 301.878 234.803 301.422 236.173C301.045 237.265 300.032 237.96 298.96 237.96Z" fill="#000072"/>
<g opacity="0.25">
<path d="M339.633 221.861C331.197 223.767 300.429 217.99 294.038 216.74C293.442 222.278 290.981 227.121 287.487 230.317L298.444 233.91C299.476 232.402 300.747 231.131 302.295 230.119C308.111 226.268 317.699 225.871 331.614 228.868C348.407 232.501 366.411 234.287 375.224 235.022C373.06 233.771 370.917 232.501 368.812 231.151C361.071 226.189 354.183 220.789 348.248 215.132C347.95 216.859 346.541 220.293 339.633 221.861Z" fill="#000072"/>
</g>
<g opacity="0.25">
<path d="M279.269 221.206C268.927 220.492 266.506 208.383 265.95 203.778C264.302 206.696 263.33 210.229 263.33 214.08C263.33 223.926 269.701 231.945 277.542 231.945C284.51 231.945 290.326 225.593 291.517 217.256C289.75 219.4 286.237 221.683 279.269 221.206Z" fill="#351945"/>
</g>
<g opacity="0.25">
<path d="M457.383 257.571C431.519 257.571 404.265 250.545 380.345 237.841C379.651 237.801 377.368 237.642 374.013 237.364C383.601 246.515 394.955 251.061 394.955 251.061C394.955 251.061 372.624 264.717 342.69 260.211C314.503 255.964 306.543 233.612 305.709 231.032C305.372 231.191 305.035 231.35 304.697 231.508L301.243 234.248C301.164 234.347 301.065 234.446 300.985 234.545C300.926 234.625 300.846 234.724 300.767 234.823C299.536 236.471 298.683 238.496 298.206 240.957C296.32 250.723 306.9 264.995 334.829 274.841C362.798 284.706 420.978 271.486 421.574 271.367C421.733 271.327 421.891 271.327 422.05 271.347C422.884 271.486 439.459 274.365 453.81 280.895C454.624 270.414 457.701 260.45 458.674 257.512C458.237 257.552 457.82 257.571 457.383 257.571Z" fill="#351945"/>
</g>
<path d="M467.626 340.763C467.606 340.763 467.606 340.782 467.586 340.782C467.566 340.782 467.566 340.783 467.546 340.802C458.773 345.844 447.359 350.469 433.484 354.539C398.548 364.801 352.139 370.458 302.791 370.458C253.444 370.458 207.015 364.801 172.099 354.539C143.892 346.261 125.809 335.661 119.616 324.089C119.695 340.405 120.747 377.108 127.635 418.733C136.171 470.304 155.643 540.176 199.988 580.193C208.504 586.248 248.998 592.064 292.311 593.473C345.131 595.18 387.313 590.297 408.056 580.054C451.786 558.477 472.926 489.141 485.153 325.538C481.819 330.857 475.903 335.999 467.626 340.763Z" fill="white"/>
<path d="M144.607 341.477C150.601 336.753 197.05 302.353 277.582 302.115C278.971 298.661 284.609 283.972 285.423 272.836C285.542 271.288 285.323 267.615 284.887 262.375C192.167 264.936 119.695 288.001 119.695 315.057C119.675 324.287 128.508 333.458 144.607 341.477Z" fill="white"/>
<path d="M287.864 273.034C286.971 285.341 280.599 301.241 279.646 303.564C280.182 312.496 281.016 322.262 281.552 324.287C284.39 325.26 306.464 330.619 325.5 326.034C326.949 323.712 334.551 308.725 311.049 281.034C310.989 280.955 310.95 280.895 310.89 280.816C306.881 273.154 305.193 224.561 303.526 177.576C302.156 138.789 300.747 98.6721 298.186 93.2531C295.308 87.179 288.122 85.8093 282.822 86.5041C277.383 87.1988 271.448 90.355 270.416 95.8137C269.245 102.047 274.962 151.572 280.004 195.262C284.47 233.751 288.301 267.02 287.864 273.034Z" fill="#E8CCA6"/>
<path d="M487.793 322.957C486.682 338.182 485.491 352.454 484.26 365.873C488.25 366.369 500.636 368.712 509.489 379.45C517.39 389.038 520.189 402.595 517.807 419.766C511.236 467.287 470.107 489.36 464.986 491.94C464.271 494.699 463.557 497.379 462.822 499.999C459.388 512.227 455.597 523.065 451.389 532.613C458.078 530.41 476.876 523.522 496.17 510.024C518.184 494.64 545.378 467.267 549.904 424.232C553.755 387.569 547.482 360.097 531.245 342.589C514.789 324.823 492.895 323.096 487.793 322.957Z" fill="white"/>
<path d="M279.448 325.577C278.912 324.287 278.197 320.079 277.244 304.576C200.901 304.894 155.703 336.118 147.068 342.668C154.333 346.082 162.948 349.298 172.794 352.176C207.511 362.379 253.683 367.997 302.791 367.997C351.9 367.997 398.091 362.379 432.789 352.176C445.89 348.325 456.808 343.939 465.284 339.194C444.937 305.489 342.253 301.4 326.869 300.983C332.606 314.461 329.926 322.818 328.199 326.173C332.05 325.418 335.881 324.505 339.633 323.314C343.543 322.223 347.295 320.655 351.086 319.146C344 323.156 336.298 326.272 328.279 328.098C324.289 329.111 320.2 329.666 316.111 330.143C312.022 330.579 307.893 330.679 303.784 330.639C295.566 330.46 287.368 329.389 279.388 327.483C271.428 325.557 263.608 322.878 256.362 319.126C260.173 320.555 264.044 321.826 267.975 322.838C271.786 323.95 275.617 324.823 279.448 325.577ZM365.259 343.939C369.11 343.105 372.981 342.311 376.792 341.398C380.623 340.485 384.434 339.532 388.166 338.381C391.878 337.249 395.63 335.979 398.826 334.053C399.6 333.557 400.334 333.021 400.87 332.426C401.406 331.81 401.625 331.215 401.505 330.659C401.386 330.063 400.87 329.408 400.215 328.833C399.54 328.277 398.766 327.721 397.932 327.284C394.598 325.458 390.846 324.168 387.094 322.997C383.343 321.766 379.512 320.793 375.7 319.741C379.631 320.258 383.521 320.992 387.412 321.846C391.283 322.778 395.134 323.791 398.826 325.617C399.759 326.054 400.652 326.629 401.525 327.284C402.359 327.999 403.232 328.872 403.59 330.222C403.768 330.877 403.689 331.632 403.49 332.267C403.391 332.584 403.232 332.862 403.093 333.16C402.935 333.418 402.756 333.656 402.577 333.894C401.823 334.788 400.95 335.443 400.076 336.038C396.503 338.261 392.692 339.532 388.881 340.743C381.219 343.025 373.418 344.594 365.597 345.844C357.776 347.115 349.895 348.008 341.995 348.544C349.776 347.035 357.518 345.507 365.259 343.939ZM213.824 351.779C210.013 351.025 206.241 349.834 202.728 347.968C201.001 346.976 199.333 345.844 197.864 344.415C196.415 342.986 195.165 341.298 194.41 339.373C192.822 335.522 193.477 331.056 195.661 327.88C194.41 331.512 194.51 335.443 196.157 338.579C197.785 341.735 200.723 344.058 203.919 345.804C207.154 347.551 210.687 348.802 214.3 349.894C217.913 350.965 221.625 351.839 225.357 352.812C221.486 352.891 217.635 352.534 213.824 351.779ZM265.434 345.407C271.905 346.241 278.455 346.737 284.986 347.214L304.677 348.464C298.107 349.06 291.497 349.219 284.907 349.119C278.297 349.02 271.706 348.623 265.116 347.829C261.821 347.392 258.546 346.857 255.29 346.142C252.075 345.308 248.76 344.455 245.743 342.966C242.705 341.557 239.728 339.79 237.406 337.269C236.294 335.959 235.341 334.47 234.984 332.783C234.587 331.115 234.805 329.309 235.639 327.88C235.043 329.428 235.103 331.135 235.639 332.604C236.175 334.093 237.147 335.363 238.279 336.455C240.621 338.599 243.539 340.028 246.517 341.239C252.492 343.601 258.982 344.594 265.434 345.407Z" fill="#FCE7CA"/>
<path d="M325.758 298.502C337.013 298.701 445.592 301.658 467.427 337.964C478.444 331.393 484.816 324.228 485.769 316.982C485.808 316.327 485.868 315.692 485.908 315.037C485.868 286.949 407.103 263.288 310.116 262.177C310.93 270.99 311.883 277.243 312.994 279.545C319.029 286.652 323.078 292.984 325.758 298.502Z" fill="white"/>
<g opacity="0.25">
<path d="M420.621 369.228C420.621 369.228 431.082 477.549 354.104 527.432C277.125 577.315 198.738 562.586 198.738 562.586C202.529 593.235 352.198 590.297 392.116 579.856C436.283 565.742 458.396 509.031 469.71 457.917C475.804 424.669 480.608 383.718 484.518 333.716C468.698 355.968 420.621 369.228 420.621 369.228Z" fill="#000072"/>
</g>
<g opacity="0.25">
<path d="M530.133 456.17C500.438 503.691 457.324 517.467 457.324 517.467C455.438 522.827 453.473 527.869 451.389 532.593C458.078 530.39 476.876 523.502 496.17 510.004C518.184 494.62 545.378 467.247 549.904 424.212C551.988 404.481 551.095 387.43 547.324 373.138C549.884 389.197 551.373 422.187 530.133 456.17Z" fill="#000072"/>
</g>
<g opacity="0.25">
<path d="M519.216 363.014C507.544 348.385 489.044 346.341 485.153 345.904C484.895 348.802 484.518 363.054 484.26 365.873C488.25 366.369 500.636 368.711 509.489 379.45C517.39 389.038 520.189 402.595 517.807 419.766C516.119 432.033 512.11 442.573 507.028 451.545C506.969 451.665 506.929 451.724 506.929 451.724C527.414 429.909 537.021 385.346 519.216 363.014Z" fill="#000072"/>
</g>
<g opacity="0.25">
<path d="M418.398 312.893C418.517 313.012 447.399 342.648 374.688 354.975C303.05 367.124 179.245 353.308 175.156 352.851C209.576 362.618 254.754 367.997 302.772 367.997C351.9 367.997 398.071 362.379 432.769 352.176C445.632 348.405 456.391 344.078 464.807 339.453C464.807 339.155 464.807 338.817 464.807 338.52C457.165 326.59 439.101 318.451 418.398 312.893Z" fill="#000072"/>
</g>
<g opacity="0.25">
<path d="M144.547 341.457C144.587 341.457 144.607 341.457 144.647 341.457C150.78 336.634 197.209 302.373 277.582 302.135C278.177 300.626 279.587 297.033 281.036 292.507C178.332 294.155 133.312 334.073 132.836 334.49C136.151 336.872 140.061 339.214 144.547 341.457Z" fill="#000072"/>
</g>
<g opacity="0.25">
<path d="M292.112 99.2476C293.541 107.207 301.382 276.826 302.394 280.855C303.407 284.885 304.717 286.314 310.136 299.713C315.555 313.092 310.374 327.781 310.354 327.82C315.337 327.721 320.518 327.205 325.5 326.014C326.949 323.692 334.551 308.705 311.049 281.014C310.99 280.935 310.95 280.875 310.89 280.796C306.881 273.134 305.193 224.541 303.526 177.556C302.156 138.769 300.747 98.6521 298.186 93.233C295.308 87.1589 288.122 85.7893 282.822 86.484C282.842 86.484 290.683 91.2877 292.112 99.2476Z" fill="#351945"/>
</g>
<g opacity="0.25">
<path d="M468.618 299.733C449.046 286.87 425.504 282.404 425.504 282.404C400.831 274.88 310.136 268.231 310.136 268.231C310.136 268.231 311.565 278.394 311.684 279.545C312.736 281.332 324.964 296.874 325.758 298.522C336.953 298.72 444.322 301.658 467.03 337.368L468.043 337.626C475.506 333.101 480.767 328.277 483.546 323.354C483.883 318.431 482.414 308.804 468.618 299.733Z" fill="#000072"/>
</g>
<g opacity="0.4">
<path d="M155.703 346.38C155.703 346.38 204.613 313.866 278.872 310.491L278.495 304.913L276.887 303.345C276.887 303.345 269.443 299.812 222.161 309.221C174.878 318.63 146.77 341.338 146.77 341.338L147.366 344.197L155.703 346.38Z" fill="white"/>
</g>
<g opacity="0.4">
<path d="M329.093 307.335C329.093 307.335 383.402 306.363 415.718 311.583C415.718 311.583 365.994 300.646 326.552 300.07L329.093 307.335Z" fill="white"/>
</g>
<g opacity="0.4">
<path d="M288.42 327.066C289.254 327.086 286.395 306.879 286.395 306.879C286.395 306.879 293.283 288.577 293.521 276.826C293.76 265.075 276.391 103.635 277.125 95.7342C277.86 87.8141 281.869 86.4841 281.869 86.4841C281.869 86.4841 270.317 86.4444 269.443 94.5631C268.57 102.702 287.09 260.191 286.971 271.724C286.852 283.257 279.547 298.045 278.852 302.174C278.177 306.303 279.547 321.27 279.547 321.508C279.547 321.746 280.281 324.367 280.281 324.367C280.281 324.367 284.748 326.947 288.42 327.066Z" fill="white"/>
</g>
<path d="M302.791 371.828C197.964 371.828 115.864 346.896 115.864 315.077C115.864 300.011 133.233 286.473 166.124 275.933C197.447 265.908 239.986 259.735 285.939 258.544C287.348 258.504 288.559 259.636 288.599 261.065C288.638 262.494 287.507 263.685 286.078 263.725C240.621 264.896 198.579 270.99 167.712 280.875C138.056 290.364 121.045 302.849 121.045 315.077C121.045 343.026 204.276 366.647 302.791 366.647C401.307 366.647 484.538 343.026 484.538 315.077C484.538 302.373 466.296 289.55 434.496 279.883C401.347 269.819 356.863 264.023 309.243 263.526C307.813 263.506 306.662 262.335 306.682 260.906C306.702 259.477 307.853 258.365 309.302 258.345C357.399 258.842 402.399 264.717 436.005 274.92C470.643 285.441 489.719 299.693 489.719 315.057C489.719 346.896 407.619 371.828 302.791 371.828Z" fill="#000072"/>
<path d="M311.486 597.562C303.923 597.562 297.293 597.423 292.172 597.245C247.39 595.795 206.777 589.761 197.706 583.211C197.626 583.151 197.567 583.091 197.487 583.032C152.269 542.28 132.478 471.495 123.864 419.269C114.554 362.895 115.864 315.434 115.864 314.958C115.904 313.528 117.115 312.397 118.524 312.457C119.953 312.496 121.085 313.687 121.025 315.116C121.005 315.593 119.715 362.637 128.965 418.515C137.461 469.827 156.815 539.322 200.822 579.082C208.107 584.144 245.008 590.535 292.33 592.064C344.933 593.751 386.896 588.927 407.421 578.784C451.567 557.009 472.469 485.469 484.538 314.858C484.637 313.429 485.868 312.357 487.297 312.457C488.726 312.556 489.798 313.786 489.699 315.216C483.546 402.139 475.665 459.227 464.112 500.317C451.587 544.88 434.298 571.281 409.704 583.429C385.625 595.339 341.281 597.562 311.486 597.562Z" fill="#000072"/>
<path d="M449.146 537.159C448.014 537.159 446.982 536.404 446.644 535.273C446.267 533.903 447.061 532.474 448.451 532.077C448.689 532.017 471.715 525.447 495.456 508.833C527.096 486.7 544.961 458.175 548.554 424.053C552.366 387.787 546.212 360.672 530.233 343.442C511.971 323.771 486.999 324.307 486.761 324.287C485.332 324.327 484.141 323.215 484.101 321.786C484.062 320.357 485.173 319.166 486.602 319.126C487.714 319.106 514.194 318.55 534.044 339.929C551.095 358.29 557.705 386.775 553.735 424.609C549.051 469.113 521.022 497.339 498.334 513.18C473.859 530.271 450.853 536.801 449.88 537.079C449.602 537.139 449.384 537.159 449.146 537.159Z" fill="#000072"/>
<path d="M463.934 493.667C462.961 493.667 462.028 493.111 461.591 492.159C460.996 490.868 461.552 489.32 462.862 488.725C463.418 488.467 507.366 467.485 514.055 419.23C516.278 403.211 513.757 390.646 506.611 381.932C497.282 370.558 482.95 369.565 482.811 369.565C481.382 369.486 480.29 368.255 480.37 366.826C480.449 365.397 481.68 364.305 483.089 364.384C483.764 364.424 499.743 365.456 510.561 378.577C518.72 388.482 521.618 402.397 519.176 419.944C512.09 471.118 465.502 493.211 465.025 493.429C464.668 493.588 464.291 493.667 463.934 493.667Z" fill="#000072"/>
<path d="M144.726 345.546C143.991 345.546 143.257 345.229 142.761 344.633C141.828 343.542 141.967 341.914 143.058 340.981C143.555 340.564 155.246 330.719 177.875 320.774C198.38 311.762 232.086 301.043 276.669 300.765C278.436 296.239 283.338 282.94 284.073 272.757C284.49 267.119 280.282 230.794 276.232 195.679C269.682 139.027 265.493 101.411 266.684 95.099C267.915 88.6478 274.049 83.7845 282.366 82.7126C291.001 81.601 298.583 85.0946 301.66 91.6253C304.419 97.4612 305.63 128.03 307.357 177.437C308.826 219.201 310.652 271.069 314.165 278.811C341.558 311.266 328.815 328.019 328.259 328.734C327.902 329.17 327.405 329.488 326.869 329.627C305.848 334.887 280.857 328.475 279.19 327.364C278.019 326.59 277.225 326.054 275.974 305.946C192.485 306.68 146.87 344.534 146.413 344.931C145.917 345.328 145.321 345.546 144.726 345.546ZM282.703 323.176C287.507 324.525 307.516 328.734 324.587 324.823C326.254 321.707 331.693 307.474 309.997 281.888C309.878 281.749 309.759 281.59 309.679 281.411C305.828 274.027 304.201 235.518 302.176 177.596C300.886 140.734 299.417 98.9698 296.975 93.8088C294.415 88.3897 287.844 87.1987 283.021 87.8141C278.078 88.4493 272.679 91.2283 271.786 96.032C270.654 102.047 276.609 153.617 281.393 195.064C285.859 233.652 289.69 267 289.254 273.114C288.36 285.202 282.346 300.586 281.056 303.762C281.492 311.623 282.207 320.218 282.703 323.176Z" fill="#000072"/>
<path d="M467.01 342.291C466.097 342.291 465.204 341.795 464.728 340.941C444.917 304.298 326.115 302.333 324.904 302.313C323.475 302.293 322.324 301.122 322.344 299.693C322.363 298.264 323.515 297.152 324.964 297.132C329.986 297.192 448.034 299.177 469.273 338.46C469.948 339.711 469.492 341.299 468.221 341.973C467.844 342.192 467.427 342.291 467.01 342.291Z" fill="#000072"/>
<path d="M256.382 319.186C283.219 327.046 312.141 330.024 339.415 322.719C343.345 321.786 347.156 320.416 351.086 319.186C323.376 337.408 284.569 335.423 256.382 319.186Z" fill="#000072"/>
<path d="M235.639 327.9C233.078 340.008 257.117 342.986 265.612 344.058C278.594 345.685 291.656 346.559 304.697 348.484C298.127 349.655 291.497 350.092 284.867 350.211C274.088 350.311 263.032 349.655 252.571 346.738C246.775 345.03 241.038 342.45 236.949 337.745C234.726 335.105 233.495 330.858 235.639 327.9Z" fill="#000072"/>
<path d="M195.661 327.9C194.093 335.761 197.944 341.18 204.554 344.633C211.065 348.107 218.35 349.953 225.357 352.851C221.426 353.467 217.496 353.407 213.566 352.851C207.65 351.958 201.378 349.834 196.971 345.388C192.247 340.961 191.076 332.783 195.661 327.9Z" fill="#000072"/>
<path d="M341.995 348.504C359.026 343.8 376.594 341.021 393.188 335.224C395.749 334.153 398.647 333.239 400.275 331.096C400.295 330.996 400.354 330.996 400.334 330.897C400.136 329.964 398.468 328.793 397.436 328.198C390.687 324.386 383.025 322.362 375.72 319.682C379.71 319.9 383.66 320.436 387.61 321.131C392.533 322.203 403.213 324.108 404.781 329.885C407.897 344.058 351.98 349.139 341.995 348.504Z" fill="#000072"/>
<path d="M467.348 258.385C461.532 267.04 460.242 277.223 460.023 282.999C459.984 283.873 459.984 284.647 459.984 285.302C458.356 284.369 456.669 283.496 454.922 282.682C440.332 275.794 422.904 272.757 422.07 272.618C421.911 272.578 421.752 272.598 421.594 272.638C421.475 272.677 418.636 273.312 413.991 274.186C397.198 277.402 356.764 283.833 334.869 276.111C306.94 266.266 296.36 251.994 298.246 242.227C299.02 238.178 300.787 235.28 303.665 233.394C308.905 229.94 317.877 229.642 331.117 232.501C348.744 236.312 367.661 238.118 376.098 238.793C378.321 238.952 379.829 239.071 380.365 239.091C404.285 251.775 431.539 258.802 457.423 258.802C458.991 258.802 460.559 258.782 462.108 258.723C463.854 258.663 465.601 258.544 467.348 258.385Z" fill="white"/>
<path d="M422.05 272.598C421.891 272.558 421.733 272.578 421.574 272.618C421.455 272.657 418.616 273.293 413.971 274.166C386.499 264.658 378.36 246.594 376.058 238.773C378.281 238.932 379.79 239.051 380.325 239.071C404.245 251.755 431.499 258.782 457.383 258.782C458.951 258.782 460.519 258.762 462.068 258.703C463.854 258.643 465.601 258.524 467.328 258.346C461.512 267 460.222 277.183 460.003 282.96C458.455 282.92 456.768 282.84 454.902 282.642L422.05 272.598Z" fill="#FFA748"/>
<path d="M277.522 197.446C269.682 197.446 263.31 205.465 263.31 215.311C263.31 225.156 269.682 233.176 277.522 233.176C285.363 233.176 291.735 225.156 291.735 215.311C291.735 205.445 285.363 197.446 277.522 197.446Z" fill="white"/>
<path d="M461.274 290.106C460.797 290.106 460.321 289.967 459.904 289.709C446.426 281.253 425.385 277.104 421.891 276.449C415.599 277.858 361.428 289.53 333.559 279.684C301.442 268.35 292.43 252.014 294.454 241.473C295.427 236.431 297.809 232.64 301.521 230.179C307.655 226.129 317.6 225.653 331.872 228.729C355.037 233.732 380.544 235.24 380.782 235.26C382.211 235.34 383.303 236.57 383.224 237.999C383.144 239.429 381.914 240.501 380.484 240.441C380.226 240.421 354.322 238.893 330.76 233.811C318.096 231.072 309.203 231.31 304.36 234.506C301.819 236.193 300.231 238.793 299.536 242.466C297.75 251.656 308.111 265.234 335.266 274.801C362.858 284.528 420.661 271.407 421.236 271.268C421.574 271.189 421.911 271.189 422.249 271.248C423.182 271.407 443.31 274.901 458.614 282.999C458.852 276.528 460.381 264.638 467.904 255.249C468.797 254.137 470.425 253.959 471.536 254.852C472.648 255.745 472.827 257.373 471.933 258.485C462.584 270.176 463.815 287.128 463.815 287.287C463.894 288.26 463.418 289.193 462.584 289.709C462.207 289.967 461.75 290.106 461.274 290.106Z" fill="#000072"/>
<path d="M277.522 236.967C267.578 236.967 259.499 227.241 259.499 215.291C259.499 203.341 267.578 193.615 277.522 193.615C287.467 193.615 295.546 203.341 295.546 215.291C295.546 227.241 287.467 236.967 277.522 236.967ZM277.522 198.796C270.436 198.796 264.679 206.2 264.679 215.291C264.679 224.382 270.436 231.786 277.522 231.786C284.609 231.786 290.365 224.382 290.365 215.291C290.365 206.2 284.609 198.796 277.522 198.796Z" fill="#000072"/>
<g opacity="0.25">
<path d="M279.269 222.437C268.927 221.722 266.506 209.614 265.95 205.009C264.302 207.926 263.33 211.46 263.33 215.311C263.33 225.156 269.701 233.176 277.542 233.176C284.51 233.176 290.326 226.824 291.517 218.487C289.75 220.63 286.237 222.913 279.269 222.437Z" fill="#000072"/>
</g>
<g opacity="0.25">
<path d="M457.383 258.802C431.519 258.802 404.265 251.775 380.345 239.071C379.651 239.032 377.368 238.873 374.013 238.595C383.601 247.746 394.955 252.291 394.955 252.291C394.955 252.291 372.624 265.948 342.69 261.442C314.503 257.194 306.543 234.843 305.709 232.263C305.372 232.421 305.035 232.58 304.697 232.739L301.243 235.478C301.164 235.578 301.065 235.677 300.985 235.776C300.926 235.856 300.846 235.955 300.767 236.054C299.536 237.702 298.683 239.726 298.206 242.188C296.32 251.954 306.9 266.226 334.829 276.072C362.798 285.937 420.978 272.717 421.574 272.598C421.733 272.558 421.891 272.558 422.05 272.578C422.884 272.717 439.459 275.595 453.81 282.126C454.624 271.645 457.701 261.68 458.674 258.743C458.237 258.782 457.82 258.802 457.383 258.802Z" fill="#000072"/>
</g>
<path d="M522.968 127.494C513.777 104.369 497.818 89.3029 479.834 80.43C465.125 73.145 449.066 70.0286 434.317 70.0286C425.107 70.0286 416.393 71.2593 408.81 73.4428C373.676 83.6258 359.642 109.947 359.523 110.205C359.503 110.225 359.503 110.245 359.503 110.245C354.54 118.939 349.121 126.422 343.861 133.688C334.313 146.848 326.075 158.202 326.075 170.47C326.85 183.59 333.837 196.731 344.973 208.621H344.992C345.31 208.76 345.548 209.018 345.648 209.336C370.44 235.339 415.003 255.15 457.502 255.17C458.991 255.17 460.48 255.13 461.969 255.09C486.027 254.296 505.242 243.954 517.549 225.156C520.05 221.325 522.233 217.216 524.079 212.869C534.56 188.196 534.401 156.197 522.968 127.494Z" fill="white"/>
<path d="M524.099 212.829C500.418 216.502 476.836 211.718 460.579 188.096C414.686 121.361 479.853 80.4299 479.853 80.4299C497.818 89.3029 513.797 104.389 522.988 127.494C534.401 156.197 534.56 188.196 524.099 212.829Z" fill="#FFA748"/>
<path d="M370.063 90.1962C370.063 90.1962 374.668 63.895 379.273 52.0644C383.502 41.2064 387.948 33.0282 394.955 31.3807C402.2 29.6736 412.423 33.2664 427.747 47.876C438.843 58.4561 443.091 67.5077 443.091 67.5077L442.913 69.0361C442.913 69.0361 404.245 64.2523 378.698 87.179L370.976 93.3524L370.063 90.1962Z" fill="white"/>
<path d="M489.044 81.9583C489.044 81.9583 531.88 81.8194 549.924 87.2384C567.968 92.6575 564.176 110.006 557.169 131.742C550.38 152.823 535.592 172.395 535.592 172.395L533.21 171.105C533.21 171.105 538.431 111.634 490.215 84.3205L489.044 81.9583Z" fill="#FFA748"/>
<path d="M388.166 76.7378C388.166 76.7378 390.846 47.5384 398.687 46.9429C406.528 46.3474 422.646 66.3959 422.646 66.3959L420.641 68.6787C420.641 68.6787 406.309 71.3386 398.449 75.0505C390.568 78.8022 386.955 80.1321 388.166 76.7378Z" fill="white"/>
<path d="M508.874 99.9027C508.874 99.9027 521.201 97.8383 532.456 97.6398C543.711 97.4413 547.343 105.5 546.41 112.091C543.89 130.174 532.595 142.501 532.317 143.315C532.039 144.129 531.622 146.352 530.61 145.478C529.598 144.605 528.446 122.929 513.241 105.957C513.261 105.957 508.16 102.384 508.874 99.9027Z" fill="white"/>
<path d="M411.47 169.536C411.47 169.358 411.014 168.365 408.929 166.757C405.495 164.117 400.97 162.252 399.798 162.371C399.441 163.304 400.573 167.274 402.28 171.085C406.865 171.283 411.153 170.589 411.47 169.536Z" fill="#000072"/>
<g opacity="0.25">
<path d="M344.993 207.51C345.33 207.649 345.548 207.907 345.667 208.224C370.46 234.228 415.023 254.038 457.522 254.058C459.011 254.058 460.5 254.038 461.988 253.978C486.047 253.184 505.261 242.823 517.568 224.045C531.92 202.11 535.513 170.767 527.732 140.972C530.153 158.738 529.657 191.749 499.287 214.695C455.895 247.468 369.746 223.092 347.891 192.265C326.036 161.438 343.901 132.596 343.901 132.596C334.353 145.756 326.115 157.11 326.115 169.358C326.889 182.479 333.877 195.639 344.993 207.51Z" fill="#000072"/>
</g>
<g opacity="0.25">
<path d="M377.288 87.4369C377.288 87.4369 380.822 61.9098 389.179 48.2332C394.439 39.6183 401.982 38.4273 409.644 43.9257C416.095 48.5508 426.636 60.699 429.792 69.3536L416.472 69.5719C416.472 69.5719 407.123 57.5428 403.53 55.4189C398.865 52.6597 393.764 63.4184 393.526 64.0735C393.288 64.7285 389.655 66.5547 389.655 66.5547C389.655 66.5547 386.578 81.1643 385.427 81.9385C384.296 82.6729 377.288 87.4369 377.288 87.4369Z" fill="#000072"/>
</g>
<g opacity="0.25">
<path d="M500.894 92.1216C500.894 92.1216 517.946 90.9505 529.935 92.7568C549.13 95.6549 547.939 105.441 547.939 105.441C547.939 105.441 546.549 112.428 546.549 113.262C546.549 114.096 542.143 117.887 542.143 117.887C542.143 117.887 540.813 108.915 537.597 106.076C534.381 103.218 515.683 109.232 515.901 109.669C515.901 109.669 501.927 94.4441 500.894 92.1216Z" fill="#000072"/>
</g>
<g opacity="0.25">
<path d="M532.893 155.681C532.893 155.681 549.011 146.749 562.271 99.9027C562.271 99.9027 565.605 93.1934 561.02 118.542C556.435 143.89 537.815 167.849 537.815 167.849L535.374 171.263C535.374 171.263 533.409 167.115 533.409 166.281C533.409 165.447 531.344 145.756 531.344 145.756L532.893 155.681Z" fill="#000072"/>
</g>
<g opacity="0.4">
<path d="M497.381 88.1714C497.381 88.1714 534.719 86.643 546.133 91.0695C557.527 95.4961 561.139 100.101 561.139 100.101C561.139 100.101 562.072 93.0545 549.388 87.04C536.724 81.0254 507.961 79.4176 498.175 82.2561C488.389 85.0947 492.577 85.1145 497.381 88.1714Z" fill="white"/>
</g>
<g opacity="0.4">
<path d="M435.826 68.0039C435.985 66.2571 418.378 44.8985 406.567 38.7847C389.913 30.1698 378.38 54.4861 378.38 54.4861C378.38 54.4861 386.539 31.0234 398.885 31.599C411.927 32.1945 423.241 43.7869 423.241 43.7869L443.588 66.6144L442.932 68.6987L435.826 68.0039Z" fill="white"/>
</g>
<g opacity="0.4">
<path d="M527.057 139.186C527.057 139.186 525.588 98.1758 472.171 75.5667C418.735 52.9575 368.058 86.0475 360.138 109.173C360.138 109.173 380.782 85.9085 416.353 78.703C417.941 78.3854 419.569 78.1273 421.216 77.8891C421.872 81.4224 429.196 84.7771 438.407 85.5711C448.252 86.4246 456.51 84.0625 456.827 80.2513C456.847 80.0726 456.827 79.894 456.808 79.7153C484.975 86.1666 513.658 104.667 527.057 139.186Z" fill="white"/>
</g>
<g opacity="0.25">
<path d="M383.561 167.016C383.561 167.016 385.387 171.919 389.814 173.189C394.24 174.459 399.282 168.723 399.282 168.723L406.686 173.387L406.289 174.479C406.289 174.479 404.622 176.702 405.297 181.486C405.972 186.27 415.559 187.64 415.182 187.799C414.825 187.957 409.723 190.478 404.741 187.799C399.759 185.119 398.409 180.891 398.409 180.891C398.409 180.891 390.568 181.367 385.745 176.861C380.921 172.316 383.561 167.016 383.561 167.016Z" fill="#000072"/>
</g>
<path d="M457.383 258.941C426.993 258.941 394.697 249.353 368.058 232.282C340.645 214.735 323.535 191.669 322.284 170.588C322.284 170.529 322.284 170.489 322.284 170.43C322.284 156.932 330.859 145.121 340.784 131.424C345.965 124.278 351.345 116.874 356.188 108.379C357.081 106.672 371.453 80.271 407.778 69.7505C427.807 63.9543 452.083 65.1652 472.688 72.9861C490.275 79.6557 513.876 94.2851 526.521 126.085C540.396 160.961 538.133 200.661 520.764 227.201C507.763 247.071 487.496 258.008 462.127 258.861C460.559 258.921 458.971 258.941 457.383 258.941ZM327.465 170.35C330.085 212.948 399.163 255.785 461.949 253.681C485.55 252.887 504.388 242.763 516.417 224.362C532.893 199.192 534.977 161.358 521.697 127.99C500.577 74.9115 443.21 64.8873 409.207 74.7329C374.688 84.7373 360.873 110.562 360.734 110.82C360.714 110.84 360.694 110.88 360.694 110.9C355.712 119.653 349.995 127.534 344.973 134.462C335.604 147.404 327.505 158.579 327.465 170.35Z" fill="#000072"/>
<path d="M392.28 141.994C397.048 131.94 395.188 121.075 388.126 117.725C381.064 114.376 371.474 119.811 366.706 129.864C361.938 139.918 363.797 150.783 370.86 154.132C377.922 157.482 387.512 152.047 392.28 141.994Z" fill="#000072"/>
<path d="M386.534 143.374C387.843 139.955 386.954 136.436 384.548 135.515C382.142 134.594 379.13 136.619 377.821 140.039C376.512 143.458 377.401 146.977 379.807 147.898C382.213 148.819 385.225 146.794 386.534 143.374Z" fill="white"/>
<g opacity="0.35">
<path d="M372.976 139.94C373.183 137.175 372.207 134.847 370.797 134.742C369.386 134.636 368.076 136.793 367.869 139.559C367.663 142.325 368.638 144.652 370.049 144.758C371.459 144.863 372.77 142.706 372.976 139.94Z" fill="white"/>
</g>
<path d="M468.292 178.739C473.287 168.795 471.674 157.89 464.689 154.381C457.704 150.873 447.992 156.089 442.997 166.032C438.002 175.975 439.615 186.881 446.6 190.389C453.585 193.898 463.297 188.682 468.292 178.739Z" fill="#000072"/>
<path d="M453.446 176.217C455.338 173.081 455.082 169.461 452.876 168.13C450.67 166.8 447.349 168.263 445.457 171.398C443.566 174.534 443.821 178.154 446.028 179.485C448.234 180.815 451.555 179.352 453.446 176.217Z" fill="white"/>
<g opacity="0.35">
<path d="M459.936 183.787C461.989 181.923 462.884 179.563 461.933 178.515C460.983 177.468 458.547 178.13 456.494 179.995C454.44 181.859 453.545 184.219 454.496 185.266C455.446 186.313 457.882 185.651 459.936 183.787Z" fill="white"/>
</g>
<path d="M404.126 174.956C403.113 174.956 402.16 174.916 401.307 174.856C400.354 174.797 399.52 174.221 399.123 173.368C394.062 162.549 396.404 160.286 397.178 159.532C399.62 157.17 404.801 159.552 408.711 161.974C413.793 165.11 415.936 168.028 415.123 170.668C414.011 174.201 408.572 174.956 404.126 174.956ZM403.193 169.755C405.773 169.795 408.314 169.556 409.624 169.14C408.076 167.472 403.808 164.892 401.267 164.018C401.565 165.447 402.299 167.631 403.193 169.755Z" fill="#000072"/>
<path d="M383.601 165.924C382.588 174.201 388.742 180.533 396.9 177.576C398.27 176.96 399.898 177.615 400.394 179.045C402.042 184.126 406.23 188.454 412.026 187.58C413.971 187.421 415.976 186.846 418.041 186.211C410.081 194.647 399.143 191.312 395.491 180.672L399.024 182.26C396.523 183.273 393.903 183.57 391.243 183.094C383.244 181.705 378.956 172.693 383.601 165.924Z" fill="#000072"/>
<path d="M397.972 182.518C397.615 182.518 397.238 182.439 396.9 182.28C395.59 181.685 395.034 180.156 395.63 178.846L399.143 171.184C399.739 169.874 401.267 169.318 402.577 169.914C403.887 170.509 404.443 172.038 403.848 173.348L400.334 181.01C399.898 181.963 398.945 182.518 397.972 182.518Z" fill="#000072"/>
<path d="M368.634 98.7912C368.535 98.7912 368.455 98.7912 368.356 98.7713C366.927 98.6125 365.914 97.3421 366.053 95.9129C366.292 93.7691 371.85 43.4692 388.404 31.5791C392.335 28.7604 396.9 27.7877 401.982 28.7008C422.408 32.3731 445.334 66.2173 446.307 67.6465C447.101 68.8375 446.783 70.4454 445.592 71.2394C444.401 72.0334 442.793 71.7158 441.999 70.5248C441.781 70.1873 419.351 37.0775 401.049 33.7824C397.357 33.1075 394.201 33.7626 391.422 35.7674C379.234 44.5213 372.703 82.534 371.195 96.4489C371.056 97.8185 369.944 98.7912 368.634 98.7912Z" fill="#000072"/>
<path d="M386.34 84.5389C386.221 84.5389 386.082 84.5389 385.963 84.519C384.554 84.3205 383.561 83.0104 383.779 81.5812C385.328 70.9416 389.794 46.0497 398.191 44.4022C407.996 42.4966 416.373 54.7639 422.467 63.7162C423.499 65.2447 424.492 66.6739 425.325 67.8053C426.179 68.9566 425.941 70.5843 424.79 71.418C423.638 72.2716 422.011 72.0334 421.177 70.8821C420.284 69.6911 419.271 68.2023 418.199 66.6342C413.515 59.7462 405.654 48.2332 399.183 49.4838C396.206 50.0594 391.303 65.7211 388.901 82.3157C388.722 83.6059 387.61 84.5389 386.34 84.5389Z" fill="#000072"/>
<path d="M532.813 180.196C532.377 180.196 531.94 180.077 531.523 179.859C530.292 179.144 529.856 177.556 530.57 176.325C531.662 174.44 532.813 172.435 534.044 170.35C547.304 147.642 569.476 109.609 557.447 94.9998C547.522 82.931 503.951 84.3007 487.992 85.849C486.563 85.9879 485.312 84.9359 485.173 83.5265C485.034 82.0973 486.086 80.8468 487.496 80.7078C489.957 80.4696 547.74 75.0903 561.437 91.7246C575.749 109.113 553.338 147.543 538.51 172.971C537.299 175.055 536.128 177.06 535.056 178.926C534.58 179.72 533.706 180.196 532.813 180.196Z" fill="#000072"/>
<path d="M530.094 149.349C529.597 149.349 529.081 149.21 528.625 148.892C527.454 148.079 527.136 146.471 527.95 145.3C536.942 132.159 547.522 111.039 542.957 105.183C536.942 97.4611 515.822 100.578 508.199 102.424C506.81 102.761 505.4 101.908 505.083 100.518C504.745 99.1285 505.599 97.7192 506.988 97.4016C510.125 96.6473 537.895 90.3151 547.046 102.007C555.581 112.924 536.208 142.421 532.238 148.237C531.721 148.952 530.908 149.349 530.094 149.349Z" fill="#000072"/>
<path d="M487.774 198.776C498.632 196.989 509.569 200.066 519.176 205.048C527.096 208.701 534.461 213.663 540.932 219.499C541.905 220.432 544.207 222.774 545.18 223.747C545.398 223.965 545.081 224.343 544.822 224.124C536.069 217.177 526.243 211.877 515.742 208.204C506.294 205.485 496.984 202.746 487.734 199.292C487.496 199.212 487.496 198.815 487.774 198.776Z" fill="#000072"/>
<path d="M484.26 227.896C491.843 230.297 497.818 235.975 501.768 242.684C507.048 250.981 510.819 260.311 512.487 269.978C512.546 270.275 512.09 270.414 511.991 270.117L510.8 267.139C507.703 259.318 503.395 251.894 498.076 245.383C494.523 241.592 491.168 237.582 487.972 233.473C486.642 231.826 485.332 230.139 484.002 228.332C483.804 228.134 484.002 227.796 484.26 227.896Z" fill="#000072"/>
<path d="M341.936 161.378C337.33 161.358 333.301 160.981 328.993 160.267C325.678 159.532 322.403 158.579 319.009 158.242C314.801 157.666 310.374 157.329 306.146 157.21C304.618 157.15 302.474 157.21 300.926 157.17C300.787 157.17 300.667 157.051 300.667 156.912C300.667 156.793 300.747 156.694 300.866 156.654C307.754 155.046 314.84 154.272 321.947 154.49C325.5 154.629 329.192 154.47 332.626 155.622C336.12 156.733 339.494 158.302 342.174 160.922C342.313 161.081 342.174 161.398 341.936 161.378Z" fill="#000072"/>
<path d="M354.997 145.101C347.891 140.397 341.539 134.978 335.306 129.241C327.862 123.246 319.624 118.344 310.592 115.029C310.315 114.929 310.434 114.453 310.751 114.532L314.126 115.247L315.813 115.624C316.825 115.942 319.723 116.835 320.775 117.153C325.043 118.681 329.49 120.706 333.4 122.988C340.447 127.078 347.494 131.583 352.019 138.571C352.476 139.146 356.605 145.657 354.997 145.101Z" fill="#000072"/>
<path d="M382.807 99.9027C387.134 90.8114 401.664 92.4986 400.434 103.595C397.694 101.411 395.769 99.5255 392.613 99.2079C389.476 98.8705 386.3 99.6446 382.807 99.9027Z" fill="#000072"/>
<path d="M470.663 127.852C478.563 120.209 492.478 126.78 489.044 138.074C486.702 134.839 484.955 131.941 481.6 130.353C478.305 128.745 474.593 128.526 470.663 127.852Z" fill="#000072"/>
<g filter="url(#filter0_i_273_4190)">
<path d="M252.375 418.766V425.375C251.188 426.188 249.797 426.812 248.203 427.25C246.609 427.656 244.703 427.859 242.484 427.859C240.453 427.859 238.375 427.281 236.25 426.125C234.156 424.969 232.516 423.469 231.328 421.625C230.141 419.781 229.281 417.781 228.75 415.625C228.219 413.438 227.953 411.203 227.953 408.922C227.953 406.641 228.219 404.469 228.75 402.406C229.312 400.344 230.219 398.484 231.469 396.828C232.656 395.172 234.156 393.828 235.969 392.797C237.812 391.734 239.953 391.203 242.391 391.203C244.609 391.203 246.656 391.766 248.531 392.891C250.406 394.016 251.797 395.609 252.703 397.672C253.016 398.359 253.219 399.109 253.312 399.922C253.406 400.734 253.469 401.719 253.5 402.875H247.969C247.969 401.469 247.844 400.438 247.594 399.781C247.375 399.094 247.062 398.453 246.656 397.859C246.219 397.328 245.578 396.922 244.734 396.641C243.922 396.328 243.141 396.172 242.391 396.172C241.172 396.172 240.016 396.438 238.922 396.969C237.859 397.5 236.938 398.328 236.156 399.453C235.281 400.578 234.609 401.938 234.141 403.531C233.672 405.125 233.438 406.969 233.438 409.062C233.438 410.25 233.578 411.625 233.859 413.188C234.141 414.719 234.609 416.219 235.266 417.688C236.047 419.125 237.172 420.359 238.641 421.391C240.141 422.391 241.672 422.891 243.234 422.891C245.016 422.891 246.594 422.594 247.969 422C249.344 421.375 250.812 420.297 252.375 418.766ZM257.156 427.297V391.859H262.406V405.172L272.906 391.859H279.234L265.969 408.547L281.016 427.297H274.266L262.406 412.625V427.297H257.156ZM293.906 408.312L300.797 391.859H306.422L291.75 427.297H286.031L291.047 415.062L281.016 391.859H286.781L293.906 408.312ZM321.891 422.328V391.859H327.188V422.328H334.125V391.859H339.469V427.297H309.469V391.859H314.766V422.328H321.891ZM342.047 427.297L353.062 391.859H358.5L369.609 427.297H363.938L360.75 416.984H350.625L347.297 427.297H342.047ZM355.688 400.062L352.078 412.016H359.203L355.688 400.062ZM395.25 392V427.297H390.047V402.359L378.375 427.297H372.422V392H377.625V417.031L389.062 392.469C388.781 392.594 388.469 392.688 388.125 392.75C386.688 393.094 385.531 393.25 384.656 393.219C383.688 393.25 382.484 393.094 381.047 392.75C379.641 392.406 378.359 391.734 377.203 390.734V385.719C379.047 387.188 380.547 388.047 381.703 388.297C382.859 388.516 383.844 388.625 384.656 388.625C385.406 388.688 386.344 388.594 387.469 388.344C388.625 388.062 390.141 387.188 392.016 385.719V390.734C391.453 391.203 390.844 391.625 390.188 392H395.25ZM229.266 475.297V439.859H234.516V453.172L245.016 439.859H251.344L238.078 456.547L253.125 475.297H246.375L234.516 460.625V475.297H229.266ZM268.969 475.859C266.594 475.859 264.5 475.359 262.688 474.359C260.875 473.359 259.344 472.016 258.094 470.328C256.906 468.672 256.016 466.766 255.422 464.609C254.828 462.422 254.531 460.047 254.531 457.484C254.531 455.109 254.828 452.859 255.422 450.734C256.016 448.578 256.891 446.641 258.047 444.922C259.328 443.234 260.875 441.859 262.688 440.797C264.5 439.734 266.594 439.203 268.969 439.203C271.344 439.203 273.422 439.703 275.203 440.703C277.016 441.703 278.547 443.047 279.797 444.734C280.953 446.391 281.844 448.297 282.469 450.453C283.094 452.609 283.406 454.938 283.406 457.438C283.406 459.875 283.125 462.156 282.562 464.281C282.031 466.406 281.188 468.359 280.031 470.141C278.844 471.859 277.328 473.25 275.484 474.312C273.641 475.344 271.469 475.859 268.969 475.859ZM259.969 457.438C259.969 459.312 260.172 461.062 260.578 462.688C260.984 464.281 261.578 465.734 262.359 467.047C263.078 468.266 263.984 469.234 265.078 469.953C266.172 470.641 267.469 470.984 268.969 470.984C270.438 470.984 271.719 470.656 272.812 470C273.906 469.312 274.828 468.375 275.578 467.188C276.328 465.969 276.891 464.547 277.266 462.922C277.672 461.266 277.875 459.422 277.875 457.391C277.875 455.578 277.672 453.844 277.266 452.188C276.891 450.531 276.312 449.125 275.531 447.969C274.781 446.75 273.859 445.797 272.766 445.109C271.672 444.422 270.391 444.078 268.922 444.078C267.578 444.109 266.359 444.453 265.266 445.109C264.203 445.766 263.281 446.688 262.5 447.875C261.719 449 261.094 450.391 260.625 452.047C260.188 453.703 259.969 455.5 259.969 457.438ZM300.422 470.328V439.859H305.719V470.328H312.656V439.859H318V475.297H288V439.859H293.297V470.328H300.422ZM323.672 475.297V439.859H328.922V453.172L339.422 439.859H345.75L332.484 456.547L347.531 475.297H340.781L328.922 460.625V475.297H323.672ZM346.969 475.297L357.984 439.859H363.422L374.531 475.297H368.859L365.672 464.984H355.547L352.219 475.297H346.969ZM360.609 448.062L357 460.016H364.125L360.609 448.062ZM214.875 523.297V487.859H220.125V501.172L230.625 487.859H236.953L223.688 504.547L238.734 523.297H231.984L220.125 508.625V523.297H214.875ZM238.172 523.297L249.188 487.859H254.625L265.734 523.297H260.062L256.875 512.984H246.75L243.422 523.297H238.172ZM251.812 496.062L248.203 508.016H255.328L251.812 496.062ZM281.156 518.328V487.859H286.453V518.328H293.391V487.859H298.734V523.297H268.734V487.859H274.031V518.328H281.156ZM304.406 523.297V487.859H309.656V501.172L320.156 487.859H326.484L313.219 504.547L328.266 523.297H321.516L309.656 508.625V523.297H304.406ZM354.094 487.859V523.297H348.891V498.266L337.219 523.297H331.266V487.859H336.469V512.984L348.141 487.859H354.094Z" fill="#C072F7"/>
</g>
<defs>
<filter id="filter0_i_273_4190" x="214.875" y="385.719" width="180.375" height="141.578" filterUnits="userSpaceOnUse" color-interpolation-filters="sRGB">
<feFlood flood-opacity="0" result="BackgroundImageFix"/>
<feBlend mode="normal" in="SourceGraphic" in2="BackgroundImageFix" result="shape"/>
<feColorMatrix in="SourceAlpha" type="matrix" values="0 0 0 0 0 0 0 0 0 0 0 0 0 0 0 0 0 0 127 0" result="hardAlpha"/>
<feOffset dy="4"/>
<feGaussianBlur stdDeviation="2"/>
<feComposite in2="hardAlpha" operator="arithmetic" k2="-1" k3="1"/>
<feColorMatrix type="matrix" values="0 0 0 0 0 0 0 0 0 0 0 0 0 0 0 0 0 0 0.25 0"/>
<feBlend mode="normal" in2="shape" result="effect1_innerShadow_273_4190"/>
</filter>
</defs>
</svg>
