<svg width="686" height="605" viewBox="0 0 686 605" fill="none" xmlns="http://www.w3.org/2000/svg">
<ellipse cx="313" cy="299.5" rx="313" ry="299.5" fill="#B0A2D7"/>
<path d="M678.933 348.909C685.233 373.248 682.256 400.222 665.578 419.462C644.197 444.143 608.059 452.306 581.047 446.329C565.039 442.772 520.141 433.495 503.55 440.865L496.452 411.385C496.452 411.385 534.92 397.565 583.27 407.785C618.847 415.305 645.966 389.081 640.508 367.935C638.372 359.6 631.166 352.08 617.423 347.688C567.671 331.834 579.257 286.82 620.508 289.883C648.685 292.004 671.08 318.422 678.933 348.909Z" fill="white"/>
<path d="M598.803 448.707C592.439 448.707 586.398 448.064 580.918 446.843C558.631 441.894 518.954 434.609 503.765 441.337L503.161 441.594L495.804 411.02L496.257 410.849C496.646 410.72 535.438 397.094 583.377 407.228C605.038 411.813 622.342 403.522 631.317 394.223C638.954 386.317 642.191 376.526 639.99 368.02C638.372 361.743 633.129 353.216 617.271 348.159C589.375 339.268 582.19 322.278 584.521 310.43C586.743 299.139 598.976 287.698 620.572 289.326C651.274 291.619 672.266 320.821 679.472 348.738C686.398 375.498 681.349 402.065 665.988 419.783C648.081 440.458 621.457 448.707 598.803 448.707ZM522.039 437.587C540.572 437.587 565.254 442.279 581.155 445.815C605.75 451.257 642.536 445.236 665.168 419.119C680.292 401.658 685.254 375.476 678.415 349.038C671.317 321.485 650.648 292.69 620.486 290.44C599.537 288.876 587.714 299.846 585.578 310.687C583.334 322.107 590.367 338.518 617.595 347.195C633.906 352.402 639.343 361.272 641.026 367.806C643.312 376.676 639.99 386.853 632.093 395.016C622.924 404.507 605.254 412.991 583.161 408.321C538.329 398.83 501.565 410.249 497.077 411.749L503.895 440.137C508.404 438.316 514.747 437.587 522.039 437.587Z" fill="#371A45"/>
<g opacity="0.3">
<path d="M665.578 419.483C644.176 444.165 608.059 452.328 581.047 446.35C565.039 442.794 520.141 433.517 503.55 440.887L496.452 411.406C496.452 411.406 496.732 411.299 497.293 411.128L500.767 425.525C517.358 418.155 562.255 427.432 578.264 430.989C605.276 436.966 641.414 428.803 662.795 404.122C676.15 388.696 680.724 368.299 678.76 348.288C678.825 348.502 678.868 348.717 678.933 348.909C685.233 373.27 682.256 400.222 665.578 419.483Z" fill="#371A45"/>
</g>
<path d="M678.933 348.91C678.027 348.91 677.099 348.717 676.193 348.267C672.935 346.682 668.987 348.181 667.649 351.524L665.362 357.201C663.938 360.694 659.774 362.15 656.473 360.308L652.784 358.23C649.677 356.494 645.729 357.673 644.111 360.843L640.508 367.935C638.372 359.601 631.166 352.081 617.422 347.689C567.671 331.834 579.256 286.82 620.508 289.884C648.685 292.005 671.08 318.422 678.933 348.91Z" fill="#FFA124"/>
<g opacity="0.5">
<path d="M624.715 300.146C646.484 301.775 664.823 317.929 675.632 339.268C675.136 337.683 674.596 336.119 674.035 334.555C663.701 310.516 644.154 291.662 620.529 289.905C595.049 287.998 580.896 304.431 585.513 321.014C586.419 322.75 587.52 324.464 588.857 326.135C588.124 311.48 601.867 298.432 624.715 300.146Z" fill="white"/>
</g>
<path d="M598.739 451.6C592.158 451.6 585.923 450.935 580.292 449.671C542.924 441.401 515.481 439.323 504.974 443.994C503.226 444.765 501.198 443.994 500.421 442.258C499.645 440.523 500.421 438.509 502.169 437.738C517.573 430.903 553.97 436.816 581.824 442.987C605.599 448.257 641.155 442.451 662.989 417.234C680.141 397.437 683.42 365.9 671.317 336.869C660.767 311.566 641.22 294.876 620.314 293.312C601.026 291.876 590.432 301.282 588.49 311.223C586.484 321.486 593.129 336.333 618.544 344.432C642.299 351.995 647.131 368.235 643.722 380.897C641.047 390.86 633.366 399.944 622.622 405.836C610.907 412.242 596.711 414.149 582.622 411.149C535.869 401.251 498.07 414.492 497.681 414.62C495.891 415.263 493.906 414.342 493.258 412.563C492.611 410.785 493.539 408.814 495.33 408.171C496.948 407.593 535.287 394.116 584.046 404.443C610.216 409.971 632.568 395.83 637.056 379.14C640.4 366.692 632.698 356.151 616.43 350.966C586.7 341.497 579.149 322.942 581.694 309.916C584.154 297.404 597.444 284.742 620.81 286.477C644.327 288.234 666.117 306.531 677.682 334.255C690.778 365.642 687.045 399.965 668.21 421.712C649.677 443.072 622.169 451.6 598.739 451.6Z" fill="#371A45"/>
<path d="M177.918 590.584C130.69 585.613 89.0938 576.636 75.4799 561.082C48.3817 530.144 35.0052 317.758 63.0527 272.123C93.4088 222.759 269.957 190.472 305.75 187.344C350.022 183.487 477.875 183.016 517.789 212.175C563.269 245.406 562.233 438.938 543.118 482.902C525.427 523.566 419.731 589.92 352.589 594.976C340.378 595.897 308.425 596.754 270.216 595.961L177.918 590.584Z" fill="#F44906"/>
<path d="M392.46 566.866C387.088 575.051 378.695 583.942 368.145 592.876C362.794 593.905 357.573 594.612 352.589 594.976C340.378 595.897 308.425 596.754 270.216 595.94L177.918 590.584C130.69 585.613 89.0938 576.636 75.4799 561.082C48.3817 530.144 35.0052 317.758 63.0527 272.123C63.9589 270.623 65.0161 269.145 66.2027 267.688C106.936 257.339 145.944 251.726 167.519 252.776C211.899 254.918 347.756 245.256 387.692 274.415C433.172 307.624 419.558 525.538 392.46 566.866Z" fill="#F44906"/>
<g opacity="0.13">
<path d="M392.46 566.866C387.088 575.051 378.695 583.942 368.145 592.876C362.794 593.905 357.573 594.612 352.589 594.976C340.378 595.897 308.425 596.754 270.216 595.94L177.918 590.584C130.69 585.613 89.0938 576.636 75.4799 561.082C48.3817 530.144 35.0052 317.758 63.0527 272.123C63.9589 270.623 65.0161 269.145 66.2027 267.688C106.936 257.339 145.944 251.726 167.519 252.776C211.899 254.918 347.756 245.256 387.692 274.415C433.172 307.624 419.558 525.538 392.46 566.866Z" fill="white"/>
</g>
<mask id="mask0_257_9721" style="mask-type:luminance" maskUnits="userSpaceOnUse" x="47" y="185" width="509" height="412">
<path d="M177.918 590.584C130.69 585.613 89.0938 576.636 75.4799 561.082C48.3817 530.144 35.0052 317.758 63.0527 272.123C93.4088 222.759 269.957 190.472 305.75 187.344C350.022 183.487 477.875 183.016 517.789 212.175C563.269 245.406 562.233 438.938 543.118 482.902C525.427 523.566 419.731 589.92 352.589 594.976C340.378 595.897 308.425 596.754 270.216 595.961L177.918 590.584Z" fill="white"/>
</mask>
<g mask="url(#mask0_257_9721)">
<path d="M491.424 567.187L491.964 565.473L492.503 563.652C492.87 562.431 493.215 561.21 493.56 559.946C494.272 557.482 494.92 554.954 495.588 552.447C496.861 547.412 498.048 542.334 499.191 537.257C501.457 527.08 503.399 516.796 505.168 506.469C508.555 485.815 511.101 464.969 512.525 444.037L513.474 428.332C513.733 423.126 513.906 417.898 513.97 412.67C514.121 402.215 513.992 391.717 513.625 381.24C512.892 360.265 511.166 339.29 508.706 318.422C507.433 308.009 505.923 297.618 504.132 287.313C502.32 277.029 500.313 266.766 497.616 256.889C496.257 252.004 494.747 247.098 492.891 242.963C492.438 241.935 491.942 241.013 491.511 240.263C491.338 239.963 490.95 239.406 490.648 238.956C490.346 238.485 489.979 238.014 489.634 237.542C488.253 235.657 486.678 233.772 485.06 231.929C478.458 224.516 470.648 217.617 462.622 211.04C446.484 197.863 429.116 185.822 411.403 174.489C402.492 168.875 393.474 163.433 384.369 158.291C379.817 155.72 375.221 153.214 370.648 150.878C368.361 149.721 366.052 148.607 363.808 147.6C362.686 147.107 361.564 146.615 360.507 146.186C359.45 145.758 358.393 145.372 357.616 145.136L364.197 125.64C365.944 126.261 367.347 126.904 368.749 127.525C370.13 128.168 371.424 128.811 372.697 129.475C375.243 130.782 377.681 132.131 380.097 133.503C384.909 136.202 389.59 138.987 394.207 141.837C403.442 147.536 412.481 153.449 421.37 159.555C430.302 165.619 439.083 171.875 447.735 178.345C456.387 184.816 464.93 191.479 473.215 198.528C477.357 202.063 481.435 205.683 485.427 209.497C489.418 213.289 493.345 217.232 497.077 221.538C498.933 223.702 500.766 225.93 502.492 228.351C502.924 228.972 503.355 229.551 503.765 230.194C504.197 230.858 504.585 231.393 505.06 232.229C505.966 233.772 506.678 235.229 507.282 236.643C508.512 239.471 509.439 242.17 510.302 244.87C511.165 247.569 511.921 250.226 512.611 252.904C515.394 263.552 517.465 274.115 519.256 284.742C521.047 295.347 522.536 305.974 523.808 316.601C526.441 337.854 528.167 359.194 529.181 380.619C529.677 391.331 529.957 402.044 529.936 412.799C529.914 418.177 529.849 423.554 529.698 428.953L529.03 445.022C527.929 466.447 525.923 487.808 523.075 509.126C521.651 519.774 520.054 530.422 518.091 541.028C517.12 546.341 516.063 551.633 514.963 556.925C514.38 559.582 513.841 562.238 513.215 564.895C512.913 566.223 512.611 567.552 512.266 568.901L511.77 570.915L511.209 573.036L491.424 567.187Z" fill="#F97A69"/>
<path d="M424.175 601.682C425.06 599.196 425.966 596.476 426.85 593.819C427.713 591.141 428.576 588.463 429.418 585.763C431.101 580.385 432.654 574.943 434.164 569.501C437.185 558.618 439.925 547.648 442.384 536.614C444.887 525.58 446.98 514.482 448.771 503.341C450.561 492.2 452.05 481.038 452.999 469.832C453.237 467.026 453.496 464.24 453.647 461.434L453.927 457.234L454.121 453.035C454.402 447.443 454.466 441.873 454.553 436.131C454.682 424.754 454.617 413.356 454.402 401.979C454.207 390.603 453.776 379.247 453.129 367.914C452.481 356.58 451.618 345.267 450.453 334.019C449.224 322.771 447.692 311.587 445.621 300.618C443.528 289.669 440.917 278.764 436.926 269.037C433.086 259.61 426.656 251.169 419.04 243.499C411.403 235.85 402.665 229.058 393.452 222.823C384.24 216.61 374.531 210.997 364.52 205.898C354.509 200.799 344.261 196.107 333.776 191.929C323.312 187.751 312.675 183.98 301.91 180.723C291.187 177.445 280.27 174.66 269.504 172.796L273.517 152.614C279.45 153.921 285.232 155.42 290.949 157.092C296.667 158.741 302.319 160.52 307.907 162.426C319.105 166.24 330.065 170.546 340.852 175.26C362.406 184.687 383.355 195.657 402.924 209.24C412.676 216.075 422.039 223.616 430.54 232.358C434.79 236.728 438.803 241.42 442.384 246.541C444.197 249.091 445.858 251.769 447.39 254.554C448.166 255.925 448.857 257.403 449.569 258.839C450.238 260.274 450.842 261.731 451.446 263.167C453.754 268.952 455.459 274.736 456.948 280.5C458.436 286.263 459.688 292.048 460.745 297.811C462.859 309.359 464.391 320.886 465.599 332.434C468.08 355.487 469.288 378.562 470.044 401.615C470.41 413.142 470.604 424.668 470.669 436.174C470.712 441.894 470.734 447.786 470.54 453.635L470.41 458.027L470.195 462.398C470.065 465.312 469.849 468.225 469.655 471.139C467.994 494.428 464.65 517.46 460.292 540.278C458.113 551.697 455.653 563.031 452.913 574.322C451.554 579.978 450.087 585.592 448.598 591.226C447.864 594.033 447.088 596.861 446.289 599.668C445.491 602.496 444.693 605.238 443.787 608.195L424.175 601.682Z" fill="#F97A69"/>
<path d="M266.527 608.881C267.713 606.481 268.964 603.889 270.151 601.36L273.711 593.647C276.063 588.484 278.328 583.299 280.55 578.071C284.973 567.616 289.159 557.054 293.15 546.427C301.09 525.173 308.037 503.534 313.517 481.637C316.257 470.689 318.587 459.655 320.399 448.6C320.852 445.836 321.305 443.072 321.651 440.287L322.212 436.131L322.665 431.974L323.118 427.818L323.441 423.661L323.765 419.505L324.045 415.263C325.34 392.638 325.426 369.928 323.894 347.367C323.118 336.076 322.061 324.828 320.378 313.687C318.716 302.567 316.624 291.491 313.733 280.842C312.287 275.55 310.561 270.301 308.511 265.674C307.994 264.517 307.454 263.424 306.893 262.46C306.613 261.988 306.354 261.539 306.073 261.153C305.944 260.981 305.815 260.767 305.707 260.639L305.513 260.382L305.189 259.974L302.535 256.718L299.838 253.504C292.589 244.998 284.844 237.007 276.451 229.765C268.058 222.502 259.083 215.946 249.655 209.947C240.183 203.97 230.324 198.528 220.205 193.386C210.065 188.308 199.709 183.509 189.266 178.881C184.045 176.567 178.781 174.296 173.495 172.046L157.573 165.469L165.901 146.636C186.893 156.513 208.015 166.283 228.619 177.595C238.954 183.187 249.137 189.165 259.018 195.764C268.9 202.363 278.457 209.583 287.346 217.596C296.235 225.609 304.455 234.307 312.028 243.392L314.855 246.82L317.616 250.29L317.961 250.719L318.414 251.319C318.738 251.747 318.997 252.154 319.277 252.561C319.817 253.376 320.27 254.168 320.701 254.94C321.543 256.482 322.255 257.982 322.902 259.46C325.448 265.374 327.131 271.115 328.706 276.9C331.769 288.427 333.884 299.975 335.545 311.566C337.163 323.157 338.414 334.748 339.256 346.36C340.874 369.585 341.176 392.852 340.248 416.098L340.076 420.448L339.795 424.861L339.493 429.296L339.083 433.688L338.652 438.081L338.112 442.451C337.789 445.386 337.357 448.279 336.926 451.193C335.178 462.805 332.913 474.289 330.302 485.665C327.692 497.042 324.693 508.312 321.392 519.474C318.112 530.636 314.596 541.735 310.82 552.726C307.023 563.717 303.01 574.622 298.76 585.442C296.624 590.862 294.445 596.24 292.222 601.617L288.835 609.673C287.67 612.373 286.527 615.008 285.254 617.793L266.527 608.881Z" fill="#F97A69"/>
<path d="M120.939 591.419C121.607 590.241 122.362 588.827 123.053 587.52L125.167 583.449C126.57 580.707 127.95 577.964 129.288 575.2C131.985 569.673 134.552 564.038 137.034 558.403C141.996 547.091 146.613 535.628 150.798 524.016C155.005 512.404 158.738 500.641 161.974 488.75C165.189 476.86 167.972 464.883 169.979 452.799C170.971 446.757 171.877 440.694 172.503 434.631L172.999 430.089L173.366 425.525C173.625 422.504 173.819 419.398 174.013 416.312C174.703 403.95 174.984 391.545 174.898 379.162C174.79 366.778 174.207 354.416 173.215 342.096C172.222 329.777 170.691 317.522 168.533 305.438C167.454 299.396 166.224 293.397 164.757 287.527C163.29 281.656 161.586 275.85 159.472 270.515C158.414 267.902 157.206 265.309 156.02 263.531C155.696 263.081 155.566 262.909 155.049 262.288C154.596 261.774 154.186 261.217 153.711 260.724C152.805 259.696 151.834 258.689 150.842 257.703C146.807 253.804 142.212 250.29 137.249 247.184C127.303 240.927 116.106 236.128 104.585 232.079C93.0421 228.051 81.1111 224.794 69.0291 221.988C56.9471 219.202 44.6925 216.889 32.3516 214.853C20.0323 212.796 7.62664 211.082 -4.84371 209.583C-29.7413 206.562 -54.8114 204.141 -79.9463 202.084L-77.8535 181.623C-52.7186 184.644 -27.4975 187.601 -2.31944 191.35C22.837 195.164 48.0366 199.406 72.9989 205.619C85.4908 208.704 97.918 212.261 110.151 216.717C122.384 221.216 134.466 226.551 145.858 233.814C151.532 237.435 157.012 241.634 161.996 246.541C163.226 247.783 164.434 249.069 165.599 250.397C166.203 251.04 166.742 251.768 167.303 252.433C167.799 253.011 168.619 254.104 169.159 254.961C171.402 258.475 172.719 261.667 173.991 264.881C176.408 271.265 178.155 277.564 179.73 283.863C181.262 290.162 182.535 296.482 183.636 302.803C187.929 328.084 189.935 353.494 190.453 378.926C190.734 391.631 190.604 404.357 190.13 417.041C190.022 420.212 189.892 423.383 189.677 426.618L189.374 431.46L188.921 436.281C188.339 442.708 187.497 449.071 186.548 455.435C182.621 480.845 176.171 505.676 168.166 529.929C166.181 535.993 164.067 542.034 161.866 548.012C159.666 554.011 157.357 559.967 154.962 565.88C152.568 571.794 150.043 577.664 147.454 583.535C146.16 586.47 144.822 589.384 143.484 592.297L141.413 596.668C140.701 598.146 140.032 599.539 139.213 601.125L120.939 591.419Z" fill="#F97A69"/>
</g>
<g opacity="0.5">
<path d="M543.14 479.666C542.665 480.738 542.147 481.809 541.565 482.923C556.624 423.169 554.359 255.175 512.266 224.409C472.352 195.271 344.477 195.721 300.227 199.599C264.434 202.727 87.8642 235.014 57.5297 284.377C56.9256 285.342 56.3647 286.391 55.8037 287.506C57.8318 279.835 60.2482 273.515 63.0745 268.887C93.4305 219.524 269.979 187.237 305.793 184.108C350.065 180.252 477.919 179.781 517.832 208.919C563.291 242.17 562.255 435.702 543.14 479.666Z" fill="white"/>
</g>
<g opacity="0.3">
<path d="M543.14 475.382C525.448 516.046 419.752 582.399 352.611 587.477C340.4 588.398 308.447 589.255 270.238 588.441L177.94 583.085C130.712 578.114 89.1155 569.137 75.5017 553.583C69.9569 547.241 64.9731 533.272 60.8091 514.697C62.5567 518.467 64.369 521.51 66.246 523.652C79.8598 539.207 121.456 548.162 168.684 553.154L260.982 558.532C299.191 559.325 331.144 558.468 343.355 557.547C410.497 552.49 516.193 486.116 533.884 445.451C547.822 413.378 552.158 301.711 535.826 230.751C562.514 294.662 559.256 438.295 543.14 475.382Z" fill="#371A45"/>
</g>
<path d="M300.464 599.69C291.122 599.69 280.96 599.604 270.13 599.368H270L177.551 593.991C120.637 587.992 85.4262 577.665 72.8696 563.331C56.8178 544.992 47.8857 475.896 45.1457 422.291C42.2115 365.364 44.6063 295.562 60.1187 270.344C73.6031 248.427 114.423 227.816 181.435 209.09C232.417 194.864 285.577 185.651 305.47 183.916C348.296 180.188 478.631 179.288 519.86 209.39C567.757 244.377 565.276 440.609 546.311 484.23C537.617 504.22 507.692 531.408 468.21 555.19C427.239 579.871 384.11 596.004 352.87 598.361C344.564 599.004 325.621 599.69 300.464 599.69ZM270.346 592.512C310.022 593.348 341.112 592.384 352.331 591.548C382.557 589.277 424.52 573.487 464.607 549.341C502.924 526.266 531.791 500.278 539.947 481.531C549.353 459.891 554.208 400.63 551.23 343.682C547.735 276.729 534.467 228.609 515.74 214.939C499.062 202.77 463.593 194.414 413.15 190.815C372.374 187.901 329.979 188.694 306.052 190.772C272.179 193.729 95.3939 226.08 65.9871 273.922C53.8836 293.612 48.4035 351.717 52.0281 421.948C55.4801 488.965 66.1813 545.27 78.0691 558.832C85.8793 567.766 109.612 579.914 178.199 587.156L270.346 592.512Z" fill="#371A45"/>
<path d="M378.156 501.006C375.092 507.198 360.119 517.075 355.588 521.424C350.734 526.095 350.799 536.743 345.189 540.021C339.407 543.406 329.396 538.457 323.334 540.878C317.012 543.406 313.841 553.647 307.756 555.704C301.111 557.975 291.165 551.526 285.836 554.611C275.718 560.439 291.813 579.571 278.522 593.326C276.602 595.297 271.683 597.911 256.451 598.34C246.527 598.618 243.01 601.403 237.638 601.168C232.352 600.954 227.605 599.004 222.233 598.704C216.904 598.404 210.561 599.325 205.232 599.004C196.818 598.511 198.263 593.498 186.656 591.269C182.686 590.498 170.777 588.763 168.209 577.472C166.527 570.037 170.086 565.367 162.924 560.632C158.414 557.632 150.712 559.303 144.757 558.789C130.539 557.525 128.706 544.349 119.234 538.757C110.755 533.743 100.183 533.722 93.603 524.423C87.5405 515.875 91.7907 504.948 90.8846 493.229C90.1726 483.994 81.6936 479.838 82.6214 464.541C83.1823 455.199 89.6548 444.444 89.6332 433.046C89.6332 423.512 78.3927 412.264 82.1467 401.701C90.1726 379.141 78.1985 378.776 90 354.802C97.9396 338.69 104.283 321.207 118.026 310.859C126.958 304.132 134.876 295.069 148.641 294.94C155.566 294.876 164.952 298.925 171.726 299.118C183.463 299.482 187.713 292.155 195.07 287.42C206.505 280.071 213.452 293.398 225.513 288.684C242.622 282 246.678 288.149 257.228 290.077C261.888 290.934 271.64 287.056 276.688 286.37C292.87 284.121 314.229 289.434 324.887 299.397C349.849 322.686 360.119 307.045 368.361 316.837C376.559 326.585 367.001 344.239 376.43 358.894C388.835 378.155 373.129 393.302 373.409 404.058C373.754 416.956 378.652 421.155 378.803 435.145C378.954 448.45 375.243 447.658 373.905 460.898C372.46 474.932 384.607 487.98 378.156 501.006Z" fill="white"/>
<g opacity="0.3">
<path d="M155.998 555.447C156.278 556.711 156.667 557.868 157.163 558.918C153.193 558.554 148.619 559.132 144.779 558.789C130.561 557.525 128.727 544.37 119.256 538.757C110.777 533.743 100.205 533.743 93.6246 524.424C90.1295 519.496 90.0648 513.775 90.4531 507.562C94.164 508.89 97.8965 510.176 101.327 512.211C111.92 518.467 113.97 533.165 129.828 534.579C136.473 535.179 143.549 537 148.404 540.578C154.984 545.399 154.099 547.134 155.998 555.447Z" fill="#371A45"/>
</g>
<g opacity="0.3">
<path d="M282.902 570.123C284.132 578.007 286.138 587.627 278.544 595.49C276.645 597.461 271.726 600.075 256.473 600.504C246.57 600.782 243.053 603.567 237.659 603.332C232.373 603.096 227.627 601.168 222.255 600.868C216.926 600.568 210.561 601.489 205.254 601.168C196.839 600.675 198.263 595.662 186.677 593.433C182.708 592.662 170.798 590.927 168.231 579.636C167.433 576.101 167.799 573.208 167.67 570.594C171.251 572.073 174.725 572.63 176.602 572.994C189.547 575.479 187.95 581.093 197.336 581.65C203.29 581.993 210.388 580.986 216.322 581.307C222.298 581.65 227.605 583.814 233.517 584.049C239.536 584.306 243.463 581.2 254.531 580.878C271.532 580.407 277.034 577.493 279.17 575.286C280.766 573.615 281.996 571.901 282.902 570.123Z" fill="#371A45"/>
</g>
<g opacity="0.3">
<path d="M378.156 501.006C375.092 507.198 360.119 517.075 355.588 521.424C350.734 526.095 350.799 536.743 345.211 540.021C339.429 543.406 329.418 538.457 323.355 540.878C317.055 543.406 313.862 553.647 307.778 555.704C301.133 557.975 291.208 551.505 285.858 554.59C285.664 554.697 285.491 554.804 285.318 554.933C284.801 544.156 283.29 540.364 290.475 536.229C296.43 532.779 305.923 540.985 313.344 538.457C320.119 536.143 325.405 521.21 332.438 518.403C339.213 515.703 347.152 517.396 353.603 513.604C359.86 509.94 359.774 498.049 365.211 492.843C367.713 490.443 373.042 486.523 378.242 482.345C380.097 488.665 381.198 494.836 378.156 501.006Z" fill="#371A45"/>
</g>
<g opacity="0.3">
<path d="M167.649 568.452C163.614 566.781 159.407 563.953 157.163 558.918C159.342 559.111 161.349 559.582 162.945 560.653C166.678 563.117 167.476 565.603 167.649 568.452Z" fill="#6B184E"/>
<path d="M168.231 569.266L167.433 568.945C162.233 566.802 158.608 563.503 156.645 559.132L156.278 558.296L157.184 558.382C159.773 558.618 161.694 559.196 163.204 560.203C167.066 562.774 167.994 565.345 168.166 568.43L168.231 569.266ZM158.069 559.56C159.881 563.031 162.88 565.731 167.044 567.616C166.764 565.174 165.771 563.181 162.643 561.103C161.456 560.31 159.989 559.818 158.069 559.56Z" fill="#371A45"/>
</g>
<g opacity="0.3">
<path d="M282.902 567.98C282.039 562.324 281.565 557.568 285.319 554.975C285.534 559.303 285.081 563.759 282.902 567.98Z" fill="#6B184E"/>
<path d="M282.622 569.694L282.363 568.066C281.435 562.067 281.047 557.268 284.995 554.525L285.793 553.968L285.837 554.932C286.095 560.224 285.319 564.445 283.377 568.216L282.622 569.694ZM284.801 556.068C282.536 558.275 282.579 561.788 283.161 566.095C284.369 563.181 284.887 559.946 284.801 556.068Z" fill="#371A45"/>
</g>
<path d="M238.263 604.617C238.005 604.617 237.746 604.617 237.487 604.596C234.488 604.467 231.748 603.867 229.094 603.289C226.678 602.753 224.391 602.26 222.039 602.132C219.58 602.003 216.861 602.132 213.97 602.282C210.971 602.432 207.886 602.603 205.016 602.432C199.882 602.132 197.4 600.289 195.221 598.661C193.236 597.183 191.165 595.64 185.987 594.633L185.448 594.526C181.09 593.712 167.778 591.226 164.822 578.221C164.175 575.393 164.196 572.887 164.196 570.894C164.218 567.166 164.24 565.624 160.982 563.481C158.824 562.046 154.811 562.153 150.906 562.26C148.749 562.324 146.527 562.367 144.412 562.196C134.143 561.296 129.353 555.04 125.124 549.533C122.751 546.427 120.486 543.492 117.422 541.67C114.747 540.085 111.769 539.035 108.641 537.921C102.557 535.757 95.6527 533.315 90.7336 526.373C86.0302 519.731 86.5912 512.018 87.1521 504.562C87.411 500.941 87.6915 497.192 87.411 493.443C87.1737 490.422 85.8792 488.022 84.2611 485.001C81.7152 480.266 78.5437 474.353 79.1478 464.283C79.4283 459.655 80.917 455.006 82.5135 450.057C84.3042 444.487 86.1597 438.723 86.1597 433.003C86.1597 429.789 84.3905 425.911 82.5135 421.798C79.5577 415.327 76.2136 407.978 78.8673 400.501C82.2978 390.86 81.8231 385.825 81.3269 380.49C80.7012 373.891 80.0755 367.078 86.8717 353.238C88.2309 350.495 89.547 347.667 90.8415 344.903C97.2277 331.255 103.851 317.158 115.912 308.074C117.53 306.852 119.105 305.567 120.766 304.196C127.994 298.282 136.171 291.576 148.576 291.448C152.675 291.384 157.228 292.562 161.629 293.676C165.383 294.64 168.943 295.54 171.791 295.626C179.04 295.861 182.665 292.798 187.282 288.963C189.094 287.441 190.971 285.877 193.15 284.485C200.68 279.643 207.001 282.128 212.071 284.12C216.214 285.749 219.795 287.163 224.218 285.427C237.897 280.093 244.455 282.385 250.799 284.613C253.064 285.406 255.221 286.156 257.81 286.649C260.011 287.056 265.146 285.642 268.9 284.613C271.597 283.885 274.121 283.178 276.171 282.899C294.1 280.393 316.02 286.392 327.217 296.826C341.327 310.002 349.914 309.83 356.818 309.681C361.651 309.573 366.656 309.466 370.971 314.587C375.761 320.264 375.567 327.87 375.373 335.241C375.178 342.632 374.984 350.281 379.299 356.987C388.641 371.492 383.55 384.197 379.817 393.474C378.156 397.587 376.732 401.144 376.797 403.929C376.948 409.714 378.091 413.613 379.299 417.727C380.68 422.462 382.104 427.347 382.19 435.06C382.277 442.944 381.068 446.372 379.795 450.014C378.825 452.757 377.832 455.606 377.271 461.198C376.732 466.49 378.436 471.782 380.227 477.353C382.816 485.43 385.513 493.786 381.198 502.484C378.76 507.412 371.165 513.304 364.456 518.531C361.78 520.61 359.234 522.581 357.94 523.845C356.3 525.43 355.222 528.494 354.186 531.451C352.633 535.907 351.014 540.535 346.894 542.956C342.794 545.356 337.659 544.691 333.129 544.091C329.914 543.684 326.592 543.234 324.585 544.049C322.341 544.948 320.248 547.734 318.242 550.455C315.631 553.947 312.913 557.568 308.857 558.96C304.693 560.396 299.99 559.26 295.847 558.275C292.697 557.525 289.094 556.668 287.541 557.568C285.189 558.918 285.405 561.981 286.462 568.666C287.692 576.4 289.375 587.027 280.982 595.704C277.336 599.475 269.569 601.403 256.516 601.768C251.532 601.918 248.317 602.732 245.47 603.439C243.139 604.06 240.896 604.617 238.263 604.617ZM219.903 595.233C220.766 595.233 221.608 595.254 222.427 595.297C225.34 595.447 228.015 596.047 230.583 596.604C233.064 597.14 235.394 597.654 237.789 597.761C239.752 597.847 241.457 597.418 243.808 596.818C246.829 596.047 250.604 595.083 256.365 594.933C271.079 594.526 275.027 592.019 276.041 590.969C282.061 584.735 280.853 577.129 279.687 569.759C278.63 563.095 277.444 555.511 284.11 551.676C288.059 549.405 292.848 550.54 297.487 551.633C300.874 552.447 304.369 553.261 306.656 552.49C308.706 551.783 310.755 549.041 312.74 546.384C315.329 542.913 318.026 539.335 322.061 537.707C325.75 536.229 329.979 536.786 334.078 537.321C337.681 537.793 341.392 538.264 343.442 537.085C345.383 535.95 346.57 532.543 347.713 529.244C349.008 525.537 350.346 521.681 353.172 518.981C354.747 517.46 357.293 515.489 360.249 513.175C365.448 509.126 373.301 503.02 375.049 499.506C378.134 493.293 376.063 486.887 373.69 479.474C371.748 473.475 369.763 467.261 370.432 460.555C371.079 454.149 372.266 450.764 373.301 447.786C374.466 444.465 375.373 441.851 375.308 435.167C375.243 428.396 373.992 424.154 372.697 419.676C371.424 415.306 370.108 410.807 369.936 404.143C369.828 399.965 371.575 395.595 373.431 390.967C376.948 382.204 380.939 372.263 373.496 360.715C368.037 352.231 368.274 343.125 368.469 335.091C368.641 328.449 368.792 322.707 365.664 319C363.571 316.515 361.608 316.451 356.969 316.558C349.677 316.708 338.652 316.965 322.471 301.86C312.827 292.862 292.913 287.527 277.12 289.734C275.523 289.948 273.193 290.591 270.734 291.276C265.621 292.669 260.313 294.126 256.559 293.44C253.431 292.862 250.82 291.941 248.49 291.148C242.622 289.091 238.005 287.463 226.742 291.876C219.774 294.597 214.099 292.369 209.526 290.569C204.369 288.534 201.241 287.527 196.904 290.312C195.07 291.491 193.452 292.84 191.726 294.297C186.915 298.325 181.5 302.846 171.575 302.567C167.972 302.46 163.873 301.41 159.903 300.403C155.976 299.418 151.92 298.368 148.77 298.368C148.727 298.368 148.684 298.368 148.619 298.368C138.673 298.475 132.093 303.853 125.146 309.552C123.506 310.902 121.802 312.294 120.076 313.601C109.374 321.657 103.398 334.384 97.0982 347.86C95.8037 350.645 94.4445 353.495 93.0853 356.301C87.1306 368.406 87.6268 373.72 88.2093 379.89C88.7271 385.461 89.3312 391.76 85.383 402.815C83.657 407.678 86.1597 413.185 88.8134 418.991C90.9062 423.576 93.0637 428.311 93.0637 433.024C93.0637 439.837 90.9493 446.393 89.0939 452.178C87.6484 456.699 86.2676 460.941 86.0518 464.712C85.5556 472.853 87.9936 477.395 90.3668 481.788C92.136 485.087 93.9698 488.472 94.315 492.95C94.6387 497.192 94.3582 501.199 94.0561 505.077C93.5599 511.911 93.1284 517.803 96.4078 522.431C100.076 527.594 105.124 529.394 110.993 531.472C114.315 532.651 117.746 533.872 120.982 535.779C125.21 538.285 127.972 541.885 130.647 545.356C134.488 550.369 137.832 554.697 145.059 555.34C146.764 555.49 148.706 555.447 150.755 555.382C155.718 555.254 160.852 555.104 164.844 557.761C171.187 561.96 171.165 566.716 171.122 570.916C171.1 572.737 171.1 574.622 171.575 576.7C173.301 584.306 180.205 586.577 186.742 587.798L187.303 587.906C194.035 589.191 196.99 591.398 199.364 593.176C201.305 594.612 202.363 595.404 205.426 595.597C207.929 595.747 210.691 595.597 213.625 595.447C215.696 595.34 217.832 595.233 219.903 595.233Z" fill="#371A45"/>
<path d="M313.755 523.245L313.776 523.223C317.163 520.438 329.569 502.591 338.264 501.284C343.032 500.556 347.088 499.699 347.908 497.278C348.684 494.985 346.98 491.729 344.887 487.508C343.204 484.101 342.492 481.937 342.234 480.995C342.169 480.759 342.363 480.545 342.579 480.631C345.103 481.766 356.624 486.608 357.034 480.973C357.25 477.845 351.878 468.654 349.742 459.098C343.55 431.417 341.867 425.954 341.867 425.954C341.824 425.783 336.236 404.55 328.339 390.131C332.741 376.077 346.592 317.801 327.325 304.174C316.322 296.397 279.407 324.142 268.49 332.734C254.294 325.428 234.768 320.243 217.142 320.2C213.582 320.179 210.087 320.307 206.699 320.586C206.613 320.586 206.527 320.586 206.44 320.607C193.668 321.593 182.492 325.621 171.726 329.97C129.892 346.981 108.922 387.367 108.922 387.367C103.873 397.159 99.9032 406.007 97.0553 415.006C95.6529 419.419 94.5094 423.854 93.6464 428.461C93.6464 428.461 93.6248 428.546 93.6033 428.718L93.6464 428.461C93.6464 428.461 91.0358 441.808 87.1739 469.918C85.8363 479.602 81.2408 489.201 81.737 492.307C82.6 497.878 93.7111 492.114 96.1059 490.786C96.3001 490.679 96.5159 490.872 96.4727 491.129C96.2786 492.114 95.7607 494.3 94.3799 497.856C92.654 502.227 91.23 505.633 92.2009 507.84C93.2365 510.197 97.3789 510.561 102.147 509.769C109.331 508.569 114.66 516.089 114.66 516.089C115.48 517.224 118.587 520.267 118.609 520.288C132.093 532.565 148.619 539.678 169.677 545.205C169.677 545.205 191.705 552.169 230.302 549.19C279.364 545.313 303.981 533.615 313.755 523.245Z" fill="white"/>
<g opacity="0.3">
<path d="M93.603 428.546C93.603 428.525 93.603 428.482 93.6244 428.46C93.6244 428.503 93.603 428.525 93.603 428.546Z" fill="#6B184E"/>
<path d="M91.8555 432.788L93.15 428.246L94.164 426.211L94.1424 428.761L94.0777 428.825L91.8555 432.788Z" fill="#371A45"/>
</g>
<g opacity="0.3">
<path d="M347.908 497.257C347.088 499.699 343.032 500.556 338.264 501.263C329.569 502.57 317.164 520.417 313.776 523.202C313.755 523.202 313.755 523.224 313.755 523.224C303.96 533.615 279.364 545.291 230.259 549.105C191.683 552.105 169.634 545.12 169.634 545.12C148.555 539.592 132.05 532.479 118.566 520.203C118.566 520.203 115.437 517.139 114.617 516.004C114.617 516.004 109.288 508.505 102.104 509.705C97.3358 510.497 93.1934 510.133 92.1578 507.755C91.2085 505.548 92.6109 502.142 94.3369 497.771C95.0489 496.014 95.5235 494.579 95.8471 493.464C97.6379 493.786 99.9464 493.7 102.428 493.293C109.612 492.093 114.941 499.613 114.941 499.613C115.761 500.749 118.889 503.791 118.889 503.813C132.374 516.089 148.9 523.202 169.957 528.709C169.957 528.709 191.985 535.672 230.583 532.694C279.688 528.901 304.283 517.203 314.078 506.812C314.078 506.812 314.078 506.791 314.1 506.791C317.487 504.006 329.893 486.158 338.587 484.852C340.27 484.594 341.888 484.316 343.291 483.973C343.701 484.937 344.197 486.094 344.887 487.465C346.98 491.708 348.685 494.964 347.908 497.257Z" fill="#371A45"/>
</g>
<g opacity="0.3">
<path d="M93.6031 428.568C93.6031 428.525 93.6247 428.482 93.6247 428.482C93.6247 428.503 93.6031 428.525 93.6031 428.568C93.6031 428.568 93.6031 428.611 93.5815 428.654L93.6031 428.568Z" fill="#6B184E"/>
<path d="M94.1211 428.739L93.064 428.589L93.0855 428.439L93.1503 428.246L94.1643 426.211L94.1211 428.739Z" fill="#371A45"/>
</g>
<g opacity="0.3">
<path d="M92.2227 416.356L93.4524 411.9L94.5096 408.771L94.488 412.349L94.4233 412.414L92.2227 416.356Z" fill="#371A45"/>
</g>
<path d="M171.704 347.967C159.903 340.618 105.836 307.945 95.7605 316.879C78.1337 332.541 97.357 386.918 102.017 399.216" fill="#FFA124"/>
<g opacity="0.5">
<path d="M171.705 347.967L164.283 353.43C146.829 342.868 102.125 317.201 93.0637 325.257C91.4887 326.649 90.1942 328.363 89.1802 330.334C90.1726 324.721 92.2223 320.029 95.7606 316.901C105.815 307.945 159.903 340.618 171.705 347.967Z" fill="white"/>
</g>
<path d="M102.017 402.644C100.615 402.644 99.2988 401.787 98.781 400.416C92.74 384.475 74.5307 331.127 93.452 314.309C97.2492 310.923 105.361 308.888 134.596 323.221C151.467 331.491 168.662 342.011 173.517 345.032C175.135 346.039 175.631 348.16 174.617 349.767C173.603 351.374 171.467 351.867 169.849 350.86C165.059 347.882 148.101 337.512 131.532 329.37C103.549 315.637 98.5221 319.001 98.0475 319.408C85.5987 330.463 94.1424 368.642 105.232 397.995C105.901 399.773 104.995 401.744 103.204 402.408C102.837 402.58 102.427 402.644 102.017 402.644Z" fill="#371A45"/>
<path d="M102.169 333.141C102.169 333.141 99.4932 332.263 99.7953 338.519C100.313 349.253 105.599 376.055 118.307 385.482C118.307 385.482 136.128 357.651 141.047 354.352C145.966 351.052 135.135 347.881 131.964 344.046C128.792 340.233 104.153 332.134 102.169 333.141Z" fill="#F7528A"/>
<g opacity="0.3">
<path d="M141.025 354.373C138.156 356.302 130.928 366.521 125.383 374.748C117.94 362.686 114.66 344.604 114.272 336.248C114.272 336.162 114.272 336.055 114.25 335.969C121.715 338.433 130.194 341.904 131.942 344.046C135.135 347.903 145.944 351.095 141.025 354.373Z" fill="#371A45"/>
</g>
<path d="M117.292 387.689C115.049 387.689 113.021 386.596 111.791 384.711C109.331 380.94 106.57 375.52 103.614 368.599C97.7671 354.93 98.3496 341.775 99.2342 335.134C99.4499 333.441 100.399 331.92 101.845 330.956C103.29 330.013 105.059 329.713 106.742 330.163C114.445 332.22 133.797 338.283 147.088 350.067C147.692 350.602 148.015 351.352 147.994 352.145C147.972 352.938 147.584 353.666 146.958 354.159C146.829 354.245 134.466 364.1 123.053 384.347C121.91 386.361 119.86 387.603 117.53 387.689C117.444 387.689 117.357 387.689 117.292 387.689ZM105.167 335.326C105.016 335.326 104.908 335.369 104.844 335.434C104.736 335.498 104.606 335.626 104.585 335.841C103.787 341.925 103.226 354.009 108.576 366.521C111.424 373.163 114.013 378.305 116.322 381.819C116.645 382.29 117.077 382.354 117.336 382.354C117.595 382.354 118.048 382.247 118.328 381.754C127.325 365.793 136.753 356.13 141.133 352.124C128.857 342.375 112.222 337.212 105.34 335.369C105.275 335.326 105.21 335.326 105.167 335.326Z" fill="#371A45"/>
<path d="M94.2505 425.376C112.913 430.261 134.38 430.518 154.898 418.52C201.392 391.31 195.092 346.189 188.382 323.971C182.622 325.642 177.142 327.742 171.748 329.927C129.914 346.939 108.921 387.325 108.921 387.325C103.873 397.116 99.9031 405.965 97.0552 414.963C95.9549 418.413 95.0272 421.841 94.2505 425.376Z" fill="#FFA124"/>
<path d="M255.308 343.361C266.225 334.769 316.343 296.354 327.325 304.132C346.591 317.758 330.648 382.204 327.411 394.931" fill="white"/>
<g opacity="0.5">
<path d="M81.7154 492.264C81.9096 493.486 82.5784 494.15 83.5493 494.45C84.8869 490.143 86.7639 484.53 87.5406 478.895C91.1005 452.992 93.6032 439.623 93.97 437.695C93.9916 437.523 94.0131 437.459 94.0131 437.459C94.8761 432.853 96.0196 428.418 97.422 424.004C100.291 415.006 102.125 405.086 107.174 395.295C107.174 395.295 130.281 355.98 172.115 338.968C182.881 334.619 194.035 330.57 206.829 329.584C206.915 329.563 207.001 329.563 207.088 329.563C210.497 329.284 213.97 329.156 217.53 329.177C235.157 329.22 249.979 331.513 264.693 339.161L269.547 341.968C285.729 329.563 321.047 305.138 330.928 312.144C332.654 313.366 334.121 314.93 335.351 316.751C333.755 311.287 331.187 306.852 327.325 304.11C317.918 297.447 284.434 320.243 268.145 332.327L268.62 331.405C252.589 323.35 234.79 320.179 217.185 320.136C213.625 320.114 210.13 320.243 206.743 320.522C206.656 320.522 206.57 320.522 206.484 320.543C193.711 321.528 182.535 325.556 171.769 329.927C129.936 346.939 108.943 387.325 108.943 387.325C103.894 397.116 99.9247 405.964 97.0768 414.963C95.6528 419.376 94.5309 423.811 93.6464 428.418C93.6464 428.418 93.6248 428.504 93.6032 428.654C93.2364 430.582 90.7337 443.951 87.1739 469.854C85.8362 479.559 81.2407 489.158 81.7154 492.264Z" fill="white"/>
</g>
<path d="M322.773 321.015C322.773 321.015 325.319 319.858 325.729 326.114C326.419 336.826 324.132 364.057 312.568 374.834C312.568 374.834 291.748 349.124 286.505 346.403C281.263 343.661 291.662 339.333 294.38 335.155C297.099 330.977 320.68 320.222 322.773 321.015Z" fill="#F7528A"/>
<g opacity="0.3">
<path d="M286.484 346.382C289.548 347.989 297.876 357.351 304.305 364.914C310.346 352.124 311.619 333.784 311.079 325.449C311.079 325.364 311.079 325.257 311.058 325.171C303.917 328.449 295.891 332.82 294.359 335.134C291.64 339.311 281.241 343.661 286.484 346.382Z" fill="#371A45"/>
</g>
<path d="M312.525 376.484C310.54 376.484 308.706 375.562 307.519 373.934C293.992 355.252 280.723 346.896 280.594 346.81C279.925 346.382 279.472 345.696 279.342 344.903C279.234 344.111 279.472 343.318 280.011 342.739C291.813 329.67 310.238 321.55 317.616 318.658C319.386 317.972 321.37 318.036 323.096 318.85C324.801 319.665 326.117 321.164 326.699 322.964C328.404 328.299 329.547 338.047 325.448 354.223C324.067 359.686 322.039 365.107 319.407 370.356L318.026 373.099C317.055 375.027 315.178 376.291 313.021 376.462C312.87 376.484 312.697 376.484 312.525 376.484ZM311.899 370.806C312.115 371.106 312.438 371.149 312.589 371.127C312.784 371.106 313.043 371.02 313.194 370.72L314.574 367.978C317.034 363.072 318.932 358.015 320.205 352.916C324.197 337.147 322.751 328.385 321.543 324.571C321.37 324.035 320.982 323.778 320.766 323.692C320.551 323.585 320.119 323.457 319.58 323.65C312.999 326.221 297.163 333.184 286.117 344.111C290.907 347.603 301.263 356.109 311.899 370.806Z" fill="#371A45"/>
<path d="M211.295 553.283C185.146 553.283 170.151 548.869 168.684 548.419C144.822 542.163 129.137 534.472 116.235 522.752C116.171 522.688 112.848 519.474 111.813 518.017C111.769 517.953 107.605 512.275 102.686 513.111C93.4738 514.654 90.1512 511.804 89.0078 509.147C87.5191 505.719 89.0293 501.906 90.9495 497.085L91.0574 496.828C87.6054 498.049 84.1318 498.585 81.6291 497.364C79.8384 496.485 78.6518 494.857 78.3281 492.779C77.9614 490.508 78.9107 487.508 80.3346 482.987C81.5644 479.045 83.0962 474.16 83.765 469.404C87.4328 442.816 90.0002 429.189 90.2591 427.861C90.2807 427.754 90.2807 427.711 90.2807 427.711C91.1437 423.105 92.2871 418.584 93.7758 413.935C96.4727 405.45 100.205 396.752 105.858 385.782C106.742 384.068 127.929 344.068 170.432 326.778C180.572 322.686 192.503 318.229 206.095 317.158C206.225 317.136 206.397 317.137 206.57 317.115C210.022 316.837 213.582 316.708 217.185 316.729C233.668 316.772 252.956 321.314 268.102 328.663C290.216 311.459 318.091 293.398 329.353 301.346C351.662 317.137 334.984 379.526 332.072 389.703C337.207 399.473 341.263 411.599 343.463 418.841C344.326 419.805 344.693 421.219 344.909 422.119C345.254 423.447 345.75 425.504 346.376 428.204C347.908 434.781 350.195 444.937 353.15 458.327C354.186 463.041 356.149 467.819 357.703 471.654C359.494 476.003 360.659 478.895 360.508 481.166C360.357 483.266 359.321 484.98 357.616 486.008C355.222 487.422 351.727 487.187 348.167 486.244L348.275 486.48C350.583 491.129 352.417 494.814 351.209 498.349C349.634 503.02 343.377 503.963 338.803 504.648C333.711 505.419 325.362 515.253 320.853 520.545C318.803 522.966 317.293 524.723 316.171 525.709C308.361 533.915 286.894 548.184 230.561 552.533C223.571 553.069 217.163 553.283 211.295 553.283ZM120.939 517.739C132.956 528.666 147.8 535.864 170.518 541.821L170.691 541.863C170.906 541.928 192.654 548.591 230 545.698C286.138 541.349 305.427 527.016 311.166 520.974L311.597 520.46L311.834 520.353C312.611 519.603 314.1 517.846 315.545 516.153C323.204 507.155 330.669 498.97 337.724 497.899C342.579 497.171 344.175 496.528 344.628 496.1C344.758 495.05 343.118 491.75 342.018 489.543L341.759 489.029C339.947 485.366 339.17 482.987 338.868 481.895C338.479 480.502 338.954 478.981 340.054 478.06C341.133 477.138 342.665 476.924 343.96 477.503C348.533 479.538 352.007 480.288 353.452 480.224C353.15 478.96 352.093 476.389 351.23 474.267C349.569 470.197 347.476 465.119 346.311 459.827C342.039 440.416 339.903 431.118 338.825 426.661L338.436 426.747C338.393 426.597 332.87 405.686 325.232 391.781L324.542 390.517L324.974 389.125C331.575 367.999 340.81 317.993 325.254 306.981C319.515 302.91 297.034 314.63 270.561 335.433L268.814 336.805L266.829 335.776C252.33 328.32 233.28 323.671 217.077 323.607C213.625 323.585 210.216 323.714 206.915 323.971L206.699 323.993H206.678H206.635C194.013 324.957 183.075 329.027 172.956 333.12C132.848 349.424 112.115 388.525 111.899 388.91C106.419 399.537 102.837 407.893 100.248 416.013C98.8459 420.405 97.7672 424.669 96.9258 429.061L96.8826 429.275C96.559 431.032 94.0347 444.487 90.4749 470.347C89.7413 475.66 88.1016 480.866 86.8071 485.044C86.1167 487.251 85.2753 489.929 85.0811 491.236C86.5698 491.172 89.9355 490.165 94.3368 487.744C95.5881 487.058 97.12 487.144 98.285 487.979C99.4501 488.815 100.054 490.293 99.7737 491.707C99.5579 492.821 98.997 495.264 97.4867 499.056L97.271 499.592C96.3864 501.841 95.0487 505.184 95.2213 506.276C95.7607 506.555 97.6378 506.983 101.457 506.341C110.669 504.819 117.098 513.689 117.357 514.054C117.854 514.632 119.752 516.582 120.939 517.739Z" fill="#371A45"/>
<g opacity="0.3">
<path d="M171.726 491.815C177.271 495.307 183.075 492.929 185.772 489.629C185.772 489.629 191.036 497.749 199.882 493.7C205.405 491.172 203.442 483.716 203.442 483.716L170.367 482.538C170.367 482.538 167.433 489.094 171.726 491.815Z" fill="#371A45"/>
</g>
<path d="M171.705 480.266C171.705 480.266 168.987 486.308 172.956 488.793C178.07 492.028 183.42 488.001 185.901 484.958C185.901 484.958 191.187 493.785 198.911 490.529C204.089 488.365 202.19 481.337 202.19 481.337" fill="white"/>
<path d="M172.05 480.395C172.007 482.409 172.115 484.423 172.784 485.665C173.129 486.265 173.496 486.608 173.992 486.865L174.165 486.972L174.423 487.08C174.596 487.144 174.769 487.229 174.941 487.294C175.286 487.379 175.61 487.508 175.955 487.551C177.271 487.808 178.738 487.508 180.249 486.822C181.737 486.094 183.161 484.958 184.262 483.609L186.139 481.295L187.822 483.866C188.253 484.53 188.922 485.366 189.591 486.008C190.26 486.672 190.993 487.251 191.748 487.722C193.28 488.601 194.833 489.072 196.365 488.836L196.948 488.772C197.142 488.729 197.336 488.665 197.53 488.601L198.113 488.429C198.264 488.365 198.415 488.301 198.587 488.236C199.17 487.936 199.623 487.508 200.055 486.908C200.918 485.665 201.435 483.652 201.888 481.445V481.402C201.932 481.188 202.126 481.059 202.342 481.102C202.428 481.123 202.514 481.166 202.579 481.252C203.334 482.259 203.765 483.394 204.003 484.616C204.219 485.837 204.175 487.208 203.701 488.558C203.226 489.929 202.19 491.193 200.918 492.029L199.947 492.586C199.623 492.736 199.321 492.821 198.997 492.95C198.674 493.057 198.35 493.186 198.027 493.271L196.991 493.464C196.3 493.614 195.589 493.55 194.877 493.571C194.186 493.507 193.474 493.4 192.805 493.207C191.446 492.843 190.281 492.2 189.181 491.493C188.124 490.743 187.196 489.908 186.354 489.008C185.513 488.086 184.801 487.208 184.067 486.051L187.606 486.308C186.139 488.065 184.434 489.586 182.363 490.786C181.306 491.365 180.162 491.857 178.889 492.114C177.638 492.393 176.236 492.371 174.941 492.05C174.272 491.922 173.668 491.643 173.086 491.386C172.805 491.236 172.525 491.065 172.244 490.893L171.834 490.636C171.705 490.529 171.554 490.422 171.403 490.293C170.238 489.372 169.461 487.937 169.289 486.608C169.073 485.28 169.289 484.037 169.677 482.966C170.065 481.895 170.626 480.931 171.381 480.095C171.511 479.945 171.77 479.924 171.921 480.074C172.007 480.159 172.05 480.245 172.05 480.352V480.395Z" fill="#371A45"/>
<g opacity="0.3">
<path d="M198.933 490.55C191.209 493.785 185.923 484.98 185.923 484.98C183.442 488.022 178.091 492.028 172.978 488.815C170.389 487.186 171.77 482.687 172.266 480.716C172.546 481.766 172.978 483.801 173.604 484.744C176.02 488.386 182.449 482.066 184.931 479.023C184.931 479.023 192.05 491.043 199.084 486.544C201.047 485.301 201.155 482.623 201.565 480.995C201.824 483.03 202.816 488.9 198.933 490.55Z" fill="#371A45"/>
</g>
<path d="M186.613 474.803C186.548 475.574 186.505 476.431 186.505 477.245C186.505 478.06 186.527 478.874 186.613 479.666C186.699 480.438 186.807 481.209 186.98 481.916C187.153 482.602 187.411 483.223 187.692 483.651C188.512 484.851 188.21 486.48 187.002 487.294C185.793 488.108 184.154 487.808 183.334 486.608C183.183 486.394 183.075 486.158 182.989 485.923L182.902 485.665C182.536 484.487 182.471 483.437 182.449 482.43C182.449 481.423 182.557 480.481 182.687 479.559C182.838 478.638 183.032 477.76 183.247 476.881C183.485 476.003 183.722 475.167 184.046 474.289C184.283 473.603 185.038 473.26 185.707 473.496C186.29 473.689 186.635 474.246 186.57 474.824L186.613 474.803Z" fill="#371A45"/>
<path d="M198.07 470.625C198.07 473.925 188.814 478.767 185.168 478.852C181.522 478.917 172.266 473.625 172.676 470.454C172.827 469.34 176.149 465.719 186.441 465.869C194.833 465.976 198.07 469.297 198.07 470.625Z" fill="#371A45"/>
<g opacity="0.7">
<path d="M187.778 469.576C188.231 470.861 185.728 471.911 183.269 471.975C182.212 471.997 179.083 471.525 178.803 470.561C178.501 469.618 179.515 468.804 183.01 468.676C186.289 468.569 187.476 468.719 187.778 469.576Z" fill="white"/>
<path d="M183.247 472.511C182.557 472.511 178.76 472.211 178.285 470.732C178.155 470.282 178.22 469.833 178.479 469.468C179.062 468.676 180.529 468.247 182.988 468.161C186.246 468.054 187.821 468.14 188.274 469.404C188.447 469.854 188.36 470.325 188.08 470.754C187.282 471.911 185.038 472.489 183.29 472.532C183.29 472.511 183.269 472.511 183.247 472.511ZM184.563 469.19C184.11 469.19 183.614 469.19 183.031 469.211C180.205 469.297 179.515 469.832 179.364 470.068C179.321 470.132 179.277 470.24 179.321 470.411C179.493 470.882 181.931 471.482 183.247 471.439C185.146 471.397 186.785 470.732 187.174 470.132C187.303 469.961 187.282 469.832 187.239 469.747C187.131 469.361 186.397 469.19 184.563 469.19Z" fill="#371A45"/>
</g>
<path d="M128.965 463.833C128.9 461.605 129.31 459.548 129.979 457.449C130.669 455.37 131.726 453.335 133.215 451.514C134.682 449.671 136.753 448.107 139.105 447.165C139.709 446.95 140.292 446.65 140.896 446.543L142.751 446.179C143.377 446.051 143.981 446.115 144.607 446.072C145.211 446.072 145.858 446.029 146.419 446.136C147.584 446.308 148.749 446.393 149.892 446.779C150.475 446.95 151.036 447.1 151.597 447.315L153.237 448.064C155.351 449.2 157.314 450.7 158.717 452.564C160.162 454.385 161.176 456.442 161.823 458.52C162.471 460.62 162.816 462.719 162.708 464.926C162.686 465.547 162.169 466.019 161.543 465.976C161.09 465.954 160.723 465.676 160.551 465.29L160.507 465.183C159.105 461.691 157.12 458.413 154.639 456.185C152.158 453.935 149.159 452.842 145.836 452.607C145.426 452.521 145.06 452.607 144.671 452.585C144.283 452.607 143.895 452.564 143.528 452.649C143.161 452.714 142.794 452.778 142.428 452.842C142.061 452.885 141.737 453.057 141.37 453.164C140.011 453.656 138.652 454.363 137.444 455.478C134.984 457.641 132.891 460.855 131.057 464.219L131.014 464.305C130.712 464.84 130.043 465.055 129.482 464.755C129.202 464.583 128.986 464.219 128.965 463.833Z" fill="#371A45"/>
<path d="M243.312 465.333C241.478 461.969 239.407 458.734 236.926 456.592C235.718 455.478 234.359 454.77 232.999 454.278C232.633 454.192 232.331 454.021 231.942 453.956C231.575 453.892 231.209 453.849 230.842 453.764C230.475 453.678 230.087 453.742 229.698 453.699C229.31 453.699 228.943 453.635 228.533 453.721C225.211 453.956 222.212 455.028 219.731 457.299C217.25 459.527 215.265 462.805 213.862 466.297L213.819 466.404C213.582 466.983 212.935 467.24 212.374 467.026C211.964 466.854 211.683 466.469 211.683 466.04C211.575 463.812 211.942 461.734 212.568 459.634C213.215 457.534 214.251 455.499 215.675 453.678C217.077 451.814 219.04 450.293 221.155 449.179L222.794 448.429C223.355 448.214 223.938 448.064 224.499 447.893C225.642 447.507 226.807 447.422 227.972 447.25C228.533 447.143 229.181 447.207 229.785 447.186C230.41 447.207 231.014 447.165 231.64 447.293L233.496 447.657C234.121 447.765 234.704 448.064 235.286 448.279C237.638 449.221 239.709 450.785 241.176 452.628C242.665 454.471 243.722 456.506 244.413 458.563C245.081 460.662 245.491 462.719 245.427 464.947C245.405 465.569 244.887 466.061 244.262 466.04C243.852 466.019 243.485 465.783 243.312 465.462V465.333Z" fill="#371A45"/>
<path d="M339.885 196.783C347.544 189.178 347.544 176.847 339.885 169.241C332.227 161.636 319.809 161.636 312.151 169.241C304.492 176.847 304.492 189.178 312.151 196.783C319.809 204.389 332.227 204.389 339.885 196.783Z" fill="#86CC2B"/>
<path d="M326.031 203.048C314.919 203.048 305.858 194.071 305.858 183.016C305.858 171.982 314.898 162.983 326.031 162.983C337.163 162.983 346.203 171.96 346.203 183.016C346.182 194.071 337.142 203.048 326.031 203.048ZM326.031 164.098C315.524 164.098 306.98 172.582 306.98 183.016C306.98 193.45 315.524 201.934 326.031 201.934C336.538 201.934 345.081 193.45 345.081 183.016C345.081 172.582 336.516 164.098 326.031 164.098Z" fill="#371A45"/>
<g opacity="0.5">
<path d="M345.621 183.016C345.621 184.151 345.534 185.287 345.319 186.358C343.722 177.188 335.696 170.225 326.009 170.225C316.322 170.225 308.274 177.188 306.699 186.358C306.505 185.287 306.397 184.151 306.397 183.016C306.397 172.261 315.178 163.541 326.009 163.541C336.861 163.541 345.621 172.261 345.621 183.016Z" fill="white"/>
</g>
<g opacity="0.3">
<path d="M345.621 183.016C345.621 193.771 336.84 202.491 326.009 202.491C315.178 202.491 306.397 193.771 306.397 183.016C306.397 180.231 307.002 177.552 308.059 175.153C311.101 182.009 317.983 186.787 326.009 186.787C334.035 186.787 340.917 182.009 343.96 175.153C345.038 177.574 345.621 180.231 345.621 183.016Z" fill="#371A45"/>
</g>
<path d="M326.03 205.919C313.323 205.919 302.967 195.657 302.967 183.016C302.967 170.375 313.301 160.113 326.03 160.113C338.738 160.113 349.094 170.397 349.094 183.016C349.094 195.635 338.738 205.919 326.03 205.919ZM326.03 166.969C317.12 166.969 309.871 174.168 309.871 183.016C309.871 191.865 317.12 199.063 326.03 199.063C334.941 199.063 342.19 191.865 342.19 183.016C342.169 174.168 334.919 166.969 326.03 166.969Z" fill="#371A45"/>
<path d="M309.347 213.107C317.006 205.502 317.006 193.171 309.347 185.565C301.689 177.96 289.271 177.96 281.613 185.565C273.954 193.171 273.954 205.502 281.613 213.107C289.271 220.713 301.689 220.713 309.347 213.107Z" fill="#86CC2B"/>
<path d="M295.48 219.353C284.369 219.353 275.308 210.376 275.308 199.32C275.308 188.287 284.348 179.288 295.48 179.288C306.613 179.288 315.653 188.265 315.653 199.32C315.631 210.376 306.591 219.353 295.48 219.353ZM295.48 180.402C284.973 180.402 276.43 188.886 276.43 199.32C276.43 209.754 284.973 218.239 295.48 218.239C305.987 218.239 314.531 209.754 314.531 199.32C314.531 188.908 305.987 180.402 295.48 180.402Z" fill="#371A45"/>
<g opacity="0.5">
<path d="M315.092 199.342C315.092 200.478 315.006 201.613 314.79 202.684C313.193 193.514 305.167 186.551 295.48 186.551C285.793 186.551 277.746 193.514 276.171 202.684C275.977 201.613 275.869 200.478 275.869 199.342C275.869 188.587 284.65 179.867 295.48 179.867C306.311 179.867 315.092 188.587 315.092 199.342Z" fill="white"/>
</g>
<g opacity="0.3">
<path d="M315.092 199.342C315.092 210.097 306.311 218.817 295.48 218.817C284.65 218.817 275.869 210.097 275.869 199.342C275.869 196.557 276.473 193.879 277.53 191.479C280.572 198.335 287.454 203.113 295.48 203.113C303.506 203.113 310.389 198.335 313.431 191.479C314.488 193.879 315.092 196.535 315.092 199.342Z" fill="#371A45"/>
</g>
<path d="M295.481 222.245C282.773 222.245 272.417 211.961 272.417 199.342C272.417 186.722 282.751 176.438 295.481 176.438C308.188 176.438 318.544 186.701 318.544 199.342C318.544 211.983 308.188 222.245 295.481 222.245ZM295.481 183.294C286.57 183.294 279.321 190.493 279.321 199.342C279.321 208.19 286.57 215.389 295.481 215.389C304.391 215.389 311.64 208.19 311.64 199.342C311.64 190.493 304.391 183.294 295.481 183.294Z" fill="#371A45"/>
<path d="M359.45 216.76C370.281 216.76 379.062 208.041 379.062 197.285C379.062 186.529 370.281 177.81 359.45 177.81C348.619 177.81 339.838 186.529 339.838 197.285C339.838 208.041 348.619 216.76 359.45 216.76Z" fill="#86CC2B"/>
<path d="M359.407 217.317C354.768 217.317 350.302 215.732 346.656 212.775C342.492 209.39 339.903 204.591 339.385 199.256C338.846 193.943 340.443 188.715 343.873 184.601C347.282 180.466 352.115 177.895 357.487 177.381C362.859 176.867 368.102 178.431 372.266 181.837C376.43 185.223 379.019 190.022 379.537 195.357C380.076 200.67 378.479 205.898 375.049 210.011C371.64 214.146 366.807 216.717 361.435 217.232C360.745 217.274 360.076 217.317 359.407 217.317ZM359.472 178.367C358.846 178.367 358.199 178.388 357.573 178.452C352.503 178.945 347.951 181.366 344.715 185.287C341.478 189.208 339.99 194.114 340.486 199.149C340.982 204.184 343.42 208.704 347.368 211.918C351.295 215.132 356.257 216.61 361.327 216.117C366.397 215.625 370.95 213.204 374.186 209.283C377.422 205.362 378.911 200.456 378.415 195.421C377.918 190.386 375.48 185.865 371.532 182.652C368.08 179.866 363.873 178.367 359.472 178.367Z" fill="#371A45"/>
<g opacity="0.5">
<path d="M378.954 195.378C379.062 196.514 379.083 197.649 378.997 198.742C376.516 189.786 367.821 183.637 358.177 184.58C348.533 185.523 341.219 193.236 340.55 202.513C340.248 201.463 340.033 200.349 339.925 199.213C338.868 188.501 346.742 178.967 357.508 177.917C368.296 176.846 377.897 184.687 378.954 195.378Z" fill="white"/>
</g>
<g opacity="0.3">
<path d="M378.954 195.378C380.012 206.091 372.137 215.603 361.371 216.653C350.583 217.703 341.004 209.883 339.947 199.192C339.666 196.407 339.99 193.707 340.81 191.2C344.499 197.713 351.835 201.806 359.817 201.034C367.8 200.263 374.186 194.821 376.538 187.708C377.832 190 378.674 192.593 378.954 195.378Z" fill="#371A45"/>
</g>
<path d="M359.407 220.189C354.099 220.189 348.986 218.389 344.822 214.982C340.054 211.104 337.098 205.62 336.494 199.535C335.89 193.45 337.702 187.494 341.608 182.759C345.513 178.024 351.036 175.089 357.185 174.489C363.312 173.889 369.31 175.689 374.078 179.567C378.846 183.445 381.802 188.93 382.406 195.036C383.01 201.12 381.198 207.077 377.293 211.811C373.388 216.546 367.864 219.482 361.715 220.081C360.939 220.146 360.162 220.189 359.407 220.189ZM359.472 181.238C358.932 181.238 358.393 181.259 357.854 181.324C353.56 181.752 349.677 183.809 346.937 187.108C344.197 190.408 342.924 194.586 343.355 198.849C343.787 203.113 345.858 206.969 349.18 209.69C352.524 212.411 356.71 213.675 361.003 213.247C365.297 212.818 369.18 210.762 371.92 207.462C374.66 204.141 375.933 199.985 375.502 195.721C375.07 191.458 372.999 187.601 369.677 184.902C366.786 182.502 363.204 181.238 359.472 181.238Z" fill="#371A45"/>
<path d="M337.501 222.782C345.16 215.177 345.16 202.846 337.501 195.24C329.842 187.635 317.425 187.635 309.766 195.24C302.108 202.846 302.108 215.177 309.766 222.782C317.425 230.388 329.842 230.388 337.501 222.782Z" fill="#86CC2B"/>
<path d="M323.636 229.037C312.524 229.037 303.463 220.06 303.463 209.005C303.463 197.971 312.503 188.972 323.636 188.972C334.768 188.972 343.808 197.949 343.808 209.005C343.808 220.038 334.768 229.037 323.636 229.037ZM323.636 190.086C313.128 190.086 304.585 198.571 304.585 209.005C304.585 219.439 313.128 227.923 323.636 227.923C334.143 227.923 342.686 219.439 342.686 209.005C342.708 198.571 334.143 190.086 323.636 190.086Z" fill="#371A45"/>
<g opacity="0.5">
<path d="M343.247 209.005C343.247 210.14 343.161 211.276 342.945 212.347C341.349 203.177 333.323 196.214 323.636 196.214C313.948 196.214 305.901 203.177 304.326 212.347C304.132 211.276 304.024 210.14 304.024 209.005C304.024 198.249 312.805 189.529 323.636 189.529C334.466 189.529 343.247 198.249 343.247 209.005Z" fill="white"/>
</g>
<g opacity="0.3">
<path d="M343.247 209.005C343.247 219.76 334.466 228.48 323.636 228.48C312.805 228.48 304.024 219.76 304.024 209.005C304.024 206.219 304.628 203.541 305.685 201.142C308.727 207.998 315.61 212.775 323.636 212.775C331.661 212.775 338.544 207.998 341.586 201.142C342.665 203.541 343.247 206.219 343.247 209.005Z" fill="#371A45"/>
</g>
<path d="M323.636 231.908C310.928 231.908 300.572 221.645 300.572 209.004C300.572 196.364 310.907 186.101 323.636 186.101C336.365 186.101 346.7 196.385 346.7 209.004C346.7 221.624 336.365 231.908 323.636 231.908ZM323.636 192.957C314.725 192.957 307.476 200.156 307.476 209.004C307.476 217.853 314.725 225.052 323.636 225.052C332.546 225.052 339.796 217.853 339.796 209.004C339.796 200.156 332.546 192.957 323.636 192.957Z" fill="#371A45"/>
<g opacity="0.3">
<path d="M153.064 324.035C151.446 322.621 150.173 320.458 150.216 317.844C150.216 315.23 151.963 312.552 154.466 311.395C156.947 310.174 160.097 310.452 162.19 312.016C164.326 313.537 165.362 315.873 165.426 318.058C165.448 318.401 165.167 318.679 164.822 318.701C164.65 318.701 164.477 318.636 164.369 318.529L164.348 318.508C162.902 317.072 161.543 315.958 160.184 315.508C158.846 315.037 157.573 315.123 156.451 315.594C155.351 316.108 154.445 317.008 154.013 318.358C153.797 319.022 153.689 319.815 153.711 320.672C153.733 321.529 153.884 322.45 154.056 323.457V323.5C154.121 323.843 153.884 324.143 153.56 324.207C153.366 324.207 153.193 324.143 153.064 324.035Z" fill="#371A45"/>
</g>
<g opacity="0.3">
<path d="M359.515 377.277C361.78 378.605 363.808 380.94 364.326 384.09C364.585 385.654 364.413 387.346 363.744 388.889C363.096 390.432 362.018 391.824 360.658 392.81C357.94 394.824 354.078 395.188 351.209 393.774C348.274 392.424 346.527 389.832 345.944 387.218C345.858 386.811 346.117 386.404 346.527 386.318C346.743 386.275 346.937 386.318 347.109 386.425L347.153 386.468C348.231 387.154 349.159 387.796 350.108 388.268C351.058 388.739 351.985 389.018 352.827 389.168C354.553 389.425 356.063 389.039 357.314 388.225C358.523 387.368 359.407 386.082 359.644 384.368C359.752 383.511 359.709 382.547 359.493 381.497C359.278 380.448 358.868 379.398 358.458 378.219L358.436 378.177C358.285 377.791 358.501 377.362 358.889 377.212C359.084 377.148 359.321 377.17 359.515 377.277Z" fill="#371A45"/>
</g>
<g opacity="0.3">
<path d="M235.222 310.238C235.092 307.71 235.869 304.86 238.134 302.761C239.256 301.732 240.723 300.939 242.32 300.639C243.916 300.318 245.599 300.447 247.131 301.004C250.216 302.075 252.568 304.946 252.978 307.988C253.453 311.031 252.309 313.816 250.518 315.68C250.238 315.98 249.785 315.98 249.483 315.701C249.332 315.551 249.267 315.38 249.245 315.187V315.123C249.224 313.902 249.245 312.83 249.094 311.802C248.965 310.795 248.706 309.916 248.361 309.145C247.649 307.645 246.527 306.638 245.189 306.081C243.83 305.589 242.341 305.567 240.831 306.317C240.076 306.681 239.321 307.238 238.609 307.988C237.897 308.717 237.25 309.617 236.538 310.581L236.516 310.624C236.279 310.945 235.826 311.009 235.502 310.773C235.33 310.645 235.243 310.431 235.222 310.238Z" fill="#371A45"/>
</g>
<g opacity="0.3">
<path d="M230.259 567.402C229.698 569.673 228.209 571.987 225.62 573.251C224.347 573.872 222.837 574.151 221.327 574.001C219.838 573.851 218.371 573.294 217.163 572.394C214.725 570.616 213.409 567.423 213.884 564.617C214.293 561.788 216.084 559.625 218.155 558.468C218.479 558.275 218.889 558.403 219.083 558.725C219.169 558.896 219.191 559.089 219.148 559.26V559.282C218.457 561.403 218.048 563.267 218.285 564.809C218.501 566.331 219.213 567.53 220.248 568.387C221.305 569.201 222.643 569.609 224.175 569.373C224.952 569.244 225.771 568.966 226.613 568.494C227.454 568.045 228.253 567.423 229.159 566.759L229.202 566.738C229.504 566.523 229.914 566.588 230.151 566.866C230.259 566.995 230.302 567.209 230.259 567.402Z" fill="#371A45"/>
</g>
</svg>
