<svg width="705" height="661" viewBox="0 0 705 661" fill="none" xmlns="http://www.w3.org/2000/svg">
<ellipse cx="392" cy="349.5" rx="313" ry="299.5" fill="#B0A2D7"/>
<g clip-path="url(#clip0_248_9792)">
<path d="M349.844 382.425C349.844 382.425 333.549 396.963 306.124 407.154C291.326 412.661 273.282 416.881 252.813 416.859C171.107 416.796 145.22 369.998 145.22 369.998L169.483 287.31C177.03 301.699 186.368 312.397 196.74 320.225C225.662 342.062 262.594 341.493 290.82 336.176C315.653 331.513 333.718 323.178 333.718 323.178L344.364 362.36L349.844 382.425Z" fill="#8C8CAA"/>
<path d="M344.406 362.381C320.902 356.979 301.887 347.674 290.841 336.196C315.674 331.533 333.739 323.199 333.739 323.199L344.406 362.381Z" fill="#6C709E"/>
<path d="M445.19 361.052C429.401 365.229 411.314 367.571 392.089 367.571C358.466 367.571 328.322 360.334 307.832 348.898C314.072 334.825 321.281 319.57 329.544 303.007L439.203 293.935C434.481 307.185 439.013 332.589 445.19 361.052Z" fill="#7C7C7C"/>
<path d="M469.621 352.338C458.765 357.444 445.801 361.474 431.445 364.111L420.02 332.947C420.02 332.947 433.216 336.935 450.038 343.75C456.214 346.24 462.918 349.13 469.621 352.338Z" fill="#7C7C7C"/>
<path d="M441.585 361.959C426.681 365.567 409.881 367.571 392.11 367.571C363.146 367.571 336.775 362.212 316.939 353.414C306.42 326.744 309.919 317.84 309.919 317.84C309.919 317.84 464.351 304.885 468.399 324.74C470.718 336.091 455.097 346.092 441.585 361.959Z" fill="#E8E8E8"/>
<path d="M306.145 407.154C291.347 412.661 273.303 416.881 252.834 416.859C171.128 416.796 145.241 369.998 145.241 369.998L169.504 287.31C177.051 301.699 186.39 312.397 196.761 320.225C199.733 349.7 201.483 389.409 235.337 398.081C267.084 406.204 294.994 379.556 294.994 379.556L306.145 407.154Z" fill="#6C709E"/>
<path d="M252.982 421.016C252.939 421.016 252.876 421.016 252.834 421.016C209.557 420.974 181.731 407.829 166.026 396.815C148.762 384.704 141.911 372.551 141.616 372.023L140.772 370.504L168.408 276.338L173.151 285.39C191.849 321.09 224.123 337.716 269.002 334.825C303.026 332.631 331.716 319.549 331.99 319.423C334.056 318.473 336.522 319.381 337.471 321.448C338.419 323.516 337.513 325.985 335.447 326.934C334.224 327.504 305.049 340.775 269.529 343.075C225.451 345.924 191.491 330.268 170.727 297.733L149.71 369.386C151.945 372.72 158.564 381.56 171.17 390.317C185.863 400.529 211.981 412.682 252.813 412.724C252.855 412.724 252.897 412.724 252.961 412.724C309.012 412.724 346.704 379.661 347.083 379.324C348.791 377.805 351.404 377.952 352.922 379.661C354.44 381.37 354.292 383.987 352.585 385.506C350.983 386.962 312.153 421.016 252.982 421.016Z" fill="#000072"/>
<path d="M182.743 407.407L166.701 408.99C163.307 409.327 160.293 406.859 159.955 403.462L157.869 382.426L153.737 340.691L145.199 254.564L140.035 202.533C139.697 199.136 142.164 196.118 145.558 195.781L161.6 194.198C164.994 193.861 168.008 196.329 168.345 199.726L173.51 251.757L181.963 336.893L185.589 373.458L188.287 400.634C188.624 404.052 186.137 407.07 182.743 407.407Z" fill="#D3D3D3"/>
<path d="M185.568 373.479C179.581 375.294 172.203 375.378 166.912 375.505C162.19 375.61 159.449 378.986 157.889 382.425L153.758 340.691C163.286 339.362 174.121 337.927 181.963 336.893L185.568 373.479Z" fill="#AFAFAF"/>
<path d="M173.51 251.757L145.199 254.585L140.035 202.554C139.697 199.157 142.164 196.139 145.558 195.802L161.6 194.219C164.994 193.882 168.008 196.35 168.345 199.747L173.51 251.757Z" fill="#AFAFAF"/>
<path d="M166.09 413.167C163.708 413.167 161.431 412.365 159.576 410.825C157.447 409.074 156.119 406.605 155.866 403.862L135.945 202.933C135.376 197.278 139.529 192.215 145.178 191.666L161.22 190.063C166.891 189.514 171.929 193.649 172.477 199.304L192.398 400.233C192.967 405.888 188.814 410.951 183.165 411.5L167.123 413.104C166.764 413.146 166.427 413.167 166.09 413.167ZM162.211 198.312C162.148 198.312 162.085 198.312 162 198.312L145.958 199.916C144.841 200.021 144.019 201.034 144.145 202.131L164.066 403.06C164.129 403.799 164.551 404.242 164.804 404.432C165.057 404.622 165.542 404.959 166.301 404.875L182.342 403.271C183.46 403.166 184.282 402.153 184.155 401.056L164.235 200.127C164.129 199.093 163.244 198.312 162.211 198.312Z" fill="#000072"/>
<path d="M205.172 319.929C202.01 328.285 196.213 334.066 187.086 331.027C167.797 324.613 175.576 283.28 175.576 283.28C175.576 283.28 182.764 278.87 190.838 279.334C195.707 279.608 200.914 281.655 205.088 287.499C208.84 292.753 209.43 308.683 205.172 319.929Z" fill="white"/>
<path d="M205.172 319.929C202.01 328.285 196.213 334.066 187.086 331.027C167.797 324.613 175.576 283.28 175.576 283.28C175.576 283.28 182.764 278.87 190.838 279.334C193.726 283.87 197.752 292.838 199.101 308.747C199.734 316.005 202.369 319.106 205.172 319.929Z" fill="#D3D4E2"/>
<path d="M191.829 335.986C189.889 335.986 187.866 335.648 185.779 334.952C163.708 327.609 170.664 287.099 171.529 282.499L171.866 280.705L173.426 279.756C180.951 275.135 197.942 270.325 208.461 285.094C214.321 293.323 213.604 317.313 205.151 328.749C201.631 333.517 197.035 335.986 191.829 335.986ZM179.328 285.98C177.473 297.648 176.145 323.031 188.393 327.103C192.672 328.517 195.792 327.525 198.511 323.833C205.299 314.633 205.025 294.504 201.736 289.884C194.632 279.925 183.46 283.976 179.328 285.98Z" fill="#000072"/>
<path d="M191.66 330.816C191.449 339.383 190.585 346.008 189.214 348.371C181.605 361.664 166.005 360.271 159.365 360.166C156.14 366.495 157.763 385.358 157.763 385.358C157.763 385.358 134.891 368.605 133.626 336.492C133.521 333.939 133.563 331.281 133.753 328.538C137.315 278.153 152.303 272.139 166.553 272.013C175.344 271.928 185.757 277.688 188.266 289.778C191.006 303.05 191.976 318.832 191.66 330.816Z" fill="white"/>
<path d="M191.66 330.816C191.449 339.383 190.585 346.008 189.215 348.371C181.605 361.664 166.005 360.271 159.365 360.166C156.14 366.495 157.763 385.358 157.763 385.358C157.763 385.358 134.891 368.605 133.626 336.492C151.566 345.164 182.005 347.274 191.66 330.816Z" fill="#D3D4E2"/>
<path d="M162.675 394.072L155.339 388.692C154.18 387.848 126.881 367.382 129.642 328.242C133.374 275.325 150.385 268.025 166.532 267.856C166.617 267.856 166.68 267.856 166.764 267.856C177.347 267.856 189.468 275.051 192.334 288.913C196.846 310.751 197.099 342.927 192.84 350.397C185.062 364.006 170.496 364.512 162.338 364.343C161.262 369.365 161.389 378.796 161.916 384.957L162.675 394.072ZM166.743 276.148C166.68 276.148 166.638 276.148 166.596 276.148C157.848 276.232 141.574 276.38 137.885 328.833C136.283 351.536 146.064 367.107 153.21 375.294C153.21 369.259 153.695 362.233 155.697 358.309L156.857 356.009L159.429 356.051C159.892 356.051 160.398 356.072 160.946 356.093C170.053 356.325 180.235 355.798 185.631 346.324C187.781 342.569 189.215 314.886 184.198 290.622C182.153 280.663 173.763 276.148 166.743 276.148Z" fill="#000072"/>
<path d="M149.331 359.511C149.331 359.511 154.39 359.089 159.365 360.187Z" fill="white"/>
<path d="M149.163 357.444C152.936 356.494 156.541 355.988 160.483 356.136C166.09 356.515 165.774 364.66 160.166 364.618C158.037 364.364 156.372 363.035 154.18 362.571C152.62 362.107 150.912 361.748 149.331 361.516C147.118 361.178 147.012 357.992 149.163 357.444Z" fill="#000072"/>
<path d="M442.47 559.702C498.817 592.005 552.318 562.508 560.434 517.862C562.036 509.085 561.847 499.738 559.633 490.137C558.326 484.504 556.303 478.828 553.478 473.089C551.011 468.025 548.461 462.962 545.994 457.898C537.394 440.174 529.678 422.514 528.308 406.014C527.655 398.187 528.435 390.612 531.259 383.438C532.756 379.661 535.159 376.391 538.11 373.775C541.61 370.694 545.889 368.563 550.274 367.614C552.234 367.192 554.237 367.023 556.197 367.107C568.887 367.635 580.397 379.134 575.759 407.787C569.246 448.044 612.966 460.62 629.029 426.101C629.746 424.561 630.378 422.957 630.968 421.269C631.158 420.678 631.369 420.088 631.558 419.476C641.593 387.342 629.429 331.681 579.828 320.014C577.551 319.465 575.19 319.022 572.745 318.684C569.393 318.22 566.105 317.925 562.88 317.861C556.893 317.693 551.117 318.178 545.636 319.254C505.331 327.145 479.972 366.854 492.683 416.67C499.513 443.402 527.128 493.809 515.428 518.136C511.718 525.859 500.377 531.851 486.907 531.218C486.57 531.218 486.211 531.197 485.853 531.176C476.156 530.479 465.426 526.323 455.772 516.891L442.47 559.702Z" fill="#8C8CAA"/>
<path d="M442.47 559.702C498.817 592.005 552.318 562.508 560.434 517.862C553.625 540.396 516.798 554.976 486.928 531.239C486.591 531.239 486.232 531.218 485.874 531.176C476.156 530.48 465.447 526.323 455.793 516.892L442.47 559.702Z" fill="#6C709E"/>
<path d="M513.573 392.447C516.04 422.429 536.677 447.854 545.973 457.897C537.373 440.174 529.657 422.514 528.287 406.014C527.634 398.186 528.414 390.612 531.238 383.438C532.714 379.64 535.117 376.37 538.09 373.774C543.149 369.322 549.81 366.833 556.176 367.107C568.866 367.634 580.376 379.134 575.738 407.787C569.225 448.044 612.945 460.619 629.008 426.101C629.725 424.56 630.357 422.957 630.947 421.269C622.874 427.346 602.679 437.769 591.485 425.32C575.738 407.787 597.198 378.522 576.497 356.958C560.751 340.543 510.369 353.561 513.573 392.447Z" fill="#6C709E"/>
<path d="M545.236 352.928C545.636 353.35 550.738 352.021 550.611 352.57C550.021 355.017 548.904 359.955 550.295 367.635C550.316 367.635 550.337 367.635 550.379 367.635C550.759 367.55 551.138 367.466 551.518 367.424C551.855 367.36 552.192 367.318 552.529 367.276C552.803 367.255 553.077 367.213 553.33 367.192C553.583 367.171 553.836 367.149 554.089 367.149C554.806 367.107 555.502 367.107 556.218 367.149C568.909 367.677 580.418 379.176 575.781 407.829C569.267 448.086 612.987 460.662 629.05 426.143C629.767 424.603 630.399 422.999 630.989 421.311C622.916 427.388 602.721 437.811 591.506 425.341C575.76 407.808 597.219 378.543 576.519 356.98C569.942 350.122 557.336 348.392 545.109 351.536C544.962 352.169 544.962 352.654 545.236 352.928Z" fill="#686868"/>
<path d="M550.274 367.614C552.234 367.192 554.237 367.023 556.197 367.107C568.888 367.635 580.397 379.134 575.76 407.787C569.246 448.044 612.966 460.619 629.029 426.101C629.746 424.561 630.378 422.957 630.968 421.269C631.158 420.678 631.369 420.088 631.559 419.476C641.593 387.341 629.43 331.681 579.828 320.013C577.552 319.465 575.191 319.022 572.745 318.684C569.394 318.22 566.105 317.925 562.88 317.861C559.612 319.908 551.433 327.884 549.157 336.239C548.883 337.273 554.111 335.268 553.689 336.365C552.319 340.058 543.507 351.114 545.215 352.907C545.615 353.329 550.717 352 550.59 352.549C550 355.017 548.883 359.955 550.274 367.614Z" fill="white"/>
<path d="M545.236 352.928C545.636 353.35 550.738 352.021 550.611 352.57C550.021 355.017 548.904 359.955 550.295 367.635C550.316 367.635 550.337 367.635 550.379 367.635C550.759 367.55 551.138 367.487 551.518 367.424C551.855 367.36 552.192 367.318 552.529 367.276C552.803 367.255 553.077 367.213 553.33 367.192C553.583 367.171 553.836 367.149 554.089 367.149C554.806 367.107 555.502 367.107 556.218 367.149C568.909 367.677 580.418 379.176 575.781 407.829C569.267 448.086 612.987 460.662 629.05 426.143C629.767 424.603 630.399 422.999 630.989 421.311C622.916 427.388 602.721 437.811 591.506 425.341C575.76 407.808 597.219 378.543 576.519 356.98C569.942 350.122 557.336 348.392 545.109 351.536C544.962 352.169 544.962 352.654 545.236 352.928Z" fill="#D3D4E2"/>
<path d="M490.386 577.488C473.838 577.488 456.721 572.636 440.405 563.289C438.423 562.149 437.749 559.617 438.866 557.634C440.004 555.651 442.513 554.954 444.515 556.094C477.653 575.104 514.248 573.1 537.752 551.03C558.601 531.45 563.196 502.29 549.747 474.925C548.819 473.026 547.871 471.127 546.922 469.207C532.187 439.414 516.946 408.588 527.381 381.919C532.651 368.436 548.44 360.144 561.847 363.815C567.496 365.356 585.52 373.163 579.807 408.441C576.645 428.042 586.194 438.275 595.343 441.081C604.977 444.056 617.962 440.005 625.256 424.328C632.697 408.356 633.519 379.83 620.724 356.241C613.577 343.075 599.369 326.596 572.176 322.777C547.892 319.359 525.505 326.849 510.77 343.328C494.686 361.305 489.563 387.658 496.71 415.635C498.607 423.062 502.254 432.642 506.132 442.79C516.525 470.051 528.309 500.961 519.202 519.929C515.703 527.209 507.018 532.884 496.541 534.741C481.279 537.442 465.385 532.019 452.926 519.866C451.282 518.263 451.261 515.646 452.842 514.022C454.444 512.376 457.058 512.355 458.681 513.937C469.221 524.213 482.481 528.833 495.086 526.597C502.865 525.225 509.4 521.195 511.719 516.343C519.286 500.581 507.692 470.177 498.375 445.744C494.412 435.363 490.681 425.573 488.678 417.703C480.836 387.025 486.654 357.908 504.593 337.842C521.205 319.275 546.269 310.814 573.314 314.612C603.923 318.916 619.944 337.505 627.996 352.337C640.644 375.652 642.605 406.71 632.76 427.852C623.359 448.044 605.989 453.023 592.94 449.015C579.639 444.921 567.897 430.384 571.67 407.132C574.79 387.911 570.3 374.703 559.697 371.812C550.337 369.259 538.849 375.378 535.096 384.936C526.011 408.208 540.409 437.347 554.342 465.535C555.291 467.455 556.24 469.354 557.167 471.253C572.05 501.552 566.653 535.227 543.423 557.043C531.175 568.563 515.471 575.484 498.038 577.109C495.508 577.362 492.957 577.488 490.386 577.488Z" fill="#000072"/>
<path d="M547.85 438.149C545.531 448.445 537.879 458.847 522.554 468.932C520.404 470.346 518.106 471.739 515.661 473.152C515.661 473.152 526.938 504.569 489.838 511.321C483.155 512.524 476.768 512.038 471.055 510.182C447.973 502.586 436.083 472.308 461.379 440.596C461.949 439.858 462.56 439.119 463.171 438.402C464.331 437.051 465.574 435.68 466.881 434.287C467.872 433.254 468.884 432.22 469.959 431.186C470.739 430.426 471.561 429.667 472.383 428.907C472.468 428.823 472.552 428.759 472.636 428.675C472.636 428.675 470.929 426.143 465.427 422.577C465.195 422.43 464.984 422.303 464.752 422.134C464.099 421.712 463.361 421.29 462.602 420.847C459.419 419.011 455.329 417.007 450.123 414.981L445.401 402.09L436.821 378.648L436.8 378.585L420.062 332.947C420.062 332.947 433.259 336.935 450.081 343.75C457.185 346.62 464.963 349.996 472.657 353.793C472.657 353.793 476.325 355.545 482.038 358.71C496.436 366.685 523.903 383.712 538.68 404.263C539.861 405.888 540.936 407.533 541.947 409.2C547.407 418.421 550.126 428.211 547.85 438.149Z" fill="#8C8CAA"/>
<path d="M469.621 352.338C458.765 357.444 445.801 361.474 431.445 364.111L420.02 332.947C420.02 332.947 433.216 336.935 450.038 343.75C456.214 346.24 462.918 349.13 469.621 352.338Z" fill="#6C709E"/>
<path d="M472.362 428.907C472.446 428.823 472.531 428.759 472.615 428.675C472.615 428.675 470.907 426.143 465.405 422.577C465.174 422.43 464.963 422.303 464.731 422.134C464.077 421.712 463.34 421.29 462.581 420.847C459.398 419.012 455.308 417.007 450.101 414.982L445.379 402.09C447.614 397.131 450.08 394.072 452.61 394.156C461.147 394.452 473.268 419.012 491.503 419.37C491.503 419.37 481.511 423.252 469.938 431.165C470.718 430.426 471.54 429.667 472.362 428.907Z" fill="#6C709E"/>
<path d="M515.66 473.153C515.66 473.153 526.959 504.569 489.837 511.321C483.155 512.524 476.767 512.039 471.055 510.161C447.951 502.565 436.062 472.287 461.358 440.575C468.989 450.196 491.165 473.659 522.553 468.933C520.403 470.346 518.105 471.76 515.66 473.153Z" fill="white"/>
<path d="M489.837 511.321C526.495 504.654 515.913 473.891 515.66 473.153H515.639C515.639 473.153 509.273 503.599 476.135 495.244C454.95 489.884 456.742 463.236 460.789 444.711C460.431 443.972 460.135 443.213 459.904 442.453C459.904 442.453 459.904 442.453 459.883 442.453C430.644 481.297 456.657 517.356 489.837 511.321Z" fill="#D3D4E2"/>
<path d="M482.733 516.111C467.556 516.111 453.875 508.03 447.235 494.547C439.561 478.976 440.889 453.762 466.67 428.591C464.183 426.565 459.609 423.464 451.851 420.172C449.743 419.286 448.773 416.86 449.659 414.75C450.544 412.64 452.968 411.669 455.076 412.555C470.907 419.286 475.545 425.637 476.03 426.354L478.054 429.329L475.397 431.735C449.975 454.796 448.014 477.415 454.655 490.876C460.873 503.493 474.386 509.908 489.099 507.228C499.555 505.329 506.68 501.194 510.306 494.969C515.639 485.791 511.803 474.629 511.761 474.524L510.622 471.254L513.616 469.523C534.611 457.602 545.004 444.31 544.519 430.004C543.233 392.701 471.561 357.845 470.844 357.486C445.506 345.016 419.114 336.956 418.84 336.872C416.647 336.218 415.425 333.897 416.078 331.724C416.732 329.529 419.05 328.306 421.222 328.96C421.496 329.044 448.52 337.273 474.449 350.038C477.548 351.536 551.307 387.426 552.782 429.709C553.373 446.631 542.495 461.885 520.488 475.094C521.605 480.136 522.701 490.011 517.515 499.02C512.646 507.502 503.582 512.988 490.596 515.351C487.94 515.879 485.305 516.111 482.733 516.111Z" fill="#000072"/>
<path d="M517.178 476.993C510.116 479.018 502.886 480.305 495.508 479.989C501.663 476.106 507.692 472.541 514.121 469.291C519.518 466.907 522.743 474.988 517.178 476.993Z" fill="#000072"/>
<path d="M470.444 425.151C477.316 422.704 484.251 420.193 491.503 419.37C485.326 422.746 479.993 427.536 474.786 432.198C469.537 436.482 464.288 427.915 470.444 425.151Z" fill="#000072"/>
<path d="M369.85 514.908C365.296 525.437 362.999 537.97 361.607 551.115C359.352 572.32 359.478 595.107 356.464 613.822C352.754 636.736 344.322 653.468 321.049 653.468C310.067 653.468 269.487 655.936 261.646 643.34C258.99 639.078 257.683 633.486 259.706 628.169C261.625 623.169 266.494 618.4 275.98 615.236C273.661 600.466 272.354 585.464 271.701 570.99C269.93 532.083 272.923 497.016 274.083 480.875L369.85 514.908Z" fill="#8C8CAA"/>
<path d="M361.607 551.114C359.352 572.319 359.478 595.106 356.464 613.821C352.754 636.735 344.322 653.467 321.049 653.467C310.067 653.467 269.487 655.936 261.646 643.339C258.99 639.077 257.683 633.486 259.706 628.169C262.299 632.241 270.288 637.643 293.856 639.795C337.26 643.783 347.083 620.405 346.366 601.246C345.586 579.83 323.684 570.336 322.736 555.334C322.525 551.684 344.996 551.072 361.607 551.114Z" fill="#6C709E"/>
<path d="M358.466 596.309C354.524 627.072 351.742 653.467 321.049 653.467C310.067 653.467 269.508 655.936 261.646 643.34C258.99 639.077 257.683 633.486 259.706 628.169C262.299 632.241 270.288 637.622 293.856 639.795C335.995 643.656 346.493 621.734 346.409 602.913C351.088 601.204 355.157 599.01 358.466 596.309Z" fill="#E8E8E8"/>
<path d="M358.466 596.309C354.524 627.093 351.721 653.467 321.049 653.467C310.067 653.467 269.509 655.936 261.646 643.34C256.481 635.047 256.418 621.755 275.98 615.235C275.284 610.783 274.736 606.373 274.336 602.027C303.679 610.825 341.56 610.15 358.466 596.309Z" fill="white"/>
<path d="M358.466 596.309C354.524 627.072 351.742 653.467 321.049 653.467C310.067 653.467 269.508 655.936 261.646 643.34C258.99 639.077 257.683 633.486 259.706 628.169C262.299 632.241 270.288 637.622 293.856 639.795C335.995 643.656 346.493 621.734 346.409 602.913C351.088 601.204 355.157 599.01 358.466 596.309Z" fill="#D3D4E2"/>
<path d="M307.284 632.283C304.037 637.01 303.658 644.268 307.431 648.741C308.633 650.112 309.961 650.83 311.605 650.914C315.231 651.273 315.231 656.505 311.647 656.906C301.192 657.666 296.069 644.458 299.59 636.039C300.58 633.613 302.33 631.355 304.712 630.152C305.07 629.963 305.387 629.857 305.871 629.667C306.567 629.414 307.326 629.773 307.579 630.469C307.811 630.975 307.41 631.777 307.284 632.283Z" fill="#6B184E"/>
<path d="M280.618 628.401C277.666 631.587 276.697 635.744 277.392 640.132C277.94 643.846 279.796 648.34 283.295 649.585C286.921 650.661 285.74 655.999 282.009 655.451C271.996 653.404 268.792 640.175 272.291 631.756C273.493 629.203 275.558 627.051 278.193 626.017C278.573 625.869 278.91 625.785 279.395 625.637C280.175 625.426 280.997 625.89 281.187 626.692C281.398 627.367 281.018 627.937 280.618 628.401Z" fill="#6B184E"/>
<path d="M307.031 657.772C284.602 657.772 264.47 655.704 258.146 645.534C254.499 639.668 253.614 632.917 255.722 627.03C257.303 622.62 261.329 616.691 271.384 612.535C263.943 561.685 267.906 507.945 269.635 484.694L269.93 480.579C270.098 478.301 272.08 476.592 274.357 476.761C276.633 476.929 278.341 478.913 278.193 481.191L277.898 485.327C276.17 508.789 272.101 563.732 280.069 614.624L280.617 618.084L277.308 619.181C269.909 621.65 265.145 625.342 263.521 629.857C261.73 634.816 264.091 639.415 265.187 641.167C270.878 650.303 304.923 649.627 316.095 649.416C318.098 649.374 319.784 649.353 321.07 649.353C349.402 649.353 352.985 622.473 355.515 578.185C356.822 555.313 358.171 531.682 366.097 513.305C367.004 511.216 369.428 510.245 371.536 511.152C373.623 512.06 374.592 514.486 373.686 516.596C366.35 533.623 365.043 556.516 363.778 578.67C361.565 617.493 359.267 657.645 321.091 657.645C319.847 657.645 318.203 657.687 316.285 657.708C313.144 657.73 310.066 657.772 307.031 657.772Z" fill="#000072"/>
<path d="M307.284 632.283C304.037 637.01 303.658 644.268 307.431 648.741C308.633 650.112 309.961 650.83 311.605 650.914C315.231 651.273 315.231 656.505 311.647 656.906C301.192 657.666 296.069 644.458 299.59 636.039C300.58 633.613 302.33 631.355 304.712 630.152C305.07 629.963 305.387 629.857 305.871 629.667C306.567 629.414 307.326 629.773 307.579 630.469C307.811 630.975 307.41 631.777 307.284 632.283Z" fill="#000072"/>
<path d="M280.618 628.401C277.666 631.587 276.697 635.744 277.392 640.132C277.94 643.846 279.796 648.34 283.295 649.585C286.921 650.661 285.74 655.999 282.009 655.451C271.996 653.404 268.792 640.175 272.291 631.756C273.493 629.203 275.558 627.051 278.193 626.017C278.573 625.869 278.91 625.785 279.395 625.637C280.175 625.426 280.997 625.89 281.187 626.692C281.398 627.367 281.018 627.937 280.618 628.401Z" fill="#000072"/>
<path d="M459.166 496.847C460.051 522.23 466.902 590.191 470.191 617.029C488.109 622.81 490.111 636.356 484.125 646.167C476.409 658.827 432.816 657.012 421.854 656.295C379.652 653.489 372.885 557.845 371.937 553.499" fill="#8C8CAA"/>
<path d="M484.125 646.167C476.409 658.827 432.816 657.012 421.854 656.274C379.652 653.468 372.885 557.824 371.937 553.478L407.983 530.079C412.516 535.522 417.554 543.835 415.973 552.634C414.033 564.745 401.554 571.328 398.35 585.422C392.026 613.294 403.198 625.068 408.384 629.857C422.676 643.108 451.24 640.302 469.748 638.846C480.246 638.023 484.441 633.655 486.106 630.047C488.109 635.385 487.118 641.251 484.125 646.167Z" fill="#7C7C7C"/>
<path d="M484.125 646.167C476.409 658.827 432.816 657.012 421.854 656.274C379.652 653.468 372.885 557.824 371.937 553.478L407.983 530.079C412.516 535.522 417.554 543.835 415.973 552.634C414.033 564.745 401.554 571.328 398.35 585.422C392.026 613.294 403.198 625.068 408.384 629.857C422.676 643.108 451.24 640.302 469.748 638.846C480.246 638.023 484.441 633.655 486.106 630.047C488.109 635.385 487.118 641.251 484.125 646.167Z" fill="#6C709E"/>
<path d="M484.125 646.167C476.388 658.827 432.795 657.012 421.854 656.274C399.235 654.776 386.819 626.608 379.989 600.128C383.594 601.943 389.012 604.095 396.706 605.825C398.013 619.519 404.716 626.439 408.384 629.836C422.676 643.087 451.24 640.28 469.748 638.825C480.267 638.002 484.441 633.634 486.106 630.026C488.109 635.385 487.118 641.251 484.125 646.167Z" fill="#E8E8E8"/>
<path d="M487.139 635.892C487.139 636.398 487.118 636.926 487.076 637.432C487.055 637.727 487.034 638.023 486.971 638.318C486.949 638.508 486.928 638.677 486.886 638.867C486.865 638.993 486.844 639.12 486.823 639.246C486.718 639.774 486.612 640.301 486.465 640.829C486.38 641.103 486.296 641.378 486.212 641.631C486.191 641.694 486.169 641.778 486.148 641.842C485.938 642.475 485.685 643.108 485.411 643.741C485.389 643.804 485.347 643.888 485.326 643.952C485.158 644.289 484.989 644.648 484.82 644.986C484.61 645.386 484.378 645.787 484.146 646.188C476.409 658.848 432.837 657.033 421.875 656.295C399.277 654.797 386.84 626.629 380.01 600.149C385.069 602.681 393.776 605.931 407.351 607.724C411.188 625.574 420.653 640.407 438.529 643.255C459.904 646.652 478.623 641.483 486.865 632.664C486.907 632.938 486.971 633.212 487.013 633.486C487.055 633.761 487.097 634.014 487.118 634.309C487.139 634.584 487.16 634.837 487.181 635.132C487.139 635.364 487.139 635.617 487.139 635.892Z" fill="#686868"/>
<path d="M484.125 646.167C476.388 658.827 432.816 657.012 421.854 656.274C399.256 654.776 386.819 626.608 379.989 600.128C390.424 605.382 416.416 613.632 468.8 605.783C469.284 609.665 469.748 613.442 470.191 617.029C488.109 622.81 490.112 636.356 484.125 646.167Z" fill="white"/>
<path d="M484.125 646.167C476.388 658.827 432.795 657.012 421.854 656.274C399.235 654.776 386.819 626.608 379.989 600.128C383.594 601.943 389.012 604.095 396.706 605.825C398.013 619.519 404.716 626.439 408.384 629.836C422.676 643.087 451.24 640.28 469.748 638.825C480.267 638.002 484.441 633.634 486.106 630.026C488.109 635.385 487.118 641.251 484.125 646.167Z" fill="#D3D4E2"/>
<path d="M463.298 496.699C465.216 536.704 469.875 576.708 474.154 616.544L471.413 613.21C482.017 616.333 491.924 624.962 491.165 636.947C490.912 641.356 489.542 645.302 487.139 648.952C484.588 652.624 480.351 654.776 476.557 656.189C469.537 658.742 462.096 659.692 454.823 660.325C445.274 661.105 435.767 661.127 426.239 660.747C408.995 661.105 397.507 650.936 389.349 636.736C376.616 614.159 370.377 582.954 369.913 557.233C369.934 556.495 369.892 554.659 369.913 553.9C369.786 552.655 370.672 551.473 371.979 551.494C372.927 551.494 373.728 552.149 373.96 553.035L374.234 554.069C374.74 556.073 375.162 558.098 375.605 560.124C381.359 586.118 388.4 637.622 414.434 650.134C418.376 651.948 422.149 652.117 426.639 652.328C431.235 652.56 435.851 652.666 440.447 652.645C450.987 652.413 473.542 652.18 480.478 644.31C487.266 633.444 480.162 624.224 468.968 620.848L466.565 620.025C465.11 609.18 463.93 598.314 462.749 587.469C460.03 558.225 456.489 526.217 455.055 496.995C454.95 491.572 462.939 491.129 463.298 496.699Z" fill="#000072"/>
<path d="M437.959 631.44C447.045 635.048 447.234 648.256 441.29 654.902C440.215 656.105 438.845 657.181 437.264 657.877C434.586 659.101 429.274 659.629 429.464 655.43C429.611 653.89 430.897 652.75 432.394 652.708C435.914 652.413 438.022 648.847 438.781 645.492C439.667 641.61 438.697 637.411 436.526 634.119L436.231 633.128C435.872 632.073 436.968 631.039 437.959 631.44Z" fill="#000072"/>
<path d="M464.415 628.486C474.407 631.292 474.638 644.859 469.959 652.413C468.209 655.261 465.279 657.73 461.78 658.278C460.135 658.552 458.597 657.455 458.322 655.81C458.048 654.269 459.039 652.813 460.494 652.413C463.993 651.147 465.848 646.674 466.396 642.96C467.092 638.592 466.122 634.415 463.171 631.229L462.855 630.807C461.99 629.773 463.129 628.106 464.415 628.486Z" fill="#000072"/>
<path d="M472.91 511.743L473.543 511.996C473.479 511.975 473.247 511.891 472.91 511.743Z" fill="white"/>
<path d="M439.224 293.935C432.668 312.27 443.904 353.941 452.61 394.747C459.229 425.784 480.077 494.083 442.386 534.72C401.891 578.396 299.105 573.142 276.022 512.777C267.97 491.699 264.513 457.075 294.973 379.577C303.574 357.697 314.873 332.399 329.545 303.028" fill="#8C8CAA"/>
<path d="M445.19 361.052C429.401 365.229 411.314 367.571 392.089 367.571C358.466 367.571 328.322 360.334 307.832 348.898C314.072 334.825 321.281 319.57 329.544 303.007L439.203 293.935C434.481 307.185 439.013 332.589 445.19 361.052Z" fill="#6C709E"/>
<path d="M309.919 317.862C309.919 317.862 306.104 327.609 318.499 357.254C333.36 392.785 249.757 486.445 315.59 530.079C345.249 549.722 401.428 552.634 427.44 524.952C447.298 503.81 449.659 469.165 438.149 428.696C433.322 411.732 424.047 389.135 432.078 375.273C446.054 351.114 471.35 338.982 468.441 324.761C464.331 304.907 309.919 317.862 309.919 317.862Z" fill="white"/>
<path d="M441.585 361.959C426.681 365.567 409.881 367.571 392.11 367.571C363.146 367.571 336.775 362.212 316.939 353.414C306.42 326.744 309.919 317.84 309.919 317.84C309.919 317.84 464.351 304.885 468.399 324.74C470.718 336.091 455.097 346.092 441.585 361.959Z" fill="#D3D4E2"/>
<path d="M274.083 512.946C261.14 492.416 266.41 457.518 272.017 435.047C276.296 418.336 281.693 401.562 289.134 385.97C290.399 383.375 291.664 380.779 293.055 378.248C293.603 377.235 294.889 376.876 295.88 377.425C296.723 377.889 297.102 378.838 296.913 379.703C294.931 388.101 292.338 396.224 289.872 404.453C286.077 416.416 282.599 429.013 279.838 441.271C276.212 458.995 273.324 477.035 275.643 494.99C276.233 500.434 277.097 505.814 277.962 511.469C278.32 513.663 275.284 514.845 274.083 512.946Z" fill="#000072"/>
<path d="M416.837 554.511C389.475 570.441 350.266 571.75 322.04 557.275C319.932 556.136 321.133 552.866 323.473 553.393C338.693 556.896 353.976 558.795 369.512 558.33C376.996 558.14 385.133 557.444 392.49 556.178C400.099 554.912 407.625 553.056 415.13 550.735C417.427 550.017 418.924 553.245 416.837 554.511Z" fill="#000072"/>
<path d="M454.612 393.735C466.607 426.396 478.053 483.871 457.732 514.571C457.058 515.52 455.751 515.752 454.802 515.098C454.064 514.592 453.769 513.684 453.959 512.883C455.076 507.967 456.215 503.219 457.1 498.409C462.117 474.123 459.377 448.973 455.118 424.709C453.39 414.813 451.345 404.664 450.586 394.6C450.418 392.237 453.811 391.477 454.612 393.735Z" fill="#000072"/>
<path d="M566.126 267.012C553.056 330.563 488.446 343.223 439.92 347.949C420.02 349.89 399.994 349.764 380.115 347.696C360.216 345.628 340.548 341.64 321.429 335.648C295.374 327.483 264.913 315.836 243.179 295.791C235.654 288.85 229.161 280.874 224.271 271.696C220.792 265.155 218.136 258.002 216.471 250.132C215.354 244.815 214.7 239.161 214.553 233.19C214.51 230.911 214.532 228.59 214.637 226.227C214.932 219.264 215.923 211.879 217.672 204.03C219.19 197.215 226.906 174.217 236.476 151.852C239.722 144.235 243.2 136.702 246.721 129.93C241.219 83.5321 242.969 26.0153 260.317 7.93317C271.616 -3.81916 297.271 11.8155 334.54 51.1235C365.085 41.2701 405.222 44.6671 411.356 45.3212C417.511 45.9331 457.479 50.8281 485.347 66.737C529.889 35.8898 558.2 25.8465 566.843 39.6877C580.144 60.9558 570.068 117.608 555.185 161.895C563.28 190.886 568.318 231.038 568.445 240.385C568.613 250.132 567.791 258.973 566.126 267.012Z" fill="#8C8CAA"/>
<g opacity="0.5">
<path d="M571.417 93.7653C572.787 75.5987 571.354 60.1329 565.704 51.1024C557.062 37.2823 528.73 47.3256 484.209 78.1518C456.341 62.2429 416.352 57.3478 410.218 56.7359C404.084 56.0819 363.947 52.6849 333.402 62.5383C296.112 23.188 270.457 7.55338 259.158 19.3268C251.78 27.007 247.206 41.8398 244.824 59.9219C246.637 36.776 251.443 17.1958 260.339 7.93317C271.638 -3.81916 297.292 11.8155 334.562 51.1235C365.107 41.2701 405.243 44.6671 411.377 45.3212C417.533 45.9331 457.5 50.8281 485.368 66.737C529.911 35.8898 558.221 25.8465 566.864 39.6877C573.694 50.5749 574.368 70.7459 571.417 93.7653Z" fill="white"/>
</g>
<path d="M566.126 267.012C553.056 330.563 488.446 343.223 439.92 347.949C420.02 349.89 399.994 349.764 380.116 347.696C360.216 345.628 340.548 341.641 321.429 335.648C295.374 327.483 264.913 315.836 243.179 295.792C235.654 288.85 229.161 280.874 224.271 271.696C220.792 265.155 218.136 258.003 216.471 250.133C215.354 244.816 214.7 239.161 214.553 233.19C277.498 299.737 330.114 278.258 357.096 235.215C367.51 218.589 384.648 218.674 392.005 219.433C399.362 220.193 416.141 223.632 422.929 242.031C440.805 290.39 489.015 322.44 566.126 267.012Z" fill="white"/>
<path d="M555.312 295.243C531.555 334.593 480.288 344.003 440.025 347.949C420.104 349.89 400.015 349.764 380.094 347.717C360.195 345.649 340.527 341.661 321.429 335.669C295.374 327.504 264.913 315.857 243.179 295.813C235.654 288.871 229.161 280.895 224.271 271.717C222.373 268.151 220.729 264.417 219.338 260.471C222.605 264.48 226.189 268.236 229.983 271.759C253.719 293.682 342.235 312.629 383.256 316.87C424.32 321.111 526.243 318.769 555.312 295.243Z" fill="#D3D4E2"/>
<path d="M298.62 128.031C296.87 124.571 313.608 97.0782 338.63 108.303C347.652 112.354 347.568 121.553 340.148 122.735C333.065 123.874 330.114 122.06 319.047 124.718C312.786 126.237 300.348 131.491 298.62 128.031Z" fill="#000072"/>
<path d="M504.825 149.404C507.228 146.387 496.477 116.025 469.706 121.891C460.051 124.001 458.238 133.01 465.279 135.711C471.982 138.285 475.229 137.103 485.537 141.977C491.334 144.741 502.422 152.422 504.825 149.404Z" fill="#000072"/>
<path d="M288.881 80.958C274.905 93.0902 265.039 111.046 264.154 108.725C264.069 108.514 263.985 108.239 263.901 107.944C262.151 101.551 260.739 76.7382 263.037 55.0269C263.416 51.5245 263.838 48.4439 264.301 45.7221C265.545 38.4007 267.105 33.801 268.686 30.9104C270.667 27.3868 274.357 26.6272 277.392 28.2097C285.466 32.4085 307.747 50.6594 314.472 61.5888C315.695 63.53 302.857 68.8259 288.881 80.958Z" fill="#F27E80"/>
<path d="M288.881 80.958C274.905 93.0902 265.039 111.046 264.154 108.725C264.07 108.514 263.985 108.239 263.901 107.944C267.885 96.8458 277.266 81.8864 284.37 71.1257C294.088 56.4195 284.243 42.8948 274.989 38.1686C271.806 36.5439 267.316 41.5867 264.301 45.7221C265.545 38.4007 267.105 33.801 268.686 30.9104C270.668 27.3868 274.357 26.6272 277.392 28.2097C285.466 32.4085 307.747 50.6594 314.472 61.5888C315.695 63.53 302.857 68.8259 288.881 80.958Z" fill="#FF5C64"/>
<path d="M264.576 113.662C264.302 113.662 264.007 113.641 263.711 113.599C261.941 113.346 260.423 112.143 259.769 110.434C257.493 104.547 255.975 77.1604 258.378 54.5419C259.685 42.3043 261.709 33.8435 264.597 28.653C267.717 23.1039 273.998 21.1839 279.564 24.0534C288.143 28.5053 311.099 47.136 318.499 59.1205C319.278 60.3864 320.607 63.7201 316.011 67.3281C314.683 68.362 312.828 69.5646 310.467 71.0627C305.619 74.1854 298.957 78.4475 291.959 84.5241C284.286 91.1915 277.793 99.8633 273.493 105.602C269.15 111.362 267.443 113.641 264.576 113.662ZM274.315 32.1344C273.724 32.1344 273.219 32.4931 272.797 33.2316C271.279 35.9745 269.15 42.0933 267.717 55.5336C266.009 71.6324 266.431 88.2797 267.274 98.2386C271.785 92.2675 278.13 84.081 285.824 77.4136C293.329 70.8939 300.602 66.2309 305.408 63.1504C306.441 62.4753 307.558 61.779 308.485 61.146C300.454 50.8073 281.84 35.7846 275.263 32.3876C274.926 32.2188 274.61 32.1344 274.315 32.1344Z" fill="#000072"/>
<path d="M524.429 105.37C535.623 120.097 541.61 139.698 542.938 137.631C543.064 137.441 543.212 137.188 543.338 136.913C546.353 131.006 552.824 107.016 555.016 85.2833C555.354 81.7808 555.586 78.6792 555.691 75.9152C555.965 68.5093 555.396 63.6775 554.426 60.5126C553.204 56.6515 549.747 55.1534 546.458 56.0818C537.689 58.5293 512.161 71.843 503.328 81.1478C501.747 82.7936 513.236 90.6425 524.429 105.37Z" fill="#F27E80"/>
<path d="M524.429 105.37C535.623 120.098 541.61 139.699 542.938 137.631C543.064 137.441 543.212 137.188 543.338 136.914C541.694 125.225 535.602 108.683 530.859 96.6773C524.366 80.2831 536.761 69.0583 546.774 66.3576C550.21 65.4292 553.583 71.2737 555.691 75.9366C555.965 68.5308 555.396 63.699 554.426 60.5341C553.204 56.673 549.747 55.1749 546.458 56.1033C537.689 58.5508 512.161 71.8645 503.328 81.1693C501.747 82.7939 513.236 90.6429 524.429 105.37Z" fill="#FF5C64"/>
<path d="M542.727 142.484C542.622 142.484 542.495 142.484 542.39 142.463C538.954 142.231 537.815 139.804 534.464 132.63C531.428 126.132 526.854 116.321 520.698 108.218C515.091 100.834 509.463 95.3056 505.352 91.2546C503.349 89.2923 501.789 87.7521 500.693 86.4439C496.92 81.9709 498.902 78.9748 499.934 77.8987C509.631 67.6866 535.897 54.1619 545.214 51.5456C551.243 49.8577 557.019 53.0437 558.916 59.0992C560.687 64.7749 560.94 73.4889 559.717 85.7265C557.441 108.366 550.337 134.867 546.922 140.163C545.973 141.619 544.392 142.484 542.727 142.484ZM509.315 81.9709C510.095 82.7726 511.044 83.701 511.908 84.5661C515.976 88.575 522.153 94.6305 528.161 102.543C534.316 110.645 538.869 119.95 542.052 126.723C544.919 117.143 548.735 100.939 550.358 84.8193C551.707 71.3579 550.885 64.9437 549.936 61.9265C549.578 60.766 548.819 60.3229 547.702 60.6183C540.598 62.6017 519.286 73.4889 509.315 81.9709Z" fill="#000072"/>
<path d="M420.926 347.105C432.647 344.447 444.367 343.518 456.193 341.851C467.893 340.142 479.487 337.906 490.701 334.572C534.485 321.786 561.762 295.264 563.786 248.128C563.807 245.681 563.933 241.946 563.87 239.499C561.931 213.842 557.567 187.974 551.264 163.035L550.927 161.769L551.328 160.608C560.961 131.554 576.687 72.3918 564.629 44.2031C556.45 22.513 499.597 62.1164 487.75 70.1975L485.621 71.6533L483.344 70.3873C461.21 58.3185 435.851 52.5584 410.977 49.4779C385.997 47.3891 360.005 47.8111 335.847 55.0903L333.36 55.871C326.614 48.7394 319.7 41.6922 312.533 35.046C303.047 26.4796 277.835 3.35475 265.292 9.32587C255.701 15.8245 251.569 37.8522 250.115 49.2036C246.826 75.7888 247.838 102.859 250.852 129.465L251 130.71L250.431 131.85C240.291 152.337 231.986 174.091 224.861 195.823C218.052 216.753 216.597 240.427 224.544 261.125C236.855 293.302 269.023 311.743 299.653 323.769C310.277 328.031 321.133 331.977 331.8 336.577C334.013 337.505 333.044 340.902 330.683 340.564C324.886 339.678 319.11 338.475 313.46 336.893C251.927 318.98 199.248 282.077 211.77 210.55C212.697 204.685 214.278 198.629 216.155 193.038C219.759 181.855 223.933 170.926 228.36 160.06C232.808 149.214 237.551 138.496 243.095 128.052L242.652 130.436C238.963 97.7954 235.59 34.8139 255.132 7.74342C265.904 -7.4903 285.171 3.10156 296.807 11.3303C311.9 22.0699 324.886 35.0038 337.597 48.2752L333.339 47.1781C339.747 45.1736 346.261 43.7178 352.796 42.6417C391.857 36.7339 432.31 40.9327 469.326 54.7105C475.503 57.1159 481.574 59.8588 487.455 63.1503L483.049 63.3402C490.554 58.1497 498.164 53.1281 506.027 48.4018C517.958 41.3547 530.332 34.4552 543.971 30.8683C564.777 25.7622 572.914 34.6662 576.16 54.7316C580.439 89.2712 569.73 130.373 559.148 163.203L559.212 160.777C560.877 166.643 562.374 172.529 563.723 178.437C568.002 198.882 571.86 219.433 573.103 240.364C573.061 242.431 573.04 246.419 572.998 248.487C572.724 252.032 572.513 256.568 571.944 260.091C571.754 261.104 571.543 263.636 571.269 264.712C565.325 299.843 543.149 323.875 510.622 337.02C487.94 346.219 463.508 350.059 439.308 352C433.237 352.296 427.145 352.19 421.074 351.219C418.776 350.84 418.713 347.59 420.926 347.105Z" fill="#000072"/>
<path d="M420.652 254.605C420.652 254.605 418.734 273.257 402.165 270.557C390.423 268.636 388.99 258.656 388.884 257.855C388.61 258.614 385.153 268.109 373.285 267.56C356.505 266.822 358.445 248.149 358.445 248.149L391.92 227.176L392.194 227.197L420.652 254.605Z" fill="#D3D4E2"/>
<path d="M420.462 254.711C420.462 254.711 413.548 268.341 401.237 263.721C387.219 258.467 390.761 241.44 390.761 241.44L390.234 241.376C390.234 241.376 390.149 258.762 375.351 260.978C362.345 262.919 358.424 248.149 358.424 248.149C358.424 248.149 358.171 215.909 392.7 219.496C427.208 223.083 420.462 254.711 420.462 254.711Z" fill="white"/>
<path d="M418.502 257.728C415.635 261.442 409.712 266.928 401.238 263.742C387.198 258.488 390.761 241.461 390.761 241.461L390.234 241.397C390.234 241.397 390.15 258.804 375.33 260.999C366.371 262.328 361.734 255.745 359.71 251.504C362.134 251.989 364.79 252.074 367.763 251.631C392.215 247.98 391.836 224.328 391.836 224.328L392.721 224.413C392.721 224.413 387.388 247.453 410.555 256.146C413.359 257.222 416.036 257.707 418.502 257.728Z" fill="#D3D4E2"/>
<path d="M360.68 247.558C363.694 253.804 368.753 259.205 376.174 257.137C383.383 255.681 386.84 247.854 387.915 241.186C388.126 239.899 389.349 239.034 390.613 239.266C393.248 239.751 392.574 243.064 392.553 244.942C392.258 248.465 391.414 251.862 389.623 255.048C386.756 260.598 380.495 264.459 374.171 264.691C366.287 265.472 359.288 259.395 357.033 252.221C356.4 250.259 354.967 246.693 358.045 246.039C359.225 245.849 360.258 246.524 360.68 247.558Z" fill="#000072"/>
<path d="M422.55 255.787C418.671 265.683 408.004 271.548 398.055 266.231C389.833 262.518 386.418 252.833 387.746 244.436C387.894 243.275 388.105 242.22 388.463 240.997C389.243 238.338 393.185 239.013 393.059 241.756C392.679 249.141 394.724 257.623 402.355 260.324C408.827 263.045 414.729 258.488 418.566 253.445C420.252 251.356 423.562 253.34 422.55 255.787Z" fill="#000072"/>
<path d="M408.805 234.245C408.384 238.317 402.692 241.355 397.57 243.275C392.215 245.301 386.503 244.689 381.675 241.588C377.059 238.634 372.147 234.477 372.569 230.405C373.876 218.146 410.112 221.965 408.805 234.245Z" fill="#000072"/>
<g opacity="0.5">
<path d="M398.139 230.679C398.013 231.861 395.799 232.663 393.797 233.169C391.71 233.696 389.433 233.443 387.494 232.494C385.639 231.587 383.636 230.321 383.763 229.16C384.142 225.615 398.497 227.135 398.139 230.679Z" fill="white"/>
</g>
<path d="M345.755 211.764C347.592 194.006 336.577 178.315 321.151 176.716C305.726 175.117 291.732 188.217 289.895 205.974C288.058 223.732 299.073 239.423 314.499 241.022C329.924 242.62 343.918 229.521 345.755 211.764Z" fill="#000072"/>
<path d="M338.001 204.2C338.778 196.689 334.864 190.129 329.259 189.548C323.654 188.967 318.48 194.585 317.703 202.096C316.926 209.607 320.84 216.167 326.445 216.748C332.05 217.329 337.224 211.711 338.001 204.2Z" fill="white"/>
<g opacity="0.35">
<path d="M307.244 227.688C311.82 227.233 315.037 221.892 314.428 215.758C313.82 209.624 309.617 205.02 305.041 205.474C300.465 205.929 297.248 211.27 297.857 217.404C298.465 223.538 302.668 228.143 307.244 227.688Z" fill="white"/>
</g>
<path d="M471.21 252.991C486.667 251.74 498.031 236.302 496.594 218.508C495.157 200.715 481.462 187.305 466.006 188.556C450.549 189.806 439.185 205.245 440.622 223.038C442.059 240.831 455.754 254.241 471.21 252.991Z" fill="#000072"/>
<path d="M459.824 228.45C465.44 227.995 469.5 221.526 468.892 213.999C468.284 206.473 463.238 200.741 457.622 201.195C452.006 201.65 447.946 208.119 448.554 215.645C449.162 223.171 454.208 228.904 459.824 228.45Z" fill="white"/>
<g opacity="0.35">
<path d="M488.371 229.76C489.117 223.641 486.021 218.229 481.457 217.672C476.892 217.114 472.587 221.623 471.841 227.741C471.095 233.86 474.191 239.272 478.756 239.83C483.32 240.387 487.625 235.879 488.371 229.76Z" fill="white"/>
</g>
<path d="M236.476 226.86C220.371 216.036 201.567 209.348 182.427 206.457C177.304 205.782 171.633 205.296 166.49 205.043C164.951 204.896 162.674 204.98 161.136 204.959C159.302 204.98 157.468 204.938 155.634 204.938C153.062 204.874 152.872 201.098 155.465 200.802C158.585 200.507 161.979 200.275 165.12 200.043C171.106 199.895 177.178 200.085 183.143 200.697C188.476 201.414 194.4 202.321 199.565 203.714C212.128 206.984 224.439 212.175 234.81 220.066C236.328 221.184 237.741 222.345 239.174 223.737C239.996 224.518 240.038 225.826 239.258 226.67C238.499 227.451 237.298 227.514 236.476 226.86Z" fill="#3A3A3A"/>
<path d="M238.352 254.943C223.238 251.884 207.301 250.533 192.06 253.487C182.954 255.239 174.247 258.699 166.49 263.847C164.319 265.219 162.063 262.201 164.045 260.513C182.174 245.512 207.849 242.917 230.173 248.107C233.377 248.867 236.497 249.774 239.659 251.019C240.713 251.441 241.24 252.643 240.818 253.719C240.418 254.69 239.364 255.196 238.352 254.943Z" fill="#000072"/>
<path d="M543.423 255.26C566.21 242.073 597.05 241.06 622.093 247.664C624.644 248.403 627.532 249.225 630.062 250.006C631.158 250.344 631.769 251.483 631.432 252.58C631.116 253.656 629.977 254.268 628.923 253.973C626.394 253.487 623.569 252.897 621.039 252.348L619.732 252.074C615.748 251.589 611.827 250.745 607.822 250.491L602.531 250.006C599.432 249.922 594.942 249.647 591.907 249.795C576.919 249.985 561.889 252.707 547.828 257.939C546.985 258.256 546.1 258.615 545.341 258.952C543.001 259.902 541.272 256.631 543.423 255.26Z" fill="#000072"/>
<path d="M537.373 281.866C563.133 278.131 592.666 285.833 609.424 306.658C611.005 308.683 608.202 311.236 606.347 309.422C601.962 305.012 597.071 301.172 591.696 298.134C580.945 291.888 568.782 288.702 556.492 287.141C550.295 286.339 543.908 285.959 537.731 285.959C535.244 285.959 534.906 282.33 537.373 281.866Z" fill="#000072"/>
<path d="M289.851 218.779L25.9494 245.005C20.2788 245.575 15.1985 241.418 14.6505 235.743L4.19476 130.246C3.62559 124.57 7.77837 119.485 13.4489 118.937L277.35 92.7314C283.021 92.1617 288.101 96.3183 288.649 101.994L299.105 207.491C299.674 213.145 295.521 218.209 289.851 218.779Z" fill="white"/>
<path d="M24.9166 249.183C17.5807 249.183 11.2778 243.592 10.54 236.123L0.0842577 130.626C-0.295183 126.786 0.84314 123.009 3.28843 120.013C5.73372 117.017 9.21193 115.16 13.0485 114.78L276.95 88.575C280.807 88.1953 284.56 89.3346 287.553 91.7821C290.546 94.2297 292.402 97.7111 292.781 101.551L303.237 207.027C303.616 210.867 302.478 214.644 300.033 217.64C297.587 220.636 294.109 222.493 290.272 222.872L26.35 249.12C25.8652 249.162 25.4014 249.183 24.9166 249.183ZM278.383 96.8038C278.172 96.8038 277.962 96.8038 277.751 96.8249L13.8495 123.03C12.2053 123.199 10.7086 123.98 9.67569 125.267C8.62168 126.554 8.13684 128.157 8.30548 129.803L18.7612 235.3C18.9298 236.946 19.7309 238.444 20.9957 239.477C22.2816 240.532 23.8836 241.018 25.5279 240.849L289.429 214.665C291.073 214.496 292.57 213.715 293.603 212.428C294.657 211.141 295.142 209.538 294.973 207.892L284.518 102.395C284.349 100.749 283.548 99.2513 282.283 98.2174C281.166 97.2891 279.796 96.8038 278.383 96.8038Z" fill="#000072"/>
<path d="M113.158 219.454C110.881 219.454 108.921 217.977 108.331 215.762C104.03 199.979 94.8604 187.51 89.7801 181.496C88.5153 179.998 88.2413 177.952 89.0634 176.179C89.8855 174.407 91.6562 173.268 93.5745 173.268C93.8907 173.268 94.228 173.31 94.5653 173.373C105.126 175.441 114.149 178.31 119.292 180.104L121.021 179.133L115.983 170.335C114.296 167.381 115.329 163.625 118.259 161.937C119.187 161.41 120.241 161.114 121.316 161.114C123.508 161.114 125.553 162.296 126.649 164.216L131.729 173.099L132.362 172.74L123.677 157.549C122.855 156.114 122.644 154.468 123.087 152.886C123.508 151.303 124.541 149.974 125.975 149.151C126.902 148.624 127.956 148.328 129.031 148.328C131.223 148.328 133.268 149.51 134.364 151.43L143.092 166.685L143.64 166.368L132.973 147.738C132.151 146.303 131.94 144.657 132.383 143.075C132.805 141.492 133.837 140.163 135.271 139.34C136.198 138.812 137.252 138.517 138.327 138.517C140.52 138.517 142.565 139.699 143.661 141.619L154.348 160.313L155.74 159.532C150.976 150.417 147.666 142.252 145.663 136.787C144.862 134.614 145.094 132.251 146.296 130.267C147.497 128.305 149.5 126.997 151.798 126.723C156.077 126.195 160.525 125.942 165.015 125.942C182.933 125.942 197.752 130.056 204.983 132.504C208.334 133.643 210.421 136.892 210.063 140.374C207.533 165.651 193.768 183.606 187.971 190.168C186.559 191.772 184.493 192.7 182.343 192.7C180.256 192.7 178.232 191.814 176.799 190.274C171.529 184.598 166.49 177.846 161.79 170.208L160.44 170.968L171.044 189.493C171.866 190.928 172.077 192.574 171.634 194.156C171.212 195.739 170.179 197.068 168.746 197.891C167.818 198.418 166.764 198.714 165.689 198.714C163.497 198.714 161.452 197.532 160.356 195.612L149.711 177.023L149.163 177.34L156.815 190.717C157.637 192.152 157.848 193.797 157.405 195.38C156.983 196.962 155.95 198.292 154.517 199.114C153.589 199.642 152.535 199.937 151.46 199.937C149.268 199.937 147.223 198.756 146.127 196.836L138.433 183.395L137.8 183.754L142.628 192.194C143.45 193.629 143.661 195.274 143.218 196.857C142.796 198.439 141.764 199.768 140.33 200.591C139.403 201.119 138.349 201.414 137.273 201.414C135.081 201.414 133.036 200.233 131.94 198.313L127.113 189.788L125.089 190.928C123.867 200.57 120.009 210.888 117.753 216.353C116.994 218.23 115.182 219.454 113.158 219.454Z" fill="#000072"/>
<path d="M164.973 129.191C182.87 129.191 197.668 133.474 203.886 135.584C205.763 136.217 206.964 138.053 206.774 140.036C204.371 164.068 191.534 181.138 185.484 187.974C184.64 188.945 183.46 189.409 182.3 189.409C181.162 189.409 180.003 188.945 179.16 188.037C172.772 181.138 167.376 173.352 162.928 165.799L155.95 169.744L168.177 191.118C168.978 192.489 168.493 194.262 167.102 195.042C166.659 195.295 166.153 195.422 165.668 195.422C164.678 195.422 163.708 194.895 163.16 193.966L150.933 172.571L144.694 176.095L153.99 192.32C154.791 193.692 154.306 195.464 152.915 196.245C152.472 196.498 151.966 196.625 151.481 196.625C150.491 196.625 149.521 196.097 148.973 195.169L139.677 178.922L133.353 182.488L139.803 193.776C140.604 195.148 140.119 196.92 138.728 197.701C138.285 197.954 137.779 198.081 137.294 198.081C136.304 198.081 135.334 197.553 134.786 196.625L128.314 185.294L122.011 188.86C121.105 198.397 117.205 209.073 114.718 215.065C114.423 215.783 113.79 216.12 113.137 216.12C112.42 216.12 111.682 215.677 111.471 214.833C106.981 198.355 97.3689 185.358 92.2675 179.323C91.2978 178.163 92.1621 176.475 93.5744 176.475C93.6798 176.475 93.8063 176.496 93.9328 176.517C105.443 178.775 115.139 182.003 119.587 183.606L125.469 180.273L118.786 168.605C118.006 167.233 118.47 165.461 119.861 164.68C120.304 164.427 120.81 164.3 121.295 164.3C122.285 164.3 123.255 164.828 123.803 165.756L130.486 177.445L136.81 173.88L126.48 155.819C125.679 154.447 126.164 152.675 127.555 151.894C127.998 151.641 128.504 151.514 128.989 151.514C129.98 151.514 130.949 152.042 131.497 152.97L141.848 171.052L148.087 167.529L135.798 146.028C134.997 144.657 135.482 142.885 136.873 142.104C137.316 141.851 137.821 141.724 138.306 141.724C139.297 141.724 140.267 142.252 140.815 143.18L153.126 164.701L160.124 160.756C154.517 150.438 150.744 141.049 148.741 135.605C147.792 133.031 149.479 130.246 152.198 129.93C156.541 129.423 160.841 129.191 164.973 129.191ZM164.973 122.65C160.356 122.65 155.782 122.925 151.355 123.473C148.066 123.874 145.2 125.731 143.471 128.558C142.08 130.837 141.595 133.474 142.038 136.027C140.857 135.521 139.592 135.226 138.264 135.226C136.62 135.226 135.018 135.648 133.584 136.47C131.413 137.715 129.832 139.741 129.179 142.167C128.926 143.117 128.82 144.066 128.841 145.016C127.26 145.037 125.679 145.459 124.288 146.261C122.096 147.505 120.536 149.531 119.882 151.978C119.355 153.962 119.461 156.008 120.199 157.886C118.934 158.034 117.711 158.435 116.615 159.068C112.104 161.642 110.544 167.423 113.116 171.938L114.992 175.23C109.764 173.584 102.871 171.664 95.1765 170.145C94.6495 170.04 94.1014 169.997 93.5744 169.997C90.3914 169.997 87.4401 171.875 86.091 174.787C84.7208 177.741 85.1635 181.117 87.2715 183.606C92.1832 189.43 101.037 201.456 105.168 216.627C106.138 220.214 109.427 222.725 113.158 222.725C116.51 222.725 119.503 220.72 120.768 217.619C122.665 213.019 125.658 205.085 127.387 196.878L129.137 199.916C130.823 202.849 133.943 204.664 137.316 204.664C138.96 204.664 140.562 204.242 141.995 203.419C143.218 202.722 144.251 201.773 145.031 200.634C146.759 202.258 149.057 203.187 151.481 203.187C153.105 203.187 154.728 202.765 156.14 201.942C157.321 201.267 158.332 200.359 159.091 199.304C160.82 200.992 163.181 201.984 165.668 201.984C167.313 201.984 168.915 201.562 170.348 200.739C172.54 199.494 174.1 197.469 174.754 195.021C174.922 194.409 175.028 193.818 175.07 193.207C177.051 194.979 179.623 195.971 182.3 195.971C185.399 195.971 188.329 194.641 190.395 192.32C196.403 185.548 210.653 166.938 213.288 140.711C213.794 135.69 210.801 131.048 206.016 129.402C198.574 126.87 183.376 122.65 164.973 122.65Z" fill="#000072"/>
<path d="M203.886 135.584C196.255 132.989 175.576 127.081 152.156 129.951C149.436 130.288 147.75 133.052 148.699 135.626C150.701 141.07 154.475 150.459 160.082 160.777L153.083 164.722L140.773 143.201C139.993 141.83 138.222 141.344 136.852 142.125C135.481 142.906 134.997 144.678 135.777 146.049L148.066 167.55L141.827 171.073L131.476 152.991C130.696 151.62 128.926 151.134 127.555 151.915C126.185 152.696 125.7 154.468 126.48 155.84L136.81 173.901L130.485 177.466L123.803 165.777C123.023 164.406 121.252 163.921 119.882 164.701C118.512 165.482 118.027 167.254 118.807 168.626L125.49 180.294L119.608 183.627C115.16 182.024 105.463 178.796 93.9537 176.538C92.3517 176.222 91.2555 178.099 92.3095 179.344C97.4109 185.379 107.023 198.376 111.513 214.854C111.956 216.437 114.127 216.606 114.76 215.065C117.247 209.073 121.147 198.397 122.053 188.86L128.356 185.294L134.828 196.625C135.355 197.553 136.325 198.08 137.337 198.08C137.821 198.08 138.306 197.954 138.77 197.701C140.14 196.92 140.625 195.148 139.845 193.776L133.352 182.509L139.676 178.943L148.973 195.211C149.5 196.139 150.469 196.667 151.481 196.667C151.966 196.667 152.451 196.54 152.915 196.287C154.285 195.506 154.77 193.734 153.99 192.363L144.693 176.137L150.933 172.614L163.181 194.029C163.708 194.958 164.677 195.485 165.689 195.485C166.174 195.485 166.659 195.359 167.123 195.105C168.493 194.325 168.978 192.552 168.198 191.181L155.971 169.807L162.949 165.862C167.397 173.415 172.814 181.201 179.18 188.1C180.909 189.957 183.818 189.936 185.504 188.037C191.554 181.201 204.392 164.132 206.795 140.099C206.964 138.074 205.762 136.238 203.886 135.584ZM177.768 158.878C172.582 158.878 168.387 154.679 168.387 149.489C168.387 144.298 172.582 140.099 177.768 140.099C182.954 140.099 187.149 144.298 187.149 149.489C187.149 154.679 182.954 158.878 177.768 158.878Z" fill="#FF9522"/>
</g>
<defs>
<clipPath id="clip0_248_9792">
<rect width="639" height="661" fill="white"/>
</clipPath>
</defs>
</svg>
