<svg width="626" height="620" viewBox="0 0 626 620" fill="none" xmlns="http://www.w3.org/2000/svg">
<ellipse cx="313" cy="299.5" rx="313" ry="299.5" fill="#B0A2D7"/>
<g clip-path="url(#clip0_240_837)">
<path d="M309.857 566.574C304.803 594.852 282.713 614.996 249.411 614.996C249.411 614.996 225.115 614.996 222.01 614.996C210.491 614.996 206.411 596.854 215.237 590.182C219.316 587.103 225.91 586.692 225.756 585.82C225.756 585.794 225.731 585.743 225.705 585.717C224.986 584.768 209.567 566.317 214.467 545.147C220.086 520.872 245.357 512.609 265.498 513.276L301.775 525.337L306.624 522.052C308.702 530.161 310.139 539.04 310.755 548.842C311.191 555.001 310.858 560.954 309.857 566.574Z" fill="#8E8FB3"/>
<path d="M309.857 566.574C304.803 594.853 282.713 614.996 249.411 614.996C249.411 614.996 225.115 614.996 222.01 614.996C210.491 614.996 206.411 596.854 215.237 590.182C219.316 587.103 225.91 586.692 225.756 585.82C233.376 585.384 243.869 585.692 258.186 587.616C284.406 591.157 301.801 582.407 309.857 566.574Z" fill="white"/>
<g opacity="0.3">
<path d="M309.857 566.574C304.828 594.853 282.713 614.996 249.411 614.996C249.411 614.996 225.115 614.996 222.01 614.996C214.545 614.996 210.183 607.349 210.491 600.164C210.491 600.036 210.491 599.908 210.517 599.779C210.517 599.651 210.542 599.497 210.542 599.369C210.542 599.318 210.542 599.266 210.568 599.215C210.593 599.01 210.619 598.779 210.645 598.573C210.67 598.419 210.696 598.265 210.722 598.111C210.747 597.958 210.773 597.778 210.824 597.624C210.85 597.521 210.85 597.444 210.876 597.342C210.901 597.188 210.953 597.059 210.978 596.905C211.081 596.469 211.235 596.033 211.389 595.597C212.98 600.421 216.725 604.296 222.036 604.296C225.115 604.296 249.437 604.296 249.437 604.296C273.528 604.296 291.77 593.749 301.904 577.198C305.162 574.17 307.805 570.603 309.857 566.574Z" fill="#000072"/>
</g>
<path d="M265.498 515.021C259.212 515.227 252.952 516.176 247.051 517.972C241.15 519.769 235.531 522.412 230.836 526.081C226.115 529.725 222.447 534.421 220.138 539.758C218.983 542.402 218.111 545.276 217.649 548.124C217.161 550.998 216.982 553.949 217.264 556.874C217.726 562.776 219.676 568.601 222.421 574.016C223.806 576.71 225.423 579.353 227.193 581.791L227.86 582.689L228.194 583.125L228.373 583.356L228.502 583.536C228.45 583.459 228.758 583.87 228.912 584.178C229.066 584.537 229.194 584.793 229.271 585.409C229.374 586.615 228.989 587.411 228.553 588.052C228.425 588.232 228.271 588.412 228.091 588.566C227.886 588.745 227.783 588.822 227.706 588.873C227.244 589.207 227.039 589.284 226.808 589.387C226.398 589.566 226.141 589.643 225.859 589.746C225.346 589.9 224.935 590.003 224.525 590.131C222.934 590.541 221.549 590.926 220.266 591.44C217.649 592.44 216.084 593.698 215.058 595.879C214.031 597.983 213.775 600.677 214.211 603.218C214.647 605.758 215.827 608.171 217.469 609.685C218.29 610.429 219.214 610.993 220.215 611.25C220.702 611.404 221.241 611.481 221.78 611.481C221.985 611.506 222.498 611.481 222.883 611.506H224.089H243.459C246.692 611.506 249.95 611.532 252.977 611.429C256.056 611.224 259.135 610.968 262.137 610.403C268.166 609.325 274.015 607.375 279.352 604.501C284.688 601.653 289.486 597.855 293.514 593.338C301.57 584.28 306.111 572.373 307.138 560.133C307.42 557.08 307.497 554 307.343 550.895C307.24 547.816 306.932 544.608 306.599 541.503C305.906 535.242 304.803 529.007 303.238 522.925C302.75 521.026 303.905 519.127 305.778 518.64C307.676 518.152 309.575 519.307 310.062 521.18C311.704 527.621 312.859 534.139 313.603 540.708C313.962 544.018 314.27 547.226 314.373 550.613C314.527 553.975 314.45 557.362 314.142 560.749C313.859 564.136 313.321 567.472 312.551 570.808C311.807 574.118 310.755 577.377 309.498 580.559C306.984 586.923 303.315 592.851 298.799 598.009C296.516 600.575 294.002 602.936 291.308 605.091C288.614 607.221 285.715 609.069 282.687 610.711C276.632 613.97 270.064 616.125 263.394 617.331C260.059 617.973 256.672 618.255 253.311 618.461C249.873 618.563 246.692 618.563 243.459 618.563H224.089H222.883C222.447 618.563 222.164 618.589 221.549 618.538C220.471 618.512 219.394 618.358 218.342 618.05C216.212 617.485 214.288 616.331 212.723 614.894C209.619 611.994 207.951 608.222 207.258 604.45C206.617 600.652 206.925 596.597 208.695 592.851C209.567 590.978 210.876 589.258 212.518 587.873C214.185 586.461 215.981 585.589 217.7 584.896C219.419 584.229 221.164 583.767 222.703 583.356L223.704 583.074C223.832 583.048 223.935 582.997 223.883 582.997C223.832 583.023 223.806 583.023 223.499 583.228C223.447 583.254 223.396 583.305 223.242 583.459C223.114 583.587 222.985 583.716 222.883 583.87C222.472 584.434 222.139 585.127 222.241 586.23C222.318 586.795 222.421 587.026 222.549 587.334C222.678 587.616 222.96 587.975 222.883 587.847L222.832 587.77L222.626 587.513L222.241 587L221.472 585.974C219.445 583.202 217.675 580.303 216.11 577.249C213.005 571.167 210.799 564.521 210.132 557.516C209.798 554.026 209.875 550.459 210.388 546.969C210.953 543.454 211.928 540.066 213.39 536.807C214.852 533.574 216.777 530.521 219.034 527.826C221.318 525.106 223.986 522.771 226.834 520.769C232.555 516.766 239.046 514.226 245.614 512.763C252.208 511.326 258.93 510.941 265.549 511.531C266.524 511.608 267.242 512.481 267.165 513.456C267.114 514.328 266.396 514.996 265.498 515.021Z" fill="#000072"/>
<path d="M224.371 582.92C226.782 582.895 228.989 582.997 231.272 583.177C233.53 583.356 235.788 583.613 238.02 583.947C242.484 584.665 246.922 585.743 250.925 587.642C246.563 586.872 242.227 587 237.943 587.462C235.813 587.719 233.684 588.052 231.58 588.437C229.502 588.848 227.347 589.335 225.423 589.874C223.524 590.413 221.548 589.335 221.01 587.437C220.471 585.538 221.548 583.562 223.447 583.023C223.755 582.946 224.063 582.895 224.371 582.895V582.92Z" fill="#000072"/>
<path d="M243.356 597.136C243.202 598.932 243.254 600.754 243.459 602.499C243.664 604.244 244.075 605.912 244.767 607.349C245.434 608.786 246.409 609.915 247.461 610.608C248.539 611.301 249.822 611.481 251.079 611.583H251.13C253.106 611.737 254.568 613.482 254.414 615.432C254.26 617.408 252.515 618.871 250.566 618.717C250.181 618.691 249.796 618.589 249.462 618.435C247.307 617.511 245.178 616.254 243.741 614.329C242.304 612.43 241.637 610.249 241.406 608.222C241.175 606.195 241.381 604.244 241.74 602.397C242.073 600.575 242.612 598.804 243.356 597.136Z" fill="#000072"/>
<path d="M225.705 597.136C225.551 598.932 225.602 600.754 225.807 602.499C226.013 604.244 226.423 605.912 227.116 607.349C227.783 608.786 228.758 609.915 229.81 610.608C230.887 611.301 232.17 611.481 233.427 611.583H233.479C235.454 611.737 236.917 613.482 236.763 615.432C236.609 617.408 234.864 618.871 232.914 618.717C232.529 618.691 232.145 618.589 231.811 618.435C229.656 617.511 227.526 616.254 226.09 614.329C224.653 612.43 223.986 610.249 223.755 608.222C223.524 606.195 223.729 604.244 224.089 602.397C224.422 600.575 224.961 598.804 225.705 597.136Z" fill="#000072"/>
<g opacity="0.7">
<path d="M247.179 525.106C247.179 525.106 229.861 528.519 224.833 543.915C220.061 558.542 227.86 561.031 230.272 552.974C232.684 544.916 235.249 535.37 247.179 525.106Z" fill="white"/>
</g>
<path d="M249.386 473.194C207.412 512.045 163.284 500.651 139.603 489.591C128.648 484.485 122.08 479.43 122.08 479.43C111.92 483.484 98.297 482.201 93.9611 469.319C89.8304 457.079 89.6252 444.71 94.2946 436.268C99.3489 427.081 110.176 422.514 127.904 427.748C130.367 428.467 132.856 429.262 135.37 430.084C169.441 441.297 205.77 458.259 224.012 401.651C227.809 389.899 243.819 402.498 253.132 421.333C261.342 437.936 264.395 459.311 249.386 473.194Z" fill="#8E8FB3"/>
<g opacity="0.3">
<path d="M249.386 473.194C207.412 512.045 163.284 500.651 139.603 489.591C128.648 484.485 122.08 479.43 122.08 479.43C111.92 483.484 98.297 482.201 93.9611 469.319C89.8304 457.079 89.6252 444.71 94.2946 436.268C94.7564 448.765 97.2707 470.756 109.303 471.834C129.546 473.605 125.877 443.71 125.723 442.632C126.057 443.812 137.397 481.277 164.926 484.254C213.955 489.566 224.653 419.665 224.653 419.665L253.157 421.359C261.342 437.936 264.395 459.311 249.386 473.194Z" fill="#000072"/>
</g>
<g opacity="0.3">
<path d="M141.528 471.218C140.784 478.506 140.142 484.613 139.603 489.591C128.648 484.485 122.08 479.43 122.08 479.43C111.92 483.484 98.297 482.201 93.9611 469.319C91.9086 463.263 90.8311 457.156 90.8311 451.511C90.8311 451.074 90.8311 450.638 90.8567 450.176V450.099C90.8824 449.663 90.908 449.252 90.9337 448.816C90.9337 448.534 90.985 448.252 90.985 447.969C91.0106 447.738 91.0363 447.507 91.062 447.276C91.1389 446.558 91.2416 445.865 91.3442 445.198C91.3698 445.018 91.3955 444.813 91.4468 444.633C91.4981 444.402 91.5238 444.171 91.5751 443.915C91.7547 443.042 91.9599 442.221 92.1908 441.4C92.2678 441.118 92.3704 440.836 92.4474 440.553C92.5244 440.322 92.6013 440.117 92.6783 439.886C92.7553 439.629 92.8579 439.373 92.9605 439.142C93.2427 438.398 93.5506 437.705 93.9098 437.012C94.0381 436.755 94.1664 436.525 94.2946 436.294C94.2946 436.242 94.3203 436.217 94.3459 436.191C94.8078 448.688 97.3221 470.679 109.355 471.757C129.597 473.528 125.929 443.633 125.775 442.555C125.98 443.376 130.778 459.234 141.528 471.218Z" fill="#000072"/>
</g>
<path d="M142.092 465.855C141.117 475.555 140.296 483.433 139.629 489.591C128.674 484.485 122.106 479.429 122.106 479.429C111.946 483.484 98.3226 482.201 93.9868 469.319C85.3663 443.786 93.9098 417.689 127.955 427.748C130.418 428.467 132.907 429.262 135.421 430.083C139.911 439.475 143.503 451.741 142.092 465.855Z" fill="white"/>
<g opacity="0.3">
<path d="M141.528 471.218C140.784 478.506 140.142 484.613 139.603 489.591C128.648 484.485 122.08 479.43 122.08 479.43C111.92 483.484 98.297 482.201 93.9611 469.319C91.9086 463.263 90.8311 457.156 90.8311 451.511C90.8311 451.074 90.8311 450.638 90.8567 450.176V450.099C90.8824 449.663 90.908 449.252 90.9337 448.816C90.9337 448.534 90.985 448.252 90.985 447.969C91.0106 447.738 91.0363 447.507 91.062 447.276C91.1389 446.558 91.2416 445.865 91.3442 445.198C91.3698 445.018 91.3955 444.813 91.4468 444.633C91.4981 444.402 91.5238 444.171 91.5751 443.915C91.7547 443.042 91.9599 442.221 92.1908 441.4C92.2678 441.118 92.3704 440.836 92.4474 440.553C92.5244 440.322 92.6013 440.117 92.6783 439.886C92.7553 439.629 92.8579 439.373 92.9605 439.142C93.2427 438.398 93.5506 437.705 93.9098 437.012C94.0381 436.755 94.1664 436.525 94.2946 436.294C94.2946 436.242 94.3203 436.217 94.3459 436.191C94.8078 448.688 97.3221 470.679 109.355 471.757C129.597 473.528 125.929 443.633 125.775 442.555C125.98 443.376 130.778 459.234 141.528 471.218Z" fill="#000072"/>
</g>
<path d="M184.501 504.038C176.189 504.038 168.543 502.961 161.847 501.421C141.425 496.751 126.467 487.256 121.464 483.817C114.46 486.076 107.071 485.896 101.298 483.227C96.0389 480.789 92.1905 476.401 90.215 470.551C84.545 453.743 86.2383 437.884 94.6535 429.134C99.8873 423.694 110.098 418.382 129.007 423.951C133.882 425.388 138.859 427.081 143.682 428.723C162.463 435.087 181.884 441.682 196.842 434.164C206.899 429.108 214.545 418.074 220.24 400.445C221.677 396.006 224.833 393.337 228.886 393.183C239.303 392.747 252.259 408.657 258.75 424.284C267.422 445.172 264.985 464.033 252.003 476.042C228.707 497.674 204.693 504.038 184.501 504.038ZM122.106 475.503C122.952 475.503 123.799 475.786 124.492 476.324C124.646 476.453 140.783 488.616 163.899 493.851C194.507 500.779 222.37 492.876 246.743 470.32C261.521 456.643 255.056 435.703 251.566 427.338C244.896 411.274 233.684 400.856 229.271 401.061C228.963 401.061 228.348 401.087 227.783 402.883C221.42 422.616 212.492 435.164 200.434 441.22C182.551 450.227 161.539 443.094 141.219 436.216C136.473 434.6 131.547 432.932 126.826 431.546C114.845 428.005 105.711 429.083 100.349 434.625C93.9864 441.246 92.9602 454.076 97.7066 468.087C98.9894 471.911 101.324 474.605 104.634 476.145C109.047 478.172 115.024 478.044 120.669 475.811C121.105 475.58 121.618 475.503 122.106 475.503Z" fill="#000072"/>
<path d="M547.561 423.822C547.484 424.413 547.407 425.003 547.305 425.567C547.048 427.235 546.715 428.852 546.304 430.392C537.247 465.214 494.427 461.005 493.606 422.462C493.042 395.031 480.368 386.306 468.463 387.974C466.616 388.231 464.794 388.744 463.05 389.462C459.124 391.079 455.507 393.799 452.787 397.263C450.478 400.189 448.811 403.627 448.067 407.399C446.681 414.559 447.246 421.718 449.196 428.903C453.275 444.018 463.46 459.132 474.492 474.118C477.648 478.429 480.881 482.689 484.037 486.974C487.628 491.824 490.502 496.751 492.683 501.78C496.403 510.3 498.147 518.973 498.173 527.416C498.173 534.806 496.865 542.017 494.376 548.766C482.446 581.227 443.526 603.346 395.574 586.461L400.654 544.403C410.121 550.767 419.691 553.077 428.132 552.743C429.132 552.717 430.107 552.64 431.057 552.538C431.39 552.512 431.724 552.461 432.057 552.409C444.68 550.69 454.25 543.197 456.354 535.37C463.075 510.736 428.773 468.601 417.869 444.916C397.55 400.805 414.355 359.542 450.504 345.3C455.43 343.35 460.715 341.913 466.308 341.04C469.31 340.553 472.44 340.27 475.621 340.117C477.956 340.014 480.214 340.014 482.446 340.142C530.577 342.554 551.41 392.208 547.561 423.822Z" fill="#8E8FB3"/>
<g opacity="0.3">
<path d="M494.376 548.765C482.446 581.227 443.526 603.346 395.574 586.461L400.654 544.403C410.121 550.767 419.691 553.076 428.132 552.743C439.959 569.602 476.75 577.3 494.376 548.765Z" fill="#000072"/>
</g>
<path d="M463.076 389.488C464.846 388.77 466.642 388.256 468.489 388C480.393 386.332 493.068 395.057 493.632 422.462C494.453 461.005 537.273 465.214 546.33 430.392C546.74 428.852 547.048 427.235 547.305 425.567C547.382 424.977 547.459 424.387 547.536 423.797C551.384 392.208 530.577 342.529 482.42 340.168C480.214 340.04 477.93 340.04 475.596 340.142C472.414 340.27 469.284 340.578 466.283 341.066C463.589 343.529 457.329 352.357 456.662 360.517C456.585 361.518 461.1 358.772 460.895 359.85C460.253 363.519 453.942 375.298 455.841 376.683C456.277 376.991 460.818 374.887 460.767 375.426C460.664 377.812 460.459 382.585 463.076 389.488Z" fill="white"/>
<g opacity="0.3">
<path d="M433.161 418.844C440.575 446.301 464.127 466.394 474.493 474.143C463.46 459.157 453.275 444.043 449.196 428.929C447.246 421.769 446.681 414.584 448.092 407.425C448.836 403.653 450.504 400.189 452.813 397.289C456.764 392.285 462.537 388.821 468.515 388C480.419 386.332 493.068 395.056 493.658 422.488C494.479 461.031 537.299 465.239 546.355 430.417C546.766 428.878 547.074 427.261 547.33 425.593C540.839 432.624 523.829 445.762 511.309 436.088C493.658 422.488 508.615 391.618 485.704 375.092C468.181 362.518 423.539 383.227 433.161 418.844Z" fill="#000072"/>
</g>
<path d="M427.773 596.11C416.946 596.11 405.631 594.16 394.291 590.182C392.239 589.464 391.161 587.231 391.88 585.178C392.598 583.125 394.856 582.048 396.883 582.792C430.954 594.801 464.641 586.692 482.754 562.135C498.789 540.374 498.096 512.481 480.907 489.335C479.701 487.718 478.521 486.127 477.315 484.51C458.509 459.311 439.087 433.266 444.218 406.681C446.81 393.235 460.099 382.842 473.21 383.945C478.751 384.407 496.839 388.59 497.557 422.385C497.942 441.144 508.59 449.021 517.569 450.074C527.036 451.177 538.402 445.224 542.507 429.416C546.689 413.301 542.584 386.64 526.651 366.906C517.774 355.898 501.714 343.016 475.775 344.094C452.608 345.069 433.058 355.847 422.154 373.707C410.275 393.158 409.993 418.536 421.41 443.299C424.437 449.868 429.466 458.157 434.802 466.933C449.119 490.515 465.385 517.228 460.125 536.423C458.124 543.787 450.992 550.562 441.576 554.077C427.824 559.209 412.122 556.874 398.448 547.688C396.652 546.482 396.164 544.044 397.37 542.248C398.576 540.451 401.013 539.964 402.809 541.17C414.355 548.919 427.491 550.947 438.831 546.713C445.835 544.095 451.222 539.245 452.557 534.344C456.918 518.409 440.934 492.106 428.106 471.013C422.667 462.057 417.51 453.563 414.278 446.584C401.757 419.383 402.168 391.336 415.458 369.601C427.747 349.483 449.606 337.345 475.442 336.242C504.664 335.01 522.726 349.56 532.758 361.954C548.51 381.456 555.643 410.017 550.101 431.367C544.816 451.767 529.474 459.363 516.646 457.849C503.561 456.309 490.168 444.813 489.681 422.539C489.296 404.14 482.882 392.644 472.517 391.746C463.383 390.951 453.737 398.623 451.89 408.144C447.4 431.315 465.795 455.95 483.549 479.763C484.755 481.38 485.961 482.997 487.167 484.613C506.178 510.248 506.922 542.479 489.014 566.754C475.006 585.871 452.659 596.11 427.773 596.11Z" fill="#000072"/>
<path d="M385.184 611.712C382.336 612.738 376.076 613.713 369.02 614.432C361.862 615.176 353.857 615.638 347.751 615.638H277.402C277.402 615.638 226.936 579.148 217.675 508.991C217.546 508.118 217.444 507.272 217.341 506.399C214.365 480.841 217.675 453.127 222.498 429.493C229.271 396.442 239.097 371.397 239.097 371.397L340.85 375.939C340.85 375.939 344.647 393.055 353.447 414.482C355.371 419.203 357.552 424.156 359.989 429.16C365.608 440.758 372.612 452.768 381.13 463.443C389.109 473.476 406.042 490.13 415.586 522.027C416.51 525.132 417.921 533.651 418.588 537.988C418.716 538.912 418.844 539.835 418.973 540.733C426.156 597.341 388.904 610.403 385.184 611.712Z" fill="#8E8FB3"/>
<g opacity="0.3">
<path d="M368.995 614.432C361.837 615.176 353.832 615.638 347.726 615.638H277.402C277.402 615.638 226.937 579.148 217.675 508.991C229.785 519.512 247.975 528.519 264.831 510.274L307.548 544.685L319.324 549.587C319.324 549.587 327.714 533.779 341.414 532.445C348.932 531.675 360.297 575.068 368.995 614.432Z" fill="#000072"/>
</g>
<g opacity="0.3">
<path d="M368.995 614.432C368.943 614.432 368.892 614.432 368.841 614.457C368.097 614.534 367.301 614.611 366.532 614.663C366.301 614.688 366.044 614.714 365.813 614.74C365.044 614.817 364.274 614.868 363.504 614.945C362.94 614.996 362.401 615.022 361.837 615.073C360.528 615.176 359.245 615.253 357.962 615.33C354.294 615.535 350.779 615.663 347.726 615.663H277.402C277.402 615.663 277.274 615.586 277.069 615.407C276.94 615.304 276.735 615.15 276.53 614.996C275.144 613.944 272.271 611.583 268.448 607.991C267.884 607.452 267.294 606.913 266.704 606.323C266.19 605.835 265.703 605.322 265.164 604.809C264.805 604.45 264.446 604.09 264.087 603.705C263.651 603.269 263.214 602.807 262.753 602.345C262.445 602.012 262.111 601.678 261.803 601.345C261.367 600.883 260.931 600.421 260.469 599.933C260.136 599.548 259.776 599.163 259.417 598.753C257.929 597.111 256.415 595.366 254.85 593.492C254.44 592.979 254.004 592.466 253.593 591.953C251.695 589.618 249.771 587.103 247.846 584.434C247.461 583.869 247.051 583.305 246.64 582.74C246.179 582.073 245.717 581.406 245.255 580.713C244.819 580.072 244.383 579.43 243.947 578.789C243.562 578.198 243.151 577.583 242.766 576.967C242.202 576.094 241.638 575.196 241.073 574.298C240.714 573.733 240.38 573.169 240.047 572.604C239.636 571.963 239.252 571.296 238.867 570.628C238.379 569.807 237.917 568.986 237.456 568.139C237.045 567.421 236.635 566.702 236.25 565.958C235.865 565.291 235.506 564.598 235.147 563.905C234.223 562.16 233.299 560.364 232.427 558.516C232.145 557.952 231.888 557.387 231.632 556.823C231.144 555.796 230.682 554.744 230.221 553.692C229.938 553.051 229.656 552.409 229.374 551.768C229.246 551.485 229.117 551.177 228.989 550.87C228.733 550.254 228.476 549.663 228.245 549.022C228.168 548.842 228.091 548.688 228.04 548.509C227.706 547.662 227.373 546.815 227.039 545.968C226.808 545.352 226.577 544.711 226.346 544.095C226.167 543.633 225.987 543.171 225.833 542.684C225.551 541.914 225.295 541.118 225.012 540.323C224.756 539.604 224.525 538.86 224.294 538.142C224.191 537.885 224.114 537.603 224.037 537.321C223.755 536.474 223.499 535.601 223.242 534.729C223.011 533.933 222.78 533.138 222.549 532.342C222.472 532.034 222.37 531.726 222.293 531.419C222.062 530.649 221.857 529.853 221.651 529.058C221.626 528.955 221.6 528.827 221.574 528.724C221.369 527.929 221.164 527.133 220.984 526.312C220.907 526.03 220.83 525.722 220.779 525.414C220.6 524.747 220.446 524.054 220.317 523.361C220.24 523.079 220.189 522.771 220.112 522.489C219.907 521.616 219.727 520.744 219.573 519.871C219.548 519.717 219.522 519.589 219.496 519.435C219.342 518.665 219.188 517.895 219.06 517.1C218.932 516.433 218.804 515.74 218.701 515.047C218.547 514.226 218.419 513.379 218.29 512.558C218.239 512.173 218.162 511.788 218.111 511.377C218.008 510.685 217.906 509.992 217.829 509.324C217.803 509.247 217.803 509.145 217.777 509.068C228.733 518.588 244.639 526.851 260.059 514.842C260.059 514.97 260.059 515.098 260.059 515.226C259.34 544.275 279.455 540.939 296.952 551.742C305.213 556.849 310.832 577.737 316.528 584.1C327.74 596.572 344.955 596.315 362.991 588.386C365.018 596.88 367.07 605.758 368.995 614.432Z" fill="#000072"/>
</g>
<g opacity="0.3">
<path d="M359.989 429.16C340.465 436.191 316.605 440.322 290.795 440.322C265.395 440.322 241.869 436.319 222.524 429.493C229.297 396.442 239.123 371.397 239.123 371.397L340.876 375.939C340.876 375.939 344.673 393.055 353.473 414.482C355.397 419.203 357.578 424.156 359.989 429.16Z" fill="#000072"/>
</g>
<g opacity="0.3">
<path d="M353.447 414.482C341.953 419.665 325.354 428.082 309.293 439.604C303.264 440.066 297.081 440.322 290.795 440.322C265.395 440.322 241.869 436.319 222.524 429.493C223.473 424.823 224.499 420.332 225.551 416.021C226.013 414.148 226.475 412.301 226.937 410.504C227.014 410.222 227.091 409.94 227.142 409.657C227.399 408.631 227.681 407.605 227.937 406.604C227.937 406.553 227.963 406.527 227.963 406.476C228.374 404.885 228.81 403.319 229.246 401.805C229.425 401.138 229.631 400.471 229.81 399.829C229.99 399.213 230.169 398.598 230.349 397.982C230.529 397.392 230.683 396.801 230.862 396.211C231.016 395.672 231.17 395.133 231.324 394.62C231.427 394.287 231.529 393.953 231.606 393.645C231.76 393.132 231.914 392.619 232.068 392.105C232.863 389.462 233.633 387.05 234.351 384.869C234.403 384.689 234.48 384.484 234.531 384.304C234.608 384.022 234.711 383.714 234.813 383.432C234.89 383.15 234.993 382.867 235.095 382.585C237.122 376.478 238.61 372.577 238.995 371.577C239.021 371.5 239.046 371.448 239.046 371.423C239.072 371.346 239.098 371.32 239.098 371.32L340.85 375.862C340.85 375.939 344.673 393.055 353.447 414.482Z" fill="#000072"/>
</g>
<path d="M385.184 611.712C379.437 613.764 359.861 615.638 347.751 615.638H277.402C277.402 615.638 225.705 578.25 217.341 506.373C210.234 445.07 239.098 371.371 239.098 371.371L340.85 375.913C340.85 375.913 344.647 393.029 353.447 414.456C324.096 427.671 261.264 462.108 259.956 515.124C259.238 544.172 279.352 540.836 296.85 551.639C305.111 556.746 310.729 577.634 316.425 583.998C340.029 610.275 390.263 580.072 418.947 540.708C426.156 597.341 388.904 610.403 385.184 611.712Z" fill="white"/>
<g opacity="0.3">
<path d="M368.995 614.432C368.943 614.432 368.892 614.432 368.841 614.457C368.097 614.534 367.301 614.611 366.532 614.663C366.301 614.688 366.044 614.714 365.813 614.74C365.044 614.817 364.274 614.868 363.504 614.945C362.94 614.996 362.401 615.022 361.837 615.073C360.528 615.176 359.245 615.253 357.962 615.33C354.294 615.535 350.779 615.663 347.726 615.663H277.402C277.402 615.663 277.274 615.586 277.069 615.407C276.94 615.304 276.735 615.15 276.53 614.996C275.144 613.944 272.271 611.583 268.448 607.991C267.884 607.452 267.294 606.913 266.704 606.323C266.19 605.835 265.703 605.322 265.164 604.809C264.805 604.45 264.446 604.09 264.087 603.705C263.651 603.269 263.214 602.807 262.753 602.345C262.445 602.012 262.111 601.678 261.803 601.345C261.367 600.883 260.931 600.421 260.469 599.933C260.136 599.548 259.776 599.163 259.417 598.753C257.929 597.111 256.415 595.366 254.85 593.492C254.44 592.979 254.004 592.466 253.593 591.953C251.695 589.618 249.771 587.103 247.846 584.434C247.461 583.869 247.051 583.305 246.64 582.74C246.179 582.073 245.717 581.406 245.255 580.713C244.819 580.072 244.383 579.43 243.947 578.789C243.562 578.198 243.151 577.583 242.766 576.967C242.202 576.094 241.638 575.196 241.073 574.298C240.714 573.733 240.38 573.169 240.047 572.604C239.636 571.963 239.252 571.296 238.867 570.628C238.379 569.807 237.917 568.986 237.456 568.139C237.045 567.421 236.635 566.702 236.25 565.958C235.865 565.291 235.506 564.598 235.147 563.905C234.223 562.16 233.299 560.364 232.427 558.516C232.145 557.952 231.888 557.387 231.632 556.823C231.144 555.796 230.682 554.744 230.221 553.692C229.938 553.051 229.656 552.409 229.374 551.768C229.246 551.485 229.117 551.177 228.989 550.87C228.733 550.254 228.476 549.663 228.245 549.022C228.168 548.842 228.091 548.688 228.04 548.509C227.706 547.662 227.373 546.815 227.039 545.968C226.808 545.352 226.577 544.711 226.346 544.095C226.167 543.633 225.987 543.171 225.833 542.684C225.551 541.914 225.295 541.118 225.012 540.323C224.756 539.604 224.525 538.86 224.294 538.142C224.191 537.885 224.114 537.603 224.037 537.321C223.755 536.474 223.499 535.601 223.242 534.729C223.011 533.933 222.78 533.138 222.549 532.342C222.472 532.034 222.37 531.726 222.293 531.419C222.062 530.649 221.857 529.853 221.651 529.058C221.626 528.955 221.6 528.827 221.574 528.724C221.369 527.929 221.164 527.133 220.984 526.312C220.907 526.03 220.83 525.722 220.779 525.414C220.6 524.747 220.446 524.054 220.317 523.361C220.24 523.079 220.189 522.771 220.112 522.489C219.907 521.616 219.727 520.744 219.573 519.871C219.548 519.717 219.522 519.589 219.496 519.435C219.342 518.665 219.188 517.895 219.06 517.1C218.932 516.433 218.804 515.74 218.701 515.047C218.547 514.226 218.419 513.379 218.29 512.558C218.239 512.173 218.162 511.788 218.111 511.377C218.008 510.685 217.906 509.992 217.829 509.324C217.803 509.247 217.803 509.145 217.777 509.068C228.733 518.588 244.639 526.851 260.059 514.842C260.059 514.97 260.059 515.098 260.059 515.226C259.34 544.275 279.455 540.939 296.952 551.742C305.213 556.849 310.832 577.737 316.528 584.1C327.74 596.572 344.955 596.315 362.991 588.386C365.018 596.88 367.07 605.758 368.995 614.432Z" fill="#000072"/>
</g>
<g opacity="0.3">
<path d="M353.447 414.482C341.953 419.665 325.354 428.082 309.293 439.604C303.264 440.066 297.081 440.322 290.795 440.322C265.395 440.322 241.869 436.319 222.524 429.493C223.473 424.823 224.499 420.332 225.551 416.021C226.013 414.148 226.475 412.301 226.937 410.504C227.014 410.222 227.091 409.94 227.142 409.657C227.399 408.631 227.681 407.605 227.937 406.604C227.937 406.553 227.963 406.527 227.963 406.476C228.399 404.885 228.81 403.319 229.246 401.805C229.425 401.138 229.631 400.471 229.81 399.829C229.99 399.213 230.169 398.598 230.349 397.982C230.529 397.392 230.683 396.801 230.862 396.211C231.016 395.672 231.17 395.133 231.324 394.62C231.427 394.287 231.529 393.953 231.606 393.645C231.76 393.132 231.914 392.619 232.068 392.105C232.863 389.462 233.633 387.05 234.351 384.869C234.403 384.689 234.48 384.484 234.531 384.304C234.608 384.022 234.711 383.714 234.813 383.432C234.89 383.15 234.993 382.867 235.095 382.585C237.122 376.478 238.61 372.577 238.995 371.577C239.021 371.5 239.046 371.448 239.046 371.423C239.072 371.346 239.098 371.32 239.098 371.32L340.85 375.862C340.85 375.939 344.673 393.055 353.447 414.482Z" fill="#000072"/>
</g>
<path d="M347.726 619.564H277.402C276.581 619.564 275.76 619.307 275.093 618.82C272.938 617.254 221.882 579.584 213.441 506.835C206.283 445.249 234.249 372.988 235.429 369.96C236.044 368.395 237.584 367.394 239.252 367.471L341.004 372.013C342.774 372.09 344.288 373.347 344.673 375.092C344.775 375.605 356.243 425.952 384.183 461.031C385.286 462.416 386.569 463.956 387.98 465.624C397.114 476.427 410.891 492.773 419.306 520.949C420.332 524.413 421.795 533.266 422.411 537.449C431.159 596.366 394.009 612.738 386.492 615.432C380.052 617.716 360.015 619.564 347.726 619.564ZM278.736 611.712H347.726C360.015 611.712 378.923 609.787 383.849 608.016C393.06 604.732 422.334 590.105 414.688 538.578C413.97 533.779 412.61 525.799 411.815 523.156C403.861 496.545 390.7 480.969 382.002 470.654C380.565 468.96 379.206 467.343 378.051 465.906C352.6 433.958 340.619 391.31 337.72 379.737L241.766 375.451C236.814 389.026 215.058 452.742 221.241 505.963C228.656 569.756 271.681 606.143 278.736 611.712Z" fill="#000072"/>
<g opacity="0.3">
<path d="M167.158 336.19C167.235 336.319 167.312 336.472 167.389 336.601L167.106 336.165C167.106 336.165 167.132 336.19 167.158 336.19Z" fill="#000072"/>
<path d="M473.338 336.165L473.056 336.601C473.133 336.472 473.21 336.319 473.287 336.19C473.312 336.19 473.338 336.165 473.338 336.165Z" fill="#000072"/>
</g>
<path d="M322.3 532.933C322.3 532.933 322.146 533.702 321.838 535.088C320.299 542.196 314.911 565.548 307.548 585.64C305.496 591.26 303.263 596.649 300.929 601.345C299.184 604.886 296.747 607.786 294.361 610.044C290.102 614.073 284.458 616.305 278.608 616.305H257.544C253.234 616.305 249.052 614.534 246.332 611.198C243.587 607.863 242.638 603.629 243.023 600.01C243.305 597.265 244.331 594.878 245.871 593.441C249.591 590.003 252.823 589.156 255.261 588.283C257.724 587.411 259.366 586.487 259.956 582.946C261.803 571.835 262.829 543.171 264.831 511.557L322.3 532.933Z" fill="#8E8FB3"/>
<g opacity="0.3">
<path d="M321.838 535.088C320.299 542.196 314.911 565.548 307.548 585.64C305.496 591.26 303.263 596.649 300.929 601.345C299.184 604.886 296.747 607.786 294.361 610.044C290.102 614.072 284.458 616.305 278.608 616.305H257.544C253.234 616.305 249.052 614.534 246.332 611.198C243.587 607.863 242.638 603.628 243.023 600.01C247.461 603.372 256.415 607.272 273.554 605.861C298.004 603.885 311.884 544.223 321.838 535.088Z" fill="#000072"/>
</g>
<path d="M307.548 585.64C305.496 591.26 303.264 596.649 300.929 601.345C299.184 604.886 296.747 607.786 294.361 610.044C290.102 614.072 284.458 616.305 278.608 616.305H257.545C253.234 616.305 249.052 614.534 246.333 611.198C241.535 605.348 242.228 596.803 245.871 593.441C249.591 590.003 252.824 589.156 255.261 588.283C260.623 587.667 267.679 587.693 276.966 588.925C290.846 590.798 300.673 589.156 307.548 585.64Z" fill="white"/>
<g opacity="0.3">
<path d="M307.548 585.64C305.496 591.26 303.264 596.649 300.929 601.345C299.185 604.886 296.747 607.786 294.361 610.044C290.102 614.072 284.458 616.305 278.608 616.305H257.545C253.234 616.305 249.052 614.534 246.333 611.198C243.973 608.324 242.946 604.783 242.946 601.524C242.946 601.268 242.946 601.011 242.972 600.78C242.998 600.523 243.023 600.267 243.023 600.01C247.462 603.372 256.416 607.272 273.554 605.861C281.507 605.219 288.332 598.471 294.284 589.335C299.595 588.796 303.957 587.462 307.548 585.64Z" fill="#000072"/>
</g>
<path d="M324.019 533.292C323.506 543.633 321.12 553.564 318.478 563.443C315.835 573.323 312.551 583.048 308.703 592.62C307.651 595.006 306.753 597.393 305.573 599.754C305.008 600.934 304.495 602.089 303.854 603.321C303.187 604.604 302.443 605.81 301.647 606.964C300.005 609.3 298.184 611.352 296.054 613.251C293.848 615.176 291.334 616.767 288.64 617.845C285.92 618.948 283.047 619.615 280.122 619.769C278.582 619.846 277.402 619.821 276.119 619.821H272.348H257.057C253.953 619.744 250.848 618.897 248.129 617.306C245.383 615.715 243.074 613.251 241.638 610.48C240.15 607.709 239.431 604.604 239.431 601.499C239.482 598.394 240.073 595.186 242.253 592.184C242.792 591.44 243.587 590.695 244.049 590.285C244.588 589.797 245.178 589.335 245.768 588.899C246.974 588.027 248.257 587.231 249.591 586.59C250.925 585.948 252.311 585.435 253.465 585.024C254.645 584.614 255.492 584.203 255.671 584.024C255.774 583.921 255.825 583.87 255.928 583.664C256.031 583.485 256.133 583.151 256.21 582.766C256.287 582.407 256.39 581.74 256.467 581.15C256.544 580.559 256.646 579.969 256.698 579.353C257.006 576.941 257.211 574.426 257.442 571.937C259.161 551.922 259.751 531.547 263.086 511.454C263.24 510.479 264.164 509.838 265.139 509.992C265.985 510.12 266.575 510.839 266.627 511.685C267.037 521.847 266.883 531.983 266.55 542.119C266.165 552.255 265.703 562.366 264.933 572.579C264.728 575.145 264.497 577.685 264.164 580.303C264.087 580.944 264.01 581.611 263.907 582.279C263.804 582.946 263.753 583.536 263.548 584.408C263.343 585.255 263.086 586.153 262.599 587.103C262.137 588.052 261.393 589.002 260.52 589.72C259.648 590.464 258.75 590.901 257.981 591.234C257.211 591.568 256.518 591.799 255.902 592.004C254.671 592.415 253.67 592.748 252.695 593.184C251.746 593.621 250.848 594.134 250.001 594.75C249.206 595.34 248.154 596.187 247.923 596.546C247.051 597.649 246.461 599.625 246.487 601.55C246.487 603.5 246.974 605.502 247.872 607.195C248.796 608.915 250.078 610.275 251.72 611.25C253.362 612.199 255.287 612.764 257.262 612.789H272.374H276.171C277.428 612.789 278.788 612.815 279.763 612.764C281.918 612.661 284.022 612.148 285.997 611.352C287.998 610.557 289.82 609.402 291.436 607.991C293.078 606.528 294.643 604.758 295.926 602.961C296.567 602.038 297.157 601.088 297.645 600.113C298.158 599.087 298.671 597.906 299.184 596.803C300.262 594.596 301.108 592.261 302.083 589.977C305.65 580.688 308.549 571.09 311.448 561.468C314.27 551.819 316.861 542.094 320.607 532.599V532.573C320.966 531.65 322.018 531.213 322.916 531.573C323.635 531.829 324.071 532.548 324.019 533.292Z" fill="#000072"/>
<path d="M254.26 585.281C256.159 585.23 257.878 585.332 259.674 585.46C261.444 585.589 263.214 585.794 264.933 586.076C268.397 586.641 271.886 587.539 274.939 589.104C271.552 588.565 268.192 588.796 264.908 589.284C263.266 589.541 261.649 589.874 260.033 590.259C258.442 590.644 256.8 591.106 255.363 591.619C253.67 592.209 251.823 591.337 251.207 589.643C250.617 587.95 251.489 586.102 253.183 585.486C253.516 585.358 253.85 585.307 254.183 585.307L254.26 585.281Z" fill="#000072"/>
<path d="M271.809 598.419C271.655 600.216 271.707 602.038 271.912 603.783C272.117 605.528 272.528 607.195 273.22 608.632C273.887 610.069 274.862 611.199 275.914 611.891C276.992 612.584 278.275 612.764 279.532 612.867H279.583C281.559 613.02 283.021 614.765 282.867 616.716C282.713 618.692 280.969 620.154 279.019 620C278.634 619.975 278.249 619.872 277.915 619.718C275.76 618.794 273.631 617.537 272.194 615.612C270.757 613.713 270.09 611.532 269.859 609.505C269.629 607.478 269.834 605.528 270.193 603.68C270.527 601.858 271.065 600.087 271.809 598.419Z" fill="#000072"/>
<path d="M254.158 598.419C254.004 600.216 254.055 602.038 254.261 603.783C254.466 605.528 254.876 607.195 255.569 608.632C256.236 610.069 257.211 611.199 258.263 611.891C259.34 612.584 260.623 612.764 261.88 612.867H261.932C263.907 613.02 265.37 614.765 265.216 616.716C265.062 618.692 263.317 620.154 261.367 620C260.982 619.975 260.598 619.872 260.264 619.718C258.109 618.794 255.98 617.537 254.543 615.612C253.106 613.713 252.439 611.532 252.208 609.505C251.977 607.478 252.182 605.528 252.542 603.68C252.875 601.858 253.414 600.087 254.158 598.419Z" fill="#000072"/>
<path d="M418.716 566.574C413.662 594.852 391.572 614.996 358.271 614.996C358.271 614.996 333.974 614.996 330.87 614.996C319.35 614.996 315.271 596.854 324.097 590.182C328.176 587.103 334.769 586.692 334.616 585.82C334.616 585.794 334.59 585.743 334.564 585.717C333.846 584.768 318.427 566.317 323.327 545.147C328.946 520.872 354.217 512.609 374.357 513.276L410.635 525.337L415.484 522.052C417.562 530.161 418.999 539.04 419.614 548.842C420.025 555.001 419.717 560.954 418.716 566.574Z" fill="#8E8FB3"/>
<path d="M418.716 566.574C413.662 594.853 391.572 614.996 358.271 614.996C358.271 614.996 333.974 614.996 330.87 614.996C319.35 614.996 315.271 596.854 324.097 590.182C328.176 587.103 334.769 586.692 334.616 585.82C342.235 585.384 352.729 585.692 367.045 587.616C393.24 591.157 410.635 582.407 418.716 566.574Z" fill="white"/>
<g opacity="0.3">
<path d="M418.716 566.574C413.688 594.853 391.572 614.996 358.271 614.996C358.271 614.996 333.974 614.996 330.87 614.996C323.404 614.996 319.042 607.349 319.35 600.164C319.35 600.036 319.35 599.908 319.376 599.779C319.376 599.651 319.402 599.497 319.402 599.369C319.402 599.318 319.402 599.266 319.427 599.215C319.453 599.01 319.479 598.779 319.504 598.573C319.53 598.419 319.555 598.265 319.581 598.111C319.607 597.958 319.632 597.778 319.684 597.624C319.709 597.521 319.709 597.444 319.735 597.342C319.761 597.188 319.812 597.059 319.838 596.905C319.94 596.469 320.094 596.033 320.248 595.597C321.839 600.421 325.585 604.296 330.896 604.296C333.974 604.296 358.296 604.296 358.296 604.296C382.387 604.296 400.629 593.749 410.763 577.198C413.996 574.17 416.664 570.603 418.716 566.574Z" fill="#000072"/>
</g>
<path d="M374.331 515.227C368.045 515.458 361.837 516.458 355.961 518.28C350.086 520.102 344.544 522.745 339.901 526.389C335.231 530.007 331.639 534.678 329.356 539.938C328.227 542.556 327.355 545.378 326.893 548.201C326.406 551.024 326.226 553.949 326.508 556.849C326.944 562.699 328.894 568.473 331.639 573.836C333.025 576.531 334.616 579.122 336.386 581.56L337.053 582.458L337.386 582.895L337.566 583.125L337.694 583.305C337.617 583.202 337.977 583.664 338.13 584.024C338.31 584.409 338.438 584.716 338.541 585.409C338.669 586.744 338.233 587.642 337.746 588.335C337.592 588.54 337.412 588.72 337.232 588.899C337.027 589.104 336.899 589.181 336.822 589.258C336.309 589.618 336.104 589.695 335.847 589.823C335.411 590.028 335.129 590.105 334.872 590.182C334.359 590.336 333.948 590.465 333.538 590.567C331.947 590.978 330.588 591.363 329.305 591.85C326.713 592.851 325.302 594.006 324.302 596.084C323.327 598.086 323.045 600.703 323.481 603.167C323.891 605.63 325.046 607.965 326.636 609.402C327.432 610.121 328.278 610.634 329.228 610.865C329.69 610.993 330.177 611.07 330.69 611.096C330.87 611.122 331.409 611.096 331.768 611.122H332.974H352.344H357.193C358.835 611.147 360.297 611.07 361.862 611.045C364.915 610.839 367.969 610.583 370.97 610.018C376.948 608.94 382.772 607.016 388.057 604.167C393.368 601.345 398.115 597.573 402.117 593.108C410.096 584.126 414.611 572.297 415.638 560.133C415.92 557.105 415.997 554.026 415.843 550.947C415.74 547.893 415.458 544.685 415.099 541.58C414.406 535.319 413.303 529.135 411.738 523.053C411.199 520.949 412.456 518.819 414.56 518.28C416.664 517.741 418.793 518.999 419.332 521.103C420.974 527.544 422.154 534.113 422.873 540.682C423.232 543.993 423.54 547.226 423.642 550.613C423.796 554 423.719 557.388 423.411 560.8C423.129 564.188 422.59 567.575 421.821 570.911C421.077 574.247 420.025 577.531 418.742 580.713C416.202 587.103 412.533 593.082 407.966 598.291C405.657 600.883 403.143 603.269 400.424 605.425C397.704 607.58 394.779 609.428 391.752 611.096C385.671 614.38 379.052 616.562 372.356 617.768C368.995 618.409 365.608 618.692 362.222 618.922C360.554 618.948 358.784 619.025 357.193 619.025H352.344H332.974H331.768C331.332 619.025 331.049 619.051 330.434 618.999C329.33 618.974 328.202 618.794 327.124 618.486C324.943 617.896 322.942 616.716 321.351 615.253C318.144 612.276 316.451 608.427 315.784 604.578C315.117 600.703 315.425 596.572 317.272 592.723C318.17 590.824 319.504 589.027 321.197 587.616C322.891 586.153 324.764 585.255 326.508 584.588C328.253 583.895 329.997 583.433 331.537 583.048L332.537 582.766C332.64 582.741 332.768 582.689 332.691 582.715C332.614 582.741 332.589 582.741 332.23 582.971C332.178 583.023 332.101 583.074 331.922 583.228C331.768 583.356 331.639 583.51 331.511 583.69C331.049 584.306 330.69 585.101 330.793 586.333C330.895 586.975 330.998 587.206 331.152 587.565C331.306 587.873 331.614 588.283 331.511 588.155L331.46 588.078L331.255 587.821L330.844 587.308L330.074 586.256C328.048 583.459 326.252 580.534 324.687 577.48C321.557 571.373 319.35 564.675 318.657 557.619C318.298 554.103 318.401 550.51 318.914 546.969C319.478 543.428 320.479 540.015 321.941 536.705C323.404 533.42 325.354 530.367 327.663 527.621C329.972 524.875 332.666 522.54 335.539 520.513C341.312 516.484 347.854 513.944 354.448 512.507C361.067 511.095 367.84 510.736 374.46 511.352C375.537 511.454 376.332 512.404 376.23 513.507C376.127 514.431 375.306 515.201 374.331 515.227Z" fill="#000072"/>
<path d="M333.153 582.51C335.591 582.51 337.797 582.663 340.106 582.843C342.39 583.048 344.647 583.331 346.879 583.716C351.344 584.485 355.782 585.64 359.759 587.616C355.397 586.898 351.036 587.129 346.777 587.642C344.647 587.924 342.518 588.283 340.414 588.719C338.336 589.156 336.181 589.669 334.282 590.259C332.178 590.901 329.972 589.746 329.305 587.642C328.663 585.538 329.818 583.331 331.922 582.664C332.307 582.535 332.692 582.484 333.076 582.484L333.153 582.51Z" fill="#000072"/>
<path d="M352.19 597.136C352.062 598.958 352.139 600.754 352.37 602.499C352.626 604.219 353.037 605.912 353.755 607.324C354.448 608.735 355.423 609.813 356.475 610.454C357.527 611.096 358.758 611.198 359.99 611.275C362.145 611.404 363.812 613.226 363.684 615.407C363.556 617.562 361.734 619.23 359.579 619.102C359.117 619.076 358.656 618.974 358.245 618.794L358.194 618.768C355.987 617.819 353.832 616.51 352.37 614.509C350.933 612.558 350.24 610.326 350.035 608.273C349.83 606.22 350.061 604.27 350.446 602.422C350.856 600.575 351.421 598.804 352.19 597.136Z" fill="#000072"/>
<path d="M334.539 597.136C334.41 598.958 334.487 600.754 334.718 602.499C334.975 604.219 335.385 605.912 336.104 607.324C336.796 608.735 337.771 609.813 338.823 610.454C339.875 611.096 341.107 611.198 342.338 611.275C344.493 611.404 346.161 613.226 346.033 615.407C345.904 617.562 344.083 619.23 341.902 619.102C341.44 619.076 340.978 618.974 340.568 618.794L340.516 618.768C338.31 617.819 336.155 616.51 334.693 614.509C333.256 612.558 332.563 610.326 332.358 608.273C332.153 606.22 332.384 604.27 332.768 602.422C333.205 600.575 333.795 598.804 334.539 597.136Z" fill="#000072"/>
<g opacity="0.7">
<path d="M356.038 525.106C356.038 525.106 338.72 528.519 333.692 543.916C328.92 558.542 336.719 561.032 339.131 552.974C341.543 544.916 344.082 535.371 356.038 525.106Z" fill="white"/>
</g>
<path d="M145.324 297.391C144.324 296.39 143.221 295.261 142.092 294.234C140.989 293.182 139.783 292.207 138.628 291.206C136.242 289.256 133.856 287.332 131.342 285.587C126.313 282.046 121.105 278.761 115.589 276.041C114.229 275.322 112.793 274.758 111.407 274.065L109.303 273.09C108.611 272.782 107.867 272.525 107.148 272.217C105.711 271.653 104.275 271.088 102.864 270.498L98.4764 269.01C95.5773 267.932 92.5242 267.342 89.5481 266.444C86.5463 265.648 83.4932 265.161 80.4401 264.416L80.2862 264.365C79.2343 264.109 78.5929 263.056 78.8495 262.004C79.0804 261.029 80.004 260.413 80.9789 260.516C82.5696 260.696 84.1603 260.875 85.7766 261.081L88.1626 261.388L89.3685 261.542L90.5487 261.773C92.1393 262.081 93.7044 262.415 95.295 262.749C96.8857 263.056 98.4251 263.493 99.9901 263.929L104.66 265.263C106.199 265.802 107.713 266.341 109.226 266.906C109.996 267.188 110.766 267.444 111.51 267.752L113.742 268.728C115.23 269.395 116.744 269.985 118.18 270.755C124.03 273.603 129.572 277.016 134.703 281.019C139.834 285.048 144.529 289.487 148.429 294.979C149.045 295.851 148.839 297.083 147.967 297.699C147.172 298.263 146.094 298.161 145.427 297.468L145.324 297.391Z" fill="#000072"/>
<path d="M141.989 321.692C137.089 319.562 131.881 317.715 126.698 316.201C121.49 314.712 116.205 313.48 110.868 312.865C108.2 312.557 105.532 312.326 102.838 312.326C100.17 312.3 97.4758 312.377 94.8333 312.711C89.5224 313.25 84.3143 314.558 79.2857 316.508L79.2343 316.534C78.2337 316.919 77.0792 316.432 76.6944 315.405C76.3352 314.456 76.7457 313.429 77.618 312.967C82.7492 310.247 88.3423 308.348 94.1149 307.45C96.9884 306.988 99.9132 306.706 102.812 306.68C105.711 306.629 108.636 306.732 111.51 307.091C117.282 307.707 122.952 308.964 128.366 310.863C133.831 312.762 139.013 315.097 143.913 318.33C144.811 318.921 145.068 320.152 144.478 321.05C143.939 321.872 142.913 322.154 142.041 321.769L141.989 321.692Z" fill="#000072"/>
<path d="M180.987 236.934L229.862 198.647L286.331 154.408C256.262 121.973 196.303 85.9703 177.395 96.8762C173.803 98.9547 170.955 103.805 168.851 110.707C160.975 136.676 163.951 191.616 180.987 236.934Z" fill="#8E8FB3"/>
<g opacity="0.3">
<path d="M180.987 236.934L229.862 198.648C217.931 167.008 187.965 94.5927 168.851 110.708C160.975 136.677 163.951 191.617 180.987 236.934Z" fill="#000072"/>
</g>
<g opacity="0.5">
<path d="M168.004 113.787C169.775 109.887 171.93 107.09 174.418 105.653C192.634 95.1317 248.821 128.106 279.839 159.515L286.33 154.434C256.261 121.973 196.303 85.9708 177.395 96.8767C173.315 99.2375 170.134 105.242 168.004 113.787Z" fill="white"/>
</g>
<path d="M180.987 240.86C179.396 240.86 177.908 239.885 177.318 238.319C167.184 211.375 161.154 178.837 160.795 149.122C160.616 135.034 161.693 101.418 175.419 93.4892C197.637 80.6844 259.751 119.997 289.204 151.74C290.667 153.33 290.59 155.82 288.999 157.282C287.408 158.745 284.92 158.668 283.457 157.077C251.13 122.204 194.687 91.4363 179.345 100.289C165.593 108.219 163.053 178.042 184.681 235.574C185.451 237.601 184.424 239.859 182.398 240.629C181.91 240.783 181.448 240.86 180.987 240.86Z" fill="#000072"/>
<path d="M185.579 191.052C195.842 177.76 204.385 168.702 211.825 161.978C218.342 156.102 224.012 151.996 229.246 148.378C228.091 142.066 189.582 106.448 183.116 117.277C181.192 120.51 179.781 125.463 178.909 131.365C176.163 149.661 178.395 177.144 185.579 191.052Z" fill="#F27E80"/>
<g opacity="0.3">
<path d="M178.908 131.365C181.551 128.183 185.579 124.436 189.145 125.412C195.2 127.054 207.592 147.685 211.825 161.978C218.342 156.102 224.012 151.996 229.246 148.378C228.091 142.066 189.581 106.448 183.116 117.277C181.192 120.51 179.781 125.463 178.908 131.365Z" fill="#000072"/>
</g>
<path d="M184.912 198.314L182.09 192.849C172.187 173.654 170.878 130.159 179.755 115.276C180.859 113.428 183.604 110.503 189.53 111.555C203.154 113.993 231.735 140.192 233.12 147.66L233.582 150.174L231.478 151.611C220.087 159.464 207.413 169.189 188.684 193.464L184.912 198.314ZM187.093 119.15C186.759 119.15 186.58 119.202 186.503 119.227V119.253C180.345 129.569 180.012 163.8 186.631 183.354C202.333 163.826 213.852 154.434 224.14 147.146C219.06 140.449 201.255 124 190.505 119.946C188.838 119.33 187.734 119.15 187.093 119.15Z" fill="#000072"/>
<path d="M324.661 159.592L391.008 230.211L419.691 260.722C445.861 216.995 457.791 159.9 452.018 134.367C450.838 129.107 448.888 125.206 446.194 122.999C428.491 108.706 360.913 133.161 324.661 159.592Z" fill="#8E8FB3"/>
<g opacity="0.3">
<path d="M391.008 230.21L419.691 260.721C445.861 216.995 457.791 159.899 452.018 134.367C446.348 126.54 436.855 120.638 426.362 144.272C415.458 168.753 399.885 207.731 391.008 230.21Z" fill="#000072"/>
</g>
<g opacity="0.5">
<path d="M324.661 159.592L328.843 164.031C366.147 139.422 432.109 119.817 444.86 127.567C455.251 133.88 451.633 171.345 445.065 201.111C455.533 164.467 456.457 131.313 446.143 122.999C428.492 108.706 360.913 133.161 324.661 159.592Z" fill="white"/>
</g>
<path d="M419.665 264.648C418.973 264.648 418.28 264.468 417.664 264.083C415.791 262.98 415.201 260.568 416.304 258.694C430.672 234.727 441.807 204.652 446.861 176.22C451.992 147.454 448.965 130.287 443.705 126.053C429.261 114.377 365.993 134.29 326.97 162.748C325.225 164.031 322.762 163.646 321.479 161.901C320.197 160.156 320.581 157.693 322.326 156.41C357.757 130.544 427.952 103.24 448.631 119.946C467.488 135.188 453.839 211.247 423.026 262.723C422.308 263.981 420.999 264.648 419.665 264.648Z" fill="#000072"/>
<g opacity="0.7">
<path d="M356.654 142.604C358.142 143.348 357.27 145.658 355.654 145.17C344.596 141.963 333.846 139.859 324.02 139.012C312.705 138.037 297.902 137.575 280.943 138.832C281.328 134.649 281.969 130.544 282.867 126.541C297.414 126.412 309.986 127.875 319.222 129.492C330.767 131.519 343.826 136.112 356.654 142.604Z" fill="white"/>
</g>
<path d="M285.048 419.563C294.618 419.819 304.187 419.563 313.706 418.664C393.471 411.248 428.953 380.481 440.781 356.924C441.114 356.231 441.473 355.513 441.807 354.82C441.987 354.409 442.166 353.999 442.346 353.588C442.808 352.536 443.269 351.484 443.654 350.406C443.885 349.79 444.09 349.2 444.321 348.584C444.347 348.533 444.347 348.482 444.373 348.456C444.398 348.353 444.45 348.251 444.475 348.148C444.629 347.661 444.809 347.173 444.963 346.686C445.168 346.095 445.347 345.505 445.527 344.915C445.707 344.376 445.835 343.837 445.989 343.273C446.168 342.605 446.348 341.938 446.528 341.271C446.81 340.091 447.092 338.885 447.349 337.679C447.426 337.294 447.503 336.909 447.58 336.498C447.682 336.088 447.759 335.677 447.81 335.241C447.913 334.753 447.99 334.24 448.067 333.727C451.043 315.225 448.862 294.876 444.578 275.528C440.319 256.308 433.982 238.114 428.568 223.744C428.568 223.744 420.435 205.217 400.064 180.788C382.67 159.977 366.096 148.275 361.606 145.299C360.836 144.785 360.426 144.529 360.426 144.529C346.443 137.036 331.947 131.698 319.273 129.466C298.825 125.873 262.24 123.153 223.755 136.292C193.584 146.582 174.137 166.443 161.257 187.998C142.554 219.279 137.807 254.05 134.575 268.086C133.702 271.833 126.185 281.455 121.49 295.543C121.131 296.621 120.797 297.724 120.464 298.854C120.31 299.392 120.156 299.931 120.028 300.496C119.874 301.06 119.72 301.651 119.592 302.215C119.592 302.215 119.566 302.241 119.592 302.266C119.489 302.754 119.361 303.242 119.258 303.755C119.207 304.037 119.155 304.319 119.078 304.602C118.899 305.577 118.719 306.577 118.565 307.604C118.463 308.22 118.386 308.836 118.309 309.477C118.232 309.99 118.181 310.504 118.129 311.017C118.104 311.248 118.078 311.479 118.052 311.71C118.001 312.249 117.975 312.762 117.924 313.301C117.873 313.968 117.847 314.609 117.821 315.277C117.77 316.585 117.77 317.945 117.796 319.305C117.821 319.998 117.847 320.665 117.873 321.358C117.898 321.974 117.95 322.564 118.001 323.18C118.027 323.36 118.027 323.539 118.052 323.719C118.104 324.309 118.181 324.951 118.232 325.567C118.36 326.542 118.488 327.517 118.642 328.518C123.645 358.849 160.59 390.899 222.986 409.709C243.177 415.79 264.061 418.972 285.048 419.563Z" fill="#8E8FB3"/>
<g opacity="0.5">
<path d="M360.298 146.607C359.528 146.094 359.117 145.837 359.117 145.837C345.135 138.344 330.639 133.007 317.965 130.774C297.517 127.182 260.931 124.462 222.447 137.6C192.301 147.865 172.854 167.726 159.974 189.281C141.271 220.562 136.525 255.333 133.292 269.369C132.42 273.116 124.903 282.738 120.207 296.826C119.848 297.904 119.515 299.007 119.181 300.136C119.027 300.675 118.873 301.214 118.745 301.779C118.591 302.343 118.437 302.934 118.309 303.498C118.309 303.498 118.283 303.524 118.309 303.549C118.206 304.037 118.078 304.525 117.975 305.038C117.924 305.32 117.873 305.602 117.796 305.885C117.616 306.86 117.437 307.86 117.283 308.887C117.18 309.503 117.103 310.119 117.026 310.76C116.975 311.273 116.898 311.787 116.846 312.3C116.821 312.531 116.795 312.762 116.77 312.993C116.718 313.531 116.693 314.045 116.641 314.584C116.59 315.251 116.564 315.892 116.539 316.559C116.487 317.868 116.487 319.228 116.513 320.588C116.539 321.281 116.564 321.948 116.59 322.641C116.616 323.257 116.667 323.847 116.718 324.463C116.744 324.643 116.744 324.822 116.77 325.002C116.821 325.592 116.898 326.234 116.949 326.85C117.077 327.825 117.206 328.8 117.36 329.801C119.951 345.505 131.111 361.646 149.917 376.195C135.755 363.391 127.263 349.636 125.056 336.216C124.902 335.215 124.749 334.24 124.646 333.265C124.569 332.649 124.518 332.033 124.466 331.417C124.441 331.238 124.441 331.058 124.415 330.878C124.364 330.262 124.312 329.647 124.287 329.056C124.261 328.364 124.235 327.696 124.21 327.003C124.184 325.643 124.184 324.283 124.235 322.975C124.261 322.308 124.287 321.666 124.338 320.999C124.364 320.46 124.415 319.947 124.466 319.408C124.492 319.177 124.518 318.92 124.543 318.715C124.595 318.202 124.646 317.663 124.723 317.175C124.8 316.534 124.877 315.918 124.979 315.302C125.133 314.276 125.313 313.301 125.493 312.3C125.544 312.018 125.621 311.735 125.672 311.453C125.775 310.94 125.903 310.452 126.006 309.965C126.006 309.939 126.006 309.939 126.006 309.913C126.134 309.323 126.288 308.759 126.442 308.194C126.57 307.655 126.724 307.091 126.878 306.552C127.212 305.423 127.519 304.319 127.904 303.241C132.574 289.154 140.117 279.531 140.989 275.784C144.222 261.748 148.968 226.977 167.671 195.697C180.551 174.167 199.998 154.28 230.144 144.015C268.628 130.877 305.188 133.597 325.636 137.19C327.098 137.446 328.612 137.754 330.126 138.113C336.643 139.576 343.544 141.783 350.548 144.631C355.731 146.556 361.452 148.865 367.199 151.585C364.043 149.148 361.632 147.48 360.298 146.607Z" fill="white"/>
</g>
<path d="M140.963 366.085C158.666 383.099 186.297 398.572 222.575 409.581C242.843 415.739 263.881 418.973 285.073 419.563C294.643 419.819 304.213 419.563 313.731 418.665C393.496 411.249 428.979 380.481 440.806 356.924C441.14 356.232 441.499 355.513 441.832 354.82C442.012 354.41 442.191 353.999 442.371 353.588C442.833 352.536 443.295 351.484 443.68 350.407C443.91 349.791 444.116 349.2 444.347 348.585C444.372 348.533 444.372 348.482 444.398 348.456C444.603 347.866 444.808 347.276 444.988 346.686C445.193 346.095 445.373 345.505 445.552 344.915C445.732 344.376 445.86 343.837 446.014 343.273C446.194 342.606 446.373 341.938 446.553 341.271C446.835 340.091 447.117 338.885 447.374 337.679C447.451 337.294 447.528 336.909 447.605 336.498C447.708 336.088 447.785 335.677 447.836 335.241C447.938 334.753 448.015 334.24 448.092 333.727C443.808 336.267 438.984 338.936 433.674 341.579C410.891 352.973 379.437 363.853 345.417 360.594C293.848 355.667 274.4 322.539 265.472 312.634C260.033 306.603 235.737 301.753 227.475 311.787C209.927 333.111 135.626 346.917 121.567 295.543C121.208 296.621 120.874 297.725 120.541 298.854C120.387 299.393 120.233 299.931 120.104 300.496C119.95 301.061 119.797 301.651 119.668 302.215C119.668 302.215 119.643 302.241 119.668 302.267C119.566 302.754 119.437 303.242 119.335 303.755C119.283 304.037 119.232 304.32 119.155 304.602C118.976 305.577 118.796 306.578 118.642 307.604C118.539 308.22 118.462 308.836 118.385 309.477C118.308 309.991 118.257 310.504 118.206 311.017C118.18 311.248 118.155 311.479 118.129 311.71C118.078 312.249 118.052 312.762 118.001 313.301C117.949 313.968 117.924 314.61 117.898 315.277C117.847 316.585 117.847 317.945 117.872 319.305C117.898 319.998 117.924 320.666 117.949 321.358C117.975 321.974 118.026 322.564 118.078 323.18C118.103 323.36 118.103 323.54 118.129 323.719C118.18 324.309 118.257 324.951 118.308 325.567C118.437 326.542 118.565 327.517 118.719 328.518C120.771 341.117 128.34 353.973 140.963 366.085Z" fill="white"/>
<g opacity="0.3">
<path d="M446.476 341.322C446.322 341.99 446.143 342.631 445.963 343.298C445.809 343.837 445.655 344.376 445.501 344.915C445.347 345.505 445.168 346.095 444.937 346.685C444.757 347.276 444.552 347.84 444.347 348.456C444.347 348.507 444.321 348.533 444.321 348.584C444.09 349.2 443.885 349.79 443.654 350.406C443.269 351.484 442.807 352.536 442.346 353.588C442.166 353.999 441.986 354.409 441.807 354.82C441.473 355.513 441.14 356.231 440.781 356.924C428.953 380.481 393.471 411.248 313.706 418.664C304.187 419.563 294.618 419.819 285.074 419.563C263.882 418.972 242.844 415.713 222.575 409.58C186.297 398.572 158.666 383.098 140.963 366.085C128.366 353.973 120.797 341.117 118.719 328.518C118.54 327.517 118.411 326.542 118.309 325.567C118.232 324.951 118.18 324.335 118.103 323.719C118.078 323.514 118.078 323.36 118.052 323.18C118.001 322.564 117.95 321.948 117.924 321.358C117.898 320.973 117.898 320.563 117.873 320.178C121.721 326.234 146.171 374.579 221.215 388.025C374.716 415.508 428.337 363.827 446.476 341.322Z" fill="#000072"/>
</g>
<path d="M245.64 417.279C240.073 416.586 234.531 415.508 229.015 414.302C226.27 413.712 223.524 412.993 220.805 412.249L216.751 411.12L212.723 409.888C210.029 409.093 207.361 408.169 204.693 407.297C202.05 406.347 199.382 405.398 196.765 404.371C191.48 402.37 186.297 400.137 181.192 397.674C170.955 392.824 161.103 387.101 151.867 380.353C142.656 373.604 134.036 365.829 127.006 356.488C123.542 351.792 120.464 346.711 118.155 341.22C117.026 338.448 116.051 335.6 115.358 332.675C115.153 331.956 115.05 331.186 114.896 330.442C114.742 329.698 114.588 328.954 114.537 328.235L113.998 323.847C113.537 317.971 113.665 311.992 114.614 306.167C115.589 300.342 117.205 294.671 119.36 289.256C121.49 283.842 124.184 278.658 126.955 273.757C127.622 272.551 128.34 271.319 128.956 270.165C129.289 269.574 129.597 269.01 129.828 268.497L130.213 267.727C130.239 267.573 130.29 267.419 130.367 267.291C130.418 267.214 130.495 266.829 130.572 266.495L130.777 265.494L131.188 263.493L132.009 259.438C134.164 248.507 136.576 237.421 139.86 226.567C143.118 215.712 147.274 205.063 152.483 194.875C155.074 189.769 157.999 184.842 161.154 180.043C164.361 175.27 167.825 170.677 171.596 166.315C175.445 162.029 179.447 157.847 183.886 154.126C186.015 152.176 188.401 150.508 190.659 148.711C191.813 147.865 193.045 147.069 194.225 146.248C195.431 145.427 196.585 144.58 197.843 143.862C200.331 142.373 202.794 140.859 205.385 139.576C206.668 138.935 207.925 138.216 209.26 137.626L213.211 135.881L215.186 135.008C215.853 134.726 216.546 134.495 217.213 134.239L221.267 132.725C223.961 131.75 226.706 130.98 229.425 130.107C251.336 123.769 274.272 121.562 296.875 122.948C302.545 123.281 308.19 123.897 313.783 124.744C315.194 124.949 316.579 125.18 317.99 125.437C319.376 125.668 320.787 125.95 322.224 126.258C325.046 126.9 327.817 127.644 330.562 128.465C341.491 131.904 351.831 136.753 361.349 142.835C362.273 143.425 362.529 144.631 361.939 145.555C361.4 146.376 360.374 146.684 359.502 146.299C349.393 141.911 339.131 137.985 328.638 135.342C326.021 134.675 323.404 134.085 320.761 133.623C318.144 133.187 315.425 132.725 312.731 132.391C307.317 131.698 301.878 131.159 296.439 130.877C274.657 129.697 252.644 131.981 231.811 138.19C229.246 139.037 226.603 139.807 224.089 140.731L220.317 142.168C219.702 142.399 219.06 142.63 218.444 142.886L216.623 143.708L212.954 145.35C211.748 145.914 210.568 146.582 209.388 147.197C206.976 148.378 204.718 149.815 202.435 151.201C201.281 151.868 200.203 152.663 199.1 153.407C197.997 154.177 196.893 154.896 195.816 155.691C193.738 157.359 191.531 158.899 189.581 160.721C185.476 164.159 181.782 168.06 178.216 172.037C174.726 176.117 171.468 180.403 168.492 184.893C165.567 189.41 162.796 194.054 160.385 198.904C157.947 203.754 155.715 208.681 153.74 213.736C151.764 218.791 149.994 223.949 148.378 229.158C145.145 239.602 142.759 250.277 140.552 261.158L139.706 265.263L139.27 267.342L139.039 268.394C138.962 268.753 138.91 269.036 138.705 269.626C138.526 270.139 138.346 270.652 138.166 271.14L137.628 272.243C137.268 273.013 136.909 273.654 136.55 274.27C135.832 275.579 135.139 276.734 134.472 277.966C131.752 282.738 129.264 287.46 127.314 292.387C125.338 297.288 123.876 302.369 122.978 307.527C122.106 312.685 121.977 317.92 122.362 323.129L122.824 327.029C122.875 327.696 123.004 328.312 123.132 328.928C123.26 329.544 123.363 330.186 123.517 330.801C124.107 333.265 124.902 335.703 125.877 338.115C127.853 342.888 130.547 347.43 133.677 351.689C139.988 360.183 148.018 367.548 156.716 373.989C161.077 377.196 165.618 380.199 170.288 382.996C174.983 385.767 179.806 388.333 184.681 390.797C194.482 395.647 204.616 399.881 214.955 403.678C225.295 407.476 235.762 410.838 246.487 413.507C247.539 413.763 248.18 414.841 247.923 415.893C247.564 416.791 246.615 417.407 245.64 417.279Z" fill="#000072"/>
<path d="M430.39 223.077C435.752 233.726 440.088 244.889 443.603 256.333C447.066 267.804 449.837 279.505 451.684 291.463C453.48 303.396 454.327 315.636 453.147 327.902C451.967 340.116 448.785 352.485 442.243 363.416C438.959 368.805 434.982 373.681 430.698 378.146C429.62 379.275 428.465 380.276 427.337 381.353C426.208 382.406 425.105 383.509 423.873 384.433C421.461 386.357 419.127 388.385 416.587 390.078C406.606 397.238 395.651 402.78 384.363 407.168L380.104 408.759C378.693 409.298 377.282 409.837 375.819 410.273L367.173 412.993C364.274 413.789 361.349 414.507 358.424 415.252C356.962 415.611 355.525 416.047 354.037 416.329L349.624 417.227C337.874 419.819 325.892 421.025 313.885 420.64C312.782 420.615 311.935 419.691 311.961 418.613C311.987 417.715 312.602 416.971 313.449 416.766L313.526 416.74C325.046 413.763 336.591 412.147 347.957 409.503L352.215 408.58C353.652 408.297 355.038 407.836 356.449 407.476C359.245 406.706 362.067 405.988 364.864 405.167L373.125 402.447C374.511 402.036 375.845 401.497 377.205 400.958L381.233 399.367C391.931 395.031 402.194 389.693 411.455 383.021C413.841 381.43 415.945 379.557 418.152 377.761C419.281 376.888 420.256 375.888 421.307 374.913C422.308 373.937 423.386 372.988 424.361 371.987C428.26 367.933 431.724 363.519 434.649 358.823C440.37 349.406 443.372 338.294 444.526 327.029C445.655 315.713 445.091 304.114 443.5 292.644C441.909 281.148 439.292 269.754 436.188 258.489C433.135 247.198 429.671 235.959 426.721 224.463C426.439 223.41 427.08 222.333 428.132 222.05C429.056 221.794 429.979 222.256 430.39 223.077Z" fill="#000072"/>
<path d="M176.471 211.966C174.983 209.194 190.967 181.019 211.851 189.025C219.496 191.95 217.649 198.776 212.954 200.598C208.49 202.343 201.819 201.676 196.098 203.549C184.963 207.218 177.959 214.737 176.471 211.966Z" fill="#000072"/>
<path d="M355.217 230.364C357.321 227.593 344.955 194.08 320.761 199.058C311.91 200.88 312.705 208.63 317.503 211.478C322.069 214.172 329.433 214.634 335.334 217.714C346.802 223.667 353.113 233.11 355.217 230.364Z" fill="#000072"/>
<path d="M384.414 164.236C394.677 173.962 406.658 186.279 422.436 214.532C423.463 213.197 424.489 211.709 425.438 210.067C432.186 198.673 437.086 180.556 438.549 165.237C439.472 155.691 439.062 147.223 436.958 142.091C432.083 130.21 386.646 158.231 384.414 164.236Z" fill="#F27E80"/>
<g opacity="0.3">
<path d="M384.414 164.237C394.677 173.962 406.658 186.279 422.436 214.532C423.463 213.198 424.489 211.709 425.438 210.067C424.848 198.956 416.92 186.356 414.201 176.81C408.531 156.975 424.13 146.017 429.543 148.404C432.75 149.815 436.881 160.541 438.549 165.212C439.472 155.666 439.062 147.198 436.958 142.066C432.083 130.21 386.646 158.232 384.414 164.237Z" fill="#000072"/>
</g>
<path d="M422.436 218.458C422.334 218.458 422.231 218.458 422.129 218.458C420.82 218.355 419.64 217.611 418.998 216.456C403.656 188.974 392.162 176.99 381.694 167.11C380.54 166.033 380.155 164.365 380.72 162.902C383.336 155.845 416.125 135.547 430.954 135.291C437.394 135.188 439.729 138.575 440.575 140.628C447.297 157.026 438.856 199.828 425.515 216.97C424.797 217.893 423.642 218.458 422.436 218.458ZM389.75 163.903C399.192 173.064 409.583 184.56 422.667 207.013C432.725 189.05 438.01 154.947 433.315 143.579C433.161 143.246 432.006 143.143 431.878 143.117C421.872 142.399 396.883 157.513 389.75 163.903Z" fill="#000072"/>
<path d="M399.192 331.058C404.913 327.312 410.968 324.823 417.331 322.898C423.668 320.999 430.185 319.819 436.753 319.28C438.394 319.1 440.036 319.075 441.678 318.998L444.141 318.895C444.962 318.869 445.783 318.921 446.604 318.921C448.246 318.946 449.888 318.998 451.53 319.049L456.431 319.511C458.073 319.665 459.689 319.793 461.305 320.101C462.922 320.358 464.538 320.614 466.154 320.922L467.36 321.127L468.566 321.41L470.952 322L475.698 323.206C476.75 323.463 477.392 324.54 477.11 325.592C476.853 326.568 475.929 327.183 474.954 327.055L474.775 327.029C471.619 326.593 468.54 325.952 465.41 325.592C462.255 325.336 459.176 324.771 456.02 324.746L451.325 324.515C449.76 324.54 448.195 324.54 446.63 324.566C445.86 324.566 445.065 324.54 444.27 324.592L441.935 324.746C440.37 324.874 438.805 324.874 437.266 325.079C431.031 325.644 424.874 326.824 418.819 328.338C415.791 329.082 412.815 330.006 409.839 330.981C408.377 331.52 406.889 332.008 405.452 332.598C404.015 333.162 402.553 333.804 401.244 334.394L401.09 334.471C400.116 334.933 398.935 334.497 398.499 333.496C398.063 332.623 398.397 331.597 399.192 331.058Z" fill="#000072"/>
<path d="M394.856 354.794C400.706 353.563 406.478 353.255 412.328 353.46C418.178 353.691 424.002 354.589 429.672 356.103C432.519 356.847 435.316 357.797 438.061 358.926C440.806 360.004 443.449 361.338 446.015 362.852C451.146 365.829 455.764 369.678 459.612 374.117C460.331 374.938 460.228 376.17 459.407 376.888C458.637 377.556 457.509 377.53 456.79 376.863L456.765 376.837C452.711 373.142 448.272 369.96 443.423 367.497C441.037 366.213 438.523 365.136 435.983 364.186C433.443 363.211 430.826 362.441 428.184 361.748C422.898 360.363 417.434 359.593 411.969 359.08C406.504 358.618 400.885 358.438 395.446 358.669H395.344C394.266 358.72 393.343 357.874 393.291 356.796C393.24 355.821 393.933 354.974 394.856 354.794Z" fill="#000072"/>
<path d="M125.108 437.859C125.595 438.398 125.826 438.731 126.16 439.193C126.442 439.604 126.724 440.04 126.981 440.476C127.494 441.349 127.93 442.221 128.34 443.119C129.136 444.89 129.803 446.738 130.316 448.585C131.368 452.306 131.881 456.052 132.189 459.876C132.471 463.699 132.42 467.651 131.47 471.706C130.983 473.733 130.265 475.786 129.084 477.762C127.93 479.738 126.185 481.636 123.928 482.945L123.645 483.099C121.747 484.177 119.335 483.51 118.257 481.636C117.18 479.738 117.847 477.325 119.72 476.248C119.899 476.145 120.079 476.068 120.259 475.991C122.183 475.247 123.953 472.86 124.954 469.858C125.98 466.881 126.416 463.468 126.519 460.03C126.57 456.566 126.314 453.076 125.646 449.689C125.313 447.995 124.877 446.353 124.287 444.762C124.004 443.966 123.671 443.196 123.312 442.452C123.132 442.093 122.927 441.734 122.747 441.374C122.568 441.067 122.286 440.656 122.183 440.502L122.055 440.322C121.413 439.45 121.618 438.218 122.491 437.577C123.312 436.986 124.441 437.115 125.108 437.859Z" fill="#000072"/>
<path d="M263.83 334.292C263.83 334.292 263.574 344.453 261.111 354.307C258.596 364.341 253.773 374.066 244.563 372.373C237.815 371.141 233.89 364.264 231.606 356.463C228.22 344.864 228.476 331.212 228.476 331.212L263.83 334.292Z" fill="#000072"/>
<path d="M261.111 354.307C258.596 364.341 253.773 374.066 244.562 372.372C237.815 371.141 233.889 364.264 231.606 356.463C233.094 355.847 234.685 355.462 236.378 355.308C239.893 355 243.254 355.847 246.076 357.515C248.565 355.385 251.72 353.999 255.235 353.691C257.262 353.563 259.263 353.768 261.111 354.307Z" fill="#F27E80"/>
<path d="M246.589 376.016C245.717 376.016 244.845 375.939 243.947 375.785C224.807 372.27 224.961 335.395 225.038 331.187C225.064 329.288 226.629 327.774 228.527 327.825C230.426 327.851 231.94 329.416 231.888 331.315C231.709 340.425 233.787 366.932 245.152 369.011C247.282 369.396 249.078 368.959 250.745 367.599C258.109 361.62 260.187 341.477 260.367 334.215C260.418 332.316 261.983 330.827 263.881 330.853C265.78 330.904 267.268 332.47 267.242 334.369C267.165 337.371 266.19 363.879 255.081 372.911C252.593 374.964 249.694 376.016 246.589 376.016Z" fill="#000072"/>
<path d="M219.548 325.13C219.548 325.13 219.112 336.37 224.705 339.347C233.248 343.863 240.945 338.731 244.922 334.035C244.922 334.035 251.464 346.891 264.138 342.528C271.553 339.988 275.017 330.776 275.017 330.776L243.716 317.945L219.548 325.13Z" fill="white"/>
<g opacity="0.3">
<path d="M224.704 339.347C232.478 344.761 240.919 338.731 244.922 334.06C244.922 334.06 252.67 348.354 264.779 343.683C269.038 342.015 270.347 338.141 270.629 334.83C253.876 341.169 245.306 316.175 245.306 316.175C240.893 321.384 230.323 332.983 221.626 331.546C221.369 334.24 221.882 337.371 224.704 339.347Z" fill="#000072"/>
</g>
<path d="M246.025 319.536C245.948 320.64 245.948 321.871 246.025 323.052C246.076 324.232 246.204 325.413 246.384 326.542C246.564 327.696 246.82 328.8 247.128 329.878C247.436 330.955 247.846 331.982 248.282 332.931L248.308 332.957C249.103 334.753 248.308 336.857 246.512 337.653C244.716 338.448 242.612 337.653 241.817 335.857C241.715 335.6 241.612 335.343 241.561 335.087C241.278 333.65 241.073 332.238 241.022 330.827C240.945 329.441 240.97 328.056 241.073 326.696C241.176 325.336 241.355 324.001 241.586 322.693C241.843 321.358 242.125 320.126 242.536 318.766C242.818 317.817 243.818 317.304 244.742 317.586C245.537 317.843 246.05 318.587 245.999 319.382L246.025 319.536Z" fill="#000072"/>
<path d="M264.369 318.869C263.445 322.308 250.258 327.543 243.28 326.67C235.788 325.746 228.399 318.767 227.835 315.302C227.168 311.248 233.967 307.245 248.667 309.426C260.726 311.222 265.395 315.097 264.369 318.869Z" fill="#000072"/>
<g opacity="0.7">
<path d="M248.026 312.582C248.206 313.634 245.409 314.712 243.254 314.584C242.022 314.507 237.635 314.173 237.456 313.018C237.276 311.864 238.559 310.888 242.664 310.786C246.358 310.709 247.846 311.53 248.026 312.582Z" fill="white"/>
</g>
<path d="M221.677 325.208C222.164 328.082 222.831 331.161 223.96 333.445C224.499 334.599 225.218 335.498 225.833 335.934C225.987 336.036 226.141 336.139 226.295 336.19L227.116 336.55C227.706 336.781 228.271 336.96 228.861 337.114C231.195 337.627 233.504 337.371 235.813 336.37C238.097 335.369 240.329 333.727 242.228 331.751L248.051 332.444L248.565 333.162C248.744 333.445 248.949 333.727 249.18 333.984C249.616 334.522 250.053 335.061 250.514 335.549C251.438 336.55 252.464 337.422 253.516 338.141C255.62 339.552 257.98 340.296 260.572 340.065C263.266 339.809 265.575 338.91 267.73 337.012C269.834 335.19 271.732 332.598 273.066 330.032L273.143 329.903C273.682 328.877 274.965 328.466 275.991 329.005C276.915 329.493 277.325 330.571 277.017 331.52C276.427 333.342 275.709 334.882 274.811 336.473C273.938 338.038 272.861 339.552 271.604 340.938C270.321 342.323 268.833 343.606 267.063 344.582C265.215 345.557 263.419 346.121 261.444 346.506C259.468 346.865 257.39 346.865 255.338 346.48C253.285 346.121 251.361 345.3 249.642 344.274C247.923 343.222 246.435 341.913 245.127 340.501C244.485 339.783 243.87 339.039 243.331 338.243C243.049 337.858 242.792 337.448 242.535 337.037C242.279 336.601 242.074 336.242 241.791 335.652L247.615 336.344C245.332 339.244 242.433 341.708 238.841 343.298C235.3 344.889 230.862 345.351 226.988 344.145C226.039 343.837 225.089 343.504 224.217 343.068C223.755 342.837 223.396 342.657 222.883 342.349C222.344 342.015 221.831 341.656 221.395 341.246C219.573 339.603 218.65 337.602 218.034 335.78C217.444 333.932 217.213 332.11 217.136 330.365C217.059 328.569 217.161 326.901 217.469 325.105C217.675 323.95 218.778 323.155 219.932 323.36C220.856 323.514 221.523 324.232 221.677 325.105V325.208Z" fill="#000072"/>
<path d="M118.103 453.717C120.182 453.999 122.516 453.999 124.287 453.384C125.159 453.076 125.826 452.588 126.082 452.075C126.339 451.536 126.313 450.792 126.211 449.945L126.185 449.791C126.057 448.713 126.801 447.713 127.878 447.584C128.956 447.456 129.957 448.2 130.085 449.278C130.085 449.355 130.11 449.457 130.11 449.534C130.11 450.971 129.957 452.588 128.93 453.999C127.878 455.385 126.339 455.975 125.056 456.232C123.722 456.489 122.465 456.463 121.233 456.335C120.002 456.206 118.873 455.975 117.667 455.616C117.154 455.462 116.846 454.923 117 454.41C117.128 453.948 117.59 453.64 118.078 453.717H118.103Z" fill="#000072"/>
<path d="M117.642 469.037C119.797 469.319 122.054 469.191 123.85 468.395C125.646 467.6 126.673 466.137 127.032 464.341C127.237 463.263 128.289 462.57 129.341 462.776C130.418 462.981 131.111 464.033 130.906 465.085C130.88 465.188 130.854 465.265 130.829 465.367L130.803 465.419C130.316 466.753 129.572 468.062 128.494 469.063C127.442 470.089 126.134 470.782 124.825 471.141C122.183 471.885 119.591 471.577 117.231 470.936C116.718 470.782 116.41 470.243 116.538 469.73C116.667 469.268 117.128 468.96 117.642 469.037Z" fill="#000072"/>
<path d="M221.057 286.781C225.627 269.182 218.604 252.128 205.369 248.689C192.134 245.251 177.701 256.731 173.13 274.33C168.56 291.929 175.584 308.983 188.818 312.422C202.053 315.86 216.487 304.38 221.057 286.781Z" fill="#000072"/>
<path d="M203.744 256.154C199.228 256.949 196.355 262.697 197.355 268.933C198.356 275.194 202.82 279.608 207.361 278.812C211.877 278.017 214.75 272.269 213.749 266.033C212.749 259.772 208.259 255.358 203.744 256.154Z" fill="white"/>
<path d="M182.911 291.797C180.678 292.772 179.857 296.082 181.089 299.187C182.32 302.292 185.143 304.011 187.4 303.011C189.632 302.036 190.453 298.725 189.222 295.62C187.99 292.515 185.168 290.796 182.911 291.797Z" fill="#B199C5"/>
<path d="M331.075 266.033C317.965 262.184 303.366 273.244 298.466 290.745C293.566 308.245 300.262 325.592 313.372 329.441C326.483 333.29 341.081 322.231 345.981 304.73C350.882 287.229 344.211 269.908 331.075 266.033Z" fill="#000072"/>
<path d="M328.869 273.346C324.353 274.142 321.48 279.89 322.48 286.125C323.481 292.387 327.945 296.8 332.486 296.005C337.002 295.209 339.875 289.461 338.874 283.226C337.874 276.939 333.41 272.525 328.869 273.346Z" fill="white"/>
<path d="M308.061 308.964C305.829 309.939 305.008 313.249 306.24 316.354C307.471 319.459 310.294 321.179 312.551 320.178C314.783 319.203 315.604 315.893 314.373 312.788C313.116 309.708 310.294 307.989 308.061 308.964Z" fill="#B199C5"/>
</g>
<defs>
<clipPath id="clip0_240_837">
<rect width="479" height="529" fill="white" transform="translate(73 91)"/>
</clipPath>
</defs>
</svg>
