<svg width="628" height="607" viewBox="0 0 628 607" fill="none" xmlns="http://www.w3.org/2000/svg">
<ellipse cx="314" cy="299.5" rx="313" ry="299.5" fill="#B0A2D7"/>
<path d="M314 602.584C485.238 602.584 624.054 520.969 624.054 420.292C624.054 319.615 485.238 238 314 238C142.761 238 3.94531 319.615 3.94531 420.292C3.94531 520.969 142.761 602.584 314 602.584Z" fill="#FAA625"/>
<path d="M314 603.043C220.226 603.043 141.026 584.568 84.9129 549.593C32.4033 516.843 3.48633 470.92 3.48633 420.292C3.48633 369.573 32.2427 323.65 84.4539 291.015C140.383 256.039 219.767 237.564 314 237.564C408.233 237.564 487.617 256.039 543.546 291.015C595.757 323.673 624.513 369.573 624.513 420.292C624.513 470.92 595.596 516.843 543.064 549.57C486.974 584.546 407.774 603.043 314 603.043ZM314 238.459C219.928 238.459 140.727 256.888 84.9359 291.772C33 324.27 4.40433 369.894 4.40433 420.292C4.40433 470.599 33.1836 516.223 85.4178 548.789C141.37 583.673 220.41 602.102 314 602.102C407.59 602.102 486.63 583.673 542.582 548.789C594.816 516.223 623.595 470.576 623.595 420.292C623.595 369.894 595 324.27 543.064 291.795C487.272 256.911 408.072 238.459 314 238.459Z" fill="#371A45"/>
<g opacity="0.3">
<path d="M4.01416 416.092C6.85996 515.007 119.705 594.551 314 594.551C508.317 594.551 621.163 515.007 623.985 416.092C623.871 412.099 623.572 408.129 623.09 404.204C611.684 497.381 500.262 570.477 314 570.477C127.738 570.477 16.3154 497.381 4.90922 404.204C4.26662 409.506 3.94531 414.876 3.94531 420.292C3.94531 418.892 3.96826 417.469 4.01416 416.092Z" fill="#390075"/>
</g>
<path d="M314 606.256C219.63 606.256 139.832 587.598 83.2147 552.301C29.7183 518.954 0.273438 472.068 0.273438 420.292C0.273438 396.654 6.24043 374.071 18.0138 353.141L24.5316 356.491C17.8302 370.904 12.0468 392.041 22.6726 410.768C32.0592 427.361 44.5899 424.423 59.0713 421.05C71.4414 418.158 85.4868 414.876 94.4832 428.6C99.8535 436.793 102.47 447.763 105.224 459.399C111.191 484.598 117.364 510.669 152.845 510.853C175.841 511.014 188.945 504.266 199.479 498.873C213.571 491.644 223.761 486.434 242.602 507.663C269.087 537.544 317.58 549.111 366.165 507.525C391.915 485.493 418.468 491.07 441.923 496.004C463.955 500.64 481.374 504.289 493.607 485.08C498.449 477.484 502.626 470.53 506.298 464.379C523.947 434.957 532.805 420.178 562.388 421.669L563.122 421.715C592.774 423.23 615.609 422.174 617.72 394.244C617.858 392.362 619.396 390.87 621.255 390.756C623.113 390.641 624.789 391.949 625.156 393.785C626.877 402.391 627.749 411.319 627.749 420.269C627.749 472.045 598.282 518.931 544.785 552.278C488.168 587.598 408.37 606.256 314 606.256ZM9.98128 395.644C8.39773 403.7 7.61744 411.939 7.61744 420.292C7.61744 469.451 35.8459 514.112 87.1162 546.081C142.563 580.644 221.029 598.912 314 598.912C406.993 598.912 485.459 580.644 540.907 546.081C592.177 514.112 620.405 469.451 620.405 420.292C620.405 417.561 620.314 414.807 620.153 412.099C616.206 418.961 609.986 423.804 601.518 426.581C589.629 430.436 575.355 429.725 562.755 429.082L562.021 429.036C536.844 427.774 529.753 439.593 512.586 468.189C508.891 474.363 504.691 481.362 499.78 489.051C484.817 512.551 463.244 508.007 440.409 503.211C417.573 498.414 393.935 493.457 370.939 513.125C346.979 533.642 322.95 542.065 301.194 542.065C275.398 542.065 252.769 530.2 237.117 512.551C222.062 495.568 216.439 498.46 202.853 505.414C192.296 510.83 177.883 518.197 153.511 518.197C153.281 518.197 153.075 518.197 152.845 518.197C111.581 517.968 104.122 486.434 98.1093 461.097C95.5159 450.104 93.0603 439.731 88.3785 432.639C82.5033 423.666 74.0577 425.112 60.7926 428.21C46.38 431.584 28.4101 435.761 16.3155 414.394C12.8041 408.244 10.8304 401.909 9.98128 395.644Z" fill="#390075"/>
<g opacity="0.4">
<path d="M621.392 406.706C619.189 441.452 586.898 439.456 562.181 438.193C528.927 436.518 524.176 456.691 496.682 499.906C469.165 543.121 416.724 481.959 368.552 523.177C320.38 564.395 269.706 556.638 239.849 522.948C209.991 489.257 207.994 527.675 152.822 527.377C97.6503 527.079 107.909 468.579 91.4079 443.472C74.9298 418.365 39.3803 460.616 19.4827 425.433C8.14536 405.421 14.0435 383.205 21.2269 367.783C59.6911 299.392 161.245 250.853 314.023 250.853C494.41 250.853 603.399 318.555 621.392 406.706Z" fill="white"/>
</g>
<path d="M621.392 393.854C619.189 428.6 586.898 426.604 562.181 425.341C528.927 423.666 524.176 443.839 496.682 487.054C469.165 530.269 416.724 469.107 368.552 510.325C320.38 551.543 269.706 543.786 239.849 510.096C209.991 476.405 207.994 514.823 152.822 514.525C97.6503 514.227 107.909 455.727 91.4079 430.62C74.9298 405.513 39.3803 447.763 19.4827 412.581C8.14536 392.569 14.0435 370.353 21.2269 354.931C59.6911 286.54 161.245 238 314.023 238C494.41 238 603.399 305.703 621.392 393.854Z" fill="#FF3176"/>
<g opacity="0.3">
<path d="M81.1952 363.307C83.4443 367.002 82.2738 371.868 78.5789 374.117L52.0028 390.342C48.3079 392.591 43.4424 391.421 41.1933 387.726C38.9442 384.031 40.1147 379.166 43.8096 376.917L70.4087 360.691C74.0807 358.442 78.9461 359.612 81.1952 363.307Z" fill="#390075"/>
</g>
<path d="M81.1952 356.101C83.4443 359.796 82.2739 364.661 78.5789 366.911L51.9798 383.136C48.2849 385.385 43.4195 384.215 41.1704 380.52C38.9213 376.825 40.0917 371.96 43.7867 369.711L70.3857 353.485C74.0807 351.236 78.9461 352.406 81.1952 356.101Z" fill="#ED197C"/>
<path d="M47.9175 384.743C45.1176 384.743 42.3636 383.32 40.803 380.772C38.4162 376.848 39.6555 371.73 43.557 369.343L70.1561 353.117C74.0805 350.731 79.1984 351.97 81.5852 355.871C82.7327 357.753 83.0769 360.002 82.572 362.16C82.0442 364.317 80.7131 366.153 78.8312 367.301L52.2321 383.526C50.8781 384.352 49.3863 384.743 47.9175 384.743ZM74.4707 352.796C73.1625 352.796 71.8314 353.14 70.638 353.875L44.039 370.1C40.5506 372.235 39.449 376.779 41.5833 380.267C43.7177 383.756 48.2847 384.857 51.7502 382.723L78.3492 366.497C80.0246 365.465 81.218 363.835 81.677 361.907C82.136 359.98 81.8376 357.983 80.8049 356.308C79.4049 354.058 76.9722 352.796 74.4707 352.796Z" fill="#371A45"/>
<g opacity="0.4">
<path d="M82.1821 361.678C82.1362 361.563 82.0444 361.426 81.9755 361.311C79.7264 357.616 74.8611 356.445 71.1661 358.695L44.59 374.92C42.6163 376.114 41.377 378.041 40.9869 380.153C40.3443 378.982 40.0459 377.697 40.0459 376.435C40.0459 373.773 41.377 371.179 43.8097 369.711L70.3858 353.485C74.0807 351.236 78.9461 352.406 81.1952 356.101C82.2509 357.822 82.5493 359.819 82.1821 361.678Z" fill="white"/>
</g>
<g opacity="0.3">
<path d="M78.5789 366.888L51.9799 383.113C48.2849 385.362 43.4425 384.192 41.1704 380.497C40.3901 379.235 40.0229 377.812 40.0229 376.412C40.0229 374.255 40.895 372.143 42.5245 370.628C42.6622 370.996 42.8458 371.363 43.0753 371.707C45.3244 375.402 50.1898 376.572 53.8847 374.323L80.4609 358.075C80.9199 357.799 81.333 357.478 81.7231 357.111C83.1919 360.691 81.9296 364.845 78.5789 366.888Z" fill="#390075"/>
</g>
<path d="M47.9178 387.153C44.2917 387.153 40.7574 385.317 38.7378 382.012C35.6625 376.963 37.2461 370.353 42.2951 367.255L68.8941 351.029C73.9431 347.954 80.5527 349.538 83.651 354.587C85.1427 357.019 85.5788 359.911 84.9132 362.688C84.2477 365.488 82.5264 367.829 80.0937 369.32L53.4947 385.546C51.7505 386.648 49.8227 387.153 47.9178 387.153ZM74.471 355.206C73.5759 355.206 72.6809 355.436 71.8776 355.941L45.2786 372.166C42.9377 373.589 42.1803 376.687 43.6262 379.028C45.0491 381.369 48.1473 382.127 50.4882 380.681L77.0873 364.455C79.4282 363.032 80.1855 359.934 78.7397 357.593C77.7987 356.055 76.1693 355.206 74.471 355.206Z" fill="#390075"/>
<g opacity="0.3">
<path d="M164.412 419.512C161.589 422.794 156.609 423.161 153.327 420.338L129.734 400.004C126.453 397.182 126.085 392.201 128.908 388.92C131.731 385.638 136.711 385.27 139.993 388.093L163.586 408.427C166.868 411.25 167.235 416.23 164.412 419.512Z" fill="#390075"/>
</g>
<path d="M164.412 411.411C161.589 414.693 156.609 415.06 153.327 412.237L129.734 391.903C126.453 389.08 126.085 384.1 128.908 380.818C131.731 377.537 136.711 377.169 139.993 379.992L163.586 400.326C166.868 403.149 167.235 408.152 164.412 411.411Z" fill="#FCDC18"/>
<g opacity="0.4">
<path d="M165.422 409.941C164.986 408.656 164.205 407.44 163.104 406.499L139.511 386.165C138.042 384.903 136.206 384.283 134.393 384.283C132.19 384.283 129.987 385.201 128.426 386.991C128.036 387.45 127.692 387.955 127.439 388.46C126.59 385.913 127.072 382.998 128.931 380.841C130.469 379.051 132.672 378.133 134.898 378.133C136.711 378.133 138.547 378.752 140.016 380.015L163.609 400.348C166.409 402.758 167.074 406.774 165.422 409.941Z" fill="white"/>
</g>
<g opacity="0.3">
<path d="M164.412 411.411C161.589 414.693 156.609 415.06 153.327 412.237L129.734 391.903C126.521 389.149 126.108 384.33 128.724 381.048C129.023 381.415 129.367 381.782 129.734 382.104L153.327 402.437C156.586 405.26 161.589 404.893 164.412 401.611C164.48 401.542 164.549 401.473 164.595 401.382C166.913 404.273 166.913 408.519 164.412 411.411Z" fill="#390075"/>
</g>
<path d="M158.445 417.011C155.874 417.011 153.419 416.115 151.468 414.417L127.875 394.083C123.4 390.228 122.895 383.435 126.751 378.959C128.61 376.802 131.226 375.494 134.095 375.264C136.964 375.058 139.718 375.953 141.898 377.835L165.49 398.169C167.648 400.028 168.956 402.644 169.185 405.49C169.392 408.358 168.497 411.112 166.615 413.293C164.756 415.45 162.14 416.758 159.294 416.988C158.973 416.988 158.697 417.011 158.445 417.011ZM134.875 380.979C134.737 380.979 134.623 380.979 134.485 381.002C133.154 381.094 131.938 381.713 131.065 382.7C129.275 384.789 129.505 387.933 131.593 389.746L155.186 410.08C156.196 410.952 157.481 411.365 158.812 411.273C160.143 411.181 161.359 410.562 162.231 409.575C163.104 408.565 163.517 407.28 163.425 405.949C163.333 404.618 162.713 403.401 161.727 402.529L138.134 382.195C137.216 381.392 136.069 380.979 134.875 380.979Z" fill="#390075"/>
<g opacity="0.3">
<path d="M181.831 470.209C183.139 474.34 180.844 478.769 176.713 480.077L147.016 489.487C142.885 490.795 138.455 488.5 137.147 484.369C135.839 480.238 138.134 475.808 142.265 474.5L171.962 465.091C176.093 463.783 180.523 466.078 181.831 470.209Z" fill="#390075"/>
</g>
<path d="M181.831 462.061C183.139 466.192 180.844 470.622 176.713 471.93L147.016 481.339C142.885 482.647 138.455 480.352 137.147 476.221C135.839 472.09 138.134 467.661 142.265 466.353L171.962 456.943C176.093 455.658 180.523 457.953 181.831 462.061Z" fill="#4A83FF"/>
<path d="M144.652 482.188C141.117 482.188 137.836 479.916 136.711 476.382C136.046 474.271 136.229 472.022 137.262 470.048C138.295 468.074 140.016 466.605 142.127 465.94L171.825 456.53C173.936 455.865 176.185 456.048 178.159 457.081C180.132 458.114 181.601 459.835 182.267 461.947C182.932 464.058 182.749 466.307 181.716 468.281C180.683 470.255 178.962 471.723 176.851 472.389L147.153 481.798C146.327 482.051 145.478 482.188 144.652 482.188ZM174.349 457.058C173.592 457.058 172.857 457.173 172.123 457.402L142.426 466.812C140.544 467.409 139.006 468.694 138.111 470.461C137.193 472.228 137.032 474.225 137.629 476.107C138.868 479.985 143.022 482.166 146.924 480.926L176.621 471.517C178.503 470.92 180.041 469.635 180.936 467.868C181.854 466.101 182.014 464.104 181.418 462.222C180.821 460.34 179.536 458.802 177.769 457.907C176.667 457.334 175.52 457.058 174.349 457.058Z" fill="#371A45"/>
<g opacity="0.4">
<path d="M181.074 468.464C181.028 468.235 180.959 467.982 180.89 467.753C179.582 463.622 175.153 461.327 171.022 462.635L141.324 472.044C139.42 472.641 137.928 473.926 136.964 475.51C136.849 474.959 136.78 474.408 136.78 473.857C136.78 470.53 138.938 467.408 142.265 466.353L171.963 456.943C176.071 455.635 180.523 457.953 181.831 462.061C182.543 464.287 182.198 466.605 181.074 468.464Z" fill="white"/>
</g>
<g opacity="0.3">
<path d="M176.713 471.929L147.016 481.339C142.908 482.647 138.456 480.352 137.147 476.221C136.895 475.441 136.78 474.638 136.78 473.857C136.78 470.851 138.547 468.005 141.347 466.72C141.393 467.179 141.485 467.638 141.646 468.097C142.954 472.228 147.383 474.523 151.514 473.215L181.211 463.805C181.533 463.713 181.831 463.576 182.129 463.438C182.611 467.133 180.385 470.782 176.713 471.929Z" fill="#390075"/>
</g>
<path d="M144.652 484.598C140.108 484.598 135.862 481.683 134.416 477.116C133.544 474.385 133.797 471.493 135.128 468.946C136.459 466.399 138.685 464.517 141.393 463.645L171.09 454.235C173.821 453.363 176.713 453.615 179.261 454.947C181.808 456.278 183.69 458.504 184.562 461.212C185.434 463.943 185.182 466.835 183.851 469.382C182.519 471.929 180.293 473.811 177.585 474.684L147.888 484.093C146.809 484.437 145.731 484.598 144.652 484.598ZM174.326 459.468C173.821 459.468 173.316 459.537 172.835 459.697L143.137 469.107C141.875 469.497 140.842 470.392 140.223 471.562C139.603 472.756 139.488 474.11 139.878 475.372C140.705 477.988 143.527 479.457 146.144 478.631L175.841 469.221C178.457 468.395 179.926 465.572 179.1 462.956C178.71 461.694 177.815 460.661 176.644 460.041C175.91 459.651 175.13 459.468 174.326 459.468Z" fill="#390075"/>
<g opacity="0.3">
<path d="M265.139 472.779C262.684 476.336 257.772 477.254 254.215 474.798L228.557 457.127C225 454.671 224.082 449.76 226.537 446.203C228.993 442.645 233.904 441.727 237.462 444.183L263.12 461.854C266.7 464.31 267.595 469.221 265.139 472.779Z" fill="#390075"/>
</g>
<path d="M265.139 463.599C262.684 467.156 257.772 468.074 254.215 465.619L228.557 447.947C225 445.491 224.082 440.58 226.537 437.023C228.993 433.466 233.904 432.548 237.462 435.003L263.12 452.675C266.7 455.13 267.595 460.042 265.139 463.599Z" fill="#ED197C"/>
<path d="M258.645 467.455C256.969 467.455 255.363 466.95 253.963 465.986L228.305 448.314C226.492 447.052 225.252 445.17 224.862 442.967C224.449 440.787 224.931 438.56 226.193 436.747C228.787 432.961 233.973 432.02 237.76 434.613L263.418 452.285C265.231 453.547 266.471 455.429 266.861 457.632C267.274 459.812 266.792 462.038 265.53 463.851C264.267 465.664 262.385 466.904 260.182 467.294C259.677 467.409 259.15 467.455 258.645 467.455ZM233.032 434.062C230.669 434.062 228.351 435.187 226.928 437.252C224.61 440.603 225.459 445.239 228.833 447.534L254.491 465.205C256.12 466.33 258.071 466.743 260.022 466.376C261.972 466.009 263.671 464.93 264.772 463.301C267.09 459.95 266.241 455.314 262.867 453.019L237.209 435.347C235.947 434.498 234.478 434.062 233.032 434.062Z" fill="#371A45"/>
<g opacity="0.4">
<path d="M265.943 462.084C265.392 460.707 264.428 459.445 263.12 458.55L237.462 440.878C236.108 439.96 234.57 439.501 233.032 439.501C230.531 439.501 228.075 440.695 226.538 442.898C226.216 443.38 225.941 443.885 225.734 444.39C224.77 442.026 225 439.249 226.538 437C228.052 434.796 230.531 433.603 233.032 433.603C234.57 433.603 236.108 434.062 237.462 434.98L263.12 452.652C266.218 454.786 267.32 458.756 265.943 462.084Z" fill="white"/>
</g>
<g opacity="0.3">
<path d="M265.139 463.599C262.684 467.156 257.772 468.051 254.215 465.619L228.557 447.947C225.069 445.537 224.128 440.741 226.423 437.207C226.974 438.056 227.685 438.813 228.557 439.41L254.215 457.081C257.772 459.537 262.707 458.619 265.139 455.062C265.185 454.993 265.231 454.924 265.254 454.878C266.952 457.471 266.998 460.914 265.139 463.599Z" fill="#390075"/>
</g>
<path d="M258.668 469.864C256.579 469.864 254.445 469.244 252.609 467.982L226.951 450.311C222.085 446.96 220.846 440.259 224.197 435.393C227.548 430.528 234.249 429.288 239.114 432.639L264.772 450.311C269.638 453.661 270.877 460.363 267.526 465.228C265.438 468.235 262.064 469.864 258.668 469.864ZM233.033 436.472C231.449 436.472 229.888 437.229 228.925 438.629C228.167 439.731 227.892 441.039 228.144 442.37C228.397 443.701 229.131 444.826 230.21 445.583L255.868 463.254C258.14 464.815 261.238 464.241 262.799 461.969C264.359 459.697 263.786 456.599 261.514 455.038L235.855 437.367C234.983 436.77 233.996 436.472 233.033 436.472Z" fill="#390075"/>
<g opacity="0.3">
<path d="M344.799 483.955C347.232 487.536 346.291 492.447 342.71 494.88L316.961 512.39C313.38 514.823 308.469 513.882 306.036 510.302C303.604 506.722 304.545 501.81 308.125 499.378L333.875 481.867C337.455 479.434 342.366 480.375 344.799 483.955Z" fill="#390075"/>
</g>
<path d="M344.799 474.752C347.232 478.332 346.291 483.244 342.71 485.676L316.961 503.187C313.38 505.62 308.469 504.679 306.036 501.099C303.604 497.519 304.545 492.607 308.125 490.175L333.875 472.664C337.455 470.254 342.366 471.195 344.799 474.752Z" fill="#4A83FF"/>
<path d="M312.554 505.023C309.892 505.023 307.276 503.761 305.669 501.397C303.099 497.61 304.086 492.424 307.872 489.83L333.622 472.32C337.409 469.749 342.596 470.736 345.189 474.523C346.428 476.359 346.887 478.562 346.474 480.765C346.061 482.945 344.822 484.85 342.986 486.09L317.236 503.6C315.79 504.564 314.161 505.023 312.554 505.023ZM338.281 471.792C336.858 471.792 335.412 472.205 334.127 473.077L308.377 490.588C305.004 492.883 304.132 497.496 306.427 500.869C308.722 504.243 313.335 505.115 316.708 502.82L342.458 485.309C345.832 483.014 346.704 478.401 344.409 475.028C342.986 472.916 340.645 471.792 338.281 471.792Z" fill="#371A45"/>
<g opacity="0.4">
<path d="M345.854 481.316C345.786 481.201 345.717 481.087 345.648 480.995C343.215 477.415 338.304 476.474 334.724 478.906L308.974 496.44C307.39 497.519 306.312 499.102 305.83 500.824C305.049 499.561 304.682 498.162 304.682 496.739C304.682 494.214 305.876 491.735 308.125 490.221L333.875 472.71C337.455 470.277 342.366 471.218 344.799 474.775C346.13 476.749 346.451 479.159 345.854 481.316Z" fill="white"/>
</g>
<g opacity="0.3">
<path d="M342.71 485.677L316.96 503.21C313.38 505.643 308.469 504.702 306.036 501.145C305.118 499.791 304.682 498.253 304.682 496.739C304.682 494.214 305.876 491.735 308.125 490.221L308.652 489.854C308.836 490.29 309.066 490.726 309.364 491.139C311.797 494.719 316.708 495.637 320.288 493.204L345.533 476.038C346.979 479.434 345.877 483.519 342.71 485.677Z" fill="#390075"/>
</g>
<path d="M312.554 507.433C309.112 507.433 305.738 505.781 303.672 502.752C300.345 497.863 301.607 491.185 306.518 487.857L332.268 470.346C337.156 467.019 343.835 468.281 347.163 473.192C348.769 475.556 349.366 478.402 348.815 481.225C348.287 484.047 346.681 486.48 344.317 488.087L318.567 505.597C316.731 506.837 314.62 507.433 312.554 507.433ZM338.281 474.202C337.317 474.202 336.33 474.477 335.481 475.074L309.731 492.585C307.459 494.122 306.862 497.244 308.423 499.516C309.961 501.788 313.082 502.384 315.354 500.824L341.104 483.313C342.205 482.579 342.94 481.431 343.192 480.123C343.445 478.815 343.169 477.484 342.435 476.382C341.448 474.959 339.888 474.202 338.281 474.202Z" fill="#390075"/>
<g opacity="0.3">
<path d="M402.197 441.108C400.843 445.216 396.367 447.465 392.259 446.088L362.677 436.289C358.569 434.934 356.32 430.459 357.697 426.351C359.051 422.243 363.526 419.994 367.634 421.371L397.217 431.171C401.302 432.548 403.551 437 402.197 441.108Z" fill="#390075"/>
</g>
<path d="M402.197 433.833C400.843 437.941 396.367 440.19 392.259 438.813L362.677 429.013C358.569 427.659 356.32 423.184 357.697 419.076C359.051 414.968 363.526 412.719 367.634 414.096L397.217 423.895C401.302 425.249 403.551 429.725 402.197 433.833Z" fill="white"/>
<path d="M394.715 439.662C393.843 439.662 392.971 439.524 392.099 439.249L362.516 429.449C360.405 428.761 358.706 427.269 357.719 425.272C356.71 423.276 356.549 421.027 357.238 418.938C358.683 414.578 363.388 412.214 367.749 413.66L397.331 423.459C399.443 424.148 401.141 425.64 402.128 427.636C403.138 429.633 403.298 431.882 402.61 433.97C401.921 436.082 400.429 437.78 398.433 438.767C397.285 439.364 396 439.662 394.715 439.662ZM365.178 414.165C362.08 414.165 359.188 416.138 358.156 419.237C357.536 421.095 357.697 423.115 358.569 424.882C359.464 426.649 360.978 427.98 362.837 428.6L392.42 438.4C394.279 439.019 396.298 438.882 398.066 437.987C399.833 437.092 401.164 435.577 401.783 433.718C402.403 431.859 402.242 429.839 401.37 428.072C400.475 426.305 398.961 424.974 397.102 424.354L367.519 414.555C366.716 414.279 365.936 414.165 365.178 414.165Z" fill="#371A45"/>
<g opacity="0.4">
<path d="M402.403 432.961C401.485 431.4 399.994 430.161 398.135 429.541L368.575 419.741C367.772 419.466 366.946 419.351 366.119 419.351C362.815 419.351 359.739 421.44 358.638 424.744C358.546 425.02 358.477 425.318 358.408 425.594C357.261 423.689 356.939 421.348 357.674 419.099C358.775 415.794 361.851 413.706 365.155 413.706C365.982 413.706 366.808 413.843 367.611 414.096L397.171 423.895C401.026 425.158 403.229 429.105 402.403 432.961Z" fill="white"/>
</g>
<g opacity="0.3">
<path d="M402.197 433.81C400.843 437.918 396.367 440.167 392.259 438.813L362.7 429.013C358.683 427.682 356.457 423.367 357.651 419.328C358.316 419.833 359.051 420.223 359.854 420.476L389.436 430.275C393.545 431.629 398.02 429.403 399.374 425.295C399.397 425.203 399.42 425.134 399.443 425.043C402.059 427.016 403.275 430.551 402.197 433.81Z" fill="#390075"/>
</g>
<path d="M394.738 442.072C393.613 442.072 392.466 441.888 391.364 441.521L361.782 431.721C359.074 430.826 356.87 428.921 355.585 426.351C354.3 423.781 354.07 420.889 354.988 418.158C356.847 412.535 362.929 409.483 368.552 411.342L398.134 421.141C400.843 422.036 403.046 423.941 404.331 426.512C405.616 429.082 405.846 431.974 404.928 434.705C404.033 437.413 402.128 439.616 399.557 440.901C398.02 441.705 396.39 442.072 394.738 442.072ZM365.155 416.574C363.067 416.574 361.116 417.905 360.405 419.994C359.992 421.256 360.083 422.61 360.68 423.804C361.277 424.997 362.31 425.892 363.572 426.305L393.154 436.105C394.417 436.518 395.771 436.426 396.964 435.829C398.157 435.233 399.052 434.2 399.466 432.938C399.879 431.675 399.787 430.321 399.19 429.128C398.593 427.934 397.561 427.039 396.298 426.626L366.716 416.827C366.211 416.643 365.683 416.574 365.155 416.574Z" fill="#390075"/>
<g opacity="0.3">
<path d="M463.703 479.412C459.755 477.644 457.965 472.986 459.732 469.038L472.424 440.58C474.191 436.633 478.85 434.843 482.797 436.61C486.745 438.377 488.535 443.036 486.767 446.983L474.076 475.441C472.309 479.389 467.65 481.179 463.703 479.412Z" fill="#390075"/>
</g>
<path d="M460.031 470.231C456.083 468.464 454.293 463.805 456.061 459.858L468.752 431.4C470.519 427.453 475.178 425.663 479.125 427.43C483.073 429.197 484.863 433.856 483.096 437.803L470.404 466.261C468.637 470.208 463.978 471.999 460.031 470.231Z" fill="#FCDC18"/>
<g opacity="0.4">
<path d="M483.761 434.636C483.761 434.728 483.761 434.82 483.761 434.911C483.187 434.406 482.522 433.97 481.788 433.649C477.84 431.882 473.158 433.672 471.414 437.619L458.723 466.077C458.31 467.018 458.08 468.005 458.057 468.969C455.533 466.766 454.615 463.071 456.038 459.858L468.729 431.4C470.496 427.453 475.155 425.663 479.102 427.43C482.04 428.715 483.761 431.607 483.761 434.636Z" fill="white"/>
</g>
<g opacity="0.3">
<path d="M483.761 434.636C483.761 435.692 483.532 436.793 483.073 437.803L470.381 466.261C468.614 470.208 463.955 471.999 460.008 470.231C456.06 468.487 454.27 463.805 456.015 459.858L456.795 458.091C457.346 458.573 457.988 458.963 458.677 459.284C462.624 461.051 467.283 459.261 469.05 455.314L480.938 428.623C482.774 430.115 483.761 432.341 483.761 434.636Z" fill="#390075"/>
</g>
<path d="M463.198 473.789C461.729 473.789 460.26 473.49 458.837 472.848C453.444 470.438 450.988 464.081 453.398 458.688L466.089 430.23C468.499 424.836 474.856 422.381 480.249 424.791C482.866 425.961 484.862 428.072 485.895 430.758C486.928 433.443 486.859 436.357 485.689 438.951L472.997 467.409C471.253 471.402 467.306 473.789 463.198 473.789ZM461.201 467.615C463.703 468.74 466.663 467.592 467.788 465.091L480.479 436.633C481.007 435.416 481.053 434.062 480.571 432.823C480.089 431.584 479.171 430.597 477.954 430.046C475.453 428.922 472.492 430.069 471.368 432.571L458.676 461.029C457.552 463.53 458.676 466.491 461.201 467.615Z" fill="#390075"/>
<g opacity="0.3">
<path d="M533.195 391.674C533.93 387.405 538.038 384.536 542.283 385.27L572.968 390.618C577.236 391.352 580.105 395.46 579.371 399.706C578.636 403.975 574.528 406.843 570.282 406.109L539.598 400.762C535.33 400.027 532.461 395.919 533.195 391.674Z" fill="#390075"/>
</g>
<path d="M533.195 384.169C533.93 379.9 538.038 377.032 542.283 377.766L572.968 383.113C577.236 383.848 580.105 387.956 579.371 392.202C578.636 396.47 574.528 399.339 570.282 398.605L539.598 393.257C535.33 392.523 532.461 388.438 533.195 384.169Z" fill="#4A83FF"/>
<path d="M571.637 399.178C571.155 399.178 570.696 399.132 570.214 399.064L539.529 393.716C537.349 393.326 535.444 392.133 534.159 390.297C532.874 388.484 532.392 386.28 532.759 384.1C533.54 379.579 537.877 376.55 542.375 377.33L573.059 382.677C577.581 383.458 580.61 387.772 579.83 392.293C579.118 396.333 575.607 399.178 571.637 399.178ZM533.654 384.238C533.31 386.166 533.769 388.139 534.894 389.769C536.041 391.398 537.739 392.477 539.667 392.798L570.351 398.146C574.368 398.834 578.2 396.149 578.912 392.133C579.6 388.116 576.915 384.284 572.899 383.572L542.215 378.225C538.198 377.514 534.366 380.222 533.654 384.238Z" fill="#371A45"/>
<g opacity="0.4">
<path d="M579.44 391.719C578.292 390.136 576.548 388.965 574.459 388.598L543.775 383.251C539.506 382.516 535.421 385.385 534.687 389.654C534.664 389.815 534.641 389.975 534.618 390.136C533.402 388.483 532.828 386.349 533.195 384.169C533.93 379.9 538.038 377.031 542.283 377.789L572.968 383.136C577.076 383.848 579.899 387.634 579.44 391.719Z" fill="white"/>
</g>
<g opacity="0.3">
<path d="M579.371 392.224C578.705 396.034 575.377 398.742 571.613 398.742C571.177 398.742 570.741 398.696 570.282 398.627L539.598 393.28C535.674 392.592 532.92 389.08 533.103 385.202C533.769 385.546 534.48 385.775 535.238 385.913L565.922 391.261C566.381 391.352 566.817 391.375 567.276 391.375C571.017 391.375 574.368 388.667 575.01 384.857C575.079 384.536 575.102 384.192 575.102 383.848C578.154 385.339 579.99 388.713 579.371 392.224Z" fill="#390075"/>
</g>
<path d="M571.637 401.588C571.017 401.588 570.42 401.542 569.801 401.427L539.116 396.08C533.287 395.07 529.363 389.493 530.395 383.664C531.405 377.835 536.982 373.933 542.811 374.943L573.496 380.29C579.325 381.3 583.249 386.877 582.217 392.706C581.299 397.916 576.755 401.588 571.637 401.588ZM536.018 384.651C535.536 387.359 537.372 389.952 540.08 390.411L570.765 395.759C573.473 396.218 576.066 394.404 576.548 391.696C577.03 388.988 575.194 386.395 572.486 385.936L541.802 380.589C539.094 380.13 536.5 381.943 536.018 384.651Z" fill="#390075"/>
<g opacity="0.3">
<path d="M490.531 358.167C487.525 355.068 487.594 350.065 490.715 347.059L513.091 325.394C516.189 322.388 521.192 322.456 524.199 325.578C527.205 328.676 527.137 333.679 524.015 336.685L501.639 358.35C498.541 361.334 493.538 361.265 490.531 358.167Z" fill="#390075"/>
</g>
<path d="M490.531 348.987C487.525 345.889 487.594 340.886 490.715 337.879L513.091 316.214C516.189 313.208 521.192 313.277 524.199 316.398C527.205 319.496 527.137 324.499 524.015 327.506L501.639 349.171C498.541 352.154 493.538 352.085 490.531 348.987Z" fill="white"/>
<path d="M496.177 351.81C496.131 351.81 496.085 351.81 496.039 351.81C493.813 351.764 491.748 350.869 490.187 349.285C488.649 347.702 487.823 345.59 487.846 343.364C487.892 341.138 488.787 339.072 490.371 337.512L512.747 315.847C516.052 312.657 521.307 312.749 524.497 316.031C527.687 319.335 527.596 324.591 524.314 327.781L501.96 349.492C500.4 350.983 498.357 351.81 496.177 351.81ZM518.553 314.447C516.694 314.447 514.835 315.136 513.412 316.536L491.036 338.2C489.613 339.577 488.833 341.413 488.787 343.387C488.764 345.361 489.499 347.243 490.853 348.643C492.23 350.065 494.066 350.846 496.039 350.892C498.036 350.915 499.895 350.18 501.295 348.826L523.671 327.161C526.609 324.316 526.678 319.634 523.832 316.696C522.432 315.181 520.481 314.447 518.553 314.447Z" fill="#371A45"/>
<g opacity="0.4">
<path d="M526.402 321.837C526.402 323.007 526.127 324.178 525.622 325.256C525.278 324.522 524.796 323.833 524.199 323.191C521.193 320.092 516.189 320.001 513.091 323.007L490.715 344.672C490.026 345.337 489.499 346.095 489.108 346.898C487.686 343.937 488.236 340.243 490.715 337.833L513.091 316.168C516.212 313.162 521.193 313.23 524.199 316.352C525.668 317.889 526.402 319.863 526.402 321.837Z" fill="white"/>
</g>
<g opacity="0.3">
<path d="M526.402 321.837C526.402 323.902 525.599 325.945 524.015 327.482L501.639 349.147C498.541 352.153 493.538 352.085 490.531 348.963C487.525 345.865 487.617 340.862 490.715 337.856L492.252 336.364C492.597 337.029 493.033 337.672 493.584 338.246C496.59 341.344 501.593 341.413 504.691 338.429L525.53 318.256C526.127 319.381 526.402 320.597 526.402 321.837Z" fill="#390075"/>
</g>
<path d="M496.177 354.219C496.108 354.219 496.062 354.219 495.993 354.219C493.125 354.173 490.44 353.026 488.466 350.96C486.469 348.917 485.414 346.186 485.459 343.318C485.505 340.449 486.653 337.764 488.718 335.79L511.095 314.125C513.137 312.129 515.868 311.05 518.737 311.119C521.606 311.165 524.291 312.312 526.264 314.378C528.261 316.42 529.317 319.151 529.271 322.02C529.225 324.889 528.078 327.574 526.012 329.548L503.636 351.212C501.639 353.163 499 354.219 496.177 354.219ZM518.553 316.856C517.245 316.856 516.006 317.361 515.088 318.256L492.712 339.921C491.771 340.839 491.22 342.078 491.197 343.432C491.174 344.764 491.679 346.026 492.597 346.99C493.515 347.931 494.754 348.481 496.108 348.504C497.439 348.504 498.702 348.022 499.665 347.104L522.042 325.44C522.983 324.522 523.533 323.282 523.556 321.928C523.579 320.597 523.074 319.335 522.156 318.371C521.238 317.43 519.999 316.879 518.645 316.856C518.599 316.856 518.576 316.856 518.553 316.856Z" fill="#390075"/>
<g opacity="0.3">
<path d="M163.104 327.046C161.727 331.155 157.252 333.381 153.144 332.004L123.607 322.089C119.499 320.712 117.273 316.237 118.65 312.129C120.027 308.021 124.502 305.795 128.61 307.172L158.147 317.086C162.255 318.463 164.481 322.938 163.104 327.046Z" fill="#390075"/>
</g>
<path d="M164.022 319.702C162.645 323.81 158.17 326.036 154.062 324.659L124.525 314.745C120.417 313.368 118.191 308.893 119.568 304.785C120.945 300.677 125.42 298.451 129.528 299.828L159.065 309.742C163.173 311.119 165.399 315.594 164.022 319.702Z" fill="white"/>
<path d="M156.586 325.509C155.714 325.509 154.819 325.371 153.947 325.073L124.41 315.158C120.073 313.689 117.709 308.985 119.177 304.624C119.889 302.536 121.358 300.814 123.354 299.828C125.351 298.841 127.6 298.68 129.712 299.392L159.248 309.306C163.586 310.775 165.95 315.48 164.481 319.84C163.31 323.306 160.051 325.509 156.586 325.509ZM127.049 299.874C123.951 299.874 121.059 301.824 120.027 304.923C118.718 308.801 120.807 313.001 124.685 314.286L154.222 324.201C158.078 325.509 162.301 323.42 163.586 319.542C164.894 315.663 162.782 311.463 158.927 310.178L129.39 300.264C128.633 300.011 127.83 299.874 127.049 299.874Z" fill="#371A45"/>
<g opacity="0.4">
<path d="M164.32 318.601C163.402 317.086 161.956 315.893 160.143 315.273L130.606 305.359C129.78 305.083 128.954 304.946 128.128 304.946C124.846 304.946 121.771 307.011 120.669 310.293C120.554 310.66 120.462 311.004 120.394 311.372C119.2 309.444 118.833 307.034 119.613 304.739C120.715 301.457 123.79 299.392 127.095 299.392C127.921 299.392 128.747 299.529 129.574 299.805L159.11 309.719C162.828 311.004 165.008 314.837 164.32 318.601Z" fill="white"/>
</g>
<g opacity="0.3">
<path d="M164.045 319.702C162.668 323.787 158.193 326.036 154.085 324.659L124.548 314.745C120.899 313.506 118.719 309.834 119.292 306.139C119.981 306.712 120.807 307.171 121.725 307.47L151.262 317.384C155.347 318.761 159.845 316.535 161.222 312.427C161.36 311.968 161.474 311.532 161.543 311.073C163.999 313.07 165.101 316.489 164.045 319.702Z" fill="#390075"/>
</g>
<path d="M156.563 327.918C155.416 327.918 154.268 327.735 153.167 327.367L123.63 317.453C120.922 316.535 118.719 314.63 117.456 312.06C116.171 309.489 115.965 306.575 116.883 303.867C117.801 301.159 119.705 298.955 122.276 297.693C124.846 296.408 127.761 296.201 130.469 297.119L160.006 307.034C165.605 308.916 168.635 315.02 166.753 320.62C165.835 323.328 163.93 325.531 161.36 326.794C159.845 327.551 158.216 327.918 156.563 327.918ZM127.049 302.283C124.961 302.283 123.01 303.591 122.322 305.68C121.45 308.296 122.85 311.119 125.466 311.991L155.003 321.905C156.265 322.319 157.619 322.227 158.812 321.63C160.006 321.033 160.901 320.023 161.314 318.761C162.186 316.145 160.786 313.322 158.17 312.45L128.633 302.536C128.105 302.375 127.577 302.283 127.049 302.283Z" fill="#390075"/>
<g opacity="0.3">
<path d="M308.653 403.263C218.482 403.263 150.229 353.921 158.973 349.17C184.172 335.538 241.708 325.991 308.653 325.991C383.355 325.991 446.33 337.856 465.746 354.059C469.762 357.432 398.823 403.263 308.653 403.263Z" fill="#6B184E"/>
<path d="M308.653 403.837C263.441 403.837 226.239 391.697 203.014 381.484C176.897 370.032 159.179 356.813 157.756 351.167C157.481 350.042 157.802 349.17 158.72 348.665C184.792 334.551 243.658 325.417 308.676 325.417C381.496 325.417 446.238 337.007 466.136 353.623C466.319 353.76 466.686 354.196 466.411 354.954C464.001 361.517 395.633 403.837 308.653 403.837ZM308.653 326.564C243.819 326.564 185.182 335.63 159.248 349.675C158.95 349.836 158.674 350.111 158.858 350.869C161.406 360.898 226.538 402.667 308.653 402.667C352.304 402.667 389.85 391.88 413.649 382.815C440.959 372.442 459.778 360.737 464.414 355.757C465.355 354.747 465.332 354.403 465.332 354.403C445.664 338.062 381.221 326.564 308.653 326.564Z" fill="#390075"/>
</g>
<g opacity="0.4">
<path d="M468.362 352.659C468.362 360.508 464.529 368.035 457.552 374.92C445.871 386.464 425.353 396.264 399.282 403.057C374.84 409.414 345.487 413.132 313.931 413.132C311.911 413.132 309.869 413.109 307.872 413.086C282.673 412.719 259.035 409.965 238.334 405.421C191.286 395.047 159.5 375.333 159.5 352.682C159.5 345.429 170.562 364.524 192.778 377.582C205.171 384.88 220.685 391.352 237.806 396.126C259.172 402.093 282.994 405.398 306.335 404.273C306.794 404.25 307.253 404.227 307.689 404.204C337.019 402.575 360.979 399.201 380.578 394.91C414.154 387.52 434.878 377.376 447.707 368.586C467.765 354.77 468.362 344.236 468.362 352.659Z" fill="white"/>
</g>
<g opacity="0.4">
<path d="M621.392 393.854C621.209 396.7 620.841 399.316 620.268 401.68C599.2 316.008 490.967 250.852 314 250.852C161.245 250.852 59.668 299.392 21.2038 367.783C17.7154 375.287 14.5254 384.399 13.4697 394.083C11.8173 379.763 16.1778 365.694 21.2038 354.931C59.668 286.54 161.222 238 314 238C494.41 238 603.399 305.703 621.392 393.854Z" fill="white"/>
</g>
<g opacity="0.4">
<path d="M621.392 393.854C619.189 428.6 586.898 426.604 562.181 425.341C528.927 423.666 524.176 443.839 496.682 487.054C469.165 530.269 416.724 469.107 368.552 510.325C320.38 551.543 269.706 543.786 239.849 510.096C209.991 476.405 207.994 514.823 152.822 514.525C97.6503 514.227 107.909 455.727 91.4079 430.62C74.9298 405.513 39.3803 447.763 19.4826 412.581C15.627 405.811 13.791 398.765 13.2861 391.834C14.1123 393.9 15.0762 395.965 16.2237 398.008C36.1214 433.167 71.6709 390.916 88.149 416.047C104.65 441.154 94.3914 499.676 149.563 499.952C204.735 500.25 206.709 461.832 236.59 495.522C266.448 529.213 317.121 536.97 365.293 495.752C413.465 454.534 465.906 515.695 493.423 472.481C520.94 429.266 525.668 409.093 558.922 410.768C583.272 412.007 614.966 413.958 618.019 380.818C619.373 385.11 620.497 389.448 621.392 393.854Z" fill="white"/>
</g>
<path d="M301.194 542.065C275.398 542.065 252.769 530.2 237.117 512.551C222.062 495.568 216.439 498.46 202.853 505.414C192.296 510.83 177.883 518.197 153.511 518.197C153.281 518.197 153.075 518.197 152.845 518.197C111.581 517.967 104.122 486.434 98.1093 461.097C95.516 450.104 93.0603 439.731 88.3785 432.639C82.5033 423.666 74.0577 425.111 60.7926 428.21C46.38 431.583 28.4101 435.76 16.3155 414.394C4.15199 392.936 10.4862 369.366 17.922 353.393L18.0597 353.14C38.0491 317.591 74.4708 287.962 123.377 267.445C175.726 245.482 239.871 234.328 314.046 234.328C400.361 234.328 475.178 250.003 530.395 279.631C582.928 307.837 615.655 347.059 625.064 393.096L625.156 393.578L625.133 394.06C624.077 410.768 616.229 421.669 601.793 426.443C589.859 430.39 575.469 429.656 562.778 429.013L562.044 428.967C536.867 427.705 529.776 439.524 512.609 468.12C508.914 474.293 504.714 481.293 499.803 488.981C484.84 512.482 463.267 507.938 440.431 503.141C417.596 498.345 393.958 493.388 370.962 513.056C346.956 533.619 322.95 542.065 301.194 542.065ZM217.977 492.562C225 492.562 232.573 496.371 242.58 507.663C269.064 537.544 317.557 549.11 366.142 507.525C391.892 485.493 418.445 491.07 441.9 496.004C463.932 500.64 481.351 504.289 493.584 485.08C498.426 477.483 502.603 470.53 506.275 464.379C523.924 434.957 532.782 420.177 562.365 421.669L563.099 421.715C592.797 423.23 615.678 422.151 617.697 394.106C608.609 350.478 577.213 313.161 526.861 286.126C472.722 257.049 399.099 241.695 314 241.695C240.812 241.695 177.608 252.642 126.154 274.238C78.8313 294.09 43.6719 322.594 24.4627 356.652C17.7843 371.064 12.0697 392.109 22.6497 410.814C32.0362 427.406 44.5669 424.469 59.0484 421.095C71.4184 418.204 85.4638 414.922 94.4602 428.646C99.8305 436.839 102.447 447.809 105.201 459.445C111.168 484.644 117.341 510.715 152.822 510.899C175.841 510.967 188.922 504.312 199.457 498.919C206.066 495.499 211.804 492.562 217.977 492.562Z" fill="#390075"/>
<path d="M426.662 381.116C400.131 393.647 361.988 404.342 314 404.342C264.474 404.342 225.459 392.959 198.837 379.923L215.682 352.98L238.862 315.893L391.801 328.377L417.229 366.842L426.662 381.116Z" fill="white"/>
<path d="M314 404.916C259.953 404.916 221.42 391.605 198.584 380.428L198.011 380.153L238.54 315.296L238.885 315.319L392.099 327.827L427.488 381.346L426.891 381.621C404.4 392.247 366.533 404.916 314 404.916ZM199.663 379.694C222.453 390.756 260.618 403.768 314 403.768C365.867 403.768 403.344 391.398 425.812 380.887L391.456 328.928L239.137 316.489L199.663 379.694Z" fill="#390075"/>
<path d="M314 408.014C259.379 408.014 220.341 394.542 197.231 383.228L193.582 381.438L236.934 312.06L393.889 324.866L432.078 382.631L428.245 384.444C405.433 395.185 367.106 408.014 314 408.014ZM204.139 378.386C226.928 388.943 263.579 400.67 314 400.67C362.838 400.67 398.755 389.585 421.223 379.556L389.712 331.889L240.79 319.725L204.139 378.386Z" fill="#390075"/>
<path d="M469.577 273.412C469.577 273.412 469.118 275.592 473.364 280.389C475.659 279.402 477.197 278.163 477.495 276.602C477.633 275.868 477.518 275.133 477.174 274.353C473.089 274.078 469.577 273.412 469.577 273.412Z" fill="#A5A5A5"/>
<path d="M473.204 281.077L472.928 280.779C468.614 275.914 468.958 273.55 469.004 273.297L469.119 272.747L469.67 272.861C469.715 272.861 473.204 273.527 477.197 273.802L477.541 273.825L477.679 274.147C478.069 275.042 478.184 275.891 478.023 276.717C477.725 278.369 476.233 279.792 473.571 280.917L473.204 281.077ZM470.197 274.101C470.358 274.973 471.024 276.786 473.525 279.677C475.568 278.737 476.715 277.681 476.922 276.487C477.013 275.983 476.968 275.455 476.761 274.904C473.938 274.697 471.391 274.307 470.197 274.101Z" fill="#390075"/>
<path d="M257.612 238.528C258.828 237.725 260.022 236.922 261.169 236.073C260.067 236.738 258.874 237.564 257.612 238.528Z" fill="white"/>
<path d="M257.933 239.01L257.268 238.069C258.576 237.06 259.769 236.256 260.894 235.568L261.536 236.532C260.412 237.358 259.218 238.161 257.933 239.01Z" fill="#390075"/>
<path d="M382.712 136.034C396.643 127.703 460.444 90.6384 471.942 101.356C492.115 120.152 468.384 183.517 462.67 197.838" fill="#FAA625"/>
<g opacity="0.35">
<path d="M382.712 136.034L391.226 142.62C411.835 130.64 464.529 101.586 474.879 111.248C476.669 112.923 478.138 114.966 479.286 117.307C478.253 110.697 475.981 105.143 471.942 101.379C460.444 90.6386 396.643 127.68 382.712 136.034Z" fill="white"/>
</g>
<path d="M462.693 201.51C462.234 201.51 461.775 201.418 461.339 201.257C459.457 200.5 458.539 198.366 459.296 196.484C472.974 162.219 483.853 117.467 469.463 104.064C468.545 103.192 462.28 99.6806 429.805 114.896C410.275 124.054 390.263 135.827 384.594 139.201C382.85 140.233 380.601 139.682 379.568 137.938C378.535 136.194 379.086 133.945 380.83 132.912C386.568 129.47 406.855 117.559 426.684 108.264C461.293 92.0383 470.519 95.0447 474.466 98.7167C495.947 118.729 473.502 180.717 466.112 199.238C465.539 200.615 464.139 201.51 462.693 201.51Z" fill="#390075"/>
<path d="M464.116 120.29C464.116 120.29 467.237 119.326 466.732 126.67C465.883 139.246 459.067 170.573 444.034 181.36C444.034 181.36 423.93 148.289 418.284 144.295C412.639 140.302 425.33 136.837 429.117 132.407C432.904 127.978 461.821 119.05 464.116 120.29Z" fill="#EBA7A4"/>
<path d="M443.874 182.163L443.552 181.635C443.346 181.314 423.448 148.61 417.963 144.754C416.816 143.951 416.265 143.056 416.288 142.115C416.38 140.027 419.294 138.305 422.645 136.332C424.986 134.955 427.396 133.532 428.658 132.04C432.468 127.565 460.214 118.729 464.116 119.716C464.529 119.647 465.194 119.693 465.814 120.175C467.007 121.139 467.512 123.319 467.283 126.716C466.411 139.453 459.434 171.009 444.356 181.819L443.874 182.163ZM463.358 120.726C459.113 120.726 433.34 128.368 429.576 132.774C428.176 134.427 425.674 135.896 423.265 137.319C420.442 138.994 417.527 140.715 417.458 142.161C417.435 142.689 417.825 143.24 418.629 143.813C423.976 147.577 441.51 176.081 444.218 180.51C458.631 169.609 465.332 139.063 466.181 126.624C466.457 122.722 465.653 121.46 465.148 121.07C464.712 120.726 464.299 120.84 464.299 120.84L464.07 120.909L463.863 120.795C463.748 120.749 463.565 120.726 463.358 120.726Z" fill="#390075"/>
<path d="M418.307 144.273C421.589 146.591 429.782 158.777 436.048 168.554C440.546 175.576 444.057 181.337 444.057 181.337C459.09 170.55 465.883 139.224 466.755 126.647C467.26 119.303 464.139 120.29 464.139 120.29C463.129 119.739 456.932 121.185 449.978 123.342C441.212 126.073 431.274 129.929 429.163 132.408C425.33 136.837 412.639 140.302 418.307 144.273Z" fill="#F7528A"/>
<g opacity="0.3">
<path d="M418.308 144.273C421.589 146.591 429.783 158.777 436.048 168.554C444.998 154.577 449.267 133.44 449.933 123.641C449.933 123.526 449.956 123.411 449.956 123.319C441.189 126.05 431.251 129.906 429.14 132.385C425.33 136.837 412.639 140.302 418.308 144.273Z" fill="#390075"/>
</g>
<path d="M440.064 179.065C439.077 177.412 438.136 175.737 437.126 174.107C436.094 172.501 435.107 170.849 434.005 169.265C431.894 166.052 429.599 162.977 427.281 159.97C424.917 156.964 422.415 154.072 419.845 151.272C418.56 149.872 417.229 148.518 415.875 147.187C414.544 145.879 413.098 144.548 411.767 143.469L409.403 141.541L411.721 139.476C415.829 135.827 420.304 132.706 424.986 129.975C429.691 127.266 434.556 124.926 439.536 122.883C444.539 120.863 449.611 119.142 454.798 117.696C456.106 117.352 457.391 117.008 458.699 116.687C458.791 116.664 459.204 116.572 459.48 116.526C459.778 116.48 460.076 116.457 460.375 116.457C460.972 116.457 461.591 116.503 462.165 116.664C463.335 116.939 464.414 117.536 465.286 118.339C466.158 119.165 466.847 120.198 467.191 121.368C467.283 121.667 467.352 121.942 467.397 122.24L467.466 122.676L467.489 122.952L467.581 123.985C467.696 125.362 467.788 126.716 467.834 128.093C467.994 133.578 467.558 139.04 466.594 144.433C465.561 149.803 463.978 155.105 461.729 160.085C460.604 162.609 459.411 164.904 458.172 167.291C456.955 169.655 455.624 171.996 454.224 174.291C453.536 175.439 452.801 176.586 452.044 177.688C451.654 178.238 451.287 178.812 450.873 179.363L450.575 179.776C450.483 179.914 450.3 180.12 450.162 180.281C449.864 180.625 449.519 180.947 449.152 181.222C447.683 182.346 445.71 182.691 443.988 182.255C442.313 181.865 440.844 180.579 440.064 179.065ZM442.566 177.734C443.093 178.514 443.851 179.019 444.723 179.111C445.572 179.202 446.444 178.973 446.995 178.422C447.133 178.284 447.27 178.147 447.385 177.986C447.454 177.894 447.477 177.848 447.569 177.711L447.821 177.297C448.142 176.747 448.464 176.196 448.785 175.645C449.405 174.521 450.024 173.396 450.598 172.226C452.87 167.613 455.073 162.816 456.932 158.042C458.814 153.338 460.031 148.426 460.811 143.423C461.568 138.42 461.844 133.348 461.591 128.299C461.545 127.037 461.453 125.775 461.339 124.535L461.247 123.594L461.224 123.365C461.224 123.342 461.224 123.342 461.201 123.319C461.201 123.296 461.178 123.273 461.178 123.227C461.155 123.113 461.086 123.044 460.994 122.952C460.903 122.86 460.788 122.814 460.696 122.791C460.65 122.768 460.581 122.791 460.535 122.768C460.512 122.791 460.49 122.768 460.444 122.791C460.375 122.814 460.467 122.768 460.26 122.837C459.021 123.158 457.781 123.48 456.542 123.824C451.585 125.224 446.674 126.785 441.877 128.689C437.081 130.525 432.376 132.614 427.878 135.047C423.379 137.456 419.065 140.187 415.14 143.4L415.094 139.407C416.701 140.83 418.055 142.207 419.432 143.676C420.809 145.122 422.117 146.59 423.402 148.105C425.973 151.112 428.337 154.279 430.609 157.469C432.835 160.705 434.992 163.986 436.966 167.383C437.999 169.058 438.894 170.803 439.88 172.501C440.798 174.245 441.671 175.989 442.566 177.734Z" fill="#390075"/>
<g opacity="0.3">
<path d="M417.229 366.842C409.357 370.881 400.843 374.186 391.777 376.848C391.777 376.848 277.119 400.165 215.682 352.98L238.862 315.893L391.8 328.377L417.229 366.842Z" fill="#6B184E"/>
<path d="M327.403 383.182C327.196 383.182 326.99 383.182 326.76 383.182C293.506 383.113 247.193 377.903 215.315 353.439L214.902 353.118L238.54 315.296L238.885 315.319L392.099 327.827L418.032 367.071L417.459 367.369C409.747 371.34 401.141 374.713 391.915 377.399C391.617 377.467 363.09 383.182 327.403 383.182ZM216.44 352.842C277.073 398.903 390.515 376.527 391.663 376.297C400.544 373.704 408.875 370.445 416.38 366.635L391.456 328.928L239.137 316.489L216.44 352.842Z" fill="#390075"/>
</g>
<path d="M484.105 307.493C482.82 314.814 466.847 305.037 466.847 305.037C466.847 305.037 465.745 307.286 468.637 314.102C470.794 319.151 472.722 322.892 471.551 325.463C470.312 328.194 465.47 328.492 459.916 327.505C456.037 326.817 452.686 327.115 448.073 331.522C447.178 332.371 446.238 333.38 445.228 334.574C445.228 334.574 445.228 334.574 445.205 334.597C431.32 348.803 413.029 358.717 391.777 364.914C391.777 364.914 274.342 388.805 213.502 339.325C204.115 331.43 196.105 322.043 190.093 311.05C188.486 310.476 186.857 310.385 185.112 310.476C179.49 310.775 174.716 309.903 173.821 307.034C172.972 304.326 175.037 300.539 177.562 295.628C179.627 291.657 180.499 289.156 180.821 288.031C180.913 287.733 180.683 287.48 180.431 287.595C177.47 288.857 163.907 294.274 163.562 287.641C163.493 286.333 164.274 284.153 165.421 281.353C167.51 276.327 170.815 269.327 172.582 262.144C177.011 243.967 180.408 231.161 182.565 223.45C182.611 223.243 182.68 223.014 182.726 222.807C182.771 222.601 182.84 222.394 182.886 222.211C182.932 222.004 183.001 221.821 183.047 221.637C183.689 219.388 184.378 217.162 185.135 214.959C188.624 204.769 193.351 194.74 199.295 183.402L244.369 140.853L274.434 112.487C291.164 105.648 309.869 101.953 330.409 102.32C334.563 102.389 338.625 102.618 342.572 103.008C342.664 103.008 342.779 103.031 342.871 103.031C350.284 103.766 357.214 105.372 363.847 107.461C370.502 109.549 376.86 112.165 383.079 114.851C431.435 135.804 454.913 183.701 454.913 183.701C460.558 195.313 464.965 205.801 468.086 216.404C469.279 220.466 470.289 224.529 471.092 228.683C471.322 229.876 471.551 231.046 471.735 232.263C471.735 232.263 471.758 232.355 471.781 232.561C472.171 234.833 474.741 250.577 478.276 281.054C479.63 292.484 484.748 303.867 484.105 307.493Z" fill="white"/>
<path d="M471.116 228.706C449.244 234.007 424.229 233.801 400.613 219.204C347.071 186.156 355.516 133.371 363.87 107.461C370.526 109.549 376.883 112.166 383.102 114.851C431.458 135.804 454.936 183.701 454.936 183.701C460.582 195.314 464.988 205.802 468.109 216.405C469.302 220.49 470.312 224.552 471.116 228.706Z" fill="#FAA625"/>
<g opacity="0.3">
<path d="M177.562 295.628C175.038 300.539 172.972 304.326 173.821 307.011C174.716 309.88 179.49 310.752 185.113 310.477C186.857 310.385 188.486 310.477 190.093 311.05C196.129 322.066 204.138 331.43 213.525 339.325C274.388 388.805 391.8 364.914 391.8 364.914C413.052 358.718 431.343 348.803 445.228 334.597C445.228 334.597 445.251 334.597 445.251 334.574C446.261 333.381 447.202 332.371 448.097 331.522C452.71 327.115 456.06 326.817 459.939 327.506C465.493 328.492 470.312 328.217 471.552 325.463C472.722 322.893 470.794 319.152 468.637 314.103C468.431 313.644 468.27 313.208 468.109 312.818C466.09 313.07 463.542 312.886 460.857 312.404C456.978 311.716 453.628 312.014 449.015 316.421C448.12 317.27 447.156 318.303 446.169 319.473C446.169 319.473 446.146 319.473 446.146 319.496C432.261 333.702 413.97 343.616 392.718 349.813C392.718 349.813 275.306 373.704 214.443 324.224C205.951 317.063 198.561 308.709 192.778 299.002C191.378 296.661 188.808 295.238 186.1 295.353C186.077 295.353 186.054 295.353 186.054 295.353C182.955 295.513 180.133 295.33 178.067 294.641C177.884 294.985 177.723 295.284 177.562 295.628Z" fill="#390075"/>
</g>
<path d="M259.494 282.202C258.828 278.714 258.897 275.34 259.379 271.852C259.907 268.386 260.94 264.898 262.776 261.616C264.612 258.357 267.274 255.305 270.693 253.216C274.067 251.082 278.037 249.98 281.732 249.728C285.473 249.407 289.443 249.774 293.138 251.243C296.833 252.688 300.069 255.213 302.387 258.219C304.728 261.226 306.22 264.645 307.046 268.111C307.849 271.576 308.056 275.11 307.528 278.484C307.39 279.333 306.61 279.907 305.761 279.792C305.118 279.701 304.613 279.196 304.476 278.599V278.576C303.787 275.524 302.846 272.632 301.538 270.016C300.23 267.399 298.601 265.058 296.696 263.222C294.768 261.386 292.588 260.078 290.201 259.367C287.814 258.632 285.244 258.518 282.581 258.793C277.211 259.275 272.919 261.639 269.638 265.999C266.333 270.291 264.153 276.189 262.546 282.179L262.523 282.294C262.294 283.12 261.444 283.602 260.618 283.395C260.022 283.235 259.586 282.753 259.494 282.202Z" fill="#390075"/>
<path d="M390.263 276.579C389.597 273.274 389.62 270.038 390.079 266.734C390.561 263.452 391.525 260.101 393.292 256.98C395.036 253.859 397.584 250.921 400.866 248.947C404.079 246.905 407.888 245.849 411.423 245.62C414.98 245.321 418.79 245.665 422.347 247.088C425.881 248.488 428.979 250.898 431.183 253.79C433.409 256.658 434.832 259.94 435.589 263.245C436.346 266.55 436.507 269.901 436.002 273.137C435.864 273.986 435.061 274.559 434.212 274.422C433.569 274.33 433.087 273.825 432.95 273.228V273.205C431.642 267.491 429.163 262.235 425.514 258.793C423.701 257.095 421.658 255.878 419.432 255.213C417.206 254.547 414.796 254.432 412.318 254.708C407.269 255.167 403.321 257.347 400.223 261.409C397.102 265.425 395.013 270.956 393.407 276.602L393.361 276.74C393.131 277.566 392.259 278.048 391.433 277.818C390.791 277.612 390.377 277.13 390.263 276.579Z" fill="#390075"/>
<path d="M285.404 128.644C272.874 118.293 215.407 72.0259 202.417 80.9076C179.651 96.4447 196.657 172.432 200.145 187.441" fill="white"/>
<g opacity="0.35">
<path d="M484.105 307.493C483.853 308.916 483.049 309.696 481.925 310.017C480.479 304.922 478.414 298.29 477.656 291.68C474.122 261.18 471.551 245.436 471.161 243.187C471.138 243.003 471.115 242.889 471.115 242.889C470.22 237.472 469.004 232.24 467.466 227.03C464.345 216.404 462.44 204.723 456.795 193.11C456.795 193.11 430.815 146.43 382.482 125.476C370.044 120.106 357.123 115.103 342.251 113.657C342.159 113.634 342.068 113.634 341.953 113.634C338.005 113.221 333.943 112.992 329.789 112.923C309.249 112.555 291.922 114.873 274.595 123.503L268.857 126.67C250.291 111.729 209.738 82.2385 198.033 90.2251C195.991 91.6021 194.247 93.4152 192.778 95.5266C194.774 89.1694 197.873 84.0057 202.44 80.8845C213.571 73.288 252.035 100.828 270.739 115.401L270.211 114.323C289.099 105.234 309.892 101.953 330.432 102.32C334.586 102.389 338.648 102.618 342.595 103.031C342.71 103.031 342.802 103.031 342.894 103.054C357.765 104.5 370.686 109.526 383.125 114.873C431.458 135.827 454.959 183.723 454.959 183.723C460.604 195.336 465.011 205.824 468.109 216.427C469.647 221.637 470.863 226.869 471.781 232.286C471.781 232.286 471.781 232.377 471.827 232.584C472.217 234.856 474.787 250.6 478.322 281.077C479.63 292.483 484.748 303.867 484.105 307.493Z" fill="white"/>
</g>
<path d="M207.328 100.805C207.328 100.805 204.391 99.3824 203.771 106.703C202.715 119.257 204.712 151.272 217.954 164.17C217.954 164.17 242.809 134.496 249.005 131.421C255.179 128.345 243.153 122.998 240.101 118.041C237.049 113.084 209.784 99.9332 207.328 100.805Z" fill="#F7528A"/>
<g opacity="0.3">
<path d="M248.983 131.443C245.38 133.256 235.442 144.043 227.777 152.764C221.03 137.594 220.02 116.044 220.846 106.29C220.846 106.175 220.869 106.061 220.869 105.969C229.131 109.985 238.38 115.309 240.078 118.063C243.153 123.021 255.179 128.368 248.983 131.443Z" fill="#390075"/>
</g>
<path d="M208.407 98.0739C212.905 99.5886 217.219 101.356 221.511 103.307C225.78 105.257 229.98 107.392 234.065 109.778C238.15 112.142 242.143 114.736 245.93 117.627C249.74 120.519 253.343 123.709 256.648 127.312L259.149 130.296L255.867 132.155C254.192 133.096 252.333 134.335 250.612 135.551C248.868 136.791 247.146 138.076 245.448 139.43C242.074 142.115 238.815 145.007 235.694 148.013C232.596 151.065 229.544 154.187 226.721 157.492C225.252 159.098 223.921 160.842 222.498 162.495C221.121 164.193 219.836 165.96 218.482 167.681L218.436 167.727C217.954 168.347 217.082 168.439 216.485 167.98C215.911 167.521 215.774 166.694 216.187 166.098C217.426 164.262 218.619 162.38 219.905 160.544C221.213 158.754 222.452 156.895 223.852 155.151C226.514 151.57 229.429 148.174 232.389 144.8C235.396 141.495 238.563 138.282 241.891 135.23C243.543 133.692 245.264 132.224 247.009 130.778C248.799 129.332 250.52 127.978 252.585 126.601L251.782 131.466C246.228 124.581 239.16 118.752 231.609 113.68C227.822 111.132 223.875 108.792 219.836 106.634C215.797 104.477 211.643 102.457 207.443 100.736L207.397 100.713C206.662 100.415 206.318 99.5887 206.617 98.8543C206.938 98.1887 207.695 97.8444 208.407 98.0739Z" fill="#390075"/>
<path d="M379.866 365.258C388.656 362.894 397.331 360.232 405.708 356.904C414.085 353.577 422.094 349.491 429.461 344.465C431.274 343.18 433.087 341.872 434.832 340.472C435.727 339.807 436.553 339.049 437.402 338.338L438.595 337.328L439.812 336.157C440.615 335.377 441.418 334.574 442.13 333.794L442.635 333.243C442.703 333.174 442.795 333.059 442.841 333.013L443.094 332.692C443.53 332.141 443.943 331.682 444.379 331.2C446.146 329.341 448.143 327.689 450.506 326.404C452.87 325.164 455.67 324.315 458.608 324.453L459.686 324.568C460.031 324.614 460.467 324.66 460.673 324.705C461.201 324.797 461.706 324.889 462.234 324.958C463.267 325.096 464.299 325.164 465.263 325.164C466.227 325.164 467.168 325.05 467.88 324.843C468.591 324.637 468.935 324.338 468.889 324.269C468.981 324.155 469.119 323.512 469.004 322.686C468.912 321.86 468.66 320.873 468.339 319.863C467.696 317.82 466.87 315.732 466.067 313.483C465.286 311.211 464.552 308.962 464.093 306.391L464.07 306.277L464.047 306.07C464.024 305.932 464.024 305.795 464.024 305.634C464.024 305.06 464.185 304.441 464.552 303.867C464.896 303.316 465.47 302.788 466.273 302.536C467.076 302.237 468.132 302.375 468.798 302.765L469.601 303.224L471.047 304.005C472.011 304.509 472.997 304.968 473.961 305.404C475.912 306.254 477.955 306.988 479.676 307.195C480.502 307.309 481.236 307.172 481.214 307.126C481.214 307.103 481.122 307.218 481.145 307.195C481.168 307.195 481.191 306.919 481.214 306.781C481.214 306.185 481.007 305.106 480.777 304.119C480.525 303.087 480.227 302.008 479.928 300.929C478.666 296.592 477.312 292.093 476.325 287.435C476.073 286.264 475.866 285.094 475.66 283.9C475.476 282.73 475.315 281.468 475.178 280.366L474.351 273.55L472.63 259.918C471.414 250.852 470.175 241.741 468.683 232.814L474.879 231.781L474.925 232.079L468.729 232.997C467.466 225.286 465.355 217.483 462.716 209.978C460.054 202.451 456.841 195.061 453.352 187.786C450.024 180.671 445.595 173.924 440.936 167.452C436.232 161.003 431.137 154.784 425.56 149.069C424.206 147.6 422.714 146.269 421.314 144.869L419.157 142.781C418.422 142.092 417.665 141.473 416.908 140.807C415.393 139.499 413.924 138.168 412.386 136.883L407.659 133.234C406.856 132.637 406.098 131.994 405.272 131.443L402.793 129.768C401.141 128.667 399.512 127.519 397.836 126.463L392.672 123.48C391.8 122.998 390.951 122.47 390.079 122.011L387.394 120.726L382.047 118.155C380.211 117.329 378.329 116.572 376.493 115.792C372.775 114.277 369.034 112.831 365.27 111.569C361.506 110.307 357.697 109.228 353.864 108.356C351.936 107.92 350.008 107.553 348.081 107.231L345.166 106.818L343.651 106.657L342.894 106.566L342.504 106.52C342.481 106.52 342.412 106.52 342.435 106.52H342.504C342.55 106.52 342.618 106.52 342.664 106.52L342.205 106.497C336.215 105.9 330.111 105.717 324.144 105.946C318.131 106.176 312.141 106.91 306.197 108.012C294.332 110.215 282.65 113.841 271.887 119.096L269.752 120.129L267.916 118.614C262.064 113.795 256.051 109.113 249.923 104.661C243.796 100.209 237.53 95.9628 231.081 92.1531C227.846 90.2482 224.587 88.4811 221.259 86.9434C217.954 85.4287 214.535 84.0747 211.253 83.4321C209.623 83.0878 208.04 82.996 206.732 83.1567C206.066 83.2255 205.515 83.4091 205.033 83.5927C204.804 83.7534 204.62 83.7763 204.345 83.9829L203.45 84.6943C201.086 86.6221 199.227 89.422 197.873 92.5662C196.519 95.7333 195.624 99.1987 194.981 102.779C194.339 106.336 193.994 110.031 193.834 113.726C193.65 117.421 193.65 121.162 193.811 124.926C193.925 128.667 194.201 132.43 194.568 136.171C195.279 143.676 196.358 151.18 197.712 158.616C199.066 166.052 200.673 173.511 202.669 180.671L203.082 182.163L202.325 183.517C200.558 186.661 198.929 189.92 197.414 193.248C195.922 196.599 194.499 199.995 193.145 203.438C191.814 206.88 190.552 210.369 189.381 213.88C188.785 215.624 188.211 217.391 187.66 219.158L186.834 221.798L186.099 224.322L186.031 224.575C185.618 225.952 185.136 227.627 184.722 229.188L183.46 233.961L181.005 243.554L176.254 262.832C174.602 269.694 171.779 276.051 169.231 282.041C168.612 283.51 167.992 285.025 167.625 286.287C167.533 286.608 167.441 286.907 167.418 287.113C167.349 287.412 167.395 287.366 167.349 287.412C167.372 287.412 167.349 287.458 167.349 287.458C167.372 287.412 167.326 287.435 167.326 287.343C167.28 287.251 167.166 287.044 167.051 286.976C166.799 286.792 166.936 286.93 167.326 286.976C167.717 287.022 168.313 287.022 168.933 286.976C170.195 286.861 171.664 286.54 173.087 286.126C174.533 285.713 176.001 285.208 177.447 284.635L178.526 284.199L178.801 284.084C178.916 284.061 178.595 284.107 179.582 283.831C180.339 283.648 181.257 283.717 181.991 284.015C183.506 284.635 184.241 285.828 184.516 286.907C184.654 287.458 184.654 288.031 184.585 288.559C184.562 288.697 184.539 288.812 184.516 288.926L184.47 289.133L184.447 289.225C184.149 290.166 183.85 291.038 183.506 291.887C182.841 293.562 182.083 295.146 181.303 296.706C180.523 298.244 179.765 299.667 179.077 301.09C178.411 302.467 177.792 303.867 177.562 304.9C177.447 305.404 177.447 305.772 177.47 305.863C177.493 305.863 177.47 305.909 177.47 305.886C177.493 305.841 177.424 305.818 177.447 305.818C177.424 305.772 177.424 305.795 177.493 305.863C177.631 306.001 178.021 306.254 178.549 306.483C179.077 306.713 179.719 306.919 180.385 307.126C181.762 307.516 183.277 307.837 184.86 308.136C185.48 308.25 186.903 308.503 187.844 308.893C188.876 309.26 189.794 309.719 190.667 310.178C192.388 311.142 193.88 312.244 195.279 313.391C198.056 315.709 200.466 318.188 202.761 320.735C205.056 323.283 207.191 325.899 209.279 328.492L212.377 332.371C212.882 333.013 213.41 333.633 213.892 334.207C214.374 334.78 214.925 335.4 215.223 335.676L214.443 335.171C214.787 335.331 215.223 335.653 215.43 335.859L215.453 335.882L215.521 335.951L215.659 336.089L215.934 336.364L216.485 336.892L217.587 337.948C218.321 338.659 219.079 339.348 219.836 340.013C221.374 341.367 222.957 342.675 224.541 343.96C226.147 345.246 227.8 346.462 229.475 347.632C231.173 348.826 232.803 349.927 234.593 350.983C238.127 353.095 241.776 355.045 245.54 356.79C249.304 358.557 253.182 360.14 257.107 361.655C257.818 361.93 258.162 362.711 257.887 363.422C257.635 364.042 256.992 364.386 256.349 364.271C247.927 362.642 239.642 359.865 231.839 355.963C229.888 354.999 227.914 353.921 226.078 352.75C224.219 351.603 222.406 350.386 220.616 349.124C218.826 347.862 217.105 346.508 215.407 345.108C214.557 344.419 213.731 343.685 212.905 342.974L211.689 341.872L211.092 341.321L210.794 341.046L210.633 340.908L210.564 340.839L210.518 340.793C210.702 340.977 211.092 341.275 211.436 341.413L210.656 340.908C209.715 340.082 209.164 339.439 208.568 338.774C207.994 338.108 207.443 337.466 206.892 336.8L203.725 332.944C201.637 330.42 199.525 327.941 197.345 325.578C195.165 323.237 192.916 320.988 190.552 319.106C189.381 318.165 188.165 317.316 186.995 316.696C186.398 316.398 185.824 316.122 185.296 315.939C184.7 315.732 184.47 315.709 183.46 315.525C181.785 315.227 180.041 314.906 178.228 314.424C177.31 314.171 176.369 313.85 175.382 313.437C174.395 312.978 173.316 312.427 172.238 311.44C171.71 310.958 171.159 310.316 170.723 309.558C170.493 309.191 170.333 308.755 170.172 308.342C170.034 307.929 169.943 307.562 169.874 307.149C169.621 305.588 169.805 304.28 170.057 303.178C170.585 300.975 171.389 299.346 172.146 297.739C172.903 296.156 173.706 294.664 174.418 293.264C175.129 291.864 175.772 290.441 176.346 289.041C176.621 288.353 176.874 287.641 177.08 287.022L177.103 286.953C177.103 286.907 177.103 286.93 177.08 287.067C177.057 287.159 177.034 287.274 177.011 287.366C176.942 287.779 176.965 288.238 177.057 288.697C177.287 289.592 177.883 290.602 179.192 291.13C179.834 291.382 180.637 291.451 181.303 291.29C182.198 291.015 181.785 291.13 181.808 291.13L181.509 291.267L180.27 291.772C178.618 292.415 176.965 292.989 175.221 293.493C173.477 293.975 171.687 294.411 169.644 294.618C168.635 294.71 167.556 294.756 166.294 294.572C165.077 294.388 163.517 294.044 162.025 292.759C161.291 292.116 160.671 291.267 160.304 290.372C160.097 289.913 160.005 289.523 159.891 289.087C159.799 288.674 159.776 288.307 159.73 287.894C159.707 287.113 159.776 286.241 159.914 285.736C160.028 285.117 160.166 284.635 160.304 284.153C160.877 282.248 161.566 280.687 162.209 279.104C164.871 272.93 167.464 267.101 168.933 261.065L173.775 241.741L176.277 232.079L177.585 227.237C178.044 225.584 178.457 224.07 179.008 222.28L178.939 222.532L179.788 219.663L180.637 216.932C181.211 215.119 181.808 213.306 182.405 211.516C183.621 207.913 184.906 204.333 186.283 200.798C189.037 193.707 192.112 186.684 195.922 179.891L195.578 182.737C193.443 175.14 191.837 167.613 190.437 159.97C189.06 152.351 187.935 144.663 187.201 136.906C186.834 133.027 186.558 129.126 186.421 125.224C186.26 121.323 186.26 117.375 186.467 113.428C186.627 109.48 187.017 105.51 187.729 101.54C188.44 97.5693 189.45 93.576 191.126 89.6974C192.778 85.8418 195.188 81.9862 198.768 79.0486L200.122 77.97C200.627 77.6028 201.315 77.2585 201.935 76.9372C203.197 76.3864 204.505 76.0192 205.745 75.8815C208.223 75.6061 210.518 75.8127 212.63 76.2487C216.875 77.0979 220.639 78.6355 224.288 80.2879C227.914 81.9633 231.38 83.8452 234.776 85.8418C241.524 89.8122 247.95 94.1956 254.215 98.7397C260.48 103.307 266.585 108.034 272.552 112.969L268.605 112.51C280.149 106.933 292.381 103.215 304.866 100.943C311.108 99.8184 317.442 99.084 323.822 98.8545C330.225 98.625 336.537 98.8545 342.871 99.52L342.412 99.4971C342.596 99.4971 342.779 99.4971 342.94 99.52L343.33 99.5659L343.72 99.6118L344.477 99.7036L345.992 99.8872L349.136 100.346C351.225 100.69 353.29 101.104 355.356 101.563C359.464 102.504 363.503 103.674 367.45 105.028C371.398 106.382 375.276 107.874 379.086 109.457C380.991 110.261 382.873 111.041 384.778 111.89L390.423 114.621L393.246 115.998C394.164 116.503 395.059 117.031 395.954 117.559L401.37 120.726C403.138 121.85 404.836 123.067 406.58 124.214L409.173 125.981C410.046 126.578 410.826 127.244 411.652 127.886L416.586 131.742C418.17 133.096 419.73 134.473 421.291 135.85C422.071 136.538 422.875 137.204 423.632 137.915L425.858 140.096C427.327 141.564 428.865 142.964 430.265 144.502C436.048 150.492 441.28 156.941 446.169 163.665C450.988 170.436 455.532 177.389 459.09 185.055C466.158 199.903 472.217 215.486 474.856 232.171L468.66 233.089L468.614 232.791L474.81 231.758C476.302 240.938 477.496 250.003 478.689 259.137L480.364 272.815L481.168 279.655C481.305 280.825 481.443 281.858 481.604 282.936C481.787 284.015 481.971 285.094 482.2 286.172C483.095 290.51 484.381 294.802 485.643 299.277C485.964 300.401 486.262 301.549 486.561 302.742C486.813 303.982 487.112 305.152 487.135 306.85C487.089 307.86 486.974 308.755 486.469 309.765C485.987 310.775 485.092 311.762 484.082 312.289C483.095 312.84 482.086 313.07 481.259 313.116C480.41 313.185 479.63 313.162 478.919 313.047C476.073 312.657 473.778 311.739 471.529 310.752C470.404 310.247 469.325 309.719 468.27 309.168L466.686 308.296L465.975 307.883C466.503 308.204 467.398 308.319 468.086 308.067C468.752 307.837 469.211 307.424 469.486 306.988C469.761 306.552 469.899 306.07 469.899 305.634C469.899 305.519 469.899 305.427 469.876 305.313C469.853 305.152 469.853 305.198 469.853 305.221L469.876 305.313C470.22 307.263 470.863 309.398 471.575 311.463C472.309 313.529 473.158 315.709 473.892 318.05C474.26 319.243 474.604 320.483 474.765 321.928C474.902 323.351 474.971 325.141 473.938 327.023C473.41 327.987 472.607 328.768 471.827 329.25C471.024 329.777 470.243 330.076 469.486 330.305C467.994 330.718 466.617 330.833 465.286 330.833C463.955 330.833 462.693 330.741 461.454 330.581C460.834 330.489 460.214 330.397 459.618 330.282C459.273 330.213 459.136 330.213 458.906 330.19L458.286 330.099C456.611 330.007 454.844 330.489 453.169 331.361C451.493 332.233 449.887 333.518 448.51 334.987C448.166 335.354 447.821 335.744 447.546 336.089L447.27 336.433C447.133 336.616 447.041 336.708 446.926 336.846L446.284 337.557C445.434 338.452 444.608 339.279 443.759 340.105L442.497 341.321L441.074 342.538C440.156 343.295 439.284 344.075 438.343 344.787C436.507 346.255 434.579 347.633 432.651 348.987C424.848 354.311 416.38 358.511 407.659 361.816C403.298 363.491 398.846 364.891 394.394 366.176C389.941 367.461 385.42 368.517 380.922 369.527C379.706 369.802 378.512 369.045 378.237 367.828C377.961 366.658 378.696 365.488 379.843 365.166L379.866 365.258Z" fill="#390075"/>
<path d="M366.624 303.798C366.211 308.64 365.132 313.047 363.572 316.696C360.886 322.984 356.824 327 352.326 326.909C347.828 326.817 343.926 322.64 341.517 316.214C340.117 312.519 339.222 308.044 339.015 303.201L366.624 303.798Z" fill="#F7528A"/>
<path d="M351.385 317.017L350.72 293.172C350.674 291.91 351.684 290.831 352.969 290.808C354.231 290.762 355.31 291.772 355.333 293.057C355.333 293.126 355.333 293.218 355.333 293.287L353.726 317.086C353.68 317.728 353.13 318.21 352.487 318.165C351.867 318.096 351.385 317.614 351.385 317.017Z" fill="#390075"/>
<path d="M352.533 329.227C352.441 329.227 352.372 329.227 352.28 329.227C347.782 329.135 343.674 326.656 340.69 322.227C337.868 318.05 336.399 312.588 336.514 306.827C336.537 305.565 337.592 304.51 338.854 304.578C340.117 304.601 341.127 305.657 341.104 306.919C341.012 311.716 342.205 316.237 344.5 319.634C346.612 322.778 349.411 324.545 352.349 324.614C358.798 324.728 364.122 317.017 364.329 307.401C364.352 306.139 365.431 305.083 366.67 305.152C367.932 305.175 368.942 306.231 368.919 307.493C368.712 319.542 361.368 329.227 352.533 329.227Z" fill="#390075"/>
<g opacity="0.3">
<path d="M379.201 299.139C378.237 307.011 372.797 316.466 363.388 315.319C355.195 314.332 352.716 308.204 352.716 308.204H352.556C352.556 308.204 349.825 314.08 341.585 314.86C332.91 315.686 327.104 306.162 326.484 298.244" fill="#390075"/>
</g>
<path d="M376.745 297.854C375.781 305.725 370.709 309.512 363.526 308.548C355.332 307.447 353.359 300.906 352.9 298.473H352.739C352.188 300.883 349.939 307.332 341.723 308.089C334.517 308.755 329.583 304.761 328.963 296.844" fill="white"/>
<path d="M365.66 309.03C364.949 309.03 364.237 308.984 363.48 308.87C356.09 307.86 353.611 302.604 352.808 299.552C351.867 302.581 349.182 307.722 341.746 308.434C338.12 308.778 334.999 307.929 332.727 306.024C330.34 304.027 328.917 300.86 328.619 296.89C328.596 296.706 328.733 296.545 328.94 296.523C329.124 296.5 329.284 296.637 329.307 296.844C329.606 300.631 330.937 303.637 333.186 305.519C335.32 307.309 338.258 308.089 341.7 307.768C349.595 307.034 351.844 300.975 352.418 298.404C352.464 298.244 352.578 298.129 352.762 298.152H352.923C353.083 298.152 353.221 298.267 353.244 298.427C353.726 301.021 355.7 307.148 363.572 308.227C366.991 308.686 369.975 308.043 372.178 306.345C374.496 304.555 375.965 301.617 376.401 297.831C376.424 297.647 376.607 297.509 376.768 297.532C376.951 297.555 377.089 297.716 377.066 297.9C376.584 301.87 375.024 304.968 372.568 306.873C370.732 308.296 368.368 309.03 365.66 309.03Z" fill="#390075"/>
<g opacity="0.3">
<path d="M376.745 297.854C375.781 305.726 370.709 309.536 363.526 308.549C355.332 307.447 353.359 300.906 352.9 298.474H352.739C352.188 300.883 349.939 307.309 341.723 308.09C334.517 308.778 329.583 304.762 328.963 296.867L331.074 296.913C333.255 300.379 337.041 302.031 341.838 301.572C345.992 301.182 348.631 299.346 350.283 297.326L355.401 297.441C356.962 299.529 359.509 301.48 363.663 302.054C368.46 302.719 372.292 301.228 374.633 297.854H376.745Z" fill="#390075"/>
</g>
<path d="M365.66 311.004C364.857 311.004 364.053 310.958 363.204 310.844C357.604 310.086 354.46 307.126 352.693 304.257C350.811 307.057 347.552 309.88 341.93 310.408C337.776 310.798 334.15 309.811 331.464 307.539C328.664 305.198 327.012 301.572 326.645 297.051C326.553 295.788 327.494 294.664 328.756 294.572C330.018 294.48 331.143 295.421 331.235 296.684C331.487 299.942 332.589 302.467 334.425 304.005C336.146 305.45 338.579 306.07 341.493 305.795C347.874 305.198 349.87 300.631 350.49 297.946C350.742 296.89 351.683 296.11 352.785 296.156H352.946C354.047 296.179 354.965 296.959 355.172 298.038C355.677 300.723 357.467 305.382 363.824 306.254C366.716 306.644 369.171 306.116 370.961 304.762C372.843 303.293 374.06 300.815 374.45 297.579C374.61 296.316 375.758 295.421 377.02 295.559C378.282 295.72 379.177 296.867 379.04 298.129C378.489 302.628 376.676 306.185 373.807 308.411C371.581 310.132 368.804 311.004 365.66 311.004Z" fill="#390075"/>
<path d="M367.772 284.635C367.68 289.408 360.726 295.651 352.303 295.49C343.903 295.306 337.202 288.766 337.317 284.015C337.409 279.241 344.248 278.989 352.647 279.15C361.07 279.333 367.886 279.861 367.772 284.635Z" fill="#390075"/>
<path d="M359.165 283.097C359.142 284.153 356.159 285.484 352.51 285.415C348.861 285.346 345.923 283.878 345.946 282.822C345.969 281.766 348.929 281.743 352.579 281.835C356.228 281.904 359.188 282.042 359.165 283.097Z" fill="white"/>
<path d="M352.808 285.713C352.716 285.713 352.601 285.713 352.51 285.713C348.952 285.645 345.625 284.222 345.648 282.822C345.671 281.491 348.425 281.445 352.601 281.514C354.598 281.559 356.159 281.628 357.306 281.789C358.247 281.927 359.509 282.225 359.486 283.097C359.463 283.763 358.683 284.428 357.329 284.956C355.998 285.438 354.415 285.713 352.808 285.713ZM350.628 282.11C348.585 282.11 346.29 282.225 346.267 282.822C346.244 283.556 348.884 285.025 352.533 285.094C354.185 285.14 355.792 284.864 357.1 284.382C358.316 283.923 358.867 283.395 358.867 283.097C358.867 282.959 358.706 282.638 357.214 282.409C356.09 282.248 354.552 282.179 352.579 282.133C352.028 282.11 351.339 282.11 350.628 282.11Z" fill="#390075"/>
<path d="M426.661 384.789C425.284 384.789 423.953 384.008 423.334 382.677C422.462 380.841 423.265 378.661 425.078 377.789C454.431 363.95 466.296 349.423 466.296 345.705C466.296 343.685 467.949 342.033 469.968 342.033C471.988 342.033 473.64 343.685 473.64 345.705C473.64 355.734 454.546 372.028 428.222 384.421C427.717 384.674 427.189 384.789 426.661 384.789Z" fill="#390075"/>
<path d="M198.837 383.595C198.286 383.595 197.735 383.48 197.23 383.228C172.376 371.064 154.36 355.298 154.36 345.705C154.36 343.685 156.012 342.033 158.032 342.033C160.051 342.033 161.704 343.685 161.704 345.705C161.704 349.744 173.408 363.376 200.466 376.618C202.279 377.513 203.037 379.717 202.142 381.53C201.499 382.838 200.191 383.595 198.837 383.595Z" fill="#390075"/>
<g opacity="0.3">
<path d="M377.571 398.605C378.352 398.077 379.132 397.641 379.912 397.296L377.571 398.605Z" fill="#6B184E"/>
<path d="M377.847 399.109L377.25 398.123C378.099 397.549 378.879 397.113 379.66 396.769L380.188 397.801L377.847 399.109Z" fill="#390075"/>
</g>
<g opacity="0.3">
<path d="M415.324 418.112C410 414.417 404.767 408.014 399.282 403.057C393.315 397.687 387.05 393.992 379.958 397.273C380.142 396.401 380.325 395.621 380.578 394.91C414.154 387.52 434.877 377.376 447.706 368.586C451.287 370.238 454.614 372.373 457.575 374.943C462.027 378.776 465.653 383.618 467.994 389.448C468.109 389.769 468.247 390.067 468.361 390.366C478.414 416.276 439.949 435.164 415.324 418.112Z" fill="#6B184E"/>
<path d="M436.576 425.181C429.278 425.181 421.704 423.23 415.003 418.594C411.652 416.276 408.439 412.994 405.042 409.529C403.046 407.486 400.98 405.375 398.892 403.493C393.705 398.811 387.417 394.474 380.188 397.801L379.155 398.283L379.384 397.182C379.568 396.264 379.774 395.46 380.027 394.749L380.142 394.451L380.463 394.382C408.508 388.208 431.022 379.372 447.385 368.15L447.661 367.966L447.959 368.104C451.654 369.825 455.005 371.983 457.965 374.553C462.67 378.615 466.227 383.572 468.522 389.264L468.889 390.205C472.814 400.28 469.876 410.148 460.834 417.286C454.752 422.014 445.87 425.181 436.576 425.181ZM415.645 417.653C430.448 427.889 449.588 424.63 460.077 416.345C468.683 409.552 471.506 400.165 467.788 390.572L467.421 389.631C465.194 384.123 461.752 379.304 457.162 375.356C454.362 372.946 451.195 370.881 447.729 369.229C431.343 380.428 408.875 389.218 380.991 395.392C380.899 395.69 380.807 395.988 380.738 396.31C388.197 393.533 394.738 398.169 399.649 402.621C401.761 404.526 403.826 406.637 405.846 408.703C409.219 412.145 412.386 415.381 415.645 417.653Z" fill="#390075"/>
</g>
<path d="M390.882 394.29C403.895 384.375 410.091 400.808 420.396 408.932C441.992 425.984 475.751 407.119 466.916 381.185C466.801 380.864 466.709 380.566 466.594 380.267C455.808 349.744 414.039 345.728 397.974 373.841C394.807 379.372 392.282 386.12 390.882 394.29Z" fill="white"/>
<path d="M439.031 416C432.674 416 425.996 414.096 420.029 409.391C417.137 407.119 414.59 404.227 412.134 401.427C405.731 394.175 400.2 387.887 391.204 394.749L390.033 395.644L390.286 394.198C391.594 386.533 394.027 379.579 397.446 373.543C404.928 360.415 418.973 353.094 434.074 354.448C449.336 355.825 461.981 365.625 467.099 380.061L467.421 381.002C471.184 392.064 467.444 403.263 457.644 410.194C452.778 413.637 446.1 416 439.031 416ZM398.594 390.595C404.125 390.595 408.485 395.529 413.006 400.647C415.439 403.401 417.94 406.247 420.74 408.473C432.858 418.043 448.051 415.564 457.001 409.23C466.503 402.506 470.014 392.086 466.342 381.346L466.021 380.428C461.063 366.428 448.785 356.904 433.982 355.573C419.317 354.242 405.708 361.356 398.456 374.094C395.289 379.625 393.017 385.982 391.686 392.982C394.21 391.306 396.505 390.595 398.594 390.595Z" fill="#390075"/>
<g opacity="0.3">
<path d="M468.27 391.628C466.48 411.709 438.963 423.574 420.396 408.932C410.069 400.785 403.872 384.375 390.882 394.29C392.168 386.808 394.394 380.52 397.194 375.264C396.597 377.421 396.092 379.694 395.679 382.103C408.692 372.189 414.888 388.621 425.193 396.745C439.536 408.06 459.227 403.539 468.27 391.628Z" fill="#6B184E"/>
<path d="M439.261 416.001C432.353 416.001 425.583 413.751 420.052 409.368C417.16 407.096 414.613 404.204 412.157 401.404C405.754 394.152 400.223 387.864 391.25 394.726L390.079 395.621L390.332 394.175C391.548 387.107 393.682 380.658 396.712 374.966L399.167 370.353L397.767 375.402C397.285 377.146 396.872 378.959 396.505 380.795C405.685 374.691 411.583 381.392 417.826 388.461C420.258 391.215 422.76 394.06 425.56 396.287C431.894 401.29 439.812 403.47 447.844 402.437C455.808 401.427 463.267 397.25 467.811 391.283L469.027 389.7L468.843 391.697C468.017 400.945 461.545 409.253 451.975 413.384C447.844 415.151 443.53 416.001 439.261 416.001ZM398.594 390.595C404.125 390.595 408.485 395.529 413.006 400.647C415.439 403.401 417.94 406.247 420.74 408.473C429.392 415.289 441.166 416.758 451.493 412.306C460.008 408.634 465.952 401.565 467.421 393.556C462.624 398.972 455.67 402.575 447.982 403.562C439.605 404.617 431.389 402.345 424.825 397.182C421.934 394.91 419.386 392.018 416.931 389.218C410.528 381.943 404.997 375.677 396 382.54L394.83 383.435L395.082 381.989C395.174 381.484 395.266 380.956 395.358 380.451C393.751 384.353 392.512 388.529 391.663 392.982C394.233 391.306 396.505 390.595 398.594 390.595Z" fill="#390075"/>
</g>
<path d="M439.307 419.099C431.756 419.099 424.252 416.666 418.101 411.824C415.003 409.368 412.364 406.385 409.793 403.47C402.38 395.047 399.236 392.523 393.086 397.205L385.65 402.873L387.233 393.67C388.61 385.638 391.158 378.363 394.761 372.006C402.862 357.8 418.032 349.905 434.373 351.374C450.851 352.842 464.529 363.445 470.037 379.028L470.381 379.992C474.627 392.408 470.427 404.962 459.457 412.719C453.444 416.965 446.376 419.099 439.307 419.099ZM398.571 387.451C405.502 387.451 410.803 393.464 415.324 398.605C417.665 401.267 420.075 403.998 422.668 406.04C433.547 414.624 447.179 412.398 455.234 406.706C463.565 400.808 466.64 391.72 463.45 382.356L463.152 381.461C458.608 368.632 447.34 359.888 433.753 358.672C420.327 357.455 407.843 363.973 401.187 375.632C399.099 379.281 397.423 383.32 396.161 387.68C396.987 387.543 397.79 387.451 398.571 387.451Z" fill="#390075"/>
<g opacity="0.3">
<path d="M281.663 440.833C252.654 440.833 241.96 417.837 238.334 405.398C236.957 400.762 236.589 397.595 236.589 397.595C236.589 397.595 237.002 397.044 237.806 396.126C259.172 402.093 282.994 405.398 306.334 404.273C307.138 407.119 307.643 410.08 307.872 413.086C307.918 413.568 307.941 414.05 307.964 414.532C308.836 432.616 290.866 440.833 281.663 440.833Z" fill="#6B184E"/>
<path d="M281.663 441.406C252.608 441.406 241.684 418.938 237.783 405.558C236.429 400.923 236.016 397.778 236.016 397.664L235.993 397.434L236.13 397.251C236.13 397.251 236.543 396.677 237.37 395.759L237.599 395.483L237.943 395.575C260.756 401.955 284.394 404.755 306.289 403.7L306.748 403.677L306.862 404.113C307.666 406.935 308.193 409.919 308.423 413.04C308.469 413.522 308.492 414.004 308.515 414.509C308.836 421.233 306.564 427.361 301.974 432.18C295.938 438.515 287.217 441.406 281.663 441.406ZM237.186 397.755C237.301 398.559 237.76 401.404 238.884 405.237C242.717 418.319 253.366 440.259 281.663 440.259C286.965 440.259 295.341 437.482 301.148 431.377C305.6 426.695 307.688 421.05 307.39 414.555C307.367 414.073 307.344 413.614 307.298 413.109C307.069 410.24 306.61 407.463 305.898 404.847C284.119 405.834 260.641 403.034 237.989 396.746C237.599 397.228 237.324 397.549 237.186 397.755Z" fill="#390075"/>
</g>
<path d="M245.861 396.539C245.861 396.539 260.205 378.661 281.572 379.235C306.174 379.9 316.387 395.782 317.259 412.443C318.131 429.426 300.161 437.138 290.958 437.138C251.14 437.16 245.861 396.539 245.861 396.539Z" fill="white"/>
<path d="M290.935 437.734C251.094 437.734 245.333 397.044 245.288 396.631L245.265 396.378L245.425 396.195C245.563 396.011 260.228 378.133 281.595 378.684C303.236 379.281 316.777 391.88 317.833 412.42C318.154 418.548 316.134 423.941 311.843 428.462C306.036 434.544 296.948 437.734 290.935 437.734ZM246.458 396.723C246.986 400.073 253.71 436.587 290.935 436.587C296.696 436.587 305.44 433.534 310.993 427.682C315.056 423.413 316.96 418.296 316.662 412.489C315.652 392.615 302.502 380.405 281.549 379.831C261.88 379.258 248.087 394.818 246.458 396.723Z" fill="#390075"/>
<g opacity="0.3">
<path d="M317.259 413.155C317.626 429.633 300.023 437.16 290.958 437.16C251.14 437.16 245.838 396.539 245.838 396.539C245.838 396.539 248.478 393.257 253.159 389.562C256.877 401.312 267.595 422.61 296.443 422.61C302.204 422.61 311.384 419.581 317.259 413.155Z" fill="#6B184E"/>
<path d="M290.935 437.734C251.094 437.734 245.333 397.044 245.265 396.631L245.242 396.378L245.402 396.195C245.517 396.057 248.133 392.821 252.815 389.126L253.458 388.598L253.71 389.401C257.566 401.588 268.261 422.059 296.443 422.059C302.387 422.059 311.292 418.869 316.823 412.787L317.787 411.732L317.81 413.178C317.947 419.145 315.836 424.377 311.544 428.761C305.508 434.911 296.627 437.734 290.935 437.734ZM246.458 396.722C246.986 400.073 253.71 436.587 290.935 436.587C296.558 436.587 305.187 433.603 310.741 427.934C314.459 424.148 316.433 419.65 316.662 414.601C310.856 420.246 302.272 423.207 296.443 423.207C268.146 423.207 257.038 403.125 252.884 390.549C249.304 393.441 247.055 396.011 246.458 396.722Z" fill="#390075"/>
</g>
<path d="M290.935 440.832C248.409 440.832 242.258 397.48 242.212 397.044L242.006 395.483L242.993 394.267C243.635 393.487 258.759 374.989 281.663 375.608C309.249 376.366 320.013 395.047 320.908 412.283C321.252 419.191 318.911 425.525 314.092 430.62C307.39 437.619 297.407 440.832 290.935 440.832ZM249.763 397.663C251.186 404.893 258.782 433.465 290.935 433.465C295.915 433.465 303.833 430.688 308.744 425.525C312.187 421.899 313.816 417.561 313.564 412.627C313.22 405.857 309.869 383.687 281.457 382.907C265.323 382.448 253.274 393.9 249.763 397.663Z" fill="#390075"/>
<path d="M462.073 409.184C461.958 409.184 461.844 409.184 461.729 409.161C459.709 408.978 458.218 407.188 458.401 405.168C459.067 397.87 455.142 392.523 455.096 392.454C453.88 390.824 454.201 388.529 455.831 387.313C457.437 386.097 459.732 386.395 460.949 388.001C461.178 388.3 466.64 395.598 465.699 405.811C465.562 407.761 463.955 409.184 462.073 409.184Z" fill="#390075"/>
<path d="M443.828 418.777C443.507 418.777 443.186 418.731 442.841 418.64C440.891 418.089 439.743 416.069 440.271 414.119C442.382 406.43 438.16 400.257 437.976 400.004C436.829 398.352 437.219 396.057 438.848 394.886C440.501 393.716 442.773 394.083 443.943 395.736C444.218 396.103 450.415 404.916 447.317 416.069C446.927 417.722 445.435 418.777 443.828 418.777Z" fill="#390075"/>
<path d="M305.027 436.679C304.82 436.679 304.59 436.656 304.361 436.61C302.364 436.243 301.033 434.338 301.4 432.341C303.007 423.459 299.932 416.322 299.909 416.253C299.082 414.394 299.932 412.237 301.791 411.411C303.65 410.584 305.807 411.434 306.633 413.293C306.794 413.66 310.649 422.587 308.63 433.649C308.308 435.439 306.748 436.679 305.027 436.679Z" fill="#390075"/>
<path d="M280.263 439.754C279.735 439.754 279.208 439.639 278.703 439.41C276.867 438.537 276.086 436.357 276.936 434.521C280.309 427.361 277.67 417.997 277.647 417.905C277.073 415.955 278.175 413.912 280.126 413.338C282.076 412.765 284.119 413.866 284.693 415.817C284.83 416.299 288.181 427.889 283.591 437.665C282.971 438.973 281.64 439.754 280.263 439.754Z" fill="#390075"/>
</svg>
