<svg width="638" height="611" viewBox="0 0 638 611" fill="none" xmlns="http://www.w3.org/2000/svg">
<ellipse cx="325" cy="299.5" rx="313" ry="299.5" fill="#B0A2D7"/>
<g clip-path="url(#clip0_246_7843)">
<path d="M307.81 490.498C315.053 510.856 337.281 529.879 385.417 529.879C392.68 529.879 398.77 539.899 405.456 547.289C425.077 569.001 449.812 572.109 459.642 562.587C469.691 552.846 473.611 540.118 461.95 520.378C455.861 510.079 450.906 493.208 439.842 484.403C429.395 476.097 417.236 475.658 414.928 470.878C412.639 466.117 419.385 424.904 400.441 392.574" fill="#8C8CAA"/>
<path d="M459.642 562.587C449.812 572.109 425.077 569.001 405.456 547.289C402.73 544.281 400.103 540.815 397.456 537.787C393.616 533.385 389.715 529.859 385.417 529.859C337.281 529.859 315.033 510.836 307.81 490.479L400.441 392.574C419.385 424.904 412.639 466.117 414.928 470.878C417.157 475.499 428.678 476.057 438.927 483.686C439.245 483.905 439.543 484.144 439.842 484.383C450.906 493.188 455.861 510.059 461.93 520.358C473.611 540.098 469.691 552.827 459.642 562.587Z" fill="#8C8CAA"/>
<path d="M459.642 562.587C449.812 572.109 425.097 569.001 405.456 547.289C402.73 544.281 400.103 540.815 397.456 537.787C397.018 537.289 396.581 536.791 396.123 536.313C392.7 532.628 389.218 529.879 385.417 529.879C349.499 529.879 328.007 519.282 316.406 505.458C312.446 500.757 309.64 495.658 307.81 490.499L400.441 392.594C419.385 424.924 412.639 466.137 414.928 470.898C417.157 475.519 428.698 476.077 438.927 483.706C439.225 483.925 439.543 484.164 439.842 484.403C450.906 493.208 455.861 510.079 461.93 520.378C473.611 540.118 469.691 552.827 459.642 562.587Z" fill="#8C8CAA"/>
<path d="M396.123 536.313C392.7 532.628 389.218 529.879 385.417 529.879C349.499 529.879 328.007 519.282 316.406 505.458C314.456 499.143 313.52 492.55 318.376 493.148C327.51 494.303 340.106 515.577 368.701 516.912C391.665 517.987 391.765 499.382 404.182 498.307C415.047 497.351 423.942 528.266 396.123 536.313Z" fill="#8C8CAA"/>
<path d="M459.642 562.587C449.811 572.109 425.076 569.001 405.456 547.289C402.729 544.281 400.103 540.815 397.456 537.787C410.649 536.453 436.897 528.146 438.926 483.706C439.245 483.925 439.543 484.164 439.842 484.403C450.906 493.208 455.861 510.079 461.93 520.378C473.611 540.098 469.691 552.827 459.642 562.587Z" fill="white"/>
<path d="M450.329 560.277C443.981 564.201 435.444 561.293 424.878 554.898C416.102 549.58 416.619 546.711 426.947 540.457C437.016 534.361 435.504 528.485 440.339 530.537C446.13 532.967 462.269 552.906 450.329 560.277Z" fill="#EDEDED"/>
<path d="M307.81 490.498C312.148 497.351 317.103 503.107 322.893 507.868C328.644 512.669 335.231 516.374 342.275 519.123C349.32 521.852 356.742 523.824 364.344 525.019C368.144 525.617 371.985 526.055 375.846 526.274C377.776 526.413 379.706 526.473 381.656 526.553L384.561 526.613L385.298 526.632L386.273 526.672C386.969 526.732 387.646 526.852 388.303 527.011C390.909 527.708 392.959 529.083 394.71 530.477C396.461 531.911 397.914 533.445 399.307 534.979C402.053 538.066 404.461 541.214 406.968 544.102C411.963 549.819 417.793 554.799 424.32 558.464C427.584 560.296 431.007 561.79 434.549 562.846C438.071 563.882 441.713 564.499 445.274 564.44C448.817 564.4 452.299 563.663 455.065 562.009C455.761 561.611 456.398 561.153 456.975 560.635L457.393 560.237L457.871 559.759C458.209 559.44 458.508 559.101 458.826 558.782C460.08 557.448 461.194 556.054 462.149 554.56C464.079 551.611 465.313 548.345 465.711 544.919C466.109 541.492 465.671 537.927 464.676 534.421C463.701 530.915 462.149 527.489 460.358 524.182C459.901 523.326 459.443 522.569 458.925 521.672C458.388 520.756 457.911 519.86 457.433 518.944C456.478 517.131 455.602 515.298 454.747 513.505C451.364 506.315 448.18 499.183 443.742 493.227C442.648 491.753 441.454 490.359 440.18 489.084C438.907 487.809 437.554 486.694 436.061 485.658C433.076 483.586 429.753 481.953 426.211 480.539C424.44 479.822 422.609 479.164 420.699 478.427C419.744 478.049 418.769 477.67 417.754 477.192C416.739 476.714 415.704 476.196 414.61 475.36C414.072 474.961 413.495 474.443 412.978 473.826C412.719 473.487 412.46 473.169 412.242 472.77L412.082 472.471L412.003 472.332L411.923 472.133L411.764 471.714L411.664 471.376C411.426 470.519 411.386 469.942 411.306 469.344C411.247 468.746 411.227 468.228 411.187 467.691C411.107 465.579 411.107 463.587 411.127 461.595C411.167 453.687 411.087 445.899 410.391 438.15C409.694 430.421 408.441 422.772 406.411 415.362C404.361 407.952 401.516 400.821 397.675 394.247C396.78 392.694 397.297 390.702 398.829 389.805C400.382 388.909 402.371 389.427 403.267 390.961C407.426 398.072 410.49 405.761 412.659 413.629C414.828 421.497 416.142 429.545 416.858 437.572C417.594 445.6 417.674 453.687 417.634 461.615C417.634 463.587 417.614 465.559 417.694 467.392C417.714 467.85 417.734 468.288 417.774 468.687C417.813 469.065 417.873 469.483 417.913 469.583C417.853 469.463 417.913 469.583 418.012 469.703C418.132 469.842 418.291 470.001 418.55 470.181C419.027 470.559 419.744 470.938 420.54 471.296C421.316 471.655 422.191 472.013 423.087 472.352C424.878 473.049 426.768 473.726 428.659 474.483C432.459 475.997 436.3 477.85 439.822 480.3C441.573 481.515 443.285 482.929 444.817 484.443C446.349 485.977 447.742 487.61 448.996 489.283C454.03 496.076 457.294 503.586 460.657 510.677C461.493 512.45 462.348 514.203 463.224 515.896C463.662 516.732 464.119 517.569 464.577 518.366C465.054 519.183 465.612 520.119 466.089 521.015C468.059 524.64 469.81 528.485 470.965 532.608C472.119 536.712 472.696 541.154 472.198 545.616C471.701 550.058 470.049 554.4 467.641 558.065C466.447 559.918 465.094 561.611 463.622 563.165C463.264 563.543 462.885 563.942 462.507 564.32L461.95 564.878C461.731 565.077 461.512 565.296 461.293 565.495C460.378 566.292 459.403 566.989 458.388 567.587C454.289 569.977 449.752 570.834 445.414 570.894C441.056 570.953 436.797 570.236 432.738 569.041C428.678 567.846 424.818 566.133 421.176 564.101C413.893 559.998 407.525 554.54 402.113 548.345C399.426 545.257 397.019 542.11 394.491 539.281C393.238 537.887 391.944 536.552 390.631 535.477C389.317 534.401 387.944 533.584 386.711 533.266C386.412 533.186 386.114 533.146 385.815 533.106H385.596C385.517 533.106 385.457 533.086 385.318 533.106H384.561L381.537 533.086C379.527 533.047 377.497 533.007 375.487 532.887C371.448 532.708 367.408 532.29 363.389 531.792C355.349 530.736 347.27 528.963 339.609 525.836C331.967 522.708 324.684 518.286 318.814 512.29C312.963 506.295 308.765 498.586 307.81 490.498Z" fill="#000072"/>
<path d="M440.976 542.189C444.518 545.875 448.657 548.942 453.095 551.014C455.304 552.03 457.632 552.767 459.761 552.906C460.816 552.966 461.831 552.886 462.567 552.587C463.323 552.309 463.761 551.87 464.079 551.392L468.776 555.874C468.039 556.531 467.203 557.089 466.308 557.468C465.412 557.846 464.497 558.085 463.622 558.165C461.85 558.364 460.278 558.085 458.826 557.687C455.94 556.83 453.572 555.396 451.423 553.803C447.145 550.536 443.682 546.532 440.976 542.189Z" fill="#000072"/>
<path d="M427.882 550.795C429.434 553.086 431.206 555.177 433.195 557.03C435.165 558.882 437.335 560.476 439.643 561.651C441.951 562.826 444.379 563.583 446.787 563.763C449.195 563.942 451.523 563.563 453.712 562.747L455.324 569.041C452.16 569.539 448.876 569.4 445.891 568.543C442.886 567.687 440.18 566.193 437.892 564.38C435.583 562.547 433.653 560.396 432.001 558.105C430.33 555.815 428.957 553.345 427.882 550.795Z" fill="#000072"/>
<path d="M210.024 478.866C210.024 478.866 179.339 521.573 127.979 549.281C103.761 562.348 67.6239 568.244 63.9226 546.094C58.0125 510.558 128.755 505.976 165.987 431.776" fill="#8C8CAA"/>
<path d="M210.024 478.866C210.024 478.866 179.339 521.573 127.979 549.281C126.765 549.938 125.511 550.576 124.237 551.193C100.199 562.866 67.4247 567.149 63.9224 546.094C61.5942 532.091 71.1658 522.888 85.9112 512.35C108.577 496.136 143.42 476.734 165.986 431.796L210.024 478.866Z" fill="#8C8CAA"/>
<path d="M210.024 478.866C210.024 478.866 179.339 521.573 127.979 549.281C126.765 549.938 125.511 550.576 124.238 551.193C100.199 562.866 67.4251 567.149 63.9228 546.094C63.8034 545.357 63.7039 544.62 63.6641 543.903C62.6294 531.115 71.9622 522.33 85.9116 512.35C100.398 501.992 119.88 490.319 137.929 471.495C148.117 460.878 157.848 447.99 165.987 431.796L210.024 478.866Z" fill="#8C8CAA"/>
<path d="M210.024 478.866C210.024 478.866 179.339 521.573 127.979 549.281C126.765 549.938 125.511 550.576 124.238 551.193C100.199 562.866 67.425 567.149 63.9228 546.094C63.8034 545.357 63.7039 544.62 63.6641 543.903C68.8379 548.126 77.3548 551.711 91.1252 550.337C127.601 546.692 161.728 515.338 163.758 502.809C165.131 494.323 154.803 474.702 137.948 471.495C148.137 460.878 157.868 447.99 166.007 431.796L210.024 478.866Z" fill="#8C8CAA"/>
<path d="M124.238 551.173C100.199 562.846 67.425 567.129 63.9228 546.074C63.8034 545.337 63.7039 544.6 63.6641 543.883C68.8379 548.106 77.3548 551.691 91.1252 550.317C103.125 549.122 114.885 544.918 125.312 539.381C125.969 543.564 125.452 547.548 124.238 551.173Z" fill="#EDEDED"/>
<path d="M124.237 551.193C100.199 562.866 67.4247 567.148 63.9224 546.094C61.5942 532.09 71.1658 522.887 85.9112 512.35C103.164 510.099 116.994 516.653 123.899 534.241C126.307 540.277 125.929 546.054 124.237 551.193Z" fill="white"/>
<path d="M124.238 551.173C100.199 562.846 67.425 567.129 63.9228 546.074C63.8034 545.337 63.7039 544.6 63.6641 543.883C68.8379 548.106 77.3548 551.691 91.1252 550.317C103.125 549.122 114.885 544.918 125.312 539.381C125.969 543.564 125.452 547.548 124.238 551.173Z" fill="#EDEDED"/>
<path d="M86.8866 564.42C81.0958 564.42 75.7827 563.483 71.365 561.332C65.3554 558.384 61.5944 553.305 60.4801 546.651C57.3161 527.588 73.2754 516.653 93.513 502.789C115.88 487.471 143.699 468.388 162.882 430.182L169.131 433.329C149.152 473.148 119.283 493.626 97.473 508.565C77.892 521.991 64.9574 530.855 67.3852 545.496C68.1214 549.958 70.4298 553.065 74.4494 555.038C86.5085 560.954 110.169 554.898 126.327 546.193C176.314 519.222 206.9 477.232 207.198 476.814L212.87 480.897C211.596 482.67 181.11 524.581 129.65 552.348C117.233 559.041 100.756 564.42 86.8866 564.42Z" fill="#000072"/>
<path d="M87.5432 533.186C86.3095 535.417 85.3145 537.767 84.5185 540.138C83.7225 542.508 83.1454 544.939 82.9266 547.309C82.7276 549.679 82.8868 552.03 83.6628 553.942C84.0409 554.898 84.5583 555.775 85.1553 556.512C85.7921 557.249 86.5283 557.866 87.3442 558.404L83.1654 563.364C82.0709 562.229 81.0958 560.954 80.3595 559.54C79.6432 558.125 79.1855 556.611 78.9467 555.117C78.4691 552.11 78.9666 549.241 79.7626 546.652C80.5784 544.062 81.7326 541.672 83.0659 539.441C84.3792 537.23 85.8717 535.118 87.5432 533.186Z" fill="#000072"/>
<path d="M76.1411 527.031C74.5889 529.003 73.2756 531.154 72.1413 533.345C71.0269 535.536 70.1116 537.827 69.5146 540.118C69.2161 541.273 68.9972 542.429 68.8778 543.564C68.7584 544.719 68.7584 545.835 68.8181 546.95C68.8977 548.046 69.1166 549.102 69.3952 550.117C69.6937 551.133 70.1315 552.07 70.609 552.986L64.5795 555.396C64.1815 553.962 63.8831 552.508 63.7836 551.034C63.704 549.58 63.7438 548.126 63.9427 546.731C64.3407 543.923 65.276 541.313 66.47 538.963C67.6838 536.592 69.1564 534.441 70.7682 532.449C72.4199 530.477 74.1909 528.644 76.1411 527.031Z" fill="#000072"/>
<path d="M396.123 361.918C428.32 378.591 481.929 377.435 511.679 339.011C552.035 286.881 501.013 226.744 526.862 168.52C544.731 128.243 580.889 120.474 603.992 122.924C624.05 125.055 636.209 139.059 634.299 150.453C629.264 180.651 586.719 167.603 570.163 199.176C554.323 229.354 594.301 305.287 532.513 367.476C472.437 427.931 394.073 404.665 394.073 404.665" fill="#8C8CAA"/>
<path d="M634.299 150.473C629.264 180.671 586.719 167.624 570.163 199.196C569.407 200.63 568.77 202.184 568.253 203.837C557.905 236.605 591.336 308.295 532.513 367.496C472.437 427.951 394.093 404.685 394.093 404.685L396.123 361.938C428.32 378.611 481.929 377.456 511.679 339.051C548.254 291.822 509.788 237.979 521.469 184.993C522.683 179.496 524.434 174.018 526.842 168.56C544.732 128.243 580.889 120.474 603.992 122.924C624.051 125.056 636.209 139.059 634.299 150.473Z" fill="#8C8CAA"/>
<path d="M634.319 150.453C629.284 180.651 586.739 167.604 570.183 199.176C569.427 200.63 568.79 202.164 568.273 203.817C561.387 225.669 573.924 264.791 565.666 305.964C561.527 326.581 552.174 347.736 532.533 367.476C472.457 427.931 394.093 404.666 394.093 404.666L396.143 361.918C411.266 369.747 431.146 373.651 451.045 371.579C473.472 369.249 495.938 359.349 511.699 339.011C548.254 291.782 509.808 237.939 521.489 184.953C522.703 179.456 524.434 173.978 526.862 168.52C544.732 128.223 580.889 120.474 603.992 122.924C624.051 125.056 636.209 139.059 634.319 150.453Z" fill="#8C8CAA"/>
<path d="M563.417 167.205C588.411 142.963 621.921 161.946 625.006 140.234C627.374 143.342 628.409 146.608 627.951 149.397C626.1 160.472 617.922 163.699 603.614 168.48C590.321 172.922 573.765 178.44 564.452 196.188C563.537 197.941 562.741 199.853 562.104 201.885C558.542 213.199 559.577 227.661 560.771 244.393C562.084 262.739 529.688 199.913 563.417 167.205Z" fill="#8C8CAA"/>
<path d="M627.951 149.397C626.1 160.472 617.921 163.719 603.614 168.48C590.301 172.922 573.745 178.44 564.452 196.188C563.536 197.941 562.74 199.873 562.104 201.885C562.024 202.184 561.925 202.463 561.845 202.761C556.89 201.188 555.736 198.18 557.825 195.59C559.019 194.096 554.343 194.316 549.109 194.734C550.94 184.834 555.218 175.133 563.417 167.205C588.411 142.963 621.921 161.946 625.006 140.234C627.354 143.361 628.408 146.608 627.951 149.397Z" fill="#EDEDED"/>
<path d="M565.646 305.984C561.507 326.601 552.154 347.756 532.513 367.496C472.437 427.951 394.073 404.685 394.073 404.685L396.123 361.938C411.246 369.767 431.126 373.671 451.025 371.599C466.149 381.38 485.75 389.168 521.509 367.755C544.831 353.791 558.203 327.637 565.646 305.984Z" fill="#8C8CAA"/>
<path d="M634.299 150.473C629.264 180.671 586.719 167.624 570.163 199.196C569.407 200.63 568.77 202.184 568.253 203.837C558.024 203.279 555 199.076 557.825 195.61C560.114 192.782 541.03 196.108 537.508 195.312C531.956 194.057 538.045 188.479 533.966 186.268C531.638 184.993 525.947 184.874 521.469 184.993C522.683 179.496 524.434 174.018 526.842 168.56C544.732 128.243 580.889 120.474 603.992 122.924C624.051 125.056 636.209 139.059 634.299 150.473Z" fill="white"/>
<path d="M627.951 149.397C626.1 160.472 617.921 163.719 603.614 168.48C590.301 172.922 573.745 178.44 564.452 196.188C563.536 197.941 562.74 199.873 562.104 201.885C562.024 202.184 561.925 202.463 561.845 202.761C556.89 201.188 555.736 198.18 557.825 195.59C559.019 194.096 554.343 194.316 549.109 194.734C550.94 184.834 555.218 175.133 563.417 167.205C588.411 142.963 621.921 161.946 625.006 140.234C627.354 143.361 628.408 146.608 627.951 149.397Z" fill="#EDEDED"/>
<path d="M430.509 412.593C408.7 412.593 393.795 408.251 393.098 408.052C391.248 407.494 390.193 405.562 390.73 403.709C391.288 401.857 393.238 400.801 395.068 401.339C395.267 401.399 414.59 406.996 440.797 405.263C464.836 403.67 499.839 395.403 530.026 365.046C569.526 325.306 566.303 280.348 563.696 244.214C562.343 225.211 561.149 208.817 567.039 197.582C575.795 180.89 591.057 175.81 604.509 171.309C617.961 166.807 628.588 163.261 630.817 149.915C631.413 146.31 630.18 142.246 627.314 138.461C622.319 131.888 613.683 127.506 603.594 126.43C578.561 123.761 546.065 133.8 530.026 169.974C518.584 195.77 522.862 222.561 527.021 248.497C532.016 279.631 537.17 311.821 514.425 341.202C484.675 379.607 430.091 383.491 394.491 365.066C392.78 364.169 392.103 362.058 392.999 360.345C393.894 358.632 396.004 357.954 397.715 358.851C430.768 375.961 481.392 372.436 508.893 336.919C529.787 309.928 525.091 280.627 520.116 249.612C515.798 222.681 511.341 194.834 523.638 167.145C541.21 127.545 576.849 116.57 604.35 119.478C616.35 120.753 626.757 126.131 632.906 134.238C636.946 139.557 638.677 145.553 637.741 151.07C634.816 168.58 620.548 173.36 606.738 177.962C593.923 182.244 580.67 186.667 573.248 200.849C568.293 210.311 569.387 225.788 570.681 243.716C573.228 279.272 576.73 327.975 534.981 369.986C503.182 401.996 466.308 410.641 440.976 412.275C437.355 412.474 433.852 412.593 430.509 412.593Z" fill="#000072"/>
<path d="M286.478 377.754C358.215 329.569 422.052 356.201 440.34 373.81C467.9 397.614 457.871 479.722 418.51 503.606C372.622 511.374 296.388 562.966 206.383 516.932C184.593 505.777 148.038 476.894 143.521 406.697L286.478 377.754Z" fill="#8C8CAA"/>
<path d="M418.51 503.586C417.853 503.705 417.197 503.825 416.54 503.944C370.453 512.808 295.114 562.308 206.383 516.912C195.537 511.354 181.011 501.414 168.614 484.144C156.117 466.735 145.769 441.915 143.521 406.677L286.458 377.754C358.215 329.569 422.032 356.201 440.32 373.81C467.88 397.614 457.871 479.722 418.51 503.586Z" fill="#8C8CAA"/>
<path d="M418.51 503.586C418.231 503.626 417.933 503.685 417.654 503.725C417.276 503.805 416.898 503.865 416.54 503.944C370.453 512.809 295.114 562.308 206.383 516.912C195.537 511.354 181.011 501.415 168.614 484.164C156.117 466.755 145.769 441.935 143.521 406.697L243.973 386.36L286.458 377.774C358.215 329.589 422.032 356.221 440.32 373.83C467.9 397.614 457.871 479.722 418.51 503.586Z" fill="#8C8CAA"/>
<path d="M418.51 503.586C418.231 503.626 417.933 503.685 417.654 503.725C417.276 503.805 416.898 503.865 416.54 503.944C370.453 512.809 295.114 562.308 206.383 516.912C195.537 511.354 181.011 501.415 168.614 484.164C156.117 466.755 145.769 441.935 143.521 406.697L243.973 386.36L278.936 379.288L286.458 377.774C358.215 329.589 422.032 356.221 440.32 373.83C445.633 378.432 449.553 385.204 452.14 393.292C462.925 427.135 450.269 484.324 418.51 503.586Z" fill="#8C8CAA"/>
<g opacity="0.5">
<path d="M471.94 416.119C461.532 401.458 450.269 390.423 438.568 382.296L442.27 373.81C456.796 385.881 465.95 402.315 471.94 416.119Z" fill="white"/>
</g>
<path d="M417.654 503.745C417.276 503.825 416.898 503.884 416.54 503.964C370.453 512.828 295.094 562.328 206.383 516.932C195.537 511.374 181.011 501.434 168.614 484.184C156.117 466.774 145.769 441.955 143.521 406.717L243.973 386.379C258.141 401.578 308.825 394.268 306.994 402.913C294.079 463.667 187.697 466.874 195.12 488.128C200.691 504.104 238.64 493.765 276.011 508.008C286.955 512.171 310.636 509.721 324.923 508.008C370.871 502.49 386.87 496.076 393.735 498.845C396.223 499.801 406.053 501.713 417.654 503.745Z" fill="#8C8CAA"/>
<path d="M417.017 500.837C417.017 501.873 416.838 502.908 416.54 503.964C370.453 512.828 295.114 562.328 206.382 516.932C195.537 511.374 181.011 501.434 168.613 484.164C173.21 479.423 181.05 477.69 189.289 485.598C202.502 498.307 249.226 521.732 312.625 514.521C384.143 506.394 417.037 483.845 417.017 500.837Z" fill="#EDEDED"/>
<path d="M283.612 539.282C258.937 539.282 232.47 534.202 204.79 520.039C182.583 508.685 144.655 478.886 140.038 406.917L139.839 403.869L285.104 374.468C324.744 348.054 361.219 345.545 384.9 348.094C413.634 351.182 435.026 362.496 444.638 371.241C456.557 381.539 462.448 402.933 460.318 428.37C458.129 454.604 446.329 490.837 420.341 506.594L419.763 506.932L419.107 507.052C408.142 508.904 395.407 513.326 380.661 518.446C353.638 527.828 320.645 539.282 283.612 539.282ZM147.241 409.506C152.495 475.818 187.418 503.267 207.974 513.785C274.578 547.847 334.554 527.031 378.373 511.813C393.118 506.693 405.894 502.251 417.256 500.239C439.126 486.555 451.145 454.066 453.334 427.752C455.284 404.526 450.289 385.344 439.981 376.44C432.817 369.906 413.077 358.134 384.144 355.026C361.498 352.596 326.515 355.066 288.428 380.643L287.85 381.021L287.174 381.161L147.241 409.506Z" fill="#000072"/>
<path d="M388.442 497.43C402.172 514.103 429.554 524.421 474.805 508.028C481.631 505.558 490.765 512.908 499.56 517.569C525.389 531.294 549.706 525.796 555.716 513.486C561.865 500.896 561.208 487.59 543.538 473.029C534.324 465.42 523.917 451.237 510.525 446.735C497.869 442.473 486.287 446.217 482.506 442.512C478.725 438.807 471.064 397.753 442.25 373.81" fill="#8C8CAA"/>
<path d="M555.736 513.486C549.727 525.796 525.409 531.294 499.58 517.569C495.998 515.657 492.357 513.306 488.834 511.374C483.72 508.546 478.865 506.573 474.825 508.028C429.554 524.421 402.173 514.103 388.462 497.43L442.27 373.81C471.084 397.753 478.745 438.807 482.526 442.512C486.208 446.098 497.232 442.692 509.45 446.397C509.808 446.496 510.186 446.616 510.545 446.735C523.937 451.237 534.324 465.42 543.558 473.029C561.208 487.61 561.865 500.916 555.736 513.486Z" fill="#8C8CAA"/>
<path d="M555.716 513.506C549.726 525.816 525.409 531.314 499.58 517.589C495.998 515.677 492.356 513.326 488.834 511.374C488.237 511.055 487.66 510.737 487.083 510.438C482.606 508.127 478.387 506.733 474.825 508.028C441.056 520.258 417.256 517.629 401.615 508.585C396.302 505.518 391.924 501.673 388.442 497.45L442.25 373.83C471.064 397.773 478.725 438.827 482.506 442.532C486.188 446.118 497.212 442.712 509.43 446.417C509.788 446.516 510.166 446.636 510.525 446.755C523.917 451.257 534.324 465.44 543.538 473.049C561.228 487.61 561.865 500.897 555.716 513.506Z" fill="#8C8CAA"/>
<path d="M487.083 510.438C482.606 508.127 478.387 506.733 474.825 508.028C441.056 520.258 417.256 517.629 401.615 508.585C397.635 503.307 394.511 497.431 399.267 496.355C408.262 494.323 427.325 510.04 454.667 501.554C476.616 494.741 470.387 477.212 481.71 471.973C491.62 467.352 510.485 493.387 487.083 510.438Z" fill="#8C8CAA"/>
<path d="M555.736 513.486C549.727 525.796 525.41 531.294 499.58 517.569C495.998 515.657 492.357 513.307 488.834 511.374C500.794 505.618 522.644 488.865 509.43 446.397C509.789 446.497 510.167 446.616 510.525 446.736C523.917 451.237 534.305 465.42 543.538 473.029C561.209 487.61 561.865 500.917 555.736 513.486Z" fill="white"/>
<path d="M546.204 514.502C541.568 520.358 532.553 520.517 520.454 518.107C510.405 516.095 509.908 513.227 517.489 503.825C524.892 494.662 521.469 489.662 526.703 489.941C532.951 490.259 554.92 503.486 546.204 514.502Z" fill="#EDEDED"/>
<path d="M388.442 497.431C394.849 502.391 401.476 506.115 408.52 508.625C415.545 511.175 423.007 512.41 430.569 512.609C438.111 512.789 445.772 512.111 453.334 510.637C457.115 509.9 460.876 509.004 464.577 507.908C466.447 507.37 468.278 506.793 470.129 506.195L472.895 505.259L473.591 505.02L474.527 504.721C475.203 504.542 475.88 504.422 476.536 504.343C479.223 504.104 481.631 504.701 483.74 505.418C485.869 506.175 487.76 507.111 489.59 508.088C493.232 510.06 496.555 512.191 499.898 514.043C506.525 517.729 513.708 520.418 521.091 521.633C524.773 522.23 528.514 522.489 532.195 522.27C535.857 522.051 539.498 521.374 542.821 520.119C546.125 518.864 549.149 516.992 551.199 514.502C551.716 513.884 552.154 513.227 552.532 512.549L552.791 512.032L553.089 511.414C553.288 510.996 553.467 510.577 553.647 510.159C554.363 508.486 554.94 506.773 555.338 505.06C556.154 501.614 556.194 498.128 555.398 494.781C554.602 491.415 552.99 488.208 550.861 485.26C548.751 482.292 546.125 479.603 543.319 477.093C542.602 476.455 541.906 475.898 541.13 475.22C540.314 474.543 539.558 473.866 538.782 473.169C537.269 471.774 535.837 470.36 534.404 468.966C528.772 463.348 523.38 457.751 517.171 453.648C515.639 452.632 514.047 451.735 512.415 450.978C510.783 450.221 509.132 449.644 507.361 449.166C503.858 448.229 500.177 447.831 496.356 447.712C494.446 447.652 492.496 447.652 490.466 447.612C489.451 447.592 488.396 447.552 487.282 447.453C486.168 447.353 485.014 447.214 483.7 446.795C483.044 446.596 482.347 446.297 481.651 445.899C481.292 445.66 480.934 445.461 480.596 445.142L480.337 444.923L480.218 444.803L480.059 444.644L479.76 444.305L479.561 444.026C479.044 443.309 478.805 442.771 478.526 442.234C478.268 441.696 478.069 441.218 477.85 440.72C477.054 438.768 476.397 436.895 475.721 435.023C473.074 427.553 470.348 420.282 467.044 413.231C463.761 406.199 459.98 399.427 455.543 393.152C451.105 386.897 445.991 381.141 440.14 376.28C438.767 375.125 438.568 373.093 439.723 371.699C440.877 370.324 442.907 370.125 444.299 371.28C450.647 376.559 456.12 382.734 460.836 389.387C465.552 396.04 469.512 403.152 472.915 410.482C476.337 417.792 479.163 425.362 481.81 432.812C482.486 434.664 483.143 436.517 483.84 438.23C484.019 438.648 484.198 439.066 484.357 439.425C484.516 439.784 484.715 440.122 484.795 440.222C484.695 440.122 484.795 440.222 484.934 440.301C485.093 440.381 485.292 440.481 485.591 440.58C486.168 440.76 486.984 440.879 487.839 440.959C488.695 441.039 489.63 441.078 490.585 441.098C492.496 441.138 494.506 441.138 496.555 441.198C500.635 441.317 504.873 441.756 509.032 442.871C511.082 443.429 513.171 444.166 515.141 445.082C517.111 445.998 518.962 447.054 520.733 448.21C527.777 452.891 533.409 458.827 538.981 464.344C540.374 465.719 541.767 467.093 543.16 468.368C543.856 469.005 544.572 469.643 545.289 470.24C546.005 470.858 546.861 471.555 547.617 472.232C550.701 474.981 553.647 477.989 556.154 481.475C558.641 484.941 560.691 488.925 561.726 493.287C562.76 497.65 562.701 502.271 561.666 506.554C561.169 508.685 560.472 510.757 559.636 512.709C559.417 513.207 559.218 513.685 558.98 514.163L558.641 514.88C558.502 515.139 558.363 515.418 558.223 515.677C557.646 516.733 556.95 517.709 556.214 518.625C553.189 522.27 549.189 524.621 545.15 526.155C541.07 527.708 536.812 528.465 532.593 528.724C528.374 528.963 524.156 528.684 520.056 528.007C511.818 526.633 503.978 523.665 496.774 519.681C493.192 517.689 489.869 515.557 486.526 513.765C484.874 512.888 483.203 512.071 481.591 511.514C479.979 510.956 478.427 510.637 477.153 510.777C476.835 510.817 476.536 510.856 476.258 510.936L476.059 510.996C475.979 511.016 475.939 511.036 475.8 511.075L475.084 511.334L472.238 512.35C470.328 512.988 468.418 513.645 466.487 514.223C462.627 515.418 458.707 516.414 454.747 517.33C446.827 519.083 438.628 520.159 430.35 519.84C422.112 519.501 413.734 517.828 406.172 514.183C398.67 510.538 392.103 504.721 388.442 497.431Z" fill="#000072"/>
<path d="M276.607 507.231C276.607 507.231 231.993 566.989 184.752 587.427C176.951 590.793 167.778 594.219 158.047 595.295C142.087 597.068 128.635 593.881 124.437 584.459C111.263 554.838 157.808 543.405 196.751 485.698" fill="#8C8CAA"/>
<path d="M276.588 507.231C276.588 507.231 235.655 562.069 190.682 584.618C188.712 585.614 186.722 586.551 184.732 587.407C176.931 590.773 167.758 594.2 158.027 595.275C142.068 597.048 128.616 593.861 124.417 584.439C117.353 568.563 127.462 557.886 144.376 542.528C158.982 529.242 178.683 512.43 196.751 485.678L276.588 507.231Z" fill="#8C8CAA"/>
<path d="M276.588 507.231C276.588 507.231 276.05 507.948 275.016 509.263C267.135 519.382 230.481 564.639 190.682 584.618C188.712 585.614 186.722 586.551 184.732 587.407C176.931 590.773 167.758 594.2 158.027 595.275C142.068 597.048 128.616 593.861 124.417 584.439C122.745 580.674 122.029 577.188 122.148 573.882C122.546 563.225 131.461 554.261 144.356 542.528C158.962 529.242 178.663 512.43 196.731 485.678L276.588 507.231Z" fill="#8C8CAA"/>
<path d="M275.035 509.263C267.155 519.382 230.5 564.639 190.701 584.618C188.731 585.614 186.742 586.55 184.752 587.407C176.951 590.773 167.777 594.199 158.047 595.275C142.087 597.048 128.635 593.861 124.437 584.439C122.765 580.674 122.049 577.188 122.168 573.882C127.103 580.475 136.913 586.53 156.494 584.24C213.347 577.547 254.519 519.342 275.035 509.263Z" fill="#8C8CAA"/>
<path d="M190.682 584.618C188.712 585.614 186.722 586.551 184.732 587.407C176.932 590.773 167.758 594.2 158.027 595.275C142.068 597.048 128.616 593.861 124.417 584.439C123.9 583.284 123.482 582.168 123.144 581.053C123.064 580.734 122.964 580.435 122.885 580.117C122.845 580.017 122.825 579.917 122.805 579.818C122.726 579.539 122.666 579.26 122.606 578.961C122.527 578.603 122.467 578.224 122.407 577.866C122.387 577.746 122.367 577.647 122.367 577.527C122.328 577.248 122.288 576.969 122.268 576.71C122.228 576.451 122.228 576.192 122.208 575.953C122.168 575.256 122.149 574.539 122.168 573.862C127.103 580.455 136.914 586.511 156.495 584.22C168.415 582.806 179.638 579.14 190.145 574.121C190.801 577.427 191.02 580.933 190.682 584.618Z" fill="#EDEDED"/>
<path d="M190.702 584.618C188.732 585.614 186.742 586.55 184.752 587.407C176.951 590.773 167.778 594.199 158.047 595.275C142.088 597.048 128.636 593.861 124.437 584.439C117.373 568.563 127.482 557.886 144.396 542.528C168.315 541.233 192.99 558.065 190.702 584.618Z" fill="white"/>
<path d="M190.682 584.618C188.712 585.614 186.722 586.551 184.732 587.407C176.932 590.773 167.758 594.2 158.027 595.275C142.068 597.048 128.616 593.861 124.417 584.439C123.9 583.284 123.482 582.168 123.144 581.053C123.064 580.734 122.964 580.435 122.885 580.117C122.845 580.017 122.825 579.917 122.805 579.818C122.726 579.539 122.666 579.26 122.606 578.961C122.527 578.603 122.467 578.224 122.407 577.866C122.387 577.746 122.367 577.647 122.367 577.527C122.328 577.248 122.288 576.969 122.268 576.71C122.228 576.451 122.228 576.192 122.208 575.953C122.168 575.256 122.149 574.539 122.168 573.862C127.103 580.455 136.914 586.511 156.495 584.22C168.415 582.806 179.638 579.14 190.145 574.121C190.801 577.427 191.02 580.933 190.682 584.618Z" fill="#EDEDED"/>
<path d="M276.607 507.231C269.583 518.465 261.484 529.043 252.808 539.102C248.43 544.102 243.992 549.082 239.077 553.603C237.863 554.739 236.629 555.854 235.356 556.95C234.102 558.045 232.849 559.141 231.555 560.197C229.028 562.368 226.441 564.479 223.854 566.591C213.447 574.957 202.363 582.646 190.164 588.522C188.632 589.219 187.08 589.956 185.548 590.634C184.016 591.291 182.463 591.928 180.891 592.546C177.767 593.781 174.543 594.916 171.28 595.872C167.997 596.829 164.653 597.625 161.231 598.143C157.788 598.681 154.405 598.94 150.943 599C147.48 599.04 143.998 598.84 140.496 598.243C137.013 597.625 133.471 596.629 130.148 594.817C128.496 593.9 126.884 592.785 125.472 591.411C124.059 590.016 122.805 588.403 121.91 586.59C121.432 585.654 121.133 584.877 120.795 584L120.337 582.706L119.939 581.371C119.442 579.578 119.104 577.706 119.024 575.794C118.805 571.969 119.661 568.065 121.173 564.698C122.686 561.312 124.715 558.344 126.904 555.635C129.093 552.926 131.441 550.456 133.829 548.086C136.217 545.715 138.665 543.444 141.073 541.174C150.803 532.17 160.295 523.246 169.549 514.083C174.145 509.462 178.702 504.82 183.2 500.06L189.985 492.909C192.254 490.498 194.483 488.068 196.851 485.698C195.517 488.765 193.945 491.733 192.294 494.622C190.622 497.51 188.851 500.339 186.961 503.107C183.18 508.605 178.981 513.844 174.484 518.784C170.026 523.744 165.27 528.445 160.355 532.907C155.46 537.389 150.405 541.672 145.53 546.054C140.675 550.436 135.899 554.878 131.959 559.719C130.009 562.149 128.297 564.679 127.123 567.328C125.949 569.977 125.372 572.706 125.531 575.475C125.591 576.849 125.85 578.244 126.228 579.638L126.546 580.674L126.924 581.71C127.183 582.367 127.481 583.144 127.76 583.662C128.317 584.797 129.113 585.833 130.048 586.749C131.004 587.666 132.118 588.462 133.332 589.14C135.799 590.494 138.685 591.351 141.67 591.869C144.674 592.387 147.779 592.566 150.903 592.526C154.027 592.466 157.231 592.227 160.295 591.749C163.38 591.271 166.464 590.554 169.509 589.658C172.553 588.761 175.578 587.705 178.563 586.51C180.056 585.913 181.548 585.295 183.04 584.658C184.513 584 185.946 583.323 187.418 582.666C198.98 577.088 209.726 569.678 219.834 561.531C222.382 559.499 224.829 557.368 227.277 555.217C228.491 554.141 229.685 553.026 230.879 551.91L234.441 548.564C236.809 546.333 239.236 544.142 241.644 541.93C244.072 539.739 246.48 537.528 248.848 535.257C253.624 530.776 258.3 526.174 262.936 521.493C267.513 516.812 272.09 512.091 276.607 507.231Z" fill="#000072"/>
<path d="M531.26 500.657C535.857 502.928 540.772 504.402 545.647 504.82C548.055 505.02 550.502 504.94 552.552 504.322C553.567 504.024 554.482 503.605 555.079 503.067C555.696 502.55 555.975 501.992 556.094 501.434L562.044 504.044C561.567 504.92 560.989 505.717 560.273 506.394C559.557 507.051 558.781 507.589 557.985 507.968C556.393 508.764 554.801 509.023 553.308 509.143C550.323 509.322 547.597 508.784 545.01 508.008C539.876 506.434 535.279 503.844 531.26 500.657Z" fill="#000072"/>
<path d="M521.867 513.227C524.096 514.86 526.504 516.214 528.971 517.29C531.459 518.346 534.026 519.103 536.593 519.441C539.16 519.76 541.707 519.641 544.015 518.983C546.343 518.346 548.413 517.171 550.184 515.677L553.826 521.055C551.02 522.609 547.896 523.585 544.771 523.804C541.647 524.023 538.603 523.545 535.837 522.609C533.051 521.672 530.484 520.318 528.155 518.724C525.867 517.111 523.738 515.258 521.867 513.227Z" fill="#000072"/>
<path d="M152.395 565.595C151.042 567.906 150.047 570.396 149.311 572.926C148.595 575.455 148.137 578.025 148.117 580.555C148.077 583.085 148.416 585.555 149.172 587.845C149.908 590.136 151.082 592.228 152.475 594.1L146.903 597.446C145.61 594.717 144.694 591.789 144.396 588.841C144.058 585.893 144.257 582.945 144.893 580.176C145.51 577.388 146.525 574.778 147.799 572.348C149.092 569.878 150.605 567.607 152.395 565.595Z" fill="#000072"/>
<path d="M135.978 561.691C134.148 563.862 132.695 566.312 131.62 568.862C130.566 571.412 129.929 574.101 129.849 576.73C129.829 578.045 129.929 579.34 130.148 580.595C130.387 581.849 130.785 583.065 131.242 584.24C132.237 586.57 133.65 588.682 135.342 590.594L130.088 594.399C128.476 591.71 127.243 588.722 126.566 585.634C126.267 584.08 126.088 582.507 126.088 580.933C126.108 579.36 126.287 577.806 126.606 576.312C127.282 573.304 128.536 570.555 130.148 568.105C131.819 565.675 133.77 563.484 135.978 561.691Z" fill="#000072"/>
<g opacity="0.3">
<path d="M454.766 401.16C380.024 335.963 282.677 401.18 282.677 401.18L280.07 389.985L287.592 388.471C362.811 339.29 434.091 362.297 454.766 401.16Z" fill="white"/>
</g>
<path d="M135.361 397.375C90.3291 376.539 42.7497 399.407 36.9988 381.878C34.4118 377.376 19.3878 375.504 19.4873 366.639C19.547 361.161 25.4173 353.931 33.7751 349.867C23.4473 339.987 23.4075 328.414 27.3277 323.255C30.6708 318.852 43.9436 322.896 46.8689 317.757C58.51 297.359 77.6333 345.266 105.214 323.713" fill="#8C8CAA"/>
<path d="M17.6167 359.946C18.751 357.815 20.1638 356.022 21.6961 354.408C24.7805 351.181 28.4221 348.711 32.3621 346.939L31.5463 352.217C29.5961 350.424 27.7853 348.432 26.2132 346.201C24.6611 343.971 23.3875 341.481 22.492 338.811C21.5966 336.142 21.119 333.294 21.2384 330.346C21.3777 327.417 22.0543 324.33 23.9447 321.481L24.3228 320.944C24.5218 320.685 24.7208 320.446 24.9397 320.226C25.3775 319.788 25.8351 319.43 26.2928 319.131C27.2082 318.533 28.1037 318.175 28.8996 317.916C30.5314 317.418 31.9443 317.258 33.2974 317.139C35.9639 316.92 38.3718 316.92 40.4612 316.661C41.4761 316.541 42.4312 316.342 42.9685 316.103C43.2471 315.984 43.4063 315.884 43.4461 315.844C43.466 315.824 43.466 315.824 43.466 315.824C43.466 315.824 43.4461 315.844 43.466 315.804L43.7446 315.326C44.5008 314.051 45.4161 312.777 46.6897 311.601C47.9434 310.426 49.6746 309.35 51.6446 308.932C53.5948 308.474 55.5051 308.653 57.0971 309.072C58.7089 309.47 60.0621 310.087 61.3157 310.745C63.8032 312.079 65.8727 313.553 67.8825 315.008C69.8924 316.462 71.8226 317.896 73.733 319.25C75.6433 320.625 77.5536 321.9 79.5237 322.975C81.4738 324.051 83.4837 324.967 85.5333 325.545C87.5829 326.143 89.6326 326.481 91.722 326.541C93.8313 326.601 96.0004 326.362 98.249 325.864C98.8062 325.704 99.3833 325.605 99.9404 325.425C100.518 325.286 101.095 325.127 101.672 324.927L103.423 324.35C104 324.151 104.597 323.932 105.214 323.732C104.497 324.808 103.701 325.824 102.766 326.72C101.851 327.656 100.836 328.473 99.7414 329.23C97.5326 330.704 94.9457 331.76 92.1996 332.218C90.8265 332.457 89.4336 332.517 88.0207 332.477C86.6278 332.397 85.2547 332.218 83.9214 331.899C81.235 331.282 78.7078 330.306 76.3398 329.17C73.9717 328.035 71.743 326.72 69.6138 325.366C67.4845 324.011 65.4747 322.577 63.5047 321.242C61.5346 319.908 59.5845 318.633 57.7339 317.717C56.8185 317.278 55.923 316.88 55.1867 316.721C54.4306 316.541 53.8535 316.521 53.4157 316.641C52.9779 316.721 52.56 316.98 52.0426 317.438C51.5252 317.916 50.988 318.613 50.4905 319.43L50.2915 319.729C50.1522 319.948 49.9731 320.246 49.794 320.485C49.4358 320.983 49.0179 321.422 48.5801 321.8C47.7046 322.557 46.7693 323.035 45.9335 323.394C44.2222 324.071 42.7297 324.29 41.3368 324.449C38.5906 324.748 36.1231 324.708 33.9342 324.868C32.8596 324.947 31.8448 325.087 31.1483 325.306C30.81 325.406 30.5513 325.525 30.4319 325.585C30.3722 325.625 30.3523 325.625 30.3523 325.625C30.3523 325.625 30.3523 325.625 30.3722 325.605L30.213 325.824C29.3573 327.019 28.8002 328.852 28.6609 330.744C28.5415 332.676 28.7803 334.688 29.3573 336.68C30.5115 340.644 32.9193 344.389 36.0236 347.556L39.1279 350.723L35.2078 352.835C32.0836 354.508 29.218 356.719 26.9495 359.309C25.8152 360.603 24.8601 361.998 24.1835 363.372C23.5069 364.747 23.1885 366.141 23.3079 367.077C23.3676 367.555 23.487 367.954 23.7457 368.392C23.9845 368.83 24.3626 369.288 24.8601 369.746C25.855 370.683 27.2878 371.579 28.8797 372.396C30.4916 373.232 32.2427 374.009 34.1133 374.965C35.0486 375.443 36.0435 375.961 37.0783 376.638C38.0932 377.336 39.3269 378.172 40.4413 379.985L40.6005 380.244L40.7597 380.722C41.1776 381.917 41.7745 382.634 42.9486 383.331C44.1426 383.989 45.8141 384.487 47.6648 384.766C51.3661 385.303 55.5449 385.284 59.7238 385.164C68.1213 384.905 76.7577 384.367 85.4338 384.467C89.7719 384.507 94.1298 384.726 98.4878 385.104C102.846 385.483 107.184 386.12 111.462 387.116C115.741 388.092 119.939 389.407 123.959 391.12C127.999 392.813 131.839 394.905 135.381 397.454" fill="#000072"/>
<path d="M135.362 397.375C131.123 396.359 127.004 395.383 122.865 394.606C118.726 393.809 114.606 393.192 110.467 392.694C106.328 392.196 102.189 391.857 98.0303 391.618C93.8713 391.399 89.6725 391.399 85.4937 391.479C77.0961 391.638 68.6986 392.395 60.0225 392.813C55.6645 392.973 51.2667 393.132 46.5108 392.475C44.1428 392.116 41.6155 391.558 39.0485 390.124C37.775 389.407 36.5213 388.431 35.5064 387.196C34.4717 385.961 33.7354 384.527 33.2578 383.093L33.5762 383.83C33.6558 383.949 33.3175 383.511 32.7006 383.133C32.1036 382.734 31.3475 382.316 30.5316 381.898C28.8998 381.061 27.0492 380.224 25.1786 379.208C23.3081 378.193 21.3381 376.997 19.4874 375.205C18.5721 374.308 17.6766 373.213 17 371.898" fill="#000072"/>
<path d="M71.7433 277.44C63.4055 231.585 77.9917 177.583 90.986 174.077C107.363 169.655 143.481 201.686 161.35 231.047" fill="#F7AA42"/>
<path d="M161.35 231.047L144.416 239.812L71.7431 277.44C65.0569 240.708 73.0962 198.758 83.2449 181.706C85.7721 177.484 88.4187 174.774 91.0057 174.077C107.383 169.655 143.5 201.686 161.35 231.047Z" fill="#8C8CAA"/>
<path d="M144.435 239.812L71.7431 277.44C65.0569 240.708 73.0962 198.758 83.2449 181.707C91.523 181.985 122.407 188.718 144.435 239.812Z" fill="#8C8CAA"/>
<path d="M71.7433 280.945C70.0917 280.945 68.6191 279.77 68.3007 278.077C64.4601 256.982 65.0571 231.864 69.9524 209.156C71.7234 200.929 78.3897 173.878 90.0905 170.711C110.05 165.313 147.998 202.383 164.355 229.254C165.35 230.908 164.833 233.059 163.181 234.075C161.529 235.071 159.38 234.553 158.365 232.9C140.098 202.861 105.314 173.858 91.9014 177.484C82.6084 179.993 66.5496 229.414 75.1859 276.822C75.5242 278.734 74.2705 280.547 72.3801 280.886C72.1612 280.925 71.9622 280.945 71.7433 280.945Z" fill="#000072"/>
<path d="M91.981 193.28C96.2593 190.511 108.259 196.327 120.079 211.626C127.462 221.167 133.352 231.187 134.008 237.501C124.298 241.644 101.513 252.58 78.6882 265.149C75.5441 234.194 85.0162 197.802 91.981 193.28Z" fill="#FDF2E8"/>
<path d="M134.008 237.501C124.297 241.644 101.513 252.58 78.6881 265.149C78.6284 264.671 78.5886 264.213 78.5488 263.735C77.8324 255.668 77.9319 247.282 78.6284 239.214C80.5188 217.004 86.7274 197.224 91.7421 193.459C91.8217 193.379 91.9013 193.32 92.0008 193.28C96.2592 190.511 108.259 196.327 120.079 211.626C127.442 221.167 133.332 231.206 134.008 237.501Z" fill="white"/>
<path d="M134.009 237.501C124.298 241.644 101.513 252.58 78.6883 265.149C78.6286 264.671 78.5888 264.213 78.549 263.735C78.4495 262.699 78.3699 261.663 78.3102 260.628C77.7928 253.656 77.6137 246.405 77.8127 239.254C78.0714 239.254 78.35 239.234 78.6286 239.214C84.7974 238.816 94.2098 236.326 99.6423 225.908C106.627 212.562 98.2892 200.73 91.7224 193.459C91.802 193.379 91.8815 193.32 91.981 193.28C96.2594 190.511 108.259 196.327 120.079 211.626C127.442 221.167 133.332 231.206 134.009 237.501Z" fill="#EDEDED"/>
<path d="M75.7432 270.786L75.2059 265.528C72.1016 235.031 81.2553 196.088 90.0906 190.352C97.0355 185.85 110.806 193.897 122.845 209.494C127.919 216.048 136.556 228.378 137.491 237.142L137.77 239.712L135.402 240.728C126.626 244.473 103.921 255.269 80.3797 268.237L75.7432 270.786ZM93.8914 196.228C89.3544 199.176 80.1211 229.812 81.7528 259.492C101.732 248.676 120.497 239.652 130.029 235.429C128.477 230.171 123.84 222.203 117.313 213.777C105.692 198.738 95.5232 195.272 93.8914 196.228Z" fill="#000072"/>
<path d="M193.806 222.402C224.391 189.614 262.976 168.5 279.632 175.631C292.865 181.288 298.298 228.557 280.806 306.522" fill="#F7AA42"/>
<path d="M280.806 306.542L193.806 222.422C194.065 222.163 194.304 221.884 194.562 221.605C225.028 189.276 263.116 168.58 279.632 175.651C281.682 176.528 283.532 178.38 285.144 181.209C294 196.606 295.611 240.589 280.806 306.542Z" fill="#F7AA42"/>
<path d="M281.502 303.454C281.283 304.47 281.045 305.506 280.826 306.542L253.723 280.328L193.826 222.402C194.084 222.143 194.323 221.864 194.582 221.585C225.048 189.256 263.135 168.56 279.652 175.631C281.701 176.508 283.552 178.36 285.164 181.189C285.184 181.228 285.204 181.288 285.243 181.328C293.88 196.626 295.512 239.413 281.502 303.454Z" fill="#8C8CAA"/>
<g opacity="0.5">
<path d="M285.144 181.189C285.045 181.149 284.945 181.129 284.885 181.089C268.369 172.544 228.888 190.989 199.955 226.844L194.562 221.605C225.028 189.276 263.115 168.58 279.632 175.651C281.682 176.508 283.532 178.38 285.144 181.189Z" fill="white"/>
</g>
<path d="M281.502 303.455L253.723 280.348C250.579 267.619 247.813 248.556 252.927 230.928C260.389 205.232 271.095 178.838 285.244 181.348C293.88 196.626 295.512 239.413 281.502 303.455Z" fill="#8C8CAA"/>
<path d="M280.826 310.108C280.567 310.108 280.309 310.088 280.05 310.028C278.14 309.59 276.926 307.697 277.363 305.765C287.472 260.707 288.845 231.067 288.209 214.116C287.353 190.909 282.318 180.651 278.259 178.918C264.787 173.161 228.709 190.232 196.433 224.852C195.099 226.286 192.851 226.366 191.398 225.031C189.965 223.697 189.886 221.426 191.219 219.992C223.396 185.511 262.857 164.596 281.045 172.384C291.731 176.966 294.696 197.463 295.313 213.857C295.949 231.226 294.576 261.544 284.288 307.339C283.91 308.972 282.438 310.108 280.826 310.108Z" fill="#000072"/>
<path d="M245.106 442.134C242.42 447.154 238.42 451.396 232.829 454.225C174.145 468.886 143.301 461.277 143.301 461.277C107.403 458.607 80.1008 447.99 61.2959 434.166C59.1069 431.596 57.0971 428.828 55.3062 425.919C91.4832 448.189 158.047 465.26 245.106 442.134Z" fill="#EDEDED"/>
<path d="M282.079 262.48C301.959 291.303 309.043 320.824 310.138 354.827C310.337 360.723 322.435 359.189 324.306 364.388C326.515 370.464 322.993 381.519 310.197 387.833C316.943 394.208 320.406 402.873 318.814 408.111C316.247 416.597 301.362 413.888 297.541 417.414C285.622 433.768 251.633 456.018 203.159 461.277L185.607 463.069C83.2648 469.185 38.7499 423.171 31.407 393.769C24.8203 367.376 39.3668 345.724 39.3668 345.704C47.1673 293.714 60.3407 235.927 120.218 219.832C126.407 218.159 133.053 216.864 140.177 215.988C147.46 215.072 183.995 211.227 214.899 220.788L282.079 262.48Z" fill="#8C8CAA"/>
<path d="M310.217 387.853C316.963 394.228 320.406 402.893 318.834 408.151C316.267 416.657 301.382 413.928 297.561 417.454C287.831 430.82 263.374 448.09 228.331 456.855C220.471 458.827 212.054 460.36 203.179 461.317L185.627 463.109C125.651 466.695 85.5334 452.373 61.1169 433.987C43.8641 420.999 34.4517 405.98 31.427 393.809C24.8403 367.436 39.3868 345.783 39.3868 345.744C47.1873 293.754 60.3408 235.967 120.238 219.872C126.447 218.199 133.073 216.904 140.197 216.008C147.5 215.092 184.015 211.247 214.939 220.828L282.1 262.52C301.979 291.343 309.063 320.864 310.158 354.867C310.357 360.763 322.455 359.229 324.346 364.428C326.515 370.484 323.013 381.519 310.217 387.853Z" fill="#8C8CAA"/>
<path d="M319.152 404.168C319.272 405.622 319.192 406.956 318.834 408.132C316.267 416.637 301.382 413.908 297.561 417.434C287.831 430.8 263.374 448.09 228.331 456.835C220.471 458.807 212.054 460.341 203.179 461.297L185.627 463.089C127.183 466.575 87.6229 453.07 63.0471 435.381C62.3905 434.903 61.7537 434.445 61.1169 433.967C43.8641 420.98 34.4517 405.96 31.427 393.77C24.8403 367.396 39.3868 345.744 39.3868 345.704C47.1873 293.714 60.3607 235.947 120.238 219.833C126.447 218.159 133.073 216.865 140.197 215.968C147.5 215.052 184.015 211.207 214.939 220.789L282.1 262.48C301.979 291.304 309.043 320.824 310.158 354.827C310.357 360.723 322.455 359.189 324.346 364.388C326.555 370.484 323.033 381.519 310.237 387.853C315.451 392.794 318.694 399.128 319.152 404.168Z" fill="#8C8CAA"/>
<path d="M318.834 408.131C316.267 416.637 301.382 413.908 297.562 417.434C287.831 430.8 263.374 448.09 228.332 456.835C220.471 458.807 212.054 460.34 203.179 461.296L185.628 463.089C127.203 466.575 87.6231 453.07 63.0474 435.381C88.2002 444.285 169.211 467.571 254.4 434.146C291.154 419.744 284.07 406.139 302.576 408.59C309.223 409.466 314.715 407.434 319.152 404.147C319.272 405.622 319.172 406.956 318.834 408.131Z" fill="#8C8CAA"/>
<path d="M244.928 437.652C241.983 445.739 236.65 452.731 228.332 456.835C220.471 458.807 212.054 460.34 203.179 461.297L185.628 463.089C127.183 466.575 87.6231 453.07 63.0474 435.381C87.2649 443.967 163.261 465.878 244.928 437.652Z" fill="#EDEDED"/>
<path d="M228.332 456.835C220.451 458.807 212.054 460.341 203.159 461.297L185.608 463.089C125.631 466.675 85.5137 452.353 61.0972 433.967C45.4563 415.462 39.6655 387.097 50.1326 372.316C64.9178 351.441 86.9067 369.448 99.2244 363.731C107.463 359.907 112.915 354.508 127.084 355.544C142.824 356.699 147.421 363.711 159.639 369.946C183.001 381.878 206.482 363.91 235.535 386.698C250.659 398.57 255.713 443.29 228.332 456.835Z" fill="white"/>
<path d="M244.928 437.652C241.983 445.739 236.65 452.731 228.332 456.834C220.471 458.806 212.054 460.34 203.179 461.296L185.628 463.089C127.183 466.575 87.6231 453.07 63.0474 435.381C102.289 382.555 118.129 452.671 166.464 451.516C190.821 450.938 217.546 447.114 244.928 437.652Z" fill="#EDEDED"/>
<path d="M214.919 220.789C204.472 218.558 193.945 217.422 183.418 217.083C172.892 216.705 162.345 217.044 151.878 217.92C146.624 218.378 141.451 218.936 136.297 219.793C131.143 220.629 126.048 221.705 121.054 223.099C111.124 225.868 101.652 230.111 93.2543 235.907C84.8568 241.724 77.6134 249.094 71.6834 257.48C65.7534 265.866 61.0969 275.189 57.3558 284.909C53.6346 294.63 50.789 304.749 48.4807 315.028C46.1724 325.306 44.3814 335.724 42.7497 346.222L42.7696 345.405C42.8094 345.923 42.7298 346.54 42.491 347.078C42.1527 347.795 42.1925 347.636 42.1925 347.656L42.1328 347.735L42.0333 347.915L41.8144 348.253L41.3965 348.97C41.1179 349.449 40.8393 349.947 40.5806 350.445C40.0434 351.44 39.526 352.476 39.0484 353.512C38.0733 355.584 37.2176 357.715 36.4814 359.886C34.9889 364.229 33.9541 368.711 33.4169 373.252C32.9194 377.794 32.8995 382.375 33.4766 386.877C33.7353 389.128 34.2128 391.379 34.7501 393.55C35.3073 395.702 36.0436 397.853 36.9391 399.944C38.73 404.128 41.0781 408.111 43.7645 411.856C46.451 415.601 49.5155 419.127 52.8188 422.374C59.4652 428.907 67.1264 434.365 75.2454 439.026C91.5828 448.249 109.791 454.066 128.436 457.671C147.122 461.296 166.285 462.611 185.607 463.069C166.464 465.798 146.863 466.057 127.501 463.428C122.666 462.751 117.83 461.914 113.054 460.858C108.278 459.783 103.522 458.528 98.8261 457.034C89.4535 454.046 80.3396 450.102 71.763 445.142C63.1664 440.222 55.147 434.186 48.1225 427.115C41.0781 420.063 35.0088 411.856 30.9692 402.474C29.9544 400.144 29.0987 397.713 28.4022 395.204C27.7654 392.714 27.2282 390.224 26.9297 387.694C26.2531 382.634 26.2531 377.515 26.7904 372.456C27.3476 367.416 28.5017 362.456 30.1136 357.655C30.9294 355.265 31.8448 352.915 32.8995 350.604C33.4169 349.449 33.974 348.313 34.571 347.178C34.8695 346.62 35.168 346.042 35.4864 345.485L35.9839 344.648L36.2426 344.23L36.3819 344.01L36.4416 343.911C36.4615 343.911 36.5212 343.712 36.2028 344.389C36.0038 344.887 35.9242 345.465 35.9839 345.963L36.0038 345.146C37.5559 334.569 39.2872 323.971 41.5756 313.434C43.864 302.917 46.6898 292.439 50.5502 282.24C52.4805 277.141 54.6694 272.141 57.1568 267.261C59.6642 262.4 62.4899 257.66 65.6937 253.158C72.0416 244.154 80.0212 236.166 89.1948 229.932C98.3684 223.677 108.676 219.275 119.283 216.526C124.576 215.151 129.909 214.096 135.282 213.319C140.655 212.542 146.087 212.104 151.44 211.865C162.206 211.406 173.011 211.725 183.697 213.04C194.383 214.474 204.989 216.785 214.919 220.789Z" fill="#000072"/>
<path d="M214.203 284.87C215.277 279.691 198.88 262.341 188.712 266.424C178.543 270.508 179.896 281.722 185.946 285.069C194.741 289.929 213.128 290.029 214.203 284.87Z" fill="white"/>
<path d="M80.0215 277.22C79.1659 272.002 94.7869 255.608 104.06 260.249C113.333 264.87 111.781 275.966 106.11 278.973C97.8713 283.336 80.8971 282.439 80.0215 277.22Z" fill="white"/>
<path d="M275.752 186.866C264.091 185.113 235.615 207.94 231.098 220.729C227.635 230.529 247.037 230.191 275.931 255.349C285.642 233.457 280.826 187.623 275.752 186.866Z" fill="#FDF2E8"/>
<path d="M275.931 255.329C275.792 255.209 275.652 255.09 275.513 254.97C246.838 230.171 227.655 230.469 231.098 220.709C235.595 207.941 264.091 185.093 275.732 186.846C276.389 186.945 277.025 187.782 277.642 189.236C281.821 199.017 284.388 236.266 275.931 255.329Z" fill="white"/>
<path d="M277.045 250.309C276.587 251.943 276.07 253.496 275.513 254.97C246.858 230.171 227.655 230.469 231.097 220.709C235.594 207.941 264.09 185.093 275.732 186.846C276.388 186.945 277.025 187.782 277.642 189.236C278 190.372 278.279 191.288 278.438 191.866C270.617 193.917 257.842 199.236 255.733 212.403C252.967 229.752 269.065 235.908 277.045 250.309Z" fill="#EDEDED"/>
<path d="M275.931 258.835C275.095 258.835 274.279 258.536 273.642 257.978C260.131 246.206 248.967 240.27 240.828 235.928C231.635 231.047 225.008 227.502 227.814 219.554C232.829 205.351 262.638 181.348 276.289 183.4C277.921 183.639 279.274 184.734 280.309 186.647C285.483 196.089 288.288 236.167 279.135 256.763C278.677 257.779 277.782 258.516 276.687 258.755C276.428 258.815 276.17 258.835 275.931 258.835ZM274.239 190.252C263.991 190.252 238.5 210.231 234.401 221.884C233.724 223.816 235.177 224.992 244.092 229.752C251.335 233.597 261.922 239.254 274.399 249.473C280.766 229.354 277.523 196.168 274.319 190.272C274.299 190.252 274.259 190.252 274.239 190.252Z" fill="#512717"/>
<path d="M275.931 258.835C275.095 258.835 274.279 258.536 273.642 257.978C262.34 248.138 252.489 242.262 245.166 238.258C243.634 237.421 242.201 236.664 240.868 235.947C231.655 231.047 224.988 227.521 227.814 219.554C228.988 216.187 231.515 212.283 235.316 207.96C245.266 196.586 265.026 181.706 276.289 183.4C277.921 183.639 279.274 184.734 280.309 186.647C285.483 196.088 288.288 236.166 279.135 256.743C278.677 257.759 277.781 258.496 276.687 258.735C276.428 258.795 276.17 258.835 275.931 258.835ZM274.319 190.272C267.095 190.272 250.619 201.068 240.55 212.582C236.57 217.143 234.998 220.171 234.381 221.904C233.704 223.836 235.157 225.011 244.112 229.792C245.465 230.509 246.937 231.286 248.49 232.143C255.275 235.868 264.17 241.106 274.379 249.493C280.766 229.354 277.523 196.168 274.319 190.272Z" fill="#000072"/>
<path d="M203.179 461.297C207.537 460.34 211.875 459.364 216.173 458.289C220.451 457.173 224.71 455.978 228.909 454.663C237.306 452.014 245.485 448.887 253.405 445.221C261.305 441.536 268.926 437.313 275.991 432.373C279.513 429.883 282.896 427.254 286.06 424.406C289.204 421.557 292.129 418.49 294.517 415.203L294.776 414.864L295.014 414.665C296.586 413.31 297.979 412.872 299.153 412.494C300.347 412.155 301.442 411.956 302.477 411.777C304.546 411.438 306.457 411.199 308.247 410.88C310.018 410.562 311.67 410.143 312.904 409.526C313.521 409.227 314.018 408.888 314.376 408.55C314.735 408.191 314.993 407.833 315.172 407.394C315.57 406.538 315.67 405.084 315.431 403.57C315.192 402.036 314.675 400.442 313.978 398.869C312.586 395.722 310.496 392.773 308.009 390.224L304.725 386.857L308.785 384.945C311.232 383.65 313.461 382.057 315.352 380.204C317.262 378.372 318.814 376.24 319.849 373.95C320.884 371.699 321.401 369.209 321.102 367.137C321.043 366.619 320.923 366.161 320.764 365.743C320.724 365.643 320.744 365.723 320.724 365.683C320.704 365.663 320.665 365.623 320.565 365.544C320.187 365.225 319.073 364.707 317.799 364.309C316.506 363.89 315.013 363.512 313.362 362.934C312.526 362.635 311.65 362.297 310.695 361.759C309.74 361.221 308.665 360.484 307.71 359.249C307.252 358.631 306.855 357.894 306.596 357.118C306.476 356.739 306.377 356.341 306.317 355.962C306.258 355.604 306.218 355.146 306.218 354.887L306.118 352.656L305.899 348.174C305.74 345.186 305.501 342.218 305.223 339.25C304.944 336.282 304.586 333.334 304.208 330.386C303.432 324.489 302.357 318.633 300.984 312.876C299.651 307.1 297.999 301.403 295.97 295.805C294.975 293.017 293.86 290.268 292.726 287.519C291.631 284.75 290.418 282.041 289.263 279.272L285.682 270.986C284.468 268.197 283.214 265.428 282.1 262.5C291.154 271.006 297.681 281.862 302.238 293.395C304.566 299.152 306.536 305.048 308.168 311.044C309.76 317.059 310.974 323.135 311.909 329.27C312.844 335.385 313.401 341.56 313.779 347.716C313.859 349.249 313.959 350.803 313.998 352.337L314.078 354.648C314.078 354.767 314.078 354.707 314.078 354.707C314.078 354.707 314.078 354.687 314.058 354.648C314.038 354.588 313.998 354.548 313.998 354.528C313.959 354.508 314.138 354.687 314.496 354.907C314.854 355.126 315.391 355.345 315.988 355.564C317.182 356.002 318.635 356.4 320.227 356.938C321.023 357.217 321.859 357.516 322.754 357.934C323.65 358.353 324.605 358.89 325.58 359.727C326.057 360.145 326.535 360.663 326.953 361.261C327.371 361.838 327.749 362.595 327.948 363.213C328.306 364.229 328.505 365.265 328.605 366.261C329.003 370.264 328.008 373.91 326.455 377.117C324.863 380.324 322.635 383.073 320.088 385.343C317.521 387.614 314.635 389.387 311.65 390.782L312.446 385.503C315.69 388.391 318.396 391.837 320.386 395.841C321.381 397.833 322.157 399.984 322.595 402.355C322.814 403.53 322.933 404.785 322.893 406.08C322.854 407.374 322.635 408.789 322.078 410.183C321.54 411.558 320.665 412.872 319.61 413.908C318.575 414.944 317.401 415.701 316.247 416.278C313.939 417.414 311.73 417.952 309.64 418.37C307.551 418.768 305.541 419.007 303.73 419.306C302.835 419.466 301.979 419.625 301.283 419.824C300.566 420.003 300.109 420.302 300.168 420.242L300.666 419.685C294.875 427.413 287.592 433.19 279.99 438.29C272.349 443.329 264.21 447.452 255.813 450.819C247.395 454.165 238.699 456.715 229.884 458.488C221.028 460.241 212.094 461.217 203.179 461.297Z" fill="#000072"/>
<path d="M210.999 367.137C209.825 363.552 208.691 360.165 207.258 357.058C205.845 353.951 204.153 351.142 202.183 348.851C200.213 346.56 197.945 344.867 195.418 343.732C194.144 343.174 192.831 342.756 191.378 342.437C189.925 342.118 188.493 341.919 187.04 341.879C181.229 341.62 175.399 343.811 170.145 347.716C167.519 349.648 165.031 351.979 162.683 354.548C160.335 357.118 158.146 359.966 155.897 362.934C156.355 359.229 157.41 355.604 158.942 352.138C160.494 348.672 162.544 345.325 165.21 342.377C166.524 340.883 168.016 339.529 169.608 338.254C171.24 337.019 172.991 335.903 174.881 334.987C178.642 333.155 182.941 332.159 187.239 332.179C189.388 332.198 191.517 332.457 193.587 332.955C195.637 333.414 197.766 334.19 199.696 335.246C203.636 337.298 206.82 340.664 208.89 344.309C210.959 347.995 211.974 351.959 212.272 355.843C212.531 359.707 212.153 363.532 210.999 367.137Z" fill="#000072"/>
<path d="M57.9133 355.663C57.6944 352.516 57.9332 349.349 58.57 346.222C59.2267 343.094 60.3212 339.967 62.0922 337.019C63.8434 334.091 66.4502 331.342 69.8132 329.569C71.4847 328.712 73.3155 328.055 75.1661 327.736C77.0366 327.418 78.8276 327.318 80.718 327.497C82.5886 327.676 84.4989 328.095 86.27 328.892C88.041 329.668 89.6927 330.724 91.0657 331.999C92.4587 333.254 93.6128 334.688 94.5481 336.182C95.5033 337.676 96.2196 339.25 96.8166 340.803C97.9708 343.971 98.5678 347.158 98.7668 350.325C98.9658 353.492 98.8265 356.639 98.2494 359.747C97.1151 356.799 96.1201 353.93 94.966 351.201C93.8317 348.453 92.598 345.843 91.1453 343.532C89.7125 341.202 88.0211 339.21 86.1705 337.855C84.2999 336.501 82.2702 335.764 79.9817 335.585C78.8475 335.505 77.5938 335.505 76.4795 335.684C75.3452 335.863 74.2308 336.122 73.1961 336.581C71.0668 337.417 69.1167 338.951 67.3058 340.883C65.495 342.835 63.8831 345.186 62.3708 347.716C60.8385 350.205 59.4655 352.895 57.9133 355.663Z" fill="#000072"/>
<path d="M84.1406 438.389L84.2401 438.349C84.2401 438.369 84.2003 438.369 84.1406 438.389Z" fill="#E4F3F9"/>
<path d="M175.081 468.806C159.619 474.065 144.615 465.938 133.551 451.536C122.626 437.313 115.502 433.947 106.229 431.417C100.12 429.744 90.2296 427.334 72.6187 435.8C63.5247 440.162 60.9775 442.273 57.913 441.238C57.6145 441.138 57.3161 441.018 56.9977 440.839C53.5949 439.106 53.9332 424.286 62.5496 410.9C84.6976 376.539 140.018 362.217 173.847 403.709C177.051 407.633 179.697 411.777 181.826 415.98C193.408 438.927 189.368 463.966 175.081 468.806Z" fill="#49C1F0"/>
<path d="M175.081 468.806C159.619 474.065 144.615 465.938 133.551 451.536C122.626 437.313 115.522 433.947 106.229 431.417C100.12 429.744 90.2296 427.334 72.6187 435.78C63.5247 440.162 60.9576 442.253 57.913 441.218C57.6145 441.118 57.3161 440.998 56.9977 440.839C53.5949 439.106 53.9332 424.286 62.5496 410.9C70.8675 397.972 83.9016 387.893 98.7068 382.555C116.278 376.2 136.356 376.519 154.107 386.698C161.151 390.742 167.837 396.339 173.847 403.709C177.051 407.653 179.697 411.777 181.826 415.98C193.408 438.927 189.368 463.946 175.081 468.806Z" fill="#49C1F0"/>
<path d="M154.107 386.698C152.396 392.853 149.013 399.546 142.267 402.793C129.511 408.948 123.999 397.355 123.999 397.355C123.999 397.355 121.273 403.231 113.433 402.395C104.816 401.458 100.1 387.475 98.707 382.555C116.278 376.2 136.377 376.519 154.107 386.698Z" fill="#3A95D2"/>
<path d="M175.081 468.806C159.619 474.065 144.615 465.938 133.551 451.536C122.626 437.314 115.502 433.947 106.229 431.417C100.12 429.744 90.2299 427.334 72.6189 435.8C63.5249 440.162 60.9778 442.273 57.9133 441.238C57.8934 440.819 57.9332 440.341 58.0128 439.803C59.1271 433.449 79.5041 414.884 104.836 415.083C127.661 415.263 136.158 429.545 145.769 426.418C152.694 424.147 169.887 408.689 181.807 416C193.408 438.927 189.369 463.966 175.081 468.806Z" fill="white"/>
<path d="M165.529 463.946C156.316 463.946 146.764 458.149 138.665 447.592C127.203 432.672 119.004 428.21 107.92 425.183C104.617 424.266 84.6979 421.258 68.2212 431.756C95.0257 408.868 122.706 425.302 128.914 428.569C133.571 431.019 137.949 433.31 142.943 433.31C144.595 433.31 165.708 436.118 173.847 449.504C177.091 454.843 176.752 461.416 173.011 462.671C170.544 463.528 168.036 463.946 165.529 463.946Z" fill="#A3D8E7"/>
<path d="M184.015 432.652C184.99 435.979 183.538 439.325 180.732 440.162C177.926 440.999 174.862 438.987 173.887 435.66C172.911 432.334 174.364 428.987 177.17 428.151C179.976 427.334 183.04 429.346 184.015 432.652Z" fill="#000072"/>
<path d="M165.509 473.926C153.191 473.926 140.953 466.914 130.785 453.687C120.019 439.684 113.432 437.035 105.313 434.804C99.9405 433.33 90.9659 430.88 74.1509 438.947C72.0217 439.983 70.2705 440.859 68.7383 441.636C62.9674 444.564 59.7835 446.198 55.4256 443.967C53.8336 443.15 52.6994 441.556 52.0825 439.246C50.3711 432.911 52.4407 420.143 59.6243 409.008C72.3201 389.308 94.9059 376.24 118.566 374.926C140.993 373.671 161.569 383.113 176.573 401.498C191.557 419.864 194.343 441.756 190.463 455.321C188.015 463.886 182.961 469.842 176.235 472.133C172.673 473.328 169.071 473.926 165.509 473.926ZM95.4432 426.258C100.637 426.258 104.438 427.294 107.164 428.051C117.87 430.979 125.332 435.083 136.336 449.405C147.52 463.946 161.231 469.822 173.966 465.5C178.444 463.986 181.906 459.683 183.717 453.389C187.1 441.596 184.513 422.354 171.14 405.94C157.589 389.328 139.063 380.822 118.944 381.937C97.4929 383.133 76.9965 394.985 65.4947 412.832C58.2314 424.107 57.7936 435.441 58.9478 437.931C59.8233 438.23 60.7785 437.871 65.5345 435.441C67.0269 434.684 68.8974 433.728 71.1063 432.672C81.4341 427.673 89.3739 426.258 95.4432 426.258Z" fill="#000072"/>
<path d="M74.5092 434.923C69.4746 444.943 81.0959 467.292 70.4497 473.069C59.9826 478.766 51.6647 468.727 48.5007 454.444C44.0432 457.552 36.9192 464.643 29.9545 460.141C23.9448 456.257 25.1985 446.955 28.8998 440.102C35.2477 428.33 49.3166 422.155 57.5549 421.079C55.2864 427.593 52.6 443.807 74.5092 434.923Z" fill="#FFDA46"/>
<path d="M64.5991 469.842C59.9824 469.842 55.4056 463.229 53.2166 453.389L51.6446 446.337L45.7146 450.48C44.9982 450.978 44.242 451.556 43.4659 452.154C40.9188 454.106 37.4165 456.775 34.7301 456.775C33.9739 456.775 33.2974 456.556 32.5611 456.098C29.417 454.066 30.3721 447.552 33.1382 442.433C32.6805 451.078 43.7843 449.544 56.4005 432.294C58.2114 441.178 66.2507 437.393 67.8626 437.075C67.8427 440.64 68.8376 449.265 69.3351 452.97C70.2505 459.604 71.2654 467.113 68.1213 468.826C66.8875 469.484 65.6935 469.842 64.5991 469.842Z" fill="#F8B23E"/>
<path d="M64.5993 478.188C62.6691 478.188 60.7587 477.77 58.928 476.934C53.595 474.503 49.1972 468.567 46.4909 460.301C41.7747 463.707 35.0089 467.551 28.064 463.07C20.1441 457.97 21.358 446.716 25.8154 438.429C32.2628 426.477 46.1725 419.306 56.361 417.693C57.7141 417.474 59.0474 417.972 59.923 419.008C60.8184 420.043 61.0771 421.438 60.6592 422.753C59.1668 427.414 59.1867 431.676 60.7189 433.111C62.3109 434.605 66.649 434.186 72.3402 431.995C73.7729 431.437 75.4047 431.776 76.4991 432.872C77.5936 433.967 77.9319 435.601 77.3747 437.035C76.0415 440.481 76.8374 446.238 77.5936 451.795C78.8672 461.098 80.3198 471.655 72.1014 476.117C69.614 477.511 67.0867 478.188 64.5993 478.188ZM50.7891 448.588L51.9234 453.687C53.8138 462.173 57.6146 468.647 61.8333 470.579C64.0023 471.555 66.2709 471.376 68.7981 470.002C72.4795 467.99 71.9422 461.874 70.6885 452.771C70.1114 448.508 69.5145 444.146 69.7334 440.222C63.5247 441.796 58.9877 441.138 55.9232 438.23C52.4607 434.943 52.2418 429.884 52.8189 425.78C45.7148 428.051 36.5611 433.27 31.9643 441.796C28.9595 447.373 27.885 454.683 31.8449 457.233C35.4467 459.564 39.4465 456.934 44.282 453.249C45.078 452.652 45.8143 452.094 46.4909 451.616L50.7891 448.588Z" fill="#000072"/>
<path d="M154.126 415.761C154.126 415.761 155.002 401.598 146.008 396.578C135.72 390.822 125.292 403.829 130.187 409.606C134.685 414.904 142.326 414.924 147.798 420.263C147.798 420.263 149.987 421 151.938 419.984C154.385 418.689 154.126 415.761 154.126 415.761Z" fill="#FFDA46"/>
<path d="M149.59 417.275C149.49 417.275 149.411 417.275 149.331 417.255C146.406 414.685 143.102 413.291 140.157 412.036C137.113 410.741 134.466 409.626 132.655 407.494C131.68 406.339 132.476 404.347 132.735 403.769C133.969 401.08 137.113 398.351 140.695 398.351C125.312 408.231 143.102 410.143 150.425 417.075C150.664 417.314 149.828 417.275 149.59 417.275Z" fill="#F8B23E"/>
<path d="M154.127 415.761C153.43 412.852 152.734 410.103 151.838 407.494C150.923 404.904 149.809 402.434 148.057 400.602C146.366 398.769 144.078 397.494 141.769 397.255C139.461 396.976 137.073 397.733 135.103 399.188C133.153 400.622 131.561 402.813 131.103 404.984C130.884 406.06 130.984 407.056 131.402 407.813C131.501 408.012 131.621 408.151 131.8 408.37C131.999 408.609 132.198 408.829 132.417 409.048C132.854 409.486 133.332 409.864 133.829 410.263C135.819 411.816 138.366 413.131 140.953 414.605C143.52 416.079 146.087 417.892 147.799 420.282C145.371 418.589 142.724 417.653 139.978 416.836C137.252 415.98 134.287 415.322 131.541 413.51C130.864 413.071 130.208 412.534 129.611 411.956C129.312 411.657 129.014 411.358 128.735 411.04C128.437 410.701 128.118 410.263 127.879 409.825C126.845 408.032 126.765 405.94 127.103 404.207C127.462 402.434 128.218 400.861 129.173 399.486C130.128 398.112 131.302 396.897 132.655 395.901C133.989 394.905 135.521 394.108 137.173 393.63C138.824 393.152 140.595 393.012 142.307 393.271C145.769 393.769 148.754 395.722 150.843 398.251C152.893 400.821 154.127 403.829 154.644 406.837C154.903 408.35 155.002 409.864 154.903 411.378C154.823 412.812 154.604 414.326 154.127 415.761Z" fill="#000072"/>
<path d="M175.837 446.277C177.17 448.21 178.285 450.301 179.2 452.512C180.095 454.723 180.772 457.074 180.891 459.584C180.931 460.839 180.852 462.133 180.493 463.408C180.155 464.683 179.538 465.938 178.722 467.014C178.324 467.571 177.827 468.049 177.349 468.527C176.832 468.946 176.315 469.404 175.757 469.762C174.643 470.539 173.449 471.057 172.235 471.535C171.2 471.954 170.006 471.456 169.589 470.4C169.171 469.364 169.668 468.169 170.723 467.751C170.802 467.711 170.902 467.691 170.982 467.671L171.081 467.651C172.076 467.412 173.091 467.133 173.986 466.695C174.464 466.496 174.862 466.217 175.3 465.978C175.678 465.679 176.096 465.4 176.434 465.041C177.13 464.364 177.708 463.528 178.106 462.591C178.523 461.655 178.762 460.599 178.862 459.524C179.081 457.353 178.802 455.062 178.245 452.831C177.668 450.58 176.852 448.389 175.837 446.277Z" fill="#000072"/>
<path d="M133.292 396.499C135.561 395.981 137.71 396.419 139.6 397.176C141.491 397.953 143.182 399.088 144.635 400.423C147.58 403.092 149.47 406.737 150.187 410.502C149.072 406.837 146.844 403.57 143.839 401.359C142.346 400.263 140.695 399.407 138.983 398.889C137.272 398.391 135.441 398.311 134.009 398.809L133.949 398.829C133.312 399.048 132.616 398.71 132.397 398.072C132.178 397.435 132.516 396.738 133.153 396.519C133.193 396.519 133.252 396.519 133.292 396.499Z" fill="#000072"/>
<path d="M128.795 403.41C130.884 403.032 132.814 403.39 134.605 403.928C136.396 404.486 138.088 405.263 139.66 406.199C141.232 407.155 142.684 408.271 143.958 409.546C145.232 410.84 146.346 412.334 146.923 414.027C146.167 412.394 144.913 411.099 143.56 409.984C142.187 408.888 140.675 407.972 139.083 407.255C137.491 406.538 135.839 405.98 134.168 405.681C132.516 405.382 130.805 405.323 129.392 405.761H129.372C128.735 405.96 128.039 405.601 127.84 404.944C127.641 404.307 127.999 403.61 128.655 403.41C128.695 403.43 128.735 403.43 128.795 403.41Z" fill="#000072"/>
<path d="M153.569 377.057C150.783 384.487 146.346 389.009 138.525 390.283C130.048 391.658 124.536 385.025 121.432 380.065C120.138 384.387 115.422 387.773 110.587 387.375C100.776 386.558 98.249 373.332 98.249 373.332C98.249 373.332 106.109 359.229 125.929 360.643C145.749 362.077 153.569 377.057 153.569 377.057Z" fill="white"/>
<path d="M153.57 377.057C152.993 380.603 151.659 384.169 149.072 387.137C147.779 388.611 146.207 389.865 144.456 390.822C142.705 391.778 140.814 392.435 138.904 392.893C136.894 393.451 134.645 393.571 132.496 393.073C130.347 392.594 128.417 391.539 126.765 390.304C123.482 387.794 121.014 384.766 118.905 381.639L124.258 380.902C123.741 382.754 122.845 384.427 121.651 385.802C120.457 387.176 118.965 388.292 117.313 389.029C115.681 389.806 113.831 390.164 112 390.085C111.542 390.085 111.085 390.005 110.647 389.945C110.189 389.865 109.771 389.806 109.353 389.726C108.498 389.527 107.662 389.268 106.866 388.889C105.274 388.172 103.901 387.117 102.806 385.902C101.692 384.706 100.856 383.352 100.2 381.957C99.5429 380.563 99.0852 379.129 98.7469 377.695C98.4285 376.241 98.2295 374.786 98.2494 373.332C99.4633 375.962 100.916 378.392 102.627 380.424C104.339 382.455 106.388 384.009 108.537 384.527C109.592 384.806 110.746 384.945 111.741 384.647C112.756 384.408 113.711 384.049 114.607 383.531C116.378 382.495 117.93 380.961 118.587 379.209L120.855 373.193L123.94 378.472C125.591 381.3 127.601 383.929 130.128 385.463C131.382 386.24 132.675 386.738 133.969 387.097C135.262 387.455 136.615 387.654 138.068 387.654C141.212 387.395 144.237 386.559 146.864 384.706C149.51 382.894 151.659 380.105 153.57 377.057Z" fill="#000072"/>
<path d="M121.173 367.495C118.586 367.237 120.338 373.571 118.387 379.168C117.631 381.32 126.865 383.351 124.954 379.826C120.716 371.957 124.855 367.874 121.173 367.495Z" fill="#000072"/>
<path d="M134.208 385.304C129.452 384.647 124.019 375.683 125.054 371.281C125.83 367.994 131.442 365.643 131.402 368.313C131.063 386.898 148.933 379.069 148.933 379.069C148.933 379.069 141.093 386.24 134.208 385.304Z" fill="#EDEDED"/>
<path d="M109.512 382.395C115.562 383.929 118.149 374.049 118.766 369.547C119.223 366.201 116.656 365.065 116.019 367.655C111.542 385.722 101.035 373.691 101.035 373.691C101.035 373.691 103.662 380.921 109.512 382.395Z" fill="#EDEDED"/>
<path d="M108.657 360.743C108.458 365.344 113.433 369.627 117.273 372.236C119.94 374.049 123.402 374.189 126.208 372.615C130.247 370.324 135.561 366.48 135.74 361.858C136.038 354.389 108.975 353.253 108.657 360.743Z" fill="#000072"/>
<g opacity="0.35">
<path d="M115.144 359.389C115.104 360.245 116.974 361.082 118.427 361.58C119.422 361.938 120.696 361.998 121.73 361.719C123.203 361.321 125.133 360.643 125.173 359.807C125.233 358.412 115.203 358.014 115.144 359.389Z" fill="white"/>
</g>
<path d="M67.5047 446.735L68.42 450.56C68.6787 451.855 68.9772 453.129 69.1961 454.444C69.6737 457.034 69.9921 459.683 70.0916 462.372C70.1513 465.061 70.0319 467.87 68.7583 470.659C68.4797 471.356 68.0021 472.013 67.5445 472.651L66.7087 473.527C66.4102 473.806 66.0719 474.045 65.7535 474.284C64.4004 475.22 62.8681 475.738 61.3956 476.037C60.3011 476.256 59.2265 475.539 59.0076 474.443C58.7887 473.348 59.5051 472.272 60.5996 472.053C60.6792 472.033 60.7588 472.033 60.8384 472.013H60.8583C63.0671 471.854 64.9376 471.117 66.0719 469.185C67.2659 467.312 67.8231 464.782 68.0618 462.273C68.2807 459.743 68.3006 457.133 68.1812 454.524C68.1414 453.229 68.0021 451.914 67.9225 450.62L67.5047 446.735Z" fill="#000072"/>
<path d="M59.5448 443.289C59.6442 445.56 59.2861 447.831 58.8284 450.062C58.3508 452.293 57.7737 454.484 57.2961 456.655C56.8185 458.826 56.4404 460.997 56.4006 463.109C56.341 465.22 56.6195 467.272 57.2563 469.184C57.6145 470.24 57.0374 471.395 55.9828 471.754C54.9082 472.113 53.7739 471.535 53.4157 470.479C53.3759 470.38 53.356 470.3 53.3361 470.2V470.16C52.8984 467.671 52.9581 465.161 53.3958 462.81C53.8137 460.44 54.55 458.229 55.3659 456.077C56.1818 453.946 57.0971 451.874 57.8732 449.783C58.6294 447.691 59.306 445.54 59.5448 443.289Z" fill="#000072"/>
<path d="M50.9283 439.644C49.018 441.417 47.5454 443.568 46.1127 445.719C44.6799 447.891 43.3268 450.102 41.7945 452.273C40.2623 454.424 38.5708 456.576 36.2426 458.309C35.0884 459.165 33.7154 459.882 32.203 460.281C30.6907 460.679 29.039 460.699 27.5068 460.4L27.4073 460.38C26.3128 460.161 25.5765 459.085 25.7954 457.99C26.0143 456.894 27.0889 456.157 28.1833 456.376C28.2828 456.396 28.3823 456.416 28.4619 456.456C30.432 457.153 32.5413 456.874 34.571 455.739C36.6008 454.624 38.4514 452.851 40.1827 450.998C41.9139 449.126 43.5457 447.094 45.257 445.122C47.028 443.15 48.7991 441.158 50.9283 439.644Z" fill="#000072"/>
<path d="M47.6849 431.756C45.2771 433.349 42.8494 434.883 40.6007 436.636C38.3521 438.369 36.2428 440.281 34.4518 442.413C32.641 444.524 31.1883 446.895 30.2531 449.385C29.2979 451.875 28.9795 454.524 29.1586 457.093C29.2382 458.209 28.4024 459.185 27.2682 459.265C26.1538 459.344 25.1787 458.508 25.0991 457.372C25.0991 457.293 25.0991 457.213 25.0991 457.133C25.2384 453.986 26.0344 450.859 27.4671 448.11C28.88 445.361 30.8102 442.99 32.9793 440.979C35.1483 438.947 37.5362 437.254 40.0237 435.76C42.5111 434.286 45.1179 433.051 47.6849 431.756Z" fill="#000072"/>
</g>
<defs>
<clipPath id="clip0_246_7843">
<rect width="621" height="480" fill="white" transform="translate(17 119)"/>
</clipPath>
</defs>
</svg>
