<svg width="626" height="599" viewBox="0 0 626 599" fill="none" xmlns="http://www.w3.org/2000/svg">
<ellipse cx="313" cy="299.5" rx="313" ry="299.5" fill="#B0A2D7"/>
<path fill-rule="evenodd" clip-rule="evenodd" d="M586.135 465.928C596.268 451.822 586.488 360.431 576.886 360.983H165.01L70.5073 500.365C67.6375 511.314 72.3395 518.025 90.9929 516.899V571.292C69.1607 571.292 72.2733 593.499 88.9841 593.499H91.1916H106.291H529.049L586.135 465.928Z" fill="#1574FF"/>
<path d="M529.049 597.87H88.9838C77.836 597.87 71.1693 589.879 71.1693 582.175C71.1693 577.914 73.0678 574.051 76.4894 571.292C79.1163 569.172 82.56 567.804 86.6218 567.23V521.402C77.836 521.314 71.8757 519.217 68.4541 515.045C65.2974 511.181 64.5689 505.883 66.2907 499.283C66.4232 498.797 66.6219 498.356 66.9088 497.936L161.412 358.555C162.229 357.363 163.575 356.634 165.032 356.634H576.819C579.579 356.546 581.919 358.224 583.795 361.645C592.426 377.319 600.064 452.484 589.998 468.069L533.067 595.287C532.338 596.855 530.771 597.87 529.049 597.87ZM90.9927 512.55C92.0964 512.55 93.1781 512.97 93.9949 513.742C94.8779 514.559 95.3635 515.729 95.3635 516.921V571.314C95.3635 573.72 93.3989 575.685 90.9927 575.685C86.0037 575.685 83.3326 576.987 81.964 578.091C80.6174 579.172 79.889 580.585 79.889 582.175C79.889 585.552 83.0677 589.15 88.9618 589.15H526.201L582.139 464.162C582.25 463.897 582.404 463.632 582.581 463.389C585.451 459.394 587.415 441.733 584.921 412.44C582.713 386.48 578.387 369.085 575.848 365.354H167.328L74.5689 502.175C73.7742 505.552 73.9949 508.025 75.2091 509.482C76.379 510.894 79.9331 513.19 90.7278 512.528C90.8161 512.55 90.9044 512.55 90.9927 512.55Z" fill="#000072"/>
<g opacity="0.5">
<path fill-rule="evenodd" clip-rule="evenodd" d="M101.92 454.051L70.5069 500.387C67.8358 510.541 71.6768 517.031 87.0631 517.053H87.1293H87.1956H87.5488C88.6304 517.053 89.7783 517.009 90.9704 516.921V517.031L510.351 516.921C510.351 516.921 512.47 513.477 516.687 506.59C231.941 507.34 89.5797 507.738 89.5797 507.738C84.3479 508.731 82.604 507.252 84.3037 503.279C89.0499 493.477 97.2838 479.901 109.05 462.55C106.622 459.438 104.26 456.612 101.92 454.051Z" fill="white"/>
</g>
<g opacity="0.5">
<path fill-rule="evenodd" clip-rule="evenodd" d="M92.1848 584.934C88.4541 584.89 85.474 581.844 85.474 578.113C85.474 574.382 88.4762 571.358 92.1848 571.292H90.9706C69.1605 571.292 72.2511 593.477 88.9618 593.477H91.1693H106.269H525.208C501.19 592.263 484.259 590.563 471.345 588.422L92.1848 584.934Z" fill="white"/>
</g>
<g opacity="0.3">
<path fill-rule="evenodd" clip-rule="evenodd" d="M574.811 360.983H540.992H165.01L102.958 452.528C124.414 492.859 160.926 500.078 212.494 474.206C238.123 474.824 251.39 467.628 252.317 452.595C272.891 455.84 288.829 456.391 300.109 454.206C295.054 502.219 331.677 523.323 409.955 517.517C412.626 532.616 429.27 552.153 420.286 571.292C445.561 582.528 455.628 589.923 525.274 593.477C526.842 592.881 528.365 592.285 529.888 591.689L586.179 465.906C596.312 451.8 586.532 360.409 576.93 360.961H574.811V360.983Z" fill="#000072"/>
</g>
<path fill-rule="evenodd" clip-rule="evenodd" d="M567.482 385.95C574.479 373.191 584.347 444.692 577.04 455.155L518.365 571.314H90.9927V516.921H512.36L567.482 385.95Z" fill="white"/>
<path d="M518.365 575.663H90.9929C88.5867 575.663 86.6221 573.698 86.6221 571.292V516.899C86.6221 514.493 88.5867 512.528 90.9929 512.528H509.469L563.464 384.228C563.53 384.096 563.597 383.963 563.663 383.831C565.495 380.497 568.034 380.034 569.336 380.056C571.875 380.1 573.994 381.734 575.627 384.957C579.402 392.33 582.051 409.438 583.177 421.844C584.347 434.625 584.855 451.027 580.837 457.341L522.272 573.256C521.522 574.735 520.021 575.663 518.365 575.663ZM95.3638 566.943H515.694L573.155 453.19C573.243 453.014 573.354 452.815 573.486 452.661C574.877 450.674 576.312 440.034 574.237 419.945C572.978 407.76 571.014 398.246 569.358 392.837L516.4 518.643C515.716 520.254 514.127 521.314 512.383 521.314H95.3638V566.943Z" fill="#000072"/>
<g opacity="0.3">
<path fill-rule="evenodd" clip-rule="evenodd" d="M505.075 571.292C441.786 571.292 389.182 571.292 350.506 571.292C406.886 567.848 417.46 542.815 385.12 526.965H502.007L505.075 571.292Z" fill="#000072"/>
</g>
<g opacity="0.3">
<path fill-rule="evenodd" clip-rule="evenodd" d="M567.482 385.95C574.479 373.191 584.347 444.692 577.04 455.155L518.365 571.314H516.113C515.164 555.53 513.243 537.407 510.374 516.921H512.36L567.482 385.95Z" fill="#000072"/>
</g>
<path d="M529.049 597.87H88.9838C77.836 597.87 71.1693 589.879 71.1693 582.175C71.1693 577.914 73.0678 574.051 76.4894 571.292C79.1163 569.172 82.56 567.804 86.6218 567.23V521.402C77.836 521.314 71.8757 519.217 68.4541 515.045C65.2974 511.181 64.5689 505.883 66.2907 499.283C66.4232 498.797 66.6219 498.356 66.9088 497.936L161.412 358.555C162.229 357.363 163.575 356.634 165.032 356.634H576.819C579.579 356.546 581.919 358.224 583.795 361.645C592.426 377.319 600.064 452.484 589.998 468.069L533.067 595.287C532.338 596.855 530.771 597.87 529.049 597.87ZM90.9927 512.55C92.0964 512.55 93.1781 512.97 93.9949 513.742C94.8779 514.559 95.3635 515.729 95.3635 516.921V571.314C95.3635 573.72 93.3989 575.685 90.9927 575.685C86.0037 575.685 83.3326 576.987 81.964 578.091C80.6174 579.172 79.889 580.585 79.889 582.175C79.889 585.552 83.0677 589.15 88.9618 589.15H526.201L582.139 464.162C582.25 463.897 582.404 463.632 582.581 463.389C585.451 459.394 587.415 441.733 584.921 412.44C582.713 386.48 578.387 369.085 575.848 365.354H167.328L74.5689 502.175C73.7742 505.552 73.9949 508.025 75.2091 509.482C76.379 510.894 79.9331 513.19 90.7278 512.528C90.8161 512.55 90.9044 512.55 90.9927 512.55Z" fill="#000072"/>
<path d="M518.365 575.663H90.9929C88.5867 575.663 86.6221 573.698 86.6221 571.292V516.899C86.6221 514.493 88.5867 512.528 90.9929 512.528H509.469L563.464 384.228C563.53 384.096 563.597 383.963 563.663 383.831C565.495 380.497 568.034 380.034 569.336 380.056C571.875 380.1 573.994 381.734 575.627 384.957C579.402 392.33 582.051 409.438 583.177 421.844C584.347 434.625 584.855 451.027 580.837 457.341L522.272 573.256C521.522 574.735 520.021 575.663 518.365 575.663ZM95.3638 566.943H515.694L573.155 453.19C573.243 453.014 573.354 452.815 573.486 452.661C574.877 450.674 576.312 440.034 574.237 419.945C572.978 407.76 571.014 398.246 569.358 392.837L516.4 518.643C515.716 520.254 514.127 521.314 512.383 521.314H95.3638V566.943Z" fill="#000072"/>
<path d="M90.9924 529.901C100.904 528.93 110.816 528.488 120.705 528.157C130.617 527.892 140.529 527.76 150.418 527.848C155.363 527.87 160.33 527.892 165.275 528.003L172.714 528.135L180.153 528.356C190.065 528.687 199.977 529.106 209.866 529.879C210.44 529.923 210.86 530.431 210.816 531.005C210.771 531.513 210.352 531.932 209.866 531.954C199.955 532.749 190.043 533.168 180.153 533.477L172.714 533.698L165.275 533.83C160.33 533.941 155.363 533.963 150.418 533.985C140.507 534.073 130.595 533.941 120.705 533.676C110.794 533.345 100.882 532.903 90.9924 531.932C90.4185 531.866 89.9991 531.358 90.0432 530.784C90.1095 530.343 90.5068 529.945 90.9924 529.901Z" fill="#000072"/>
<path d="M135.849 551.469C156.909 550.828 177.99 550.431 199.05 550.232C220.109 550.056 241.191 549.945 262.251 550.012L293.84 550.122L309.646 550.21L325.451 550.387L357.041 550.784C367.57 551.005 378.1 551.137 388.63 551.446C389.049 551.469 389.358 551.8 389.358 552.219C389.336 552.616 389.027 552.925 388.63 552.948C378.1 553.257 367.57 553.389 357.041 553.61L325.451 554.007L309.646 554.184L293.84 554.272L262.251 554.382C241.191 554.449 220.109 554.338 199.05 554.162C177.99 553.963 156.909 553.566 135.849 552.926C135.43 552.903 135.121 552.572 135.121 552.153C135.143 551.778 135.452 551.469 135.849 551.469Z" fill="#000072"/>
<path d="M515.627 575.663C513.332 575.663 511.411 573.875 511.279 571.557L508.011 517.164C507.857 514.758 509.711 512.683 512.117 512.55C514.524 512.396 516.599 514.25 516.731 516.656L519.998 571.049C520.153 573.455 518.298 575.53 515.892 575.663C515.804 575.663 515.716 575.663 515.627 575.663Z" fill="#000072"/>
<path d="M450.859 538.179C456.091 537.892 461.345 537.649 466.577 537.451C471.809 537.252 477.062 537.075 482.294 536.943C487.526 536.788 492.78 536.656 498.012 536.568C503.243 536.457 508.497 536.369 513.729 536.303L511.08 538.047C516.025 526.215 521.146 514.449 526.268 502.683C531.433 490.939 536.577 479.195 541.853 467.495C544.457 461.645 547.106 455.795 549.778 449.967C552.427 444.118 555.098 438.29 557.813 432.484C563.199 420.851 568.674 409.239 574.303 397.694C574.546 397.186 575.186 396.965 575.694 397.208C576.179 397.451 576.4 398.025 576.201 398.511C571.588 410.497 566.797 422.396 561.941 434.272C559.513 440.21 557.062 446.149 554.59 452.043C552.14 457.959 549.645 463.875 547.129 469.769C542.14 481.579 537.04 493.345 531.963 505.133C526.82 516.877 521.676 528.643 516.378 540.32L516.356 540.387C515.87 541.446 514.833 542.064 513.729 542.064C508.497 542.02 503.243 541.932 498.012 541.822C492.78 541.733 487.526 541.623 482.294 541.446C477.062 541.314 471.809 541.137 466.577 540.939C461.345 540.74 456.091 540.497 450.859 540.232C450.285 540.21 449.844 539.702 449.866 539.128C449.888 538.621 450.33 538.201 450.859 538.179Z" fill="#000072"/>
<path fill-rule="evenodd" clip-rule="evenodd" d="M547.062 374.471C529.093 182.794 341.124 162.374 191.699 299.063C146.379 340.52 163.443 411.336 229.315 436.524C273.133 435.928 310.793 435.707 342.294 435.906C302.515 446.965 308.674 503.499 399.204 496.347C531.897 485.839 566.753 429.769 547.062 374.471Z" fill="white"/>
<path fill-rule="evenodd" clip-rule="evenodd" d="M337.659 435.884L342.294 435.906C302.515 446.965 308.674 503.499 399.204 496.347C404.369 495.928 409.358 495.442 414.237 494.912C429.888 488.886 425.208 439.636 403.751 433.213C380.308 434.912 358.277 435.818 337.659 435.884Z" fill="#FFB531"/>
<g opacity="0.3">
<path fill-rule="evenodd" clip-rule="evenodd" d="M547.062 374.471C539.512 293.919 499.005 229.549 422.073 214.295V214.251C352.537 197.319 270.175 227.253 191.699 299.063C187.769 302.661 184.303 306.502 181.301 310.476C280.506 337.54 338.63 325.42 372.537 304.339C366.974 312.926 363.398 322.838 362.316 333.323C362.537 333.213 363.288 334.493 364.833 337.584C366.886 341.668 368.674 345.663 370.219 349.57C369.557 343.478 369.733 337.363 370.771 331.381C372.846 319.328 378.299 307.871 386.864 298.489C395.429 289.085 406.356 282.595 418.166 279.438C429.976 276.259 442.669 276.414 454.788 280.255C456.003 280.63 456.886 280.961 457.504 281.226C439.49 272.198 418.387 271.911 400.219 280.321C397.769 283.323 395.076 286.149 392.228 288.842C404.568 276.546 411.345 263.699 414.965 254.56C418.056 246.745 426.135 242.043 434.413 243.478C484.722 252.286 518.276 297.959 535.053 380.52C567.459 444.338 437.57 510.806 322.868 474.581C331.632 488.466 355.65 499.769 399.226 496.325C531.896 485.839 566.753 429.769 547.062 374.471Z" fill="#000072"/>
</g>
<path d="M383.928 501.336C337.946 501.336 317.968 483.235 314.988 466.369C313.244 456.458 317.063 447.009 324.855 440.188C297.35 440.144 265.319 440.387 229.359 440.873C228.807 440.873 228.255 440.784 227.747 440.586C193.376 427.451 169.293 400.873 163.332 369.526C158.145 342.219 167.394 315.354 188.741 295.84C230.705 257.451 277.35 229.968 323.619 216.348C369.071 202.97 412.471 203.39 449.093 217.518C507.592 240.078 543.883 295.465 551.345 373.522C559.954 398.113 557.813 421.447 545.097 441.071C523.618 474.228 473.287 494.846 399.535 500.696C394.038 501.137 388.828 501.336 383.928 501.336ZM319.601 431.469C327.548 431.469 335.12 431.491 342.316 431.535C344.502 431.557 346.334 433.168 346.621 435.332C346.908 437.495 345.561 439.526 343.464 440.122C329.844 443.919 321.676 454.096 323.597 464.868C326.467 481.115 350.859 495.795 398.851 491.998C488.453 484.912 523.861 457.826 537.768 436.347C549.027 418.952 550.815 398.069 542.934 375.95C542.802 375.619 542.735 375.244 542.691 374.89C535.671 300.034 501.301 247.054 445.936 225.686C373.221 197.65 276.93 226.988 194.613 302.308C175.562 319.747 167.284 343.654 171.897 367.915C177.24 396.038 198.961 420.012 230.087 432.153C263.487 431.689 293.487 431.469 319.601 431.469Z" fill="#000072"/>
<path fill-rule="evenodd" clip-rule="evenodd" d="M301.61 413.5C296.246 416.413 289.756 417.782 282.582 416.855C269.866 415.199 255.098 406.303 241.213 385.994C238.785 387.716 236.047 389.482 232.957 391.314C226.842 394.934 219.447 398.798 210.772 402.882C210.772 403.478 210.772 404.074 210.75 404.648H211.036C231.478 404.648 248.056 416.237 248.056 430.541C248.056 432.528 247.747 434.449 247.129 436.325C267.306 436.082 286.069 435.95 303.42 435.884C303.928 429.636 303.332 422.175 301.61 413.5Z" fill="#FFB531"/>
<g opacity="0.3">
<path fill-rule="evenodd" clip-rule="evenodd" d="M209.337 426.656C215.385 430.431 222.052 433.765 229.293 436.524C269.226 435.972 304.061 435.751 333.774 435.862C338.409 432.55 343.045 428.974 347.681 425.111C298.454 434.626 256.07 432.352 220.529 418.312C215.297 414.957 217.792 411.358 228.034 407.54C284.171 437.076 317.902 432.683 329.248 394.339C334.524 344.096 274.149 322.462 232.052 356.171C304.414 367.054 297.306 380.961 210.706 397.937C211.081 405.2 210.617 414.758 209.337 426.656Z" fill="#000072"/>
</g>
<g opacity="0.52">
<path fill-rule="evenodd" clip-rule="evenodd" d="M321.257 471.711C310.506 436.789 347.703 425.111 412.824 436.789C350.705 441.447 316.511 444.427 321.257 471.711Z" fill="white"/>
</g>
<path fill-rule="evenodd" clip-rule="evenodd" d="M173.465 386.899C177.527 395.773 183.288 404.184 190.683 411.734C213.796 402.087 230.639 393.5 241.213 385.994C293.398 462.285 357.637 377.584 280.992 352.528C251.213 342.793 213.487 361.447 173.465 386.899Z" fill="white"/>
<path d="M286.93 421.535C270.97 421.535 254.215 411.093 240.109 391.999C229.226 399.063 213.2 407.032 192.339 415.751C190.683 416.436 188.785 416.06 187.527 414.78C179.889 406.987 173.796 398.202 169.447 388.709C168.542 386.723 169.226 384.383 171.081 383.213C209.513 358.798 249.579 337.672 282.295 348.378C306.511 356.303 320.86 371.645 320.661 389.46C320.506 403.544 311.124 415.817 297.283 420.012C293.928 421.027 290.44 421.535 286.93 421.535ZM241.213 381.623C241.478 381.623 241.721 381.645 241.986 381.69C243.133 381.888 244.149 382.55 244.811 383.522C260.175 405.972 278.851 416.48 294.789 411.645C304.966 408.555 311.853 399.592 311.963 389.35C312.118 375.553 300.021 363.345 279.623 356.679C251.191 347.385 213.134 367.12 179.094 388.511C182.427 394.957 186.666 400.983 191.765 406.546C213.045 397.539 228.829 389.438 238.674 382.44C239.425 381.888 240.308 381.623 241.213 381.623Z" fill="#000072"/>
<path fill-rule="evenodd" clip-rule="evenodd" d="M232.957 391.314C236.048 389.482 238.785 387.716 241.213 385.994C293.398 462.285 357.637 377.584 280.992 352.528C266.379 347.76 249.867 349.813 232.096 356.171C226.489 370.299 226.798 382.021 232.957 391.314Z" fill="#FFB531"/>
<path d="M485.473 385.707C490.771 392.904 493.972 399.217 495.054 404.625C496.312 410.895 494.921 415.994 490.837 419.923C489.204 421.491 486.621 421.447 485.054 419.813C483.486 418.179 483.53 415.597 485.164 414.029C493.486 407.164 475.296 371.8 485.473 385.707Z" fill="#000072"/>
<path d="M383.928 501.336C337.946 501.336 317.968 483.235 314.988 466.369C313.244 456.458 317.063 447.009 324.855 440.188C297.35 440.144 265.319 440.387 229.359 440.873C228.807 440.873 228.255 440.784 227.747 440.586C193.376 427.451 169.293 400.873 163.332 369.526C158.145 342.219 167.394 315.354 188.741 295.84C230.705 257.451 277.35 229.968 323.619 216.348C369.071 202.97 412.471 203.39 449.093 217.518C507.592 240.078 543.883 295.465 551.345 373.522C559.954 398.113 557.813 421.447 545.097 441.071C523.618 474.228 473.287 494.846 399.535 500.696C394.038 501.137 388.828 501.336 383.928 501.336ZM319.601 431.469C327.548 431.469 335.12 431.491 342.316 431.535C344.502 431.557 346.334 433.168 346.621 435.332C346.908 437.495 345.561 439.526 343.464 440.122C329.844 443.919 321.676 454.096 323.597 464.868C326.467 481.115 350.859 495.795 398.851 491.998C488.453 484.912 523.861 457.826 537.768 436.347C549.027 418.952 550.815 398.069 542.934 375.95C542.802 375.619 542.735 375.244 542.691 374.89C535.671 300.034 501.301 247.054 445.936 225.686C373.221 197.65 276.93 226.988 194.613 302.308C175.562 319.747 167.284 343.654 171.897 367.915C177.24 396.038 198.961 420.012 230.087 432.153C263.487 431.689 293.487 431.469 319.601 431.469Z" fill="#000072"/>
<path d="M364.811 337.584C373.994 355.906 378.189 372.462 377.394 387.253C376.577 402.396 370.617 415.575 359.513 426.789C357.813 428.489 355.054 428.511 353.354 426.811C351.654 425.111 351.632 422.352 353.332 420.652C386.93 393.919 353.089 314.14 364.811 337.584Z" fill="#000072"/>
<path d="M277.262 395.221C280.507 400.1 282.736 404.383 283.95 408.091C285.319 412.285 285.496 415.884 284.414 418.886C283.752 420.74 281.721 421.689 279.866 421.049C278.012 420.387 277.063 418.356 277.703 416.502C280.22 411.756 269.557 386.193 277.262 395.221Z" fill="#000072"/>
<path fill-rule="evenodd" clip-rule="evenodd" d="M266.422 67.6506C340.153 67.6506 417.614 156.745 403.839 229.085C390.065 301.425 344.082 307.827 270.352 307.827C196.621 307.827 140.176 305.597 136.864 229.085C133.575 152.551 192.692 67.6506 266.422 67.6506Z" fill="white"/>
<path d="M270.352 312.198C231.257 312.198 199.447 311.381 175.496 301.16C147.769 289.35 134.127 266.502 132.516 229.262C130.595 184.803 149.248 136.459 181.169 103.125C205.782 77.43 236.069 63.2578 266.423 63.2578C303.531 63.2578 343.508 84.7809 373.354 120.851C401.632 155.024 414.634 195.774 408.144 229.88C401.367 265.487 386.533 287.628 361.455 299.504C339.226 310.078 310.109 312.198 270.352 312.198ZM266.423 71.9995C238.476 71.9995 210.44 85.2004 187.482 109.174C157.151 140.851 139.425 186.723 141.235 228.887C142.67 262.374 154.657 282.794 178.917 293.125C201.367 302.683 232.272 303.456 270.352 303.456C341.831 303.456 386.201 298.401 399.535 228.268C405.539 196.701 393.243 158.622 366.599 126.436C338.829 92.8604 300.44 71.9995 266.423 71.9995Z" fill="#000072"/>
<path fill-rule="evenodd" clip-rule="evenodd" d="M277.593 68.313C335.849 75.2004 393.442 134.163 403.796 193.302C390.639 199.461 375.716 202.948 359.91 202.948C306.599 202.948 263.377 163.368 263.377 114.538C263.354 97.5844 268.564 81.7567 277.593 68.313Z" fill="#FFB531"/>
<path d="M327.813 172.705C323.818 173.964 319.778 175.443 316.047 177.143C312.273 178.864 308.719 180.851 305.429 183.081C303.752 184.162 302.228 185.421 300.661 186.613L298.476 188.577C298.123 188.909 297.725 189.218 297.394 189.571L296.401 190.63C293.597 193.368 291.412 196.613 289.27 199.902L282.383 192.661C282.736 192.485 282.957 192.396 283.2 192.308C283.443 192.198 283.685 192.109 283.928 192.021C284.392 191.844 284.878 191.668 285.341 191.535C286.268 191.226 287.195 190.984 288.123 190.719C289.977 190.233 291.853 189.924 293.752 189.681C297.526 189.218 301.345 189.24 305.076 189.792C308.807 190.343 312.471 191.293 315.849 192.838C319.27 194.273 322.339 196.37 325.142 198.622C325.915 199.24 326.025 200.388 325.407 201.16C324.944 201.734 324.171 201.955 323.487 201.756L323.288 201.69C321.654 201.204 320.153 200.564 318.586 200.145C316.997 199.747 315.473 199.284 313.884 199.041C310.772 198.401 307.615 198.18 304.524 198.224C301.434 198.246 298.343 198.622 295.363 199.284C294.613 199.438 293.884 199.659 293.134 199.836L290.948 200.498C290.242 200.741 289.513 200.984 288.851 201.271C288.498 201.403 288.167 201.557 287.858 201.69C287.681 201.756 287.527 201.822 287.394 201.889L287.041 202.043L286.908 202.109C284.304 203.346 281.191 202.242 279.977 199.637C279.226 198.048 279.359 196.215 280.176 194.803C282.582 190.63 285.275 186.502 288.829 183.125L290.109 181.822C290.529 181.381 291.014 181.028 291.478 180.63L294.304 178.335C296.312 176.988 298.277 175.575 300.44 174.538C304.679 172.308 309.182 170.675 313.774 169.747C314.944 169.549 316.069 169.328 317.239 169.173C318.409 169.063 319.557 168.909 320.727 168.864C323.067 168.754 325.341 168.776 327.769 169.107C328.763 169.24 329.447 170.167 329.315 171.138C329.226 171.867 328.718 172.418 328.056 172.617L327.813 172.705Z" fill="#000072"/>
<g opacity="0.3">
<path fill-rule="evenodd" clip-rule="evenodd" d="M337.438 93.1252C381.433 124.825 413.045 180.697 403.84 229.085C390.065 301.425 344.083 307.827 270.352 307.827C226.335 307.827 188.454 307.032 164.392 290.1C367.173 309.858 440.926 244.847 337.438 93.1252Z" fill="#000072"/>
</g>
<path fill-rule="evenodd" clip-rule="evenodd" d="M153.222 151.889C170.375 115.377 199.558 84.9794 234.414 73.0589C219.911 63.1472 202.847 54.2289 183.134 46.5689C163.178 38.8206 153.399 43.5667 152.428 60.3437C150.595 91.3812 150.33 121.845 153.222 151.889Z" fill="white"/>
<path d="M153.222 156.26C152.737 156.26 152.251 156.171 151.787 156.017C150.176 155.465 149.028 154.008 148.873 152.33C146.224 124.891 145.96 95.5976 148.057 60.101C148.586 51.0944 151.544 44.7809 156.82 41.4035C163.178 37.3196 172.295 37.6949 184.701 42.5072C204.26 50.101 221.809 59.1738 236.864 69.4608C238.233 70.3879 238.961 72.0215 238.719 73.655C238.498 75.2886 237.372 76.6572 235.805 77.2091C203.487 88.2687 174.834 116.149 157.174 153.743C156.975 154.185 156.688 154.582 156.357 154.913C155.54 155.774 154.392 156.26 153.222 156.26ZM167.394 47.3196C164.988 47.3196 163.023 47.7831 161.567 48.7324C158.763 50.5425 157.152 54.5381 156.798 60.6087C155.099 89.1958 154.966 113.699 156.379 136.392C173.509 106.525 197.703 83.7654 224.9 72.0656C212.052 64.0303 197.505 56.856 181.566 50.6529C175.871 48.4454 171.103 47.3196 167.394 47.3196Z" fill="#000072"/>
<path fill-rule="evenodd" clip-rule="evenodd" d="M169.558 122.948C178.961 106.414 194.304 91.006 212.03 81.7124C204.436 76.5248 195.518 71.8669 185.209 67.8493C174.767 63.7875 169.668 66.282 169.138 75.0457C168.189 91.2929 168.056 107.253 169.558 122.948Z" fill="#F961BA"/>
<path d="M169.558 126.083C169.293 126.083 169.006 126.039 168.741 125.973C167.483 125.642 166.578 124.56 166.445 123.258C165.054 108.843 164.922 93.4783 166.026 74.8912C166.313 69.9022 167.99 66.3702 170.993 64.4497C174.547 62.1539 179.58 62.3305 186.335 64.9574C196.6 68.953 205.849 73.7212 213.796 79.1517C214.701 79.7698 215.209 80.8073 215.143 81.911C215.076 83.0148 214.458 83.9861 213.487 84.4938C196.754 93.2797 181.743 107.849 172.295 124.494C172.229 124.604 172.185 124.692 172.096 124.781C171.5 125.597 170.551 126.083 169.558 126.083ZM176.975 69.1075C175.893 69.1075 175.01 69.3062 174.392 69.7036C173.156 70.4983 172.45 72.3526 172.273 75.2665C171.434 89.5711 171.324 101.911 171.964 113.346C180.882 100.564 192.825 89.3945 206.004 81.5358C199.469 77.5181 192.118 73.8978 184.083 70.7852C181.213 69.6594 178.785 69.1075 176.975 69.1075Z" fill="#000072"/>
<g opacity="0.3">
<path fill-rule="evenodd" clip-rule="evenodd" d="M156.158 145.951C173.597 112.132 201.478 84.3394 234.414 73.0591C219.911 63.1474 202.847 54.2291 183.134 46.5691C171.743 42.1541 163.686 41.8009 158.675 45.4212C193.465 55.0679 207.946 65.1562 202.14 75.686C181.456 87.452 164.944 110.52 152.604 144.913C153.796 145.266 154.988 145.62 156.158 145.951Z" fill="#000072"/>
</g>
<path fill-rule="evenodd" clip-rule="evenodd" d="M434.656 429.923C435.937 421.027 432.471 411.866 424.281 402.396C399.977 400.806 377.35 407.915 356.4 423.698C351.61 427.319 346.908 431.38 342.272 435.906C378.983 435.31 409.778 433.323 434.656 429.923Z" fill="#FFB531"/>
<path fill-rule="evenodd" clip-rule="evenodd" d="M390.065 154.869C372.493 117.474 340.043 87.2534 304.348 75.0238C319.204 64.8914 339.226 54.8472 359.425 46.9885C379.866 39.0415 389.866 43.9201 390.882 61.0945C392.758 92.8825 393.023 124.097 390.065 154.869Z" fill="#FFB531"/>
<path d="M390.065 159.24C388.696 159.24 387.394 158.6 386.555 157.474L386.533 157.452C386.356 157.209 386.202 156.966 386.091 156.701C369.138 120.631 337.261 90.9176 302.935 79.1517C301.368 78.6219 300.242 77.2532 300.021 75.5976C299.8 73.9641 300.529 72.3305 301.897 71.4034C316.688 61.3151 336.555 51.1827 357.857 42.9045C370.551 37.9818 379.844 37.6065 386.312 41.7566C391.698 45.2224 394.701 51.6241 395.252 60.8294C397.394 97.1649 397.129 127.165 394.436 155.266C394.259 157.076 393.001 158.578 391.257 159.063C390.837 159.174 390.462 159.24 390.065 159.24ZM313.95 74.0082C343.31 86.3481 369.513 109.946 386.908 139.527C388.409 116.105 388.255 90.8514 386.511 61.3592C386.135 55.112 384.48 50.984 381.566 49.1297C377.725 46.6573 370.617 47.3416 360.992 51.0723C343.862 57.7389 327.195 65.8846 313.95 74.0082Z" fill="#000072"/>
<path fill-rule="evenodd" clip-rule="evenodd" d="M372.449 127.297C360.352 111.271 343.222 96.1495 326.29 83.942C334.325 78.2687 343.773 73.1252 354.745 68.644C365.848 64.1186 371.345 66.7014 372.051 76.0833C373.354 93.4122 373.795 110.454 372.449 127.297Z" fill="#F961BA"/>
<path d="M372.449 130.41C371.433 130.41 370.484 129.924 369.888 129.085C356.356 111.16 337.725 96.0169 324.458 86.4585C323.641 85.8624 323.155 84.9132 323.155 83.9198C323.155 82.9044 323.641 81.9772 324.48 81.3812C332.868 75.443 342.648 70.1892 353.553 65.7521C360.661 62.8603 365.959 62.5733 369.756 64.9353C372.934 66.9 374.767 70.5865 375.142 75.8404C376.643 95.7079 376.775 112.132 375.539 127.54C375.429 128.909 374.436 130.057 373.089 130.344C372.89 130.388 372.669 130.41 372.449 130.41ZM331.72 84.0302C343.288 92.6395 357.813 104.803 369.866 119.041C370.484 106.238 370.175 92.4408 368.961 76.304C368.718 73.1252 367.901 71.0943 366.511 70.2333C365.186 69.4166 362.25 68.953 355.959 71.5358C346.996 75.1561 338.873 79.3503 331.72 84.0302Z" fill="#000072"/>
<g opacity="0.3">
<path fill-rule="evenodd" clip-rule="evenodd" d="M390.065 154.869C372.802 118.136 341.191 88.3128 306.224 75.6859C306.776 74.6484 307.372 73.6109 308.012 72.5733C350.771 56.0612 390.573 173.853 384.568 45.9067C388.365 48.7103 390.418 53.8096 390.86 61.1164C392.758 92.8823 393.023 124.096 390.065 154.869Z" fill="#000072"/>
</g>
<path d="M345.363 438.996C343.641 440.674 340.882 440.652 339.204 438.952C337.526 437.23 337.548 434.471 339.248 432.793C353.288 419.04 368.166 409.349 383.884 403.698C389.954 401.513 396.158 399.945 402.449 398.974C400.926 398.091 399.469 397.164 398.034 396.171C387.99 389.239 379.866 379.482 374.921 367.76C369.977 356.038 368.674 343.411 370.749 331.381C372.824 319.328 378.277 307.871 386.842 298.489C395.407 289.085 406.334 282.595 418.144 279.438C429.954 276.259 442.648 276.414 454.767 280.255C473.884 286.281 413.222 276.392 393.31 304.361C385.893 312.506 381.169 322.44 379.358 332.86C377.57 343.301 378.696 354.25 382.957 364.405C387.239 374.559 394.259 383.014 403.001 389.018C409.469 393.478 416.886 396.59 424.767 398.047C428.806 398.312 442.427 401.513 443.001 403.787C442.515 406.965 427.835 407.407 423.906 406.745C411.036 405.928 398.674 407.65 386.842 411.888C372.317 417.098 358.498 426.149 345.363 438.996Z" fill="#000072"/>
<path d="M93.5976 197.738C99.9552 192.97 108.123 190.498 116.247 190.167C120.33 189.99 124.414 190.277 128.41 191.05C132.383 191.822 136.269 192.97 139.933 194.626C141.5 195.332 142.207 197.187 141.5 198.776C140.86 200.189 139.315 200.895 137.858 200.52H137.814C134.171 199.571 130.617 198.533 127.019 197.694C123.421 196.878 119.801 196.149 116.136 195.818C112.472 195.487 108.763 195.487 105.077 195.928C101.368 196.348 97.6815 197.253 94.017 198.533C93.7742 198.621 93.5314 198.489 93.4431 198.268C93.3768 198.048 93.4431 197.849 93.5976 197.738Z" fill="#000072"/>
<path d="M136.71 236.546C132.957 236.392 129.249 236.105 125.562 236.039C121.876 235.973 118.189 236.017 114.525 236.436C110.86 236.856 107.24 237.584 103.686 238.732C100.132 239.858 96.6659 241.447 93.3105 243.368C93.0898 243.5 92.8249 243.412 92.6924 243.213C92.5821 243.037 92.6262 242.816 92.7587 242.683C98.145 236.856 105.628 232.882 113.509 230.917C117.461 229.924 121.522 229.35 125.562 229.284C129.602 229.218 133.642 229.527 137.549 230.365C139.249 230.741 140.308 232.396 139.955 234.096C139.624 235.619 138.255 236.635 136.754 236.569L136.71 236.546Z" fill="#000072"/>
<path d="M144.171 261.05C141.015 263.5 137.703 265.575 134.569 267.76C131.434 269.946 128.343 272.109 125.518 274.626C122.692 277.12 120.087 279.88 117.747 282.926C115.385 285.972 113.332 289.284 111.346 292.727C111.213 292.948 110.948 293.014 110.728 292.904C110.551 292.793 110.463 292.595 110.507 292.418C111.39 288.489 112.759 284.648 114.591 280.961C116.423 277.297 118.763 273.809 121.5 270.674C124.238 267.54 127.306 264.692 130.595 262.264C133.884 259.813 137.284 257.672 140.75 255.818C142.273 255.001 144.171 255.575 144.988 257.098C145.761 258.467 145.363 260.122 144.171 261.05Z" fill="#000072"/>
<path d="M388.343 189.218C392.934 187.584 397.747 186.502 402.581 185.818C407.438 185.134 412.36 184.935 417.239 185.09C427.018 185.421 436.709 187.363 445.605 191.006C445.826 191.094 445.936 191.359 445.848 191.602C445.76 191.8 445.561 191.911 445.363 191.867C435.936 190.454 426.577 190.012 417.327 190.719C412.714 191.05 408.144 191.734 403.597 192.507C399.049 193.279 394.568 194.273 390.02 195.222H389.998C388.299 195.575 386.643 194.494 386.29 192.794C386.003 191.249 386.886 189.725 388.343 189.218Z" fill="#000072"/>
<path d="M286.93 421.535C270.97 421.535 254.215 411.093 240.109 391.999C229.226 399.063 213.2 407.032 192.339 415.751C190.683 416.436 188.785 416.06 187.527 414.78C179.889 406.987 173.796 398.202 169.447 388.709C168.542 386.723 169.226 384.383 171.081 383.213C209.513 358.798 249.579 337.672 282.295 348.378C306.511 356.303 320.86 371.645 320.661 389.46C320.506 403.544 311.124 415.817 297.283 420.012C293.928 421.027 290.44 421.535 286.93 421.535ZM241.213 381.623C241.478 381.623 241.721 381.645 241.986 381.69C243.133 381.888 244.149 382.55 244.811 383.522C260.175 405.972 278.851 416.48 294.789 411.645C304.966 408.555 311.853 399.592 311.963 389.35C312.118 375.553 300.021 363.345 279.623 356.679C251.191 347.385 213.134 367.12 179.094 388.511C182.427 394.957 186.666 400.983 191.765 406.546C213.045 397.539 228.829 389.438 238.674 382.44C239.425 381.888 240.308 381.623 241.213 381.623Z" fill="#000072"/>
<path d="M386.665 219.063C391.036 218.026 395.584 217.628 400.109 217.739C404.657 217.849 409.182 218.599 413.553 219.858C417.924 221.116 422.096 222.948 425.937 225.266C429.778 227.584 433.244 230.41 436.268 233.61C436.445 233.787 436.422 234.074 436.246 234.251C436.091 234.383 435.871 234.405 435.694 234.317C428.321 229.769 420.418 226.657 412.294 225.354C408.233 224.692 404.127 224.493 400.021 224.516C395.915 224.538 391.809 224.891 387.659 225.222H387.637C385.915 225.354 384.414 224.074 384.259 222.352C384.127 220.807 385.186 219.416 386.665 219.063Z" fill="#000072"/>
<path d="M388.144 247.915C391.279 248.621 394.303 249.725 397.283 251.006C400.241 252.286 403.089 253.897 405.848 255.663C408.586 257.451 411.191 259.482 413.53 261.822C415.848 264.162 417.835 266.922 419.071 269.924C419.16 270.145 419.049 270.409 418.828 270.52C418.652 270.586 418.453 270.542 418.343 270.409L418.321 270.387C416.157 268.114 413.795 266.259 411.213 264.692C408.652 263.125 405.937 261.778 403.177 260.586C400.418 259.372 397.57 258.334 394.745 257.231C391.897 256.149 389.049 255.111 386.224 253.809L386.179 253.787C384.612 253.058 383.906 251.204 384.634 249.637C385.23 248.312 386.731 247.606 388.144 247.915Z" fill="#000072"/>
<g opacity="0.3">
<path fill-rule="evenodd" clip-rule="evenodd" d="M488.961 416.038C490.771 406.215 488.564 395.288 482.294 383.235C483.133 402.286 477.703 411.601 466.533 414.074C429.756 422.219 388.542 428.996 342.229 431.535C352.162 438.003 382.957 437.473 434.657 429.923C461.698 425.641 479.8 421.005 488.961 416.038Z" fill="#000072"/>
</g>
<path d="M303.42 440.233C303.31 440.233 303.178 440.233 303.067 440.21C300.661 440.012 298.873 437.915 299.072 435.508C299.535 429.703 298.961 422.595 297.328 414.339C296.864 411.977 298.387 409.681 300.771 409.195C303.133 408.731 305.429 410.255 305.915 412.639C307.703 421.69 308.343 429.614 307.791 436.215C307.593 438.511 305.672 440.233 303.42 440.233Z" fill="#000072"/>
<path fill-rule="evenodd" clip-rule="evenodd" d="M561.985 428.489C558.1 437.363 554.325 446.038 550.638 454.493C544.303 508.577 560.285 539.239 598.585 546.435C595.142 536.457 592.206 528.819 589.822 523.499C598.387 524.095 604.303 523.897 607.548 522.903C571.786 513.102 556.599 481.645 561.985 428.489Z" fill="#FF1F45"/>
<path d="M598.585 549.548C598.387 549.548 598.21 549.526 598.011 549.504C557.989 541.976 541.014 509.901 547.548 454.14C547.592 453.831 547.658 453.544 547.791 453.257L559.137 427.252C559.755 425.84 561.301 425.089 562.78 425.486C564.259 425.884 565.252 427.297 565.097 428.82C559.844 480.696 573.994 510.497 608.387 519.901C609.733 520.276 610.66 521.469 610.682 522.859C610.704 524.25 609.799 525.486 608.475 525.884C605.561 526.767 601.014 527.098 594.678 526.877C596.687 531.778 598.983 538.003 601.543 545.42C601.897 546.48 601.676 547.627 600.947 548.488C600.351 549.151 599.49 549.548 598.585 549.548ZM553.685 455.31C547.967 505.023 561.08 533.499 593.773 542.153C591.168 534.846 588.872 528.996 586.974 524.78C586.532 523.786 586.621 522.616 587.261 521.711C587.879 520.806 588.938 520.299 590.042 520.387C591.014 520.453 591.919 520.519 592.802 520.563C569.049 508.29 557.349 483.257 557.835 445.84L553.685 455.31Z" fill="#000072"/>
<g opacity="0.5">
<path fill-rule="evenodd" clip-rule="evenodd" d="M549.446 469.107C547.835 506.148 558.652 530.166 581.852 541.137C583.331 540.276 584.855 539.327 586.422 538.267C562.89 528.069 551.411 499.129 551.963 451.447C550.992 457.628 550.153 463.522 549.446 469.107Z" fill="white"/>
</g>
<g opacity="0.3">
<path fill-rule="evenodd" clip-rule="evenodd" d="M559.821 433.455L554.656 445.288L554.634 445.332C554.192 478.753 565.782 497.738 576.466 513.941C580.991 520.806 590.594 535.177 584.678 542.373C590.793 544.537 590.484 544.89 598.607 546.413C595.164 536.435 592.228 528.797 589.843 523.477C598.409 524.073 604.325 523.875 607.57 522.881C571.874 513.124 556.687 481.756 561.985 428.798C561.256 430.321 560.528 431.866 559.821 433.455Z" fill="#000072"/>
</g>
<path fill-rule="evenodd" clip-rule="evenodd" d="M153.752 369.107C185.165 369.107 210.661 380.564 210.661 394.692C212.052 442.352 200.352 467.208 175.672 470.232C165.341 471.491 154.26 472.021 142.207 471.402C106.533 469.592 96.8867 423.014 96.8867 394.67C96.8647 380.564 122.339 369.107 153.752 369.107Z" fill="#E5E5E5"/>
<path d="M152.273 476.06C148.851 476.06 145.429 475.972 141.964 475.795C124.569 474.912 110.816 464.184 102.162 444.802C93.4429 425.244 92.4937 403.257 92.4937 394.714C92.4937 377.628 118.829 364.758 153.752 364.758C188.63 364.758 214.944 377.606 215.032 394.648C216.489 444.338 203.421 471.248 176.202 474.603C168.167 475.575 160.264 476.06 152.273 476.06ZM153.752 373.478C122.803 373.478 101.213 384.67 101.213 394.692C101.213 420.784 109.889 465.398 142.405 467.054C153.487 467.628 164.193 467.252 175.12 465.906C197.416 463.168 207.615 439.923 206.29 394.824C206.29 394.78 206.29 394.736 206.29 394.692C206.29 384.67 184.723 373.478 153.752 373.478Z" fill="#000072"/>
<path fill-rule="evenodd" clip-rule="evenodd" d="M142.185 471.424C106.512 469.614 96.8647 423.036 96.8647 394.692C96.8647 387.584 103.311 381.138 113.73 376.502C99.6462 401.38 121.721 414.648 179.977 416.325C155.121 423.389 131.743 421.248 109.867 409.901C110.286 438.422 121.059 458.93 142.185 471.424Z" fill="white"/>
<path d="M153.752 415.221C126.07 415.221 105.187 405.288 105.187 392.087C105.187 378.908 126.07 368.952 153.752 368.952C181.434 368.952 202.317 378.886 202.317 392.087C202.317 405.266 181.456 415.221 153.752 415.221ZM153.752 377.694C129.072 377.694 113.929 386.082 113.929 392.087C113.929 398.091 129.072 406.48 153.752 406.48C178.432 406.48 193.575 398.091 193.575 392.087C193.597 386.082 178.432 377.694 153.752 377.694Z" fill="#000072"/>
<path fill-rule="evenodd" clip-rule="evenodd" d="M195.297 398.511C189.116 405.707 172.847 410.851 153.752 410.851C133.134 410.851 115.827 404.868 110.926 396.767C138.719 382.904 167.814 382.815 195.297 398.511Z" fill="#663333"/>
<path d="M153.752 414.184C132.096 414.184 113.73 407.871 108.057 398.467C107.571 397.672 107.439 396.701 107.703 395.796C107.968 394.89 108.586 394.14 109.425 393.72C138.873 379.041 169.138 379.681 196.953 395.553C197.814 396.06 198.432 396.899 198.586 397.893C198.763 398.886 198.476 399.879 197.836 400.652C190.794 408.886 173.487 414.184 153.752 414.184ZM116.357 397.893C122.361 403.014 135.783 407.473 153.752 407.473C168.432 407.473 182.185 404.184 189.469 399.173C166.114 387.319 141.015 386.877 116.357 397.893Z" fill="#000072"/>
<path fill-rule="evenodd" clip-rule="evenodd" d="M210.75 405.001C228.211 407.076 241.522 417.716 241.522 430.519C241.522 444.824 224.966 456.413 204.503 456.413C202.626 456.413 200.794 456.325 199.006 456.126C201.324 452.771 203.31 448.842 204.966 444.316C213.597 443.897 223.156 439.835 223.156 430.696C223.156 424.471 218.167 419.04 210.22 417.252C210.529 413.367 210.706 409.305 210.75 405.001Z" fill="#E5E5E5"/>
<path d="M204.502 460.144C202.515 460.144 200.529 460.034 198.608 459.835C197.284 459.703 196.158 458.864 195.606 457.672C195.054 456.458 195.186 455.067 195.937 453.985C198.078 450.917 199.933 447.23 201.434 443.036C201.941 441.623 203.266 440.652 204.767 440.564C210.197 440.299 219.403 437.937 219.403 430.674C219.403 426.104 215.473 422.241 209.403 420.873C207.593 420.453 206.356 418.776 206.489 416.921C206.776 413.146 206.952 409.107 207.019 404.935C207.041 403.875 207.504 402.859 208.299 402.175C209.094 401.469 210.153 401.138 211.213 401.27C230.948 403.61 245.275 415.906 245.275 430.497C245.253 446.855 226.974 460.144 204.502 460.144ZM207.615 447.848C206.93 449.526 206.202 451.138 205.429 452.661C223.354 452.33 237.769 442.528 237.769 430.519C237.769 420.895 227.968 412.263 214.392 409.394C214.325 411.138 214.259 412.837 214.149 414.493C221.875 417.297 226.886 423.522 226.886 430.674C226.886 441.093 217.57 446.656 207.615 447.848Z" fill="#000072"/>
<path d="M152.273 476.06C148.851 476.06 145.429 475.972 141.964 475.795C124.569 474.912 110.816 464.184 102.162 444.802C93.4429 425.244 92.4937 403.257 92.4937 394.714C92.4937 377.628 118.829 364.758 153.752 364.758C188.63 364.758 214.944 377.606 215.032 394.648C216.489 444.338 203.421 471.248 176.202 474.603C168.167 475.575 160.264 476.06 152.273 476.06ZM153.752 373.478C122.803 373.478 101.213 384.67 101.213 394.692C101.213 420.784 109.889 465.398 142.405 467.054C153.487 467.628 164.193 467.252 175.12 465.906C197.416 463.168 207.615 439.923 206.29 394.824C206.29 394.78 206.29 394.736 206.29 394.692C206.29 384.67 184.723 373.478 153.752 373.478Z" fill="#000072"/>
<g opacity="0.3">
<path fill-rule="evenodd" clip-rule="evenodd" d="M199.05 456.06C201.368 452.727 203.332 448.82 204.944 444.316C213.575 443.897 223.134 439.835 223.134 430.696C223.134 424.471 218.145 419.04 210.198 417.252C210.441 414.228 210.595 411.093 210.683 407.804C222.162 412.197 229.955 420.718 229.955 430.519C229.955 443.367 216.599 454.029 199.05 456.06Z" fill="#000072"/>
</g>
<g opacity="0.5">
<path fill-rule="evenodd" clip-rule="evenodd" d="M142.03 332.683C151.964 325.994 154.481 317.231 145.871 310.255C141.346 306.568 135.606 303.279 138.984 299.217C142.626 294.846 147.108 291.337 145.584 285.84C144.061 280.365 138.653 276.9 133.046 277.783C127.439 278.688 122.715 283.743 123.642 289.35C126.467 306.458 120.397 311.226 107.505 317.518C95.43 323.389 96.6883 341.999 103.841 353.367C110.971 364.736 124.944 361.535 137.726 365.641C149.227 369.35 135.695 388.489 140.044 399.747C144.26 410.674 157.196 402.44 155.209 395.222C153.973 390.696 147.814 383.897 151.854 376.325C161.015 359.173 160.021 354.714 141.214 348.356C132.715 345.531 134.304 337.804 142.03 332.683Z" fill="white"/>
<path d="M146.6 408.798C142.803 408.798 138.719 406.833 136.511 401.116C134.238 395.222 135.827 388.202 137.24 381.976C139.359 372.573 139.227 370.078 136.556 369.217C132.715 367.981 128.609 367.451 124.613 366.921C115.651 365.751 106.379 364.537 100.64 355.376C95.2533 346.789 93.2665 335.244 95.7389 326.657C97.3945 320.895 100.882 316.568 105.849 314.162C118.255 308.114 122.383 304.692 119.933 289.99C119.381 286.635 120.22 283.213 122.295 280.321C124.657 277.032 128.366 274.758 132.428 274.096C139.955 272.904 147.13 277.518 149.182 284.847C150.993 291.359 146.931 295.884 143.686 299.526C143.068 300.211 142.45 300.895 141.854 301.601C141.809 301.646 141.787 301.69 141.765 301.734C142.251 302.705 144.657 304.56 146.136 305.685C146.843 306.237 147.549 306.767 148.233 307.341C153.951 311.999 154.988 316.899 154.834 320.211C154.569 325.862 150.882 331.248 144.105 335.796C144.105 335.796 144.083 335.796 144.083 335.818C140.485 338.202 139.072 340.851 139.249 342.308C139.425 343.654 141.28 344.471 142.361 344.846C151.831 348.047 158.167 351.138 160.352 356.701C162.56 362.286 160.198 368.533 155.077 378.113C153.156 381.712 154.48 385.001 156.754 389.57C157.549 391.182 158.322 392.727 158.741 394.25C160.419 400.365 155.65 406.414 150.132 408.224C149.072 408.599 147.858 408.798 146.6 408.798ZM134.812 281.403C134.414 281.403 134.017 281.425 133.62 281.491C131.545 281.822 129.58 283.014 128.366 284.692C127.726 285.575 127.019 287.01 127.306 288.754C130.617 308.754 121.854 314.692 109.094 320.895C106.048 322.374 103.973 325.001 102.913 328.732C101.037 335.288 102.693 344.604 106.975 351.403C110.86 357.584 117.35 358.423 125.584 359.504C129.889 360.078 134.348 360.652 138.851 362.087C148.697 365.244 146.401 375.442 144.547 383.632C143.333 389.063 142.052 394.67 143.509 398.422C144.767 401.689 146.578 401.535 147.836 401.116C150.132 400.365 152.008 397.893 151.567 396.237C151.346 395.398 150.728 394.184 150.088 392.882C147.924 388.489 144.635 381.844 148.52 374.581C151.765 368.489 154.613 362.462 153.421 359.46C152.45 357.032 148.454 354.78 139.977 351.932C133.598 349.769 132.118 345.575 131.832 343.279C131.213 338.489 134.238 333.367 139.933 329.57C144.503 326.502 147.196 322.97 147.35 319.857C147.461 317.562 146.158 315.288 143.509 313.147C142.869 312.639 142.207 312.131 141.567 311.623C138.189 309.019 134.679 306.325 134.26 302.44C134.105 301.072 134.304 298.975 136.114 296.811C136.776 296.016 137.439 295.266 138.123 294.515C141.368 290.895 142.648 289.173 141.986 286.833C141.059 283.588 138.101 281.403 134.812 281.403Z" fill="#000072"/>
<g opacity="0.3">
<path fill-rule="evenodd" clip-rule="evenodd" d="M142.03 332.683C151.964 325.994 154.48 317.231 145.871 310.255C141.346 306.568 135.606 303.279 138.984 299.217C142.626 294.847 147.107 291.337 145.584 285.84C144.061 280.365 138.652 276.9 133.045 277.783C131.015 278.114 129.116 278.975 127.549 280.211C127.041 280.696 126.511 281.182 125.981 281.712C138.034 277.716 141.39 281.535 130.838 306.988C128.675 312.22 132.251 313.566 138.498 317.12C141.809 318.997 133.928 326.899 128.255 337.275C122.361 348.091 130.794 353.014 141.588 355.487C149.028 357.186 147.394 362.352 146.798 367.186C144.193 388.312 144.878 395.663 149.447 404.537C150.507 403.963 151.522 403.345 152.471 402.683C154.635 400.762 155.937 397.937 155.209 395.244C153.973 390.718 147.814 383.919 151.853 376.347C161.014 359.195 160.021 354.736 141.235 348.378C132.714 345.531 134.304 337.804 142.03 332.683Z" fill="#000072"/>
</g>
</g>
<g opacity="0.3">
<path fill-rule="evenodd" clip-rule="evenodd" d="M377.394 387.252C376.974 394.913 375.252 402.065 372.206 408.731C376.047 406.811 379.932 405.133 383.884 403.698C389.954 401.513 396.157 399.946 402.449 398.974C400.926 398.091 399.469 397.164 398.034 396.171C388.895 389.879 381.367 381.248 376.356 370.917C377.327 376.59 377.659 382.021 377.394 387.252Z" fill="#000072"/>
</g>
<path d="M270.352 312.198C231.257 312.198 199.447 311.381 175.496 301.16C147.769 289.35 134.127 266.502 132.516 229.262C130.595 184.803 149.248 136.459 181.169 103.125C205.782 77.43 236.069 63.2578 266.423 63.2578C303.531 63.2578 343.508 84.7809 373.354 120.851C401.632 155.024 414.634 195.774 408.144 229.88C401.367 265.487 386.533 287.628 361.455 299.504C339.226 310.078 310.109 312.198 270.352 312.198ZM266.423 71.9995C238.476 71.9995 210.44 85.2004 187.482 109.174C157.151 140.851 139.425 186.723 141.235 228.887C142.67 262.374 154.657 282.794 178.917 293.125C201.367 302.683 232.272 303.456 270.352 303.456C341.831 303.456 386.201 298.401 399.535 228.268C405.539 196.701 393.243 158.622 366.599 126.436C338.829 92.8604 300.44 71.9995 266.423 71.9995Z" fill="#000072"/>
<g opacity="0.3">
<path fill-rule="evenodd" clip-rule="evenodd" d="M160.485 461.38C188.608 464.692 202.339 448.312 201.522 398.93C197.063 413.478 183.553 416.082 162.759 420.1C170.352 441.689 169.602 455.442 160.485 461.38Z" fill="#000072"/>
</g>
<path fill-rule="evenodd" clip-rule="evenodd" d="M118.785 423.72C119.999 423.433 121.832 426.855 122.869 431.358C123.907 435.862 123.752 439.747 122.516 440.034C121.302 440.321 119.47 436.899 118.432 432.396C117.417 427.871 117.571 424.007 118.785 423.72Z" fill="white"/>
<path d="M598.585 549.548C598.387 549.548 598.21 549.526 598.011 549.504C557.989 541.976 541.014 509.901 547.548 454.14C547.592 453.831 547.658 453.544 547.791 453.257L559.137 427.252C559.755 425.84 561.301 425.089 562.78 425.486C564.259 425.884 565.252 427.297 565.097 428.82C559.844 480.696 573.994 510.497 608.387 519.901C609.733 520.276 610.66 521.469 610.682 522.859C610.704 524.25 609.799 525.486 608.475 525.884C605.561 526.767 601.014 527.098 594.678 526.877C596.687 531.778 598.983 538.003 601.543 545.42C601.897 546.48 601.676 547.627 600.947 548.488C600.351 549.151 599.49 549.548 598.585 549.548ZM553.685 455.31C547.967 505.023 561.08 533.499 593.773 542.153C591.168 534.846 588.872 528.996 586.974 524.78C586.532 523.786 586.621 522.616 587.261 521.711C587.879 520.806 588.938 520.299 590.042 520.387C591.014 520.453 591.919 520.519 592.802 520.563C569.049 508.29 557.349 483.257 557.835 445.84L553.685 455.31Z" fill="#000072"/>
<path d="M342.361 440.255C339.954 440.299 337.968 438.378 337.946 435.972C337.901 433.566 339.822 431.579 342.228 431.557C429.976 438.135 504.855 412.683 515.936 399.283C510.373 412.617 492.713 422.639 462.978 429.35C434.435 435.795 394.237 439.438 342.361 440.255Z" fill="#000072"/>
<g opacity="0.3">
<path fill-rule="evenodd" clip-rule="evenodd" d="M311.08 372.617C326.842 417.76 275.297 436.016 244.899 383.522C285.23 414.67 307.305 411.049 311.08 372.617Z" fill="#000072"/>
</g>
<path d="M300.838 387.252C304.083 392.131 306.312 396.414 307.527 400.122C308.917 404.316 309.072 407.915 307.99 410.917C307.328 412.771 305.297 413.72 303.443 413.08C301.588 412.418 300.639 410.387 301.279 408.533C303.796 403.787 293.134 378.224 300.838 387.252Z" fill="#000072"/>
<path d="M200.286 159.328C188.255 157.076 176.092 167.518 173.134 182.617C170.176 197.739 177.549 211.822 189.58 214.074C201.611 216.326 213.774 205.884 216.732 190.785C219.69 175.664 212.339 161.58 200.286 159.328Z" fill="#000072"/>
<path d="M198.895 165.664C194.922 166.679 192.825 171.734 194.215 176.922C195.606 182.109 199.977 185.487 203.95 184.471C207.924 183.456 210.021 178.401 208.63 173.213C207.24 168.004 202.891 164.626 198.895 165.664Z" fill="white"/>
<path d="M183.178 197.253C181.258 198.246 180.794 201.094 182.141 203.611C183.509 206.127 186.158 207.363 188.101 206.348C190.021 205.354 190.485 202.507 189.138 199.99C187.77 197.474 185.099 196.238 183.178 197.253Z" fill="#B199C5"/>
<path d="M260.617 220.476C260.528 225.465 253.597 229.416 245.098 229.284C236.599 229.151 229.8 225.001 229.866 219.99C229.955 215.001 236.842 214.67 245.319 214.803C253.818 214.935 260.683 215.465 260.617 220.476Z" fill="#000072"/>
<path d="M280.595 226.127C280.705 230.189 279.822 234.604 277.085 238.401C275.716 240.277 273.84 241.889 271.698 243.015C269.557 244.14 267.129 244.736 264.767 244.891C262.383 245.045 259.999 244.736 257.769 244.074C255.517 243.434 253.398 242.418 251.434 241.16C249.491 239.88 247.725 238.313 246.202 236.547C245.827 236.083 245.473 235.619 245.12 235.156L244.634 234.427L244.392 234.052C244.303 233.942 244.193 233.743 244.259 233.875C244.502 234.251 244.966 234.471 245.297 234.471C245.628 234.494 246.113 234.273 246.356 233.898C246.423 233.787 246.312 233.964 246.224 234.074L245.959 234.427L245.451 235.134C245.076 235.597 244.701 236.039 244.325 236.48C242.736 238.202 240.948 239.725 238.939 240.939C236.952 242.132 234.789 243.081 232.537 243.655C230.286 244.251 227.902 244.471 225.518 244.251C223.133 244.03 220.749 243.368 218.63 242.154C216.511 240.962 214.701 239.284 213.398 237.363C210.771 233.478 210.043 229.041 210.264 225.001C210.308 224.317 210.904 223.787 211.588 223.809C212.14 223.831 212.582 224.207 212.714 224.692L212.736 224.736C213.818 228.335 215.297 231.712 217.659 233.853C219.955 236.039 222.824 237.01 225.827 236.878C228.829 236.789 231.875 235.641 234.436 233.875C235.716 232.992 236.886 231.955 237.88 230.785L238.586 229.88L239.381 228.776C240.065 227.827 241.014 227.01 242.096 226.48C243.155 225.951 244.325 225.708 245.473 225.73C246.621 225.752 247.769 226.039 248.829 226.591C249.888 227.143 250.815 227.981 251.456 228.953L252.206 230.101L252.891 231.028C253.84 232.242 254.988 233.301 256.224 234.229C258.718 236.061 261.721 237.319 264.723 237.496C267.725 237.717 270.617 236.834 272.979 234.736C275.407 232.661 276.996 229.35 278.188 225.774L278.211 225.73C278.431 225.068 279.138 224.714 279.8 224.935C280.264 225.156 280.595 225.619 280.595 226.127Z" fill="#000072"/>
<path d="M225.54 240.697C225.474 245.928 226.953 250.123 229.403 253.301C236.732 262.882 252.648 263.081 260.22 253.721C262.736 250.608 264.348 246.436 264.414 241.226C256.886 239.615 250.33 236.745 245.098 232.154C239.535 236.988 233.244 240.321 225.54 240.697Z" fill="#000072"/>
<path d="M229.403 253.301C236.732 262.882 252.648 263.081 260.22 253.721C252.891 244.118 236.952 243.897 229.403 253.301Z" fill="#EB5463"/>
<path d="M244.988 264.979C244.877 264.979 244.767 264.979 244.657 264.979C232.847 264.825 220.992 256.414 221.191 240.653L229.888 240.763C229.756 251.337 237.262 256.171 244.767 256.282C252.273 256.392 259.91 251.756 260.065 241.182L268.763 241.293C268.542 256.878 256.688 264.979 244.988 264.979Z" fill="#000072"/>
</svg>
