<svg width="626" height="600" viewBox="0 0 626 600" fill="none" xmlns="http://www.w3.org/2000/svg">
<ellipse cx="313" cy="299.5" rx="313" ry="299.5" fill="#B0A2D7"/>
<path d="M221.781 565.018C160.975 599.852 103.214 568.043 94.4582 519.884C92.7451 510.43 92.9143 500.32 95.3254 489.978C96.7424 483.908 98.9209 477.774 101.945 471.599C104.61 466.142 107.36 460.685 110.025 455.207C119.309 436.109 127.643 417.032 129.102 399.266C129.8 390.827 128.954 382.663 125.929 374.922C124.322 370.84 121.742 367.308 118.548 364.516C113.091 359.694 105.879 357.029 99.0055 357.325C85.3214 357.896 72.8852 370.29 77.8978 401.19C84.9196 444.59 37.7339 458.168 20.3909 420.944C19.6295 419.295 18.9316 417.539 18.2971 415.72C18.0856 415.086 17.8741 414.451 17.6626 413.796C6.83377 379.131 19.9468 319.128 73.4986 306.544C75.952 305.952 78.5111 305.486 81.1337 305.106C91.4549 303.646 101.269 303.942 110.405 305.719C153.89 314.243 181.279 357.05 167.574 410.75C160.214 439.577 130.392 493.933 143.019 520.18C147.016 528.492 159.283 534.964 173.813 534.287C174.194 534.287 174.574 534.266 174.955 534.224C185.424 533.462 196.993 528.978 207.42 518.826L221.781 565.018Z" fill="white"/>
<g opacity="0.2">
<path d="M145.028 384.651C142.363 416.989 120.092 444.4 110.046 455.228C119.331 436.13 127.664 417.053 129.123 399.287C129.821 390.848 128.975 382.684 125.951 374.943C124.343 370.861 121.763 367.329 118.569 364.537C113.113 359.715 105.9 357.05 99.0268 357.346C85.3427 357.917 72.9065 370.311 77.9191 401.211C84.9409 444.611 37.7552 458.189 20.4122 420.965C19.6508 419.316 18.9529 417.56 18.3184 415.741C27.0322 422.298 47.5688 434.882 60.9144 420.098L77.0942 346.369C92.8086 323.506 148.497 342.71 145.028 384.651Z" fill="#000072"/>
</g>
<path d="M118.548 364.516C113.091 359.694 105.879 357.029 99.0055 357.325C85.3214 357.896 72.8852 370.29 77.8978 401.19C84.9196 444.59 37.7339 458.168 20.3909 420.944C19.6295 419.295 18.9316 417.539 18.2971 415.72C18.0856 415.086 17.8741 414.451 17.6626 413.796C6.83377 379.131 19.9468 319.128 73.4986 306.544C75.952 305.952 78.5111 305.486 81.1337 305.106C91.4549 303.646 101.269 303.942 110.405 305.719C114.953 312.931 119.923 324.754 120.325 342.224C120.494 348.844 119.986 356.246 118.548 364.516Z" fill="#FFB531"/>
<path d="M118.548 364.516C113.092 359.694 105.88 357.029 99.0058 357.325C85.3217 357.896 72.8855 370.29 77.8981 401.19C84.9199 444.59 37.7342 458.168 20.3912 420.944C19.6298 419.295 18.9319 417.539 18.2974 415.72C27.0112 422.277 47.5478 434.861 60.8935 420.077C76.4176 402.903 59.0323 369.465 77.0732 346.348C85.9985 334.906 104.42 333.933 120.325 342.203C120.494 348.844 119.987 356.246 118.548 364.516Z" fill="#E5711A"/>
<path d="M170.049 583.419C167.299 583.419 164.571 583.292 161.864 583.038C143.23 581.325 126.437 573.901 113.345 561.613C88.5153 538.327 82.7625 502.351 98.6673 469.991C99.6825 467.94 100.698 465.867 101.713 463.815C116.835 433.254 132.465 401.677 122.525 376.276C118.358 365.616 105.52 358.784 95.0507 361.64C82.9952 364.939 78.0884 379.131 81.557 400.619C85.5543 425.238 73.1604 440.614 59.138 444.928C45.3693 449.158 27.0111 443.871 17.0706 422.509C6.53791 399.9 8.65291 366.695 22.2101 341.759C30.8181 325.917 47.9285 306.079 80.6475 301.468C109.602 297.407 136.378 306.438 154.144 326.277C173.348 347.723 179.545 378.856 171.148 411.702C168.991 420.162 164.973 430.694 160.7 441.862C150.591 468.341 138.006 501.314 146.339 518.615C148.962 524.051 156.238 528.556 164.867 530.099C178.72 532.553 193.292 527.498 204.84 516.246C206.3 514.829 208.626 514.85 210.064 516.31C211.481 517.769 211.46 520.096 210.001 521.534C196.719 534.478 179.82 540.251 163.598 537.375C152.536 535.408 143.378 529.465 139.698 521.83C130.012 501.674 142.659 468.511 153.827 439.26C158.014 428.305 161.969 417.941 164.021 409.904C171.783 379.49 166.199 350.811 148.666 331.226C132.571 313.249 108.164 305.085 81.705 308.807C52.0316 312.974 36.5075 330.951 28.7243 345.312C14.7864 370.967 15.6959 402.015 23.7963 419.422C31.8756 436.743 46.2999 441.185 57.0018 437.885C67.175 434.755 77.8134 423.44 74.3025 401.804C68.2325 364.368 87.1829 356.162 93.126 354.533C107.254 350.684 123.857 359.398 129.419 373.589C140.544 402.036 124.174 435.115 108.354 467.094C107.339 469.145 106.324 471.197 105.308 473.248C90.6514 503.091 95.664 534.879 118.421 556.241C144.055 580.288 183.923 582.488 219.984 561.824C221.76 560.809 224.002 561.423 225.017 563.199C226.033 564.976 225.419 567.218 223.643 568.233C206.13 578.237 187.772 583.419 170.049 583.419Z" fill="#000072"/>
<g opacity="0.2">
<path d="M221.781 565.018C160.975 599.852 103.215 568.043 94.4585 519.884C101.798 544.185 141.56 559.9 173.792 534.329C174.173 534.329 174.554 534.308 174.934 534.266C185.403 533.505 196.973 529.021 207.399 518.869L221.781 565.018Z" fill="#000072"/>
</g>
<path d="M432.626 567.239C411.138 592.492 370.487 579.781 325.776 579.781C281.065 579.781 240.415 592.492 218.926 567.239C198.813 543.635 195.831 515.76 200.885 486.805C205.644 459.522 217.531 431.265 228.909 404.722L245.723 362.465L254.035 341.568L396.904 323.506C396.904 334.695 400.14 347.554 405.068 361.534C418.159 398.758 443.18 443.955 450.646 486.805C455.701 515.76 452.719 543.635 432.626 567.239Z" fill="white"/>
<path d="M280.875 573.668C280.875 573.668 261.565 437.441 324.232 430.081C324.232 430.081 395.169 429.425 371.206 577.349H291.471L280.875 573.668Z" fill="#FFB531"/>
<g opacity="0.2">
<path d="M405.088 361.555C385.038 370.502 356.295 376.106 324.359 376.106C293.522 376.106 265.667 370.882 245.744 362.465L254.056 341.568L396.924 323.506C396.903 334.695 400.16 347.554 405.088 361.555Z" fill="#000072"/>
</g>
<g opacity="0.2">
<path d="M432.626 567.239C411.138 592.492 370.487 579.781 325.776 579.781C281.065 579.781 240.415 592.492 218.926 567.239C198.813 543.635 195.831 515.76 200.885 486.805C216.262 480.566 244.074 471.366 269.01 474.263L251.455 453.24C251.455 453.24 307.27 441.079 306.149 467.305C305.747 476.315 303.357 482.935 300.46 487.694C301.496 488.645 302.49 489.639 303.463 490.697C320.066 508.928 314.144 537.502 325.797 537.502C337.43 537.502 331.508 508.949 348.132 490.697C375.161 461.024 427.317 477.33 450.688 486.827C455.701 515.76 452.719 543.635 432.626 567.239Z" fill="#000072"/>
</g>
<path d="M263.32 586.676C244.094 586.676 227.746 583.292 216.113 569.629C174.913 521.216 202.958 455.821 225.525 403.263C226.328 401.381 228.507 400.535 230.368 401.317C232.25 402.121 233.096 404.299 232.314 406.16C210.572 456.836 183.5 519.926 221.739 564.849C236.354 582.023 261.839 580.077 291.344 577.814C302.426 576.968 313.89 576.08 325.776 576.08C337.683 576.08 349.125 576.968 360.208 577.814C389.712 580.077 415.198 582.023 429.813 564.849C468.073 519.905 441.466 457.914 417.99 403.242C405.258 373.589 393.223 345.566 393.223 323.506C393.223 321.476 394.873 319.826 396.903 319.826C398.934 319.826 400.583 321.476 400.583 323.506C400.583 344.064 412.322 371.39 424.758 400.344C449.08 457.005 476.66 521.216 435.417 569.65C418.37 589.679 391.15 587.606 359.637 585.195C348.702 584.349 337.387 583.482 325.755 583.482C314.143 583.482 302.828 584.349 291.893 585.195C281.89 585.935 272.287 586.676 263.32 586.676Z" fill="#000072"/>
<path d="M211.101 447.318C185.552 526.631 190.162 596.13 263.891 596.13C285.38 596.13 307.333 598.943 310.802 578.385C313.044 565.124 300.164 557.362 290.223 555.035C311.14 540.484 315.413 479.932 254.035 466.988" fill="white"/>
<path d="M214.612 448.46C211.08 459.501 208.013 470.668 205.602 481.962C203.17 493.256 201.541 504.677 200.928 516.098C200.378 527.498 200.97 538.982 203.677 549.853C205.073 555.268 207.019 560.492 209.641 565.293C212.264 570.094 215.585 574.493 219.582 578.131C223.6 581.769 228.253 584.688 233.287 586.845C238.321 589.023 243.672 590.546 249.213 591.329L251.286 591.667L253.38 591.857L257.567 592.238L261.797 592.365L263.912 592.428H266.133C272.034 592.471 277.85 592.661 283.497 592.45C289.102 592.196 294.686 591.561 299.085 589.404C300.185 588.875 301.179 588.241 302.046 587.5C302.934 586.781 303.717 585.935 304.351 585.005C305.684 583.165 306.53 580.859 307.016 578.364C307.46 575.953 307.418 573.711 306.699 571.553C306.001 569.417 304.69 567.429 302.955 565.716C299.444 562.269 294.432 559.836 289.377 558.631C287.389 558.144 286.162 556.156 286.649 554.168C286.86 553.322 287.347 552.603 287.981 552.095L288.108 552.011C289.715 550.763 291.175 549.24 292.507 547.548C293.755 545.793 294.961 543.953 295.87 541.901C297.773 537.883 298.979 533.462 299.614 528.957C300.861 519.947 299.719 510.557 296.187 502.181C294.411 497.994 292.042 494.081 289.165 490.528C286.289 486.975 282.863 483.887 279.14 481.137C275.439 478.366 271.294 476.146 267.043 474.094C265.964 473.608 264.885 473.121 263.807 472.614C262.707 472.17 261.586 471.747 260.465 471.302C259.915 471.07 259.365 470.837 258.794 470.626L257.081 470.033C255.939 469.632 254.797 469.209 253.655 468.786L253.57 468.764C252.618 468.405 252.132 467.326 252.491 466.374C252.787 465.571 253.591 465.105 254.416 465.19C264.441 466.226 274.508 469.399 283.265 475.194C291.936 480.989 299.275 489.259 303.505 499.03C307.799 508.759 309.173 519.651 307.629 530.121C307.27 532.743 306.656 535.345 305.916 537.904C305.493 539.173 305.07 540.442 304.584 541.69C304.055 542.916 303.569 544.185 302.913 545.37C301.75 547.802 300.206 550.086 298.535 552.286C296.779 554.443 294.707 556.41 292.317 558.06L291.048 551.44C294.199 552.18 297.224 553.301 300.1 554.76C302.976 556.241 305.726 558.081 308.137 560.471C310.548 562.84 312.6 565.822 313.721 569.269C314.863 572.695 314.905 576.46 314.249 579.781C313.615 583.017 312.452 586.358 310.358 589.256C309.343 590.715 308.116 592.048 306.741 593.169C305.387 594.311 303.886 595.263 302.363 596.003C299.296 597.547 296.103 598.35 292.994 598.921C289.885 599.45 286.818 599.704 283.793 599.831C277.744 600.064 271.865 599.852 266.07 599.81H263.912L261.649 599.746L257.123 599.598C255.622 599.471 254.099 599.323 252.597 599.175L250.334 598.964L248.071 598.583C242.043 597.716 236.037 596.045 230.347 593.571C224.658 591.117 219.265 587.754 214.612 583.545C209.959 579.315 206.131 574.239 203.17 568.804C200.187 563.347 198.051 557.531 196.528 551.63C193.567 539.765 192.996 527.625 193.567 515.696C194.202 503.768 195.915 491.966 198.39 480.397C200.864 468.807 203.994 457.407 207.59 446.176C208.203 444.23 210.297 443.173 212.222 443.786C214.168 444.421 215.246 446.515 214.612 448.46Z" fill="#000072"/>
<path d="M292.126 558.335C291.534 558.652 291.132 558.8 290.667 559.011C290.202 559.223 289.758 559.371 289.314 559.561C288.425 559.9 287.516 560.217 286.627 560.492C284.83 561.063 283.032 561.528 281.234 561.909C277.618 562.692 273.98 563.157 270.342 563.411C268.523 563.474 266.704 563.601 264.885 563.538C263.976 563.516 263.066 563.538 262.157 563.495L259.45 563.347C257.652 563.284 255.854 562.988 254.078 562.818C252.301 562.586 250.524 562.269 248.748 561.994C247.733 561.846 247.056 560.894 247.204 559.9C247.352 558.948 248.198 558.292 249.129 558.335H249.255C250.969 558.44 252.703 558.588 254.416 558.652C256.129 558.652 257.842 558.779 259.555 558.673L262.115 558.588C262.961 558.546 263.807 558.462 264.674 558.398C266.366 558.292 268.058 558.017 269.729 557.806C273.07 557.256 276.37 556.516 279.542 555.522C281.128 555.035 282.694 554.464 284.195 553.83C284.957 553.512 285.697 553.174 286.416 552.836C286.776 552.666 287.135 552.476 287.473 552.307C287.791 552.138 288.193 551.905 288.362 551.799C290.096 550.636 292.465 551.101 293.628 552.836C294.791 554.57 294.326 556.939 292.592 558.102C292.465 558.187 292.359 558.25 292.232 558.313L292.126 558.335Z" fill="#000072"/>
<path d="M260.486 567.768C271.019 570.073 277.871 586.02 260.592 596.087Z" fill="white"/>
<path d="M260.888 565.97C264.441 566.625 267.719 568.55 270.046 571.342C272.393 574.113 273.874 577.772 273.874 581.6C273.916 585.428 272.457 589.15 270.299 592.111C268.121 595.093 265.35 597.378 262.453 599.281C260.74 600.402 258.455 599.916 257.335 598.224C256.214 596.51 256.7 594.226 258.392 593.105C258.498 593.042 258.604 592.978 258.709 592.915L258.73 592.894C261.205 591.604 263.489 590.039 265.223 588.093C266.937 586.168 268.1 583.863 268.333 581.388C268.586 578.935 267.888 576.333 266.387 574.155C264.906 571.976 262.643 570.284 260.084 569.544L260.021 569.523C259.048 569.248 258.477 568.212 258.773 567.239C259.048 566.351 259.957 565.801 260.888 565.97Z" fill="#000072"/>
<path d="M287.093 566.245C297.097 572.759 298.218 586.549 287.093 595.961Z" fill="white"/>
<path d="M288.087 564.701C290.836 566.308 293.29 568.614 295.003 571.448C296.716 574.282 297.689 577.645 297.731 581.029C297.794 584.413 296.948 587.818 295.447 590.821C293.966 593.845 291.851 596.489 289.461 598.773C287.981 600.169 285.633 600.127 284.237 598.647C282.841 597.166 282.884 594.818 284.364 593.422C284.449 593.338 284.555 593.253 284.66 593.169L284.681 593.148C286.691 591.604 288.446 589.806 289.779 587.712C291.111 585.639 291.957 583.292 292.19 580.859C292.422 578.427 291.999 575.931 290.942 573.647C289.884 571.363 288.192 569.333 286.056 567.768C285.231 567.154 285.062 566.012 285.654 565.187C286.247 564.447 287.283 564.235 288.087 564.701Z" fill="#000072"/>
<path d="M293.332 477.182C277.364 509.182 218.588 493.573 202.176 470.245C184.833 445.584 194.287 398.462 235.381 357.812C243.037 350.24 251.793 342.88 261.692 335.942L256.891 366.673L252.153 397.066C246.062 437.78 316.682 430.377 293.332 477.182Z" fill="white"/>
<g opacity="0.2">
<path d="M261.691 335.964L256.89 366.695C256.615 366.61 245.914 363.501 235.381 357.812C243.037 350.24 251.793 342.901 261.691 335.964Z" fill="#6B184E"/>
</g>
<path d="M258.477 498.988C235.677 498.988 209.895 487.651 199.151 472.381C191.114 460.939 188.386 444.928 191.474 427.289C197.374 393.534 222.205 359.144 259.555 332.939C261.226 331.776 263.532 332.178 264.695 333.849C265.858 335.519 265.456 337.825 263.785 338.988C228.55 363.691 204.227 397.193 198.728 428.558C195.979 444.252 198.263 458.316 205.179 468.13C215.183 482.364 241.557 493.045 262.791 491.437C271.928 490.76 284.068 487.44 290.011 475.532C301.157 453.219 289.081 445.499 273.789 435.749C270.511 433.655 267.127 431.498 263.976 429.151C262.347 427.945 262.009 425.618 263.214 423.99C264.42 422.361 266.746 422.023 268.375 423.229C271.315 425.407 274.593 427.501 277.766 429.531C293.226 439.387 310.738 450.554 296.631 478.832C290.709 490.718 279.204 497.613 263.362 498.797C261.734 498.924 260.105 498.988 258.477 498.988Z" fill="#000072"/>
<path d="M181.702 309.716C180.243 307.94 178.805 306.1 177.451 304.196L181.702 309.716Z" fill="white"/>
<path d="M471.288 310.288L475.56 304.81C474.207 306.692 472.769 308.511 471.288 310.288Z" fill="white"/>
<g opacity="0.25">
<path d="M475.645 300.559C475.624 300.622 475.581 300.665 475.56 300.728C475.581 300.686 475.603 300.622 475.645 300.559C475.645 300.58 475.645 300.58 475.645 300.559Z" fill="#6B184E"/>
</g>
<path d="M476.322 286.621C476.279 286.684 476.258 286.769 476.237 286.833C476.258 286.791 476.258 286.748 476.279 286.706C476.301 286.684 476.301 286.642 476.322 286.621Z" fill="white"/>
<path d="M511.198 272.831C510.373 280.36 495.822 273.19 492.649 271.562C492.396 271.414 492.121 271.689 492.205 272.027C492.48 273.317 493.263 276.257 495.251 280.931C497.704 286.705 499.692 291.168 498.571 294.192C497.366 297.386 492.417 298.613 486.262 297.894C484.084 297.619 481.821 298.782 479.6 300.643C478.31 301.743 477.02 303.054 475.814 304.471L475.793 304.492L475.56 304.789C475.624 304.704 475.687 304.619 475.729 304.535C474.862 305.55 474.016 306.607 473.213 307.686C472.536 308.574 471.88 309.463 471.267 310.309C465.725 316.971 459.465 322.872 452.655 328.096C443.856 334.589 434.148 339.707 423.933 343.705V343.62C423.933 343.62 409.911 349.055 389.184 354.005C389.184 354.005 370.656 358.15 353.715 360.413C353.715 360.413 340.771 362.02 326.516 361.978C312.282 361.957 299.106 360.307 299.106 360.307C282.186 357.96 263.679 353.751 263.679 353.751C242.974 348.696 228.972 343.218 228.972 343.218V343.282C218.757 339.242 209.091 334.081 200.314 327.567C193.525 322.322 187.286 316.4 181.766 309.716C181.046 308.722 180.285 307.665 179.481 306.629C178.762 305.698 178.022 304.767 177.261 303.879C177.324 303.985 177.409 304.069 177.472 304.175L177.218 303.837C177.218 303.837 177.239 303.858 177.261 303.858C176.097 302.483 174.892 301.214 173.644 300.136C171.381 298.19 169.054 296.942 166.812 297.196C160.637 297.915 155.709 296.667 154.524 293.452C153.425 290.428 155.434 285.965 157.887 280.212C159.896 275.559 160.679 272.641 160.975 271.329C161.039 271.012 160.785 270.737 160.531 270.864C157.358 272.514 142.786 279.599 141.982 272.091C141.538 267.924 147.968 255.34 150.231 242.438C156.766 205.045 158.67 197.664 158.67 197.664C158.712 197.41 165.036 170.613 174.469 150.88C165.142 124.527 159.177 47.7102 174.871 31.6785C187.476 18.8405 234.746 45.9548 252.449 64.884C279.33 53.1035 320.975 51.4115 327.066 51.4326C329.16 51.4326 335.463 51.6441 343.901 52.4267C360.039 53.9072 384.002 57.3969 401.599 65.1801C419.344 46.3355 466.719 19.4115 479.283 32.313C494.934 48.387 488.631 125.183 479.219 151.493C485.12 163.993 489.794 179.306 492.417 188.929C493.961 194.555 494.807 198.235 494.828 198.341C494.828 198.341 496.689 205.743 503.076 243.157C505.276 256.059 511.663 268.685 511.198 272.831Z" fill="white"/>
<path d="M325.776 266.422C314.715 266.422 305.705 256.926 305.705 245.23C305.705 234.338 313.699 217.883 325.776 217.883C337.853 217.883 345.847 234.338 345.847 245.23C345.847 256.926 336.837 266.422 325.776 266.422ZM325.776 226.195C320.087 226.195 313.995 237.383 313.995 245.251C313.995 252.358 319.283 258.153 325.776 258.153C332.269 258.153 337.557 252.379 337.557 245.251C337.557 237.362 331.465 226.195 325.776 226.195Z" fill="#6B184E"/>
<g opacity="0.2">
<path d="M479.642 299.966L479.6 300.622C478.31 301.722 477.02 303.033 475.814 304.45L475.793 304.471L475.56 304.767C475.624 304.683 475.687 304.598 475.73 304.514C474.862 305.529 474.016 306.586 473.213 307.665C472.536 308.553 471.88 309.442 471.267 310.288C465.726 316.95 459.465 322.851 452.655 328.075C443.856 334.568 434.149 339.686 423.933 343.683V343.599C423.933 343.599 409.911 349.034 389.184 353.983C389.184 353.983 370.656 358.129 353.715 360.392C353.715 360.392 340.771 361.999 326.516 361.957C312.282 361.936 299.106 360.286 299.106 360.286C282.186 357.938 263.68 353.73 263.68 353.73C242.974 348.675 228.972 343.197 228.972 343.197V343.26C218.757 339.221 209.091 334.06 200.314 327.546C193.525 322.301 187.286 316.379 181.766 309.695C181.047 308.701 180.285 307.644 179.481 306.607C178.762 305.677 178.022 304.746 177.261 303.858C177.324 303.964 177.409 304.048 177.472 304.154L177.218 303.816C177.218 303.816 177.24 303.837 177.261 303.837C176.097 302.462 174.892 301.193 173.644 300.114C178.805 303.033 238.786 335.9 326.432 335.9C418.138 335.964 479.642 299.966 479.642 299.966Z" fill="#6B184E"/>
</g>
<path d="M492.417 188.929C487.045 189.627 481.588 189.965 476.047 189.944C403.672 189.796 344.98 128.482 343.859 52.4479C359.997 53.9284 383.96 57.397 401.557 65.2013C419.344 46.3355 466.72 19.4116 479.283 32.3131C494.934 48.3871 488.631 125.183 479.219 151.493C485.12 163.972 489.773 179.284 492.417 188.929Z" fill="#F9A528"/>
<g opacity="0.7">
<path d="M483.196 38.4888C465.81 33.7724 426.704 55.9587 407.859 73.8093C405.871 75.6917 403.016 76.2416 400.478 75.2475C382.775 68.3526 360.483 64.9898 344.43 63.4247C344.113 59.808 343.923 56.1702 343.859 52.469C359.976 53.9495 383.96 57.4181 401.535 65.2224C419.344 46.3355 466.72 19.4115 479.283 32.313C480.784 33.8358 482.075 35.9297 483.196 38.4888Z" fill="white"/>
</g>
<path d="M181.702 309.716C180.243 307.94 178.805 306.1 177.451 304.196L181.702 309.716Z" fill="white"/>
<path d="M471.288 310.288L475.56 304.81C474.207 306.692 472.769 308.511 471.288 310.288Z" fill="white"/>
<g opacity="0.25">
<path d="M475.645 300.559C475.624 300.622 475.581 300.665 475.56 300.728C475.581 300.686 475.603 300.622 475.645 300.559C475.645 300.58 475.645 300.58 475.645 300.559Z" fill="#6B184E"/>
</g>
<path d="M476.322 286.621C476.279 286.684 476.258 286.769 476.237 286.833C476.258 286.791 476.258 286.748 476.279 286.706C476.301 286.684 476.301 286.642 476.322 286.621Z" fill="white"/>
<path d="M511.198 272.831C510.373 280.36 495.822 273.19 492.649 271.562C492.396 271.414 492.121 271.689 492.205 272.027C492.48 273.317 493.263 276.257 495.251 280.931C497.704 286.705 499.692 291.168 498.571 294.192C497.366 297.386 492.417 298.613 486.262 297.894C484.084 297.619 481.821 298.782 479.6 300.643C478.31 301.743 477.02 303.054 475.814 304.471L475.793 304.492L475.56 304.789C475.624 304.704 475.687 304.619 475.729 304.535C474.862 305.55 474.016 306.607 473.213 307.686C472.536 308.574 471.88 309.463 471.267 310.309C465.725 316.971 459.465 322.872 452.655 328.096C443.856 334.589 434.148 339.707 423.933 343.705V343.62C423.933 343.62 409.911 349.055 389.184 354.005C389.184 354.005 370.656 358.15 353.715 360.413C353.715 360.413 340.771 362.02 326.516 361.978C312.282 361.957 299.106 360.307 299.106 360.307C282.186 357.96 263.679 353.751 263.679 353.751C242.974 348.696 228.972 343.218 228.972 343.218V343.282C218.757 339.242 209.091 334.081 200.314 327.567C193.525 322.322 187.286 316.4 181.766 309.716C181.046 308.722 180.285 307.665 179.481 306.629C178.762 305.698 178.022 304.767 177.261 303.879C177.324 303.985 177.409 304.069 177.472 304.175L177.218 303.837C177.218 303.837 177.239 303.858 177.261 303.858C176.097 302.483 174.892 301.214 173.644 300.136C171.381 298.19 169.054 296.942 166.812 297.196C160.637 297.915 155.709 296.667 154.524 293.452C153.425 290.428 155.434 285.965 157.887 280.212C159.896 275.559 160.679 272.641 160.975 271.329C161.039 271.012 160.785 270.737 160.531 270.864C157.358 272.514 142.786 279.599 141.982 272.091C141.538 267.924 147.968 255.34 150.231 242.438C156.766 205.045 158.67 197.664 158.67 197.664C158.712 197.41 165.036 170.613 174.469 150.88C165.142 124.527 159.177 47.7102 174.871 31.6785C187.476 18.8405 234.746 45.9548 252.449 64.884C279.33 53.1035 320.975 51.4115 327.066 51.4326C329.16 51.4326 335.463 51.6441 343.901 52.4267C360.039 53.9072 384.002 57.3969 401.599 65.1801C419.344 46.3355 466.719 19.4115 479.283 32.313C494.934 48.387 488.631 125.183 479.219 151.493C485.12 163.993 489.794 179.306 492.417 188.929C493.961 194.555 494.807 198.235 494.828 198.341C494.828 198.341 496.689 205.743 503.076 243.157C505.276 256.059 511.663 268.685 511.198 272.831Z" fill="white"/>
<path d="M341.702 245.251C341.702 245.991 341.659 246.732 341.554 247.451C340.56 255.826 333.855 262.298 325.776 262.298C317.675 262.298 310.992 255.826 309.977 247.451C309.892 246.732 309.829 246.013 309.829 245.251C309.829 235.839 316.956 222.05 325.755 222.05C334.574 222.029 341.702 235.839 341.702 245.251Z" fill="#000072"/>
<path d="M341.554 247.43C340.559 255.805 333.855 262.277 325.776 262.277C317.675 262.277 310.992 255.805 309.977 247.43C311.901 246.33 314.122 245.674 316.491 245.674C320.129 245.674 323.407 247.176 325.776 249.566C328.123 247.176 331.423 245.674 335.039 245.674C337.408 245.674 339.65 246.33 341.554 247.43Z" fill="#FF9FA4"/>
<path d="M325.776 266.422C314.715 266.422 305.705 256.926 305.705 245.23C305.705 234.338 313.699 217.883 325.776 217.883C337.853 217.883 345.847 234.338 345.847 245.23C345.847 256.926 336.837 266.422 325.776 266.422ZM325.776 226.195C320.087 226.195 313.995 237.383 313.995 245.251C313.995 252.358 319.283 258.153 325.776 258.153C332.269 258.153 337.557 252.379 337.557 245.251C337.557 237.362 331.465 226.195 325.776 226.195Z" fill="#000072"/>
<g opacity="0.2">
<path d="M479.642 299.966L479.6 300.622C478.31 301.722 477.02 303.033 475.814 304.45L475.793 304.471L475.56 304.767C475.624 304.683 475.687 304.598 475.73 304.514C474.862 305.529 474.016 306.586 473.213 307.665C472.536 308.553 471.88 309.442 471.267 310.288C465.726 316.95 459.465 322.851 452.655 328.075C443.856 334.568 434.149 339.686 423.933 343.683V343.599C423.933 343.599 409.911 349.034 389.184 353.983C389.184 353.983 370.656 358.129 353.715 360.392C353.715 360.392 340.771 361.999 326.516 361.957C312.282 361.936 299.106 360.286 299.106 360.286C282.186 357.938 263.68 353.73 263.68 353.73C242.974 348.675 228.972 343.197 228.972 343.197V343.26C218.757 339.221 209.091 334.06 200.314 327.546C193.525 322.301 187.286 316.379 181.766 309.695C181.047 308.701 180.285 307.644 179.481 306.607C178.762 305.677 178.022 304.746 177.261 303.858C177.324 303.964 177.409 304.048 177.472 304.154L177.218 303.816C177.218 303.816 177.24 303.837 177.261 303.837C176.097 302.462 174.892 301.193 173.644 300.114C178.805 303.033 238.786 335.9 326.432 335.9C418.138 335.964 479.642 299.966 479.642 299.966Z" fill="#000072"/>
</g>
<path d="M492.417 188.929C487.045 189.627 481.588 189.965 476.047 189.944C403.672 189.796 344.98 128.482 343.859 52.4479C359.997 53.9284 383.96 57.397 401.557 65.2013C419.344 46.3355 466.72 19.4116 479.283 32.3131C494.934 48.3871 488.631 125.183 479.219 151.493C485.12 163.972 489.773 179.284 492.417 188.929Z" fill="#FFB531"/>
<g opacity="0.7">
<path d="M483.196 38.4888C465.81 33.7724 426.704 55.9587 407.859 73.8093C405.871 75.6917 403.016 76.2416 400.478 75.2475C382.775 68.3526 360.483 64.9898 344.43 63.4247C344.113 59.808 343.923 56.1702 343.859 52.469C359.976 53.9495 383.96 57.4181 401.535 65.2224C419.344 46.3355 466.72 19.4115 479.283 32.313C480.784 33.8358 482.075 35.9297 483.196 38.4888Z" fill="white"/>
</g>
<g opacity="0.3">
<path d="M483.724 286.938C483.724 286.938 483.745 286.917 483.766 286.917L483.47 287.276C483.555 287.171 483.639 287.044 483.724 286.938Z" fill="#6B184E"/>
</g>
<path d="M209.705 98.724C197.269 111.985 189.422 130.555 188.322 128.398C188.216 128.186 188.111 127.932 188.005 127.657C185.657 121.566 181.744 97.4551 181.808 75.9878C181.829 72.5192 181.914 69.4736 182.104 66.7664C182.59 59.4908 183.627 54.8167 184.896 51.8345C186.482 48.1967 190.014 47.0757 193.144 48.3024C201.477 51.5807 225.123 67.1894 232.822 77.1722C234.196 78.9488 222.162 85.463 209.705 98.724Z" fill="#FF5F67"/>
<g opacity="0.15">
<path d="M209.705 98.724C197.269 111.985 189.422 130.555 188.322 128.398C188.216 128.186 188.111 127.932 188.005 127.657C190.797 116.384 198.432 100.818 204.312 89.5661C212.327 74.2112 201.329 61.9653 191.791 58.2852C188.512 57.0162 184.621 62.3883 182.104 66.7452C182.59 59.4696 183.627 54.7955 184.896 51.8134C186.482 48.1756 190.014 47.0546 193.144 48.2813C201.477 51.5596 225.123 67.1682 232.822 77.1511C234.196 78.9488 222.162 85.463 209.705 98.724Z" fill="#000072"/>
</g>
<path d="M188.618 132.754C188.555 132.754 188.47 132.754 188.407 132.754C186.8 132.691 185.34 131.76 184.579 130.301C181.787 124.823 177.536 98.301 177.599 75.9666C177.642 63.9323 178.763 55.4935 181.026 50.1848C183.416 44.6647 189.147 42.2324 194.667 44.4109C203.487 47.8795 227.725 63.6996 236.143 74.6342C237.158 75.9666 238.321 78.7373 234.577 82.3328C233.393 83.4749 231.701 84.8285 229.565 86.5205C225.123 90.0737 219.032 94.9171 212.772 101.6C205.898 108.94 200.399 118.097 196.761 124.146C192.933 130.513 191.601 132.754 188.618 132.754ZM190.649 52.0037C189.993 52.0037 189.232 52.321 188.724 53.4842C187.498 56.3606 186.017 62.5999 185.975 75.9878C185.932 91.9561 188.132 109.236 190.057 119.007C193.864 112.662 199.468 103.504 206.638 95.8476C213.301 88.7412 219.942 83.4538 224.32 79.964C225.398 79.0969 226.562 78.1663 227.492 77.4049C218.694 68.0354 198.474 54.9013 191.601 52.1941C191.347 52.1095 191.008 52.0037 190.649 52.0037Z" fill="#000072"/>
<path d="M443.159 99.1893C455.552 112.514 463.314 131.105 464.435 128.947C464.541 128.736 464.647 128.482 464.753 128.207C467.143 122.137 471.119 98.0472 471.161 76.5588C471.161 73.0902 471.077 70.0446 470.907 67.3374C470.442 60.0618 469.427 55.3877 468.158 52.4055C466.593 48.7466 463.061 47.6256 459.909 48.8523C451.576 52.1094 427.846 67.6124 420.105 77.574C418.751 79.3295 430.765 85.8648 443.159 99.1893Z" fill="#FF5F67"/>
<g opacity="0.15">
<path d="M443.159 99.1893C455.552 112.514 463.314 131.105 464.435 128.947C464.541 128.736 464.647 128.482 464.753 128.207C462.003 116.934 454.431 101.325 448.615 90.0525C440.663 74.6553 451.703 62.4518 461.242 58.8351C464.52 57.5873 468.39 62.9805 470.907 67.3374C470.442 60.0618 469.427 55.3877 468.158 52.4055C466.593 48.7466 463.061 47.6256 459.909 48.8523C451.576 52.1094 427.846 67.6124 420.105 77.574C418.751 79.3295 430.765 85.8648 443.159 99.1893Z" fill="#000072"/>
</g>
<path d="M464.139 133.304C461.136 133.304 459.804 131.062 455.997 124.654C452.38 118.584 446.923 109.405 440.092 102.045C433.853 95.34 427.783 90.4755 423.362 86.9012C421.226 85.188 419.534 83.8344 418.371 82.6923C414.648 79.0757 415.812 76.305 416.827 74.9937C425.287 64.1015 449.588 48.387 458.429 44.9396C463.949 42.8035 469.681 45.2357 472.028 50.7558C474.291 56.0856 475.37 64.5245 475.37 76.5588C475.349 98.8721 470.992 125.373 468.179 130.851C467.439 132.31 465.958 133.241 464.351 133.304C464.266 133.304 464.203 133.304 464.139 133.304ZM425.435 77.8067C426.366 78.5892 427.508 79.5198 428.586 80.387C432.964 83.8979 439.563 89.2065 446.204 96.3552C453.353 104.033 458.915 113.212 462.701 119.578C464.668 109.807 466.931 92.5482 466.952 76.58C466.974 63.2132 465.514 56.9528 464.287 54.0552C463.526 52.2575 462.172 52.469 461.432 52.7651C454.558 55.43 434.276 68.4584 425.435 77.8067Z" fill="#000072"/>
<path d="M298.852 362.126C292.782 361.703 286.754 360.963 280.748 360.096C274.72 359.207 268.819 358.171 262.77 356.966C256.785 355.591 250.905 354.131 245.068 352.397C239.209 350.663 233.456 348.823 227.64 346.623L232.547 343.281V343.366V348.654L227.619 346.708C218.313 343.028 209.303 338.396 201.033 332.622C198.961 331.205 196.867 329.619 194.963 328.032C193.017 326.425 191.114 324.775 189.274 323.062C187.434 321.349 185.636 319.572 183.902 317.732C183.035 316.823 182.189 315.892 181.343 314.94L180.095 313.523L179.481 312.804L179.185 312.445L179.037 312.254L178.953 312.17L178.91 312.128C178.826 312.043 178.614 311.705 178.635 311.747C178.614 311.726 178.657 311.768 178.72 311.874C178.847 312.064 179.143 312.487 179.799 312.889L178.889 312.085C177.282 310.139 175.738 308.151 174.257 306.079L174.427 306.29L174.384 306.248L180.116 301.679L184.663 307.559L178.783 311.937C176.33 308.553 173.813 305.233 171.064 302.885C169.731 301.722 168.251 300.96 167.511 300.939C167.426 300.939 167.341 300.939 167.278 300.939H167.214L166.982 300.96L166.538 301.003C165.945 301.066 165.332 301.108 164.74 301.13C163.534 301.172 162.286 301.151 161.017 301.024C159.748 300.897 158.437 300.664 157.062 300.199C155.709 299.734 154.228 299.015 152.896 297.703C152.24 297.048 151.648 296.223 151.225 295.292C150.823 294.362 150.633 293.452 150.527 292.585C150.379 290.872 150.633 289.455 150.929 288.186C151.563 285.669 152.431 283.617 153.277 281.587L154.546 278.626C154.947 277.674 155.328 276.744 155.688 275.792C156.047 274.84 156.386 273.888 156.682 272.958C156.83 272.492 156.978 272.027 157.084 271.562L157.253 270.885L157.295 270.716L157.316 270.631V270.589C157.316 270.547 157.316 270.568 157.295 270.716C157.147 271.541 157.295 272.577 158.099 273.465C158.501 273.91 159.114 274.354 159.939 274.523C160.743 274.713 161.737 274.502 162.223 274.227L161.842 274.417L161.081 274.798L159.558 275.538C158.522 276.003 157.485 276.469 156.428 276.892C154.292 277.738 152.092 278.499 149.596 278.964C148.349 279.197 146.995 279.345 145.43 279.239C144.647 279.176 143.78 279.028 142.828 278.668C141.898 278.309 140.862 277.695 140.079 276.786C139.275 275.898 138.768 274.819 138.514 273.846C138.387 273.36 138.302 272.915 138.26 272.45C138.239 272.196 138.218 271.921 138.218 271.689L138.239 271.033C138.366 269.447 138.683 268.284 138.979 267.142C139.614 264.878 140.333 262.848 141.031 260.818C142.427 256.757 143.801 252.823 144.901 248.847C145.451 246.859 145.916 244.871 146.318 242.904L147.418 236.643L149.66 223.995C151.204 215.557 152.706 207.16 154.503 198.679C155.455 194.343 156.576 190.219 157.739 186.031C158.924 181.865 160.15 177.719 161.483 173.616C164.169 165.389 167.172 157.225 170.916 149.251L170.768 152.212C169.224 147.792 168.145 143.414 167.172 139.036C166.22 134.637 165.438 130.238 164.761 125.838C163.407 117.019 162.477 108.178 161.885 99.2951C161.292 90.4121 161.039 81.5079 161.292 72.5826C161.567 63.6362 162.223 54.6686 164.275 45.6376C165.353 41.1326 166.707 36.5642 169.499 32.1227C170.218 31.0229 171.043 29.9443 172.058 28.9079C173.158 27.787 174.469 26.8775 175.822 26.243C178.53 24.9317 181.279 24.5299 183.838 24.4453C188.978 24.3395 193.61 25.397 198.072 26.7083C202.514 28.0408 206.765 29.7328 210.889 31.6151C219.138 35.401 226.921 39.9059 234.387 44.9185C238.109 47.4353 241.747 50.1002 245.279 52.9343C248.811 55.7896 252.216 58.7929 255.431 62.198L250.799 61.2463C256.912 58.6025 263.151 56.5721 269.454 54.9436C275.756 53.2939 282.101 52.046 288.467 50.9885C294.834 49.9522 301.221 49.1485 307.629 48.5351C310.823 48.239 314.038 47.9641 317.253 47.7737C320.488 47.5834 323.64 47.393 327.045 47.3719C330.45 47.4142 333.58 47.5834 336.837 47.7949C340.052 48.0064 343.267 48.2813 346.461 48.5986C352.869 49.2331 359.256 50.0791 365.623 51.1366C371.989 52.2152 378.334 53.5054 384.636 55.1762C390.939 56.8259 397.178 58.8775 403.27 61.5424L398.617 62.4729C401.831 59.089 405.258 56.0857 408.79 53.2516C412.322 50.4175 415.981 47.7737 419.703 45.278C427.19 40.2866 434.995 35.8028 443.264 32.0593C447.41 30.1981 451.64 28.5061 456.102 27.1948C460.565 25.9046 465.218 24.8683 470.357 24.9952C472.917 25.1009 475.666 25.5028 478.394 26.8352C479.748 27.4909 481.059 28.4003 482.159 29.5213C483.153 30.5576 483.999 31.6574 484.718 32.7572C487.489 37.2199 488.821 41.7883 489.9 46.3144C491.909 55.3666 492.544 64.3342 492.776 73.2806C492.988 82.2271 492.692 91.1312 492.078 100.014C491.444 108.897 490.471 117.738 489.096 126.536C488.398 130.935 487.595 135.335 486.643 139.734C485.67 144.133 484.549 148.511 483.005 152.91L482.857 149.907C486.579 157.902 489.562 166.066 492.205 174.314C493.538 178.438 494.743 182.584 495.907 186.75C497.049 190.938 498.149 195.062 499.1 199.419C500.877 207.922 502.357 216.318 503.859 224.757L506.059 237.405L507.137 243.665C507.518 245.653 507.983 247.62 508.533 249.608C509.612 253.584 510.965 257.539 512.361 261.6C513.059 263.631 513.757 265.682 514.392 267.945C514.688 269.087 515.005 270.251 515.132 271.858L515.153 272.514C515.153 272.746 515.132 273.021 515.111 273.275C515.069 273.74 514.984 274.184 514.857 274.692C514.603 275.665 514.074 276.765 513.25 277.653C512.425 278.562 511.388 279.176 510.458 279.535C509.506 279.895 508.639 280.043 507.835 280.106C506.249 280.212 504.895 280.043 503.648 279.81C501.152 279.324 498.952 278.563 496.816 277.717C495.759 277.294 494.722 276.828 493.686 276.363L492.163 275.623L491.402 275.242L491.021 275.052C491.529 275.348 492.523 275.58 493.369 275.369C494.215 275.2 494.849 274.734 495.272 274.29C496.097 273.36 496.245 272.323 496.097 271.456C496.076 271.308 496.055 271.287 496.076 271.329V271.372L496.097 271.456L496.139 271.625L496.308 272.302C496.435 272.767 496.562 273.233 496.71 273.698C497.006 274.629 497.324 275.58 497.683 276.532C498.043 277.484 498.423 278.436 498.804 279.366L500.052 282.327C500.877 284.358 501.744 286.43 502.379 288.947C502.675 290.216 502.907 291.654 502.759 293.368C502.653 294.235 502.463 295.144 502.04 296.096C501.617 297.026 501.025 297.851 500.348 298.528C498.994 299.861 497.514 300.558 496.139 301.024C494.765 301.489 493.432 301.722 492.163 301.849C490.873 301.976 489.646 301.976 488.42 301.933C487.806 301.912 487.214 301.849 486.622 301.806L486.178 301.764L485.945 301.743H485.882C485.818 301.722 485.733 301.743 485.649 301.743C484.951 301.743 483.47 302.483 482.138 303.646C479.388 305.973 476.872 309.293 474.418 312.656L468.412 308.13L472.98 302.272L478.839 306.988L478.796 307.009L478.965 306.798C477.485 308.87 475.92 310.859 474.312 312.783L473.361 313.587C474.101 313.122 474.397 312.656 474.503 312.508C474.82 312.064 474.143 312.995 474.249 312.825L474.207 312.868L474.122 312.974L473.953 313.185L473.615 313.587L472.917 314.391L471.521 315.977C470.59 317.034 469.617 318.05 468.644 319.065C466.677 321.095 464.647 323.041 462.553 324.923C460.459 326.806 458.302 328.603 456.081 330.338C454.981 331.205 453.712 332.093 452.528 332.897C451.322 333.701 450.117 334.42 448.911 335.16C444.068 338.015 439.161 340.553 434.233 343.007C431.759 344.233 429.284 345.418 426.767 346.581L425.816 347.025L425.477 347.173L425.118 347.321L424.61 347.511L422.643 348.231L418.709 349.584C413.464 351.34 408.198 352.968 402.868 354.406C397.559 355.845 392.208 357.219 386.73 358.213C375.923 360.18 365.052 361.788 354.054 362.359C353.059 362.401 352.213 361.64 352.171 360.646C352.129 359.757 352.742 358.996 353.567 358.806H353.588C364.184 356.416 374.781 354.047 385.334 351.53C395.698 348.95 406.188 345.989 416.361 342.584L420.168 341.272L422.051 340.595L422.516 340.426L422.622 340.384L422.749 340.32L423.658 339.897C426.09 338.755 428.544 337.592 430.955 336.387C435.777 333.997 440.557 331.501 445.125 328.794C446.246 328.117 447.367 327.419 448.446 326.721C449.525 326.002 450.498 325.346 451.534 324.5C453.607 322.872 455.637 321.18 457.604 319.403C459.571 317.648 461.453 315.808 463.293 313.904C464.203 312.952 465.112 312.001 465.979 311.007L467.291 309.526L467.925 308.786L468.242 308.405L468.412 308.215L468.496 308.13L468.539 308.088C468.665 307.919 468.01 308.807 468.327 308.363C468.454 308.194 468.771 307.707 469.511 307.221L468.56 308.024C470.061 306.206 471.521 304.344 472.874 302.441L473.001 302.25L473.043 302.229L473.086 302.208L478.944 306.925L474.397 312.783L468.39 308.257C470.971 304.746 473.593 301.13 477.358 297.872C478.31 297.069 479.367 296.286 480.636 295.609C481.884 294.933 483.386 294.362 485.184 294.214C485.628 294.192 486.093 294.171 486.558 294.235L487.066 294.277L487.425 294.319C487.891 294.362 488.356 294.404 488.821 294.425C489.731 294.467 490.64 294.446 491.486 294.362C492.332 294.277 493.136 294.129 493.77 293.896C494.426 293.685 494.891 293.389 495.061 293.198C495.23 292.987 495.209 293.093 495.272 292.648C495.314 292.247 495.251 291.527 495.039 290.724C494.638 289.095 493.897 287.192 493.094 285.267L491.846 282.327C491.423 281.312 491 280.254 490.598 279.218C490.196 278.161 489.837 277.082 489.477 275.982C489.308 275.432 489.139 274.861 488.991 274.29L488.758 273.402L488.694 273.169L488.61 272.767C488.419 271.646 488.631 270.314 489.625 269.193C490.112 268.643 490.873 268.114 491.867 267.903C492.84 267.67 493.982 267.945 494.595 268.284L494.934 268.453L495.611 268.791L496.964 269.447C497.874 269.87 498.804 270.272 499.714 270.631C501.554 271.372 503.415 271.985 505.107 272.302C505.953 272.471 506.757 272.535 507.285 272.471C507.56 272.45 507.729 272.408 507.793 272.387C507.856 272.366 507.729 272.408 507.645 272.514C507.539 272.619 507.518 272.725 507.539 272.683C507.539 272.662 507.56 272.577 507.56 272.514C507.56 272.492 507.56 272.514 507.56 272.471C507.56 272.429 507.56 272.366 507.56 272.323C507.518 271.773 507.328 270.864 507.074 269.954C506.566 268.093 505.868 266.084 505.191 264.096C503.796 260.077 502.379 255.932 501.215 251.66C500.623 249.524 500.115 247.345 499.692 245.124L498.572 238.737L496.351 226.132C494.849 217.756 493.326 209.296 491.613 201.069C490.746 197.072 489.625 192.926 488.504 188.865C487.362 184.805 486.156 180.744 484.866 176.725C482.265 168.709 479.367 160.778 475.856 153.27L475.158 151.789L475.708 150.245C477.083 146.354 478.141 142.208 479.05 138.021C479.981 133.833 480.742 129.582 481.398 125.288C482.73 116.723 483.661 108.094 484.274 99.422C484.866 90.7717 485.141 82.079 484.909 73.4498C484.655 64.8418 484.02 56.2126 482.18 48.0698C481.25 44.0513 479.96 40.0963 478.056 37.0718C477.591 36.3316 477.062 35.6759 476.533 35.1471C476.089 34.703 475.581 34.3435 474.947 34.0262C473.699 33.4129 472.007 33.0956 470.209 33.0321C466.55 32.9264 462.468 33.7512 458.535 34.9356C454.558 36.12 450.624 37.664 446.754 39.4195C439.013 42.9515 431.526 47.245 424.398 52.0249C420.845 54.4148 417.377 56.9528 414.056 59.6177C410.736 62.2826 407.563 65.0956 404.729 68.0989L402.741 70.1927L400.076 69.0294C394.535 66.6183 388.655 64.6937 382.67 63.1286C376.684 61.5424 370.572 60.3157 364.396 59.2793C358.241 58.2641 352.023 57.4604 345.784 56.8471C342.675 56.551 339.545 56.276 336.414 56.0856C333.327 55.8953 330.112 55.705 327.172 55.6838C324.211 55.705 321.017 55.853 317.929 56.0434C314.799 56.2337 311.69 56.4875 308.56 56.7625C302.321 57.3547 296.103 58.1161 289.927 59.1101C283.772 60.1253 277.639 61.3309 271.653 62.8748C265.647 64.3976 259.788 66.3011 254.226 68.7122L251.561 69.8543L249.594 67.7604C246.781 64.7571 243.608 61.9231 240.288 59.237C236.988 56.551 233.52 54.013 229.966 51.6019C222.86 46.8008 215.394 42.4651 207.653 38.9119C203.783 37.1353 199.849 35.5702 195.873 34.3646C191.918 33.1802 187.857 32.3342 184.198 32.4188C182.379 32.4611 180.708 32.7995 179.439 33.3917C178.805 33.6878 178.276 34.0685 177.853 34.5126C177.324 35.0625 176.817 35.7182 176.33 36.4373C174.405 39.4406 173.094 43.4168 172.164 47.4141C170.302 55.5357 169.604 64.1861 169.329 72.773C169.076 81.4022 169.308 90.0949 169.858 98.7452C170.429 107.417 171.339 116.067 172.629 124.612C173.284 128.884 174.025 133.156 174.934 137.344C175.844 141.532 176.88 145.698 178.234 149.59L178.762 151.113L178.086 152.551C174.532 160.038 171.592 167.948 168.97 175.964C167.659 179.982 166.432 184.022 165.29 188.083C164.148 192.144 163.027 196.268 162.138 200.265C160.383 208.493 158.839 216.931 157.295 225.307L155.032 237.912L153.89 244.278C153.446 246.499 152.917 248.678 152.325 250.793C151.14 255.065 149.702 259.189 148.285 263.208C147.587 265.217 146.889 267.205 146.361 269.066C146.107 269.976 145.895 270.906 145.853 271.456C145.853 271.498 145.853 271.562 145.853 271.604C145.853 271.646 145.853 271.625 145.853 271.646C145.853 271.71 145.874 271.794 145.874 271.816C145.895 271.879 145.874 271.795 145.768 271.689C145.684 271.583 145.578 271.562 145.641 271.583C145.705 271.604 145.895 271.668 146.17 271.689C146.72 271.731 147.524 271.668 148.37 271.52C150.083 271.202 151.944 270.589 153.784 269.87C154.715 269.51 155.624 269.108 156.555 268.685L157.93 268.03L158.606 267.691L158.945 267.522C159.558 267.184 160.679 266.93 161.61 267.163C162.583 267.374 163.302 267.882 163.788 268.432C164.761 269.531 164.973 270.843 164.782 271.943L164.698 272.323L164.634 272.556L164.401 273.423C164.253 273.994 164.084 274.565 163.894 275.115C163.534 276.215 163.175 277.294 162.773 278.33C162.371 279.387 161.948 280.424 161.525 281.439L160.277 284.379C159.474 286.282 158.712 288.186 158.31 289.835C158.099 290.639 158.035 291.358 158.078 291.781C158.141 292.225 158.141 292.162 158.31 292.395C158.501 292.585 158.966 292.902 159.622 293.114C160.277 293.346 161.081 293.494 161.927 293.579C162.773 293.664 163.682 293.685 164.613 293.642C165.078 293.621 165.544 293.6 166.009 293.558L166.368 293.516L166.876 293.473C167.341 293.431 167.785 293.452 168.23 293.473C170.006 293.621 171.508 294.213 172.735 294.869C173.982 295.546 175.04 296.329 175.992 297.132C179.735 300.389 182.337 304.006 184.896 307.538L179.016 311.916L174.49 306.036L180.222 301.468L180.264 301.51L180.306 301.531L180.433 301.701C181.787 303.604 183.225 305.465 184.727 307.305L183.817 306.502C184.473 306.903 184.79 307.348 184.938 307.538L185.044 307.686C185.086 307.728 184.854 307.411 184.79 307.326L184.832 307.369L184.896 307.453L185.044 307.623L185.319 307.961L185.89 308.638L187.053 309.97C187.836 310.859 188.618 311.726 189.443 312.593C191.072 314.306 192.742 315.977 194.477 317.605C196.211 319.213 197.988 320.778 199.828 322.28C201.668 323.823 203.466 325.198 205.432 326.552C213.195 331.966 221.676 336.365 230.538 339.897L225.61 343.239V343.155L225.631 337.931L230.516 339.813C233.202 340.849 236.058 341.843 238.871 342.774C241.684 343.726 244.518 344.656 247.373 345.523C253.062 347.258 258.836 348.971 264.547 350.451C270.278 351.89 276.179 353.243 282.017 354.597C287.875 355.929 293.734 357.198 299.592 358.467C300.565 358.679 301.179 359.63 300.967 360.603C300.544 361.576 299.719 362.168 298.852 362.126Z" fill="#000072"/>
<path d="M243.355 148.553C241.641 145.91 255.347 116.532 276.835 122.877C284.703 125.204 283.392 132.141 278.865 134.341C274.551 136.435 267.846 136.286 262.284 138.613C251.455 143.139 245.047 151.197 243.355 148.553Z" fill="#000072"/>
<path d="M409.953 145.064C411.666 142.42 398.088 113 376.579 119.24C368.711 121.524 369.98 128.482 374.506 130.703C378.821 132.818 385.525 132.691 391.066 135.039C401.853 139.628 408.24 147.707 409.953 145.064Z" fill="#000072"/>
<path d="M476.709 247.185C476.72 241.485 467.109 236.845 455.241 236.822C443.373 236.798 433.743 241.4 433.732 247.1C433.721 252.8 443.332 257.44 455.2 257.464C467.068 257.487 476.697 252.886 476.709 247.185Z" fill="#FF9FA4"/>
<path d="M219.477 246.78C219.488 241.08 209.877 236.44 198.009 236.416C186.141 236.393 176.511 240.995 176.5 246.695C176.489 252.395 186.1 257.035 197.968 257.059C209.836 257.082 219.465 252.481 219.477 246.78Z" fill="#FF9FA4"/>
<path d="M353.673 231.842C353.673 231.842 348.893 244.299 337.768 241.402C325.099 238.103 326.664 223.001 326.664 223.001H326.199C326.199 223.001 327.7 238.103 315.01 241.36C303.886 244.215 299.148 231.736 299.148 231.736C299.148 231.736 298.979 200.836 326.347 200.879C353.736 200.942 353.673 231.842 353.673 231.842Z" fill="white"/>
<g opacity="0.2">
<path d="M352.235 234.613C350.077 238.103 345.424 243.39 337.768 241.381C325.099 238.081 326.643 222.98 326.643 222.98H326.178C326.178 222.98 327.679 238.103 314.989 241.338C307.333 243.305 302.701 237.997 300.544 234.507C302.68 234.697 305.007 234.528 307.545 233.894C328.483 228.522 326.009 208.006 326.009 208.006H326.791C326.791 208.006 324.232 228.5 345.128 233.957C347.708 234.655 350.077 234.824 352.235 234.613Z" fill="#000072"/>
</g>
<path d="M301.094 230.975C301.475 231.546 301.961 232.307 302.469 232.921C302.955 233.576 303.484 234.19 304.013 234.761C305.091 235.903 306.276 236.855 307.503 237.489C308.729 238.145 309.977 238.462 311.288 238.547C311.965 238.483 312.621 238.568 313.298 238.356C313.636 238.272 313.974 238.251 314.334 238.166L315.37 237.828C318.141 236.918 320.214 235.036 321.673 232.392C322.413 231.081 322.942 229.579 323.344 227.993C323.555 227.21 323.703 226.385 323.83 225.582C323.957 224.778 324.063 223.89 324.105 223.171L324.126 222.98C324.211 221.817 325.205 220.95 326.347 221.034C327.32 221.098 328.103 221.838 328.272 222.769C328.462 223.89 328.547 224.82 328.568 225.836C328.61 226.83 328.568 227.845 328.462 228.86C328.251 230.869 327.828 232.942 326.939 234.909C325.353 238.864 321.758 242.481 317.549 243.855L315.984 244.384C315.455 244.553 314.884 244.617 314.334 244.722C313.234 244.976 312.05 244.913 310.908 244.913C308.56 244.744 306.276 243.898 304.372 242.671C302.469 241.423 300.967 239.816 299.804 238.081C299.233 237.214 298.725 236.326 298.281 235.395C297.837 234.444 297.499 233.576 297.203 232.455C296.885 231.335 297.541 230.192 298.662 229.875C299.55 229.621 300.481 230.002 300.967 230.742L301.094 230.975Z" fill="#000072"/>
<path d="M355.619 232.582C355.301 233.682 354.963 234.571 354.519 235.522C354.075 236.453 353.567 237.341 352.996 238.208C351.833 239.921 350.31 241.529 348.406 242.777C346.503 244.003 344.198 244.828 341.85 244.997C340.708 244.976 339.502 245.04 338.424 244.786C337.874 244.68 337.303 244.617 336.774 244.448L335.209 243.919C331 242.523 327.426 238.906 325.839 234.93C324.972 232.963 324.549 230.89 324.338 228.881C324.232 227.866 324.19 226.872 324.232 225.857C324.274 224.842 324.359 223.911 324.549 222.79C324.761 221.648 325.839 220.886 326.982 221.098C327.954 221.267 328.652 222.092 328.695 223.023L328.716 223.213C328.758 223.911 328.864 224.82 328.991 225.624C329.118 226.449 329.266 227.253 329.477 228.035C329.858 229.621 330.408 231.123 331.127 232.434C332.586 235.078 334.638 236.982 337.408 237.891L338.445 238.229C338.783 238.335 339.143 238.356 339.481 238.441C340.179 238.652 340.835 238.568 341.49 238.631C342.781 238.526 344.05 238.229 345.276 237.574C346.503 236.939 347.687 235.988 348.766 234.867C349.295 234.296 349.845 233.682 350.331 233.027C350.818 232.413 351.325 231.652 351.706 231.081L351.854 230.848C352.488 229.875 353.8 229.621 354.751 230.256C355.534 230.785 355.851 231.736 355.619 232.582Z" fill="#000072"/>
<path d="M341.702 215.112C341.702 218.687 337.028 221.838 332.734 223.974C328.251 226.216 323.238 226.195 318.775 223.953C314.503 221.796 309.85 218.623 309.85 215.07C309.871 204.263 341.723 204.326 341.702 215.112Z" fill="#000072"/>
<g opacity="0.5">
<path d="M332.1 212.976C332.1 214.013 330.238 214.922 328.546 215.536C326.77 216.17 324.782 216.17 323.005 215.514C321.313 214.901 319.473 213.97 319.473 212.955C319.473 209.846 332.1 209.867 332.1 212.976Z" fill="white"/>
</g>
<path d="M413.062 229.156C412.66 222.43 411.37 215.409 408.494 210.037C405.617 204.58 401.154 201.196 395.169 199.842C392.229 199.123 389.31 198.89 386.54 199.356C383.79 199.821 381.147 200.963 378.778 202.761C373.977 206.314 370.424 212.215 368.287 218.687L368.266 218.729C367.822 220.083 366.342 220.823 364.988 220.379C363.867 220.019 363.19 218.962 363.211 217.841C363.338 213.907 364.248 209.973 365.813 206.208C367.42 202.486 369.704 198.869 372.877 195.908C376.028 192.947 380.089 190.663 384.488 189.69C388.887 188.675 393.414 188.929 397.517 189.902C401.62 190.79 405.871 192.672 409.297 195.57C411.01 197.008 412.554 198.679 413.823 200.477C415.071 202.296 416.108 204.199 416.911 206.166C418.54 210.1 419.195 214.182 419.386 218.137C419.449 220.125 419.386 222.092 419.195 224.038C418.984 226.005 418.688 227.845 418.138 229.875C417.757 231.25 416.34 232.054 414.965 231.673C413.866 231.377 413.147 230.404 413.062 229.346V229.156Z" fill="#000072"/>
<path d="M234.281 228.754C233.752 226.724 233.477 224.884 233.287 222.896C233.118 220.95 233.075 218.983 233.181 216.995C233.414 213.04 234.112 208.958 235.804 205.045C236.629 203.078 237.686 201.175 238.955 199.377C240.245 197.6 241.81 195.951 243.545 194.534C247.013 191.678 251.286 189.838 255.389 188.992C259.513 188.062 264.039 187.85 268.417 188.929C272.795 189.965 276.835 192.292 279.944 195.295C283.074 198.298 285.316 201.936 286.881 205.68C288.404 209.465 289.25 213.399 289.334 217.354C289.356 218.793 288.235 219.977 286.796 219.998C285.633 220.019 284.618 219.258 284.28 218.2L284.258 218.158C282.186 211.665 278.717 205.743 273.958 202.105C271.611 200.286 268.988 199.102 266.239 198.594C263.489 198.087 260.57 198.277 257.609 198.975C251.624 200.244 247.098 203.586 244.158 209C241.218 214.33 239.843 221.331 239.357 228.056L239.336 228.247C239.23 229.664 238.003 230.742 236.586 230.637C235.465 230.615 234.556 229.812 234.281 228.754Z" fill="#000072"/>
<path d="M419.978 421.029L392.103 353.328C407.331 349.796 421.586 349.055 430.511 345.185C439.648 341.23 443.159 333.976 436.37 317.056C436.496 315.406 436.793 313.798 437.237 312.233C444.026 288.186 486.051 277.103 503.14 305.55C546.857 378.264 502.125 421.029 419.978 421.029Z" fill="white"/>
<g opacity="0.2">
<path d="M492.015 329.323C485.67 354.533 447.621 349.034 430.511 345.164C439.648 341.209 443.158 333.954 436.369 317.034C436.496 315.385 436.792 313.777 437.236 312.212C449.63 310.922 497.577 307.263 492.015 329.323Z" fill="#000072"/>
</g>
<path d="M391.256 349.732C397.263 348.336 403.269 347.342 409.213 346.369C415.113 345.375 421.035 344.508 426.281 342.816C428.882 341.97 431.293 340.87 433.006 339.411C433.873 338.692 434.508 337.867 435.037 337C435.481 336.069 435.883 335.096 436.031 333.954C436.411 331.712 436.115 329.069 435.523 326.425C434.91 323.76 433.958 321.074 432.922 318.409L432.604 317.563L432.668 316.759C433.218 310.182 436.115 303.921 440.345 299.163C444.597 294.383 449.905 290.787 455.679 288.44C458.556 287.234 461.538 286.346 464.604 285.796C467.671 285.225 470.78 284.908 473.91 285.013C477.041 285.098 480.171 285.479 483.238 286.282C486.283 287.086 489.265 288.249 492.057 289.772C494.828 291.337 497.408 293.241 499.713 295.419C500.284 295.969 500.813 296.561 501.363 297.132L502.167 297.999L502.907 298.93C503.394 299.543 503.901 300.157 504.366 300.791L505.657 302.758L506.291 303.731L506.841 304.683L507.92 306.586L510.098 310.393C511.431 313.016 512.805 315.596 514.053 318.261C518.939 328.921 522.809 340.342 523.655 352.418C524.057 358.425 523.761 364.558 522.428 370.565C521.117 376.55 518.685 382.324 515.428 387.506C508.871 397.933 499.058 405.822 488.462 411.215C487.129 411.913 485.818 412.611 484.443 413.182C483.09 413.774 481.736 414.409 480.361 414.98C477.59 416.016 474.82 417.116 471.986 417.941C469.173 418.893 466.318 419.57 463.462 420.331C462.045 420.691 460.586 420.965 459.148 421.262C457.709 421.537 456.271 421.875 454.812 422.086C443.264 423.863 431.526 425.301 419.957 422.954C418.942 422.742 418.286 421.748 418.497 420.733C418.645 419.971 419.238 419.422 419.957 419.274H419.978C431.293 416.884 442.46 416.63 453.458 414.43C454.833 414.219 456.187 413.88 457.561 413.584C458.915 413.267 460.29 413.034 461.643 412.675C464.329 411.977 467.037 411.342 469.659 410.454C472.324 409.693 474.883 408.677 477.485 407.726C478.775 407.218 480.023 406.647 481.271 406.118C482.561 405.611 483.766 404.997 484.993 404.363C487.468 403.2 489.794 401.761 492.121 400.365L495.462 398.06C496.562 397.277 497.577 396.389 498.635 395.543C502.738 392.075 506.376 388.077 509.21 383.593C512.044 379.11 514.117 374.161 515.259 368.958C516.401 363.755 516.676 358.361 516.316 352.968C515.576 342.139 512.023 331.48 507.391 321.412C506.228 318.896 504.895 316.421 503.647 313.946L501.575 310.309L500.538 308.49L500.009 307.58L499.481 306.777L498.423 305.148L497.239 303.625L496.647 302.864L495.991 302.166C495.547 301.701 495.124 301.214 494.659 300.791C492.797 299.036 490.746 297.534 488.525 296.286C479.6 291.316 468.136 291.358 458.513 295.356C453.67 297.323 449.292 300.326 445.929 304.112C442.566 307.898 440.472 312.572 440.049 317.415L439.795 315.744C440.938 318.684 441.995 321.666 442.735 324.86C443.433 328.054 443.941 331.48 443.327 335.202C443.074 337.042 442.418 338.925 441.509 340.659C440.515 342.372 439.246 343.916 437.807 345.122C434.91 347.554 431.674 348.865 428.607 349.901C422.41 351.868 416.361 352.714 410.439 353.73C404.517 354.681 398.68 355.675 392.969 356.987C390.981 357.452 389.014 356.204 388.549 354.216C388.041 352.165 389.289 350.176 391.256 349.732Z" fill="#000072"/>
<g opacity="0.2">
<path d="M492.015 329.322C492.015 329.322 489.477 335.245 478.818 335.837C474.249 336.091 467.545 334.314 467.545 334.314C467.545 334.314 462.426 336.239 454.897 335.921C450.646 335.731 445.231 334.737 443.539 333.404C435.46 334.906 428.629 330.993 426.704 320.841C426.344 318.917 426.175 316.992 426.239 315.046C429.961 318.599 436.306 322.11 441.128 311.451C441.128 311.451 445.57 332.41 463.399 313.798C463.378 313.798 475.56 335.181 492.015 329.322Z" fill="#000072"/>
</g>
<path d="M493.707 330.042L493.538 330.697C493.496 330.888 493.432 331.078 493.369 331.247C493.242 331.607 493.115 331.924 492.946 332.262C492.628 332.897 492.248 333.51 491.804 334.06C490.936 335.16 489.879 336.112 488.716 336.852C486.41 338.375 483.788 339.115 481.271 339.559L479.367 339.792C478.754 339.855 477.993 339.897 477.358 339.897C476.047 339.876 474.799 339.771 473.593 339.623C471.161 339.263 468.919 338.755 466.593 337.931L468.835 337.825C468.094 338.079 467.608 338.227 467.037 338.375C466.487 338.523 465.916 338.65 465.366 338.777C464.245 339.009 463.145 339.2 462.024 339.348C459.804 339.644 457.562 339.728 455.32 339.665C453.057 339.601 450.878 339.369 448.679 338.988C447.579 338.798 446.458 338.565 445.316 338.227C444.745 338.057 444.131 337.867 443.497 337.613C442.841 337.317 442.165 337.063 441.234 336.365L444.195 337.106C442.482 337.402 440.705 337.55 438.886 337.423C437.067 337.275 435.206 336.852 433.451 336.112C429.919 334.631 427.042 331.691 425.435 328.519C423.743 325.325 422.981 322.005 422.664 318.747C422.347 315.448 422.558 312.085 423.299 308.828C424.8 302.314 428.586 296.392 433.683 292.204C438.781 287.974 444.977 285.5 451.153 284.273C457.371 283.067 463.653 283.089 469.765 283.765C471.288 283.935 472.811 284.167 474.313 284.4C475.814 284.696 477.316 284.929 478.796 285.288C480.277 285.648 481.757 285.944 483.217 286.367C484.676 286.769 486.114 287.128 487.7 287.72C490.81 288.841 493.728 290.428 496.372 292.352C498.995 294.298 501.3 296.582 503.33 299.015C507.391 303.921 510.352 309.484 512.573 315.258C513.313 317.161 512.361 319.297 510.458 320.016C508.554 320.757 506.418 319.805 505.699 317.901L505.678 317.88C503.711 312.741 501.067 307.834 497.662 303.731C495.949 301.679 494.067 299.818 491.994 298.274C489.9 296.73 487.637 295.525 485.226 294.658C484.084 294.213 482.667 293.854 481.313 293.494C479.96 293.093 478.585 292.818 477.21 292.479C475.835 292.141 474.461 291.95 473.086 291.654C471.711 291.443 470.315 291.231 468.94 291.062C463.42 290.449 457.858 290.47 452.57 291.485C447.325 292.521 442.313 294.573 438.379 297.851C434.445 301.108 431.611 305.55 430.469 310.457C429.898 312.91 429.75 315.469 429.982 317.986C430.215 320.524 430.828 323.02 431.907 325.008C432.139 325.537 432.478 325.96 432.774 326.425C433.112 326.827 433.43 327.271 433.81 327.609C434.551 328.328 435.375 328.921 436.327 329.301C437.258 329.703 438.294 329.936 439.394 330.042C440.494 330.105 441.657 330.02 442.82 329.83L445.781 330.57C445.675 330.486 445.95 330.655 446.225 330.761C446.543 330.888 446.902 331.014 447.325 331.12C448.129 331.353 449.038 331.543 449.948 331.712C451.767 332.03 453.67 332.241 455.51 332.283C457.371 332.326 459.233 332.262 461.073 332.03C461.982 331.924 462.892 331.755 463.78 331.564C464.224 331.48 464.668 331.374 465.091 331.247C465.493 331.141 466.001 330.993 466.212 330.909C466.931 330.655 467.671 330.613 468.369 330.782L468.454 330.803C470.442 331.057 472.599 331.416 474.587 331.628C475.582 331.755 476.576 331.839 477.485 331.86C477.971 331.882 478.331 331.903 478.817 331.882L480.256 331.797C482.159 331.691 483.915 331.268 485.564 330.74C486.41 330.486 487.214 330.19 488.018 329.809C488.42 329.619 488.8 329.407 489.202 329.196L489.773 328.857L490.048 328.688C490.133 328.646 490.238 328.54 490.281 328.603C490.683 327.673 491.761 327.229 492.692 327.63C493.665 328.032 494.109 329.111 493.707 330.042Z" fill="#000072"/>
<path d="M387.048 596.13C365.559 596.13 343.606 598.964 340.137 578.385C339.799 576.333 339.82 574.43 340.137 572.632C341.808 562.84 352.319 557.002 360.716 555.035C339.799 540.484 335.526 479.932 396.883 466.988L439.838 447.297C446.648 468.405 451.301 488.836 453.099 507.448C453.099 507.448 453.099 507.448 453.099 507.469C458.027 558.737 441.128 596.13 387.048 596.13Z" fill="white"/>
<g opacity="0.2">
<path d="M387.048 596.13C365.559 596.13 343.606 598.964 340.137 578.385C339.799 576.333 339.82 574.43 340.137 572.632C343.584 576.291 349.126 578.914 357.226 574.07C357.226 574.07 370.128 586.232 382.204 573.457C382.204 573.457 445.676 596.257 453.099 507.469C458.027 558.737 441.128 596.13 387.048 596.13Z" fill="#000072"/>
</g>
<g opacity="0.2">
<path d="M263.891 596.13C285.379 596.13 307.333 598.964 310.802 578.385C311.14 576.333 311.119 574.43 310.802 572.632C307.354 576.291 301.813 578.914 293.712 574.07C293.712 574.07 280.811 586.232 268.734 573.457C268.734 573.457 205.263 596.257 197.839 507.469C192.912 558.737 209.81 596.13 263.891 596.13Z" fill="#000072"/>
</g>
<path d="M443.349 446.197C446.944 457.428 450.096 468.849 452.549 480.418C455.045 491.987 456.737 503.789 457.371 515.717C457.942 527.646 457.371 539.786 454.41 551.651C452.887 557.552 450.751 563.39 447.769 568.825C444.808 574.261 440.98 579.337 436.327 583.567C431.674 587.797 426.281 591.138 420.591 593.592C414.902 596.045 408.895 597.737 402.868 598.604L400.604 598.985L398.341 599.196C396.84 599.345 395.317 599.493 393.815 599.619L389.289 599.768L387.026 599.831H384.869C379.074 599.873 373.194 600.064 367.145 599.852C364.121 599.725 361.054 599.471 357.945 598.943C354.836 598.372 351.642 597.568 348.575 596.024C347.053 595.284 345.551 594.332 344.197 593.19C342.823 592.069 341.596 590.737 340.581 589.277C338.487 586.358 337.324 583.017 336.689 579.802C336.034 576.481 336.076 572.717 337.218 569.29C338.339 565.843 340.39 562.861 342.802 560.492C345.213 558.102 347.962 556.262 350.839 554.781C353.715 553.301 356.739 552.201 359.891 551.461L358.622 558.081C356.253 556.431 354.159 554.464 352.404 552.307C350.733 550.107 349.189 547.823 348.026 545.391C347.37 544.207 346.905 542.937 346.355 541.711C345.868 540.463 345.445 539.194 345.022 537.925C344.303 535.366 343.669 532.764 343.309 530.142C341.786 519.672 343.14 508.759 347.433 499.051C351.663 489.28 358.981 481.01 367.674 475.215C376.409 469.42 386.497 466.248 396.523 465.211C397.538 465.105 398.447 465.846 398.553 466.861C398.638 467.707 398.13 468.489 397.369 468.786L397.284 468.807C396.142 469.23 395 469.653 393.858 470.055L392.144 470.647C391.573 470.858 391.024 471.091 390.474 471.324C389.374 471.789 388.253 472.212 387.132 472.635C386.053 473.143 384.975 473.65 383.896 474.115C379.645 476.188 375.499 478.388 371.798 481.158C368.076 483.887 364.65 486.996 361.773 490.549C358.897 494.081 356.528 498.015 354.751 502.203C351.219 510.578 350.077 519.969 351.325 528.978C351.959 533.483 353.165 537.904 355.069 541.922C355.978 543.974 357.184 545.793 358.431 547.569C359.764 549.261 361.202 550.784 362.831 552.032L362.957 552.117C364.586 553.364 364.882 555.691 363.634 557.298C363.106 557.996 362.365 558.44 361.562 558.631C356.507 559.857 351.494 562.269 347.983 565.716C346.228 567.45 344.917 569.417 344.24 571.553C343.542 573.69 343.499 575.953 343.922 578.364C344.409 580.859 345.255 583.144 346.587 585.005C347.243 585.935 348.004 586.781 348.893 587.501C349.781 588.241 350.754 588.875 351.854 589.404C356.232 591.582 361.837 592.217 367.441 592.45C373.088 592.661 378.905 592.471 384.805 592.428H387.026L389.141 592.365L393.371 592.238L397.559 591.857L399.653 591.667L401.725 591.329C407.267 590.546 412.639 589.023 417.651 586.845C422.685 584.666 427.338 581.769 431.357 578.131C435.375 574.493 438.675 570.094 441.297 565.293C443.92 560.471 445.866 555.247 447.261 549.854C449.969 538.982 450.561 527.519 450.011 516.098C449.398 504.677 447.769 493.235 445.337 481.962C442.926 470.668 439.859 459.501 436.327 448.46C435.714 446.515 436.771 444.442 438.717 443.829C440.641 443.173 442.714 444.252 443.349 446.197Z" fill="#000072"/>
<path d="M299.169 478.345C284.258 510.853 218.588 493.595 202.175 470.245C190.754 454.002 190.966 428.03 204.163 400.556C206.469 395.755 209.176 390.911 212.285 386.089L252.174 397.108C248.388 422.425 275.46 430.314 291.513 443.49C301.263 451.464 306.931 461.404 299.169 478.345Z" fill="white"/>
<g opacity="0.2">
<path d="M299.169 478.345C284.258 510.853 218.588 493.595 202.175 470.245C190.754 454.002 190.966 428.03 204.163 400.556C198.093 420.965 193.504 453.748 218.524 471.112C240.901 486.657 278.21 491.86 274.233 483.718C284.639 484.542 293.395 478.219 287.156 465.486C297.245 464.556 294.199 453.092 291.513 443.469C301.263 451.464 306.931 461.404 299.169 478.345Z" fill="#6B184E"/>
</g>
<path d="M215.373 388.077C208.837 398.546 203.55 409.841 200.526 421.642C199.003 427.543 198.114 433.55 197.988 439.535C197.861 445.499 198.537 451.464 200.272 457.005C201.139 459.776 202.281 462.441 203.677 464.915C204.375 466.142 205.179 467.39 205.982 468.468C206.807 469.568 207.738 470.626 208.732 471.641C212.771 475.702 217.847 479.043 223.198 481.814C228.57 484.585 234.26 486.827 240.118 488.519C245.956 490.211 251.962 491.374 257.969 491.86C263.976 492.368 270.003 492.199 275.693 490.993C281.361 489.788 286.669 487.419 290.582 483.675C292.549 481.814 294.135 479.614 295.341 477.161C296.568 474.581 297.646 471.789 298.26 469.082C298.598 467.728 298.767 466.353 298.873 465.021C298.937 463.688 298.894 462.356 298.725 461.066C298.323 458.507 297.414 456.053 295.933 453.79C293.014 449.222 288.213 445.478 283.137 442.031C278.04 438.562 272.52 435.347 267.169 431.583C264.483 429.7 261.839 427.67 259.365 425.301C256.89 422.975 254.627 420.267 252.851 417.18C251.095 414.113 249.869 410.623 249.488 407.112C249.044 403.601 249.446 400.09 250.355 396.854C250.63 395.86 251.645 395.289 252.639 395.564C253.464 395.797 253.993 396.537 253.993 397.341V397.404C254.014 400.429 254.225 403.369 255.008 406.097C255.346 407.472 255.875 408.762 256.467 410.031C257.038 411.3 257.757 412.484 258.561 413.626C261.755 418.237 266.387 422.002 271.42 425.513C276.475 429.002 281.953 432.154 287.367 435.77C290.075 437.589 292.782 439.535 295.362 441.756C297.921 443.998 300.396 446.536 302.405 449.603C304.435 452.627 305.853 456.223 306.424 459.924C306.699 461.785 306.762 463.625 306.677 465.465C306.551 467.284 306.318 469.082 305.916 470.816C305.155 474.306 303.949 477.478 302.469 480.63C300.903 483.887 298.746 486.911 296.124 489.449C293.522 491.987 290.476 494.039 287.304 495.583C284.11 497.148 280.79 498.226 277.427 498.988C270.701 500.468 263.912 500.68 257.292 500.151C250.651 499.601 244.137 498.332 237.813 496.492C231.468 494.652 225.313 492.241 219.412 489.174C213.533 486.086 207.843 482.406 202.915 477.478C201.689 476.23 200.526 474.898 199.447 473.46C198.368 472 197.459 470.562 196.57 469.039C194.857 466.015 193.483 462.8 192.467 459.501C190.416 452.923 189.739 446.092 189.951 439.387C190.162 432.683 191.22 426.084 192.933 419.718C196.317 406.943 202.112 395.036 209.197 384.143C210.318 382.43 212.602 381.965 214.294 383.065C215.965 384.122 216.451 386.364 215.373 388.077Z" fill="#000072"/>
<path d="M362.598 551.778C362.767 551.905 363.169 552.117 363.486 552.286C363.825 552.476 364.184 552.645 364.544 552.815C365.263 553.174 366.003 553.512 366.765 553.809C368.266 554.443 369.831 555.014 371.418 555.501C374.59 556.495 377.89 557.235 381.231 557.785C382.902 557.996 384.594 558.271 386.286 558.377C387.132 558.44 387.978 558.546 388.845 558.567L391.404 558.652C393.118 558.758 394.831 558.631 396.544 558.631C398.257 558.567 399.97 558.419 401.705 558.314H401.831C402.847 558.25 403.714 559.033 403.777 560.048C403.841 561 403.143 561.824 402.212 561.972C400.435 562.247 398.68 562.565 396.882 562.797C395.085 562.967 393.308 563.241 391.51 563.326L388.803 563.474C387.894 563.516 386.984 563.495 386.075 563.516C384.256 563.58 382.437 563.432 380.618 563.39C376.98 563.136 373.342 562.67 369.726 561.888C367.907 561.507 366.109 561.042 364.332 560.471C363.444 560.196 362.535 559.879 361.646 559.54C361.202 559.371 360.758 559.202 360.293 558.99C359.828 558.779 359.426 558.631 358.833 558.314L358.77 558.271C356.909 557.319 356.169 555.014 357.12 553.153C358.072 551.292 360.377 550.551 362.239 551.503C362.344 551.609 362.471 551.694 362.598 551.778Z" fill="#000072"/>
<path d="M390.855 569.565C388.295 570.306 386.011 571.998 384.552 574.176C383.05 576.355 382.352 578.956 382.606 581.409C382.839 583.884 384.002 586.168 385.715 588.114C387.449 590.06 389.734 591.625 392.208 592.915H392.229C394.027 593.867 394.746 596.087 393.794 597.906C392.843 599.725 390.622 600.423 388.803 599.471C388.697 599.408 388.592 599.345 388.486 599.281C385.588 597.378 382.818 595.093 380.639 592.111C378.482 589.15 377.023 585.428 377.065 581.6C377.065 577.772 378.545 574.113 380.893 571.342C383.219 568.55 386.498 566.604 390.051 565.97C391.045 565.78 392.018 566.456 392.187 567.45C392.356 568.381 391.785 569.29 390.897 569.544L390.855 569.565Z" fill="#000072"/>
<path d="M364.861 567.789C362.725 569.354 361.033 571.384 359.976 573.668C358.918 575.953 358.495 578.448 358.728 580.881C358.96 583.313 359.806 585.66 361.139 587.733C362.45 589.806 364.227 591.625 366.236 593.169L366.257 593.19C367.865 594.438 368.182 596.743 366.934 598.372C365.686 599.979 363.381 600.296 361.752 599.048C361.646 598.964 361.541 598.879 361.456 598.795C359.066 596.532 356.972 593.867 355.471 590.842C353.969 587.839 353.123 584.434 353.186 581.05C353.229 577.666 354.181 574.303 355.915 571.469C357.628 568.614 360.081 566.308 362.831 564.722C363.719 564.214 364.84 564.51 365.348 565.399C365.855 566.181 365.623 567.239 364.861 567.789Z" fill="#000072"/>
<path d="M465.62 313.587C465.239 314.327 464.859 315.258 464.563 316.146C464.245 317.034 464.013 317.944 463.843 318.853C463.505 320.651 463.463 322.449 463.78 324.056C463.886 324.458 463.928 324.86 464.076 325.241L464.52 326.34C464.689 326.7 464.922 327.017 465.112 327.356C465.282 327.694 465.557 327.99 465.81 328.286C466.085 328.561 466.255 328.899 466.593 329.153L467.502 329.936C467.777 330.211 468.179 330.401 468.518 330.634L469.554 331.289L469.892 331.501C471.627 332.601 472.134 334.885 471.034 336.619C469.935 338.354 467.65 338.861 465.916 337.761C465.768 337.677 465.62 337.55 465.493 337.444L464.076 336.239C463.611 335.816 463.124 335.477 462.723 334.948L461.496 333.51C461.073 333.045 460.777 332.432 460.438 331.903C459.719 330.845 459.296 329.576 458.873 328.392L458.45 326.531C458.323 325.917 458.323 325.283 458.281 324.669C458.175 322.174 458.641 319.805 459.402 317.648C459.783 316.569 460.227 315.512 460.756 314.517C461.284 313.502 461.813 312.593 462.553 311.578C463.146 310.753 464.309 310.562 465.134 311.155C465.874 311.683 466.106 312.677 465.705 313.481L465.62 313.587Z" fill="#000072"/>
<path d="M443.285 311.133C442.608 312.847 442.08 314.835 441.741 316.717C441.424 318.621 441.276 320.524 441.445 322.322C441.614 324.12 442.08 325.769 442.82 327.186C443.56 328.603 444.702 329.661 445.908 330.591L446.077 330.718C447.684 331.966 447.981 334.293 446.712 335.921C445.464 337.529 443.137 337.825 441.509 336.556C441.382 336.471 441.255 336.344 441.149 336.239C439.288 334.356 437.723 332.157 436.856 329.682C436.031 327.229 435.777 324.712 435.904 322.343C436.052 319.953 436.581 317.711 437.258 315.575C437.977 313.418 438.823 311.451 439.986 309.42C440.494 308.532 441.614 308.236 442.503 308.744C443.306 309.209 443.624 310.182 443.306 311.007L443.285 311.133Z" fill="#000072"/>
<g opacity="0.5">
<path d="M30.8814 373.907C24.0499 371.221 33.9904 332.178 58.5456 324.67C71.4471 320.736 60.4491 333.108 52.6447 347.723C43.4868 364.897 36.5073 376.106 30.8814 373.907Z" fill="white"/>
</g>
<g opacity="0.5">
<path d="M78.2365 323.062C75.4659 323.527 63.3258 323.464 69.6919 317.901C76.0369 312.36 89.446 312.593 90.144 315.702C90.8419 318.832 85.6602 321.793 78.2365 323.062Z" fill="white"/>
</g>
<path d="M282.651 461.954C284.238 462.42 286.035 462.779 287.727 462.991C289.44 463.202 291.154 463.266 292.761 463.117C294.347 462.948 295.891 462.631 297.097 462.018C298.302 461.404 299.191 460.558 299.867 459.607C301.031 457.936 303.336 457.513 305.007 458.676C306.678 459.839 307.101 462.145 305.937 463.815C305.832 463.985 305.705 464.133 305.578 464.26L305.557 464.281C303.78 466.121 301.538 467.411 299.296 468.067C297.033 468.743 294.813 468.764 292.74 468.638C290.646 468.49 288.679 468.045 286.776 467.496C284.851 466.924 283.095 466.248 281.234 465.359C280.325 464.915 279.944 463.815 280.388 462.885C280.79 462.06 281.721 461.679 282.567 461.912L282.651 461.954Z" fill="#000072"/>
<path d="M275.143 482.11C276.708 482.766 278.569 483.316 280.303 483.633C282.08 483.971 283.835 484.119 285.527 484.035C287.219 483.929 288.806 483.548 290.223 482.956C291.661 482.385 292.803 481.412 293.861 480.397L294.009 480.249C295.489 478.853 297.837 478.916 299.233 480.397C300.629 481.877 300.565 484.225 299.085 485.621C298.958 485.727 298.81 485.854 298.683 485.959C296.695 487.376 294.516 488.54 292.169 489.09C289.863 489.64 287.537 489.766 285.316 489.534C283.116 489.28 281.001 488.751 279.013 488.053C277.004 487.313 275.185 486.467 273.303 485.304C272.436 484.775 272.161 483.633 272.711 482.766C273.197 481.983 274.17 481.687 274.995 482.026L275.143 482.11Z" fill="#000072"/>
</svg>
