<svg width="626" height="599" viewBox="0 0 626 599" fill="none" xmlns="http://www.w3.org/2000/svg">
<ellipse cx="313" cy="299.5" rx="313" ry="299.5" fill="#B0A2D7"/>
<path d="M392.779 307.086L419.15 400.072C448.305 413.316 481.455 412.21 501.919 405.946C523.063 399.487 530.67 387.544 506.381 380.24C552.154 366.628 565.669 331.818 523.785 339.425C586.876 301.104 581.649 256.085 529.076 282.984C562.12 243.145 557.084 196.479 531.223 193.704C523.976 192.924 516.836 195.98 511.97 201.529C498.349 217.005 483.708 231.614 468.28 245.529C452.619 259.705 436.171 273.187 419.129 286.17L392.779 307.086Z" fill="white"/>
<path d="M418.258 284.935C419.894 282.117 421.87 279.776 423.931 277.543C425.971 275.289 428.224 273.338 430.455 271.366C432.686 269.394 435.003 267.508 437.298 265.622L444.331 260.095C449.028 256.432 453.533 252.53 458.016 248.607L464.689 242.668L471.276 236.643C479.989 228.536 488.489 220.17 496.67 211.521C500.771 207.208 504.745 202.808 508.74 198.321C513.479 193.011 520.215 189.456 527.44 189.023C529.225 188.914 531.053 188.958 532.816 189.305C533.709 189.478 534.601 189.586 535.473 189.825L538.065 190.67C541.465 192.014 544.546 194.16 547.054 196.761C549.583 199.362 551.389 202.44 552.855 205.582L553.833 207.967C554.151 208.769 554.364 209.592 554.619 210.394C555.171 212.02 555.448 213.667 555.83 215.293C557.02 221.882 556.935 228.471 556.106 234.865C555.278 241.259 553.641 247.48 551.453 253.463C547.075 265.405 540.488 276.33 532.498 285.932C531.478 287.124 530.521 288.338 529.459 289.486L526.293 292.911C525.783 293.496 525.23 294.038 524.678 294.602L523.063 296.292C522 297.441 520.938 298.59 519.79 299.63C518.664 300.692 517.495 301.733 516.284 302.708C515.03 303.618 513.734 304.485 512.416 305.287C511.758 305.678 511.078 306.068 510.376 306.415C509.654 306.74 508.931 307.043 508.166 307.303C506.658 307.823 505.106 308.257 503.385 308.409C502.45 308.495 501.6 307.78 501.515 306.826C501.494 306.523 501.536 306.219 501.664 305.959L501.706 305.894C503.13 302.686 505.128 300.497 507.061 298.265C508.06 297.181 509.123 296.184 510.185 295.23C511.226 294.212 512.31 293.258 513.415 292.326C513.968 291.849 514.541 291.415 515.094 290.939L516.709 289.486C517.771 288.511 518.876 287.579 519.854 286.517L522.808 283.331C523.785 282.269 524.678 281.12 525.634 280.036C533.029 271.149 539.064 261.092 543.016 250.298C544.993 244.901 546.438 239.33 547.181 233.717C547.904 228.103 547.946 222.424 546.969 217.07C546.65 215.77 546.459 214.404 546.013 213.169C545.8 212.54 545.651 211.89 545.396 211.283L544.653 209.484C543.548 207.165 542.273 204.954 540.594 203.242C538.915 201.529 537.003 200.207 534.856 199.34C534.304 199.167 533.751 198.993 533.199 198.798C532.646 198.646 532.051 198.581 531.478 198.473C530.33 198.213 529.14 198.213 527.971 198.278C523.275 198.538 518.643 200.922 515.413 204.564C511.418 209.05 507.316 213.581 503.151 217.959C494.821 226.759 486.194 235.256 477.333 243.492L470.639 249.604L463.86 255.63L450.196 267.508C445.691 271.518 441.101 275.441 436.193 278.931C431.326 282.485 426.205 285.693 420.043 287.427C419.193 287.666 418.3 287.167 418.066 286.278C417.939 285.823 418.024 285.368 418.236 285L418.258 284.935Z" fill="#390176"/>
<path d="M527.079 278.865C532.986 275.874 539.149 273.208 545.864 271.561C549.221 270.759 552.727 270.174 556.446 270.239C558.295 270.26 560.229 270.499 562.205 270.976C564.16 271.474 566.179 272.298 568.027 273.62C569.876 274.942 571.512 276.806 572.554 278.909C573.616 281.011 574.126 283.266 574.254 285.368C574.53 289.638 573.531 293.409 572.277 296.834C569.621 303.683 565.647 309.362 561.291 314.564C556.914 319.723 552.047 324.34 547.011 328.653C541.975 332.988 536.726 336.998 531.201 340.552C525.655 344.064 519.854 347.12 513.861 349.699C507.869 352.257 501.706 354.381 495.31 355.703C494.481 355.877 493.674 355.335 493.504 354.49C493.376 353.861 493.652 353.232 494.162 352.886C504.872 345.581 515.689 339.23 526.08 332.294C531.265 328.826 536.45 325.38 541.274 321.457C546.097 317.555 550.56 313.22 554.512 308.582C558.444 303.943 561.886 298.85 563.926 293.561C564.904 290.938 565.499 288.251 565.329 286.018C565.159 283.742 564.394 282.225 562.906 281.163C561.397 280.058 558.975 279.472 556.34 279.451C553.684 279.407 550.836 279.841 548.01 280.513C542.315 281.9 536.662 284.328 531.18 287.102L531.137 287.124C528.906 288.251 526.207 287.319 525.102 285.043C523.934 282.745 524.847 279.993 527.079 278.865Z" fill="#390176"/>
<path d="M520.152 336.521C524.593 335.502 529.14 334.679 533.9 334.419C536.28 334.289 538.724 334.31 541.295 334.657C543.845 335.025 546.565 335.632 549.328 337.41C550.688 338.298 552.069 339.556 553.047 341.203C554.045 342.85 554.555 344.779 554.64 346.557C554.725 348.334 554.428 349.96 554.003 351.412C553.557 352.864 552.983 354.143 552.345 355.357C551.049 357.741 549.519 359.778 547.862 361.621C546.225 363.463 544.462 365.132 542.655 366.693C539.022 369.771 535.133 372.372 531.159 374.777C527.185 377.162 523.105 379.351 518.834 381.02C510.292 384.314 501.175 386.07 492.017 385.138C491.167 385.051 490.529 384.271 490.614 383.404C490.678 382.841 491.018 382.364 491.485 382.147L491.507 382.125C495.565 380.109 499.582 378.484 503.534 376.837C507.487 375.189 511.397 373.607 515.264 371.96C519.132 370.312 522.999 368.687 526.654 366.671C530.33 364.677 533.752 362.293 536.854 359.67C539.914 357.047 542.762 354.056 544.419 350.978C544.823 350.22 545.142 349.461 545.354 348.767C545.545 348.074 545.63 347.467 545.609 347.012C545.588 346.557 545.503 346.275 545.333 346.015C545.184 345.755 544.908 345.451 544.419 345.148C543.93 344.844 543.293 344.541 542.549 344.302C541.784 344.086 540.955 343.869 540.042 343.782C538.257 343.544 536.302 343.5 534.304 343.609C530.309 343.826 526.187 344.541 522.085 345.494H522.064C519.642 346.058 517.24 344.497 516.688 342.026C516.178 339.534 517.708 337.085 520.152 336.521Z" fill="#390176"/>
<path d="M469.215 414.941C452.47 414.941 434.11 411.885 417.322 404.255C415.049 403.215 414.029 400.505 415.049 398.186C416.069 395.867 418.725 394.827 420.999 395.867C459.334 413.272 502.79 404.45 514.392 395.043C516.369 393.439 517.112 392.074 516.985 391.424C516.964 391.294 516.199 387.999 505.127 384.661C502.747 383.946 501.387 381.388 502.089 378.96C502.79 376.533 505.297 375.146 507.677 375.861C518.749 379.177 524.677 383.707 525.825 389.668C526.42 392.767 525.889 397.449 520.002 402.239C511.014 409.501 491.57 414.941 469.215 414.941Z" fill="#390176"/>
<g opacity="0.3">
<path d="M569.026 293.605C569.005 293.626 569.005 293.648 569.005 293.67C566.243 307.693 548.626 324.925 524.635 339.339C516.709 344.129 508.06 348.594 499.05 352.539L476.653 361.296C472.891 383.643 545.12 356.224 537.045 340.748C543.016 341.506 546.841 342.829 548.924 344.563C553.131 348.009 550.39 353.081 544.27 358.413C544.249 358.435 544.249 358.435 544.228 358.435C531.924 369.164 505.999 380.955 495.098 383.101C495.098 383.101 483.028 385.507 474.421 385.507C465.794 385.507 471.425 405.404 516.05 385.507C516.518 385.29 516.985 385.095 517.431 384.9C539.893 400.376 472.976 424.305 419.554 400.051L393.183 307.065L419.554 286.148C432.814 276.026 445.734 265.622 458.208 254.806L462.479 254.265C462.479 254.265 444.948 274.942 439.763 300.627C437.468 311.963 449.729 320.612 459.27 314.369C499.475 288.078 530.649 252.791 543.951 199.644C543.951 199.644 555.958 215.596 550.836 241.151C549.306 248.737 546.289 257.191 540.976 266.316L540.955 266.338C535.685 275.398 528.163 285.13 517.644 295.382L488.638 318.553C478.778 354.273 559.421 302.86 559.74 275.051C567.773 279.776 570.45 286.257 569.026 293.605Z" fill="#390176"/>
</g>
<path d="M211.346 307.086L184.975 400.072C155.82 413.316 122.67 412.21 102.206 405.946C81.0623 399.487 73.4548 387.544 97.7436 380.24C51.9711 366.628 38.4561 331.818 80.3398 339.425C17.2486 301.104 22.4761 256.085 75.0486 282.984C42.0049 243.145 47.0411 196.479 72.9023 193.704C80.1486 192.924 87.2886 195.98 92.1548 201.529C105.776 217.005 120.417 231.614 135.845 245.529C151.506 259.705 167.954 273.187 184.996 286.17L211.346 307.086Z" fill="white"/>
<path d="M184.082 287.384C177.92 285.65 172.799 282.42 167.932 278.887C163.024 275.398 158.434 271.474 153.929 267.464L140.265 255.587L133.486 249.561L126.792 243.449C117.931 235.212 109.304 226.715 100.974 217.915C96.8086 213.537 92.7073 209.007 88.7123 204.52C85.4611 200.879 80.8498 198.473 76.1536 198.235C74.9848 198.169 73.7948 198.169 72.6473 198.43C72.0736 198.56 71.4786 198.603 70.9261 198.755C70.3736 198.95 69.8211 199.123 69.2686 199.297C67.1223 200.164 65.2098 201.486 63.5311 203.198C61.8523 204.91 60.5561 207.121 59.4723 209.44L58.7286 211.24C58.4948 211.846 58.3248 212.497 58.1123 213.125C57.6661 214.361 57.4748 215.726 57.1561 217.027C56.1786 222.38 56.2211 228.059 56.9436 233.673C57.6873 239.287 59.1323 244.879 61.1086 250.255C65.0823 261.049 71.0961 271.106 78.4911 279.993C79.4261 281.098 80.3186 282.225 81.3173 283.287L84.2711 286.473C85.2486 287.536 86.3536 288.468 87.4161 289.443L89.0311 290.895C89.5623 291.372 90.1573 291.805 90.7098 292.282C91.8148 293.214 92.8986 294.168 93.9398 295.187C95.0236 296.162 96.0648 297.159 97.0636 298.221C99.0186 300.454 101.016 302.643 102.419 305.851L102.44 305.916C102.822 306.805 102.44 307.845 101.59 308.235C101.314 308.365 101.016 308.409 100.74 308.387C99.0186 308.235 97.4673 307.802 95.9586 307.281C95.2148 307.021 94.4711 306.718 93.7486 306.393C93.0473 306.046 92.3673 305.656 91.7086 305.266C90.3698 304.464 89.0948 303.597 87.8411 302.686C86.6298 301.711 85.4611 300.671 84.3348 299.608C83.1873 298.568 82.1248 297.419 81.0623 296.271L79.4473 294.58C78.8948 294.016 78.3423 293.496 77.8323 292.889L74.6661 289.465C73.6036 288.316 72.6473 287.08 71.6273 285.91C63.6373 276.33 57.0711 265.384 52.6723 253.441C50.4836 247.48 48.8686 241.259 48.0186 234.844C47.1898 228.449 47.1048 221.86 48.2948 215.271C48.6773 213.624 48.9323 211.976 49.5061 210.373C49.7611 209.571 49.9736 208.747 50.2923 207.945L51.2698 205.561C52.7361 202.439 54.5423 199.362 57.0711 196.739C59.5786 194.138 62.6598 192.014 66.0598 190.648L68.6523 189.803C69.5236 189.565 70.4161 189.456 71.3086 189.283C73.0723 188.936 74.8998 188.914 76.6848 189.001C83.8886 189.413 90.6461 192.967 95.3848 198.3C99.3798 202.786 103.354 207.165 107.455 211.5C115.636 220.148 124.136 228.514 132.849 236.621L139.436 242.647L146.109 248.586C150.592 252.509 155.076 256.41 159.794 260.073L166.827 265.6C169.144 267.486 171.439 269.372 173.67 271.344C175.901 273.338 178.154 275.289 180.194 277.522C182.255 279.754 184.231 282.095 185.867 284.913L185.889 284.956C186.335 285.736 186.08 286.734 185.315 287.21C184.932 287.449 184.486 287.492 184.082 287.384Z" fill="#390176"/>
<path d="M73.0087 287.08C67.5262 284.306 61.8737 281.878 56.1787 280.491C53.3525 279.819 50.5049 279.364 47.8487 279.429C45.2137 279.472 42.7912 280.058 41.2824 281.141C39.7949 282.225 39.03 283.721 38.86 285.997C38.69 288.229 39.2849 290.938 40.2624 293.539C42.2812 298.828 45.7449 303.922 49.6762 308.56C53.6287 313.199 58.0912 317.534 62.9149 321.435C67.7174 325.358 72.9237 328.826 78.1087 332.273C88.4999 339.209 99.295 345.559 110.026 352.864C110.727 353.341 110.919 354.316 110.451 355.031C110.09 355.573 109.474 355.812 108.879 355.703C102.482 354.36 96.3199 352.235 90.3274 349.699C84.3349 347.12 78.5337 344.064 72.9874 340.553C67.4624 336.998 62.1924 332.988 57.1774 328.653C52.1412 324.34 47.275 319.723 42.8975 314.564C38.5412 309.384 34.5462 303.683 31.9112 296.834C30.6574 293.409 29.6587 289.638 29.935 285.368C30.0837 283.244 30.5725 281.011 31.635 278.909C32.6762 276.806 34.3124 274.942 36.1612 273.62C38.0099 272.298 40.0287 271.474 41.9837 270.976C43.9387 270.477 45.8724 270.26 47.7424 270.239C51.4612 270.174 54.9674 270.759 58.3249 271.561C65.0399 273.208 71.1812 275.896 77.11 278.865C79.3412 279.993 80.2549 282.745 79.1499 285.021C78.0449 287.297 75.3462 288.229 73.1149 287.102L73.0087 287.08Z" fill="#390176"/>
<path d="M81.9975 345.473C77.8963 344.541 73.7738 343.804 69.7788 343.587C67.7813 343.479 65.8263 343.522 64.0413 343.76C63.1275 343.869 62.32 344.064 61.5338 344.281C60.79 344.519 60.1525 344.823 59.6638 345.126C59.175 345.429 58.8988 345.733 58.75 345.993C58.6013 346.253 58.5163 346.535 58.4738 346.99C58.4525 347.445 58.5375 348.052 58.7288 348.746C58.9413 349.439 59.2813 350.198 59.6638 350.957C61.3425 354.034 64.1688 357.047 67.2288 359.648C70.3313 362.271 73.7738 364.655 77.4288 366.649C81.0838 368.665 84.9513 370.291 88.8188 371.938C92.6863 373.585 96.5962 375.168 100.549 376.815C104.501 378.462 108.518 380.088 112.576 382.104L112.598 382.125C113.363 382.515 113.681 383.469 113.32 384.249C113.086 384.77 112.598 385.073 112.088 385.138C102.929 386.07 93.8125 384.314 85.27 381.02C80.9988 379.329 76.9188 377.14 72.945 374.777C68.9713 372.393 65.0825 369.792 61.4488 366.693C59.6425 365.154 57.8788 363.485 56.2425 361.621C54.6063 359.778 53.055 357.741 51.7588 355.357C51.1213 354.143 50.5475 352.864 50.1013 351.412C49.6763 349.96 49.3788 348.334 49.4638 346.557C49.5275 344.779 50.0588 342.828 51.0575 341.203C52.035 339.556 53.4163 338.298 54.7763 337.41C57.5388 335.654 60.2588 335.025 62.8088 334.657C65.3588 334.31 67.8238 334.289 70.2038 334.419C74.9638 334.679 79.5113 335.502 83.9525 336.521C86.375 337.085 87.905 339.534 87.3738 342.005C86.8213 344.476 84.42 346.036 81.9975 345.494V345.473Z" fill="#390176"/>
<path d="M134.91 414.941C112.555 414.941 93.1111 409.501 84.1436 402.218C78.2573 397.428 77.7261 392.746 78.3211 389.646C79.4686 383.686 85.3973 379.156 96.4686 375.839C98.8486 375.124 101.356 376.511 102.057 378.939C102.759 381.367 101.399 383.924 99.0186 384.64C87.9261 387.977 87.1823 391.272 87.1611 391.402C87.0336 392.052 87.7986 393.418 89.7536 395.022C101.335 404.429 144.812 413.251 183.147 395.846C185.421 394.805 188.077 395.867 189.097 398.165C190.117 400.484 189.097 403.193 186.824 404.234C170.015 411.885 151.655 414.941 134.91 414.941Z" fill="#390176"/>
<g opacity="0.3">
<path d="M35.0988 293.605C35.12 293.626 35.12 293.648 35.12 293.67C37.8825 307.693 55.4987 324.925 79.49 339.339C87.4163 344.129 96.065 348.594 105.075 352.539L127.473 361.296C131.234 383.643 59.005 356.224 67.08 340.748C61.1088 341.506 57.2838 342.829 55.2013 344.563C50.9938 348.009 53.735 353.081 59.855 358.413C59.8763 358.435 59.8763 358.435 59.8975 358.435C72.2013 369.164 98.1263 380.955 109.028 383.101C109.028 383.101 121.098 385.507 129.704 385.507C138.331 385.507 132.7 405.404 88.075 385.507C87.6075 385.29 87.14 385.095 86.6938 384.9C64.2325 400.376 131.149 424.305 184.571 400.051L210.942 307.065L184.571 286.148C171.311 276.026 158.391 265.622 145.917 254.806L141.646 254.265C141.646 254.265 159.178 274.942 164.363 300.627C166.658 311.963 154.396 320.612 144.855 314.369C104.65 288.078 73.4763 252.791 60.1738 199.644C60.1738 199.644 48.1675 215.596 53.2888 241.151C54.8188 248.737 57.8363 257.191 63.1488 266.316L63.17 266.338C68.44 275.398 75.9625 285.13 86.4813 295.382L115.488 318.553C125.348 354.273 44.7038 302.86 44.385 275.051C36.3525 279.776 33.675 286.257 35.0988 293.605Z" fill="#390176"/>
</g>
<path d="M526.25 472.185C481.094 531.618 453.171 494.228 428.075 473.312C419.745 466.376 411.734 461.261 403.51 462.106C405.996 455.907 409.056 449.751 412.669 443.596C419.32 440.062 425.312 437.895 430.774 436.833C477.842 427.599 484.664 499.907 526.25 472.185Z" fill="#37CEF7"/>
<path d="M525.187 513.671C505 559.709 426.099 570.373 396.986 527.196C393.374 507.515 394.564 488.073 400.981 468.912C401.746 466.636 402.575 464.36 403.489 462.106C411.712 461.261 419.724 466.398 428.054 473.312C453.15 494.207 481.072 531.618 526.229 472.185C526.569 471.947 526.93 471.708 527.27 471.47C527.334 471.687 527.376 471.882 527.419 472.098C531.669 488.03 530.33 502.01 525.187 513.671Z" fill="#F962BB"/>
<path d="M527.759 470.169C527.674 470.819 527.567 471.448 527.461 472.076C516.114 539.507 429.18 540.569 401.002 498.737V462.518C401.852 462.301 402.681 462.171 403.51 462.084C436.532 458.725 466.112 551.32 526.25 472.163C526.76 471.535 527.249 470.863 527.759 470.169Z" fill="#FFB531"/>
<path d="M454 559.015C430.434 559.015 406.995 550.128 393.289 529.819C391.886 527.738 392.396 524.877 394.457 523.425C396.497 521.994 399.302 522.514 400.726 524.617C419.851 552.989 461.331 555.634 490.38 541.805C516.942 529.147 529.352 505.846 524.337 478.687C518.536 481.808 513.287 483.131 508.506 483.131C494.821 483.131 484.727 472.445 475.484 462.669C460.184 446.478 445.755 431.197 414.772 447.692C412.562 448.862 409.842 447.995 408.695 445.741C407.547 443.487 408.397 440.713 410.607 439.542C447.561 419.861 466.644 440.062 481.965 456.297C495.607 470.733 505.467 481.158 524.784 467.698C525.974 466.853 527.504 466.658 528.864 467.178C530.224 467.676 531.265 468.825 531.647 470.256C536.514 488.116 535.026 505.196 527.334 519.675C520.491 532.528 509.037 543.062 494.184 550.128C482.071 555.872 468.004 559.015 454 559.015Z" fill="#390176"/>
<path d="M460.8 531.856C435.427 531.856 410.713 520.282 397.751 501.035C396.518 499.214 396.965 496.7 398.771 495.442C400.556 494.185 403.021 494.64 404.253 496.483C418.427 517.508 450.005 528.432 477.736 521.864C496.563 517.399 510.525 505.716 517.813 488.853C505.51 502.053 493.843 508.946 482.368 509.856C481.497 509.921 480.626 509.965 479.755 509.965C462.818 509.965 449.601 496.895 437.871 485.277C426.863 474.396 417.386 464.989 407.462 467.503C405.358 468.024 403.212 466.723 402.702 464.577C402.192 462.431 403.467 460.242 405.571 459.722C419.723 456.167 431.198 467.525 443.353 479.533C455.02 491.086 467.111 503.029 481.752 501.88C494.46 500.883 508.081 490.327 523.381 469.628C524.465 468.154 526.377 467.633 528.056 468.349C529.713 469.064 530.691 470.82 530.436 472.64C526.165 502.292 507.592 523.1 479.521 529.754C473.337 531.163 467.047 531.856 460.8 531.856Z" fill="#390176"/>
<g opacity="0.3">
<path d="M525.187 513.671C505 559.709 426.099 570.373 396.986 527.196C393.374 507.515 394.564 488.073 400.981 468.912C401.746 466.636 402.575 464.36 403.489 462.106C405.975 455.907 409.035 449.751 412.647 443.596C419.299 440.063 425.291 437.895 430.752 436.833C428.627 450.792 427.777 462.908 428.075 473.312C429.817 533.937 470.554 537.037 525.187 513.671Z" fill="#390176"/>
</g>
<path d="M404.339 468.067L398.41 525.7C397.751 532.246 395.584 538.597 391.822 543.951C381.899 557.996 365.047 561.161 349.662 552.382C336.169 544.688 328.115 529.905 327.924 514.126C327.86 509.292 327.945 504.567 328.094 500.232C328.2 500.211 328.306 500.189 328.412 500.167H328.094V500.232C312.539 503.223 296.984 503.614 281.429 501.424C279.134 501.099 276.881 500.731 274.607 500.297V500.189H274.012C274.225 500.232 274.416 500.276 274.607 500.297C274.756 504.632 274.841 509.336 274.777 514.148C274.586 529.905 266.532 544.709 253.039 552.404C247.62 555.482 242.01 557.107 236.591 557.281C226.625 557.606 217.296 553.076 210.857 543.972C207.075 538.64 204.929 532.29 204.249 525.722L198.32 468.11V468.088C172.395 424.023 184.359 354.013 204.822 308.82H397.815C418.3 353.991 430.264 424.023 404.339 468.067Z" fill="white"/>
<path d="M274.586 500.146V500.254C274.374 500.232 274.182 500.189 273.991 500.146H274.586Z" fill="white"/>
<path d="M328.391 500.146C328.285 500.167 328.179 500.189 328.072 500.211V500.146H328.391Z" fill="white"/>
<path d="M273.991 500.146H274.586V500.254C274.395 500.232 274.204 500.189 273.991 500.146Z" fill="white"/>
<path d="M328.391 500.146C328.285 500.167 328.179 500.189 328.072 500.211V500.146H328.391Z" fill="white"/>
<g opacity="0.3">
<path d="M404.339 468.067L398.41 525.701C397.751 532.246 395.584 538.597 391.822 543.951C382.706 556.848 367.746 560.576 353.445 554.29C357.929 552.057 361.966 548.611 365.26 543.951C369.021 538.619 371.189 532.268 371.847 525.701L377.776 468.088V468.067C403.701 424.023 391.737 353.991 371.274 308.799H397.836C418.3 353.991 430.264 424.023 404.339 468.067Z" fill="#390176"/>
</g>
<g opacity="0.6">
<path d="M241.734 556.631C229.897 558.972 218.38 554.593 210.857 543.929C207.075 538.597 204.929 532.247 204.249 525.679L198.32 468.067V468.045C172.395 423.98 184.359 353.97 204.822 308.777H217.02C196.556 353.97 184.592 423.98 210.517 468.045V468.067L216.446 525.679C217.126 532.225 219.272 538.576 223.055 543.929C227.942 550.844 234.487 555.114 241.734 556.631Z" fill="white"/>
<path d="M373.122 556.631C365.664 558.192 357.461 556.805 349.641 552.34C336.147 544.645 328.094 529.863 327.903 514.083C327.86 509.922 327.903 505.825 328.009 501.988C328.838 501.902 329.645 501.815 330.453 501.707L329.347 479.815C335.51 479.815 340.482 484.974 340.397 491.259L340.249 500.189C340.1 504.589 340.015 509.358 340.079 514.257C340.27 529.949 348.345 544.667 361.775 552.318C365.536 554.464 369.34 555.894 373.122 556.631Z" fill="white"/>
</g>
<path d="M301.191 464.794C327.844 464.794 349.45 439.679 349.45 408.699C349.45 377.719 327.844 352.604 301.191 352.604C274.539 352.604 252.933 377.719 252.933 408.699C252.933 439.679 274.539 464.794 301.191 464.794Z" fill="#FFB531"/>
<g opacity="0.3">
<path d="M281.917 419.472C274.841 433.777 263.6 438.394 249.001 435.338C220.462 426.017 222.864 400.918 229.579 363.615L262.707 361.469C273.715 360.754 283.256 369.142 284.212 380.37C284.637 385.377 285.169 390.47 285.764 395.607C286.72 403.801 285.551 412.124 281.917 419.472Z" fill="#390176"/>
</g>
<path d="M214.406 352.712C207.67 389.993 204.716 424.305 233.255 433.625C247.832 436.703 259.095 432.086 266.15 417.759C269.784 410.411 270.952 402.066 269.996 393.895C268.572 381.692 267.595 369.814 267.276 358.435" fill="white"/>
<path d="M388.274 352.712C395.01 389.993 397.964 424.305 369.425 433.625C354.847 436.703 343.585 432.086 336.53 417.759C332.896 410.411 331.727 402.066 332.684 393.895C334.107 381.692 335.085 369.814 335.404 358.435" fill="white"/>
<g opacity="0.3">
<path d="M369.404 433.625C363.22 434.926 357.631 434.839 352.723 433.235C375.226 425.129 377.181 400.723 373.463 371.808C372.251 362.336 378.966 353.731 388.274 352.712C394.989 390.015 397.964 424.305 369.404 433.625Z" fill="#390176"/>
</g>
<g opacity="0.6">
<path d="M373.654 431.934C372.336 432.563 370.913 433.126 369.404 433.625C354.826 436.681 343.585 432.086 336.509 417.759C332.875 410.411 331.706 402.088 332.663 393.916C334.086 381.713 335.064 369.835 335.383 358.456C341.333 357.806 346.454 362.791 346.05 368.882C345.561 376.208 344.839 383.707 343.946 391.337C342.99 399.509 344.18 407.853 347.793 415.18C353.679 427.101 362.455 432.303 373.654 431.934Z" fill="white"/>
</g>
<g opacity="0.3">
<path d="M246.961 435.338C240.777 436.638 235.189 436.551 230.28 434.947C252.784 426.841 254.739 402.435 251.02 373.521C249.809 364.049 256.524 355.444 265.831 354.425C272.525 391.706 275.5 426.017 246.961 435.338Z" fill="#390176"/>
</g>
<g opacity="0.6">
<path d="M251.211 431.934C249.894 432.563 248.47 433.126 246.961 433.625C232.384 436.681 221.142 432.086 214.066 417.759C210.432 410.411 209.264 402.088 210.22 393.916C211.644 381.713 212.621 369.835 212.94 358.456C218.89 357.806 224.011 362.791 223.607 368.882C223.119 376.208 222.396 383.707 221.504 391.337C220.547 399.509 221.737 407.853 225.35 415.18C231.236 427.101 240.012 432.303 251.211 431.934Z" fill="white"/>
</g>
<path d="M215.894 352.994C216.722 355.075 216.999 357.047 217.169 358.998C217.317 360.949 217.254 362.834 217.105 364.72C216.829 368.492 216.234 372.176 215.639 375.861C215.044 379.546 214.682 383.252 214.534 386.915C214.364 390.6 214.342 394.241 214.576 397.84C215.022 405.014 216.467 412.015 219.74 417.651C222.991 423.286 228.282 427.209 234.636 429.247L234.169 429.117C237.824 429.875 241.479 430.135 244.9 429.68C246.6 429.42 248.257 429.03 249.787 428.38C251.36 427.794 252.784 426.906 254.144 425.909C256.821 423.85 259.137 421.097 260.965 417.867C262.835 414.616 264.152 411.213 264.939 407.55C265.725 403.909 265.959 400.137 265.704 396.366L264.407 383.989C263.982 379.784 263.77 375.536 263.09 371.331C262.814 369.229 262.792 367.083 263.09 364.937C263.43 362.791 264.067 360.645 265.789 358.478C266.469 357.611 267.722 357.481 268.572 358.174C268.657 358.239 268.721 358.304 268.785 358.369L268.806 358.391C270.634 360.428 271.441 362.444 271.951 364.503C272.44 366.541 272.652 368.6 272.652 370.681C272.546 374.842 272.992 378.961 273.375 383.079L274.012 389.278C274.225 391.359 274.501 393.309 274.692 395.694C275.011 400.289 274.735 404.949 273.757 409.501C272.801 414.031 271.059 418.517 268.764 422.484C266.469 426.494 263.409 430.309 259.52 433.278C255.631 436.248 250.85 438.112 246.154 438.762C241.415 439.391 236.761 439 232.384 438.09C232.235 438.068 232.086 438.025 231.937 437.982H231.916C227.964 436.703 224.075 434.795 220.632 432.129C217.19 429.485 214.194 426.125 212.026 422.354C209.837 418.604 208.35 414.573 207.372 410.541C206.374 406.488 205.864 402.435 205.609 398.425C205.354 394.415 205.375 390.427 205.566 386.482C205.757 382.537 206.076 378.635 206.331 374.756C206.586 370.854 207.032 366.996 207.946 363.225C208.371 361.339 208.924 359.475 209.71 357.654C210.517 355.855 211.474 354.078 212.961 352.409C213.62 351.672 214.746 351.628 215.447 352.3C215.639 352.517 215.787 352.734 215.894 352.994Z" fill="#390176"/>
<path d="M208.924 310.728C202.634 324.708 197.768 339.447 194.219 354.446C190.691 369.467 188.503 384.835 188.099 400.181C187.908 407.854 188.163 415.526 189.098 423.091C190.011 430.656 191.648 438.068 193.751 445.265C195.876 452.461 198.49 459.483 201.869 466.138C205.226 472.835 209.349 479.143 214.13 485.233C214.661 485.905 214.555 486.881 213.896 487.422C213.386 487.856 212.664 487.856 212.133 487.509C205.396 483.131 199.659 477.105 195.069 470.321C190.479 463.515 186.994 455.95 184.571 448.126C182.149 440.279 180.831 432.195 179.981 424.131C179.174 416.068 178.876 407.984 179.089 399.921C179.514 383.816 181.788 367.863 185.443 352.279C189.119 336.695 194.155 321.457 200.721 306.848C201.763 304.551 204.44 303.532 206.693 304.594C208.945 305.656 209.965 308.409 208.924 310.728Z" fill="#390176"/>
<path d="M273.864 477.452C275.776 481.635 276.903 485.927 277.753 490.262C278.581 494.597 279.049 498.975 279.198 503.354C279.283 505.543 279.346 507.754 279.389 509.943C279.41 512.154 279.474 514.278 279.368 516.749C279.155 521.517 278.263 526.264 276.711 530.816C273.651 539.876 267.956 548.199 260.179 553.943C256.311 556.826 252.061 559.124 247.45 560.684C242.839 562.223 237.866 562.982 232.873 562.635C227.879 562.288 222.928 560.771 218.55 558.257C214.151 555.764 210.369 552.296 207.373 548.351C204.291 544.428 202.081 539.833 200.679 535.108C199.978 532.745 199.468 530.339 199.149 527.912C199.064 527.305 199 526.676 198.936 526.113L198.788 524.487L198.469 521.257C196.833 504.026 195.239 486.772 193.985 469.497C193.794 466.961 195.664 464.772 198.129 464.577C200.509 464.404 202.613 466.159 202.931 468.544C205.205 485.71 207.16 502.92 209.051 520.13L209.391 523.36L209.561 524.964L209.731 526.394C210.008 528.258 210.411 530.101 210.964 531.856C212.069 535.411 213.705 538.706 215.936 541.545C220.314 547.354 226.689 551.191 233.68 551.646C240.629 552.274 248.003 549.738 254.059 545.382C260.115 541.025 264.79 534.652 267.489 527.456C268.849 523.858 269.678 520.044 269.975 516.164C270.124 514.3 270.145 512.111 270.166 509.986C270.188 507.862 270.188 505.716 270.166 503.592C270.124 499.322 270.188 495.052 270.485 490.739C270.783 486.426 271.25 482.091 272.27 477.647V477.626C272.376 477.17 272.823 476.889 273.269 476.997C273.545 477.04 273.758 477.235 273.864 477.452Z" fill="#390176"/>
<path d="M221.844 533.763C222.162 538.25 223.799 542.563 226.072 546.27C227.22 548.112 228.559 549.803 230.025 551.125C230.769 551.754 231.512 552.339 232.235 552.686L232.766 552.946C232.936 553.011 233.106 553.032 233.255 553.076C233.595 553.228 233.807 553.119 234.041 553.184L234.976 553.466C237.059 554.095 238.249 556.305 237.632 558.43C237.016 560.554 234.849 561.768 232.766 561.139C232.724 561.117 232.66 561.096 232.617 561.096C231.746 560.792 230.811 560.51 230.131 560.055C229.77 559.838 229.387 559.643 229.069 559.405L228.155 558.668C226.965 557.693 226.051 556.587 225.222 555.503C223.607 553.293 222.46 550.93 221.546 548.524C220.654 546.118 220.037 543.647 219.697 541.155C219.357 538.662 219.294 536.126 219.634 533.633C219.719 533.005 220.292 532.571 220.909 532.658C221.44 532.745 221.844 533.178 221.886 533.72L221.844 533.763Z" fill="#390176"/>
<path d="M251.848 533.655C252.188 536.148 252.125 538.684 251.785 541.177C251.445 543.669 250.807 546.14 249.936 548.546C249.043 550.952 247.896 553.293 246.26 555.526C245.431 556.631 244.517 557.715 243.327 558.69L242.413 559.427C242.073 559.644 241.712 559.861 241.351 560.077C240.671 560.532 239.715 560.814 238.865 561.118C236.825 561.833 234.593 560.706 233.892 558.625C233.191 556.544 234.296 554.268 236.336 553.553C236.378 553.531 236.421 553.531 236.485 553.51L237.441 553.228C237.675 553.163 237.908 553.271 238.227 553.12C238.376 553.076 238.546 553.033 238.716 552.99L239.247 552.729C239.97 552.383 240.735 551.797 241.457 551.169C242.923 549.847 244.262 548.156 245.41 546.314C247.683 542.607 249.32 538.294 249.638 533.807V533.785C249.681 533.157 250.212 532.68 250.85 532.723C251.36 532.702 251.785 533.135 251.848 533.655Z" fill="#390176"/>
<path d="M252.954 409.067C253.421 411.647 253.867 414.291 253.889 417.001C253.931 419.71 253.719 422.506 252.975 425.28C252.231 428.055 250.935 430.829 248.916 433.213C247.939 434.427 246.706 435.468 245.367 436.4C243.986 437.288 242.477 437.982 240.82 438.437L240.692 438.48C238.589 439.066 236.4 437.787 235.826 435.619C235.252 433.473 236.506 431.241 238.631 430.656C238.886 430.591 239.162 430.547 239.417 430.526C240.225 430.482 241.096 430.287 241.946 429.962C242.775 429.594 243.646 429.16 244.39 428.51C245.941 427.274 247.28 425.54 248.257 423.503C249.235 421.466 249.872 419.146 250.276 416.74C250.722 414.334 250.744 411.842 250.765 409.328V409.263C250.765 408.634 251.275 408.114 251.891 408.114C252.401 408.135 252.869 408.526 252.954 409.067Z" fill="#390176"/>
<path d="M230.259 412.535C230.28 414.854 230.322 417.152 230.747 419.341C231.13 421.509 231.725 423.611 232.724 425.302C233.701 427.014 235.04 428.228 236.57 429.008C238.1 429.81 239.927 430.157 241.882 430.309C244.071 430.482 245.707 432.411 245.537 434.644C245.367 436.876 243.476 438.545 241.287 438.372C241.011 438.35 240.756 438.307 240.522 438.242L240.459 438.22C237.909 437.483 235.21 436.399 232.915 434.47C230.62 432.606 228.92 430.027 228.07 427.383C227.177 424.738 227.007 422.094 227.071 419.601C227.114 417.065 227.539 414.659 228.006 412.275C228.134 411.647 228.707 411.235 229.324 411.365C229.855 411.473 230.237 411.95 230.237 412.492L230.259 412.535Z" fill="#390176"/>
<path d="M389.74 352.431C391.227 354.1 392.184 355.877 392.991 357.676C393.799 359.475 394.33 361.361 394.755 363.247C395.669 367.018 396.115 370.876 396.37 374.778C396.625 378.679 396.944 382.581 397.135 386.504C397.326 390.449 397.347 394.415 397.092 398.447C396.837 402.457 396.327 406.532 395.329 410.563C394.33 414.595 392.842 418.626 390.675 422.376C388.507 426.126 385.532 429.485 382.069 432.151C378.626 434.817 374.737 436.725 370.785 438.004H370.764C370.615 438.047 370.466 438.09 370.317 438.112C365.94 439.022 361.286 439.413 356.547 438.784C351.83 438.155 347.07 436.27 343.181 433.3C339.292 430.331 336.211 426.516 333.937 422.506C331.642 418.54 329.9 414.053 328.944 409.523C327.966 404.971 327.669 400.311 328.009 395.716C328.2 393.31 328.476 391.381 328.689 389.3L329.326 383.101C329.709 378.961 330.176 374.843 330.049 370.703C330.049 368.622 330.261 366.585 330.75 364.525C331.281 362.488 332.089 360.451 333.895 358.413V358.391C334.639 357.568 335.871 357.524 336.679 358.261C336.742 358.326 336.827 358.413 336.87 358.478C338.57 360.624 339.229 362.791 339.569 364.937C339.866 367.083 339.845 369.207 339.569 371.331C338.91 375.536 338.697 379.763 338.251 383.99L336.955 396.366C336.679 400.137 336.934 403.909 337.72 407.55C338.506 411.213 339.824 414.616 341.694 417.868C343.521 421.097 345.837 423.85 348.515 425.909C349.875 426.906 351.32 427.773 352.871 428.38C354.401 429.052 356.059 429.42 357.759 429.681C361.18 430.136 364.835 429.876 368.49 429.117L368.022 429.247C374.397 427.21 379.667 423.286 382.919 417.651C386.191 412.015 387.657 405.014 388.082 397.84C388.295 394.242 388.295 390.579 388.125 386.916C387.976 383.231 387.615 379.546 387.02 375.861C386.425 372.177 385.83 368.492 385.554 364.721C385.405 362.835 385.32 360.949 385.49 358.998C385.681 357.048 385.957 355.075 386.765 352.994V352.973C387.126 352.041 388.167 351.607 389.06 351.976C389.336 352.084 389.57 352.257 389.74 352.431Z" fill="#390176"/>
<path d="M401.916 306.87C408.504 321.5 413.519 336.738 417.195 352.3C420.85 367.885 423.124 383.837 423.549 399.942C423.74 408.005 423.464 416.09 422.656 424.153C421.806 432.216 420.489 440.301 418.066 448.147C415.665 455.972 412.18 463.536 407.569 470.342C402.979 477.127 397.241 483.152 390.505 487.531C389.804 487.986 388.848 487.769 388.401 487.054C388.04 486.49 388.104 485.753 388.486 485.255V485.233C393.268 479.121 397.39 472.813 400.748 466.137C404.126 459.462 406.761 452.461 408.865 445.264C410.969 438.068 412.605 430.655 413.519 423.091C414.454 415.526 414.709 407.853 414.518 400.18C414.114 384.835 411.946 369.467 408.398 354.446C404.849 339.425 399.983 324.708 393.693 310.728V310.706C392.651 308.408 393.65 305.677 395.903 304.615C398.198 303.553 400.875 304.572 401.916 306.87Z" fill="#390176"/>
<path d="M330.389 477.625C331.409 482.069 331.876 486.447 332.174 490.782C332.471 495.117 332.535 499.409 332.492 503.7C332.471 505.846 332.471 507.992 332.492 510.116L332.556 513.324C332.556 513.866 332.577 514.365 332.62 514.841L332.705 516.294C333.002 520.173 333.895 524.01 335.255 527.63C337.975 534.869 342.735 541.198 348.855 545.555C354.975 549.912 362.391 552.339 369.382 551.624C376.374 550.974 382.749 547.094 387.041 541.133C389.209 538.25 390.802 534.869 391.865 531.293C392.375 529.494 392.779 527.651 393.012 525.766L393.714 519.371C395.626 502.075 397.581 484.8 399.876 467.547C400.216 465.032 402.469 463.277 404.934 463.602C407.314 463.927 408.992 466.094 408.822 468.5C407.547 485.862 405.954 503.18 404.296 520.499L403.637 527.088C403.361 529.537 402.872 531.943 402.214 534.349C400.875 539.096 398.75 543.756 395.711 547.766C392.779 551.776 389.017 555.309 384.661 557.888C380.305 560.489 375.354 562.115 370.36 562.57C365.345 562.982 360.33 562.31 355.676 560.792C351.022 559.275 346.73 557.021 342.82 554.16C338.931 551.277 335.467 547.831 332.662 543.886C329.857 539.941 327.647 535.606 326.075 531.054C324.502 526.503 323.567 521.734 323.334 516.944L323.27 515.145C323.249 514.538 323.227 513.953 323.249 513.411L323.291 510.095C323.334 507.884 323.397 505.673 323.482 503.462C323.652 499.062 324.099 494.662 324.927 490.305C325.777 485.949 326.904 481.635 328.816 477.452C329.007 477.019 329.517 476.845 329.921 477.04C330.155 477.149 330.325 477.365 330.389 477.625Z" fill="#390176"/>
<path d="M383.089 533.655C383.429 536.148 383.365 538.684 383.025 541.177C382.685 543.669 382.047 546.14 381.176 548.546C380.284 550.952 379.136 553.293 377.5 555.526C376.65 556.631 375.757 557.715 374.567 558.69L373.654 559.427C373.314 559.644 372.952 559.861 372.591 560.077C371.911 560.532 370.955 560.814 370.105 561.118C368.065 561.833 365.834 560.706 365.132 558.625C364.431 556.544 365.536 554.268 367.576 553.553C367.619 553.531 367.661 553.531 367.725 553.51L368.681 553.228C368.915 553.163 369.149 553.271 369.467 553.12C369.616 553.076 369.786 553.033 369.956 552.99L370.487 552.729C371.21 552.383 371.975 551.797 372.697 551.169C374.164 549.847 375.502 548.156 376.65 546.314C378.924 542.607 380.56 538.294 380.879 533.807V533.785C380.921 533.157 381.452 532.68 382.09 532.723C382.579 532.702 383.004 533.135 383.089 533.655Z" fill="#390176"/>
<path d="M353.062 533.763C353.381 538.25 355.017 542.563 357.291 546.27C358.439 548.112 359.777 549.803 361.244 551.125C361.987 551.754 362.731 552.339 363.454 552.686L363.985 552.946C364.155 553.011 364.325 553.032 364.474 553.076C364.814 553.228 365.026 553.119 365.26 553.184L366.195 553.466C368.277 554.095 369.467 556.305 368.851 558.43C368.235 560.554 366.067 561.768 363.985 561.139C363.942 561.117 363.879 561.096 363.836 561.096C362.965 560.792 362.03 560.51 361.35 560.055C360.989 559.838 360.606 559.643 360.287 559.405L359.374 558.668C358.184 557.693 357.27 556.587 356.441 555.503C354.826 553.293 353.679 550.93 352.765 548.524C351.872 546.118 351.256 543.647 350.916 541.155C350.576 538.662 350.512 536.126 350.852 533.633C350.937 533.005 351.511 532.571 352.127 532.658C352.659 532.745 353.062 533.178 353.105 533.72L353.062 533.763Z" fill="#390176"/>
<path d="M351.957 409.327C351.957 411.842 352 414.356 352.446 416.74C352.85 419.146 353.487 421.444 354.465 423.503C355.442 425.54 356.76 427.296 358.332 428.51C359.076 429.16 359.947 429.593 360.776 429.962C361.626 430.287 362.497 430.46 363.305 430.525C365.494 430.677 367.151 432.585 367.002 434.817C366.854 437.05 364.984 438.74 362.795 438.589C362.54 438.567 362.285 438.524 362.03 438.458L361.881 438.415C360.224 437.96 358.715 437.245 357.334 436.378C355.995 435.446 354.762 434.427 353.785 433.191C351.766 430.807 350.449 428.033 349.726 425.258C348.982 422.484 348.77 419.688 348.812 416.979C348.834 414.247 349.28 411.625 349.747 409.045C349.854 408.417 350.449 408.005 351.065 408.113C351.596 408.222 351.979 408.699 351.979 409.241V409.327H351.957Z" fill="#390176"/>
<path d="M374.653 412.253C375.099 414.638 375.545 417.044 375.588 419.579C375.651 422.094 375.481 424.738 374.589 427.361C373.76 430.005 372.039 432.585 369.744 434.449C367.47 436.356 364.771 437.44 362.2 438.198L362.158 438.22C360.054 438.827 357.865 437.591 357.27 435.446C356.675 433.3 357.886 431.067 359.99 430.46C360.245 430.395 360.521 430.33 360.776 430.309C362.731 430.157 364.559 429.832 366.089 429.008C367.619 428.228 368.957 427.014 369.935 425.302C370.934 423.611 371.529 421.509 371.911 419.341C372.315 417.152 372.379 414.854 372.4 412.535V412.47C372.4 411.841 372.91 411.321 373.547 411.321C374.1 411.343 374.568 411.733 374.653 412.253Z" fill="#390176"/>
<path d="M301.191 506.8C291.863 506.8 282.513 505.89 273.248 504.091C271.101 503.679 269.699 501.576 270.124 499.387C270.528 497.198 272.589 495.789 274.735 496.201C292.288 499.625 310.095 499.625 327.648 496.201C329.794 495.789 331.855 497.22 332.259 499.387C332.663 501.576 331.26 503.679 329.135 504.091C319.87 505.89 310.541 506.8 301.191 506.8Z" fill="#390176"/>
<path d="M460.948 213.841C460.948 230.682 457.251 245.746 450.515 258.968C445.648 268.505 439.21 277.088 431.411 284.674C428.712 287.297 425.865 289.811 422.868 292.196C422.868 292.196 422.868 292.217 422.847 292.217C392.8 316.168 347.622 328.436 297.111 328.436C290.566 328.436 284.085 328.22 277.752 327.808H277.731C235.146 325.033 197.533 313.025 171.375 292.196C171.353 292.196 171.353 292.174 171.353 292.174C168.782 290.115 166.296 287.991 163.958 285.737C144.642 267.465 133.273 243.405 133.273 213.797C133.273 203.068 134.718 192.491 137.46 182.26C138.522 178.229 139.818 174.262 141.285 170.339L141.03 170.534C144.706 137.935 148.637 106.246 155.246 76.226C158.348 62.1156 162.067 48.3953 166.615 35.1302C172.416 18.2237 192.37 11.5261 206.756 21.7784C227.39 36.4957 247.365 57.217 258.84 74.5137C270.336 72.1511 282.3 70.894 294.646 70.894C301.51 70.894 308.267 71.2841 314.94 72.0211C322.016 72.823 328.986 74.0368 335.786 75.6191L334.426 74.5137C345.901 57.217 365.876 36.4957 386.51 21.7784C400.896 11.5261 420.828 18.2237 426.651 35.1302C437.722 67.3609 443.778 102.344 448.475 138.823C449.771 148.967 450.961 159.22 452.13 169.58C457.846 183.734 460.948 198.646 460.948 213.841Z" fill="white"/>
<path d="M197.768 129.525C197.768 159.328 176.263 183.474 149.743 183.474C146.3 183.474 142.964 183.062 139.734 182.304C140.796 178.272 142.093 174.306 143.559 170.382L143.304 170.577C146.98 137.978 150.911 106.289 157.52 76.2695C180.343 80.4745 197.768 102.713 197.768 129.525Z" fill="#FFB531"/>
<path d="M462.075 213.841C462.075 230.682 458.378 245.746 451.641 258.968C438.998 265.514 425.121 269.134 410.544 269.134C351.32 269.134 303.316 209.267 303.316 135.399C303.316 112.488 307.949 90.9001 316.088 72.0645C323.164 72.8665 330.134 74.0803 336.934 75.6626L335.574 74.5571C347.049 57.2605 367.024 36.5392 387.658 21.8219C402.044 11.5696 421.976 18.2672 427.799 35.1737C438.87 67.4044 444.926 102.388 449.623 138.867C450.919 149.011 452.109 159.263 453.278 169.624C458.973 183.734 462.075 198.646 462.075 213.841Z" fill="#FFB531"/>
<g opacity="0.3">
<path d="M450.897 209.267C450.897 226.109 447.2 241.173 440.464 254.395C435.597 263.932 429.158 272.515 421.36 280.101C418.661 282.724 415.813 285.238 412.817 287.622C412.817 287.622 412.817 287.644 412.796 287.644C382.749 311.595 337.571 323.863 287.06 323.863C280.515 323.863 274.033 323.646 267.701 323.234H267.68C243.816 321.695 221.546 317.252 201.953 309.948C191.052 305.006 181.15 299.088 172.522 292.217C172.501 292.217 172.501 292.196 172.501 292.196C169.93 290.137 167.443 288.013 165.106 285.758C163.257 284.003 161.451 282.182 159.751 280.318C184.231 294.363 215.341 302.621 249.681 304.854H249.702C256.056 305.266 262.516 305.483 269.061 305.483C319.572 305.483 364.75 293.193 394.797 269.264C394.818 269.264 394.818 269.242 394.818 269.242C397.815 266.858 400.683 264.343 403.361 261.721C411.16 254.113 417.599 245.551 422.465 236.014C429.201 222.792 432.898 207.728 432.898 190.887C432.898 175.671 429.796 160.78 424.101 146.67C422.932 136.309 421.742 126.057 420.446 115.913C415.984 81.2547 410.288 47.9619 400.237 17.0967C402.426 16.8799 404.636 16.9666 406.782 17.3134C411.139 20.4346 415.707 23.8376 417.811 29.4514C428.946 59.2762 435.066 98.0095 439.762 134.488C441.058 144.632 442.333 154.755 443.523 165.094C449.197 179.182 450.897 194.051 450.897 209.267Z" fill="#390176"/>
</g>
<g opacity="0.6">
<path d="M207.904 21.8433C209.668 23.1005 211.41 24.401 213.153 25.7232C199.255 18.9172 182.085 25.8315 176.773 41.3075C162.556 82.7718 156.564 128.809 151.188 176.711L151.443 176.516C146.236 190.388 143.431 205.04 143.431 219.975C143.431 249.583 154.8 273.663 174.116 291.914C176.475 294.146 178.94 296.292 181.511 298.351C181.511 298.351 181.511 298.373 181.533 298.373C182.574 299.218 183.658 300.042 184.741 300.844C180.449 298.178 176.348 295.317 172.523 292.261C172.501 292.261 172.501 292.239 172.501 292.239C169.93 290.18 167.444 288.056 165.106 285.802C145.79 267.529 134.421 243.47 134.421 213.862C134.421 198.906 137.226 184.276 142.433 170.404L142.178 170.599C147.575 122.697 153.546 76.6811 167.763 35.1951C173.564 18.2886 193.518 11.5911 207.904 21.8433Z" fill="white"/>
</g>
<g opacity="0.6">
<path d="M421.658 25.095C413.774 21.8437 404.424 22.4506 396.667 27.9561C378.392 40.9827 360.628 58.7346 348.834 74.6223C346.135 78.2421 341.672 79.9761 337.274 79.2174C337.252 79.2174 337.231 79.2174 337.21 79.1958H337.189C336.509 77.9169 335.765 76.5514 335.042 75.2292C335.659 75.3593 336.296 75.511 336.912 75.6627L335.553 74.5573C347.028 57.2607 367.002 36.5394 387.636 21.822C398.686 13.9974 412.966 16.0782 421.658 25.095Z" fill="white"/>
</g>
<path d="M217.7 89.2312C210.773 76.2912 201.805 64.0015 195.345 55.83C191.903 51.4734 185.06 53.0556 183.806 58.5177C180.661 72.2597 176.22 95.4519 175.583 119.533V119.555" fill="#F962BB"/>
<g opacity="0.6">
<path d="M223.692 96.0152L194.048 116.216C188.821 119.771 182.297 120.746 176.305 118.882L217.7 89.2309C210.772 76.2909 201.805 64.0012 195.345 55.8297C195.323 55.7864 195.302 55.7647 195.26 55.743C197.767 52.6652 202.718 52.3184 205.46 55.8297C210.815 62.614 219.315 73.9717 226.008 85.0476C228.24 88.754 227.241 93.5876 223.692 96.0152Z" fill="white"/>
</g>
<g opacity="0.3">
<path d="M197.831 59.0376C197.598 59.4928 197.428 59.9913 197.3 60.5332C194.686 71.9343 191.18 89.8595 189.714 109.367L175.583 119.533V119.511C176.22 95.4299 180.661 72.2377 183.806 58.4958C185.06 53.0337 191.903 51.4514 195.345 55.8081C196.131 56.8485 196.96 57.9105 197.831 59.0376Z" fill="#390176"/>
</g>
<path d="M419.979 119.533C419.341 95.4302 414.9 72.2597 411.755 58.5177C410.501 53.0556 403.659 51.4734 400.216 55.83C393.756 64.0232 384.789 76.2912 377.861 89.2312" fill="#F962BB"/>
<g opacity="0.6">
<path d="M419.978 120.985L419.893 116.65C419.001 93.6092 414.793 71.7175 411.755 58.5174C411.521 57.4987 411.096 56.6317 410.543 55.8947C413.943 54.8543 417.938 56.7617 418.873 60.8149C421.7 73.1263 425.546 93.0457 426.778 114.374C427.012 118.275 423.782 121.44 419.978 120.985Z" fill="white"/>
</g>
<g opacity="0.3">
<path d="M412.945 63.8928C412.541 64.1963 412.18 64.5864 411.84 64.9983C405.486 73.0614 396.689 85.091 389.804 97.8142L377.861 89.2092C384.789 76.2693 393.756 63.9795 400.216 55.8081C403.659 51.4514 410.501 53.0337 411.755 58.4958C412.138 60.1864 412.541 61.9638 412.945 63.8928Z" fill="#390176"/>
</g>
<path d="M313.516 226.044C313.495 230.661 307.269 234.389 299.576 234.367C291.884 234.345 285.658 230.595 285.679 225.979C285.7 221.362 291.926 220.972 299.619 220.993C307.311 221.015 313.537 221.427 313.516 226.044Z" fill="#390176"/>
<path d="M331.706 231.05C331.855 234.8 331.111 238.897 328.667 242.43C327.435 244.164 325.777 245.703 323.844 246.765C321.91 247.827 319.742 248.412 317.575 248.586C313.219 248.932 309.011 247.589 305.462 245.313C303.677 244.164 302.062 242.733 300.66 241.108C300.32 240.696 299.98 240.262 299.661 239.829L299.194 239.157L298.96 238.81C298.896 238.702 298.769 238.528 298.832 238.637C299.066 238.984 299.491 239.179 299.789 239.179C300.086 239.2 300.511 238.984 300.745 238.637C300.809 238.528 300.702 238.702 300.617 238.81L300.384 239.135L299.916 239.807C299.597 240.241 299.257 240.653 298.917 241.064C297.494 242.69 295.879 244.099 294.094 245.248C290.524 247.502 286.295 248.824 281.96 248.477C279.814 248.304 277.625 247.719 275.712 246.635C273.779 245.551 272.121 244.034 270.91 242.278C268.487 238.723 267.765 234.627 267.914 230.877C267.935 230.227 268.466 229.728 269.104 229.772C269.592 229.793 269.996 230.14 270.145 230.574L270.166 230.617C271.186 233.933 272.589 237.011 274.735 238.984C276.839 240.978 279.452 241.845 282.172 241.693C284.892 241.585 287.634 240.479 289.929 238.81C291.076 237.965 292.117 237.011 293.01 235.906L293.647 235.06L294.349 234.02C295.581 232.199 297.749 231.094 299.81 231.137C301.871 231.116 304.06 232.221 305.271 234.042L305.972 235.082L306.61 235.927C307.481 237.033 308.522 238.008 309.67 238.853C311.944 240.522 314.685 241.628 317.405 241.758C320.125 241.931 322.739 241.086 324.842 239.092C327.01 237.141 328.412 234.063 329.454 230.747L329.475 230.704C329.666 230.097 330.304 229.75 330.899 229.945C331.387 230.14 331.685 230.574 331.706 231.05Z" fill="#390176"/>
<path d="M282.002 245.182C282.002 250.016 283.405 253.874 285.657 256.778C292.415 265.535 306.822 265.535 313.58 256.778C315.832 253.874 317.235 250.016 317.235 245.182C310.414 243.773 304.421 241.216 299.619 237.054C294.625 241.584 288.972 244.727 282.002 245.182Z" fill="#390176"/>
<path d="M285.636 256.779C292.394 265.535 306.801 265.535 313.559 256.779C306.823 248 292.394 248 285.636 256.779Z" fill="#F73954"/>
<path d="M299.597 267.356C294.009 267.356 288.781 265.384 284.85 261.786C281.747 258.946 278.05 253.744 278.05 245.183H285.934C285.934 254.958 292.797 259.336 299.597 259.336C306.397 259.336 313.261 254.958 313.261 245.183H321.145C321.145 259.748 310.307 267.356 299.597 267.356Z" fill="#390176"/>
<path d="M220.973 224.808C298.578 188.806 246.983 134.337 220.973 168.496C194.941 134.337 143.368 188.806 220.973 224.808Z" fill="#F73954"/>
<g opacity="0.6">
<path d="M260.795 172.788C252.529 162.991 236.421 161.149 225.159 175.953C206.65 151.677 175.221 172.181 186.526 199.015C165.234 168.843 200.806 142.01 220.994 168.497C234.721 150.441 255.61 157.139 260.795 172.788Z" fill="white"/>
</g>
<path d="M220.972 228.818C220.42 228.818 219.867 228.688 219.336 228.449C178.621 209.549 175.497 187.224 176.05 178.489C176.751 167.304 183.87 158.006 194.176 154.776C203.611 151.828 213.365 154.668 220.972 162.427C228.58 154.689 238.312 151.828 247.769 154.776C258.075 158.006 265.194 167.304 265.895 178.489C266.448 187.224 263.324 209.571 222.609 228.449C222.077 228.688 221.525 228.818 220.972 228.818ZM201.571 161.669C199.892 161.669 198.192 161.929 196.492 162.471C189.352 164.703 184.401 171.206 183.912 179.03C183.466 185.988 186.25 203.783 220.972 220.386C255.674 203.783 258.458 185.988 258.033 179.03C257.544 171.206 252.592 164.725 245.452 162.471C237.802 160.065 230.025 163.164 224.096 170.967C223.352 171.943 222.205 172.528 220.994 172.528C219.782 172.528 218.635 171.964 217.891 170.967C213.237 164.877 207.5 161.669 201.571 161.669Z" fill="#390176"/>
<g opacity="0.6">
<path d="M208.053 184.579C211.623 190.215 213.684 195.33 209.689 197.953C205.694 200.575 199.595 198.126 196.025 192.469C192.455 186.812 192.795 180.136 196.79 177.513C200.785 174.891 204.504 178.944 208.053 184.579Z" fill="white"/>
</g>
<g opacity="0.6">
<path d="M222.842 206.037C221.95 208.292 219.209 209.31 216.701 208.292C214.194 207.273 212.876 204.607 213.769 202.353C214.661 200.098 216.659 200.965 219.166 201.984C221.674 203.003 223.735 203.783 222.842 206.037Z" fill="white"/>
</g>
<path d="M374.44 224.808C452.045 188.806 400.45 134.337 374.44 168.496C348.43 134.337 296.835 188.806 374.44 224.808Z" fill="#F73954"/>
<g opacity="0.6">
<path d="M414.263 172.788C405.996 162.991 389.889 161.149 378.626 175.953C360.118 151.677 328.689 172.181 339.994 199.015C318.701 168.843 354.274 142.01 374.461 168.497C388.189 150.441 409.078 157.139 414.263 172.788Z" fill="white"/>
</g>
<path d="M374.44 228.818C373.887 228.818 373.335 228.688 372.804 228.449C332.089 209.549 328.965 187.224 329.517 178.489C330.219 167.304 337.337 158.006 347.644 154.776C357.079 151.828 366.832 154.668 374.44 162.427C382.047 154.689 391.78 151.828 401.236 154.776C411.542 158.006 418.661 167.304 419.362 178.489C419.915 187.224 416.791 209.571 376.076 228.449C375.545 228.688 374.992 228.818 374.44 228.818ZM355.039 161.669C353.36 161.669 351.66 161.929 349.96 162.471C342.82 164.703 337.869 171.206 337.38 179.03C336.934 185.988 339.717 203.783 374.44 220.386C409.141 203.783 411.925 185.988 411.5 179.03C411.011 171.206 406.06 164.725 398.92 162.471C391.27 160.065 383.492 163.164 377.564 170.967C376.82 171.943 375.672 172.528 374.461 172.528C373.25 172.528 372.102 171.964 371.359 170.967C366.705 164.877 360.967 161.669 355.039 161.669Z" fill="#390176"/>
<g opacity="0.6">
<path d="M361.541 184.579C365.111 190.215 367.172 195.33 363.177 197.953C359.182 200.575 353.083 198.126 349.513 192.469C345.943 186.833 346.283 180.136 350.278 177.513C354.252 174.912 357.971 178.944 361.541 184.579Z" fill="white"/>
</g>
<g opacity="0.6">
<path d="M376.331 206.037C375.439 208.292 372.697 209.31 370.19 208.292C367.682 207.273 366.365 204.607 367.257 202.353C368.15 200.098 370.147 200.965 372.655 201.984C375.162 203.003 377.202 203.783 376.331 206.037Z" fill="white"/>
</g>
<path d="M175.582 123.564C175.03 123.564 174.499 123.456 173.967 123.217C172.544 122.567 171.63 121.137 171.63 119.554C171.63 119.511 171.63 119.468 171.63 119.424C172.267 95.5819 176.517 72.6497 179.96 57.6073C180.895 53.5757 183.912 50.4979 187.886 49.5875C191.839 48.6772 195.876 50.1077 198.405 53.3373C204.844 61.5088 214.024 74.0369 221.142 87.3237C221.652 88.2774 221.759 89.3828 221.461 90.4016C221.164 91.4203 220.462 92.2873 219.527 92.7858C205.311 100.459 191.414 110.473 178.196 122.524C177.474 123.196 176.517 123.564 175.582 123.564ZM190.245 57.3472C189.99 57.3472 189.777 57.3905 189.629 57.4122C189.14 57.5206 187.971 57.9541 187.631 59.428C184.72 72.1512 181.214 90.6183 179.939 110.408C190.415 101.564 201.252 93.9346 212.302 87.6488C205.779 76.1827 197.937 65.5403 192.264 58.3442C191.626 57.5206 190.84 57.3472 190.245 57.3472Z" fill="#390176"/>
<path d="M298.237 333.053C250.914 333.053 210.029 322.736 179.981 303.228C147.235 281.965 129.916 251.057 129.916 213.841C129.916 199.08 132.53 184.384 137.694 170.144C137.694 170.122 137.694 170.079 137.694 170.057C143.091 122.112 149.126 75.6192 163.512 33.678C166.764 24.2061 173.989 17.01 183.339 13.9321C192.604 10.8759 202.485 12.3932 210.475 18.0937C229.685 31.7923 249.617 51.7116 262.006 69.5068C285.254 65.1285 309.67 65.3452 333.087 70.1571C345.455 52.1885 365.642 31.944 385.086 18.072C393.055 12.3932 402.957 10.8759 412.222 13.9104C421.572 16.9883 428.797 24.1844 432.048 33.6564C446.286 75.1423 452.342 121.093 457.697 168.475C463.605 183.322 466.58 198.56 466.58 213.819C466.58 251.013 449.261 281.922 416.515 303.207C386.467 322.736 345.561 333.053 298.237 333.053ZM146.767 170.035C146.873 170.772 146.789 171.553 146.512 172.29C141.476 185.837 138.926 199.817 138.926 213.841C138.926 247.74 154.8 275.983 184.826 295.469C213.025 313.784 253.293 323.863 298.258 323.863C343.223 323.863 383.492 313.784 411.691 295.469C441.717 275.961 457.591 247.74 457.591 213.841C457.591 200.337 455.041 186.79 450.005 173.568C449.431 172.897 449.048 172.051 448.942 171.098C448.921 170.859 448.9 170.621 448.857 170.404C448.836 170.231 448.815 170.079 448.793 169.905C443.502 122.914 437.51 77.3965 423.57 36.7125C421.254 29.9716 416.111 24.8563 409.481 22.6671C402.915 20.4996 395.924 21.5834 390.271 25.6149C371.38 39.0968 351.787 58.7777 340.036 76.096C339.866 77.2231 339.292 78.2635 338.4 78.9788C337.337 79.8458 335.935 80.1709 334.617 79.8891C310.392 74.427 284.914 74.1669 260.901 79.1088C259.116 79.4773 257.31 78.7187 256.29 77.1798C244.624 59.623 224.627 39.3786 205.354 25.6366C199.701 21.6051 192.71 20.543 186.144 22.6888C179.514 24.878 174.371 29.9933 172.055 36.7342C158.051 77.4399 152.08 123.001 146.767 170.035Z" fill="#390176"/>
<path d="M419.978 123.564C419.107 123.564 418.236 123.261 417.513 122.697C402.575 110.559 388.953 100.74 375.821 92.699C374.015 91.5935 373.377 89.2309 374.397 87.3235C381.516 74.0368 390.696 61.5086 397.156 53.3155C399.685 50.0859 403.722 48.6553 407.675 49.5874C411.627 50.4977 414.666 53.5756 415.601 57.6071C418.767 71.4141 423.697 117.17 423.91 119.099C424.08 120.703 423.293 122.264 421.891 123.066C421.296 123.391 420.637 123.564 419.978 123.564ZM383.152 87.8221C393.331 94.2379 403.85 101.716 415.006 110.451C413.348 95.9502 410.118 69.0299 407.93 59.4278C407.59 57.9323 406.421 57.5204 405.932 57.412C405.443 57.3037 404.232 57.1736 403.297 58.3441C397.602 65.5835 389.697 76.291 383.152 87.8221Z" fill="#390176"/>
<g opacity="0.2">
<path d="M281.981 87.7789C261.964 91.0302 245.771 97.1208 234.211 106.658C230.11 110.039 231.725 116.802 236.867 117.972C260.009 123.218 277.88 117.582 288.611 97.1642C291.097 92.4824 287.145 86.9336 281.981 87.7789Z" fill="white"/>
</g>
<g opacity="0.2">
<path d="M208.987 139.561C205.247 136.678 205.354 130.11 209.221 124.843C213.089 119.598 219.272 117.669 223.012 120.53C226.752 123.391 224.33 128.225 220.462 133.47C216.595 138.737 212.727 142.422 208.987 139.561Z" fill="white"/>
</g>
<path d="M432.538 238.94C437.064 238.052 441.505 237.856 445.925 237.856C450.345 237.878 454.723 238.182 459.1 238.702C463.456 239.222 467.791 239.981 472.084 241.021C476.376 242.083 480.648 243.34 484.855 245.291C480.329 246.18 475.888 246.396 471.468 246.396C467.048 246.375 462.67 246.071 458.314 245.529C453.958 244.988 449.623 244.229 445.33 243.21C441.016 242.148 436.724 240.869 432.538 238.94Z" fill="#390176"/>
<path d="M430.54 259.683C435.109 260.268 439.401 261.46 443.609 262.869C447.795 264.278 451.896 265.947 455.87 267.811C459.865 269.675 463.754 271.778 467.536 274.097C471.298 276.46 474.995 278.996 478.374 282.182C473.805 281.618 469.513 280.404 465.305 279.017C461.119 277.608 457.018 275.939 453.044 274.054C449.049 272.168 445.16 270.087 441.399 267.746C437.616 265.405 433.94 262.848 430.54 259.683Z" fill="#390176"/>
<path d="M162.854 238.268C158.646 240.197 154.375 241.433 150.061 242.473C145.747 243.492 141.412 244.229 137.056 244.728C132.7 245.248 128.301 245.508 123.881 245.53C119.461 245.508 115.02 245.291 110.494 244.359C114.701 242.43 118.972 241.173 123.286 240.154C127.6 239.135 131.935 238.398 136.291 237.9C140.647 237.401 145.046 237.12 149.466 237.12C153.907 237.12 158.349 237.358 162.854 238.268Z" fill="#390176"/>
<path d="M164.766 259.011C161.812 262.501 158.519 265.384 155.119 268.115C151.697 270.802 148.149 273.273 144.494 275.528C140.817 277.803 137.035 279.863 133.104 281.683C129.172 283.482 125.114 285.108 120.715 286.148C123.647 282.659 126.941 279.754 130.341 277.045C133.762 274.357 137.311 271.886 140.987 269.632C144.664 267.378 148.446 265.319 152.377 263.476C156.33 261.677 160.367 260.052 164.766 259.011Z" fill="#390176"/>
<g opacity="0.3">
<path d="M274.586 500.254C274.735 504.589 274.82 509.293 274.756 514.105C274.565 529.862 266.511 544.666 253.017 552.361C247.599 555.439 241.989 557.064 236.57 557.238C256.354 546.921 255.44 503.18 253.931 483.196C253.57 478.406 258.075 474.764 262.559 476.195C270.379 478.666 273.991 479.836 273.991 479.836L277.774 500.839C275.5 500.493 276.86 500.688 274.586 500.254Z" fill="#390176"/>
</g>
<g opacity="0.3">
<path d="M273.991 479.836C273.991 479.836 306.504 484.995 325.82 479.836V501.468L277.774 500.818L273.991 479.836Z" fill="#390176"/>
</g>
</svg>
